<svg width="24" height="24" viewBox="0 0 24 24" fill="none" xmlns="http://www.w3.org/2000/svg">
<path d="M22.125 9.75C22.1233 8.25869 21.5301 6.82896 20.4756 5.77444C19.421 4.71993 17.9913 4.12674 16.5 4.125H13.1625C13.2489 3.70149 13.4791 3.32085 13.8139 3.04751C14.1488 2.77417 14.5678 2.62491 15 2.625C15.2984 2.625 15.5845 2.50647 15.7955 2.2955C16.0065 2.08452 16.125 1.79837 16.125 1.5C16.125 1.20163 16.0065 0.915483 15.7955 0.704505C15.5845 0.493526 15.2984 0.375 15 0.375C13.9714 0.37646 12.9803 0.761646 12.2207 1.4552C11.4611 2.14875 10.9876 3.10077 10.8928 4.125H7.5C6.00869 4.12674 4.57896 4.71993 3.52444 5.77444C2.46993 6.82896 1.87674 8.25869 1.875 9.75C1.875 10.0411 1.94277 10.3282 2.07295 10.5885C2.20313 10.8489 2.39213 11.0753 2.625 11.25V12C2.625 15.5109 5.8125 18.0666 8.36531 20.1197C9.32344 20.8884 10.7681 22.0491 10.875 22.5159C10.875 22.8143 10.9935 23.1005 11.2045 23.3114C11.4155 23.5224 11.7016 23.6409 12 23.6409C12.2984 23.6409 12.5845 23.5224 12.7955 23.3114C13.0065 23.1005 13.125 22.8143 13.125 22.5159C13.2319 22.0472 14.6766 20.8884 15.6347 20.1197C18.1922 18.0666 21.375 15.5109 21.375 12V11.25C21.6079 11.0753 21.7969 10.8489 21.9271 10.5885C22.0572 10.3282 22.125 10.0411 22.125 9.75ZM7.5 6.375H16.5C17.3299 6.37617 18.1303 6.68254 18.7489 7.23576C19.3675 7.78898 19.7609 8.5504 19.8544 9.375H4.14563C4.23906 8.5504 4.63253 7.78898 5.25111 7.23576C5.86968 6.68254 6.67013 6.37617 7.5 6.375ZM14.2256 18.3656C13.3659 19.0556 12.5887 19.6781 12 20.2922C11.4113 19.68 10.6341 19.0556 9.77437 18.3656C7.59375 16.6125 4.875 14.4319 4.875 12V11.625H19.125V12C19.125 14.4319 16.4063 16.6125 14.2256 18.3656Z" fill="#130032"/>
</svg>
