<svg width="24" height="24" viewBox="0 0 24 24" fill="none" xmlns="http://www.w3.org/2000/svg">
<path d="M19.5 2.625H4.5C4.00272 2.625 3.52581 2.82254 3.17417 3.17417C2.82254 3.52581 2.625 4.00272 2.625 4.5V19.5C2.625 19.9973 2.82254 20.4742 3.17417 20.8258C3.52581 21.1775 4.00272 21.375 4.5 21.375H19.5C19.9973 21.375 20.4742 21.1775 20.8258 20.8258C21.1775 20.4742 21.375 19.9973 21.375 19.5V4.5C21.375 4.00272 21.1775 3.52581 20.8258 3.17417C20.4742 2.82254 19.9973 2.625 19.5 2.625ZM17.625 10.125H19.125V13.875H17.625V10.125ZM19.125 7.875H17.625V4.875H19.125V7.875ZM4.875 4.875H15.375V19.125H4.875V4.875ZM17.625 19.125V16.125H19.125V19.125H17.625ZM14.2144 15.4688C13.9885 14.6142 13.4894 13.857 12.7931 13.3125C13.1797 12.8135 13.4186 12.216 13.4826 11.588C13.5466 10.96 13.4333 10.3267 13.1554 9.7599C12.8775 9.19311 12.4462 8.71562 11.9105 8.38167C11.3748 8.04771 10.7562 7.87068 10.125 7.87068C9.49375 7.87068 8.87516 8.04771 8.33949 8.38167C7.80382 8.71562 7.37254 9.19311 7.09464 9.7599C6.81675 10.3267 6.70338 10.96 6.76741 11.588C6.83144 12.216 7.07031 12.8135 7.45687 13.3125C6.76129 13.8576 6.26234 14.6146 6.03562 15.4688C5.99869 15.6118 5.9903 15.7607 6.01092 15.907C6.03154 16.0533 6.08078 16.1942 6.15582 16.3214C6.23086 16.4487 6.33024 16.56 6.44827 16.6488C6.56631 16.7377 6.70069 16.8024 6.84375 16.8394C6.98681 16.8763 7.13574 16.8847 7.28204 16.8641C7.42835 16.8435 7.56916 16.7942 7.69643 16.7192C7.82371 16.6441 7.93495 16.5448 8.02382 16.4267C8.11269 16.3087 8.17744 16.1743 8.21438 16.0312C8.42063 15.2306 9.24563 14.625 10.125 14.625C11.0044 14.625 11.8303 15.2288 12.0356 16.0312C12.1102 16.3202 12.2965 16.5676 12.5536 16.7192C12.8106 16.8707 13.1173 16.914 13.4062 16.8394C13.6952 16.7648 13.9426 16.5785 14.0942 16.3214C14.2457 16.0644 14.289 15.7577 14.2144 15.4688ZM9 11.25C9 11.0275 9.06598 10.81 9.1896 10.625C9.31321 10.44 9.48891 10.2958 9.69448 10.2106C9.90005 10.1255 10.1262 10.1032 10.3445 10.1466C10.5627 10.19 10.7632 10.2972 10.9205 10.4545C11.0778 10.6118 11.185 10.8123 11.2284 11.0305C11.2718 11.2488 11.2495 11.475 11.1644 11.6805C11.0792 11.8861 10.935 12.0618 10.75 12.1854C10.565 12.309 10.3475 12.375 10.125 12.375C9.82663 12.375 9.54048 12.2565 9.3295 12.0455C9.11853 11.8345 9 11.5484 9 11.25Z" fill="#130032"/>
</svg>
