<svg width="24" height="24" viewBox="0 0 24 24" fill="none" xmlns="http://www.w3.org/2000/svg">
<path d="M21.7858 6.42375C21.6129 6.17702 21.383 5.97561 21.1157 5.83657C20.8484 5.69753 20.5515 5.62496 20.2502 5.625H13.1252V3.375H14.2502C14.5486 3.375 14.8347 3.25647 15.0457 3.0455C15.2567 2.83452 15.3752 2.54837 15.3752 2.25C15.3752 1.95163 15.2567 1.66548 15.0457 1.4545C14.8347 1.24353 14.5486 1.125 14.2502 1.125H9.75022C9.45185 1.125 9.1657 1.24353 8.95473 1.4545C8.74375 1.66548 8.62522 1.95163 8.62522 2.25C8.62522 2.54837 8.74375 2.83452 8.95473 3.0455C9.1657 3.25647 9.45185 3.375 9.75022 3.375H10.8752V5.625H3.75022C3.44886 5.62496 3.15194 5.69757 2.8846 5.83666C2.61726 5.97575 2.38739 6.17723 2.21445 6.42403C2.04152 6.67083 1.93062 6.95568 1.89115 7.25444C1.85168 7.5532 1.88481 7.85707 1.98772 8.14031L4.44303 14.8903C4.57515 15.2516 4.81486 15.5636 5.12985 15.7844C5.44484 16.0052 5.81995 16.124 6.2046 16.125H8.62522V21.75C8.62522 22.0484 8.74375 22.3345 8.95473 22.5455C9.1657 22.7565 9.45185 22.875 9.75022 22.875C10.0486 22.875 10.3347 22.7565 10.5457 22.5455C10.7567 22.3345 10.8752 22.0484 10.8752 21.75V16.125H13.1252V21.75C13.1252 22.0484 13.2437 22.3345 13.4547 22.5455C13.6657 22.7565 13.9519 22.875 14.2502 22.875C14.5486 22.875 14.8347 22.7565 15.0457 22.5455C15.2567 22.3345 15.3752 22.0484 15.3752 21.75V16.125H17.7958C18.1805 16.124 18.5556 16.0052 18.8706 15.7844C19.1856 15.5636 19.4253 15.2516 19.5574 14.8903L22.0127 8.14031C22.1157 7.85702 22.1488 7.55309 22.1093 7.25427C22.0698 6.95546 21.9589 6.67057 21.7858 6.42375ZM10.6877 13.875L9.59835 7.875H14.4021L13.3127 13.875H10.6877ZM4.28553 7.875H7.31272L8.40397 13.875H6.46897L4.28553 7.875ZM17.5315 13.875H15.5983L16.6877 7.875H19.713L17.5315 13.875Z" fill="#130032"/>
</svg>
