<svg width="24" height="24" viewBox="0 0 24 24" fill="none" xmlns="http://www.w3.org/2000/svg">
<path d="M19.4995 8.25H13.9683L9.79545 4.07906C9.6909 3.97463 9.56679 3.89181 9.43022 3.83535C9.29365 3.77889 9.14729 3.74989 8.99951 3.75H8.24951C7.95215 3.74958 7.65895 3.8199 7.39411 3.95514C7.12928 4.09038 6.90042 4.28668 6.72641 4.52782C6.5524 4.76896 6.43824 5.04802 6.39336 5.34198C6.34847 5.63594 6.37415 5.93636 6.46826 6.21844L7.14983 8.25H5.71826L3.79545 6.32906C3.6909 6.22463 3.56679 6.14181 3.43022 6.08535C3.29365 6.02889 3.14729 5.99989 2.99951 6H2.24951C1.95731 6.00023 1.66921 6.06875 1.40819 6.20009C1.14717 6.33143 0.920465 6.52195 0.746152 6.75646C0.571839 6.99098 0.454748 7.26298 0.404221 7.55078C0.353695 7.83858 0.371131 8.1342 0.455138 8.41406L1.7742 12.81C2.02527 13.6619 2.54627 14.4092 3.25876 14.9395C3.97126 15.4697 4.8367 15.7541 5.72483 15.75H22.4995C22.7979 15.75 23.084 15.6315 23.295 15.4205C23.506 15.2095 23.6245 14.9234 23.6245 14.625V12.375C23.6233 11.2814 23.1883 10.2329 22.415 9.45956C21.6416 8.68624 20.5932 8.25124 19.4995 8.25ZM21.3745 13.5H5.72483C5.32116 13.5018 4.92783 13.3725 4.60393 13.1316C4.28002 12.8907 4.04304 12.5512 3.92858 12.1641L2.84951 8.565L4.45451 10.1709C4.66544 10.3816 4.95138 10.5 5.24951 10.5H8.70889C8.88722 10.5002 9.06305 10.458 9.22187 10.3769C9.38069 10.2958 9.51795 10.1781 9.62234 10.0335C9.72673 9.88895 9.79525 9.72161 9.82225 9.54534C9.84925 9.36906 9.83396 9.18889 9.77764 9.01969L8.88983 6.35531L12.7045 10.1709C12.9154 10.3816 13.2014 10.5 13.4995 10.5H19.4995C19.9968 10.5 20.4737 10.6975 20.8253 11.0492C21.177 11.4008 21.3745 11.8777 21.3745 12.375V13.5ZM21.3745 19.125C21.3745 19.4958 21.2645 19.8584 21.0585 20.1667C20.8525 20.475 20.5597 20.7154 20.217 20.8573C19.8744 20.9992 19.4974 21.0363 19.1337 20.964C18.77 20.8916 18.4359 20.7131 18.1737 20.4508C17.9115 20.1886 17.7329 19.8545 17.6605 19.4908C17.5882 19.1271 17.6253 18.7501 17.7672 18.4075C17.9092 18.0649 18.1495 17.772 18.4578 17.566C18.7662 17.36 19.1287 17.25 19.4995 17.25C19.9968 17.25 20.4737 17.4475 20.8253 17.7992C21.177 18.1508 21.3745 18.6277 21.3745 19.125ZM12.3745 19.125C12.3745 19.4958 12.2645 19.8584 12.0585 20.1667C11.8525 20.475 11.5597 20.7154 11.217 20.8573C10.8744 20.9992 10.4974 21.0363 10.1337 20.964C9.77 20.8916 9.43591 20.7131 9.17369 20.4508C8.91146 20.1886 8.73289 19.8545 8.66054 19.4908C8.58819 19.1271 8.62532 18.7501 8.76724 18.4075C8.90915 18.0649 9.14948 17.772 9.45782 17.566C9.76616 17.36 10.1287 17.25 10.4995 17.25C10.9968 17.25 11.4737 17.4475 11.8253 17.7992C12.177 18.1508 12.3745 18.6277 12.3745 19.125Z" fill="#130032"/>
</svg>
