<svg width="24" height="24" viewBox="0 0 24 24" fill="none" xmlns="http://www.w3.org/2000/svg">
<path d="M16.8754 20.2503C16.8754 20.5486 16.7569 20.8348 16.5459 21.0458C16.3349 21.2567 16.0488 21.3753 15.7504 21.3753H2.25043C1.95206 21.3753 1.66591 21.2567 1.45493 21.0458C1.24395 20.8348 1.12543 20.5486 1.12543 20.2503C1.12543 19.9519 1.24395 19.6657 1.45493 19.4548C1.66591 19.2438 1.95206 19.1253 2.25043 19.1253H15.7504C16.0488 19.1253 16.3349 19.2438 16.5459 19.4548C16.7569 19.6657 16.8754 19.9519 16.8754 20.2503ZM23.6057 8.42651C23.5765 8.58334 23.5142 8.73216 23.4231 8.86308C23.3319 8.994 23.2139 9.10404 23.077 9.18589L9.25824 17.4378L9.24605 17.4443C8.48008 17.894 7.5888 18.0829 6.70626 17.9825C5.82372 17.882 4.99765 17.4978 4.3523 16.8875L4.33449 16.8706L0.959491 13.5659C0.737198 13.3541 0.570324 13.0909 0.473531 12.7995C0.376738 12.5081 0.352987 12.1974 0.404366 11.8947C0.455745 11.592 0.580681 11.3065 0.768198 11.0634C0.955714 10.8202 1.20007 10.6269 1.4798 10.5003L1.75543 10.3653C2.02198 10.2348 2.32929 10.2149 2.61043 10.31L5.0948 11.1481L6.42137 10.3456L4.7273 8.69839C4.49814 8.48612 4.32564 8.21995 4.22548 7.92408C4.12531 7.62821 4.10065 7.31199 4.15374 7.00417C4.20683 6.69634 4.33599 6.40666 4.52947 6.16143C4.72296 5.9162 4.97465 5.7232 5.26168 5.59995L5.30668 5.5812L5.97699 5.32808C6.23092 5.2332 6.51056 5.2332 6.76449 5.32808L11.6526 7.12526L16.3336 4.33151C17.1809 3.82617 18.1819 3.64281 19.1533 3.81496C20.1248 3.98711 21.0018 4.50327 21.6239 5.26901C21.6297 5.27548 21.635 5.28237 21.6398 5.28964L23.3873 7.52839C23.4856 7.65391 23.5559 7.79896 23.5936 7.95385C23.6312 8.10874 23.6354 8.26989 23.6057 8.42651ZM20.8298 7.90714L19.8754 6.6837C19.5925 6.33892 19.1954 6.10695 18.7561 6.0299C18.3168 5.95284 17.8644 6.03579 17.4811 6.2637L12.3464 9.32933C12.2026 9.41601 12.0413 9.46942 11.8742 9.48564C11.7071 9.50186 11.5385 9.48048 11.3807 9.42308L7.06824 7.83495L9.03699 9.74745C9.16027 9.86729 9.25445 10.0138 9.31228 10.1757C9.37011 10.3376 9.39006 10.5106 9.3706 10.6815C9.35113 10.8523 9.29277 11.0164 9.2 11.1612C9.10723 11.3059 8.98251 11.4275 8.83543 11.5165L5.81293 13.3399C5.67344 13.424 5.51737 13.4767 5.35551 13.4945C5.19364 13.5123 5.02985 13.4948 4.87543 13.4431L3.62387 13.0212L5.90293 15.2525C6.19596 15.5263 6.56947 15.6984 6.96803 15.7431C7.36659 15.7879 7.76896 15.7029 8.11543 15.5009L20.8298 7.90714Z" fill="#130032"/>
</svg>
