<svg width="24" height="24" viewBox="0 0 24 24" fill="none" xmlns="http://www.w3.org/2000/svg">
<path d="M21.3745 20.25C21.3745 20.5484 21.256 20.8345 21.045 21.0455C20.834 21.2565 20.5479 21.375 20.2495 21.375H6.74951C6.45114 21.375 6.165 21.2565 5.95402 21.0455C5.74304 20.8345 5.62451 20.5484 5.62451 20.25C5.62451 19.9516 5.74304 19.6655 5.95402 19.4545C6.165 19.2435 6.45114 19.125 6.74951 19.125H20.2495C20.5479 19.125 20.834 19.2435 21.045 19.4545C21.256 19.6655 21.3745 19.9516 21.3745 20.25ZM23.6245 12.75V15C23.6245 15.2984 23.506 15.5845 23.295 15.7955C23.084 16.0065 22.7979 16.125 22.4995 16.125H5.72483C4.8367 16.1291 3.97126 15.8447 3.25876 15.3144C2.54627 14.7842 2.02527 14.0369 1.7742 13.185L0.455138 8.78906C0.371131 8.5092 0.353695 8.21358 0.404221 7.92578C0.454748 7.63798 0.571839 7.36597 0.746152 7.13146C0.920465 6.89695 1.14717 6.70642 1.40819 6.57509C1.66921 6.44375 1.95731 6.37523 2.24951 6.375H2.99951C3.29765 6.37502 3.58358 6.49337 3.79451 6.70406L5.71826 8.625H7.14983L6.46826 6.5925C6.37433 6.31048 6.3488 6.01016 6.39377 5.71633C6.43874 5.42249 6.55293 5.14356 6.72692 4.90254C6.90091 4.66152 7.1297 4.46533 7.39444 4.33014C7.65917 4.19494 7.95226 4.12463 8.24951 4.125H8.99951C9.29765 4.12502 9.58358 4.24337 9.79451 4.45406L13.9683 8.625H19.4995C20.5932 8.62624 21.6416 9.06124 22.415 9.83456C23.1883 10.6079 23.6233 11.6564 23.6245 12.75ZM21.3745 12.75C21.3745 12.2527 21.177 11.7758 20.8253 11.4242C20.4737 11.0725 19.9968 10.875 19.4995 10.875H13.4995C13.2014 10.875 12.9154 10.7566 12.7045 10.5459L8.88983 6.73031L9.77764 9.39469C9.83394 9.56382 9.84924 9.7439 9.82229 9.92011C9.79533 10.0963 9.7269 10.2636 9.62262 10.4082C9.51834 10.5527 9.38119 10.6704 9.22249 10.7516C9.06379 10.8328 8.88808 10.8751 8.70983 10.875H5.24951C5.10173 10.8751 4.95538 10.8461 4.81881 10.7897C4.68224 10.7332 4.55813 10.6504 4.45358 10.5459L2.84951 8.94L3.92858 12.5391C4.04304 12.9262 4.28002 13.2657 4.60393 13.5066C4.92783 13.7475 5.32116 13.8768 5.72483 13.875H21.3745V12.75Z" fill="#130032"/>
</svg>
