<svg width="24" height="24" viewBox="0 0 24 24" fill="none" xmlns="http://www.w3.org/2000/svg">
<path d="M12.8541 14.2678C12.7484 14.1446 12.6174 14.0458 12.47 13.978C12.3226 13.9102 12.1623 13.8751 12 13.8751C11.8377 13.8751 11.6774 13.9102 11.53 13.978C11.3826 14.0458 11.2516 14.1446 11.1459 14.2678L6.64594 19.5178C6.50591 19.6812 6.41566 19.8812 6.38588 20.0943C6.35611 20.3074 6.38807 20.5246 6.47796 20.72C6.56785 20.9155 6.71191 21.0811 6.89306 21.1972C7.07421 21.3133 7.28485 21.375 7.5 21.375H16.5C16.7152 21.375 16.9258 21.3133 17.1069 21.1972C17.2881 21.0811 17.4321 20.9155 17.522 20.72C17.6119 20.5246 17.6439 20.3074 17.6141 20.0943C17.5843 19.8812 17.4941 19.6812 17.3541 19.5178L12.8541 14.2678ZM9.94781 19.125L12 16.7288L14.0541 19.125H9.94781ZM22.125 6V16.5C22.125 16.8447 22.0571 17.1861 21.9252 17.5045C21.7933 17.823 21.5999 18.1124 21.3562 18.3562C21.1124 18.5999 20.823 18.7933 20.5045 18.9252C20.1861 19.0571 19.8447 19.125 19.5 19.125H19.125C18.8266 19.125 18.5405 19.0065 18.3295 18.7955C18.1185 18.5845 18 18.2984 18 18C18 17.7016 18.1185 17.4155 18.3295 17.2045C18.5405 16.9935 18.8266 16.875 19.125 16.875H19.5C19.5995 16.875 19.6948 16.8355 19.7652 16.7652C19.8355 16.6948 19.875 16.5995 19.875 16.5V6C19.875 5.90054 19.8355 5.80516 19.7652 5.73484C19.6948 5.66451 19.5995 5.625 19.5 5.625H4.5C4.40054 5.625 4.30516 5.66451 4.23484 5.73484C4.16451 5.80516 4.125 5.90054 4.125 6V16.5C4.125 16.5995 4.16451 16.6948 4.23484 16.7652C4.30516 16.8355 4.40054 16.875 4.5 16.875H4.875C5.17337 16.875 5.45952 16.9935 5.6705 17.2045C5.88147 17.4155 6 17.7016 6 18C6 18.2984 5.88147 18.5845 5.6705 18.7955C5.45952 19.0065 5.17337 19.125 4.875 19.125H4.5C3.80381 19.125 3.13613 18.8484 2.64384 18.3562C2.15156 17.8639 1.875 17.1962 1.875 16.5V6C1.875 5.30381 2.15156 4.63613 2.64384 4.14384C3.13613 3.65156 3.80381 3.375 4.5 3.375H19.5C19.8447 3.375 20.1861 3.4429 20.5045 3.57482C20.823 3.70673 21.1124 3.90009 21.3562 4.14384C21.5999 4.3876 21.7933 4.67698 21.9252 4.99546C22.0571 5.31394 22.125 5.65528 22.125 6Z" fill="#130032"/>
</svg>
