<svg width="24" height="24" viewBox="0 0 24 24" fill="none" xmlns="http://www.w3.org/2000/svg">
<g clip-path="url(#clip0_7_19401)">
<path d="M24 20.2504C24 20.5487 23.8815 20.8349 23.6705 21.0459C23.4595 21.2568 23.1734 21.3754 22.875 21.3754H9.75C9.45163 21.3754 9.16548 21.2568 8.95451 21.0459C8.74353 20.8349 8.625 20.5487 8.625 20.2504C8.625 19.952 8.74353 19.6659 8.95451 19.4549C9.16548 19.2439 9.45163 19.1254 9.75 19.1254H22.875C23.1734 19.1254 23.4595 19.2439 23.6705 19.4549C23.8815 19.6659 24 19.952 24 20.2504ZM21.4463 17.9582L4.88813 13.3213C4.02229 13.0769 3.25974 12.5569 2.71601 11.8401C2.17229 11.1233 1.87704 10.2488 1.875 9.34912V4.50037C1.87463 4.20312 1.94494 3.91003 2.08014 3.6453C2.21533 3.38057 2.41152 3.15177 2.65254 2.97778C2.89356 2.80379 3.17249 2.6896 3.46633 2.64463C3.76016 2.59966 4.06048 2.62519 4.3425 2.71912L4.85625 2.89069C5.01736 2.94437 5.16422 3.03382 5.28583 3.15235C5.40744 3.27087 5.50064 3.41539 5.55844 3.57506L6.4875 6.14944L8.625 6.75881V4.50037C8.62463 4.20312 8.69494 3.91003 8.83014 3.6453C8.96533 3.38057 9.16152 3.15177 9.40254 2.97778C9.64356 2.80379 9.92249 2.6896 10.2163 2.64463C10.5102 2.59966 10.8105 2.62519 11.0925 2.71912L11.6063 2.89069C11.7583 2.94138 11.8978 3.02398 12.0153 3.13295C12.1329 3.24193 12.2258 3.37476 12.2878 3.52256L14.3269 8.3835L19.8581 9.92944C20.7254 10.1732 21.4893 10.6935 22.0338 11.4111C22.5783 12.1287 22.8737 13.0045 22.875 13.9054V16.8754C22.8749 17.049 22.8347 17.2203 22.7574 17.3757C22.6801 17.5312 22.5679 17.6667 22.4295 17.7716C22.2911 17.8764 22.1304 17.9479 21.9598 17.9802C21.7892 18.0126 21.6134 18.0051 21.4463 17.9582ZM20.625 13.9054C20.6242 13.4957 20.4896 13.0975 20.2417 12.7714C19.9937 12.4453 19.6461 12.2091 19.2516 12.0988L13.1972 10.4066C13.0338 10.3611 12.8827 10.2791 12.7555 10.1669C12.6282 10.0547 12.5279 9.91523 12.4622 9.75881L10.875 5.97319V8.25037C10.875 8.42445 10.8346 8.59614 10.757 8.75196C10.6794 8.90777 10.5667 9.04344 10.4277 9.14831C10.2888 9.25317 10.1274 9.32437 9.95628 9.35628C9.78516 9.3882 9.60897 9.37997 9.44156 9.33225L5.31656 8.15662C5.14507 8.10782 4.98764 8.01896 4.85724 7.89736C4.72684 7.77577 4.62721 7.62492 4.56656 7.45725L4.125 6.23287V9.34912C4.12568 9.75837 4.25976 10.1562 4.50693 10.4824C4.7541 10.8086 5.10088 11.0453 5.49469 11.1566L20.625 15.3922V13.9054Z" fill="#130032"/>
</g>
<defs>
<clipPath id="clip0_7_19401">
<rect width="24" height="24" fill="white"/>
</clipPath>
</defs>
</svg>
