<svg width="24" height="24" viewBox="0 0 24 24" fill="none" xmlns="http://www.w3.org/2000/svg">
<path d="M17.8121 10.8099L20.363 8.40892L20.3874 8.38455C21.0118 7.74988 21.3602 6.89417 21.3565 6.00384C21.3529 5.1135 20.9976 4.26066 20.368 3.63109C19.7385 3.00152 18.8856 2.64623 17.9953 2.64261C17.105 2.63898 16.2493 2.98732 15.6146 3.61174C15.6061 3.61924 15.5986 3.62767 15.5902 3.63611L13.1893 6.18705L5.63396 3.44111C5.43285 3.36804 5.21508 3.35384 5.00618 3.40017C4.79729 3.44649 4.60594 3.55143 4.45458 3.70267L2.20458 5.95267C2.08633 6.07033 1.99572 6.2128 1.93932 6.36979C1.88291 6.52677 1.86212 6.69433 1.87845 6.86034C1.89478 7.02635 1.94783 7.18665 2.03374 7.32963C2.11966 7.47261 2.2363 7.5947 2.37521 7.68705L7.98427 11.4258L7.03083 12.3745H5.24958C4.95145 12.3746 4.66551 12.4929 4.45458 12.7036L2.20458 14.9536C2.07302 15.0851 1.9761 15.2471 1.92251 15.4252C1.86891 15.6033 1.8603 15.7919 1.89745 15.9741C1.93461 16.1564 2.01636 16.3266 2.1354 16.4695C2.25444 16.6124 2.40706 16.7235 2.57958 16.793L5.88239 18.1149L7.20052 21.4092L7.20896 21.4299C7.28058 21.6028 7.3942 21.755 7.53953 21.873C7.68486 21.9909 7.85731 22.0706 8.04125 22.1051C8.22519 22.1395 8.41482 22.1275 8.59297 22.0702C8.77111 22.0129 8.93213 21.912 9.06146 21.7767L11.2936 19.5445C11.3983 19.4403 11.4814 19.3164 11.5382 19.18C11.595 19.0436 11.6243 18.8973 11.6246 18.7495V16.9683L12.5743 16.0186L16.3121 21.623C16.4044 21.7615 16.5263 21.8778 16.669 21.9635C16.8117 22.0492 16.9716 22.1021 17.1373 22.1185C17.3029 22.1349 17.4701 22.1144 17.6269 22.0584C17.7836 22.0023 17.9259 21.9122 18.0436 21.7945L20.2936 19.5445C20.4451 19.3931 20.5501 19.2016 20.5964 18.9925C20.6428 18.7834 20.6285 18.5655 20.5552 18.3642L17.8121 10.8099ZM17.4268 19.2333L13.6871 13.6242C13.5947 13.4859 13.4728 13.3697 13.3302 13.2841C13.1875 13.1985 13.0276 13.1456 12.8621 13.1292C12.8247 13.1257 12.7871 13.1242 12.7496 13.1245C12.6017 13.1246 12.4553 13.1537 12.3188 13.2103C12.1822 13.267 12.0581 13.3499 11.9536 13.4545L9.70365 15.7045C9.49295 15.9155 9.3746 16.2014 9.37458 16.4995V18.2808L8.66021 18.9952L7.79396 16.8295C7.73737 16.688 7.6526 16.5594 7.54478 16.4515C7.43697 16.3437 7.30836 16.2589 7.16677 16.2024L5.00114 15.3361L5.71833 14.6245H7.49958C7.79772 14.6245 8.08365 14.5062 8.29458 14.2955L10.5446 12.0455C10.6627 11.9278 10.7531 11.7854 10.8094 11.6285C10.8657 11.4716 10.8865 11.3042 10.8701 11.1383C10.8538 10.9724 10.8008 10.8123 10.715 10.6694C10.6292 10.5265 10.5127 10.4044 10.374 10.312L4.76583 6.5733L5.53833 5.79986L13.1161 8.55517C13.3228 8.63037 13.5469 8.64336 13.7609 8.59254C13.9748 8.54172 14.1692 8.42932 14.3199 8.26924L17.2158 5.19236C17.4272 4.98102 17.7138 4.86229 18.0127 4.86229C18.3116 4.86229 18.5982 4.98102 18.8096 5.19236C19.0209 5.40371 19.1397 5.69035 19.1397 5.98924C19.1397 6.28812 19.0209 6.57477 18.8096 6.78611L15.7327 9.68205C15.5725 9.83269 15.4599 10.027 15.4089 10.2409C15.3579 10.4549 15.3708 10.6791 15.4458 10.8858L18.2021 18.4627L17.4268 19.2333Z" fill="#130032"/>
</svg>
