<svg width="24" height="24" viewBox="0 0 24 24" fill="none" xmlns="http://www.w3.org/2000/svg">
<path d="M12 3.37594C10.1458 3.37594 8.3332 3.92577 6.79149 4.95591C5.24978 5.98605 4.04816 7.45022 3.33859 9.16328C2.62902 10.8763 2.44336 12.7613 2.8051 14.5799C3.16683 16.3985 4.05972 18.0689 5.37083 19.3801C6.68195 20.6912 8.35242 21.5841 10.171 21.9458C11.9896 22.3075 13.8746 22.1219 15.5876 21.4123C17.3007 20.7027 18.7648 19.5011 19.795 17.9594C20.8251 16.4177 21.375 14.6051 21.375 12.7509C21.3722 10.2654 20.3836 7.88239 18.6261 6.12482C16.8685 4.36726 14.4855 3.37867 12 3.37594ZM12 19.8759C10.5908 19.8759 9.21322 19.4581 8.04152 18.6752C6.86982 17.8923 5.95659 16.7795 5.41732 15.4776C4.87804 14.1756 4.73694 12.743 5.01186 11.3609C5.28678 9.9788 5.96537 8.70925 6.96182 7.7128C7.95827 6.71635 9.22783 6.03776 10.6099 5.76284C11.9921 5.48792 13.4247 5.62902 14.7266 6.16829C16.0285 6.70757 17.1413 7.6208 17.9242 8.7925C18.7071 9.9642 19.125 11.3417 19.125 12.7509C19.123 14.64 18.3717 16.4511 17.0359 17.7869C15.7001 19.1226 13.889 19.8739 12 19.8759ZM3.0459 6.79687C2.94125 6.90152 2.81702 6.98453 2.68029 7.04117C2.54356 7.0978 2.39702 7.12695 2.24902 7.12695C2.10103 7.12695 1.95448 7.0978 1.81776 7.04117C1.68103 6.98453 1.55679 6.90152 1.45215 6.79687C1.3475 6.69223 1.26449 6.56799 1.20785 6.43126C1.15122 6.29454 1.12207 6.14799 1.12207 6C1.12207 5.852 1.15122 5.70546 1.20785 5.56873C1.26449 5.432 1.3475 5.30777 1.45215 5.20312L4.45215 2.20312C4.66349 1.99178 4.95014 1.87305 5.24902 1.87305C5.54791 1.87305 5.83455 1.99178 6.0459 2.20312C6.25724 2.41447 6.37597 2.70111 6.37597 3C6.37597 3.29888 6.25724 3.58553 6.0459 3.79687L3.0459 6.79687ZM22.5459 6.79687C22.4414 6.90175 22.3172 6.98497 22.1804 7.04175C22.0437 7.09853 21.8971 7.12776 21.749 7.12776C21.601 7.12776 21.4543 7.09853 21.3176 7.04175C21.1809 6.98497 21.0567 6.90175 20.9521 6.79687L17.9521 3.79687C17.8475 3.69223 17.7645 3.56799 17.7079 3.43126C17.6512 3.29454 17.6221 3.14799 17.6221 3C17.6221 2.852 17.6512 2.70546 17.7079 2.56873C17.7645 2.432 17.8475 2.30777 17.9521 2.20312C18.0568 2.09848 18.181 2.01547 18.3178 1.95883C18.4545 1.9022 18.601 1.87305 18.749 1.87305C18.897 1.87305 19.0436 1.9022 19.1803 1.95883C19.317 2.01547 19.4412 2.09848 19.5459 2.20312L22.5459 5.20312C22.6508 5.30764 22.734 5.43183 22.7908 5.56858C22.8476 5.70532 22.8768 5.85193 22.8768 6C22.8768 6.14806 22.8476 6.29467 22.7908 6.43142C22.734 6.56816 22.6508 6.69236 22.5459 6.79687ZM16.5 11.6259C16.7983 11.6259 17.0845 11.7445 17.2955 11.9554C17.5064 12.1664 17.625 12.4526 17.625 12.7509C17.625 13.0493 17.5064 13.3355 17.2955 13.5464C17.0845 13.7574 16.7983 13.8759 16.5 13.8759H12C11.7016 13.8759 11.4154 13.7574 11.2045 13.5464C10.9935 13.3355 10.875 13.0493 10.875 12.7509V8.25094C10.875 7.95257 10.9935 7.66642 11.2045 7.45544C11.4154 7.24446 11.7016 7.12594 12 7.12594C12.2983 7.12594 12.5845 7.24446 12.7955 7.45544C13.0064 7.66642 13.125 7.95257 13.125 8.25094V11.6259H16.5Z" fill="#130032"/>
</svg>
