<svg width="24" height="24" viewBox="0 0 24 24" fill="none" xmlns="http://www.w3.org/2000/svg">
<path d="M23.6252 15.7491V18.7491C23.6252 19.0474 23.5067 19.3336 23.2957 19.5446C23.0847 19.7555 22.7986 19.8741 22.5002 19.8741C22.2018 19.8741 21.9157 19.7555 21.7047 19.5446C21.4937 19.3336 21.3752 19.0474 21.3752 18.7491V18.4594C20.209 19.5375 16.8986 22.1241 12.0002 22.1241C5.94395 22.1241 2.31583 18.1697 2.16395 17.9991C2.05575 17.891 1.97071 17.762 1.91405 17.6199C1.85739 17.4779 1.83028 17.3258 1.83439 17.1729C1.8385 17.02 1.87374 16.8696 1.93795 16.7308C2.00216 16.592 2.094 16.4677 2.20785 16.3656C2.32171 16.2635 2.45518 16.1857 2.60013 16.1369C2.74508 16.0881 2.89845 16.0694 3.05087 16.0819C3.2033 16.0944 3.35158 16.1378 3.48665 16.2095C3.62172 16.2813 3.74074 16.3798 3.83645 16.4991C3.86458 16.53 6.9752 19.8741 12.0002 19.8741C15.9986 19.8741 18.7821 17.7572 19.7693 16.8741H19.5002C19.2018 16.8741 18.9157 16.7555 18.7047 16.5446C18.4937 16.3336 18.3752 16.0474 18.3752 15.7491C18.3752 15.4507 18.4937 15.1646 18.7047 14.9536C18.9157 14.7426 19.2018 14.6241 19.5002 14.6241H22.5002C22.7986 14.6241 23.0847 14.7426 23.2957 14.9536C23.5067 15.1646 23.6252 15.4507 23.6252 15.7491ZM14.6252 8.06907V7.87407C14.6254 7.22714 14.4165 6.59747 14.0296 6.07898C13.6427 5.56048 13.0985 5.18095 12.4783 4.99698C11.8581 4.81301 11.195 4.83446 10.588 5.05814C9.98094 5.28181 9.46247 5.69572 9.10989 6.23813C8.94703 6.48814 8.69152 6.66321 8.39958 6.72484C8.10764 6.78646 7.80318 6.72959 7.55317 6.56673C7.30316 6.40387 7.12809 6.14836 7.06647 5.85642C7.00484 5.56448 7.06172 5.26002 7.22458 5.01001C7.84185 4.06123 8.74922 3.33736 9.81142 2.94631C10.8736 2.55526 12.0338 2.51798 13.1189 2.84001C14.204 3.16205 15.156 3.82616 15.8329 4.73334C16.5098 5.64052 16.8754 6.74217 16.8752 7.87407V16.4991C16.8733 16.7814 16.7654 17.0527 16.5727 17.2591C16.3801 17.4656 16.1169 17.592 15.8354 17.6134C15.5538 17.6347 15.2746 17.5495 15.053 17.3745C14.8314 17.1995 14.6837 16.9476 14.6393 16.6688C13.8535 17.2212 12.9312 17.5474 11.9728 17.612C11.0144 17.6765 10.0567 17.4769 9.20394 17.0349C8.35116 16.5928 7.63599 15.9253 7.13629 15.105C6.6366 14.2847 6.37154 13.343 6.36997 12.3824C6.3684 11.4219 6.63038 10.4793 7.12739 9.65736C7.62439 8.8354 8.33738 8.16554 9.18871 7.72072C10.04 7.2759 10.9971 7.07316 11.9557 7.13458C12.9142 7.19601 13.8376 7.51923 14.6252 8.06907ZM14.6252 12.3741C14.6252 11.7807 14.4493 11.2007 14.1196 10.7074C13.79 10.214 13.3214 9.82949 12.7733 9.60243C12.2251 9.37537 11.6219 9.31596 11.0399 9.43171C10.458 9.54747 9.92344 9.83319 9.50388 10.2527C9.08432 10.6723 8.7986 11.2069 8.68285 11.7888C8.56709 12.3707 8.6265 12.9739 8.85356 13.5221C9.08063 14.0703 9.46514 14.5388 9.95849 14.8685C10.4518 15.1981 11.0319 15.3741 11.6252 15.3741C12.4209 15.3741 13.1839 15.058 13.7465 14.4954C14.3091 13.9328 14.6252 13.1697 14.6252 12.3741Z" fill="#130032"/>
</svg>
