<svg width="24" height="24" viewBox="0 0 24 24" fill="none" xmlns="http://www.w3.org/2000/svg">
<path d="M7.5 11.25C7.5 10.9516 7.61853 10.6655 7.8295 10.4545C8.04048 10.2435 8.32663 10.125 8.625 10.125H9.375V9.375C9.375 9.07663 9.49353 8.79048 9.7045 8.5795C9.91548 8.36853 10.2016 8.25 10.5 8.25C10.7984 8.25 11.0845 8.36853 11.2955 8.5795C11.5065 8.79048 11.625 9.07663 11.625 9.375V10.125H12.375C12.6734 10.125 12.9595 10.2435 13.1705 10.4545C13.3815 10.6655 13.5 10.9516 13.5 11.25C13.5 11.5484 13.3815 11.8345 13.1705 12.0455C12.9595 12.2565 12.6734 12.375 12.375 12.375H11.625V13.125C11.625 13.4234 11.5065 13.7095 11.2955 13.9205C11.0845 14.1315 10.7984 14.25 10.5 14.25C10.2016 14.25 9.91548 14.1315 9.7045 13.9205C9.49353 13.7095 9.375 13.4234 9.375 13.125V12.375H8.625C8.32663 12.375 8.04048 12.2565 7.8295 12.0455C7.61853 11.8345 7.5 11.5484 7.5 11.25ZM24 11.25V17.25C24 17.7473 23.8025 18.2242 23.4508 18.5758C23.0992 18.9275 22.6223 19.125 22.125 19.125H21.1819C20.9492 19.7829 20.5183 20.3526 19.9484 20.7555C19.3786 21.1584 18.6979 21.3747 18 21.3747C17.3021 21.3747 16.6214 21.1584 16.0516 20.7555C15.4817 20.3526 15.0508 19.7829 14.8181 19.125H10.6819C10.4492 19.7829 10.0183 20.3526 9.44843 20.7555C8.87859 21.1584 8.19788 21.3747 7.5 21.3747C6.80212 21.3747 6.12141 21.1584 5.55157 20.7555C4.98174 20.3526 4.55081 19.7829 4.31813 19.125H3C2.50272 19.125 2.02581 18.9275 1.67417 18.5758C1.32254 18.2242 1.125 17.7473 1.125 17.25V6.75C1.125 6.25272 1.32254 5.77581 1.67417 5.42417C2.02581 5.07254 2.50272 4.875 3 4.875H17.25C17.5484 4.875 17.8345 4.99353 18.0455 5.2045C18.2565 5.41548 18.375 5.70163 18.375 6V6.375H20.8669C21.2419 6.3737 21.6086 6.48544 21.9191 6.69565C22.2297 6.90587 22.4697 7.20479 22.6078 7.55344L23.9203 10.8347C23.9729 10.9668 23.9999 11.1078 24 11.25ZM18.375 8.625V10.125H21.2137L20.6138 8.625H18.375ZM3.375 16.875H4.31813C4.55081 16.2171 4.98174 15.6474 5.55157 15.2445C6.12141 14.8416 6.80212 14.6253 7.5 14.6253C8.19788 14.6253 8.87859 14.8416 9.44843 15.2445C10.0183 15.6474 10.4492 16.2171 10.6819 16.875H14.8181C15.063 16.1897 15.521 15.601 16.125 15.195V7.125H3.375V16.875ZM8.625 18C8.625 17.7775 8.55902 17.56 8.4354 17.375C8.31179 17.19 8.13609 17.0458 7.93052 16.9606C7.72495 16.8755 7.49875 16.8532 7.28052 16.8966C7.06229 16.94 6.86184 17.0472 6.7045 17.2045C6.54717 17.3618 6.44002 17.5623 6.39662 17.7805C6.35321 17.9988 6.37549 18.225 6.46064 18.4305C6.54578 18.6361 6.68998 18.8118 6.87498 18.9354C7.05999 19.059 7.2775 19.125 7.5 19.125C7.79837 19.125 8.08452 19.0065 8.2955 18.7955C8.50647 18.5845 8.625 18.2984 8.625 18ZM19.125 18C19.125 17.7775 19.059 17.56 18.9354 17.375C18.8118 17.19 18.6361 17.0458 18.4305 16.9606C18.225 16.8755 17.9988 16.8532 17.7805 16.8966C17.5623 16.94 17.3618 17.0472 17.2045 17.2045C17.0472 17.3618 16.94 17.5623 16.8966 17.7805C16.8532 17.9988 16.8755 18.225 16.9606 18.4305C17.0458 18.6361 17.19 18.8118 17.375 18.9354C17.56 19.059 17.7775 19.125 18 19.125C18.2984 19.125 18.5845 19.0065 18.7955 18.7955C19.0065 18.5845 19.125 18.2984 19.125 18ZM21.75 16.875V12.375H18.375V14.6466C19.0046 14.7179 19.6015 14.9646 20.0977 15.3586C20.594 15.7526 20.9696 16.278 21.1819 16.875H21.75Z" fill="#130032"/>
</svg>
