<svg width="24" height="24" viewBox="0 0 24 24" fill="none" xmlns="http://www.w3.org/2000/svg">
<path d="M21 10.1251H18.75C18.4516 10.1251 18.1655 10.2436 17.9545 10.4546C17.7435 10.6656 17.625 10.9517 17.625 11.2501C17.625 11.5485 17.7435 11.8346 17.9545 12.0456C18.1655 12.2566 18.4516 12.3751 18.75 12.3751H19.7953C19.5494 14.0566 18.7675 15.6139 17.5657 16.8155C16.364 18.0171 14.8066 18.7988 13.125 19.0445V9.18198C13.8756 8.9166 14.5082 8.3944 14.9111 7.70769C15.3139 7.02098 15.461 6.21396 15.3264 5.42928C15.1918 4.6446 14.7841 3.93277 14.1754 3.41961C13.5667 2.90645 12.7961 2.625 12 2.625C11.2039 2.625 10.4333 2.90645 9.82463 3.41961C9.21593 3.93277 8.80824 4.6446 8.6736 5.42928C8.53897 6.21396 8.68608 7.02098 9.08891 7.70769C9.49175 8.3944 10.1244 8.9166 10.875 9.18198V19.0445C9.19344 18.7988 7.63604 18.0171 6.43429 16.8155C5.23254 15.6139 4.4506 14.0566 4.20469 12.3751H5.25C5.54837 12.3751 5.83452 12.2566 6.0455 12.0456C6.25647 11.8346 6.375 11.5485 6.375 11.2501C6.375 10.9517 6.25647 10.6656 6.0455 10.4546C5.83452 10.2436 5.54837 10.1251 5.25 10.1251H3C2.70163 10.1251 2.41548 10.2436 2.2045 10.4546C1.99353 10.6656 1.875 10.9517 1.875 11.2501C1.875 13.9354 2.94174 16.5108 4.84054 18.4096C6.73935 20.3084 9.31468 21.3751 12 21.3751C14.6853 21.3751 17.2607 20.3084 19.1595 18.4096C21.0583 16.5108 22.125 13.9354 22.125 11.2501C22.125 10.9517 22.0065 10.6656 21.7955 10.4546C21.5845 10.2436 21.2984 10.1251 21 10.1251ZM12 4.87511C12.2225 4.87511 12.44 4.94109 12.625 5.0647C12.81 5.18832 12.9542 5.36402 13.0394 5.56959C13.1245 5.77515 13.1468 6.00135 13.1034 6.21958C13.06 6.43781 12.9528 6.63827 12.7955 6.7956C12.6382 6.95294 12.4377 7.06008 12.2195 7.10349C12.0012 7.1469 11.775 7.12462 11.5695 7.03947C11.3639 6.95432 11.1882 6.81013 11.0646 6.62512C10.941 6.44012 10.875 6.22261 10.875 6.00011C10.875 5.70174 10.9935 5.41559 11.2045 5.20461C11.4155 4.99363 11.7016 4.87511 12 4.87511Z" fill="#130032"/>
</svg>
