<svg width="24" height="24" viewBox="0 0 24 24" fill="none" xmlns="http://www.w3.org/2000/svg">
<path d="M20.25 12.3751C19.9516 12.3751 19.6655 12.4936 19.4545 12.7046C19.2435 12.9156 19.125 13.2017 19.125 13.5001C19.125 15.5495 18.0553 15.9329 15.8287 16.5395C14.9738 16.7729 13.9903 17.042 13.125 17.5417V12.3751H15.75C16.0484 12.3751 16.3345 12.2566 16.5455 12.0456C16.7565 11.8346 16.875 11.5485 16.875 11.2501C16.875 10.9517 16.7565 10.6656 16.5455 10.4546C16.3345 10.2436 16.0484 10.1251 15.75 10.1251H13.125V8.43198C13.8756 8.1666 14.5082 7.6444 14.9111 6.95769C15.3139 6.27098 15.461 5.46396 15.3264 4.67928C15.1918 3.8946 14.7841 3.18277 14.1754 2.66961C13.5667 2.15645 12.7961 1.875 12 1.875C11.2039 1.875 10.4333 2.15645 9.82463 2.66961C9.21593 3.18277 8.80824 3.8946 8.6736 4.67928C8.53897 5.46396 8.68608 6.27098 9.08891 6.95769C9.49175 7.6444 10.1244 8.1666 10.875 8.43198V10.1251H8.25C7.95163 10.1251 7.66548 10.2436 7.4545 10.4546C7.24353 10.6656 7.125 10.9517 7.125 11.2501C7.125 11.5485 7.24353 11.8346 7.4545 12.0456C7.66548 12.2566 7.95163 12.3751 8.25 12.3751H10.875V17.5417C10.0097 17.042 9.02625 16.7729 8.17125 16.5395C5.94469 15.9376 4.875 15.5495 4.875 13.5001C4.875 13.2017 4.75647 12.9156 4.5455 12.7046C4.33452 12.4936 4.04837 12.3751 3.75 12.3751C3.45163 12.3751 3.16548 12.4936 2.9545 12.7046C2.74353 12.9156 2.625 13.2017 2.625 13.5001C2.625 17.3598 5.48812 18.1407 7.57875 18.7107C9.80531 19.3173 10.875 19.7007 10.875 21.7501C10.875 22.0485 10.9935 22.3346 11.2045 22.5456C11.4155 22.7566 11.7016 22.8751 12 22.8751C12.2984 22.8751 12.5845 22.7566 12.7955 22.5456C13.0065 22.3346 13.125 22.0485 13.125 21.7501C13.125 19.7007 14.1947 19.3173 16.4213 18.7107C18.5119 18.1407 21.375 17.3598 21.375 13.5001C21.375 13.2017 21.2565 12.9156 21.0455 12.7046C20.8345 12.4936 20.5484 12.3751 20.25 12.3751ZM12 4.12511C12.2225 4.12511 12.44 4.19109 12.625 4.3147C12.81 4.43832 12.9542 4.61402 13.0394 4.81959C13.1245 5.02515 13.1468 5.25135 13.1034 5.46958C13.06 5.68781 12.9528 5.88827 12.7955 6.0456C12.6382 6.20294 12.4377 6.31008 12.2195 6.35349C12.0012 6.3969 11.775 6.37462 11.5695 6.28947C11.3639 6.20432 11.1882 6.06013 11.0646 5.87512C10.941 5.69012 10.875 5.47261 10.875 5.25011C10.875 4.95174 10.9935 4.66559 11.2045 4.45461C11.4155 4.24363 11.7016 4.12511 12 4.12511Z" fill="#130032"/>
</svg>
