<svg width="24" height="24" viewBox="0 0 24 24" fill="none" xmlns="http://www.w3.org/2000/svg">
<path d="M16.875 13.8759C16.875 14.1726 16.787 14.4626 16.6222 14.7093C16.4574 14.956 16.2231 15.1482 15.949 15.2618C15.6749 15.3753 15.3733 15.405 15.0824 15.3471C14.7914 15.2892 14.5241 15.1464 14.3143 14.9366C14.1046 14.7268 13.9617 14.4595 13.9038 14.1686C13.846 13.8776 13.8757 13.576 13.9892 13.3019C14.1027 13.0278 14.295 12.7936 14.5416 12.6287C14.7883 12.4639 15.0783 12.3759 15.375 12.3759C15.7728 12.3759 16.1544 12.534 16.4357 12.8153C16.717 13.0966 16.875 13.4781 16.875 13.8759ZM8.62501 12.3759C8.32833 12.3759 8.03832 12.4639 7.79165 12.6287C7.54498 12.7936 7.35272 13.0278 7.23919 13.3019C7.12565 13.576 7.09595 13.8776 7.15383 14.1686C7.21171 14.4595 7.35457 14.7268 7.56435 14.9366C7.77412 15.1464 8.0414 15.2892 8.33237 15.3471C8.62334 15.405 8.92494 15.3753 9.19903 15.2618C9.47312 15.1482 9.70739 14.956 9.87221 14.7093C10.037 14.4626 10.125 14.1726 10.125 13.8759C10.125 13.4781 9.96697 13.0966 9.68567 12.8153C9.40436 12.534 9.02283 12.3759 8.62501 12.3759ZM22.875 15.0009V17.2509C22.875 17.7482 22.6775 18.2251 22.3258 18.5768C21.9742 18.9284 21.4973 19.1259 21 19.1259H3.00001C2.50272 19.1259 2.02581 18.9284 1.67418 18.5768C1.32255 18.2251 1.12501 17.7482 1.12501 17.2509V15.1069C1.12212 12.2153 2.25776 9.43882 4.28626 7.37812L2.20407 5.29687C1.99272 5.08553 1.87399 4.79888 1.87399 4.5C1.87399 4.35201 1.90314 4.20546 1.95978 4.06873C2.01641 3.932 2.09942 3.80777 2.20407 3.70312C2.30872 3.59848 2.43295 3.51547 2.56968 3.45883C2.70641 3.4022 2.85295 3.37305 3.00094 3.37305C3.29983 3.37305 3.58647 3.49178 3.79782 3.70312L6.02813 5.93812C7.7841 4.76246 9.84837 4.13199 11.9616 4.12594H12C14.1299 4.1201 16.2139 4.74441 17.9897 5.92031L20.2041 3.705C20.3087 3.60035 20.4329 3.51734 20.5697 3.46071C20.7064 3.40407 20.8529 3.37492 21.0009 3.37492C21.1489 3.37492 21.2955 3.40407 21.4322 3.46071C21.5689 3.51734 21.6932 3.60035 21.7978 3.705C21.9025 3.80965 21.9855 3.93388 22.0421 4.07061C22.0987 4.20734 22.1279 4.35388 22.1279 4.50187C22.1279 4.64987 22.0987 4.79641 22.0421 4.93314C21.9855 5.06987 21.9025 5.1941 21.7978 5.29875L19.7353 7.36125C21.753 9.3911 22.8822 12.1389 22.875 15.0009ZM20.625 15.0009C20.625 13.8657 20.4009 12.7416 19.9655 11.6931C19.5301 10.6447 18.8921 9.69249 18.0879 8.89118C17.2837 8.08986 16.3292 7.4552 15.2792 7.02357C14.2292 6.59195 13.1043 6.37186 11.9691 6.37594C7.23001 6.39281 3.37501 10.3134 3.37501 15.1069V16.8759H20.625V15.0009Z" fill="#130032"/>
</svg>
