<svg width="24" height="24" viewBox="0 0 24 24" fill="none" xmlns="http://www.w3.org/2000/svg">
<path d="M21.4322 5.71172L12.4322 1.96172C12.295 1.90447 12.1478 1.875 11.9991 1.875C11.8504 1.875 11.7032 1.90447 11.566 1.96172L2.56599 5.71172C2.33733 5.80696 2.1465 5.97499 2.02309 6.18976C1.89969 6.40453 1.85062 6.65402 1.88349 6.89953L3.38349 18.1495C3.40778 18.3314 3.47618 18.5045 3.58272 18.6539C3.68926 18.8032 3.83071 18.9242 3.99474 19.0064L11.4947 22.7564C11.651 22.8346 11.8234 22.8753 11.9982 22.8753C12.1729 22.8753 12.3453 22.8346 12.5016 22.7564L20.0016 19.0064C20.1656 18.9242 20.3071 18.8032 20.4136 18.6539C20.5202 18.5045 20.5886 18.3314 20.6129 18.1495L22.1129 6.89953C22.1459 6.65425 22.0971 6.40492 21.974 6.19018C21.851 5.97544 21.6605 5.80727 21.4322 5.71172ZM18.4688 17.2608L12 20.4923L5.53599 17.2608L4.22911 7.45734L12 4.21922L19.771 7.45734L18.4688 17.2608ZM11.0166 7.70391L7.26661 14.4539C7.19484 14.5832 7.14923 14.7253 7.13238 14.8722C7.11554 15.0191 7.1278 15.1679 7.16845 15.31C7.2091 15.4522 7.27736 15.585 7.36932 15.7008C7.46129 15.8165 7.57515 15.9131 7.70442 15.9848C7.83369 16.0566 7.97584 16.1022 8.12273 16.1191C8.26963 16.1359 8.41841 16.1237 8.56057 16.083C8.70273 16.0424 8.83549 15.9741 8.95127 15.8821C9.06705 15.7902 9.16359 15.6763 9.23536 15.547L9.95349 14.2505H14.0466L14.7666 15.547C14.9116 15.8081 15.1543 16.0009 15.4414 16.083C15.7285 16.1651 16.0365 16.1298 16.2975 15.9848C16.5586 15.8399 16.7514 15.5972 16.8335 15.31C16.9156 15.0229 16.8803 14.715 16.7354 14.4539L12.9854 7.70391C12.8881 7.52807 12.7455 7.3815 12.5723 7.27944C12.3992 7.17737 12.2019 7.12354 12.001 7.12354C11.8 7.12354 11.6027 7.17737 11.4296 7.27944C11.2565 7.3815 11.1139 7.52807 11.0166 7.70391ZM11.2041 12.0005L12 10.567L12.796 12.0005H11.2041Z" fill="#130032"/>
</svg>
