<svg width="24" height="24" viewBox="0 0 24 24" fill="none" xmlns="http://www.w3.org/2000/svg">
<path d="M19.1636 4.84032C17.7476 3.42438 15.9435 2.46013 13.9794 2.06951C12.0154 1.67888 9.97964 1.87943 8.12957 2.64579C6.27951 3.41214 4.69824 4.70989 3.58572 6.37492C2.4732 8.03996 1.87939 9.9975 1.87939 12C1.87939 14.0025 2.4732 15.9601 3.58572 17.6251C4.69824 19.2901 6.27951 20.5879 8.12957 21.3542C9.97964 22.1206 12.0154 22.3211 13.9794 21.9305C15.9435 21.5399 17.7476 20.5756 19.1636 19.1597C20.1109 18.2234 20.8629 17.1085 21.3762 15.8795C21.8894 14.6505 22.1537 13.3319 22.1537 12C22.1537 10.6681 21.8894 9.34951 21.3762 8.12051C20.8629 6.89152 20.1109 5.77659 19.1636 4.84032ZM17.5699 6.43407C17.8724 6.73507 18.1498 7.06021 18.3996 7.40625L15.8439 10.4147L13.6596 4.30125C15.1423 4.61752 16.5014 5.35747 17.5717 6.43125L17.5699 6.43407ZM6.42768 6.43407C7.7121 5.14314 9.40667 4.34078 11.2192 4.16532L12.5467 7.8825L6.16049 6.71344C6.24768 6.61782 6.33674 6.52407 6.42956 6.43125L6.42768 6.43407ZM4.50018 14.4094C3.90621 12.5501 4.01972 10.537 4.81893 8.75625L8.70393 9.46875L4.50018 14.4094ZM6.42674 17.5688C6.12546 17.2667 5.84923 16.9406 5.60081 16.5938L8.15643 13.5853L10.3408 19.6988C8.85838 19.3823 7.49968 18.6423 6.42956 17.5688H6.42674ZM9.83549 11.6053L11.2586 9.93188L13.4205 10.3266L14.1592 12.3947L12.7371 14.0681L10.5752 13.6734L9.83549 11.6053ZM17.5689 17.5688C16.2843 18.8594 14.5898 19.6617 12.7774 19.8375L11.4517 16.125L17.8399 17.2913C17.7527 17.3822 17.6636 17.4759 17.5717 17.5688H17.5689ZM15.2964 14.5313L19.5002 9.59063C20.0943 11.45 19.9805 13.4633 19.1805 15.2438L15.2964 14.5313Z" fill="#130032"/>
</svg>
