<svg width="24" height="24" viewBox="0 0 24 24" fill="none" xmlns="http://www.w3.org/2000/svg">
<path d="M22.875 14.9992C22.875 15.2976 22.7565 15.5838 22.5455 15.7947C22.3345 16.0057 22.0484 16.1242 21.75 16.1242H18.8128L20.4684 18.9264C20.5457 19.0537 20.5969 19.195 20.6191 19.3422C20.6414 19.4894 20.6342 19.6395 20.598 19.7839C20.5618 19.9283 20.4973 20.064 20.4082 20.1833C20.3191 20.3026 20.2073 20.403 20.0791 20.4787C19.951 20.5545 19.8091 20.604 19.6617 20.6245C19.5142 20.645 19.3642 20.636 19.2202 20.5981C19.0763 20.5602 18.9413 20.4941 18.8231 20.4036C18.7049 20.3132 18.6058 20.2002 18.5316 20.0711L13.2094 11.0617C13.0661 10.8053 13.0287 10.503 13.1053 10.2195C13.1819 9.93588 13.3664 9.69351 13.6194 9.54415C13.8723 9.39479 14.1736 9.35028 14.4589 9.42014C14.7442 9.49 14.9909 9.66868 15.1462 9.918L17.4825 13.8742H21.75C22.0484 13.8742 22.3345 13.9928 22.5455 14.2038C22.7565 14.4147 22.875 14.7009 22.875 14.9992ZM12.4828 13.8742H9.13031L15.2184 3.57206C15.2957 3.44482 15.3469 3.30351 15.3691 3.15632C15.3914 3.00914 15.3842 2.859 15.348 2.71462C15.3118 2.57024 15.2473 2.43447 15.1582 2.3152C15.0691 2.19593 14.9573 2.09551 14.8291 2.01978C14.701 1.94404 14.5591 1.89449 14.4117 1.874C14.2642 1.8535 14.1142 1.86247 13.9702 1.90038C13.8263 1.93829 13.6913 2.00439 13.5731 2.09486C13.4549 2.18532 13.3558 2.29834 13.2816 2.42737L12 4.593L10.7184 2.42737C10.6442 2.29834 10.5451 2.18532 10.4269 2.09486C10.3087 2.00439 10.1737 1.93829 10.0298 1.90038C9.88582 1.86247 9.73579 1.8535 9.58835 1.874C9.44091 1.89449 9.29901 1.94404 9.17086 2.01978C9.04271 2.09551 8.93087 2.19593 8.84181 2.3152C8.75275 2.43447 8.68824 2.57024 8.65203 2.71462C8.61582 2.859 8.60863 3.00914 8.63086 3.15632C8.6531 3.30351 8.70432 3.44482 8.78156 3.57206L10.6931 6.80737L6.5175 13.8742H2.25C1.95163 13.8742 1.66548 13.9928 1.4545 14.2038C1.24353 14.4147 1.125 14.7009 1.125 14.9992C1.125 15.2976 1.24353 15.5838 1.4545 15.7947C1.66548 16.0057 1.95163 16.1242 2.25 16.1242H12.4828C12.7812 16.1242 13.0673 16.0057 13.2783 15.7947C13.4893 15.5838 13.6078 15.2976 13.6078 14.9992C13.6078 14.7009 13.4893 14.4147 13.2783 14.2038C13.0673 13.9928 12.7812 13.8742 12.4828 13.8742ZM5.51531 17.7808C5.25856 17.6291 4.9521 17.5856 4.66327 17.6598C4.37444 17.734 4.12689 17.9198 3.975 18.1764L3.53156 18.9264C3.45432 19.0537 3.4031 19.195 3.38086 19.3422C3.35863 19.4894 3.36582 19.6395 3.40203 19.7839C3.43824 19.9283 3.50275 20.064 3.59181 20.1833C3.68087 20.3026 3.79271 20.403 3.92086 20.4787C4.04901 20.5545 4.19091 20.604 4.33835 20.6245C4.48578 20.645 4.63582 20.636 4.77977 20.5981C4.92372 20.5602 5.05871 20.4941 5.17692 20.4036C5.29513 20.3132 5.39422 20.2002 5.46844 20.0711L5.91188 19.3211C6.06346 19.0643 6.10684 18.7577 6.03248 18.4689C5.95811 18.18 5.77209 17.9325 5.51531 17.7808Z" fill="#130032"/>
</svg>
