<svg width="24" height="24" viewBox="0 0 24 24" fill="none" xmlns="http://www.w3.org/2000/svg">
<path d="M15.1275 12.1867C15.5014 11.6216 15.7152 10.9657 15.7461 10.2888C15.777 9.61187 15.624 8.93921 15.3032 8.34233C14.9824 7.74545 14.5058 7.24665 13.9242 6.89894C13.3426 6.55123 12.6776 6.36762 12 6.36762C11.3224 6.36762 10.6574 6.55123 10.0758 6.89894C9.49418 7.24665 9.01764 7.74545 8.69685 8.34233C8.37605 8.93921 8.22298 9.61187 8.25391 10.2888C8.28484 10.9657 8.49861 11.6216 8.8725 12.1867C8.71578 12.3113 8.57363 12.4531 8.44875 12.6096C8.20207 12.9171 8.02821 13.2765 7.94021 13.6608C7.85221 14.0451 7.85235 14.4444 7.94063 14.8286L9.13594 20.0786C9.26537 20.6607 9.58998 21.1809 10.0559 21.553C10.5218 21.9251 11.1009 22.1267 11.6972 22.1242H12.3028C12.8987 22.1268 13.4775 21.9257 13.9434 21.5541C14.4092 21.1826 14.7341 20.6629 14.8641 20.0814L16.0594 14.8314C16.1477 14.4472 16.1478 14.0479 16.0598 13.6636C15.9718 13.2793 15.7979 12.9199 15.5513 12.6124C15.4265 12.4549 15.2844 12.3121 15.1275 12.1867ZM12 8.62424C12.2967 8.62424 12.5867 8.71221 12.8334 8.87704C13.08 9.04186 13.2723 9.27613 13.3858 9.55022C13.4994 9.8243 13.5291 10.1259 13.4712 10.4169C13.4133 10.7078 13.2704 10.9751 13.0607 11.1849C12.8509 11.3947 12.5836 11.5375 12.2926 11.5954C12.0017 11.6533 11.7001 11.6236 11.426 11.5101C11.1519 11.3965 10.9176 11.2043 10.7528 10.9576C10.588 10.7109 10.5 10.4209 10.5 10.1242C10.5 9.72642 10.658 9.34488 10.9393 9.06358C11.2206 8.78228 11.6022 8.62424 12 8.62424ZM13.8647 14.3317L12.6703 19.5817C12.6515 19.6651 12.6049 19.7395 12.538 19.7927C12.4712 19.8458 12.3882 19.8746 12.3028 19.8742H11.6972C11.6118 19.8746 11.5288 19.8458 11.462 19.7927C11.3951 19.7395 11.3485 19.6651 11.3297 19.5817L10.1353 14.3317C10.1224 14.2771 10.1222 14.2202 10.1347 14.1654C10.1472 14.1106 10.1721 14.0594 10.2075 14.0158C10.2425 13.9718 10.287 13.9362 10.3376 13.9117C10.3883 13.8872 10.4438 13.8744 10.5 13.8742H13.5C13.5567 13.874 13.6128 13.8866 13.6639 13.9111C13.7151 13.9356 13.76 13.9714 13.7953 14.0158C13.8302 14.0597 13.8546 14.111 13.8666 14.1657C13.8787 14.2205 13.878 14.2773 13.8647 14.3317ZM22.125 11.9992C22.1253 13.4653 21.8068 14.914 21.1917 16.2448C20.5766 17.5756 19.6794 18.7568 18.5625 19.7064C18.3334 19.8739 18.0494 19.9487 17.7675 19.9156C17.4857 19.8826 17.2267 19.7443 17.0425 19.5283C16.8583 19.3124 16.7626 19.0348 16.7745 18.7512C16.7864 18.4676 16.905 18.199 17.1066 17.9992C18.333 16.9545 19.2096 15.5587 19.6179 14.0002C20.0262 12.4417 19.9467 10.7954 19.39 9.28352C18.8334 7.77161 17.8264 6.46682 16.5049 5.54517C15.1835 4.62352 13.6111 4.12936 12 4.12936C10.3889 4.12936 8.81652 4.62352 7.49506 5.54517C6.17359 6.46682 5.16661 7.77161 4.60996 9.28352C4.05332 10.7954 3.97379 12.4417 4.38211 14.0002C4.79044 15.5587 5.66697 16.9545 6.89344 17.9992C7.09503 18.199 7.21365 18.4676 7.22553 18.7512C7.23742 19.0348 7.14168 19.3124 6.95751 19.5283C6.77334 19.7443 6.51435 19.8826 6.23246 19.9156C5.95057 19.9487 5.66661 19.8739 5.4375 19.7064C4.14325 18.6048 3.14712 17.1952 2.54092 15.6074C1.93473 14.0196 1.73799 12.3047 1.96883 10.6209C2.19966 8.93709 2.85065 7.33846 3.86179 5.97238C4.87293 4.6063 6.21168 3.51673 7.75465 2.80411C9.29761 2.09149 10.9951 1.77874 12.6908 1.89469C14.3864 2.01064 16.0255 2.55156 17.4571 3.46759C18.8887 4.38362 20.0667 5.64528 20.8825 7.13629C21.6982 8.62729 22.1255 10.2997 22.125 11.9992Z" fill="#130032"/>
</svg>
