<svg width="24" height="24" viewBox="0 0 24 24" fill="none" xmlns="http://www.w3.org/2000/svg">
<path d="M21.281 15.7495C21.1967 15.5567 21.0599 15.3914 20.8863 15.2724C19.4294 14.2702 19.1248 12.532 19.1248 11.2495C19.1248 9.73361 20.3135 8.38079 21.0232 7.70954C21.1343 7.60441 21.2227 7.47773 21.2832 7.33726C21.3437 7.19678 21.3748 7.04545 21.3748 6.89251C21.3748 6.73958 21.3437 6.58825 21.2832 6.44777C21.2227 6.30729 21.1343 6.18061 21.0232 6.07548C19.7707 4.89048 17.7007 4.12454 15.7498 4.12454C14.4252 4.12575 13.1269 4.49477 11.9998 5.19048C10.6367 4.34368 9.02657 3.98457 7.43286 4.17191C5.83914 4.35924 4.35619 5.08193 3.22663 6.22173C2.53503 6.92811 1.99255 7.76636 1.63147 8.68663C1.27038 9.6069 1.09806 10.5904 1.12476 11.5786C1.16385 13.2094 1.52745 14.8161 2.19432 16.3049C2.8612 17.7936 3.81799 19.1346 5.00882 20.2495C5.77274 20.973 6.78516 21.3757 7.83726 21.3745H16.0582C16.6212 21.3753 17.1784 21.2605 17.6953 21.0371C18.2121 20.8138 18.6776 20.4867 19.0629 20.0761C19.7335 19.3566 20.3129 18.5571 20.7879 17.6958C20.9351 17.4258 21.0691 17.1605 21.176 16.9074C21.3251 16.5624 21.4798 16.2061 21.281 15.7495ZM17.4157 18.5452C17.2411 18.7295 17.0306 18.8761 16.7971 18.9757C16.5636 19.0754 16.3121 19.126 16.0582 19.1245H7.83726C7.3598 19.1262 6.89997 18.9443 6.55289 18.6164C5.57822 17.704 4.79517 16.6064 4.24949 15.3879C3.70381 14.1693 3.40644 12.8543 3.37476 11.5195C3.35574 10.8349 3.47457 10.1535 3.72421 9.51569C3.97384 8.87791 4.34917 8.29685 4.82788 7.80704C5.27361 7.35175 5.80607 6.99041 6.3938 6.74437C6.98153 6.49833 7.61261 6.37258 8.24976 6.37454H8.31726C9.40162 6.3863 10.4504 6.76277 11.2948 7.44329C11.4943 7.60305 11.7423 7.69009 11.9979 7.69009C12.2535 7.69009 12.5015 7.60305 12.701 7.44329C13.564 6.74691 14.6408 6.36944 15.7498 6.37454C16.7246 6.38607 17.6835 6.62354 18.551 7.06829C17.4616 8.40517 16.8748 9.85548 16.8748 11.2495C16.8748 13.4367 17.5751 15.2705 18.8669 16.5174C18.4722 17.2527 17.9841 17.934 17.4148 18.5442L17.4157 18.5452ZM12.0701 1.21829C12.412 0.777556 12.8401 0.41105 13.3282 0.141105C13.5893 -0.00360345 13.8971 -0.0386747 14.1841 0.0436069C14.471 0.125889 14.7135 0.318783 14.8582 0.579855C15.0029 0.840928 15.038 1.14879 14.9557 1.43572C14.8734 1.72265 14.6805 1.96515 14.4194 2.10986C14.1969 2.23275 14.002 2.39994 13.8466 2.60111C13.7558 2.71776 13.643 2.81538 13.5144 2.88841C13.3859 2.96143 13.2443 3.00843 13.0976 3.02671C12.8013 3.06363 12.5025 2.98135 12.2669 2.79798C12.0314 2.61461 11.8783 2.34516 11.8413 2.04891C11.8044 1.75266 11.8867 1.45388 12.0701 1.21829Z" fill="#130032"/>
</svg>
