<svg width="24" height="24" viewBox="0 0 24 24" fill="none" xmlns="http://www.w3.org/2000/svg">
<path d="M21.1165 14.1306C21.2108 14.2444 21.2818 14.3756 21.3254 14.5168C21.369 14.658 21.3844 14.8064 21.3706 14.9535C21.3569 15.1006 21.3143 15.2436 21.2452 15.3743C21.1762 15.5049 21.0821 15.6207 20.9683 15.715C19.2649 17.1278 17.7246 17.6247 16.3268 17.6247C14.4743 17.6247 12.8711 16.7538 11.463 15.9897C9.11365 14.7128 7.2574 13.705 4.46834 16.0178C4.35458 16.1121 4.22336 16.1831 4.08217 16.2267C3.94099 16.2703 3.79259 16.2856 3.64547 16.2719C3.49835 16.2581 3.35537 16.2155 3.22471 16.1465C3.09405 16.0775 2.97827 15.9835 2.88396 15.8697C2.78966 15.7559 2.71868 15.6247 2.67509 15.4835C2.63149 15.3423 2.61613 15.194 2.62989 15.0468C2.65767 14.7497 2.80234 14.4758 3.03209 14.2853C6.99302 11.0041 10.0633 12.67 12.5374 14.0116C14.8868 15.2875 16.743 16.2963 19.5321 13.9825C19.6458 13.8882 19.777 13.8172 19.9182 13.7736C20.0594 13.73 20.2078 13.7146 20.355 13.7283C20.5021 13.7421 20.6451 13.7847 20.7757 13.8537C20.9064 13.9228 21.0222 14.0168 21.1165 14.1306ZM4.46834 10.0169C7.2574 7.70313 9.11365 8.71188 11.463 9.98782C12.8693 10.7528 14.4743 11.6238 16.3268 11.6238C17.7246 11.6238 19.2649 11.1269 20.9683 9.71407C21.1981 9.52361 21.3428 9.24969 21.3705 8.95256C21.3983 8.65543 21.3069 8.35944 21.1165 8.12969C20.926 7.89995 20.6521 7.75527 20.3549 7.7275C20.0578 7.69972 19.7618 7.79111 19.5321 7.98157C16.743 10.2944 14.8868 9.28657 12.5374 8.00969C10.0671 6.66907 6.99302 4.99938 3.03209 8.28438C2.80234 8.47484 2.65767 8.74876 2.62989 9.04589C2.60211 9.34302 2.6935 9.63901 2.88396 9.86875C3.07442 10.0985 3.34834 10.2432 3.64547 10.271C3.9426 10.2987 4.23859 10.2073 4.46834 10.0169Z" fill="#130032"/>
</svg>
