<svg width="24" height="24" viewBox="0 0 24 24" fill="none" xmlns="http://www.w3.org/2000/svg">
<g clip-path="url(#clip0_7_19317)">
<path d="M20.6248 7.36219V6.75C20.6235 5.65636 20.1885 4.60787 19.4152 3.83455C18.6419 3.06124 17.5934 2.62624 16.4998 2.625H7.49977C6.40613 2.62624 5.35764 3.06124 4.58433 3.83455C3.81101 4.60787 3.37601 5.65636 3.37477 6.75V7.36219C2.39253 7.67828 1.53592 8.29788 0.928245 9.13181C0.320567 9.96573 -0.00683594 10.971 -0.00683594 12.0028C-0.00683594 13.0347 0.320567 14.0399 0.928245 14.8738C1.53592 15.7077 2.39253 16.3273 3.37477 16.6434V18.75C3.37477 19.2473 3.57231 19.7242 3.92395 20.0758C4.27558 20.4275 4.75249 20.625 5.24977 20.625H18.7498C19.2471 20.625 19.724 20.4275 20.0756 20.0758C20.4272 19.7242 20.6248 19.2473 20.6248 18.75V16.6416C21.607 16.3255 22.4636 15.7059 23.0713 14.8719C23.679 14.038 24.0064 13.0328 24.0064 12.0009C24.0064 10.9691 23.679 9.96386 23.0713 9.12993C22.4636 8.29601 21.607 7.6764 20.6248 7.36031V7.36219ZM7.49977 4.875H16.4998C16.9971 4.875 17.474 5.07254 17.8256 5.42417C18.1772 5.77581 18.3748 6.25272 18.3748 6.75V7.18313C17.2903 7.35385 16.2949 7.88504 15.5494 8.69095C14.8038 9.49687 14.3516 10.5305 14.2657 11.625H9.73383C9.64792 10.5305 9.1957 9.49687 8.45017 8.69095C7.70464 7.88504 6.70929 7.35385 5.62477 7.18313V6.75C5.62477 6.25272 5.82231 5.77581 6.17394 5.42417C6.52558 5.07254 7.00249 4.875 7.49977 4.875ZM19.3882 14.6119C19.1105 14.6395 18.8531 14.7694 18.6658 14.9763C18.4785 15.1831 18.3748 15.4522 18.3748 15.7313V18.375H5.62477V15.7313C5.62475 15.4522 5.52103 15.1831 5.33375 14.9763C5.14647 14.7694 4.889 14.6395 4.61133 14.6119C4.10596 14.5609 3.62623 14.3644 3.23031 14.0462C2.8344 13.728 2.53931 13.3018 2.38082 12.8192C2.22233 12.3366 2.20726 11.8184 2.33743 11.3274C2.4676 10.8364 2.73742 10.3938 3.11417 10.0531C3.49092 9.71242 3.95842 9.48837 4.45997 9.40811C4.96153 9.32784 5.4756 9.39482 5.93985 9.60091C6.4041 9.80701 6.79858 10.1434 7.07547 10.5692C7.35235 10.995 7.49975 11.4921 7.49977 12V15.375C7.49977 15.6734 7.6183 15.9595 7.82928 16.1705C8.04025 16.3815 8.3264 16.5 8.62477 16.5C8.92314 16.5 9.20929 16.3815 9.42027 16.1705C9.63124 15.9595 9.74977 15.6734 9.74977 15.375V13.875H14.2498V15.375C14.2498 15.6734 14.3683 15.9595 14.5793 16.1705C14.7903 16.3815 15.0764 16.5 15.3748 16.5C15.6731 16.5 15.9593 16.3815 16.1703 16.1705C16.3812 15.9595 16.4998 15.6734 16.4998 15.375V12C16.4998 11.4921 16.6472 10.995 16.9241 10.5692C17.201 10.1434 17.5954 9.80701 18.0597 9.60091C18.5239 9.39482 19.038 9.32784 19.5396 9.40811C20.0411 9.48837 20.5086 9.71242 20.8854 10.0531C21.2621 10.3938 21.5319 10.8364 21.6621 11.3274C21.7923 11.8184 21.7772 12.3366 21.6187 12.8192C21.4602 13.3018 21.1651 13.728 20.7692 14.0462C20.3733 14.3644 19.8936 14.5609 19.3882 14.6119Z" fill="#130032"/>
</g>
<defs>
<clipPath id="clip0_7_19317">
<rect width="24" height="24" fill="white"/>
</clipPath>
</defs>
</svg>
