<svg width="24" height="24" viewBox="0 0 24 24" fill="none" xmlns="http://www.w3.org/2000/svg">
<path d="M22.125 4.5C22.125 4.79837 22.0065 5.08452 21.7955 5.2955C21.5845 5.50647 21.2984 5.625 21 5.625H4.5C4.20163 5.625 3.91548 5.50647 3.7045 5.2955C3.49353 5.08452 3.375 4.79837 3.375 4.5C3.375 4.20163 3.49353 3.91548 3.7045 3.7045C3.91548 3.49353 4.20163 3.375 4.5 3.375H21C21.2984 3.375 21.5845 3.49353 21.7955 3.7045C22.0065 3.91548 22.125 4.20163 22.125 4.5ZM16.4541 8.20406L7.875 16.7812V10.5C7.875 10.2016 7.75647 9.91548 7.5455 9.7045C7.33452 9.49353 7.04837 9.375 6.75 9.375C6.45163 9.375 6.16548 9.49353 5.9545 9.7045C5.74353 9.91548 5.625 10.2016 5.625 10.5V19.5C5.625 19.7984 5.74353 20.0845 5.9545 20.2955C6.16548 20.5065 6.45163 20.625 6.75 20.625H15.75C16.0484 20.625 16.3345 20.5065 16.5455 20.2955C16.7565 20.0845 16.875 19.7984 16.875 19.5C16.875 19.2016 16.7565 18.9155 16.5455 18.7045C16.3345 18.4935 16.0484 18.375 15.75 18.375H9.46875L18.0487 9.79594C18.2601 9.58459 18.3788 9.29795 18.3788 8.99906C18.3788 8.70018 18.2601 8.41353 18.0487 8.20219C17.8374 7.99084 17.5508 7.87211 17.2519 7.87211C16.953 7.87211 16.6663 7.99084 16.455 8.20219L16.4541 8.20406Z" fill="#130032"/>
</svg>
