<svg width="24" height="24" viewBox="0 0 24 24" fill="none" xmlns="http://www.w3.org/2000/svg">
<path d="M19.5 2.625H4.5C4.00272 2.625 3.52581 2.82254 3.17417 3.17417C2.82254 3.52581 2.625 4.00272 2.625 4.5V19.5C2.625 19.9973 2.82254 20.4742 3.17417 20.8258C3.52581 21.1775 4.00272 21.375 4.5 21.375H19.5C19.9973 21.375 20.4742 21.1775 20.8258 20.8258C21.1775 20.4742 21.375 19.9973 21.375 19.5V4.5C21.375 4.00272 21.1775 3.52581 20.8258 3.17417C20.4742 2.82254 19.9973 2.625 19.5 2.625ZM19.125 19.125H4.875V4.875H19.125V19.125ZM7.45406 12.7959C7.34918 12.6914 7.26597 12.5672 7.20918 12.4305C7.1524 12.2937 7.12318 12.1471 7.12318 11.9991C7.12318 11.851 7.1524 11.7044 7.20918 11.5676C7.26597 11.4309 7.34918 11.3067 7.45406 11.2022L10.4541 8.20219C10.6654 7.99084 10.9521 7.87211 11.2509 7.87211C11.5498 7.87211 11.8365 7.99084 12.0478 8.20219C12.2592 8.41353 12.3779 8.70018 12.3779 8.99906C12.3779 9.29795 12.2592 9.58459 12.0478 9.79594L10.9688 10.875H15.75C16.0484 10.875 16.3345 10.9935 16.5455 11.2045C16.7565 11.4155 16.875 11.7016 16.875 12C16.875 12.2984 16.7565 12.5845 16.5455 12.7955C16.3345 13.0065 16.0484 13.125 15.75 13.125H10.9688L12.0487 14.2041C12.2601 14.4154 12.3788 14.7021 12.3788 15.0009C12.3788 15.2998 12.2601 15.5865 12.0487 15.7978C11.8374 16.0092 11.5508 16.1279 11.2519 16.1279C10.953 16.1279 10.6663 16.0092 10.455 15.7978L7.45406 12.7959Z" fill="#130032"/>
</svg>
