<svg width="24" height="24" viewBox="0 0 24 24" fill="none" xmlns="http://www.w3.org/2000/svg">
<path d="M19.875 8.25V16.5C19.875 16.7984 19.7565 17.0845 19.5455 17.2955C19.3346 17.5065 19.0484 17.625 18.75 17.625C18.4517 17.625 18.1655 17.5065 17.9545 17.2955C17.7436 17.0845 17.625 16.7984 17.625 16.5V8.25C17.625 7.15598 17.1904 6.10677 16.4169 5.33318C15.6433 4.5596 14.5941 4.125 13.5 4.125C12.406 4.125 11.3568 4.5596 10.5832 5.33318C9.80963 6.10677 9.37504 7.15598 9.37504 8.25V18.2812L11.9541 15.7013C12.1654 15.4899 12.4521 15.3712 12.751 15.3712C13.0499 15.3712 13.3365 15.4899 13.5478 15.7013C13.7592 15.9126 13.8779 16.1992 13.8779 16.4981C13.8779 16.797 13.7592 17.0837 13.5478 17.295L9.04785 21.795C8.94333 21.8999 8.81914 21.9831 8.6824 22.0399C8.54565 22.0967 8.39904 22.1259 8.25098 22.1259C8.10291 22.1259 7.9563 22.0967 7.81955 22.0399C7.68281 21.9831 7.55862 21.8999 7.4541 21.795L2.9541 17.295C2.74276 17.0837 2.62402 16.797 2.62402 16.4981C2.62402 16.1992 2.74276 15.9126 2.9541 15.7013C3.16544 15.4899 3.45209 15.3712 3.75097 15.3712C4.04986 15.3712 4.33651 15.4899 4.54785 15.7013L7.12504 18.2812V8.25C7.12504 6.55925 7.79669 4.93774 8.99223 3.74219C10.1878 2.54665 11.8093 1.875 13.5 1.875C15.1908 1.875 16.8123 2.54665 18.0078 3.74219C19.2034 4.93774 19.875 6.55925 19.875 8.25Z" fill="#130032"/>
</svg>
