<svg width="24" height="24" viewBox="0 0 24 24" fill="none" xmlns="http://www.w3.org/2000/svg">
<path d="M22.5459 11.2049L13.5459 2.20495C13.3886 2.04744 13.1881 1.94015 12.9697 1.89667C12.7514 1.85318 12.525 1.87546 12.3194 1.96069C12.1137 2.04591 11.9379 2.19024 11.8143 2.37541C11.6907 2.56057 11.6248 2.77825 11.625 3.00089V6.37589H7.5C7.20163 6.37589 6.91548 6.49441 6.7045 6.70539C6.49353 6.91637 6.375 7.20252 6.375 7.50089V16.5009C6.375 16.7993 6.49353 17.0854 6.7045 17.2964C6.91548 17.5074 7.20163 17.6259 7.5 17.6259H11.625V21.0009C11.6248 21.2235 11.6907 21.4412 11.8143 21.6264C11.9379 21.8115 12.1137 21.9559 12.3194 22.0411C12.525 22.1263 12.7514 22.1486 12.9697 22.1051C13.1881 22.0616 13.3886 21.9543 13.5459 21.7968L22.5459 12.7968C22.6505 12.6923 22.7335 12.5683 22.7901 12.4317C22.8467 12.2951 22.8759 12.1487 22.8759 12.0009C22.8759 11.853 22.8467 11.7067 22.7901 11.5701C22.7335 11.4335 22.6505 11.3094 22.5459 11.2049ZM13.875 18.2821V16.5009C13.875 16.2025 13.7565 15.9164 13.5455 15.7054C13.3345 15.4944 13.0484 15.3759 12.75 15.3759H8.625V8.62589H12.75C13.0484 8.62589 13.3345 8.50736 13.5455 8.29638C13.7565 8.0854 13.875 7.79925 13.875 7.50089V5.71964L20.1562 12.0009L13.875 18.2821ZM4.875 7.50089V16.5009C4.875 16.7993 4.75647 17.0854 4.5455 17.2964C4.33452 17.5074 4.04837 17.6259 3.75 17.6259C3.45163 17.6259 3.16548 17.5074 2.9545 17.2964C2.74353 17.0854 2.625 16.7993 2.625 16.5009V7.50089C2.625 7.20252 2.74353 6.91637 2.9545 6.70539C3.16548 6.49441 3.45163 6.37589 3.75 6.37589C4.04837 6.37589 4.33452 6.49441 4.5455 6.70539C4.75647 6.91637 4.875 7.20252 4.875 7.50089Z" fill="#130032"/>
</svg>
