<svg width="24" height="24" viewBox="0 0 24 24" fill="none" xmlns="http://www.w3.org/2000/svg">
<path d="M22.5459 11.2049L13.5459 2.20495C13.3886 2.04744 13.1881 1.94015 12.9697 1.89667C12.7514 1.85318 12.525 1.87546 12.3194 1.96069C12.1137 2.04591 11.9379 2.19024 11.8143 2.37541C11.6907 2.56057 11.6248 2.77825 11.625 3.00089V6.37589H4.5C4.00272 6.37589 3.52581 6.57343 3.17417 6.92506C2.82254 7.27669 2.625 7.7536 2.625 8.25089V15.7509C2.625 16.2482 2.82254 16.7251 3.17417 17.0767C3.52581 17.4283 4.00272 17.6259 4.5 17.6259H11.625V21.0009C11.6248 21.2235 11.6907 21.4412 11.8143 21.6264C11.9379 21.8115 12.1137 21.9559 12.3194 22.0411C12.525 22.1263 12.7514 22.1486 12.9697 22.1051C13.1881 22.0616 13.3886 21.9543 13.5459 21.7968L22.5459 12.7968C22.6505 12.6923 22.7335 12.5683 22.7901 12.4317C22.8467 12.2951 22.8759 12.1487 22.8759 12.0009C22.8759 11.853 22.8467 11.7067 22.7901 11.5701C22.7335 11.4335 22.6505 11.3094 22.5459 11.2049ZM13.875 18.2821V16.5009C13.875 16.2025 13.7565 15.9164 13.5455 15.7054C13.3345 15.4944 13.0484 15.3759 12.75 15.3759H4.875V8.62589H12.75C13.0484 8.62589 13.3345 8.50736 13.5455 8.29638C13.7565 8.0854 13.875 7.79925 13.875 7.50089V5.71964L20.1562 12.0009L13.875 18.2821Z" fill="#130032"/>
</svg>
