<svg width="24" height="24" viewBox="0 0 24 24" fill="none" xmlns="http://www.w3.org/2000/svg">
<path d="M21.0459 9.79682C20.9414 9.9017 20.8172 9.98492 20.6805 10.0417C20.5437 10.0985 20.3971 10.1277 20.2491 10.1277C20.101 10.1277 19.9544 10.0985 19.8176 10.0417C19.6809 9.98492 19.5567 9.9017 19.4522 9.79682L16.875 7.21964V18.0009C16.875 18.2993 16.7565 18.5854 16.5455 18.7964C16.3345 19.0074 16.0484 19.1259 15.75 19.1259H2.25C1.95163 19.1259 1.66548 19.0074 1.4545 18.7964C1.24353 18.5854 1.125 18.2993 1.125 18.0009C1.125 17.7025 1.24353 17.4164 1.4545 17.2054C1.66548 16.9944 1.95163 16.8759 2.25 16.8759H14.625V7.21964L12.0459 9.79964C11.9413 9.90428 11.8171 9.9873 11.6803 10.0439C11.5436 10.1006 11.3971 10.1297 11.2491 10.1297C11.1011 10.1297 10.9545 10.1006 10.8178 10.0439C10.6811 9.9873 10.5568 9.90428 10.4522 9.79964C10.3475 9.69499 10.2645 9.57076 10.2079 9.43403C10.1513 9.2973 10.1221 9.15076 10.1221 9.00276C10.1221 8.85477 10.1513 8.70822 10.2079 8.5715C10.2645 8.43477 10.3475 8.31053 10.4522 8.20589L14.9522 3.70589C15.0567 3.60101 15.1809 3.51779 15.3176 3.46101C15.4544 3.40423 15.601 3.375 15.7491 3.375C15.8971 3.375 16.0437 3.40423 16.1805 3.46101C16.3172 3.51779 16.4414 3.60101 16.5459 3.70589L21.0459 8.20589C21.2569 8.41686 21.3754 8.703 21.3754 9.00136C21.3754 9.29971 21.2569 9.58585 21.0459 9.79682Z" fill="#130032"/>
</svg>
