<svg width="24" height="24" viewBox="0 0 24 24" fill="none" xmlns="http://www.w3.org/2000/svg">
<path d="M19.5 2.625H4.5C4.00272 2.625 3.52581 2.82254 3.17417 3.17417C2.82254 3.52581 2.625 4.00272 2.625 4.5V19.5C2.625 19.9973 2.82254 20.4742 3.17417 20.8258C3.52581 21.1775 4.00272 21.375 4.5 21.375H19.5C19.9973 21.375 20.4742 21.1775 20.8258 20.8258C21.1775 20.4742 21.375 19.9973 21.375 19.5V4.5C21.375 4.00272 21.1775 3.52581 20.8258 3.17417C20.4742 2.82254 19.9973 2.625 19.5 2.625ZM19.125 19.125H4.875V4.875H19.125V19.125ZM8.20406 9.79594C8.09942 9.69129 8.0164 9.56706 7.95977 9.43033C7.90314 9.2936 7.87399 9.14706 7.87399 8.99906C7.87399 8.70018 7.99272 8.41353 8.20406 8.20219C8.41541 7.99084 8.70205 7.87211 9.00094 7.87211C9.29982 7.87211 9.58647 7.99084 9.79781 8.20219L13.875 12.2812V10.5C13.875 10.2016 13.9935 9.91548 14.2045 9.7045C14.4155 9.49353 14.7016 9.375 15 9.375C15.2984 9.375 15.5845 9.49353 15.7955 9.7045C16.0065 9.91548 16.125 10.2016 16.125 10.5V15C16.125 15.2984 16.0065 15.5845 15.7955 15.7955C15.5845 16.0065 15.2984 16.125 15 16.125H10.5C10.2016 16.125 9.91548 16.0065 9.7045 15.7955C9.49353 15.5845 9.375 15.2984 9.375 15C9.375 14.7016 9.49353 14.4155 9.7045 14.2045C9.91548 13.9935 10.2016 13.875 10.5 13.875H12.2812L8.20406 9.79594Z" fill="#130032"/>
</svg>
