<svg width="24" height="24" viewBox="0 0 24 24" fill="none" xmlns="http://www.w3.org/2000/svg">
<path d="M15.7041 11.955L18.2813 9.37594H8.25C7.15598 9.37594 6.10677 9.81053 5.33318 10.5841C4.5596 11.3577 4.125 12.4069 4.125 13.5009C4.125 14.595 4.5596 15.6442 5.33318 16.4178C6.10677 17.1913 7.15598 17.6259 8.25 17.6259H16.5C16.7984 17.6259 17.0845 17.7445 17.2955 17.9554C17.5065 18.1664 17.625 18.4526 17.625 18.7509C17.625 19.0493 17.5065 19.3355 17.2955 19.5464C17.0845 19.7574 16.7984 19.8759 16.5 19.8759H8.25C6.55925 19.8759 4.93774 19.2043 3.74219 18.0087C2.54665 16.8132 1.875 15.1917 1.875 13.5009C1.875 11.8102 2.54665 10.1887 3.74219 8.99313C4.93774 7.79759 6.55925 7.12594 8.25 7.12594H18.2813L15.7041 4.54687C15.5994 4.44223 15.5164 4.31799 15.4598 4.18126C15.4031 4.04454 15.374 3.89799 15.374 3.75C15.374 3.60201 15.4031 3.45546 15.4598 3.31873C15.5164 3.182 15.5994 3.05777 15.7041 2.95312C15.8087 2.84848 15.9329 2.76547 16.0697 2.70883C16.2064 2.6522 16.3529 2.62305 16.5009 2.62305C16.6489 2.62305 16.7955 2.6522 16.9322 2.70883C17.0689 2.76547 17.1932 2.84848 17.2978 2.95312L21.7978 7.45312C21.9027 7.55764 21.9859 7.68183 22.0427 7.81858C22.0995 7.95532 22.1287 8.10193 22.1287 8.25C22.1287 8.39806 22.0995 8.54467 22.0427 8.68142C21.9859 8.81816 21.9027 8.94236 21.7978 9.04687L17.2978 13.5469C17.0865 13.7582 16.7998 13.877 16.5009 13.877C16.2021 13.877 15.9154 13.7582 15.7041 13.5469C15.4927 13.3355 15.374 13.0489 15.374 12.75C15.374 12.4511 15.4927 12.1645 15.7041 11.9531V11.955Z" fill="#130032"/>
</svg>
