<svg width="24" height="24" viewBox="0 0 24 24" fill="none" xmlns="http://www.w3.org/2000/svg">
<path d="M19.5 2.625H4.5C4.00272 2.625 3.52581 2.82254 3.17417 3.17417C2.82254 3.52581 2.625 4.00272 2.625 4.5V19.5C2.625 19.9973 2.82254 20.4742 3.17417 20.8258C3.52581 21.1775 4.00272 21.375 4.5 21.375H19.5C19.9973 21.375 20.4742 21.1775 20.8258 20.8258C21.1775 20.4742 21.375 19.9973 21.375 19.5V4.5C21.375 4.00272 21.1775 3.52581 20.8258 3.17417C20.4742 2.82254 19.9973 2.625 19.5 2.625ZM19.125 19.125H4.875V4.875H19.125V19.125ZM7.125 12C7.125 11.7016 7.24353 11.4155 7.4545 11.2045C7.66548 10.9935 7.95163 10.875 8.25 10.875H13.0312L11.9513 9.79594C11.8466 9.69129 11.7636 9.56706 11.707 9.43033C11.6503 9.2936 11.6212 9.14706 11.6212 8.99906C11.6212 8.85107 11.6503 8.70452 11.707 8.5678C11.7636 8.43107 11.8466 8.30683 11.9513 8.20219C12.0559 8.09754 12.1801 8.01453 12.3169 7.9579C12.4536 7.90126 12.6001 7.87211 12.7481 7.87211C12.8961 7.87211 13.0427 7.90126 13.1794 7.9579C13.3161 8.01453 13.4404 8.09754 13.545 8.20219L16.545 11.2022C16.6499 11.3067 16.7331 11.4309 16.7899 11.5676C16.8467 11.7044 16.8759 11.851 16.8759 11.9991C16.8759 12.1471 16.8467 12.2937 16.7899 12.4305C16.7331 12.5672 16.6499 12.6914 16.545 12.7959L13.545 15.7959C13.4404 15.9006 13.3161 15.9836 13.1794 16.0402C13.0427 16.0969 12.8961 16.126 12.7481 16.126C12.6001 16.126 12.4536 16.0969 12.3169 16.0402C12.1801 15.9836 12.0559 15.9006 11.9513 15.7959C11.8466 15.6913 11.7636 15.5671 11.707 15.4303C11.6503 15.2936 11.6212 15.1471 11.6212 14.9991C11.6212 14.8511 11.6503 14.7045 11.707 14.5678C11.7636 14.4311 11.8466 14.3068 11.9513 14.2022L13.0312 13.125H8.25C7.95163 13.125 7.66548 13.0065 7.4545 12.7955C7.24353 12.5845 7.125 12.2984 7.125 12Z" fill="#130032"/>
</svg>
