<svg width="24" height="24" viewBox="0 0 24 24" fill="none" xmlns="http://www.w3.org/2000/svg">
<path d="M22.125 19.5C22.125 19.7984 22.0065 20.0845 21.7955 20.2955C21.5845 20.5065 21.2984 20.625 21 20.625H4.5C4.20163 20.625 3.91548 20.5065 3.7045 20.2955C3.49353 20.0845 3.375 19.7984 3.375 19.5C3.375 19.2016 3.49353 18.9155 3.7045 18.7045C3.91548 18.4935 4.20163 18.375 4.5 18.375H21C21.2984 18.375 21.5845 18.4935 21.7955 18.7045C22.0065 18.9155 22.125 19.2016 22.125 19.5ZM6.75 14.625C7.04837 14.625 7.33452 14.5065 7.5455 14.2955C7.75647 14.0845 7.875 13.7984 7.875 13.5V7.21875L16.4541 15.7987C16.6654 16.0101 16.9521 16.1288 17.2509 16.1288C17.5498 16.1288 17.8365 16.0101 18.0478 15.7987C18.2592 15.5874 18.3779 15.3008 18.3779 15.0019C18.3779 14.703 18.2592 14.4163 18.0478 14.205L9.46875 5.625H15.75C16.0484 5.625 16.3345 5.50647 16.5455 5.2955C16.7565 5.08452 16.875 4.79837 16.875 4.5C16.875 4.20163 16.7565 3.91548 16.5455 3.7045C16.3345 3.49353 16.0484 3.375 15.75 3.375H6.75C6.45163 3.375 6.16548 3.49353 5.9545 3.7045C5.74353 3.91548 5.625 4.20163 5.625 4.5V13.5C5.625 13.7984 5.74353 14.0845 5.9545 14.2955C6.16548 14.5065 6.45163 14.625 6.75 14.625Z" fill="#130032"/>
</svg>
