<svg width="24" height="24" viewBox="0 0 24 24" fill="none" xmlns="http://www.w3.org/2000/svg">
<path d="M12.375 12.75V18.75C12.375 19.0484 12.2564 19.3345 12.0455 19.5455C11.8345 19.7565 11.5483 19.875 11.25 19.875C10.9516 19.875 10.6654 19.7565 10.4545 19.5455C10.2435 19.3345 10.125 19.0484 10.125 18.75V15.4688L4.5459 21.0459C4.44125 21.1506 4.31702 21.2336 4.18029 21.2902C4.04356 21.3469 3.89702 21.376 3.74902 21.376C3.60103 21.376 3.45448 21.3469 3.31776 21.2902C3.18103 21.2336 3.05679 21.1506 2.95215 21.0459C2.8475 20.9413 2.76449 20.8171 2.70785 20.6803C2.65122 20.5436 2.62207 20.3971 2.62207 20.2491C2.62207 20.1011 2.65122 19.9545 2.70785 19.8178C2.76449 19.6811 2.8475 19.5568 2.95215 19.4522L8.53121 13.875H5.24996C4.95159 13.875 4.66544 13.7565 4.45446 13.5455C4.24349 13.3345 4.12496 13.0484 4.12496 12.75C4.12496 12.4516 4.24349 12.1655 4.45446 11.9545C4.66544 11.7435 4.95159 11.625 5.24996 11.625H11.25C11.5483 11.625 11.8345 11.7435 12.0455 11.9545C12.2564 12.1655 12.375 12.4516 12.375 12.75ZM19.5 2.625H7.49996C7.00268 2.625 6.52576 2.82254 6.17413 3.17417C5.8225 3.52581 5.62496 4.00272 5.62496 4.5V8.625C5.62496 8.92337 5.74349 9.20952 5.95446 9.4205C6.16544 9.63147 6.45159 9.75 6.74996 9.75C7.04833 9.75 7.33448 9.63147 7.54545 9.4205C7.75643 9.20952 7.87496 8.92337 7.87496 8.625V4.875H19.125V16.125H15.375C15.0766 16.125 14.7904 16.2435 14.5795 16.4545C14.3685 16.6655 14.25 16.9516 14.25 17.25C14.25 17.5484 14.3685 17.8345 14.5795 18.0455C14.7904 18.2565 15.0766 18.375 15.375 18.375H19.5C19.9972 18.375 20.4742 18.1775 20.8258 17.8258C21.1774 17.4742 21.375 16.9973 21.375 16.5V4.5C21.375 4.00272 21.1774 3.52581 20.8258 3.17417C20.4742 2.82254 19.9972 2.625 19.5 2.625Z" fill="#130032"/>
</svg>
