<svg width="24" height="24" viewBox="0 0 24 24" fill="none" xmlns="http://www.w3.org/2000/svg">
<path d="M21.0459 17.2959L16.5459 21.7959C16.4414 21.9008 16.3172 21.984 16.1805 22.0408C16.0437 22.0976 15.8971 22.1268 15.7491 22.1268C15.601 22.1268 15.4544 22.0976 15.3176 22.0408C15.1809 21.984 15.0567 21.9008 14.9522 21.7959L10.4522 17.2959C10.3475 17.1913 10.2645 17.0671 10.2079 16.9303C10.1513 16.7936 10.1221 16.6471 10.1221 16.4991C10.1221 16.3511 10.1513 16.2045 10.2079 16.0678C10.2645 15.9311 10.3475 15.8068 10.4522 15.7022C10.5568 15.5975 10.6811 15.5145 10.8178 15.4579C10.9545 15.4013 11.1011 15.3721 11.2491 15.3721C11.3971 15.3721 11.5436 15.4013 11.6803 15.4579C11.8171 15.5145 11.9413 15.5975 12.0459 15.7022L14.625 18.2812V8.25C14.625 7.15598 14.1904 6.10677 13.4168 5.33318C12.6432 4.5596 11.594 4.125 10.5 4.125C9.40598 4.125 8.35677 4.5596 7.58318 5.33318C6.8096 6.10677 6.375 7.15598 6.375 8.25V16.5C6.375 16.7984 6.25647 17.0845 6.0455 17.2955C5.83452 17.5065 5.54837 17.625 5.25 17.625C4.95163 17.625 4.66548 17.5065 4.4545 17.2955C4.24353 17.0845 4.125 16.7984 4.125 16.5V8.25C4.125 6.55925 4.79665 4.93774 5.99219 3.74219C7.18774 2.54665 8.80925 1.875 10.5 1.875C12.1908 1.875 13.8123 2.54665 15.0078 3.74219C16.2034 4.93774 16.875 6.55925 16.875 8.25V18.2812L19.4541 15.7013C19.5587 15.5966 19.6829 15.5136 19.8197 15.457C19.9564 15.4003 20.1029 15.3712 20.2509 15.3712C20.3989 15.3712 20.5455 15.4003 20.6822 15.457C20.8189 15.5136 20.9432 15.5966 21.0478 15.7013C21.1525 15.8059 21.2355 15.9301 21.2921 16.0669C21.3487 16.2036 21.3779 16.3501 21.3779 16.4981C21.3779 16.6461 21.3487 16.7927 21.2921 16.9294C21.2355 17.0661 21.1525 17.1904 21.0478 17.295L21.0459 17.2959Z" fill="#130032"/>
</svg>
