<svg width="24" height="24" viewBox="0 0 24 24" fill="none" xmlns="http://www.w3.org/2000/svg">
<path d="M21.375 11.9999C21.375 12.2982 21.2565 12.5844 21.0455 12.7954C20.8345 13.0063 20.5484 13.1249 20.25 13.1249H3.75C3.45163 13.1249 3.16548 13.0063 2.9545 12.7954C2.74353 12.5844 2.625 12.2982 2.625 11.9999C2.625 11.7015 2.74353 11.4154 2.9545 11.2044C3.16548 10.9934 3.45163 10.8749 3.75 10.8749H20.25C20.5484 10.8749 20.8345 10.9934 21.0455 11.2044C21.2565 11.4154 21.375 11.7015 21.375 11.9999ZM9.79594 5.29487L10.875 4.21862V8.24987C10.875 8.54824 10.9935 8.83439 11.2045 9.04537C11.4155 9.25634 11.7016 9.37487 12 9.37487C12.2984 9.37487 12.5845 9.25634 12.7955 9.04537C13.0065 8.83439 13.125 8.54824 13.125 8.24987V4.21862L14.2041 5.29768C14.4154 5.50903 14.7021 5.62776 15.0009 5.62776C15.2998 5.62776 15.5865 5.50903 15.7978 5.29768C16.0092 5.08634 16.1279 4.7997 16.1279 4.50081C16.1279 4.20192 16.0092 3.91528 15.7978 3.70393L12.7978 0.703934C12.6933 0.599054 12.5691 0.515838 12.4324 0.459056C12.2956 0.402275 12.149 0.373047 12.0009 0.373047C11.8529 0.373047 11.7063 0.402275 11.5695 0.459056C11.4328 0.515838 11.3086 0.599054 11.2041 0.703934L8.20406 3.70393C7.99272 3.91528 7.87399 4.20192 7.87399 4.50081C7.87399 4.7997 7.99272 5.08634 8.20406 5.29768C8.41541 5.50903 8.70205 5.62776 9.00094 5.62776C9.29982 5.62776 9.58647 5.50903 9.79781 5.29768L9.79594 5.29487ZM14.2022 18.7011L13.125 19.7811V15.7499C13.125 15.4515 13.0065 15.1654 12.7955 14.9544C12.5845 14.7434 12.2984 14.6249 12 14.6249C11.7016 14.6249 11.4155 14.7434 11.2045 14.9544C10.9935 15.1654 10.875 15.4515 10.875 15.7499V19.7811L9.79594 18.7011C9.58459 18.4898 9.29795 18.371 8.99906 18.371C8.70018 18.371 8.41353 18.4898 8.20219 18.7011C7.99084 18.9125 7.87211 19.1991 7.87211 19.498C7.87211 19.7969 7.99084 20.0835 8.20219 20.2949L11.2022 23.2949C11.3067 23.3998 11.4309 23.483 11.5676 23.5397C11.7044 23.5965 11.851 23.6258 11.9991 23.6258C12.1471 23.6258 12.2937 23.5965 12.4305 23.5397C12.5672 23.483 12.6914 23.3998 12.7959 23.2949L15.7959 20.2949C16.0073 20.0835 16.126 19.7969 16.126 19.498C16.126 19.1991 16.0073 18.9125 15.7959 18.7011C15.5846 18.4898 15.2979 18.371 14.9991 18.371C14.7002 18.371 14.4135 18.4898 14.2022 18.7011Z" fill="#130032"/>
</svg>
