<svg width="24" height="24" viewBox="0 0 24 24" fill="none" xmlns="http://www.w3.org/2000/svg">
<path d="M18.7959 6.79406L8.71875 16.8741H15.75C16.0484 16.8741 16.3345 16.9926 16.5455 17.2036C16.7565 17.4145 16.875 17.7007 16.875 17.9991C16.875 18.2974 16.7565 18.5836 16.5455 18.7946C16.3345 19.0055 16.0484 19.1241 15.75 19.1241H6C5.70163 19.1241 5.41548 19.0055 5.2045 18.7946C4.99353 18.5836 4.875 18.2974 4.875 17.9991V8.24906C4.875 7.95069 4.99353 7.66454 5.2045 7.45357C5.41548 7.24259 5.70163 7.12406 6 7.12406C6.29837 7.12406 6.58452 7.24259 6.7955 7.45357C7.00647 7.66454 7.125 7.95069 7.125 8.24906V15.2803L17.2041 5.20312C17.3087 5.09848 17.4329 5.01547 17.5697 4.95883C17.7064 4.9022 17.8529 4.87305 18.0009 4.87305C18.1489 4.87305 18.2955 4.9022 18.4322 4.95883C18.5689 5.01547 18.6932 5.09848 18.7978 5.20312C18.9025 5.30777 18.9855 5.432 19.0421 5.56873C19.0987 5.70546 19.1279 5.85201 19.1279 6C19.1279 6.14799 19.0987 6.29454 19.0421 6.43126C18.9855 6.56799 18.9025 6.69223 18.7978 6.79687L18.7959 6.79406Z" fill="#130032"/>
</svg>
