<svg width="24" height="24" viewBox="0 0 24 24" fill="none" xmlns="http://www.w3.org/2000/svg">
<path d="M13.125 9.74992V5.99992C13.125 5.70155 13.2435 5.4154 13.4545 5.20442C13.6654 4.99345 13.9516 4.87492 14.25 4.87492C14.5483 4.87492 14.8345 4.99345 15.0455 5.20442C15.2564 5.4154 15.375 5.70155 15.375 5.99992V7.03117L18.704 3.70117C18.9154 3.48983 19.202 3.37109 19.5009 3.37109C19.7998 3.37109 20.0864 3.48983 20.2978 3.70117C20.5091 3.91251 20.6278 4.19916 20.6278 4.49804C20.6278 4.79693 20.5091 5.08358 20.2978 5.29492L16.9687 8.62492H18C18.2983 8.62492 18.5845 8.74345 18.7955 8.95442C19.0064 9.1654 19.125 9.45155 19.125 9.74992C19.125 10.0483 19.0064 10.3344 18.7955 10.5454C18.5845 10.7564 18.2983 10.8749 18 10.8749H14.25C13.9516 10.8749 13.6654 10.7564 13.4545 10.5454C13.2435 10.3344 13.125 10.0483 13.125 9.74992ZM9.74996 13.1249H5.99996C5.70159 13.1249 5.41544 13.2434 5.20446 13.4544C4.99349 13.6654 4.87496 13.9516 4.87496 14.2499C4.87496 14.5483 4.99349 14.8344 5.20446 15.0454C5.41544 15.2564 5.70159 15.3749 5.99996 15.3749H7.03121L3.70402 18.704C3.49268 18.9153 3.37395 19.202 3.37395 19.5009C3.37395 19.7997 3.49268 20.0864 3.70402 20.2977C3.91537 20.5091 4.20201 20.6278 4.5009 20.6278C4.79978 20.6278 5.08643 20.5091 5.29777 20.2977L8.62496 16.9687V17.9999C8.62496 18.2983 8.74349 18.5844 8.95446 18.7954C9.16544 19.0064 9.45159 19.1249 9.74996 19.1249C10.0483 19.1249 10.3345 19.0064 10.5455 18.7954C10.7564 18.5844 10.875 18.2983 10.875 17.9999V14.2499C10.875 13.9516 10.7564 13.6654 10.5455 13.4544C10.3345 13.2434 10.0483 13.1249 9.74996 13.1249ZM16.9687 15.3749H18C18.2983 15.3749 18.5845 15.2564 18.7955 15.0454C19.0064 14.8344 19.125 14.5483 19.125 14.2499C19.125 13.9516 19.0064 13.6654 18.7955 13.4544C18.5845 13.2434 18.2983 13.1249 18 13.1249H14.25C13.9516 13.1249 13.6654 13.2434 13.4545 13.4544C13.2435 13.6654 13.125 13.9516 13.125 14.2499V17.9999C13.125 18.2983 13.2435 18.5844 13.4545 18.7954C13.6654 19.0064 13.9516 19.1249 14.25 19.1249C14.5483 19.1249 14.8345 19.0064 15.0455 18.7954C15.2564 18.5844 15.375 18.2983 15.375 17.9999V16.9687L18.704 20.2987C18.9154 20.51 19.202 20.6287 19.5009 20.6287C19.7998 20.6287 20.0864 20.51 20.2978 20.2987C20.5091 20.0873 20.6278 19.8007 20.6278 19.5018C20.6278 19.2029 20.5091 18.9163 20.2978 18.7049L16.9687 15.3749ZM9.74996 4.87492C9.45159 4.87492 9.16544 4.99345 8.95446 5.20442C8.74349 5.4154 8.62496 5.70155 8.62496 5.99992V7.03117L5.2959 3.70398C5.08455 3.49264 4.79791 3.37391 4.49902 3.37391C4.20014 3.37391 3.91349 3.49264 3.70215 3.70398C3.4908 3.91533 3.37207 4.20197 3.37207 4.50086C3.37207 4.79974 3.4908 5.08639 3.70215 5.29773L7.03121 8.62492H5.99996C5.70159 8.62492 5.41544 8.74345 5.20446 8.95442C4.99349 9.1654 4.87496 9.45155 4.87496 9.74992C4.87496 10.0483 4.99349 10.3344 5.20446 10.5454C5.41544 10.7564 5.70159 10.8749 5.99996 10.8749H9.74996C10.0483 10.8749 10.3345 10.7564 10.5455 10.5454C10.7564 10.3344 10.875 10.0483 10.875 9.74992V5.99992C10.875 5.70155 10.7564 5.4154 10.5455 5.20442C10.3345 4.99345 10.0483 4.87492 9.74996 4.87492Z" fill="#130032"/>
</svg>
