<svg width="24" height="24" viewBox="0 0 24 24" fill="none" xmlns="http://www.w3.org/2000/svg">
<path d="M19.1249 7.49906V20.9991C19.1249 21.2974 19.0064 21.5836 18.7954 21.7946C18.5844 22.0055 18.2983 22.1241 17.9999 22.1241C17.7015 22.1241 17.4154 22.0055 17.2044 21.7946C16.9934 21.5836 16.8749 21.2974 16.8749 20.9991V8.62406H7.21866L9.79866 11.2031C10.01 11.4145 10.1287 11.7011 10.1287 12C10.1287 12.2989 10.01 12.5855 9.79866 12.7969C9.58732 13.0082 9.30067 13.127 9.00179 13.127C8.7029 13.127 8.41625 13.0082 8.20491 12.7969L3.70491 8.29687C3.60003 8.19236 3.51681 8.06816 3.46003 7.93142C3.40325 7.79467 3.37402 7.64806 3.37402 7.5C3.37402 7.35193 3.40325 7.20532 3.46003 7.06858C3.51681 6.93183 3.60003 6.80764 3.70491 6.70312L8.20491 2.20312C8.41625 1.99178 8.7029 1.87305 9.00179 1.87305C9.30067 1.87305 9.58732 1.99178 9.79866 2.20312C10.01 2.41447 10.1287 2.70111 10.1287 3C10.1287 3.29888 10.01 3.58553 9.79866 3.79687L7.21866 6.37406H17.9999C18.2983 6.37406 18.5844 6.49259 18.7954 6.70357C19.0064 6.91454 19.1249 7.20069 19.1249 7.49906Z" fill="#130032"/>
</svg>
