<svg width="24" height="24" viewBox="0 0 24 24" fill="none" xmlns="http://www.w3.org/2000/svg">
<path d="M22.0396 12.3197C21.9545 12.114 21.8103 11.9383 21.6252 11.8146C21.4401 11.6909 21.2225 11.625 20.9999 11.625H17.6249V7.5C17.6249 7.20163 17.5064 6.91548 17.2954 6.7045C17.0845 6.49353 16.7983 6.375 16.4999 6.375H7.49995C7.20158 6.375 6.91543 6.49353 6.70445 6.7045C6.49347 6.91548 6.37495 7.20163 6.37495 7.5V11.625H2.99995C2.7774 11.625 2.55985 11.691 2.37482 11.8147C2.1898 11.9384 2.04561 12.1142 1.96051 12.3198C1.8754 12.5254 1.8532 12.7517 1.89671 12.9699C1.94022 13.1882 2.04749 13.3887 2.20495 13.5459L11.2049 22.5459C11.3095 22.6508 11.4337 22.734 11.5704 22.7908C11.7071 22.8476 11.8538 22.8768 12.0018 22.8768C12.1499 22.8768 12.2965 22.8476 12.4332 22.7908C12.57 22.734 12.6942 22.6508 12.7987 22.5459L21.7987 13.5459C21.9556 13.3883 22.0622 13.1876 22.1051 12.9693C22.148 12.7511 22.1252 12.525 22.0396 12.3197ZM11.9999 20.1562L5.7187 13.875H7.49995C7.79832 13.875 8.08446 13.7565 8.29544 13.5455C8.50642 13.3345 8.62495 13.0484 8.62495 12.75V8.625H15.3749V12.75C15.3749 13.0484 15.4935 13.3345 15.7045 13.5455C15.9154 13.7565 16.2016 13.875 16.4999 13.875H18.2812L11.9999 20.1562ZM6.37495 3.75C6.37495 3.45163 6.49347 3.16548 6.70445 2.9545C6.91543 2.74353 7.20158 2.625 7.49995 2.625H16.4999C16.7983 2.625 17.0845 2.74353 17.2954 2.9545C17.5064 3.16548 17.6249 3.45163 17.6249 3.75C17.6249 4.04837 17.5064 4.33452 17.2954 4.5455C17.0845 4.75647 16.7983 4.875 16.4999 4.875H7.49995C7.20158 4.875 6.91543 4.75647 6.70445 4.5455C6.49347 4.33452 6.37495 4.04837 6.37495 3.75Z" fill="#130032"/>
</svg>
