<svg width="24" height="24" viewBox="0 0 24 24" fill="none" xmlns="http://www.w3.org/2000/svg">
<path d="M22.8752 5.24907V9.74907C22.8752 10.0474 22.7567 10.3336 22.5457 10.5446C22.3347 10.7555 22.0486 10.8741 21.7502 10.8741H17.2502C16.9518 10.8741 16.6657 10.7555 16.4547 10.5446C16.2437 10.3336 16.1252 10.0474 16.1252 9.74907C16.1252 9.4507 16.2437 9.16455 16.4547 8.95357C16.6657 8.7426 16.9518 8.62407 17.2502 8.62407H18.8533L17.0721 6.99469C17.0599 6.98344 17.0477 6.97219 17.0365 6.96001C16.2105 6.13459 15.1944 5.52481 14.0775 5.18432C12.9606 4.84384 11.7771 4.78307 10.6312 5.00738C9.48524 5.23169 8.412 5.7342 7.50589 6.47069C6.59978 7.20717 5.88856 8.15507 5.43482 9.23098C4.98107 10.3069 4.79871 11.4778 4.90377 12.6407C5.00883 13.8037 5.39809 14.923 6.03731 15.9001C6.67653 16.8773 7.54612 17.6824 8.56955 18.2446C9.59298 18.8067 10.7389 19.1088 11.9065 19.1241H12.0002C13.8189 19.1285 15.5695 18.4329 16.8893 17.1816C17.1062 16.9766 17.3957 16.8661 17.6941 16.8746C17.9924 16.883 18.2752 17.0096 18.4802 17.2266C18.6852 17.4435 18.7956 17.733 18.7872 18.0314C18.7788 18.3297 18.6522 18.6125 18.4352 18.8175C16.6979 20.4641 14.3939 21.3795 12.0002 21.3741H11.8718C10.3371 21.3524 8.83127 20.9544 7.48642 20.2148C6.14156 19.4752 4.99884 18.4168 4.15861 17.1324C3.31837 15.8481 2.80631 14.3771 2.66739 12.8486C2.52847 11.3201 2.76694 9.78084 3.36186 8.36603C3.95679 6.95123 4.88996 5.70413 6.07945 4.73423C7.26894 3.76433 8.67837 3.10129 10.184 2.80335C11.6896 2.5054 13.2453 2.58166 14.7145 3.02542C16.1838 3.46917 17.5216 4.26687 18.6105 5.34844L20.6252 7.19157V5.24907C20.6252 4.9507 20.7437 4.66455 20.9547 4.45357C21.1657 4.2426 21.4518 4.12407 21.7502 4.12407C22.0486 4.12407 22.3347 4.2426 22.5457 4.45357C22.7567 4.66455 22.8752 4.9507 22.8752 5.24907Z" fill="#130032"/>
</svg>
