<svg width="24" height="24" viewBox="0 0 24 24" fill="none" xmlns="http://www.w3.org/2000/svg">
<path d="M19.5 2.625H4.5C4.00272 2.625 3.52581 2.82254 3.17417 3.17417C2.82254 3.52581 2.625 4.00272 2.625 4.5V19.5C2.625 19.9973 2.82254 20.4742 3.17417 20.8258C3.52581 21.1775 4.00272 21.375 4.5 21.375H19.5C19.9973 21.375 20.4742 21.1775 20.8258 20.8258C21.1775 20.4742 21.375 19.9973 21.375 19.5V4.5C21.375 4.00272 21.1775 3.52581 20.8258 3.17417C20.4742 2.82254 19.9973 2.625 19.5 2.625ZM19.125 19.125H4.875V4.875H19.125V19.125ZM7.875 13.5V9C7.875 8.70163 7.99353 8.41548 8.2045 8.2045C8.41548 7.99353 8.70163 7.875 9 7.875H13.5C13.7984 7.875 14.0845 7.99353 14.2955 8.2045C14.5065 8.41548 14.625 8.70163 14.625 9C14.625 9.29837 14.5065 9.58452 14.2955 9.7955C14.0845 10.0065 13.7984 10.125 13.5 10.125H11.7188L15.7987 14.2041C16.0101 14.4154 16.1288 14.7021 16.1288 15.0009C16.1288 15.2998 16.0101 15.5865 15.7987 15.7978C15.5874 16.0092 15.3008 16.1279 15.0019 16.1279C14.703 16.1279 14.4163 16.0092 14.205 15.7978L10.125 11.7188V13.5C10.125 13.7984 10.0065 14.0845 9.7955 14.2955C9.58452 14.5065 9.29837 14.625 9 14.625C8.70163 14.625 8.41548 14.5065 8.2045 14.2955C7.99353 14.0845 7.875 13.7984 7.875 13.5Z" fill="#130032"/>
</svg>
