<svg width="24" height="24" viewBox="0 0 24 24" fill="none" xmlns="http://www.w3.org/2000/svg">
<path d="M21.7959 16.5459L17.2959 21.0459C17.0846 21.2573 16.7979 21.376 16.4991 21.376C16.2002 21.376 15.9135 21.2573 15.7022 21.0459C15.4908 20.8346 15.3721 20.5479 15.3721 20.2491C15.3721 19.9502 15.4908 19.6635 15.7022 19.4522L18.2812 16.875H8.25C6.55925 16.875 4.93774 16.2034 3.74219 15.0078C2.54665 13.8123 1.875 12.1908 1.875 10.5C1.875 8.80925 2.54665 7.18774 3.74219 5.99219C4.93774 4.79665 6.55925 4.125 8.25 4.125H16.5C16.7984 4.125 17.0845 4.24353 17.2955 4.4545C17.5065 4.66548 17.625 4.95163 17.625 5.25C17.625 5.54837 17.5065 5.83452 17.2955 6.0455C17.0845 6.25647 16.7984 6.375 16.5 6.375H8.25C7.15598 6.375 6.10677 6.8096 5.33318 7.58318C4.5596 8.35677 4.125 9.40598 4.125 10.5C4.125 11.594 4.5596 12.6432 5.33318 13.4168C6.10677 14.1904 7.15598 14.625 8.25 14.625H18.2812L15.7013 12.0459C15.5966 11.9413 15.5136 11.8171 15.457 11.6803C15.4003 11.5436 15.3712 11.3971 15.3712 11.2491C15.3712 11.1011 15.4003 10.9545 15.457 10.8178C15.5136 10.6811 15.5966 10.5568 15.7013 10.4522C15.8059 10.3475 15.9301 10.2645 16.0669 10.2079C16.2036 10.1513 16.3501 10.1221 16.4981 10.1221C16.6461 10.1221 16.7927 10.1513 16.9294 10.2079C17.0661 10.2645 17.1904 10.3475 17.295 10.4522L21.795 14.9522C21.8999 15.0566 21.9832 15.1808 22.0401 15.3175C22.097 15.4542 22.1263 15.6008 22.1264 15.7489C22.1264 15.8969 22.0973 16.0436 22.0406 16.1803C21.9839 16.3171 21.9008 16.4414 21.7959 16.5459Z" fill="#130032"/>
</svg>
