<svg width="24" height="24" viewBox="0 0 24 24" fill="none" xmlns="http://www.w3.org/2000/svg">
<path d="M19.5 2.625H4.5C4.00272 2.625 3.52581 2.82254 3.17417 3.17417C2.82254 3.52581 2.625 4.00272 2.625 4.5V19.5C2.625 19.9973 2.82254 20.4742 3.17417 20.8258C3.52581 21.1775 4.00272 21.375 4.5 21.375H19.5C19.9973 21.375 20.4742 21.1775 20.8258 20.8258C21.1775 20.4742 21.375 19.9973 21.375 19.5V4.5C21.375 4.00272 21.1775 3.52581 20.8258 3.17417C20.4742 2.82254 19.9973 2.625 19.5 2.625ZM19.125 19.125H4.875V4.875H19.125V19.125ZM8.20406 13.5459C8.09942 13.4413 8.0164 13.3171 7.95977 13.1803C7.90314 13.0436 7.87399 12.8971 7.87399 12.7491C7.87399 12.6011 7.90314 12.4545 7.95977 12.3178C8.0164 12.1811 8.09942 12.0568 8.20406 11.9522C8.30871 11.8475 8.43294 11.7645 8.56967 11.7079C8.7064 11.6513 8.85294 11.6221 9.00094 11.6221C9.14893 11.6221 9.29548 11.6513 9.4322 11.7079C9.56893 11.7645 9.69317 11.8475 9.79781 11.9522L10.875 13.0312V8.25C10.875 7.95163 10.9935 7.66548 11.2045 7.4545C11.4155 7.24353 11.7016 7.125 12 7.125C12.2984 7.125 12.5845 7.24353 12.7955 7.4545C13.0065 7.66548 13.125 7.95163 13.125 8.25V13.0312L14.2041 11.9513C14.3087 11.8466 14.4329 11.7636 14.5697 11.707C14.7064 11.6503 14.8529 11.6212 15.0009 11.6212C15.1489 11.6212 15.2955 11.6503 15.4322 11.707C15.5689 11.7636 15.6932 11.8466 15.7978 11.9513C15.9025 12.0559 15.9855 12.1801 16.0421 12.3169C16.0987 12.4536 16.1279 12.6001 16.1279 12.7481C16.1279 12.8961 16.0987 13.0427 16.0421 13.1794C15.9855 13.3161 15.9025 13.4404 15.7978 13.545L12.7978 16.545C12.6933 16.6499 12.5691 16.7331 12.4324 16.7899C12.2956 16.8467 12.149 16.8759 12.0009 16.8759C11.8529 16.8759 11.7063 16.8467 11.5695 16.7899C11.4328 16.7331 11.3086 16.6499 11.2041 16.545L8.20406 13.5459Z" fill="#130032"/>
</svg>
