<svg width="24" height="24" viewBox="0 0 24 24" fill="none" xmlns="http://www.w3.org/2000/svg">
<path d="M20.296 5.29492L16.5938 8.99992H18.375C18.6734 8.99992 18.9596 9.11845 19.1705 9.32942C19.3815 9.5404 19.5 9.82655 19.5 10.1249C19.5 10.4233 19.3815 10.7094 19.1705 10.9204C18.9596 11.1314 18.6734 11.2499 18.375 11.2499H13.875C13.5767 11.2499 13.2905 11.1314 13.0795 10.9204C12.8686 10.7094 12.75 10.4233 12.75 10.1249V5.62492C12.75 5.32655 12.8686 5.0404 13.0795 4.82942C13.2905 4.61845 13.5767 4.49992 13.875 4.49992C14.1734 4.49992 14.4596 4.61845 14.6705 4.82942C14.8815 5.0404 15 5.32655 15 5.62492V7.40617L18.7041 3.70117C18.9154 3.48983 19.2021 3.37109 19.501 3.37109C19.7999 3.37109 20.0865 3.48983 20.2978 3.70117C20.5092 3.91251 20.6279 4.19916 20.6279 4.49804C20.6279 4.79693 20.5092 5.08358 20.2978 5.29492H20.296ZM10.125 12.7499H5.62504C5.32667 12.7499 5.04052 12.8684 4.82954 13.0794C4.61856 13.2904 4.50004 13.5766 4.50004 13.8749C4.50004 14.1733 4.61856 14.4594 4.82954 14.6704C5.04052 14.8814 5.32667 14.9999 5.62504 14.9999H7.40629L3.7041 18.704C3.49276 18.9153 3.37402 19.202 3.37402 19.5009C3.37402 19.7997 3.49276 20.0864 3.7041 20.2977C3.91544 20.5091 4.20209 20.6278 4.50097 20.6278C4.79986 20.6278 5.08651 20.5091 5.29785 20.2977L9.00004 16.5937V18.3749C9.00004 18.6733 9.11856 18.9594 9.32954 19.1704C9.54052 19.3814 9.82667 19.4999 10.125 19.4999C10.4234 19.4999 10.7096 19.3814 10.9205 19.1704C11.1315 18.9594 11.25 18.6733 11.25 18.3749V13.8749C11.25 13.5766 11.1315 13.2904 10.9205 13.0794C10.7096 12.8684 10.4234 12.7499 10.125 12.7499Z" fill="#130032"/>
</svg>
