<svg width="24" height="24" viewBox="0 0 24 24" fill="none" xmlns="http://www.w3.org/2000/svg">
<path d="M19.5 2.625H4.5C4.00272 2.625 3.52581 2.82254 3.17417 3.17417C2.82254 3.52581 2.625 4.00272 2.625 4.5V19.5C2.625 19.9973 2.82254 20.4742 3.17417 20.8258C3.52581 21.1775 4.00272 21.375 4.5 21.375H19.5C19.9973 21.375 20.4742 21.1775 20.8258 20.8258C21.1775 20.4742 21.375 19.9973 21.375 19.5V4.5C21.375 4.00272 21.1775 3.52581 20.8258 3.17417C20.4742 2.82254 19.9973 2.625 19.5 2.625ZM19.125 19.125H4.875V4.875H19.125V19.125ZM8.20406 15.7959C8.09918 15.6914 8.01597 15.5672 7.95918 15.4305C7.9024 15.2937 7.87318 15.1471 7.87318 14.9991C7.87318 14.851 7.9024 14.7044 7.95918 14.5676C8.01597 14.4309 8.09918 14.3067 8.20406 14.2022L12.2812 10.125H10.5C10.2016 10.125 9.91548 10.0065 9.7045 9.7955C9.49353 9.58452 9.375 9.29837 9.375 9C9.375 8.70163 9.49353 8.41548 9.7045 8.2045C9.91548 7.99353 10.2016 7.875 10.5 7.875H15C15.2984 7.875 15.5845 7.99353 15.7955 8.2045C16.0065 8.41548 16.125 8.70163 16.125 9V13.5C16.125 13.7984 16.0065 14.0845 15.7955 14.2955C15.5845 14.5065 15.2984 14.625 15 14.625C14.7016 14.625 14.4155 14.5065 14.2045 14.2955C13.9935 14.0845 13.875 13.7984 13.875 13.5V11.7188L9.79594 15.7987C9.69142 15.9036 9.56723 15.9868 9.43048 16.0436C9.29374 16.1004 9.14713 16.1296 8.99906 16.1296C8.851 16.1296 8.70439 16.1004 8.56764 16.0436C8.4309 15.9868 8.3067 15.9036 8.20219 15.7987L8.20406 15.7959Z" fill="#130032"/>
</svg>
