<svg width="24" height="24" viewBox="0 0 24 24" fill="none" xmlns="http://www.w3.org/2000/svg">
<path d="M12 1.875C9.99747 1.875 8.0399 2.46882 6.37486 3.58137C4.70981 4.69392 3.41206 6.27523 2.64572 8.12533C1.87939 9.97543 1.67888 12.0112 2.06955 13.9753C2.46023 15.9393 3.42454 17.7435 4.84055 19.1595C6.25656 20.5755 8.06066 21.5398 10.0247 21.9305C11.9888 22.3211 14.0246 22.1206 15.8747 21.3543C17.7248 20.5879 19.3061 19.2902 20.4186 17.6251C21.5312 15.9601 22.125 14.0025 22.125 12C22.122 9.3156 21.0543 6.74199 19.1562 4.84383C17.258 2.94567 14.6844 1.87798 12 1.875ZM12 19.875C10.4425 19.875 8.91993 19.4131 7.62489 18.5478C6.32985 17.6825 5.32049 16.4526 4.72445 15.0136C4.12841 13.5747 3.97246 11.9913 4.27632 10.4637C4.58018 8.93606 5.3302 7.53287 6.43154 6.43153C7.53288 5.3302 8.93607 4.58017 10.4637 4.27632C11.9913 3.97246 13.5747 4.12841 15.0136 4.72445C16.4526 5.32049 17.6825 6.32985 18.5478 7.62488C19.4131 8.91992 19.875 10.4425 19.875 12C19.8728 14.0879 19.0424 16.0896 17.566 17.566C16.0896 19.0424 14.0879 19.8728 12 19.875ZM16.125 10.5V15C16.125 15.2984 16.0065 15.5845 15.7955 15.7955C15.5845 16.0065 15.2984 16.125 15 16.125H10.5C10.2016 16.125 9.91549 16.0065 9.70451 15.7955C9.49353 15.5845 9.375 15.2984 9.375 15C9.375 14.7016 9.49353 14.4155 9.70451 14.2045C9.91549 13.9935 10.2016 13.875 10.5 13.875H12.2813L8.20407 9.79594C8.09942 9.69129 8.01641 9.56706 7.95977 9.43033C7.90314 9.2936 7.87399 9.14706 7.87399 8.99906C7.87399 8.70018 7.99272 8.41353 8.20407 8.20219C8.41541 7.99084 8.70206 7.87211 9.00094 7.87211C9.29983 7.87211 9.58647 7.99084 9.79782 8.20219L13.875 12.2812V10.5C13.875 10.2016 13.9935 9.91548 14.2045 9.7045C14.4155 9.49353 14.7016 9.375 15 9.375C15.2984 9.375 15.5845 9.49353 15.7955 9.7045C16.0065 9.91548 16.125 10.2016 16.125 10.5Z" fill="#130032"/>
</svg>
