<svg width="24" height="24" viewBox="0 0 24 24" fill="none" xmlns="http://www.w3.org/2000/svg">
<path d="M21.0459 8.29573C20.9414 8.40061 20.8172 8.48383 20.6805 8.54061C20.5437 8.59739 20.3971 8.62662 20.2491 8.62662C20.101 8.62662 19.9544 8.59739 19.8176 8.54061C19.6809 8.48383 19.5567 8.40061 19.4522 8.29573L16.875 5.71854V15.7498C16.875 17.4405 16.2034 19.0621 15.0078 20.2576C13.8123 21.4531 12.1908 22.1248 10.5 22.1248C8.80925 22.1248 7.18774 21.4531 5.99219 20.2576C4.79665 19.0621 4.125 17.4405 4.125 15.7498V7.49979C4.125 7.20143 4.24353 6.91528 4.4545 6.7043C4.66548 6.49332 4.95163 6.37479 5.25 6.37479C5.54837 6.37479 5.83452 6.49332 6.0455 6.7043C6.25647 6.91528 6.375 7.20143 6.375 7.49979V15.7498C6.375 16.8438 6.8096 17.893 7.58318 18.6666C8.35677 19.4402 9.40598 19.8748 10.5 19.8748C11.594 19.8748 12.6432 19.4402 13.4168 18.6666C14.1904 17.893 14.625 16.8438 14.625 15.7498V5.71854L12.0459 8.29573C11.9413 8.40038 11.8171 8.48339 11.6803 8.54002C11.5436 8.59666 11.3971 8.62581 11.2491 8.62581C11.1011 8.62581 10.9545 8.59666 10.8178 8.54002C10.6811 8.48339 10.5568 8.40038 10.4522 8.29573C10.3475 8.19108 10.2645 8.06685 10.2079 7.93012C10.1513 7.79339 10.1221 7.64685 10.1221 7.49886C10.1221 7.35086 10.1513 7.20432 10.2079 7.06759C10.2645 6.93086 10.3475 6.80663 10.4522 6.70198L14.9522 2.20198C15.0567 2.0971 15.1809 2.01388 15.3176 1.9571C15.4544 1.90032 15.601 1.87109 15.7491 1.87109C15.8971 1.87109 16.0437 1.90032 16.1805 1.9571C16.3172 2.01388 16.4414 2.0971 16.5459 2.20198L21.0459 6.70198C21.1508 6.8065 21.234 6.93069 21.2908 7.06744C21.3476 7.20418 21.3768 7.35079 21.3768 7.49886C21.3768 7.64692 21.3476 7.79353 21.2908 7.93028C21.234 8.06702 21.1508 8.19122 21.0459 8.29573Z" fill="#130032"/>
</svg>
