<svg width="24" height="24" viewBox="0 0 24 24" fill="none" xmlns="http://www.w3.org/2000/svg">
<path d="M19.125 8.24992V17.9999C19.125 18.2983 19.0065 18.5844 18.7955 18.7954C18.5846 19.0064 18.2984 19.1249 18 19.1249H8.25004C7.95167 19.1249 7.66552 19.0064 7.45454 18.7954C7.24356 18.5844 7.12504 18.2983 7.12504 17.9999C7.12504 17.7016 7.24356 17.4154 7.45454 17.2044C7.66552 16.9934 7.95167 16.8749 8.25004 16.8749H15.2813L5.2041 6.79492C5.09945 6.69027 5.01644 6.56604 4.95981 6.42931C4.90317 6.29258 4.87402 6.14604 4.87402 5.99804C4.87402 5.69916 4.99276 5.41251 5.2041 5.20117C5.41544 4.98983 5.70209 4.87109 6.00098 4.87109C6.29986 4.87109 6.58651 4.98983 6.79785 5.20117L16.875 15.2812V8.24992C16.875 7.95155 16.9936 7.6654 17.2045 7.45442C17.4155 7.24345 17.7017 7.12492 18 7.12492C18.2984 7.12492 18.5846 7.24345 18.7955 7.45442C19.0065 7.6654 19.125 7.95155 19.125 8.24992Z" fill="#130032"/>
</svg>
