<svg width="24" height="24" viewBox="0 0 24 24" fill="none" xmlns="http://www.w3.org/2000/svg">
<path d="M12 1.875C9.99747 1.875 8.0399 2.46882 6.37486 3.58137C4.70981 4.69392 3.41206 6.27523 2.64572 8.12533C1.87939 9.97543 1.67888 12.0112 2.06955 13.9753C2.46023 15.9393 3.42454 17.7435 4.84055 19.1595C6.25656 20.5755 8.06066 21.5398 10.0247 21.9305C11.9888 22.3211 14.0246 22.1206 15.8747 21.3543C17.7248 20.5879 19.3061 19.2902 20.4186 17.6251C21.5312 15.9601 22.125 14.0025 22.125 12C22.122 9.3156 21.0543 6.74199 19.1562 4.84383C17.258 2.94567 14.6844 1.87798 12 1.875ZM12 19.875C10.4425 19.875 8.91993 19.4131 7.62489 18.5478C6.32985 17.6825 5.32049 16.4526 4.72445 15.0136C4.12841 13.5747 3.97246 11.9913 4.27632 10.4637C4.58018 8.93606 5.3302 7.53287 6.43154 6.43153C7.53288 5.3302 8.93607 4.58017 10.4637 4.27632C11.9913 3.97246 13.5747 4.12841 15.0136 4.72445C16.4526 5.32049 17.6825 6.32985 18.5478 7.62488C19.4131 8.91992 19.875 10.4425 19.875 12C19.8728 14.0879 19.0424 16.0896 17.566 17.566C16.0896 19.0424 14.0879 19.8728 12 19.875ZM15.7959 8.20406C15.9008 8.30858 15.984 8.43277 16.0408 8.56952C16.0976 8.70626 16.1268 8.85287 16.1268 9.00094C16.1268 9.149 16.0976 9.29561 16.0408 9.43236C15.984 9.5691 15.9008 9.6933 15.7959 9.79781L11.7188 13.875H13.5C13.7984 13.875 14.0845 13.9935 14.2955 14.2045C14.5065 14.4155 14.625 14.7016 14.625 15C14.625 15.2984 14.5065 15.5845 14.2955 15.7955C14.0845 16.0065 13.7984 16.125 13.5 16.125H9C8.70164 16.125 8.41549 16.0065 8.20451 15.7955C7.99353 15.5845 7.875 15.2984 7.875 15V10.5C7.875 10.2016 7.99353 9.91548 8.20451 9.7045C8.41549 9.49353 8.70164 9.375 9 9.375C9.29837 9.375 9.58452 9.49353 9.7955 9.7045C10.0065 9.91548 10.125 10.2016 10.125 10.5V12.2812L14.2041 8.20125C14.3087 8.09684 14.433 8.01408 14.5696 7.9577C14.7063 7.90133 14.8527 7.87245 15.0006 7.87271C15.1484 7.87297 15.2948 7.90237 15.4312 7.95922C15.5677 8.01608 15.6916 8.09928 15.7959 8.20406Z" fill="#130032"/>
</svg>
