<svg width="24" height="24" viewBox="0 0 24 24" fill="none" xmlns="http://www.w3.org/2000/svg">
<path d="M8.20397 6.04573C8.09909 5.94121 8.01588 5.81702 7.9591 5.68028C7.90231 5.54353 7.87309 5.39692 7.87309 5.24886C7.87309 5.10079 7.90231 4.95418 7.9591 4.81743C8.01588 4.68069 8.09909 4.5565 8.20397 4.45198L11.204 1.45198C11.3085 1.3471 11.4327 1.26388 11.5694 1.2071C11.7062 1.15032 11.8528 1.12109 12.0008 1.12109C12.1489 1.12109 12.2955 1.15032 12.4323 1.2071C12.569 1.26388 12.6932 1.3471 12.7977 1.45198L15.7977 4.45198C16.0091 4.66333 16.1278 4.94997 16.1278 5.24886C16.1278 5.54774 16.0091 5.83439 15.7977 6.04573C15.5864 6.25707 15.2997 6.37581 15.0008 6.37581C14.702 6.37581 14.4153 6.25707 14.204 6.04573L13.1249 4.96854V8.99979C13.1249 9.29816 13.0064 9.58431 12.7954 9.79529C12.5844 10.0063 12.2983 10.1248 11.9999 10.1248C11.7015 10.1248 11.4154 10.0063 11.2044 9.79529C10.9934 9.58431 10.8749 9.29816 10.8749 8.99979V4.96854L9.79585 6.04573C9.69137 6.15033 9.56729 6.23331 9.43072 6.28992C9.29415 6.34654 9.14775 6.37568 8.99991 6.37568C8.85207 6.37568 8.70568 6.34654 8.5691 6.28992C8.43253 6.23331 8.30846 6.15033 8.20397 6.04573ZM14.204 17.952L13.1249 19.031V14.9998C13.1249 14.7014 13.0064 14.4153 12.7954 14.2043C12.5844 13.9933 12.2983 13.8748 11.9999 13.8748C11.7015 13.8748 11.4154 13.9933 11.2044 14.2043C10.9934 14.4153 10.8749 14.7014 10.8749 14.9998V19.031L9.79585 17.951C9.6912 17.8464 9.56697 17.7634 9.43024 17.7068C9.29351 17.6501 9.14697 17.621 8.99897 17.621C8.85098 17.621 8.70443 17.6501 8.56771 17.7068C8.43098 17.7634 8.30674 17.8464 8.2021 17.951C8.09745 18.0557 8.01444 18.1799 7.95781 18.3167C7.90117 18.4534 7.87202 18.5999 7.87202 18.7479C7.87202 18.8959 7.90117 19.0425 7.95781 19.1792C8.01444 19.3159 8.09745 19.4401 8.2021 19.5448L11.2021 22.5448C11.3066 22.6497 11.4308 22.7329 11.5676 22.7897C11.7043 22.8464 11.8509 22.8757 11.999 22.8757C12.147 22.8757 12.2936 22.8464 12.4304 22.7897C12.5671 22.7329 12.6913 22.6497 12.7958 22.5448L15.7958 19.5448C16.0072 19.3334 16.1259 19.0468 16.1259 18.7479C16.1259 18.449 16.0072 18.1624 15.7958 17.951C15.5845 17.7397 15.2979 17.621 14.999 17.621C14.7001 17.621 14.4134 17.7397 14.2021 17.951L14.204 17.952ZM22.5477 11.202L19.5477 8.20198C19.3364 7.99064 19.0497 7.8719 18.7508 7.8719C18.452 7.8719 18.1653 7.99064 17.954 8.20198C17.7426 8.41332 17.6239 8.69997 17.6239 8.99886C17.6239 9.29774 17.7426 9.58439 17.954 9.79573L19.0312 10.8748H14.9999C14.7015 10.8748 14.4154 10.9933 14.2044 11.2043C13.9934 11.4153 13.8749 11.7014 13.8749 11.9998C13.8749 12.2982 13.9934 12.5843 14.2044 12.7953C14.4154 13.0063 14.7015 13.1248 14.9999 13.1248H19.0312L17.9512 14.2039C17.7398 14.4152 17.6211 14.7018 17.6211 15.0007C17.6211 15.2996 17.7398 15.5863 17.9512 15.7976C18.1625 16.0089 18.4491 16.1277 18.748 16.1277C19.0469 16.1277 19.3336 16.0089 19.5449 15.7976L22.5449 12.7976C22.6499 12.6931 22.7331 12.569 22.79 12.4323C22.8469 12.2956 22.8762 12.149 22.8763 12.0009C22.8764 11.8529 22.8472 11.7062 22.7905 11.5695C22.7338 11.4327 22.6507 11.3084 22.5458 11.2039L22.5477 11.202ZM4.96866 13.1248H8.99991C9.29828 13.1248 9.58443 13.0063 9.79541 12.7953C10.0064 12.5843 10.1249 12.2982 10.1249 11.9998C10.1249 11.7014 10.0064 11.4153 9.79541 11.2043C9.58443 10.9933 9.29828 10.8748 8.99991 10.8748H4.96866L6.04866 9.79573C6.26 9.58439 6.37874 9.29774 6.37874 8.99886C6.37874 8.69997 6.26 8.41332 6.04866 8.20198C5.83732 7.99064 5.55067 7.8719 5.25179 7.8719C4.9529 7.8719 4.66626 7.99064 4.45491 8.20198L1.45491 11.202C1.35003 11.3065 1.26681 11.4307 1.21003 11.5674C1.15325 11.7042 1.12402 11.8508 1.12402 11.9989C1.12402 12.1469 1.15325 12.2935 1.21003 12.4303C1.26681 12.567 1.35003 12.6912 1.45491 12.7957L4.45491 15.7957C4.55956 15.9004 4.68379 15.9834 4.82052 16.04C4.95725 16.0967 5.10379 16.1258 5.25179 16.1258C5.39978 16.1258 5.54632 16.0967 5.68305 16.04C5.81978 15.9834 5.94401 15.9004 6.04866 15.7957C6.15331 15.6911 6.23632 15.5668 6.29295 15.4301C6.34959 15.2934 6.37874 15.1468 6.37874 14.9989C6.37874 14.8509 6.34959 14.7043 6.29295 14.5676C6.23632 14.4309 6.15331 14.3066 6.04866 14.202L4.96866 13.1248Z" fill="#130032"/>
</svg>
