<svg width="24" height="24" viewBox="0 0 24 24" fill="none" xmlns="http://www.w3.org/2000/svg">
<path d="M12 1.875C9.99747 1.875 8.0399 2.46882 6.37486 3.58137C4.70981 4.69392 3.41206 6.27523 2.64572 8.12533C1.87939 9.97543 1.67888 12.0112 2.06955 13.9753C2.46023 15.9393 3.42454 17.7435 4.84055 19.1595C6.25656 20.5755 8.06066 21.5398 10.0247 21.9305C11.9888 22.3211 14.0246 22.1206 15.8747 21.3543C17.7248 20.5879 19.3061 19.2902 20.4186 17.6251C21.5312 15.9601 22.125 14.0025 22.125 12C22.122 9.3156 21.0543 6.74199 19.1562 4.84383C17.258 2.94567 14.6844 1.87798 12 1.875ZM12 19.875C10.4425 19.875 8.91993 19.4131 7.62489 18.5478C6.32985 17.6825 5.32049 16.4526 4.72445 15.0136C4.12841 13.5747 3.97246 11.9913 4.27632 10.4637C4.58018 8.93606 5.3302 7.53287 6.43154 6.43153C7.53288 5.3302 8.93607 4.58017 10.4637 4.27632C11.9913 3.97246 13.5747 4.12841 15.0136 4.72445C16.4526 5.32049 17.6825 6.32985 18.5478 7.62488C19.4131 8.91992 19.875 10.4425 19.875 12C19.8728 14.0879 19.0424 16.0896 17.566 17.566C16.0896 19.0424 14.0879 19.8728 12 19.875ZM15.7959 14.2041C16.0073 14.4154 16.126 14.7021 16.126 15.0009C16.126 15.2998 16.0073 15.5865 15.7959 15.7978C15.5846 16.0092 15.298 16.1279 14.9991 16.1279C14.7002 16.1279 14.4135 16.0092 14.2022 15.7978L10.125 11.7188V13.5C10.125 13.7984 10.0065 14.0845 9.7955 14.2955C9.58452 14.5065 9.29837 14.625 9 14.625C8.70164 14.625 8.41549 14.5065 8.20451 14.2955C7.99353 14.0845 7.875 13.7984 7.875 13.5V9C7.875 8.70163 7.99353 8.41548 8.20451 8.2045C8.41549 7.99353 8.70164 7.875 9 7.875H13.5C13.7984 7.875 14.0845 7.99353 14.2955 8.2045C14.5065 8.41548 14.625 8.70163 14.625 9C14.625 9.29837 14.5065 9.58452 14.2955 9.7955C14.0845 10.0065 13.7984 10.125 13.5 10.125H11.7188L15.7959 14.2041Z" fill="#130032"/>
</svg>
