<svg width="24" height="24" viewBox="0 0 24 24" fill="none" xmlns="http://www.w3.org/2000/svg">
<path d="M11.2959 15.7039C11.4008 15.8084 11.484 15.9326 11.5408 16.0694C11.5976 16.2061 11.6268 16.3527 11.6268 16.5008C11.6268 16.6489 11.5976 16.7955 11.5408 16.9322C11.484 17.069 11.4008 17.1932 11.2959 17.2977L8.2959 20.2977C8.19138 20.4026 8.06719 20.4858 7.93044 20.5426C7.7937 20.5993 7.64709 20.6286 7.49902 20.6286C7.35096 20.6286 7.20435 20.5993 7.0676 20.5426C6.93086 20.4858 6.80666 20.4026 6.70215 20.2977L3.70215 17.2977C3.5975 17.193 3.51449 17.0688 3.45785 16.9321C3.40122 16.7953 3.37207 16.6488 3.37207 16.5008C3.37207 16.3528 3.40122 16.2063 3.45785 16.0695C3.51449 15.9328 3.5975 15.8086 3.70215 15.7039C3.80679 15.5993 3.93103 15.5163 4.06776 15.4596C4.20448 15.403 4.35103 15.3739 4.49902 15.3739C4.64702 15.3739 4.79356 15.403 4.93029 15.4596C5.06702 15.5163 5.19125 15.5993 5.2959 15.7039L6.37496 16.7811V4.49987C6.37496 4.2015 6.49349 3.91535 6.70446 3.70438C6.91544 3.4934 7.20159 3.37487 7.49996 3.37487C7.79833 3.37487 8.08448 3.4934 8.29545 3.70438C8.50643 3.91535 8.62496 4.2015 8.62496 4.49987V16.7811L9.70402 15.7011C9.80869 15.5967 9.93291 15.5139 10.0696 15.4576C10.2063 15.4012 10.3527 15.3723 10.5005 15.3726C10.6484 15.3728 10.7947 15.4022 10.9312 15.4591C11.0677 15.516 11.1916 15.5991 11.2959 15.7039ZM20.2959 6.70393L17.2959 3.70393C17.1914 3.59905 17.0672 3.51584 16.9304 3.45906C16.7937 3.40228 16.6471 3.37305 16.499 3.37305C16.351 3.37305 16.2043 3.40228 16.0676 3.45906C15.9309 3.51584 15.8067 3.59905 15.7021 3.70393L12.7021 6.70393C12.4908 6.91528 12.3721 7.20192 12.3721 7.50081C12.3721 7.7997 12.4908 8.08634 12.7021 8.29768C12.9135 8.50903 13.2001 8.62776 13.499 8.62776C13.7979 8.62776 14.0846 8.50903 14.2959 8.29768L15.375 7.21862V19.4999C15.375 19.7982 15.4935 20.0844 15.7045 20.2954C15.9154 20.5063 16.2016 20.6249 16.5 20.6249C16.7983 20.6249 17.0845 20.5063 17.2955 20.2954C17.5064 20.0844 17.625 19.7982 17.625 19.4999V7.21862L18.704 8.29862C18.9154 8.50996 19.202 8.6287 19.5009 8.6287C19.7998 8.6287 20.0864 8.50996 20.2978 8.29862C20.5091 8.08728 20.6278 7.80063 20.6278 7.50175C20.6278 7.20286 20.5091 6.91622 20.2978 6.70487L20.2959 6.70393Z" fill="#130032"/>
</svg>
