<svg width="24" height="24" viewBox="0 0 24 24" fill="none" xmlns="http://www.w3.org/2000/svg">
<path d="M20.2957 17.2969L17.2957 20.2969C17.0844 20.5082 16.7977 20.6269 16.4989 20.6269C16.2 20.6269 15.9133 20.5082 15.702 20.2969C15.4906 20.0855 15.3719 19.7989 15.3719 19.5C15.3719 19.2011 15.4906 18.9145 15.702 18.7031L16.781 17.6259H4.49979C4.20142 17.6259 3.91528 17.5074 3.7043 17.2964C3.49332 17.0855 3.37479 16.7993 3.37479 16.5009C3.37479 16.2026 3.49332 15.9164 3.7043 15.7054C3.91528 15.4945 4.20142 15.3759 4.49979 15.3759H16.781L15.701 14.2969C15.4897 14.0855 15.371 13.7989 15.371 13.5C15.371 13.2011 15.4897 12.9145 15.701 12.7031C15.9124 12.4918 16.199 12.373 16.4979 12.373C16.7968 12.373 17.0834 12.4918 17.2948 12.7031L20.2948 15.7031C20.3997 15.8076 20.483 15.9317 20.5399 16.0684C20.5967 16.2051 20.6261 16.3517 20.6261 16.4998C20.6262 16.6479 20.5971 16.7945 20.5404 16.9313C20.4837 17.0681 20.4005 17.1923 20.2957 17.2969ZM6.70198 11.2969C6.91332 11.5082 7.19997 11.627 7.49886 11.627C7.79774 11.627 8.08439 11.5082 8.29573 11.2969C8.50707 11.0855 8.62581 10.7989 8.62581 10.5C8.62581 10.2011 8.50707 9.91447 8.29573 9.70312L7.21854 8.62594H19.4998C19.7982 8.62594 20.0843 8.50741 20.2953 8.29643C20.5063 8.08545 20.6248 7.7993 20.6248 7.50094C20.6248 7.20257 20.5063 6.91642 20.2953 6.70544C20.0843 6.49446 19.7982 6.37594 19.4998 6.37594H7.21854L8.29573 5.29687C8.50707 5.08553 8.62581 4.79888 8.62581 4.5C8.62581 4.20111 8.50707 3.91447 8.29573 3.70312C8.08439 3.49178 7.79774 3.37305 7.49886 3.37305C7.19997 3.37305 6.91332 3.49178 6.70198 3.70312L3.70198 6.70312C3.5971 6.80764 3.51388 6.93183 3.4571 7.06858C3.40032 7.20532 3.37109 7.35193 3.37109 7.5C3.37109 7.64806 3.40032 7.79467 3.4571 7.93142C3.51388 8.06816 3.5971 8.19236 3.70198 8.29687L6.70198 11.2969Z" fill="#130032"/>
</svg>
