<svg width="24" height="24" viewBox="0 0 24 24" fill="none" xmlns="http://www.w3.org/2000/svg">
<path d="M18.375 3.75V9.75C18.3751 9.89778 18.3461 10.0441 18.2897 10.1807C18.2332 10.3173 18.1504 10.4414 18.0459 10.5459L13.125 15.4688V19.0312L14.2041 17.9513C14.4154 17.7399 14.7021 17.6212 15.0009 17.6212C15.2998 17.6212 15.5865 17.7399 15.7978 17.9513C16.0092 18.1626 16.1279 18.4492 16.1279 18.7481C16.1279 19.047 16.0092 19.3337 15.7978 19.545L12.7978 22.545C12.6933 22.6499 12.5691 22.7331 12.4324 22.7899C12.2956 22.8467 12.149 22.8759 12.0009 22.8759C11.8529 22.8759 11.7063 22.8467 11.5695 22.7899C11.4328 22.7331 11.3086 22.6499 11.2041 22.545L8.20406 19.545C8.09942 19.4404 8.0164 19.3161 7.95977 19.1794C7.90314 19.0427 7.87399 18.8961 7.87399 18.7481C7.87399 18.6001 7.90314 18.4536 7.95977 18.3169C8.0164 18.1801 8.09942 18.0559 8.20406 17.9513C8.30871 17.8466 8.43294 17.7636 8.56967 17.707C8.7064 17.6503 8.85294 17.6212 9.00094 17.6212C9.14893 17.6212 9.29548 17.6503 9.4322 17.707C9.56893 17.7636 9.69317 17.8466 9.79781 17.9513L10.875 19.0312V15.4688L5.95406 10.5459C5.84962 10.4414 5.76681 10.3173 5.71035 10.1807C5.65389 10.0441 5.62488 9.89778 5.625 9.75V3.75C5.625 3.45163 5.74353 3.16548 5.95451 2.9545C6.16548 2.74353 6.45163 2.625 6.75 2.625C7.04837 2.625 7.33452 2.74353 7.5455 2.9545C7.75647 3.16548 7.875 3.45163 7.875 3.75V9.28125L12 13.4062L16.125 9.28125V3.75C16.125 3.45163 16.2435 3.16548 16.4545 2.9545C16.6655 2.74353 16.9516 2.625 17.25 2.625C17.5484 2.625 17.8345 2.74353 18.0455 2.9545C18.2565 3.16548 18.375 3.45163 18.375 3.75Z" fill="#130032"/>
</svg>
