<svg width="24" height="24" viewBox="0 0 24 24" fill="none" xmlns="http://www.w3.org/2000/svg">
<path d="M8.29573 13.454C8.50708 13.6653 8.62581 13.952 8.62581 14.2509C8.62581 14.5497 8.50708 14.8364 8.29573 15.0477C8.08439 15.2591 7.79774 15.3778 7.49886 15.3778C7.19997 15.3778 6.91333 15.2591 6.70198 15.0477L2.20198 10.5477C2.0971 10.4432 2.01388 10.319 1.9571 10.1823C1.90032 10.0455 1.87109 9.89892 1.87109 9.75086C1.87109 9.60279 1.90032 9.45618 1.9571 9.31944C2.01388 9.18269 2.0971 9.0585 2.20198 8.95398L6.70198 4.45398C6.91333 4.24264 7.19997 4.12391 7.49886 4.12391C7.79774 4.12391 8.08439 4.24264 8.29573 4.45398C8.50708 4.66533 8.62581 4.95197 8.62581 5.25086C8.62581 5.54974 8.50708 5.83639 8.29573 6.04773L4.59354 9.74992L8.29573 13.454ZM11.9998 8.62492H10.9685L13.5485 6.04492C13.6532 5.94027 13.7362 5.81604 13.7928 5.67931C13.8495 5.54258 13.8786 5.39604 13.8786 5.24804C13.8786 5.10005 13.8495 4.95351 13.7928 4.81678C13.7362 4.68005 13.6532 4.55582 13.5485 4.45117C13.4439 4.34652 13.3197 4.26351 13.1829 4.20688C13.0462 4.15024 12.8997 4.12109 12.7517 4.12109C12.4528 4.12109 12.1661 4.23983 11.9548 4.45117L7.45479 8.95117C7.34991 9.05569 7.2667 9.17988 7.20992 9.31662C7.15314 9.45337 7.12391 9.59998 7.12391 9.74805C7.12391 9.89611 7.15314 10.0427 7.20992 10.1795C7.2667 10.3162 7.34991 10.4404 7.45479 10.5449L11.9548 15.0449C12.1661 15.2563 12.4528 15.375 12.7517 15.375C13.0506 15.375 13.3372 15.2563 13.5485 15.0449C13.7599 14.8336 13.8786 14.5469 13.8786 14.248C13.8786 13.9492 13.7599 13.6625 13.5485 13.4512L10.9685 10.8749H11.9998C14.0877 10.8772 16.0894 11.7076 17.5658 13.1839C19.0422 14.6603 19.8726 16.662 19.8748 18.7499C19.8748 19.0483 19.9933 19.3344 20.2043 19.5454C20.4153 19.7564 20.7014 19.8749 20.9998 19.8749C21.2982 19.8749 21.5843 19.7564 21.7953 19.5454C22.0063 19.3344 22.1248 19.0483 22.1248 18.7499C22.1218 16.0655 21.0541 13.4919 19.156 11.5938C17.2578 9.69559 14.6842 8.6279 11.9998 8.62492Z" fill="#130032"/>
</svg>
