<svg width="24" height="24" viewBox="0 0 24 24" fill="none" xmlns="http://www.w3.org/2000/svg">
<path d="M8.20406 6.79594C7.99272 6.58459 7.87399 6.29795 7.87399 5.99906C7.87399 5.70018 7.99272 5.41353 8.20406 5.20219C8.41541 4.99084 8.70205 4.87211 9.00094 4.87211C9.29982 4.87211 9.58647 4.99084 9.79781 5.20219L10.875 6.28125V2.25C10.875 1.95163 10.9935 1.66548 11.2045 1.4545C11.4155 1.24353 11.7016 1.125 12 1.125C12.2984 1.125 12.5845 1.24353 12.7955 1.4545C13.0065 1.66548 13.125 1.95163 13.125 2.25V6.28125L14.2041 5.20125C14.4154 4.98991 14.7021 4.87117 15.0009 4.87117C15.2998 4.87117 15.5865 4.98991 15.7978 5.20125C16.0092 5.41259 16.1279 5.69924 16.1279 5.99813C16.1279 6.29701 16.0092 6.58366 15.7978 6.795L12.7978 9.795C12.6933 9.89988 12.5691 9.9831 12.4324 10.0399C12.2956 10.0967 12.149 10.1259 12.0009 10.1259C11.8529 10.1259 11.7063 10.0967 11.5695 10.0399C11.4328 9.9831 11.3086 9.89988 11.2041 9.795L8.20406 6.79594ZM12.7978 14.2022C12.6933 14.0973 12.5691 14.0141 12.4324 13.9573C12.2956 13.9005 12.149 13.8713 12.0009 13.8713C11.8529 13.8713 11.7063 13.9005 11.5695 13.9573C11.4328 14.0141 11.3086 14.0973 11.2041 14.2022L8.20406 17.2022C8.09942 17.3068 8.0164 17.4311 7.95977 17.5678C7.90314 17.7045 7.87399 17.8511 7.87399 17.9991C7.87399 18.2979 7.99272 18.5846 8.20406 18.7959C8.41541 19.0073 8.70205 19.126 9.00094 19.126C9.29982 19.126 9.58647 19.0073 9.79781 18.7959L10.875 17.7188V21.75C10.875 22.0484 10.9935 22.3345 11.2045 22.5455C11.4155 22.7565 11.7016 22.875 12 22.875C12.2984 22.875 12.5845 22.7565 12.7955 22.5455C13.0065 22.3345 13.125 22.0484 13.125 21.75V17.7188L14.2041 18.7987C14.4154 19.0101 14.7021 19.1288 15.0009 19.1288C15.2998 19.1288 15.5865 19.0101 15.7978 18.7987C16.0092 18.5874 16.1279 18.3008 16.1279 18.0019C16.1279 17.703 16.0092 17.4163 15.7978 17.205L12.7978 14.2022ZM21.75 10.875H17.7188L18.7987 9.79594C19.0101 9.58459 19.1288 9.29795 19.1288 8.99906C19.1288 8.70018 19.0101 8.41353 18.7987 8.20219C18.5874 7.99084 18.3008 7.87211 18.0019 7.87211C17.703 7.87211 17.4163 7.99084 17.205 8.20219L14.205 11.2022C14.1001 11.3067 14.0169 11.4309 13.9601 11.5676C13.9033 11.7044 13.8741 11.851 13.8741 11.9991C13.8741 12.1471 13.9033 12.2937 13.9601 12.4305C14.0169 12.5672 14.1001 12.6914 14.205 12.7959L17.205 15.7959C17.4163 16.0073 17.703 16.126 18.0019 16.126C18.3008 16.126 18.5874 16.0073 18.7987 15.7959C19.0101 15.5846 19.1288 15.2979 19.1288 14.9991C19.1288 14.7002 19.0101 14.4135 18.7987 14.2022L17.7188 13.125H21.75C22.0484 13.125 22.3345 13.0065 22.5455 12.7955C22.7565 12.5845 22.875 12.2984 22.875 12C22.875 11.7016 22.7565 11.4155 22.5455 11.2045C22.3345 10.9935 22.0484 10.875 21.75 10.875ZM9.79594 11.2041L6.79594 8.20406C6.58459 7.99272 6.29795 7.87399 5.99906 7.87399C5.70018 7.87399 5.41353 7.99272 5.20219 8.20406C4.99084 8.41541 4.87211 8.70205 4.87211 9.00094C4.87211 9.29982 4.99084 9.58647 5.20219 9.79781L6.28125 10.875H2.25C1.95163 10.875 1.66548 10.9935 1.4545 11.2045C1.24353 11.4155 1.125 11.7016 1.125 12C1.125 12.2984 1.24353 12.5845 1.4545 12.7955C1.66548 13.0065 1.95163 13.125 2.25 13.125H6.28125L5.20406 14.2041C5.09942 14.3087 5.0164 14.4329 4.95977 14.5697C4.90314 14.7064 4.87399 14.8529 4.87399 15.0009C4.87399 15.2998 4.99272 15.5865 5.20406 15.7978C5.41541 16.0092 5.70205 16.1279 6.00094 16.1279C6.29982 16.1279 6.58647 16.0092 6.79781 15.7978L9.79781 12.7978C9.90257 12.6932 9.98564 12.5689 10.0423 12.4321C10.0989 12.2953 10.1279 12.1486 10.1278 12.0005C10.1276 11.8525 10.0982 11.7059 10.0412 11.5692C9.9843 11.4325 9.90094 11.3085 9.79594 11.2041Z" fill="#130032"/>
</svg>
