<svg width="24" height="24" viewBox="0 0 24 24" fill="none" xmlns="http://www.w3.org/2000/svg">
<path d="M13.1249 3.75V20.25C13.1249 20.5484 13.0064 20.8345 12.7954 21.0455C12.5844 21.2565 12.2983 21.375 11.9999 21.375C11.7015 21.375 11.4154 21.2565 11.2044 21.0455C10.9934 20.8345 10.8749 20.5484 10.8749 20.25V3.75C10.8749 3.45163 10.9934 3.16548 11.2044 2.9545C11.4154 2.74353 11.7015 2.625 11.9999 2.625C12.2983 2.625 12.5844 2.74353 12.7954 2.9545C13.0064 3.16548 13.1249 3.45163 13.1249 3.75ZM8.24991 10.875H4.21866L5.29866 9.79594C5.51 9.58459 5.62874 9.29795 5.62874 8.99906C5.62874 8.70018 5.51 8.41353 5.29866 8.20219C5.08732 7.99084 4.80067 7.87211 4.50179 7.87211C4.2029 7.87211 3.91626 7.99084 3.70491 8.20219L0.704911 11.2022C0.600031 11.3067 0.516814 11.4309 0.460033 11.5676C0.403252 11.7044 0.374023 11.851 0.374023 11.9991C0.374023 12.1471 0.403252 12.2937 0.460033 12.4305C0.516814 12.5672 0.600031 12.6914 0.704911 12.7959L3.70491 15.7959C3.91626 16.0073 4.2029 16.126 4.50179 16.126C4.80067 16.126 5.08732 16.0073 5.29866 15.7959C5.51 15.5846 5.62874 15.2979 5.62874 14.9991C5.62874 14.7002 5.51 14.4135 5.29866 14.2022L4.21866 13.125H8.24991C8.54828 13.125 8.83443 13.0065 9.04541 12.7955C9.25638 12.5845 9.37491 12.2984 9.37491 12C9.37491 11.7016 9.25638 11.4155 9.04541 11.2045C8.83443 10.9935 8.54828 10.875 8.24991 10.875ZM23.2958 11.2041L20.2958 8.20406C20.0845 7.99272 19.7979 7.87399 19.499 7.87399C19.2001 7.87399 18.9134 7.99272 18.7021 8.20406C18.4908 8.41541 18.372 8.70205 18.372 9.00094C18.372 9.29982 18.4908 9.58647 18.7021 9.79781L19.7812 10.875H15.7499C15.4515 10.875 15.1654 10.9935 14.9544 11.2045C14.7434 11.4155 14.6249 11.7016 14.6249 12C14.6249 12.2984 14.7434 12.5845 14.9544 12.7955C15.1654 13.0065 15.4515 13.125 15.7499 13.125H19.7812L18.7012 14.2041C18.4898 14.4154 18.3711 14.7021 18.3711 15.0009C18.3711 15.2998 18.4898 15.5865 18.7012 15.7978C18.9125 16.0092 19.1991 16.1279 19.498 16.1279C19.7969 16.1279 20.0836 16.0092 20.2949 15.7978L23.2949 12.7978C23.3999 12.6934 23.4831 12.5692 23.54 12.4325C23.5969 12.2958 23.6262 12.1492 23.6263 12.0011C23.6264 11.8531 23.5972 11.7064 23.5405 11.5697C23.4838 11.4329 23.4007 11.3086 23.2958 11.2041Z" fill="#130032"/>
</svg>
