<svg width="24" height="24" viewBox="0 0 24 24" fill="none" xmlns="http://www.w3.org/2000/svg">
<path d="M21.796 18.0459L18.796 21.0459C18.6915 21.1508 18.5673 21.234 18.4305 21.2908C18.2938 21.3476 18.1472 21.3768 17.9991 21.3768C17.851 21.3768 17.7044 21.3476 17.5677 21.2908C17.4309 21.234 17.3067 21.1508 17.2022 21.0459L14.2022 18.0459C13.9909 17.8346 13.8721 17.5479 13.8721 17.2491C13.8721 16.9502 13.9909 16.6635 14.2022 16.4522C14.4136 16.2408 14.7002 16.1221 14.9991 16.1221C15.298 16.1221 15.5846 16.2408 15.796 16.4522L16.875 17.5312V13.2188L12 8.34375L7.12504 13.2188V17.5312L8.2041 16.4513C8.41544 16.2399 8.70209 16.1212 9.00097 16.1212C9.29986 16.1212 9.58651 16.2399 9.79785 16.4513C10.0092 16.6626 10.1279 16.9492 10.1279 17.2481C10.1279 17.547 10.0092 17.8337 9.79785 18.045L6.79785 21.045C6.69333 21.1499 6.56914 21.2331 6.4324 21.2899C6.29565 21.3467 6.14904 21.3759 6.00098 21.3759C5.85291 21.3759 5.7063 21.3467 5.56955 21.2899C5.43281 21.2331 5.30862 21.1499 5.2041 21.045L2.2041 18.045C1.99276 17.8337 1.87402 17.547 1.87402 17.2481C1.87402 16.9492 1.99276 16.6626 2.2041 16.4513C2.41544 16.2399 2.70209 16.1212 3.00097 16.1212C3.29986 16.1212 3.58651 16.2399 3.79785 16.4513L4.87504 17.5312V12.75C4.87492 12.6022 4.90392 12.4559 4.96038 12.3193C5.01685 12.1827 5.09966 12.0586 5.2041 11.9541L10.875 6.28125V2.25C10.875 1.95163 10.9936 1.66548 11.2045 1.4545C11.4155 1.24353 11.7017 1.125 12 1.125C12.2984 1.125 12.5846 1.24353 12.7955 1.4545C13.0065 1.66548 13.125 1.95163 13.125 2.25V6.28125L18.796 11.9513C18.9007 12.0561 18.9838 12.1807 19.0402 12.3178C19.0967 12.4549 19.1255 12.6017 19.125 12.75V17.5312L20.2041 16.4513C20.3087 16.3466 20.433 16.2636 20.5697 16.207C20.7064 16.1503 20.853 16.1212 21.001 16.1212C21.149 16.1212 21.2955 16.1503 21.4322 16.207C21.569 16.2636 21.6932 16.3466 21.7978 16.4513C21.9025 16.5559 21.9855 16.6801 22.0421 16.8169C22.0988 16.9536 22.1279 17.1001 22.1279 17.2481C22.1279 17.3961 22.0988 17.5427 22.0421 17.6794C21.9855 17.8161 21.9025 17.9404 21.7978 18.045L21.796 18.0459Z" fill="#130032"/>
</svg>
