<svg width="24" height="24" viewBox="0 0 24 24" fill="none" xmlns="http://www.w3.org/2000/svg">
<path d="M17.2959 11.2041C17.4008 11.3086 17.484 11.4328 17.5408 11.5695C17.5976 11.7063 17.6268 11.8529 17.6268 12.0009C17.6268 12.149 17.5976 12.2956 17.5408 12.4324C17.484 12.5691 17.4008 12.6933 17.2959 12.7978L10.5459 19.5478C10.3346 19.7592 10.0479 19.8779 9.74906 19.8779C9.45018 19.8779 9.16353 19.7592 8.95219 19.5478C8.74084 19.3365 8.62211 19.0498 8.62211 18.7509C8.62211 18.4521 8.74084 18.1654 8.95219 17.9541L13.7812 13.125H3C2.70163 13.125 2.41548 13.0065 2.2045 12.7955C1.99353 12.5845 1.875 12.2984 1.875 12C1.875 11.7016 1.99353 11.4155 2.2045 11.2045C2.41548 10.9935 2.70163 10.875 3 10.875H13.7812L8.95406 6.04594C8.74272 5.83459 8.62399 5.54795 8.62399 5.24906C8.62399 4.95018 8.74272 4.66353 8.95406 4.45219C9.16541 4.24084 9.45205 4.12211 9.75094 4.12211C10.0498 4.12211 10.3365 4.24084 10.5478 4.45219L17.2959 11.2041ZM20.25 2.625C19.9516 2.625 19.6655 2.74353 19.4545 2.9545C19.2435 3.16548 19.125 3.45163 19.125 3.75V20.25C19.125 20.5484 19.2435 20.8345 19.4545 21.0455C19.6655 21.2565 19.9516 21.375 20.25 21.375C20.5484 21.375 20.8345 21.2565 21.0455 21.0455C21.2565 20.8345 21.375 20.5484 21.375 20.25V3.75C21.375 3.45163 21.2565 3.16548 21.0455 2.9545C20.8345 2.74353 20.5484 2.625 20.25 2.625Z" fill="#130032"/>
</svg>
