<svg width="24" height="24" viewBox="0 0 24 24" fill="none" xmlns="http://www.w3.org/2000/svg">
<path d="M12 1.875C9.99747 1.875 8.0399 2.46882 6.37486 3.58137C4.70981 4.69392 3.41206 6.27523 2.64572 8.12533C1.87939 9.97543 1.67888 12.0112 2.06955 13.9753C2.46023 15.9393 3.42454 17.7435 4.84055 19.1595C6.25656 20.5755 8.06066 21.5398 10.0247 21.9305C11.9888 22.3211 14.0246 22.1206 15.8747 21.3543C17.7248 20.5879 19.3061 19.2902 20.4186 17.6251C21.5312 15.9601 22.125 14.0025 22.125 12C22.122 9.3156 21.0543 6.74199 19.1562 4.84383C17.258 2.94567 14.6844 1.87798 12 1.875ZM12 19.875C10.4425 19.875 8.91993 19.4131 7.62489 18.5478C6.32985 17.6825 5.32049 16.4526 4.72445 15.0136C4.12841 13.5747 3.97246 11.9913 4.27632 10.4637C4.58018 8.93606 5.3302 7.53287 6.43154 6.43153C7.53288 5.3302 8.93607 4.58017 10.4637 4.27632C11.9913 3.97246 13.5747 4.12841 15.0136 4.72445C16.4526 5.32049 17.6825 6.32985 18.5478 7.62488C19.4131 8.91992 19.875 10.4425 19.875 12C19.8728 14.0879 19.0424 16.0896 17.566 17.566C16.0896 19.0424 14.0879 19.8728 12 19.875ZM15.7959 11.9541C15.9008 12.0586 15.984 12.1828 16.0408 12.3195C16.0976 12.4563 16.1268 12.6029 16.1268 12.7509C16.1268 12.899 16.0976 13.0456 16.0408 13.1824C15.984 13.3191 15.9008 13.4433 15.7959 13.5478L12.7959 16.5478C12.6914 16.6527 12.5672 16.7359 12.4305 16.7927C12.2937 16.8495 12.1471 16.8787 11.9991 16.8787C11.851 16.8787 11.7044 16.8495 11.5676 16.7927C11.4309 16.7359 11.3067 16.6527 11.2022 16.5478L8.20219 13.5478C8.09754 13.4432 8.01453 13.3189 7.9579 13.1822C7.90127 13.0455 7.87212 12.8989 7.87212 12.7509C7.87212 12.6029 7.90127 12.4564 7.9579 12.3197C8.01453 12.1829 8.09754 12.0587 8.20219 11.9541C8.30684 11.8494 8.43107 11.7664 8.5678 11.7098C8.70453 11.6531 8.85107 11.624 8.99907 11.624C9.14706 11.624 9.2936 11.6531 9.43033 11.7098C9.56706 11.7664 9.69129 11.8494 9.79594 11.9541L10.875 13.0312V8.25C10.875 7.95163 10.9935 7.66548 11.2045 7.4545C11.4155 7.24353 11.7016 7.125 12 7.125C12.2984 7.125 12.5845 7.24353 12.7955 7.4545C13.0065 7.66548 13.125 7.95163 13.125 8.25V13.0312L14.2041 11.9513C14.3087 11.8468 14.433 11.7641 14.5696 11.7077C14.7063 11.6513 14.8527 11.6224 15.0006 11.6227C15.1484 11.623 15.2948 11.6524 15.4312 11.7092C15.5677 11.7661 15.6916 11.8493 15.7959 11.9541Z" fill="#130032"/>
</svg>
