<svg width="24" height="24" viewBox="0 0 24 24" fill="none" xmlns="http://www.w3.org/2000/svg">
<path d="M22.5458 12.7969L19.5458 15.7969C19.3345 16.0082 19.0479 16.127 18.749 16.127C18.4501 16.127 18.1634 16.0082 17.9521 15.7969C17.7408 15.5855 17.622 15.2989 17.622 15C17.622 14.7011 17.7408 14.4145 17.9521 14.2031L19.0312 13.1259H4.96866L6.04866 14.205C6.26 14.4163 6.37874 14.703 6.37874 15.0019C6.37874 15.3008 6.26 15.5874 6.04866 15.7987C5.83732 16.0101 5.55067 16.1288 5.25179 16.1288C4.9529 16.1288 4.66626 16.0101 4.45491 15.7987L1.45491 12.7987C1.35003 12.6942 1.26681 12.57 1.21003 12.4333C1.15325 12.2965 1.12402 12.1499 1.12402 12.0019C1.12402 11.8538 1.15325 11.7072 1.21003 11.5705C1.26681 11.4337 1.35003 11.3095 1.45491 11.205L4.45491 8.205C4.66626 7.99365 4.9529 7.87492 5.25179 7.87492C5.39978 7.87492 5.54632 7.90407 5.68305 7.96071C5.81978 8.01734 5.94401 8.10035 6.04866 8.205C6.15331 8.30965 6.23632 8.43388 6.29295 8.57061C6.34959 8.70734 6.37874 8.85388 6.37874 9.00187C6.37874 9.14987 6.34959 9.29641 6.29295 9.43314C6.23632 9.56987 6.15331 9.6941 6.04866 9.79875L4.96866 10.8759H19.0312L17.9512 9.79687C17.8465 9.69223 17.7635 9.56799 17.7069 9.43126C17.6502 9.29454 17.6211 9.14799 17.6211 9C17.6211 8.852 17.6502 8.70546 17.7069 8.56873C17.7635 8.432 17.8465 8.30777 17.9512 8.20312C18.1625 7.99178 18.4491 7.87305 18.748 7.87305C18.896 7.87305 19.0426 7.9022 19.1793 7.95883C19.316 8.01547 19.4403 8.09848 19.5449 8.20312L22.5449 11.2031C22.6499 11.3076 22.7331 11.4317 22.79 11.5684C22.8469 11.7051 22.8762 11.8517 22.8763 11.9998C22.8764 12.1479 22.8472 12.2945 22.7905 12.4313C22.7338 12.5681 22.6507 12.6923 22.5458 12.7969Z" fill="#130032"/>
</svg>
