<svg width="24" height="24" viewBox="0 0 24 24" fill="none" xmlns="http://www.w3.org/2000/svg">
<path d="M19.875 7.49979V15.7498C19.875 17.4405 19.2033 19.0621 18.0078 20.2576C16.8122 21.4531 15.1907 22.1248 13.5 22.1248C11.8092 22.1248 10.1877 21.4531 8.99215 20.2576C7.79661 19.0621 7.12496 17.4405 7.12496 15.7498V5.71854L4.5459 8.29573C4.33455 8.50708 4.04791 8.62581 3.74902 8.62581C3.45014 8.62581 3.16349 8.50708 2.95215 8.29573C2.7408 8.08439 2.62207 7.79774 2.62207 7.49886C2.62207 7.19997 2.7408 6.91333 2.95215 6.70198L7.45215 2.20198C7.55666 2.0971 7.68085 2.01388 7.8176 1.9571C7.95435 1.90032 8.10096 1.87109 8.24902 1.87109C8.39709 1.87109 8.5437 1.90032 8.68044 1.9571C8.81719 2.01388 8.94138 2.0971 9.0459 2.20198L13.5459 6.70198C13.7572 6.91333 13.876 7.19997 13.876 7.49886C13.876 7.79774 13.7572 8.08439 13.5459 8.29573C13.3346 8.50708 13.0479 8.62581 12.749 8.62581C12.4501 8.62581 12.1635 8.50708 11.9521 8.29573L9.37496 5.71854V15.7498C9.37496 16.8438 9.80956 17.893 10.5831 18.6666C11.3567 19.4402 12.4059 19.8748 13.5 19.8748C14.594 19.8748 15.6432 19.4402 16.4168 18.6666C17.1904 17.893 17.625 16.8438 17.625 15.7498V7.49979C17.625 7.20143 17.7435 6.91528 17.9545 6.7043C18.1654 6.49332 18.4516 6.37479 18.75 6.37479C19.0483 6.37479 19.3345 6.49332 19.5455 6.7043C19.7564 6.91528 19.875 7.20143 19.875 7.49979Z" fill="#130032"/>
</svg>
