<svg width="24" height="24" viewBox="0 0 24 24" fill="none" xmlns="http://www.w3.org/2000/svg">
<path d="M22.0396 12.3197C21.9545 12.114 21.8102 11.9383 21.6252 11.8146C21.4401 11.6909 21.2225 11.625 20.9999 11.625H17.6249V11.25C17.6249 10.9516 17.5064 10.6655 17.2954 10.4545C17.0844 10.2435 16.7983 10.125 16.4999 10.125H7.49991C7.20154 10.125 6.91539 10.2435 6.70441 10.4545C6.49344 10.6655 6.37491 10.9516 6.37491 11.25V11.625H2.99991C2.77728 11.6248 2.5596 11.6907 2.37443 11.8143C2.18926 11.9379 2.04493 12.1137 1.95971 12.3194C1.87449 12.525 1.85221 12.7514 1.89569 12.9697C1.93917 13.1881 2.04646 13.3886 2.20397 13.5459L11.204 22.5459C11.3085 22.6508 11.4327 22.734 11.5694 22.7908C11.7062 22.8476 11.8528 22.8768 12.0008 22.8768C12.1489 22.8768 12.2955 22.8476 12.4323 22.7908C12.569 22.734 12.6932 22.6508 12.7977 22.5459L21.7977 13.5459C21.9548 13.3884 22.0616 13.1878 22.1046 12.9695C22.1477 12.7512 22.125 12.5251 22.0396 12.3197ZM11.9999 20.1562L5.71866 13.875H7.49991C7.79828 13.875 8.08443 13.7565 8.2954 13.5455C8.50638 13.3345 8.62491 13.0484 8.62491 12.75V12.375H15.3749V12.75C15.3749 13.0484 15.4934 13.3345 15.7044 13.5455C15.9154 13.7565 16.2015 13.875 16.4999 13.875H18.2812L11.9999 20.1562ZM6.37491 3.75C6.37491 3.45163 6.49344 3.16548 6.70441 2.9545C6.91539 2.74353 7.20154 2.625 7.49991 2.625H16.4999C16.7983 2.625 17.0844 2.74353 17.2954 2.9545C17.5064 3.16548 17.6249 3.45163 17.6249 3.75C17.6249 4.04837 17.5064 4.33452 17.2954 4.5455C17.0844 4.75647 16.7983 4.875 16.4999 4.875H7.49991C7.20154 4.875 6.91539 4.75647 6.70441 4.5455C6.49344 4.33452 6.37491 4.04837 6.37491 3.75ZM6.37491 7.5C6.37491 7.20163 6.49344 6.91548 6.70441 6.7045C6.91539 6.49353 7.20154 6.375 7.49991 6.375H16.4999C16.7983 6.375 17.0844 6.49353 17.2954 6.7045C17.5064 6.91548 17.6249 7.20163 17.6249 7.5C17.6249 7.79837 17.5064 8.08452 17.2954 8.2955C17.0844 8.50647 16.7983 8.625 16.4999 8.625H7.49991C7.20154 8.625 6.91539 8.50647 6.70441 8.2955C6.49344 8.08452 6.37491 7.79837 6.37491 7.5Z" fill="#130032"/>
</svg>
