<svg width="24" height="24" viewBox="0 0 24 24" fill="none" xmlns="http://www.w3.org/2000/svg">
<path d="M21.7958 10.4539L12.7958 1.45393C12.6913 1.34905 12.5671 1.26584 12.4303 1.20906C12.2936 1.15228 12.147 1.12305 11.9989 1.12305C11.8508 1.12305 11.7042 1.15228 11.5675 1.20906C11.4307 1.26584 11.3065 1.34905 11.202 1.45393L2.20202 10.4539C2.04439 10.6114 1.93707 10.8121 1.89364 11.0306C1.85022 11.2491 1.87266 11.4756 1.95811 11.6814C2.04357 11.8871 2.18819 12.0629 2.37365 12.1863C2.5591 12.3098 2.77704 12.3754 2.99983 12.3749H6.37483V12.7499C6.37483 13.0482 6.49336 13.3344 6.70434 13.5454C6.91532 13.7563 7.20147 13.8749 7.49983 13.8749H16.4998C16.7982 13.8749 17.0844 13.7563 17.2953 13.5454C17.5063 13.3344 17.6248 13.0482 17.6248 12.7499V12.3749H20.9998C21.2225 12.375 21.4401 12.3092 21.6253 12.1856C21.8105 12.062 21.9548 11.8862 22.04 11.6805C22.1253 11.4748 22.1475 11.2485 22.1041 11.0302C22.0606 10.8118 21.9533 10.6113 21.7958 10.4539ZM16.4998 10.1249C16.2015 10.1249 15.9153 10.2434 15.7043 10.4544C15.4934 10.6654 15.3748 10.9515 15.3748 11.2499V11.6249H8.62483V11.2499C8.62483 10.9515 8.50631 10.6654 8.29533 10.4544C8.08435 10.2434 7.7982 10.1249 7.49983 10.1249H5.71858L11.9998 3.84362L18.2811 10.1249H16.4998ZM17.6248 20.2499C17.6248 20.5482 17.5063 20.8344 17.2953 21.0454C17.0844 21.2563 16.7982 21.3749 16.4998 21.3749H7.49983C7.20147 21.3749 6.91532 21.2563 6.70434 21.0454C6.49336 20.8344 6.37483 20.5482 6.37483 20.2499C6.37483 19.9515 6.49336 19.6654 6.70434 19.4544C6.91532 19.2434 7.20147 19.1249 7.49983 19.1249H16.4998C16.7982 19.1249 17.0844 19.2434 17.2953 19.4544C17.5063 19.6654 17.6248 19.9515 17.6248 20.2499ZM17.6248 16.4999C17.6248 16.7982 17.5063 17.0844 17.2953 17.2954C17.0844 17.5063 16.7982 17.6249 16.4998 17.6249H7.49983C7.20147 17.6249 6.91532 17.5063 6.70434 17.2954C6.49336 17.0844 6.37483 16.7982 6.37483 16.4999C6.37483 16.2015 6.49336 15.9154 6.70434 15.7044C6.91532 15.4934 7.20147 15.3749 7.49983 15.3749H16.4998C16.7982 15.3749 17.0844 15.4934 17.2953 15.7044C17.5063 15.9154 17.6248 16.2015 17.6248 16.4999Z" fill="#130032"/>
</svg>
