<svg width="24" height="24" viewBox="0 0 24 24" fill="none" xmlns="http://www.w3.org/2000/svg">
<path d="M21.7948 10.4539L12.7948 1.45393C12.6903 1.34905 12.5661 1.26584 12.4293 1.20906C12.2926 1.15228 12.146 1.12305 11.9979 1.12305C11.8499 1.12305 11.7032 1.15228 11.5665 1.20906C11.4298 1.26584 11.3056 1.34905 11.201 1.45393L2.20105 10.4539C2.04336 10.6114 1.93602 10.8122 1.89262 11.0308C1.84923 11.2495 1.87175 11.476 1.95732 11.6818C2.04289 11.8876 2.18766 12.0633 2.37326 12.1867C2.55886 12.3101 2.77693 12.3756 2.9998 12.3749H6.3748V19.4999C6.3748 19.9972 6.57234 20.4741 6.92397 20.8257C7.2756 21.1773 7.75252 21.3749 8.2498 21.3749H15.7498C16.2471 21.3749 16.724 21.1773 17.0756 20.8257C17.4273 20.4741 17.6248 19.9972 17.6248 19.4999V12.3749H20.9998C21.2224 12.3749 21.4399 12.3088 21.6249 12.1852C21.8099 12.0615 21.9541 11.8857 22.0392 11.6801C22.1243 11.4744 22.1465 11.2482 22.103 11.0299C22.0595 10.8117 21.9523 10.6112 21.7948 10.4539ZM16.4998 10.1249C16.2014 10.1249 15.9153 10.2434 15.7043 10.4544C15.4933 10.6654 15.3748 10.9515 15.3748 11.2499V19.1249H8.6248V11.2499C8.6248 10.9515 8.50627 10.6654 8.29529 10.4544C8.08431 10.2434 7.79817 10.1249 7.4998 10.1249H5.71855L11.9998 3.84362L18.281 10.1249H16.4998Z" fill="#130032"/>
</svg>
