<svg width="24" height="24" viewBox="0 0 24 24" fill="none" xmlns="http://www.w3.org/2000/svg">
<path d="M21.0459 8.29687L16.5459 12.7969C16.3346 13.0082 16.0479 13.127 15.7491 13.127C15.4502 13.127 15.1635 13.0082 14.9522 12.7969C14.7408 12.5855 14.6221 12.2989 14.6221 12C14.6221 11.7011 14.7408 11.4145 14.9522 11.2031L17.5312 8.62594H7.875V21.0009C7.875 21.2993 7.75647 21.5855 7.5455 21.7964C7.33452 22.0074 7.04837 22.1259 6.75 22.1259C6.45163 22.1259 6.16548 22.0074 5.9545 21.7964C5.74353 21.5855 5.625 21.2993 5.625 21.0009V7.50094C5.625 7.20257 5.74353 6.91642 5.9545 6.70544C6.16548 6.49446 6.45163 6.37594 6.75 6.37594H17.5312L14.9541 3.79687C14.8494 3.69223 14.7664 3.56799 14.7098 3.43126C14.6531 3.29454 14.624 3.14799 14.624 3C14.624 2.852 14.6531 2.70546 14.7098 2.56873C14.7664 2.432 14.8494 2.30777 14.9541 2.20312C15.0587 2.09848 15.1829 2.01547 15.3197 1.95883C15.4564 1.9022 15.6029 1.87305 15.7509 1.87305C15.8989 1.87305 16.0455 1.9022 16.1822 1.95883C16.3189 2.01547 16.4432 2.09848 16.5478 2.20312L21.0478 6.70312C21.1526 6.80776 21.2356 6.93205 21.2923 7.06887C21.3489 7.20568 21.3779 7.35232 21.3778 7.50039C21.3776 7.64845 21.3482 7.79503 21.2912 7.93171C21.2343 8.06839 21.1509 8.19248 21.0459 8.29687Z" fill="#130032"/>
</svg>
