<svg width="24" height="24" viewBox="0 0 24 24" fill="none" xmlns="http://www.w3.org/2000/svg">
<path d="M21.3749 11.9991C21.3749 12.2974 21.2564 12.5836 21.0454 12.7946C20.8344 13.0055 20.5483 13.1241 20.2499 13.1241H6.46866L11.2987 17.9531C11.51 18.1645 11.6287 18.4511 11.6287 18.75C11.6287 19.0489 11.51 19.3355 11.2987 19.5469C11.0873 19.7582 10.8007 19.877 10.5018 19.877C10.2029 19.877 9.91625 19.7582 9.70491 19.5469L2.95491 12.7969C2.85003 12.6924 2.76681 12.5682 2.71003 12.4314C2.65325 12.2947 2.62402 12.1481 2.62402 12C2.62402 11.8519 2.65325 11.7053 2.71003 11.5686C2.76681 11.4318 2.85003 11.3076 2.95491 11.2031L9.70491 4.45312C9.80956 4.34848 9.93379 4.26547 10.0705 4.20883C10.2072 4.1522 10.3538 4.12305 10.5018 4.12305C10.6498 4.12305 10.7963 4.1522 10.9331 4.20883C11.0698 4.26547 11.194 4.34848 11.2987 4.45312C11.4033 4.55777 11.4863 4.682 11.543 4.81873C11.5996 4.95546 11.6287 5.102 11.6287 5.25C11.6287 5.39799 11.5996 5.54454 11.543 5.68126C11.4863 5.81799 11.4033 5.94223 11.2987 6.04687L6.46866 10.8741H20.2499C20.5483 10.8741 20.8344 10.9926 21.0454 11.2036C21.2564 11.4145 21.3749 11.7007 21.3749 11.9991Z" fill="#130032"/>
</svg>
