<svg width="24" height="24" viewBox="0 0 24 24" fill="none" xmlns="http://www.w3.org/2000/svg">
<path d="M12.7499 6.37589H12.3749V3.00089C12.375 2.77825 12.3092 2.56057 12.1856 2.37541C12.062 2.19024 11.8862 2.04591 11.6805 1.96069C11.4748 1.87546 11.2485 1.85318 11.0302 1.89667C10.8118 1.94015 10.6113 2.04744 10.4539 2.20495L1.45393 11.2049C1.34905 11.3095 1.26584 11.4337 1.20906 11.5704C1.15228 11.7071 1.12305 11.8538 1.12305 12.0018C1.12305 12.1499 1.15228 12.2965 1.20906 12.4332C1.26584 12.57 1.34905 12.6942 1.45393 12.7987L10.4539 21.7987C10.6114 21.9563 10.8121 22.0637 11.0306 22.1071C11.2491 22.1505 11.4756 22.1281 11.6814 22.0426C11.8871 21.9572 12.0629 21.8125 12.1863 21.6271C12.3098 21.4416 12.3754 21.2237 12.3749 21.0009V17.6259H12.7499C13.0482 17.6259 13.3344 17.5074 13.5454 17.2964C13.7563 17.0854 13.8749 16.7993 13.8749 16.5009V7.50089C13.8749 7.20252 13.7563 6.91637 13.5454 6.70539C13.3344 6.49441 13.0482 6.37589 12.7499 6.37589ZM11.6249 15.3759H11.2499C10.9515 15.3759 10.6654 15.4944 10.4544 15.7054C10.2434 15.9164 10.1249 16.2025 10.1249 16.5009V18.2821L3.84362 12.0009L10.1249 5.71964V7.50089C10.1249 7.79925 10.2434 8.0854 10.4544 8.29638C10.6654 8.50736 10.9515 8.62589 11.2499 8.62589H11.6249V15.3759ZM21.3749 7.50089V16.5009C21.3749 16.7993 21.2563 17.0854 21.0454 17.2964C20.8344 17.5074 20.5482 17.6259 20.2499 17.6259C19.9515 17.6259 19.6654 17.5074 19.4544 17.2964C19.2434 17.0854 19.1249 16.7993 19.1249 16.5009V7.50089C19.1249 7.20252 19.2434 6.91637 19.4544 6.70539C19.6654 6.49441 19.9515 6.37589 20.2499 6.37589C20.5482 6.37589 20.8344 6.49441 21.0454 6.70539C21.2563 6.91637 21.3749 7.20252 21.3749 7.50089ZM17.6249 7.50089V16.5009C17.6249 16.7993 17.5063 17.0854 17.2954 17.2964C17.0844 17.5074 16.7982 17.6259 16.4999 17.6259C16.2015 17.6259 15.9154 17.5074 15.7044 17.2964C15.4934 17.0854 15.3749 16.7993 15.3749 16.5009V7.50089C15.3749 7.20252 15.4934 6.91637 15.7044 6.70539C15.9154 6.49441 16.2015 6.37589 16.4999 6.37589C16.7982 6.37589 17.0844 6.49441 17.2954 6.70539C17.5063 6.91637 17.6249 7.20252 17.6249 7.50089Z" fill="#130032"/>
</svg>
