<svg width="24" height="24" viewBox="0 0 24 24" fill="none" xmlns="http://www.w3.org/2000/svg">
<path d="M12 1.875C9.99747 1.875 8.0399 2.46882 6.37486 3.58137C4.70981 4.69392 3.41206 6.27523 2.64572 8.12533C1.87939 9.97543 1.67888 12.0112 2.06955 13.9753C2.46023 15.9393 3.42454 17.7435 4.84055 19.1595C6.25656 20.5755 8.06066 21.5398 10.0247 21.9305C11.9888 22.3211 14.0246 22.1206 15.8747 21.3543C17.7248 20.5879 19.3061 19.2902 20.4186 17.6251C21.5312 15.9601 22.125 14.0025 22.125 12C22.122 9.3156 21.0543 6.74199 19.1562 4.84383C17.258 2.94567 14.6844 1.87798 12 1.875ZM12 19.875C10.4425 19.875 8.91993 19.4131 7.62489 18.5478C6.32985 17.6825 5.32049 16.4526 4.72445 15.0136C4.12841 13.5747 3.97246 11.9913 4.27632 10.4637C4.58018 8.93606 5.3302 7.53287 6.43154 6.43153C7.53288 5.3302 8.93607 4.58017 10.4637 4.27632C11.9913 3.97246 13.5747 4.12841 15.0136 4.72445C16.4526 5.32049 17.6825 6.32985 18.5478 7.62488C19.4131 8.91992 19.875 10.4425 19.875 12C19.8728 14.0879 19.0424 16.0896 17.566 17.566C16.0896 19.0424 14.0879 19.8728 12 19.875ZM16.875 12C16.875 12.2984 16.7565 12.5845 16.5455 12.7955C16.3345 13.0065 16.0484 13.125 15.75 13.125H10.9688L12.0488 14.2041C12.2601 14.4154 12.3788 14.7021 12.3788 15.0009C12.3788 15.2998 12.2601 15.5865 12.0488 15.7978C11.8374 16.0092 11.5508 16.1279 11.2519 16.1279C10.953 16.1279 10.6663 16.0092 10.455 15.7978L7.455 12.7978C7.35012 12.6933 7.26691 12.5691 7.21013 12.4324C7.15335 12.2956 7.12412 12.149 7.12412 12.0009C7.12412 11.8529 7.15335 11.7063 7.21013 11.5695C7.26691 11.4328 7.35012 11.3086 7.455 11.2041L10.455 8.20406C10.5597 8.09942 10.6839 8.0164 10.8206 7.95977C10.9573 7.90314 11.1039 7.87399 11.2519 7.87399C11.3999 7.87399 11.5464 7.90314 11.6831 7.95977C11.8199 8.0164 11.9441 8.09942 12.0488 8.20406C12.1534 8.30871 12.2364 8.43294 12.293 8.56967C12.3497 8.7064 12.3788 8.85294 12.3788 9.00094C12.3788 9.14893 12.3497 9.29548 12.293 9.4322C12.2364 9.56893 12.1534 9.69317 12.0488 9.79781L10.9688 10.875H15.75C16.0484 10.875 16.3345 10.9935 16.5455 11.2045C16.7565 11.4155 16.875 11.7016 16.875 12Z" fill="#130032"/>
</svg>
