<svg width="24" height="24" viewBox="0 0 24 24" fill="none" xmlns="http://www.w3.org/2000/svg">
<path d="M21.375 12C21.375 12.2984 21.2565 12.5845 21.0455 12.7955C20.8345 13.0065 20.5484 13.125 20.25 13.125H3.75C3.45163 13.125 3.16548 13.0065 2.9545 12.7955C2.74353 12.5845 2.625 12.2984 2.625 12C2.625 11.7016 2.74353 11.4155 2.9545 11.2045C3.16548 10.9935 3.45163 10.875 3.75 10.875H20.25C20.5484 10.875 20.8345 10.9935 21.0455 11.2045C21.2565 11.4155 21.375 11.7016 21.375 12ZM11.2041 9.04594C11.3086 9.15082 11.4328 9.23403 11.5695 9.29082C11.7063 9.3476 11.8529 9.37682 12.0009 9.37682C12.149 9.37682 12.2956 9.3476 12.4324 9.29082C12.5691 9.23403 12.6933 9.15082 12.7978 9.04594L15.7978 6.04594C16.0092 5.83459 16.1279 5.54795 16.1279 5.24906C16.1279 4.95018 16.0092 4.66353 15.7978 4.45219C15.5865 4.24084 15.2998 4.12211 15.0009 4.12211C14.7021 4.12211 14.4154 4.24084 14.2041 4.45219L13.125 5.53125V1.5C13.125 1.20163 13.0065 0.915483 12.7955 0.704505C12.5845 0.493526 12.2984 0.375 12 0.375C11.7016 0.375 11.4155 0.493526 11.2045 0.704505C10.9935 0.915483 10.875 1.20163 10.875 1.5V5.53125L9.79594 4.45406C9.58459 4.24272 9.29795 4.12399 8.99906 4.12399C8.70018 4.12399 8.41353 4.24272 8.20219 4.45406C7.99084 4.66541 7.87211 4.95205 7.87211 5.25094C7.87211 5.54982 7.99084 5.83647 8.20219 6.04781L11.2041 9.04594ZM12.7978 14.9522C12.6933 14.8473 12.5691 14.7641 12.4324 14.7073C12.2956 14.6505 12.149 14.6213 12.0009 14.6213C11.8529 14.6213 11.7063 14.6505 11.5695 14.7073C11.4328 14.7641 11.3086 14.8473 11.2041 14.9522L8.20406 17.9522C7.99272 18.1635 7.87399 18.4502 7.87399 18.7491C7.87399 19.0479 7.99272 19.3346 8.20406 19.5459C8.41541 19.7573 8.70205 19.876 9.00094 19.876C9.29982 19.876 9.58647 19.7573 9.79781 19.5459L10.875 18.4688V22.5C10.875 22.7984 10.9935 23.0845 11.2045 23.2955C11.4155 23.5065 11.7016 23.625 12 23.625C12.2984 23.625 12.5845 23.5065 12.7955 23.2955C13.0065 23.0845 13.125 22.7984 13.125 22.5V18.4688L14.2041 19.5487C14.4154 19.7601 14.7021 19.8788 15.0009 19.8788C15.2998 19.8788 15.5865 19.7601 15.7978 19.5487C16.0092 19.3374 16.1279 19.0508 16.1279 18.7519C16.1279 18.453 16.0092 18.1663 15.7978 17.955L12.7978 14.9522Z" fill="#130032"/>
</svg>
