<svg width="24" height="24" viewBox="0 0 24 24" fill="none" xmlns="http://www.w3.org/2000/svg">
<path d="M22.1249 5.25C22.1219 7.9344 21.0542 10.508 19.1561 12.4062C17.2579 14.3043 14.6843 15.372 11.9999 15.375H5.71866L8.29866 17.9541C8.51 18.1654 8.62874 18.4521 8.62874 18.7509C8.62874 19.0498 8.51 19.3365 8.29866 19.5478C8.08732 19.7592 7.80067 19.8779 7.50179 19.8779C7.2029 19.8779 6.91625 19.7592 6.70491 19.5478L2.20491 15.0478C2.10003 14.9433 2.01681 14.8191 1.96003 14.6824C1.90325 14.5456 1.87402 14.399 1.87402 14.2509C1.87402 14.1029 1.90325 13.9563 1.96003 13.8195C2.01681 13.6828 2.10003 13.5586 2.20491 13.4541L6.70491 8.95406C6.80956 8.84942 6.93379 8.7664 7.07052 8.70977C7.20725 8.65314 7.35379 8.62399 7.50179 8.62399C7.64978 8.62399 7.79632 8.65314 7.93305 8.70977C8.06978 8.7664 8.19401 8.84942 8.29866 8.95406C8.40331 9.05871 8.48632 9.18294 8.54295 9.31967C8.59959 9.4564 8.62874 9.60294 8.62874 9.75094C8.62874 9.89893 8.59959 10.0455 8.54295 10.1822C8.48632 10.3189 8.40331 10.4432 8.29866 10.5478L5.71866 13.125H11.9999C14.0878 13.1228 16.0895 12.2924 17.5659 10.816C19.0423 9.33963 19.8727 7.33789 19.8749 5.25C19.8749 4.95163 19.9934 4.66548 20.2044 4.4545C20.4154 4.24353 20.7015 4.125 20.9999 4.125C21.2983 4.125 21.5844 4.24353 21.7954 4.4545C22.0064 4.66548 22.1249 4.95163 22.1249 5.25Z" fill="#130032"/>
</svg>
