<svg width="24" height="24" viewBox="0 0 24 24" fill="none" xmlns="http://www.w3.org/2000/svg">
<path d="M13.125 3.75V20.25C13.125 20.5484 13.0065 20.8345 12.7955 21.0455C12.5845 21.2565 12.2984 21.375 12 21.375C11.7016 21.375 11.4155 21.2565 11.2045 21.0455C10.9935 20.8345 10.875 20.5484 10.875 20.25V3.75C10.875 3.45163 10.9935 3.16548 11.2045 2.9545C11.4155 2.74353 11.7016 2.625 12 2.625C12.2984 2.625 12.5845 2.74353 12.7955 2.9545C13.0065 3.16548 13.125 3.45163 13.125 3.75ZM6.04594 8.20406C5.83459 7.99272 5.54795 7.87399 5.24906 7.87399C4.95018 7.87399 4.66353 7.99272 4.45219 8.20406C4.24084 8.41541 4.12211 8.70205 4.12211 9.00094C4.12211 9.29982 4.24084 9.58647 4.45219 9.79781L5.53125 10.875H1.5C1.20163 10.875 0.915483 10.9935 0.704505 11.2045C0.493526 11.4155 0.375 11.7016 0.375 12C0.375 12.2984 0.493526 12.5845 0.704505 12.7955C0.915483 13.0065 1.20163 13.125 1.5 13.125H5.53125L4.45406 14.2041C4.24272 14.4154 4.12399 14.7021 4.12399 15.0009C4.12399 15.2998 4.24272 15.5865 4.45406 15.7978C4.66541 16.0092 4.95205 16.1279 5.25094 16.1279C5.54982 16.1279 5.83647 16.0092 6.04781 15.7978L9.04781 12.7978C9.15269 12.6933 9.23591 12.5691 9.29269 12.4324C9.34947 12.2956 9.3787 12.149 9.3787 12.0009C9.3787 11.8529 9.34947 11.7063 9.29269 11.5695C9.23591 11.4328 9.15269 11.3086 9.04781 11.2041L6.04594 8.20406ZM22.5 10.875H18.4688L19.5487 9.79594C19.7601 9.58459 19.8788 9.29795 19.8788 8.99906C19.8788 8.70018 19.7601 8.41353 19.5487 8.20219C19.3374 7.99084 19.0508 7.87211 18.7519 7.87211C18.453 7.87211 18.1663 7.99084 17.955 8.20219L14.955 11.2022C14.8501 11.3067 14.7669 11.4309 14.7101 11.5676C14.6533 11.7044 14.6241 11.851 14.6241 11.9991C14.6241 12.1471 14.6533 12.2937 14.7101 12.4305C14.7669 12.5672 14.8501 12.6914 14.955 12.7959L17.955 15.7959C18.1663 16.0073 18.453 16.126 18.7519 16.126C19.0508 16.126 19.3374 16.0073 19.5487 15.7959C19.7601 15.5846 19.8788 15.2979 19.8788 14.9991C19.8788 14.7002 19.7601 14.4135 19.5487 14.2022L18.4688 13.125H22.5C22.7984 13.125 23.0845 13.0065 23.2955 12.7955C23.5065 12.5845 23.625 12.2984 23.625 12C23.625 11.7016 23.5065 11.4155 23.2955 11.2045C23.0845 10.9935 22.7984 10.875 22.5 10.875Z" fill="#130032"/>
</svg>
