<svg width="24" height="24" viewBox="0 0 24 24" fill="none" xmlns="http://www.w3.org/2000/svg">
<path d="M19.5 2.625H4.5C4.00272 2.625 3.52581 2.82254 3.17417 3.17417C2.82254 3.52581 2.625 4.00272 2.625 4.5V19.5C2.625 19.9973 2.82254 20.4742 3.17417 20.8258C3.52581 21.1775 4.00272 21.375 4.5 21.375H19.5C19.9973 21.375 20.4742 21.1775 20.8258 20.8258C21.1775 20.4742 21.375 19.9973 21.375 19.5V4.5C21.375 4.00272 21.1775 3.52581 20.8258 3.17417C20.4742 2.82254 19.9973 2.625 19.5 2.625ZM19.125 19.125H4.875V4.875H19.125V19.125ZM8.20406 12.0459C8.09918 11.9414 8.01597 11.8172 7.95918 11.6805C7.9024 11.5437 7.87318 11.3971 7.87318 11.2491C7.87318 11.101 7.9024 10.9544 7.95918 10.8176C8.01597 10.6809 8.09918 10.5567 8.20406 10.4522L11.2041 7.45219C11.3086 7.34731 11.4328 7.26409 11.5695 7.20731C11.7063 7.15053 11.8529 7.1213 12.0009 7.1213C12.149 7.1213 12.2956 7.15053 12.4324 7.20731C12.5691 7.26409 12.6933 7.34731 12.7978 7.45219L15.7978 10.4522C16.0092 10.6635 16.1279 10.9502 16.1279 11.2491C16.1279 11.5479 16.0092 11.8346 15.7978 12.0459C15.5865 12.2573 15.2998 12.376 15.0009 12.376C14.7021 12.376 14.4154 12.2573 14.2041 12.0459L13.125 10.9688V15.75C13.125 16.0484 13.0065 16.3345 12.7955 16.5455C12.5845 16.7565 12.2984 16.875 12 16.875C11.7016 16.875 11.4155 16.7565 11.2045 16.5455C10.9935 16.3345 10.875 16.0484 10.875 15.75V10.9688L9.79594 12.0487C9.69127 12.1532 9.56705 12.2359 9.43038 12.2923C9.2937 12.3487 9.14726 12.3776 8.99942 12.3773C8.85157 12.377 8.70523 12.3476 8.56876 12.2908C8.43229 12.2339 8.30836 12.1507 8.20406 12.0459Z" fill="#130032"/>
</svg>
