<svg width="24" height="24" viewBox="0 0 24 24" fill="none" xmlns="http://www.w3.org/2000/svg">
<path d="M19.5 2.625H4.5C4.00272 2.625 3.52581 2.82254 3.17417 3.17417C2.82254 3.52581 2.625 4.00272 2.625 4.5V19.5C2.625 19.9973 2.82254 20.4742 3.17417 20.8258C3.52581 21.1775 4.00272 21.375 4.5 21.375H19.5C19.9973 21.375 20.4742 21.1775 20.8258 20.8258C21.1775 20.4742 21.375 19.9973 21.375 19.5V4.5C21.375 4.00272 21.1775 3.52581 20.8258 3.17417C20.4742 2.82254 19.9973 2.625 19.5 2.625ZM19.125 19.125H4.875V4.875H19.125V19.125ZM7.875 15V10.5C7.875 10.2016 7.99353 9.91548 8.2045 9.7045C8.41548 9.49353 8.70163 9.375 9 9.375C9.29837 9.375 9.58452 9.49353 9.7955 9.7045C10.0065 9.91548 10.125 10.2016 10.125 10.5V12.2812L14.2041 8.20125C14.4154 7.98991 14.7021 7.87117 15.0009 7.87117C15.2998 7.87117 15.5865 7.98991 15.7978 8.20125C16.0092 8.41259 16.1279 8.69924 16.1279 8.99813C16.1279 9.29701 16.0092 9.58366 15.7978 9.795L11.7188 13.875H13.5C13.7984 13.875 14.0845 13.9935 14.2955 14.2045C14.5065 14.4155 14.625 14.7016 14.625 15C14.625 15.2984 14.5065 15.5845 14.2955 15.7955C14.0845 16.0065 13.7984 16.125 13.5 16.125H9C8.70163 16.125 8.41548 16.0065 8.2045 15.7955C7.99353 15.5845 7.875 15.2984 7.875 15Z" fill="#130032"/>
</svg>
