<svg width="24" height="24" viewBox="0 0 24 24" fill="none" xmlns="http://www.w3.org/2000/svg">
<path d="M22.1249 13.4991C22.1232 15.1893 21.451 16.8098 20.2558 18.0049C19.0606 19.2001 17.4401 19.8723 15.7499 19.8741H7.49991C7.20154 19.8741 6.91539 19.7555 6.70442 19.5446C6.49344 19.3336 6.37491 19.0474 6.37491 18.7491C6.37491 18.4507 6.49344 18.1645 6.70442 17.9536C6.91539 17.7426 7.20154 17.6241 7.49991 17.6241H15.7499C16.8439 17.6241 17.8931 17.1895 18.6667 16.4159C19.4403 15.6423 19.8749 14.5931 19.8749 13.4991C19.8749 12.405 19.4403 11.3558 18.6667 10.5822C17.8931 9.80866 16.8439 9.37406 15.7499 9.37406H5.71866L8.29866 11.9531C8.51 12.1645 8.62874 12.4511 8.62874 12.75C8.62874 13.0489 8.51 13.3355 8.29866 13.5469C8.08732 13.7582 7.80067 13.877 7.50179 13.877C7.2029 13.877 6.91625 13.7582 6.70491 13.5469L2.20491 9.04687C2.10003 8.94236 2.01681 8.81816 1.96003 8.68142C1.90325 8.54467 1.87402 8.39806 1.87402 8.25C1.87402 8.10193 1.90325 7.95532 1.96003 7.81858C2.01681 7.68183 2.10003 7.55764 2.20491 7.45312L6.70491 2.95312C6.91625 2.74178 7.2029 2.62305 7.50179 2.62305C7.80067 2.62305 8.08732 2.74178 8.29866 2.95312C8.51 3.16447 8.62874 3.45111 8.62874 3.75C8.62874 4.04888 8.51 4.33553 8.29866 4.54687L5.71866 7.12406H15.7499C17.4401 7.12605 19.0604 7.79833 20.2555 8.99345C21.4506 10.1886 22.1229 11.8089 22.1249 13.4991Z" fill="#130032"/>
</svg>
