<svg width="24" height="24" viewBox="0 0 24 24" fill="none" xmlns="http://www.w3.org/2000/svg">
<path d="M21.375 3.75C21.375 4.04837 21.2565 4.33452 21.0455 4.5455C20.8345 4.75647 20.5484 4.875 20.25 4.875H3.75C3.45163 4.875 3.16548 4.75647 2.9545 4.5455C2.74353 4.33452 2.625 4.04837 2.625 3.75C2.625 3.45163 2.74353 3.16548 2.9545 2.9545C3.16548 2.74353 3.45163 2.625 3.75 2.625H20.25C20.5484 2.625 20.8345 2.74353 21.0455 2.9545C21.2565 3.16548 21.375 3.45163 21.375 3.75ZM18 8.625C17.7016 8.625 17.4155 8.74353 17.2045 8.9545C16.9935 9.16548 16.875 9.45163 16.875 9.75V16.0312L8.29594 7.45406C8.08459 7.24272 7.79795 7.12399 7.49906 7.12399C7.20018 7.12399 6.91353 7.24272 6.70219 7.45406C6.49084 7.66541 6.37211 7.95205 6.37211 8.25094C6.37211 8.54982 6.49084 8.83647 6.70219 9.04781L15.2812 17.625H9C8.70163 17.625 8.41548 17.7435 8.2045 17.9545C7.99353 18.1655 7.875 18.4516 7.875 18.75C7.875 19.0484 7.99353 19.3345 8.2045 19.5455C8.41548 19.7565 8.70163 19.875 9 19.875H18C18.2984 19.875 18.5845 19.7565 18.7955 19.5455C19.0065 19.3345 19.125 19.0484 19.125 18.75V9.75C19.125 9.45163 19.0065 9.16548 18.7955 8.9545C18.5845 8.74353 18.2984 8.625 18 8.625Z" fill="#130032"/>
</svg>
