<svg width="24" height="24" viewBox="0 0 24 24" fill="none" xmlns="http://www.w3.org/2000/svg">
<path d="M20.25 3.375H3.75C3.25272 3.375 2.77581 3.57254 2.42417 3.92417C2.07254 4.27581 1.875 4.75272 1.875 5.25V18.75C1.875 19.2473 2.07254 19.7242 2.42417 20.0758C2.77581 20.4275 3.25272 20.625 3.75 20.625H20.25C20.7473 20.625 21.2242 20.4275 21.5758 20.0758C21.9275 19.7242 22.125 19.2473 22.125 18.75V5.25C22.125 4.75272 21.9275 4.27581 21.5758 3.92417C21.2242 3.57254 20.7473 3.375 20.25 3.375ZM19.875 18.375H4.125V5.625H19.875V18.375ZM6.375 8.625C6.375 8.32663 6.49353 8.04048 6.7045 7.8295C6.91548 7.61853 7.20163 7.5 7.5 7.5H16.5C16.7984 7.5 17.0845 7.61853 17.2955 7.8295C17.5065 8.04048 17.625 8.32663 17.625 8.625C17.625 8.92337 17.5065 9.20952 17.2955 9.4205C17.0845 9.63147 16.7984 9.75 16.5 9.75H7.5C7.20163 9.75 6.91548 9.63147 6.7045 9.4205C6.49353 9.20952 6.375 8.92337 6.375 8.625ZM6.375 12C6.375 11.7016 6.49353 11.4155 6.7045 11.2045C6.91548 10.9935 7.20163 10.875 7.5 10.875H16.5C16.7984 10.875 17.0845 10.9935 17.2955 11.2045C17.5065 11.4155 17.625 11.7016 17.625 12C17.625 12.2984 17.5065 12.5845 17.2955 12.7955C17.0845 13.0065 16.7984 13.125 16.5 13.125H7.5C7.20163 13.125 6.91548 13.0065 6.7045 12.7955C6.49353 12.5845 6.375 12.2984 6.375 12ZM6.375 15.375C6.375 15.0766 6.49353 14.7905 6.7045 14.5795C6.91548 14.3685 7.20163 14.25 7.5 14.25H16.5C16.7984 14.25 17.0845 14.3685 17.2955 14.5795C17.5065 14.7905 17.625 15.0766 17.625 15.375C17.625 15.6734 17.5065 15.9595 17.2955 16.1705C17.0845 16.3815 16.7984 16.5 16.5 16.5H7.5C7.20163 16.5 6.91548 16.3815 6.7045 16.1705C6.49353 15.9595 6.375 15.6734 6.375 15.375Z" fill="#130032"/>
</svg>
