<svg width="24" height="24" viewBox="0 0 24 24" fill="none" xmlns="http://www.w3.org/2000/svg">
<path d="M5.25 12.375C5.25 12.6734 5.13147 12.9595 4.9205 13.1705C4.70952 13.3815 4.42337 13.5 4.125 13.5H2.25C1.95163 13.5 1.66548 13.3815 1.4545 13.1705C1.24353 12.9595 1.125 12.6734 1.125 12.375C1.125 12.0766 1.24353 11.7905 1.4545 11.5795C1.66548 11.3685 1.95163 11.25 2.25 11.25H2.625V6.375H2.25C1.95163 6.375 1.66548 6.25648 1.4545 6.0455C1.24353 5.83452 1.125 5.54837 1.125 5.25C1.125 4.95163 1.24353 4.66549 1.4545 4.45451C1.66548 4.24353 1.95163 4.125 2.25 4.125H3.75C3.93534 4.12462 4.11789 4.17004 4.28145 4.25722C4.445 4.34439 4.58448 4.47062 4.6875 4.62469L7.5 8.84344L10.3125 4.62469C10.4155 4.47062 10.555 4.34439 10.7186 4.25722C10.8821 4.17004 11.0647 4.12462 11.25 4.125H12.75C13.0484 4.125 13.3345 4.24353 13.5455 4.45451C13.7565 4.66549 13.875 4.95163 13.875 5.25C13.875 5.54837 13.7565 5.83452 13.5455 6.0455C13.3345 6.25648 13.0484 6.375 12.75 6.375H12.375V11.25H12.75C13.0484 11.25 13.3345 11.3685 13.5455 11.5795C13.7565 11.7905 13.875 12.0766 13.875 12.375C13.875 12.6734 13.7565 12.9595 13.5455 13.1705C13.3345 13.3815 13.0484 13.5 12.75 13.5H10.875C10.6475 13.4997 10.4254 13.4304 10.238 13.3013C10.0507 13.1721 9.90688 12.9892 9.82564 12.7767C9.7444 12.5641 9.72952 12.3319 9.78297 12.1108C9.83641 11.8896 9.95567 11.6898 10.125 11.5378V8.96532L8.4375 11.4966C8.33488 11.6513 8.19557 11.7782 8.03199 11.866C7.86841 11.9538 7.68565 11.9997 7.5 11.9997C7.31435 11.9997 7.13159 11.9538 6.96801 11.866C6.80443 11.7782 6.66512 11.6513 6.5625 11.4966L4.875 8.96532V11.5378C4.99281 11.6432 5.08709 11.7722 5.15171 11.9165C5.21632 12.0607 5.24981 12.2169 5.25 12.375ZM16.5 9.75H21.75C22.0484 9.75 22.3345 9.63148 22.5455 9.4205C22.7565 9.20952 22.875 8.92337 22.875 8.625C22.875 8.32663 22.7565 8.04049 22.5455 7.82951C22.3345 7.61853 22.0484 7.5 21.75 7.5H16.5C16.2016 7.5 15.9155 7.61853 15.7045 7.82951C15.4935 8.04049 15.375 8.32663 15.375 8.625C15.375 8.92337 15.4935 9.20952 15.7045 9.4205C15.9155 9.63148 16.2016 9.75 16.5 9.75ZM21.75 11.25H16.5C16.2016 11.25 15.9155 11.3685 15.7045 11.5795C15.4935 11.7905 15.375 12.0766 15.375 12.375C15.375 12.6734 15.4935 12.9595 15.7045 13.1705C15.9155 13.3815 16.2016 13.5 16.5 13.5H21.75C22.0484 13.5 22.3345 13.3815 22.5455 13.1705C22.7565 12.9595 22.875 12.6734 22.875 12.375C22.875 12.0766 22.7565 11.7905 22.5455 11.5795C22.3345 11.3685 22.0484 11.25 21.75 11.25ZM21.75 15H7.5C7.20163 15 6.91548 15.1185 6.7045 15.3295C6.49353 15.5405 6.375 15.8266 6.375 16.125C6.375 16.4234 6.49353 16.7095 6.7045 16.9205C6.91548 17.1315 7.20163 17.25 7.5 17.25H21.75C22.0484 17.25 22.3345 17.1315 22.5455 16.9205C22.7565 16.7095 22.875 16.4234 22.875 16.125C22.875 15.8266 22.7565 15.5405 22.5455 15.3295C22.3345 15.1185 22.0484 15 21.75 15ZM21.75 18.75H7.5C7.20163 18.75 6.91548 18.8685 6.7045 19.0795C6.49353 19.2905 6.375 19.5766 6.375 19.875C6.375 20.1734 6.49353 20.4595 6.7045 20.6705C6.91548 20.8815 7.20163 21 7.5 21H21.75C22.0484 21 22.3345 20.8815 22.5455 20.6705C22.7565 20.4595 22.875 20.1734 22.875 19.875C22.875 19.5766 22.7565 19.2905 22.5455 19.0795C22.3345 18.8685 22.0484 18.75 21.75 18.75Z" fill="#130032"/>
</svg>
