<svg width="24" height="24" viewBox="0 0 24 24" fill="none" xmlns="http://www.w3.org/2000/svg">
<path d="M8.60812 5.625H8.625C8.92337 5.625 9.20952 5.50647 9.4205 5.2955C9.63147 5.08452 9.75 4.79837 9.75 4.5C9.75 4.20163 9.63147 3.91548 9.4205 3.7045C9.20952 3.49353 8.92337 3.375 8.625 3.375H5.625C4.53136 3.37624 3.48287 3.81124 2.70955 4.58455C1.93624 5.35787 1.50124 6.40636 1.5 7.5V8.25C1.5 8.54837 1.61853 8.83452 1.8295 9.0455C2.04048 9.25647 2.32663 9.375 2.625 9.375H4.5C5.52877 9.37377 6.52005 8.98869 7.27986 8.29512C8.03968 7.60154 8.51333 6.64939 8.60812 5.625ZM4.5 7.125H3.7875C3.87395 6.70149 4.10407 6.32085 4.43891 6.04751C4.77375 5.77417 5.19276 5.62491 5.625 5.625H6.3375C6.25105 6.04851 6.02093 6.42915 5.68609 6.70249C5.35125 6.97583 4.93224 7.12509 4.5 7.125ZM21 7.40625V7.5C20.9988 8.59364 20.5638 9.64213 19.7904 10.4154C19.0171 11.1888 17.9686 11.6238 16.875 11.625H13.125V18.375H13.875C14.1734 18.375 14.4595 18.2565 14.6705 18.0455C14.8815 17.8345 15 17.5484 15 17.25C15.0009 17.0915 14.9678 16.9347 14.9032 16.7899C14.8385 16.6452 14.7437 16.516 14.625 16.4109C14.511 16.3136 14.4176 16.1944 14.3503 16.0604C14.2831 15.9264 14.2432 15.7804 14.2332 15.6308C14.2232 15.4812 14.2431 15.3311 14.2919 15.1894C14.3407 15.0476 14.4174 14.9171 14.5173 14.8053C14.6173 14.6936 14.7386 14.603 14.8741 14.5388C15.0096 14.4746 15.1565 14.4382 15.3063 14.4316C15.4561 14.425 15.6057 14.4485 15.7462 14.5005C15.8868 14.5525 16.0156 14.6322 16.125 14.7347C16.6344 15.1904 16.9934 15.79 17.1545 16.4542C17.3157 17.1184 17.2714 17.8159 17.0275 18.4543C16.7836 19.0928 16.3517 19.6422 15.7887 20.0298C15.2258 20.4174 14.5585 20.6249 13.875 20.625H13.125V21.75C13.125 22.0484 13.0065 22.3345 12.7955 22.5455C12.5845 22.7565 12.2984 22.875 12 22.875C11.7016 22.875 11.4155 22.7565 11.2045 22.5455C10.9935 22.3345 10.875 22.0484 10.875 21.75V20.625H8.625C8.32663 20.625 8.04048 20.5065 7.8295 20.2955C7.61853 20.0845 7.5 19.7984 7.5 19.5C7.5 19.2016 7.61853 18.9155 7.8295 18.7045C8.04048 18.4935 8.32663 18.375 8.625 18.375H10.875V11.625H9.375C9.10932 11.6246 8.85207 11.7182 8.64882 11.8893C8.44557 12.0604 8.30943 12.298 8.26452 12.5598C8.2196 12.8217 8.26881 13.091 8.40343 13.32C8.53804 13.5491 8.74938 13.7231 9 13.8113C9.28196 13.9107 9.51286 14.1181 9.64191 14.3878C9.77096 14.6575 9.78758 14.9674 9.68812 15.2494C9.58867 15.5313 9.38128 15.7622 9.11158 15.8913C8.84188 16.0203 8.53196 16.037 8.25 15.9375C7.49542 15.6749 6.85847 15.1532 6.45245 14.4651C6.04643 13.777 5.89769 12.9672 6.03268 12.1797C6.16768 11.3922 6.57765 10.6782 7.18967 10.1646C7.80169 9.65105 8.57606 9.37125 9.375 9.375H10.875V2.25C10.875 1.95163 10.9935 1.66548 11.2045 1.4545C11.4155 1.24353 11.7016 1.125 12 1.125C12.2984 1.125 12.5845 1.24353 12.7955 1.4545C13.0065 1.66548 13.125 1.95163 13.125 2.25V9.375H16.875C17.3723 9.375 17.8492 9.17746 18.2008 8.82583C18.5525 8.47419 18.75 7.99728 18.75 7.5V7.40625C18.7488 6.93421 18.5607 6.48186 18.2269 6.14808C17.8931 5.8143 17.4408 5.62624 16.9688 5.625H15.375C15.0766 5.625 14.7905 5.50647 14.5795 5.2955C14.3685 5.08452 14.25 4.79837 14.25 4.5C14.25 4.20163 14.3685 3.91548 14.5795 3.7045C14.7905 3.49353 15.0766 3.375 15.375 3.375H16.9688C18.0375 3.37624 19.0622 3.80136 19.8179 4.5571C20.5736 5.31283 20.9988 6.33748 21 7.40625Z" fill="#130032"/>
</svg>
