<svg width="24" height="24" viewBox="0 0 24 24" fill="none" xmlns="http://www.w3.org/2000/svg">
<path d="M19.9173 10.0444L13.8057 12.4894L18.1379 18.0591C18.2293 18.1756 18.2969 18.309 18.3366 18.4517C18.3763 18.5944 18.3875 18.7435 18.3694 18.8905C18.3514 19.0375 18.3045 19.1795 18.2315 19.3083C18.1584 19.4372 18.0606 19.5503 17.9438 19.6413C17.8269 19.7323 17.6932 19.7992 17.5503 19.8384C17.4075 19.8776 17.2583 19.8882 17.1114 19.8696C16.9645 19.8509 16.8227 19.8035 16.6941 19.7299C16.5656 19.6564 16.4528 19.5582 16.3623 19.4409L12.0001 13.8328L7.63792 19.4409C7.45423 19.6751 7.18523 19.8269 6.88984 19.8632C6.59445 19.8994 6.29673 19.8171 6.06187 19.6343C5.82701 19.4516 5.67414 19.1832 5.63673 18.8879C5.59933 18.5927 5.68044 18.2946 5.8623 18.0591L10.1945 12.4894L4.08292 10.0444C3.94301 9.99153 3.81504 9.91131 3.7065 9.80841C3.59796 9.70552 3.51103 9.58202 3.45078 9.44513C3.39053 9.30824 3.35819 9.16071 3.35563 9.01118C3.35308 8.86164 3.38037 8.71309 3.4359 8.57422C3.49143 8.43536 3.5741 8.30896 3.67906 8.20242C3.78403 8.09588 3.90918 8.01133 4.0472 7.95373C4.18523 7.89614 4.33335 7.86664 4.48291 7.86696C4.63247 7.86729 4.78046 7.89743 4.91824 7.95563L10.8751 10.3388V3.75C10.8751 3.45163 10.9936 3.16548 11.2046 2.9545C11.4156 2.74353 11.7017 2.625 12.0001 2.625C12.2985 2.625 12.5846 2.74353 12.7956 2.9545C13.0066 3.16548 13.1251 3.45163 13.1251 3.75V10.3388L19.082 7.95563C19.2198 7.89743 19.3678 7.86729 19.5173 7.86696C19.6669 7.86664 19.815 7.89614 19.953 7.95373C20.091 8.01133 20.2162 8.09588 20.3212 8.20242C20.4261 8.30896 20.5088 8.43536 20.5643 8.57422C20.6199 8.71309 20.6471 8.86164 20.6446 9.01118C20.642 9.16071 20.6097 9.30824 20.5494 9.44513C20.4892 9.58202 20.4023 9.70552 20.2937 9.80841C20.1852 9.91131 20.0572 9.99153 19.9173 10.0444Z" fill="#130032"/>
</svg>
