<svg width="24" height="24" viewBox="0 0 24 24" fill="none" xmlns="http://www.w3.org/2000/svg">
<path d="M20.5529 14.9251C20.0811 13.9006 19.5162 12.9214 18.8654 12.0001C19.5162 11.0788 20.0811 10.0997 20.5529 9.07512C21.6629 6.60856 21.6489 4.62387 20.5126 3.48762C19.3764 2.35137 17.3917 2.33731 14.9251 3.44731C13.9006 3.91915 12.9214 4.48402 12.0001 5.13481C11.0788 4.48402 10.0997 3.91915 9.07512 3.44731C6.60856 2.33731 4.62387 2.35137 3.48762 3.48762C2.35137 4.62387 2.33731 6.60856 3.44731 9.07512C3.91915 10.0997 4.48402 11.0788 5.13481 12.0001C4.48402 12.9214 3.91915 13.9006 3.44731 14.9251C2.33731 17.3917 2.35137 19.3764 3.48762 20.5126C4.06231 21.0873 4.8545 21.3751 5.81262 21.3751C6.75012 21.3751 7.85356 21.1014 9.07137 20.5529C10.0959 20.0811 11.075 19.5162 11.9964 18.8654C12.9177 19.5162 13.8968 20.0811 14.9214 20.5529C16.1401 21.1014 17.2407 21.3751 18.1801 21.3751C19.142 21.3751 19.9342 21.0873 20.5089 20.5126C21.6489 19.3764 21.6629 17.3917 20.5529 14.9251ZM18.9207 5.08137C19.4129 5.5745 19.0886 7.51887 17.4207 10.1232C16.8948 9.49887 16.3286 8.88106 15.7267 8.27919C15.1248 7.67731 14.5032 7.10919 13.8751 6.58325C16.4832 4.91169 18.4276 4.58731 18.9207 5.0795V5.08137ZM16.0539 12.0001C15.4511 12.744 14.8092 13.4553 14.1311 14.1311C13.4553 14.8092 12.744 15.4511 12.0001 16.0539C11.2563 15.4511 10.545 14.8092 9.86919 14.1311C9.191 13.4553 8.54916 12.744 7.94637 12.0001C9.15531 10.5137 10.5137 9.15531 12.0001 7.94637C12.7442 8.54892 13.4555 9.19077 14.1311 9.86918C14.8095 10.5448 15.4513 11.2561 16.0539 12.0001ZM5.0795 5.0795C5.21637 4.94356 5.46387 4.8695 5.80606 4.8695C6.6995 4.8695 8.23794 5.37481 10.1186 6.58325C9.49419 7.10919 8.87637 7.67544 8.2745 8.27731C7.67262 8.87919 7.10919 9.497 6.58325 10.1251C4.91169 7.517 4.58731 5.57262 5.0795 5.0795ZM5.0795 18.9207C4.58731 18.4276 4.91169 16.4832 6.5795 13.8789C7.10544 14.5032 7.67169 15.1211 8.27356 15.7229C8.87544 16.3248 9.49231 16.8911 10.1176 17.417C7.517 19.0886 5.57262 19.4129 5.0795 18.9207ZM18.9207 18.9207C18.4276 19.4129 16.4832 19.0886 13.8789 17.4207C14.5032 16.8948 15.1211 16.3286 15.7229 15.7267C16.3248 15.1248 16.8911 14.5079 17.417 13.8826C19.0886 16.4832 19.4129 18.4276 18.9207 18.9207ZM13.5001 12.0001C13.5001 12.2968 13.4121 12.5868 13.2473 12.8335C13.0825 13.0802 12.8482 13.2724 12.5741 13.3859C12.3001 13.4995 11.9985 13.5292 11.7075 13.4713C11.4165 13.4134 11.1492 13.2706 10.9395 13.0608C10.7297 12.851 10.5868 12.5837 10.5289 12.2928C10.4711 12.0018 10.5008 11.7002 10.6143 11.4261C10.7278 11.152 10.9201 10.9177 11.1668 10.7529C11.4134 10.5881 11.7035 10.5001 12.0001 10.5001C12.3979 10.5001 12.7795 10.6582 13.0608 10.9395C13.3421 11.2208 13.5001 11.6023 13.5001 12.0001Z" fill="#130032"/>
</svg>
