<svg width="24" height="24" viewBox="0 0 24 24" fill="none" xmlns="http://www.w3.org/2000/svg">
<path d="M11.9999 10.125C11.0358 10.125 10.0932 10.4109 9.29154 10.9466C8.48985 11.4823 7.86501 12.2436 7.49603 13.1344C7.12705 14.0252 7.03051 15.0054 7.21862 15.9511C7.40672 16.8967 7.87102 17.7654 8.5528 18.4472C9.23458 19.1289 10.1032 19.5932 11.0489 19.7813C11.9945 19.9694 12.9747 19.8729 13.8655 19.5039C14.7563 19.1349 15.5177 18.5101 16.0534 17.7084C16.589 16.9067 16.8749 15.9642 16.8749 15C16.8735 13.7075 16.3594 12.4684 15.4454 11.5545C14.5315 10.6406 13.2924 10.1265 11.9999 10.125ZM11.9999 17.625C11.4808 17.625 10.9733 17.4711 10.5416 17.1826C10.1099 16.8942 9.77344 16.4842 9.57476 16.0046C9.37608 15.5249 9.3241 14.9971 9.42538 14.4879C9.52667 13.9787 9.77668 13.511 10.1438 13.1439C10.5109 12.7767 10.9786 12.5267 11.4878 12.4255C11.997 12.3242 12.5248 12.3761 13.0045 12.5748C13.4841 12.7735 13.8941 13.11 14.1826 13.5416C14.471 13.9733 14.6249 14.4808 14.6249 15C14.6249 15.6962 14.3484 16.3639 13.8561 16.8562C13.3638 17.3485 12.6961 17.625 11.9999 17.625ZM20.1337 12.1238L17.3437 4.2347C16.9764 3.11944 16.2694 2.14708 15.3216 1.45391C14.3739 0.760744 13.233 0.381534 12.0589 0.369439C10.8848 0.357345 9.73631 0.712972 8.77449 1.38647C7.81268 2.05996 7.08573 3.01756 6.69557 4.12501L3.92994 11.9494C3.4404 13.2473 3.27114 14.6442 3.43651 16.0215C3.60189 17.3987 4.09703 18.7158 4.87993 19.861C5.66282 21.0061 6.71037 21.9455 7.93371 22.5995C9.15705 23.2535 10.5201 23.6028 11.9072 23.6177C13.2943 23.6326 14.6645 23.3128 15.9017 22.6853C17.1388 22.0577 18.2063 21.1411 19.0137 20.0131C19.821 18.885 20.3444 17.5789 20.5394 16.2055C20.7344 14.8321 20.5952 13.4319 20.1337 12.1238ZM11.9999 21.375C10.9678 21.3743 9.95116 21.1231 9.0374 20.643C8.12364 20.1629 7.34002 19.4683 6.75377 18.6188C6.16752 17.7692 5.79616 16.7901 5.67156 15.7655C5.54695 14.7408 5.67283 13.7012 6.03838 12.736C6.03838 12.7275 6.04494 12.7191 6.04776 12.7116L8.81713 4.87501C9.05152 4.21004 9.48829 3.63518 10.0661 3.23113C10.6439 2.82708 11.3338 2.61414 12.0388 2.62221C12.7438 2.63027 13.4286 2.85894 13.997 3.2761C14.5655 3.69327 14.989 4.27798 15.2081 4.94814L15.2165 4.97345L18.0121 12.8747C18.3522 13.8364 18.4565 14.8657 18.3164 15.8761C18.1762 16.8865 17.7956 17.8484 17.2066 18.6813C16.6175 19.5141 15.8372 20.1934 14.9312 20.6621C14.0253 21.1308 13.02 21.3753 11.9999 21.375Z" fill="#130032"/>
</svg>
