<svg width="24" height="24" viewBox="0 0 24 24" fill="none" xmlns="http://www.w3.org/2000/svg">
<g clip-path="url(#clip0_7_18895)">
<path d="M23.9001 9.03964C23.7878 8.70718 23.5844 8.41293 23.3131 8.19035C23.0418 7.96777 22.7134 7.8258 22.3654 7.78058C21.0619 7.60888 19.7978 7.21371 18.6286 6.61245L18.9961 6.24495C19.5587 5.68228 19.8748 4.91913 19.8748 4.12339C19.8748 3.32765 19.5587 2.5645 18.9961 2.00183C18.7175 1.72322 18.3867 1.50222 18.0227 1.35143C17.6587 1.20065 17.2685 1.12305 16.8745 1.12305C16.0788 1.12305 15.3156 1.43915 14.7529 2.00183L14.1258 2.62901C13.9651 2.41355 13.7599 2.23515 13.5242 2.10591C13.2886 1.97667 13.0279 1.89962 12.7598 1.87997C12.4917 1.86032 12.2226 1.89853 11.9705 1.99202C11.7185 2.08551 11.4896 2.23209 11.2992 2.42183L7.67294 6.04808C7.48305 6.23848 7.33633 6.4675 7.24274 6.71959C7.14916 6.97169 7.11089 7.24097 7.13054 7.50916C7.15019 7.77735 7.2273 8.03818 7.35664 8.27394C7.48597 8.50971 7.66451 8.71489 7.88013 8.87558L0.877941 15.8787C0.315267 16.4413 -0.000888636 17.2043 -0.000976544 17.9999C-0.00106445 18.7956 0.314923 19.5587 0.877472 20.1214C1.44002 20.684 2.20305 21.0002 2.9987 21.0003C3.79436 21.0004 4.55746 20.6844 5.12013 20.1218L11.8626 13.3784C12.4642 14.5476 12.8597 15.8117 13.0317 17.1153C13.0763 17.4632 13.2175 17.7916 13.4394 18.0632C13.6613 18.3348 13.955 18.5387 14.287 18.6518C14.619 18.7649 14.9761 18.7826 15.3176 18.7029C15.6592 18.6232 15.9715 18.4492 16.2192 18.2009L23.4501 10.9681C23.6989 10.7215 23.8732 10.4098 23.9528 10.0686C24.0324 9.72752 24.0141 9.37086 23.9001 9.03964ZM16.3439 3.59276C16.4136 3.52308 16.4963 3.46781 16.5873 3.43009C16.6784 3.39238 16.776 3.37297 16.8745 3.37297C16.9731 3.37297 17.0706 3.39238 17.1617 3.43009C17.2527 3.46781 17.3354 3.52308 17.4051 3.59276C17.4748 3.66245 17.5301 3.74517 17.5678 3.83622C17.6055 3.92726 17.6249 4.02484 17.6249 4.12339C17.6249 4.22194 17.6055 4.31952 17.5678 4.41056C17.5301 4.50161 17.4748 4.58433 17.4051 4.65401L16.6945 5.3637C16.302 5.05229 15.9282 4.71796 15.5751 4.36245L16.3439 3.59276ZM3.52919 18.5309C3.45951 18.6005 3.3768 18.6557 3.28577 18.6934C3.19475 18.731 3.09721 18.7504 2.9987 18.7503C2.9002 18.7503 2.80267 18.7309 2.71168 18.6931C2.62069 18.6554 2.53803 18.6001 2.46841 18.5304C2.39879 18.4607 2.34357 18.378 2.30592 18.287C2.26826 18.196 2.24891 18.0984 2.24895 17.9999C2.24899 17.9014 2.26844 17.8039 2.30617 17.7129C2.34391 17.6219 2.3992 17.5393 2.46888 17.4696L9.61357 10.325C9.96908 10.678 10.3034 11.0518 10.6148 11.4443L3.52919 18.5309ZM15.1429 16.0934C14.2992 11.5465 11.4614 8.73964 9.57607 7.33058L12.5761 4.33058C13.9823 6.21589 16.7948 9.04995 21.337 9.89745L15.1429 16.0934Z" fill="#130032"/>
</g>
<defs>
<clipPath id="clip0_7_18895">
<rect width="24" height="24" fill="white"/>
</clipPath>
</defs>
</svg>
