<svg width="24" height="24" viewBox="0 0 24 24" fill="none" xmlns="http://www.w3.org/2000/svg">
<path d="M15 2.625H14.25C13.7527 2.625 13.2758 2.82254 12.9242 3.17417C12.5725 3.52581 12.375 4.00272 12.375 4.5V9.375H5.4525C5.21219 8.61427 4.73594 7.94981 4.09274 7.47785C3.44953 7.0059 2.67278 6.75097 1.875 6.75C1.57663 6.75 1.29048 6.86853 1.0795 7.0795C0.868526 7.29048 0.75 7.57663 0.75 7.875C0.75 8.17337 0.868526 8.45952 1.0795 8.6705C1.29048 8.88147 1.57663 9 1.875 9C2.27282 9 2.65436 9.15804 2.93566 9.43934C3.21696 9.72064 3.375 10.1022 3.375 10.5C3.37723 12.5879 4.20764 14.5896 5.684 16.066C7.16037 17.5424 9.16211 18.3728 11.25 18.375H15C17.0886 18.375 19.0916 17.5453 20.5685 16.0685C22.0453 14.5916 22.875 12.5886 22.875 10.5C22.875 8.41142 22.0453 6.40838 20.5685 4.93153C19.0916 3.45469 17.0886 2.625 15 2.625ZM19.5056 7.13625C20.0028 7.79869 20.3464 8.5634 20.5116 9.375H16.7072L19.5056 7.13625ZM15 4.875C15.9819 4.8752 16.9464 5.13387 17.7966 5.625L14.625 8.15625V4.875H15ZM15 16.125H11.25C9.95389 16.1233 8.69801 15.6748 7.69403 14.8551C6.69005 14.0354 5.99938 12.8946 5.73844 11.625H20.5116C20.2506 12.8946 19.5599 14.0354 18.556 14.8551C17.552 15.6748 16.2961 16.1233 15 16.125ZM10.125 21C10.125 21.3708 10.015 21.7334 9.80901 22.0417C9.60298 22.35 9.31014 22.5904 8.96753 22.7323C8.62492 22.8742 8.24792 22.9113 7.88421 22.839C7.52049 22.7666 7.1864 22.588 6.92417 22.3258C6.66195 22.0636 6.48337 21.7295 6.41103 21.3658C6.33868 21.0021 6.37581 20.6251 6.51773 20.2825C6.65964 19.9399 6.89996 19.647 7.20831 19.441C7.51665 19.235 7.87916 19.125 8.25 19.125C8.74728 19.125 9.22419 19.3225 9.57582 19.6742C9.92746 20.0258 10.125 20.5027 10.125 21ZM19.875 21C19.875 21.3708 19.765 21.7334 19.559 22.0417C19.353 22.35 19.0601 22.5904 18.7175 22.7323C18.3749 22.8742 17.9979 22.9113 17.6342 22.839C17.2705 22.7666 16.9364 22.588 16.6742 22.3258C16.412 22.0636 16.2334 21.7295 16.161 21.3658C16.0887 21.0021 16.1258 20.6251 16.2677 20.2825C16.4096 19.9399 16.65 19.647 16.9583 19.441C17.2666 19.235 17.6292 19.125 18 19.125C18.4973 19.125 18.9742 19.3225 19.3258 19.6742C19.6775 20.0258 19.875 20.5027 19.875 21Z" fill="#130032"/>
</svg>
