<svg width="24" height="24" viewBox="0 0 24 24" fill="none" xmlns="http://www.w3.org/2000/svg">
<path d="M20.2498 3.375H6.42447C6.10085 3.37582 5.78289 3.46001 5.50127 3.61946C5.21965 3.77891 4.98387 4.00823 4.81666 4.28531L0.535098 11.4216C0.430335 11.5963 0.375 11.7962 0.375 12C0.375 12.2038 0.430335 12.4037 0.535098 12.5784L4.81666 19.7147C4.98387 19.9918 5.21965 20.2211 5.50127 20.3805C5.78289 20.54 6.10085 20.6242 6.42447 20.625H20.2498C20.7471 20.625 21.224 20.4275 21.5756 20.0758C21.9272 19.7242 22.1248 19.2473 22.1248 18.75V5.25C22.1248 4.75272 21.9272 4.27581 21.5756 3.92417C21.224 3.57254 20.7471 3.375 20.2498 3.375ZM19.8748 18.375H6.63729L2.81229 12L6.63729 5.625H19.8748V18.375ZM9.70385 13.4541L11.156 12L9.70104 10.5459C9.48969 10.3346 9.37096 10.0479 9.37096 9.74906C9.37096 9.45018 9.48969 9.16353 9.70104 8.95219C9.91238 8.74084 10.199 8.62211 10.4979 8.62211C10.7968 8.62211 11.0834 8.74084 11.2948 8.95219L12.7498 10.4062L14.2038 8.95125C14.4152 8.73991 14.7018 8.62117 15.0007 8.62117C15.2996 8.62117 15.5863 8.73991 15.7976 8.95125C16.0089 9.16259 16.1277 9.44924 16.1277 9.74813C16.1277 10.047 16.0089 10.3337 15.7976 10.545L14.3435 12L15.7985 13.4541C16.0099 13.6654 16.1286 13.9521 16.1286 14.2509C16.1286 14.5498 16.0099 14.8365 15.7985 15.0478C15.5872 15.2592 15.3005 15.3779 15.0017 15.3779C14.7028 15.3779 14.4161 15.2592 14.2048 15.0478L12.7498 13.5938L11.2957 15.0487C11.0844 15.2601 10.7977 15.3788 10.4988 15.3788C10.2 15.3788 9.91332 15.2601 9.70197 15.0487C9.49063 14.8374 9.3719 14.5508 9.3719 14.2519C9.3719 13.953 9.49063 13.6663 9.70197 13.455L9.70385 13.4541Z" fill="#130032"/>
</svg>
