<svg width="24" height="24" viewBox="0 0 24 24" fill="none" xmlns="http://www.w3.org/2000/svg">
<path d="M16.125 4.55156V3.375C16.125 2.67881 15.8484 2.01113 15.3562 1.51884C14.8639 1.02656 14.1962 0.75 13.5 0.75H10.5C9.80381 0.75 9.13613 1.02656 8.64384 1.51884C8.15156 2.01113 7.875 2.67881 7.875 3.375V4.55156C6.52611 4.73463 5.28916 5.40001 4.39294 6.42462C3.49673 7.44923 3.00191 8.76374 3 10.125V20.625C3 21.1223 3.19754 21.5992 3.54917 21.9508C3.90081 22.3025 4.37772 22.5 4.875 22.5H19.125C19.6223 22.5 20.0992 22.3025 20.4508 21.9508C20.8025 21.5992 21 21.1223 21 20.625V10.125C20.9981 8.76374 20.5033 7.44923 19.6071 6.42462C18.7108 5.40001 17.4739 4.73463 16.125 4.55156ZM10.5 3H13.5C13.5995 3 13.6948 3.03951 13.7652 3.10984C13.8355 3.18016 13.875 3.27554 13.875 3.375V4.5H10.125V3.375C10.125 3.27554 10.1645 3.18016 10.2348 3.10984C10.3052 3.03951 10.4005 3 10.5 3ZM15 15H9V14.25C9 14.1505 9.03951 14.0552 9.10983 13.9848C9.18016 13.9145 9.27554 13.875 9.375 13.875H14.625C14.7245 13.875 14.8198 13.9145 14.8902 13.9848C14.9605 14.0552 15 14.1505 15 14.25V15ZM9 17.25H15V20.25H9V17.25ZM18.75 20.25H17.25V14.25C17.25 13.5538 16.9734 12.8861 16.4812 12.3938C15.9889 11.9016 15.3212 11.625 14.625 11.625H9.375C8.67881 11.625 8.01113 11.9016 7.51884 12.3938C7.02656 12.8861 6.75 13.5538 6.75 14.25V20.25H5.25V10.125C5.25 9.22989 5.60558 8.37145 6.23851 7.73851C6.87145 7.10558 7.72989 6.75 8.625 6.75H15.375C16.2701 6.75 17.1285 7.10558 17.7615 7.73851C18.3944 8.37145 18.75 9.22989 18.75 10.125V20.25ZM15 9.375C15 9.67337 14.8815 9.95952 14.6705 10.1705C14.4595 10.3815 14.1734 10.5 13.875 10.5H10.125C9.82663 10.5 9.54048 10.3815 9.3295 10.1705C9.11853 9.95952 9 9.67337 9 9.375C9 9.07663 9.11853 8.79048 9.3295 8.5795C9.54048 8.36853 9.82663 8.25 10.125 8.25H13.875C14.1734 8.25 14.4595 8.36853 14.6705 8.5795C14.8815 8.79048 15 9.07663 15 9.375Z" fill="#130032"/>
</svg>
