<svg width="24" height="24" viewBox="0 0 24 24" fill="none" xmlns="http://www.w3.org/2000/svg">
<path d="M20.25 5.62566H16.8591C16.7601 4.40491 16.2053 3.26614 15.305 2.43583C14.4046 1.60553 13.2247 1.14453 12 1.14453C10.7753 1.14453 9.59538 1.60553 8.69504 2.43583C7.79471 3.26614 7.23989 4.40491 7.14094 5.62566H3.75C3.25272 5.62566 2.77581 5.8232 2.42417 6.17483C2.07254 6.52646 1.875 7.00338 1.875 7.50066V18.7507C1.875 19.2479 2.07254 19.7248 2.42417 20.0765C2.77581 20.4281 3.25272 20.6257 3.75 20.6257H20.25C20.7473 20.6257 21.2242 20.4281 21.5758 20.0765C21.9275 19.7248 22.125 19.2479 22.125 18.7507V7.50066C22.125 7.00338 21.9275 6.52646 21.5758 6.17483C21.2242 5.8232 20.7473 5.62566 20.25 5.62566ZM12 3.37566C12.6312 3.37572 13.2412 3.6032 13.7183 4.01643C14.1954 4.42966 14.5076 5.00095 14.5978 5.62566H9.40219C9.49236 5.00095 9.80459 4.42966 10.2817 4.01643C10.7588 3.6032 11.3688 3.37572 12 3.37566ZM19.875 18.3757H4.125V7.87566H19.875V18.3757Z" fill="#130032"/>
</svg>
