<svg width="24" height="24" viewBox="0 0 24 24" fill="none" xmlns="http://www.w3.org/2000/svg">
<path d="M12 1.125C9.71327 1.12748 7.52091 2.03698 5.90394 3.65394C4.28698 5.27091 3.37748 7.46327 3.375 9.75C3.375 12.0497 4.27031 14.4497 5.83031 16.3331C6.76781 17.4581 7.85156 18.3084 9.0225 18.8419L7.96875 21.3066C7.89545 21.4775 7.86566 21.6639 7.88204 21.8491C7.89843 22.0344 7.96049 22.2127 8.06265 22.3681C8.16482 22.5235 8.30392 22.6511 8.4675 22.7396C8.63107 22.828 8.81403 22.8746 9 22.875H15C15.186 22.8746 15.3689 22.828 15.5325 22.7396C15.6961 22.6511 15.8352 22.5235 15.9373 22.3681C16.0395 22.2127 16.1016 22.0344 16.118 21.8491C16.1343 21.6639 16.1046 21.4775 16.0312 21.3066L14.9775 18.8438C16.1484 18.3103 17.235 17.4628 18.1697 16.335C19.7297 14.4497 20.625 12.0497 20.625 9.75C20.6225 7.46327 19.713 5.27091 18.0961 3.65394C16.4791 2.03698 14.2867 1.12748 12 1.125ZM13.2938 20.625H10.7062L11.2078 19.4541C11.7342 19.5153 12.2658 19.5153 12.7922 19.4541L13.2938 20.625ZM16.4372 14.8978C15.1809 16.4147 13.605 17.25 12 17.25C10.395 17.25 8.81906 16.4147 7.56281 14.8978C6.34969 13.4334 5.625 11.5087 5.625 9.75C5.625 8.05925 6.29665 6.43774 7.49219 5.24219C8.68774 4.04665 10.3092 3.375 12 3.375C13.6908 3.375 15.3123 4.04665 16.5078 5.24219C17.7034 6.43774 18.375 8.05925 18.375 9.75C18.375 11.5087 17.6503 13.4334 16.4372 14.8978ZM15.8428 10.4916C15.8053 10.4953 15.7678 10.4972 15.7303 10.4972C15.4514 10.4969 15.1826 10.3931 14.9759 10.2059C14.7693 10.0186 14.6395 9.76125 14.6119 9.48375C14.5604 8.97247 14.36 8.48754 14.0356 8.08908C13.7111 7.69062 13.2768 7.39615 12.7866 7.24219C12.6457 7.19774 12.5149 7.12598 12.4017 7.031C12.2885 6.93602 12.1952 6.81967 12.127 6.68861C12.0588 6.55755 12.0171 6.41434 12.0042 6.26715C11.9913 6.11996 12.0076 5.97169 12.052 5.83078C12.0965 5.68988 12.1682 5.55911 12.2632 5.44594C12.3582 5.33277 12.4745 5.23941 12.6056 5.1712C12.7367 5.103 12.8799 5.06127 13.0271 5.04841C13.1743 5.03555 13.3225 5.05181 13.4634 5.09625C14.374 5.38207 15.1805 5.92916 15.7827 6.66954C16.3849 7.40992 16.7563 8.31094 16.8506 9.26062C16.8657 9.40777 16.8515 9.55644 16.8091 9.69812C16.7666 9.8398 16.6966 9.97171 16.603 10.0863C16.5095 10.2009 16.3943 10.2959 16.264 10.3659C16.1337 10.436 15.9909 10.4796 15.8438 10.4944L15.8428 10.4916Z" fill="#130032"/>
</svg>
