<svg width="24" height="24" viewBox="0 0 24 24" fill="none" xmlns="http://www.w3.org/2000/svg">
<path d="M17.8344 11.9994L20.1669 9.66592C20.5582 9.28476 20.8699 8.82968 21.084 8.32707C21.298 7.82447 21.4101 7.28436 21.4137 6.7381C21.4173 6.19184 21.3123 5.6503 21.1049 5.14493C20.8975 4.63955 20.5918 4.1804 20.2056 3.79412C19.8193 3.40785 19.3601 3.10214 18.8548 2.89476C18.3494 2.68737 17.8078 2.58243 17.2616 2.58603C16.7153 2.58962 16.1752 2.70169 15.6726 2.91571C15.17 3.12974 14.7149 3.44146 14.3338 3.83279L12.0003 6.16529L9.66689 3.83279C9.28574 3.44146 8.83065 3.12974 8.32805 2.91571C7.82545 2.70169 7.28534 2.58962 6.73908 2.58603C6.19282 2.58243 5.65128 2.68737 5.1459 2.89476C4.64052 3.10214 4.18137 3.40785 3.7951 3.79412C3.40882 4.1804 3.10312 4.63955 2.89573 5.14493C2.68835 5.6503 2.58341 6.19184 2.587 6.7381C2.5906 7.28436 2.70266 7.82447 2.91669 8.32707C3.13071 8.82968 3.44244 9.28476 3.83377 9.66592L6.16627 11.9994L3.83377 14.3328C3.44244 14.7139 3.13071 15.169 2.91669 15.6716C2.70266 16.1742 2.5906 16.7143 2.587 17.2606C2.58341 17.8069 2.68835 18.3484 2.89573 18.8538C3.10312 19.3592 3.40882 19.8183 3.7951 20.2046C4.18137 20.5909 4.64052 20.8966 5.1459 21.1039C5.65128 21.3113 6.19282 21.4163 6.73908 21.4127C7.28534 21.4091 7.82545 21.297 8.32805 21.083C8.83065 20.869 9.28574 20.5572 9.66689 20.1659L12.0003 17.8334L14.3338 20.1659C14.7149 20.5572 15.17 20.869 15.6726 21.083C16.1752 21.297 16.7153 21.4091 17.2616 21.4127C17.8078 21.4163 18.3494 21.3113 18.8548 21.1039C19.3601 20.8966 19.8193 20.5909 20.2056 20.2046C20.5918 19.8183 20.8975 19.3592 21.1049 18.8538C21.3123 18.3484 21.4173 17.8069 21.4137 17.2606C21.4101 16.7143 21.298 16.1742 21.084 15.6716C20.8699 15.169 20.5582 14.7139 20.1669 14.3328L17.8344 11.9994ZM15.9247 5.42373C16.0977 5.24465 16.3046 5.1018 16.5333 5.00354C16.7621 4.90527 17.0081 4.85355 17.2571 4.85138C17.506 4.84922 17.7529 4.89666 17.9834 4.99094C18.2138 5.08521 18.4231 5.22444 18.5992 5.40049C18.7752 5.57654 18.9145 5.78588 19.0087 6.01631C19.103 6.24674 19.1505 6.49364 19.1483 6.7426C19.1461 6.99157 19.0944 7.2376 18.9961 7.46636C18.8979 7.69512 18.755 7.90201 18.576 8.07498L16.2425 10.4056L13.5941 7.75716L15.9247 5.42373ZM14.6516 11.9994L12.0003 14.6506L9.34908 11.9994L12.0003 9.3481L14.6516 11.9994ZM5.4247 8.07498C5.24562 7.90201 5.10278 7.69512 5.00451 7.46636C4.90625 7.2376 4.85452 6.99157 4.85236 6.7426C4.8502 6.49364 4.89764 6.24674 4.99191 6.01631C5.08619 5.78588 5.22541 5.57654 5.40146 5.40049C5.57751 5.22444 5.78686 5.08521 6.01729 4.99094C6.24772 4.89666 6.49462 4.84922 6.74358 4.85138C6.99254 4.85355 7.23858 4.90527 7.46734 5.00354C7.69609 5.1018 7.90299 5.24465 8.07595 5.42373L10.4066 7.75716L7.75814 10.4056L5.4247 8.07498ZM8.07595 18.575C7.90299 18.7541 7.69609 18.8969 7.46734 18.9952C7.23858 19.0934 6.99254 19.1452 6.74358 19.1473C6.49462 19.1495 6.24772 19.102 6.01729 19.0078C5.78686 18.9135 5.57751 18.7743 5.40146 18.5982C5.22541 18.4222 5.08619 18.2128 4.99191 17.9824C4.89764 17.752 4.8502 17.5051 4.85236 17.2561C4.85452 17.0071 4.90625 16.7611 5.00451 16.5323C5.10278 16.3036 5.24562 16.0967 5.4247 15.9237L7.75814 13.5931L10.4066 16.2415L8.07595 18.575ZM18.576 18.575C18.2243 18.9265 17.7475 19.124 17.2503 19.124C16.7531 19.124 16.2763 18.9265 15.9247 18.575L13.5941 16.2415L16.2425 13.5931L18.576 15.9265C18.9275 16.2782 19.1249 16.755 19.1249 17.2522C19.1249 17.7493 18.9275 18.2262 18.576 18.5778V18.575Z" fill="#130032"/>
</svg>
