<svg width="24" height="24" viewBox="0 0 24 24" fill="none" xmlns="http://www.w3.org/2000/svg">
<path d="M9.37486 7.87572C9.37486 7.57735 9.49339 7.2912 9.70436 7.08022C9.91534 6.86924 10.2015 6.75072 10.4999 6.75072H13.4999C13.7982 6.75072 14.0844 6.86924 14.2954 7.08022C14.5063 7.2912 14.6249 7.57735 14.6249 7.87572C14.6249 8.17409 14.5063 8.46023 14.2954 8.67121C14.0844 8.88219 13.7982 9.00072 13.4999 9.00072H10.4999C10.2015 9.00072 9.91534 8.88219 9.70436 8.67121C9.49339 8.46023 9.37486 8.17409 9.37486 7.87572ZM23.6249 18.7507C23.6249 19.0491 23.5063 19.3352 23.2954 19.5462C23.0844 19.7572 22.7982 19.8757 22.4999 19.8757H1.49986C1.20149 19.8757 0.915344 19.7572 0.704366 19.5462C0.493387 19.3352 0.374861 19.0491 0.374861 18.7507C0.374861 18.4523 0.493387 18.1662 0.704366 17.9552C0.915344 17.7442 1.20149 17.6257 1.49986 17.6257H1.87486V13.061C1.64902 13.1412 1.40347 13.1471 1.17401 13.078C0.944549 13.0089 0.743158 12.8683 0.599184 12.6767C0.45521 12.4851 0.376177 12.2526 0.3736 12.0129C0.371024 11.7733 0.445039 11.5391 0.584861 11.3445L4.33486 6.09447C4.4102 5.98848 4.50348 5.89648 4.61049 5.82259L10.9442 1.44915L10.9602 1.43884C11.2678 1.23296 11.6297 1.12305 11.9999 1.12305C12.37 1.12305 12.7319 1.23296 13.0395 1.43884L13.0555 1.44915L19.3892 5.82259C19.4962 5.89648 19.5895 5.98848 19.6649 6.09447L23.4149 11.3445C23.5547 11.5391 23.6287 11.7733 23.6261 12.0129C23.6235 12.2526 23.5445 12.4851 23.4005 12.6767C23.2566 12.8683 23.0552 13.0089 22.8257 13.078C22.5962 13.1471 22.3507 13.1412 22.1249 13.061V17.6257H22.4999C22.7982 17.6257 23.0844 17.7442 23.2954 17.9552C23.5063 18.1662 23.6249 18.4523 23.6249 18.7507ZM4.12486 17.6257H5.99986V11.6257C5.99986 11.3273 6.11839 11.0412 6.32937 10.8302C6.54034 10.6192 6.82649 10.5007 7.12486 10.5007H16.8749C17.1732 10.5007 17.4594 10.6192 17.6704 10.8302C17.8813 11.0412 17.9999 11.3273 17.9999 11.6257V17.6257H19.8749V10.2617L17.9483 7.5654L11.9999 3.45728L6.05142 7.5654L4.12486 10.2617V17.6257ZM15.7499 12.7507H10.678L15.7499 16.3198V12.7507ZM8.24986 17.6257H13.6967L8.24986 13.7932V17.6257Z" fill="#130032"/>
</svg>
