<svg width="24" height="24" viewBox="0 0 24 24" fill="none" xmlns="http://www.w3.org/2000/svg">
<path d="M12 1.875C9.31561 1.87798 6.742 2.94567 4.84384 4.84383C2.94568 6.74199 1.87799 9.3156 1.87501 12V17.25C1.87359 17.7339 2.0066 18.2086 2.2592 18.6213C2.51181 19.034 2.87409 19.3684 3.30564 19.5872C3.73861 19.8084 4.22453 19.9051 4.70921 19.8663C5.1939 19.8276 5.6583 19.655 6.05064 19.3678C7.14376 18.5728 9.06376 17.625 12 17.625C14.9363 17.625 16.8563 18.5719 17.9494 19.3669C18.3406 19.6533 18.8034 19.8257 19.2866 19.8651C19.7699 19.9045 20.2545 19.8094 20.687 19.5901C21.1194 19.3709 21.4827 19.0362 21.7365 18.6232C21.9903 18.2101 22.1248 17.7348 22.125 17.25V12C22.122 9.3156 21.0543 6.74199 19.1562 4.84383C17.258 2.94567 14.6844 1.87798 12 1.875ZM19.875 12V12.1753C18.8854 11.6185 17.8392 11.1691 16.7541 10.8347C16.4692 8.61009 15.7202 6.47013 14.5556 4.55344C16.1064 5.08756 17.4522 6.09183 18.4056 7.42648C19.359 8.76114 19.8726 10.3598 19.875 12ZM14.3944 10.3012C12.8068 10.0662 11.1932 10.0662 9.60564 10.3012C9.99539 8.30809 10.8122 6.42299 12 4.77562C13.1876 6.4231 14.0044 8.30815 14.3944 10.3012ZM9.44439 4.55344C8.2798 6.47013 7.53082 8.61009 7.24595 10.8347C6.16085 11.1691 5.1146 11.6185 4.12501 12.1753V12C4.12742 10.3598 4.64106 8.76114 5.59446 7.42648C6.54786 6.09183 7.89359 5.08756 9.44439 4.55344ZM19.6735 17.5847C19.6103 17.6178 19.539 17.6322 19.4679 17.6262C19.3968 17.6203 19.3289 17.5941 19.2722 17.5509C17.9063 16.5572 15.5409 15.375 12 15.375C8.45907 15.375 6.09376 16.5572 4.72782 17.5481C4.67107 17.5913 4.60318 17.6174 4.53211 17.6234C4.46104 17.6294 4.38974 17.615 4.32657 17.5819C4.26417 17.5524 4.21181 17.5052 4.17598 17.4462C4.14015 17.3872 4.12242 17.319 4.12501 17.25V14.8256C6.44086 13.2292 9.18722 12.3743 12 12.3743C14.8128 12.3743 17.5592 13.2292 19.875 14.8256V17.25C19.8776 17.319 19.8599 17.3872 19.824 17.4462C19.7882 17.5052 19.7358 17.5524 19.6735 17.5819V17.5847Z" fill="#130032"/>
</svg>
