<svg width="24" height="24" viewBox="0 0 24 24" fill="none" xmlns="http://www.w3.org/2000/svg">
<path d="M13.1252 11.9997V15.7497C13.1252 16.0481 13.0067 16.3342 12.7957 16.5452C12.5848 16.7562 12.2986 16.8747 12.0002 16.8747C11.7019 16.8747 11.4157 16.7562 11.2047 16.5452C10.9938 16.3342 10.8752 16.0481 10.8752 15.7497V11.9997C10.8752 11.7013 10.9938 11.4152 11.2047 11.2042C11.4157 10.9932 11.7019 10.8747 12.0002 10.8747C12.2986 10.8747 12.5848 10.9932 12.7957 11.2042C13.0067 11.4152 13.1252 11.7013 13.1252 11.9997ZM15.7559 11.8881L15.3809 15.6381C15.3513 15.935 15.4409 16.2315 15.6299 16.4623C15.8189 16.6932 16.0918 16.8395 16.3887 16.8691C16.4262 16.8691 16.4646 16.8747 16.5012 16.8747C16.7801 16.8745 17.0489 16.7706 17.2556 16.5834C17.4622 16.3961 17.592 16.1388 17.6196 15.8613L17.9946 12.1113C18.0205 11.8163 17.929 11.5231 17.7401 11.2952C17.5512 11.0672 17.2801 10.9229 16.9855 10.8935C16.6909 10.8642 16.3966 10.9521 16.1664 11.1383C15.9362 11.3245 15.7887 11.5939 15.7559 11.8881ZM8.24462 11.8881C8.21176 11.5939 8.06425 11.3245 7.83407 11.1383C7.60389 10.9521 7.30959 10.8642 7.015 10.8935C6.7204 10.9229 6.44925 11.0672 6.26035 11.2952C6.07144 11.5231 5.98001 11.8163 6.00587 12.1113L6.38087 15.8613C6.40854 16.1389 6.53841 16.3964 6.74527 16.5837C6.95213 16.771 7.2212 16.8747 7.50024 16.8747C7.53681 16.8747 7.57524 16.8747 7.61274 16.8691C7.90961 16.8395 8.18256 16.6932 8.37156 16.4623C8.56056 16.2315 8.65012 15.935 8.62056 15.6381L8.24462 11.8881ZM22.8696 8.39877L21.4568 18.9925C21.3966 19.444 21.1746 19.8584 20.832 20.1586C20.4894 20.4587 20.0495 20.6244 19.594 20.6247H4.40649C3.9525 20.6234 3.51429 20.4579 3.17277 20.1588C2.83125 19.8597 2.60947 19.4471 2.54837 18.9972L1.13556 8.40346C1.11359 8.24422 1.126 8.08212 1.17195 7.92809C1.21791 7.77405 1.29634 7.63165 1.40197 7.51048C1.50759 7.38931 1.63796 7.29218 1.78428 7.22563C1.93061 7.15909 2.0895 7.12467 2.25024 7.12471H6.23931L11.1565 1.50908C11.2621 1.38844 11.3922 1.29175 11.5382 1.22551C11.6843 1.15927 11.8427 1.125 12.0031 1.125C12.1634 1.125 12.3219 1.15927 12.4679 1.22551C12.6139 1.29175 12.744 1.38844 12.8496 1.50908L17.7612 7.12471H21.7502C21.9105 7.12476 22.069 7.15907 22.2149 7.22534C22.3609 7.29161 22.491 7.3883 22.5965 7.50893C22.7021 7.62957 22.7806 7.77138 22.8269 7.92484C22.8732 8.07831 22.8862 8.23989 22.8649 8.39877H22.8696ZM9.22993 7.12471H14.7706L12.0002 3.95783L9.22993 7.12471ZM20.4649 9.37471H3.53556L4.73556 18.3747H19.2668L20.4649 9.37471Z" fill="#130032"/>
</svg>
