<svg width="24" height="24" viewBox="0 0 24 24" fill="none" xmlns="http://www.w3.org/2000/svg">
<path d="M22.5 8.62569H19.8094C19.7319 8.40656 19.5885 8.2168 19.3988 8.0825C19.2091 7.94821 18.9824 7.87596 18.75 7.87569H12.75C12.5176 7.87596 12.2909 7.94821 12.1012 8.0825C11.9115 8.2168 11.7681 8.40656 11.6906 8.62569H6.375V4.87569C6.375 4.67678 6.45402 4.48601 6.59467 4.34536C6.73532 4.20471 6.92609 4.12569 7.125 4.12569C7.30201 4.12557 7.47402 4.18438 7.6139 4.29285C7.75378 4.40133 7.85356 4.55329 7.8975 4.72476C7.95692 5.01716 8.13007 5.27398 8.37885 5.43871C8.62763 5.60345 8.93166 5.66262 9.22406 5.60319C9.51646 5.54377 9.77328 5.37062 9.93802 5.12184C10.1028 4.87306 10.1619 4.56903 10.1025 4.27663C9.95014 3.54649 9.53302 2.89854 8.93148 2.45755C8.32994 2.01657 7.58651 1.81373 6.84435 1.88811C6.1022 1.96249 5.41381 2.30882 4.91175 2.86041C4.40968 3.412 4.12944 4.12984 4.125 4.87569V8.62569H1.5C1.20163 8.62569 0.915483 8.74422 0.704505 8.9552C0.493526 9.16618 0.375 9.45232 0.375 9.75069V13.5007C0.376946 14.9269 0.919947 16.2992 1.89438 17.3407C2.8688 18.3821 4.20207 19.015 5.625 19.1116V20.2507C5.625 20.5491 5.74353 20.8352 5.9545 21.0462C6.16548 21.2572 6.45163 21.3757 6.75 21.3757C7.04837 21.3757 7.33452 21.2572 7.5455 21.0462C7.75647 20.8352 7.875 20.5491 7.875 20.2507V19.1257H16.125V20.2507C16.125 20.5491 16.2435 20.8352 16.4545 21.0462C16.6655 21.2572 16.9516 21.3757 17.25 21.3757C17.5484 21.3757 17.8345 21.2572 18.0455 21.0462C18.2565 20.8352 18.375 20.5491 18.375 20.2507V19.1116C19.7979 19.015 21.1312 18.3821 22.1056 17.3407C23.0801 16.2992 23.6231 14.9269 23.625 13.5007V9.75069C23.625 9.45232 23.5065 9.16618 23.2955 8.9552C23.0845 8.74422 22.7984 8.62569 22.5 8.62569ZM13.875 10.1257H17.625V12.3757H13.875V10.1257ZM21.375 13.5007C21.375 14.3958 21.0194 15.2542 20.3865 15.8872C19.7535 16.5201 18.8951 16.8757 18 16.8757H6C5.10489 16.8757 4.24645 16.5201 3.61351 15.8872C2.98058 15.2542 2.625 14.3958 2.625 13.5007V10.8757H11.625V13.5007C11.625 13.7991 11.7435 14.0852 11.9545 14.2962C12.1655 14.5072 12.4516 14.6257 12.75 14.6257H18.75C19.0484 14.6257 19.3345 14.5072 19.5455 14.2962C19.7565 14.0852 19.875 13.7991 19.875 13.5007V10.8757H21.375V13.5007Z" fill="#130032"/>
</svg>
