<svg width="24" height="24" viewBox="0 0 24 24" fill="none" xmlns="http://www.w3.org/2000/svg">
<path d="M10.875 12.75V9.375C10.875 9.07663 10.9935 8.79048 11.2045 8.5795C11.4155 8.36853 11.7016 8.25 12 8.25C12.2984 8.25 12.5845 8.36853 12.7955 8.5795C13.0065 8.79048 13.125 9.07663 13.125 9.375V12.75C13.125 13.0484 13.0065 13.3345 12.7955 13.5455C12.5845 13.7565 12.2984 13.875 12 13.875C11.7016 13.875 11.4155 13.7565 11.2045 13.5455C10.9935 13.3345 10.875 13.0484 10.875 12.75ZM12 15C11.7033 15 11.4133 15.088 11.1666 15.2528C10.92 15.4176 10.7277 15.6519 10.6142 15.926C10.5006 16.2001 10.4709 16.5017 10.5288 16.7926C10.5867 17.0836 10.7296 17.3509 10.9393 17.5607C11.1491 17.7704 11.4164 17.9133 11.7074 17.9712C11.9983 18.0291 12.2999 17.9994 12.574 17.8858C12.8481 17.7723 13.0824 17.58 13.2472 17.3334C13.412 17.0867 13.5 16.7967 13.5 16.5C13.5 16.1022 13.342 15.7206 13.0607 15.4393C12.7794 15.158 12.3978 15 12 15ZM9.75 2.25H14.25C14.5484 2.25 14.8345 2.13147 15.0455 1.9205C15.2565 1.70952 15.375 1.42337 15.375 1.125C15.375 0.826631 15.2565 0.540483 15.0455 0.329505C14.8345 0.118526 14.5484 0 14.25 0L9.75 0C9.45163 0 9.16548 0.118526 8.9545 0.329505C8.74353 0.540483 8.625 0.826631 8.625 1.125C8.625 1.42337 8.74353 1.70952 8.9545 1.9205C9.16548 2.13147 9.45163 2.25 9.75 2.25ZM19.125 5.625V21.375C19.125 22.0712 18.8484 22.7389 18.3562 23.2312C17.8639 23.7234 17.1962 24 16.5 24H7.5C6.80381 24 6.13613 23.7234 5.64384 23.2312C5.15156 22.7389 4.875 22.0712 4.875 21.375V5.625C4.875 4.92881 5.15156 4.26113 5.64384 3.76884C6.13613 3.27656 6.80381 3 7.5 3H16.5C17.1962 3 17.8639 3.27656 18.3562 3.76884C18.8484 4.26113 19.125 4.92881 19.125 5.625ZM16.875 5.625C16.875 5.52554 16.8355 5.43016 16.7652 5.35984C16.6948 5.28951 16.5995 5.25 16.5 5.25H7.5C7.40054 5.25 7.30516 5.28951 7.23483 5.35984C7.16451 5.43016 7.125 5.52554 7.125 5.625V21.375C7.125 21.4745 7.16451 21.5698 7.23483 21.6402C7.30516 21.7105 7.40054 21.75 7.5 21.75H16.5C16.5995 21.75 16.6948 21.7105 16.7652 21.6402C16.8355 21.5698 16.875 21.4745 16.875 21.375V5.625Z" fill="#130032"/>
</svg>
