<svg width="24" height="24" viewBox="0 0 24 24" fill="none" xmlns="http://www.w3.org/2000/svg">
<path d="M14.25 12C14.25 12.2984 14.1315 12.5845 13.9205 12.7955C13.7095 13.0065 13.4234 13.125 13.125 13.125H12V14.25C12 14.5484 11.8815 14.8345 11.6705 15.0455C11.4595 15.2565 11.1734 15.375 10.875 15.375C10.5766 15.375 10.2905 15.2565 10.0795 15.0455C9.86853 14.8345 9.75 14.5484 9.75 14.25V13.125H8.625C8.32663 13.125 8.04048 13.0065 7.8295 12.7955C7.61853 12.5845 7.5 12.2984 7.5 12C7.5 11.7016 7.61853 11.4155 7.8295 11.2045C8.04048 10.9935 8.32663 10.875 8.625 10.875H9.75V9.75C9.75 9.45163 9.86853 9.16548 10.0795 8.9545C10.2905 8.74353 10.5766 8.625 10.875 8.625C11.1734 8.625 11.4595 8.74353 11.6705 8.9545C11.8815 9.16548 12 9.45163 12 9.75V10.875H13.125C13.4234 10.875 13.7095 10.9935 13.9205 11.2045C14.1315 11.4155 14.25 11.7016 14.25 12ZM21 7.5V16.5C21 17.1962 20.7234 17.8639 20.2312 18.3562C19.7389 18.8484 19.0712 19.125 18.375 19.125H2.625C1.92881 19.125 1.26113 18.8484 0.768845 18.3562C0.276562 17.8639 0 17.1962 0 16.5L0 7.5C0 6.80381 0.276562 6.13613 0.768845 5.64384C1.26113 5.15156 1.92881 4.875 2.625 4.875H18.375C19.0712 4.875 19.7389 5.15156 20.2312 5.64384C20.7234 6.13613 21 6.80381 21 7.5ZM18.75 7.5C18.75 7.40054 18.7105 7.30516 18.6402 7.23483C18.5698 7.16451 18.4745 7.125 18.375 7.125H2.625C2.52554 7.125 2.43016 7.16451 2.35984 7.23483C2.28951 7.30516 2.25 7.40054 2.25 7.5V16.5C2.25 16.5995 2.28951 16.6948 2.35984 16.7652C2.43016 16.8355 2.52554 16.875 2.625 16.875H18.375C18.4745 16.875 18.5698 16.8355 18.6402 16.7652C18.7105 16.6948 18.75 16.5995 18.75 16.5V7.5ZM22.875 8.625C22.5766 8.625 22.2905 8.74353 22.0795 8.9545C21.8685 9.16548 21.75 9.45163 21.75 9.75V14.25C21.75 14.5484 21.8685 14.8345 22.0795 15.0455C22.2905 15.2565 22.5766 15.375 22.875 15.375C23.1734 15.375 23.4595 15.2565 23.6705 15.0455C23.8815 14.8345 24 14.5484 24 14.25V9.75C24 9.45163 23.8815 9.16548 23.6705 8.9545C23.4595 8.74353 23.1734 8.625 22.875 8.625Z" fill="#130032"/>
</svg>
