<svg width="24" height="24" viewBox="0 0 24 24" fill="none" xmlns="http://www.w3.org/2000/svg">
<path d="M8.625 1.125C8.625 0.826631 8.74353 0.540483 8.9545 0.329505C9.16548 0.118526 9.45163 0 9.75 0L14.25 0C14.5484 0 14.8345 0.118526 15.0455 0.329505C15.2565 0.540483 15.375 0.826631 15.375 1.125C15.375 1.42337 15.2565 1.70952 15.0455 1.9205C14.8345 2.13147 14.5484 2.25 14.25 2.25H9.75C9.45163 2.25 9.16548 2.13147 8.9545 1.9205C8.74353 1.70952 8.625 1.42337 8.625 1.125ZM19.125 5.625V21.375C19.125 22.0712 18.8484 22.7389 18.3562 23.2312C17.8639 23.7234 17.1962 24 16.5 24H7.5C6.80381 24 6.13613 23.7234 5.64384 23.2312C5.15156 22.7389 4.875 22.0712 4.875 21.375V5.625C4.875 4.92881 5.15156 4.26113 5.64384 3.76884C6.13613 3.27656 6.80381 3 7.5 3H16.5C17.1962 3 17.8639 3.27656 18.3562 3.76884C18.8484 4.26113 19.125 4.92881 19.125 5.625ZM16.875 5.625C16.875 5.52554 16.8355 5.43016 16.7652 5.35984C16.6948 5.28951 16.5995 5.25 16.5 5.25H7.5C7.40054 5.25 7.30516 5.28951 7.23483 5.35984C7.16451 5.43016 7.125 5.52554 7.125 5.625V21.375C7.125 21.4745 7.16451 21.5698 7.23483 21.6402C7.30516 21.7105 7.40054 21.75 7.5 21.75H16.5C16.5995 21.75 16.6948 21.7105 16.7652 21.6402C16.8355 21.5698 16.875 21.4745 16.875 21.375V5.625ZM14.25 12H13.125V10.875C13.125 10.5766 13.0065 10.2905 12.7955 10.0795C12.5845 9.86853 12.2984 9.75 12 9.75C11.7016 9.75 11.4155 9.86853 11.2045 10.0795C10.9935 10.2905 10.875 10.5766 10.875 10.875V12H9.75C9.45163 12 9.16548 12.1185 8.9545 12.3295C8.74353 12.5405 8.625 12.8266 8.625 13.125C8.625 13.4234 8.74353 13.7095 8.9545 13.9205C9.16548 14.1315 9.45163 14.25 9.75 14.25H10.875V15.375C10.875 15.6734 10.9935 15.9595 11.2045 16.1705C11.4155 16.3815 11.7016 16.5 12 16.5C12.2984 16.5 12.5845 16.3815 12.7955 16.1705C13.0065 15.9595 13.125 15.6734 13.125 15.375V14.25H14.25C14.5484 14.25 14.8345 14.1315 15.0455 13.9205C15.2565 13.7095 15.375 13.4234 15.375 13.125C15.375 12.8266 15.2565 12.5405 15.0455 12.3295C14.8345 12.1185 14.5484 12 14.25 12Z" fill="#130032"/>
</svg>
