<svg width="24" height="24" viewBox="0 0 24 24" fill="none" xmlns="http://www.w3.org/2000/svg">
<path d="M8.625 1.125C8.625 0.826631 8.74353 0.540483 8.9545 0.329505C9.16548 0.118526 9.45163 0 9.75 0L14.25 0C14.5484 0 14.8345 0.118526 15.0455 0.329505C15.2565 0.540483 15.375 0.826631 15.375 1.125C15.375 1.42337 15.2565 1.70952 15.0455 1.9205C14.8345 2.13147 14.5484 2.25 14.25 2.25H9.75C9.45163 2.25 9.16548 2.13147 8.9545 1.9205C8.74353 1.70952 8.625 1.42337 8.625 1.125ZM19.125 5.625V21.375C19.125 22.0712 18.8484 22.7389 18.3562 23.2312C17.8639 23.7234 17.1962 24 16.5 24H7.5C6.80381 24 6.13613 23.7234 5.64384 23.2312C5.15156 22.7389 4.875 22.0712 4.875 21.375V5.625C4.875 4.92881 5.15156 4.26113 5.64384 3.76884C6.13613 3.27656 6.80381 3 7.5 3H16.5C17.1962 3 17.8639 3.27656 18.3562 3.76884C18.8484 4.26113 19.125 4.92881 19.125 5.625ZM16.875 5.625C16.875 5.52554 16.8355 5.43016 16.7652 5.35984C16.6948 5.28951 16.5995 5.25 16.5 5.25H7.5C7.40054 5.25 7.30516 5.28951 7.23483 5.35984C7.16451 5.43016 7.125 5.52554 7.125 5.625V21.375C7.125 21.4745 7.16451 21.5698 7.23483 21.6402C7.30516 21.7105 7.40054 21.75 7.5 21.75H16.5C16.5995 21.75 16.6948 21.7105 16.7652 21.6402C16.8355 21.5698 16.875 21.4745 16.875 21.375V5.625Z" fill="#130032"/>
</svg>
