<svg width="24" height="24" viewBox="0 0 24 24" fill="none" xmlns="http://www.w3.org/2000/svg">
<path d="M18.375 4.875H2.625C1.92881 4.875 1.26113 5.15156 0.768845 5.64384C0.276562 6.13613 0 6.80381 0 7.5L0 16.5C0 17.1962 0.276562 17.8639 0.768845 18.3562C1.26113 18.8484 1.92881 19.125 2.625 19.125H18.375C19.0712 19.125 19.7389 18.8484 20.2312 18.3562C20.7234 17.8639 21 17.1962 21 16.5V7.5C21 6.80381 20.7234 6.13613 20.2312 5.64384C19.7389 5.15156 19.0712 4.875 18.375 4.875ZM18.75 16.5C18.75 16.5995 18.7105 16.6948 18.6402 16.7652C18.5698 16.8355 18.4745 16.875 18.375 16.875H2.625C2.52554 16.875 2.43016 16.8355 2.35984 16.7652C2.28951 16.6948 2.25 16.5995 2.25 16.5V7.5C2.25 7.40054 2.28951 7.30516 2.35984 7.23483C2.43016 7.16451 2.52554 7.125 2.625 7.125H18.375C18.4745 7.125 18.5698 7.16451 18.6402 7.23483C18.7105 7.30516 18.75 7.40054 18.75 7.5V16.5ZM24 9.75V14.25C24 14.5484 23.8815 14.8345 23.6705 15.0455C23.4595 15.2565 23.1734 15.375 22.875 15.375C22.5766 15.375 22.2905 15.2565 22.0795 15.0455C21.8685 14.8345 21.75 14.5484 21.75 14.25V9.75C21.75 9.45163 21.8685 9.16548 22.0795 8.9545C22.2905 8.74353 22.5766 8.625 22.875 8.625C23.1734 8.625 23.4595 8.74353 23.6705 8.9545C23.8815 9.16548 24 9.45163 24 9.75ZM9.375 10.875V9.375C9.375 9.07663 9.49353 8.79048 9.7045 8.5795C9.91548 8.36853 10.2016 8.25 10.5 8.25C10.7984 8.25 11.0845 8.36853 11.2955 8.5795C11.5065 8.79048 11.625 9.07663 11.625 9.375V10.875C11.625 11.1734 11.5065 11.4595 11.2955 11.6705C11.0845 11.8815 10.7984 12 10.5 12C10.2016 12 9.91548 11.8815 9.7045 11.6705C9.49353 11.4595 9.375 11.1734 9.375 10.875ZM12 14.25C12 14.5467 11.912 14.8367 11.7472 15.0834C11.5824 15.33 11.3481 15.5223 11.074 15.6358C10.7999 15.7494 10.4983 15.7791 10.2074 15.7212C9.91639 15.6633 9.64912 15.5204 9.43934 15.3107C9.22956 15.1009 9.0867 14.8336 9.02882 14.5426C8.97094 14.2517 9.00065 13.9501 9.11418 13.676C9.22771 13.4019 9.41997 13.1676 9.66665 13.0028C9.91332 12.838 10.2033 12.75 10.5 12.75C10.8978 12.75 11.2794 12.908 11.5607 13.1893C11.842 13.4706 12 13.8522 12 14.25Z" fill="#130032"/>
</svg>
