<svg width="24" height="24" viewBox="0 0 24 24" fill="none" xmlns="http://www.w3.org/2000/svg">
<path d="M8.625 1.125C8.625 0.826631 8.74353 0.540483 8.9545 0.329505C9.16548 0.118526 9.45163 0 9.75 0L14.25 0C14.5484 0 14.8345 0.118526 15.0455 0.329505C15.2565 0.540483 15.375 0.826631 15.375 1.125C15.375 1.42337 15.2565 1.70952 15.0455 1.9205C14.8345 2.13147 14.5484 2.25 14.25 2.25H9.75C9.45163 2.25 9.16548 2.13147 8.9545 1.9205C8.74353 1.70952 8.625 1.42337 8.625 1.125ZM19.125 5.625V21.375C19.125 22.0712 18.8484 22.7389 18.3562 23.2312C17.8639 23.7234 17.1962 24 16.5 24H7.5C6.80381 24 6.13613 23.7234 5.64384 23.2312C5.15156 22.7389 4.875 22.0712 4.875 21.375V5.625C4.875 4.92881 5.15156 4.26113 5.64384 3.76884C6.13613 3.27656 6.80381 3 7.5 3H16.5C17.1962 3 17.8639 3.27656 18.3562 3.76884C18.8484 4.26113 19.125 4.92881 19.125 5.625ZM16.875 5.625C16.875 5.52554 16.8355 5.43016 16.7652 5.35984C16.6948 5.28951 16.5995 5.25 16.5 5.25H7.5C7.40054 5.25 7.30516 5.28951 7.23483 5.35984C7.16451 5.43016 7.125 5.52554 7.125 5.625V21.375C7.125 21.4745 7.16451 21.5698 7.23483 21.6402C7.30516 21.7105 7.40054 21.75 7.5 21.75H16.5C16.5995 21.75 16.6948 21.7105 16.7652 21.6402C16.8355 21.5698 16.875 21.4745 16.875 21.375V5.625ZM14.625 6.75H9.375C9.07663 6.75 8.79048 6.86853 8.5795 7.0795C8.36853 7.29048 8.25 7.57663 8.25 7.875C8.25 8.17337 8.36853 8.45952 8.5795 8.6705C8.79048 8.88147 9.07663 9 9.375 9H14.625C14.9234 9 15.2095 8.88147 15.4205 8.6705C15.6315 8.45952 15.75 8.17337 15.75 7.875C15.75 7.57663 15.6315 7.29048 15.4205 7.0795C15.2095 6.86853 14.9234 6.75 14.625 6.75ZM14.625 10.5H9.375C9.07663 10.5 8.79048 10.6185 8.5795 10.8295C8.36853 11.0405 8.25 11.3266 8.25 11.625C8.25 11.9234 8.36853 12.2095 8.5795 12.4205C8.79048 12.6315 9.07663 12.75 9.375 12.75H14.625C14.9234 12.75 15.2095 12.6315 15.4205 12.4205C15.6315 12.2095 15.75 11.9234 15.75 11.625C15.75 11.3266 15.6315 11.0405 15.4205 10.8295C15.2095 10.6185 14.9234 10.5 14.625 10.5ZM14.625 14.25H9.375C9.07663 14.25 8.79048 14.3685 8.5795 14.5795C8.36853 14.7905 8.25 15.0766 8.25 15.375C8.25 15.6734 8.36853 15.9595 8.5795 16.1705C8.79048 16.3815 9.07663 16.5 9.375 16.5H14.625C14.9234 16.5 15.2095 16.3815 15.4205 16.1705C15.6315 15.9595 15.75 15.6734 15.75 15.375C15.75 15.0766 15.6315 14.7905 15.4205 14.5795C15.2095 14.3685 14.9234 14.25 14.625 14.25ZM14.625 18H9.375C9.07663 18 8.79048 18.1185 8.5795 18.3295C8.36853 18.5405 8.25 18.8266 8.25 19.125C8.25 19.4234 8.36853 19.7095 8.5795 19.9205C8.79048 20.1315 9.07663 20.25 9.375 20.25H14.625C14.9234 20.25 15.2095 20.1315 15.4205 19.9205C15.6315 19.7095 15.75 19.4234 15.75 19.125C15.75 18.8266 15.6315 18.5405 15.4205 18.3295C15.2095 18.1185 14.9234 18 14.625 18Z" fill="#130032"/>
</svg>
