<svg width="24" height="24" viewBox="0 0 24 24" fill="none" xmlns="http://www.w3.org/2000/svg">
<path d="M21.375 15.0001V13.5001C21.3726 11.497 20.7297 9.54708 19.5402 7.93529C18.3508 6.32351 16.6771 5.13429 14.7638 4.54137C14.9554 4.08534 15.0314 3.58899 14.9848 3.09651C14.9382 2.60403 14.7706 2.13071 14.4969 1.71869C14.2231 1.30667 13.8517 0.96874 13.4158 0.734985C12.9798 0.50123 12.4928 0.378906 11.9981 0.378906C11.5035 0.378906 11.0165 0.50123 10.5805 0.734985C10.1445 0.96874 9.77314 1.30667 9.49939 1.71869C9.22563 2.13071 9.05801 2.60403 9.01145 3.09651C8.96488 3.58899 9.04082 4.08534 9.2325 4.54137C7.31981 5.13495 5.64697 6.32445 4.45825 7.93618C3.26952 9.5479 2.62718 11.4974 2.625 13.5001V15.0001C2.39213 15.1748 2.20313 15.4012 2.07295 15.6616C1.94277 15.9219 1.875 16.209 1.875 16.5001V19.5001C1.875 19.9974 2.07254 20.4743 2.42417 20.8259C2.77581 21.1776 3.25272 21.3751 3.75 21.3751H20.25C20.7473 21.3751 21.2242 21.1776 21.5758 20.8259C21.9275 20.4743 22.125 19.9974 22.125 19.5001V16.5001C22.125 16.209 22.0572 15.9219 21.9271 15.6616C21.7969 15.4012 21.6079 15.1748 21.375 15.0001ZM11.25 3.37512C11.25 3.22678 11.294 3.08178 11.3764 2.95844C11.4588 2.8351 11.5759 2.73897 11.713 2.68221C11.85 2.62544 12.0008 2.61059 12.1463 2.63953C12.2918 2.66847 12.4254 2.7399 12.5303 2.84479C12.6352 2.94968 12.7066 3.08331 12.7356 3.2288C12.7645 3.37429 12.7497 3.52509 12.6929 3.66213C12.6361 3.79918 12.54 3.91631 12.4167 3.99872C12.2933 4.08113 12.1483 4.12512 12 4.12512C11.8011 4.12512 11.6103 4.0461 11.4697 3.90545C11.329 3.7648 11.25 3.57403 11.25 3.37512ZM12 6.37512C13.8891 6.3771 15.7002 7.12841 17.0359 8.46418C18.3717 9.79994 19.123 11.6111 19.125 13.5001V14.6251H4.875V13.5001C4.87699 11.6111 5.62829 9.79994 6.96406 8.46418C8.29982 7.12841 10.1109 6.3771 12 6.37512ZM10.875 16.8751V19.1251H7.875V16.8751H10.875ZM13.125 16.8751H16.125V19.1251H13.125V16.8751ZM4.125 16.8751H5.625V19.1251H4.125V16.8751ZM19.875 19.1251H18.375V16.8751H19.875V19.1251Z" fill="#130032"/>
</svg>
