<svg width="24" height="24" viewBox="0 0 24 24" fill="none" xmlns="http://www.w3.org/2000/svg">
<path d="M23.2961 3.7031L20.2961 0.703102C20.0994 0.508026 19.8376 0.392405 19.5609 0.378394C19.2842 0.364382 19.0121 0.452965 18.7966 0.627169C18.5812 0.801374 18.4376 1.04895 18.3934 1.32245C18.3492 1.59595 18.4075 1.87615 18.5571 2.10935L13.7814 5.69623L10.2818 6.3956C10.0639 6.43945 9.86371 6.54639 9.70613 6.7031L1.89394 14.5144C1.65016 14.7581 1.45678 15.0475 1.32484 15.366C1.19291 15.6845 1.125 16.0259 1.125 16.3706C1.125 16.7153 1.19291 17.0567 1.32484 17.3752C1.45678 17.6937 1.65016 17.9831 1.89394 18.2269L5.77238 22.1053C6.01613 22.3491 6.30552 22.5425 6.62402 22.6744C6.94252 22.8063 7.28389 22.8742 7.62863 22.8742C7.97337 22.8742 8.31474 22.8063 8.63323 22.6744C8.95173 22.5425 9.24112 22.3491 9.48488 22.1053L17.2961 14.295C17.4528 14.1374 17.5598 13.9372 17.6036 13.7194L18.303 10.2178L21.8871 5.43654C22.1203 5.58612 22.4005 5.64439 22.674 5.60019C22.9475 5.55598 23.195 5.41241 23.3692 5.19697C23.5434 4.98154 23.632 4.7094 23.618 4.4327C23.604 4.15601 23.4884 3.89421 23.2933 3.69748L23.2961 3.7031ZM10.5002 17.9053L6.09394 13.499L9.00019 10.5928L13.4064 14.999L10.5002 17.9053ZM7.62863 20.624C7.57937 20.6241 7.53058 20.6144 7.48506 20.5956C7.43954 20.5768 7.39817 20.5492 7.36331 20.5144L3.48488 16.6359C3.45001 16.6011 3.42235 16.5597 3.40348 16.5142C3.38461 16.4687 3.37489 16.4199 3.37489 16.3706C3.37489 16.3213 3.38461 16.2725 3.40348 16.227C3.42235 16.1815 3.45001 16.1401 3.48488 16.1053L4.50019 15.0928L8.90644 19.499L7.89394 20.5144C7.85909 20.5492 7.81772 20.5768 7.7722 20.5956C7.72667 20.6144 7.67789 20.6241 7.62863 20.624ZM16.3474 9.07404C16.2464 9.2085 16.1769 9.36387 16.1439 9.52873L15.4689 12.944L15.0002 13.4053L10.5939 8.99904L11.0627 8.53029L14.478 7.84779C14.6429 7.8148 14.7982 7.74529 14.9327 7.64435L20.1518 3.72935L20.2727 3.85029L16.3474 9.07404Z" fill="#130032"/>
</svg>
