<svg width="24" height="24" viewBox="0 0 24 24" fill="none" xmlns="http://www.w3.org/2000/svg">
<path d="M20.25 7.875H19.125V6.75C19.1238 5.65636 18.6888 4.60787 17.9154 3.83455C17.1421 3.06124 16.0936 2.62624 15 2.625H14.0878C12.9159 1.66688 11.3606 1.125 9.75 1.125C6.23438 1.125 3.375 3.64875 3.375 6.75V19.5C3.375 19.9973 3.57254 20.4742 3.92417 20.8258C4.27581 21.1775 4.75272 21.375 5.25 21.375H17.25C17.7473 21.375 18.2242 21.1775 18.5758 20.8258C18.9275 20.4742 19.125 19.9973 19.125 19.5V19.125H20.25C20.9462 19.125 21.6139 18.8484 22.1062 18.3562C22.5984 17.8639 22.875 17.1962 22.875 16.5V10.5C22.875 9.80381 22.5984 9.13613 22.1062 8.64384C21.6139 8.15156 20.9462 7.875 20.25 7.875ZM9.75 3.375C10.9547 3.375 12.0938 3.80812 12.885 4.56281C13.0945 4.76325 13.3732 4.87509 13.6631 4.875H15C15.4322 4.87491 15.8512 5.02417 16.1861 5.29751C16.5209 5.57085 16.7511 5.95149 16.8375 6.375H5.65125C5.88 4.6875 7.63031 3.375 9.75 3.375ZM16.875 19.125H5.625V8.625H16.875V19.125ZM20.625 16.5C20.625 16.5995 20.5855 16.6948 20.5152 16.7652C20.4448 16.8355 20.3495 16.875 20.25 16.875H19.125V10.125H20.25C20.3495 10.125 20.4448 10.1645 20.5152 10.2348C20.5855 10.3052 20.625 10.4005 20.625 10.5V16.5ZM10.125 11.25V16.5C10.125 16.7984 10.0065 17.0845 9.7955 17.2955C9.58452 17.5065 9.29837 17.625 9 17.625C8.70163 17.625 8.41548 17.5065 8.2045 17.2955C7.99353 17.0845 7.875 16.7984 7.875 16.5V11.25C7.875 10.9516 7.99353 10.6655 8.2045 10.4545C8.41548 10.2435 8.70163 10.125 9 10.125C9.29837 10.125 9.58452 10.2435 9.7955 10.4545C10.0065 10.6655 10.125 10.9516 10.125 11.25ZM14.625 11.25V16.5C14.625 16.7984 14.5065 17.0845 14.2955 17.2955C14.0845 17.5065 13.7984 17.625 13.5 17.625C13.2016 17.625 12.9155 17.5065 12.7045 17.2955C12.4935 17.0845 12.375 16.7984 12.375 16.5V11.25C12.375 10.9516 12.4935 10.6655 12.7045 10.4545C12.9155 10.2435 13.2016 10.125 13.5 10.125C13.7984 10.125 14.0845 10.2435 14.2955 10.4545C14.5065 10.6655 14.625 10.9516 14.625 11.25Z" fill="#130032"/>
</svg>
