<svg width="24" height="24" viewBox="0 0 24 24" fill="none" xmlns="http://www.w3.org/2000/svg">
<path d="M21.1699 6.99846C21.0105 7.08182 20.8333 7.12525 20.6534 7.12502C20.4471 7.12537 20.2446 7.06897 20.0682 6.96199C19.8918 6.85501 19.7482 6.70157 19.6531 6.51846C18.9692 5.16338 17.9329 4.01759 16.6531 3.20159C16.5236 3.125 16.4107 3.02321 16.3213 2.90225C16.2318 2.78129 16.1675 2.6436 16.1322 2.49735C16.0968 2.35109 16.0912 2.19924 16.1156 2.05077C16.14 1.90231 16.194 1.76025 16.2742 1.63299C16.3545 1.50574 16.4595 1.39588 16.583 1.30992C16.7065 1.22396 16.8459 1.16364 16.9932 1.13254C17.1404 1.10144 17.2923 1.10018 17.44 1.12884C17.5877 1.1575 17.7282 1.2155 17.8531 1.2994C19.4687 2.33186 20.7804 3.77563 21.6537 5.48252C21.7215 5.61382 21.7628 5.75719 21.7751 5.90444C21.7875 6.05169 21.7708 6.19993 21.7259 6.3407C21.6809 6.48148 21.6087 6.61202 21.5133 6.72488C21.4179 6.83774 21.3013 6.93071 21.1699 6.99846ZM4.34745 6.51846C5.03127 5.16338 6.0676 4.01759 7.34745 3.20159C7.47983 3.12662 7.59563 3.02558 7.68785 2.90458C7.78007 2.78357 7.84679 2.64512 7.88397 2.4976C7.92115 2.35008 7.92802 2.19654 7.90417 2.04629C7.88032 1.89603 7.82624 1.75217 7.7452 1.62342C7.66417 1.49466 7.55785 1.38367 7.4327 1.29718C7.30754 1.21068 7.16614 1.15046 7.01705 1.12018C6.86796 1.08989 6.71427 1.09015 6.56529 1.12096C6.4163 1.15176 6.27511 1.21247 6.15026 1.2994C4.53467 2.33186 3.22292 3.77563 2.34963 5.48252C2.2125 5.74735 2.18612 6.05579 2.27631 6.34005C2.36649 6.62431 2.56585 6.86113 2.83057 6.99846C2.98998 7.08182 3.16724 7.12525 3.34713 7.12502C3.55346 7.12537 3.75591 7.06897 3.93233 6.96199C4.10876 6.85501 4.25236 6.70157 4.34745 6.51846ZM20.614 15.7388C20.8256 16.0165 20.9554 16.3479 20.9889 16.6954C21.0223 17.043 20.9581 17.393 20.8033 17.706C20.6486 18.019 20.4095 18.2826 20.113 18.4671C19.8165 18.6515 19.4744 18.7495 19.1253 18.75H16.1074C16.012 19.7733 15.5381 20.7241 14.7784 21.4163C14.0187 22.1085 13.028 22.4921 12.0003 22.4921C10.9725 22.4921 9.98182 22.1085 9.22213 21.4163C8.46243 20.7241 7.98848 19.7733 7.89307 18.75H4.87526C4.52584 18.75 4.18338 18.6524 3.88649 18.4682C3.5896 18.2839 3.35011 18.0204 3.19501 17.7073C3.03992 17.3942 2.97541 17.0439 3.00875 16.6961C3.04208 16.3483 3.17195 16.0167 3.3837 15.7388C4.05588 14.8641 4.85838 13.2431 4.87245 10.4944C4.87319 8.60436 5.62472 6.79203 6.96171 5.45609C8.2987 4.12016 10.1116 3.37006 12.0017 3.37081C13.8917 3.37155 15.704 4.12308 17.04 5.46007C18.3759 6.79706 19.126 8.60998 19.1253 10.5C19.1393 13.2431 19.9418 14.8641 20.614 15.7388ZM13.8378 18.75H10.1628C10.2488 19.1739 10.4788 19.555 10.8137 19.8287C11.1485 20.1024 11.5677 20.2519 12.0003 20.2519C12.4328 20.2519 12.852 20.1024 13.1869 19.8287C13.5217 19.555 13.7517 19.1739 13.8378 18.75ZM18.4071 16.5C17.6421 15.2813 16.8893 13.3528 16.8753 10.5056C16.8756 9.86546 16.7499 9.23146 16.5052 8.63985C16.2606 8.04825 15.9018 7.51063 15.4494 7.05768C14.997 6.60473 14.4598 6.24533 13.8684 6C13.2771 5.75467 12.6433 5.62821 12.0031 5.62784C11.3629 5.62747 10.7289 5.7532 10.1373 5.99785C9.54567 6.2425 9.00805 6.60128 8.5551 7.0537C8.10215 7.50613 7.74275 8.04334 7.49742 8.63466C7.25209 9.22598 7.12563 9.85983 7.12526 10.5C7.1112 13.3519 6.35838 15.2813 5.59338 16.5H18.4071Z" fill="#130032"/>
</svg>
