<svg width="24" height="24" viewBox="0 0 24 24" fill="none" xmlns="http://www.w3.org/2000/svg">
<path d="M14.6251 13.125C14.6251 13.4234 14.5065 13.7095 14.2956 13.9205C14.0846 14.1315 13.7984 14.25 13.5001 14.25H10.5001C10.2963 14.2503 10.0962 14.1952 9.92128 14.0907C9.74634 13.9861 9.60308 13.836 9.50682 13.6564C9.41055 13.4768 9.36489 13.2744 9.37471 13.0708C9.38453 12.8672 9.44946 12.6702 9.56257 12.5006L11.3982 9.75H10.5001C10.2017 9.75 9.91555 9.63147 9.70458 9.4205C9.4936 9.20952 9.37507 8.92337 9.37507 8.625C9.37507 8.32663 9.4936 8.04048 9.70458 7.8295C9.91555 7.61853 10.2017 7.5 10.5001 7.5H13.5001C13.7039 7.4997 13.9039 7.55476 14.0789 7.65931C14.2538 7.76386 14.3971 7.91397 14.4933 8.0936C14.5896 8.27323 14.6353 8.47564 14.6254 8.67921C14.6156 8.88277 14.5507 9.07984 14.4376 9.24938L12.6019 12H13.5001C13.7984 12 14.0846 12.1185 14.2956 12.3295C14.5065 12.5405 14.6251 12.8266 14.6251 13.125ZM21.1248 17.4375C20.9618 17.7242 20.7254 17.9622 20.4398 18.127C20.1542 18.2918 19.8298 18.3774 19.5001 18.375H4.50007C4.17067 18.377 3.84667 18.2913 3.56144 18.1265C3.27621 17.9617 3.04004 17.7239 2.87726 17.4375C2.7131 17.1511 2.62711 16.8266 2.62794 16.4966C2.62876 16.1665 2.71636 15.8424 2.88195 15.5569C3.69288 14.1562 4.12507 12.1481 4.12507 9.75C4.12507 7.66142 4.95476 5.65838 6.43161 4.18153C7.90845 2.70469 9.91149 1.875 12.0001 1.875C14.0887 1.875 16.0917 2.70469 17.5685 4.18153C19.0454 5.65838 19.8751 7.66142 19.8751 9.75C19.8751 12.1472 20.3054 14.1562 21.1191 15.5559C21.2852 15.8414 21.3732 16.1656 21.3744 16.4958C21.3755 16.8261 21.2897 17.1509 21.1257 17.4375H21.1248ZM18.8748 16.125C18.046 14.4375 17.6251 12.2934 17.6251 9.75C17.6251 8.25816 17.0324 6.82742 15.9775 5.77252C14.9227 4.71763 13.4919 4.125 12.0001 4.125C10.5082 4.125 9.07749 4.71763 8.0226 5.77252C6.9677 6.82742 6.37507 8.25816 6.37507 9.75C6.37507 12.2944 5.95507 14.4375 5.12538 16.125H18.8748ZM15.0001 19.875H9.00007C8.7017 19.875 8.41555 19.9935 8.20458 20.2045C7.9936 20.4155 7.87507 20.7016 7.87507 21C7.87507 21.2984 7.9936 21.5845 8.20458 21.7955C8.41555 22.0065 8.7017 22.125 9.00007 22.125H15.0001C15.2984 22.125 15.5846 22.0065 15.7956 21.7955C16.0065 21.5845 16.1251 21.2984 16.1251 21C16.1251 20.7016 16.0065 20.4155 15.7956 20.2045C15.5846 19.9935 15.2984 19.875 15.0001 19.875Z" fill="#130032"/>
</svg>
