<svg width="24" height="24" viewBox="0 0 24 24" fill="none" xmlns="http://www.w3.org/2000/svg">
<path d="M16.1253 21.375C16.1253 21.6734 16.0067 21.9595 15.7958 22.1705C15.5848 22.3815 15.2986 22.5 15.0003 22.5H9.00026C8.70189 22.5 8.41574 22.3815 8.20476 22.1705C7.99378 21.9595 7.87526 21.6734 7.87526 21.375C7.87526 21.0767 7.99378 20.7905 8.20476 20.5795C8.41574 20.3686 8.70189 20.25 9.00026 20.25H15.0003C15.2986 20.25 15.5848 20.3686 15.7958 20.5795C16.0067 20.7905 16.1253 21.0767 16.1253 21.375ZM21.6509 5.48252C20.7776 3.77563 19.4658 2.33186 17.8503 1.2994C17.7254 1.2155 17.5849 1.1575 17.4372 1.12884C17.2895 1.10018 17.1376 1.10144 16.9903 1.13254C16.8431 1.16364 16.7037 1.22396 16.5802 1.30992C16.4567 1.39588 16.3517 1.50574 16.2714 1.63299C16.1911 1.76025 16.1372 1.90231 16.1128 2.05077C16.0884 2.19924 16.094 2.35109 16.1293 2.49735C16.1647 2.6436 16.229 2.78129 16.3184 2.90225C16.4079 3.02321 16.5208 3.125 16.6503 3.20159C17.9301 4.01759 18.9664 5.16338 19.6503 6.51846C19.7456 6.702 19.8896 6.85572 20.0666 6.96272C20.2435 7.06973 20.4466 7.12589 20.6534 7.12502C20.8333 7.12525 21.0105 7.08182 21.1699 6.99846C21.4347 6.86113 21.634 6.62431 21.7242 6.34005C21.8144 6.05579 21.788 5.74735 21.6509 5.48252ZM4.34745 6.51846C5.03127 5.16338 6.0676 4.01759 7.34745 3.20159C7.47983 3.12662 7.59563 3.02558 7.68785 2.90458C7.78007 2.78357 7.84679 2.64512 7.88397 2.4976C7.92115 2.35008 7.92802 2.19654 7.90417 2.04629C7.88032 1.89603 7.82624 1.75217 7.7452 1.62342C7.66417 1.49466 7.55785 1.38367 7.4327 1.29718C7.30754 1.21068 7.16614 1.15046 7.01705 1.12018C6.86796 1.08989 6.71427 1.09015 6.56529 1.12096C6.4163 1.15176 6.27511 1.21247 6.15026 1.2994C4.53467 2.33186 3.22292 3.77563 2.34963 5.48252C2.2125 5.74735 2.18612 6.05579 2.27631 6.34005C2.36649 6.62431 2.56585 6.86113 2.83057 6.99846C2.98998 7.08182 3.16724 7.12525 3.34713 7.12502C3.55346 7.12537 3.75591 7.06897 3.93233 6.96199C4.10876 6.85501 4.25236 6.70157 4.34745 6.51846ZM20.614 15.7388C20.8256 16.0165 20.9554 16.3479 20.9889 16.6954C21.0223 17.043 20.9581 17.393 20.8033 17.706C20.6486 18.019 20.4095 18.2826 20.113 18.4671C19.8165 18.6515 19.4744 18.7495 19.1253 18.75H4.87526C4.52584 18.75 4.18338 18.6524 3.88649 18.4682C3.5896 18.2839 3.35011 18.0204 3.19501 17.7073C3.03992 17.3942 2.97541 17.0439 3.00875 16.6961C3.04208 16.3483 3.17195 16.0167 3.3837 15.7388C4.05588 14.8641 4.85838 13.2431 4.87245 10.4944C4.87319 8.60436 5.62472 6.79203 6.96171 5.45609C8.2987 4.12016 10.1116 3.37006 12.0017 3.37081C13.8917 3.37155 15.704 4.12308 17.04 5.46007C18.3759 6.79706 19.126 8.60998 19.1253 10.5C19.1393 13.2431 19.9418 14.8641 20.614 15.7388ZM18.4071 16.5C17.6421 15.2813 16.8893 13.3528 16.8753 10.5056C16.8756 9.86546 16.7499 9.23146 16.5052 8.63985C16.2606 8.04825 15.9018 7.51063 15.4494 7.05768C14.997 6.60473 14.4598 6.24533 13.8684 6C13.2771 5.75467 12.6433 5.62821 12.0031 5.62784C11.3629 5.62747 10.7289 5.7532 10.1373 5.99785C9.54567 6.2425 9.00805 6.60128 8.5551 7.0537C8.10215 7.50613 7.74275 8.04334 7.49742 8.63466C7.25209 9.22598 7.12563 9.85983 7.12526 10.5C7.1112 13.3519 6.35838 15.2813 5.59338 16.5H18.4071Z" fill="#130032"/>
</svg>
