<svg width="24" height="24" viewBox="0 0 24 24" fill="none" xmlns="http://www.w3.org/2000/svg">
<path d="M20.3328 19.4937L5.3328 2.99365C5.23401 2.88228 5.11409 2.79164 4.98 2.72696C4.84592 2.66228 4.70032 2.62485 4.55167 2.61686C4.40301 2.60886 4.25424 2.63045 4.11399 2.68037C3.97374 2.73029 3.84479 2.80755 3.73461 2.90767C3.62444 3.00779 3.53524 3.12879 3.47217 3.26364C3.4091 3.3985 3.37343 3.54453 3.36721 3.69327C3.361 3.84201 3.38437 3.99051 3.43597 4.13015C3.48756 4.2698 3.56637 4.39781 3.6678 4.50678L5.0553 6.03396C4.4426 7.17669 4.12305 8.4536 4.1253 9.75021C4.1253 12.1483 3.69499 14.1565 2.88124 15.5562C2.71548 15.8418 2.62778 16.166 2.62696 16.4963C2.62614 16.8266 2.71222 17.1512 2.87655 17.4377C3.03926 17.7244 3.27554 17.9624 3.56099 18.1272C3.84644 18.292 4.1707 18.3776 4.5003 18.3752H7.89312C7.98852 19.3985 8.46248 20.3493 9.22217 21.0415C9.98187 21.7336 10.9726 22.1173 12.0003 22.1173C13.028 22.1173 14.0187 21.7336 14.7784 21.0415C15.5381 20.3493 16.0121 19.3985 16.1075 18.3752H16.2753L18.6678 21.0068C18.8695 21.2235 19.1485 21.3519 19.4443 21.3643C19.74 21.3766 20.0288 21.2719 20.2478 21.0728C20.4669 20.8737 20.5987 20.5963 20.6146 20.3007C20.6305 20.0051 20.5293 19.7151 20.3328 19.4937ZM6.3753 9.75021C6.37456 9.10185 6.48621 8.45825 6.7053 7.84803L14.2297 16.1252H5.12655C5.9553 14.4377 6.3753 12.2946 6.3753 9.75021ZM12.0003 19.8752C11.5681 19.8753 11.1491 19.726 10.8142 19.4527C10.4794 19.1794 10.2493 18.7987 10.1628 18.3752H13.8378C13.7514 18.7987 13.5212 19.1794 13.1864 19.4527C12.8515 19.726 12.4325 19.8753 12.0003 19.8752ZM8.33374 3.97053C8.27612 3.83448 8.24586 3.68843 8.24469 3.54069C8.24352 3.39296 8.27145 3.24644 8.32691 3.1095C8.38236 2.97256 8.46425 2.84789 8.56789 2.74259C8.67152 2.6373 8.79489 2.55345 8.93093 2.49584C10.1284 1.98901 11.4328 1.78661 12.7276 1.90671C14.0224 2.0268 15.2673 2.46565 16.3512 3.18408C17.435 3.90251 18.3241 4.87816 18.9391 6.02391C19.554 7.16967 19.8757 8.44987 19.8753 9.75021C19.8753 11.5015 20.0984 13.0249 20.5381 14.2765C20.5874 14.4158 20.6087 14.5635 20.6008 14.7111C20.593 14.8587 20.5562 15.0033 20.4924 15.1367C20.4287 15.2701 20.3394 15.3896 20.2294 15.4884C20.1195 15.5873 19.9912 15.6635 19.8519 15.7127C19.7125 15.762 19.5648 15.7833 19.4172 15.7754C19.2696 15.7676 19.125 15.7308 18.9916 15.667C18.8582 15.6033 18.7387 15.514 18.6399 15.404C18.5411 15.2941 18.4649 15.1658 18.4156 15.0265C17.8906 13.5302 17.6253 11.7565 17.6253 9.75021C17.6257 8.82139 17.396 7.90694 16.9568 7.0885C16.5177 6.27006 15.8827 5.57311 15.1085 5.05986C14.3344 4.54662 13.4452 4.23306 12.5204 4.14719C11.5955 4.06131 10.6638 4.20578 9.80843 4.56771C9.67239 4.62533 9.52633 4.65559 9.37859 4.65677C9.23086 4.65794 9.08434 4.63 8.9474 4.57454C8.81046 4.51909 8.68579 4.43721 8.5805 4.33357C8.4752 4.22993 8.39136 4.10657 8.33374 3.97053Z" fill="#130032"/>
</svg>
