<svg width="24" height="24" viewBox="0 0 24 24" fill="none" xmlns="http://www.w3.org/2000/svg">
<path d="M21.1212 15.5559C20.3075 14.1562 19.8753 12.1472 19.8753 9.75C19.8753 7.66142 19.0456 5.65838 17.5687 4.18153C16.0919 2.70469 14.0889 1.875 12.0003 1.875C9.91169 1.875 7.90865 2.70469 6.4318 4.18153C4.95496 5.65838 4.12527 7.66142 4.12527 9.75C4.12527 12.1481 3.69496 14.1562 2.88121 15.5559C2.71516 15.8414 2.62714 16.1656 2.62599 16.4958C2.62484 16.8261 2.71059 17.1509 2.87465 17.4375C3.03766 17.7243 3.27427 17.9624 3.56004 18.1272C3.84581 18.292 4.17039 18.3775 4.50027 18.375H19.5003C19.8297 18.377 20.1537 18.2913 20.4389 18.1265C20.7241 17.9617 20.9603 17.7239 21.1231 17.4375C21.2878 17.1513 21.3744 16.8267 21.3741 16.4965C21.3738 16.1662 21.2865 15.8418 21.1212 15.5559ZM5.12465 16.125C5.95433 14.4375 6.37527 12.2944 6.37527 9.75C6.37527 8.25816 6.9679 6.82742 8.02279 5.77252C9.07769 4.71763 10.5084 4.125 12.0003 4.125C13.4921 4.125 14.9229 4.71763 15.9777 5.77252C17.0326 6.82742 17.6253 8.25816 17.6253 9.75C17.6253 12.2934 18.0453 14.4375 18.875 16.125H5.12465ZM16.1253 21C16.1253 21.2984 16.0067 21.5845 15.7958 21.7955C15.5848 22.0065 15.2986 22.125 15.0003 22.125H9.00027C8.7019 22.125 8.41575 22.0065 8.20477 21.7955C7.9938 21.5845 7.87527 21.2984 7.87527 21C7.87527 20.7016 7.9938 20.4155 8.20477 20.2045C8.41575 19.9935 8.7019 19.875 9.00027 19.875H15.0003C15.2986 19.875 15.5848 19.9935 15.7958 20.2045C16.0067 20.4155 16.1253 20.7016 16.1253 21Z" fill="#130032"/>
</svg>
