<svg width="24" height="24" viewBox="0 0 24 24" fill="none" xmlns="http://www.w3.org/2000/svg">
<path d="M22.875 14.625H18.375V9.375H22.875C23.1734 9.375 23.4595 9.25647 23.6705 9.0455C23.8815 8.83452 24 8.54837 24 8.25C24 7.95163 23.8815 7.66548 23.6705 7.4545C23.4595 7.24353 23.1734 7.125 22.875 7.125H18C17.8253 6.89213 17.5989 6.70313 17.3385 6.57295C17.0782 6.44277 16.7911 6.375 16.5 6.375H10.5C10.2089 6.375 9.92183 6.44277 9.66147 6.57295C9.40112 6.70313 9.17465 6.89213 9 7.125H6.30938C6.2313 6.90654 6.0876 6.71757 5.89795 6.58395C5.70831 6.45033 5.48199 6.37862 5.25 6.37862C5.01801 6.37862 4.79169 6.45033 4.60205 6.58395C4.4124 6.71757 4.2687 6.90654 4.19063 7.125H1.125C0.826631 7.125 0.540483 7.24353 0.329505 7.4545C0.118526 7.66548 3.35276e-08 7.95163 3.35276e-08 8.25C3.35276e-08 8.54837 0.118526 8.83452 0.329505 9.0455C0.540483 9.25647 0.826631 9.375 1.125 9.375H4.125V14.625H1.125C0.826631 14.625 0.540483 14.7435 0.329505 14.9545C0.118526 15.1655 0 15.4516 0 15.75C0 16.0484 0.118526 16.3345 0.329505 16.5455C0.540483 16.7565 0.826631 16.875 1.125 16.875H4.19063C4.2687 17.0935 4.4124 17.2824 4.60205 17.416C4.79169 17.5497 5.01801 17.6214 5.25 17.6214C5.48199 17.6214 5.70831 17.5497 5.89795 17.416C6.0876 17.2824 6.2313 17.0935 6.30938 16.875H9C9.17465 17.1079 9.40112 17.2969 9.66147 17.4271C9.92183 17.5572 10.2089 17.625 10.5 17.625H16.5C16.7911 17.625 17.0782 17.5572 17.3385 17.4271C17.5989 17.2969 17.8253 17.1079 18 16.875H22.875C23.1734 16.875 23.4595 16.7565 23.6705 16.5455C23.8815 16.3345 24 16.0484 24 15.75C24 15.4516 23.8815 15.1655 23.6705 14.9545C23.4595 14.7435 23.1734 14.625 22.875 14.625ZM6.375 9.375H8.625V14.625H6.375V9.375ZM10.875 8.625H16.125V10.875H13.5C13.2016 10.875 12.9155 10.9935 12.7045 11.2045C12.4935 11.4155 12.375 11.7016 12.375 12C12.375 12.2984 12.4935 12.5845 12.7045 12.7955C12.9155 13.0065 13.2016 13.125 13.5 13.125H16.125V15.375H10.875V8.625Z" fill="#130032"/>
</svg>
