<svg width="24" height="24" viewBox="0 0 24 24" fill="none" xmlns="http://www.w3.org/2000/svg">
<g clip-path="url(#clip0_7_19046)">
<path d="M19.1248 10.125C18.6442 10.1248 18.1662 10.1958 17.7064 10.3359L15.8333 7.125H17.9998C18.0993 7.125 18.1947 7.16451 18.265 7.23483C18.3353 7.30516 18.3748 7.40054 18.3748 7.5C18.3748 7.79837 18.4934 8.08452 18.7043 8.2955C18.9153 8.50647 19.2015 8.625 19.4998 8.625C19.7982 8.625 20.0843 8.50647 20.2953 8.2955C20.5063 8.08452 20.6248 7.79837 20.6248 7.5C20.6248 6.80381 20.3483 6.13613 19.856 5.64384C19.3637 5.15156 18.696 4.875 17.9998 4.875H13.8748C13.6775 4.87537 13.4838 4.92762 13.3131 5.0265C13.1423 5.12539 13.0006 5.26744 12.9021 5.4384C12.8036 5.60936 12.7518 5.80322 12.7519 6.00052C12.752 6.19782 12.804 6.39163 12.9026 6.5625L13.6658 7.875H10.2711L8.84702 5.4375C8.74846 5.26679 8.60677 5.12496 8.43614 5.02624C8.26552 4.92752 8.07195 4.87537 7.87483 4.875H4.87483C4.57646 4.875 4.29031 4.99353 4.07933 5.2045C3.86836 5.41548 3.74983 5.70163 3.74983 6C3.74983 6.29837 3.86836 6.58452 4.07933 6.7955C4.29031 7.00647 4.57646 7.125 4.87483 7.125H7.22889L8.2667 8.90625L6.93733 10.5834C5.8518 10.0741 4.61699 9.98123 3.4675 10.3226C2.31802 10.6639 1.33397 11.4156 0.702335 12.4348C0.0707022 13.4541 -0.164498 14.6698 0.0414241 15.8511C0.247346 17.0324 0.880041 18.0968 1.81929 18.8422C2.75854 19.5876 3.93889 19.962 5.13606 19.8943C6.33324 19.8265 7.46381 19.3213 8.31295 18.4747C9.1621 17.6281 9.67065 16.499 9.74198 15.3021C9.8133 14.1051 9.44243 12.9237 8.69983 11.9822L9.48452 10.9913L11.0623 13.6922C11.1311 13.8297 11.2273 13.9516 11.3451 14.0505C11.4628 14.1493 11.5996 14.223 11.7469 14.2669C11.8942 14.3109 12.049 14.3242 12.2016 14.306C12.3543 14.2878 12.5016 14.2385 12.6344 14.1611C12.7673 14.0838 12.8829 13.98 12.9741 13.8563C13.0653 13.7325 13.1302 13.5914 13.1647 13.4416C13.1993 13.2918 13.2027 13.1365 13.1749 12.9853C13.1471 12.8341 13.0886 12.6902 13.003 12.5625L11.5836 10.125H14.9783L15.7648 11.4731C14.9452 12.2553 14.4235 13.2986 14.2896 14.4236C14.1556 15.5486 14.4177 16.6852 15.0308 17.638C15.6439 18.5908 16.5697 19.3003 17.6491 19.6445C18.7285 19.9888 19.8942 19.9463 20.9457 19.5244C21.9972 19.1025 22.8689 18.3275 23.411 17.3327C23.9532 16.3378 24.1319 15.1852 23.9164 14.0729C23.7009 12.9605 23.1047 11.958 22.2303 11.2376C21.3559 10.5171 20.2578 10.1237 19.1248 10.125ZM7.49983 15C7.49991 15.5445 7.33064 16.0756 7.01547 16.5197C6.7003 16.9638 6.25482 17.2988 5.74075 17.4785C5.22669 17.6581 4.66948 17.6734 4.14632 17.5223C3.62317 17.3712 3.15996 17.0611 2.82087 16.635C2.48178 16.2089 2.2836 15.6879 2.25377 15.1442C2.22395 14.6004 2.36396 14.0609 2.65441 13.6003C2.94486 13.1397 3.37137 12.7808 3.87486 12.5733C4.37835 12.3659 4.93389 12.3202 5.46452 12.4425L3.99264 14.3016C3.80741 14.5355 3.7227 14.8335 3.75716 15.1299C3.79162 15.4264 3.94242 15.697 4.17639 15.8822C4.41036 16.0674 4.70834 16.1521 5.00476 16.1177C5.30119 16.0832 5.57178 15.9324 5.75702 15.6984L7.22889 13.8394C7.40751 14.2002 7.50024 14.5974 7.49983 15ZM19.1248 17.625C18.6473 17.6248 18.1789 17.4943 17.7701 17.2477C17.3612 17.001 17.0274 16.6475 16.8045 16.2252C16.5816 15.8029 16.4782 15.3278 16.5053 14.8511C16.5324 14.3743 16.689 13.914 16.9583 13.5197L18.1526 15.5672C18.3076 15.8144 18.5527 15.9918 18.836 16.0618C19.1193 16.1318 19.4187 16.089 19.671 15.9424C19.9233 15.7958 20.1088 15.5569 20.1883 15.2761C20.2678 14.9953 20.2351 14.6946 20.097 14.4375L18.9017 12.39C18.9758 12.3834 19.0498 12.3797 19.1248 12.3797C19.821 12.3797 20.4887 12.6562 20.981 13.1485C21.4733 13.6408 21.7498 14.3085 21.7498 15.0047C21.7498 15.7009 21.4733 16.3686 20.981 16.8608C20.4887 17.3531 19.821 17.6297 19.1248 17.6297V17.625Z" fill="#130032"/>
</g>
<defs>
<clipPath id="clip0_7_19046">
<rect width="24" height="24" fill="white"/>
</clipPath>
</defs>
</svg>
