<svg width="24" height="24" viewBox="0 0 24 24" fill="none" xmlns="http://www.w3.org/2000/svg">
<path d="M22.5937 14.1241C22.5937 14.1241 22.5937 14.1241 22.5937 14.1195C22.5263 13.9303 22.4471 13.7456 22.3566 13.5663L18.4622 4.70508C18.4059 4.57747 18.3265 4.46144 18.2278 4.36289C17.9144 4.04937 17.5423 3.80067 17.1327 3.631C16.7232 3.46132 16.2842 3.37398 15.8409 3.37398C15.3976 3.37398 14.9587 3.46132 14.5491 3.631C14.1396 3.80067 13.7675 4.04937 13.4541 4.36289C13.2436 4.57359 13.1253 4.85914 13.125 5.15695V7.1257H10.875V5.15695C10.875 4.85882 10.7566 4.57288 10.5459 4.36195C10.2325 4.04844 9.86042 3.79974 9.45087 3.63006C9.04133 3.46038 8.60236 3.37305 8.15906 3.37305C7.71576 3.37305 7.27679 3.46038 6.86725 3.63006C6.4577 3.79974 6.0856 4.04844 5.77218 4.36195C5.67353 4.4605 5.59405 4.57654 5.53781 4.70414L1.64344 13.5663C1.55291 13.7456 1.47369 13.9303 1.40625 14.1195C1.40625 14.1195 1.40625 14.1195 1.40625 14.1241C1.16841 14.7937 1.07979 15.5071 1.1466 16.2144C1.21341 16.9218 1.43402 17.606 1.793 18.2191C2.15198 18.8323 2.64065 19.3595 3.22478 19.764C3.80892 20.1685 4.47441 20.4404 5.17465 20.5607C5.8749 20.6809 6.59297 20.6467 7.2786 20.4604C7.96423 20.274 8.60084 19.9401 9.14386 19.4819C9.68687 19.0237 10.1232 18.4523 10.4222 17.8078C10.7212 17.1633 10.8758 16.4612 10.875 15.7507V9.3757H13.125V15.7507C13.1242 16.4612 13.2788 17.1633 13.5778 17.8078C13.8768 18.4523 14.3131 19.0237 14.8561 19.4819C15.3992 19.9401 16.0358 20.274 16.7214 20.4604C17.407 20.6467 18.1251 20.6809 18.8253 20.5607C19.5256 20.4404 20.1911 20.1685 20.7752 19.764C21.3593 19.3595 21.848 18.8323 22.207 18.2191C22.566 17.606 22.7866 16.9218 22.8534 16.2144C22.9202 15.5071 22.8316 14.7937 22.5937 14.1241ZM7.5 5.83945C7.66073 5.72278 7.84949 5.65073 8.04708 5.63064C8.24468 5.61056 8.44407 5.64314 8.625 5.72508V11.6454C7.62756 11.0053 6.43081 10.7513 5.25937 10.931L7.5 5.83945ZM6 18.3757C5.48082 18.3757 4.9733 18.2217 4.54163 17.9333C4.10995 17.6449 3.77349 17.2349 3.57481 16.7552C3.37613 16.2756 3.32415 15.7478 3.42544 15.2386C3.52672 14.7294 3.77673 14.2617 4.14384 13.8945C4.51096 13.5274 4.97869 13.2774 5.48789 13.1761C5.99709 13.0749 6.52489 13.1268 7.00454 13.3255C7.4842 13.5242 7.89417 13.8607 8.18261 14.2923C8.47104 14.724 8.625 15.2315 8.625 15.7507C8.625 16.4469 8.34844 17.1146 7.85615 17.6069C7.36387 18.0991 6.69619 18.3757 6 18.3757ZM15.375 5.72508C15.5561 5.64371 15.7553 5.61144 15.9528 5.63152C16.1503 5.65159 16.339 5.72331 16.5 5.83945L18.7378 10.931C17.5664 10.7513 16.3696 11.0053 15.3722 11.6454L15.375 5.72508ZM18 18.3757C17.4808 18.3757 16.9733 18.2217 16.5416 17.9333C16.1099 17.6449 15.7735 17.2349 15.5748 16.7552C15.3761 16.2756 15.3241 15.7478 15.4254 15.2386C15.5267 14.7294 15.7767 14.2617 16.1438 13.8945C16.511 13.5274 16.9787 13.2774 17.4879 13.1761C17.9971 13.0749 18.5249 13.1268 19.0045 13.3255C19.4842 13.5242 19.8942 13.8607 20.1826 14.2923C20.471 14.724 20.625 15.2315 20.625 15.7507C20.625 16.4469 20.3484 17.1146 19.8562 17.6069C19.3639 18.0991 18.6962 18.3757 18 18.3757Z" fill="#130032"/>
</svg>
