<svg width="24" height="24" viewBox="0 0 24 24" fill="none" xmlns="http://www.w3.org/2000/svg">
<path d="M17.6494 9.42691C17.6147 9.36035 17.5781 9.29379 17.5406 9.2291C18.1159 7.84254 18.1506 6.29068 17.6377 4.87982C17.1248 3.46896 16.1017 2.30161 14.7703 1.60816C14.6393 1.53984 14.4962 1.49798 14.349 1.48498C14.2018 1.47198 14.0535 1.4881 13.9126 1.53241C13.7716 1.57672 13.6408 1.64836 13.5275 1.74323C13.4143 1.83811 13.3208 1.95436 13.2525 2.08535C13.1842 2.21635 13.1423 2.35951 13.1293 2.50669C13.1163 2.65386 13.1324 2.80214 13.1767 2.94309C13.2211 3.08403 13.2927 3.21486 13.3876 3.32812C13.4824 3.44138 13.5987 3.53484 13.7297 3.60316C14.3393 3.91901 14.8502 4.3965 15.2066 4.98335C15.5629 5.5702 15.7509 6.24378 15.75 6.93035C15.75 7.0241 15.7453 7.11785 15.7378 7.2116C14.6516 6.42169 13.3431 5.99621 12 5.99621C10.6569 5.99621 9.3484 6.42169 8.26219 7.2116C8.25469 7.11785 8.25 7.0241 8.25 6.93035C8.24901 6.24365 8.43697 5.56991 8.79331 4.98289C9.14965 4.39588 9.66063 3.91823 10.2703 3.60223C10.404 3.5355 10.523 3.44282 10.6204 3.32961C10.7179 3.21639 10.7918 3.0849 10.8379 2.94281C10.884 2.80072 10.9013 2.65087 10.8889 2.50201C10.8764 2.35314 10.8345 2.20825 10.7654 2.07578C10.6964 1.94331 10.6017 1.82592 10.4868 1.73045C10.3719 1.63498 10.2391 1.56334 10.0963 1.51973C9.95339 1.47611 9.80327 1.46138 9.65464 1.47641C9.50602 1.49143 9.36188 1.5359 9.23063 1.60723C7.89842 2.30038 6.87458 3.46792 6.36132 4.87924C5.84807 6.29055 5.88272 7.84303 6.45844 9.23004C6.42094 9.29566 6.38531 9.36035 6.35063 9.42691C4.90652 9.61648 3.58046 10.3242 2.6192 11.4184C1.65793 12.5127 1.12693 13.9189 1.125 15.3754C1.125 15.6737 1.24353 15.9599 1.4545 16.1708C1.66548 16.3818 1.95163 16.5004 2.25 16.5004C2.54837 16.5004 2.83452 16.3818 3.0455 16.1708C3.25647 15.9599 3.375 15.6737 3.375 15.3754C3.37516 14.6427 3.58993 13.9261 3.99279 13.3142C4.39565 12.7022 4.96895 12.2217 5.64188 11.9319C5.63156 12.0782 5.625 12.2263 5.625 12.3754C5.62644 13.6299 5.99735 14.8562 6.69144 15.9012C7.38552 16.9463 8.37202 17.7637 9.52781 18.2516C8.91626 18.762 8.15808 19.0643 7.36316 19.1149C6.56823 19.1655 5.77786 18.9616 5.10656 18.5329C4.98216 18.4507 4.84269 18.3941 4.69624 18.3664C4.54978 18.3386 4.39927 18.3403 4.25346 18.3712C4.10764 18.4021 3.96942 18.4617 3.84682 18.5465C3.72423 18.6313 3.61971 18.7396 3.53934 18.8651C3.45896 18.9906 3.40433 19.1309 3.37863 19.2777C3.35292 19.4245 3.35665 19.575 3.3896 19.7204C3.42254 19.8658 3.48405 20.0031 3.57054 20.1245C3.65704 20.2459 3.76679 20.3489 3.89344 20.4275C5.18739 21.2554 6.74975 21.5551 8.25818 21.2646C9.76661 20.9742 11.106 20.1158 12 18.8666C12.8934 20.1164 14.2326 20.9755 15.741 21.2667C17.2495 21.5578 18.8122 21.2588 20.1066 20.4313C20.2332 20.3527 20.343 20.2497 20.4295 20.1283C20.516 20.0069 20.5775 19.8695 20.6104 19.7241C20.6434 19.5788 20.6471 19.4283 20.6214 19.2815C20.5957 19.1346 20.541 18.9944 20.4607 18.8689C20.3803 18.7433 20.2758 18.635 20.1532 18.5502C20.0306 18.4654 19.8924 18.4058 19.7465 18.3749C19.6007 18.344 19.4502 18.3424 19.3038 18.3701C19.1573 18.3979 19.0178 18.4545 18.8934 18.5366C18.2221 18.9654 17.4318 19.1692 16.6368 19.1187C15.8419 19.0681 15.0837 18.7657 14.4722 18.2554C15.6286 17.7673 16.6155 16.9492 17.3096 15.9034C18.0037 14.8577 18.3743 13.6305 18.375 12.3754C18.375 12.2263 18.3684 12.0782 18.3581 11.9319C19.031 12.2217 19.6043 12.7022 20.0072 13.3142C20.4101 13.9261 20.6248 14.6427 20.625 15.3754C20.625 15.6737 20.7435 15.9599 20.9545 16.1708C21.1655 16.3818 21.4516 16.5004 21.75 16.5004C22.0484 16.5004 22.3345 16.3818 22.5455 16.1708C22.7565 15.9599 22.875 15.6737 22.875 15.3754C22.8731 13.9189 22.3421 12.5127 21.3808 11.4184C20.4195 10.3242 19.0935 9.61648 17.6494 9.42691ZM12 8.25035C13.0549 8.24995 14.0695 8.65508 14.8341 9.38191C14.4826 9.78914 14.0476 10.1159 13.5585 10.3398C13.0695 10.5637 12.5379 10.6797 12 10.6797C11.4621 10.6797 10.9305 10.5637 10.4415 10.3398C9.95241 10.1159 9.51736 9.78914 9.16594 9.38191C9.93024 8.65475 10.945 8.24957 12 8.25035ZM7.875 12.3754C7.87514 12.1537 7.89301 11.9323 7.92844 11.7135C8.42024 11.8213 8.88529 12.0271 9.29585 12.3186C9.70641 12.61 10.0541 12.9811 10.3181 13.4098C10.5822 13.8385 10.7572 14.316 10.8327 14.8138C10.9083 15.3116 10.8828 15.8195 10.7578 16.3072C9.92246 16.0422 9.19299 15.5185 8.6748 14.8117C8.1566 14.1049 7.87651 13.2517 7.875 12.3754ZM13.2422 16.3129C13.1172 15.8251 13.0917 15.3172 13.1673 14.8194C13.2428 14.3216 13.4178 13.8442 13.6819 13.4155C13.9459 12.9868 14.2936 12.6156 14.7042 12.3242C15.1147 12.0327 15.5798 11.827 16.0716 11.7191C16.2301 12.6969 16.0315 13.6992 15.512 14.5427C14.9925 15.3861 14.1868 16.0145 13.2422 16.3129Z" fill="#130032"/>
</svg>
