<svg width="24" height="24" viewBox="0 0 24 24" fill="none" xmlns="http://www.w3.org/2000/svg">
<path d="M16.4998 6.75C16.4998 7.04668 16.4119 7.33669 16.2471 7.58336C16.0822 7.83003 15.848 8.02229 15.5739 8.13582C15.2998 8.24935 14.9982 8.27906 14.7072 8.22118C14.4162 8.1633 14.149 8.02044 13.9392 7.81066C13.7294 7.60089 13.5865 7.33361 13.5287 7.04264C13.4708 6.75167 13.5005 6.45007 13.614 6.17598C13.7276 5.90189 13.9198 5.66762 14.1665 5.5028C14.4132 5.33798 14.7032 5.25 14.9998 5.25C15.3977 5.25 15.7792 5.40804 16.0605 5.68934C16.3418 5.97065 16.4998 6.35218 16.4998 6.75ZM22.8748 7.5C22.8751 7.68542 22.8296 7.86804 22.7422 8.0316C22.6549 8.19516 22.5285 8.3346 22.3742 8.4375L20.6248 9.60188V11.25C20.6219 13.9344 19.5542 16.508 17.656 18.4062C15.7579 20.3043 13.1842 21.372 10.4998 21.375H2.24985C1.89678 21.3746 1.55099 21.2745 1.25229 21.0863C0.953585 20.898 0.7141 20.6293 0.561396 20.311C0.408691 19.9926 0.348971 19.6376 0.38911 19.2868C0.429249 18.9361 0.567615 18.6037 0.788284 18.3281L0.802346 18.3113L8.62485 8.92313V7.20844C8.62485 3.87 11.3033 1.14094 14.5958 1.125H14.6248C15.8767 1.1237 17.0976 1.5144 18.1162 2.24226C19.1348 2.97012 19.8999 3.99862 20.3042 5.18344L22.3742 6.5625C22.5285 6.66541 22.6549 6.80485 22.7422 6.96841C22.8296 7.13197 22.8751 7.31458 22.8748 7.5ZM19.722 7.5L18.7198 6.83157C18.4879 6.67826 18.3209 6.44448 18.2511 6.17532C18.0412 5.37339 17.5714 4.66363 16.9154 4.15698C16.2593 3.65032 15.4538 3.37534 14.6248 3.375H14.607C12.5492 3.38532 10.8758 5.10469 10.8758 7.20844V9.33C10.8757 9.59353 10.7832 9.84868 10.6142 10.0509L3.05328 19.125H4.97328L11.5114 11.28C11.6045 11.1621 11.7203 11.064 11.8519 10.9915C11.9835 10.9191 12.1283 10.8737 12.2778 10.8581C12.4272 10.8426 12.5783 10.8571 12.722 10.9008C12.8657 10.9446 12.9993 11.0167 13.1147 11.1129C13.2301 11.2091 13.3251 11.3274 13.394 11.4609C13.463 11.5944 13.5045 11.7404 13.5161 11.8902C13.5277 12.04 13.5092 12.1906 13.4616 12.3331C13.4141 12.4756 13.3384 12.6072 13.2392 12.72L7.90203 19.125H10.4998C12.5877 19.1228 14.5895 18.2924 16.0658 16.816C17.5422 15.3396 18.3726 13.3379 18.3748 11.25V9C18.3747 8.8145 18.4204 8.63183 18.5079 8.46826C18.5954 8.30469 18.722 8.1653 18.8764 8.0625L19.722 7.5Z" fill="#130032"/>
</svg>
