<svg width="24" height="24" viewBox="0 0 24 24" fill="none" xmlns="http://www.w3.org/2000/svg">
<path d="M17.175 15.6L12.375 12L13.4634 11.1834C13.5816 11.0948 13.6812 10.9837 13.7565 10.8566C13.8317 10.7295 13.8812 10.5888 13.9021 10.4425C13.923 10.2963 13.9149 10.1473 13.8782 10.0042C13.8416 9.86112 13.7771 9.72663 13.6884 9.60844C13.5998 9.49025 13.4887 9.39068 13.3616 9.3154C13.2345 9.24013 13.0938 9.19064 12.9475 9.16975C12.8013 9.14885 12.6524 9.15697 12.5092 9.19364C12.3661 9.2303 12.2316 9.2948 12.1134 9.38344L11.625 9.75V5.25L12.1134 5.61656C12.2316 5.70521 12.3661 5.7697 12.5092 5.80637C12.6524 5.84303 12.8013 5.85115 12.9475 5.83026C13.0938 5.80936 13.2345 5.75987 13.3616 5.6846C13.4887 5.60933 13.5998 5.50975 13.6884 5.39156C13.7771 5.27337 13.8416 5.13888 13.8782 4.99577C13.9149 4.85265 13.923 4.70372 13.9021 4.55746C13.8812 4.41121 13.8317 4.27051 13.7565 4.14338C13.6812 4.01626 13.5816 3.90521 13.4634 3.81656L11.175 2.1C11.0079 1.97464 10.8091 1.89831 10.601 1.87955C10.393 1.86078 10.1838 1.90034 9.99689 1.99377C9.81002 2.0872 9.65286 2.23083 9.54302 2.40855C9.43318 2.58628 9.375 2.79107 9.375 3V9.75L5.175 6.6C4.93631 6.42098 4.63628 6.34411 4.34091 6.38631C4.04554 6.4285 3.77903 6.58631 3.6 6.825C3.42098 7.0637 3.34412 7.36373 3.38631 7.6591C3.42851 7.95447 3.58631 8.22098 3.825 8.4L8.625 12L3.825 15.6C3.70681 15.6886 3.60724 15.7997 3.53197 15.9268C3.4567 16.0539 3.4072 16.1946 3.38631 16.3409C3.36542 16.4872 3.37354 16.6361 3.4102 16.7792C3.44687 16.9223 3.51136 17.0568 3.6 17.175C3.68865 17.2932 3.7997 17.3928 3.92682 17.468C4.05395 17.5433 4.19465 17.5928 4.34091 17.6137C4.48716 17.6346 4.63609 17.6265 4.77921 17.5898C4.92232 17.5531 5.05682 17.4886 5.175 17.4L9.375 14.25V21C9.375 21.2089 9.43318 21.4137 9.54302 21.5914C9.65286 21.7692 9.81002 21.9128 9.99689 22.0062C10.1838 22.0997 10.393 22.1392 10.601 22.1205C10.8091 22.1017 11.0079 22.0254 11.175 21.9L17.175 17.4C17.3147 17.2952 17.4281 17.1593 17.5062 17.0031C17.5843 16.8469 17.625 16.6747 17.625 16.5C17.625 16.3253 17.5843 16.1531 17.5062 15.9969C17.4281 15.8407 17.3147 15.7048 17.175 15.6ZM11.625 18.75V14.25L14.625 16.5L11.625 18.75ZM22.5459 8.95406C22.7573 9.16541 22.876 9.45205 22.876 9.75094C22.876 10.0498 22.7573 10.3365 22.5459 10.5478C22.3346 10.7592 22.048 10.8779 21.7491 10.8779C21.4502 10.8779 21.1635 10.7592 20.9522 10.5478L19.5 9.09375L18.0459 10.5487C17.9413 10.6534 17.8171 10.7364 17.6803 10.793C17.5436 10.8497 17.3971 10.8788 17.2491 10.8788C17.1011 10.8788 16.9545 10.8497 16.8178 10.793C16.6811 10.7364 16.5568 10.6534 16.4522 10.5487C16.3475 10.4441 16.2645 10.3199 16.2079 10.1831C16.1513 10.0464 16.1221 9.89987 16.1221 9.75188C16.1221 9.60388 16.1513 9.45734 16.2079 9.32061C16.2645 9.18388 16.3475 9.05965 16.4522 8.955L17.9063 7.5L16.455 6.04594C16.2437 5.83459 16.1249 5.54795 16.1249 5.24906C16.1249 4.95018 16.2437 4.66353 16.455 4.45219C16.6663 4.24084 16.953 4.12211 17.2519 4.12211C17.5508 4.12211 17.8374 4.24084 18.0488 4.45219L19.5 5.90625L20.9541 4.45125C21.1654 4.23991 21.4521 4.12117 21.7509 4.12117C22.0498 4.12117 22.3365 4.23991 22.5478 4.45125C22.7592 4.66259 22.8779 4.94924 22.8779 5.24813C22.8779 5.54701 22.7592 5.83366 22.5478 6.045L21.0938 7.5L22.5459 8.95406Z" fill="#130032"/>
</svg>
