<svg width="24" height="24" viewBox="0 0 24 24" fill="none" xmlns="http://www.w3.org/2000/svg">
<path d="M21.0822 19.4934L6.08222 2.99344C5.88051 2.77676 5.60153 2.64832 5.30575 2.63596C5.00998 2.62361 4.72125 2.72833 4.50217 2.92742C4.28309 3.12652 4.15132 3.40394 4.13542 3.69955C4.11951 3.99515 4.22076 4.28511 4.41722 4.50656L10.781 11.5078L5.32472 15.6C5.20653 15.6886 5.10696 15.7997 5.03169 15.9268C4.95641 16.0539 4.90692 16.1946 4.88603 16.3409C4.86513 16.4872 4.87325 16.6361 4.90992 16.7792C4.94658 16.9223 5.01108 17.0568 5.09972 17.175C5.18836 17.2932 5.29941 17.3928 5.42654 17.468C5.55366 17.5433 5.69437 17.5928 5.84062 17.6137C5.98687 17.6346 6.13581 17.6265 6.27892 17.5898C6.42204 17.5531 6.55653 17.4886 6.67472 17.4L10.8747 14.25V21C10.8747 21.2089 10.9329 21.4137 11.0427 21.5914C11.1526 21.7692 11.3097 21.9128 11.4966 22.0062C11.6835 22.0997 11.8927 22.1392 12.1007 22.1205C12.3088 22.1017 12.5076 22.0254 12.6747 21.9L17.1663 18.5306L19.4163 21.0066C19.618 21.2232 19.897 21.3517 20.1927 21.364C20.4885 21.3764 20.7772 21.2717 20.9963 21.0726C21.2154 20.8735 21.3472 20.5961 21.3631 20.3005C21.379 20.0048 21.2777 19.7149 21.0813 19.4934H21.0822ZM13.1247 18.75V14.25L13.5935 14.6034L15.6438 16.8591L13.1247 18.75ZM10.8747 5.60063V3C10.8747 2.79107 10.9329 2.58628 11.0427 2.40855C11.1526 2.23083 11.3097 2.0872 11.4966 1.99377C11.6835 1.90034 11.8927 1.86078 12.1007 1.87955C12.3088 1.89831 12.5076 1.97464 12.6747 2.1L18.6747 6.6C18.8144 6.70479 18.9278 6.84067 19.0059 6.99689C19.0841 7.1531 19.1247 7.32535 19.1247 7.5C19.1247 7.67465 19.0841 7.8469 19.0059 8.00312C18.9278 8.15933 18.8144 8.29521 18.6747 8.4L16.1341 10.3059C15.8954 10.485 15.5954 10.5618 15.3 10.5196C15.0046 10.4774 14.7381 10.3196 14.5591 10.0809C14.3801 9.84224 14.3032 9.54221 14.3454 9.24684C14.3876 8.95147 14.5454 8.68496 14.7841 8.50594L16.1247 7.5L13.1247 5.25V5.60063C13.1247 5.89899 13.0062 6.18514 12.7952 6.39612C12.5842 6.6071 12.2981 6.72563 11.9997 6.72563C11.7014 6.72563 11.4152 6.6071 11.2042 6.39612C10.9932 6.18514 10.8747 5.89899 10.8747 5.60063Z" fill="#130032"/>
</svg>
