<svg width="24" height="24" viewBox="0 0 24 24" fill="none" xmlns="http://www.w3.org/2000/svg">
<path d="M18.675 15.6L13.875 12L18.675 8.4C18.8147 8.29521 18.9281 8.15933 19.0062 8.00312C19.0843 7.8469 19.125 7.67465 19.125 7.5C19.125 7.32535 19.0843 7.1531 19.0062 6.99689C18.9281 6.84067 18.8147 6.70479 18.675 6.6L12.675 2.1C12.5079 1.97464 12.3091 1.89831 12.101 1.87955C11.893 1.86078 11.6838 1.90034 11.4969 1.99377C11.31 2.0872 11.1529 2.23083 11.043 2.40855C10.9332 2.58628 10.875 2.79107 10.875 3V9.75L6.675 6.6C6.43631 6.42098 6.13627 6.34411 5.8409 6.38631C5.54553 6.4285 5.27902 6.58631 5.1 6.825C4.92098 7.0637 4.84411 7.36373 4.88631 7.6591C4.9285 7.95447 5.08631 8.22098 5.325 8.4L10.125 12L5.325 15.6C5.20681 15.6886 5.10724 15.7997 5.03197 15.9268C4.9567 16.0539 4.9072 16.1946 4.88631 16.3409C4.86541 16.4872 4.87353 16.6361 4.9102 16.7792C4.94686 16.9223 5.01136 17.0568 5.1 17.175C5.18864 17.2932 5.2997 17.3928 5.42682 17.468C5.55394 17.5433 5.69465 17.5928 5.8409 17.6137C5.98715 17.6346 6.13609 17.6265 6.2792 17.5898C6.42232 17.5531 6.55681 17.4886 6.675 17.4L10.875 14.25V21C10.875 21.2089 10.9332 21.4137 11.043 21.5914C11.1529 21.7692 11.31 21.9128 11.4969 22.0062C11.6838 22.0997 11.893 22.1392 12.101 22.1205C12.3091 22.1017 12.5079 22.0254 12.675 21.9L18.675 17.4C18.8147 17.2952 18.9281 17.1593 19.0062 17.0031C19.0843 16.8469 19.125 16.6747 19.125 16.5C19.125 16.3253 19.0843 16.1531 19.0062 15.9969C18.9281 15.8407 18.8147 15.7048 18.675 15.6ZM13.125 5.25L16.125 7.5L13.125 9.75V5.25ZM13.125 18.75V14.25L16.125 16.5L13.125 18.75ZM5.25 13.5C4.95333 13.5 4.66332 13.412 4.41665 13.2472C4.16997 13.0824 3.97771 12.8481 3.86418 12.574C3.75065 12.2999 3.72094 11.9983 3.77882 11.7074C3.8367 11.4164 3.97956 11.1491 4.18934 10.9393C4.39912 10.7296 4.66639 10.5867 4.95737 10.5288C5.24834 10.4709 5.54994 10.5006 5.82403 10.6142C6.09812 10.7277 6.33238 10.92 6.49721 11.1666C6.66203 11.4133 6.75 11.7033 6.75 12C6.75 12.3978 6.59197 12.7794 6.31066 13.0607C6.02936 13.342 5.64783 13.5 5.25 13.5ZM21 12C21 12.2967 20.912 12.5867 20.7472 12.8334C20.5824 13.08 20.3481 13.2723 20.074 13.3858C19.7999 13.4994 19.4983 13.5291 19.2074 13.4712C18.9164 13.4133 18.6491 13.2704 18.4393 13.0607C18.2296 12.8509 18.0867 12.5836 18.0288 12.2926C17.9709 12.0017 18.0007 11.7001 18.1142 11.426C18.2277 11.1519 18.42 10.9176 18.6666 10.7528C18.9133 10.588 19.2033 10.5 19.5 10.5C19.8978 10.5 20.2794 10.658 20.5607 10.9393C20.842 11.2206 21 11.6022 21 12Z" fill="#130032"/>
</svg>
