<svg width="24" height="24" viewBox="0 0 24 24" fill="none" xmlns="http://www.w3.org/2000/svg">
<g clip-path="url(#clip0_7_19245)">
<path d="M22.8752 2.625C22.5769 2.625 22.2907 2.74353 22.0797 2.9545C21.8688 3.16548 21.7502 3.45163 21.7502 3.75C21.7314 4.26401 21.6258 4.77115 21.438 5.25C21.0218 6.2475 20.3843 6.375 19.8752 6.375C19.0493 6.375 18.4774 5.57812 17.6337 4.26656C16.7346 2.86687 15.6143 1.125 13.5002 1.125C11.7996 1.125 10.5002 2.04188 9.83085 3.70688C9.68185 4.08469 9.56916 4.47583 9.49429 4.875H8.25023C7.75295 4.875 7.27603 5.07254 6.9244 5.42417C6.57277 5.77581 6.37523 6.25272 6.37523 6.75V7.42313C4.69046 8.33943 3.35915 9.79111 2.59173 11.5487C1.82431 13.3063 1.66456 15.2695 2.13774 17.128C2.61093 18.9866 3.69004 20.6344 5.20451 21.811C6.71898 22.9876 8.58241 23.6259 10.5002 23.625H10.6559C12.5605 23.5921 14.4007 22.9295 15.8891 21.7407C17.3776 20.552 18.4307 18.9039 18.884 17.0537C19.3373 15.2035 19.1653 13.2552 18.3949 11.5131C17.6245 9.77087 16.299 8.33274 14.6252 7.42313V6.75C14.6252 6.25272 14.4277 5.77581 14.0761 5.42417C13.7244 5.07254 13.2475 4.875 12.7502 4.875H11.8062C11.8434 4.74782 11.8872 4.62265 11.9374 4.5C12.3537 3.50437 12.9912 3.375 13.5002 3.375C14.3262 3.375 14.898 4.17188 15.7418 5.48344C16.6409 6.88313 17.7612 8.625 19.8752 8.625C21.5759 8.625 22.8752 7.70813 23.5446 6.04313C23.8289 5.31112 23.9831 4.53508 24.0002 3.75C24.0002 3.45163 23.8817 3.16548 23.6707 2.9545C23.4597 2.74353 23.1736 2.625 22.8752 2.625ZM13.0502 9.15469C14.3926 9.74053 15.4922 10.7707 16.1643 12.072C16.8364 13.3732 17.04 14.8662 16.7408 16.2999C16.4415 17.7336 15.6578 19.0206 14.5213 19.9444C13.3848 20.8682 11.9648 21.3725 10.5002 21.3725C9.03563 21.3725 7.6157 20.8682 6.4792 19.9444C5.34269 19.0206 4.55893 17.7336 4.2597 16.2999C3.96047 14.8662 4.16402 13.3732 4.83613 12.072C5.50824 10.7707 6.60791 9.74053 7.95023 9.15469C8.15088 9.06712 8.32162 8.9229 8.44152 8.73973C8.56142 8.55655 8.62526 8.34237 8.62523 8.12344V7.125H10.4534C10.4693 7.125 10.4843 7.125 10.5002 7.125C10.5162 7.125 10.5321 7.125 10.548 7.125H12.3752V8.12438C12.3754 8.34314 12.4393 8.55712 12.5592 8.74012C12.6791 8.92311 12.8497 9.06718 13.0502 9.15469ZM10.4487 18.915C10.377 19.1436 10.2342 19.3433 10.0412 19.4851C9.84809 19.627 9.61479 19.7034 9.37523 19.7034C9.26078 19.7032 9.14702 19.6859 9.03773 19.6519C8.04625 19.3433 7.17981 18.725 6.56562 17.8878C5.95142 17.0505 5.62183 16.0384 5.62523 15C5.62523 14.7016 5.74375 14.4155 5.95473 14.2045C6.16571 13.9935 6.45186 13.875 6.75023 13.875C7.0486 13.875 7.33474 13.9935 7.54572 14.2045C7.7567 14.4155 7.87523 14.7016 7.87523 15C7.87341 15.5591 8.05089 16.1041 8.38161 16.555C8.71232 17.0058 9.17886 17.3388 9.71273 17.505C9.99724 17.5945 10.2346 17.7932 10.3726 18.0576C10.5106 18.3221 10.538 18.6304 10.4487 18.915Z" fill="#130032"/>
</g>
<defs>
<clipPath id="clip0_7_19245">
<rect width="24" height="24" fill="white"/>
</clipPath>
</defs>
</svg>
