<svg width="24" height="24" viewBox="0 0 24 24" fill="none" xmlns="http://www.w3.org/2000/svg">
<path d="M22.0065 5.46694C21.4488 4.79673 20.6745 4.34242 19.8174 4.18257C19.7152 3.65534 19.5009 3.15623 19.189 2.719C18.8772 2.28177 18.4751 1.91662 18.0099 1.64825C17.5447 1.37989 17.0273 1.21457 16.4927 1.16349C15.9581 1.1124 15.4187 1.17674 14.9112 1.35216C14.4036 1.52757 13.9396 1.80996 13.5506 2.18022C13.1616 2.55049 12.8566 2.99999 12.6564 3.49831C12.4562 3.99663 12.3653 4.53214 12.3899 5.06862C12.4146 5.6051 12.5542 6.13002 12.7993 6.60788L6.61178 12.8001C6.13393 12.555 5.609 12.4154 5.07252 12.3907C4.53605 12.3661 4.00053 12.4569 3.50221 12.6572C3.00389 12.8574 2.55439 13.1623 2.18413 13.5514C1.81387 13.9404 1.53148 14.4043 1.35606 14.9119C1.18065 15.4195 1.11631 15.9589 1.16739 16.4935C1.21848 17.0281 1.3838 17.5455 1.65216 18.0107C1.92052 18.4759 2.28567 18.878 2.72291 19.1898C3.16014 19.5017 3.65925 19.716 4.18647 19.8182C4.28852 20.3455 4.50266 20.8448 4.81441 21.2822C5.12615 21.7196 5.52823 22.085 5.99342 22.3535C6.45862 22.622 6.97607 22.7875 7.51076 22.8387C8.04545 22.8899 8.5849 22.8256 9.0926 22.6503C9.6003 22.4749 10.0644 22.1925 10.4535 21.8222C10.8426 21.4519 11.1476 21.0023 11.3478 20.5039C11.5481 20.0055 11.6389 19.4698 11.6142 18.9333C11.5895 18.3967 11.4498 17.8717 11.2046 17.3938L17.3968 11.2007C18.1663 11.6053 19.0524 11.7299 19.9037 11.5534C20.7549 11.3768 21.5184 10.9099 22.0634 10.2326C22.6085 9.55535 22.9013 8.70973 22.8917 7.84042C22.8822 6.97111 22.5709 6.13211 22.0112 5.46694H22.0065ZM20.259 8.86069C20.0238 9.12884 19.7009 9.30443 19.348 9.35597C18.9951 9.40751 18.6354 9.33163 18.3333 9.14194C17.9735 8.9142 17.5468 8.81574 17.1236 8.86277C16.7003 8.9098 16.3057 9.09951 16.0046 9.40069L9.4046 16.0007C9.10356 16.3019 8.91403 16.6966 8.86717 17.1198C8.82031 17.5431 8.91892 17.9697 9.14679 18.3294C9.27423 18.5349 9.35013 18.7681 9.36802 19.0092C9.38591 19.2503 9.34525 19.4922 9.24951 19.7142C9.15378 19.9362 9.00579 20.1317 8.81818 20.2842C8.63056 20.4367 8.40886 20.5416 8.17197 20.5899C7.93509 20.6382 7.69003 20.6286 7.45767 20.5618C7.22532 20.495 7.01255 20.373 6.8375 20.2062C6.66245 20.0395 6.53031 19.8329 6.45232 19.604C6.37433 19.3752 6.35281 19.1309 6.3896 18.8919C6.41404 18.7317 6.40358 18.5681 6.35894 18.4123C6.3143 18.2566 6.23652 18.1122 6.13093 17.9893C6.02535 17.8664 5.89445 17.7677 5.74719 17.7C5.59993 17.6323 5.43978 17.5973 5.27772 17.5973C5.21965 17.597 5.16165 17.6014 5.10429 17.6104C4.86525 17.6474 4.62082 17.626 4.39182 17.5481C4.16283 17.4702 3.95606 17.3381 3.78916 17.1631C3.62226 16.988 3.50017 16.7752 3.4333 16.5427C3.36643 16.3103 3.35677 16.0651 3.40514 15.8281C3.4535 15.5911 3.55846 15.3693 3.71107 15.1817C3.86367 14.994 4.0594 14.846 4.28155 14.7503C4.50371 14.6547 4.7457 14.6142 4.98691 14.6322C5.22811 14.6503 5.46137 14.7264 5.66679 14.8541C6.02655 15.0816 6.45301 15.18 6.87606 15.1329C7.29912 15.0859 7.69358 14.8963 7.9946 14.5954L14.5946 7.99538C14.8958 7.6943 15.0855 7.29966 15.1325 6.8764C15.1795 6.45314 15.0811 6.02648 14.8533 5.66663C14.7256 5.46121 14.6495 5.22795 14.6314 4.98675C14.6134 4.74555 14.6539 4.50355 14.7496 4.2814C14.8452 4.05924 14.9932 3.86352 15.1809 3.71091C15.3685 3.55831 15.5903 3.45335 15.8273 3.40498C16.0643 3.35661 16.3095 3.36628 16.5419 3.43315C16.7744 3.50001 16.9872 3.6221 17.1623 3.78901C17.3374 3.95591 17.4695 4.16267 17.5474 4.39167C17.6252 4.62066 17.6466 4.8651 17.6096 5.10413C17.5822 5.27917 17.5966 5.4582 17.6515 5.62664C17.7064 5.79508 17.8003 5.94817 17.9256 6.07345C18.0509 6.19872 18.204 6.29264 18.3724 6.34755C18.5408 6.40246 18.7199 6.41682 18.8949 6.38944C19.1998 6.3406 19.5123 6.38702 19.7898 6.52237C20.0673 6.65771 20.2962 6.87539 20.4454 7.14569C20.5946 7.41599 20.6568 7.72574 20.6234 8.03268C20.59 8.33961 20.4628 8.62877 20.259 8.86069Z" fill="#130032"/>
</svg>
