<svg width="24" height="24" viewBox="0 0 24 24" fill="none" xmlns="http://www.w3.org/2000/svg">
<path d="M21.75 6.75094H15C14.4377 6.75076 13.8814 6.86589 13.3654 7.08922C12.8494 7.31255 12.3847 7.63934 12 8.04938C11.6153 7.63934 11.1506 7.31255 10.6346 7.08922C10.1186 6.86589 9.56226 6.75076 9 6.75094H2.25C1.95163 6.75094 1.66548 6.86946 1.4545 7.08044C1.24353 7.29142 1.125 7.57757 1.125 7.87594V18.7509C1.125 19.0493 1.24353 19.3355 1.4545 19.5464C1.66548 19.7574 1.95163 19.8759 2.25 19.8759H9C9.49728 19.8759 9.97419 20.0735 10.3258 20.4251C10.6775 20.7767 10.875 21.2537 10.875 21.7509C10.875 22.0493 10.9935 22.3355 11.2045 22.5464C11.4155 22.7574 11.7016 22.8759 12 22.8759C12.2984 22.8759 12.5845 22.7574 12.7955 22.5464C13.0065 22.3355 13.125 22.0493 13.125 21.7509C13.125 21.2537 13.3225 20.7767 13.6742 20.4251C14.0258 20.0735 14.5027 19.8759 15 19.8759H21.75C22.0484 19.8759 22.3345 19.7574 22.5455 19.5464C22.7565 19.3355 22.875 19.0493 22.875 18.7509V7.87594C22.875 7.57757 22.7565 7.29142 22.5455 7.08044C22.3345 6.86946 22.0484 6.75094 21.75 6.75094ZM9 17.6259H3.375V9.00094H9C9.49728 9.00094 9.97419 9.19848 10.3258 9.55011C10.6775 9.90174 10.875 10.3787 10.875 10.8759V18.0769C10.2947 17.7798 9.65194 17.6252 9 17.6259ZM20.625 17.6259H15C14.3479 17.6255 13.7051 17.7808 13.125 18.0788V10.8759C13.125 10.3787 13.3225 9.90174 13.6742 9.55011C14.0258 9.19848 14.5027 9.00094 15 9.00094H20.625V17.6259ZM8.1 3.825C8.55409 3.21954 9.14291 2.72813 9.81983 2.38967C10.4968 2.05121 11.2432 1.875 12 1.875C12.7568 1.875 13.5032 2.05121 14.1802 2.38967C14.8571 2.72813 15.4459 3.21954 15.9 3.825C16.0793 4.06357 16.1564 4.36358 16.1145 4.65904C16.0726 4.9545 15.915 5.2212 15.6764 5.40047C15.4378 5.57974 15.1378 5.65689 14.8424 5.61496C14.5469 5.57303 14.2802 5.41545 14.1009 5.17688C13.8565 4.8505 13.5393 4.58558 13.1746 4.4031C12.81 4.22063 12.4078 4.12562 12 4.12562C11.5922 4.12562 11.19 4.22063 10.8254 4.4031C10.4607 4.58558 10.1435 4.8505 9.89906 5.17688C9.71979 5.41545 9.45309 5.57303 9.15764 5.61496C8.86218 5.65689 8.56216 5.57974 8.32359 5.40047C8.08502 5.2212 7.92744 4.9545 7.88551 4.65904C7.84357 4.36358 7.92073 4.06357 8.1 3.825Z" fill="#130032"/>
</svg>
