<svg width="24" height="24" viewBox="0 0 24 24" fill="none" xmlns="http://www.w3.org/2000/svg">
<path d="M22.0847 18.1614L18.9731 3.36766C18.9227 3.1258 18.8251 2.89628 18.6857 2.69229C18.5463 2.4883 18.368 2.31387 18.161 2.17901C17.9541 2.04415 17.7224 1.95152 17.4795 1.90646C17.2366 1.86139 16.9872 1.86478 16.7456 1.91641L12.3572 2.85954C11.9537 2.94702 11.5909 3.16637 11.3259 3.48298C11.156 3.21949 10.9227 3.00282 10.6474 2.8528C10.3721 2.70277 10.0635 2.62419 9.75 2.62423H5.25C4.75272 2.62423 4.27581 2.82177 3.92417 3.1734C3.57254 3.52503 3.375 4.00194 3.375 4.49923V19.4992C3.375 19.9965 3.57254 20.4734 3.92417 20.8251C4.27581 21.1767 4.75272 21.3742 5.25 21.3742H9.75C10.2473 21.3742 10.7242 21.1767 11.0758 20.8251C11.4275 20.4734 11.625 19.9965 11.625 19.4992V8.46016L14.0269 19.8808C14.1144 20.302 14.3441 20.6803 14.6775 20.9522C15.0109 21.2241 15.4276 21.3731 15.8578 21.3742C15.9911 21.3741 16.124 21.36 16.2544 21.332L20.6428 20.3889C21.1283 20.2828 21.5522 19.9892 21.8223 19.572C22.0923 19.1548 22.1866 18.6478 22.0847 18.1614ZM13.8928 8.31016L17.5491 7.52454L17.7863 8.64954L14.13 9.43516L13.8928 8.31016ZM14.5922 11.6383L18.2484 10.8527L19.1072 14.9383L15.4509 15.7239L14.5922 11.6383ZM16.8478 4.19548L17.085 5.32048L13.4288 6.1061L13.1916 4.9811L16.8478 4.19548ZM5.625 8.24923H9.375V15.7492H5.625V8.24923ZM9.375 4.87423V5.99923H5.625V4.87423H9.375ZM5.625 19.1242V17.9992H9.375V19.1242H5.625ZM16.1522 19.053L15.915 17.928L19.5712 17.1424L19.8084 18.2674L16.1522 19.053Z" fill="#130032"/>
</svg>
