<svg width="24" height="24" viewBox="0 0 24 24" fill="none" xmlns="http://www.w3.org/2000/svg">
<path d="M18 1.875H9C8.50272 1.875 8.02581 2.07254 7.67417 2.42417C7.32254 2.77581 7.125 3.25272 7.125 3.75V5.625H6C5.50272 5.625 5.02581 5.82254 4.67417 6.17417C4.32254 6.5258 4.125 7.00272 4.125 7.5V21C4.12498 21.2101 4.18381 21.4161 4.29484 21.5945C4.40586 21.7729 4.56463 21.9167 4.75316 22.0095C4.9417 22.1023 5.15245 22.1404 5.36155 22.1196C5.57065 22.0987 5.76974 22.0197 5.93625 21.8916L10.125 18.6694L14.3147 21.8916C14.4812 22.0195 14.6802 22.0982 14.8891 22.1189C15.0981 22.1396 15.3087 22.1014 15.497 22.0086C15.6854 21.9159 15.8441 21.7722 15.955 21.594C16.066 21.4157 16.1249 21.21 16.125 21V16.65L18.0637 18.1416C18.2303 18.2697 18.4293 18.3487 18.6384 18.3696C18.8475 18.3904 19.0583 18.3523 19.2468 18.2595C19.4354 18.1667 19.5941 18.0229 19.7052 17.8445C19.8162 17.6661 19.875 17.4601 19.875 17.25V3.75C19.875 3.25272 19.6775 2.77581 19.3258 2.42417C18.9742 2.07254 18.4973 1.875 18 1.875ZM13.875 18.7153L10.8103 16.3584C10.6137 16.2072 10.3726 16.1252 10.1245 16.1252C9.87648 16.1252 9.63539 16.2072 9.43875 16.3584L6.375 18.7153V7.875H13.875V18.7153ZM17.625 14.9653L16.125 13.8122V7.5C16.125 7.00272 15.9275 6.5258 15.5758 6.17417C15.2242 5.82254 14.7473 5.625 14.25 5.625H9.375V4.125H17.625V14.9653Z" fill="#130032"/>
</svg>
