<svg width="24" height="24" viewBox="0 0 24 24" fill="none" xmlns="http://www.w3.org/2000/svg">
<path d="M18 9.75H15.375V5.25C15.375 5.00377 15.3265 4.75995 15.2323 4.53247C15.138 4.30498 14.9999 4.09828 14.8258 3.92417C14.6517 3.75006 14.445 3.61195 14.2175 3.51773C13.99 3.4235 13.7462 3.375 13.5 3.375H3C2.81751 3.37505 2.63778 3.41949 2.47629 3.50449C2.31481 3.58949 2.17643 3.71249 2.07308 3.8629C1.96973 4.0133 1.90453 4.18659 1.88309 4.36781C1.86164 4.54904 1.88461 4.73276 1.95 4.90312C2.97 7.56469 2.72812 12.2494 1.91906 15.0637C1.88988 15.1649 1.87505 15.2697 1.875 15.375V18.75C1.875 19.2473 2.07254 19.7242 2.42417 20.0758C2.77581 20.4275 3.25272 20.625 3.75 20.625H6.19781C6.49059 20.6253 6.77943 20.5576 7.04156 20.4272L8.14031 19.875H9.48469L10.5881 20.4272C10.8503 20.5576 11.1391 20.6253 11.4319 20.625H14.0775C14.3687 20.6246 14.6558 20.5569 14.9166 20.4272L16.0153 19.875H17.3597L18.4631 20.4272C18.7238 20.5569 19.011 20.6246 19.3022 20.625H21.75C22.2473 20.625 22.7242 20.4275 23.0758 20.0758C23.4275 19.7242 23.625 19.2473 23.625 18.75V15.375C23.6233 13.8837 23.0301 12.454 21.9756 11.3994C20.921 10.3449 19.4913 9.75174 18 9.75ZM4.5 5.625H13.125V9.75H10.875C10.5766 9.75 10.2905 9.86853 10.0795 10.0795C9.86853 10.2905 9.75 10.5766 9.75 10.875C9.75 11.1734 9.86853 11.4595 10.0795 11.6705C10.2905 11.8815 10.5766 12 10.875 12H18C18.6977 12.001 19.378 12.2177 19.9476 12.6206C20.5173 13.0234 20.9484 13.5925 21.1819 14.25H4.42594C4.94531 11.6325 5.08406 8.28844 4.5 5.625ZM21.375 18.375H19.3903L18.2869 17.8228C18.0262 17.6931 17.739 17.6254 17.4478 17.625H15.9272C15.636 17.6254 15.3488 17.6931 15.0881 17.8228L13.9847 18.375H11.5153L10.4119 17.8228C10.1497 17.6924 9.8609 17.6247 9.56812 17.625H8.05219C7.75941 17.6247 7.47057 17.6924 7.20844 17.8228L6.10969 18.375H4.125V16.5H21.375V18.375Z" fill="#130032"/>
</svg>
