<svg width="24" height="24" viewBox="0 0 24 24" fill="none" xmlns="http://www.w3.org/2000/svg">
<path d="M12 1.875C9.99747 1.875 8.0399 2.46882 6.37486 3.58137C4.70981 4.69392 3.41206 6.27523 2.64572 8.12533C1.87939 9.97543 1.67888 12.0112 2.06955 13.9753C2.46023 15.9393 3.42454 17.7435 4.84055 19.1595C6.25656 20.5755 8.06066 21.5398 10.0247 21.9305C11.9888 22.3211 14.0246 22.1206 15.8747 21.3543C17.7248 20.5879 19.3061 19.2902 20.4186 17.6251C21.5312 15.9601 22.125 14.0025 22.125 12C22.122 9.3156 21.0543 6.74199 19.1562 4.84383C17.258 2.94567 14.6844 1.87798 12 1.875ZM16.7138 5.69531L5.69532 16.7137C5.39408 16.3113 5.13166 15.8813 4.91157 15.4294L15.4294 4.91156C15.8813 5.13165 16.3113 5.39408 16.7138 5.69531ZM18.3075 7.28906C18.6087 7.69147 18.8712 8.12152 19.0913 8.57344L8.57063 19.0884C8.11871 18.8683 7.68866 18.6059 7.28625 18.3047L18.3075 7.28906ZM12 4.125C12.325 4.12567 12.6497 4.14633 12.9722 4.18687L4.18688 12.9722C4.04707 11.8643 4.14487 10.7393 4.47375 9.67212C4.80262 8.60495 5.35505 7.62008 6.09424 6.78306C6.83343 5.94603 7.74243 5.27606 8.76074 4.81774C9.77905 4.35943 10.8833 4.12327 12 4.125ZM12 19.875C11.675 19.8743 11.3503 19.8537 11.0278 19.8131L19.8131 11.0278C19.9529 12.1357 19.8551 13.2607 19.5263 14.3279C19.1974 15.395 18.645 16.3799 17.9058 17.2169C17.1666 18.054 16.2576 18.7239 15.2393 19.1823C14.221 19.6406 13.1167 19.8767 12 19.875Z" fill="#130032"/>
</svg>
