<svg width="24" height="24" viewBox="0 0 24 24" fill="none" xmlns="http://www.w3.org/2000/svg">
<path d="M21 9.37535H20.5519C20.2799 7.29973 19.2622 5.39388 17.6888 4.01315C16.1153 2.63243 14.0934 1.87109 12 1.87109C9.90663 1.87109 7.8847 2.63243 6.31123 4.01315C4.73775 5.39388 3.72014 7.29973 3.44812 9.37535H3C2.70163 9.37535 2.41548 9.49388 2.2045 9.70486C1.99353 9.91584 1.875 10.202 1.875 10.5004C1.87838 12.3138 2.36701 14.0932 3.29019 15.654C4.21337 17.2149 5.53744 18.5002 7.125 19.3766V19.5004C7.125 19.9976 7.32254 20.4746 7.67417 20.8262C8.02581 21.1778 8.50272 21.3754 9 21.3754H15C15.4973 21.3754 15.9742 21.1778 16.3258 20.8262C16.6775 20.4746 16.875 19.9976 16.875 19.5004V19.3766C18.4626 18.5002 19.7866 17.2149 20.7098 15.654C21.633 14.0932 22.1216 12.3138 22.125 10.5004C22.125 10.202 22.0065 9.91584 21.7955 9.70486C21.5845 9.49388 21.2984 9.37535 21 9.37535ZM15.9647 5.63098C14.2447 6.40386 12.8254 7.7191 11.9241 9.37535H9.9375C10.4453 8.25914 11.2631 7.3123 12.2935 6.64749C13.324 5.98269 14.5237 5.6279 15.75 5.62535C15.8212 5.62535 15.8925 5.62535 15.9647 5.63098ZM17.5791 7.41973C17.9164 8.02905 18.1511 8.68976 18.2738 9.37535H14.6372C15.4137 8.45903 16.4336 7.78105 17.5791 7.41973ZM12 4.12535C12.0778 4.12535 12.1547 4.12535 12.2325 4.13098C11.1256 4.62705 10.1354 5.35028 9.32608 6.25376C8.51676 7.15723 7.90643 8.22077 7.53469 9.37535H5.72625C5.99187 7.9042 6.76532 6.57291 7.9118 5.61352C9.05827 4.65412 10.5051 4.12747 12 4.12535ZM15.2812 17.6619C15.0854 17.7517 14.9195 17.8958 14.8031 18.0771C14.6868 18.2584 14.625 18.4693 14.625 18.6847V19.1254H9.375V18.6847C9.37502 18.4693 9.31319 18.2584 9.19686 18.0771C9.08053 17.8958 8.91458 17.7517 8.71875 17.6619C7.52358 17.1109 6.48491 16.2701 5.69696 15.216C4.909 14.1618 4.39672 12.9276 4.20656 11.6254H19.7934C19.6033 12.9276 19.091 14.1618 18.303 15.216C17.5151 16.2701 16.4764 17.1109 15.2812 17.6619Z" fill="#130032"/>
</svg>
