<svg width="24" height="24" viewBox="0 0 24 24" fill="none" xmlns="http://www.w3.org/2000/svg">
<path d="M21 10.1258H3C2.70163 10.1258 2.41548 10.2443 2.2045 10.4553C1.99353 10.6663 1.875 10.9524 1.875 11.2508C1.87838 13.0642 2.36701 14.8437 3.29019 16.4045C4.21337 17.9653 5.53744 19.2506 7.125 20.1271V20.2508C7.125 20.7481 7.32254 21.225 7.67417 21.5766C8.02581 21.9283 8.50272 22.1258 9 22.1258H15C15.4973 22.1258 15.9742 21.9283 16.3258 21.5766C16.6775 21.225 16.875 20.7481 16.875 20.2508V20.1271C18.4626 19.2506 19.7866 17.9653 20.7098 16.4045C21.633 14.8437 22.1216 13.0642 22.125 11.2508C22.125 10.9524 22.0065 10.6663 21.7955 10.4553C21.5845 10.2443 21.2984 10.1258 21 10.1258ZM15.2812 18.4124C15.0856 18.5021 14.9197 18.646 14.8034 18.8271C14.6871 19.0083 14.6252 19.219 14.625 19.4342V19.8758H9.375V19.4342C9.37484 19.219 9.31293 19.0083 9.19661 18.8271C9.08029 18.646 8.91444 18.5021 8.71875 18.4124C7.52358 17.8613 6.48491 17.0206 5.69696 15.9664C4.909 14.9123 4.39672 13.6781 4.20656 12.3758H19.7934C19.6033 13.6781 19.091 14.9123 18.303 15.9664C17.5151 17.0206 16.4764 17.8613 15.2812 18.4124ZM7.02469 4.70237C7.20621 4.50879 7.35531 4.28719 7.46625 4.04612C7.19779 3.93992 6.98044 3.73458 6.85916 3.47259C6.73789 3.2106 6.72197 2.91202 6.81471 2.63862C6.90745 2.36522 7.10174 2.13794 7.35739 2.0038C7.61303 1.86967 7.91046 1.83895 8.18812 1.918C8.71969 2.07175 9.42562 2.53956 9.66656 3.35237C9.92062 4.20925 9.60375 5.158 8.72906 6.17237C8.54754 6.36595 8.39844 6.58755 8.2875 6.82862C8.53155 6.92444 8.73448 7.10248 8.86121 7.33201C8.98795 7.56153 9.03054 7.82811 8.98163 8.0857C8.93271 8.34328 8.79536 8.57569 8.59331 8.74278C8.39126 8.90986 8.13719 9.00113 7.875 9.00081C7.76937 9.00109 7.66424 8.98625 7.56281 8.95675C7.03125 8.803 6.32438 8.33518 6.08344 7.52237C5.82938 6.6655 6.14625 5.71956 7.02469 4.70237ZM11.1497 4.70237C11.3312 4.50879 11.4803 4.28719 11.5912 4.04612C11.3228 3.93992 11.1054 3.73458 10.9842 3.47259C10.8629 3.2106 10.847 2.91202 10.9397 2.63862C11.0324 2.36522 11.2267 2.13794 11.4824 2.0038C11.738 1.86967 12.0355 1.83895 12.3131 1.918C12.8447 2.07175 13.5506 2.53956 13.7916 3.35237C14.0456 4.20925 13.7288 5.158 12.8541 6.17237C12.6725 6.36595 12.5234 6.58755 12.4125 6.82862C12.6566 6.92444 12.8595 7.10248 12.9862 7.33201C13.113 7.56153 13.1555 7.82811 13.1066 8.0857C13.0577 8.34328 12.9204 8.57569 12.7183 8.74278C12.5163 8.90986 12.2622 9.00113 12 9.00081C11.8944 9.00109 11.7892 8.98625 11.6878 8.95675C11.1562 8.803 10.4494 8.33518 10.2084 7.52237C9.95438 6.6655 10.2712 5.71956 11.1497 4.70237ZM15.2747 4.70237C15.4562 4.50879 15.6053 4.28719 15.7162 4.04612C15.4478 3.93992 15.2304 3.73458 15.1092 3.47259C14.9879 3.2106 14.972 2.91202 15.0647 2.63862C15.1574 2.36522 15.3517 2.13794 15.6074 2.0038C15.863 1.86967 16.1605 1.83895 16.4381 1.918C16.9697 2.07175 17.6756 2.53956 17.9166 3.35237C18.1706 4.20925 17.8538 5.158 16.9791 6.17237C16.7975 6.36595 16.6484 6.58755 16.5375 6.82862C16.7816 6.92444 16.9845 7.10248 17.1112 7.33201C17.238 7.56153 17.2805 7.82811 17.2316 8.0857C17.1827 8.34328 17.0454 8.57569 16.8433 8.74278C16.6413 8.90986 16.3872 9.00113 16.125 9.00081C16.0194 9.00109 15.9142 8.98625 15.8128 8.95675C15.2812 8.803 14.5744 8.33518 14.3334 7.52237C14.0794 6.6655 14.3962 5.71956 15.2747 4.70237Z" fill="#130032"/>
</svg>
