<svg width="24" height="24" viewBox="0 0 24 24" fill="none" xmlns="http://www.w3.org/2000/svg">
<path d="M12 1.875C9.99747 1.875 8.0399 2.46882 6.37486 3.58137C4.70981 4.69392 3.41206 6.27523 2.64572 8.12533C1.87939 9.97543 1.67888 12.0112 2.06955 13.9753C2.46023 15.9393 3.42454 17.7435 4.84055 19.1595C6.25656 20.5755 8.06066 21.5398 10.0247 21.9305C11.9888 22.3211 14.0246 22.1206 15.8747 21.3543C17.7248 20.5879 19.3061 19.2902 20.4186 17.6251C21.5312 15.9601 22.125 14.0025 22.125 12C22.122 9.3156 21.0543 6.74199 19.1562 4.84383C17.258 2.94567 14.6844 1.87798 12 1.875ZM12 19.875C10.4425 19.875 8.91993 19.4131 7.62489 18.5478C6.32985 17.6825 5.32049 16.4526 4.72445 15.0136C4.12841 13.5747 3.97246 11.9913 4.27632 10.4637C4.58018 8.93606 5.3302 7.53287 6.43154 6.43153C7.53288 5.3302 8.93607 4.58017 10.4637 4.27632C11.9913 3.97246 13.5747 4.12841 15.0136 4.72445C16.4526 5.32049 17.6825 6.32985 18.5478 7.62488C19.4131 8.91992 19.875 10.4425 19.875 12C19.8728 14.0879 19.0424 16.0896 17.566 17.566C16.0896 19.0424 14.0879 19.8728 12 19.875ZM13.5 12C13.5 12.2967 13.412 12.5867 13.2472 12.8334C13.0824 13.08 12.8481 13.2723 12.574 13.3858C12.2999 13.4994 11.9983 13.5291 11.7074 13.4712C11.4164 13.4133 11.1491 13.2704 10.9393 13.0607C10.7296 12.8509 10.5867 12.5836 10.5288 12.2926C10.4709 12.0017 10.5007 11.7001 10.6142 11.426C10.7277 11.1519 10.92 10.9176 11.1666 10.7528C11.4133 10.588 11.7033 10.5 12 10.5C12.3978 10.5 12.7794 10.658 13.0607 10.9393C13.342 11.2206 13.5 11.6022 13.5 12ZM15 10.5C14.7033 10.5 14.4133 10.412 14.1666 10.2472C13.92 10.0824 13.7277 9.84811 13.6142 9.57403C13.5007 9.29994 13.4709 8.99834 13.5288 8.70736C13.5867 8.41639 13.7296 8.14912 13.9393 7.93934C14.1491 7.72956 14.4164 7.5867 14.7074 7.52882C14.9983 7.47094 15.2999 7.50065 15.574 7.61418C15.8481 7.72771 16.0824 7.91997 16.2472 8.16665C16.412 8.41332 16.5 8.70333 16.5 9C16.5 9.39782 16.342 9.77936 16.0607 10.0607C15.7794 10.342 15.3978 10.5 15 10.5ZM18 12.75C18 13.0467 17.912 13.3367 17.7472 13.5834C17.5824 13.83 17.3481 14.0223 17.074 14.1358C16.7999 14.2494 16.4983 14.2791 16.2074 14.2212C15.9164 14.1633 15.6491 14.0204 15.4393 13.8107C15.2296 13.6009 15.0867 13.3336 15.0288 13.0426C14.9709 12.7517 15.0007 12.4501 15.1142 12.176C15.2277 11.9019 15.42 11.6676 15.6666 11.5028C15.9133 11.338 16.2033 11.25 16.5 11.25C16.8978 11.25 17.2794 11.408 17.5607 11.6893C17.842 11.9706 18 12.3522 18 12.75Z" fill="#130032"/>
</svg>
