<svg width="24" height="24" viewBox="0 0 24 24" fill="none" xmlns="http://www.w3.org/2000/svg">
<path d="M21.2559 6.24656L19.7559 3.24656C19.6625 3.0598 19.5189 2.90273 19.3412 2.79296C19.1636 2.68318 18.9588 2.62502 18.75 2.625H5.25C5.04116 2.62502 4.83644 2.68318 4.65878 2.79296C4.48112 2.90273 4.33752 3.0598 4.24406 3.24656L2.74406 6.24656C2.66581 6.40285 2.62504 6.57522 2.625 6.75V19.5C2.625 19.9973 2.82254 20.4742 3.17417 20.8258C3.52581 21.1775 4.00272 21.375 4.5 21.375H19.5C19.9973 21.375 20.4742 21.1775 20.8258 20.8258C21.1775 20.4742 21.375 19.9973 21.375 19.5V6.75C21.375 6.57522 21.3342 6.40285 21.2559 6.24656ZM18.0544 4.875L18.6169 6H5.38312L5.94562 4.875H18.0544ZM4.875 19.125V8.25H19.125V19.125H4.875ZM15.7959 13.0791C15.9008 13.1836 15.984 13.3078 16.0408 13.4445C16.0976 13.5813 16.1268 13.7279 16.1268 13.8759C16.1268 14.024 16.0976 14.1706 16.0408 14.3074C15.984 14.4441 15.9008 14.5683 15.7959 14.6728L12.7959 17.6728C12.6914 17.7777 12.5672 17.8609 12.4305 17.9177C12.2937 17.9745 12.1471 18.0037 11.9991 18.0037C11.851 18.0037 11.7044 17.9745 11.5676 17.9177C11.4309 17.8609 11.3067 17.7777 11.2022 17.6728L8.20219 14.6728C7.99084 14.4615 7.87211 14.1748 7.87211 13.8759C7.87211 13.5771 7.99084 13.2904 8.20219 13.0791C8.41353 12.8677 8.70018 12.749 8.99906 12.749C9.29795 12.749 9.58459 12.8677 9.79594 13.0791L10.875 14.1562V10.5C10.875 10.2016 10.9935 9.91548 11.2045 9.7045C11.4155 9.49353 11.7016 9.375 12 9.375C12.2984 9.375 12.5845 9.49353 12.7955 9.7045C13.0065 9.91548 13.125 10.2016 13.125 10.5V14.1562L14.2041 13.0763C14.3087 12.9718 14.433 12.8891 14.5696 12.8327C14.7063 12.7763 14.8527 12.7474 15.0006 12.7477C15.1484 12.748 15.2948 12.7774 15.4312 12.8342C15.5677 12.8911 15.6916 12.9743 15.7959 13.0791Z" fill="#130032"/>
</svg>
