<svg width="24" height="24" viewBox="0 0 24 24" fill="none" xmlns="http://www.w3.org/2000/svg">
<path d="M21.2559 6.24656L19.7559 3.24656C19.6625 3.0598 19.5189 2.90273 19.3412 2.79296C19.1636 2.68318 18.9588 2.62502 18.75 2.625H5.25C5.04116 2.62502 4.83644 2.68318 4.65878 2.79296C4.48112 2.90273 4.33752 3.0598 4.24406 3.24656L2.74406 6.24656C2.66581 6.40285 2.62504 6.57522 2.625 6.75V19.5C2.625 19.9973 2.82254 20.4742 3.17417 20.8258C3.52581 21.1775 4.00272 21.375 4.5 21.375H19.5C19.9973 21.375 20.4742 21.1775 20.8258 20.8258C21.1775 20.4742 21.375 19.9973 21.375 19.5V6.75C21.375 6.57522 21.3342 6.40285 21.2559 6.24656ZM18.0544 4.875L18.6169 6H5.38312L5.94562 4.875H18.0544ZM4.875 19.125V8.25H19.125V19.125H4.875ZM15.7959 12.7041C16.0073 12.9154 16.126 13.2021 16.126 13.5009C16.126 13.7998 16.0073 14.0865 15.7959 14.2978C15.5846 14.5092 15.2979 14.6279 14.9991 14.6279C14.7002 14.6279 14.4135 14.5092 14.2022 14.2978L13.125 13.2188V16.875C13.125 17.1734 13.0065 17.4595 12.7955 17.6705C12.5845 17.8815 12.2984 18 12 18C11.7016 18 11.4155 17.8815 11.2045 17.6705C10.9935 17.4595 10.875 17.1734 10.875 16.875V13.2188L9.79594 14.2987C9.58459 14.5101 9.29795 14.6288 8.99906 14.6288C8.70018 14.6288 8.41353 14.5101 8.20219 14.2987C7.99084 14.0874 7.87211 13.8008 7.87211 13.5019C7.87211 13.203 7.99084 12.9163 8.20219 12.705L11.2022 9.705C11.3067 9.60012 11.4309 9.5169 11.5676 9.46012C11.7044 9.40334 11.851 9.37411 11.9991 9.37411C12.1471 9.37411 12.2937 9.40334 12.4305 9.46012C12.5672 9.5169 12.6914 9.60012 12.7959 9.705L15.7959 12.7041Z" fill="#130032"/>
</svg>
