<svg width="24" height="24" viewBox="0 0 24 24" fill="none" xmlns="http://www.w3.org/2000/svg">
<path d="M15.75 1.125H11.25C9.82354 1.12669 8.45085 1.66956 7.40907 2.64399C6.3673 3.61842 5.73406 4.95183 5.63719 6.375H5.25C4.35489 6.375 3.49645 6.73058 2.86351 7.36351C2.23058 7.99645 1.875 8.85489 1.875 9.75V12.4866C1.87576 12.9123 2.02048 13.3253 2.28562 13.6584C2.3131 13.6914 2.34253 13.7227 2.37375 13.7522L5.625 16.9688V20.25C5.625 20.7473 5.82254 21.2242 6.17417 21.5758C6.52581 21.9275 7.00272 22.125 7.5 22.125H18C18.4973 22.125 18.9742 21.9275 19.3258 21.5758C19.6775 21.2242 19.875 20.7473 19.875 20.25V16.6575L21.3028 11.6606C21.3507 11.4929 21.3749 11.3194 21.375 11.145V6.75C21.3733 5.25869 20.7801 3.82896 19.7256 2.77444C18.671 1.71993 17.2413 1.12674 15.75 1.125ZM19.125 11.0925L17.6681 16.1906C17.6398 16.2913 17.6253 16.3954 17.625 16.5V19.875H7.875V16.5C7.875 16.3513 7.8455 16.204 7.78821 16.0667C7.73092 15.9295 7.64698 15.8049 7.54125 15.7003L4.125 12.3234V9.75C4.125 9.45163 4.24353 9.16548 4.4545 8.9545C4.66548 8.74353 4.95163 8.625 5.25 8.625H5.625V9.75C5.625 10.0484 5.74353 10.3345 5.9545 10.5455C6.16548 10.7565 6.45163 10.875 6.75 10.875C7.04837 10.875 7.33452 10.7565 7.5455 10.5455C7.75647 10.3345 7.875 10.0484 7.875 9.75V6.75C7.875 5.85489 8.23058 4.99645 8.86351 4.36351C9.49645 3.73058 10.3549 3.375 11.25 3.375H15.75C16.6451 3.375 17.5035 3.73058 18.1365 4.36351C18.7694 4.99645 19.125 5.85489 19.125 6.75V11.0925ZM15.6244 15.1875L14.7806 15.75L15.6244 16.3125C15.7475 16.3945 15.8532 16.4999 15.9356 16.6228C16.018 16.7457 16.0753 16.8836 16.1044 17.0286C16.1335 17.1736 16.1337 17.323 16.1051 17.4681C16.0764 17.6132 16.0195 17.7513 15.9375 17.8744C15.8555 17.9975 15.7501 18.1032 15.6272 18.1856C15.5043 18.268 15.3664 18.3253 15.2214 18.3544C15.0764 18.3835 14.927 18.3837 14.7819 18.3551C14.6368 18.3264 14.4987 18.2695 14.3756 18.1875L12.75 17.1019L11.1244 18.1875C10.8757 18.3531 10.5715 18.4131 10.2786 18.3544C9.98568 18.2957 9.72809 18.123 9.5625 17.8744C9.39691 17.6257 9.33687 17.3215 9.39559 17.0286C9.45431 16.7357 9.62698 16.4781 9.87562 16.3125L10.7194 15.75L9.87562 15.1875C9.75251 15.1055 9.64675 15.0001 9.56439 14.8772C9.48202 14.7543 9.42466 14.6164 9.39559 14.4714C9.33687 14.1785 9.39691 13.8743 9.5625 13.6256C9.64449 13.5025 9.74993 13.3968 9.8728 13.3144C9.99567 13.232 10.1336 13.1747 10.2786 13.1456C10.5715 13.0869 10.8757 13.1469 11.1244 13.3125L12.75 14.3981L14.3756 13.3125C14.6243 13.1469 14.9285 13.0869 15.2214 13.1456C15.5143 13.2043 15.7719 13.377 15.9375 13.6256C16.1031 13.8743 16.1631 14.1785 16.1044 14.4714C16.0457 14.7643 15.873 15.0219 15.6244 15.1875Z" fill="#130032"/>
</svg>
