<svg width="24" height="24" viewBox="0 0 24 24" fill="none" xmlns="http://www.w3.org/2000/svg">
<path d="M8.44921 4.35288L3.58358 11.9991L8.44921 19.6454C8.53345 19.7699 8.59186 19.9101 8.62099 20.0577C8.65012 20.2052 8.64938 20.3571 8.61881 20.5043C8.58824 20.6515 8.52846 20.7912 8.443 20.9149C8.35755 21.0386 8.24816 21.144 8.12129 21.2247C7.99442 21.3054 7.85265 21.3599 7.70437 21.3849C7.55609 21.4099 7.40429 21.405 7.25796 21.3703C7.11164 21.3356 6.97374 21.272 6.85244 21.1831C6.73113 21.0942 6.62887 20.9819 6.55171 20.8529L1.30171 12.6029C1.18694 12.4224 1.12598 12.213 1.12598 11.9991C1.12598 11.7853 1.18694 11.5758 1.30171 11.3954L6.55171 3.14538C6.71581 2.90272 6.96809 2.73364 7.25491 2.67409C7.54172 2.61454 7.84046 2.66921 8.0876 2.82648C8.33474 2.98375 8.51079 3.23121 8.57831 3.51626C8.64584 3.8013 8.59953 4.10145 8.44921 4.35288ZM22.6992 11.3954L17.4492 3.14538C17.372 3.01631 17.2698 2.90402 17.1485 2.81514C17.0272 2.72627 16.8893 2.66262 16.743 2.62796C16.5966 2.59329 16.4448 2.58831 16.2965 2.61332C16.1483 2.63832 16.0065 2.6928 15.8796 2.77354C15.7528 2.85427 15.6434 2.95962 15.5579 3.08336C15.4725 3.2071 15.4127 3.34671 15.3821 3.49395C15.3515 3.64119 15.3508 3.79306 15.3799 3.94059C15.4091 4.08812 15.4675 4.22831 15.5517 4.35288L20.4173 11.9991L15.5517 19.6454C15.4675 19.7699 15.4091 19.9101 15.3799 20.0577C15.3508 20.2052 15.3515 20.3571 15.3821 20.5043C15.4127 20.6515 15.4725 20.7912 15.5579 20.9149C15.6434 21.0386 15.7528 21.144 15.8796 21.2247C16.0065 21.3054 16.1483 21.3599 16.2965 21.3849C16.4448 21.4099 16.5966 21.405 16.743 21.3703C16.8893 21.3356 17.0272 21.272 17.1485 21.1831C17.2698 21.0942 17.372 20.9819 17.4492 20.8529L22.6992 12.6029C22.814 12.4224 22.8749 12.213 22.8749 11.9991C22.8749 11.7853 22.814 11.5758 22.6992 11.3954Z" fill="#130032"/>
</svg>
