<svg width="24" height="24" viewBox="0 0 24 24" fill="none" xmlns="http://www.w3.org/2000/svg">
<path d="M7.71844 20.8305C7.64222 20.9574 7.5417 21.0681 7.42264 21.1561C7.30358 21.2441 7.16831 21.3077 7.0246 21.3433C6.88089 21.379 6.73157 21.3859 6.58518 21.3637C6.4388 21.3414 6.29824 21.2906 6.17156 21.2139C6 21.1089 1.875 18.5627 1.875 12.0002C1.875 5.43767 6 2.89142 6.17156 2.78642C6.42634 2.6426 6.72712 2.60368 7.01011 2.67793C7.29309 2.75218 7.53603 2.93374 7.68738 3.18412C7.83872 3.4345 7.88658 3.73399 7.8208 4.01906C7.75501 4.30414 7.58076 4.55237 7.335 4.71111C7.19156 4.80111 4.125 6.77923 4.125 12.0002C4.125 17.2211 7.20469 19.2077 7.33594 19.2892C7.59061 19.4433 7.77385 19.692 7.84554 19.9808C7.91724 20.2697 7.87153 20.5752 7.71844 20.8305ZM17.8284 2.78642C17.702 2.70618 17.5608 2.652 17.4131 2.62705C17.2655 2.6021 17.1143 2.60688 16.9685 2.64112C16.8227 2.67536 16.6852 2.73836 16.5641 2.82643C16.443 2.9145 16.3406 3.02587 16.2631 3.15401C16.1856 3.28214 16.1345 3.42447 16.1127 3.57263C16.0909 3.7208 16.0989 3.87182 16.1362 4.01685C16.1736 4.16188 16.2395 4.29799 16.3301 4.41721C16.4208 4.53642 16.5343 4.63634 16.6641 4.71111C16.7953 4.79267 19.875 6.76798 19.875 12.0002C19.875 17.2324 16.7953 19.2077 16.6716 19.2845C16.542 19.3591 16.4286 19.4587 16.338 19.5775C16.2474 19.6963 16.1813 19.832 16.1437 19.9767C16.1062 20.1213 16.0978 20.272 16.119 20.4199C16.1403 20.5678 16.1909 20.71 16.2677 20.8382C16.3446 20.9664 16.4462 21.078 16.5667 21.1664C16.6871 21.2549 16.824 21.3185 16.9693 21.3534C17.1146 21.3884 17.2654 21.3941 17.4129 21.3701C17.5604 21.3462 17.7017 21.2931 17.8284 21.2139C18 21.1089 22.125 18.5627 22.125 12.0002C22.125 5.43767 18 2.89142 17.8284 2.78642Z" fill="#130032"/>
</svg>
