<svg width="24" height="24" viewBox="0 0 24 24" fill="none" xmlns="http://www.w3.org/2000/svg">
<path d="M4.875 4.875V19.125H7.5C7.79837 19.125 8.08452 19.2435 8.2955 19.4545C8.50647 19.6655 8.625 19.9516 8.625 20.25C8.625 20.5484 8.50647 20.8345 8.2955 21.0455C8.08452 21.2565 7.79837 21.375 7.5 21.375H3.75C3.45163 21.375 3.16548 21.2565 2.9545 21.0455C2.74353 20.8345 2.625 20.5484 2.625 20.25V3.75C2.625 3.45163 2.74353 3.16548 2.9545 2.9545C3.16548 2.74353 3.45163 2.625 3.75 2.625H7.5C7.79837 2.625 8.08452 2.74353 8.2955 2.9545C8.50647 3.16548 8.625 3.45163 8.625 3.75C8.625 4.04837 8.50647 4.33452 8.2955 4.5455C8.08452 4.75647 7.79837 4.875 7.5 4.875H4.875ZM20.25 2.625H16.5C16.2016 2.625 15.9155 2.74353 15.7045 2.9545C15.4935 3.16548 15.375 3.45163 15.375 3.75C15.375 4.04837 15.4935 4.33452 15.7045 4.5455C15.9155 4.75647 16.2016 4.875 16.5 4.875H19.125V19.125H16.5C16.2016 19.125 15.9155 19.2435 15.7045 19.4545C15.4935 19.6655 15.375 19.9516 15.375 20.25C15.375 20.5484 15.4935 20.8345 15.7045 21.0455C15.9155 21.2565 16.2016 21.375 16.5 21.375H20.25C20.5484 21.375 20.8345 21.2565 21.0455 21.0455C21.2565 20.8345 21.375 20.5484 21.375 20.25V3.75C21.375 3.45163 21.2565 3.16548 21.0455 2.9545C20.8345 2.74353 20.5484 2.625 20.25 2.625Z" fill="#130032"/>
</svg>
