<svg width="24" height="24" viewBox="0 0 24 24" fill="none" xmlns="http://www.w3.org/2000/svg">
<path d="M23.6252 11.6249C23.624 10.6012 23.3442 9.59717 22.8156 8.7205C22.2871 7.84382 21.5299 7.12758 20.6252 6.6486C20.6042 5.65498 20.2799 4.69154 19.6959 3.88737C19.1119 3.08321 18.2961 2.47674 17.3578 2.14924C16.4194 1.82174 15.4034 1.78886 14.4459 2.05499C13.4883 2.32113 12.635 2.87357 12.0002 3.63829C11.3655 2.87357 10.5121 2.32113 9.55458 2.05499C8.59703 1.78886 7.58101 1.82174 6.64268 2.14924C5.70435 2.47674 4.88853 3.08321 4.30454 3.88737C3.72055 4.69154 3.39629 5.65498 3.37522 6.6486C2.46961 7.12628 1.71155 7.84208 1.18276 8.71883C0.653969 9.59559 0.374512 10.6 0.374512 11.6239C0.374512 12.6478 0.653969 13.6522 1.18276 14.529C1.71155 15.4058 2.46961 16.1215 3.37522 16.5992C3.39592 17.593 3.71991 18.5567 4.30376 19.3612C4.88761 20.1656 5.70342 20.7724 6.64183 21.1001C7.58024 21.4278 8.59641 21.4609 9.55413 21.1948C10.5119 20.9287 11.3653 20.3762 12.0002 19.6114C12.6351 20.3762 13.4886 20.9287 14.4463 21.1948C15.404 21.4609 16.4202 21.4278 17.3586 21.1001C18.297 20.7724 19.1128 20.1656 19.6967 19.3612C20.2805 18.5567 20.6045 17.593 20.6252 16.5992C21.5302 16.1211 22.2878 15.4053 22.8164 14.5289C23.345 13.6524 23.6246 12.6484 23.6252 11.6249ZM8.25022 19.1249C7.68381 19.1248 7.13262 18.9415 6.67894 18.6024C6.22527 18.2633 5.89345 17.7865 5.73304 17.2433C5.82679 17.2433 5.91022 17.2499 6.00022 17.2499H6.75022C7.04859 17.2499 7.33474 17.1313 7.54572 16.9203C7.7567 16.7094 7.87522 16.4232 7.87522 16.1249C7.87522 15.8265 7.7567 15.5403 7.54572 15.3294C7.33474 15.1184 7.04859 14.9999 6.75022 14.9999H6.00022C5.20366 15.0004 4.43257 14.7192 3.82337 14.206C3.21418 13.6928 2.80614 12.9806 2.67146 12.1955C2.53677 11.4104 2.68412 10.603 3.08743 9.91605C3.49074 9.22913 4.12402 8.707 4.87522 8.44204C5.09466 8.36446 5.28463 8.22073 5.41895 8.03066C5.55328 7.84059 5.62535 7.61353 5.62522 7.38079V6.74985C5.62522 6.05366 5.90179 5.38598 6.39407 4.8937C6.88635 4.40141 7.55403 4.12485 8.25022 4.12485C8.94642 4.12485 9.6141 4.40141 10.1064 4.8937C10.5987 5.38598 10.8752 6.05366 10.8752 6.74985V12.3917C10.6601 12.2538 10.4344 12.1331 10.2002 12.0308C9.92672 11.9114 9.61701 11.9056 9.33922 12.0146C9.06143 12.1236 8.83832 12.3385 8.71897 12.612C8.59963 12.8855 8.59382 13.1953 8.70282 13.473C8.81183 13.7508 9.02672 13.9739 9.30022 14.0933C9.85338 14.3343 10.3066 14.7584 10.5837 15.2944C10.8608 15.8304 10.9448 16.4455 10.8215 17.0361C10.6982 17.6267 10.3753 18.1569 9.90697 18.5373C9.43865 18.9177 8.85358 19.1252 8.25022 19.1249ZM18.0002 14.9999H17.2502C16.9519 14.9999 16.6657 15.1184 16.4547 15.3294C16.2437 15.5403 16.1252 15.8265 16.1252 16.1249C16.1252 16.4232 16.2437 16.7094 16.4547 16.9203C16.6657 17.1313 16.9519 17.2499 17.2502 17.2499H18.0002C18.094 17.2499 18.1783 17.2499 18.2674 17.2433C18.1425 17.6668 17.9127 18.052 17.5993 18.3631C17.286 18.6743 16.8992 18.9014 16.4748 19.0233C16.0504 19.1453 15.6021 19.1583 15.1713 19.061C14.7406 18.9637 14.3414 18.7593 14.0106 18.4667C13.6798 18.1742 13.4282 17.8029 13.279 17.3873C13.1299 16.9716 13.0879 16.5251 13.1572 16.089C13.2264 15.6529 13.4045 15.2412 13.675 14.8922C13.9456 14.5432 14.2998 14.2681 14.7049 14.0924C14.9784 13.973 15.1933 13.7499 15.3023 13.4721C15.4113 13.1943 15.4055 12.8846 15.2862 12.6111C15.1668 12.3376 14.9437 12.1227 14.6659 12.0137C14.3881 11.9047 14.0784 11.9105 13.8049 12.0299C13.5707 12.1322 13.345 12.2528 13.1299 12.3908V6.74985C13.1299 6.05366 13.4065 5.38598 13.8988 4.8937C14.391 4.40141 15.0587 4.12485 15.7549 4.12485C16.4511 4.12485 17.1188 4.40141 17.6111 4.8937C18.1033 5.38598 18.3799 6.05366 18.3799 6.74985V7.38079C18.3798 7.61353 18.4519 7.84059 18.5862 8.03066C18.7205 8.22073 18.9105 8.36446 19.1299 8.44204C19.8845 8.70461 20.5214 9.22635 20.9275 9.91445C21.3335 10.6025 21.4822 11.4124 21.3472 12.1998C21.2122 12.9873 20.8023 13.7013 20.1902 14.2149C19.5782 14.7285 18.8039 15.0083 18.0049 15.0045L18.0002 14.9999ZM19.5002 10.8749C19.5002 11.1732 19.3817 11.4594 19.1707 11.6703C18.9597 11.8813 18.6736 11.9999 18.3752 11.9999C17.3807 11.9999 16.4268 11.6048 15.7236 10.9015C15.0203 10.1982 14.6252 9.24441 14.6252 8.24985V7.87485C14.6252 7.57648 14.7437 7.29033 14.9547 7.07936C15.1657 6.86838 15.4519 6.74985 15.7502 6.74985C16.0486 6.74985 16.3347 6.86838 16.5457 7.07936C16.7567 7.29033 16.8752 7.57648 16.8752 7.87485V8.24985C16.8752 8.64768 17.0333 9.02921 17.3146 9.31051C17.5959 9.59182 17.9774 9.74985 18.3752 9.74985C18.6736 9.74985 18.9597 9.86838 19.1707 10.0794C19.3817 10.2903 19.5002 10.5765 19.5002 10.8749ZM9.37522 8.24985C9.37522 9.24441 8.98013 10.1982 8.27687 10.9015C7.57361 11.6048 6.61978 11.9999 5.62522 11.9999C5.32685 11.9999 5.04071 11.8813 4.82973 11.6703C4.61875 11.4594 4.50022 11.1732 4.50022 10.8749C4.50022 10.5765 4.61875 10.2903 4.82973 10.0794C5.04071 9.86838 5.32685 9.74985 5.62522 9.74985C6.02305 9.74985 6.40458 9.59182 6.68588 9.31051C6.96719 9.02921 7.12522 8.64768 7.12522 8.24985V7.87485C7.12522 7.57648 7.24375 7.29033 7.45473 7.07936C7.66571 6.86838 7.95185 6.74985 8.25022 6.74985C8.54859 6.74985 8.83474 6.86838 9.04572 7.07936C9.2567 7.29033 9.37522 7.57648 9.37522 7.87485V8.24985Z" fill="#130032"/>
</svg>
