<svg width="24" height="24" viewBox="0 0 24 24" fill="none" xmlns="http://www.w3.org/2000/svg">
<path d="M22.8749 7.5C22.8737 6.40636 22.4387 5.35787 21.6654 4.58455C20.892 3.81124 19.8435 3.37624 18.7499 3.375H4.49991C3.5743 3.3759 2.6759 3.68808 1.94918 4.26133C1.22246 4.83458 0.709653 5.6356 0.493241 6.53555C0.276829 7.4355 0.369384 8.38208 0.756022 9.22307C1.14266 10.0641 1.80091 10.7506 2.62491 11.1722V18.75C2.62491 19.2473 2.82245 19.7242 3.17408 20.0758C3.52571 20.4275 4.00263 20.625 4.49991 20.625H18.7499C19.2472 20.625 19.7241 20.4275 20.0757 20.0758C20.4274 19.7242 20.6249 19.2473 20.6249 18.75V11.1722C21.3018 10.8268 21.8701 10.301 22.2672 9.65304C22.6642 9.00504 22.8745 8.25996 22.8749 7.5ZM4.87491 11.5594C5.12421 11.4703 5.33411 11.2961 5.46766 11.0675C5.60122 10.8389 5.64988 10.5706 5.60509 10.3096C5.56029 10.0487 5.42491 9.81195 5.22276 9.64099C5.02061 9.47003 4.76465 9.37585 4.49991 9.375C4.00263 9.375 3.52571 9.17746 3.17408 8.82583C2.82245 8.47419 2.62491 7.99728 2.62491 7.5C2.62491 7.00272 2.82245 6.52581 3.17408 6.17417C3.52571 5.82254 4.00263 5.625 4.49991 5.625H13.1249C13.6222 5.625 14.0991 5.82254 14.4507 6.17417C14.8024 6.52581 14.9999 7.00272 14.9999 7.5C14.9999 7.99728 14.8024 8.47419 14.4507 8.82583C14.0991 9.17746 13.6222 9.375 13.1249 9.375C12.8602 9.37585 12.6042 9.47003 12.4021 9.64099C12.1999 9.81195 12.0645 10.0487 12.0197 10.3096C11.9749 10.5706 12.0236 10.8389 12.1572 11.0675C12.2907 11.2961 12.5006 11.4703 12.7499 11.5594V18.375H4.87491V11.5594ZM18.7499 9.375C18.4852 9.37585 18.2292 9.47003 18.0271 9.64099C17.8249 9.81195 17.6895 10.0487 17.6447 10.3096C17.5999 10.5706 17.6486 10.8389 17.7822 11.0675C17.9157 11.2961 18.1256 11.4703 18.3749 11.5594V18.375H14.9999V11.1722C15.4827 10.9265 15.9122 10.588 16.2639 10.1761C16.6157 9.76413 16.8827 9.28683 17.0496 8.77153C17.2166 8.25623 17.2802 7.71304 17.2369 7.17311C17.1935 6.63317 17.0441 6.10709 16.7971 5.625H18.7499C19.2472 5.625 19.7241 5.82254 20.0757 6.17417C20.4274 6.52581 20.6249 7.00272 20.6249 7.5C20.6249 7.99728 20.4274 8.47419 20.0757 8.82583C19.7241 9.17746 19.2472 9.375 18.7499 9.375Z" fill="#130032"/>
</svg>
