<svg width="24" height="24" viewBox="0 0 24 24" fill="none" xmlns="http://www.w3.org/2000/svg">
<path d="M21.7501 14.625H19.1251V10.4522C19.7667 11.052 20.5132 11.5287 21.3272 11.8584C21.4642 11.9138 21.6107 11.9417 21.7585 11.9405C21.9062 11.9393 22.0523 11.9089 22.1883 11.8513C22.3243 11.7936 22.4477 11.7097 22.5513 11.6044C22.6549 11.499 22.7367 11.3743 22.7921 11.2373C22.8475 11.1004 22.8754 10.9538 22.8741 10.8061C22.8729 10.6584 22.8426 10.5123 22.7849 10.3763C22.7273 10.2403 22.6434 10.1169 22.538 10.0133C22.4327 9.90974 22.308 9.8279 22.171 9.7725C21.269 9.41002 20.4966 8.78524 19.9536 7.97898C19.4105 7.17272 19.1219 6.22207 19.1251 5.25C19.1251 4.95163 19.0065 4.66548 18.7956 4.4545C18.5846 4.24353 18.2984 4.125 18.0001 4.125C17.7017 4.125 17.4155 4.24353 17.2046 4.4545C16.9936 4.66548 16.8751 4.95163 16.8751 5.25C16.8751 6.54293 16.3614 7.78291 15.4472 8.69715C14.533 9.61139 13.293 10.125 12.0001 10.125C10.7071 10.125 9.46716 9.61139 8.55292 8.69715C7.63868 7.78291 7.12506 6.54293 7.12506 5.25C7.12506 4.95163 7.00654 4.66548 6.79556 4.4545C6.58458 4.24353 6.29843 4.125 6.00006 4.125C5.70169 4.125 5.41554 4.24353 5.20457 4.4545C4.99359 4.66548 4.87506 4.95163 4.87506 5.25C4.87774 6.22186 4.58882 7.17217 4.04564 7.97808C3.50247 8.78398 2.73003 9.40841 1.82819 9.77063C1.55157 9.88251 1.33074 10.0997 1.21426 10.3744C1.09778 10.6491 1.0952 10.9589 1.20709 11.2355C1.31898 11.5121 1.53617 11.7329 1.81088 11.8494C2.08559 11.9659 2.39532 11.9685 2.67194 11.8566C3.48602 11.5268 4.23251 11.0501 4.87412 10.4503V14.625H2.25006C1.95169 14.625 1.66554 14.7435 1.45457 14.9545C1.24359 15.1655 1.12506 15.4516 1.12506 15.75C1.12506 16.0484 1.24359 16.3345 1.45457 16.5455C1.66554 16.7565 1.95169 16.875 2.25006 16.875H4.87506V18.75C4.87506 19.0484 4.99359 19.3345 5.20457 19.5455C5.41554 19.7565 5.70169 19.875 6.00006 19.875C6.29843 19.875 6.58458 19.7565 6.79556 19.5455C7.00654 19.3345 7.12506 19.0484 7.12506 18.75V16.875H16.8751V18.75C16.8751 19.0484 16.9936 19.3345 17.2046 19.5455C17.4155 19.7565 17.7017 19.875 18.0001 19.875C18.2984 19.875 18.5846 19.7565 18.7956 19.5455C19.0065 19.3345 19.1251 19.0484 19.1251 18.75V16.875H21.7501C22.0484 16.875 22.3346 16.7565 22.5456 16.5455C22.7565 16.3345 22.8751 16.0484 22.8751 15.75C22.8751 15.4516 22.7565 15.1655 22.5456 14.9545C22.3346 14.7435 22.0484 14.625 21.7501 14.625ZM13.1251 12.2859V14.625H10.8751V12.2859C11.6204 12.4047 12.3798 12.4047 13.1251 12.2859ZM7.12506 10.4419C7.57629 10.8654 8.08048 11.2288 8.62506 11.5228V14.625H7.12506V10.4419ZM15.3751 14.625V11.5228C15.9196 11.2288 16.4238 10.8654 16.8751 10.4419V14.625H15.3751Z" fill="#130032"/>
</svg>
