<svg width="24" height="24" viewBox="0 0 24 24" fill="none" xmlns="http://www.w3.org/2000/svg">
<path d="M20.25 4.875H16.875V3.75C16.875 3.05381 16.5984 2.38613 16.1062 1.89384C15.6139 1.40156 14.9462 1.125 14.25 1.125H9.75C9.05381 1.125 8.38613 1.40156 7.89384 1.89384C7.40156 2.38613 7.125 3.05381 7.125 3.75V4.875H3.75C3.25272 4.875 2.77581 5.07254 2.42417 5.42417C2.07254 5.77581 1.875 6.25272 1.875 6.75V18.75C1.875 19.2473 2.07254 19.7242 2.42417 20.0758C2.77581 20.4275 3.25272 20.625 3.75 20.625H20.25C20.7473 20.625 21.2242 20.4275 21.5758 20.0758C21.9275 19.7242 22.125 19.2473 22.125 18.75V6.75C22.125 6.25272 21.9275 5.77581 21.5758 5.42417C21.2242 5.07254 20.7473 4.875 20.25 4.875ZM4.125 11.25H19.875V14.25H4.125V11.25ZM9.375 3.75C9.375 3.65054 9.41451 3.55516 9.48483 3.48484C9.55516 3.41451 9.65054 3.375 9.75 3.375H14.25C14.3495 3.375 14.4448 3.41451 14.5152 3.48484C14.5855 3.55516 14.625 3.65054 14.625 3.75V4.875H9.375V3.75ZM19.875 7.125V9H4.125V7.125H19.875ZM4.125 18.375V16.5H19.875V18.375H4.125Z" fill="#130032"/>
</svg>
