<svg width="24" height="24" viewBox="0 0 24 24" fill="none" xmlns="http://www.w3.org/2000/svg">
<path d="M11.9999 7.87541C11.1841 7.87541 10.3865 8.11734 9.70819 8.5706C9.02983 9.02386 8.50112 9.6681 8.18891 10.4218C7.8767 11.1756 7.79501 12.005 7.95417 12.8052C8.11334 13.6053 8.50621 14.3403 9.0831 14.9172C9.65999 15.4941 10.395 15.887 11.1952 16.0461C11.9953 16.2053 12.8247 16.1236 13.5785 15.8114C14.3322 15.4992 14.9765 14.9705 15.4297 14.2921C15.883 13.6138 16.1249 12.8163 16.1249 12.0004C16.1237 10.9068 15.6887 9.85828 14.9154 9.08496C14.142 8.31165 13.0935 7.87665 11.9999 7.87541ZM11.9999 13.8754C11.6291 13.8754 11.2666 13.7654 10.9582 13.5594C10.6499 13.3534 10.4096 13.0606 10.2676 12.7179C10.1257 12.3753 10.0886 11.9983 10.1609 11.6346C10.2333 11.2709 10.4119 10.9368 10.6741 10.6746C10.9363 10.4124 11.2704 10.2338 11.6341 10.1614C11.9978 10.0891 12.3748 10.1262 12.7174 10.2681C13.0601 10.41 13.3529 10.6504 13.5589 10.9587C13.7649 11.2671 13.8749 11.6296 13.8749 12.0004C13.8749 12.4977 13.6774 12.9746 13.3257 13.3262C12.9741 13.6779 12.4972 13.8754 11.9999 13.8754ZM19.2552 15.066C18.917 15.8656 18.4488 16.6037 17.8696 17.2504C17.6707 17.4728 17.3916 17.6071 17.0937 17.6237C16.7957 17.6403 16.5034 17.5379 16.281 17.339C16.0586 17.1401 15.9243 16.861 15.9077 16.5631C15.8911 16.2651 15.9935 15.9728 16.1924 15.7504C17.1164 14.7199 17.6274 13.3845 17.6274 12.0004C17.6274 10.6163 17.1164 9.28095 16.1924 8.25041C15.9935 8.028 15.8911 7.73568 15.9077 7.43776C15.9243 7.13985 16.0586 6.86073 16.281 6.66182C16.5034 6.4629 16.7957 6.36049 17.0937 6.3771C17.3916 6.39372 17.6707 6.528 17.8696 6.75041C18.8642 7.8631 19.5224 9.2353 19.7677 10.7074C20.0129 12.1795 19.8352 13.691 19.2552 15.066ZM7.80741 15.7504C8.00633 15.9728 8.10874 16.2651 8.09212 16.5631C8.07551 16.861 7.94123 17.1401 7.71882 17.339C7.49641 17.5379 7.20409 17.6403 6.90617 17.6237C6.60826 17.6071 6.32914 17.4728 6.13023 17.2504C4.83769 15.8072 4.12298 13.9378 4.12298 12.0004C4.12298 10.063 4.83769 8.19365 6.13023 6.75041C6.32914 6.528 6.60826 6.39372 6.90617 6.3771C7.20409 6.36049 7.49641 6.4629 7.71882 6.66182C7.94123 6.86073 8.07551 7.13985 8.09212 7.43776C8.10874 7.73568 8.00633 8.028 7.80741 8.25041C6.88345 9.28095 6.37247 10.6163 6.37247 12.0004C6.37247 13.3845 6.88345 14.7199 7.80741 15.7504ZM23.6249 12.0004C23.6285 15.0431 22.4355 17.9653 20.3034 20.136C20.2015 20.2474 20.0782 20.3371 19.9409 20.3998C19.8037 20.4625 19.6552 20.497 19.5043 20.5011C19.3534 20.5052 19.2033 20.479 19.0628 20.4239C18.9223 20.3688 18.7943 20.286 18.6864 20.1804C18.5786 20.0748 18.4931 19.9486 18.435 19.8093C18.377 19.67 18.3475 19.5204 18.3485 19.3695C18.3494 19.2186 18.3807 19.0694 18.4405 18.9308C18.5003 18.7923 18.5873 18.6671 18.6965 18.5629C20.4169 16.8119 21.3809 14.4552 21.3809 12.0004C21.3809 9.5456 20.4169 7.18897 18.6965 5.43791C18.4876 5.22482 18.372 4.9375 18.375 4.63914C18.3779 4.34078 18.4993 4.05583 18.7124 3.84697C18.9255 3.63811 19.2128 3.52246 19.5112 3.52545C19.8095 3.52844 20.0945 3.64982 20.3034 3.86291C22.436 6.03412 23.629 8.95702 23.6249 12.0004ZM5.30335 18.5629C5.51221 18.776 5.62787 19.0633 5.62488 19.3617C5.62189 19.66 5.5005 19.945 5.28741 20.1538C5.07433 20.3627 4.787 20.4784 4.48864 20.4754C4.19029 20.4724 3.90533 20.351 3.69648 20.1379C1.56514 17.9663 0.371094 15.0451 0.371094 12.0023C0.371094 8.95952 1.56514 6.03826 3.69648 3.86666C3.90822 3.66992 4.18757 3.56223 4.47658 3.56592C4.76559 3.56961 5.04209 3.68439 5.24875 3.88647C5.45541 4.08854 5.57636 4.36241 5.58653 4.65126C5.59669 4.94012 5.49529 5.22181 5.30335 5.43791C3.58292 7.18897 2.61893 9.5456 2.61893 12.0004C2.61893 14.4552 3.58292 16.8119 5.30335 18.5629Z" fill="#130032"/>
</svg>
