<svg width="24" height="24" viewBox="0 0 24 24" fill="none" xmlns="http://www.w3.org/2000/svg">
<path d="M22.2413 19.9882C20.2613 19.031 19.125 16.9348 19.125 14.2498V12.6307C19.1258 12.255 19.0134 11.8877 18.8023 11.5768C18.5913 11.2659 18.2914 11.0258 17.9419 10.8879L15.6113 9.96822C15.5197 9.93182 15.4462 9.86087 15.4066 9.77071C15.3669 9.68054 15.3643 9.5784 15.3994 9.48635L17.3991 4.5176C17.5526 4.14526 17.6296 3.74582 17.6255 3.34308C17.6214 2.94035 17.5362 2.54257 17.3751 2.17346C17.2139 1.80435 16.9801 1.47146 16.6875 1.19466C16.395 0.917849 16.0497 0.702784 15.6722 0.562285C14.9365 0.291535 14.1241 0.318303 13.4078 0.636902C12.6915 0.955502 12.1276 1.54083 11.836 2.26854L11.8294 2.28541L9.86064 7.2626C9.8427 7.30865 9.8157 7.35063 9.78124 7.38606C9.74678 7.42149 9.70556 7.44964 9.66002 7.46885C9.61585 7.48836 9.56824 7.4989 9.51996 7.49987C9.47168 7.50084 9.42369 7.4922 9.37877 7.47447L6.99377 6.50885C6.65009 6.36961 6.2727 6.336 5.90982 6.41231C5.54694 6.48863 5.21506 6.67141 4.95658 6.93729C2.91189 9.0401 1.87502 11.501 1.87502 14.2498C1.86982 17.0567 2.95522 19.756 4.90221 21.7779C5.00769 21.8881 5.13448 21.9756 5.27485 22.0352C5.41522 22.0949 5.56626 22.1253 5.71877 22.1248H21.75C22.0044 22.1245 22.2512 22.0381 22.4501 21.8796C22.649 21.721 22.7884 21.4998 22.8454 21.2519C22.9024 21.004 22.8737 20.7441 22.7639 20.5146C22.6542 20.2851 22.47 20.0995 22.2413 19.9882ZM6.39283 8.69322L8.53689 9.56229C8.85772 9.69071 9.20074 9.75451 9.54629 9.75005C9.89183 9.74559 10.2331 9.67294 10.5505 9.53628C10.8679 9.39961 11.1552 9.20162 11.3959 8.95367C11.6366 8.70571 11.826 8.41267 11.9531 8.09135L13.9172 3.1226C13.991 2.93833 14.1322 2.7891 14.3121 2.70532C14.492 2.62154 14.6971 2.6095 14.8856 2.67166C14.9803 2.70672 15.0669 2.76053 15.1403 2.82986C15.2137 2.89919 15.2723 2.98262 15.3126 3.07515C15.353 3.16768 15.3743 3.2674 15.3751 3.36834C15.376 3.46929 15.3565 3.56937 15.3178 3.6626C15.3177 3.66603 15.3177 3.66947 15.3178 3.67291L13.3125 8.65197C13.0576 9.29871 13.0692 10.0201 13.3446 10.6583C13.6201 11.2966 14.1371 11.7998 14.7825 12.0579L16.875 12.8857V14.2498C16.875 14.3435 16.875 14.4438 16.8797 14.5404L5.40096 9.94666C5.69599 9.50187 6.02777 9.0826 6.39283 8.69322ZM10.9444 19.8748C9.93464 18.8669 9.21868 17.6028 8.87346 16.2185C8.79886 15.9295 8.6125 15.6819 8.35537 15.5303C8.09824 15.3786 7.79141 15.3353 7.50236 15.4099C7.21332 15.4845 6.96574 15.6709 6.8141 15.928C6.66246 16.1852 6.61918 16.492 6.69377 16.781C6.97385 17.8798 7.43279 18.925 8.05221 19.8748H6.21096C4.86149 18.3118 4.12089 16.3147 4.12502 14.2498C4.12123 13.4848 4.22893 12.7234 4.44471 11.9895L17.2575 17.1138C17.5327 18.113 17.9967 19.0502 18.6244 19.8748H10.9444Z" fill="#130032"/>
</svg>
