<svg width="24" height="24" viewBox="0 0 24 24" fill="none" xmlns="http://www.w3.org/2000/svg">
<path d="M20.625 3H7.125C6.62772 3 6.15081 3.19754 5.79917 3.54917C5.44754 3.90081 5.25 4.37772 5.25 4.875V6.75H3.375C2.87772 6.75 2.40081 6.94754 2.04917 7.29917C1.69754 7.65081 1.5 8.12772 1.5 8.625V19.125C1.5 19.6223 1.69754 20.0992 2.04917 20.4508C2.40081 20.8025 2.87772 21 3.375 21H16.875C17.3723 21 17.8492 20.8025 18.2008 20.4508C18.5525 20.0992 18.75 19.6223 18.75 19.125V17.25H20.625C21.1223 17.25 21.5992 17.0525 21.9508 16.7008C22.3025 16.3492 22.5 15.8723 22.5 15.375V4.875C22.5 4.37772 22.3025 3.90081 21.9508 3.54917C21.5992 3.19754 21.1223 3 20.625 3ZM16.5 9V10.5H3.75V9H16.5ZM16.5 18.75H3.75V12.75H16.5V18.75ZM20.25 15H18.75V8.625C18.75 8.12772 18.5525 7.65081 18.2008 7.29917C17.8492 6.94754 17.3723 6.75 16.875 6.75H7.5V5.25H20.25V15Z" fill="#130032"/>
</svg>
