<svg width="24" height="24" viewBox="0 0 24 24" fill="none" xmlns="http://www.w3.org/2000/svg">
<path d="M18.5016 4.84031L19.5459 3.79687C19.6506 3.69223 19.7336 3.56799 19.7902 3.43126C19.8469 3.29454 19.876 3.14799 19.876 3C19.876 2.852 19.8469 2.70546 19.7902 2.56873C19.7336 2.432 19.6506 2.30777 19.5459 2.20312C19.4413 2.09848 19.3171 2.01547 19.1803 1.95883C19.0436 1.9022 18.8971 1.87305 18.7491 1.87305C18.6011 1.87305 18.4545 1.9022 18.3178 1.95883C18.1811 2.01547 18.0568 2.09848 17.9522 2.20312L16.8131 3.34687C15.3911 2.38812 13.7151 1.87592 12 1.87592C10.2849 1.87592 8.60894 2.38812 7.18688 3.34687L6.04594 2.205C5.8346 1.99365 5.54795 1.87492 5.24907 1.87492C4.95018 1.87492 4.66354 1.99365 4.45219 2.205C4.24085 2.41634 4.12211 2.70299 4.12211 3.00187C4.12211 3.30076 4.24085 3.5874 4.45219 3.79875L5.49844 4.84031C4.12772 6.40732 3.37308 8.41901 3.375 10.5009V14.2509C3.375 16.5384 4.28371 18.7322 5.90121 20.3497C7.51871 21.9672 9.71251 22.8759 12 22.8759C14.2875 22.8759 16.4813 21.9672 18.0988 20.3497C19.7163 18.7322 20.625 16.5384 20.625 14.2509V10.5009C20.6269 8.41901 19.8723 6.40732 18.5016 4.84031ZM18.375 10.5009V10.8759H5.625V10.5009C5.625 8.81018 6.29665 7.18867 7.4922 5.99313C8.68774 4.79759 10.3092 4.12594 12 4.12594C13.6908 4.12594 15.3123 4.79759 16.5078 5.99313C17.7034 7.18867 18.375 8.81018 18.375 10.5009ZM12 20.6259C10.3098 20.6242 8.68928 19.952 7.49412 18.7568C6.29895 17.5617 5.62674 15.9412 5.625 14.2509V13.1259H18.375V14.2509C18.3733 15.9412 17.7011 17.5617 16.5059 18.7568C15.3107 19.952 13.6902 20.6242 12 20.6259ZM13.125 8.25094C13.125 7.95426 13.213 7.66425 13.3778 7.41758C13.5426 7.17091 13.7769 6.97865 14.051 6.86512C14.3251 6.75159 14.6267 6.72188 14.9176 6.77976C15.2086 6.83764 15.4759 6.9805 15.6857 7.19028C15.8954 7.40005 16.0383 7.66733 16.0962 7.9583C16.1541 8.24927 16.1244 8.55087 16.0108 8.82496C15.8973 9.09905 15.705 9.33332 15.4584 9.49814C15.2117 9.66296 14.9217 9.75094 14.625 9.75094C14.2272 9.75094 13.8456 9.5929 13.5643 9.3116C13.283 9.03029 13.125 8.64876 13.125 8.25094ZM7.875 8.25094C7.875 7.95426 7.96298 7.66425 8.1278 7.41758C8.29262 7.17091 8.52689 6.97865 8.80098 6.86512C9.07507 6.75159 9.37667 6.72188 9.66764 6.77976C9.95861 6.83764 10.2259 6.9805 10.4357 7.19028C10.6454 7.40005 10.7883 7.66733 10.8462 7.9583C10.9041 8.24927 10.8744 8.55087 10.7608 8.82496C10.6473 9.09905 10.455 9.33332 10.2084 9.49814C9.96169 9.66296 9.67168 9.75094 9.375 9.75094C8.97718 9.75094 8.59565 9.5929 8.31434 9.3116C8.03304 9.03029 7.875 8.64876 7.875 8.25094Z" fill="#130032"/>
</svg>
