<svg width="24" height="24" viewBox="0 0 24 24" fill="none" xmlns="http://www.w3.org/2000/svg">
<path d="M21 15.0009C21.2984 15.0009 21.5845 14.8824 21.7955 14.6714C22.0065 14.4605 22.125 14.1743 22.125 13.8759C22.125 13.5776 22.0065 13.2914 21.7955 13.0804C21.5845 12.8695 21.2984 12.7509 21 12.7509H19.875V11.2509H21C21.2984 11.2509 21.5845 11.1324 21.7955 10.9214C22.0065 10.7105 22.125 10.4243 22.125 10.1259C22.125 9.82757 22.0065 9.54142 21.7955 9.33044C21.5845 9.11946 21.2984 9.00094 21 9.00094H19.7297C19.4689 7.65883 18.862 6.40815 17.9691 5.37281L19.5459 3.79687C19.7573 3.58553 19.876 3.29888 19.876 3C19.876 2.70111 19.7573 2.41447 19.5459 2.20312C19.3346 1.99178 19.0479 1.87305 18.7491 1.87305C18.4502 1.87305 18.1635 1.99178 17.9522 2.20312L16.2647 3.89062C14.9932 3.06582 13.51 2.6269 11.9944 2.6269C10.4788 2.6269 8.99559 3.06582 7.72406 3.89062L6.03656 2.20312C5.93192 2.09848 5.80768 2.01547 5.67095 1.95883C5.53422 1.9022 5.38768 1.87305 5.23969 1.87305C4.9408 1.87305 4.65416 1.99178 4.44281 2.20312C4.23147 2.41447 4.11274 2.70111 4.11274 3C4.11274 3.29888 4.23147 3.58553 4.44281 3.79687L6.03094 5.37281C5.13801 6.40815 4.53109 7.65883 4.27031 9.00094H3C2.70163 9.00094 2.41548 9.11946 2.2045 9.33044C1.99353 9.54142 1.875 9.82757 1.875 10.1259C1.875 10.4243 1.99353 10.7105 2.2045 10.9214C2.41548 11.1324 2.70163 11.2509 3 11.2509H4.125V12.7509H3C2.70163 12.7509 2.41548 12.8695 2.2045 13.0804C1.99353 13.2914 1.875 13.5776 1.875 13.8759C1.875 14.1743 1.99353 14.4605 2.2045 14.6714C2.41548 14.8824 2.70163 15.0009 3 15.0009H4.125C4.12511 15.5044 4.17378 16.0068 4.27031 16.5009H3C2.70163 16.5009 2.41548 16.6195 2.2045 16.8304C1.99353 17.0414 1.875 17.3276 1.875 17.6259C1.875 17.9243 1.99353 18.2105 2.2045 18.4214C2.41548 18.6324 2.70163 18.7509 3 18.7509H5.07656C5.7524 19.9979 6.75245 21.0391 7.97109 21.7647C9.18972 22.4904 10.5817 22.8734 12 22.8734C13.4183 22.8734 14.8103 22.4904 16.0289 21.7647C17.2475 21.0391 18.2476 19.9979 18.9234 18.7509H21C21.2984 18.7509 21.5845 18.6324 21.7955 18.4214C22.0065 18.2105 22.125 17.9243 22.125 17.6259C22.125 17.3276 22.0065 17.0414 21.7955 16.8304C21.5845 16.6195 21.2984 16.5009 21 16.5009H19.7297C19.8262 16.0068 19.8749 15.5044 19.875 15.0009H21ZM12 4.87594C13.2299 4.87764 14.4255 5.28174 15.4042 6.02655C16.383 6.77136 17.0911 7.81597 17.4206 9.00094H6.57938C6.90885 7.81597 7.61701 6.77136 8.59576 6.02655C9.57451 5.28174 10.7701 4.87764 12 4.87594ZM13.125 20.5125V13.8759C13.125 13.5776 13.0065 13.2914 12.7955 13.0804C12.5845 12.8695 12.2984 12.7509 12 12.7509C11.7016 12.7509 11.4155 12.8695 11.2045 13.0804C10.9935 13.2914 10.875 13.5776 10.875 13.8759V20.5125C9.60535 20.2517 8.46447 19.5611 7.64472 18.5571C6.82498 17.5531 6.37654 16.2971 6.375 15.0009V11.2509H17.625V15.0009C17.6235 16.2971 17.175 17.5531 16.3553 18.5571C15.5355 19.5611 14.3946 20.2517 13.125 20.5125Z" fill="#130032"/>
</svg>
