<svg width="24" height="24" viewBox="0 0 24 24" fill="none" xmlns="http://www.w3.org/2000/svg">
<path d="M22.5 19.1243H21.375V8.99932C21.375 8.50204 21.1775 8.02513 20.8258 7.67349C20.4742 7.32186 19.9973 7.12432 19.5 7.12432H16.125V2.99932C16.1249 2.68413 16.0453 2.37405 15.8936 2.09775C15.742 1.82145 15.5231 1.58785 15.2573 1.41852C14.9914 1.2492 14.6872 1.14963 14.3726 1.12902C14.0581 1.1084 13.7435 1.1674 13.4578 1.30057L3.70781 5.85119C3.38466 6.00258 3.11125 6.24279 2.91952 6.54375C2.72778 6.84472 2.62563 7.19403 2.625 7.55088V19.1243H1.5C1.20163 19.1243 0.915483 19.2428 0.704505 19.4538C0.493526 19.6648 0.375 19.951 0.375 20.2493C0.375 20.5477 0.493526 20.8338 0.704505 21.0448C0.915483 21.2558 1.20163 21.3743 1.5 21.3743H22.5C22.7984 21.3743 23.0845 21.2558 23.2955 21.0448C23.5065 20.8338 23.625 20.5477 23.625 20.2493C23.625 19.951 23.5065 19.6648 23.2955 19.4538C23.0845 19.2428 22.7984 19.1243 22.5 19.1243ZM19.125 9.37432V19.1243H16.125V9.37432H19.125ZM4.875 7.78901L13.875 3.58994V19.1243H4.875V7.78901ZM12.375 10.4993V11.6243C12.375 11.9227 12.2565 12.2088 12.0455 12.4198C11.8345 12.6308 11.5484 12.7493 11.25 12.7493C10.9516 12.7493 10.6655 12.6308 10.4545 12.4198C10.2435 12.2088 10.125 11.9227 10.125 11.6243V10.4993C10.125 10.201 10.2435 9.9148 10.4545 9.70382C10.6655 9.49285 10.9516 9.37432 11.25 9.37432C11.5484 9.37432 11.8345 9.49285 12.0455 9.70382C12.2565 9.9148 12.375 10.201 12.375 10.4993ZM8.625 10.4993V11.6243C8.625 11.9227 8.50647 12.2088 8.2955 12.4198C8.08452 12.6308 7.79837 12.7493 7.5 12.7493C7.20163 12.7493 6.91548 12.6308 6.7045 12.4198C6.49353 12.2088 6.375 11.9227 6.375 11.6243V10.4993C6.375 10.201 6.49353 9.9148 6.7045 9.70382C6.91548 9.49285 7.20163 9.37432 7.5 9.37432C7.79837 9.37432 8.08452 9.49285 8.2955 9.70382C8.50647 9.9148 8.625 10.201 8.625 10.4993ZM8.625 15.3743V16.4993C8.625 16.7977 8.50647 17.0838 8.2955 17.2948C8.08452 17.5058 7.79837 17.6243 7.5 17.6243C7.20163 17.6243 6.91548 17.5058 6.7045 17.2948C6.49353 17.0838 6.375 16.7977 6.375 16.4993V15.3743C6.375 15.076 6.49353 14.7898 6.7045 14.5788C6.91548 14.3678 7.20163 14.2493 7.5 14.2493C7.79837 14.2493 8.08452 14.3678 8.2955 14.5788C8.50647 14.7898 8.625 15.076 8.625 15.3743ZM12.375 15.3743V16.4993C12.375 16.7977 12.2565 17.0838 12.0455 17.2948C11.8345 17.5058 11.5484 17.6243 11.25 17.6243C10.9516 17.6243 10.6655 17.5058 10.4545 17.2948C10.2435 17.0838 10.125 16.7977 10.125 16.4993V15.3743C10.125 15.076 10.2435 14.7898 10.4545 14.5788C10.6655 14.3678 10.9516 14.2493 11.25 14.2493C11.5484 14.2493 11.8345 14.3678 12.0455 14.5788C12.2565 14.7898 12.375 15.076 12.375 15.3743Z" fill="#130032"/>
</svg>
