<svg width="24" height="24" viewBox="0 0 24 24" fill="none" xmlns="http://www.w3.org/2000/svg">
<path d="M22.8747 18.375H22.1247C22.0252 18.375 21.9298 18.3355 21.8595 18.2652C21.7892 18.1948 21.7497 18.0995 21.7497 18V15C21.7497 14.9005 21.7892 14.8052 21.8595 14.7348C21.9298 14.6645 22.0252 14.625 22.1247 14.625H22.8747C23.173 14.625 23.4592 14.5065 23.6702 14.2955C23.8812 14.0845 23.9997 13.7984 23.9997 13.5C23.9997 13.2016 23.8812 12.9155 23.6702 12.7045C23.4592 12.4935 23.173 12.375 22.8747 12.375H22.1247C21.4285 12.375 20.7608 12.6516 20.2685 13.1438C19.7762 13.6361 19.4997 14.3038 19.4997 15V15.375H18.5922C18.3825 14.6408 17.9738 13.9789 17.4112 13.4627C16.8486 12.9464 16.1542 12.5959 15.4047 12.45L12.1047 4.52906C11.9624 4.1875 11.7223 3.89566 11.4145 3.6903C11.1067 3.48493 10.745 3.37523 10.375 3.375H2.24968C2.00345 3.375 1.75963 3.4235 1.53215 3.51773C1.30466 3.61195 1.09796 3.75006 0.923852 3.92417C0.572221 4.27581 0.374677 4.75272 0.374677 5.25V14.7844C0.0873246 15.4127 -0.0376083 16.1031 0.0113449 16.7923C0.0602982 17.4814 0.281569 18.1473 0.65485 18.7287C1.02813 19.31 1.54146 19.7884 2.14773 20.1197C2.75399 20.451 3.43378 20.6248 4.12468 20.625H14.6247C15.5221 20.6238 16.3948 20.3304 17.1106 19.7891C17.8265 19.2479 18.3465 18.4882 18.5922 17.625H19.4997V18C19.4997 18.6962 19.7762 19.3639 20.2685 19.8562C20.7608 20.3484 21.4285 20.625 22.1247 20.625H22.8747C23.173 20.625 23.4592 20.5065 23.6702 20.2955C23.8812 20.0845 23.9997 19.7984 23.9997 19.5C23.9997 19.2016 23.8812 18.9155 23.6702 18.7045C23.4592 18.4935 23.173 18.375 22.8747 18.375ZM12.9372 12.375H6.37468V5.625H10.1247L12.9372 12.375ZM4.12468 5.625V12.375C3.61151 12.3743 3.10274 12.4697 2.62468 12.6562V5.625H4.12468ZM14.6247 18.375H4.12468C3.6274 18.375 3.15048 18.1775 2.79885 17.8258C2.44722 17.4742 2.24968 16.9973 2.24968 16.5C2.24968 16.0027 2.44722 15.5258 2.79885 15.1742C3.15048 14.8225 3.6274 14.625 4.12468 14.625H14.6247C15.122 14.625 15.5989 14.8225 15.9505 15.1742C16.3021 15.5258 16.4997 16.0027 16.4997 16.5C16.4997 16.9973 16.3021 17.4742 15.9505 17.8258C15.5989 18.1775 15.122 18.375 14.6247 18.375Z" fill="#130032"/>
</svg>
