<svg width="24" height="24" viewBox="0 0 24 24" fill="none" xmlns="http://www.w3.org/2000/svg">
<path d="M22.1055 4.5C21.7052 3.98625 20.943 3.375 19.5855 3.375C17.9112 3.375 15.7887 4.47188 13.9071 6.30938C13.6258 6.58031 13.369 6.85781 13.1252 7.13812V5.25C13.1252 4.95163 13.0067 4.66548 12.7957 4.4545C12.5847 4.24353 12.2986 4.125 12.0002 4.125C11.7018 4.125 11.4157 4.24353 11.2047 4.4545C10.9937 4.66548 10.8752 4.95163 10.8752 5.25V7.13812C10.6315 6.85687 10.3708 6.57563 10.0933 6.30938C8.21178 4.47188 6.09396 3.375 4.4149 3.375C3.0574 3.375 2.29521 3.98812 1.8949 4.5C0.656464 6.09375 1.12521 8.80406 1.80771 11.4994C2.34678 13.6219 3.47646 14.5931 4.51521 15.0328C4.21065 15.7186 4.08198 16.4696 4.14085 17.2177C4.19972 17.9658 4.44428 18.6874 4.85238 19.3171C5.26048 19.9469 5.81922 20.4649 6.47801 20.8242C7.13679 21.1835 7.87481 21.3728 8.62521 21.375C9.26399 21.3754 9.89549 21.2395 10.4775 20.9763C11.0595 20.7131 11.5787 20.3287 12.0002 19.8488C12.6046 20.5341 13.4034 21.0192 14.2903 21.2395C15.1771 21.4599 16.11 21.4049 16.9649 21.0821C17.8198 20.7593 18.5562 20.1839 19.076 19.4323C19.5959 18.6808 19.8747 17.7888 19.8752 16.875C19.8757 16.2406 19.7435 15.6131 19.4871 15.0328C20.5258 14.595 21.6555 13.6266 22.1946 11.4994C22.8752 8.80406 23.344 6.09375 22.1055 4.5ZM8.62521 19.125C8.02848 19.125 7.45618 18.8879 7.03422 18.466C6.61227 18.044 6.37521 17.4717 6.37521 16.875C6.37745 16.3204 6.58142 15.7856 6.94903 15.3704C7.31665 14.9551 7.82281 14.6879 8.37303 14.6184C8.66965 14.5856 8.94109 14.4363 9.12764 14.2034C9.31417 13.9704 9.40053 13.6729 9.36771 13.3762C9.33489 13.0796 9.18558 12.8082 8.95263 12.6216C8.71967 12.4351 8.42215 12.3487 8.12553 12.3816C7.40316 12.4616 6.71126 12.7168 6.1099 13.125C5.34209 13.0978 4.4224 12.6637 3.98834 10.9462C3.29365 8.21063 3.18678 6.50719 3.67053 5.88375C3.72584 5.8125 3.87209 5.625 4.4149 5.625C5.46584 5.625 7.11678 6.54656 8.52209 7.91906C9.95178 9.31594 10.8752 10.9059 10.8752 11.9691V16.875C10.8752 17.4717 10.6382 18.044 10.2162 18.466C9.79425 18.8879 9.22195 19.125 8.62521 19.125ZM20.0112 10.9453C19.5762 12.6628 18.6565 13.0969 17.8896 13.125C17.288 12.7167 16.5957 12.4618 15.873 12.3825C15.7262 12.3662 15.5775 12.3791 15.4356 12.4203C15.2937 12.4615 15.1613 12.5302 15.0459 12.6226C14.9306 12.7149 14.8346 12.8291 14.7633 12.9586C14.6921 13.0881 14.6471 13.2303 14.6308 13.3772C14.6146 13.5241 14.6274 13.6727 14.6686 13.8146C14.7098 13.9565 14.7786 14.0889 14.8709 14.2043C14.9633 14.3196 15.0775 14.4157 15.2069 14.4869C15.3364 14.5581 15.4787 14.6031 15.6255 14.6194C16.1759 14.6884 16.6824 14.9553 17.0504 15.3704C17.4184 15.7855 17.6227 16.3203 17.6252 16.875C17.6252 17.4717 17.3882 18.044 16.9662 18.466C16.5442 18.8879 15.972 19.125 15.3752 19.125C14.7785 19.125 14.2062 18.8879 13.7842 18.466C13.3623 18.044 13.1252 17.4717 13.1252 16.875V11.9691C13.1252 10.9059 14.0487 9.31594 15.4783 7.91906C16.8837 6.54656 18.5346 5.625 19.5855 5.625C20.1283 5.625 20.2746 5.8125 20.3299 5.88375C20.8127 6.50625 20.7068 8.20969 20.0121 10.9453H20.0112Z" fill="#130032"/>
</svg>
