<svg width="24" height="24" viewBox="0 0 24 24" fill="none" xmlns="http://www.w3.org/2000/svg">
<path d="M23.6076 2.80187C23.555 2.50826 23.388 2.24753 23.1433 2.077C22.8986 1.90647 22.5962 1.84011 22.3026 1.89249L1.30256 5.64249C1.0261 5.69228 0.778274 5.84369 0.607802 6.06695C0.437331 6.29022 0.356551 6.56918 0.381347 6.84899C0.406143 7.12879 0.534721 7.3892 0.741798 7.57901C0.948875 7.76881 1.21947 7.87428 1.50037 7.87468C1.56702 7.87476 1.63355 7.86879 1.69912 7.85687L10.8754 6.21812V8.62468H6.00037C5.10527 8.62468 4.24682 8.98026 3.61389 9.61319C2.98095 10.2461 2.62537 11.1046 2.62537 11.9997V17.9997C2.62537 18.8948 2.98095 19.7532 3.61389 20.3862C4.24682 21.0191 5.10527 21.3747 6.00037 21.3747H18.0004C18.8955 21.3747 19.7539 21.0191 20.3869 20.3862C21.0198 19.7532 21.3754 18.8948 21.3754 17.9997V11.9997C21.3754 11.1046 21.0198 10.2461 20.3869 9.61319C19.7539 8.98026 18.8955 8.62468 18.0004 8.62468H13.1254V5.81687L22.6982 4.10687C22.9918 4.05433 23.2525 3.88735 23.423 3.64264C23.5936 3.39792 23.6599 3.0955 23.6076 2.80187ZM10.1254 14.6247V10.8747H13.8754V14.6247H10.1254ZM6.00037 10.8747H7.87537V14.6247H4.87537V11.9997C4.87537 11.7013 4.9939 11.4152 5.20488 11.2042C5.41586 10.9932 5.702 10.8747 6.00037 10.8747ZM18.0004 19.1247H6.00037C5.702 19.1247 5.41586 19.0062 5.20488 18.7952C4.9939 18.5842 4.87537 18.298 4.87537 17.9997V16.8747H19.1254V17.9997C19.1254 18.298 19.0068 18.5842 18.7959 18.7952C18.5849 19.0062 18.2987 19.1247 18.0004 19.1247ZM19.1254 11.9997V14.6247H16.1254V10.8747H18.0004C18.2987 10.8747 18.5849 10.9932 18.7959 11.2042C19.0068 11.4152 19.1254 11.7013 19.1254 11.9997Z" fill="#130032"/>
</svg>
