<svg width="24" height="24" viewBox="0 0 24 24" fill="none" xmlns="http://www.w3.org/2000/svg">
<path d="M20.25 19.125H16.125V17.625C17.9146 17.623 19.6303 16.9112 20.8958 15.6458C22.1612 14.3803 22.873 12.6646 22.875 10.875C22.875 10.0794 22.5589 9.31629 21.9963 8.75368C21.4337 8.19107 20.6706 7.875 19.875 7.875C19.0794 7.875 18.3163 8.19107 17.7537 8.75368C17.1911 9.31629 16.875 10.0794 16.875 10.875C16.875 11.0739 16.796 11.2647 16.6553 11.4053C16.5147 11.546 16.3239 11.625 16.125 11.625V5.25C16.125 4.15598 15.6904 3.10677 14.9168 2.33318C14.1432 1.5596 13.094 1.125 12 1.125C10.906 1.125 9.85677 1.5596 9.08318 2.33318C8.3096 3.10677 7.875 4.15598 7.875 5.25V7.875C7.67609 7.875 7.48532 7.79598 7.34467 7.65533C7.20402 7.51468 7.125 7.32391 7.125 7.125C7.125 6.32935 6.80893 5.56629 6.24632 5.00368C5.68371 4.44107 4.92065 4.125 4.125 4.125C3.32935 4.125 2.56629 4.44107 2.00368 5.00368C1.44107 5.56629 1.125 6.32935 1.125 7.125C1.12699 8.9146 1.83878 10.6303 3.10422 11.8958C4.36966 13.1612 6.0854 13.873 7.875 13.875V19.125H3.75C3.45163 19.125 3.16548 19.2435 2.9545 19.4545C2.74353 19.6655 2.625 19.9516 2.625 20.25C2.625 20.5484 2.74353 20.8345 2.9545 21.0455C3.16548 21.2565 3.45163 21.375 3.75 21.375H20.25C20.5484 21.375 20.8345 21.2565 21.0455 21.0455C21.2565 20.8345 21.375 20.5484 21.375 20.25C21.375 19.9516 21.2565 19.6655 21.0455 19.4545C20.8345 19.2435 20.5484 19.125 20.25 19.125ZM9 11.625H7.875C6.68191 11.6238 5.53803 11.1493 4.69439 10.3056C3.85075 9.46197 3.37624 8.31809 3.375 7.125C3.375 6.92609 3.45402 6.73532 3.59467 6.59467C3.73532 6.45402 3.92609 6.375 4.125 6.375C4.32391 6.375 4.51468 6.45402 4.65533 6.59467C4.79598 6.73532 4.875 6.92609 4.875 7.125C4.875 7.92065 5.19107 8.68371 5.75368 9.24632C6.31629 9.80893 7.07935 10.125 7.875 10.125H9C9.29837 10.125 9.58452 10.0065 9.7955 9.7955C10.0065 9.58452 10.125 9.29837 10.125 9V5.25C10.125 4.75272 10.3225 4.27581 10.6742 3.92417C11.0258 3.57254 11.5027 3.375 12 3.375C12.4973 3.375 12.9742 3.57254 13.3258 3.92417C13.6775 4.27581 13.875 4.75272 13.875 5.25V12.75C13.875 13.0484 13.9935 13.3345 14.2045 13.5455C14.4155 13.7565 14.7016 13.875 15 13.875H16.125C16.9206 13.875 17.6837 13.5589 18.2463 12.9963C18.8089 12.4337 19.125 11.6706 19.125 10.875C19.125 10.6761 19.204 10.4853 19.3447 10.3447C19.4853 10.204 19.6761 10.125 19.875 10.125C20.0739 10.125 20.2647 10.204 20.4053 10.3447C20.546 10.4853 20.625 10.6761 20.625 10.875C20.6238 12.0681 20.1493 13.212 19.3056 14.0556C18.462 14.8993 17.3181 15.3738 16.125 15.375H15C14.7016 15.375 14.4155 15.4935 14.2045 15.7045C13.9935 15.9155 13.875 16.2016 13.875 16.5V19.125H10.125V12.75C10.125 12.4516 10.0065 12.1655 9.7955 11.9545C9.58452 11.7435 9.29837 11.625 9 11.625Z" fill="#130032"/>
</svg>
