<svg width="24" height="24" viewBox="0 0 24 24" fill="none" xmlns="http://www.w3.org/2000/svg">
<path d="M22.125 10.4999C22.125 10.1551 22.0571 9.8138 21.9252 9.49533C21.7933 9.17684 21.5999 8.88747 21.3562 8.64371C21.1124 8.39996 20.823 8.2066 20.5045 8.07468C20.1861 7.94277 19.8447 7.87487 19.5 7.87487H13.125V7.68174C13.7825 7.44828 14.3516 7.01717 14.7544 6.44751C15.1573 5.87786 15.374 5.19755 15.375 4.49987C15.375 1.58799 12.6206 0.177056 12.5034 0.118931C12.3471 0.0407199 12.1748 0 12 0C11.8252 0 11.6529 0.0407199 11.4966 0.118931C11.3794 0.177056 8.625 1.58799 8.625 4.49987C8.62598 5.19755 8.84274 5.87786 9.24555 6.44751C9.64837 7.01717 10.2175 7.44828 10.875 7.68174V7.87487H4.5C3.80381 7.87487 3.13613 8.15143 2.64384 8.64371C2.15156 9.136 1.875 9.80367 1.875 10.4999V12.6871C1.87555 13.5414 2.13724 14.3753 2.625 15.0767V18.7499C2.625 19.4461 2.90156 20.1137 3.39384 20.606C3.88613 21.0983 4.55381 21.3749 5.25 21.3749H18.75C19.4462 21.3749 20.1139 21.0983 20.6062 20.606C21.0984 20.1137 21.375 19.4461 21.375 18.7499V15.0767C21.8628 14.3753 22.1245 13.5414 22.125 12.6871V10.4999ZM11.625 2.80581C11.7428 2.68646 11.8681 2.57468 12 2.47112C12.1321 2.57443 12.2574 2.68623 12.375 2.80581C12.8747 3.32331 13.125 3.89331 13.125 4.49987C13.125 4.79824 13.0065 5.08438 12.7955 5.29536C12.5845 5.50634 12.2984 5.62487 12 5.62487C11.7016 5.62487 11.4155 5.50634 11.2045 5.29536C10.9935 5.08438 10.875 4.79824 10.875 4.49987C10.875 3.89331 11.1291 3.32331 11.625 2.80581ZM4.125 10.4999C4.125 10.4004 4.16451 10.305 4.23484 10.2347C4.30516 10.1644 4.40054 10.1249 4.5 10.1249H19.5C19.5995 10.1249 19.6948 10.1644 19.7652 10.2347C19.8355 10.305 19.875 10.4004 19.875 10.4999V12.6871C19.875 13.7277 19.0575 14.5967 18.0534 14.6239C17.8028 14.6311 17.5533 14.5879 17.3197 14.4969C17.0861 14.406 16.8731 14.2691 16.6933 14.0943C16.5135 13.9196 16.3705 13.7106 16.2729 13.4797C16.1753 13.2487 16.125 13.0006 16.125 12.7499C16.125 12.4515 16.0065 12.1654 15.7955 11.9544C15.5845 11.7434 15.2984 11.6249 15 11.6249C14.7016 11.6249 14.4155 11.7434 14.2045 11.9544C13.9935 12.1654 13.875 12.4515 13.875 12.7499C13.875 13.2471 13.6775 13.7241 13.3258 14.0757C12.9742 14.4273 12.4973 14.6249 12 14.6249C11.5027 14.6249 11.0258 14.4273 10.6742 14.0757C10.3225 13.7241 10.125 13.2471 10.125 12.7499C10.125 12.4515 10.0065 12.1654 9.7955 11.9544C9.58452 11.7434 9.29837 11.6249 9 11.6249C8.70163 11.6249 8.41548 11.7434 8.2045 11.9544C7.99353 12.1654 7.875 12.4515 7.875 12.7499C7.8751 13.0007 7.82489 13.2489 7.72734 13.48C7.62979 13.711 7.48688 13.9201 7.30707 14.0949C7.12726 14.2698 6.9142 14.4068 6.68052 14.4978C6.44683 14.5888 6.19725 14.632 5.94656 14.6249C4.9425 14.5967 4.125 13.7277 4.125 12.6871V10.4999ZM18.75 19.1249H5.25C5.15054 19.1249 5.05516 19.0854 4.98484 19.015C4.91451 18.9447 4.875 18.8493 4.875 18.7499V16.7146C5.20332 16.811 5.54265 16.8649 5.88469 16.8749C6.43618 16.892 6.98546 16.7976 7.49954 16.5972C8.01362 16.3968 8.4819 16.0945 8.87625 15.7086C8.91937 15.6674 8.96063 15.6242 9.00094 15.5821C9.38653 15.9906 9.85152 16.3161 10.3674 16.5386C10.8833 16.7611 11.4391 16.8759 12.0009 16.8759C12.5627 16.8759 13.1186 16.7611 13.6345 16.5386C14.1504 16.3161 14.6153 15.9906 15.0009 15.5821C15.0412 15.6242 15.0825 15.6674 15.1256 15.7086C15.8936 16.4594 16.926 16.8783 18 16.8749H18.1172C18.4586 16.8647 18.7973 16.8108 19.125 16.7146V18.7499C19.125 18.8493 19.0855 18.9447 19.0152 19.015C18.9448 19.0854 18.8495 19.1249 18.75 19.1249Z" fill="#130032"/>
</svg>
