<svg width="24" height="24" viewBox="0 0 24 24" fill="none" xmlns="http://www.w3.org/2000/svg">
<path d="M19.5 2.625H17.625V2.25C17.625 1.95163 17.5065 1.66548 17.2955 1.4545C17.0845 1.24353 16.7984 1.125 16.5 1.125C16.2016 1.125 15.9155 1.24353 15.7045 1.4545C15.4935 1.66548 15.375 1.95163 15.375 2.25V2.625H8.625V2.25C8.625 1.95163 8.50647 1.66548 8.2955 1.4545C8.08452 1.24353 7.79837 1.125 7.5 1.125C7.20163 1.125 6.91548 1.24353 6.7045 1.4545C6.49353 1.66548 6.375 1.95163 6.375 2.25V2.625H4.5C4.00272 2.625 3.52581 2.82254 3.17417 3.17417C2.82254 3.52581 2.625 4.00272 2.625 4.5V19.5C2.625 19.9973 2.82254 20.4742 3.17417 20.8258C3.52581 21.1775 4.00272 21.375 4.5 21.375H19.5C19.9973 21.375 20.4742 21.1775 20.8258 20.8258C21.1775 20.4742 21.375 19.9973 21.375 19.5V4.5C21.375 4.00272 21.1775 3.52581 20.8258 3.17417C20.4742 2.82254 19.9973 2.625 19.5 2.625ZM19.125 19.125H4.875V4.875H6.375C6.375 5.17337 6.49353 5.45952 6.7045 5.6705C6.91548 5.88147 7.20163 6 7.5 6C7.79837 6 8.08452 5.88147 8.2955 5.6705C8.50647 5.45952 8.625 5.17337 8.625 4.875H15.375C15.375 5.17337 15.4935 5.45952 15.7045 5.6705C15.9155 5.88147 16.2016 6 16.5 6C16.7984 6 17.0845 5.88147 17.2955 5.6705C17.5065 5.45952 17.625 5.17337 17.625 4.875H19.125V19.125ZM14.25 7.875C13.4193 7.87435 12.6178 8.18126 12 8.73656C11.5145 8.30234 10.9138 8.01787 10.2702 7.91747C9.62666 7.81708 8.96781 7.90504 8.37314 8.17076C7.77847 8.43648 7.27339 8.8686 6.91884 9.41498C6.56429 9.96136 6.37541 10.5987 6.375 11.25C6.375 12.8438 7.26844 14.3962 9.03 15.8644C9.7927 16.4961 10.6194 17.0463 11.4966 17.5059C11.6529 17.5841 11.8252 17.6249 12 17.6249C12.1748 17.6249 12.3471 17.5841 12.5034 17.5059C13.3806 17.0463 14.2073 16.4961 14.97 15.8644C16.7316 14.3962 17.625 12.8438 17.625 11.25C17.625 10.3549 17.2694 9.49645 16.6365 8.86351C16.0035 8.23058 15.1451 7.875 14.25 7.875ZM12 15.2147C10.7672 14.4778 8.625 12.8653 8.625 11.25C8.625 10.9516 8.74353 10.6655 8.9545 10.4545C9.16548 10.2435 9.45163 10.125 9.75 10.125C10.0484 10.125 10.3345 10.2435 10.5455 10.4545C10.7565 10.6655 10.875 10.9516 10.875 11.25C10.875 11.5484 10.9935 11.8345 11.2045 12.0455C11.4155 12.2565 11.7016 12.375 12 12.375C12.2984 12.375 12.5845 12.2565 12.7955 12.0455C13.0065 11.8345 13.125 11.5484 13.125 11.25C13.125 10.9516 13.2435 10.6655 13.4545 10.4545C13.6655 10.2435 13.9516 10.125 14.25 10.125C14.5484 10.125 14.8345 10.2435 15.0455 10.4545C15.2565 10.6655 15.375 10.9516 15.375 11.25C15.375 12.8653 13.2319 14.4787 12 15.2147Z" fill="#130032"/>
</svg>
