<svg width="24" height="24" viewBox="0 0 24 24" fill="none" xmlns="http://www.w3.org/2000/svg">
<path d="M13.875 14.25C13.875 14.6208 13.765 14.9834 13.559 15.2917C13.353 15.6 13.0601 15.8404 12.7175 15.9823C12.3749 16.1242 11.9979 16.1613 11.6342 16.089C11.2705 16.0166 10.9364 15.838 10.6742 15.5758C10.412 15.3136 10.2334 14.9795 10.161 14.6158C10.0887 14.2521 10.1258 13.8751 10.2677 13.5325C10.4096 13.1899 10.65 12.897 10.9583 12.691C11.2666 12.485 11.6292 12.375 12 12.375C12.4973 12.375 12.9742 12.5725 13.3258 12.9242C13.6775 13.2758 13.875 13.7527 13.875 14.25ZM21.375 4.5V19.5C21.375 19.9973 21.1775 20.4742 20.8258 20.8258C20.4742 21.1775 19.9973 21.375 19.5 21.375H4.5C4.00272 21.375 3.52581 21.1775 3.17417 20.8258C2.82254 20.4742 2.625 19.9973 2.625 19.5V4.5C2.625 4.00272 2.82254 3.52581 3.17417 3.17417C3.52581 2.82254 4.00272 2.625 4.5 2.625H6.375V2.25C6.375 1.95163 6.49353 1.66548 6.7045 1.4545C6.91548 1.24353 7.20163 1.125 7.5 1.125C7.79837 1.125 8.08452 1.24353 8.2955 1.4545C8.50647 1.66548 8.625 1.95163 8.625 2.25V2.625H15.375V2.25C15.375 1.95163 15.4935 1.66548 15.7045 1.4545C15.9155 1.24353 16.2016 1.125 16.5 1.125C16.7984 1.125 17.0845 1.24353 17.2955 1.4545C17.5065 1.66548 17.625 1.95163 17.625 2.25V2.625H19.5C19.9973 2.625 20.4742 2.82254 20.8258 3.17417C21.1775 3.52581 21.375 4.00272 21.375 4.5ZM4.875 4.875V7.125H19.125V4.875H17.625C17.625 5.17337 17.5065 5.45952 17.2955 5.6705C17.0845 5.88147 16.7984 6 16.5 6C16.2016 6 15.9155 5.88147 15.7045 5.6705C15.4935 5.45952 15.375 5.17337 15.375 4.875H8.625C8.625 5.17337 8.50647 5.45952 8.2955 5.6705C8.08452 5.88147 7.79837 6 7.5 6C7.20163 6 6.91548 5.88147 6.7045 5.6705C6.49353 5.45952 6.375 5.17337 6.375 4.875H4.875ZM19.125 19.125V9.375H4.875V19.125H19.125Z" fill="#130032"/>
</svg>
