<svg width="24" height="24" viewBox="0 0 24 24" fill="none" xmlns="http://www.w3.org/2000/svg">
<path d="M19.5 2.625H17.625V2.25C17.625 1.95163 17.5065 1.66548 17.2955 1.4545C17.0845 1.24353 16.7984 1.125 16.5 1.125C16.2016 1.125 15.9155 1.24353 15.7045 1.4545C15.4935 1.66548 15.375 1.95163 15.375 2.25V2.625H8.625V2.25C8.625 1.95163 8.50647 1.66548 8.2955 1.4545C8.08452 1.24353 7.79837 1.125 7.5 1.125C7.20163 1.125 6.91548 1.24353 6.7045 1.4545C6.49353 1.66548 6.375 1.95163 6.375 2.25V2.625H4.5C4.00272 2.625 3.52581 2.82254 3.17417 3.17417C2.82254 3.52581 2.625 4.00272 2.625 4.5V19.5C2.625 19.9973 2.82254 20.4742 3.17417 20.8258C3.52581 21.1775 4.00272 21.375 4.5 21.375H19.5C19.9973 21.375 20.4742 21.1775 20.8258 20.8258C21.1775 20.4742 21.375 19.9973 21.375 19.5V4.5C21.375 4.00272 21.1775 3.52581 20.8258 3.17417C20.4742 2.82254 19.9973 2.625 19.5 2.625ZM19.125 19.125H4.875V4.875H6.375C6.375 5.17337 6.49353 5.45952 6.7045 5.6705C6.91548 5.88147 7.20163 6 7.5 6C7.79837 6 8.08452 5.88147 8.2955 5.6705C8.50647 5.45952 8.625 5.17337 8.625 4.875H15.375C15.375 5.17337 15.4935 5.45952 15.7045 5.6705C15.9155 5.88147 16.2016 6 16.5 6C16.7984 6 17.0845 5.88147 17.2955 5.6705C17.5065 5.45952 17.625 5.17337 17.625 4.875H19.125V19.125ZM16.5863 10.2797L14.0156 10.0809L13.0312 7.80469C12.9437 7.60396 12.7995 7.43314 12.6164 7.31317C12.4332 7.1932 12.219 7.1293 12 7.1293C11.781 7.1293 11.5668 7.1932 11.3836 7.31317C11.2005 7.43314 11.0563 7.60396 10.9688 7.80469L9.98438 10.0809L7.41375 10.2797C7.1901 10.2969 6.97668 10.3805 6.80091 10.5198C6.62514 10.6592 6.49504 10.8479 6.42732 11.0617C6.3596 11.2756 6.35735 11.5048 6.42087 11.7199C6.48438 11.9351 6.61075 12.1263 6.78375 12.2691L8.71313 13.8628L8.12719 16.2309C8.07418 16.4458 8.08574 16.6716 8.16041 16.8799C8.23508 17.0883 8.36955 17.27 8.54698 17.4022C8.72441 17.5345 8.93692 17.6116 9.15791 17.6237C9.3789 17.6358 9.59855 17.5824 9.78937 17.4703L12 16.1681L14.2106 17.4694C14.4014 17.5815 14.6211 17.6348 14.8421 17.6227C15.0631 17.6106 15.2756 17.5336 15.453 17.4013C15.6305 17.269 15.7649 17.0873 15.8396 16.879C15.9143 16.6706 15.9258 16.4449 15.8728 16.23L15.2869 13.8619L17.2162 12.2681C17.3893 12.1253 17.5156 11.9341 17.5791 11.719C17.6426 11.5039 17.6404 11.2747 17.5727 11.0608C17.505 10.847 17.3749 10.6582 17.1991 10.5189C17.0233 10.3795 16.8099 10.2959 16.5863 10.2787V10.2797ZM13.305 12.5775C13.1418 12.7125 13.02 12.8909 12.9536 13.0921C12.8873 13.2932 12.8791 13.5091 12.93 13.7147L13.0434 14.1731L12.5681 13.8919C12.3949 13.7905 12.1979 13.7371 11.9972 13.7371C11.7965 13.7371 11.5995 13.7905 11.4262 13.8919L10.9509 14.1731L11.0644 13.7147C11.1153 13.5091 11.1071 13.2932 11.0407 13.0921C10.9744 12.8909 10.8526 12.7125 10.6894 12.5775L10.3641 12.3084L10.8328 12.2719C11.0371 12.256 11.2332 12.1847 11.3999 12.0656C11.5666 11.9465 11.6976 11.7841 11.7787 11.5959L11.9972 11.0897L12.2156 11.5959C12.2968 11.7841 12.4278 11.9465 12.5945 12.0656C12.7612 12.1847 12.9573 12.256 13.1616 12.2719L13.6303 12.3084L13.305 12.5775Z" fill="#130032"/>
</svg>
