<svg width="24" height="24" viewBox="0 0 24 24" fill="none" xmlns="http://www.w3.org/2000/svg">
<path d="M5.3325 2.99344C5.22707 2.87741 5.09855 2.78469 4.95518 2.72125C4.81182 2.6578 4.65678 2.62502 4.5 2.625C4.00272 2.625 3.52581 2.82254 3.17417 3.17417C2.82254 3.52581 2.625 4.00272 2.625 4.5V19.5C2.625 19.9973 2.82254 20.4742 3.17417 20.8258C3.52581 21.1775 4.00272 21.375 4.5 21.375H19.5C19.7179 21.375 19.9311 21.3117 20.1138 21.1928C20.2964 21.0739 20.4405 20.9045 20.5287 20.7052C20.6169 20.5059 20.6453 20.2853 20.6104 20.0702C20.5756 19.8551 20.479 19.6547 20.3325 19.4934L5.3325 2.99344ZM4.875 19.125V5.835L16.9566 19.125H4.875ZM21.375 4.5V15.5006C21.375 15.799 21.2565 16.0851 21.0455 16.2961C20.8345 16.5071 20.5484 16.6256 20.25 16.6256C19.9516 16.6256 19.6655 16.5071 19.4545 16.2961C19.2435 16.0851 19.125 15.799 19.125 15.5006V9.375H13.6584C13.3601 9.375 13.0739 9.25647 12.8629 9.0455C12.652 8.83452 12.5334 8.54837 12.5334 8.25C12.5334 7.95163 12.652 7.66548 12.8629 7.4545C13.0739 7.24353 13.3601 7.125 13.6584 7.125H19.125V4.875H17.625C17.625 5.17337 17.5065 5.45952 17.2955 5.6705C17.0845 5.88147 16.7984 6 16.5 6C16.2016 6 15.9155 5.88147 15.7045 5.6705C15.4935 5.45952 15.375 5.17337 15.375 4.875H9.56812C9.26976 4.875 8.98361 4.75647 8.77263 4.5455C8.56165 4.33452 8.44312 4.04837 8.44312 3.75C8.44312 3.45163 8.56165 3.16548 8.77263 2.9545C8.98361 2.74353 9.26976 2.625 9.56812 2.625H15.375V2.25C15.375 1.95163 15.4935 1.66548 15.7045 1.4545C15.9155 1.24353 16.2016 1.125 16.5 1.125C16.7984 1.125 17.0845 1.24353 17.2955 1.4545C17.5065 1.66548 17.625 1.95163 17.625 2.25V2.625H19.5C19.9973 2.625 20.4742 2.82254 20.8258 3.17417C21.1775 3.52581 21.375 4.00272 21.375 4.5Z" fill="#130032"/>
</svg>
