<svg width="24" height="24" viewBox="0 0 24 24" fill="none" xmlns="http://www.w3.org/2000/svg">
<path d="M5.3325 2.99365C5.2337 2.88229 5.11379 2.79164 4.9797 2.72696C4.84561 2.66228 4.70002 2.62486 4.55136 2.61686C4.40271 2.60886 4.25394 2.63045 4.11369 2.68037C3.97344 2.73029 3.84448 2.80755 3.73431 2.90767C3.62414 3.0078 3.53493 3.12879 3.47187 3.26365C3.4088 3.3985 3.37312 3.54453 3.36691 3.69327C3.36069 3.84201 3.38406 3.99051 3.43566 4.13016C3.48726 4.2698 3.56606 4.39781 3.6675 4.50678L4.0425 4.91647C3.43527 5.02394 2.88526 5.34177 2.48893 5.81421C2.0926 6.28665 1.87525 6.88355 1.875 7.50022V18.0002C1.875 18.6964 2.15156 19.3641 2.64384 19.8564C3.13613 20.3487 3.80381 20.6252 4.5 20.6252H18.3206L18.6675 21.0068C18.8692 21.2235 19.1482 21.3519 19.444 21.3643C19.7397 21.3766 20.0285 21.2719 20.2475 21.0728C20.4666 20.8737 20.5984 20.5963 20.6143 20.3007C20.6302 20.0051 20.529 19.7151 20.3325 19.4937L5.3325 2.99365ZM9.95906 11.4312L12.75 14.4977C12.3322 14.6456 11.8801 14.6669 11.4503 14.5588C11.0205 14.4507 10.6321 14.2181 10.334 13.8902C10.0359 13.5623 9.84131 13.1536 9.7746 12.7154C9.7079 12.2773 9.77207 11.8292 9.95906 11.4274V11.4312ZM4.5 18.3752C4.40054 18.3752 4.30516 18.3357 4.23484 18.2654C4.16451 18.1951 4.125 18.0997 4.125 18.0002V7.50022C4.125 7.40076 4.16451 7.30538 4.23484 7.23505C4.30516 7.16472 4.40054 7.12522 4.5 7.12522H6.04781L8.38406 9.6949C7.76493 10.5321 7.45528 11.558 7.50787 12.5979C7.56046 13.6379 7.97205 14.6273 8.67248 15.3978C9.37291 16.1682 10.3188 16.6719 11.3491 16.823C12.3793 16.9741 13.43 16.7633 14.3222 16.2265L16.275 18.3752H4.5ZM22.125 7.50022V16.3258C22.125 16.6242 22.0065 16.9104 21.7955 17.1213C21.5845 17.3323 21.2984 17.4508 21 17.4508C20.7016 17.4508 20.4155 17.3323 20.2045 17.1213C19.9935 16.9104 19.875 16.6242 19.875 16.3258V7.50022C19.875 7.40076 19.8355 7.30538 19.7652 7.23505C19.6948 7.16472 19.5995 7.12522 19.5 7.12522H16.5C16.3146 7.12549 16.132 7.07993 15.9684 6.99259C15.8048 6.90525 15.6654 6.77883 15.5625 6.62459L14.3972 4.87522H9.56812C9.26976 4.87522 8.98361 4.75669 8.77263 4.54571C8.56165 4.33473 8.44312 4.04859 8.44312 3.75022C8.44312 3.45185 8.56165 3.1657 8.77263 2.95472C8.98361 2.74374 9.26976 2.62522 9.56812 2.62522H15C15.1854 2.62494 15.368 2.6705 15.5316 2.75784C15.6952 2.84518 15.8346 2.9716 15.9375 3.12584L17.1019 4.87522H19.5C19.8447 4.87522 20.1861 4.94311 20.5045 5.07503C20.823 5.20695 21.1124 5.40031 21.3562 5.64406C21.5999 5.88781 21.7933 6.17719 21.9252 6.49567C22.0571 6.81415 22.125 7.1555 22.125 7.50022Z" fill="#130032"/>
</svg>
