<svg width="24" height="24" viewBox="0 0 24 24" fill="none" xmlns="http://www.w3.org/2000/svg">
<path d="M16.125 12.75C16.125 13.0484 16.0065 13.3345 15.7955 13.5455C15.5845 13.7565 15.2984 13.875 15 13.875H13.125V15.75C13.125 16.0484 13.0065 16.3345 12.7955 16.5455C12.5845 16.7565 12.2984 16.875 12 16.875C11.7016 16.875 11.4155 16.7565 11.2045 16.5455C10.9935 16.3345 10.875 16.0484 10.875 15.75V13.875H9C8.70163 13.875 8.41548 13.7565 8.2045 13.5455C7.99353 13.3345 7.875 13.0484 7.875 12.75C7.875 12.4516 7.99353 12.1655 8.2045 11.9545C8.41548 11.7435 8.70163 11.625 9 11.625H10.875V9.75C10.875 9.45163 10.9935 9.16548 11.2045 8.9545C11.4155 8.74353 11.7016 8.625 12 8.625C12.2984 8.625 12.5845 8.74353 12.7955 8.9545C13.0065 9.16548 13.125 9.45163 13.125 9.75V11.625H15C15.2984 11.625 15.5845 11.7435 15.7955 11.9545C16.0065 12.1655 16.125 12.4516 16.125 12.75ZM22.125 7.5V18C22.125 18.3447 22.0571 18.6861 21.9252 19.0045C21.7933 19.323 21.5999 19.6124 21.3562 19.8562C21.1124 20.0999 20.823 20.2933 20.5045 20.4252C20.1861 20.5571 19.8447 20.625 19.5 20.625H4.5C3.80381 20.625 3.13613 20.3484 2.64384 19.8562C2.15156 19.3639 1.875 18.6962 1.875 18V7.5C1.875 6.80381 2.15156 6.13613 2.64384 5.64384C3.13613 5.15156 3.80381 4.875 4.5 4.875H6.89813L7.84125 3.46031C8.01242 3.20342 8.24437 2.99277 8.51651 2.84705C8.78865 2.70133 9.09255 2.62506 9.40125 2.625H14.5988C14.9074 2.62506 15.2114 2.70133 15.4835 2.84705C15.7556 2.99277 15.9876 3.20342 16.1588 3.46031L17.1019 4.875H19.5C19.8447 4.875 20.1861 4.9429 20.5045 5.07482C20.823 5.20673 21.1124 5.40009 21.3562 5.64384C21.5999 5.8876 21.7933 6.17698 21.9252 6.49546C22.0571 6.81394 22.125 7.15528 22.125 7.5ZM19.875 7.5C19.875 7.40054 19.8355 7.30516 19.7652 7.23483C19.6948 7.16451 19.5995 7.125 19.5 7.125H16.5C16.3146 7.12527 16.132 7.07972 15.9684 6.99237C15.8048 6.90503 15.6654 6.77862 15.5625 6.62438L14.3981 4.875H9.60187L8.4375 6.62438C8.33459 6.77862 8.19516 6.90503 8.03159 6.99237C7.86803 7.07972 7.68542 7.12527 7.5 7.125H4.5C4.40054 7.125 4.30516 7.16451 4.23484 7.23483C4.16451 7.30516 4.125 7.40054 4.125 7.5V18C4.125 18.0995 4.16451 18.1948 4.23484 18.2652C4.30516 18.3355 4.40054 18.375 4.5 18.375H19.5C19.5995 18.375 19.6948 18.3355 19.7652 18.2652C19.8355 18.1948 19.875 18.0995 19.875 18V7.5Z" fill="#130032"/>
</svg>
