<svg width="24" height="24" viewBox="0 0 24 24" fill="none" xmlns="http://www.w3.org/2000/svg">
<path d="M21.3291 21.3192C21.2603 21.552 21.1181 21.7564 20.9236 21.9017C20.7291 22.047 20.4928 22.1255 20.2501 22.1254C20.1422 22.1253 20.0349 22.1098 19.9313 22.0795L12.0001 19.7358L4.06882 22.0795C3.96528 22.1098 3.85796 22.1253 3.75007 22.1254C3.4795 22.1256 3.21795 22.0282 3.01336 21.8512C2.80876 21.6741 2.67482 21.4292 2.6361 21.1615C2.59737 20.8937 2.65645 20.6209 2.8025 20.3932C2.94856 20.1654 3.1718 19.9979 3.43132 19.9214L8.02976 18.5629L3.43132 17.2045C3.15516 17.1118 2.92572 16.9156 2.79127 16.6572C2.65681 16.3988 2.62783 16.0984 2.71042 15.819C2.79301 15.5397 2.98072 15.3033 3.23408 15.1595C3.48743 15.0158 3.78666 14.9759 4.06882 15.0483L12.0001 17.392L19.9313 15.0483C20.0746 15.0002 20.2262 14.9814 20.3769 14.9932C20.5276 15.005 20.6744 15.047 20.8085 15.1168C20.9426 15.1866 21.0613 15.2827 21.1574 15.3994C21.2536 15.516 21.3252 15.6509 21.3681 15.7958C21.411 15.9408 21.4242 16.0929 21.4069 16.2431C21.3897 16.3933 21.3423 16.5385 21.2677 16.67C21.1931 16.8015 21.0928 16.9166 20.9727 17.0084C20.8526 17.1002 20.7153 17.1669 20.5688 17.2045L15.9704 18.5629L20.5688 19.9214C20.7105 19.9632 20.8426 20.0326 20.9575 20.1255C21.0724 20.2184 21.1679 20.333 21.2385 20.4628C21.3091 20.5926 21.3535 20.735 21.369 20.882C21.3846 21.0289 21.371 21.1775 21.3291 21.3192ZM6.00007 9.75045C6.00007 5.00764 11.2435 2.13045 11.4666 2.00951C11.6306 1.92122 11.8139 1.875 12.0001 1.875C12.1863 1.875 12.3696 1.92122 12.5335 2.00951C12.7566 2.13045 18.0001 5.00764 18.0001 9.75045C18.0001 11.3417 17.3679 12.8679 16.2427 13.9931C15.1175 15.1183 13.5914 15.7504 12.0001 15.7504C10.4088 15.7504 8.88265 15.1183 7.75743 13.9931C6.63221 12.8679 6.00007 11.3417 6.00007 9.75045ZM12.0001 13.5004C12.2984 13.5004 12.5846 13.3819 12.7956 13.1709C13.0065 12.96 13.1251 12.6738 13.1251 12.3754C13.1251 11.7689 12.871 11.1989 12.3751 10.6814C12.2575 10.5618 12.1322 10.45 12.0001 10.3467C11.8681 10.4503 11.7429 10.562 11.6251 10.6814C11.1254 11.1989 10.8751 11.7689 10.8751 12.3754C10.8751 12.6738 10.9936 12.96 11.2046 13.1709C11.4156 13.3819 11.7017 13.5004 12.0001 13.5004ZM8.25007 9.75045C8.24937 10.3754 8.40572 10.9905 8.70476 11.5392C9.15569 9.19545 11.3916 8.04701 11.4966 7.99451C11.6529 7.9163 11.8253 7.87558 12.0001 7.87558C12.1748 7.87558 12.3472 7.9163 12.5035 7.99451C12.6085 8.04701 14.8473 9.19264 15.2954 11.5392C15.5944 10.9905 15.7508 10.3754 15.7501 9.75045C15.7501 7.09357 13.1494 5.08076 12.0001 4.32045C10.8516 5.07982 8.25007 7.09357 8.25007 9.75045Z" fill="#130032"/>
</svg>
