<svg width="24" height="24" viewBox="0 0 24 24" fill="none" xmlns="http://www.w3.org/2000/svg">
<path d="M18.75 13.125C18.75 13.4234 18.6315 13.7095 18.4205 13.9205C18.2095 14.1315 17.9234 14.25 17.625 14.25H17.25V14.625C17.25 14.9234 17.1315 15.2095 16.9205 15.4205C16.7095 15.6315 16.4234 15.75 16.125 15.75C15.8266 15.75 15.5405 15.6315 15.3295 15.4205C15.1185 15.2095 15 14.9234 15 14.625V14.25H14.625C14.3266 14.25 14.0405 14.1315 13.8295 13.9205C13.6185 13.7095 13.5 13.4234 13.5 13.125C13.5 12.8266 13.6185 12.5405 13.8295 12.3295C14.0405 12.1185 14.3266 12 14.625 12H15V11.625C15 11.3266 15.1185 11.0405 15.3295 10.8295C15.5405 10.6185 15.8266 10.5 16.125 10.5C16.4234 10.5 16.7095 10.6185 16.9205 10.8295C17.1315 11.0405 17.25 11.3266 17.25 11.625V12H17.625C17.9234 12 18.2095 12.1185 18.4205 12.3295C18.6315 12.5405 18.75 12.8266 18.75 13.125ZM9.375 12H6.375C6.07663 12 5.79048 12.1185 5.5795 12.3295C5.36853 12.5405 5.25 12.8266 5.25 13.125C5.25 13.4234 5.36853 13.7095 5.5795 13.9205C5.79048 14.1315 6.07663 14.25 6.375 14.25H9.375C9.67337 14.25 9.95952 14.1315 10.1705 13.9205C10.3815 13.7095 10.5 13.4234 10.5 13.125C10.5 12.8266 10.3815 12.5405 10.1705 12.3295C9.95952 12.1185 9.67337 12 9.375 12ZM22.875 8.625V17.25C22.875 17.7473 22.6775 18.2242 22.3258 18.5758C21.9742 18.9275 21.4973 19.125 21 19.125H3C2.50272 19.125 2.02581 18.9275 1.67417 18.5758C1.32254 18.2242 1.125 17.7473 1.125 17.25V8.625C1.125 8.12772 1.32254 7.65081 1.67417 7.29917C2.02581 6.94754 2.50272 6.75 3 6.75H4.125V5.25C4.125 4.75272 4.32254 4.27581 4.67417 3.92417C5.02581 3.57254 5.50272 3.375 6 3.375H9C9.49728 3.375 9.97419 3.57254 10.3258 3.92417C10.6775 4.27581 10.875 4.75272 10.875 5.25V6.75H13.125V5.25C13.125 4.75272 13.3225 4.27581 13.6742 3.92417C14.0258 3.57254 14.5027 3.375 15 3.375H18C18.4973 3.375 18.9742 3.57254 19.3258 3.92417C19.6775 4.27581 19.875 4.75272 19.875 5.25V6.75H21C21.4973 6.75 21.9742 6.94754 22.3258 7.29917C22.6775 7.65081 22.875 8.12772 22.875 8.625ZM15.375 6.75H17.625V5.625H15.375V6.75ZM6.375 6.75H8.625V5.625H6.375V6.75ZM20.625 9H3.375V16.875H20.625V9Z" fill="#130032"/>
</svg>
