<svg width="24" height="24" viewBox="0 0 24 24" fill="none" xmlns="http://www.w3.org/2000/svg">
<path d="M16.875 6.75H3.375C2.87772 6.75 2.40081 6.94754 2.04917 7.29917C1.69754 7.65081 1.5 8.12772 1.5 8.625V19.125C1.5 19.6223 1.69754 20.0992 2.04917 20.4508C2.40081 20.8025 2.87772 21 3.375 21H16.875C17.3723 21 17.8492 20.8025 18.2008 20.4508C18.5525 20.0992 18.75 19.6223 18.75 19.125V8.625C18.75 8.12772 18.5525 7.65081 18.2008 7.29917C17.8492 6.94754 17.3723 6.75 16.875 6.75ZM16.5 18.75H3.75V9H16.5V18.75ZM22.5 4.875V16.5C22.5 16.7984 22.3815 17.0845 22.1705 17.2955C21.9595 17.5065 21.6734 17.625 21.375 17.625C21.0766 17.625 20.7905 17.5065 20.5795 17.2955C20.3685 17.0845 20.25 16.7984 20.25 16.5V5.25H6C5.70163 5.25 5.41548 5.13147 5.2045 4.9205C4.99353 4.70952 4.875 4.42337 4.875 4.125C4.875 3.82663 4.99353 3.54048 5.2045 3.3295C5.41548 3.11853 5.70163 3 6 3H20.625C21.1223 3 21.5992 3.19754 21.9508 3.54917C22.3025 3.90081 22.5 4.37772 22.5 4.875Z" fill="#130032"/>
</svg>
