<svg width="24" height="24" viewBox="0 0 24 24" fill="none" xmlns="http://www.w3.org/2000/svg">
<path d="M19.5 4.125H4.5C3.80381 4.125 3.13613 4.40156 2.64384 4.89384C2.15156 5.38613 1.875 6.05381 1.875 6.75V17.25C1.875 17.9462 2.15156 18.6139 2.64384 19.1062C3.13613 19.5984 3.80381 19.875 4.5 19.875H19.5C19.8447 19.875 20.1861 19.8071 20.5045 19.6752C20.823 19.5433 21.1124 19.3499 21.3562 19.1062C21.5999 18.8624 21.7933 18.573 21.9252 18.2545C22.0571 17.9361 22.125 17.5947 22.125 17.25V6.75C22.125 6.40528 22.0571 6.06394 21.9252 5.74546C21.7933 5.42698 21.5999 5.1376 21.3562 4.89384C21.1124 4.65009 20.823 4.45673 20.5045 4.32482C20.1861 4.1929 19.8447 4.125 19.5 4.125ZM4.5 6.375H19.5C19.5995 6.375 19.6948 6.41451 19.7652 6.48483C19.8355 6.55516 19.875 6.65054 19.875 6.75V8.25H15C14.7016 8.25 14.4155 8.36853 14.2045 8.5795C13.9935 8.79048 13.875 9.07663 13.875 9.375C13.875 9.87228 13.6775 10.3492 13.3258 10.7008C12.9742 11.0525 12.4973 11.25 12 11.25C11.5027 11.25 11.0258 11.0525 10.6742 10.7008C10.3225 10.3492 10.125 9.87228 10.125 9.375C10.125 9.07663 10.0065 8.79048 9.7955 8.5795C9.58452 8.36853 9.29837 8.25 9 8.25H4.125V6.75C4.125 6.65054 4.16451 6.55516 4.23484 6.48483C4.30516 6.41451 4.40054 6.375 4.5 6.375ZM19.5 17.625H4.5C4.40054 17.625 4.30516 17.5855 4.23484 17.5152C4.16451 17.4448 4.125 17.3495 4.125 17.25V10.5H8.03063C8.27505 11.3644 8.79499 12.1255 9.51144 12.6674C10.2279 13.2094 11.1017 13.5026 12 13.5026C12.8983 13.5026 13.7721 13.2094 14.4886 12.6674C15.205 12.1255 15.7249 11.3644 15.9694 10.5H19.875V17.25C19.875 17.3495 19.8355 17.4448 19.7652 17.5152C19.6948 17.5855 19.5995 17.625 19.5 17.625Z" fill="#130032"/>
</svg>
