<svg width="24" height="24" viewBox="0 0 24 24" fill="none" xmlns="http://www.w3.org/2000/svg">
<path d="M17.2959 15.7049C17.4008 15.8095 17.484 15.9337 17.5408 16.0704C17.5976 16.2071 17.6268 16.3538 17.6268 16.5018C17.6268 16.6499 17.5976 16.7965 17.5408 16.9332C17.484 17.07 17.4008 17.1942 17.2959 17.2987L12.7959 21.7987C12.6914 21.9036 12.5672 21.9868 12.4304 22.0436C12.2937 22.1004 12.1471 22.1296 11.999 22.1296C11.851 22.1296 11.7043 22.1004 11.5676 22.0436C11.4309 21.9868 11.3067 21.9036 11.2021 21.7987L6.70215 17.2987C6.4908 17.0874 6.37207 16.8007 6.37207 16.5018C6.37207 16.2029 6.4908 15.9163 6.70215 15.7049C6.91349 15.4936 7.20014 15.3749 7.49902 15.3749C7.79791 15.3749 8.08455 15.4936 8.2959 15.7049L12 19.4071L15.704 15.7021C15.8087 15.5977 15.9329 15.515 16.0696 15.4586C16.2063 15.4022 16.3527 15.3733 16.5005 15.3736C16.6484 15.3739 16.7947 15.4033 16.9312 15.4601C17.0677 15.517 17.1916 15.6002 17.2959 15.7049ZM8.2959 8.2987L12 4.59464L15.704 8.29964C15.9154 8.51098 16.202 8.62971 16.5009 8.62971C16.7998 8.62971 17.0864 8.51098 17.2978 8.29964C17.5091 8.08829 17.6278 7.80165 17.6278 7.50276C17.6278 7.20388 17.5091 6.91723 17.2978 6.70589L12.7978 2.20589C12.6933 2.10101 12.5691 2.01779 12.4323 1.96101C12.2956 1.90423 12.149 1.875 12.0009 1.875C11.8528 1.875 11.7062 1.90423 11.5695 1.96101C11.4327 2.01779 11.3085 2.10101 11.204 2.20589L6.70402 6.70589C6.49268 6.91723 6.37394 7.20388 6.37394 7.50276C6.37394 7.80165 6.49268 8.08829 6.70402 8.29964C6.91537 8.51098 7.20201 8.62971 7.5009 8.62971C7.79978 8.62971 8.08643 8.51098 8.29777 8.29964L8.2959 8.2987Z" fill="#130032"/>
</svg>
