<svg width="24" height="24" viewBox="0 0 24 24" fill="none" xmlns="http://www.w3.org/2000/svg">
<path d="M18.7959 18.7031C19.0073 18.9145 19.126 19.2011 19.126 19.5C19.126 19.7989 19.0073 20.0855 18.7959 20.2969C18.5846 20.5082 18.2979 20.627 17.9991 20.627C17.7002 20.627 17.4135 20.5082 17.2022 20.2969L9.70219 12.7969C9.59731 12.6924 9.51409 12.5682 9.45731 12.4314C9.40053 12.2947 9.3713 12.1481 9.3713 12C9.3713 11.8519 9.40053 11.7053 9.45731 11.5686C9.51409 11.4318 9.59731 11.3076 9.70219 11.2031L17.2022 3.70312C17.4135 3.49178 17.7002 3.37305 17.9991 3.37305C18.2979 3.37305 18.5846 3.49178 18.7959 3.70312C19.0073 3.91447 19.126 4.20111 19.126 4.5C19.126 4.79888 19.0073 5.08553 18.7959 5.29687L12.0938 11.9991L18.7959 18.7031ZM6.75 3.37406C6.45163 3.37406 6.16548 3.49259 5.9545 3.70357C5.74353 3.91454 5.625 4.20069 5.625 4.49906V19.4991C5.625 19.7974 5.74353 20.0836 5.9545 20.2946C6.16548 20.5055 6.45163 20.6241 6.75 20.6241C7.04837 20.6241 7.33452 20.5055 7.5455 20.2946C7.75647 20.0836 7.875 19.7974 7.875 19.4991V4.49906C7.875 4.20069 7.75647 3.91454 7.5455 3.70357C7.33452 3.49259 7.04837 3.37406 6.75 3.37406Z" fill="#130032"/>
</svg>
