<svg width="24" height="24" viewBox="0 0 24 24" fill="none" xmlns="http://www.w3.org/2000/svg">
<path d="M19.5458 18.705C19.7572 18.9163 19.8759 19.203 19.8759 19.5019C19.8759 19.8008 19.7572 20.0874 19.5458 20.2987C19.3345 20.5101 19.0479 20.6288 18.749 20.6288C18.4501 20.6288 18.1634 20.5101 17.9521 20.2987L10.4521 12.7987C10.3472 12.6942 10.264 12.57 10.2072 12.4333C10.1504 12.2965 10.1212 12.1499 10.1212 12.0019C10.1212 11.8538 10.1504 11.7072 10.2072 11.5705C10.264 11.4337 10.3472 11.3095 10.4521 11.205L17.9521 3.705C18.1634 3.49365 18.4501 3.37492 18.749 3.37492C19.0479 3.37492 19.3345 3.49365 19.5458 3.705C19.7572 3.91634 19.8759 4.20299 19.8759 4.50187C19.8759 4.80076 19.7572 5.0874 19.5458 5.29875L12.8437 12.0009L19.5458 18.705ZM5.34366 12.0009L12.0487 5.29687C12.26 5.08553 12.3787 4.79888 12.3787 4.5C12.3787 4.20111 12.26 3.91447 12.0487 3.70312C11.8373 3.49178 11.5507 3.37305 11.2518 3.37305C10.9529 3.37305 10.6663 3.49178 10.4549 3.70312L2.95491 11.2031C2.85003 11.3076 2.76681 11.4318 2.71003 11.5686C2.65325 11.7053 2.62402 11.8519 2.62402 12C2.62402 12.1481 2.65325 12.2947 2.71003 12.4314C2.76681 12.5682 2.85003 12.6924 2.95491 12.7969L10.4549 20.2969C10.5596 20.4015 10.6838 20.4845 10.8205 20.5412C10.9572 20.5978 11.1038 20.6269 11.2518 20.6269C11.3998 20.6269 11.5463 20.5978 11.6831 20.5412C11.8198 20.4845 11.944 20.4015 12.0487 20.2969C12.1533 20.1922 12.2363 20.068 12.293 19.9313C12.3496 19.7945 12.3787 19.648 12.3787 19.5C12.3787 19.352 12.3496 19.2055 12.293 19.0687C12.2363 18.932 12.1533 18.8078 12.0487 18.7031L5.34366 12.0009Z" fill="#130032"/>
</svg>
