<svg width="24" height="24" viewBox="0 0 24 24" fill="none" xmlns="http://www.w3.org/2000/svg">
<path d="M19.1623 4.8375C17.7459 3.42236 15.9418 2.4589 13.978 2.06892C12.0142 1.67895 9.9788 1.87996 8.1292 2.64655C6.2796 3.41314 4.6988 4.71089 3.58663 6.37575C2.47446 8.04061 1.88086 9.99783 1.88086 12C1.88086 14.0022 2.47446 15.9594 3.58663 17.6243C4.6988 19.2891 6.2796 20.5869 8.1292 21.3535C9.9788 22.12 12.0142 22.3211 13.978 21.9311C15.9418 21.5411 17.7459 20.5776 19.1623 19.1625C21.0593 17.2615 22.1247 14.6856 22.1247 12C22.1247 9.31441 21.0593 6.7385 19.1623 4.8375ZM17.5685 17.5706C16.4669 18.6714 15.0637 19.4208 13.5363 19.7241C12.0089 20.0275 10.4258 19.8712 8.98717 19.275C7.54856 18.6787 6.31901 17.6694 5.45397 16.3745C4.58892 15.0796 4.12721 13.5573 4.12721 12C4.12721 10.4427 4.58892 8.92043 5.45397 7.62552C6.31901 6.33062 7.54856 5.32126 8.98717 4.72504C10.4258 4.12882 12.0089 3.97251 13.5363 4.27587C15.0637 4.57924 16.4669 5.32865 17.5685 6.42938C19.0442 7.90762 19.8731 9.91089 19.8735 11.9996C19.8738 14.0883 19.0456 16.0919 17.5704 17.5706H17.5685ZM15.7966 7.45219C15.9015 7.55671 15.9847 7.6809 16.0415 7.81765C16.0983 7.95439 16.1275 8.101 16.1275 8.24907C16.1275 8.39713 16.0983 8.54374 16.0415 8.68049C15.9847 8.81723 15.9015 8.94142 15.7966 9.04594L12.7966 12.0459C12.6921 12.1508 12.5679 12.234 12.4312 12.2908C12.2944 12.3476 12.1478 12.3768 11.9998 12.3768C11.8517 12.3768 11.7051 12.3476 11.5683 12.2908C11.4316 12.234 11.3074 12.1508 11.2029 12.0459L8.20289 9.04594C8.09825 8.94129 8.01524 8.81706 7.9586 8.68033C7.90197 8.5436 7.87282 8.39706 7.87282 8.24907C7.87282 8.10107 7.90197 7.95453 7.9586 7.8178C8.01524 7.68107 8.09825 7.55684 8.20289 7.45219C8.30754 7.34754 8.43178 7.26453 8.5685 7.2079C8.70523 7.15126 8.85178 7.12212 8.99977 7.12212C9.14776 7.12212 9.29431 7.15126 9.43104 7.2079C9.56776 7.26453 9.692 7.34754 9.79664 7.45219L11.9998 9.65625L14.2057 7.45032C14.4169 7.2396 14.7032 7.12142 15.0016 7.12178C15.2999 7.12213 15.5859 7.24098 15.7966 7.45219ZM15.7966 12.7022C15.9015 12.8067 15.9847 12.9309 16.0415 13.0676C16.0983 13.2044 16.1275 13.351 16.1275 13.4991C16.1275 13.6471 16.0983 13.7937 16.0415 13.9305C15.9847 14.0672 15.9015 14.1914 15.7966 14.2959L12.7966 17.2959C12.6921 17.4008 12.5679 17.484 12.4312 17.5408C12.2944 17.5976 12.1478 17.6268 11.9998 17.6268C11.8517 17.6268 11.7051 17.5976 11.5683 17.5408C11.4316 17.484 11.3074 17.4008 11.2029 17.2959L8.20289 14.2959C8.09825 14.1913 8.01524 14.0671 7.9586 13.9303C7.90197 13.7936 7.87282 13.6471 7.87282 13.4991C7.87282 13.3511 7.90197 13.2045 7.9586 13.0678C8.01524 12.9311 8.09825 12.8068 8.20289 12.7022C8.30754 12.5975 8.43178 12.5145 8.5685 12.4579C8.70523 12.4013 8.85178 12.3721 8.99977 12.3721C9.14776 12.3721 9.29431 12.4013 9.43104 12.4579C9.56776 12.5145 9.692 12.5975 9.79664 12.7022L11.9998 14.9063L14.2057 12.7013C14.4172 12.4908 14.7036 12.3729 15.002 12.3736C15.3003 12.3744 15.5862 12.4935 15.7966 12.705V12.7022Z" fill="#130032"/>
</svg>
