<svg width="24" height="24" viewBox="0 0 24 24" fill="none" xmlns="http://www.w3.org/2000/svg">
<path d="M20.2959 11.9531C20.4008 12.0576 20.484 12.1818 20.5408 12.3186C20.5976 12.4553 20.6268 12.6019 20.6268 12.75C20.6268 12.8981 20.5976 13.0447 20.5408 13.1814C20.484 13.3182 20.4008 13.4424 20.2959 13.5469L12.7959 21.0469C12.6914 21.1518 12.5672 21.235 12.4304 21.2918C12.2937 21.3485 12.1471 21.3778 11.999 21.3778C11.851 21.3778 11.7043 21.3485 11.5676 21.2918C11.4309 21.235 11.3067 21.1518 11.2021 21.0469L3.70215 13.5469C3.5975 13.4422 3.51449 13.318 3.45785 13.1813C3.40122 13.0445 3.37207 12.898 3.37207 12.75C3.37207 12.602 3.40122 12.4555 3.45785 12.3187C3.51449 12.182 3.5975 12.0578 3.70215 11.9531C3.80679 11.8485 3.93103 11.7655 4.06776 11.7088C4.20448 11.6522 4.35103 11.623 4.49902 11.623C4.64702 11.623 4.79356 11.6522 4.93029 11.7088C5.06702 11.7655 5.19125 11.8485 5.2959 11.9531L12 18.6553L18.704 11.9503C18.8087 11.8459 18.9329 11.7631 19.0696 11.7068C19.2063 11.6504 19.3527 11.6215 19.5005 11.6218C19.6484 11.622 19.7947 11.6514 19.9312 11.7083C20.0677 11.7651 20.1916 11.8483 20.2959 11.9531ZM11.2021 13.5469C11.3067 13.6518 11.4309 13.735 11.5676 13.7918C11.7043 13.8485 11.851 13.8778 11.999 13.8778C12.1471 13.8778 12.2937 13.8485 12.4304 13.7918C12.5672 13.735 12.6914 13.6518 12.7959 13.5469L20.2959 6.04687C20.4005 5.94223 20.4836 5.81799 20.5402 5.68126C20.5968 5.54454 20.626 5.39799 20.626 5.25C20.626 5.102 20.5968 4.95546 20.5402 4.81873C20.4836 4.682 20.4005 4.55777 20.2959 4.45312C20.1912 4.34848 20.067 4.26547 19.9303 4.20883C19.7936 4.1522 19.647 4.12305 19.499 4.12305C19.351 4.12305 19.2045 4.1522 19.0678 4.20883C18.931 4.26547 18.8068 4.34848 18.7021 4.45312L12 11.1553L5.2959 4.45312C5.08455 4.24178 4.79791 4.12305 4.49902 4.12305C4.20014 4.12305 3.91349 4.24178 3.70215 4.45312C3.4908 4.66447 3.37207 4.95111 3.37207 5.25C3.37207 5.54888 3.4908 5.83553 3.70215 6.04687L11.2021 13.5469Z" fill="#130032"/>
</svg>
