<svg width="24" height="24" viewBox="0 0 24 24" fill="none" xmlns="http://www.w3.org/2000/svg">
<path d="M13.5459 12.7969L6.0459 20.2969C5.94125 20.4015 5.81702 20.4845 5.68029 20.5412C5.54356 20.5978 5.39702 20.6269 5.24902 20.6269C5.10103 20.6269 4.95448 20.5978 4.81776 20.5412C4.68103 20.4845 4.55679 20.4015 4.45215 20.2969C4.3475 20.1922 4.26449 20.068 4.20785 19.9313C4.15122 19.7945 4.12207 19.648 4.12207 19.5C4.12207 19.352 4.15122 19.2055 4.20785 19.0687C4.26449 18.932 4.3475 18.8078 4.45215 18.7031L11.1562 12.0009L4.45402 5.29687C4.24268 5.08553 4.12395 4.79888 4.12395 4.5C4.12395 4.20111 4.24268 3.91447 4.45402 3.70312C4.66537 3.49178 4.95201 3.37305 5.2509 3.37305C5.54978 3.37305 5.83643 3.49178 6.04777 3.70312L13.5478 11.2031C13.6525 11.3078 13.7356 11.4321 13.7922 11.5689C13.8488 11.7057 13.8779 11.8523 13.8777 12.0004C13.8775 12.1485 13.8481 12.295 13.7912 12.4317C13.7343 12.5684 13.6509 12.6925 13.5459 12.7969ZM21.0459 11.2031L13.5459 3.70312C13.4412 3.59848 13.317 3.51547 13.1803 3.45883C13.0436 3.4022 12.897 3.37305 12.749 3.37305C12.601 3.37305 12.4545 3.4022 12.3178 3.45883C12.181 3.51547 12.0568 3.59848 11.9521 3.70312C11.8475 3.80777 11.7645 3.932 11.7079 4.06873C11.6512 4.20546 11.6221 4.35201 11.6221 4.5C11.6221 4.64799 11.6512 4.79454 11.7079 4.93126C11.7645 5.06799 11.8475 5.19223 11.9521 5.29687L18.6562 12.0009L11.9512 18.705C11.7399 18.9163 11.6211 19.203 11.6211 19.5019C11.6211 19.8008 11.7399 20.0874 11.9512 20.2987C12.1626 20.5101 12.4492 20.6288 12.7481 20.6288C13.047 20.6288 13.3336 20.5101 13.545 20.2987L21.045 12.7987C21.1499 12.6943 21.2332 12.5702 21.2901 12.4334C21.3469 12.2967 21.3762 12.1501 21.3763 12.0021C21.3764 11.854 21.3473 11.7074 21.2906 11.5706C21.2339 11.4338 21.1507 11.3096 21.0459 11.205V11.2031Z" fill="#130032"/>
</svg>
