<svg width="24" height="24" viewBox="0 0 24 24" fill="none" xmlns="http://www.w3.org/2000/svg">
<path d="M20.2959 17.9549C20.5072 18.1663 20.626 18.4529 20.626 18.7518C20.626 19.0507 20.5072 19.3374 20.2959 19.5487C20.0846 19.76 19.7979 19.8788 19.499 19.8788C19.2001 19.8788 18.9135 19.76 18.7021 19.5487L12 12.8446L5.2959 19.5468C5.08455 19.7582 4.79791 19.8769 4.49902 19.8769C4.20014 19.8769 3.91349 19.7582 3.70215 19.5468C3.4908 19.3355 3.37207 19.0488 3.37207 18.75C3.37207 18.4511 3.4908 18.1644 3.70215 17.9531L11.2021 10.4531C11.3067 10.3482 11.4309 10.265 11.5676 10.2082C11.7043 10.1514 11.851 10.1222 11.999 10.1222C12.1471 10.1222 12.2937 10.1514 12.4304 10.2082C12.5672 10.265 12.6914 10.3482 12.7959 10.4531L20.2959 17.9549ZM5.2959 12.0487L12 5.34464L18.704 12.0496C18.9154 12.261 19.202 12.3797 19.5009 12.3797C19.7998 12.3797 20.0864 12.261 20.2978 12.0496C20.5091 11.8383 20.6278 11.5516 20.6278 11.2528C20.6278 10.9539 20.5091 10.6672 20.2978 10.4559L12.7978 2.95589C12.6933 2.85101 12.5691 2.76779 12.4323 2.71101C12.2956 2.65423 12.149 2.625 12.0009 2.625C11.8528 2.625 11.7062 2.65423 11.5695 2.71101C11.4327 2.76779 11.3085 2.85101 11.204 2.95589L3.70402 10.4559C3.49268 10.6672 3.37395 10.9539 3.37395 11.2528C3.37395 11.5516 3.49268 11.8383 3.70402 12.0496C3.91537 12.261 4.20201 12.3797 4.5009 12.3797C4.79978 12.3797 5.08643 12.261 5.29777 12.0496L5.2959 12.0487Z" fill="#130032"/>
</svg>
