<svg width="24" height="24" viewBox="0 0 24 24" fill="none" xmlns="http://www.w3.org/2000/svg">
<path d="M3.7041 7.54586C3.49276 7.33451 3.37402 7.04787 3.37402 6.74898C3.37402 6.4501 3.49276 6.16345 3.7041 5.95211C3.91544 5.74076 4.20209 5.62203 4.50097 5.62203C4.79986 5.62203 5.08651 5.74076 5.29785 5.95211L12 12.6562L18.7041 5.95117C18.9154 5.73983 19.2021 5.62109 19.501 5.62109C19.7999 5.62109 20.0865 5.73983 20.2978 5.95117C20.5092 6.16251 20.6279 6.44916 20.6279 6.74805C20.6279 7.04693 20.5092 7.33358 20.2978 7.54492L12.7978 15.0449C12.6933 15.1498 12.5691 15.233 12.4324 15.2898C12.2956 15.3466 12.149 15.3758 12.001 15.3758C11.8529 15.3758 11.7063 15.3466 11.5696 15.2898C11.4328 15.233 11.3086 15.1498 11.2041 15.0449L3.7041 7.54586ZM19.5 16.8749H4.50004C4.20167 16.8749 3.91552 16.9934 3.70454 17.2044C3.49356 17.4154 3.37504 17.7016 3.37504 17.9999C3.37504 18.2983 3.49356 18.5844 3.70454 18.7954C3.91552 19.0064 4.20167 19.1249 4.50004 19.1249H19.5C19.7984 19.1249 20.0846 19.0064 20.2955 18.7954C20.5065 18.5844 20.625 18.2983 20.625 17.9999C20.625 17.7016 20.5065 17.4154 20.2955 17.2044C20.0846 16.9934 19.7984 16.8749 19.5 16.8749Z" fill="#130032"/>
</svg>
