<svg width="24" height="24" viewBox="0 0 24 24" fill="none" xmlns="http://www.w3.org/2000/svg">
<path d="M20.2959 17.2041C20.5072 17.4154 20.626 17.7021 20.626 18.0009C20.626 18.2998 20.5072 18.5865 20.2959 18.7978C20.0846 19.0092 19.7979 19.1279 19.499 19.1279C19.2001 19.1279 18.9135 19.0092 18.7021 18.7978L12 12.0938L5.2959 18.7959C5.08455 19.0073 4.79791 19.126 4.49902 19.126C4.20014 19.126 3.91349 19.0073 3.70215 18.7959C3.4908 18.5846 3.37207 18.2979 3.37207 17.9991C3.37207 17.7002 3.4908 17.4135 3.70215 17.2022L11.2021 9.70219C11.3067 9.59731 11.4309 9.51409 11.5676 9.45731C11.7043 9.40053 11.851 9.3713 11.999 9.3713C12.1471 9.3713 12.2937 9.40053 12.4304 9.45731C12.5672 9.51409 12.6914 9.59731 12.7959 9.70219L20.2959 17.2041ZM4.49996 7.875H19.5C19.7983 7.875 20.0845 7.75647 20.2955 7.5455C20.5064 7.33452 20.625 7.04837 20.625 6.75C20.625 6.45163 20.5064 6.16548 20.2955 5.9545C20.0845 5.74353 19.7983 5.625 19.5 5.625H4.49996C4.20159 5.625 3.91544 5.74353 3.70446 5.9545C3.49349 6.16548 3.37496 6.45163 3.37496 6.75C3.37496 7.04837 3.49349 7.33452 3.70446 7.5455C3.91544 7.75647 4.20159 7.875 4.49996 7.875Z" fill="#130032"/>
</svg>
