<svg width="24" height="24" viewBox="0 0 24 24" fill="none" xmlns="http://www.w3.org/2000/svg">
<path d="M19.1623 4.8375C17.7459 3.42236 15.9418 2.4589 13.978 2.06892C12.0142 1.67895 9.9788 1.87996 8.1292 2.64655C6.2796 3.41314 4.6988 4.71089 3.58663 6.37575C2.47446 8.04061 1.88086 9.99783 1.88086 12C1.88086 14.0022 2.47446 15.9594 3.58663 17.6243C4.6988 19.2891 6.2796 20.5869 8.1292 21.3535C9.9788 22.12 12.0142 22.3211 13.978 21.9311C15.9418 21.5411 17.7459 20.5776 19.1623 19.1625C21.0593 17.2615 22.1247 14.6856 22.1247 12C22.1247 9.31441 21.0593 6.7385 19.1623 4.8375ZM17.5685 17.5706C16.4669 18.6714 15.0637 19.4208 13.5363 19.7241C12.0089 20.0275 10.4258 19.8712 8.98717 19.275C7.54856 18.6787 6.31901 17.6694 5.45397 16.3745C4.58892 15.0796 4.12721 13.5573 4.12721 12C4.12721 10.4427 4.58892 8.92043 5.45397 7.62552C6.31901 6.33062 7.54856 5.32126 8.98717 4.72504C10.4258 4.12882 12.0089 3.97251 13.5363 4.27587C15.0637 4.57924 16.4669 5.32865 17.5685 6.42938C19.0442 7.90762 19.8731 9.91089 19.8735 11.9996C19.8738 14.0883 19.0456 16.0919 17.5704 17.5706H17.5685ZM15.7966 14.9559C16.008 15.1673 16.1267 15.4539 16.1267 15.7528C16.1267 16.0517 16.008 16.3383 15.7966 16.5497C15.5853 16.761 15.2987 16.8798 14.9998 16.8798C14.7009 16.8798 14.4142 16.761 14.2029 16.5497L11.9998 14.3438L9.79383 16.5497C9.58249 16.761 9.29584 16.8798 8.99696 16.8798C8.69807 16.8798 8.41143 16.761 8.20008 16.5497C7.98874 16.3383 7.87001 16.0517 7.87001 15.7528C7.87001 15.4539 7.98874 15.1673 8.20008 14.9559L11.2001 11.9559C11.3046 11.8511 11.4288 11.7678 11.5655 11.7111C11.7023 11.6543 11.8489 11.6251 11.997 11.6251C12.145 11.6251 12.2916 11.6543 12.4284 11.7111C12.5651 11.7678 12.6893 11.8511 12.7938 11.9559L15.7966 14.9559ZM15.7966 9.70594C15.9013 9.81059 15.9843 9.93482 16.0409 10.0716C16.0976 10.2083 16.1267 10.3548 16.1267 10.5028C16.1267 10.6508 16.0976 10.7974 16.0409 10.9341C15.9843 11.0708 15.9013 11.195 15.7966 11.2997C15.692 11.4043 15.5678 11.4873 15.431 11.544C15.2943 11.6006 15.1478 11.6298 14.9998 11.6298C14.8518 11.6298 14.7052 11.6006 14.5685 11.544C14.4318 11.4873 14.3075 11.4043 14.2029 11.2997L11.9998 9.09375L9.79383 11.2988C9.68919 11.4034 9.56495 11.4864 9.42822 11.543C9.29149 11.5997 9.14495 11.6288 8.99696 11.6288C8.84896 11.6288 8.70242 11.5997 8.56569 11.543C8.42896 11.4864 8.30473 11.4034 8.20008 11.2988C8.09544 11.1941 8.01242 11.0699 7.95579 10.9331C7.89916 10.7964 7.87001 10.6499 7.87001 10.5019C7.87001 10.3539 7.89916 10.2073 7.95579 10.0706C8.01242 9.93388 8.09544 9.80965 8.20008 9.705L11.2001 6.705C11.3046 6.60012 11.4288 6.51691 11.5655 6.46013C11.7023 6.40335 11.8489 6.37412 11.997 6.37412C12.145 6.37412 12.2916 6.40335 12.4284 6.46013C12.5651 6.51691 12.6893 6.60012 12.7938 6.705L15.7966 9.70594Z" fill="#130032"/>
</svg>
