<svg width="24" height="24" viewBox="0 0 24 24" fill="none" xmlns="http://www.w3.org/2000/svg">
<path d="M14.2959 11.205C14.4008 11.3095 14.484 11.4337 14.5408 11.5705C14.5976 11.7072 14.6268 11.8538 14.6268 12.0019C14.6268 12.1499 14.5976 12.2965 14.5408 12.4333C14.484 12.57 14.4008 12.6942 14.2959 12.7987L6.7959 20.2987C6.58455 20.5101 6.29791 20.6288 5.99902 20.6288C5.70014 20.6288 5.41349 20.5101 5.20215 20.2987C4.9908 20.0874 4.87207 19.8008 4.87207 19.5019C4.87207 19.203 4.9908 18.9163 5.20215 18.705L11.9062 12.0009L5.20402 5.29687C5.09937 5.19223 5.01636 5.06799 4.95973 4.93126C4.90309 4.79454 4.87395 4.64799 4.87395 4.5C4.87395 4.20111 4.99268 3.91447 5.20402 3.70312C5.41537 3.49178 5.70201 3.37305 6.0009 3.37305C6.14889 3.37305 6.29543 3.4022 6.43216 3.45883C6.56889 3.51547 6.69312 3.59848 6.79777 3.70312L14.2959 11.205ZM17.25 3.37594C16.9516 3.37594 16.6654 3.49446 16.4545 3.70544C16.2435 3.91642 16.125 4.20257 16.125 4.50094V19.5009C16.125 19.7993 16.2435 20.0855 16.4545 20.2964C16.6654 20.5074 16.9516 20.6259 17.25 20.6259C17.5483 20.6259 17.8345 20.5074 18.0455 20.2964C18.2564 20.0855 18.375 19.7993 18.375 19.5009V4.50094C18.375 4.20257 18.2564 3.91642 18.0455 3.70544C17.8345 3.49446 17.5483 3.37594 17.25 3.37594Z" fill="#130032"/>
</svg>
