<svg width="24" height="24" viewBox="0 0 24 24" fill="none" xmlns="http://www.w3.org/2000/svg">
<path d="M21.7502 5.625H19.969L21.798 3.79594C21.9027 3.69129 21.9857 3.56706 22.0423 3.43033C22.0989 3.2936 22.1281 3.14706 22.1281 2.99906C22.1281 2.85107 22.0989 2.70452 22.0423 2.5678C21.9857 2.43107 21.9027 2.30683 21.798 2.20219C21.6934 2.09754 21.5691 2.01453 21.4324 1.9579C21.2957 1.90126 21.1491 1.87211 21.0011 1.87211C20.8532 1.87211 20.7066 1.90126 20.5699 1.9579C20.4332 2.01453 20.3089 2.09754 20.2043 2.20219L18.3752 4.03125V2.25C18.3752 1.95163 18.2567 1.66548 18.0457 1.4545C17.8347 1.24353 17.5486 1.125 17.2502 1.125C16.9518 1.125 16.6657 1.24353 16.4547 1.4545C16.2437 1.66548 16.1252 1.95163 16.1252 2.25V4.6875C14.9459 4.15572 13.6327 3.99531 12.3601 4.22756C11.0875 4.45982 9.91564 5.07375 9.00021 5.98781C5.19865 9.72 2.36083 18.4688 2.04208 19.4784C1.91318 19.7639 1.85786 20.0772 1.88118 20.3896C1.9045 20.702 2.00573 21.0036 2.1756 21.2668C2.34548 21.53 2.57859 21.7464 2.85365 21.8963C3.12871 22.0463 3.43695 22.1249 3.75021 22.125C4.0166 22.1245 4.27988 22.0677 4.52271 21.9581C5.23896 21.7313 9.84677 20.2387 13.7955 18.0375L13.8461 18.0094C15.4493 17.1122 16.9399 16.0978 18.0124 15.0094C18.9284 14.0932 19.5435 12.9197 19.7758 11.6451C20.0081 10.3705 19.8466 9.05544 19.3127 7.875H21.7502C22.0486 7.875 22.3347 7.75647 22.5457 7.5455C22.7567 7.33452 22.8752 7.04837 22.8752 6.75C22.8752 6.45163 22.7567 6.16548 22.5457 5.9545C22.3347 5.74353 22.0486 5.625 21.7502 5.625ZM16.4168 13.4175L16.4083 13.4259C15.648 14.2022 14.6168 14.9447 13.4711 15.6309L11.2952 13.455C11.0839 13.2437 10.7972 13.1249 10.4983 13.1249C10.1994 13.1249 9.9128 13.2437 9.70146 13.455C9.49012 13.6663 9.37138 13.953 9.37138 14.2519C9.37138 14.5508 9.49012 14.8374 9.70146 15.0487L11.4096 16.7569C8.5699 18.1791 5.5849 19.2337 4.35396 19.6462C4.98865 17.7506 7.14677 11.6962 9.82333 8.42062L12.7015 11.2987C12.9128 11.5101 13.1994 11.6288 13.4983 11.6288C13.7972 11.6288 14.0839 11.5101 14.2952 11.2987C14.5066 11.0874 14.6253 10.8008 14.6253 10.5019C14.6253 10.203 14.5066 9.91634 14.2952 9.705L11.4883 6.89813C12.3578 6.41151 13.374 6.25604 14.3492 6.46045C15.3244 6.66486 16.1926 7.21534 16.7935 8.01016C17.3943 8.80498 17.6872 9.79042 17.618 10.7844C17.5487 11.7784 17.122 12.7137 16.4168 13.4175Z" fill="#130032"/>
</svg>
