<svg width="24" height="24" viewBox="0 0 24 24" fill="none" xmlns="http://www.w3.org/2000/svg">
<path d="M22.8384 14.7188L20.7347 6.65625C20.6308 6.254 20.3963 5.89764 20.068 5.64311C19.7396 5.38858 19.3361 5.25031 18.9206 5.25H13.125V3.75C13.125 3.25272 12.9275 2.77581 12.5758 2.42417C12.2242 2.07254 11.7473 1.875 11.25 1.875H7.5C7.00272 1.875 6.52581 2.07254 6.17417 2.42417C5.82254 2.77581 5.625 3.25272 5.625 3.75V5.25H5.07938C4.66393 5.25031 4.26036 5.38858 3.93202 5.64311C3.60368 5.89764 3.36917 6.254 3.26531 6.65625L1.16156 14.7188C1.1375 14.8106 1.12521 14.9051 1.125 15V18C1.125 18.4973 1.32254 18.9742 1.67417 19.3258C2.02581 19.6775 2.50272 19.875 3 19.875H21C21.4973 19.875 21.9742 19.6775 22.3258 19.3258C22.6775 18.9742 22.875 18.4973 22.875 18V15C22.8748 14.9051 22.8625 14.8106 22.8384 14.7188ZM7.875 4.125H10.875V5.25H7.875V4.125ZM5.36906 7.5H18.6309L20.2941 13.875H3.70594L5.36906 7.5ZM3.375 17.625V16.125H20.625V17.625H3.375ZM6 10.875C6 10.5766 6.11853 10.2905 6.3295 10.0795C6.54048 9.86853 6.82663 9.75 7.125 9.75H7.875C8.17337 9.75 8.45952 9.86853 8.6705 10.0795C8.88147 10.2905 9 10.5766 9 10.875C9 11.1734 8.88147 11.4595 8.6705 11.6705C8.45952 11.8815 8.17337 12 7.875 12H7.125C6.82663 12 6.54048 11.8815 6.3295 11.6705C6.11853 11.4595 6 11.1734 6 10.875ZM10.5 10.875C10.5 10.5766 10.6185 10.2905 10.8295 10.0795C11.0405 9.86853 11.3266 9.75 11.625 9.75H12.375C12.6734 9.75 12.9595 9.86853 13.1705 10.0795C13.3815 10.2905 13.5 10.5766 13.5 10.875C13.5 11.1734 13.3815 11.4595 13.1705 11.6705C12.9595 11.8815 12.6734 12 12.375 12H11.625C11.3266 12 11.0405 11.8815 10.8295 11.6705C10.6185 11.4595 10.5 11.1734 10.5 10.875ZM15 10.875C15 10.5766 15.1185 10.2905 15.3295 10.0795C15.5405 9.86853 15.8266 9.75 16.125 9.75H16.875C17.1734 9.75 17.4595 9.86853 17.6705 10.0795C17.8815 10.2905 18 10.5766 18 10.875C18 11.1734 17.8815 11.4595 17.6705 11.6705C17.4595 11.8815 17.1734 12 16.875 12H16.125C15.8266 12 15.5405 11.8815 15.3295 11.6705C15.1185 11.4595 15 11.1734 15 10.875Z" fill="#130032"/>
</svg>
