<svg width="24" height="24" viewBox="0 0 24 24" fill="none" xmlns="http://www.w3.org/2000/svg">
<path d="M21 4.125H3C2.50272 4.125 2.02581 4.32254 1.67417 4.67417C1.32254 5.02581 1.125 5.50272 1.125 6V18C1.125 18.4973 1.32254 18.9742 1.67417 19.3258C2.02581 19.6775 2.50272 19.875 3 19.875H21C21.4973 19.875 21.9742 19.6775 22.3258 19.3258C22.6775 18.9742 22.875 18.4973 22.875 18V6C22.875 5.50272 22.6775 5.02581 22.3258 4.67417C21.9742 4.32254 21.4973 4.125 21 4.125ZM20.625 17.625H17.1562L15.975 16.05C15.9051 15.9569 15.8146 15.8813 15.7104 15.8292C15.6063 15.7771 15.4914 15.75 15.375 15.75H8.625C8.50857 15.75 8.39373 15.7771 8.28959 15.8292C8.18545 15.8813 8.09486 15.9569 8.025 16.05L6.84375 17.625H3.375V6.375H20.625V17.625ZM7.6875 14.25H16.3125C17.1579 14.25 17.9686 13.9142 18.5664 13.3164C19.1642 12.7186 19.5 11.9079 19.5 11.0625C19.5 10.2171 19.1642 9.40637 18.5664 8.8086C17.9686 8.21082 17.1579 7.875 16.3125 7.875H7.6875C6.84212 7.875 6.03137 8.21082 5.4336 8.8086C4.83582 9.40637 4.5 10.2171 4.5 11.0625C4.5 11.9079 4.83582 12.7186 5.4336 13.3164C6.03137 13.9142 6.84212 14.25 7.6875 14.25ZM7.6875 10.125C7.87292 10.125 8.05418 10.18 8.20835 10.283C8.36252 10.386 8.48268 10.5324 8.55364 10.7037C8.62459 10.875 8.64316 11.0635 8.60699 11.2454C8.57081 11.4273 8.48152 11.5943 8.35041 11.7254C8.2193 11.8565 8.05225 11.9458 7.8704 11.982C7.68854 12.0182 7.50004 11.9996 7.32873 11.9286C7.15743 11.8577 7.01101 11.7375 6.908 11.5833C6.80498 11.4292 6.75 11.2479 6.75 11.0625C6.75 10.8139 6.84877 10.5754 7.02459 10.3996C7.2004 10.2238 7.43886 10.125 7.6875 10.125ZM17.25 11.0625C17.25 11.2479 17.195 11.4292 17.092 11.5833C16.989 11.7375 16.8426 11.8577 16.6713 11.9286C16.5 11.9996 16.3115 12.0182 16.1296 11.982C15.9477 11.9458 15.7807 11.8565 15.6496 11.7254C15.5185 11.5943 15.4292 11.4273 15.393 11.2454C15.3568 11.0635 15.3754 10.875 15.4464 10.7037C15.5173 10.5324 15.6375 10.386 15.7917 10.283C15.9458 10.18 16.1271 10.125 16.3125 10.125C16.5611 10.125 16.7996 10.2238 16.9754 10.3996C17.1512 10.5754 17.25 10.8139 17.25 11.0625ZM13.2656 12H10.7344C10.9219 11.3891 10.9219 10.7359 10.7344 10.125H13.2656C13.0781 10.7359 13.0781 11.3891 13.2656 12Z" fill="#130032"/>
</svg>
