<svg width="24" height="24" viewBox="0 0 24 24" fill="none" xmlns="http://www.w3.org/2000/svg">
<path d="M20.25 19.875H19.125V10.9688L20.0756 10.0181C20.2507 9.84416 20.3894 9.63712 20.4837 9.40907C20.578 9.18101 20.626 8.93648 20.625 8.68969V4.5C20.625 4.00272 20.4275 3.52581 20.0758 3.17417C19.7242 2.82254 19.2473 2.625 18.75 2.625H5.25C4.75272 2.625 4.27581 2.82254 3.92417 3.17417C3.57254 3.52581 3.375 4.00272 3.375 4.5V8.68969C3.37433 8.936 3.42255 9.18 3.51685 9.40755C3.61115 9.6351 3.74967 9.84168 3.92438 10.0153L4.875 10.9688V19.875H3.75C3.45163 19.875 3.16548 19.9935 2.9545 20.2045C2.74353 20.4155 2.625 20.7016 2.625 21C2.625 21.2984 2.74353 21.5845 2.9545 21.7955C3.16548 22.0065 3.45163 22.125 3.75 22.125H20.25C20.5484 22.125 20.8345 22.0065 21.0455 21.7955C21.2565 21.5845 21.375 21.2984 21.375 21C21.375 20.7016 21.2565 20.4155 21.0455 20.2045C20.8345 19.9935 20.5484 19.875 20.25 19.875ZM6.79594 9.70406L5.625 8.53125V4.875H8.25V7.125C8.25 7.42337 8.36853 7.70952 8.5795 7.9205C8.79048 8.13147 9.07663 8.25 9.375 8.25C9.67337 8.25 9.95952 8.13147 10.1705 7.9205C10.3815 7.70952 10.5 7.42337 10.5 7.125V4.875H13.5V7.125C13.5 7.42337 13.6185 7.70952 13.8295 7.9205C14.0405 8.13147 14.3266 8.25 14.625 8.25C14.9234 8.25 15.2095 8.13147 15.4205 7.9205C15.6315 7.70952 15.75 7.42337 15.75 7.125V4.875H18.375V8.53125L17.2041 9.70125C17.0993 9.80614 17.0163 9.9307 16.9598 10.0678C16.9033 10.2049 16.8745 10.3517 16.875 10.5V19.875H15.375V15.75C15.375 14.8549 15.0194 13.9965 14.3865 13.3635C13.7535 12.7306 12.8951 12.375 12 12.375C11.1049 12.375 10.2464 12.7306 9.61351 13.3635C8.98058 13.9965 8.625 14.8549 8.625 15.75V19.875H7.125V10.5C7.12512 10.3522 7.09612 10.2059 7.03965 10.0693C6.98319 9.93272 6.90038 9.80862 6.79594 9.70406ZM13.125 19.875H10.875V15.75C10.875 15.4516 10.9935 15.1655 11.2045 14.9545C11.4155 14.7435 11.7016 14.625 12 14.625C12.2984 14.625 12.5845 14.7435 12.7955 14.9545C13.0065 15.1655 13.125 15.4516 13.125 15.75V19.875Z" fill="#130032"/>
</svg>
