<svg width="24" height="24" viewBox="0 0 24 24" fill="none" xmlns="http://www.w3.org/2000/svg">
<path d="M20.9672 2.76879C20.6246 2.62705 20.2477 2.59005 19.8841 2.66247C19.5205 2.73489 19.1865 2.91348 18.9244 3.17567C18.9056 3.19442 18.8878 3.21317 18.8709 3.23285L17.4647 4.85473C15.808 3.88536 13.9232 3.37444 12.0038 3.37444C10.0843 3.37444 8.19949 3.88536 6.54282 4.85473L5.13657 3.23285C5.1197 3.21317 5.10189 3.19442 5.08314 3.17567C4.82137 2.91099 4.48675 2.73023 4.12189 2.65639C3.75704 2.58256 3.37846 2.619 3.03439 2.76107C2.69031 2.90315 2.39632 3.14442 2.18985 3.45417C1.98338 3.76391 1.87378 4.1281 1.87501 4.50035V12.7504C1.87501 17.9197 6.4172 22.1254 12 22.1254C17.5828 22.1254 22.125 17.9197 22.125 12.7504V4.50035C22.1248 4.1296 22.0148 3.76721 21.8087 3.459C21.6026 3.1508 21.3098 2.91061 20.9672 2.76879ZM19.875 12.7504C19.875 16.3335 16.9359 19.3063 13.125 19.8013V18.4691L14.2959 17.2982C14.5073 17.0868 14.626 16.8002 14.626 16.5013C14.626 16.2024 14.5073 15.9158 14.2959 15.7044C14.0846 15.4931 13.798 15.3743 13.4991 15.3743C13.2002 15.3743 12.9135 15.4931 12.7022 15.7044L12 16.4066L11.2959 15.7016C11.0846 15.4903 10.798 15.3715 10.4991 15.3715C10.2002 15.3715 9.91354 15.4903 9.7022 15.7016C9.49085 15.9129 9.37212 16.1996 9.37212 16.4985C9.37212 16.7974 9.49085 17.084 9.7022 17.2954L10.875 18.4691V19.8041C7.06407 19.3091 4.12501 16.3354 4.12501 12.7532V5.50723L5.48814 7.07567C5.67409 7.28953 5.93391 7.42532 6.21565 7.45591C6.49739 7.4865 6.7803 7.40963 7.00782 7.24067C7.6179 6.78966 8.28857 6.42702 9.00001 6.16348V8.25035C9.00001 8.54872 9.11854 8.83487 9.32951 9.04585C9.54049 9.25683 9.82664 9.37535 10.125 9.37535C10.4234 9.37535 10.7095 9.25683 10.9205 9.04585C11.1315 8.83487 11.25 8.54872 11.25 8.25035V5.65817C11.5 5.63629 11.75 5.62535 12 5.62535C12.25 5.62535 12.5 5.63629 12.75 5.65817V8.25035C12.75 8.54872 12.8685 8.83487 13.0795 9.04585C13.2905 9.25683 13.5766 9.37535 13.875 9.37535C14.1734 9.37535 14.4595 9.25683 14.6705 9.04585C14.8815 8.83487 15 8.54872 15 8.25035V6.16348C15.7113 6.42725 16.382 6.78987 16.9922 7.24067C17.2197 7.40963 17.5026 7.4865 17.7844 7.45591C18.0661 7.42532 18.3259 7.28953 18.5119 7.07567L19.875 5.50723V12.7504ZM9.37501 13.1254C9.37501 13.422 9.28704 13.712 9.12221 13.9587C8.95739 14.2054 8.72312 14.3976 8.44903 14.5112C8.17495 14.6247 7.87335 14.6544 7.58238 14.5965C7.2914 14.5387 7.02413 14.3958 6.81435 14.186C6.60457 13.9762 6.46171 13.709 6.40383 13.418C6.34595 13.127 6.37566 12.8254 6.48919 12.5513C6.60272 12.2772 6.79498 12.043 7.04166 11.8781C7.28833 11.7133 7.57834 11.6254 7.87501 11.6254C8.27283 11.6254 8.65437 11.7834 8.93567 12.0647C9.21697 12.346 9.37501 12.7275 9.37501 13.1254ZM17.625 13.1254C17.625 13.422 17.537 13.712 17.3722 13.9587C17.2074 14.2054 16.9731 14.3976 16.699 14.5112C16.4249 14.6247 16.1233 14.6544 15.8324 14.5965C15.5414 14.5387 15.2741 14.3958 15.0644 14.186C14.8546 13.9762 14.7117 13.709 14.6538 13.418C14.596 13.127 14.6257 12.8254 14.7392 12.5513C14.8527 12.2772 15.045 12.043 15.2917 11.8781C15.5383 11.7133 15.8283 11.6254 16.125 11.6254C16.5228 11.6254 16.9044 11.7834 17.1857 12.0647C17.467 12.346 17.625 12.7275 17.625 13.1254Z" fill="#130032"/>
</svg>
