<svg width="24" height="24" viewBox="0 0 24 24" fill="none" xmlns="http://www.w3.org/2000/svg">
<path d="M13.0003 8.11084C12.9057 7.92705 12.7623 7.77286 12.5859 7.66522C12.4094 7.55757 12.2067 7.50062 12 7.50062C11.7933 7.50062 11.5906 7.55757 11.4141 7.66522C11.2377 7.77286 11.0943 7.92705 10.9997 8.11084L4.24969 21.2358C4.11294 21.5011 4.08717 21.8099 4.17807 22.0942C4.26897 22.3785 4.46908 22.615 4.73438 22.7518C4.99967 22.8885 5.30843 22.9143 5.59273 22.8234C5.87702 22.7325 6.11356 22.5324 6.25031 22.2671L7.28156 20.2524H16.7137L17.7497 22.2671C17.8174 22.3985 17.9103 22.5152 18.0232 22.6106C18.136 22.7061 18.2665 22.7784 18.4073 22.8234C18.548 22.8684 18.6963 22.8852 18.8436 22.873C18.9908 22.8607 19.1343 22.8195 19.2656 22.7518C19.397 22.6841 19.5137 22.5911 19.6092 22.4783C19.7046 22.3655 19.7769 22.235 19.8219 22.0942C19.8669 21.9534 19.8838 21.8052 19.8715 21.6579C19.8592 21.5106 19.818 21.3672 19.7503 21.2358L13.0003 8.11084ZM12 11.0855L13.6275 14.2505H10.3725L12 11.0855ZM8.44406 18.0005L9.21469 16.5005H14.7853L15.5559 18.0005H8.44406ZM16.3603 6.44397C16.4307 6.57643 16.474 6.72164 16.4874 6.87105C16.5009 7.02046 16.4844 7.17106 16.4388 7.31399C16.3932 7.45692 16.3195 7.58928 16.222 7.7033C16.1245 7.81731 16.0052 7.91067 15.8711 7.97789C15.7369 8.04511 15.5907 8.08482 15.441 8.09469C15.2913 8.10456 15.1412 8.08439 14.9994 8.03537C14.8576 7.98635 14.7271 7.90947 14.6154 7.80924C14.5038 7.70902 14.4133 7.58748 14.3494 7.45178C14.1296 7.0109 13.7902 6.64077 13.3699 6.3837C12.9497 6.12663 12.4656 5.993 11.973 5.99808C11.4804 6.00317 10.9992 6.14677 10.5844 6.41246C10.1695 6.67815 9.83783 7.05521 9.62719 7.50053C9.49914 7.77018 9.26921 7.97792 8.988 8.07805C8.70678 8.17817 8.39731 8.16249 8.12766 8.03444C7.85801 7.90639 7.65027 7.67646 7.55014 7.39525C7.45001 7.11403 7.4657 6.80455 7.59375 6.5349C7.99196 5.70334 8.61665 5.00096 9.39606 4.50843C10.1755 4.01591 11.078 3.75322 12 3.75053C12.9058 3.74759 13.7943 3.99833 14.5649 4.47435C15.3356 4.95038 15.9575 5.63268 16.3603 6.44397ZM4.68094 13.569C3.86683 12.2632 3.41689 10.7633 3.37779 9.22505C3.33868 7.68676 3.71183 6.16602 4.45853 4.82054C5.20524 3.47506 6.29831 2.35385 7.62437 1.57319C8.95044 0.792537 10.4612 0.380859 12 0.380859C13.5388 0.380859 15.0496 0.792537 16.3756 1.57319C17.7017 2.35385 18.7948 3.47506 19.5415 4.82054C20.2882 6.16602 20.6613 7.68676 20.6222 9.22505C20.5831 10.7633 20.1332 12.2632 19.3191 13.569C19.1608 13.8221 18.9085 14.002 18.6176 14.069C18.3267 14.1361 18.0211 14.0849 17.768 13.9266C17.5149 13.7684 17.335 13.516 17.2679 13.2251C17.2008 12.9343 17.2521 12.6286 17.4103 12.3755C18.0118 11.4104 18.3442 10.3018 18.373 9.16492C18.4017 8.02801 18.1258 6.9041 17.5739 5.90974C17.0219 4.91539 16.214 4.08679 15.2339 3.50987C14.2538 2.93295 13.1373 2.62871 12 2.62871C10.8627 2.62871 9.74615 2.93295 8.76607 3.50987C7.78599 4.08679 6.97809 4.91539 6.42613 5.90974C5.87418 6.9041 5.59828 8.02801 5.62704 9.16492C5.6558 10.3018 5.98817 11.4104 6.58969 12.3755C6.74132 12.6285 6.78756 12.9309 6.71845 13.2176C6.64934 13.5043 6.47041 13.7524 6.22018 13.9085C5.96995 14.0646 5.66844 14.1161 5.38055 14.0521C5.09266 13.9881 4.84143 13.8136 4.68094 13.5662V13.569Z" fill="#130032"/>
</svg>
