<svg width="24" height="24" viewBox="0 0 24 24" fill="none" xmlns="http://www.w3.org/2000/svg">
<path d="M19.5 12H16.875V10.125H18C18.4973 10.125 18.9742 9.92746 19.3258 9.57583C19.6775 9.22419 19.875 8.74728 19.875 8.25V3.75C19.875 3.25272 19.6775 2.77581 19.3258 2.42417C18.9742 2.07254 18.4973 1.875 18 1.875H6C5.50272 1.875 5.02581 2.07254 4.67417 2.42417C4.32254 2.77581 4.125 3.25272 4.125 3.75V8.25C4.125 8.74728 4.32254 9.22419 4.67417 9.57583C5.02581 9.92746 5.50272 10.125 6 10.125H7.125V12H4.5C4.00272 12 3.52581 12.1975 3.17417 12.5492C2.82254 12.9008 2.625 13.3777 2.625 13.875V16.125C2.625 16.3712 2.6735 16.615 2.76773 16.8425C2.86195 17.07 3.00006 17.2767 3.17417 17.4508C3.34828 17.6249 3.55498 17.763 3.78247 17.8573C4.00995 17.9515 4.25377 18 4.5 18H5.25V21C5.25 21.2984 5.36853 21.5845 5.5795 21.7955C5.79048 22.0065 6.07663 22.125 6.375 22.125C6.67337 22.125 6.95952 22.0065 7.1705 21.7955C7.38147 21.5845 7.5 21.2984 7.5 21V18H16.5V21C16.5 21.2984 16.6185 21.5845 16.8295 21.7955C17.0405 22.0065 17.3266 22.125 17.625 22.125C17.9234 22.125 18.2095 22.0065 18.4205 21.7955C18.6315 21.5845 18.75 21.2984 18.75 21V18H19.5C19.7462 18 19.99 17.9515 20.2175 17.8573C20.445 17.763 20.6517 17.6249 20.8258 17.4508C20.9999 17.2767 21.138 17.07 21.2323 16.8425C21.3265 16.615 21.375 16.3712 21.375 16.125V13.875C21.375 13.3777 21.1775 12.9008 20.8258 12.5492C20.4742 12.1975 19.9973 12 19.5 12ZM6.375 4.125H17.625V7.875H6.375V4.125ZM9.375 10.125H14.625V12H9.375V10.125ZM19.125 15.75H4.875V14.25H19.125V15.75Z" fill="#130032"/>
</svg>
