<svg width="24" height="24" viewBox="0 0 24 24" fill="none" xmlns="http://www.w3.org/2000/svg">
<path d="M5.25 7.875C5.25 7.57663 5.36853 7.29048 5.5795 7.0795C5.79048 6.86853 6.07663 6.75 6.375 6.75H17.625C17.9234 6.75 18.2095 6.86853 18.4205 7.0795C18.6315 7.29048 18.75 7.57663 18.75 7.875V16.125C18.75 16.4234 18.6315 16.7095 18.4205 16.9205C18.2095 17.1315 17.9234 17.25 17.625 17.25C17.3266 17.25 17.0405 17.1315 16.8295 16.9205C16.6185 16.7095 16.5 16.4234 16.5 16.125V9H6.375C6.07663 9 5.79048 8.88147 5.5795 8.6705C5.36853 8.45952 5.25 8.17337 5.25 7.875ZM22.125 5.25V18.75C22.125 19.2473 21.9275 19.7242 21.5758 20.0758C21.2242 20.4275 20.7473 20.625 20.25 20.625H13.9931C13.7561 20.625 13.5252 20.5501 13.3333 20.411C13.1413 20.2719 12.9982 20.0758 12.9244 19.8506C12.689 19.1972 12.2578 18.6322 11.6895 18.2329C11.1212 17.8336 10.4436 17.6193 9.74906 17.6193C9.05452 17.6193 8.37688 17.8336 7.80861 18.2329C7.24034 18.6322 6.80911 19.1972 6.57375 19.8506C6.49998 20.0755 6.35717 20.2714 6.16562 20.4105C5.97407 20.5495 5.74356 20.6246 5.50688 20.625H3.75C3.25272 20.625 2.77581 20.4275 2.42417 20.0758C2.07254 19.7242 1.875 19.2473 1.875 18.75V5.25C1.875 4.75272 2.07254 4.27581 2.42417 3.92417C2.77581 3.57254 3.25272 3.375 3.75 3.375H20.25C20.7473 3.375 21.2242 3.57254 21.5758 3.92417C21.9275 4.27581 22.125 4.75272 22.125 5.25ZM9.75 15.375C10.0467 15.375 10.3367 15.287 10.5834 15.1222C10.83 14.9574 11.0223 14.7231 11.1358 14.449C11.2494 14.1749 11.2791 13.8733 11.2212 13.5824C11.1633 13.2914 11.0204 13.0241 10.8107 12.8143C10.6009 12.6046 10.3336 12.4617 10.0426 12.4038C9.75166 12.3459 9.45006 12.3756 9.17597 12.4892C8.90189 12.6027 8.66762 12.795 8.5028 13.0416C8.33797 13.2883 8.25 13.5783 8.25 13.875C8.25 14.2728 8.40804 14.6544 8.68934 14.9357C8.97064 15.217 9.35218 15.375 9.75 15.375ZM19.875 5.625H4.125V18.375H4.77375C5.24692 17.4815 5.95149 16.7316 6.81375 16.2037C6.37505 15.6515 6.10097 14.9868 6.02299 14.2858C5.94501 13.5848 6.06629 12.8761 6.3729 12.2409C6.6795 11.6058 7.15901 11.07 7.75637 10.695C8.35373 10.3201 9.04472 10.1212 9.75 10.1212C10.4553 10.1212 11.1463 10.3201 11.7436 10.695C12.341 11.07 12.8205 11.6058 13.1271 12.2409C13.4337 12.8761 13.555 13.5848 13.477 14.2858C13.399 14.9868 13.125 15.6515 12.6863 16.2037C13.5485 16.7316 14.2531 17.4815 14.7262 18.375H19.875V5.625Z" fill="#130032"/>
</svg>
