<svg width="24" height="24" viewBox="0 0 24 24" fill="none" xmlns="http://www.w3.org/2000/svg">
<path d="M22.5 17.625H22.125V5.25C22.125 4.75272 21.9275 4.27581 21.5758 3.92417C21.2242 3.57254 20.7473 3.375 20.25 3.375H3.75C3.25272 3.375 2.77581 3.57254 2.42417 3.92417C2.07254 4.27581 1.875 4.75272 1.875 5.25V17.625H1.5C1.20163 17.625 0.915483 17.7435 0.704505 17.9545C0.493526 18.1655 0.375 18.4516 0.375 18.75C0.375 19.0484 0.493526 19.3345 0.704505 19.5455C0.915483 19.7565 1.20163 19.875 1.5 19.875H22.5C22.7984 19.875 23.0845 19.7565 23.2955 19.5455C23.5065 19.3345 23.625 19.0484 23.625 18.75C23.625 18.4516 23.5065 18.1655 23.2955 17.9545C23.0845 17.7435 22.7984 17.625 22.5 17.625ZM4.125 5.625H19.875V17.625H18.375V15C18.375 14.7016 18.2565 14.4155 18.0455 14.2045C17.8345 13.9935 17.5484 13.875 17.25 13.875H11.25C10.9516 13.875 10.6655 13.9935 10.4545 14.2045C10.2435 14.4155 10.125 14.7016 10.125 15V17.625H7.875V9.375H16.125V11.25C16.125 11.5484 16.2435 11.8345 16.4545 12.0455C16.6655 12.2565 16.9516 12.375 17.25 12.375C17.5484 12.375 17.8345 12.2565 18.0455 12.0455C18.2565 11.8345 18.375 11.5484 18.375 11.25V8.25C18.375 7.95163 18.2565 7.66548 18.0455 7.4545C17.8345 7.24353 17.5484 7.125 17.25 7.125H6.75C6.45163 7.125 6.16548 7.24353 5.9545 7.4545C5.74353 7.66548 5.625 7.95163 5.625 8.25V17.625H4.125V5.625ZM16.125 17.625H12.375V16.125H16.125V17.625Z" fill="#130032"/>
</svg>
