<svg width="24" height="24" viewBox="0 0 24 24" fill="none" xmlns="http://www.w3.org/2000/svg">
<path d="M22.5 17.625H22.125V15C22.125 14.7016 22.0065 14.4155 21.7955 14.2045C21.5845 13.9935 21.2984 13.875 21 13.875H15C14.7016 13.875 14.4155 13.9935 14.2045 14.2045C13.9935 14.4155 13.875 14.7016 13.875 15V17.625H4.125V5.625H19.875V11.25C19.875 11.5484 19.9935 11.8345 20.2045 12.0455C20.4155 12.2565 20.7016 12.375 21 12.375C21.2984 12.375 21.5845 12.2565 21.7955 12.0455C22.0065 11.8345 22.125 11.5484 22.125 11.25V5.25C22.125 4.75272 21.9275 4.27581 21.5758 3.92417C21.2242 3.57254 20.7473 3.375 20.25 3.375H3.75C3.25272 3.375 2.77581 3.57254 2.42417 3.92417C2.07254 4.27581 1.875 4.75272 1.875 5.25V17.625H1.5C1.20163 17.625 0.915483 17.7435 0.704505 17.9545C0.493526 18.1655 0.375 18.4516 0.375 18.75C0.375 19.0484 0.493526 19.3345 0.704505 19.5455C0.915483 19.7565 1.20163 19.875 1.5 19.875H22.5C22.7984 19.875 23.0845 19.7565 23.2955 19.5455C23.5065 19.3345 23.625 19.0484 23.625 18.75C23.625 18.4516 23.5065 18.1655 23.2955 17.9545C23.0845 17.7435 22.7984 17.625 22.5 17.625ZM16.125 16.125H19.875V17.625H16.125V16.125Z" fill="#130032"/>
</svg>
