<svg width="24" height="24" viewBox="0 0 24 24" fill="none" xmlns="http://www.w3.org/2000/svg">
<path d="M14.4095 1.15219C14.3361 0.926312 14.193 0.72947 14.0009 0.589862C13.8087 0.450254 13.5773 0.375042 13.3398 0.375001H9.15856C8.92105 0.375042 8.68964 0.450254 8.49749 0.589862C8.30534 0.72947 8.1623 0.926312 8.08887 1.15219C7.51185 3.00337 7.06206 4.89184 6.74262 6.80438C6.04512 11.055 6.34137 14.1038 7.62106 15.8663C8.22189 16.706 9.11512 17.2905 10.1251 17.505V21.375H9.00012C8.70175 21.375 8.4156 21.4935 8.20463 21.7045C7.99365 21.9155 7.87512 22.2016 7.87512 22.5C7.87512 22.7984 7.99365 23.0845 8.20463 23.2955C8.4156 23.5065 8.70175 23.625 9.00012 23.625H13.5001C13.7985 23.625 14.0846 23.5065 14.2956 23.2955C14.5066 23.0845 14.6251 22.7984 14.6251 22.5C14.6251 22.2016 14.5066 21.9155 14.2956 21.7045C14.0846 21.4935 13.7985 21.375 13.5001 21.375H12.3751V17.505C13.3848 17.2903 14.2776 16.7058 14.8782 15.8663C16.1589 14.1038 16.4542 11.055 15.7567 6.80438C15.4369 4.89182 14.9868 3.00335 14.4095 1.15219ZM12.5026 2.625C12.6976 3.30469 12.9845 4.37813 13.2451 5.625H9.25325C9.51387 4.37813 9.80075 3.30469 9.99575 2.625H12.5026ZM13.0567 14.5444C12.6442 15.1069 12.0704 15.375 11.2492 15.375C10.4279 15.375 9.85418 15.1106 9.44168 14.5444C8.61387 13.4062 8.41043 11.0513 8.85575 7.875H13.6426C14.0879 11.0513 13.8845 13.4062 13.0567 14.5444ZM22.5001 5.25C22.5001 5.54667 22.4121 5.83668 22.2473 6.08336C22.0825 6.33003 21.8482 6.52229 21.5741 6.63582C21.3001 6.74935 20.9985 6.77906 20.7075 6.72118C20.4165 6.6633 20.1492 6.52044 19.9395 6.31066C19.7297 6.10088 19.5868 5.83361 19.5289 5.54264C19.4711 5.25166 19.5008 4.95006 19.6143 4.67598C19.7278 4.40189 19.9201 4.16762 20.1668 4.0028C20.4134 3.83797 20.7034 3.75 21.0001 3.75C21.3979 3.75 21.7795 3.90804 22.0608 4.18934C22.3421 4.47064 22.5001 4.85218 22.5001 5.25ZM16.8751 1.875C16.8751 1.57833 16.9631 1.28832 17.1279 1.04165C17.2927 0.794972 17.527 0.602713 17.8011 0.489181C18.0752 0.37565 18.3768 0.345945 18.6678 0.403823C18.9587 0.461701 19.226 0.604562 19.4358 0.814341C19.6456 1.02412 19.7884 1.29139 19.8463 1.58237C19.9042 1.87334 19.8745 2.17494 19.7609 2.44903C19.6474 2.72311 19.4552 2.95738 19.2085 3.12221C18.9618 3.28703 18.6718 3.375 18.3751 3.375C17.9773 3.375 17.5958 3.21697 17.3145 2.93566C17.0332 2.65436 16.8751 2.27283 16.8751 1.875ZM20.2501 9.75C20.2501 10.0467 20.1621 10.3367 19.9973 10.5834C19.8325 10.83 19.5982 11.0223 19.3241 11.1358C19.0501 11.2494 18.7485 11.2791 18.4575 11.2212C18.1665 11.1633 17.8992 11.0204 17.6895 10.8107C17.4797 10.6009 17.3368 10.3336 17.2789 10.0426C17.2211 9.75167 17.2508 9.45006 17.3643 9.17598C17.4778 8.90189 17.6701 8.66762 17.9168 8.5028C18.1634 8.33797 18.4534 8.25 18.7501 8.25C19.1479 8.25 19.5295 8.40804 19.8108 8.68934C20.0921 8.97064 20.2501 9.35218 20.2501 9.75Z" fill="#130032"/>
</svg>
