<svg width="24" height="24" viewBox="0 0 24 24" fill="none" xmlns="http://www.w3.org/2000/svg">
<path d="M11.9999 1.875C11.7015 1.875 11.4154 1.99353 11.2044 2.2045C10.9934 2.41548 10.8749 2.70163 10.8749 3V8.25C10.8749 8.54837 10.9934 8.83452 11.2044 9.0455C11.4154 9.25647 11.7015 9.375 11.9999 9.375C12.5777 9.37523 13.1393 9.5661 13.5976 9.91801C14.0559 10.2699 14.3852 10.7632 14.5346 11.3214C14.684 11.8795 14.645 12.4714 14.4238 13.0052C14.2025 13.5389 13.8113 13.9848 13.3109 14.2736C12.8104 14.5624 12.2287 14.678 11.6558 14.6025C11.083 14.527 10.551 14.2646 10.1425 13.856C9.73397 13.4474 9.47168 12.9154 9.39629 12.3425C9.3209 11.7696 9.43663 11.1879 9.72553 10.6875C9.79952 10.5595 9.84757 10.4183 9.86693 10.2717C9.88629 10.1252 9.87658 9.97625 9.83836 9.83346C9.80014 9.69068 9.73415 9.55682 9.64417 9.43955C9.5542 9.32228 9.44199 9.22389 9.31397 9.15L4.76709 6.525C4.50863 6.37594 4.20154 6.33567 3.91338 6.41302C3.62522 6.49038 3.37959 6.67904 3.23053 6.9375C2.11612 8.86772 1.66975 11.1117 1.96064 13.3215C2.25154 15.5312 3.26345 17.5833 4.83943 19.1593C6.41541 20.7354 8.46739 21.7473 10.6771 22.0383C12.8869 22.3293 15.1309 21.8831 17.0612 20.7687C18.9914 19.6544 20.5001 17.9343 21.3531 15.8752C22.2062 13.8161 22.3559 11.533 21.7792 9.38009C21.2025 7.22717 19.9315 5.32471 18.1634 3.96776C16.3952 2.61081 14.2287 1.87519 11.9999 1.875ZM4.68741 9.07594L7.33116 10.6022C7.19499 11.0557 7.12552 11.5265 7.12491 12C7.12491 12.0469 7.12491 12.0938 7.12491 12.1406L4.17834 12.93C4.14202 12.6213 4.12418 12.3108 4.12491 12C4.12555 10.9985 4.31643 10.0062 4.68741 9.07594ZM4.76522 15.1041L7.71178 14.3138C8.03894 14.918 8.48968 15.4466 9.03467 15.8651C9.57966 16.2836 10.2067 16.5827 10.8749 16.7428V19.7934C9.54066 19.5984 8.27856 19.0651 7.20876 18.2442C6.13897 17.4234 5.29711 16.3423 4.76334 15.1041H4.76522ZM13.1268 19.7916V16.7428C14.1943 16.4893 15.1451 15.883 15.8253 15.0221C16.5056 14.1612 16.8755 13.096 16.8753 11.9988C16.8751 10.9016 16.5047 9.83651 15.8241 8.97588C15.1435 8.11525 14.1925 7.50937 13.1249 7.25625V4.20469C14.9994 4.47499 16.7136 5.41175 17.9535 6.84328C19.1934 8.27481 19.8759 10.1052 19.8759 11.9991C19.8759 13.8929 19.1934 15.7233 17.9535 17.1548C16.7136 18.5864 14.9994 19.5231 13.1249 19.7934L13.1268 19.7916Z" fill="#130032"/>
</svg>
