<svg width="24" height="24" viewBox="0 0 24 24" fill="none" xmlns="http://www.w3.org/2000/svg">
<path d="M12 1.875C9.99747 1.875 8.0399 2.46882 6.37486 3.58137C4.70981 4.69392 3.41206 6.27523 2.64572 8.12533C1.87939 9.97543 1.67888 12.0112 2.06955 13.9753C2.46023 15.9393 3.42454 17.7435 4.84055 19.1595C6.25656 20.5755 8.06066 21.5398 10.0247 21.9305C11.9888 22.3211 14.0246 22.1206 15.8747 21.3543C17.7248 20.5879 19.3061 19.2902 20.4186 17.6251C21.5312 15.9601 22.125 14.0025 22.125 12C22.122 9.3156 21.0543 6.74199 19.1562 4.84383C17.258 2.94567 14.6844 1.87798 12 1.875ZM19.7934 10.875H18.2738C18.0418 9.59464 17.4246 8.4156 16.5045 7.49552C15.5844 6.57544 14.4054 5.95817 13.125 5.72625V4.20656C14.8063 4.45213 16.3634 5.23374 17.5648 6.43518C18.7663 7.63663 19.5479 9.19374 19.7934 10.875ZM10.875 10.875H8.0325C8.2256 10.1986 8.58795 9.58268 9.08531 9.08531C9.58268 8.58794 10.1986 8.22559 10.875 8.0325V10.875ZM10.875 13.125V15.9675C10.1986 15.7744 9.58268 15.4121 9.08531 14.9147C8.58795 14.4173 8.2256 13.8014 8.0325 13.125H10.875ZM13.125 13.125H15.9675C15.7744 13.8014 15.4121 14.4173 14.9147 14.9147C14.4173 15.4121 13.8014 15.7744 13.125 15.9675V13.125ZM13.125 10.875V8.0325C13.8014 8.22559 14.4173 8.58794 14.9147 9.08531C15.4121 9.58268 15.7744 10.1986 15.9675 10.875H13.125ZM10.875 4.20656V5.72625C9.59465 5.95817 8.41561 6.57544 7.49552 7.49552C6.57544 8.4156 5.95817 9.59464 5.72625 10.875H4.20657C4.45213 9.19374 5.23374 7.63663 6.43519 6.43518C7.63663 5.23374 9.19374 4.45213 10.875 4.20656ZM4.20657 13.125H5.72625C5.95817 14.4054 6.57544 15.5844 7.49552 16.5045C8.41561 17.4246 9.59465 18.0418 10.875 18.2738V19.7934C9.19374 19.5479 7.63663 18.7663 6.43519 17.5648C5.23374 16.3634 4.45213 14.8063 4.20657 13.125ZM13.125 19.7934V18.2738C14.4054 18.0418 15.5844 17.4246 16.5045 16.5045C17.4246 15.5844 18.0418 14.4054 18.2738 13.125H19.7934C19.5479 14.8063 18.7663 16.3634 17.5648 17.5648C16.3634 18.7663 14.8063 19.5479 13.125 19.7934Z" fill="#130032"/>
</svg>
