<svg width="24" height="24" viewBox="0 0 24 24" fill="none" xmlns="http://www.w3.org/2000/svg">
<path d="M16.1522 6.46014C15.4009 4.82984 14.1153 3.50511 12.5082 2.70545C10.9011 1.90578 9.06898 1.67917 7.31546 2.06315C5.56195 2.44713 3.99224 3.41866 2.8664 4.81678C1.74056 6.2149 1.12616 7.9557 1.125 9.75077V15.7508C1.125 16.248 1.32254 16.725 1.67417 17.0766C2.02581 17.4282 2.50272 17.6258 3 17.6258H7.88437C8.52472 18.971 9.53278 20.1075 10.792 20.9039C12.0512 21.7002 13.5101 22.1238 15 22.1258H21C21.4973 22.1258 21.9742 21.9282 22.3258 21.5766C22.6775 21.225 22.875 20.748 22.875 20.2508V14.2508C22.8751 12.3618 22.1962 10.5357 20.962 9.10553C19.7279 7.6754 18.0209 6.73652 16.1522 6.46014ZM3.375 9.75077C3.375 8.63825 3.7049 7.55071 4.32298 6.62568C4.94107 5.70066 5.81957 4.97969 6.84741 4.55394C7.87524 4.1282 9.00624 4.01681 10.0974 4.23385C11.1885 4.45089 12.1908 4.98662 12.9775 5.77329C13.7641 6.55996 14.2999 7.56224 14.5169 8.65338C14.734 9.74453 14.6226 10.8755 14.1968 11.9034C13.7711 12.9312 13.0501 13.8097 12.1251 14.4278C11.2001 15.0459 10.1125 15.3758 9 15.3758H3.375V9.75077ZM20.625 19.8758H15C14.1001 19.8747 13.2134 19.6583 12.4143 19.2445C11.6151 18.8307 10.9266 18.2316 10.4062 17.4973C12.3608 17.1443 14.1095 16.065 15.3015 14.4763C16.4935 12.8875 17.0405 10.9067 16.8328 8.93139C17.94 9.31297 18.9004 10.0306 19.5802 10.9842C20.26 11.9377 20.6253 13.0797 20.625 14.2508V19.8758Z" fill="#130032"/>
</svg>
