<svg width="24" height="24" viewBox="0 0 24 24" fill="none" xmlns="http://www.w3.org/2000/svg">
<path d="M20.25 7.125H17.625V4.5C17.625 4.00272 17.4275 3.52581 17.0758 3.17417C16.7242 2.82254 16.2473 2.625 15.75 2.625H3.75C3.25272 2.625 2.77581 2.82254 2.42417 3.17417C2.07254 3.52581 1.875 4.00272 1.875 4.5V16.5C1.87509 16.7123 1.93527 16.9203 2.04857 17.0998C2.16186 17.2794 2.32366 17.4232 2.51526 17.5147C2.70685 17.6062 2.92042 17.6416 3.13129 17.6168C3.34216 17.592 3.5417 17.5081 3.70688 17.3747L6.375 15.2184V17.25C6.375 17.7473 6.57254 18.2242 6.92417 18.5758C7.27581 18.9275 7.75272 19.125 8.25 19.125H16.8909L20.2931 21.8747C20.4583 22.0081 20.6578 22.092 20.8687 22.1168C21.0796 22.1416 21.2931 22.1062 21.4847 22.0147C21.6763 21.9232 21.8381 21.7794 21.9514 21.5998C22.0647 21.4203 22.1249 21.2123 22.125 21V9C22.125 8.50272 21.9275 8.02581 21.5758 7.67417C21.2242 7.32254 20.7473 7.125 20.25 7.125ZM4.125 14.1441V4.875H15.375V12.375H6.71063C6.45202 12.3743 6.20106 12.4627 6 12.6253L4.125 14.1441ZM19.875 18.6441L18 17.1253C17.7999 16.9635 17.5504 16.8751 17.2931 16.875H8.625V14.625H15.75C16.2473 14.625 16.7242 14.4275 17.0758 14.0758C17.4275 13.7242 17.625 13.2473 17.625 12.75V9.375H19.875V18.6441Z" fill="#130032"/>
</svg>
