<svg width="24" height="24" viewBox="0 0 24 24" fill="none" xmlns="http://www.w3.org/2000/svg">
<path d="M5.33252 2.99328C5.156 2.80001 4.91761 2.67434 4.65841 2.63791C4.39921 2.60147 4.13542 2.65657 3.91246 2.79369C3.68951 2.93082 3.52134 3.1414 3.43693 3.38916C3.35252 3.63693 3.35715 3.90637 3.45002 4.15109C3.01083 4.22228 2.61127 4.44732 2.32274 4.786C2.03421 5.12468 1.87551 5.55492 1.87502 5.99984V20.9998C1.87352 21.3569 1.97494 21.7069 2.16714 22.0078C2.35934 22.3087 2.63418 22.5479 2.95877 22.6967C3.20793 22.8134 3.47958 22.8742 3.7547 22.8748C4.19498 22.8737 4.62068 22.717 4.95658 22.4323L4.96783 22.422L7.91908 19.8748H17.6391L18.6703 21.0064C18.8711 21.2272 19.1514 21.3592 19.4495 21.3733C19.7476 21.3875 20.0391 21.2827 20.2599 21.0819C20.4807 20.8811 20.6126 20.6008 20.6268 20.3027C20.6409 20.0046 20.5361 19.7131 20.3353 19.4923L5.33252 2.99328ZM7.50002 17.6248C7.23 17.6244 6.96894 17.7216 6.76502 17.8986L4.12502 20.1777V6.37484H5.36627L15.5935 17.6248H7.50002ZM22.125 5.99984V16.3236C22.125 16.622 22.0065 16.9081 21.7955 17.1191C21.5845 17.3301 21.2984 17.4486 21 17.4486C20.7016 17.4486 20.4155 17.3301 20.2045 17.1191C19.9935 16.9081 19.875 16.622 19.875 16.3236V6.37484H10.9313C10.6329 6.37484 10.3467 6.25632 10.1358 6.04534C9.92479 5.83436 9.80627 5.54821 9.80627 5.24984C9.80627 4.95148 9.92479 4.66533 10.1358 4.45435C10.3467 4.24337 10.6329 4.12484 10.9313 4.12484H20.25C20.7473 4.12484 21.2242 4.32239 21.5758 4.67402C21.9275 5.02565 22.125 5.50256 22.125 5.99984Z" fill="#130032"/>
</svg>
