<svg width="24" height="24" viewBox="0 0 24 24" fill="none" xmlns="http://www.w3.org/2000/svg">
<path d="M20.25 4.125H3.75002C3.25274 4.125 2.77582 4.32254 2.42419 4.67417C2.07256 5.02581 1.87502 5.50272 1.87502 6V21C1.87352 21.3571 1.97494 21.707 2.16714 22.0079C2.35934 22.3089 2.63418 22.5481 2.95877 22.6969C3.20793 22.8135 3.47958 22.8743 3.7547 22.875C4.19498 22.8739 4.62068 22.7171 4.95658 22.4325L4.96783 22.4222L7.91908 19.875H20.25C20.7473 19.875 21.2242 19.6775 21.5758 19.3258C21.9275 18.9742 22.125 18.4973 22.125 18V6C22.125 5.50272 21.9275 5.02581 21.5758 4.67417C21.2242 4.32254 20.7473 4.125 20.25 4.125ZM19.875 17.625H7.50002C7.23 17.6245 6.96894 17.7218 6.76502 17.8988L4.12502 20.1778V6.375H19.875V17.625ZM7.87502 10.125C7.87502 9.82663 7.99354 9.54048 8.20452 9.3295C8.4155 9.11853 8.70165 9 9.00002 9H15C15.2984 9 15.5845 9.11853 15.7955 9.3295C16.0065 9.54048 16.125 9.82663 16.125 10.125C16.125 10.4234 16.0065 10.7095 15.7955 10.9205C15.5845 11.1315 15.2984 11.25 15 11.25H9.00002C8.70165 11.25 8.4155 11.1315 8.20452 10.9205C7.99354 10.7095 7.87502 10.4234 7.87502 10.125ZM7.87502 13.875C7.87502 13.5766 7.99354 13.2905 8.20452 13.0795C8.4155 12.8685 8.70165 12.75 9.00002 12.75H15C15.2984 12.75 15.5845 12.8685 15.7955 13.0795C16.0065 13.2905 16.125 13.5766 16.125 13.875C16.125 14.1734 16.0065 14.4595 15.7955 14.6705C15.5845 14.8815 15.2984 15 15 15H9.00002C8.70165 15 8.4155 14.8815 8.20452 14.6705C7.99354 14.4595 7.87502 14.1734 7.87502 13.875Z" fill="#130032"/>
</svg>
