<svg width="24" height="24" viewBox="0 0 24 24" fill="none" xmlns="http://www.w3.org/2000/svg">
<path d="M5.3325 2.9927C5.19986 2.84698 5.03127 2.73866 4.8436 2.67858C4.65594 2.61849 4.45579 2.60875 4.26318 2.65033C4.07057 2.69191 3.89226 2.78335 3.74609 2.9155C3.59993 3.04764 3.49103 3.21586 3.43031 3.40332C2.99521 3.47861 2.60063 3.70504 2.31611 4.04273C2.03159 4.38042 1.87538 4.80769 1.875 5.24926V17.2493C1.875 17.7465 2.07254 18.2235 2.42417 18.5751C2.77581 18.9267 3.25272 19.1243 3.75 19.1243H9.19781L10.3716 21.1793C10.5356 21.4663 10.7725 21.7048 11.0584 21.8707C11.3443 22.0366 11.669 22.124 11.9995 22.124C12.3301 22.124 12.6548 22.0366 12.9407 21.8707C13.2266 21.7048 13.4635 21.4663 13.6275 21.1793L14.8022 19.1243H16.9584L18.6694 21.0058C18.8711 21.2225 19.1501 21.3509 19.4458 21.3633C19.7416 21.3757 20.0303 21.2709 20.2494 21.0718C20.4685 20.8727 20.6003 20.5953 20.6162 20.2997C20.6321 20.0041 20.5308 19.7141 20.3344 19.4927L5.3325 2.9927ZM14.1497 16.8743C13.9513 16.8743 13.7565 16.9267 13.5849 17.0264C13.4133 17.126 13.2712 17.2692 13.1728 17.4414L12 19.4936L10.8272 17.4414C10.7288 17.2692 10.5867 17.126 10.4151 17.0264C10.2435 16.9267 10.0487 16.8743 9.85031 16.8743H4.125V5.62426H4.6875L14.9156 16.8743H14.1497ZM22.125 5.24926V16.3249C22.125 16.6233 22.0065 16.9094 21.7955 17.1204C21.5845 17.3314 21.2984 17.4499 21 17.4499C20.7016 17.4499 20.4155 17.3314 20.2045 17.1204C19.9935 16.9094 19.875 16.6233 19.875 16.3249V5.62426H10.2497C9.95132 5.62426 9.66517 5.50573 9.45419 5.29475C9.24321 5.08378 9.12469 4.79763 9.12469 4.49926C9.12469 4.20089 9.24321 3.91474 9.45419 3.70376C9.66517 3.49279 9.95132 3.37426 10.2497 3.37426H20.25C20.7473 3.37426 21.2242 3.5718 21.5758 3.92343C21.9275 4.27506 22.125 4.75198 22.125 5.24926Z" fill="#130032"/>
</svg>
