<svg width="24" height="24" viewBox="0 0 24 24" fill="none" xmlns="http://www.w3.org/2000/svg">
<path d="M20.25 3.375H3.75C3.25272 3.375 2.77581 3.57254 2.42417 3.92417C2.07254 4.27581 1.875 4.75272 1.875 5.25V17.25C1.875 17.7473 2.07254 18.2242 2.42417 18.5758C2.77581 18.9275 3.25272 19.125 3.75 19.125H9.19781L10.3716 21.18C10.5355 21.4672 10.7725 21.706 11.0585 21.872C11.3445 22.0381 11.6693 22.1256 12 22.1256C12.3307 22.1256 12.6555 22.0381 12.9415 21.872C13.2275 21.706 13.4645 21.4672 13.6284 21.18L14.8022 19.125H20.25C20.7473 19.125 21.2242 18.9275 21.5758 18.5758C21.9275 18.2242 22.125 17.7473 22.125 17.25V5.25C22.125 4.75272 21.9275 4.27581 21.5758 3.92417C21.2242 3.57254 20.7473 3.375 20.25 3.375ZM19.875 16.875H14.1497C13.9513 16.875 13.7565 16.9275 13.5849 17.0271C13.4133 17.1267 13.2712 17.2699 13.1728 17.4422L12 19.4944L10.8272 17.4422C10.7288 17.2699 10.5867 17.1267 10.4151 17.0271C10.2435 16.9275 10.0487 16.875 9.85031 16.875H4.125V5.625H19.875V16.875Z" fill="#130032"/>
</svg>
