<svg width="24" height="24" viewBox="0 0 24 24" fill="none" xmlns="http://www.w3.org/2000/svg">
<path d="M5.33253 2.99251C5.23373 2.88114 5.11382 2.79049 4.97973 2.72581C4.84564 2.66113 4.70005 2.62371 4.55139 2.61571C4.40273 2.60772 4.25397 2.6293 4.11372 2.67922C3.97346 2.72915 3.84451 2.80641 3.73434 2.90653C3.62417 3.00665 3.53496 3.12765 3.47189 3.2625C3.40883 3.39736 3.37315 3.54339 3.36694 3.69213C3.36072 3.84087 3.38409 3.98937 3.43569 4.12901C3.48729 4.26866 3.56609 4.39667 3.66753 4.50563L4.68753 5.62407C3.34626 7.33599 2.61981 9.4493 2.62503 11.6241V19.4991C2.62503 19.9964 2.82257 20.4733 3.1742 20.8249C3.52583 21.1765 4.00275 21.3741 4.50003 21.3741H12.375C14.2307 21.3716 16.0473 20.8413 17.6128 19.845L18.6675 21.0056C18.8692 21.2223 19.1482 21.3508 19.444 21.3631C19.7398 21.3755 20.0285 21.2707 20.2476 21.0717C20.4667 20.8726 20.5984 20.5951 20.6143 20.2995C20.6302 20.0039 20.529 19.714 20.3325 19.4925L5.33253 2.99251ZM12.375 19.1241H4.87503V11.6241C4.87233 10.0854 5.34586 8.58356 6.23065 7.3247L16.0744 18.1519C14.9475 18.794 13.672 19.1292 12.375 19.1241ZM22.125 11.6241C22.1292 13.0949 21.797 14.5472 21.1538 15.87C21.0237 16.139 20.7922 16.3454 20.51 16.4437C20.2278 16.542 19.9181 16.5241 19.6491 16.3941C19.3801 16.264 19.1737 16.0324 19.0754 15.7503C18.9771 15.4681 18.995 15.1584 19.125 14.8894C19.6204 13.8722 19.8769 12.7554 19.875 11.6241C19.8735 10.4149 19.5799 9.22391 19.0192 8.15256C18.4584 7.08122 17.6472 6.16119 16.6545 5.47077C15.6617 4.78035 14.5169 4.33997 13.3174 4.18711C12.1179 4.03426 10.8992 4.17344 9.76503 4.59282C9.48586 4.69424 9.17791 4.68113 8.90836 4.55637C8.63881 4.43161 8.42954 4.20531 8.3262 3.92685C8.22286 3.64838 8.23383 3.34035 8.35673 3.06994C8.47963 2.79954 8.70447 2.58871 8.98221 2.48345C10.4566 1.93781 12.041 1.75653 13.6005 1.95506C15.1601 2.15359 16.6485 2.72604 17.9392 3.62368C19.2299 4.52131 20.2845 5.71754 21.0133 7.11052C21.7421 8.50349 22.1235 10.052 22.125 11.6241Z" fill="#130032"/>
</svg>
