<svg width="24" height="24" viewBox="0 0 24 24" fill="none" xmlns="http://www.w3.org/2000/svg">
<path d="M8.25 11.25C8.25 10.9533 8.33797 10.6633 8.5028 10.4166C8.66762 10.17 8.90189 9.97771 9.17597 9.86418C9.45006 9.75065 9.75166 9.72094 10.0426 9.77882C10.3336 9.8367 10.6009 9.97956 10.8107 10.1893C11.0204 10.3991 11.1633 10.6664 11.2212 10.9574C11.2791 11.2483 11.2494 11.5499 11.1358 11.824C11.0223 12.0981 10.83 12.3324 10.5834 12.4972C10.3367 12.662 10.0467 12.75 9.75 12.75C9.35218 12.75 8.97064 12.592 8.68934 12.3107C8.40804 12.0294 8.25 11.6478 8.25 11.25ZM14.25 12.75C14.5467 12.75 14.8367 12.662 15.0834 12.4972C15.33 12.3324 15.5223 12.0981 15.6358 11.824C15.7494 11.5499 15.7791 11.2483 15.7212 10.9574C15.6633 10.6664 15.5204 10.3991 15.3107 10.1893C15.1009 9.97956 14.8336 9.8367 14.5426 9.77882C14.2517 9.72094 13.9501 9.75065 13.676 9.86418C13.4019 9.97771 13.1676 10.17 13.0028 10.4166C12.838 10.6633 12.75 10.9533 12.75 11.25C12.75 11.6478 12.908 12.0294 13.1893 12.3107C13.4706 12.592 13.8522 12.75 14.25 12.75ZM22.125 5.25V17.25C22.125 17.7473 21.9275 18.2242 21.5758 18.5758C21.2242 18.9275 20.7473 19.125 20.25 19.125H14.8022L13.6284 21.18C13.4645 21.4672 13.2275 21.706 12.9415 21.872C12.6555 22.0381 12.3307 22.1256 12 22.1256C11.6693 22.1256 11.3445 22.0381 11.0585 21.872C10.7725 21.706 10.5355 21.4672 10.3716 21.18L9.19781 19.125H3.75C3.25272 19.125 2.77581 18.9275 2.42417 18.5758C2.07254 18.2242 1.875 17.7473 1.875 17.25V5.25C1.875 4.75272 2.07254 4.27581 2.42417 3.92417C2.77581 3.57254 3.25272 3.375 3.75 3.375H20.25C20.7473 3.375 21.2242 3.57254 21.5758 3.92417C21.9275 4.27581 22.125 4.75272 22.125 5.25ZM19.875 5.625H4.125V16.875H9.85031C10.0487 16.875 10.2435 16.9275 10.4151 17.0271C10.5867 17.1267 10.7288 17.2699 10.8272 17.4422L12 19.4944L13.1728 17.4422C13.2712 17.2699 13.4133 17.1267 13.5849 17.0271C13.7565 16.9275 13.9513 16.875 14.1497 16.875H19.875V5.625Z" fill="#130032"/>
</svg>
