<svg width="24" height="24" viewBox="0 0 24 24" fill="none" xmlns="http://www.w3.org/2000/svg">
<path d="M5.33206 2.99266C5.23327 2.88129 5.11335 2.79064 4.97926 2.72596C4.84517 2.66128 4.69958 2.62386 4.55092 2.61586C4.40227 2.60786 4.2535 2.62945 4.11325 2.67937C3.973 2.72929 3.84405 2.80655 3.73387 2.90668C3.6237 3.0068 3.53449 3.12779 3.47143 3.26265C3.40836 3.3975 3.37268 3.54353 3.36647 3.69227C3.36026 3.84102 3.38362 3.98951 3.43522 4.12916C3.48682 4.2688 3.56562 4.39682 3.66706 4.50578L4.39925 5.31109C3.0568 6.8359 2.20408 8.72928 1.95196 10.7451C1.69983 12.761 2.05995 14.8061 2.9855 16.6145L1.96831 19.6548C1.85677 19.9858 1.83988 20.3414 1.91956 20.6814C1.99925 21.0215 2.17232 21.3325 2.41929 21.5795C2.66626 21.8265 2.9773 21.9995 3.31736 22.0792C3.65741 22.1589 4.01296 22.142 4.34394 22.0305L7.38425 21.017C9.04702 21.8672 10.9124 22.2414 12.7744 22.0981C14.6365 21.9548 16.4227 21.2997 17.9358 20.2052L18.6671 21.0095C18.8688 21.2262 19.1478 21.3546 19.4435 21.367C19.7393 21.3794 20.028 21.2746 20.2471 21.0755C20.4662 20.8764 20.598 20.599 20.6139 20.3034C20.6298 20.0078 20.5285 19.7179 20.3321 19.4964L5.33206 2.99266ZM11.9996 19.8742C10.617 19.8742 9.25891 19.5097 8.06206 18.8177C7.92403 18.7376 7.77056 18.6879 7.61183 18.6717C7.45311 18.6556 7.29276 18.6734 7.14144 18.7239L4.34862 19.6548L5.27956 16.862C5.33011 16.7107 5.34789 16.5504 5.33173 16.3916C5.31556 16.2329 5.26582 16.0794 5.18581 15.9414C4.38251 14.5513 4.02331 12.9488 4.15635 11.3488C4.28939 9.74873 4.90832 8.2276 5.93019 6.98922L16.4152 18.5205C15.1121 19.4038 13.5738 19.8754 11.9996 19.8742ZM22.1246 11.9992C22.1272 13.3656 21.8513 14.7181 21.3136 15.9742C21.1908 16.2395 20.9695 16.4465 20.6967 16.5515C20.4239 16.6564 20.1209 16.651 19.8519 16.5365C19.583 16.4219 19.3692 16.2072 19.2558 15.9378C19.1425 15.6683 19.1384 15.3653 19.2446 15.093C19.8335 13.7057 20.0124 12.1787 19.76 10.693C19.5076 9.20717 18.8345 7.82489 17.8205 6.70996C16.8066 5.59503 15.4942 4.79419 14.0389 4.40236C12.5837 4.01053 11.0466 4.04415 9.60987 4.49922C9.32688 4.58488 9.02154 4.5557 8.7599 4.41798C8.49826 4.28025 8.30136 4.04506 8.21179 3.76329C8.12222 3.48151 8.14717 3.17579 8.28126 2.91227C8.41536 2.64875 8.6478 2.44862 8.92831 2.35515C10.4456 1.87383 12.055 1.75677 13.626 2.01347C15.197 2.27017 16.6855 2.89341 17.9707 3.83266C19.2559 4.77192 20.3017 6.00076 21.0234 7.41961C21.7451 8.83846 22.1223 10.4074 22.1246 11.9992Z" fill="#130032"/>
</svg>
