<svg width="24" height="24" viewBox="0 0 24 24" fill="none" xmlns="http://www.w3.org/2000/svg">
<path d="M16.1246 10.1252C16.1246 10.4235 16.006 10.7097 15.7951 10.9207C15.5841 11.1316 15.2979 11.2502 14.9996 11.2502H8.99956C8.70119 11.2502 8.41504 11.1316 8.20407 10.9207C7.99309 10.7097 7.87456 10.4235 7.87456 10.1252C7.87456 9.82679 7.99309 9.54064 8.20407 9.32967C8.41504 9.11869 8.70119 9.00016 8.99956 9.00016H14.9996C15.2979 9.00016 15.5841 9.11869 15.7951 9.32967C16.006 9.54064 16.1246 9.82679 16.1246 10.1252ZM14.9996 12.7502H8.99956C8.70119 12.7502 8.41504 12.8687 8.20407 13.0797C7.99309 13.2906 7.87456 13.5768 7.87456 13.8752C7.87456 14.1735 7.99309 14.4597 8.20407 14.6707C8.41504 14.8816 8.70119 15.0002 8.99956 15.0002H14.9996C15.2979 15.0002 15.5841 14.8816 15.7951 14.6707C16.006 14.4597 16.1246 14.1735 16.1246 13.8752C16.1246 13.5768 16.006 13.2906 15.7951 13.0797C15.5841 12.8687 15.2979 12.7502 14.9996 12.7502ZM22.1246 12.0002C22.1249 13.7345 21.6798 15.4399 20.8318 16.9528C19.9838 18.4657 18.7614 19.7354 17.2818 20.6402C15.8022 21.545 14.115 22.0546 12.3819 22.1201C10.6488 22.1856 8.92792 21.8048 7.38425 21.0142L4.34394 22.0314C4.01296 22.143 3.65741 22.1598 3.31736 22.0802C2.9773 22.0005 2.66626 21.8274 2.41929 21.5804C2.17232 21.3335 1.99925 21.0224 1.91956 20.6824C1.83988 20.3423 1.85677 19.9868 1.96831 19.6558L2.98175 16.6155C2.28583 15.2523 1.90801 13.7491 1.87669 12.2189C1.84537 10.6887 2.16136 9.17134 2.80091 7.78084C3.44046 6.39035 4.38692 5.16294 5.56914 4.1909C6.75135 3.21886 8.13855 2.52749 9.62644 2.16876C11.1143 1.81003 12.6642 1.79328 14.1595 2.11978C15.6548 2.44628 17.0566 3.10752 18.2595 4.05379C19.4625 5.00006 20.4352 6.20673 21.1047 7.58308C21.7741 8.95943 22.1228 10.4696 22.1246 12.0002ZM19.8746 12.0002C19.8741 10.7922 19.5958 9.6006 19.0611 8.51745C18.5264 7.43429 17.7498 6.48865 16.7912 5.75368C15.8326 5.01871 14.7178 4.5141 13.5329 4.2789C12.3481 4.0437 11.1251 4.0842 9.95845 4.39728C8.7918 4.71037 7.71281 5.28763 6.80494 6.08442C5.89708 6.88121 5.18468 7.87617 4.72286 8.99233C4.26103 10.1085 4.06216 11.3159 4.14162 12.5212C4.22109 13.7265 4.57676 14.8974 5.18112 15.9433C5.261 16.0812 5.31067 16.2345 5.32683 16.3931C5.34299 16.5516 5.32528 16.7118 5.27487 16.863L4.34394 19.6558L7.13675 18.7248C7.25163 18.6866 7.37191 18.667 7.493 18.6667C7.69058 18.6671 7.88459 18.7195 8.0555 18.8186C9.25271 19.5113 10.6113 19.8765 11.9944 19.8774C13.3776 19.8783 14.7367 19.5149 15.9348 18.8237C17.1329 18.1325 18.1278 17.138 18.8194 15.9401C19.511 14.7422 19.875 13.3833 19.8746 12.0002Z" fill="#130032"/>
</svg>
