<svg width="24" height="24" viewBox="0 0 24 24" fill="none" xmlns="http://www.w3.org/2000/svg">
<path d="M22.1567 17.5397C22.6675 16.4286 22.9126 15.2138 22.8725 13.9915C22.8323 12.7692 22.5081 11.573 21.9254 10.4978C21.3427 9.42262 20.5176 8.4979 19.5155 7.79693C18.5134 7.09597 17.3618 6.63802 16.152 6.4594C15.2699 4.57699 13.6793 3.1197 11.7271 2.40535C9.77491 1.69099 7.61943 1.77752 5.73075 2.64607C3.84208 3.51461 2.37344 5.09471 1.64512 7.04176C0.91681 8.98882 0.987904 11.1449 1.8429 13.0397L1.20165 15.2203C1.10663 15.5435 1.1004 15.8863 1.18364 16.2126C1.26687 16.539 1.43649 16.837 1.67466 17.0751C1.91284 17.3133 2.21077 17.4829 2.53716 17.5662C2.86354 17.6494 3.20632 17.6432 3.52947 17.5481L5.71009 16.9069C6.38782 17.2175 7.10625 17.4303 7.84384 17.5388C8.71696 19.4361 10.3075 20.9092 12.2662 21.6345C14.2248 22.3598 16.3912 22.278 18.2895 21.4069L20.4701 22.0481C20.7932 22.1432 21.136 22.1494 21.4624 22.0662C21.7888 21.9829 22.0867 21.8133 22.3249 21.5751C22.5631 21.337 22.7327 21.039 22.8159 20.7126C22.8992 20.3863 22.8929 20.0435 22.7979 19.7203L22.1567 17.5397ZM5.81228 14.5781C5.70468 14.578 5.59763 14.5935 5.49447 14.6241L3.55197 15.195L4.12478 13.2516C4.20692 12.9697 4.17563 12.6669 4.03759 12.4078C3.39976 11.2191 3.21037 9.84079 3.50395 8.52411C3.79753 7.20742 4.55454 6.0401 5.63694 5.23496C6.71934 4.42982 8.05506 4.04049 9.40055 4.13796C10.746 4.23543 12.0117 4.8132 12.9668 5.76594C13.9218 6.71867 14.5027 7.98291 14.6034 9.32816C14.7042 10.6734 14.3181 12.0101 13.5156 13.0944C12.7131 14.1788 11.5476 14.9386 10.2317 15.2354C8.91571 15.5322 7.53691 15.3462 6.34665 14.7113C6.18231 14.6233 5.99868 14.5776 5.81228 14.5781ZM19.9582 16.9031C19.8202 17.1622 19.7889 17.465 19.871 17.7469L20.442 19.6903L18.5023 19.125C18.2187 19.0413 17.9136 19.0727 17.6529 19.2122C16.4435 19.8588 15.0395 20.0413 13.7049 19.7254C12.3703 19.4095 11.1972 18.6168 10.406 17.4966C12.3606 17.1435 14.1093 16.0643 15.3013 14.4755C16.4933 12.8867 17.0403 10.906 16.8326 8.93065C17.6022 9.19575 18.3051 9.62472 18.8927 10.1879C19.4804 10.7512 19.9388 11.4352 20.2363 12.1928C20.5338 12.9505 20.6634 13.7637 20.616 14.5762C20.5687 15.3888 20.3455 16.1815 19.962 16.8994L19.9582 16.9031Z" fill="#130032"/>
</svg>
