<svg width="24" height="24" viewBox="0 0 24 24" fill="none" xmlns="http://www.w3.org/2000/svg">
<path d="M11.2496 12.0002C11.2496 12.2968 11.1616 12.5868 10.9968 12.8335C10.8319 13.0802 10.5977 13.2724 10.3236 13.386C10.0495 13.4995 9.7479 13.5292 9.45693 13.4713C9.16595 13.4135 8.89868 13.2706 8.6889 13.0608C8.47912 12.851 8.33626 12.5838 8.27838 12.2928C8.22051 12.0018 8.25021 11.7002 8.36374 11.4261C8.47727 11.152 8.66953 10.9178 8.91621 10.753C9.16288 10.5881 9.45289 10.5002 9.74956 10.5002C10.1474 10.5002 10.5289 10.6582 10.8102 10.9395C11.0915 11.2208 11.2496 11.6023 11.2496 12.0002ZM14.2496 10.5002C13.9529 10.5002 13.6629 10.5881 13.4162 10.753C13.1695 10.9178 12.9773 11.152 12.8637 11.4261C12.7502 11.7002 12.7205 12.0018 12.7784 12.2928C12.8363 12.5838 12.9791 12.851 13.1889 13.0608C13.3987 13.2706 13.666 13.4135 13.9569 13.4713C14.2479 13.5292 14.5495 13.4995 14.8236 13.386C15.0977 13.2724 15.3319 13.0802 15.4968 12.8335C15.6616 12.5868 15.7496 12.2968 15.7496 12.0002C15.7496 11.6023 15.5915 11.2208 15.3102 10.9395C15.0289 10.6582 14.6474 10.5002 14.2496 10.5002ZM22.1246 12.0002C22.1249 13.7345 21.6798 15.4399 20.8318 16.9528C19.9838 18.4657 18.7614 19.7354 17.2818 20.6402C15.8022 21.545 14.115 22.0546 12.3819 22.1201C10.6488 22.1856 8.92792 21.8048 7.38425 21.0142L4.34394 22.0314C4.01296 22.143 3.65741 22.1598 3.31736 22.0802C2.9773 22.0005 2.66626 21.8274 2.41929 21.5804C2.17232 21.3335 1.99925 21.0224 1.91956 20.6824C1.83988 20.3423 1.85677 19.9868 1.96831 19.6558L2.98175 16.6155C2.28583 15.2523 1.90801 13.7491 1.87669 12.2189C1.84537 10.6887 2.16136 9.17134 2.80091 7.78084C3.44046 6.39035 4.38692 5.16294 5.56914 4.1909C6.75135 3.21886 8.13855 2.52749 9.62644 2.16876C11.1143 1.81003 12.6642 1.79328 14.1595 2.11978C15.6548 2.44628 17.0566 3.10752 18.2595 4.05379C19.4625 5.00006 20.4352 6.20673 21.1047 7.58308C21.7741 8.95943 22.1228 10.4696 22.1246 12.0002ZM19.8746 12.0002C19.8741 10.7922 19.5958 9.6006 19.0611 8.51745C18.5264 7.43429 17.7498 6.48865 16.7912 5.75368C15.8326 5.01871 14.7178 4.5141 13.5329 4.2789C12.3481 4.0437 11.1251 4.0842 9.95845 4.39728C8.7918 4.71037 7.71281 5.28763 6.80494 6.08442C5.89708 6.88121 5.18468 7.87617 4.72286 8.99233C4.26103 10.1085 4.06216 11.3159 4.14162 12.5212C4.22109 13.7265 4.57676 14.8974 5.18112 15.9433C5.261 16.0812 5.31067 16.2345 5.32683 16.3931C5.34299 16.5516 5.32528 16.7118 5.27487 16.863L4.34394 19.6558L7.13675 18.7248C7.25163 18.6866 7.37191 18.667 7.493 18.6667C7.69058 18.6671 7.88459 18.7195 8.0555 18.8186C9.25271 19.5113 10.6113 19.8765 11.9944 19.8774C13.3776 19.8783 14.7367 19.5149 15.9348 18.8237C17.1329 18.1325 18.1278 17.138 18.8194 15.9401C19.511 14.7422 19.875 13.3833 19.8746 12.0002Z" fill="#130032"/>
</svg>
