<svg width="24" height="24" viewBox="0 0 24 24" fill="none" xmlns="http://www.w3.org/2000/svg">
<path d="M21.375 4.5C21.375 4.00272 21.1775 3.52581 20.8258 3.17417C20.4742 2.82254 19.9973 2.625 19.5 2.625H4.5C4.00272 2.625 3.52581 2.82254 3.17417 3.17417C2.82254 3.52581 2.625 4.00272 2.625 4.5V19.5C2.625 19.9973 2.82254 20.4742 3.17417 20.8258C3.52581 21.1775 4.00272 21.375 4.5 21.375H19.5C19.9973 21.375 20.4742 21.1775 20.8258 20.8258C21.1775 20.4742 21.375 19.9973 21.375 19.5V4.5ZM18.0938 10.875L13.125 5.90625V4.875H14.1562L19.125 9.84375V10.875H18.0938ZM13.125 9.09375L14.9062 10.875H13.125V9.09375ZM19.125 6.65625L17.3438 4.875H19.125V6.65625ZM10.875 4.875V6.375V10.875H4.875V4.875H10.875ZM9.84375 19.125L4.875 14.1562V13.125H5.90625L10.875 18.0938V19.125H9.84375ZM10.875 14.9062L9.09375 13.125H10.875V14.9062ZM4.875 17.3438L6.65625 19.125H4.875V17.3438ZM13.125 19.125V17.625V13.125H19.125V19.125H13.125Z" fill="#130032"/>
</svg>
