<svg width="24" height="24" viewBox="0 0 24 24" fill="none" xmlns="http://www.w3.org/2000/svg">
<path d="M14.2883 8.30282L5.88829 16.5528C5.67791 16.7595 5.39478 16.8753 5.09985 16.8753C4.80493 16.8753 4.52179 16.7595 4.31142 16.5528L0.711415 13.0175C0.605968 12.914 0.521947 12.7907 0.464149 12.6547C0.406351 12.5187 0.375908 12.3726 0.374559 12.2248C0.371834 11.9264 0.487777 11.6391 0.696884 11.4261C0.800423 11.3207 0.923718 11.2366 1.05973 11.1788C1.19574 11.121 1.3418 11.0906 1.48958 11.0892C1.78802 11.0865 2.07533 11.2025 2.28829 11.4116L5.10079 14.1734L12.7124 6.69782C12.9252 6.48872 13.2124 6.37272 13.5107 6.37536C13.8091 6.378 14.0942 6.49905 14.3033 6.71189C14.5124 6.92472 14.6284 7.21191 14.6258 7.51027C14.6231 7.80863 14.5021 8.09372 14.2892 8.30282H14.2883ZM23.3024 6.70907C23.1988 6.60327 23.0753 6.51895 22.9391 6.46096C22.8028 6.40297 22.6565 6.37244 22.5084 6.37114C22.3603 6.36983 22.2135 6.39777 22.0762 6.45335C21.939 6.50892 21.814 6.59105 21.7086 6.69501L14.0999 14.1734L13.3611 13.4478C13.1483 13.2387 12.8611 13.1227 12.5627 13.1254C12.2644 13.128 11.9793 13.249 11.7702 13.4619C11.5611 13.6747 11.4451 13.9619 11.4477 14.2603C11.4503 14.5586 11.5714 14.8437 11.7842 15.0528L13.3114 16.5528C13.5218 16.7595 13.8049 16.8753 14.0999 16.8753C14.3948 16.8753 14.6779 16.7595 14.8883 16.5528L23.2883 8.30282C23.3937 8.19929 23.4776 8.076 23.5354 7.94002C23.5931 7.80403 23.6235 7.658 23.6248 7.51027C23.6261 7.36253 23.5983 7.21599 23.543 7.07901C23.4877 6.94202 23.4059 6.81727 23.3024 6.71189V6.70907Z" fill="#130032"/>
</svg>
