<svg width="24" height="24" viewBox="0 0 24 24" fill="none" xmlns="http://www.w3.org/2000/svg">
<path d="M23.0767 6.13742L23.0701 6.12992L20.8267 3.92398C20.4758 3.57328 20.0004 3.37588 19.5043 3.375C19.0083 3.37412 18.5321 3.56984 18.1801 3.9193L9.74259 12.2471L6.56821 9.16742C6.21588 8.81891 5.7399 8.62406 5.24432 8.62547C4.74874 8.62687 4.27388 8.82442 3.92353 9.17492L1.67353 11.4249C1.32259 11.7765 1.12549 12.2529 1.12549 12.7496C1.12549 13.2463 1.32259 13.7228 1.67353 14.0743L8.3879 20.8243C8.56202 20.9985 8.76875 21.1367 8.99629 21.2309C9.22382 21.3252 9.4677 21.3737 9.71399 21.3737C9.96029 21.3737 10.2042 21.3252 10.4317 21.2309C10.6592 21.1367 10.866 20.9985 11.0401 20.8243L23.0767 8.78867C23.4282 8.43706 23.6256 7.96023 23.6256 7.46305C23.6256 6.96586 23.4282 6.48904 23.0767 6.13742ZM9.71353 18.969L3.52884 12.7505L5.25009 11.0265L8.96728 14.6255C9.17846 14.8301 9.46135 14.9439 9.75537 14.9425C10.0494 14.9411 10.3312 14.8246 10.5404 14.618L19.5001 5.77648L21.2176 7.46398L9.71353 18.969Z" fill="#130032"/>
</svg>
