<svg width="24" height="24" viewBox="0 0 24 24" fill="none" xmlns="http://www.w3.org/2000/svg">
<path d="M21.7959 7.545L9.7959 19.545C9.69138 19.6499 9.56719 19.7331 9.43044 19.7899C9.2937 19.8467 9.14709 19.8759 8.99902 19.8759C8.85096 19.8759 8.70435 19.8467 8.5676 19.7899C8.43085 19.7331 8.30666 19.6499 8.20215 19.545L2.95215 14.295C2.8475 14.1904 2.76449 14.0661 2.70785 13.9294C2.65122 13.7927 2.62207 13.6461 2.62207 13.4981C2.62207 13.3501 2.65122 13.2036 2.70785 13.0669C2.76449 12.9301 2.8475 12.8059 2.95215 12.7012C3.05679 12.5966 3.18103 12.5136 3.31776 12.457C3.45448 12.4003 3.60103 12.3712 3.74902 12.3712C3.89702 12.3712 4.04356 12.4003 4.18029 12.457C4.31702 12.5136 4.44125 12.5966 4.5459 12.7012L8.99996 17.1553L20.204 5.95312C20.4154 5.74178 20.702 5.62305 21.0009 5.62305C21.2998 5.62305 21.5864 5.74178 21.7978 5.95312C22.0091 6.16447 22.1278 6.45111 22.1278 6.75C22.1278 7.04888 22.0091 7.33553 21.7978 7.54687L21.7959 7.545Z" fill="#130032"/>
</svg>
