<svg width="24" height="24" viewBox="0 0 24 24" fill="none" xmlns="http://www.w3.org/2000/svg">
<path d="M19.9584 19.6945L18.6666 20.0405L17.8631 17.0405C18.6341 16.5802 19.2342 15.8813 19.5725 15.0496C19.9108 14.2178 19.969 13.2985 19.7381 12.4308C18.5372 7.96827 16.0528 4.05702 15.9478 3.89296C15.8209 3.69488 15.635 3.54158 15.4164 3.45463C15.1978 3.36769 14.9574 3.35148 14.7291 3.40827L13.1447 3.8039C13.1447 3.30327 13.1278 2.99484 13.1259 2.94796C13.1148 2.70614 13.0259 2.47437 12.8726 2.28707C12.7192 2.09976 12.5096 1.96692 12.2747 1.90827L9.27469 1.15827C9.04637 1.10148 8.80599 1.11769 8.58737 1.20463C8.36875 1.29158 8.18289 1.44488 8.05594 1.64296C7.94719 1.80702 5.46281 5.71827 4.26656 10.1808C4.0353 11.048 4.09273 11.967 4.43018 12.7987C4.76763 13.6303 5.36673 14.3295 6.13688 14.7905L5.33344 17.7905L4.04156 17.4445C3.75339 17.3672 3.4463 17.4075 3.18785 17.5566C2.9294 17.7057 2.74076 17.9513 2.66344 18.2395C2.58611 18.5277 2.62643 18.8348 2.77552 19.0932C2.92461 19.3517 3.17026 19.5403 3.45844 19.6176L7.95844 20.8233C8.24661 20.9006 8.5537 20.8603 8.81215 20.7112C9.0706 20.5621 9.25924 20.3164 9.33656 20.0283C9.41389 19.7401 9.37357 19.433 9.22448 19.1746C9.07539 18.9161 8.82974 18.7275 8.54156 18.6501L7.51031 18.3689L8.31375 15.3689C8.94504 15.3585 9.56562 15.204 10.1281 14.9173C10.6906 14.6305 11.1801 14.219 11.5594 13.7142C11.6219 13.9973 11.6916 14.2786 11.7684 14.558C11.9997 15.426 12.5077 16.195 13.2154 16.7484C13.923 17.3018 14.7918 17.6093 15.69 17.6245L16.4934 20.6245L15.4622 20.9058C15.3195 20.9441 15.1857 21.0101 15.0686 21.1001C14.9514 21.19 14.8531 21.3022 14.7793 21.4302C14.6302 21.6886 14.5899 21.9957 14.6672 22.2839C14.7055 22.4266 14.7715 22.5603 14.8615 22.6775C14.9515 22.7947 15.0636 22.893 15.1916 22.9668C15.45 23.1159 15.7571 23.1562 16.0453 23.0789L20.5453 21.8733C20.688 21.835 20.8218 21.769 20.9389 21.679C21.0561 21.589 21.1544 21.4768 21.2282 21.3489C21.3021 21.2209 21.3499 21.0796 21.3692 20.9332C21.3884 20.7867 21.3786 20.6378 21.3403 20.4951C21.302 20.3525 21.236 20.2187 21.146 20.1015C21.056 19.9844 20.9439 19.8861 20.8159 19.8122C20.6879 19.7384 20.5467 19.6905 20.4002 19.6713C20.2537 19.6521 20.1049 19.6619 19.9622 19.7001L19.9584 19.6945ZM15.2428 7.21827L13.1034 7.75359C13.0838 7.10484 13.0856 6.55077 13.0941 6.13734L14.4647 5.79515C14.6719 6.15046 14.9419 6.63609 15.2428 7.21827ZM9.53625 3.54327L10.8919 3.88171C10.8919 4.25671 10.8919 4.7489 10.8694 5.31984C10.8694 5.40609 10.8591 5.52609 10.8534 5.67796L8.67281 5.13327C9.0075 4.4789 9.30937 3.93702 9.53625 3.54327ZM7.76531 13.0598C7.28512 12.9311 6.87571 12.6169 6.62712 12.1863C6.37853 11.7558 6.31111 11.2441 6.43969 10.7639C6.77295 9.5501 7.19277 8.36174 7.69594 7.20796L10.6903 7.95796C10.5653 9.2332 10.3545 10.4986 10.0594 11.7455C9.92818 12.2232 9.61328 12.6295 9.18344 12.8758C8.7536 13.1221 8.24377 13.1882 7.76531 13.0598ZM13.9378 13.9842C13.6015 12.6872 13.3708 11.365 13.2478 10.0308L16.2309 9.28077C16.7661 10.4875 17.2105 11.7326 17.5603 13.0055C17.689 13.4858 17.6216 13.9976 17.3729 14.4283C17.1242 14.859 16.7146 15.1732 16.2342 15.3019C15.7538 15.4305 15.242 15.3631 14.8114 15.1144C14.3807 14.8657 14.0665 14.4561 13.9378 13.9758V13.9842ZM17.3128 3.72984C17.2187 3.44688 17.2408 3.13814 17.3742 2.87147C17.5077 2.60479 17.7415 2.402 18.0244 2.30765L19.1494 1.93265C19.4295 1.84866 19.7314 1.87708 19.991 2.01189C20.2505 2.1467 20.4474 2.37729 20.5398 2.65479C20.6322 2.93229 20.6129 3.23487 20.486 3.49838C20.3591 3.7619 20.1346 3.96564 19.86 4.0664L18.735 4.4414C18.452 4.53549 18.1433 4.5134 17.8766 4.37997C17.61 4.24655 17.4072 4.01271 17.3128 3.72984ZM22.125 6.74952C22.125 7.04789 22.0065 7.33404 21.7955 7.54502C21.5845 7.756 21.2984 7.87452 21 7.87452H19.875C19.5766 7.87452 19.2905 7.756 19.0795 7.54502C18.8685 7.33404 18.75 7.04789 18.75 6.74952C18.75 6.45115 18.8685 6.16501 19.0795 5.95403C19.2905 5.74305 19.5766 5.62452 19.875 5.62452H21C21.2984 5.62452 21.5845 5.74305 21.7955 5.95403C22.0065 6.16501 22.125 6.45115 22.125 6.74952ZM2.68313 1.89421C2.77748 1.61134 2.98027 1.3775 3.24694 1.24407C3.51362 1.11065 3.82236 1.08856 4.10531 1.18265L5.23031 1.55765C5.37457 1.60089 5.50867 1.67266 5.62468 1.7687C5.74068 1.86474 5.83622 1.98309 5.90563 2.11674C5.97504 2.25039 6.01692 2.39661 6.02877 2.54674C6.04062 2.69687 6.0222 2.84786 5.97462 2.99074C5.92703 3.13362 5.85124 3.2655 5.75174 3.37855C5.65224 3.49159 5.53106 3.58351 5.39537 3.64886C5.25969 3.7142 5.11227 3.75163 4.96185 3.75894C4.81142 3.76625 4.66107 3.74328 4.51969 3.6914L3.39469 3.3164C3.11182 3.22205 2.87798 3.01925 2.74455 2.75258C2.61113 2.4859 2.58903 2.17717 2.68313 1.89421ZM3.375 7.12452H2.25C1.95163 7.12452 1.66548 7.006 1.4545 6.79502C1.24353 6.58404 1.125 6.29789 1.125 5.99952C1.125 5.70115 1.24353 5.41501 1.4545 5.20403C1.66548 4.99305 1.95163 4.87452 2.25 4.87452H3.375C3.67337 4.87452 3.95952 4.99305 4.1705 5.20403C4.38147 5.41501 4.5 5.70115 4.5 5.99952C4.5 6.29789 4.38147 6.58404 4.1705 6.79502C3.95952 7.006 3.67337 7.12452 3.375 7.12452Z" fill="#130032"/>
</svg>
