<svg width="24" height="24" viewBox="0 0 24 24" fill="none" xmlns="http://www.w3.org/2000/svg">
<path d="M17.25 2.625C17.1404 2.62491 17.0314 2.64102 16.9266 2.67281L1.92656 7.17281C1.69492 7.24235 1.49185 7.38468 1.34746 7.57871C1.20308 7.77275 1.12507 8.00814 1.125 8.25V10.5C1.125 10.7984 1.24353 11.0845 1.4545 11.2955C1.66548 11.5065 1.95163 11.625 2.25 11.625H3C3.294 11.6266 3.57584 11.7426 3.78582 11.9484C3.99581 12.1542 4.11745 12.4336 4.125 12.7275C4.12681 12.8733 4.09928 13.018 4.04404 13.153C3.9888 13.2879 3.90697 13.4104 3.80344 13.5131C3.69196 13.6268 3.55911 13.7172 3.41254 13.7793C3.26597 13.8414 3.10856 13.874 2.94937 13.875H2.25C1.95163 13.875 1.66548 13.9935 1.4545 14.2045C1.24353 14.4155 1.125 14.7016 1.125 15V18C1.125 18.2984 1.24353 18.5845 1.4545 18.7955C1.66548 19.0065 1.95163 19.125 2.25 19.125H21C21.4973 19.125 21.9742 18.9275 22.3258 18.5758C22.6775 18.2242 22.875 17.7473 22.875 17.25V8.25C22.8733 6.75869 22.2801 5.32896 21.2256 4.27444C20.171 3.21993 18.7413 2.62674 17.25 2.625ZM17.4037 4.875C18.0749 4.90664 18.7215 5.13757 19.2608 5.53833C19.8002 5.93909 20.2079 6.49149 20.4319 7.125H9.915L17.4037 4.875ZM14.25 9.375H17.25V9.75C17.25 10.1478 17.092 10.5294 16.8107 10.8107C16.5294 11.092 16.1478 11.25 15.75 11.25C15.3522 11.25 14.9706 11.092 14.6893 10.8107C14.408 10.5294 14.25 10.1478 14.25 9.75V9.375ZM9 16.875C9 16.4772 9.15804 16.0956 9.43934 15.8143C9.72064 15.533 10.1022 15.375 10.5 15.375C10.8978 15.375 11.2794 15.533 11.5607 15.8143C11.842 16.0956 12 16.4772 12 16.875H9ZM20.625 16.875H14.25C14.25 15.8804 13.8549 14.9266 13.1517 14.2233C12.4484 13.5201 11.4946 13.125 10.5 13.125C9.50544 13.125 8.55161 13.5201 7.84835 14.2233C7.14509 14.9266 6.75 15.8804 6.75 16.875H3.375V16.0978C4.14631 16 4.86257 15.6465 5.40938 15.0938C5.72389 14.7778 5.97149 14.4017 6.1374 13.9878C6.30331 13.574 6.38412 13.131 6.375 12.6853C6.35522 11.8675 6.04081 11.0844 5.48961 10.48C4.93841 9.87556 4.1875 9.49049 3.375 9.39563V9.375H12V9.75C12 10.7446 12.3951 11.6984 13.0983 12.4017C13.8016 13.1049 14.7554 13.5 15.75 13.5C16.7446 13.5 17.6984 13.1049 18.4016 12.4017C19.1049 11.6984 19.5 10.7446 19.5 9.75V9.375H20.625V16.875Z" fill="#130032"/>
</svg>
