<svg width="24" height="24" viewBox="0 0 24 24" fill="none" xmlns="http://www.w3.org/2000/svg">
<path d="M22.8751 10.5008C22.8733 9.00954 22.2801 7.57981 21.2256 6.52529C20.1711 5.47078 18.7414 4.87759 17.2501 4.87585C17.1563 4.87585 17.0672 4.87585 16.9763 4.88335C16.4988 3.97726 15.7829 3.21875 14.906 2.68962C14.029 2.1605 13.0243 1.88086 12.0001 1.88086C10.9758 1.88086 9.97106 2.1605 9.09411 2.68962C8.21716 3.21875 7.50132 3.97726 7.0238 4.88335C6.93755 4.87585 6.8438 4.87585 6.75005 4.87585C5.49559 4.87845 4.27799 5.30032 3.29082 6.07439C2.30365 6.84846 1.60356 7.9303 1.30184 9.14795C1.00012 10.3656 1.11409 11.6491 1.62564 12.7946C2.13718 13.94 3.01694 14.8816 4.12505 15.4696V19.5009C4.12505 19.9981 4.3226 20.475 4.67423 20.8267C5.02586 21.1783 5.50277 21.3759 6.00005 21.3759H18.0001C18.4973 21.3759 18.9742 21.1783 19.3259 20.8267C19.6775 20.475 19.8751 19.9981 19.8751 19.5009V15.4696C20.7796 14.9923 21.5368 14.2775 22.0654 13.4021C22.594 12.5266 22.8739 11.5235 22.8751 10.5008ZM17.6251 19.1259H6.37505V16.1118C6.4988 16.1202 6.62349 16.1259 6.75005 16.1259H17.2501C17.3766 16.1259 17.5013 16.1202 17.6251 16.1118V19.1259ZM17.2501 13.8758H16.441L16.8413 12.2737C16.9079 11.9863 16.859 11.6842 16.7051 11.4325C16.5511 11.1808 16.3045 10.9997 16.0182 10.9281C15.732 10.8566 15.4291 10.9003 15.1749 11.05C14.9206 11.1996 14.7353 11.4431 14.6588 11.728L14.1216 13.8758H13.1251V12.0008C13.1251 11.7025 13.0065 11.4163 12.7955 11.2054C12.5846 10.9944 12.2984 10.8758 12.0001 10.8758C11.7017 10.8758 11.4155 10.9944 11.2046 11.2054C10.9936 11.4163 10.8751 11.7025 10.8751 12.0008V13.8758H9.87849L9.3413 11.728C9.30757 11.5825 9.24519 11.4452 9.15783 11.3241C9.07046 11.2029 8.95984 11.1004 8.83243 11.0225C8.70502 10.9445 8.56336 10.8927 8.41572 10.8701C8.26809 10.8475 8.11742 10.8545 7.97252 10.8907C7.82762 10.927 7.69139 10.9917 7.57176 11.0811C7.45214 11.1705 7.35152 11.2829 7.27577 11.4116C7.20003 11.5404 7.15067 11.6829 7.13059 11.8309C7.11051 11.9789 7.1201 12.1294 7.1588 12.2737L7.55911 13.8758H6.75005C5.8866 13.8755 5.05611 13.5443 4.42945 12.9503C3.80279 12.3563 3.42762 11.5447 3.38114 10.6825C3.33466 9.82033 3.62041 8.97311 4.17958 8.31518C4.73876 7.65725 5.52883 7.23866 6.38724 7.14554C6.37974 7.26366 6.37505 7.38179 6.37505 7.50085C6.37505 7.79922 6.49358 8.08537 6.70456 8.29634C6.91554 8.50732 7.20168 8.62585 7.50005 8.62585C7.79842 8.62585 8.08457 8.50732 8.29555 8.29634C8.50653 8.08537 8.62505 7.79922 8.62505 7.50085C8.62505 6.60574 8.98063 5.7473 9.61357 5.11436C10.2465 4.48143 11.1049 4.12585 12.0001 4.12585C12.8952 4.12585 13.7536 4.48143 14.3865 5.11436C15.0195 5.7473 15.3751 6.60574 15.3751 7.50085C15.3751 7.79922 15.4936 8.08537 15.7046 8.29634C15.9155 8.50732 16.2017 8.62585 16.5001 8.62585C16.7984 8.62585 17.0846 8.50732 17.2955 8.29634C17.5065 8.08537 17.6251 7.79922 17.6251 7.50085C17.6251 7.38179 17.6204 7.26366 17.6129 7.14554C18.4713 7.23866 19.2614 7.65725 19.8205 8.31518C20.3797 8.97311 20.6654 9.82033 20.619 10.6825C20.5725 11.5447 20.1973 12.3563 19.5707 12.9503C18.944 13.5443 18.1135 13.8755 17.2501 13.8758Z" fill="#130032"/>
</svg>
