<svg width="24" height="24" viewBox="0 0 24 24" fill="none" xmlns="http://www.w3.org/2000/svg">
<path d="M16.5001 6.37415C16.3238 6.37415 16.1476 6.38165 15.9732 6.39477C15.4406 5.5382 14.7674 4.77754 13.982 4.14477C10.3126 1.1804 5.30259 1.8554 5.09071 1.8854C4.86499 1.91709 4.65421 2.0166 4.48631 2.17076C4.3184 2.32491 4.20128 2.52643 4.15045 2.74863C4.09963 2.97083 4.1175 3.20323 4.2017 3.41505C4.2859 3.62686 4.43246 3.80811 4.62196 3.93477C6.04884 4.88352 6.76227 6.41634 7.0979 7.9679C5.98197 8.14916 4.92519 8.59337 4.01489 9.26382C3.10459 9.93428 2.3669 10.8117 1.86278 11.8237C1.35866 12.8356 1.10259 13.953 1.11571 15.0835C1.12884 16.214 1.4108 17.3251 1.93828 18.325C2.46577 19.325 3.22364 20.1851 4.14926 20.8342C5.07489 21.4833 6.1417 21.9029 7.26154 22.0582C8.38138 22.2135 9.5221 22.1001 10.5894 21.7273C11.6568 21.3545 12.6201 20.7331 13.3998 19.9145C14.3639 20.3803 15.4206 20.6229 16.4914 20.6241C17.5622 20.6254 18.6194 20.3853 19.5846 19.9217C20.5498 19.458 21.3981 18.7828 22.0665 17.9462C22.7348 17.1096 23.206 16.1332 23.4449 15.0894C23.6839 14.0456 23.6846 12.9614 23.4469 11.9174C23.2092 10.8733 22.7392 9.89628 22.0719 9.05887C21.4046 8.22145 20.5571 7.54521 19.5925 7.08041C18.6278 6.61561 17.5709 6.37421 16.5001 6.37415ZM14.3663 11.3485C14.0478 10.8178 13.6621 10.3303 13.2188 9.89821C13.6615 9.49568 14.1744 9.17791 14.732 8.96071C14.9459 9.53539 15.1066 10.1285 15.212 10.7326C15.0317 10.7591 14.8605 10.829 14.7132 10.9363C14.5659 11.0436 14.4469 11.185 14.3663 11.3485ZM12.5804 5.9054C12.9709 6.22247 13.3241 6.58291 13.6332 6.97977C12.7722 7.35816 11.9942 7.90261 11.3438 8.58196C10.7267 8.28374 10.0696 8.07689 9.3929 7.9679C9.16134 6.66009 8.71884 5.31009 7.92946 4.12415C9.35446 4.28165 11.1329 4.73165 12.5804 5.9054ZM8.25009 19.8741C7.03563 19.873 5.86533 19.4186 4.96832 18.5999C4.07131 17.7812 3.51218 16.6571 3.40041 15.4478C3.28864 14.2385 3.63227 13.031 4.36403 12.0618C5.09579 11.0925 6.16298 10.4313 7.35665 10.2076C7.37531 10.8831 7.35183 11.5591 7.28634 12.2316C7.00572 12.193 6.72087 12.2617 6.48868 12.424C6.25648 12.5862 6.09404 12.8301 6.03378 13.1068C5.97353 13.3836 6.0199 13.6729 6.16363 13.917C6.30736 14.1611 6.53788 14.342 6.80915 14.4235C7.75116 14.691 8.74902 14.691 9.69102 14.4235C9.93583 14.3514 10.1488 14.1981 10.295 13.9889C10.4412 13.7797 10.512 13.527 10.4956 13.2723C10.4792 13.0177 10.3768 12.7761 10.205 12.5873C10.0333 12.3985 9.80242 12.2738 9.5504 12.2335C9.60564 11.5973 9.62723 10.9586 9.61509 10.3201C10.7409 10.6493 11.7102 11.3733 12.3453 12.3594C12.9805 13.3455 13.2388 14.5275 13.0729 15.6886C12.907 16.8498 12.328 17.9122 11.4422 18.681C10.5563 19.4497 9.42301 19.8734 8.25009 19.8741ZM16.5001 18.3741C15.8824 18.3746 15.2703 18.2576 14.6963 18.0291C15.4503 16.4337 15.584 14.6149 15.0713 12.9263C16.0111 13.192 17.006 13.192 17.9457 12.9263C18.215 12.8457 18.4443 12.6673 18.5886 12.4261C18.7328 12.1849 18.7816 11.8985 18.7253 11.6232C18.669 11.3478 18.5117 11.1035 18.2843 10.9384C18.0569 10.7732 17.7759 10.6991 17.4967 10.7307C17.3947 10.0264 17.2342 9.33177 17.0166 8.65415C18.2532 8.79184 19.3903 9.39711 20.195 10.346C20.9998 11.2948 21.4113 12.5155 21.3453 13.7579C21.2792 15.0003 20.7407 16.1705 19.8399 17.0287C18.9391 17.887 17.7443 18.3683 16.5001 18.3741Z" fill="#130032"/>
</svg>
