<svg width="24" height="24" viewBox="0 0 24 24" fill="none" xmlns="http://www.w3.org/2000/svg">
<path d="M18.9066 5.24063C19.6125 4.04907 19.5741 3.40032 19.3819 3.26251C19.1308 3.12705 18.9405 2.90125 18.8496 2.6308C18.7587 2.36036 18.774 2.06549 18.8923 1.80587C19.0106 1.54625 19.2231 1.34128 19.4869 1.23245C19.7506 1.12362 20.0458 1.11906 20.3128 1.21969C20.6197 1.3626 20.8934 1.56812 21.1162 1.82306C21.339 2.07799 21.506 2.3767 21.6066 2.70001C21.9441 3.72376 21.6872 4.96594 20.8434 6.39188C20.1375 7.58251 20.1759 8.23219 20.3681 8.37001C20.6317 8.49842 20.8347 8.72465 20.9339 9.00052C21.0332 9.27638 21.0208 9.58009 20.8995 9.84698C20.7781 10.1139 20.5574 10.3228 20.2843 10.4294C20.0111 10.536 19.7072 10.5317 19.4372 10.4175C19.1306 10.2741 18.8572 10.0684 18.6344 9.81357C18.4117 9.55871 18.2445 9.26024 18.1434 8.93719C17.8059 7.90782 18.0628 6.66563 18.9066 5.24063ZM13.6434 8.93251C13.7445 9.25555 13.9117 9.55402 14.1344 9.80888C14.3572 10.0637 14.6306 10.2694 14.9372 10.4128C15.2072 10.527 15.5111 10.5313 15.7843 10.4247C16.0574 10.3181 16.2781 10.1092 16.3995 9.84229C16.5208 9.5754 16.5332 9.27169 16.4339 8.99583C16.3347 8.71996 16.1317 8.49374 15.8681 8.36532C15.6806 8.22751 15.6375 7.57782 16.3434 6.38719C17.1872 4.96126 17.4441 3.71907 17.1066 2.69532C17.0055 2.37287 16.8382 2.07507 16.6154 1.82098C16.3926 1.56689 16.1193 1.36209 15.8128 1.21969C15.5428 1.10551 15.2389 1.10124 14.9657 1.20781C14.6926 1.31437 14.4719 1.52334 14.3505 1.79023C14.2292 2.05711 14.2168 2.36082 14.3161 2.63668C14.4153 2.91255 14.6183 3.13878 14.8819 3.26719C15.0694 3.40501 15.1125 4.05376 14.4066 5.24532C13.5628 6.66563 13.3059 7.90782 13.6434 8.93251ZM20.3325 19.4944C20.4339 19.6033 20.5127 19.7314 20.5643 19.871C20.6159 20.0106 20.6393 20.1591 20.6331 20.3079C20.6269 20.4566 20.5912 20.6027 20.5281 20.7375C20.4651 20.8724 20.3759 20.9934 20.2657 21.0935C20.1555 21.1936 20.0266 21.2709 19.8863 21.3208C19.7461 21.3707 19.5973 21.3923 19.4486 21.3843C19.3 21.3763 19.1544 21.3389 19.0203 21.2742C18.8862 21.2095 18.7663 21.1189 18.6675 21.0075L16.275 18.3759H3C2.50272 18.3759 2.02581 18.1784 1.67417 17.8268C1.32254 17.4751 1.125 16.9982 1.125 16.5009V13.5009C1.125 13.0037 1.32254 12.5267 1.67417 12.1751C2.02581 11.8235 2.50272 11.6259 3 11.6259H10.1391L3.67031 4.50751C3.5631 4.39981 3.47882 4.27151 3.42255 4.13034C3.36629 3.98918 3.33921 3.83807 3.34294 3.68616C3.34668 3.53424 3.38116 3.38465 3.44429 3.24642C3.50743 3.10819 3.59791 2.98419 3.71029 2.88189C3.82266 2.77959 3.9546 2.70112 4.09813 2.65121C4.24167 2.6013 4.39383 2.58099 4.54543 2.59151C4.69703 2.60202 4.84493 2.64314 4.9802 2.71238C5.11548 2.78162 5.23532 2.87755 5.3325 2.99438L20.3325 19.4944ZM3.375 16.1259H7.125V13.8759H3.375V16.1259ZM14.2294 16.1259L12.1875 13.8759H9.375V16.1259H14.2294ZM21 11.6259H17.7497C17.4513 11.6259 17.1652 11.7445 16.9542 11.9554C16.7432 12.1664 16.6247 12.4526 16.6247 12.7509C16.6247 13.0493 16.7432 13.3355 16.9542 13.5464C17.1652 13.7574 17.4513 13.8759 17.7497 13.8759H20.625V17.1516C20.625 17.4499 20.7435 17.7361 20.9545 17.9471C21.1655 18.158 21.4516 18.2766 21.75 18.2766C22.0484 18.2766 22.3345 18.158 22.5455 17.9471C22.7565 17.7361 22.875 17.4499 22.875 17.1516V13.5009C22.875 13.0037 22.6775 12.5267 22.3258 12.1751C21.9742 11.8235 21.4973 11.6259 21 11.6259Z" fill="#130032"/>
</svg>
