<svg width="24" height="24" viewBox="0 0 24 24" fill="none" xmlns="http://www.w3.org/2000/svg">
<path d="M19.5 2.625H4.5C4.00272 2.625 3.52581 2.82254 3.17417 3.17417C2.82254 3.52581 2.625 4.00272 2.625 4.5V19.5C2.625 19.9973 2.82254 20.4742 3.17417 20.8258C3.52581 21.1775 4.00272 21.375 4.5 21.375H19.5C19.9973 21.375 20.4742 21.1775 20.8258 20.8258C21.1775 20.4742 21.375 19.9973 21.375 19.5V4.5C21.375 4.00272 21.1775 3.52581 20.8258 3.17417C20.4742 2.82254 19.9973 2.625 19.5 2.625ZM4.875 4.875H7.125V13.8019C6.69606 14.0495 6.36081 14.4318 6.17127 14.8894C5.98173 15.347 5.94847 15.8544 6.07667 16.3328C6.20486 16.8112 6.48734 17.234 6.88029 17.5355C7.27324 17.837 7.7547 18.0004 8.25 18.0004C8.7453 18.0004 9.22676 17.837 9.61971 17.5355C10.0127 17.234 10.2951 16.8112 10.4233 16.3328C10.5515 15.8544 10.5183 15.347 10.3287 14.8894C10.1392 14.4318 9.80394 14.0495 9.375 13.8019V11.7188L13.125 15.4688V19.125H4.875V4.875ZM19.125 19.125H15.375V15C15.3751 14.8522 15.3461 14.7059 15.2897 14.5693C15.2332 14.4327 15.1504 14.3086 15.0459 14.2041L9.375 8.53125V4.875H11.625V6.75C11.6249 6.89778 11.6539 7.04414 11.7103 7.18071C11.7668 7.31728 11.8496 7.44138 11.9541 7.54594L13.5769 9.16781C13.4492 9.64618 13.4829 10.1533 13.6727 10.6106C13.8625 11.0679 14.1979 11.4498 14.6268 11.6971C15.0557 11.9444 15.5542 12.0434 16.045 11.9787C16.5359 11.9139 16.9917 11.6891 17.3418 11.339C17.6919 10.9889 17.9167 10.5331 17.9815 10.0422C18.0462 9.55136 17.9473 9.05286 17.6999 8.62395C17.4526 8.19505 17.0707 7.85971 16.6134 7.6699C16.1561 7.48008 15.649 7.4464 15.1706 7.57406L13.875 6.28125V4.875H19.125V19.125Z" fill="#130032"/>
</svg>
