<svg width="24" height="24" viewBox="0 0 24 24" fill="none" xmlns="http://www.w3.org/2000/svg">
<path d="M22.125 12.0009C22.125 14.6862 21.0583 17.2615 19.1595 19.1603C17.2607 21.0591 14.6853 22.1259 12 22.1259C9.31468 22.1259 6.73935 21.0591 4.84054 19.1603C2.94174 17.2615 1.875 14.6862 1.875 12.0009C1.875 8.01463 4.19344 4.37526 7.78125 2.72901C7.91606 2.66328 8.06266 2.62518 8.21242 2.61694C8.36217 2.60869 8.51206 2.63048 8.65328 2.68101C8.79449 2.73154 8.92417 2.8098 9.0347 2.91118C9.14523 3.01256 9.23437 3.13502 9.29688 3.27135C9.35939 3.40769 9.39401 3.55515 9.3987 3.70505C9.40339 3.85496 9.37806 4.0043 9.32419 4.14427C9.27033 4.28425 9.18902 4.41204 9.08504 4.52013C8.98107 4.62823 8.85653 4.71444 8.71875 4.7737C5.92875 6.05432 4.125 8.8912 4.125 12.0009C4.125 14.0895 4.95468 16.0925 6.43153 17.5694C7.90838 19.0462 9.91142 19.8759 12 19.8759C14.0886 19.8759 16.0916 19.0462 17.5685 17.5694C19.0453 16.0925 19.875 14.0895 19.875 12.0009C19.875 8.8912 18.0713 6.05432 15.2812 4.7737C15.1435 4.71444 15.0189 4.62823 14.915 4.52013C14.811 4.41204 14.7297 4.28425 14.6758 4.14427C14.6219 4.0043 14.5966 3.85496 14.6013 3.70505C14.606 3.55515 14.6406 3.40769 14.7031 3.27135C14.7656 3.13502 14.8548 3.01256 14.9653 2.91118C15.0758 2.8098 15.2055 2.73154 15.3467 2.68101C15.4879 2.63048 15.6378 2.60869 15.7876 2.61694C15.9373 2.62518 16.0839 2.66328 16.2188 2.72901C19.8066 4.37526 22.125 8.01463 22.125 12.0009Z" fill="#130032"/>
</svg>
