<svg width="24" height="24" viewBox="0 0 24 24" fill="none" xmlns="http://www.w3.org/2000/svg">
<path d="M12 1.875C9.99747 1.875 8.0399 2.46882 6.37486 3.58137C4.70981 4.69392 3.41206 6.27523 2.64572 8.12533C1.87939 9.97543 1.67888 12.0112 2.06955 13.9753C2.46023 15.9393 3.42454 17.7435 4.84055 19.1595C6.25656 20.5755 8.06066 21.5398 10.0247 21.9305C11.9888 22.3211 14.0246 22.1206 15.8747 21.3543C17.7248 20.5879 19.3061 19.2902 20.4186 17.6251C21.5312 15.9601 22.125 14.0025 22.125 12C22.122 9.3156 21.0543 6.74199 19.1562 4.84383C17.258 2.94567 14.6844 1.87798 12 1.875ZM13.125 4.20656C13.9049 4.31864 14.6635 4.54778 15.375 4.88625V19.1138C14.6635 19.4522 13.9049 19.6814 13.125 19.7934V4.20656ZM4.125 12C4.12753 10.1071 4.81081 8.27829 6.05006 6.84747C7.28932 5.41664 9.00187 4.47929 10.875 4.20656V19.7934C9.00187 19.5207 7.28932 18.5834 6.05006 17.1525C4.81081 15.7217 4.12753 13.8929 4.125 12ZM17.625 17.5041V6.49594C19.0671 7.96503 19.875 9.9414 19.875 12C19.875 14.0586 19.0671 16.035 17.625 17.5041Z" fill="#130032"/>
</svg>
