<svg width="24" height="24" viewBox="0 0 24 24" fill="none" xmlns="http://www.w3.org/2000/svg">
<path d="M19.16 4.83737C17.5029 3.17911 15.322 2.14677 12.989 1.91629C10.656 1.68581 8.31531 2.27144 6.36572 3.57338C4.41613 4.87533 2.97832 6.81303 2.2973 9.05628C1.61628 11.2995 1.7342 13.7095 2.63096 15.8756C3.52771 18.0416 5.14782 19.8297 7.2152 20.9351C9.28258 22.0405 11.6693 22.3948 13.9686 21.9377C16.268 21.4806 18.3377 20.2403 19.825 18.4281C21.3124 16.616 22.1253 14.3442 22.1254 11.9999C22.1253 9.31372 21.0587 6.73749 19.16 4.83737ZM16.5004 18.4686C16.0318 18.796 15.5288 19.0711 15.0004 19.2889V10.5936L16.5004 9.09362V18.4686ZM6.4316 6.42925C7.77138 5.09156 9.54786 4.28078 11.4363 4.14513C13.3246 4.00948 15.1988 4.55804 16.716 5.6905L5.69285 16.7183C4.55911 15.2007 4.0098 13.3256 4.14547 11.4362C4.28113 9.5467 5.09269 7.7693 6.4316 6.42925ZM9.00035 16.5936V19.2833C8.38975 19.0322 7.81331 18.7049 7.28473 18.3092L9.00035 16.5936ZM11.2504 19.8392V14.3436L12.7504 12.8436V19.8411C12.2514 19.8878 11.7492 19.8872 11.2504 19.8392ZM18.7504 16.0639V7.93581C19.4871 9.1634 19.8763 10.5682 19.8763 11.9999C19.8763 13.4316 19.4871 14.8364 18.7504 16.0639Z" fill="#130032"/>
</svg>
