<svg width="24" height="24" viewBox="0 0 24 24" fill="none" xmlns="http://www.w3.org/2000/svg">
<path d="M8.66019 3.56807C8.6231 3.42495 8.61459 3.27592 8.63514 3.12951C8.65569 2.98309 8.7049 2.84217 8.77996 2.71478C8.85501 2.5874 8.95444 2.47606 9.07255 2.38713C9.19067 2.2982 9.32515 2.23343 9.46832 2.19651C11.1286 1.76783 12.8705 1.76783 14.5308 2.19651C14.6771 2.23037 14.8151 2.29317 14.9367 2.38119C15.0583 2.46922 15.1611 2.58069 15.2389 2.70905C15.3168 2.83741 15.3682 2.98005 15.3901 3.12858C15.4119 3.2771 15.4039 3.4285 15.3663 3.57386C15.3288 3.71922 15.2625 3.85559 15.1715 3.97494C15.0804 4.09429 14.9663 4.19421 14.8361 4.26881C14.7058 4.34341 14.5619 4.39117 14.4129 4.40929C14.2638 4.42742 14.1127 4.41552 13.9683 4.37432C12.6769 4.04136 11.3222 4.04136 10.0308 4.37432C9.74215 4.449 9.43565 4.40604 9.17865 4.25486C8.92164 4.10368 8.73517 3.85666 8.66019 3.56807ZM4.77519 4.90776C3.57421 6.13137 2.70329 7.63967 2.24394 9.29151C2.20449 9.43395 2.19349 9.58278 2.21158 9.72947C2.22967 9.87617 2.27649 10.0179 2.34936 10.1465C2.42223 10.275 2.51973 10.388 2.63628 10.4789C2.75284 10.5698 2.88616 10.6369 3.02863 10.6762C3.1264 10.7029 3.22728 10.7164 3.32863 10.7165C3.57463 10.7164 3.81381 10.6357 4.00954 10.4867C4.20528 10.3377 4.34678 10.1286 4.41238 9.89151C4.76963 8.60725 5.44703 7.4347 6.38113 6.4837C6.48461 6.37825 6.5663 6.25345 6.62155 6.11643C6.6768 5.97941 6.70452 5.83286 6.70312 5.68512C6.70173 5.53739 6.67125 5.39138 6.61343 5.25543C6.55561 5.11947 6.47158 4.99624 6.36613 4.89276C6.26068 4.78928 6.13589 4.70759 5.99887 4.65234C5.86185 4.59709 5.71529 4.56937 5.56755 4.57077C5.41982 4.57216 5.27381 4.60264 5.13786 4.66046C5.0019 4.71828 4.87867 4.80231 4.77519 4.90776ZM4.41144 14.1084C4.32681 13.8265 4.13509 13.589 3.87739 13.4468C3.61969 13.3047 3.31654 13.2691 3.03295 13.3479C2.74936 13.4266 2.50793 13.6134 2.36043 13.8681C2.21293 14.1228 2.17111 14.4251 2.24394 14.7103C2.70262 16.3629 3.57361 17.872 4.77519 19.0959C4.98814 19.2894 5.26716 19.394 5.55487 19.3881C5.84257 19.3823 6.11708 19.2663 6.32194 19.0643C6.5268 18.8622 6.64642 18.5892 6.65621 18.3016C6.666 18.014 6.56521 17.7336 6.37457 17.5181C5.44224 16.5659 4.76678 15.3927 4.41144 14.1084ZM13.9683 19.6274C12.677 19.9609 11.3221 19.9609 10.0308 19.6274C9.88645 19.5862 9.7353 19.5744 9.58627 19.5925C9.43724 19.6106 9.29335 19.6584 9.16307 19.733C9.03278 19.8076 8.91875 19.9075 8.82768 20.0268C8.73662 20.1462 8.67036 20.2826 8.63281 20.4279C8.59527 20.5733 8.5872 20.7247 8.60908 20.8732C8.63096 21.0217 8.68234 21.1644 8.7602 21.2927C8.83806 21.4211 8.94083 21.5326 9.06244 21.6206C9.18406 21.7086 9.32206 21.7714 9.46832 21.8053C11.1286 22.2339 12.8705 22.2339 14.5308 21.8053C14.6771 21.7714 14.8151 21.7086 14.9367 21.6206C15.0583 21.5326 15.1611 21.4211 15.2389 21.2927C15.3168 21.1644 15.3682 21.0217 15.3901 20.8732C15.4119 20.7247 15.4039 20.5733 15.3663 20.4279C15.3288 20.2826 15.2625 20.1462 15.1715 20.0268C15.0804 19.9075 14.9663 19.8076 14.8361 19.733C14.7058 19.6584 14.5619 19.6106 14.4129 19.5925C14.2638 19.5744 14.1127 19.5862 13.9683 19.6274ZM20.9733 13.3256C20.6863 13.2473 20.3799 13.2859 20.1213 13.433C19.8627 13.5801 19.6728 13.8236 19.5933 14.1103C19.2361 15.3945 18.5587 16.5671 17.6246 17.5181C17.4155 17.7309 17.2995 18.0181 17.3021 18.3165C17.3047 18.6148 17.4258 18.8999 17.6386 19.109C17.8515 19.3181 18.1387 19.4341 18.437 19.4315C18.7354 19.4288 19.0205 19.3078 19.2296 19.0949C20.4304 17.8709 21.3013 16.3623 21.7608 14.7103C21.8002 14.5676 21.811 14.4185 21.7927 14.2716C21.7744 14.1247 21.7272 13.9829 21.654 13.8543C21.5808 13.7256 21.4828 13.6127 21.3659 13.522C21.2489 13.4313 21.1152 13.3645 20.9724 13.3256H20.9733ZM19.5886 9.89339C19.6733 10.1753 19.865 10.4128 20.1227 10.5549C20.3804 10.6971 20.6835 10.7326 20.9671 10.6539C21.2507 10.5751 21.4921 10.3884 21.6396 10.1337C21.7871 9.87902 21.829 9.57667 21.7561 9.29151C21.2975 7.63884 20.4265 6.12977 19.2249 4.90589C19.1233 4.79232 18.9998 4.70056 18.8617 4.63617C18.7236 4.57179 18.5739 4.53612 18.4216 4.53133C18.2693 4.52654 18.1177 4.55273 17.9758 4.60831C17.834 4.66389 17.7049 4.74771 17.5964 4.85467C17.4879 4.96163 17.4023 5.08952 17.3447 5.23057C17.2871 5.37161 17.2588 5.52289 17.2614 5.67522C17.2641 5.82754 17.2976 5.97775 17.36 6.11672C17.4224 6.2557 17.5124 6.38055 17.6246 6.4837C18.5569 7.43585 19.2323 8.60903 19.5877 9.89339H19.5886Z" fill="#130032"/>
</svg>
