<svg width="24" height="24" viewBox="0 0 24 24" fill="none" xmlns="http://www.w3.org/2000/svg">
<path d="M22.5 19.125H22.125V8.25C22.125 7.95163 22.0065 7.66548 21.7955 7.4545C21.5845 7.24353 21.2984 7.125 21 7.125H14.25C13.9516 7.125 13.6655 7.24353 13.4545 7.4545C13.2435 7.66548 13.125 7.95163 13.125 8.25V11.625H10.875V3.75C10.875 3.45163 10.7565 3.16548 10.5455 2.9545C10.3345 2.74353 10.0484 2.625 9.75 2.625H3C2.70163 2.625 2.41548 2.74353 2.2045 2.9545C1.99353 3.16548 1.875 3.45163 1.875 3.75V19.125H1.5C1.20163 19.125 0.915483 19.2435 0.704505 19.4545C0.493526 19.6655 0.375 19.9516 0.375 20.25C0.375 20.5484 0.493526 20.8345 0.704505 21.0455C0.915483 21.2565 1.20163 21.375 1.5 21.375H22.5C22.7984 21.375 23.0845 21.2565 23.2955 21.0455C23.5065 20.8345 23.625 20.5484 23.625 20.25C23.625 19.9516 23.5065 19.6655 23.2955 19.4545C23.0845 19.2435 22.7984 19.125 22.5 19.125ZM15.375 9.375H19.875V19.125H15.375V9.375ZM13.125 13.875V19.125H10.875V13.875H13.125ZM4.125 4.875H8.625V19.125H4.125V4.875ZM7.5 7.125V7.875C7.5 8.17337 7.38147 8.45952 7.1705 8.6705C6.95952 8.88147 6.67337 9 6.375 9C6.07663 9 5.79048 8.88147 5.5795 8.6705C5.36853 8.45952 5.25 8.17337 5.25 7.875V7.125C5.25 6.82663 5.36853 6.54048 5.5795 6.3295C5.79048 6.11853 6.07663 6 6.375 6C6.67337 6 6.95952 6.11853 7.1705 6.3295C7.38147 6.54048 7.5 6.82663 7.5 7.125ZM7.5 11.625V12.375C7.5 12.6734 7.38147 12.9595 7.1705 13.1705C6.95952 13.3815 6.67337 13.5 6.375 13.5C6.07663 13.5 5.79048 13.3815 5.5795 13.1705C5.36853 12.9595 5.25 12.6734 5.25 12.375V11.625C5.25 11.3266 5.36853 11.0405 5.5795 10.8295C5.79048 10.6185 6.07663 10.5 6.375 10.5C6.67337 10.5 6.95952 10.6185 7.1705 10.8295C7.38147 11.0405 7.5 11.3266 7.5 11.625ZM7.5 16.125V16.875C7.5 17.1734 7.38147 17.4595 7.1705 17.6705C6.95952 17.8815 6.67337 18 6.375 18C6.07663 18 5.79048 17.8815 5.5795 17.6705C5.36853 17.4595 5.25 17.1734 5.25 16.875V16.125C5.25 15.8266 5.36853 15.5405 5.5795 15.3295C5.79048 15.1185 6.07663 15 6.375 15C6.67337 15 6.95952 15.1185 7.1705 15.3295C7.38147 15.5405 7.5 15.8266 7.5 16.125ZM16.5 16.875V16.125C16.5 15.8266 16.6185 15.5405 16.8295 15.3295C17.0405 15.1185 17.3266 15 17.625 15C17.9234 15 18.2095 15.1185 18.4205 15.3295C18.6315 15.5405 18.75 15.8266 18.75 16.125V16.875C18.75 17.1734 18.6315 17.4595 18.4205 17.6705C18.2095 17.8815 17.9234 18 17.625 18C17.3266 18 17.0405 17.8815 16.8295 17.6705C16.6185 17.4595 16.5 17.1734 16.5 16.875ZM16.5 12.375V11.625C16.5 11.3266 16.6185 11.0405 16.8295 10.8295C17.0405 10.6185 17.3266 10.5 17.625 10.5C17.9234 10.5 18.2095 10.6185 18.4205 10.8295C18.6315 11.0405 18.75 11.3266 18.75 11.625V12.375C18.75 12.6734 18.6315 12.9595 18.4205 13.1705C18.2095 13.3815 17.9234 13.5 17.625 13.5C17.3266 13.5 17.0405 13.3815 16.8295 13.1705C16.6185 12.9595 16.5 12.6734 16.5 12.375Z" fill="#130032"/>
</svg>
