<svg width="24" height="24" viewBox="0 0 24 24" fill="none" xmlns="http://www.w3.org/2000/svg">
<path d="M18.75 2.62479H15.5128C15.0588 2.15069 14.5135 1.77339 13.9098 1.51564C13.3061 1.25788 12.6564 1.125 12 1.125C11.3436 1.125 10.6939 1.25788 10.0902 1.51564C9.48649 1.77339 8.9412 2.15069 8.48719 2.62479H5.25C4.75272 2.62479 4.27581 2.82234 3.92417 3.17397C3.57254 3.5256 3.375 4.00251 3.375 4.49979V20.2498C3.375 20.7471 3.57254 21.224 3.92417 21.5756C4.27581 21.9272 4.75272 22.1248 5.25 22.1248H18.75C19.2473 22.1248 19.7242 21.9272 20.0758 21.5756C20.4275 21.224 20.625 20.7471 20.625 20.2498V4.49979C20.625 4.00251 20.4275 3.5256 20.0758 3.17397C19.7242 2.82234 19.2473 2.62479 18.75 2.62479ZM14.5978 5.62479H9.40219C9.49275 5.00042 9.80517 4.42956 10.2822 4.0167C10.7593 3.60384 11.3691 3.37661 12 3.37661C12.6309 3.37661 13.2407 3.60384 13.7178 4.0167C14.1948 4.42956 14.5072 5.00042 14.5978 5.62479ZM18.375 19.8748H5.625V4.87479H7.25719C7.16967 5.2434 7.12531 5.62094 7.125 5.99979V6.74979C7.125 7.04816 7.24353 7.33431 7.4545 7.54529C7.66548 7.75627 7.95163 7.87479 8.25 7.87479H15.75C16.0484 7.87479 16.3345 7.75627 16.5455 7.54529C16.7565 7.33431 16.875 7.04816 16.875 6.74979V5.99979C16.8747 5.62094 16.8303 5.2434 16.7428 4.87479H18.375V19.8748Z" fill="#130032"/>
</svg>
