<svg width="24" height="24" viewBox="0 0 24 24" fill="none" xmlns="http://www.w3.org/2000/svg">
<path d="M16.125 15.3748C16.125 15.6732 16.0065 15.9593 15.7955 16.1703C15.5845 16.3813 15.2984 16.4998 15 16.4998H9C8.70163 16.4998 8.41548 16.3813 8.2045 16.1703C7.99353 15.9593 7.875 15.6732 7.875 15.3748C7.875 15.0764 7.99353 14.7903 8.2045 14.5793C8.41548 14.3683 8.70163 14.2498 9 14.2498H15C15.2984 14.2498 15.5845 14.3683 15.7955 14.5793C16.0065 14.7903 16.125 15.0764 16.125 15.3748ZM15 10.4998H9C8.70163 10.4998 8.41548 10.6183 8.2045 10.8293C7.99353 11.0403 7.875 11.3264 7.875 11.6248C7.875 11.9232 7.99353 12.2093 8.2045 12.4203C8.41548 12.6313 8.70163 12.7498 9 12.7498H15C15.2984 12.7498 15.5845 12.6313 15.7955 12.4203C16.0065 12.2093 16.125 11.9232 16.125 11.6248C16.125 11.3264 16.0065 11.0403 15.7955 10.8293C15.5845 10.6183 15.2984 10.4998 15 10.4998ZM20.625 4.49979V20.2498C20.625 20.7471 20.4275 21.224 20.0758 21.5756C19.7242 21.9272 19.2473 22.1248 18.75 22.1248H5.25C4.75272 22.1248 4.27581 21.9272 3.92417 21.5756C3.57254 21.224 3.375 20.7471 3.375 20.2498V4.49979C3.375 4.00251 3.57254 3.5256 3.92417 3.17397C4.27581 2.82234 4.75272 2.62479 5.25 2.62479H8.48719C8.9412 2.15069 9.48649 1.77339 10.0902 1.51564C10.6939 1.25788 11.3436 1.125 12 1.125C12.6564 1.125 13.3061 1.25788 13.9098 1.51564C14.5135 1.77339 15.0588 2.15069 15.5128 2.62479H18.75C19.2473 2.62479 19.7242 2.82234 20.0758 3.17397C20.4275 3.5256 20.625 4.00251 20.625 4.49979ZM9.40219 5.62479H14.5978C14.5072 5.00042 14.1948 4.42956 13.7178 4.0167C13.2407 3.60384 12.6309 3.37661 12 3.37661C11.3691 3.37661 10.7593 3.60384 10.2822 4.0167C9.80517 4.42956 9.49275 5.00042 9.40219 5.62479ZM18.375 4.87479H16.7428C16.8303 5.2434 16.8747 5.62094 16.875 5.99979V6.74979C16.875 7.04816 16.7565 7.33431 16.5455 7.54529C16.3345 7.75627 16.0484 7.87479 15.75 7.87479H8.25C7.95163 7.87479 7.66548 7.75627 7.4545 7.54529C7.24353 7.33431 7.125 7.04816 7.125 6.74979V5.99979C7.12531 5.62094 7.16967 5.2434 7.25719 4.87479H5.625V19.8748H18.375V4.87479Z" fill="#130032"/>
</svg>
