<svg width="24" height="24" viewBox="0 0 24 24" fill="none" xmlns="http://www.w3.org/2000/svg">
<path d="M22.1248 12.8437C21.9593 14.7676 21.2478 16.6041 20.074 18.1373C18.9002 19.6704 17.3129 20.8365 15.4989 21.4982C13.6849 22.1599 11.7197 22.2898 9.83438 21.8726C7.94909 21.4553 6.22217 20.5083 4.85681 19.143C3.49145 17.7776 2.54444 16.0507 2.12719 14.1654C1.70995 12.2801 1.83983 10.3148 2.50156 8.50085C3.16329 6.68686 4.32933 5.0996 5.86251 3.9258C7.39568 2.752 9.23221 2.0405 11.156 1.875C11.4544 1.85013 11.7504 1.94481 11.979 2.13821C12.2075 2.33161 12.3499 2.60788 12.3748 2.90625C12.3996 3.20461 12.305 3.50064 12.1116 3.7292C11.9182 3.95776 11.6419 4.10013 11.3435 4.125C9.84667 4.25336 8.41764 4.80661 7.22458 5.71965C6.03151 6.63268 5.12407 7.86749 4.60903 9.27879C4.09398 10.6901 3.99278 12.2191 4.31731 13.686C4.64185 15.1529 5.37862 16.4965 6.44094 17.5588C7.50325 18.6211 8.8469 19.3579 10.3138 19.6825C11.7806 20.007 13.3097 19.9058 14.721 19.3907C16.1323 18.8757 17.3671 17.9683 18.2801 16.7752C19.1931 15.5821 19.7464 14.1531 19.8748 12.6562C19.8871 12.5085 19.9284 12.3646 19.9963 12.2329C20.0642 12.1011 20.1574 11.984 20.2706 11.8882C20.3837 11.7924 20.5147 11.7199 20.6559 11.6748C20.7971 11.6296 20.9458 11.6127 21.0935 11.625C21.2413 11.6373 21.3851 11.6786 21.5169 11.7465C21.6487 11.8144 21.7658 11.9076 21.8616 12.0208C21.9573 12.134 22.0298 12.2649 22.075 12.4061C22.1202 12.5473 22.1371 12.696 22.1248 12.8437ZM10.8748 7.125V12C10.8748 12.2984 10.9933 12.5845 11.2043 12.7955C11.4153 13.0065 11.7014 13.125 11.9998 13.125H16.8748C17.1731 13.125 17.4593 13.0065 17.6703 12.7955C17.8812 12.5845 17.9998 12.2984 17.9998 12C17.9998 11.7016 17.8812 11.4155 17.6703 11.2045C17.4593 10.9935 17.1731 10.875 16.8748 10.875H13.1248V7.125C13.1248 6.82663 13.0062 6.54048 12.7953 6.3295C12.5843 6.11852 12.2981 6 11.9998 6C11.7014 6 11.4153 6.11852 11.2043 6.3295C10.9933 6.54048 10.8748 6.82663 10.8748 7.125ZM19.4998 9C19.7964 9 20.0865 8.91202 20.3331 8.7472C20.5798 8.58238 20.7721 8.34811 20.8856 8.07402C20.9991 7.79993 21.0288 7.49833 20.9709 7.20736C20.9131 6.91639 20.7702 6.64912 20.5604 6.43934C20.3506 6.22956 20.0834 6.0867 19.7924 6.02882C19.5014 5.97094 19.1998 6.00065 18.9257 6.11418C18.6517 6.22771 18.4174 6.41997 18.2526 6.66664C18.0877 6.91331 17.9998 7.20332 17.9998 7.5C17.9998 7.89782 18.1578 8.27935 18.4391 8.56066C18.7204 8.84196 19.1019 9 19.4998 9ZM16.4998 6C16.7964 6 17.0864 5.91202 17.3331 5.7472C17.5798 5.58238 17.7721 5.34811 17.8856 5.07402C17.9991 4.79993 18.0288 4.49833 17.9709 4.20736C17.9131 3.91639 17.7702 3.64911 17.5604 3.43934C17.3506 3.22956 17.0834 3.0867 16.7924 3.02882C16.5014 2.97094 16.1998 3.00065 15.9257 3.11418C15.6517 3.22771 15.4174 3.41997 15.2526 3.66664C15.0877 3.91331 14.9998 4.20332 14.9998 4.5C14.9998 4.89782 15.1578 5.27935 15.4391 5.56066C15.7204 5.84196 16.1019 6 16.4998 6Z" fill="#130032"/>
</svg>
