<svg width="24" height="24" viewBox="0 0 24 24" fill="none" xmlns="http://www.w3.org/2000/svg">
<path d="M13.1247 7.49958V11.363L16.3281 13.2849C16.4577 13.3594 16.5711 13.459 16.6617 13.5778C16.7523 13.6967 16.8184 13.8324 16.856 13.977C16.8935 14.1217 16.9019 14.2723 16.8807 14.4203C16.8594 14.5682 16.8088 14.7104 16.732 14.8386C16.6551 14.9667 16.5535 15.0783 16.433 15.1668C16.3126 15.2552 16.1757 15.3188 16.0304 15.3538C15.8851 15.3888 15.7343 15.3944 15.5868 15.3705C15.4393 15.3465 15.298 15.2934 15.1713 15.2143L11.4213 12.9643C11.2546 12.8644 11.1167 12.723 11.0209 12.5539C10.9251 12.3849 10.8747 12.1939 10.8747 11.9996V7.49958C10.8747 7.20121 10.9932 6.91506 11.2042 6.70408C11.4152 6.4931 11.7013 6.37458 11.9997 6.37458C12.2981 6.37458 12.5842 6.4931 12.7952 6.70408C13.0062 6.91506 13.1247 7.20121 13.1247 7.49958ZM20.9997 4.87458C20.7013 4.87458 20.4152 4.9931 20.2042 5.20408C19.9932 5.41506 19.8747 5.70121 19.8747 5.99958V6.69051C19.48 6.2527 19.0703 5.8177 18.6288 5.37051C17.3257 4.06765 15.6677 3.17765 13.8618 2.81172C12.0558 2.4458 10.1821 2.62018 8.47469 3.31307C6.76729 4.00596 5.30194 5.18664 4.26172 6.70758C3.22151 8.22852 2.65256 10.0223 2.62598 11.8647C2.59939 13.7072 3.11634 15.5166 4.11223 17.0669C5.10812 18.6172 6.53879 19.8397 8.22549 20.5816C9.91218 21.3235 11.7801 21.5518 13.5958 21.2382C15.4116 20.9245 17.0946 20.0827 18.4347 18.818C18.6518 18.6131 18.7785 18.3304 18.7872 18.0321C18.7958 17.7337 18.6855 17.4441 18.4806 17.2271C18.2758 17.01 17.993 16.8832 17.6947 16.8746C17.3963 16.866 17.1068 16.9763 16.8897 17.1811C15.8714 18.1421 14.5926 18.7818 13.2129 19.0203C11.8332 19.2587 10.4138 19.0854 9.13205 18.5219C7.85029 17.9584 6.76297 17.0298 6.00588 15.852C5.24879 14.6742 4.85551 13.2994 4.87515 11.8994C4.89479 10.4994 5.32648 9.13619 6.11631 7.98009C6.90614 6.82399 8.01909 5.92622 9.31615 5.39892C10.6132 4.87162 12.0369 4.73817 13.4093 5.01523C14.7818 5.29229 16.0422 5.96758 17.0331 6.95676C17.5881 7.51833 18.0934 8.06208 18.5838 8.62458H17.2497C16.9513 8.62458 16.6652 8.7431 16.4542 8.95408C16.2432 9.16506 16.1247 9.45121 16.1247 9.74958C16.1247 10.0479 16.2432 10.3341 16.4542 10.5451C16.6652 10.7561 16.9513 10.8746 17.2497 10.8746H20.9997C21.2981 10.8746 21.5842 10.7561 21.7952 10.5451C22.0062 10.3341 22.1247 10.0479 22.1247 9.74958V5.99958C22.1247 5.70121 22.0062 5.41506 21.7952 5.20408C21.5842 4.9931 21.2981 4.87458 20.9997 4.87458Z" fill="#130032"/>
</svg>
