<svg width="24" height="24" viewBox="0 0 24 24" fill="none" xmlns="http://www.w3.org/2000/svg">
<path d="M17.0025 10.7553L12.5025 13.0053C12.331 13.0909 12.1405 13.1313 11.9491 13.1226C11.7576 13.1139 11.5715 13.0565 11.4085 12.9557C11.2455 12.8549 11.1109 12.7142 11.0175 12.5468C10.9242 12.3794 10.8751 12.191 10.875 11.9993V6.74933C10.875 6.45096 10.9935 6.16481 11.2045 5.95384C11.4155 5.74286 11.7016 5.62433 12 5.62433C12.2984 5.62433 12.5845 5.74286 12.7955 5.95384C13.0065 6.16481 13.125 6.45096 13.125 6.74933V10.1787L15.9966 8.74339C16.1291 8.67308 16.2743 8.62999 16.4238 8.61665C16.5732 8.60331 16.7238 8.61999 16.8667 8.66571C17.0095 8.71143 17.1418 8.78526 17.2558 8.88287C17.3697 8.98048 17.4629 9.09989 17.53 9.23407C17.5971 9.36826 17.6367 9.51451 17.6464 9.66421C17.6562 9.81392 17.6359 9.96406 17.5867 10.1058C17.5376 10.2475 17.4605 10.378 17.3602 10.4896C17.2599 10.6011 17.1383 10.6914 17.0025 10.7553ZM21.2887 22.0859C21.0004 22.1626 20.6935 22.1216 20.4354 21.972C20.1773 21.8224 19.9892 21.5764 19.9125 21.2881C19.6875 20.4556 18.9047 19.8743 18 19.8743C17.0953 19.8743 16.3125 20.4556 16.0875 21.2881C16.0238 21.5279 15.8826 21.7399 15.686 21.8911C15.4893 22.0424 15.2481 22.1244 15 22.1243C14.9022 22.1244 14.8047 22.1115 14.7103 22.0859C14.5675 22.048 14.4335 21.9823 14.3161 21.8927C14.1986 21.803 14.1 21.691 14.0258 21.5632C13.9517 21.4354 13.9034 21.2943 13.8838 21.1478C13.8642 21.0013 13.8736 20.8525 13.9116 20.7096C14.1388 19.8576 14.6346 19.1015 15.3253 18.5534C14.94 18.0541 14.7022 17.4568 14.6391 16.8292C14.576 16.2016 14.69 15.569 14.9682 15.0029C15.2464 14.4368 15.6776 13.96 16.213 13.6266C16.7484 13.2932 17.3665 13.1164 17.9972 13.1164C18.6279 13.1164 19.246 13.2932 19.7814 13.6266C20.3168 13.96 20.748 14.4368 21.0262 15.0029C21.3044 15.569 21.4184 16.2016 21.3552 16.8292C21.2921 17.4568 21.0544 18.0541 20.6691 18.5534C21.3601 19.1013 21.8559 19.8575 22.0828 20.7096C22.1596 20.9974 22.1191 21.3039 21.9703 21.5619C21.8214 21.8199 21.5763 22.0083 21.2887 22.0859ZM16.875 16.4993C16.875 16.7218 16.941 16.9393 17.0646 17.1243C17.1882 17.3094 17.3639 17.4535 17.5695 17.5387C17.775 17.6238 18.0012 17.6461 18.2195 17.6027C18.4377 17.5593 18.6382 17.4522 18.7955 17.2948C18.9528 17.1375 19.06 16.937 19.1034 16.7188C19.1468 16.5006 19.1245 16.2744 19.0394 16.0688C18.9542 15.8632 18.81 15.6875 18.625 15.5639C18.44 15.4403 18.2225 15.3743 18 15.3743C17.7016 15.3743 17.4155 15.4929 17.2045 15.7038C16.9935 15.9148 16.875 16.201 16.875 16.4993ZM11.0137 19.8134C9.55207 19.6287 8.17153 19.0376 7.02903 18.1074C5.88654 17.1771 5.0279 15.9451 4.55071 14.5512C4.07353 13.1573 3.99693 11.6575 4.32962 10.2223C4.66232 8.787 5.39096 7.47387 6.43275 6.43208C7.47453 5.3903 8.78766 4.66166 10.2229 4.32896C11.6582 3.99627 13.158 4.07287 14.5518 4.55005C15.9457 5.02724 17.1778 5.88587 18.108 7.02837C19.0382 8.17087 19.6293 9.55141 19.8141 11.0131C19.8309 11.161 19.8769 11.3041 19.9495 11.4341C20.022 11.5641 20.1196 11.6785 20.2367 11.7704C20.3537 11.8624 20.4879 11.9303 20.6314 11.9701C20.7748 12.0098 20.9248 12.0207 21.0725 12.0021C21.2202 11.9835 21.3627 11.9357 21.4919 11.8616C21.621 11.7875 21.7341 11.6885 21.8247 11.5704C21.9153 11.4522 21.9815 11.3172 22.0195 11.1733C22.0576 11.0294 22.0666 10.8793 22.0462 10.7318C21.809 8.85228 21.0491 7.07699 19.8531 5.6078C18.657 4.1386 17.0728 3.03444 15.2804 2.42082C13.4881 1.8072 11.5595 1.70875 9.71402 2.13666C7.86851 2.56457 6.18006 3.50167 4.84063 4.84143C3.5012 6.1812 2.56452 7.86988 2.13707 9.7155C1.70962 11.5611 1.80855 13.4896 2.42261 15.2818C3.03667 17.074 4.14123 18.658 5.61073 19.8537C7.08022 21.0494 8.85569 21.8088 10.7353 22.0456C10.7819 22.0519 10.8289 22.055 10.8759 22.055C11.1624 22.055 11.4381 21.9458 11.6468 21.7496C11.8555 21.5534 11.9815 21.2849 11.9991 20.999C12.0167 20.7131 11.9245 20.4312 11.7414 20.2109C11.5583 19.9906 11.2981 19.8484 11.0137 19.8134Z" fill="#130032"/>
</svg>
