<svg width="24" height="24" viewBox="0 0 24 24" fill="none" xmlns="http://www.w3.org/2000/svg">
<path d="M16.1251 6.37468C15.9695 6.37468 15.8148 6.38031 15.661 6.38968C15.4407 4.98551 14.8051 3.67945 13.836 2.63968C12.8669 1.59992 11.6087 0.874075 10.2235 0.555619C10.0378 0.513185 9.84443 0.518588 9.6614 0.571323C9.47838 0.624058 9.31175 0.722398 9.17711 0.857125C9.04248 0.991853 8.94425 1.15856 8.89165 1.34162C8.83904 1.52467 8.83377 1.71809 8.87633 1.90374C9.0612 2.70946 9.03835 3.54893 8.80993 4.34339C8.5815 5.13785 8.15499 5.86126 7.57042 6.44574C6.98584 7.03022 6.26236 7.45662 5.46786 7.68491C4.67336 7.91321 3.83389 7.93593 3.02821 7.75093C2.84243 7.70844 2.64891 7.71383 2.46579 7.76661C2.28267 7.81938 2.11596 7.91781 1.9813 8.05266C1.84663 8.18751 1.74844 8.35436 1.69591 8.53755C1.64339 8.72075 1.63827 8.91428 1.68102 9.09999C2.05907 10.7136 2.9835 12.1467 4.29758 13.1566C3.75725 13.9449 3.44237 14.8658 3.38688 15.8199C3.33139 16.774 3.53741 17.7252 3.98271 18.5708C4.42801 19.4165 5.09571 20.1245 5.91381 20.6186C6.7319 21.1127 7.66935 21.3741 8.62508 21.3747H16.1251C18.1142 21.3747 20.0219 20.5845 21.4284 19.178C22.8349 17.7715 23.6251 15.8638 23.6251 13.8747C23.6251 11.8856 22.8349 9.9779 21.4284 8.57138C20.0219 7.16486 18.1142 6.37468 16.1251 6.37468ZM11.2398 3.37468C11.844 3.75576 12.3564 4.26583 12.7402 4.8683C13.124 5.47077 13.3697 6.15072 13.4598 6.85937C12.5195 7.21686 11.6604 7.75897 10.9329 8.45373C10.2055 9.14849 9.62446 9.98185 9.22415 10.9047C9.02519 10.8834 8.82518 10.8734 8.62508 10.8747C7.69467 10.874 6.78096 11.1219 5.97852 11.5928C5.39061 11.2097 4.89109 10.7057 4.51321 10.1144C6.26752 10.0163 7.92396 9.27433 9.16517 8.03069C10.4064 6.78706 11.1451 5.12918 11.2398 3.37468ZM16.1251 19.1247H8.62508C7.82943 19.1247 7.06637 18.8086 6.50376 18.246C5.94115 17.6834 5.62508 16.9203 5.62508 16.1247C5.62508 15.329 5.94115 14.566 6.50376 14.0034C7.06637 13.4408 7.82943 13.1247 8.62508 13.1247H8.65133C8.64102 13.2278 8.63258 13.3309 8.62696 13.4341C8.60955 13.7324 8.71139 14.0255 8.91006 14.2488C9.10873 14.4721 9.38797 14.6073 9.68633 14.6247C9.9847 14.6421 10.2778 14.5403 10.501 14.3416C10.7243 14.1429 10.8596 13.8637 10.877 13.5653C10.8968 13.217 10.9514 12.8715 11.0401 12.5341L11.0541 12.4825C11.3126 11.5375 11.8301 10.6835 12.5482 10.017C13.2662 9.35053 14.1563 8.89801 15.1179 8.71054C16.0795 8.52308 17.0744 8.60813 17.9903 8.95611C18.9061 9.30409 19.7064 9.90113 20.301 10.6799C20.8955 11.4586 21.2605 12.388 21.3548 13.3631C21.4491 14.3383 21.2689 15.3204 20.8347 16.1987C20.4004 17.0769 19.7293 17.8162 18.8971 18.3332C18.0649 18.8503 17.1048 19.1244 16.1251 19.1247Z" fill="#130032"/>
</svg>
