<svg width="24" height="24" viewBox="0 0 24 24" fill="none" xmlns="http://www.w3.org/2000/svg">
<path d="M18.046 15.7041C18.1508 15.8086 18.2341 15.9328 18.2908 16.0695C18.3476 16.2063 18.3768 16.3529 18.3768 16.5009C18.3768 16.649 18.3476 16.7956 18.2908 16.9324C18.2341 17.0691 18.1508 17.1933 18.046 17.2978L15.046 20.2978C14.9414 20.4027 14.8172 20.4859 14.6805 20.5427C14.5438 20.5995 14.3971 20.6287 14.2491 20.6287C14.101 20.6287 13.9544 20.5995 13.8177 20.5427C13.6809 20.4859 13.5567 20.4027 13.4522 20.2978L10.4522 17.2978C10.3476 17.1932 10.2645 17.0689 10.2079 16.9322C10.1513 16.7955 10.1221 16.6489 10.1221 16.5009C10.1221 16.3529 10.1513 16.2064 10.2079 16.0697C10.2645 15.9329 10.3476 15.8087 10.4522 15.7041C10.5569 15.5994 10.6811 15.5164 10.8178 15.4598C10.9545 15.4031 11.1011 15.374 11.2491 15.374C11.3971 15.374 11.5436 15.4031 11.6803 15.4598C11.8171 15.5164 11.9413 15.5994 12.046 15.7041L13.125 16.7813V12C13.125 11.7016 13.2435 11.4155 13.4545 11.2045C13.6655 10.9935 13.9516 10.875 14.25 10.875C14.5484 10.875 14.8345 10.9935 15.0455 11.2045C15.2565 11.4155 15.375 11.7016 15.375 12V16.7813L16.4541 15.7013C16.5587 15.5968 16.683 15.5141 16.8196 15.4577C16.9563 15.4013 17.1028 15.3724 17.2506 15.3727C17.3984 15.373 17.5448 15.4024 17.6813 15.4592C17.8177 15.5161 17.9417 15.5993 18.046 15.7041ZM15 3.375C13.443 3.37575 11.9151 3.79762 10.5783 4.59592C9.24143 5.39423 8.1454 6.53925 7.40627 7.90969C6.54547 7.81953 5.67533 7.90559 4.84888 8.16264C4.02242 8.41969 3.25697 8.84233 2.59916 9.40481C1.94135 9.96729 1.40496 10.6578 1.02269 11.4343C0.64042 12.2108 0.420272 13.0571 0.375661 13.9214C0.331051 14.7858 0.462914 15.6502 0.763213 16.4619C1.06351 17.2736 1.52596 18.0157 2.12237 18.6429C2.71878 19.2702 3.43666 19.7694 4.23226 20.1101C5.02786 20.4509 5.88451 20.6261 6.75002 20.625H7.87502C8.17339 20.625 8.45953 20.5065 8.67051 20.2955C8.88149 20.0845 9.00002 19.7984 9.00002 19.5C9.00002 19.2016 8.88149 18.9155 8.67051 18.7045C8.45953 18.4935 8.17339 18.375 7.87502 18.375H6.75002C5.67509 18.3684 4.6452 17.9425 3.87963 17.1879C3.11406 16.4333 2.67329 15.4097 2.65117 14.335C2.62905 13.2602 3.02733 12.2193 3.76121 11.4339C4.49509 10.6484 5.50659 10.1805 6.58033 10.1297C6.44367 10.7437 6.37482 11.3709 6.37502 12C6.37502 12.2984 6.49354 12.5845 6.70452 12.7955C6.9155 13.0065 7.20165 13.125 7.50002 13.125C7.79839 13.125 8.08453 13.0065 8.29551 12.7955C8.50649 12.5845 8.62502 12.2984 8.62502 12C8.62502 10.3092 9.29667 8.68774 10.4922 7.49219C11.6878 6.29665 13.3093 5.625 15 5.625C16.6908 5.625 18.3123 6.29665 19.5078 7.49219C20.7034 8.68774 21.375 10.3092 21.375 12C21.3781 12.9962 21.1452 13.979 20.6953 14.8678C20.6263 14.9999 20.5842 15.1444 20.5715 15.2929C20.5587 15.4414 20.5756 15.591 20.6212 15.7329C20.6668 15.8748 20.7401 16.0063 20.8369 16.1196C20.9337 16.2329 21.0521 16.3259 21.1851 16.3931C21.3181 16.4603 21.4632 16.5004 21.6119 16.5111C21.7606 16.5217 21.9099 16.5027 22.0511 16.4552C22.1924 16.4077 22.3228 16.3325 22.4348 16.2342C22.5468 16.1358 22.6381 16.0162 22.7035 15.8822C23.3129 14.6791 23.6287 13.3487 23.625 12C23.6225 9.71327 22.713 7.52091 21.0961 5.90394C19.4791 4.28698 17.2867 3.37748 15 3.375Z" fill="#130032"/>
</svg>
