<svg width="24" height="24" viewBox="0 0 24 24" fill="none" xmlns="http://www.w3.org/2000/svg">
<path d="M15.3752 6.37595C14.7925 6.376 14.2117 6.44364 13.6446 6.57751C13.4759 6.33104 13.2878 6.09842 13.0821 5.88188L13.7918 4.86751C13.963 4.6231 14.0301 4.32069 13.9783 4.02681C13.9265 3.73294 13.7601 3.47167 13.5157 3.30048C13.2713 3.12929 12.9689 3.0622 12.675 3.11398C12.3811 3.16576 12.1198 3.33216 11.9487 3.57657L11.238 4.5947C10.5789 4.30608 9.8704 4.14694 9.15115 4.12595L8.93553 2.9072C8.87852 2.61833 8.71054 2.36332 8.46763 2.19691C8.22473 2.0305 7.92626 1.96595 7.6363 2.01712C7.34635 2.06829 7.088 2.2311 6.91673 2.4706C6.74546 2.7101 6.6749 3.0072 6.72021 3.29813L6.93584 4.51688C6.26731 4.78256 5.65595 5.17401 5.1349 5.67001L4.11678 4.95657C3.87236 4.78538 3.56996 4.7183 3.27608 4.77007C2.98221 4.82185 2.72093 4.98825 2.54975 5.23266C2.37856 5.47708 2.31147 5.77949 2.36325 6.07336C2.41503 6.36724 2.58143 6.62851 2.82584 6.7997L3.84396 7.51126C3.55457 8.16981 3.39539 8.87815 3.37521 9.5972L2.15646 9.81282C1.87919 9.86139 1.6302 10.0122 1.45865 10.2353C1.28709 10.4585 1.20544 10.7379 1.22981 11.0183C1.25418 11.2988 1.3828 11.5599 1.59029 11.7501C1.79777 11.9404 2.06903 12.0459 2.35053 12.0459C2.41651 12.0458 2.48236 12.0402 2.5474 12.0291L3.76615 11.8134C3.85818 12.047 3.96593 12.2741 4.08865 12.4931C3.37692 13.2357 2.89898 14.171 2.7142 15.1828C2.52942 16.1946 2.64594 17.2385 3.04928 18.1847C3.45263 19.1309 4.12502 19.9377 4.98298 20.5051C5.84093 21.0724 6.84664 21.3752 7.87521 21.3759H15.3752C17.3643 21.3759 19.272 20.5858 20.6785 19.1792C22.085 17.7727 22.8752 15.8651 22.8752 13.8759C22.8752 11.8868 22.085 9.97917 20.6785 8.57265C19.272 7.16612 17.3643 6.37595 15.3752 6.37595ZM9.00021 6.37595C9.46629 6.37632 9.92724 6.47322 10.354 6.66055C10.7808 6.84788 11.1641 7.12157 11.4799 7.46438C10.1454 8.27379 9.09512 9.47767 8.47428 10.9097C8.27539 10.8871 8.07538 10.8759 7.87521 10.8759C7.22308 10.8759 6.57668 10.9977 5.96928 11.235C5.71737 10.7205 5.60058 10.1503 5.6299 9.57818C5.65923 9.00605 5.83371 8.4508 6.1369 7.96473C6.4401 7.47866 6.86203 7.07777 7.36296 6.79982C7.86389 6.52186 8.42734 6.37599 9.00021 6.37595ZM15.3752 19.1259H7.87521C7.07957 19.1259 6.3165 18.8099 5.75389 18.2473C5.19128 17.6847 4.87521 16.9216 4.87521 16.1259C4.87521 15.3303 5.19128 14.5672 5.75389 14.0046C6.3165 13.442 7.07957 13.1259 7.87521 13.1259H7.90146C7.89115 13.2291 7.88271 13.3322 7.87709 13.4353C7.85968 13.7337 7.96152 14.0268 8.16019 14.25C8.35886 14.4733 8.6381 14.6085 8.93646 14.6259C9.23483 14.6434 9.5279 14.5415 9.75118 14.3428C9.97447 14.1442 10.1097 13.8649 10.1271 13.5666C10.1469 13.2182 10.2016 12.8728 10.2902 12.5353L10.3043 12.4838C10.5628 11.5387 11.0802 10.6848 11.7983 10.0183C12.5164 9.35179 13.4064 8.89927 14.3681 8.71181C15.3297 8.52434 16.3246 8.6094 17.2404 8.95737C18.1562 9.30535 18.9566 9.9024 19.5511 10.6811C20.1456 11.4598 20.5106 12.3892 20.6049 13.3644C20.6992 14.3396 20.5191 15.3217 20.0848 16.1999C19.6505 17.0781 18.9794 17.8175 18.1473 18.3345C17.3151 18.8515 16.3549 19.1257 15.3752 19.1259Z" fill="#130032"/>
</svg>
