<svg width="24" height="24" viewBox="0 0 24 24" fill="none" xmlns="http://www.w3.org/2000/svg">
<path d="M14.9998 3.375C13.4429 3.37576 11.9151 3.79753 10.5783 4.59565C9.24152 5.39378 8.14542 6.53855 7.40609 7.90875C6.54592 7.81989 5.67666 7.90695 4.8512 8.16465C4.02575 8.42235 3.26135 8.84529 2.60451 9.40774C1.94767 9.9702 1.41214 10.6604 1.03048 11.4364C0.648817 12.2123 0.429017 13.0578 0.384449 13.9214C0.339881 14.785 0.471477 15.6487 0.771231 16.4598C1.07098 17.2709 1.53263 18.0126 2.12808 18.6397C2.72352 19.2668 3.44032 19.7662 4.23487 20.1075C5.02942 20.4488 5.88509 20.6248 6.74984 20.625H14.9998C17.2873 20.625 19.4811 19.7163 21.0986 18.0988C22.7161 16.4813 23.6248 14.2875 23.6248 12C23.6248 9.71251 22.7161 7.51871 21.0986 5.9012C19.4811 4.2837 17.2873 3.375 14.9998 3.375ZM14.9998 18.375H6.74984C5.65582 18.3976 4.59762 17.9847 3.80804 17.2271C3.01845 16.4696 2.56215 15.4293 2.53953 14.3353C2.5169 13.2413 2.9298 12.1831 3.68739 11.3935C4.44497 10.6039 5.4852 10.1476 6.57921 10.125C6.44265 10.7406 6.37411 11.3694 6.37484 12C6.37484 12.2984 6.49337 12.5845 6.70434 12.7955C6.91532 13.0065 7.20147 13.125 7.49984 13.125C7.79821 13.125 8.08436 13.0065 8.29533 12.7955C8.50631 12.5845 8.62484 12.2984 8.62484 12C8.62484 10.7391 8.99873 9.5066 9.69922 8.45824C10.3997 7.40988 11.3954 6.59278 12.5602 6.11027C13.7251 5.62776 15.0069 5.50151 16.2435 5.74749C17.4802 5.99347 18.6161 6.60063 19.5076 7.49219C20.3992 8.38375 21.0064 9.51967 21.2523 10.7563C21.4983 11.9929 21.3721 13.2747 20.8896 14.4396C20.4071 15.6045 19.59 16.6001 18.5416 17.3006C17.4932 18.0011 16.2607 18.375 14.9998 18.375ZM18.7958 9.70406C18.9007 9.80858 18.9839 9.93277 19.0407 10.0695C19.0974 10.2063 19.1267 10.3529 19.1267 10.5009C19.1267 10.649 19.0974 10.7956 19.0407 10.9324C18.9839 11.0691 18.9007 11.1933 18.7958 11.2978L14.2958 15.7978C14.1913 15.9027 14.0671 15.9859 13.9303 16.0427C13.7936 16.0995 13.647 16.1287 13.4989 16.1287C13.3508 16.1287 13.2042 16.0995 13.0675 16.0427C12.9307 15.9859 12.8065 15.9027 12.702 15.7978L10.452 13.5478C10.3474 13.4432 10.2644 13.3189 10.2077 13.1822C10.1511 13.0455 10.122 12.8989 10.122 12.7509C10.122 12.6029 10.1511 12.4564 10.2077 12.3197C10.2644 12.1829 10.3474 12.0587 10.452 11.9541C10.5567 11.8494 10.6809 11.7664 10.8176 11.7098C10.9544 11.6531 11.1009 11.624 11.2489 11.624C11.3969 11.624 11.5434 11.6531 11.6802 11.7098C11.8169 11.7664 11.9411 11.8494 12.0458 11.9541L13.4998 13.4062L17.2039 9.70125C17.3086 9.59684 17.4328 9.51408 17.5695 9.4577C17.7061 9.40133 17.8526 9.37245 18.0004 9.37271C18.1483 9.37297 18.2946 9.40237 18.4311 9.45922C18.5676 9.51608 18.6915 9.59928 18.7958 9.70406Z" fill="#130032"/>
</svg>
