<svg width="24" height="24" viewBox="0 0 24 24" fill="none" xmlns="http://www.w3.org/2000/svg">
<path d="M14.9998 3.375C13.4429 3.37576 11.9151 3.79753 10.5783 4.59565C9.24152 5.39378 8.14542 6.53855 7.40609 7.90875C6.54592 7.81989 5.67666 7.90695 4.8512 8.16465C4.02575 8.42235 3.26135 8.84529 2.60451 9.40774C1.94767 9.9702 1.41214 10.6604 1.03048 11.4364C0.648817 12.2123 0.429017 13.0578 0.384449 13.9214C0.339881 14.785 0.471477 15.6487 0.771231 16.4598C1.07098 17.2709 1.53263 18.0126 2.12808 18.6397C2.72352 19.2668 3.44032 19.7662 4.23487 20.1075C5.02942 20.4488 5.88509 20.6248 6.74984 20.625H14.9998C17.2873 20.625 19.4811 19.7163 21.0986 18.0988C22.7161 16.4813 23.6248 14.2875 23.6248 12C23.6248 9.71251 22.7161 7.51871 21.0986 5.9012C19.4811 4.2837 17.2873 3.375 14.9998 3.375ZM14.9998 18.375H6.74984C5.65582 18.3976 4.59762 17.9847 3.80804 17.2271C3.01845 16.4696 2.56215 15.4293 2.53953 14.3353C2.5169 13.2413 2.9298 12.1831 3.68739 11.3935C4.44497 10.6039 5.4852 10.1476 6.57921 10.125C6.44265 10.7406 6.37411 11.3694 6.37484 12C6.37484 12.2984 6.49337 12.5845 6.70434 12.7955C6.91532 13.0065 7.20147 13.125 7.49984 13.125C7.79821 13.125 8.08436 13.0065 8.29533 12.7955C8.50631 12.5845 8.62484 12.2984 8.62484 12C8.62484 10.7391 8.99873 9.5066 9.69922 8.45824C10.3997 7.40988 11.3954 6.59278 12.5602 6.11027C13.7251 5.62776 15.0069 5.50151 16.2435 5.74749C17.4802 5.99347 18.6161 6.60063 19.5076 7.49219C20.3992 8.38375 21.0064 9.51967 21.2523 10.7563C21.4983 11.9929 21.3721 13.2747 20.8896 14.4396C20.4071 15.6045 19.59 16.6001 18.5416 17.3006C17.4932 18.0011 16.2607 18.375 14.9998 18.375ZM13.8748 11.25V8.25C13.8748 7.95163 13.9934 7.66548 14.2043 7.4545C14.4153 7.24353 14.7015 7.125 14.9998 7.125C15.2982 7.125 15.5844 7.24353 15.7953 7.4545C16.0063 7.66548 16.1248 7.95163 16.1248 8.25V11.25C16.1248 11.5484 16.0063 11.8345 15.7953 12.0455C15.5844 12.2565 15.2982 12.375 14.9998 12.375C14.7015 12.375 14.4153 12.2565 14.2043 12.0455C13.9934 11.8345 13.8748 11.5484 13.8748 11.25ZM16.4998 15C16.4998 15.2967 16.4119 15.5867 16.247 15.8334C16.0822 16.08 15.848 16.2723 15.5739 16.3858C15.2998 16.4994 14.9982 16.5291 14.7072 16.4712C14.4162 16.4133 14.149 16.2704 13.9392 16.0607C13.7294 15.8509 13.5865 15.5836 13.5287 15.2926C13.4708 15.0017 13.5005 14.7001 13.614 14.426C13.7276 14.1519 13.9198 13.9176 14.1665 13.7528C14.4132 13.588 14.7032 13.5 14.9998 13.5C15.3977 13.5 15.7792 13.658 16.0605 13.9393C16.3418 14.2206 16.4998 14.6022 16.4998 15Z" fill="#130032"/>
</svg>
