<svg width="24" height="24" viewBox="0 0 24 24" fill="none" xmlns="http://www.w3.org/2000/svg">
<path d="M11.2499 19.5005H6.74989C6.45152 19.5005 6.16537 19.382 5.95439 19.171C5.74342 18.96 5.62489 18.6739 5.62489 18.3755C5.62489 18.0771 5.74342 17.791 5.95439 17.58C6.16537 17.369 6.45152 17.2505 6.74989 17.2505H11.2499C11.5483 17.2505 11.8344 17.369 12.0454 17.58C12.2564 17.791 12.3749 18.0771 12.3749 18.3755C12.3749 18.6739 12.2564 18.96 12.0454 19.171C11.8344 19.382 11.5483 19.5005 11.2499 19.5005ZM17.2499 17.2505H14.9999C14.7015 17.2505 14.4154 17.369 14.2044 17.58C13.9934 17.791 13.8749 18.0771 13.8749 18.3755C13.8749 18.6739 13.9934 18.96 14.2044 19.171C14.4154 19.382 14.7015 19.5005 14.9999 19.5005H17.2499C17.5483 19.5005 17.8344 19.382 18.0454 19.171C18.2564 18.96 18.3749 18.6739 18.3749 18.3755C18.3749 18.0771 18.2564 17.791 18.0454 17.58C17.8344 17.369 17.5483 17.2505 17.2499 17.2505ZM14.9999 20.6255H9.74989C9.45152 20.6255 9.16537 20.744 8.95439 20.955C8.74342 21.166 8.62489 21.4521 8.62489 21.7505C8.62489 22.0489 8.74342 22.335 8.95439 22.546C9.16537 22.757 9.45152 22.8755 9.74989 22.8755H14.9999C15.2983 22.8755 15.5844 22.757 15.7954 22.546C16.0064 22.335 16.1249 22.0489 16.1249 21.7505C16.1249 21.4521 16.0064 21.166 15.7954 20.955C15.5844 20.744 15.2983 20.6255 14.9999 20.6255ZM21.7499 9.0005C21.7479 10.8896 20.9966 12.7007 19.6608 14.0364C18.3251 15.3722 16.5139 16.1235 14.6249 16.1255H7.12489C6.44922 16.1251 5.78099 15.9843 5.16263 15.712C4.54426 15.4397 3.98926 15.0418 3.53284 14.5436C3.07642 14.0454 2.72854 13.4577 2.5113 12.8179C2.29405 12.1781 2.21218 11.5002 2.27087 10.827C2.32956 10.1539 2.52753 9.50035 2.85223 8.90781C3.17693 8.31526 3.62125 7.79669 4.15701 7.38499C4.69277 6.97329 5.30826 6.67745 5.96443 6.51626C6.62059 6.35506 7.3031 6.33203 7.96864 6.44862C8.56307 4.89187 9.68435 3.59271 11.1375 2.77707C12.5906 1.96144 14.2837 1.68094 15.9222 1.98434C17.5607 2.28775 19.0411 3.15587 20.1058 4.43774C21.1705 5.7196 21.7523 7.33411 21.7499 9.0005ZM19.4999 9.0005C19.4999 7.70757 18.9863 6.46759 18.072 5.55335C17.1578 4.63911 15.9178 4.1255 14.6249 4.1255C13.332 4.1255 12.092 4.63911 11.1777 5.55335C10.2635 6.46759 9.74989 7.70757 9.74989 9.0005C9.74989 9.29886 9.63136 9.58501 9.42038 9.79599C9.20941 10.007 8.92326 10.1255 8.62489 10.1255C8.32652 10.1255 8.04037 10.007 7.82939 9.79599C7.61842 9.58501 7.49989 9.29886 7.49989 9.0005C7.49989 8.88425 7.49989 8.768 7.50833 8.65268C7.38131 8.63467 7.25318 8.62559 7.12489 8.6255C6.4287 8.6255 5.76102 8.90206 5.26873 9.39434C4.77645 9.88662 4.49989 10.5543 4.49989 11.2505C4.49989 11.9467 4.77645 12.6144 5.26873 13.1067C5.76102 13.5989 6.4287 13.8755 7.12489 13.8755H14.6249C15.9174 13.874 17.1565 13.3599 18.0704 12.446C18.9843 11.5321 19.4984 10.293 19.4999 9.0005Z" fill="#130032"/>
</svg>
