<svg width="24" height="24" viewBox="0 0 24 24" fill="none" xmlns="http://www.w3.org/2000/svg">
<path d="M14.9998 3.375C13.4429 3.37576 11.9151 3.79753 10.5783 4.59565C9.24152 5.39378 8.14542 6.53855 7.40609 7.90875C6.54592 7.81989 5.67666 7.90695 4.8512 8.16465C4.02575 8.42235 3.26135 8.84529 2.60451 9.40774C1.94767 9.9702 1.41214 10.6604 1.03048 11.4364C0.648817 12.2123 0.429017 13.0578 0.384449 13.9214C0.339881 14.785 0.471477 15.6487 0.771231 16.4598C1.07098 17.2709 1.53263 18.0126 2.12808 18.6397C2.72352 19.2668 3.44032 19.7662 4.23487 20.1075C5.02942 20.4488 5.88509 20.6248 6.74984 20.625H14.9998C17.2873 20.625 19.4811 19.7163 21.0986 18.0988C22.7161 16.4813 23.6248 14.2875 23.6248 12C23.6248 9.71251 22.7161 7.51871 21.0986 5.9012C19.4811 4.2837 17.2873 3.375 14.9998 3.375ZM14.9998 18.375H6.74984C5.65582 18.3976 4.59762 17.9847 3.80804 17.2271C3.01845 16.4696 2.56215 15.4293 2.53953 14.3353C2.5169 13.2413 2.9298 12.1831 3.68739 11.3935C4.44497 10.6039 5.4852 10.1476 6.57921 10.125C6.44265 10.7406 6.37411 11.3694 6.37484 12C6.37484 12.2984 6.49337 12.5845 6.70434 12.7955C6.91532 13.0065 7.20147 13.125 7.49984 13.125C7.79821 13.125 8.08436 13.0065 8.29533 12.7955C8.50631 12.5845 8.62484 12.2984 8.62484 12C8.62484 10.7391 8.99873 9.5066 9.69922 8.45824C10.3997 7.40988 11.3954 6.59278 12.5602 6.11027C13.7251 5.62776 15.0069 5.50151 16.2435 5.74749C17.4802 5.99347 18.6161 6.60063 19.5076 7.49219C20.3992 8.38375 21.0064 9.51967 21.2523 10.7563C21.4983 11.9929 21.3721 13.2747 20.8896 14.4396C20.4071 15.6045 19.59 16.6001 18.5416 17.3006C17.4932 18.0011 16.2607 18.375 14.9998 18.375ZM18.0458 10.9209L16.5936 12.375L18.0486 13.8291C18.2599 14.0404 18.3787 14.3271 18.3787 14.6259C18.3787 14.9248 18.2599 15.2115 18.0486 15.4228C17.8372 15.6342 17.5506 15.7529 17.2517 15.7529C16.9528 15.7529 16.6662 15.6342 16.4548 15.4228L14.9998 13.9688L13.5458 15.4237C13.4411 15.5284 13.3169 15.6114 13.1802 15.668C13.0434 15.7247 12.8969 15.7538 12.7489 15.7538C12.6009 15.7538 12.4544 15.7247 12.3176 15.668C12.1809 15.6114 12.0567 15.5284 11.952 15.4237C11.8474 15.3191 11.7644 15.1949 11.7077 15.0581C11.6511 14.9214 11.622 14.7749 11.622 14.6269C11.622 14.4789 11.6511 14.3323 11.7077 14.1956C11.7644 14.0589 11.8474 13.9346 11.952 13.83L13.4061 12.375L11.9511 10.9209C11.7397 10.7096 11.621 10.4229 11.621 10.1241C11.621 9.82518 11.7397 9.53853 11.9511 9.32719C12.1624 9.11584 12.4491 8.99711 12.748 8.99711C13.0469 8.99711 13.3335 9.11584 13.5448 9.32719L14.9998 10.7812L16.4539 9.32625C16.6652 9.11491 16.9519 8.99617 17.2508 8.99617C17.5497 8.99617 17.8363 9.11491 18.0477 9.32625C18.259 9.53759 18.3777 9.82424 18.3777 10.1231C18.3777 10.422 18.259 10.7087 18.0477 10.92L18.0458 10.9209Z" fill="#130032"/>
</svg>
