<svg width="24" height="24" viewBox="0 0 24 24" fill="none" xmlns="http://www.w3.org/2000/svg">
<path d="M5.33259 2.99365C5.23379 2.88229 5.11387 2.79164 4.97979 2.72696C4.8457 2.66228 4.70011 2.62486 4.55145 2.61686C4.40279 2.60886 4.25403 2.63045 4.11377 2.68037C3.97352 2.73029 3.84457 2.80755 3.7344 2.90767C3.62422 3.0078 3.53502 3.12879 3.47195 3.26365C3.40888 3.3985 3.37321 3.54453 3.36699 3.69327C3.36078 3.84201 3.38415 3.99051 3.43575 4.13016C3.48735 4.2698 3.56615 4.39781 3.66759 4.50678L6.7304 7.87522C5.03964 7.87783 3.41917 8.55198 2.22548 9.74937C1.03178 10.9468 0.362631 12.5693 0.365242 14.2601C0.367853 15.9508 1.04201 17.5713 2.2394 18.765C3.43679 19.9587 5.05933 20.6278 6.75009 20.6252H15.0001C15.9793 20.6272 16.9515 20.461 17.8745 20.134L18.6676 21.0068C18.8693 21.2235 19.1483 21.3519 19.4441 21.3643C19.7398 21.3766 20.0286 21.2719 20.2476 21.0728C20.4667 20.8737 20.5985 20.5963 20.6144 20.3007C20.6303 20.0051 20.529 19.7151 20.3326 19.4937L5.33259 2.99365ZM15.0001 18.3752H6.75009C5.67522 18.3684 4.64547 17.9423 3.88006 17.1877C3.11465 16.433 2.67405 15.4094 2.65206 14.3347C2.63006 13.26 3.02841 12.2192 3.76231 11.4339C4.4962 10.6485 5.50765 10.1807 6.58134 10.1299C6.44452 10.7439 6.37535 11.3711 6.37509 12.0002C6.37509 12.2986 6.49361 12.5847 6.70459 12.7957C6.91557 13.0067 7.20172 13.1252 7.50009 13.1252C7.79845 13.1252 8.0846 13.0067 8.29558 12.7957C8.50656 12.5847 8.62509 12.2986 8.62509 12.0002C8.6253 11.4027 8.70924 10.8082 8.87446 10.234L16.1757 18.2655C15.788 18.338 15.3945 18.3747 15.0001 18.3752ZM23.6251 12.0002C23.6291 13.8195 23.0534 15.5927 21.9816 17.0627C21.8959 17.1849 21.7866 17.2889 21.6603 17.3684C21.5339 17.448 21.393 17.5016 21.2457 17.5262C21.0984 17.5507 20.9478 17.5457 20.8024 17.5114C20.6571 17.4771 20.5201 17.4142 20.3993 17.3264C20.2785 17.2386 20.1764 17.1277 20.099 17C20.0215 16.8724 19.9703 16.7306 19.9482 16.5829C19.9261 16.4352 19.9336 16.2846 19.9703 16.1399C20.007 15.9952 20.0722 15.8592 20.162 15.7399C21.0233 14.5541 21.4497 13.1077 21.3694 11.6442C21.2891 10.1808 20.707 8.78972 19.7212 7.70523C18.7353 6.62073 17.4058 5.90906 15.9567 5.69003C14.5075 5.47101 13.0271 5.75801 11.7648 6.50272C11.5084 6.64603 11.2061 6.68338 10.9225 6.60677C10.6389 6.53016 10.3965 6.34568 10.2472 6.09274C10.0978 5.8398 10.0533 5.53848 10.1232 5.25316C10.193 4.96784 10.3717 4.72116 10.621 4.56584C11.9313 3.79368 13.4224 3.3817 14.9432 3.37167C16.464 3.36164 17.9605 3.75393 19.2808 4.50875C20.6011 5.26357 21.6984 6.35409 22.4613 7.66973C23.2243 8.98538 23.6257 10.4794 23.6251 12.0002Z" fill="#130032"/>
</svg>
