<svg width="24" height="24" viewBox="0 0 24 24" fill="none" xmlns="http://www.w3.org/2000/svg">
<path d="M19.9922 15.8634C21.4069 15.2503 22.125 13.6978 22.125 11.25C22.125 8.80219 21.4069 7.24875 19.9922 6.63562C18.9928 6.20344 17.7806 6.29812 16.32 6.93C16.9509 5.46937 17.0466 4.25719 16.6144 3.25781C16.0003 1.84312 14.4488 1.125 12 1.125C9.55125 1.125 7.99969 1.84312 7.38562 3.25781C6.95344 4.25719 7.04906 5.46937 7.68 6.93C6.21937 6.29812 5.00719 6.20344 4.00781 6.63562C2.59312 7.24875 1.875 8.80125 1.875 11.25C1.875 13.6988 2.59312 15.2503 4.00781 15.8634C4.42988 16.0437 4.88481 16.1344 5.34375 16.1297C6.04063 16.1297 6.82 15.9422 7.68188 15.5672C7.05094 17.0288 6.95531 18.2409 7.3875 19.2394C7.99969 20.6569 9.55125 21.375 12 21.375C14.4488 21.375 16.0003 20.6569 16.6144 19.2413C16.6712 19.1093 16.7191 18.9737 16.7578 18.8353C17.4675 20.0709 18.0703 21.405 18.4088 22.7728C18.4696 23.0162 18.61 23.2323 18.8077 23.3867C19.0055 23.5411 19.2491 23.625 19.5 23.625C19.5923 23.6248 19.6842 23.6134 19.7738 23.5912C20.0631 23.5189 20.3119 23.3345 20.4654 23.0787C20.6189 22.8229 20.6645 22.5166 20.5922 22.2272C20.0297 19.9669 18.8831 17.8294 17.6381 16.0087C17.9721 16.086 18.3135 16.1265 18.6562 16.1297C19.1152 16.1344 19.5701 16.0437 19.9922 15.8634ZM9.45094 4.15219C9.66469 3.65625 10.5938 3.375 12 3.375C13.4062 3.375 14.3353 3.65625 14.5491 4.15219C14.6541 4.39313 14.8716 5.37094 13.2806 7.79062C12.8466 8.44687 12.3816 9.05719 12 9.52688C11.6184 9.05813 11.1562 8.45062 10.7194 7.79062C9.12844 5.36812 9.34594 4.39313 9.45094 4.15219ZM4.90219 13.7991C4.40625 13.5853 4.125 12.6562 4.125 11.25C4.125 9.84375 4.40625 8.91469 4.90219 8.70094C5.03983 8.64622 5.18726 8.62037 5.33531 8.625C5.85656 8.625 6.84375 8.85469 8.54062 9.96937C9.14053 10.3668 9.72002 10.7942 10.2769 11.25C9.80813 11.6316 9.20062 12.0938 8.54062 12.5306C6.11812 14.1216 5.14313 13.9041 4.90219 13.7991ZM14.5491 18.3478C14.3353 18.8438 13.4062 19.125 12 19.125C10.5938 19.125 9.66469 18.8438 9.45094 18.3478C9.34594 18.1059 9.12844 17.1291 10.7194 14.7094C11.1534 14.0531 11.6184 13.4428 12 12.9731C12.3816 13.4419 12.8438 14.0494 13.2806 14.7094C14.8716 17.1319 14.6541 18.1059 14.5491 18.3478ZM15.4594 12.5306C14.8031 12.0966 14.1928 11.6316 13.7231 11.25C14.28 10.7942 14.8595 10.3668 15.4594 9.96937C17.8819 8.37562 18.8569 8.59594 19.0978 8.70094C19.5938 8.91469 19.875 9.84375 19.875 11.25C19.875 12.6562 19.5938 13.5853 19.0978 13.7991C18.8569 13.9041 17.8819 14.1216 15.4594 12.5306Z" fill="#130032"/>
</svg>
