<svg width="24" height="24" viewBox="0 0 24 24" fill="none" xmlns="http://www.w3.org/2000/svg">
<path d="M17.5118 7.87983C17.6784 7.06262 17.6613 6.21859 17.4615 5.40883C17.2618 4.59908 16.8845 3.84387 16.357 3.19789C15.8294 2.55191 15.1648 2.03132 14.4113 1.67382C13.6578 1.31632 12.8342 1.13086 12.0002 1.13086C11.1662 1.13086 10.3426 1.31632 9.58908 1.67382C8.83556 2.03132 8.17097 2.55191 7.64343 3.19789C7.11589 3.84387 6.7386 4.59908 6.53887 5.40883C6.33915 6.21859 6.32199 7.06262 6.48864 7.87983C5.69802 7.91812 4.92438 8.12284 4.2183 8.48061C3.51222 8.83839 2.8896 9.34115 2.39114 9.95604C1.89268 10.5709 1.52961 11.2841 1.32566 12.0489C1.12171 12.8137 1.08148 13.613 1.20759 14.3944C1.33371 15.1759 1.62333 15.9219 2.05752 16.5837C2.49171 17.2456 3.0607 17.8083 3.72728 18.2352C4.39386 18.6621 5.14303 18.9434 5.92582 19.0609C6.7086 19.1784 7.50736 19.1294 8.26989 18.917L7.89489 20.7789C7.86227 20.9423 7.86633 21.1108 7.90679 21.2724C7.94726 21.4341 8.02311 21.5847 8.12886 21.7134C8.23462 21.8421 8.36765 21.9457 8.51834 22.0168C8.66902 22.0878 8.83361 22.1245 9.0002 22.1242H15.0002C15.1666 22.1242 15.331 22.0873 15.4815 22.0162C15.6319 21.945 15.7647 21.8413 15.8703 21.7127C15.9758 21.584 16.0515 21.4335 16.0919 21.272C16.1322 21.1105 16.1362 20.9421 16.1036 20.7789L15.7286 18.917C16.4912 19.1294 17.2899 19.1784 18.0727 19.0609C18.8555 18.9434 19.6047 18.6621 20.2713 18.2352C20.9378 17.8083 21.5068 17.2456 21.941 16.5837C22.3752 15.9219 22.6648 15.1759 22.7909 14.3944C22.9171 13.613 22.8768 12.8137 22.6729 12.0489C22.4689 11.2841 22.1059 10.5709 21.6074 9.95604C21.1089 9.34115 20.4863 8.83839 19.7802 8.48061C19.0742 8.12284 18.3005 7.91812 17.5099 7.87983H17.5118ZM17.2502 16.8742C16.3856 16.8755 15.5536 16.5438 14.9271 15.948C14.7536 15.7845 14.5327 15.6805 14.2962 15.6507C14.0597 15.621 13.8199 15.6671 13.6114 15.7824C13.4028 15.8978 13.2362 16.0764 13.1357 16.2925C13.0352 16.5086 13.0059 16.751 13.0521 16.9848L13.6277 19.8742H10.3727L10.9502 16.9848C10.9964 16.751 10.9671 16.5086 10.8666 16.2925C10.766 16.0764 10.5995 15.8978 10.3909 15.7824C10.1824 15.6671 9.94256 15.621 9.70609 15.6507C9.46962 15.6805 9.2487 15.7845 9.0752 15.948C8.63974 16.3614 8.10185 16.6512 7.51704 16.7874C6.93222 16.9236 6.32166 16.9013 5.74832 16.7228C5.17499 16.5444 4.65965 16.2162 4.25547 15.7721C3.85129 15.328 3.5729 14.7842 3.44903 14.1966C3.32515 13.6091 3.36027 12.9991 3.55077 12.4297C3.74127 11.8602 4.08024 11.3519 4.53272 10.9571C4.9852 10.5624 5.5348 10.2955 6.12483 10.184C6.71486 10.0726 7.32395 10.1205 7.88927 10.323C8.1124 10.4029 8.35507 10.4103 8.58266 10.3441C8.81025 10.278 9.01114 10.1416 9.15665 9.95453C9.30216 9.76744 9.38487 9.53918 9.39297 9.3023C9.40107 9.06543 9.33416 8.83205 9.20177 8.63545C8.82436 8.07894 8.62344 7.42161 8.6252 6.7492C8.62521 6.22182 8.74881 5.70177 8.98609 5.23078C9.22337 4.75979 9.56773 4.35096 9.99154 4.03708C10.4153 3.7232 10.9068 3.51301 11.4265 3.42336C11.9462 3.33372 12.4797 3.36712 12.9842 3.52088C13.4887 3.67464 13.9501 3.94449 14.3314 4.30877C14.7128 4.67306 15.0035 5.12164 15.1802 5.61855C15.3568 6.11546 15.4146 6.64686 15.3489 7.17013C15.2831 7.6934 15.0956 8.19397 14.8015 8.6317C14.6691 8.82829 14.6021 9.06168 14.6103 9.29855C14.6184 9.53543 14.7011 9.76369 14.8466 9.95078C14.9921 10.1379 15.193 10.2742 15.4206 10.3404C15.6482 10.4065 15.8908 10.3991 16.114 10.3192C16.5771 10.1545 17.0706 10.093 17.56 10.139C18.0493 10.1849 18.5228 10.3372 18.9472 10.5852C19.3716 10.8331 19.7367 11.1708 20.017 11.5746C20.2973 11.9783 20.486 12.4385 20.5699 12.9228C20.6539 13.4071 20.631 13.9039 20.503 14.3784C20.3749 14.853 20.1448 15.2938 19.8286 15.6702C19.5124 16.0465 19.1179 16.3493 18.6725 16.5572C18.2271 16.7652 17.7417 16.8734 17.2502 16.8742Z" fill="#130032"/>
</svg>
