<svg width="24" height="24" viewBox="0 0 24 24" fill="none" xmlns="http://www.w3.org/2000/svg">
<path d="M22.875 15.75L13.875 8.99999L15.675 7.64999C15.8147 7.5452 15.9281 7.40932 16.0062 7.25311C16.0843 7.0969 16.125 6.92464 16.125 6.74999C16.1255 5.70019 15.7257 4.6897 15.0071 3.9244C14.2885 3.15911 13.3051 2.69659 12.2574 2.63109C11.2096 2.56559 10.1763 2.90204 9.36798 3.57188C8.55965 4.24172 8.03713 5.19455 7.90687 6.23624C7.88841 6.38287 7.899 6.5317 7.93805 6.67424C7.9771 6.81677 8.04385 6.95022 8.13447 7.06696C8.2251 7.1837 8.33783 7.28145 8.46623 7.35462C8.59463 7.4278 8.73618 7.47496 8.88281 7.49343C9.02944 7.5119 9.17827 7.5013 9.32081 7.46225C9.46334 7.4232 9.59679 7.35646 9.71353 7.26583C9.83027 7.17521 9.92802 7.06248 10.0012 6.93408C10.0744 6.80568 10.1215 6.66412 10.14 6.51749C10.1943 6.08845 10.3953 5.69138 10.7088 5.39353C11.0224 5.09568 11.4292 4.91538 11.8605 4.88316C12.2917 4.85095 12.7209 4.9688 13.0752 5.21676C13.4295 5.46472 13.6872 5.82753 13.8047 6.24374L11.3438 8.08499C11.3297 8.09437 11.3166 8.10468 11.3034 8.11499L1.125 15.75C0.810176 15.9861 0.577625 16.3153 0.460287 16.6909C0.342949 17.0666 0.346774 17.4696 0.471219 17.8429C0.595664 18.2163 0.83442 18.541 1.15367 18.7711C1.47292 19.0012 1.85647 19.125 2.25 19.125H21.75C22.1435 19.125 22.5271 19.0012 22.8463 18.7711C23.1656 18.541 23.4043 18.2163 23.5288 17.8429C23.6532 17.4696 23.6571 17.0666 23.5397 16.6909C23.4224 16.3153 23.1898 15.9861 22.875 15.75ZM3.375 16.875L12 10.4062L20.625 16.875H3.375Z" fill="#130032"/>
</svg>
