<svg width="24" height="24" viewBox="0 0 24 24" fill="none" xmlns="http://www.w3.org/2000/svg">
<path d="M16.5 8.625C17.1422 8.61853 17.7728 8.79651 18.3169 9.13781C18.5435 9.28274 18.8049 9.36405 19.0738 9.37324C19.3426 9.38243 19.609 9.31915 19.845 9.19004C20.081 9.06092 20.2779 8.87073 20.4151 8.63937C20.5523 8.40801 20.6248 8.144 20.625 7.875V4.5C20.625 4.00272 20.4275 3.52581 20.0758 3.17417C19.7242 2.82254 19.2473 2.625 18.75 2.625H5.25C4.75272 2.625 4.27581 2.82254 3.92417 3.17417C3.57254 3.52581 3.375 4.00272 3.375 4.5V19.5C3.375 19.9973 3.57254 20.4742 3.92417 20.8258C4.27581 21.1775 4.75272 21.375 5.25 21.375H18.75C19.2473 21.375 19.7242 21.1775 20.0758 20.8258C20.4275 20.4742 20.625 19.9973 20.625 19.5V16.125C20.6248 15.8562 20.5524 15.5924 20.4153 15.3612C20.2782 15.13 20.0815 14.9399 19.8458 14.8107C19.6101 14.6815 19.344 14.6181 19.0754 14.627C18.8067 14.6359 18.5454 14.7168 18.3187 14.8612C17.7019 15.2569 17.2041 15.4012 16.545 15.375H16.5C15.6049 15.375 14.7465 15.0194 14.1135 14.3865C13.4806 13.7535 13.125 12.8951 13.125 12C13.125 11.1049 13.4806 10.2464 14.1135 9.61351C14.7465 8.98058 15.6049 8.625 16.5 8.625ZM16.4775 17.625C17.1223 17.6568 17.7671 17.5613 18.375 17.3438V19.125H5.625V4.875H18.375V6.68438C17.7714 6.47834 17.1378 6.37379 16.5 6.375C15.0082 6.37202 13.5762 6.96179 12.5192 8.01457C11.4622 9.06735 10.8667 10.4969 10.8637 11.9887C10.8608 13.4806 11.4505 14.9125 12.5033 15.9695C13.5561 17.0265 14.9857 17.622 16.4775 17.625Z" fill="#130032"/>
</svg>
