<svg width="24" height="24" viewBox="0 0 24 24" fill="none" xmlns="http://www.w3.org/2000/svg">
<path d="M4.82893 9.79687L1.82893 6.79687C1.72405 6.69236 1.64084 6.56816 1.58406 6.43142C1.52728 6.29467 1.49805 6.14806 1.49805 6C1.49805 5.85193 1.52728 5.70532 1.58406 5.56858C1.64084 5.43183 1.72405 5.30764 1.82893 5.20312L4.82893 2.20312C4.93358 2.09848 5.05782 2.01547 5.19454 1.95883C5.33127 1.9022 5.47782 1.87305 5.62581 1.87305C5.7738 1.87305 5.92035 1.9022 6.05707 1.95883C6.1938 2.01547 6.31804 2.09848 6.42268 2.20312C6.52733 2.30777 6.61034 2.432 6.66698 2.56873C6.72361 2.70546 6.75276 2.852 6.75276 3C6.75276 3.14799 6.72361 3.29454 6.66698 3.43126C6.61034 3.56799 6.52733 3.69223 6.42268 3.79687L4.21862 6.00094L6.42081 8.205C6.63215 8.41634 6.75089 8.70299 6.75089 9.00187C6.75089 9.30076 6.63215 9.5874 6.42081 9.79875C6.20946 10.0101 5.92282 10.1288 5.62393 10.1288C5.32505 10.1288 5.0384 10.0101 4.82706 9.79875L4.82893 9.79687ZM9.32893 9.79687C9.43345 9.90175 9.55764 9.98497 9.69439 10.0418C9.83113 10.0985 9.97774 10.1278 10.1258 10.1278C10.2739 10.1278 10.4205 10.0985 10.5572 10.0418C10.694 9.98497 10.8182 9.90175 10.9227 9.79687L13.9227 6.79687C14.0276 6.69236 14.1108 6.56816 14.1676 6.43142C14.2243 6.29467 14.2536 6.14806 14.2536 6C14.2536 5.85193 14.2243 5.70532 14.1676 5.56858C14.1108 5.43183 14.0276 5.30764 13.9227 5.20312L10.9227 2.20312C10.7113 1.99178 10.4247 1.87305 10.1258 1.87305C9.82692 1.87305 9.54028 1.99178 9.32893 2.20312C9.11759 2.41447 8.99886 2.70111 8.99886 3C8.99886 3.29888 9.11759 3.58553 9.32893 3.79687L11.5311 6.00094L9.32893 8.205C9.22434 8.30948 9.14136 8.43356 9.08474 8.57013C9.02813 8.7067 8.99899 8.85309 8.99899 9.00094C8.99899 9.14878 9.02813 9.29517 9.08474 9.43174C9.14136 9.56832 9.22434 9.69239 9.32893 9.79687ZM18.7499 3.37594H16.8749C16.5765 3.37594 16.2904 3.49446 16.0794 3.70544C15.8684 3.91642 15.7499 4.20257 15.7499 4.50094C15.7499 4.7993 15.8684 5.08545 16.0794 5.29643C16.2904 5.50741 16.5765 5.62594 16.8749 5.62594H18.3749V18.3759H5.62487V13.1259C5.62487 12.8276 5.50635 12.5414 5.29537 12.3304C5.08439 12.1195 4.79824 12.0009 4.49987 12.0009C4.2015 12.0009 3.91535 12.1195 3.70438 12.3304C3.4934 12.5414 3.37487 12.8276 3.37487 13.1259V18.7509C3.37487 19.2482 3.57242 19.7251 3.92405 20.0768C4.27568 20.4284 4.75259 20.6259 5.24987 20.6259H18.7499C19.2472 20.6259 19.7241 20.4284 20.0757 20.0768C20.4273 19.7251 20.6249 19.2482 20.6249 18.7509V5.25094C20.6249 4.75365 20.4273 4.27674 20.0757 3.92511C19.7241 3.57348 19.2472 3.37594 18.7499 3.37594Z" fill="#130032"/>
</svg>
