<svg width="24" height="24" viewBox="0 0 24 24" fill="none" xmlns="http://www.w3.org/2000/svg">
<path d="M21.15 5.87318L12.9 1.35631C12.6243 1.20457 12.3147 1.125 12 1.125C11.6853 1.125 11.3757 1.20457 11.1 1.35631L2.85 5.87225C2.5548 6.03377 2.3085 6.27175 2.13695 6.56124C1.9654 6.85073 1.87492 7.18106 1.875 7.51756V16.4819C1.87492 16.8184 1.9654 17.1488 2.13695 17.4382C2.3085 17.7277 2.5548 17.9657 2.85 18.1272L11.1 22.6432C11.3756 22.7951 11.6853 22.8748 12 22.8748C12.3147 22.8748 12.6244 22.7951 12.9 22.6432L21.15 18.1263C21.4451 17.9649 21.6913 17.727 21.8628 17.4377C22.0343 17.1484 22.1249 16.8183 22.125 16.4819V7.51756C22.1249 7.18122 22.0343 6.85109 21.8628 6.56178C21.6913 6.27247 21.4451 6.03463 21.15 5.87318ZM15.375 14.2497V18.7235L13.125 19.9554V12.6663L19.875 8.97068V11.1194L15.96 13.2626C15.7829 13.3595 15.6351 13.5023 15.5322 13.676C15.4292 13.8497 15.375 14.0478 15.375 14.2497ZM8.04 13.2626L4.125 11.1194V8.97068L10.875 12.6663V19.9554L8.625 18.7235V14.2497C8.62505 14.0478 8.57076 13.8497 8.46783 13.676C8.3649 13.5023 8.21712 13.3595 8.04 13.2626ZM7.79437 5.73068L11.46 7.73693C11.6254 7.82794 11.8112 7.87567 12 7.87567C12.1888 7.87567 12.3746 7.82794 12.54 7.73693L16.2056 5.73068L18.6562 7.07318L12 10.7172L5.34375 7.07318L7.79437 5.73068ZM12 3.42818L13.8628 4.44818L12 5.46818L10.1372 4.44818L12 3.42818ZM4.125 13.6872L6.375 14.9191V17.4944L4.125 16.2597V13.6872ZM17.625 17.4944V14.9163L19.875 13.6872V16.2626L17.625 17.4944Z" fill="#130032"/>
</svg>
