<svg width="24" height="24" viewBox="0 0 24 24" fill="none" xmlns="http://www.w3.org/2000/svg">
<path d="M22.2825 8.00951L12.5325 2.75951C12.3686 2.67122 12.1853 2.625 11.9991 2.625C11.8129 2.625 11.6296 2.67122 11.4656 2.75951L1.71563 8.00951C1.5369 8.10599 1.38762 8.24905 1.28363 8.42351C1.17964 8.59798 1.12483 8.79734 1.125 9.00045V15.0004C1.12501 15.2037 1.18011 15.4032 1.28444 15.5777C1.38876 15.7522 1.53842 15.8952 1.7175 15.9914L11.4675 21.2414C11.6314 21.3297 11.8147 21.3759 12.0009 21.3759C12.1871 21.3759 12.3704 21.3297 12.5344 21.2414L22.2844 15.9914C22.4631 15.8949 22.6124 15.7519 22.7164 15.5774C22.8204 15.4029 22.8752 15.2036 22.875 15.0004V9.00045C22.875 8.79715 22.8199 8.59766 22.7156 8.42318C22.6112 8.24869 22.4616 8.10574 22.2825 8.00951ZM20.625 13.117L18.5513 12.0004L20.625 10.8839V13.117ZM16.1784 10.7226L13.125 9.07826V5.63389L19.3772 9.00045L16.1784 10.7226ZM12 12.9726L10.1944 12.0004L12 11.0283L13.8056 12.0004L12 12.9726ZM10.875 5.63389V9.07826L7.82156 10.7226L4.62281 9.00045L10.875 5.63389ZM3.375 10.8839L5.44875 12.0004L3.375 13.117V10.8839ZM7.82156 13.2783L10.875 14.9226V18.367L4.62281 15.0004L7.82156 13.2783ZM13.125 18.367V14.9226L16.1784 13.2783L19.3772 15.0004L13.125 18.367Z" fill="#130032"/>
</svg>
