<svg width="24" height="24" viewBox="0 0 24 24" fill="none" xmlns="http://www.w3.org/2000/svg">
<path d="M19.875 7.125H3C2.70163 7.125 2.41548 7.24353 2.2045 7.4545C1.99353 7.66548 1.875 7.95163 1.875 8.25V12.75C1.87853 15.1146 2.77334 17.3909 4.38094 19.125H3C2.70163 19.125 2.41548 19.2435 2.2045 19.4545C1.99353 19.6655 1.875 19.9516 1.875 20.25C1.875 20.5484 1.99353 20.8345 2.2045 21.0455C2.41548 21.2565 2.70163 21.375 3 21.375H19.5C19.7984 21.375 20.0845 21.2565 20.2955 21.0455C20.5065 20.8345 20.625 20.5484 20.625 20.25C20.625 19.9516 20.5065 19.6655 20.2955 19.4545C20.0845 19.2435 19.7984 19.125 19.5 19.125H18.1191C18.9274 18.252 19.5636 17.2342 19.9941 16.125C21.0673 16.094 22.0862 15.6458 22.8342 14.8755C23.5822 14.1053 24.0004 13.0737 24 12V11.25C23.9988 10.1564 23.5638 9.10787 22.7904 8.33455C22.0171 7.56124 20.9686 7.12624 19.875 7.125ZM18.375 12.75C18.3726 14.0728 18.0033 15.3691 17.3082 16.4946C16.613 17.62 15.6193 18.5306 14.4375 19.125H8.0625C6.88071 18.5306 5.88698 17.62 5.19183 16.4946C4.49668 15.3691 4.12738 14.0728 4.125 12.75V9.375H18.375V12.75ZM21.75 12C21.7497 12.3744 21.6372 12.7401 21.4272 13.0501C21.2172 13.36 20.9192 13.6 20.5716 13.7391C20.6073 13.4106 20.6251 13.0804 20.625 12.75V9.5325C20.9592 9.67837 21.2437 9.91853 21.4435 10.2236C21.6433 10.5286 21.7498 10.8853 21.75 11.25V12ZM6.375 4.5V2.25C6.375 1.95163 6.49353 1.66548 6.7045 1.4545C6.91548 1.24353 7.20163 1.125 7.5 1.125C7.79837 1.125 8.08452 1.24353 8.2955 1.4545C8.50647 1.66548 8.625 1.95163 8.625 2.25V4.5C8.625 4.79837 8.50647 5.08452 8.2955 5.2955C8.08452 5.50647 7.79837 5.625 7.5 5.625C7.20163 5.625 6.91548 5.50647 6.7045 5.2955C6.49353 5.08452 6.375 4.79837 6.375 4.5ZM10.125 4.5V2.25C10.125 1.95163 10.2435 1.66548 10.4545 1.4545C10.6655 1.24353 10.9516 1.125 11.25 1.125C11.5484 1.125 11.8345 1.24353 12.0455 1.4545C12.2565 1.66548 12.375 1.95163 12.375 2.25V4.5C12.375 4.79837 12.2565 5.08452 12.0455 5.2955C11.8345 5.50647 11.5484 5.625 11.25 5.625C10.9516 5.625 10.6655 5.50647 10.4545 5.2955C10.2435 5.08452 10.125 4.79837 10.125 4.5ZM13.875 4.5V2.25C13.875 1.95163 13.9935 1.66548 14.2045 1.4545C14.4155 1.24353 14.7016 1.125 15 1.125C15.2984 1.125 15.5845 1.24353 15.7955 1.4545C16.0065 1.66548 16.125 1.95163 16.125 2.25V4.5C16.125 4.79837 16.0065 5.08452 15.7955 5.2955C15.5845 5.50647 15.2984 5.625 15 5.625C14.7016 5.625 14.4155 5.50647 14.2045 5.2955C13.9935 5.08452 13.875 4.79837 13.875 4.5Z" fill="#130032"/>
</svg>
