<svg width="24" height="24" viewBox="0 0 24 24" fill="none" xmlns="http://www.w3.org/2000/svg">
<path d="M20.1169 3.88311C18.4556 2.2228 16.0312 1.55905 13.2947 2.01561C10.694 2.44874 8.0953 3.85499 5.97468 5.97468C3.85405 8.09436 2.44874 10.694 2.01561 13.2947C1.55905 16.0331 2.2228 18.4556 3.88311 20.1169C5.20124 21.435 7.0003 22.125 9.05624 22.125C9.60885 22.1234 10.1604 22.0764 10.7053 21.9844C13.3059 21.5512 15.9047 20.145 18.0253 18.0253C20.1459 15.9056 21.5512 13.3059 21.9844 10.7053C22.4409 7.96874 21.7772 5.54436 20.1169 3.88311ZM4.23467 13.6641C4.59092 11.5228 5.77405 9.35718 7.56561 7.5703C9.35717 5.78343 11.5228 4.59374 13.6641 4.23467C14.0828 4.16315 14.5067 4.12647 14.9316 4.12499C15.5103 4.12077 16.0865 4.20196 16.6415 4.36593C15.8762 4.70933 15.1556 5.14472 14.4956 5.66249C12.6206 7.14093 11.4131 9.19874 10.8975 11.7797C10.0584 15.9731 7.11936 17.5078 5.07843 18.0694C4.24218 16.9528 3.94311 15.4134 4.23467 13.6641ZM19.7653 10.3359C19.409 12.4772 18.2259 14.6428 16.4344 16.4344C14.6428 18.2259 12.4772 19.4062 10.3359 19.7653C9.24374 19.9472 8.23593 19.8975 7.35936 19.6322C8.12425 19.2898 8.8443 18.855 9.50343 18.3375C11.3784 16.859 12.5869 14.8012 13.1025 12.2203C13.9462 8.02686 16.8806 6.49218 18.9216 5.93061C19.7578 7.04718 20.0569 8.58655 19.7653 10.3359Z" fill="#130032"/>
</svg>
