<svg width="24" height="24" viewBox="0 0 24 24" fill="none" xmlns="http://www.w3.org/2000/svg">
<path d="M7.5 2.625H5.25C4.75272 2.625 4.27581 2.82254 3.92417 3.17417C3.57254 3.52581 3.375 4.00272 3.375 4.5V19.5C3.375 19.9973 3.57254 20.4742 3.92417 20.8258C4.27581 21.1775 4.75272 21.375 5.25 21.375H7.5C7.99728 21.375 8.47419 21.1775 8.82583 20.8258C9.17746 20.4742 9.375 19.9973 9.375 19.5V4.5C9.375 4.00272 9.17746 3.52581 8.82583 3.17417C8.47419 2.82254 7.99728 2.625 7.5 2.625ZM7.125 19.125H5.625V4.875H7.125V19.125ZM14.625 2.625H12.375C11.8777 2.625 11.4008 2.82254 11.0492 3.17417C10.6975 3.52581 10.5 4.00272 10.5 4.5V19.5C10.5 19.9973 10.6975 20.4742 11.0492 20.8258C11.4008 21.1775 11.8777 21.375 12.375 21.375H14.625C15.1223 21.375 15.5992 21.1775 15.9508 20.8258C16.3025 20.4742 16.5 19.9973 16.5 19.5V4.5C16.5 4.00272 16.3025 3.52581 15.9508 3.17417C15.5992 2.82254 15.1223 2.625 14.625 2.625ZM14.25 19.125H12.75V4.875H14.25V19.125ZM23.625 12C23.625 12.2984 23.5065 12.5845 23.2955 12.7955C23.0845 13.0065 22.7984 13.125 22.5 13.125H21.75V13.875C21.75 14.1734 21.6315 14.4595 21.4205 14.6705C21.2095 14.8815 20.9234 15 20.625 15C20.3266 15 20.0405 14.8815 19.8295 14.6705C19.6185 14.4595 19.5 14.1734 19.5 13.875V13.125H18.75C18.4516 13.125 18.1655 13.0065 17.9545 12.7955C17.7435 12.5845 17.625 12.2984 17.625 12C17.625 11.7016 17.7435 11.4155 17.9545 11.2045C18.1655 10.9935 18.4516 10.875 18.75 10.875H19.5V10.125C19.5 9.82663 19.6185 9.54048 19.8295 9.3295C20.0405 9.11853 20.3266 9 20.625 9C20.9234 9 21.2095 9.11853 21.4205 9.3295C21.6315 9.54048 21.75 9.82663 21.75 10.125V10.875H22.5C22.7984 10.875 23.0845 10.9935 23.2955 11.2045C23.5065 11.4155 23.625 11.7016 23.625 12Z" fill="#130032"/>
</svg>
