<svg width="24" height="24" viewBox="0 0 24 24" fill="none" xmlns="http://www.w3.org/2000/svg">
<path d="M11.625 2.625H9.375C8.87772 2.625 8.40081 2.82254 8.04917 3.17417C7.69754 3.52581 7.5 4.00272 7.5 4.5V19.5C7.5 19.9973 7.69754 20.4742 8.04917 20.8258C8.40081 21.1775 8.87772 21.375 9.375 21.375H11.625C12.1223 21.375 12.5992 21.1775 12.9508 20.8258C13.3025 20.4742 13.5 19.9973 13.5 19.5V4.5C13.5 4.00272 13.3025 3.52581 12.9508 3.17417C12.5992 2.82254 12.1223 2.625 11.625 2.625ZM11.25 19.125H9.75V4.875H11.25V19.125ZM18.75 2.625H16.5C16.0027 2.625 15.5258 2.82254 15.1742 3.17417C14.8225 3.52581 14.625 4.00272 14.625 4.5V19.5C14.625 19.9973 14.8225 20.4742 15.1742 20.8258C15.5258 21.1775 16.0027 21.375 16.5 21.375H18.75C19.2473 21.375 19.7242 21.1775 20.0758 20.8258C20.4275 20.4742 20.625 19.9973 20.625 19.5V4.5C20.625 4.00272 20.4275 3.52581 20.0758 3.17417C19.7242 2.82254 19.2473 2.625 18.75 2.625ZM18.375 19.125H16.875V4.875H18.375V19.125ZM6.375 12C6.375 12.2984 6.25647 12.5845 6.0455 12.7955C5.83452 13.0065 5.54837 13.125 5.25 13.125H4.5V13.875C4.5 14.1734 4.38147 14.4595 4.1705 14.6705C3.95952 14.8815 3.67337 15 3.375 15C3.07663 15 2.79048 14.8815 2.5795 14.6705C2.36853 14.4595 2.25 14.1734 2.25 13.875V13.125H1.5C1.20163 13.125 0.915483 13.0065 0.704505 12.7955C0.493526 12.5845 0.375 12.2984 0.375 12C0.375 11.7016 0.493526 11.4155 0.704505 11.2045C0.915483 10.9935 1.20163 10.875 1.5 10.875H2.25V10.125C2.25 9.82663 2.36853 9.54048 2.5795 9.3295C2.79048 9.11853 3.07663 9 3.375 9C3.67337 9 3.95952 9.11853 4.1705 9.3295C4.38147 9.54048 4.5 9.82663 4.5 10.125V10.875H5.25C5.54837 10.875 5.83452 10.9935 6.0455 11.2045C6.25647 11.4155 6.375 11.7016 6.375 12Z" fill="#130032"/>
</svg>
