<svg width="24" height="24" viewBox="0 0 24 24" fill="none" xmlns="http://www.w3.org/2000/svg">
<path d="M20.5014 11.7619C20.5706 11.6301 20.6131 11.486 20.6262 11.3377C20.6393 11.1895 20.6229 11.0401 20.5779 10.8982C20.5329 10.7564 20.4602 10.6248 20.364 10.5113C20.2678 10.3977 20.15 10.3044 20.0175 10.2367C19.885 10.1689 19.7403 10.1282 19.5919 10.1168C19.4435 10.1053 19.2943 10.1235 19.153 10.1701C19.0117 10.2168 18.881 10.291 18.7686 10.3885C18.6561 10.486 18.5641 10.6048 18.4979 10.7381C17.9045 11.8844 17.0074 12.8457 15.9048 13.5169L14.6392 10.6678C15.2154 10.1872 15.6495 9.55853 15.895 8.8495C16.1404 8.14047 16.1878 7.37793 16.032 6.64397C15.8763 5.91001 15.5233 5.23242 15.0111 4.68416C14.4989 4.1359 13.8468 3.73772 13.1251 3.5325V2.25C13.1251 1.95163 13.0066 1.66548 12.7956 1.4545C12.5847 1.24353 12.2985 1.125 12.0001 1.125C11.7018 1.125 11.4156 1.24353 11.2046 1.4545C10.9937 1.66548 10.8751 1.95163 10.8751 2.25V3.5325C10.1534 3.73772 9.50139 4.1359 8.98918 4.68416C8.47696 5.23242 8.12398 5.91001 7.96824 6.64397C7.8125 7.37793 7.85989 8.14047 8.10532 8.8495C8.35075 9.55853 8.78491 10.1872 9.36108 10.6678L4.96889 20.5425C4.90841 20.6779 4.8753 20.824 4.87147 20.9722C4.86764 21.1205 4.89316 21.268 4.94657 21.4064C4.99999 21.5448 5.08023 21.6712 5.18268 21.7784C5.28514 21.8857 5.40779 21.9716 5.54358 22.0312C5.68743 22.0944 5.84304 22.1264 6.00014 22.125C6.21834 22.1256 6.432 22.0627 6.6151 21.944C6.7982 21.8254 6.94284 21.656 7.03139 21.4566L9.25045 16.4634C10.1413 16.7372 11.0682 16.8759 12.0001 16.875C12.9333 16.8741 13.8615 16.7377 14.7555 16.47L16.9689 21.4566C17.0574 21.656 17.2021 21.8254 17.3852 21.944C17.5683 22.0627 17.7819 22.1256 18.0001 22.125C18.1569 22.1263 18.3122 22.0943 18.4558 22.0312C18.5916 21.9717 18.7144 21.8858 18.8169 21.7786C18.9195 21.6714 18.9998 21.545 19.0533 21.4066C19.1068 21.2683 19.1324 21.1207 19.1287 20.9724C19.1249 20.8241 19.0918 20.678 19.0314 20.5425L16.8273 15.5831C18.3962 14.692 19.6725 13.3645 20.5014 11.7619ZM12.0001 5.625C12.371 5.625 12.7335 5.73497 13.0418 5.94099C13.3502 6.14702 13.5905 6.43986 13.7324 6.78247C13.8743 7.12508 13.9115 7.50208 13.8391 7.86579C13.7668 8.22951 13.5882 8.5636 13.326 8.82583C13.0637 9.08805 12.7296 9.26663 12.3659 9.33897C12.0022 9.41132 11.6252 9.37419 11.2826 9.23227C10.94 9.09036 10.6472 8.85004 10.4411 8.54169C10.2351 8.23335 10.1251 7.87084 10.1251 7.5C10.1251 7.00272 10.3227 6.52581 10.6743 6.17417C11.0259 5.82254 11.5029 5.625 12.0001 5.625ZM12.0001 14.625C11.3824 14.6258 10.7672 14.5461 10.1701 14.3878L11.417 11.5828C11.8037 11.6391 12.1965 11.6391 12.5833 11.5828L13.833 14.3953C13.234 14.548 12.6183 14.6251 12.0001 14.625Z" fill="#130032"/>
</svg>
