<svg width="24" height="24" viewBox="0 0 24 24" fill="none" xmlns="http://www.w3.org/2000/svg">
<g clip-path="url(#clip0_7_18527)">
<path d="M23.1559 10.9122L21.2369 10.4116C20.9056 8.50456 19.9936 6.74627 18.6256 5.37691C17.2576 4.00754 15.5002 3.09387 13.5934 2.76068L13.0881 0.844426C13.0252 0.603677 12.8842 0.390583 12.6873 0.238495C12.4904 0.0864063 12.2485 0.00390625 11.9997 0.00390625C11.7509 0.00390625 11.509 0.0864063 11.3121 0.238495C11.1152 0.390583 10.9742 0.603677 10.9113 0.844426L10.4106 2.76349C8.50254 3.09528 6.74349 4.00833 5.37402 5.37781C4.00454 6.74728 3.09149 8.50633 2.7597 10.4144L0.84345 10.9122C0.602701 10.9752 0.389607 11.1161 0.237518 11.3131C0.0854298 11.51 0.00292969 11.7518 0.00292969 12.0007C0.00292969 12.2495 0.0854298 12.4913 0.237518 12.6883C0.389607 12.8852 0.602701 13.0262 0.84345 13.0891L2.7597 13.5944C3.09149 15.5025 4.00454 17.2616 5.37402 18.631C6.74349 20.0005 8.50254 20.9136 10.4106 21.2454L10.9113 23.1569C10.9742 23.3977 11.1152 23.6108 11.3121 23.7629C11.509 23.9149 11.7509 23.9974 11.9997 23.9974C12.2485 23.9974 12.4904 23.9149 12.6873 23.7629C12.8842 23.6108 13.0252 23.3977 13.0881 23.1569L13.5934 21.2407C15.5 20.9083 17.2576 19.9956 18.6261 18.6271C19.9946 17.2586 20.9073 15.501 21.2397 13.5944L23.1559 13.0891C23.3967 13.0262 23.6098 12.8852 23.7619 12.6883C23.914 12.4913 23.9965 12.2495 23.9965 12.0007C23.9965 11.7518 23.914 11.51 23.7619 11.3131C23.6098 11.1161 23.3967 10.9752 23.1559 10.9122ZM18.7609 9.76568L15.1694 8.82818L14.2319 5.23661C15.2873 5.58738 16.2464 6.17935 17.0331 6.96554C17.8198 7.75172 18.4123 8.71047 18.7638 9.76568H18.7609ZM10.9984 9.4113L11.9997 5.58255L12.9981 9.4113L11.9997 10.4069L10.9984 9.4113ZM11.9997 13.5944L12.9981 14.5929L11.9997 18.4188L11.0013 14.5901L11.9997 13.5944ZM9.41032 11.0051L10.4059 12.0007L9.40751 12.9991L5.58157 12.0007L9.41032 11.0051ZM14.5891 13.0019L13.5934 12.0007L14.5919 11.0022L18.4178 12.0007L14.5891 13.0019ZM9.7647 5.23943L8.8272 8.83099L5.23564 9.76849C5.5864 8.71307 6.17837 7.75395 6.96456 6.96727C7.75075 6.1806 8.7095 5.58803 9.7647 5.23661V5.23943ZM5.23564 14.2394L8.8272 15.1769L9.7647 18.7685C8.7094 18.417 7.75058 17.8243 6.96439 17.0374C6.17819 16.2506 5.58628 15.2913 5.23564 14.2357V14.2394ZM14.2356 18.7685L15.1731 15.1769L18.7647 14.2394C18.413 15.2937 17.8205 16.2516 17.0342 17.0371C16.2479 17.8226 15.2894 18.4141 14.2347 18.7647L14.2356 18.7685Z" fill="#130032"/>
</g>
<defs>
<clipPath id="clip0_7_18527">
<rect width="24" height="24" fill="white"/>
</clipPath>
</defs>
</svg>
