<svg width="24" height="24" viewBox="0 0 24 24" fill="none" xmlns="http://www.w3.org/2000/svg">
<path d="M7.875 7.125C7.875 6.82663 7.99353 6.54048 8.2045 6.3295C8.41548 6.11853 8.70163 6 9 6H15C15.2984 6 15.5845 6.11853 15.7955 6.3295C16.0065 6.54048 16.125 6.82663 16.125 7.125C16.125 7.42337 16.0065 7.70952 15.7955 7.9205C15.5845 8.13147 15.2984 8.25 15 8.25H9C8.70163 8.25 8.41548 8.13147 8.2045 7.9205C7.99353 7.70952 7.875 7.42337 7.875 7.125ZM9 12H15C15.2984 12 15.5845 11.8815 15.7955 11.6705C16.0065 11.4595 16.125 11.1734 16.125 10.875C16.125 10.5766 16.0065 10.2905 15.7955 10.0795C15.5845 9.86853 15.2984 9.75 15 9.75H9C8.70163 9.75 8.41548 9.86853 8.2045 10.0795C7.99353 10.2905 7.875 10.5766 7.875 10.875C7.875 11.1734 7.99353 11.4595 8.2045 11.6705C8.41548 11.8815 8.70163 12 9 12ZM19.875 3.75V20.25C19.875 20.7473 19.6775 21.2242 19.3258 21.5758C18.9742 21.9275 18.4973 22.125 18 22.125H6C5.50272 22.125 5.02581 21.9275 4.67417 21.5758C4.32254 21.2242 4.125 20.7473 4.125 20.25V3.75C4.125 3.25272 4.32254 2.77581 4.67417 2.42417C5.02581 2.07254 5.50272 1.875 6 1.875H18C18.4973 1.875 18.9742 2.07254 19.3258 2.42417C19.6775 2.77581 19.875 3.25272 19.875 3.75ZM17.625 4.125H6.375V19.875H17.625V4.125ZM12 15.75C11.7033 15.75 11.4133 15.838 11.1666 16.0028C10.92 16.1676 10.7277 16.4019 10.6142 16.676C10.5006 16.9501 10.4709 17.2517 10.5288 17.5426C10.5867 17.8336 10.7296 18.1009 10.9393 18.3107C11.1491 18.5204 11.4164 18.6633 11.7074 18.7212C11.9983 18.7791 12.2999 18.7494 12.574 18.6358C12.8481 18.5223 13.0824 18.33 13.2472 18.0834C13.412 17.8367 13.5 17.5467 13.5 17.25C13.5 16.8522 13.342 16.4706 13.0607 16.1893C12.7794 15.908 12.3978 15.75 12 15.75Z" fill="#130032"/>
</svg>
