<svg width="24" height="24" viewBox="0 0 24 24" fill="none" xmlns="http://www.w3.org/2000/svg">
<path d="M19.5459 12.0457C19.4414 12.1506 19.3172 12.2338 19.1804 12.2906C19.0437 12.3474 18.8971 12.3766 18.749 12.3766C18.601 12.3766 18.4543 12.3474 18.3176 12.2906C18.1809 12.2338 18.0567 12.1506 17.9521 12.0457L12 6.09354L6.0459 12.0457C5.83455 12.2571 5.54791 12.3758 5.24902 12.3758C4.95014 12.3758 4.66349 12.2571 4.45215 12.0457C4.2408 11.8344 4.12207 11.5477 4.12207 11.2489C4.12207 10.95 4.2408 10.6633 4.45215 10.452L11.2021 3.70198C11.3067 3.5971 11.4309 3.51388 11.5676 3.4571C11.7043 3.40032 11.851 3.37109 11.999 3.37109C12.1471 3.37109 12.2937 3.40032 12.4304 3.4571C12.5672 3.51388 12.6914 3.5971 12.7959 3.70198L19.5459 10.452C19.6508 10.5565 19.734 10.6807 19.7908 10.8174C19.8476 10.9542 19.8768 11.1008 19.8768 11.2489C19.8768 11.3969 19.8476 11.5435 19.7908 11.6803C19.734 11.817 19.6508 11.9412 19.5459 12.0457Z" fill="#130032"/>
</svg>
