<svg width="24" height="24" viewBox="0 0 24 24" fill="none" xmlns="http://www.w3.org/2000/svg">
<path d="M14.3044 6.22031C15.2562 7.99809 15.7543 9.98344 15.7543 12C15.7543 14.0166 15.2562 16.0019 14.3044 17.7797C14.2362 17.9124 14.1423 18.0302 14.0281 18.1263C13.9139 18.2224 13.7818 18.2948 13.6393 18.3393C13.4969 18.3838 13.3471 18.3996 13.1985 18.3856C13.0499 18.3716 12.9056 18.3283 12.774 18.258C12.6424 18.1877 12.526 18.092 12.4317 17.9763C12.3375 17.8607 12.2671 17.7274 12.2248 17.5843C12.1826 17.4412 12.1692 17.2911 12.1855 17.1428C12.2017 16.9944 12.2474 16.8508 12.3197 16.7203C13.0968 15.2683 13.5035 13.6469 13.5035 12C13.5035 10.3531 13.0968 8.73169 12.3197 7.27969C12.2446 7.14904 12.1965 7.00463 12.1782 6.85504C12.16 6.70545 12.172 6.55371 12.2136 6.40885C12.2551 6.26399 12.3253 6.12894 12.42 6.01174C12.5148 5.89454 12.6321 5.79756 12.765 5.72657C12.898 5.65559 13.0438 5.61203 13.1939 5.59849C13.344 5.58495 13.4953 5.6017 13.6388 5.64775C13.7823 5.6938 13.915 5.76822 14.0292 5.86657C14.1434 5.96493 14.2366 6.08522 14.3034 6.22031H14.3044ZM9.40875 7.25719C9.27799 7.32624 9.16213 7.42039 9.06778 7.53425C8.97344 7.64812 8.90247 7.77947 8.85893 7.92079C8.8154 8.06211 8.80015 8.21062 8.81406 8.35784C8.82797 8.50506 8.87077 8.64809 8.94 8.77875C9.46886 9.7701 9.7455 10.8764 9.7455 12C9.7455 13.1236 9.46886 14.2299 8.94 15.2213C8.86755 15.3519 8.82182 15.4956 8.80549 15.644C8.78917 15.7925 8.80257 15.9427 8.84491 16.086C8.88726 16.2292 8.9577 16.3626 9.05214 16.4783C9.14657 16.594 9.2631 16.6898 9.39493 16.76C9.52675 16.8302 9.67125 16.8734 9.81997 16.8872C9.96869 16.901 10.1187 16.885 10.2612 16.8402C10.4036 16.7954 10.5358 16.7227 10.6499 16.6263C10.7639 16.5299 10.8577 16.4118 10.9256 16.2787C11.6278 14.9619 11.9951 13.4924 11.9951 12C11.9951 10.5076 11.6278 9.03813 10.9256 7.72125C10.7854 7.45921 10.5471 7.26333 10.2629 7.17638C9.97869 7.08943 9.67162 7.11848 9.40875 7.25719ZM22.125 12C22.125 14.0025 21.5312 15.9601 20.4186 17.6251C19.3061 19.2902 17.7248 20.5879 15.8747 21.3543C14.0246 22.1206 11.9888 22.3211 10.0247 21.9305C8.06066 21.5398 6.25656 20.5755 4.84055 19.1595C3.42454 17.7435 2.46023 15.9393 2.06955 13.9753C1.67888 12.0112 1.87939 9.97543 2.64572 8.12533C3.41206 6.27523 4.70981 4.69392 6.37486 3.58137C8.0399 2.46882 9.99747 1.875 12 1.875C14.6844 1.87798 17.258 2.94567 19.1562 4.84383C21.0543 6.74199 22.122 9.3156 22.125 12ZM19.875 12C19.875 10.4425 19.4131 8.91992 18.5478 7.62488C17.6825 6.32985 16.4526 5.32049 15.0136 4.72445C13.5747 4.12841 11.9913 3.97246 10.4637 4.27632C8.93607 4.58017 7.53288 5.3302 6.43154 6.43153C5.3302 7.53287 4.58018 8.93606 4.27632 10.4637C3.97246 11.9913 4.12841 13.5747 4.72445 15.0136C5.32049 16.4526 6.32985 17.6825 7.62489 18.5478C8.91993 19.4131 10.4425 19.875 12 19.875C14.0879 19.8728 16.0896 19.0424 17.566 17.566C19.0424 16.0896 19.8728 14.0879 19.875 12Z" fill="#130032"/>
</svg>
