<svg width="24" height="24" viewBox="0 0 24 24" fill="none" xmlns="http://www.w3.org/2000/svg">
<g clip-path="url(#clip0_7_18520)">
<path d="M23.79 8.71875C23.7039 8.59848 23.595 8.49637 23.4694 8.41826C23.3438 8.34016 23.204 8.28758 23.0581 8.26355C22.9121 8.23951 22.7629 8.24449 22.6189 8.2782C22.4748 8.31191 22.3389 8.37369 22.2188 8.46L21.375 9.06375V7.5C21.375 7.20163 21.2565 6.91548 21.0455 6.7045C20.8345 6.49353 20.5484 6.375 20.25 6.375H3.75003C3.45166 6.375 3.16551 6.49353 2.95453 6.7045C2.74356 6.91548 2.62503 7.20163 2.62503 7.5V9.06375L1.78128 8.46C1.66112 8.37382 1.52516 8.31215 1.38117 8.27851C1.23718 8.24488 1.08797 8.23993 0.942065 8.26396C0.796161 8.28799 0.656418 8.34052 0.530815 8.41855C0.405213 8.49658 0.296209 8.59859 0.210029 8.71875C0.123849 8.83891 0.0621803 8.97487 0.0285435 9.11886C-0.00509338 9.26285 -0.0100394 9.41206 0.0139877 9.55796C0.0625128 9.85263 0.226106 10.116 0.468779 10.29L2.62503 11.8294V17.25C2.62503 18.1451 2.98061 19.0035 3.61354 19.6365C4.24648 20.2694 5.10492 20.625 6.00003 20.625H18C18.8951 20.625 19.7536 20.2694 20.3865 19.6365C21.0194 19.0035 21.375 18.1451 21.375 17.25V11.8294L23.5313 10.29C23.6515 10.2039 23.7537 10.0949 23.8318 9.96934C23.9099 9.84374 23.9624 9.70397 23.9865 9.55803C24.0105 9.41209 24.0055 9.26284 23.9718 9.11883C23.9381 8.97482 23.8763 8.83886 23.79 8.71875ZM19.125 17.25C19.125 17.5484 19.0065 17.8345 18.7955 18.0455C18.5845 18.2565 18.2984 18.375 18 18.375H6.00003C5.70166 18.375 5.41551 18.2565 5.20453 18.0455C4.99356 17.8345 4.87503 17.5484 4.87503 17.25V8.625H19.125V17.25ZM7.12503 3.75V1.5C7.12503 1.20163 7.24356 0.915483 7.45453 0.704505C7.66551 0.493526 7.95166 0.375 8.25003 0.375C8.5484 0.375 8.83455 0.493526 9.04552 0.704505C9.2565 0.915483 9.37503 1.20163 9.37503 1.5V3.75C9.37503 4.04837 9.2565 4.33452 9.04552 4.5455C8.83455 4.75647 8.5484 4.875 8.25003 4.875C7.95166 4.875 7.66551 4.75647 7.45453 4.5455C7.24356 4.33452 7.12503 4.04837 7.12503 3.75ZM10.875 3.75V1.5C10.875 1.20163 10.9936 0.915483 11.2045 0.704505C11.4155 0.493526 11.7017 0.375 12 0.375C12.2984 0.375 12.5845 0.493526 12.7955 0.704505C13.0065 0.915483 13.125 1.20163 13.125 1.5V3.75C13.125 4.04837 13.0065 4.33452 12.7955 4.5455C12.5845 4.75647 12.2984 4.875 12 4.875C11.7017 4.875 11.4155 4.75647 11.2045 4.5455C10.9936 4.33452 10.875 4.04837 10.875 3.75ZM14.625 3.75V1.5C14.625 1.20163 14.7436 0.915483 14.9545 0.704505C15.1655 0.493526 15.4517 0.375 15.75 0.375C16.0484 0.375 16.3345 0.493526 16.5455 0.704505C16.7565 0.915483 16.875 1.20163 16.875 1.5V3.75C16.875 4.04837 16.7565 4.33452 16.5455 4.5455C16.3345 4.75647 16.0484 4.875 15.75 4.875C15.4517 4.875 15.1655 4.75647 14.9545 4.5455C14.7436 4.33452 14.625 4.04837 14.625 3.75Z" fill="#130032"/>
</g>
<defs>
<clipPath id="clip0_7_18520">
<rect width="24" height="24" fill="white"/>
</clipPath>
</defs>
</svg>
