<svg width="24" height="24" viewBox="0 0 24 24" fill="none" xmlns="http://www.w3.org/2000/svg">
<path d="M12 1.875C9.99747 1.875 8.0399 2.46882 6.37486 3.58137C4.70981 4.69392 3.41206 6.27523 2.64572 8.12533C1.87939 9.97543 1.67888 12.0112 2.06955 13.9753C2.46023 15.9393 3.42454 17.7435 4.84055 19.1595C6.25656 20.5755 8.06066 21.5398 10.0247 21.9305C11.9888 22.3211 14.0246 22.1206 15.8747 21.3543C17.7248 20.5879 19.3061 19.2902 20.4186 17.6251C21.5312 15.9601 22.125 14.0025 22.125 12C22.122 9.3156 21.0543 6.74199 19.1562 4.84383C17.258 2.94567 14.6844 1.87798 12 1.875ZM12 19.875C10.4425 19.875 8.91993 19.4131 7.62489 18.5478C6.32985 17.6825 5.32049 16.4526 4.72445 15.0136C4.12841 13.5747 3.97246 11.9913 4.27632 10.4637C4.58018 8.93606 5.3302 7.53287 6.43154 6.43153C7.53288 5.3302 8.93607 4.58017 10.4637 4.27632C11.9913 3.97246 13.5747 4.12841 15.0136 4.72445C16.4526 5.32049 17.6825 6.32985 18.5478 7.62488C19.4131 8.91992 19.875 10.4425 19.875 12C19.8728 14.0879 19.0424 16.0896 17.566 17.566C16.0896 19.0424 14.0879 19.8728 12 19.875ZM16.875 12C16.8749 13.023 16.553 14.0201 15.9549 14.85C15.3568 15.68 14.5127 16.3007 13.5422 16.6243C12.5717 16.948 11.524 16.9581 10.5475 16.6533C9.57093 16.3485 8.71501 15.7442 8.10094 14.9259C8.00713 14.8083 7.93786 14.673 7.89725 14.5281C7.85664 14.3833 7.84551 14.2317 7.86452 14.0824C7.88352 13.9332 7.93227 13.7892 8.00789 13.6591C8.08351 13.5291 8.18446 13.4155 8.30476 13.3251C8.42506 13.2347 8.56227 13.1694 8.70826 13.133C8.85426 13.0965 9.00608 13.0898 9.15473 13.1131C9.30339 13.1364 9.44585 13.1893 9.57371 13.2686C9.70156 13.348 9.81219 13.4521 9.89907 13.575C10.2296 14.0158 10.6905 14.3413 11.2164 14.5056C11.7423 14.6699 12.3065 14.6645 12.8292 14.4903C13.3518 14.3161 13.8064 13.9818 14.1286 13.5349C14.4507 13.0879 14.6241 12.5509 14.6241 12C14.6241 11.4491 14.4507 10.9121 14.1286 10.4651C13.8064 10.0182 13.3518 9.68393 12.8292 9.50971C12.3065 9.33548 11.7423 9.33013 11.2164 9.4944C10.6905 9.65867 10.2296 9.98425 9.89907 10.425C9.81219 10.5479 9.70156 10.652 9.57371 10.7314C9.44585 10.8107 9.30339 10.8636 9.15473 10.8869C9.00608 10.9102 8.85426 10.9035 8.70826 10.867C8.56227 10.8306 8.42506 10.7653 8.30476 10.6749C8.18446 10.5845 8.08351 10.4709 8.00789 10.3409C7.93227 10.2108 7.88352 10.0668 7.86452 9.91757C7.84551 9.7683 7.85664 9.61674 7.89725 9.47186C7.93786 9.32697 8.00713 9.1917 8.10094 9.07406C8.71501 8.25585 9.57093 7.65154 10.5475 7.34673C11.524 7.04192 12.5717 7.05205 13.5422 7.37568C14.5127 7.69931 15.3568 8.32004 15.9549 9.14998C16.553 9.97991 16.8749 10.977 16.875 12Z" fill="#130032"/>
</svg>
