<svg width="24" height="24" viewBox="0 0 24 24" fill="none" xmlns="http://www.w3.org/2000/svg">
<path d="M12 1.875C9.99747 1.875 8.0399 2.46882 6.37486 3.58137C4.70981 4.69392 3.41206 6.27523 2.64572 8.12533C1.87939 9.97543 1.67888 12.0112 2.06955 13.9753C2.46023 15.9393 3.42454 17.7435 4.84055 19.1595C6.25656 20.5755 8.06066 21.5398 10.0247 21.9305C11.9888 22.3211 14.0246 22.1206 15.8747 21.3543C17.7248 20.5879 19.3061 19.2902 20.4186 17.6251C21.5312 15.9601 22.125 14.0025 22.125 12C22.122 9.3156 21.0543 6.74199 19.1562 4.84383C17.258 2.94567 14.6844 1.87798 12 1.875ZM12 19.875C10.4425 19.875 8.91993 19.4131 7.62489 18.5478C6.32985 17.6825 5.32049 16.4526 4.72445 15.0136C4.12841 13.5747 3.97246 11.9913 4.27632 10.4637C4.58018 8.93606 5.3302 7.53287 6.43154 6.43153C7.53288 5.3302 8.93607 4.58017 10.4637 4.27632C11.9913 3.97246 13.5747 4.12841 15.0136 4.72445C16.4526 5.32049 17.6825 6.32985 18.5478 7.62488C19.4131 8.91992 19.875 10.4425 19.875 12C19.8728 14.0879 19.0424 16.0896 17.566 17.566C16.0896 19.0424 14.0879 19.8728 12 19.875ZM15.8991 14.9259C15.285 15.7441 14.429 16.3484 13.4524 16.6532C12.4759 16.9579 11.4281 16.9478 10.4577 16.6241C9.48721 16.3004 8.64316 15.6796 8.04506 14.8496C7.44696 14.0197 7.12512 13.0226 7.12512 11.9995C7.12512 10.9765 7.44696 9.9794 8.04506 9.14943C8.64316 8.31945 9.48721 7.69866 10.4577 7.37498C11.4281 7.05129 12.4759 7.04112 13.4524 7.34588C14.429 7.65065 15.285 8.25492 15.8991 9.07312C15.991 9.19093 16.0586 9.32589 16.0979 9.47011C16.1371 9.61433 16.1472 9.76492 16.1276 9.91309C16.108 10.0613 16.059 10.204 15.9836 10.3331C15.9082 10.4621 15.8078 10.5748 15.6884 10.6647C15.5689 10.7545 15.4327 10.8196 15.2878 10.8562C15.1429 10.8928 14.9922 10.9002 14.8444 10.8778C14.6966 10.8555 14.5547 10.804 14.4271 10.7262C14.2994 10.6485 14.1886 10.5461 14.1009 10.425C13.7704 9.98425 13.3095 9.65867 12.7836 9.4944C12.2578 9.33013 11.6935 9.33548 11.1708 9.50971C10.6482 9.68393 10.1936 10.0182 9.87143 10.4651C9.54929 10.9121 9.37594 11.4491 9.37594 12C9.37594 12.5509 9.54929 13.0879 9.87143 13.5349C10.1936 13.9818 10.6482 14.3161 11.1708 14.4903C11.6935 14.6645 12.2578 14.6699 12.7836 14.5056C13.3095 14.3413 13.7704 14.0158 14.1009 13.575C14.1878 13.4521 14.2985 13.348 14.4263 13.2686C14.5542 13.1893 14.6966 13.1364 14.8453 13.1131C14.9939 13.0898 15.1457 13.0965 15.2917 13.133C15.4377 13.1694 15.575 13.2347 15.6953 13.3251C15.8156 13.4155 15.9165 13.5291 15.9921 13.6591C16.0677 13.7892 16.1165 13.9332 16.1355 14.0824C16.1545 14.2317 16.1434 14.3833 16.1028 14.5281C16.0621 14.673 15.9929 14.8083 15.8991 14.9259Z" fill="#130032"/>
</svg>
