<svg width="24" height="24" viewBox="0 0 24 24" fill="none" xmlns="http://www.w3.org/2000/svg">
<path d="M22.875 9.75V6.75C22.875 6.25272 22.6775 5.77581 22.3258 5.42417C21.9742 5.07254 21.4973 4.875 21 4.875H3C2.50272 4.875 2.02581 5.07254 1.67417 5.42417C1.32254 5.77581 1.125 6.25272 1.125 6.75V9.75C0.892132 9.92465 0.703126 10.1511 0.572949 10.4115C0.442772 10.6718 0.375 10.9589 0.375 11.25V15.75C0.375 16.2473 0.572544 16.7242 0.924175 17.0758C1.09828 17.2499 1.30498 17.388 1.53247 17.4823C1.75995 17.5765 2.00377 17.625 2.25 17.625H2.625V18.75C2.625 19.0484 2.74353 19.3345 2.9545 19.5455C3.16548 19.7565 3.45163 19.875 3.75 19.875C4.04837 19.875 4.33452 19.7565 4.5455 19.5455C4.75647 19.3345 4.875 19.0484 4.875 18.75V17.625H19.125V18.75C19.125 19.0484 19.2435 19.3345 19.4545 19.5455C19.6655 19.7565 19.9516 19.875 20.25 19.875C20.5484 19.875 20.8345 19.7565 21.0455 19.5455C21.2565 19.3345 21.375 19.0484 21.375 18.75V17.625H21.75C22.2473 17.625 22.7242 17.4275 23.0758 17.0758C23.4275 16.7242 23.625 16.2473 23.625 15.75V11.25C23.625 10.9589 23.5572 10.6718 23.4271 10.4115C23.2969 10.1511 23.1079 9.92465 22.875 9.75ZM20.625 9.375H19.5C19.0027 9.375 18.5258 9.57254 18.1742 9.92417C17.8225 10.2758 17.625 10.7527 17.625 11.25V11.625H13.125V7.125H20.625V9.375ZM10.875 7.125V11.625H6.375V11.25C6.375 10.7527 6.17746 10.2758 5.82583 9.92417C5.47419 9.57254 4.99728 9.375 4.5 9.375H3.375V7.125H10.875ZM21.375 15.375H2.625V11.625H4.125V12.75C4.125 13.0484 4.24353 13.3345 4.4545 13.5455C4.66548 13.7565 4.95163 13.875 5.25 13.875H18.75C19.0484 13.875 19.3345 13.7565 19.5455 13.5455C19.7565 13.3345 19.875 13.0484 19.875 12.75V11.625H21.375V15.375Z" fill="#130032"/>
</svg>
