<svg width="24" height="24" viewBox="0 0 24 24" fill="none" xmlns="http://www.w3.org/2000/svg">
<path d="M11.2501 12C11.2501 12.2967 11.1621 12.5867 10.9973 12.8334C10.8325 13.08 10.5982 13.2723 10.3241 13.3858C10.05 13.4994 9.74843 13.5291 9.45746 13.4712C9.16648 13.4133 8.89921 13.2704 8.68943 13.0607C8.47965 12.8509 8.33679 12.5836 8.27891 12.2926C8.22104 12.0017 8.25074 11.7001 8.36427 11.426C8.4778 11.1519 8.67006 10.9176 8.91674 10.7528C9.16341 10.588 9.45342 10.5 9.75009 10.5C10.1479 10.5 10.5294 10.658 10.8108 10.9393C11.0921 11.2206 11.2501 11.6022 11.2501 12ZM14.2501 10.5C13.9534 10.5 13.6634 10.588 13.4167 10.7528C13.1701 10.9176 12.9778 11.1519 12.8643 11.426C12.7507 11.7001 12.721 12.0017 12.7789 12.2926C12.8368 12.5836 12.9797 12.8509 13.1894 13.0607C13.3992 13.2704 13.6665 13.4133 13.9575 13.4712C14.2484 13.5291 14.55 13.4994 14.8241 13.3858C15.0982 13.2723 15.3325 13.08 15.4973 12.8334C15.6621 12.5867 15.7501 12.2967 15.7501 12C15.7501 11.6022 15.5921 11.2206 15.3108 10.9393C15.0294 10.658 14.6479 10.5 14.2501 10.5ZM23.2013 11.6869C23.0255 11.9019 22.8041 12.0752 22.5531 12.1942C22.3021 12.3132 22.0279 12.375 21.7501 12.375H19.1251V15.6609C19.7398 16.0989 20.1996 16.7207 20.4381 17.4369C20.6766 18.153 20.6815 18.9263 20.4521 19.6454C20.2226 20.3645 19.7707 20.9921 19.1615 21.4378C18.5524 21.8834 17.8174 22.1241 17.0626 22.125H6.93759C6.1828 22.1241 5.44782 21.8834 4.83864 21.4378C4.22946 20.9921 3.77756 20.3645 3.54813 19.6454C3.31869 18.9263 3.32357 18.153 3.56206 17.4369C3.80056 16.7207 4.26034 16.0989 4.87509 15.6609V12.375H2.25009C1.97358 12.3747 1.70056 12.3133 1.45058 12.1951C1.20059 12.0769 0.979846 11.9049 0.804146 11.6914C0.628445 11.4779 0.502143 11.2282 0.434287 10.9601C0.366432 10.6921 0.358703 10.4123 0.411655 10.1409C0.648574 8.97603 1.24757 7.91579 2.12309 7.11166C2.9986 6.30754 4.10584 5.80066 5.28665 5.66344C4.53353 4.68491 4.12514 3.48479 4.12509 2.25C4.12509 1.95163 4.24362 1.66548 4.4546 1.4545C4.66558 1.24353 4.95172 1.125 5.25009 1.125C5.54846 1.125 5.83461 1.24353 6.04559 1.4545C6.25657 1.66548 6.37509 1.95163 6.37509 2.25C6.37509 3.14511 6.73067 4.00355 7.36361 4.63649C7.99654 5.26942 8.85499 5.625 9.75009 5.625H14.2501C15.1452 5.625 16.0036 5.26942 16.6366 4.63649C17.2695 4.00355 17.6251 3.14511 17.6251 2.25C17.6251 1.95163 17.7436 1.66548 17.9546 1.4545C18.1656 1.24353 18.4517 1.125 18.7501 1.125C19.0485 1.125 19.3346 1.24353 19.5456 1.4545C19.7566 1.66548 19.8751 1.95163 19.8751 2.25C19.8761 3.48436 19.4691 4.68443 18.7173 5.66344C19.8981 5.80066 21.0053 6.30754 21.8808 7.11166C22.7564 7.91579 23.3554 8.97603 23.5923 10.1409C23.6462 10.4115 23.6391 10.6906 23.5715 10.9581C23.5038 11.2255 23.3774 11.4745 23.2013 11.6869ZM7.12509 15H16.8751V9.75C16.8751 9.25272 16.6775 8.77581 16.3259 8.42417C15.9743 8.07254 15.4974 7.875 15.0001 7.875H9.00009C8.50281 7.875 8.0259 8.07254 7.67427 8.42417C7.32264 8.77581 7.12509 9.25272 7.12509 9.75V15ZM5.29697 7.935C4.71749 8.04615 4.17707 8.30666 3.72917 8.69076C3.28127 9.07486 2.94141 9.56924 2.74322 10.125H4.87509V9.75C4.87447 9.12063 5.01883 8.49958 5.29697 7.935ZM18.3751 18.5625C18.3751 18.2144 18.2368 17.8806 17.9907 17.6344C17.7445 17.3883 17.4107 17.25 17.0626 17.25H6.93759C6.5895 17.25 6.25566 17.3883 6.00951 17.6344C5.76337 17.8806 5.62509 18.2144 5.62509 18.5625C5.62509 18.9106 5.76337 19.2444 6.00951 19.4906C6.25566 19.7367 6.5895 19.875 6.93759 19.875H17.0626C17.4107 19.875 17.7445 19.7367 17.9907 19.4906C18.2368 19.2444 18.3751 18.9106 18.3751 18.5625ZM21.257 10.125C21.0588 9.56924 20.7189 9.07486 20.271 8.69076C19.8231 8.30666 19.2827 8.04615 18.7032 7.935C18.9814 8.49958 19.1257 9.12063 19.1251 9.75V10.125H21.257Z" fill="#130032"/>
</svg>
