<svg width="24" height="24" viewBox="0 0 24 24" fill="none" xmlns="http://www.w3.org/2000/svg">
<path d="M19.875 10.8756C19.6841 10.8756 19.4964 10.9241 19.3294 11.0166C19.1625 11.1091 19.0218 11.2425 18.9206 11.4044C18.7656 11.6544 18.6094 11.8909 18.4519 12.1141L17.0859 4.90656C17.0263 4.58845 16.8852 4.2912 16.6766 4.04374C16.468 3.79628 16.1988 3.60705 15.8954 3.49445C15.5919 3.38184 15.2645 3.34971 14.945 3.40118C14.6254 3.45264 14.3246 3.58595 14.0719 3.78812L14.055 3.80219L12 5.51312L9.945 3.80219L9.92813 3.78812C9.67556 3.58597 9.37499 3.4526 9.05563 3.40098C8.73626 3.34936 8.40898 3.38125 8.10559 3.49354C7.8022 3.60584 7.53302 3.79472 7.32423 4.04183C7.11544 4.28894 6.97414 4.58587 6.91406 4.90375L5.54437 12.115C5.38875 11.8894 5.2325 11.6528 5.07562 11.4053C4.97491 11.2438 4.83488 11.1105 4.66862 11.0179C4.50236 10.9252 4.31532 10.8763 4.125 10.8756C3.03098 10.8756 1.98177 11.3102 1.20818 12.0838C0.434597 12.8574 0 13.9066 0 15.0006C0 16.0946 0.434597 17.1439 1.20818 17.9174C1.98177 18.691 3.03098 19.1256 4.125 19.1256H19.875C20.969 19.1256 22.0182 18.691 22.7918 17.9174C23.5654 17.1439 24 16.0946 24 15.0006C24 13.9066 23.5654 12.8574 22.7918 12.0838C22.0182 11.3102 20.969 10.8756 19.875 10.8756ZM9.00656 5.94812L10.8112 7.44812L10.8291 7.46219C11.1608 7.73023 11.5744 7.87644 12.0009 7.87644C12.4274 7.87644 12.8411 7.73023 13.1728 7.46219L13.1906 7.44812L14.9953 5.94812L16.0725 11.6256H7.9275L9.00656 5.94812ZM4.125 16.8756C3.67639 16.8758 3.24259 16.7151 2.90233 16.4228C2.56207 16.1304 2.33791 15.7258 2.27053 15.2822C2.20315 14.8387 2.29702 14.3857 2.53511 14.0055C2.77319 13.6253 3.13971 13.3431 3.56813 13.21C4.665 14.8394 5.79 16.0225 6.84937 16.8756H4.125ZM7.40625 14.3678L7.5 13.8756H16.5L16.5938 14.3678C14.2191 16.7116 12.2147 16.8662 12 16.8756C11.7853 16.8662 9.78094 16.7153 7.40625 14.3678ZM19.875 16.8756H17.1562C18.2138 16.0206 19.3388 14.8394 20.4375 13.21C20.8664 13.3432 21.2332 13.6259 21.4713 14.0067C21.7094 14.3875 21.8028 14.8411 21.7347 15.285C21.6666 15.7289 21.4414 16.1336 21.1001 16.4255C20.7588 16.7174 20.3241 16.8772 19.875 16.8756Z" fill="#130032"/>
</svg>
