<svg width="24" height="24" viewBox="0 0 24 24" fill="none" xmlns="http://www.w3.org/2000/svg">
<path d="M21.5784 1.28538C21.4119 1.18542 21.2223 1.13029 21.0281 1.12536C20.8339 1.12043 20.6417 1.16587 20.4703 1.25725L9.46875 7.12506H3C2.50272 7.12506 2.02581 7.32261 1.67417 7.67424C1.32254 8.02587 1.125 8.50278 1.125 9.00006V18.7501C1.125 19.2473 1.32254 19.7243 1.67417 20.0759C2.02581 20.4275 2.50272 20.6251 3 20.6251H11.25C11.7473 20.6251 12.2242 20.4275 12.5758 20.0759C12.9275 19.7243 13.125 19.2473 13.125 18.7501V15.7501C13.1251 15.6405 13.109 15.5315 13.0772 15.4266L11.0925 8.81256L19.875 4.12506V14.6251H18.75V14.2501C18.75 13.9517 18.6315 13.6655 18.4205 13.4546C18.2095 13.2436 17.9234 13.1251 17.625 13.1251C17.3266 13.1251 17.0405 13.2436 16.8295 13.4546C16.6185 13.6655 16.5 13.9517 16.5 14.2501V15.0001C16.5 15.4973 16.6975 15.9743 17.0492 16.3259C17.4008 16.6775 17.8777 16.8751 18.375 16.8751H20.25C20.7473 16.8751 21.2242 16.6775 21.5758 16.3259C21.9275 15.9743 22.125 15.4973 22.125 15.0001V2.25006C22.125 2.05576 22.0746 1.86477 21.9788 1.69571C21.883 1.52665 21.7451 1.38528 21.5784 1.28538ZM8.91281 9.37506L10.4878 14.6251H7.125V9.37506H8.91281ZM4.875 9.37506V14.6251H3.375V9.37506H4.875ZM3.375 18.3751V16.8751H10.875V18.3751H3.375Z" fill="#130032"/>
</svg>
