<svg width="24" height="24" viewBox="0 0 24 24" fill="none" xmlns="http://www.w3.org/2000/svg">
<path d="M22.5 7.125H10.4456L8.50594 3.24656C8.41248 3.0598 8.26888 2.90273 8.09122 2.79296C7.91356 2.68318 7.70884 2.62502 7.5 2.625H4.5C4.20163 2.625 3.91548 2.74353 3.7045 2.9545C3.49353 3.16548 3.375 3.45163 3.375 3.75V7.125H2.25C1.95163 7.125 1.66548 7.24353 1.4545 7.4545C1.24353 7.66548 1.125 7.95163 1.125 8.25C1.125 8.54837 1.24353 8.83452 1.4545 9.0455C1.66548 9.25647 1.95163 9.375 2.25 9.375H3.375V19.125H2.25C1.95163 19.125 1.66548 19.2435 1.4545 19.4545C1.24353 19.6655 1.125 19.9516 1.125 20.25C1.125 20.5484 1.24353 20.8345 1.4545 21.0455C1.66548 21.2565 1.95163 21.375 2.25 21.375H12C12.2984 21.375 12.5845 21.2565 12.7955 21.0455C13.0065 20.8345 13.125 20.5484 13.125 20.25C13.125 19.9516 13.0065 19.6655 12.7955 19.4545C12.5845 19.2435 12.2984 19.125 12 19.125H10.875V9.375H19.125V16.875H18V16.5C18 16.2016 17.8815 15.9155 17.6705 15.7045C17.4595 15.4935 17.1734 15.375 16.875 15.375C16.5766 15.375 16.2905 15.4935 16.0795 15.7045C15.8685 15.9155 15.75 16.2016 15.75 16.5V17.25C15.75 17.7473 15.9475 18.2242 16.2992 18.5758C16.6508 18.9275 17.1277 19.125 17.625 19.125H19.5C19.9973 19.125 20.4742 18.9275 20.8258 18.5758C21.1775 18.2242 21.375 17.7473 21.375 17.25V9.375H22.5C22.7984 9.375 23.0845 9.25647 23.2955 9.0455C23.5065 8.83452 23.625 8.54837 23.625 8.25C23.625 7.95163 23.5065 7.66548 23.2955 7.4545C23.0845 7.24353 22.7984 7.125 22.5 7.125ZM5.625 4.875H6.80438L7.92938 7.125H5.625V4.875ZM5.625 19.125V15.375H8.625V19.125H5.625ZM8.625 13.125H5.625V9.375H8.625V13.125Z" fill="#130032"/>
</svg>
