<svg width="24" height="24" viewBox="0 0 24 24" fill="none" xmlns="http://www.w3.org/2000/svg">
<path d="M23.0766 7.36366L18.137 2.42397C17.7853 2.07247 17.3085 1.875 16.8113 1.875C16.3141 1.875 15.8373 2.07247 15.4857 2.42397L5.42445 12.4852C5.07294 12.8368 4.87548 13.3137 4.87548 13.8108C4.87548 14.308 5.07294 14.7849 5.42445 15.1365L7.09883 16.8109L2.95508 20.9546C2.74373 21.1659 2.625 21.4526 2.625 21.7515C2.625 22.0504 2.74373 22.337 2.95508 22.5483C3.16642 22.7597 3.45307 22.8784 3.75195 22.8784C4.05084 22.8784 4.33748 22.7597 4.54883 22.5483L8.69258 18.4037L10.367 20.078C10.7186 20.4295 11.1954 20.627 11.6926 20.627C12.1898 20.627 12.6666 20.4295 13.0182 20.078L23.0766 10.0149C23.4281 9.6633 23.6256 9.18647 23.6256 8.68929C23.6256 8.1921 23.4281 7.71528 23.0766 7.36366ZM11.6898 18.2199L10.2835 16.8137L12.7988 14.2983C13.0102 14.087 13.1289 13.8004 13.1289 13.5015C13.1289 13.2026 13.0102 12.9159 12.7988 12.7046C12.5875 12.4933 12.3008 12.3745 12.002 12.3745C11.7031 12.3745 11.4164 12.4933 11.2051 12.7046L8.68976 15.2199L7.28351 13.8137L10.2188 10.8755H14.6251V15.2818L11.6898 18.2199ZM16.8751 13.0318V9.75054C16.8751 9.45217 16.7565 9.16602 16.5456 8.95504C16.3346 8.74406 16.0484 8.62554 15.7501 8.62554H12.4688L16.8132 4.28116L21.2194 8.68741L16.8751 13.0318ZM5.62508 8.62554C6.21842 8.62554 6.79844 8.44959 7.29179 8.11995C7.78513 7.7903 8.16965 7.32177 8.39672 6.77359C8.62378 6.22541 8.68319 5.62221 8.56743 5.04027C8.45168 4.45832 8.16595 3.92377 7.7464 3.50422C7.32684 3.08466 6.79229 2.79894 6.21035 2.68318C5.6284 2.56743 5.0252 2.62684 4.47703 2.8539C3.92885 3.08096 3.46031 3.46548 3.13067 3.95883C2.80102 4.45217 2.62508 5.03219 2.62508 5.62554C2.62508 6.42119 2.94115 7.18425 3.50376 7.74686C4.06637 8.30947 4.82943 8.62554 5.62508 8.62554ZM5.62508 4.87554C5.77341 4.87554 5.91842 4.91952 6.04175 5.00194C6.16509 5.08435 6.26122 5.20148 6.31799 5.33852C6.37475 5.47557 6.3896 5.62637 6.36067 5.77185C6.33173 5.91734 6.2603 6.05098 6.15541 6.15587C6.05052 6.26076 5.91688 6.33219 5.77139 6.36113C5.62591 6.39007 5.47511 6.37521 5.33806 6.31845C5.20102 6.26168 5.08389 6.16555 5.00147 6.04222C4.91906 5.91888 4.87508 5.77387 4.87508 5.62554C4.87508 5.42662 4.95409 5.23586 5.09475 5.09521C5.2354 4.95456 5.42616 4.87554 5.62508 4.87554Z" fill="#130032"/>
</svg>
