<svg width="24" height="24" viewBox="0 0 24 24" fill="none" xmlns="http://www.w3.org/2000/svg">
<path d="M18.75 6.375H15.375V3C15.375 2.75377 15.3265 2.50995 15.2323 2.28247C15.138 2.05498 14.9999 1.84828 14.8258 1.67417C14.6517 1.50006 14.445 1.36195 14.2175 1.26773C13.99 1.1735 13.7462 1.125 13.5 1.125H10.5C10.0027 1.125 9.52581 1.32254 9.17417 1.67417C8.82254 2.02581 8.625 2.50272 8.625 3V6.375H5.25C4.75272 6.375 4.27581 6.57254 3.92417 6.92417C3.57254 7.27581 3.375 7.75272 3.375 8.25V11.25C3.375 11.7473 3.57254 12.2242 3.92417 12.5758C4.27581 12.9275 4.75272 13.125 5.25 13.125H8.625V21C8.625 21.4973 8.82254 21.9742 9.17417 22.3258C9.52581 22.6775 10.0027 22.875 10.5 22.875H13.5C13.7462 22.875 13.99 22.8265 14.2175 22.7323C14.445 22.638 14.6517 22.4999 14.8258 22.3258C14.9999 22.1517 15.138 21.945 15.2323 21.7175C15.3265 21.49 15.375 21.2462 15.375 21V13.125H18.75C19.2473 13.125 19.7242 12.9275 20.0758 12.5758C20.4275 12.2242 20.625 11.7473 20.625 11.25V8.25C20.625 7.75272 20.4275 7.27581 20.0758 6.92417C19.7242 6.57254 19.2473 6.375 18.75 6.375ZM18.375 10.875H14.25C13.9516 10.875 13.6655 10.9935 13.4545 11.2045C13.2435 11.4155 13.125 11.7016 13.125 12V20.625H10.875V12C10.875 11.7016 10.7565 11.4155 10.5455 11.2045C10.3345 10.9935 10.0484 10.875 9.75 10.875H5.625V8.625H9.75C10.0484 8.625 10.3345 8.50647 10.5455 8.2955C10.7565 8.08452 10.875 7.79837 10.875 7.5V3.375H13.125V7.5C13.125 7.79837 13.2435 8.08452 13.4545 8.2955C13.6655 8.50647 13.9516 8.625 14.25 8.625H18.375V10.875Z" fill="#130032"/>
</svg>
