<svg width="24" height="24" viewBox="0 0 24 24" fill="none" xmlns="http://www.w3.org/2000/svg">
<path d="M23.6252 7.4992C23.6258 7.04119 23.5215 6.58911 23.3204 6.17764C23.1192 5.76616 22.8265 5.40621 22.4647 5.12538C22.1028 4.84454 21.6815 4.65028 21.233 4.55749C20.7845 4.4647 20.3207 4.47584 19.8771 4.59005C19.4336 4.70426 19.0221 4.91852 18.6741 5.2164C18.3262 5.51427 18.0511 5.88786 17.8699 6.30852C17.6887 6.72918 17.6063 7.18573 17.6289 7.6432C17.6514 8.10066 17.7785 8.54688 18.0002 8.94764L16.0446 11.3533L14.1396 6.9742C14.554 6.55263 14.8346 6.01802 14.9463 5.43749C15.0579 4.85696 14.9955 4.2564 14.7669 3.71121C14.5384 3.16602 14.1538 2.70051 13.6616 2.37313C13.1694 2.04575 12.5914 1.87109 12.0002 1.87109C11.4091 1.87109 10.8311 2.04575 10.3388 2.37313C9.8466 2.70051 9.46207 3.16602 9.23351 3.71121C9.00495 4.2564 8.94256 4.85696 9.05417 5.43749C9.16578 6.01802 9.44641 6.55263 9.86084 6.9742L7.95678 11.3533L6.00021 8.94764C6.30423 8.39621 6.42704 7.7631 6.35123 7.138C6.27542 6.5129 6.00483 5.9275 5.57781 5.46473C5.15079 5.00196 4.58898 4.68529 3.97197 4.55958C3.35496 4.43387 2.71404 4.50549 2.14001 4.7643C1.56597 5.02311 1.08792 5.45599 0.773584 6.0016C0.459248 6.54721 0.324562 7.1779 0.388608 7.80432C0.452653 8.43074 0.712181 9.02112 1.13043 9.49184C1.54867 9.96255 2.10443 10.2897 2.71896 10.427L4.03146 18.3076C4.10354 18.7467 4.32987 19.1457 4.66978 19.4329C5.00969 19.72 5.44088 19.8765 5.88584 19.8742H18.1146C18.5595 19.8765 18.9907 19.72 19.3306 19.4329C19.6706 19.1457 19.8969 18.7467 19.969 18.3076L21.2815 10.427C21.9462 10.2771 22.5403 9.90568 22.9662 9.37367C23.3921 8.84166 23.6245 8.18068 23.6252 7.4992ZM20.6252 6.7492C20.7735 6.7492 20.9186 6.79319 21.0419 6.8756C21.1652 6.95801 21.2614 7.07515 21.3181 7.21219C21.3749 7.34924 21.3897 7.50004 21.3608 7.64552C21.3319 7.79101 21.2604 7.92464 21.1555 8.02953C21.0507 8.13442 20.917 8.20585 20.7715 8.23479C20.626 8.26373 20.4752 8.24888 20.3382 8.19211C20.2012 8.13535 20.084 8.03922 20.0016 7.91588C19.9192 7.79255 19.8752 7.64754 19.8752 7.4992C19.8752 7.30029 19.9542 7.10953 20.0949 6.96887C20.2355 6.82822 20.4263 6.7492 20.6252 6.7492ZM12.0002 4.1242C12.1485 4.1242 12.2936 4.16819 12.4169 4.2506C12.5402 4.33301 12.6364 4.45015 12.6931 4.58719C12.7499 4.72424 12.7647 4.87504 12.7358 5.02052C12.7069 5.16601 12.6354 5.29964 12.5305 5.40453C12.4257 5.50942 12.292 5.58085 12.1465 5.60979C12.001 5.63873 11.8502 5.62388 11.7132 5.56711C11.5762 5.51035 11.459 5.41422 11.3766 5.29088C11.2942 5.16755 11.2502 5.02254 11.2502 4.8742C11.2502 4.67529 11.3292 4.48453 11.4699 4.34387C11.6105 4.20322 11.8013 4.1242 12.0002 4.1242ZM3.37521 6.7492C3.52355 6.7492 3.66855 6.79319 3.79189 6.8756C3.91523 6.95801 4.01136 7.07515 4.06812 7.21219C4.12489 7.34924 4.13974 7.50004 4.1108 7.64552C4.08186 7.79101 4.01043 7.92464 3.90554 8.02953C3.80065 8.13442 3.66702 8.20585 3.52153 8.23479C3.37604 8.26373 3.22525 8.24888 3.0882 8.19211C2.95116 8.13535 2.83402 8.03922 2.75161 7.91588C2.6692 7.79255 2.62521 7.64754 2.62521 7.4992C2.62521 7.30029 2.70423 7.10953 2.84488 6.96887C2.98554 6.82822 3.1763 6.7492 3.37521 6.7492ZM17.7968 17.6242H6.20365L5.18365 11.5098L7.3774 14.2089C7.48288 14.3386 7.61595 14.4432 7.76693 14.5151C7.91791 14.5869 8.08301 14.6242 8.25021 14.6242C8.30132 14.624 8.35236 14.6206 8.40303 14.6139C8.59425 14.5876 8.7755 14.5126 8.92934 14.396C9.08318 14.2794 9.20444 14.1253 9.28146 13.9483L11.9233 7.8742H12.0002H12.0771L14.719 13.9483C14.796 14.1253 14.9172 14.2794 15.0711 14.396C15.2249 14.5126 15.4062 14.5876 15.5974 14.6139C15.6481 14.6206 15.6991 14.624 15.7502 14.6242C15.9174 14.6242 16.0825 14.5869 16.2335 14.5151C16.3845 14.4432 16.5175 14.3386 16.623 14.2089L18.8168 11.5098L17.7968 17.6242Z" fill="#130032"/>
</svg>
