<svg width="24" height="24" viewBox="0 0 24 24" fill="none" xmlns="http://www.w3.org/2000/svg">
<path d="M21.8095 6.56256C21.4439 6.38438 21.0299 6.33109 20.6311 6.41086C20.2323 6.49062 19.8707 6.69903 19.6017 7.00412L16.8342 9.98724L13.7086 2.97756L13.7029 2.96443C13.5529 2.63919 13.3128 2.36374 13.0111 2.17067C12.7093 1.9776 12.3586 1.875 12.0004 1.875C11.6422 1.875 11.2915 1.9776 10.9898 2.17067C10.6881 2.36374 10.448 2.63919 10.2979 2.96443L10.2923 2.97756L7.16669 9.98631L4.39919 7.00318C4.12736 6.69941 3.76393 6.4925 3.36395 6.4138C2.96398 6.3351 2.54925 6.38889 2.18259 6.56703C1.81593 6.74517 1.51731 7.03794 1.33197 7.40101C1.14663 7.76409 1.08465 8.17767 1.15544 8.57912C1.15544 8.59412 1.16107 8.60818 1.16388 8.62318L3.28825 18.3526C3.37023 18.7808 3.59893 19.1672 3.93498 19.445C4.27104 19.7229 4.69344 19.875 5.1295 19.8751H18.8714C19.3074 19.875 19.7298 19.7229 20.0659 19.445C20.402 19.1672 20.6306 18.7808 20.7126 18.3526L22.837 8.62506C22.837 8.61006 22.8436 8.59599 22.8454 8.58099C22.9199 8.17738 22.8587 7.76046 22.6713 7.39532C22.4839 7.03017 22.1809 6.73735 21.8095 6.56256ZM18.5686 17.6251H5.43232L3.66232 9.51662L6.67544 12.7651C6.80186 12.9023 6.96045 13.006 7.13692 13.0668C7.3134 13.1275 7.5022 13.1434 7.68634 13.113C7.87048 13.0826 8.04415 13.0068 8.19173 12.8926C8.3393 12.7783 8.45613 12.6291 8.53169 12.4585L12.0004 4.67068L15.4692 12.4585C15.545 12.6284 15.6617 12.7769 15.809 12.8906C15.9562 13.0044 16.1294 13.0798 16.313 13.1102C16.4965 13.1405 16.6848 13.1249 16.8608 13.0647C17.0368 13.0045 17.1952 12.9015 17.3217 12.7651L20.3348 9.51662L18.5686 17.6251Z" fill="#130032"/>
</svg>
