<svg width="24" height="24" viewBox="0 0 24 24" fill="none" xmlns="http://www.w3.org/2000/svg">
<path d="M16.875 5.25C15.4312 5.25 14.1384 5.68219 13.125 6.42188V4.125H14.25C14.5484 4.125 14.8345 4.00647 15.0455 3.7955C15.2565 3.58452 15.375 3.29837 15.375 3C15.375 2.70163 15.2565 2.41548 15.0455 2.2045C14.8345 1.99353 14.5484 1.875 14.25 1.875H13.125V1.125C13.125 0.826631 13.0065 0.540483 12.7955 0.329505C12.5845 0.118526 12.2984 0 12 0C11.7016 0 11.4155 0.118526 11.2045 0.329505C10.9935 0.540483 10.875 0.826631 10.875 1.125V1.875H9.75C9.45163 1.875 9.16548 1.99353 8.9545 2.2045C8.74353 2.41548 8.625 2.70163 8.625 3C8.625 3.29837 8.74353 3.58452 8.9545 3.7955C9.16548 4.00647 9.45163 4.125 9.75 4.125H10.875V6.42188C9.86156 5.68219 8.56875 5.25 7.125 5.25C5.53423 5.25174 4.00912 5.88444 2.88428 7.00928C1.75944 8.13412 1.12674 9.65923 1.125 11.25C1.125 14.2181 2.58094 15.9938 3.80156 16.9603C4.35894 17.3999 4.97209 17.7636 5.625 18.0422V19.5C5.625 19.9973 5.82254 20.4742 6.17417 20.8258C6.52581 21.1775 7.00272 21.375 7.5 21.375H16.5C16.9973 21.375 17.4742 21.1775 17.8258 20.8258C18.1775 20.4742 18.375 19.9973 18.375 19.5V18.0422C19.0279 17.7636 19.6411 17.3999 20.1984 16.9603C21.4191 15.9938 22.875 14.2181 22.875 11.25C22.8733 9.65923 22.2406 8.13412 21.1157 7.00928C19.9909 5.88444 18.4658 5.25174 16.875 5.25ZM16.9772 16.1588C16.7338 16.2196 16.5177 16.36 16.3633 16.5577C16.2089 16.7555 16.125 16.9991 16.125 17.25V19.125H7.875V17.25C7.87496 16.9991 7.79107 16.7555 7.63667 16.5577C7.48226 16.36 7.26619 16.2196 7.02281 16.1588C6.36003 15.9542 5.74129 15.6277 5.19844 15.1959C3.98813 14.2378 3.375 12.9103 3.375 11.25C3.375 10.2554 3.77009 9.30161 4.47335 8.59835C5.17661 7.89509 6.13044 7.5 7.125 7.5C9.29813 7.5 10.875 8.91937 10.875 10.875V16.5C10.875 16.7984 10.9935 17.0845 11.2045 17.2955C11.4155 17.5065 11.7016 17.625 12 17.625C12.2984 17.625 12.5845 17.5065 12.7955 17.2955C13.0065 17.0845 13.125 16.7984 13.125 16.5V10.875C13.125 8.91937 14.7019 7.5 16.875 7.5C17.8696 7.5 18.8234 7.89509 19.5266 8.59835C20.2299 9.30161 20.625 10.2554 20.625 11.25C20.625 15.1575 17.1206 16.125 16.9772 16.1588Z" fill="#130032"/>
</svg>
