<svg width="24" height="24" viewBox="0 0 24 24" fill="none" xmlns="http://www.w3.org/2000/svg">
<path d="M21.0469 8.95594L15.0469 2.95594C14.9424 2.85105 14.8182 2.76782 14.6814 2.71103C14.5447 2.65424 14.3981 2.62501 14.25 2.625H3.75C3.45163 2.625 3.16548 2.74353 2.95451 2.9545C2.74353 3.16548 2.625 3.45163 2.625 3.75V14.25C2.62465 14.5239 2.72471 14.7884 2.90625 14.9934C2.92031 15.0103 2.93531 15.0272 2.95313 15.0459L8.95313 21.0459C9.05779 21.1505 9.18205 21.2334 9.31879 21.2898C9.45553 21.3463 9.60206 21.3752 9.75 21.375H20.25C20.5484 21.375 20.8345 21.2565 21.0455 21.0455C21.2565 20.8345 21.375 20.5484 21.375 20.25V9.75C21.375 9.45233 21.257 9.16679 21.0469 8.95594ZM15.375 6.46875L17.5313 8.625H15.375V6.46875ZM8.625 17.5312L6.46875 15.375H8.625V17.5312ZM8.625 13.125H4.875V6.46875L8.625 10.2188V13.125ZM6.46875 4.875H13.125V8.625H10.2188L6.46875 4.875ZM13.125 10.875V13.125H10.875V10.875H13.125ZM10.875 19.125V15.375H13.7813L17.5313 19.125H10.875ZM19.125 17.5312L15.375 13.7812V10.875H19.125V17.5312Z" fill="#130032"/>
</svg>
