<svg width="24" height="24" viewBox="0 0 24 24" fill="none" xmlns="http://www.w3.org/2000/svg">
<path d="M19.8746 7.5C19.8746 7.79837 19.7561 8.08452 19.5451 8.2955C19.3341 8.50647 19.048 8.625 18.7496 8.625H16.1246C16.1229 10.2158 15.4902 11.7409 14.3653 12.8657C13.2405 13.9906 11.7154 14.6233 10.1246 14.625H9.65588L15.7496 20.1675C15.861 20.2663 15.9516 20.3862 16.0163 20.5203C16.081 20.6544 16.1184 20.8 16.1264 20.9486C16.1344 21.0973 16.1128 21.2461 16.0629 21.3863C16.013 21.5266 15.9357 21.6555 15.8356 21.7657C15.7355 21.8759 15.6145 21.9651 15.4796 22.0281C15.3448 22.0912 15.1988 22.1269 15.05 22.1331C14.9013 22.1393 14.7528 22.1159 14.6131 22.0643C14.4735 22.0127 14.3455 21.9339 14.2365 21.8325L5.9865 14.3325C5.81805 14.1794 5.70001 13.9788 5.64797 13.7572C5.59592 13.5356 5.61232 13.3034 5.695 13.0914C5.77768 12.8793 5.92275 12.6973 6.11104 12.5694C6.29934 12.4415 6.522 12.3737 6.74963 12.375H10.1246C11.1192 12.375 12.073 11.9799 12.7763 11.2766C13.4795 10.5734 13.8746 9.61956 13.8746 8.625H6.74963C6.45126 8.625 6.16511 8.50647 5.95413 8.2955C5.74315 8.08452 5.62463 7.79837 5.62463 7.5C5.62463 7.20163 5.74315 6.91548 5.95413 6.7045C6.16511 6.49353 6.45126 6.375 6.74963 6.375H13.1246C12.7753 5.90926 12.3224 5.53125 11.8017 5.2709C11.281 5.01054 10.7068 4.875 10.1246 4.875H6.74963C6.45126 4.875 6.16511 4.75647 5.95413 4.5455C5.74315 4.33452 5.62463 4.04837 5.62463 3.75C5.62463 3.45163 5.74315 3.16548 5.95413 2.9545C6.16511 2.74353 6.45126 2.625 6.74963 2.625H18.7496C19.048 2.625 19.3341 2.74353 19.5451 2.9545C19.7561 3.16548 19.8746 3.45163 19.8746 3.75C19.8746 4.04837 19.7561 4.33452 19.5451 4.5455C19.3341 4.75647 19.048 4.875 18.7496 4.875H14.8037C15.1688 5.32953 15.4656 5.83484 15.6849 6.375H18.7496C19.048 6.375 19.3341 6.49353 19.5451 6.7045C19.7561 6.91548 19.8746 7.20163 19.8746 7.5Z" fill="#130032"/>
</svg>
