<svg width="24" height="24" viewBox="0 0 24 24" fill="none" xmlns="http://www.w3.org/2000/svg">
<path d="M19.875 9.375C19.875 9.67337 19.7565 9.95952 19.5455 10.1705C19.3345 10.3815 19.0484 10.5 18.75 10.5H13.125V19.875C13.125 20.1734 13.0065 20.4595 12.7955 20.6705C12.5845 20.8815 12.2984 21 12 21C11.7016 21 11.4155 20.8815 11.2045 20.6705C10.9935 20.4595 10.875 20.1734 10.875 19.875V10.5H5.25C4.95163 10.5 4.66548 10.3815 4.4545 10.1705C4.24353 9.95952 4.125 9.67337 4.125 9.375C4.125 9.07663 4.24353 8.79048 4.4545 8.5795C4.66548 8.36853 4.95163 8.25 5.25 8.25H18.75C19.0484 8.25 19.3345 8.36853 19.5455 8.5795C19.7565 8.79048 19.875 9.07663 19.875 9.375ZM5.25 6H18.75C19.0484 6 19.3345 5.88147 19.5455 5.6705C19.7565 5.45952 19.875 5.17337 19.875 4.875C19.875 4.57663 19.7565 4.29048 19.5455 4.0795C19.3345 3.86853 19.0484 3.75 18.75 3.75H5.25C4.95163 3.75 4.66548 3.86853 4.4545 4.0795C4.24353 4.29048 4.125 4.57663 4.125 4.875C4.125 5.17337 4.24353 5.45952 4.4545 5.6705C4.66548 5.88147 4.95163 6 5.25 6Z" fill="#130032"/>
</svg>
