<svg width="24" height="24" viewBox="0 0 24 24" fill="none" xmlns="http://www.w3.org/2000/svg">
<path d="M19.6208 5.21189L14.3708 11.6244H16.4998C16.7982 11.6244 17.0843 11.7429 17.2953 11.9539C17.5063 12.1649 17.6248 12.451 17.6248 12.7494C17.6248 13.0478 17.5063 13.3339 17.2953 13.5449C17.0843 13.7559 16.7982 13.8744 16.4998 13.8744H13.1248V15.3744H16.4998C16.7982 15.3744 17.0843 15.4929 17.2953 15.7039C17.5063 15.9149 17.6248 16.201 17.6248 16.4994C17.6248 16.7978 17.5063 17.0839 17.2953 17.2949C17.0843 17.5059 16.7982 17.6244 16.4998 17.6244H13.1248V20.2494C13.1248 20.5478 13.0063 20.8339 12.7953 21.0449C12.5843 21.2559 12.2982 21.3744 11.9998 21.3744C11.7014 21.3744 11.4153 21.2559 11.2043 21.0449C10.9933 20.8339 10.8748 20.5478 10.8748 20.2494V17.6244H7.49982C7.20145 17.6244 6.9153 17.5059 6.70432 17.2949C6.49334 17.0839 6.37482 16.7978 6.37482 16.4994C6.37482 16.201 6.49334 15.9149 6.70432 15.7039C6.9153 15.4929 7.20145 15.3744 7.49982 15.3744H10.8748V13.8744H7.49982C7.20145 13.8744 6.9153 13.7559 6.70432 13.5449C6.49334 13.3339 6.37482 13.0478 6.37482 12.7494C6.37482 12.451 6.49334 12.1649 6.70432 11.9539C6.9153 11.7429 7.20145 11.6244 7.49982 11.6244H9.62607L4.37607 5.21189C4.2825 5.09733 4.21241 4.96546 4.16981 4.82382C4.1272 4.68217 4.11291 4.53353 4.12776 4.38636C4.1426 4.23919 4.18628 4.09639 4.25631 3.96611C4.32634 3.83582 4.42135 3.72061 4.53591 3.62704C4.65047 3.53348 4.78233 3.46339 4.92398 3.42078C5.06562 3.37818 5.21427 3.36389 5.36144 3.37873C5.5086 3.39358 5.6514 3.43726 5.78169 3.50729C5.91197 3.57732 6.02719 3.67233 6.12075 3.78689L11.9998 10.9728L17.8789 3.78689C18.0678 3.5559 18.3408 3.40944 18.6378 3.37973C18.9347 3.35001 19.2313 3.43948 19.4623 3.62845C19.6933 3.81742 19.8398 4.0904 19.8695 4.38735C19.8992 4.68431 19.8097 4.9809 19.6208 5.21189Z" fill="#130032"/>
</svg>
