<svg width="24" height="24" viewBox="0 0 24 24" fill="none" xmlns="http://www.w3.org/2000/svg">
<path d="M20.25 10.875H19.125V4.3125C19.125 4.01413 19.0065 3.72798 18.7955 3.517C18.5845 3.30603 18.2984 3.1875 18 3.1875C17.7016 3.1875 17.4155 3.30603 17.2045 3.517C16.9935 3.72798 16.875 4.01413 16.875 4.3125V10.875H12.5494L6.88688 3.62062C6.74275 3.43596 6.54458 3.30089 6.32001 3.23425C6.09544 3.16762 5.85566 3.17275 5.63415 3.24893C5.41263 3.32511 5.22042 3.46853 5.08433 3.6592C4.94824 3.84986 4.87506 4.07825 4.875 4.3125V10.875H3.75C3.45163 10.875 3.16548 10.9935 2.9545 11.2045C2.74353 11.4155 2.625 11.7016 2.625 12C2.625 12.2984 2.74353 12.5845 2.9545 12.7955C3.16548 13.0065 3.45163 13.125 3.75 13.125H4.875V19.6875C4.875 19.9859 4.99353 20.272 5.2045 20.483C5.41548 20.694 5.70163 20.8125 6 20.8125C6.29837 20.8125 6.58452 20.694 6.7955 20.483C7.00647 20.272 7.125 19.9859 7.125 19.6875V13.125H11.4506L17.1131 20.3794C17.2572 20.564 17.4554 20.6991 17.68 20.7657C17.9046 20.8324 18.1443 20.8272 18.3659 20.7511C18.5874 20.6749 18.7796 20.5315 18.9157 20.3408C19.0518 20.1501 19.1249 19.9217 19.125 19.6875V13.125H20.25C20.5484 13.125 20.8345 13.0065 21.0455 12.7955C21.2565 12.5845 21.375 12.2984 21.375 12C21.375 11.7016 21.2565 11.4155 21.0455 11.2045C20.8345 10.9935 20.5484 10.875 20.25 10.875ZM7.125 10.875V7.5825L9.69469 10.875H7.125ZM16.875 16.4175L14.3053 13.125H16.875V16.4175Z" fill="#130032"/>
</svg>
