<svg width="24" height="24" viewBox="0 0 24 24" fill="none" xmlns="http://www.w3.org/2000/svg">
<path d="M21.1351 11.3054L12.8851 0.80545C12.7799 0.671332 12.6455 0.56289 12.4922 0.48832C12.3389 0.413749 12.1706 0.375 12.0001 0.375C11.8296 0.375 11.6614 0.413749 11.508 0.48832C11.3547 0.56289 11.2204 0.671332 11.1151 0.80545L2.86511 11.3054C2.70955 11.5036 2.625 11.7482 2.625 12.0001C2.625 12.2521 2.70955 12.4967 2.86511 12.6948L2.92136 12.7661C2.9334 12.7849 2.94721 12.8024 2.96261 12.8186L11.1189 23.1948C11.2241 23.3289 11.3585 23.4374 11.5118 23.512C11.6651 23.5865 11.8334 23.6253 12.0039 23.6253C12.1743 23.6253 12.3426 23.5865 12.4959 23.512C12.6492 23.4374 12.7836 23.3289 12.8889 23.1948L21.1389 12.6948C21.2939 12.4963 21.3778 12.2514 21.3771 11.9995C21.3764 11.7476 21.2912 11.5032 21.1351 11.3054ZM13.1251 4.75326L18.4801 11.5689L13.1251 14.0064V4.75326ZM10.8751 14.0026L5.52011 11.5651L10.8751 4.75326V14.0026ZM10.8751 16.4748V19.247L7.48605 14.9345L10.8751 16.4748ZM13.1251 16.4748L16.5142 14.9345L13.1251 19.247V16.4748Z" fill="#130032"/>
</svg>
