<svg width="24" height="24" viewBox="0 0 24 24" fill="none" xmlns="http://www.w3.org/2000/svg">
<path d="M18.375 19.5007C18.375 19.799 18.2565 20.0852 18.0455 20.2962C17.8345 20.5071 17.5484 20.6257 17.25 20.6257H5.25C4.95163 20.6257 4.66548 20.5071 4.4545 20.2962C4.24353 20.0852 4.125 19.799 4.125 19.5007C4.125 19.2023 4.24353 18.9161 4.4545 18.7052C4.66548 18.4942 4.95163 18.3757 5.25 18.3757H5.625C6.22174 18.3757 6.79403 18.1386 7.21599 17.7166C7.63795 17.2947 7.875 16.7224 7.875 16.1257V13.1257H5.25C4.95163 13.1257 4.66548 13.0071 4.4545 12.7962C4.24353 12.5852 4.125 12.299 4.125 12.0007C4.125 11.7023 4.24353 11.4161 4.4545 11.2052C4.66548 10.9942 4.95163 10.8757 5.25 10.8757H7.875V7.87566C7.87488 6.88003 8.15786 5.9049 8.69095 5.06401C9.22403 4.22313 9.98523 3.55116 10.8857 3.1265C11.7863 2.70185 12.789 2.54201 13.7769 2.66563C14.7648 2.78926 15.6972 3.19125 16.4653 3.82472C16.6954 4.01468 16.8407 4.28827 16.8691 4.58531C16.8974 4.88235 16.8067 5.17851 16.6167 5.40862C16.4268 5.63874 16.1532 5.78397 15.8561 5.81237C15.5591 5.84076 15.2629 5.74999 15.0328 5.56003C14.4969 5.11511 13.8215 4.87286 13.125 4.87566C12.3294 4.87566 11.5663 5.19173 11.0037 5.75433C10.4411 6.31694 10.125 7.08001 10.125 7.87566V10.8757H12.75C13.0484 10.8757 13.3345 10.9942 13.5455 11.2052C13.7565 11.4161 13.875 11.7023 13.875 12.0007C13.875 12.299 13.7565 12.5852 13.5455 12.7962C13.3345 13.0071 13.0484 13.1257 12.75 13.1257H10.125V16.1257C10.1259 16.9158 9.91758 17.6921 9.52125 18.3757H17.25C17.5484 18.3757 17.8345 18.4942 18.0455 18.7052C18.2565 18.9161 18.375 19.2023 18.375 19.5007Z" fill="#130032"/>
</svg>
