<svg width="24" height="24" viewBox="0 0 24 24" fill="none" xmlns="http://www.w3.org/2000/svg">
<path d="M18.0881 17.7798C18.1874 17.89 18.264 18.0187 18.3133 18.1587C18.3627 18.2986 18.3839 18.4468 18.3757 18.595C18.3675 18.7431 18.3301 18.8882 18.2656 19.0218C18.2011 19.1554 18.1109 19.2749 18 19.3735C16.9621 20.3013 15.6969 20.9373 14.3331 21.2169C12.9694 21.4964 11.5559 21.4095 10.2367 20.9649C8.91753 20.5203 7.73977 19.7339 6.82343 18.686C5.90709 17.638 5.28492 16.3659 5.02031 14.9991H3.75C3.45163 14.9991 3.16548 14.8806 2.9545 14.6696C2.74353 14.4587 2.625 14.1725 2.625 13.8741C2.625 13.5758 2.74353 13.2896 2.9545 13.0786C3.16548 12.8677 3.45163 12.7491 3.75 12.7491H4.875V11.2491H3.75C3.45163 11.2491 3.16548 11.1306 2.9545 10.9196C2.74353 10.7087 2.625 10.4225 2.625 10.1241C2.625 9.82577 2.74353 9.53963 2.9545 9.32865C3.16548 9.11767 3.45163 8.99914 3.75 8.99914H5.02031C5.28558 7.63282 5.90822 6.3612 6.82483 5.31381C7.74145 4.26642 8.91928 3.48067 10.2384 3.03659C11.5575 2.59251 12.9707 2.50597 14.3341 2.78577C15.6975 3.06558 16.9624 3.70174 18 4.62946C18.2224 4.82837 18.3567 5.10749 18.3733 5.4054C18.3899 5.70332 18.2875 5.99564 18.0886 6.21805C17.8897 6.44046 17.6106 6.57474 17.3126 6.59136C17.0147 6.60797 16.7224 6.50556 16.5 6.30664C15.7867 5.66882 14.9225 5.2235 13.9891 5.0128C13.0557 4.8021 12.084 4.83299 11.1659 5.10255C10.2478 5.37211 9.41361 5.87143 8.74228 6.55327C8.07094 7.23512 7.58464 8.07695 7.32938 8.99914H12.75C13.0484 8.99914 13.3345 9.11767 13.5455 9.32865C13.7565 9.53963 13.875 9.82577 13.875 10.1241C13.875 10.4225 13.7565 10.7087 13.5455 10.9196C13.3345 11.1306 13.0484 11.2491 12.75 11.2491H7.125V12.7491H11.25C11.5484 12.7491 11.8345 12.8677 12.0455 13.0786C12.2565 13.2896 12.375 13.5758 12.375 13.8741C12.375 14.1725 12.2565 14.4587 12.0455 14.6696C11.8345 14.8806 11.5484 14.9991 11.25 14.9991H7.32938C7.58464 15.9213 8.07094 16.7632 8.74228 17.445C9.41361 18.1269 10.2478 18.6262 11.1659 18.8957C12.084 19.1653 13.0557 19.1962 13.9891 18.9855C14.9225 18.7748 15.7867 18.3295 16.5 17.6916C16.7223 17.4928 17.0145 17.3904 17.3123 17.4069C17.6101 17.4234 17.8892 17.5576 18.0881 17.7798Z" fill="#130032"/>
</svg>
