<svg width="24" height="24" viewBox="0 0 24 24" fill="none" xmlns="http://www.w3.org/2000/svg">
<path d="M4.875 5.25C4.875 4.95163 4.99353 4.66548 5.2045 4.4545C5.41548 4.24353 5.70163 4.125 6 4.125H18C18.2984 4.125 18.5845 4.24353 18.7955 4.4545C19.0065 4.66548 19.125 4.95163 19.125 5.25C19.125 5.54837 19.0065 5.83452 18.7955 6.0455C18.5845 6.25647 18.2984 6.375 18 6.375H6C5.70163 6.375 5.41548 6.25647 5.2045 6.0455C4.99353 5.83452 4.875 5.54837 4.875 5.25ZM20.25 14.625C19.9516 14.625 19.6655 14.7435 19.4545 14.9545C19.2435 15.1655 19.125 15.4516 19.125 15.75V16.875H16.5C16.2016 16.875 15.9155 16.7565 15.7045 16.5455C15.4935 16.3345 15.375 16.0484 15.375 15.75V11.625H19.5C19.7984 11.625 20.0845 11.5065 20.2955 11.2955C20.5065 11.0845 20.625 10.7984 20.625 10.5C20.625 10.2016 20.5065 9.91548 20.2955 9.7045C20.0845 9.49353 19.7984 9.375 19.5 9.375H4.5C4.20163 9.375 3.91548 9.49353 3.7045 9.7045C3.49353 9.91548 3.375 10.2016 3.375 10.5C3.375 10.7984 3.49353 11.0845 3.7045 11.2955C3.91548 11.5065 4.20163 11.625 4.5 11.625H8.625V12C8.62351 13.2925 8.10942 14.5316 7.1955 15.4455C6.28158 16.3594 5.04247 16.8735 3.75 16.875C3.45163 16.875 3.16548 16.9935 2.9545 17.2045C2.74353 17.4155 2.625 17.7016 2.625 18C2.625 18.2984 2.74353 18.5845 2.9545 18.7955C3.16548 19.0065 3.45163 19.125 3.75 19.125C5.63906 19.123 7.45018 18.3717 8.78594 17.0359C10.1217 15.7002 10.873 13.8891 10.875 12V11.625H13.125V15.75C13.125 16.6451 13.4806 17.5035 14.1135 18.1365C14.7465 18.7694 15.6049 19.125 16.5 19.125H20.25C20.5484 19.125 20.8345 19.0065 21.0455 18.7955C21.2565 18.5845 21.375 18.2984 21.375 18V15.75C21.375 15.4516 21.2565 15.1655 21.0455 14.9545C20.8345 14.7435 20.5484 14.625 20.25 14.625Z" fill="#130032"/>
</svg>
