<svg width="24" height="24" viewBox="0 0 24 24" fill="none" xmlns="http://www.w3.org/2000/svg">
<path d="M22.5 11.6241H20.9841L22.7925 7.17283C22.8955 6.89816 22.8871 6.59412 22.7692 6.32553C22.6513 6.05693 22.4331 5.84502 22.1611 5.73498C21.8892 5.62494 21.5851 5.62546 21.3135 5.73645C21.042 5.84743 20.8245 6.06008 20.7075 6.32908L18.5513 11.6269H15.195L13.0387 6.32908C12.9546 6.12159 12.8104 5.94393 12.6247 5.81885C12.439 5.69377 12.2202 5.62695 11.9963 5.62695C11.7723 5.62695 11.5535 5.69377 11.3678 5.81885C11.1821 5.94393 11.0379 6.12159 10.9537 6.32908L8.805 11.6241H5.445L3.28875 6.32627C3.17174 6.05727 2.95428 5.84461 2.68274 5.73363C2.41119 5.62265 2.10704 5.62213 1.83511 5.73217C1.56318 5.84221 1.34499 6.05412 1.22705 6.32271C1.10911 6.59131 1.10075 6.89535 1.20375 7.17002L3.01594 11.6241H1.5C1.20163 11.6241 0.915483 11.7426 0.704505 11.9536C0.493526 12.1646 0.375 12.4507 0.375 12.7491C0.375 13.0475 0.493526 13.3336 0.704505 13.5446C0.915483 13.7556 1.20163 13.8741 1.5 13.8741H3.93L6.08625 19.1728C6.17041 19.3803 6.31458 19.558 6.5003 19.6831C6.68602 19.8081 6.90484 19.875 7.12875 19.875C7.35266 19.875 7.57148 19.8081 7.7572 19.6831C7.94292 19.558 8.08709 19.3803 8.17125 19.1728L10.3275 13.8741H13.6875L15.8438 19.1728C15.9279 19.3803 16.0721 19.558 16.2578 19.6831C16.4435 19.8081 16.6623 19.875 16.8862 19.875C17.1102 19.875 17.329 19.8081 17.5147 19.6831C17.7004 19.558 17.8446 19.3803 17.9288 19.1728L20.085 13.8741H22.5C22.7984 13.8741 23.0845 13.7556 23.2955 13.5446C23.5065 13.3336 23.625 13.0475 23.625 12.7491C23.625 12.4507 23.5065 12.1646 23.2955 11.9536C23.0845 11.7426 22.7984 11.6241 22.5 11.6241ZM7.125 15.7603L6.35906 13.8741H7.89094L7.125 15.7603ZM11.2341 11.6241L12 9.73877L12.7659 11.6241H11.2341ZM16.875 15.7603L16.1091 13.8741H17.6409L16.875 15.7603Z" fill="#130032"/>
</svg>
