<svg width="24" height="24" viewBox="0 0 24 24" fill="none" xmlns="http://www.w3.org/2000/svg">
<path d="M15.75 7.125C15.75 6.82663 15.8685 6.54048 16.0795 6.3295C16.2905 6.11853 16.5766 6 16.875 6H19.125C19.4234 6 19.7095 6.11853 19.9205 6.3295C20.1315 6.54048 20.25 6.82663 20.25 7.125C20.25 7.42337 20.1315 7.70952 19.9205 7.9205C19.7095 8.13147 19.4234 8.25 19.125 8.25H16.875C16.5766 8.25 16.2905 8.13147 16.0795 7.9205C15.8685 7.70952 15.75 7.42337 15.75 7.125ZM16.875 11.625H19.125C19.4234 11.625 19.7095 11.5065 19.9205 11.2955C20.1315 11.0845 20.25 10.7984 20.25 10.5C20.25 10.2016 20.1315 9.91548 19.9205 9.7045C19.7095 9.49353 19.4234 9.375 19.125 9.375H16.875C16.5766 9.375 16.2905 9.49353 16.0795 9.7045C15.8685 9.91548 15.75 10.2016 15.75 10.5C15.75 10.7984 15.8685 11.0845 16.0795 11.2955C16.2905 11.5065 16.5766 11.625 16.875 11.625ZM23.625 4.5V19.5C23.625 19.9973 23.4275 20.4742 23.0758 20.8258C22.7242 21.1775 22.2473 21.375 21.75 21.375H14.25C13.7527 21.375 13.2758 21.1775 12.9242 20.8258C12.5725 20.4742 12.375 19.9973 12.375 19.5V18H9.375V19.125H10.125C10.4234 19.125 10.7095 19.2435 10.9205 19.4545C11.1315 19.6655 11.25 19.9516 11.25 20.25C11.25 20.5484 11.1315 20.8345 10.9205 21.0455C10.7095 21.2565 10.4234 21.375 10.125 21.375H6.375C6.07663 21.375 5.79048 21.2565 5.5795 21.0455C5.36853 20.8345 5.25 20.5484 5.25 20.25C5.25 19.9516 5.36853 19.6655 5.5795 19.4545C5.79048 19.2435 6.07663 19.125 6.375 19.125H7.125V18H3C2.30381 18 1.63613 17.7234 1.14384 17.2312C0.651562 16.7389 0.375 16.0712 0.375 15.375V9C0.375 8.30381 0.651562 7.63613 1.14384 7.14384C1.63613 6.65156 2.30381 6.375 3 6.375H12.375V4.5C12.375 4.00272 12.5725 3.52581 12.9242 3.17417C13.2758 2.82254 13.7527 2.625 14.25 2.625H21.75C22.2473 2.625 22.7242 2.82254 23.0758 3.17417C23.4275 3.52581 23.625 4.00272 23.625 4.5ZM12.375 15.75V8.625H3C2.90054 8.625 2.80516 8.66451 2.73484 8.73483C2.66451 8.80516 2.625 8.90054 2.625 9V15.375C2.625 15.4745 2.66451 15.5698 2.73484 15.6402C2.80516 15.7105 2.90054 15.75 3 15.75H12.375ZM21.375 4.875H14.625V19.125H21.375V4.875ZM18 15C17.7033 15 17.4133 15.088 17.1666 15.2528C16.92 15.4176 16.7277 15.6519 16.6142 15.926C16.5006 16.2001 16.4709 16.5017 16.5288 16.7926C16.5867 17.0836 16.7296 17.3509 16.9393 17.5607C17.1491 17.7704 17.4164 17.9133 17.7074 17.9712C17.9983 18.0291 18.2999 17.9994 18.574 17.8858C18.8481 17.7723 19.0824 17.58 19.2472 17.3334C19.412 17.0867 19.5 16.7967 19.5 16.5C19.5 16.1022 19.342 15.7206 19.0607 15.4393C18.7794 15.158 18.3978 15 18 15Z" fill="#130032"/>
</svg>
