<svg width="24" height="24" viewBox="0 0 24 24" fill="none" xmlns="http://www.w3.org/2000/svg">
<path d="M22.875 5.625H1.125C0.826631 5.625 0.540483 5.74353 0.329505 5.9545C0.118526 6.16548 0 6.45163 0 6.75C0 7.04837 0.118526 7.33452 0.329505 7.5455C0.540483 7.75647 0.826631 7.875 1.125 7.875H1.5V18C1.5 18.2984 1.61853 18.5845 1.8295 18.7955C2.04048 19.0065 2.32663 19.125 2.625 19.125C2.92337 19.125 3.20952 19.0065 3.4205 18.7955C3.63147 18.5845 3.75 18.2984 3.75 18V14.625H20.25V18C20.25 18.2984 20.3685 18.5845 20.5795 18.7955C20.7905 19.0065 21.0766 19.125 21.375 19.125C21.6734 19.125 21.9595 19.0065 22.1705 18.7955C22.3815 18.5845 22.5 18.2984 22.5 18V7.875H22.875C23.1734 7.875 23.4595 7.75647 23.6705 7.5455C23.8815 7.33452 24 7.04837 24 6.75C24 6.45163 23.8815 6.16548 23.6705 5.9545C23.4595 5.74353 23.1734 5.625 22.875 5.625ZM3.75 7.875H10.875V12.375H3.75V7.875ZM20.25 12.375H13.125V7.875H20.25V12.375ZM9.375 10.125C9.375 10.4234 9.25647 10.7095 9.0455 10.9205C8.83452 11.1315 8.54837 11.25 8.25 11.25H6.375C6.07663 11.25 5.79048 11.1315 5.5795 10.9205C5.36853 10.7095 5.25 10.4234 5.25 10.125C5.25 9.82663 5.36853 9.54048 5.5795 9.3295C5.79048 9.11853 6.07663 9 6.375 9H8.25C8.54837 9 8.83452 9.11853 9.0455 9.3295C9.25647 9.54048 9.375 9.82663 9.375 10.125ZM14.625 10.125C14.625 9.82663 14.7435 9.54048 14.9545 9.3295C15.1655 9.11853 15.4516 9 15.75 9H17.625C17.9234 9 18.2095 9.11853 18.4205 9.3295C18.6315 9.54048 18.75 9.82663 18.75 10.125C18.75 10.4234 18.6315 10.7095 18.4205 10.9205C18.2095 11.1315 17.9234 11.25 17.625 11.25H15.75C15.4516 11.25 15.1655 11.1315 14.9545 10.9205C14.7435 10.7095 14.625 10.4234 14.625 10.125Z" fill="#130032"/>
</svg>
