<svg width="24" height="24" viewBox="0 0 24 24" fill="none" xmlns="http://www.w3.org/2000/svg">
<path d="M22.875 9.7509H20.5509L16.4831 4.1484C16.3147 3.91704 16.0955 3.72731 15.8425 3.59373C15.5894 3.46016 15.3091 3.38629 15.023 3.37778C14.737 3.36928 14.4528 3.42636 14.1922 3.54466C13.9316 3.66296 13.7016 3.83933 13.5197 4.06027L12.3178 5.4534C12.3084 5.46371 12.2991 5.47496 12.2906 5.48621C12.2555 5.52934 12.2111 5.5641 12.1609 5.58797C12.1106 5.61184 12.0556 5.62422 12 5.62422C11.9444 5.62422 11.8894 5.61184 11.8391 5.58797C11.7889 5.5641 11.7445 5.52934 11.7094 5.48621C11.7009 5.47496 11.6916 5.46371 11.6822 5.4534L10.4803 4.06027C10.2984 3.83933 10.0684 3.66296 9.80781 3.54466C9.54723 3.42636 9.26304 3.36928 8.97699 3.37778C8.69094 3.38629 8.41064 3.46016 8.15755 3.59373C7.90446 3.72731 7.68531 3.91704 7.51688 4.1484L3.44906 9.7509H1.125C0.826631 9.7509 0.540483 9.86942 0.329505 10.0804C0.118526 10.2914 0 10.5775 0 10.8759C0 11.1743 0.118526 11.4604 0.329505 11.6714C0.540483 11.8824 0.826631 12.0009 1.125 12.0009H22.875C23.1734 12.0009 23.4595 11.8824 23.6705 11.6714C23.8815 11.4604 24 11.1743 24 10.8759C24 10.5775 23.8815 10.2914 23.6705 10.0804C23.4595 9.86942 23.1734 9.7509 22.875 9.7509ZM9.05813 5.85558L9.96656 6.90933C10.2127 7.21089 10.5229 7.45392 10.8746 7.62081C11.2263 7.7877 11.6107 7.87429 12 7.87429C12.3893 7.87429 12.7737 7.7877 13.1254 7.62081C13.4771 7.45392 13.7873 7.21089 14.0334 6.90933L14.9419 5.85558L17.7703 9.7509H6.22969L9.05813 5.85558ZM16.875 13.1259C16.0772 13.1269 15.3005 13.3818 14.6573 13.8538C14.0141 14.3257 13.5378 14.9902 13.2975 15.7509H10.7025C10.4337 14.8962 9.86782 14.166 9.10725 13.6925C8.34668 13.2189 7.4417 13.0334 6.55614 13.1693C5.67057 13.3053 4.86295 13.7538 4.27948 14.4337C3.696 15.1136 3.37523 15.98 3.37523 16.8759C3.37523 17.7718 3.696 18.6382 4.27948 19.3181C4.86295 19.998 5.67057 20.4465 6.55614 20.5825C7.4417 20.7184 8.34668 20.5328 9.10725 20.0593C9.86782 19.5858 10.4337 18.8556 10.7025 18.0009H13.2975C13.5054 18.6621 13.8925 19.2527 14.4158 19.7071C14.9391 20.1616 15.578 20.4622 16.2618 20.5755C16.9456 20.6887 17.6473 20.6103 18.2892 20.3489C18.9311 20.0875 19.488 19.6533 19.8981 19.0945C20.3081 18.5358 20.5553 17.8743 20.6121 17.1835C20.669 16.4928 20.5333 15.7998 20.2201 15.1815C19.907 14.5632 19.4286 14.0438 18.8381 13.6809C18.2476 13.3181 17.5681 13.1259 16.875 13.1259ZM7.125 18.3759C6.82833 18.3759 6.53832 18.2879 6.29165 18.1231C6.04497 17.9583 5.85271 17.724 5.73918 17.4499C5.62565 17.1758 5.59594 16.8742 5.65382 16.5833C5.7117 16.2923 5.85456 16.025 6.06434 15.8152C6.27412 15.6055 6.54139 15.4626 6.83236 15.4047C7.12334 15.3468 7.42494 15.3765 7.69903 15.4901C7.97311 15.6036 8.20738 15.7959 8.3722 16.0425C8.53703 16.2892 8.625 16.5792 8.625 16.8759C8.625 17.2737 8.46696 17.6553 8.18566 17.9366C7.90436 18.2179 7.52282 18.3759 7.125 18.3759ZM16.875 18.3759C16.5783 18.3759 16.2883 18.2879 16.0416 18.1231C15.795 17.9583 15.6027 17.724 15.4892 17.4499C15.3756 17.1758 15.3459 16.8742 15.4038 16.5833C15.4617 16.2923 15.6046 16.025 15.8143 15.8152C16.0241 15.6055 16.2914 15.4626 16.5824 15.4047C16.8733 15.3468 17.1749 15.3765 17.449 15.4901C17.7231 15.6036 17.9574 15.7959 18.1222 16.0425C18.287 16.2892 18.375 16.5792 18.375 16.8759C18.375 17.2737 18.217 17.6553 17.9357 17.9366C17.6544 18.2179 17.2728 18.3759 16.875 18.3759Z" fill="#130032"/>
</svg>
