<svg width="24" height="24" viewBox="0 0 24 24" fill="none" xmlns="http://www.w3.org/2000/svg">
<path d="M20.3328 19.4934L5.33278 2.99344C5.23399 2.88207 5.11407 2.79142 4.97998 2.72674C4.8459 2.66206 4.7003 2.62464 4.55165 2.61664C4.40299 2.60864 4.25422 2.63023 4.11397 2.68015C3.97372 2.73007 3.84477 2.80733 3.73459 2.90746C3.62442 3.00758 3.53522 3.12858 3.47215 3.26343C3.40908 3.39828 3.37341 3.54431 3.36719 3.69306C3.36098 3.8418 3.38435 3.99029 3.43594 4.12994C3.48754 4.26958 3.56635 4.3976 3.66778 4.50656L4.87528 5.835V20.25C4.87528 20.9462 5.15184 21.6139 5.64413 22.1062C6.13641 22.5984 6.80409 22.875 7.50028 22.875H16.5003C17.0251 22.875 17.5378 22.7177 17.9723 22.4234C18.4067 22.1291 18.7431 21.7114 18.9378 21.2241C19.1701 21.358 19.4427 21.4045 19.7063 21.3553C19.9699 21.306 20.2072 21.1642 20.3755 20.9554C20.5438 20.7466 20.632 20.4846 20.6242 20.2165C20.6163 19.9485 20.513 19.692 20.3328 19.4934ZM16.5003 20.625H7.50028C7.40083 20.625 7.30544 20.5855 7.23512 20.5152C7.16479 20.4448 7.12528 20.3495 7.12528 20.25V8.31L16.8753 19.0312V20.25C16.8753 20.3495 16.8358 20.4448 16.7654 20.5152C16.6951 20.5855 16.5997 20.625 16.5003 20.625ZM7.07934 2.25C7.07934 1.95163 7.19787 1.66548 7.40885 1.4545C7.61983 1.24353 7.90598 1.125 8.20434 1.125H16.5003C17.1965 1.125 17.8642 1.40156 18.3564 1.89384C18.8487 2.38613 19.1253 3.05381 19.1253 3.75V13.0256C19.1253 13.324 19.0068 13.6101 18.7958 13.8211C18.5848 14.0321 18.2987 14.1506 18.0003 14.1506C17.7019 14.1506 17.4158 14.0321 17.2048 13.8211C16.9938 13.6101 16.8753 13.324 16.8753 13.0256V3.75C16.8753 3.65054 16.8358 3.55516 16.7654 3.48484C16.6951 3.41451 16.5997 3.375 16.5003 3.375H8.20434C7.90598 3.375 7.61983 3.25647 7.40885 3.0455C7.19787 2.83452 7.07934 2.54837 7.07934 2.25Z" fill="#130032"/>
</svg>
