<svg width="24" height="24" viewBox="0 0 24 24" fill="none" xmlns="http://www.w3.org/2000/svg">
<path d="M19.5458 21.0459L17.2958 23.2959C17.0845 23.5072 16.7979 23.6259 16.499 23.6259C16.2001 23.6259 15.9134 23.5072 15.7021 23.2959C15.4908 23.0845 15.372 22.7979 15.372 22.499C15.372 22.2001 15.4908 21.9135 15.7021 21.7021L16.0312 21.3749H7.49991C6.80372 21.3749 6.13604 21.0984 5.64376 20.6061C5.15147 20.1138 4.87491 19.4461 4.87491 18.7499V10.1249C4.87491 9.82655 4.99344 9.5404 5.20442 9.32942C5.41539 9.11845 5.70154 8.99992 5.99991 8.99992C6.29828 8.99992 6.58443 9.11845 6.79541 9.32942C7.00638 9.5404 7.12491 9.82655 7.12491 10.1249V18.7499C7.12491 18.8494 7.16442 18.9448 7.23475 19.0151C7.30507 19.0854 7.40045 19.1249 7.49991 19.1249H16.0312L15.7012 18.7959C15.4898 18.5845 15.3711 18.2979 15.3711 17.999C15.3711 17.7001 15.4898 17.4135 15.7012 17.2021C15.9125 16.9908 16.1991 16.872 16.498 16.872C16.7969 16.872 17.0836 16.9908 17.2949 17.2021L19.5449 19.4521C19.6499 19.5566 19.7331 19.6807 19.79 19.8174C19.8469 19.9541 19.8762 20.1007 19.8763 20.2488C19.8764 20.3969 19.8472 20.5435 19.7905 20.6803C19.7338 20.817 19.6507 20.9413 19.5458 21.0459ZM7.49991 7.12492C7.72254 7.1251 7.94022 7.05921 8.12539 6.93561C8.31056 6.812 8.45489 6.63624 8.54011 6.43056C8.62533 6.22488 8.64761 5.99855 8.60413 5.7802C8.56065 5.56185 8.45336 5.36132 8.29585 5.20398L7.96866 4.87492H16.4999C16.5994 4.87492 16.6947 4.91443 16.7651 4.98476C16.8354 5.05508 16.8749 5.15046 16.8749 5.24992V13.8749C16.8749 14.1733 16.9934 14.4594 17.2044 14.6704C17.4154 14.8814 17.7015 14.9999 17.9999 14.9999C18.2983 14.9999 18.5844 14.8814 18.7954 14.6704C19.0064 14.4594 19.1249 14.1733 19.1249 13.8749V5.24992C19.1249 4.55373 18.8483 3.88605 18.3561 3.39377C17.8638 2.90148 17.1961 2.62492 16.4999 2.62492H7.96866L8.29866 2.29492C8.51 2.08358 8.62874 1.79693 8.62874 1.49805C8.62874 1.19916 8.51 0.912515 8.29866 0.70117C8.19401 0.596523 8.06978 0.513512 7.93305 0.456878C7.79632 0.400243 7.64978 0.371094 7.50179 0.371094C7.2029 0.371094 6.91625 0.489826 6.70491 0.70117L4.45491 2.95117C4.35003 3.05569 4.26681 3.17988 4.21003 3.31662C4.15325 3.45337 4.12402 3.59998 4.12402 3.74804C4.12402 3.89611 4.15325 4.04272 4.21003 4.17947C4.26681 4.31621 4.35003 4.4404 4.45491 4.54492L6.70491 6.79492C6.91569 7.00596 7.20164 7.12466 7.49991 7.12492Z" fill="#130032"/>
</svg>
