<svg width="24" height="24" viewBox="0 0 24 24" fill="none" xmlns="http://www.w3.org/2000/svg">
<path d="M16.5 1.125H7.5C6.80381 1.125 6.13613 1.40156 5.64384 1.89384C5.15156 2.38613 4.875 3.05381 4.875 3.75V20.25C4.875 20.9462 5.15156 21.6139 5.64384 22.1062C6.13613 22.5984 6.80381 22.875 7.5 22.875H16.5C17.1962 22.875 17.8639 22.5984 18.3562 22.1062C18.8484 21.6139 19.125 20.9462 19.125 20.25V3.75C19.125 3.05381 18.8484 2.38613 18.3562 1.89384C17.8639 1.40156 17.1962 1.125 16.5 1.125ZM16.875 20.25C16.875 20.3495 16.8355 20.4448 16.7652 20.5152C16.6948 20.5855 16.5995 20.625 16.5 20.625H7.5C7.40054 20.625 7.30516 20.5855 7.23483 20.5152C7.16451 20.4448 7.125 20.3495 7.125 20.25V3.75C7.125 3.65054 7.16451 3.55516 7.23483 3.48484C7.30516 3.41451 7.40054 3.375 7.5 3.375H16.5C16.5995 3.375 16.6948 3.41451 16.7652 3.48484C16.8355 3.55516 16.875 3.65054 16.875 3.75V20.25ZM15.375 6C15.375 6.29837 15.2565 6.58452 15.0455 6.7955C14.8345 7.00647 14.5484 7.125 14.25 7.125H9.75C9.45163 7.125 9.16548 7.00647 8.9545 6.7955C8.74353 6.58452 8.625 6.29837 8.625 6C8.625 5.70163 8.74353 5.41548 8.9545 5.2045C9.16548 4.99353 9.45163 4.875 9.75 4.875H14.25C14.5484 4.875 14.8345 4.99353 15.0455 5.2045C15.2565 5.41548 15.375 5.70163 15.375 6Z" fill="#130032"/>
</svg>
