<svg width="24" height="24" viewBox="0 0 24 24" fill="none" xmlns="http://www.w3.org/2000/svg">
<path d="M18 1.875H6C5.30381 1.875 4.63613 2.15156 4.14384 2.64384C3.65156 3.13613 3.375 3.80381 3.375 4.5V19.5C3.375 19.8447 3.4429 20.1861 3.57482 20.5045C3.70673 20.823 3.90009 21.1124 4.14384 21.3562C4.3876 21.5999 4.67698 21.7933 4.99546 21.9252C5.31394 22.0571 5.65528 22.125 6 22.125H18C18.3447 22.125 18.6861 22.0571 19.0045 21.9252C19.323 21.7933 19.6124 21.5999 19.8562 21.3562C20.0999 21.1124 20.2933 20.823 20.4252 20.5045C20.5571 20.1861 20.625 19.8447 20.625 19.5V4.5C20.625 3.80381 20.3484 3.13613 19.8562 2.64384C19.3639 2.15156 18.6962 1.875 18 1.875ZM18.375 19.5C18.375 19.5995 18.3355 19.6948 18.2652 19.7652C18.1948 19.8355 18.0995 19.875 18 19.875H6C5.90054 19.875 5.80516 19.8355 5.73484 19.7652C5.66451 19.6948 5.625 19.5995 5.625 19.5V4.5C5.625 4.40054 5.66451 4.30516 5.73484 4.23484C5.80516 4.16451 5.90054 4.125 6 4.125H18C18.0995 4.125 18.1948 4.16451 18.2652 4.23484C18.3355 4.30516 18.375 4.40054 18.375 4.5V19.5ZM16.125 6.75C16.125 7.04837 16.0065 7.33452 15.7955 7.5455C15.5845 7.75647 15.2984 7.875 15 7.875H9C8.70163 7.875 8.41548 7.75647 8.2045 7.5455C7.99353 7.33452 7.875 7.04837 7.875 6.75C7.875 6.45163 7.99353 6.16548 8.2045 5.9545C8.41548 5.74353 8.70163 5.625 9 5.625H15C15.2984 5.625 15.5845 5.74353 15.7955 5.9545C16.0065 6.16548 16.125 6.45163 16.125 6.75Z" fill="#130032"/>
</svg>
