<svg width="24" height="24" viewBox="0 0 24 24" fill="none" xmlns="http://www.w3.org/2000/svg">
<path d="M11.2039 10.1707C11.3084 10.2756 11.4326 10.3588 11.5693 10.4156C11.7061 10.4724 11.8527 10.5016 12.0007 10.5016C12.1488 10.5016 12.2954 10.4724 12.4322 10.4156C12.5689 10.3588 12.6931 10.2756 12.7976 10.1707L16.3601 6.60823C16.465 6.50371 16.5482 6.37952 16.605 6.24278C16.6618 6.10603 16.691 5.95942 16.691 5.81136C16.691 5.66329 16.6618 5.51668 16.605 5.37994C16.5482 5.24319 16.465 5.119 16.3601 5.01448L12.7976 1.45198C12.6931 1.3471 12.5689 1.26388 12.4322 1.2071C12.2954 1.15032 12.1488 1.12109 12.0007 1.12109C11.8527 1.12109 11.7061 1.15032 11.5693 1.2071C11.4326 1.26388 11.3084 1.3471 11.2039 1.45198L7.64136 5.01448C7.53648 5.119 7.45326 5.24319 7.39648 5.37994C7.3397 5.51668 7.31047 5.66329 7.31047 5.81136C7.31047 5.95942 7.3397 6.10603 7.39648 6.24278C7.45326 6.37952 7.53648 6.50371 7.64136 6.60823L11.2039 10.1707ZM11.9998 3.84354L13.9685 5.81229L11.9998 7.78104L10.031 5.81229L11.9998 3.84354ZM12.7957 13.8317C12.6912 13.7268 12.567 13.6436 12.4303 13.5868C12.2935 13.53 12.1469 13.5008 11.9989 13.5008C11.8508 13.5008 11.7042 13.53 11.5674 13.5868C11.4307 13.6436 11.3065 13.7268 11.202 13.8317L7.63948 17.3942C7.5346 17.4987 7.45138 17.6229 7.3946 17.7596C7.33782 17.8964 7.30859 18.043 7.30859 18.191C7.30859 18.3391 7.33782 18.4857 7.3946 18.6225C7.45138 18.7592 7.5346 18.8834 7.63948 18.9879L11.202 22.5504C11.3065 22.6553 11.4307 22.7385 11.5674 22.7953C11.7042 22.8521 11.8508 22.8813 11.9989 22.8813C12.1469 22.8813 12.2935 22.8521 12.4303 22.7953C12.567 22.7385 12.6912 22.6553 12.7957 22.5504L16.3582 18.9879C16.4631 18.8834 16.5463 18.7592 16.6031 18.6225C16.6599 18.4857 16.6891 18.3391 16.6891 18.191C16.6891 18.043 16.6599 17.8964 16.6031 17.7596C16.5463 17.6229 16.4631 17.4987 16.3582 17.3942L12.7957 13.8317ZM11.9998 20.156L10.031 18.1873L11.9998 16.2185L13.9685 18.1873L11.9998 20.156ZM10.1707 11.201L6.60823 7.63854C6.50371 7.53366 6.37952 7.45045 6.24278 7.39367C6.10603 7.33689 5.95942 7.30766 5.81136 7.30766C5.66329 7.30766 5.51668 7.33689 5.37993 7.39367C5.24319 7.45045 5.119 7.53366 5.01448 7.63854L1.45198 11.201C1.3471 11.3056 1.26388 11.4298 1.2071 11.5665C1.15032 11.7032 1.12109 11.8499 1.12109 11.9979C1.12109 12.146 1.15032 12.2926 1.2071 12.4293C1.26388 12.5661 1.3471 12.6903 1.45198 12.7948L5.01448 16.3573C5.119 16.4622 5.24319 16.5454 5.37993 16.6022C5.51668 16.659 5.66329 16.6882 5.81136 16.6882C5.95942 16.6882 6.10603 16.659 6.24278 16.6022C6.37952 16.5454 6.50371 16.4622 6.60823 16.3573L10.1707 12.7948C10.3817 12.5838 10.5002 12.2977 10.5002 11.9993C10.5002 11.701 10.3817 11.4148 10.1707 11.2039V11.201ZM5.81229 13.9685L3.84354 11.9998L5.81229 10.031L7.78104 11.9998L5.81229 13.9685ZM22.5457 11.201L18.9832 7.63854C18.8787 7.53366 18.7545 7.45045 18.6178 7.39367C18.481 7.33689 18.3344 7.30766 18.1864 7.30766C18.0383 7.30766 17.8917 7.33689 17.7549 7.39367C17.6182 7.45045 17.494 7.53366 17.3895 7.63854L13.827 11.201C13.7221 11.3056 13.6389 11.4298 13.5821 11.5665C13.5253 11.7032 13.4961 11.8499 13.4961 11.9979C13.4961 12.146 13.5253 12.2926 13.5821 12.4293C13.6389 12.5661 13.7221 12.6903 13.827 12.7948L17.3895 16.3573C17.494 16.4622 17.6182 16.5454 17.7549 16.6022C17.8917 16.659 18.0383 16.6882 18.1864 16.6882C18.3344 16.6882 18.481 16.659 18.6178 16.6022C18.7545 16.5454 18.8787 16.4622 18.9832 16.3573L22.5457 12.7948C22.7567 12.5838 22.8752 12.2977 22.8752 11.9993C22.8752 11.701 22.7567 11.4148 22.5457 11.2039V11.201ZM18.1873 13.9685L16.2185 11.9998L18.1873 10.031L20.156 11.9998L18.1873 13.9685Z" fill="#130032"/>
</svg>
