<svg width="24" height="24" viewBox="0 0 24 24" fill="none" xmlns="http://www.w3.org/2000/svg">
<path d="M22.3273 10.6763L13.3217 1.6707C12.9704 1.3212 12.4949 1.125 11.9994 1.125C11.5038 1.125 11.0284 1.3212 10.677 1.6707L1.67703 10.6763C1.32724 11.0277 1.13086 11.5033 1.13086 11.9991C1.13086 12.4949 1.32724 12.9706 1.67703 13.322L10.6817 22.3276C11.0331 22.6771 11.5085 22.8733 12.0041 22.8733C12.4996 22.8733 12.9751 22.6771 13.3264 22.3276L22.3264 13.322C22.6762 12.9706 22.8726 12.4949 22.8726 11.9991C22.8726 11.5033 22.6762 11.0277 22.3264 10.6763H22.3273ZM11.9998 20.4676L3.53234 11.9991L11.9998 3.5307L20.4673 11.9991L11.9998 20.4676Z" fill="#130032"/>
</svg>
