<svg width="24" height="24" viewBox="0 0 24 24" fill="none" xmlns="http://www.w3.org/2000/svg">
<path d="M18 2.625H6C5.10489 2.625 4.24645 2.98058 3.61351 3.61351C2.98058 4.24645 2.625 5.10489 2.625 6V18C2.625 18.8951 2.98058 19.7535 3.61351 20.3865C4.24645 21.0194 5.10489 21.375 6 21.375H18C18.8951 21.375 19.7535 21.0194 20.3865 20.3865C21.0194 19.7535 21.375 18.8951 21.375 18V6C21.375 5.10489 21.0194 4.24645 20.3865 3.61351C19.7535 2.98058 18.8951 2.625 18 2.625ZM19.125 18C19.125 18.2984 19.0065 18.5845 18.7955 18.7955C18.5845 19.0065 18.2984 19.125 18 19.125H6C5.70163 19.125 5.41548 19.0065 5.2045 18.7955C4.99353 18.5845 4.875 18.2984 4.875 18V6C4.875 5.70163 4.99353 5.41548 5.2045 5.2045C5.41548 4.99353 5.70163 4.875 6 4.875H18C18.2984 4.875 18.5845 4.99353 18.7955 5.2045C19.0065 5.41548 19.125 5.70163 19.125 6V18ZM11.25 9.75C11.25 10.0467 11.162 10.3367 10.9972 10.5834C10.8324 10.83 10.5981 11.0223 10.324 11.1358C10.0499 11.2494 9.74834 11.2791 9.45736 11.2212C9.16639 11.1633 8.89912 11.0204 8.68934 10.8107C8.47956 10.6009 8.3367 10.3336 8.27882 10.0426C8.22094 9.75166 8.25065 9.45006 8.36418 9.17597C8.47771 8.90189 8.66997 8.66762 8.91665 8.5028C9.16332 8.33797 9.45333 8.25 9.75 8.25C10.1478 8.25 10.5294 8.40804 10.8107 8.68934C11.092 8.97064 11.25 9.35218 11.25 9.75ZM15.75 14.25C15.75 14.5467 15.662 14.8367 15.4972 15.0834C15.3324 15.33 15.0981 15.5223 14.824 15.6358C14.5499 15.7494 14.2483 15.7791 13.9574 15.7212C13.6664 15.6633 13.3991 15.5204 13.1893 15.3107C12.9796 15.1009 12.8367 14.8336 12.7788 14.5426C12.7209 14.2517 12.7506 13.9501 12.8642 13.676C12.9777 13.4019 13.17 13.1676 13.4166 13.0028C13.6633 12.838 13.9533 12.75 14.25 12.75C14.6478 12.75 15.0294 12.908 15.3107 13.1893C15.592 13.4706 15.75 13.8522 15.75 14.25Z" fill="#130032"/>
</svg>
