<svg width="24" height="24" viewBox="0 0 24 24" fill="none" xmlns="http://www.w3.org/2000/svg">
<path d="M18 2.625H6C5.10489 2.625 4.24645 2.98058 3.61351 3.61351C2.98058 4.24645 2.625 5.10489 2.625 6V18C2.625 18.8951 2.98058 19.7535 3.61351 20.3865C4.24645 21.0194 5.10489 21.375 6 21.375H18C18.8951 21.375 19.7535 21.0194 20.3865 20.3865C21.0194 19.7535 21.375 18.8951 21.375 18V6C21.375 5.10489 21.0194 4.24645 20.3865 3.61351C19.7535 2.98058 18.8951 2.625 18 2.625ZM19.125 18C19.125 18.2984 19.0065 18.5845 18.7955 18.7955C18.5845 19.0065 18.2984 19.125 18 19.125H6C5.70163 19.125 5.41548 19.0065 5.2045 18.7955C4.99353 18.5845 4.875 18.2984 4.875 18V6C4.875 5.70163 4.99353 5.41548 5.2045 5.2045C5.41548 4.99353 5.70163 4.875 6 4.875H18C18.2984 4.875 18.5845 4.99353 18.7955 5.2045C19.0065 5.41548 19.125 5.70163 19.125 6V18ZM10.5 7.875C10.5 8.17167 10.412 8.46168 10.2472 8.70835C10.0824 8.95503 9.84811 9.14729 9.57403 9.26082C9.29994 9.37435 8.99834 9.40406 8.70736 9.34618C8.41639 9.2883 8.14912 9.14544 7.93934 8.93566C7.72956 8.72588 7.5867 8.45861 7.52882 8.16764C7.47094 7.87666 7.50065 7.57506 7.61418 7.30097C7.72771 7.02689 7.91997 6.79262 8.16665 6.6278C8.41332 6.46297 8.70333 6.375 9 6.375C9.39782 6.375 9.77936 6.53304 10.0607 6.81434C10.342 7.09564 10.5 7.47718 10.5 7.875ZM16.5 7.875C16.5 8.17167 16.412 8.46168 16.2472 8.70835C16.0824 8.95503 15.8481 9.14729 15.574 9.26082C15.2999 9.37435 14.9983 9.40406 14.7074 9.34618C14.4164 9.2883 14.1491 9.14544 13.9393 8.93566C13.7296 8.72588 13.5867 8.45861 13.5288 8.16764C13.4709 7.87666 13.5006 7.57506 13.6142 7.30097C13.7277 7.02689 13.92 6.79262 14.1666 6.6278C14.4133 6.46297 14.7033 6.375 15 6.375C15.3978 6.375 15.7794 6.53304 16.0607 6.81434C16.342 7.09564 16.5 7.47718 16.5 7.875ZM10.5 12C10.5 12.2967 10.412 12.5867 10.2472 12.8334C10.0824 13.08 9.84811 13.2723 9.57403 13.3858C9.29994 13.4994 8.99834 13.5291 8.70736 13.4712C8.41639 13.4133 8.14912 13.2704 7.93934 13.0607C7.72956 12.8509 7.5867 12.5836 7.52882 12.2926C7.47094 12.0017 7.50065 11.7001 7.61418 11.426C7.72771 11.1519 7.91997 10.9176 8.16665 10.7528C8.41332 10.588 8.70333 10.5 9 10.5C9.39782 10.5 9.77936 10.658 10.0607 10.9393C10.342 11.2206 10.5 11.6022 10.5 12ZM16.5 12C16.5 12.2967 16.412 12.5867 16.2472 12.8334C16.0824 13.08 15.8481 13.2723 15.574 13.3858C15.2999 13.4994 14.9983 13.5291 14.7074 13.4712C14.4164 13.4133 14.1491 13.2704 13.9393 13.0607C13.7296 12.8509 13.5867 12.5836 13.5288 12.2926C13.4709 12.0017 13.5006 11.7001 13.6142 11.426C13.7277 11.1519 13.92 10.9176 14.1666 10.7528C14.4133 10.588 14.7033 10.5 15 10.5C15.3978 10.5 15.7794 10.658 16.0607 10.9393C16.342 11.2206 16.5 11.6022 16.5 12ZM10.5 16.125C10.5 16.4217 10.412 16.7117 10.2472 16.9584C10.0824 17.205 9.84811 17.3973 9.57403 17.5108C9.29994 17.6244 8.99834 17.6541 8.70736 17.5962C8.41639 17.5383 8.14912 17.3954 7.93934 17.1857C7.72956 16.9759 7.5867 16.7086 7.52882 16.4176C7.47094 16.1267 7.50065 15.8251 7.61418 15.551C7.72771 15.2769 7.91997 15.0426 8.16665 14.8778C8.41332 14.713 8.70333 14.625 9 14.625C9.39782 14.625 9.77936 14.783 10.0607 15.0643C10.342 15.3456 10.5 15.7272 10.5 16.125ZM16.5 16.125C16.5 16.4217 16.412 16.7117 16.2472 16.9584C16.0824 17.205 15.8481 17.3973 15.574 17.5108C15.2999 17.6244 14.9983 17.6541 14.7074 17.5962C14.4164 17.5383 14.1491 17.3954 13.9393 17.1857C13.7296 16.9759 13.5867 16.7086 13.5288 16.4176C13.4709 16.1267 13.5006 15.8251 13.6142 15.551C13.7277 15.2769 13.92 15.0426 14.1666 14.8778C14.4133 14.713 14.7033 14.625 15 14.625C15.3978 14.625 15.7794 14.783 16.0607 15.0643C16.342 15.3456 16.5 15.7272 16.5 16.125Z" fill="#130032"/>
</svg>
