<svg width="24" height="24" viewBox="0 0 24 24" fill="none" xmlns="http://www.w3.org/2000/svg">
<path d="M18 2.625H6C5.10489 2.625 4.24645 2.98058 3.61351 3.61351C2.98058 4.24645 2.625 5.10489 2.625 6V18C2.625 18.8951 2.98058 19.7535 3.61351 20.3865C4.24645 21.0194 5.10489 21.375 6 21.375H18C18.8951 21.375 19.7535 21.0194 20.3865 20.3865C21.0194 19.7535 21.375 18.8951 21.375 18V6C21.375 5.10489 21.0194 4.24645 20.3865 3.61351C19.7535 2.98058 18.8951 2.625 18 2.625ZM19.125 18C19.125 18.2984 19.0065 18.5845 18.7955 18.7955C18.5845 19.0065 18.2984 19.125 18 19.125H6C5.70163 19.125 5.41548 19.0065 5.2045 18.7955C4.99353 18.5845 4.875 18.2984 4.875 18V6C4.875 5.70163 4.99353 5.41548 5.2045 5.2045C5.41548 4.99353 5.70163 4.875 6 4.875H18C18.2984 4.875 18.5845 4.99353 18.7955 5.2045C19.0065 5.41548 19.125 5.70163 19.125 6V18ZM10.5 9C10.5 9.29667 10.412 9.58668 10.2472 9.83335C10.0824 10.08 9.84811 10.2723 9.57403 10.3858C9.29994 10.4994 8.99834 10.5291 8.70736 10.4712C8.41639 10.4133 8.14912 10.2704 7.93934 10.0607C7.72956 9.85088 7.5867 9.58361 7.52882 9.29264C7.47094 9.00166 7.50065 8.70006 7.61418 8.42597C7.72771 8.15189 7.91997 7.91762 8.16665 7.7528C8.41332 7.58797 8.70333 7.5 9 7.5C9.39782 7.5 9.77936 7.65804 10.0607 7.93934C10.342 8.22064 10.5 8.60218 10.5 9ZM16.5 9C16.5 9.29667 16.412 9.58668 16.2472 9.83335C16.0824 10.08 15.8481 10.2723 15.574 10.3858C15.2999 10.4994 14.9983 10.5291 14.7074 10.4712C14.4164 10.4133 14.1491 10.2704 13.9393 10.0607C13.7296 9.85088 13.5867 9.58361 13.5288 9.29264C13.4709 9.00166 13.5006 8.70006 13.6142 8.42597C13.7277 8.15189 13.92 7.91762 14.1666 7.7528C14.4133 7.58797 14.7033 7.5 15 7.5C15.3978 7.5 15.7794 7.65804 16.0607 7.93934C16.342 8.22064 16.5 8.60218 16.5 9ZM10.5 15C10.5 15.2967 10.412 15.5867 10.2472 15.8334C10.0824 16.08 9.84811 16.2723 9.57403 16.3858C9.29994 16.4994 8.99834 16.5291 8.70736 16.4712C8.41639 16.4133 8.14912 16.2704 7.93934 16.0607C7.72956 15.8509 7.5867 15.5836 7.52882 15.2926C7.47094 15.0017 7.50065 14.7001 7.61418 14.426C7.72771 14.1519 7.91997 13.9176 8.16665 13.7528C8.41332 13.588 8.70333 13.5 9 13.5C9.39782 13.5 9.77936 13.658 10.0607 13.9393C10.342 14.2206 10.5 14.6022 10.5 15ZM16.5 15C16.5 15.2967 16.412 15.5867 16.2472 15.8334C16.0824 16.08 15.8481 16.2723 15.574 16.3858C15.2999 16.4994 14.9983 16.5291 14.7074 16.4712C14.4164 16.4133 14.1491 16.2704 13.9393 16.0607C13.7296 15.8509 13.5867 15.5836 13.5288 15.2926C13.4709 15.0017 13.5006 14.7001 13.6142 14.426C13.7277 14.1519 13.92 13.9176 14.1666 13.7528C14.4133 13.588 14.7033 13.5 15 13.5C15.3978 13.5 15.7794 13.658 16.0607 13.9393C16.342 14.2206 16.5 14.6022 16.5 15Z" fill="#130032"/>
</svg>
