<svg width="24" height="24" viewBox="0 0 24 24" fill="none" xmlns="http://www.w3.org/2000/svg">
<path d="M18 2.625H6C5.10489 2.625 4.24645 2.98058 3.61351 3.61351C2.98058 4.24645 2.625 5.10489 2.625 6V18C2.625 18.8951 2.98058 19.7535 3.61351 20.3865C4.24645 21.0194 5.10489 21.375 6 21.375H18C18.8951 21.375 19.7535 21.0194 20.3865 20.3865C21.0194 19.7535 21.375 18.8951 21.375 18V6C21.375 5.10489 21.0194 4.24645 20.3865 3.61351C19.7535 2.98058 18.8951 2.625 18 2.625ZM19.125 18C19.125 18.2984 19.0065 18.5845 18.7955 18.7955C18.5845 19.0065 18.2984 19.125 18 19.125H6C5.70163 19.125 5.41548 19.0065 5.2045 18.7955C4.99353 18.5845 4.875 18.2984 4.875 18V6C4.875 5.70163 4.99353 5.41548 5.2045 5.2045C5.41548 4.99353 5.70163 4.875 6 4.875H18C18.2984 4.875 18.5845 4.99353 18.7955 5.2045C19.0065 5.41548 19.125 5.70163 19.125 6V18ZM9.75 8.25C9.75 8.54667 9.66203 8.83668 9.4972 9.08335C9.33238 9.33003 9.09811 9.52229 8.82403 9.63582C8.54994 9.74935 8.24834 9.77906 7.95736 9.72118C7.66639 9.6633 7.39912 9.52044 7.18934 9.31066C6.97956 9.10088 6.8367 8.83361 6.77882 8.54264C6.72094 8.25166 6.75065 7.95006 6.86418 7.67597C6.97771 7.40189 7.16997 7.16762 7.41665 7.0028C7.66332 6.83797 7.95333 6.75 8.25 6.75C8.64782 6.75 9.02936 6.90804 9.31066 7.18934C9.59196 7.47064 9.75 7.85218 9.75 8.25ZM13.5 12C13.5 12.2967 13.412 12.5867 13.2472 12.8334C13.0824 13.08 12.8481 13.2723 12.574 13.3858C12.2999 13.4994 11.9983 13.5291 11.7074 13.4712C11.4164 13.4133 11.1491 13.2704 10.9393 13.0607C10.7296 12.8509 10.5867 12.5836 10.5288 12.2926C10.4709 12.0017 10.5006 11.7001 10.6142 11.426C10.7277 11.1519 10.92 10.9176 11.1666 10.7528C11.4133 10.588 11.7033 10.5 12 10.5C12.3978 10.5 12.7794 10.658 13.0607 10.9393C13.342 11.2206 13.5 11.6022 13.5 12ZM17.25 15.75C17.25 16.0467 17.162 16.3367 16.9972 16.5834C16.8324 16.83 16.5981 17.0223 16.324 17.1358C16.0499 17.2494 15.7483 17.2791 15.4574 17.2212C15.1664 17.1633 14.8991 17.0204 14.6893 16.8107C14.4796 16.6009 14.3367 16.3336 14.2788 16.0426C14.2209 15.7517 14.2506 15.4501 14.3642 15.176C14.4777 14.9019 14.67 14.6676 14.9166 14.5028C15.1633 14.338 15.4533 14.25 15.75 14.25C16.1478 14.25 16.5294 14.408 16.8107 14.6893C17.092 14.9706 17.25 15.3522 17.25 15.75Z" fill="#130032"/>
</svg>
