<svg width="24" height="24" viewBox="0 0 24 24" fill="none" xmlns="http://www.w3.org/2000/svg">
<path d="M10.1253 12.7496C10.1253 13.0463 10.0373 13.3363 9.8725 13.5829C9.70767 13.8296 9.47341 14.0219 9.19932 14.1354C8.92523 14.2489 8.62363 14.2786 8.33266 14.2208C8.04169 14.1629 7.77441 14.02 7.56463 13.8102C7.35485 13.6005 7.21199 13.3332 7.15411 13.0422C7.09624 12.7513 7.12594 12.4497 7.23947 12.1756C7.353 11.9015 7.54526 11.6672 7.79194 11.5024C8.03861 11.3376 8.32862 11.2496 8.62529 11.2496C9.02312 11.2496 9.40465 11.4076 9.68595 11.6889C9.96726 11.9702 10.1253 12.3518 10.1253 12.7496ZM15.3753 11.2496C15.0786 11.2496 14.7886 11.3376 14.5419 11.5024C14.2953 11.6672 14.103 11.9015 13.9895 12.1756C13.8759 12.4497 13.8462 12.7513 13.9041 13.0422C13.962 13.3332 14.1049 13.6005 14.3146 13.8102C14.5244 14.02 14.7917 14.1629 15.0827 14.2208C15.3736 14.2786 15.6752 14.2489 15.9493 14.1354C16.2234 14.0219 16.4577 13.8296 16.6225 13.5829C16.7873 13.3363 16.8753 13.0463 16.8753 12.7496C16.8753 12.3518 16.7173 11.9702 16.436 11.6889C16.1546 11.4076 15.7731 11.2496 15.3753 11.2496ZM22.5069 18.4271L16.2256 21.2124C15.99 21.3172 15.7354 21.3727 15.4776 21.3754C15.2197 21.3781 14.964 21.3279 14.7263 21.2281C14.4885 21.1282 14.2737 20.9807 14.0951 20.7947C13.9165 20.6087 13.7779 20.3881 13.6878 20.1465L12.8872 17.978C12.5937 17.9912 12.2994 18.0005 12.0012 18.0005C11.7031 18.0005 11.4087 17.9912 11.1153 17.978L10.3128 20.1465C10.2222 20.3879 10.0833 20.6082 9.90459 20.794C9.72584 20.9798 9.51102 21.1271 9.2733 21.227C9.03558 21.3268 8.77998 21.377 8.52217 21.3745C8.26436 21.372 8.00978 21.3168 7.77404 21.2124L1.49279 18.4271C1.08794 18.2492 0.759308 17.9335 0.565333 17.5361C0.371357 17.1387 0.324614 16.6854 0.433418 16.2568L3.20186 5.34334C3.29221 4.98878 3.48432 4.66841 3.75452 4.4217C4.02471 4.17499 4.36119 4.01272 4.72248 3.9549L8.10311 3.39896C8.56836 3.32455 9.04467 3.42573 9.43951 3.68283C9.83435 3.93994 10.1195 4.33462 10.2397 4.79021L10.6531 6.4224C11.0975 6.39146 11.5456 6.37459 12.0003 6.37459C12.455 6.37459 12.9031 6.39146 13.3475 6.4224L13.7609 4.79021C13.8809 4.33451 14.166 3.93969 14.5609 3.68256C14.9558 3.42542 15.4322 3.32434 15.8975 3.39896L19.2781 3.9549C19.6394 4.01272 19.9759 4.17499 20.2461 4.4217C20.5163 4.66841 20.7084 4.98878 20.7987 5.34334L23.5672 16.254C23.6766 16.6831 23.6301 17.1371 23.4359 17.5352C23.2417 17.9332 22.9125 18.2493 22.5069 18.4271ZM21.3078 16.4996L18.6781 6.13646L15.859 5.67334L15.5928 6.72053C15.8647 6.7749 16.1347 6.83303 16.4 6.90053C16.5454 6.93452 16.6826 6.99714 16.8036 7.08472C16.9246 7.1723 17.0269 7.28309 17.1046 7.41063C17.1823 7.53817 17.2339 7.67991 17.2562 7.82758C17.2786 7.97525 17.2713 8.12589 17.2348 8.27072C17.1984 8.41555 17.1334 8.55167 17.0438 8.67113C16.9542 8.7906 16.8416 8.89103 16.7128 8.96655C16.5839 9.04208 16.4413 9.09119 16.2933 9.11103C16.1453 9.13086 15.9948 9.12103 15.8506 9.08209C14.5908 8.77199 13.2977 8.61833 12.0003 8.62459C10.7029 8.61833 9.40975 8.77199 8.14998 9.08209C7.86268 9.14925 7.56049 9.10086 7.30853 8.94734C7.05657 8.79382 6.87501 8.54746 6.80296 8.26135C6.73091 7.97524 6.77414 7.67227 6.92334 7.41773C7.07254 7.16319 7.31576 6.97745 7.60061 6.90053C7.86592 6.83303 8.13592 6.7749 8.40779 6.72053L8.14248 5.67334L5.32248 6.13646L2.69279 16.4996L8.33842 19.0027L8.80717 17.7305C8.39748 17.6593 7.99436 17.5758 7.59967 17.4765C7.45636 17.4404 7.32157 17.3764 7.20297 17.2883C7.08438 17.2001 6.98432 17.0895 6.90849 16.9626C6.75536 16.7064 6.71025 16.3999 6.7831 16.1105C6.85596 15.8211 7.0408 15.5725 7.29696 15.4193C7.55312 15.2662 7.85962 15.2211 8.14904 15.294C9.40919 15.6035 10.7027 15.7565 12.0003 15.7496C13.2977 15.7558 14.5908 15.6022 15.8506 15.2921C16.14 15.2192 16.4465 15.2643 16.7027 15.4175C16.9589 15.5706 17.1437 15.8192 17.2165 16.1087C17.2894 16.3981 17.2443 16.7046 17.0912 16.9607C16.938 17.2169 16.6894 17.4017 16.4 17.4746C16.0053 17.574 15.6022 17.6574 15.1925 17.7287L15.6612 19.0008L21.3078 16.4996Z" fill="#130032"/>
</svg>
