<svg width="24" height="24" viewBox="0 0 24 24" fill="none" xmlns="http://www.w3.org/2000/svg">
<g clip-path="url(#clip0_7_19414)">
<path d="M11.625 5.69812V1.5C11.625 1.20163 11.5065 0.915483 11.2955 0.704505C11.0845 0.493526 10.7984 0.375 10.5 0.375C10.2016 0.375 9.9155 0.493526 9.70452 0.704505C9.49354 0.915483 9.37501 1.20163 9.37501 1.5V5.69812C7.20381 5.98377 5.22256 7.08461 3.83318 8.77734C2.44379 10.4701 1.75033 12.6279 1.89345 14.8131C2.03658 16.9984 3.00558 19.0473 4.60388 20.5444C6.20219 22.0414 8.3101 22.8744 10.5 22.8744C12.6899 22.8744 14.7978 22.0414 16.3961 20.5444C17.9944 19.0473 18.9634 16.9984 19.1066 14.8131C19.2497 12.6279 18.5562 10.4701 17.1669 8.77734C15.7775 7.08461 13.7962 5.98377 11.625 5.69812ZM16.7738 13.125H14.58C14.4263 11.1806 13.89 9.65625 13.2853 8.51719C14.1876 8.95756 14.9736 9.60416 15.5796 10.4047C16.1856 11.2052 16.5947 12.1371 16.7738 13.125ZM10.5 20.1562C9.84376 19.3481 8.90626 17.8041 8.67658 15.375H12.3235C12.0938 17.8031 11.1563 19.3472 10.5 20.1562ZM8.67658 13.125C8.90626 10.6969 9.84376 9.15281 10.5 8.34375C11.1563 9.15187 12.0938 10.6959 12.3235 13.125H8.67658ZM7.7147 8.51719C7.11001 9.65625 6.57376 11.1806 6.42001 13.125H4.22626C4.4053 12.1371 4.81438 11.2052 5.42042 10.4047C6.02645 9.60416 6.81241 8.95756 7.7147 8.51719ZM4.22626 15.375H6.42001C6.57376 17.3194 7.11001 18.8438 7.7147 19.9828C6.81241 19.5424 6.02645 18.8958 5.42042 18.0953C4.81438 17.2948 4.4053 16.3629 4.22626 15.375ZM13.2853 19.9828C13.89 18.8438 14.4263 17.3194 14.58 15.375H16.7738C16.5947 16.3629 16.1856 17.2948 15.5796 18.0953C14.9736 18.8958 14.1876 19.5424 13.2853 19.9828ZM24 8.25C24 8.54837 23.8815 8.83452 23.6705 9.0455C23.4595 9.25647 23.1734 9.375 22.875 9.375H22.5V9.75C22.5 10.0484 22.3815 10.3345 22.1705 10.5455C21.9595 10.7565 21.6734 10.875 21.375 10.875C21.0766 10.875 20.7905 10.7565 20.5795 10.5455C20.3685 10.3345 20.25 10.0484 20.25 9.75V9.375H19.875C19.5766 9.375 19.2905 9.25647 19.0795 9.0455C18.8685 8.83452 18.75 8.54837 18.75 8.25C18.75 7.95163 18.8685 7.66548 19.0795 7.4545C19.2905 7.24353 19.5766 7.125 19.875 7.125H20.25V6.75C20.25 6.45163 20.3685 6.16548 20.5795 5.9545C20.7905 5.74353 21.0766 5.625 21.375 5.625C21.6734 5.625 21.9595 5.74353 22.1705 5.9545C22.3815 6.16548 22.5 6.45163 22.5 6.75V7.125H22.875C23.1734 7.125 23.4595 7.24353 23.6705 7.4545C23.8815 7.66548 24 7.95163 24 8.25ZM13.875 3.375C13.875 3.07663 13.9935 2.79048 14.2045 2.5795C14.4155 2.36853 14.7016 2.25 15 2.25H15.75V1.5C15.75 1.20163 15.8685 0.915483 16.0795 0.704505C16.2905 0.493526 16.5766 0.375 16.875 0.375C17.1734 0.375 17.4595 0.493526 17.6705 0.704505C17.8815 0.915483 18 1.20163 18 1.5V2.25H18.75C19.0484 2.25 19.3345 2.36853 19.5455 2.5795C19.7565 2.79048 19.875 3.07663 19.875 3.375C19.875 3.67337 19.7565 3.95952 19.5455 4.1705C19.3345 4.38147 19.0484 4.5 18.75 4.5H18V5.25C18 5.54837 17.8815 5.83452 17.6705 6.0455C17.4595 6.25647 17.1734 6.375 16.875 6.375C16.5766 6.375 16.2905 6.25647 16.0795 6.0455C15.8685 5.83452 15.75 5.54837 15.75 5.25V4.5H15C14.7016 4.5 14.4155 4.38147 14.2045 4.1705C13.9935 3.95952 13.875 3.67337 13.875 3.375Z" fill="#130032"/>
</g>
<defs>
<clipPath id="clip0_7_19414">
<rect width="24" height="24" fill="white"/>
</clipPath>
</defs>
</svg>
