<svg width="24" height="24" viewBox="0 0 24 24" fill="none" xmlns="http://www.w3.org/2000/svg">
<path d="M12 1.875C9.99747 1.875 8.0399 2.46882 6.37486 3.58137C4.70981 4.69392 3.41206 6.27523 2.64572 8.12533C1.87939 9.97543 1.67888 12.0112 2.06955 13.9753C2.46023 15.9393 3.42454 17.7435 4.84055 19.1595C6.25656 20.5755 8.06066 21.5398 10.0247 21.9305C11.9888 22.3211 14.0246 22.1206 15.8747 21.3543C17.7248 20.5879 19.3061 19.2902 20.4186 17.6251C21.5312 15.9601 22.125 14.0025 22.125 12C22.122 9.3156 21.0543 6.74199 19.1562 4.84383C17.258 2.94567 14.6844 1.87798 12 1.875ZM15.9675 10.875C15.8801 10.5668 15.7571 10.2698 15.6009 9.99L18.3047 7.28625C19.0945 8.33849 19.6065 9.5727 19.7934 10.875H15.9675ZM13.875 12C13.875 12.3708 13.765 12.7334 13.559 13.0417C13.353 13.35 13.0601 13.5904 12.7175 13.7323C12.3749 13.8742 11.9979 13.9113 11.6342 13.839C11.2705 13.7666 10.9364 13.588 10.6742 13.3258C10.412 13.0636 10.2334 12.7295 10.161 12.3658C10.0887 12.0021 10.1258 11.6251 10.2677 11.2825C10.4096 10.9399 10.65 10.647 10.9583 10.441C11.2667 10.235 11.6292 10.125 12 10.125C12.4973 10.125 12.9742 10.3225 13.3258 10.6742C13.6775 11.0258 13.875 11.5027 13.875 12ZM12 19.875C10.7523 19.8758 9.52229 19.5801 8.41129 19.0123C7.30028 18.4445 6.34008 17.6209 5.60981 16.6092C4.87955 15.5976 4.4001 14.4269 4.21099 13.1936C4.02188 11.9603 4.12852 10.6998 4.52211 9.51579C4.9157 8.3318 5.58498 7.25829 6.47481 6.38368C7.36465 5.50908 8.44955 4.85843 9.64015 4.48533C10.8308 4.11224 12.093 4.02738 13.3228 4.23775C14.5526 4.44811 15.7149 4.94769 16.7138 5.69531L14.0091 8.39906C13.2609 7.98145 12.4012 7.80719 11.5495 7.90048C10.6977 7.99377 9.89618 8.34999 9.25613 8.91965C8.61609 9.48931 8.16932 10.2442 7.97788 11.0793C7.78644 11.9145 7.85983 12.7886 8.18786 13.5801C8.51588 14.3717 9.08226 15.0415 9.80834 15.4964C10.5344 15.9514 11.3841 16.169 12.2395 16.1189C13.0949 16.0689 13.9135 15.7537 14.5815 15.2172C15.2496 14.6807 15.734 13.9494 15.9675 13.125H19.7934C19.5207 14.9981 18.5834 16.7107 17.1525 17.9499C15.7217 19.1892 13.8929 19.8725 12 19.875Z" fill="#130032"/>
</svg>
