<svg width="24" height="24" viewBox="0 0 24 24" fill="none" xmlns="http://www.w3.org/2000/svg">
<path d="M19.125 19.1719V21.75C19.125 22.0484 19.0065 22.3345 18.7955 22.5455C18.5846 22.7565 18.2984 22.875 18 22.875C17.7017 22.875 17.4155 22.7565 17.2046 22.5455C16.9936 22.3345 16.875 22.0484 16.875 21.75V19.1719C16.8786 18.1264 16.5891 17.1009 16.0395 16.2116C15.4898 15.3222 14.702 14.6047 13.7654 14.1403L9.22786 11.8716C7.9167 11.2215 6.81393 10.217 6.04457 8.97209C5.27521 7.72717 4.87006 6.29159 4.87505 4.82812V2.25C4.87505 1.95163 4.99357 1.66548 5.20455 1.4545C5.41553 1.24353 5.70168 1.125 6.00005 1.125C6.29841 1.125 6.58456 1.24353 6.79554 1.4545C7.00652 1.66548 7.12505 1.95163 7.12505 2.25V4.82812C7.12153 5.87358 7.41099 6.89911 7.96063 7.78844C8.51026 8.67776 9.29807 9.3953 10.2347 9.85969L14.7722 12.1284C16.0834 12.7785 17.1862 13.783 17.9555 15.0279C18.7249 16.2728 19.13 17.7084 19.125 19.1719ZM14.25 19.125H7.12505C7.12986 18.6174 7.20366 18.1127 7.34442 17.625H12.6132C12.9115 17.625 13.1977 17.5065 13.4087 17.2955C13.6196 17.0845 13.7382 16.7984 13.7382 16.5C13.7382 16.2016 13.6196 15.9155 13.4087 15.7045C13.1977 15.4935 12.9115 15.375 12.6132 15.375H8.60255C8.6963 15.2719 8.79005 15.1706 8.89598 15.0741C9.11329 14.8696 9.24047 14.5871 9.24952 14.2888C9.25857 13.9906 9.14877 13.7009 8.94426 13.4836C8.73976 13.2663 8.4573 13.1391 8.15903 13.1301C7.86076 13.121 7.57111 13.2308 7.3538 13.4353C6.57272 14.1731 5.95011 15.0622 5.52395 16.0485C5.09778 17.0347 4.87699 18.0975 4.87505 19.1719V21.75C4.87505 22.0484 4.99357 22.3345 5.20455 22.5455C5.41553 22.7565 5.70168 22.875 6.00005 22.875C6.29841 22.875 6.58456 22.7565 6.79554 22.5455C7.00652 22.3345 7.12505 22.0484 7.12505 21.75V21.375H14.25C14.5484 21.375 14.8346 21.2565 15.0455 21.0455C15.2565 20.8345 15.375 20.5484 15.375 20.25C15.375 19.9516 15.2565 19.6655 15.0455 19.4545C14.8346 19.2435 14.5484 19.125 14.25 19.125ZM18 1.125C17.7017 1.125 17.4155 1.24353 17.2046 1.4545C16.9936 1.66548 16.875 1.95163 16.875 2.25V2.625H9.75005C9.45168 2.625 9.16553 2.74353 8.95455 2.9545C8.74357 3.16548 8.62505 3.45163 8.62505 3.75C8.62505 4.04837 8.74357 4.33452 8.95455 4.5455C9.16553 4.75647 9.45168 4.875 9.75005 4.875H16.875C16.8702 5.38263 16.7964 5.88725 16.6557 6.375H11.385C11.0867 6.375 10.8005 6.49353 10.5896 6.7045C10.3786 6.91548 10.26 7.20163 10.26 7.5C10.26 7.79837 10.3786 8.08452 10.5896 8.2955C10.8005 8.50647 11.0867 8.625 11.385 8.625H15.3975C15.3038 8.72813 15.21 8.82937 15.1041 8.92594C14.8868 9.13044 14.7596 9.4129 14.7506 9.71117C14.7415 10.0094 14.8513 10.2991 15.0558 10.5164C15.2603 10.7337 15.5428 10.8609 15.8411 10.8699C16.1393 10.879 16.429 10.7692 16.6463 10.5647C17.4274 9.82694 18.05 8.93782 18.4761 7.95155C18.9023 6.96528 19.1231 5.90253 19.125 4.82812V2.25C19.125 1.95163 19.0065 1.66548 18.7955 1.4545C18.5846 1.24353 18.2984 1.125 18 1.125Z" fill="#130032"/>
</svg>
