<svg width="24" height="24" viewBox="0 0 24 24" fill="none" xmlns="http://www.w3.org/2000/svg">
<path d="M10.125 12.7508C10.125 13.0475 10.037 13.3375 9.8722 13.5842C9.70738 13.8309 9.47311 14.0231 9.19902 14.1366C8.92493 14.2502 8.62333 14.2799 8.33236 14.222C8.04139 14.1641 7.77411 14.0213 7.56433 13.8115C7.35455 13.6017 7.21169 13.3344 7.15382 13.0435C7.09594 12.7525 7.12564 12.4509 7.23917 12.1768C7.35271 11.9027 7.54496 11.6684 7.79164 11.5036C8.03831 11.3388 8.32832 11.2508 8.62499 11.2508C9.02282 11.2508 9.40435 11.4089 9.68565 11.6902C9.96696 11.9715 10.125 12.353 10.125 12.7508ZM15.375 11.2508C15.0783 11.2508 14.7883 11.3388 14.5416 11.5036C14.295 11.6684 14.1027 11.9027 13.9892 12.1768C13.8756 12.4509 13.8459 12.7525 13.9038 13.0435C13.9617 13.3344 14.1046 13.6017 14.3143 13.8115C14.5241 14.0213 14.7914 14.1641 15.0824 14.222C15.3733 14.2799 15.6749 14.2502 15.949 14.1366C16.2231 14.0231 16.4574 13.8309 16.6222 13.5842C16.787 13.3375 16.875 13.0475 16.875 12.7508C16.875 12.353 16.717 11.9715 16.4357 11.6902C16.1543 11.4089 15.7728 11.2508 15.375 11.2508ZM21.7725 13.7052C21.525 13.8184 21.2562 13.8775 20.9841 13.8786C20.8635 13.8783 20.7432 13.866 20.625 13.8421V17.2508C20.6238 18.3445 20.1888 19.393 19.4154 20.1663C18.6421 20.9396 17.5936 21.3746 16.5 21.3758H7.49999C6.40636 21.3746 5.35787 20.9396 4.58455 20.1663C3.81123 19.393 3.37623 18.3445 3.37499 17.2508V13.8411C3.25624 13.8656 3.1353 13.8778 3.01406 13.8777C2.74257 13.8769 2.47438 13.8181 2.22749 13.7052C1.84215 13.5359 1.52617 13.2401 1.33182 12.8667C1.13747 12.4934 1.07641 12.0648 1.15874 11.6521L2.69812 3.40208C2.74553 3.15102 2.84374 2.91231 2.98674 2.70058C3.12973 2.48886 3.31449 2.30859 3.52966 2.17085C3.74484 2.0331 3.9859 1.94079 4.23804 1.89956C4.49018 1.85834 4.74809 1.86909 4.99593 1.93114L5.03999 1.94333L9.91499 3.37489H14.0906L18.9656 1.94333L19.0097 1.93114C19.2577 1.86911 19.5158 1.85847 19.7681 1.89986C20.0204 1.94126 20.2616 2.03382 20.4768 2.17185C20.692 2.30988 20.8767 2.49047 21.0196 2.70252C21.1624 2.91456 21.2604 3.15358 21.3075 3.40489L22.8469 11.6549C22.9281 12.0679 22.8659 12.4963 22.6705 12.8691C22.4751 13.242 22.1583 13.5369 21.7725 13.7052ZM16.1475 5.11489L20.3437 10.5402L19.1662 4.22801L16.1475 5.11489ZM3.65624 10.5402L7.85249 5.11489L4.83374 4.22801L3.65624 10.5402ZM18.375 17.2508V11.6708L13.6978 5.62583H10.3022L5.62499 11.6708V17.2508C5.62499 17.7481 5.82254 18.225 6.17417 18.5767C6.5258 18.9283 7.00271 19.1258 7.49999 19.1258H10.875V18.4696L9.70499 17.2986C9.49365 17.0873 9.37492 16.8006 9.37492 16.5018C9.37492 16.2029 9.49365 15.9162 9.70499 15.7049C9.91634 15.4935 10.203 15.3748 10.5019 15.3748C10.8008 15.3748 11.0874 15.4935 11.2987 15.7049L12 16.4071L12.7041 15.7021C12.9154 15.4907 13.202 15.372 13.5009 15.372C13.7998 15.372 14.0865 15.4907 14.2978 15.7021C14.5091 15.9134 14.6279 16.2001 14.6279 16.499C14.6279 16.7978 14.5091 17.0845 14.2978 17.2958L13.125 18.4696V19.1258H16.5C16.9973 19.1258 17.4742 18.9283 17.8258 18.5767C18.1774 18.225 18.375 17.7481 18.375 17.2508Z" fill="#130032"/>
</svg>
