<svg width="24" height="24" viewBox="0 0 24 24" fill="none" xmlns="http://www.w3.org/2000/svg">
<path d="M12 9C11.4067 9 10.8266 9.17595 10.3333 9.50559C9.83994 9.83524 9.45543 10.3038 9.22836 10.8519C9.0013 11.4001 8.94189 12.0033 9.05765 12.5853C9.1734 13.1672 9.45912 13.7018 9.87868 14.1213C10.2982 14.5409 10.8328 14.8266 11.4147 14.9424C11.9967 15.0581 12.5999 14.9987 13.1481 14.7716C13.6962 14.5446 14.1648 14.1601 14.4944 13.6667C14.8241 13.1734 15 12.5933 15 12C15 11.2044 14.6839 10.4413 14.1213 9.87868C13.5587 9.31607 12.7957 9 12 9ZM12 12.75C11.8517 12.75 11.7067 12.706 11.5833 12.6236C11.46 12.5412 11.3639 12.4241 11.3071 12.287C11.2503 12.15 11.2355 11.9992 11.2644 11.8537C11.2934 11.7082 11.3648 11.5746 11.4697 11.4697C11.5746 11.3648 11.7082 11.2933 11.8537 11.2644C11.9992 11.2355 12.15 11.2503 12.287 11.3071C12.4241 11.3639 12.5412 11.46 12.6236 11.5833C12.706 11.7067 12.75 11.8517 12.75 12C12.75 12.1989 12.671 12.3897 12.5303 12.5303C12.3897 12.671 12.1989 12.75 12 12.75Z" fill="#130032"/>
</svg>
