<svg width="24" height="24" viewBox="0 0 24 24" fill="none" xmlns="http://www.w3.org/2000/svg">
<path d="M7.125 5.625C7.125 5.92167 7.03703 6.21168 6.87221 6.45836C6.70738 6.70503 6.47311 6.89729 6.19903 7.01082C5.92494 7.12435 5.62334 7.15406 5.33237 7.09618C5.04139 7.0383 4.77412 6.89544 4.56434 6.68566C4.35456 6.47588 4.2117 6.20861 4.15382 5.91764C4.09594 5.62666 4.12565 5.32506 4.23918 5.05098C4.35271 4.77689 4.54497 4.54262 4.79165 4.3778C5.03832 4.21297 5.32833 4.125 5.625 4.125C6.02283 4.125 6.40436 4.28304 6.68566 4.56434C6.96697 4.84565 7.125 5.22718 7.125 5.625ZM12 4.125C11.7033 4.125 11.4133 4.21297 11.1666 4.3778C10.92 4.54262 10.7277 4.77689 10.6142 5.05098C10.5006 5.32506 10.4709 5.62666 10.5288 5.91764C10.5867 6.20861 10.7296 6.47588 10.9393 6.68566C11.1491 6.89544 11.4164 7.0383 11.7074 7.09618C11.9983 7.15406 12.2999 7.12435 12.574 7.01082C12.8481 6.89729 13.0824 6.70503 13.2472 6.45836C13.412 6.21168 13.5 5.92167 13.5 5.625C13.5 5.22718 13.342 4.84565 13.0607 4.56434C12.7794 4.28304 12.3978 4.125 12 4.125ZM18.375 7.125C18.6717 7.125 18.9617 7.03703 19.2084 6.87221C19.455 6.70738 19.6473 6.47311 19.7608 6.19903C19.8744 5.92494 19.9041 5.62334 19.8462 5.33237C19.7883 5.04139 19.6454 4.77412 19.4357 4.56434C19.2259 4.35456 18.9586 4.2117 18.6676 4.15382C18.3767 4.09594 18.0751 4.12565 17.801 4.23918C17.5269 4.35271 17.2926 4.54497 17.1278 4.79165C16.963 5.03832 16.875 5.32833 16.875 5.625C16.875 6.02283 17.033 6.40436 17.3143 6.68566C17.5956 6.96697 17.9772 7.125 18.375 7.125ZM5.625 10.5C5.32833 10.5 5.03832 10.588 4.79165 10.7528C4.54497 10.9176 4.35271 11.1519 4.23918 11.426C4.12565 11.7001 4.09594 12.0017 4.15382 12.2926C4.2117 12.5836 4.35456 12.8509 4.56434 13.0607C4.77412 13.2704 5.04139 13.4133 5.33237 13.4712C5.62334 13.5291 5.92494 13.4994 6.19903 13.3858C6.47311 13.2723 6.70738 13.08 6.87221 12.8334C7.03703 12.5867 7.125 12.2967 7.125 12C7.125 11.6022 6.96697 11.2206 6.68566 10.9393C6.40436 10.658 6.02283 10.5 5.625 10.5ZM12 10.5C11.7033 10.5 11.4133 10.588 11.1666 10.7528C10.92 10.9176 10.7277 11.1519 10.6142 11.426C10.5006 11.7001 10.4709 12.0017 10.5288 12.2926C10.5867 12.5836 10.7296 12.8509 10.9393 13.0607C11.1491 13.2704 11.4164 13.4133 11.7074 13.4712C11.9983 13.5291 12.2999 13.4994 12.574 13.3858C12.8481 13.2723 13.0824 13.08 13.2472 12.8334C13.412 12.5867 13.5 12.2967 13.5 12C13.5 11.6022 13.342 11.2206 13.0607 10.9393C12.7794 10.658 12.3978 10.5 12 10.5ZM18.375 10.5C18.0783 10.5 17.7883 10.588 17.5416 10.7528C17.295 10.9176 17.1027 11.1519 16.9892 11.426C16.8757 11.7001 16.8459 12.0017 16.9038 12.2926C16.9617 12.5836 17.1046 12.8509 17.3143 13.0607C17.5241 13.2704 17.7914 13.4133 18.0824 13.4712C18.3733 13.5291 18.6749 13.4994 18.949 13.3858C19.2231 13.2723 19.4574 13.08 19.6222 12.8334C19.787 12.5867 19.875 12.2967 19.875 12C19.875 11.6022 19.717 11.2206 19.4357 10.9393C19.1544 10.658 18.7728 10.5 18.375 10.5ZM5.625 16.875C5.32833 16.875 5.03832 16.963 4.79165 17.1278C4.54497 17.2926 4.35271 17.5269 4.23918 17.801C4.12565 18.0751 4.09594 18.3767 4.15382 18.6676C4.2117 18.9586 4.35456 19.2259 4.56434 19.4357C4.77412 19.6454 5.04139 19.7883 5.33237 19.8462C5.62334 19.9041 5.92494 19.8744 6.19903 19.7608C6.47311 19.6473 6.70738 19.455 6.87221 19.2084C7.03703 18.9617 7.125 18.6717 7.125 18.375C7.125 17.9772 6.96697 17.5956 6.68566 17.3143C6.40436 17.033 6.02283 16.875 5.625 16.875ZM12 16.875C11.7033 16.875 11.4133 16.963 11.1666 17.1278C10.92 17.2926 10.7277 17.5269 10.6142 17.801C10.5006 18.0751 10.4709 18.3767 10.5288 18.6676C10.5867 18.9586 10.7296 19.2259 10.9393 19.4357C11.1491 19.6454 11.4164 19.7883 11.7074 19.8462C11.9983 19.9041 12.2999 19.8744 12.574 19.7608C12.8481 19.6473 13.0824 19.455 13.2472 19.2084C13.412 18.9617 13.5 18.6717 13.5 18.375C13.5 17.9772 13.342 17.5956 13.0607 17.3143C12.7794 17.033 12.3978 16.875 12 16.875ZM18.375 16.875C18.0783 16.875 17.7883 16.963 17.5416 17.1278C17.295 17.2926 17.1027 17.5269 16.9892 17.801C16.8757 18.0751 16.8459 18.3767 16.9038 18.6676C16.9617 18.9586 17.1046 19.2259 17.3143 19.4357C17.5241 19.6454 17.7914 19.7883 18.0824 19.8462C18.3733 19.9041 18.6749 19.8744 18.949 19.7608C19.2231 19.6473 19.4574 19.455 19.6222 19.2084C19.787 18.9617 19.875 18.6717 19.875 18.375C19.875 17.9772 19.717 17.5956 19.4357 17.3143C19.1544 17.033 18.7728 16.875 18.375 16.875Z" fill="#130032"/>
</svg>
