<svg width="24" height="24" viewBox="0 0 24 24" fill="none" xmlns="http://www.w3.org/2000/svg">
<path d="M20.4729 19.5112C20.4673 19.5 20.4626 19.4878 20.457 19.4766L16.2814 10.5825L18.0935 7.74C18.0992 7.73156 18.1048 7.72312 18.1095 7.71469C18.2843 7.42328 18.3767 7.08984 18.3767 6.75C18.3767 6.41016 18.2843 6.07672 18.1095 5.78531C18.0964 5.76281 18.0814 5.74031 18.0664 5.71875L16.1248 2.9475V1.125C16.1248 0.826631 16.0063 0.540483 15.7953 0.329505C15.5843 0.118526 15.2982 0 14.9998 0C14.7014 0 14.4153 0.118526 14.2043 0.329505C13.9933 0.540483 13.8748 0.826631 13.8748 1.125V2.90625L13.4642 3.41906C13.2885 3.63873 13.0657 3.81606 12.8122 3.93793C12.5587 4.05979 12.2811 4.12307 11.9998 4.12307C11.7185 4.12307 11.4409 4.05979 11.1874 3.93793C10.9339 3.81606 10.7111 3.63873 10.5354 3.41906L10.1248 2.90625V1.125C10.1248 0.826631 10.0063 0.540483 9.79529 0.329505C9.58431 0.118526 9.29816 0 8.99979 0C8.70143 0 8.41528 0.118526 8.2043 0.329505C7.99332 0.540483 7.87479 0.826631 7.87479 1.125V2.9475L5.93511 5.71875C5.92011 5.74031 5.90511 5.76281 5.89198 5.78531C5.71714 6.07672 5.62478 6.41016 5.62478 6.75C5.62478 7.08984 5.71714 7.42328 5.89198 7.71469C5.89198 7.72312 5.90229 7.73156 5.90792 7.74L7.71823 10.5825L3.54261 19.4766C3.53698 19.4878 3.53229 19.5 3.52667 19.5112C3.40442 19.7964 3.35485 20.1075 3.38241 20.4165C3.40997 20.7256 3.51379 21.023 3.68457 21.282C3.85535 21.5411 4.08775 21.7537 4.36092 21.9008C4.6341 22.0479 4.93952 22.125 5.24979 22.125H18.7498C19.0601 22.1251 19.3657 22.0482 19.639 21.9011C19.9123 21.7541 20.1448 21.5415 20.3157 21.2824C20.4866 21.0233 20.5905 20.7259 20.6181 20.4168C20.6457 20.1076 20.5961 19.7965 20.4739 19.5112H20.4729ZM11.9998 6.375C12.544 6.37611 13.0829 6.26892 13.5852 6.05968C14.0876 5.85044 14.5433 5.54334 14.9257 5.15625L16.0507 6.75937L14.3829 9.375H9.61667L7.95167 6.76125L9.07667 5.15812C9.45896 5.54453 9.91425 5.8511 10.4161 6.06001C10.9179 6.26891 11.4562 6.37598 11.9998 6.375ZM5.84136 19.875L9.71417 11.625H14.2854L18.1582 19.875H5.84136Z" fill="#130032"/>
</svg>
