<svg width="24" height="24" viewBox="0 0 24 24" fill="none" xmlns="http://www.w3.org/2000/svg">
<path d="M3.94341 10.3074C3.51996 9.89079 3.18319 9.39446 2.95251 8.84705C2.72184 8.29963 2.60183 7.71196 2.59941 7.11793C2.59699 6.52391 2.71221 5.93528 2.93842 5.386C3.16463 4.83673 3.49735 4.33767 3.91739 3.91763C4.33744 3.49758 4.83649 3.16486 5.38577 2.93865C5.93504 2.71245 6.52367 2.59723 7.1177 2.59965C7.71173 2.60207 8.2994 2.72207 8.84681 2.95275C9.39423 3.18342 9.89055 3.5202 10.3072 3.94365C10.4974 4.15816 10.5985 4.43719 10.5899 4.72375C10.5813 5.0103 10.4636 5.28277 10.2609 5.48548C10.0582 5.6882 9.78569 5.80588 9.49914 5.81448C9.21258 5.82309 8.93355 5.72196 8.71904 5.53177C8.50974 5.32248 8.26127 5.15646 7.98782 5.04319C7.71436 4.92992 7.42127 4.87162 7.12529 4.87162C6.8293 4.87162 6.53621 4.92992 6.26276 5.04319C5.9893 5.15646 5.74083 5.32248 5.53154 5.53177C5.32224 5.74107 5.15622 5.98954 5.04295 6.26299C4.92968 6.53645 4.87139 6.82954 4.87139 7.12552C4.87139 7.42151 4.92968 7.7146 5.04295 7.98805C5.15622 8.26151 5.32224 8.50998 5.53154 8.71927C5.74288 8.93062 5.86161 9.21726 5.86161 9.51615C5.86161 9.81503 5.74288 10.1017 5.53154 10.313C5.32019 10.5244 5.03355 10.6431 4.73466 10.6431C4.43578 10.6431 4.14913 10.5244 3.93779 10.313L3.94341 10.3074ZM15.2815 5.53177C15.4908 5.32248 15.7393 5.15646 16.0128 5.04319C16.2862 4.92992 16.5793 4.87162 16.8753 4.87162C17.1713 4.87162 17.4644 4.92992 17.7378 5.04319C18.0113 5.15646 18.2597 5.32248 18.469 5.53177C18.6783 5.74107 18.8444 5.98954 18.9576 6.26299C19.0709 6.53645 19.1292 6.82954 19.1292 7.12552C19.1292 7.42151 19.0709 7.7146 18.9576 7.98805C18.8444 8.26151 18.6783 8.50998 18.469 8.71927C18.2577 8.93062 18.139 9.21726 18.139 9.51615C18.139 9.81503 18.2577 10.1017 18.469 10.313C18.6804 10.5244 18.967 10.6431 19.2659 10.6431C19.5648 10.6431 19.8514 10.5244 20.0628 10.313C20.4862 9.89641 20.823 9.40009 21.0537 8.85267C21.2844 8.30526 21.4044 7.71759 21.4068 7.12356C21.4092 6.52953 21.294 5.9409 21.0678 5.39163C20.8416 4.84235 20.5089 4.3433 20.0888 3.92325C19.6688 3.50321 19.1697 3.17049 18.6204 2.94428C18.0712 2.71807 17.4825 2.60285 16.8885 2.60527C16.2945 2.60769 15.7068 2.7277 15.1594 2.95837C14.612 3.18905 14.1156 3.52582 13.699 3.94927C13.4877 4.16062 13.369 4.44726 13.369 4.74615C13.369 5.04503 13.4877 5.33168 13.699 5.54302C13.9104 5.75437 14.197 5.8731 14.4959 5.8731C14.7948 5.8731 15.0814 5.75437 15.2928 5.54302L15.2815 5.53177ZM18.4634 13.688C18.3585 13.7925 18.2753 13.9167 18.2185 14.0535C18.1618 14.1902 18.1325 14.3368 18.1325 14.4849C18.1325 14.633 18.1618 14.7796 18.2185 14.9163C18.2753 15.0531 18.3585 15.1773 18.4634 15.2818C18.8861 15.7037 19.1239 16.2763 19.1244 16.8735C19.1249 17.4708 18.8882 18.0438 18.4662 18.4665C18.0443 18.8891 17.4717 19.1269 16.8745 19.1274C16.2772 19.128 15.7042 18.8912 15.2815 18.4693C15.0702 18.2579 14.7835 18.1392 14.4847 18.1392C14.1858 18.1392 13.8991 18.2579 13.6878 18.4693C13.4764 18.6806 13.3577 18.9673 13.3577 19.2661C13.3577 19.565 13.4764 19.8517 13.6878 20.063C14.1044 20.4865 14.6007 20.8232 15.1481 21.0539C15.6956 21.2846 16.2832 21.4046 16.8773 21.407C17.4713 21.4094 18.0599 21.2942 18.6092 21.068C19.1585 20.8418 19.6575 20.5091 20.0776 20.089C20.4976 19.669 20.8303 19.1699 21.0565 18.6207C21.2827 18.0714 21.398 17.4828 21.3955 16.8887C21.3931 16.2947 21.2731 15.707 21.0424 15.1596C20.8118 14.6122 20.475 14.1159 20.0515 13.6993C19.8417 13.4901 19.5577 13.3722 19.2614 13.3712C18.9651 13.3701 18.6804 13.486 18.469 13.6936L18.4634 13.688ZM8.71904 18.4693C8.50974 18.6786 8.26127 18.8446 7.98782 18.9579C7.71436 19.0711 7.42127 19.1294 7.12529 19.1294C6.8293 19.1294 6.53621 19.0711 6.26276 18.9579C5.9893 18.8446 5.74083 18.6786 5.53154 18.4693C5.32224 18.26 5.15622 18.0115 5.04295 17.7381C4.92968 17.4646 4.87139 17.1715 4.87139 16.8755C4.87139 16.5795 4.92968 16.2864 5.04295 16.013C5.15622 15.7395 5.32224 15.4911 5.53154 15.2818C5.74288 15.0704 5.86161 14.7838 5.86161 14.4849C5.86161 14.186 5.74288 13.8994 5.53154 13.688C5.32019 13.4767 5.03355 13.3579 4.73466 13.3579C4.43578 13.3579 4.14913 13.4767 3.93779 13.688C3.51434 14.1046 3.17756 14.601 2.94689 15.1484C2.71621 15.6958 2.59621 16.2835 2.59379 16.8775C2.59137 17.4715 2.70659 18.0601 2.93279 18.6094C3.159 19.1587 3.49173 19.6577 3.91177 20.0778C4.33181 20.4978 4.83087 20.8306 5.38014 21.0568C5.92942 21.283 6.51805 21.3982 7.11207 21.3958C7.7061 21.3934 8.29377 21.2733 8.84119 21.0427C9.3886 20.812 9.88493 20.4752 10.3015 20.0518C10.4062 19.9471 10.4892 19.8229 10.5458 19.6862C10.6025 19.5494 10.6316 19.4029 10.6316 19.2549C10.6316 19.1069 10.6025 18.9604 10.5458 18.8236C10.4892 18.6869 10.4062 18.5627 10.3015 18.458C10.1969 18.3534 10.0727 18.2704 9.93593 18.2137C9.7992 18.1571 9.65266 18.1279 9.50466 18.1279C9.35667 18.1279 9.21012 18.1571 9.0734 18.2137C8.93667 18.2704 8.81243 18.3534 8.70779 18.458L8.71904 18.4693ZM15.3753 10.2193V13.7818L17.6712 16.0768C17.8826 16.2881 18.0013 16.5748 18.0013 16.8736C18.0013 17.1725 17.8826 17.4592 17.6712 17.6705C17.4599 17.8819 17.1732 18.0006 16.8744 18.0006C16.5755 18.0006 16.2888 17.8819 16.0775 17.6705L13.7815 15.3755H10.219L7.92123 17.6715C7.70988 17.8828 7.42324 18.0015 7.12435 18.0015C6.82546 18.0015 6.53882 17.8828 6.32748 17.6715C6.11613 17.4601 5.9974 17.1735 5.9974 16.8746C5.9974 16.7266 6.02655 16.58 6.08318 16.4433C6.13982 16.3066 6.22283 16.1824 6.32748 16.0777L8.62529 13.7818V10.2193L6.32935 7.92146C6.11801 7.71012 5.99927 7.42347 5.99927 7.12459C5.99927 6.8257 6.11801 6.53905 6.32935 6.32771C6.54069 6.11637 6.82734 5.99763 7.12623 5.99763C7.42511 5.99763 7.71176 6.11637 7.9231 6.32771L10.219 8.62552H13.7815L16.0765 6.32959C16.2879 6.11824 16.5745 5.99951 16.8734 5.99951C17.1723 5.99951 17.4589 6.11824 17.6703 6.32959C17.8816 6.54093 18.0004 6.82757 18.0004 7.12646C18.0004 7.42535 17.8816 7.71199 17.6703 7.92334L15.3753 10.2193ZM10.8753 13.1255H13.1253V10.8755H10.8753V13.1255Z" fill="#130032"/>
</svg>
