<svg width="24" height="24" viewBox="0 0 24 24" fill="none" xmlns="http://www.w3.org/2000/svg">
<path d="M5.33278 2.99412C5.23399 2.88276 5.11407 2.79211 4.97998 2.72743C4.8459 2.66275 4.7003 2.62532 4.55165 2.61733C4.40299 2.60933 4.25422 2.63092 4.11397 2.68084C3.97372 2.73076 3.84477 2.80802 3.73459 2.90814C3.62442 3.00827 3.53522 3.12926 3.47215 3.26411C3.40908 3.39897 3.37341 3.545 3.36719 3.69374C3.36098 3.84248 3.38435 3.99098 3.43594 4.13062C3.48754 4.27027 3.56635 4.39828 3.66778 4.50725L5.59528 6.62787C4.12528 8.92756 3.37528 11.2357 3.37528 13.5007C3.37473 15.1624 3.85419 16.7888 4.75601 18.1845C5.65783 19.5802 6.94362 20.6856 8.45875 21.3679C9.97388 22.0502 11.6539 22.2803 13.2967 22.0306C14.9395 21.7808 16.4751 21.0618 17.719 19.9601L18.6715 21.0072C18.8732 21.2239 19.1522 21.3524 19.448 21.3647C19.7438 21.3771 20.0325 21.2724 20.2516 21.0733C20.4707 20.8742 20.6024 20.5967 20.6183 20.3011C20.6342 20.0055 20.533 19.7156 20.3365 19.4941L5.33278 2.99412ZM12.0003 19.8757C10.3101 19.8739 8.68956 19.2017 7.49439 18.0066C6.29923 16.8114 5.62702 15.1909 5.62528 13.5007C5.62528 11.8376 6.14466 10.1144 7.17122 8.36131L16.2012 18.2988C15.039 19.3174 13.5457 19.8779 12.0003 19.8757ZM8.68247 4.44818C8.57832 4.34293 8.49598 4.21815 8.44016 4.081C8.38435 3.94386 8.35615 3.79704 8.3572 3.64897C8.35824 3.50091 8.38851 3.3545 8.44625 3.21816C8.504 3.08181 8.5881 2.95821 8.69372 2.85443C9.5213 2.02806 10.4111 1.26645 11.3553 0.576309C11.5443 0.444008 11.7695 0.373047 12.0003 0.373047C12.231 0.373047 12.4562 0.444008 12.6453 0.576309C12.9715 0.806934 20.6253 6.24819 20.6253 13.5007C20.6242 13.9193 20.5928 14.3372 20.5315 14.7513C20.4928 15.0187 20.3592 15.2632 20.155 15.4402C19.9508 15.6171 19.6898 15.7147 19.4197 15.7151C19.3651 15.7147 19.3106 15.7107 19.2565 15.7029C18.9613 15.66 18.6952 15.5015 18.5167 15.2624C18.3383 15.0233 18.2621 14.7231 18.305 14.4279C18.3505 14.1209 18.374 13.811 18.3753 13.5007C18.3753 8.5385 13.7356 4.32162 12.0003 2.91818C11.5653 3.26787 10.9503 3.79287 10.2743 4.45943C10.1691 4.5633 10.0445 4.6454 9.90749 4.70106C9.77052 4.75671 9.62392 4.78481 9.47608 4.78377C9.32823 4.78272 9.18204 4.75255 9.04587 4.69497C8.9097 4.63738 8.78621 4.55352 8.68247 4.44818Z" fill="#130032"/>
</svg>
