<svg width="24" height="24" viewBox="0 0 24 24" fill="none" xmlns="http://www.w3.org/2000/svg">
<path d="M12.645 0.578263C12.4559 0.445961 12.2308 0.375 12 0.375C11.7692 0.375 11.5441 0.445961 11.355 0.578263C9.90537 1.64661 8.57909 2.8729 7.40063 4.23451C4.76719 7.25889 3.375 10.4651 3.375 13.4998C3.375 15.7873 4.2837 17.9811 5.9012 19.5986C7.51871 21.2161 9.71251 22.1248 12 22.1248C14.2875 22.1248 16.4813 21.2161 18.0988 19.5986C19.7163 17.9811 20.625 15.7873 20.625 13.4998C20.625 6.24732 12.9713 0.806075 12.645 0.578263ZM12 19.8748C10.3098 19.8731 8.68928 19.2009 7.49411 18.0057C6.29894 16.8105 5.62674 15.19 5.625 13.4998C5.625 10.377 7.5 7.55889 9.06562 5.74576C9.9595 4.71899 10.9414 3.77227 12 2.91639C13.0586 3.77227 14.0405 4.71899 14.9344 5.74576C16.5 7.55889 18.375 10.377 18.375 13.4998C18.3733 15.19 17.7011 16.8105 16.5059 18.0057C15.3107 19.2009 13.6902 19.8731 12 19.8748Z" fill="#130032"/>
</svg>
