<svg width="24" height="24" viewBox="0 0 24 24" fill="none" xmlns="http://www.w3.org/2000/svg">
<path d="M22.3908 13.7L18.8517 11.2503L22.3908 8.80063C22.5404 8.69713 22.6628 8.55887 22.7473 8.3977C22.8318 8.23654 22.8759 8.05728 22.8759 7.87531C22.8759 7.69334 22.8318 7.51409 22.7473 7.35292C22.6628 7.19176 22.5404 7.0535 22.3908 6.95L17.5158 3.575C17.3276 3.44477 17.1043 3.375 16.8755 3.375C16.6466 3.375 16.4233 3.44477 16.2351 3.575L12.0005 6.5075L7.76576 3.575C7.57763 3.44477 7.35426 3.375 7.12545 3.375C6.89664 3.375 6.67327 3.44477 6.48514 3.575L1.61014 6.95C1.46047 7.0535 1.33814 7.19176 1.25364 7.35292C1.16914 7.51409 1.125 7.69334 1.125 7.87531C1.125 8.05728 1.16914 8.23654 1.25364 8.3977C1.33814 8.55887 1.46047 8.69713 1.61014 8.80063L5.1492 11.2503L1.61014 13.7C1.46047 13.8035 1.33814 13.9418 1.25364 14.1029C1.16914 14.2641 1.125 14.4433 1.125 14.6253C1.125 14.8073 1.16914 14.9865 1.25364 15.1477C1.33814 15.3089 1.46047 15.4471 1.61014 15.5506L6.48514 18.9256C6.67327 19.0559 6.89664 19.1256 7.12545 19.1256C7.35426 19.1256 7.57763 19.0559 7.76576 18.9256L12.0005 15.9931L16.2351 18.9256C16.4233 19.0559 16.6466 19.1256 16.8755 19.1256C17.1043 19.1256 17.3276 19.0559 17.5158 18.9256L22.3908 15.5506C22.5404 15.4471 22.6628 15.3089 22.7473 15.1477C22.8318 14.9865 22.8759 14.8073 22.8759 14.6253C22.8759 14.4433 22.8318 14.2641 22.7473 14.1029C22.6628 13.9418 22.5404 13.8035 22.3908 13.7ZM12.0005 13.2575L9.1017 11.2503L12.0005 9.24312L14.8992 11.2503L12.0005 13.2575ZM16.8755 5.86906L19.7742 7.87531L16.8755 9.88156L13.9767 7.87531L16.8755 5.86906ZM7.12545 5.86906L10.0242 7.87531L7.12545 9.88156L4.2267 7.87531L7.12545 5.86906ZM7.12545 16.6316L4.2267 14.6253L7.12545 12.6191L10.0242 14.6253L7.12545 16.6316ZM16.8755 16.6316L13.9767 14.6253L16.8755 12.6191L19.7742 14.6253L16.8755 16.6316ZM14.5064 19.64C14.6767 19.8849 14.7427 20.1875 14.6899 20.481C14.6372 20.7746 14.47 21.0353 14.2251 21.2056L12.6445 22.3006C12.4564 22.4309 12.233 22.5006 12.0042 22.5006C11.7754 22.5006 11.552 22.4309 11.3639 22.3006L9.78326 21.2056C9.65748 21.1234 9.54944 21.0169 9.4655 20.8923C9.38157 20.7677 9.32345 20.6275 9.29457 20.4801C9.26569 20.3326 9.26663 20.1809 9.29735 20.0338C9.32807 19.8867 9.38794 19.7473 9.47342 19.6237C9.5589 19.5002 9.66827 19.395 9.79506 19.3144C9.92186 19.2338 10.0635 19.1794 10.2117 19.1545C10.3598 19.1295 10.5115 19.1345 10.6577 19.1691C10.8039 19.2037 10.9417 19.2672 11.063 19.3559L12.0005 20.0066L12.938 19.3559C13.0595 19.2713 13.1965 19.2116 13.3412 19.18C13.4859 19.1485 13.6354 19.1459 13.7812 19.1723C13.9269 19.1987 14.066 19.2536 14.1904 19.3338C14.3149 19.4141 14.4222 19.5181 14.5064 19.64Z" fill="#130032"/>
</svg>
