<svg width="24" height="24" viewBox="0 0 24 24" fill="none" xmlns="http://www.w3.org/2000/svg">
<path d="M12.645 0.578263C12.4559 0.445961 12.2308 0.375 12 0.375C11.7692 0.375 11.5441 0.445961 11.355 0.578263C9.90537 1.64661 8.57909 2.8729 7.40063 4.23451C4.76719 7.25889 3.375 10.4651 3.375 13.4998C3.375 15.7873 4.2837 17.9811 5.9012 19.5986C7.51871 21.2161 9.71251 22.1248 12 22.1248C14.2875 22.1248 16.4813 21.2161 18.0988 19.5986C19.7163 17.9811 20.625 15.7873 20.625 13.4998C20.625 6.24732 12.9713 0.806075 12.645 0.578263ZM18.195 14.9998H13.125V13.4998H18.375C18.3747 14.0052 18.3142 14.5087 18.195 14.9998ZM13.125 11.2498V9.74982H17.5312C17.7455 10.236 17.9235 10.7374 18.0637 11.2498H13.125ZM14.9344 5.74576C15.4183 6.30303 15.8685 6.88876 16.2825 7.49982H13.125V3.8867C13.7629 4.47159 14.367 5.09228 14.9344 5.74576ZM5.625 13.4998C5.625 10.377 7.5 7.55889 9.06562 5.74576C9.63302 5.09228 10.2371 4.47159 10.875 3.8867V19.7736C9.40385 19.508 8.07256 18.7345 7.11316 17.588C6.15377 16.4416 5.62712 14.9948 5.625 13.4998ZM13.125 19.7736V17.2498H17.1506C16.1841 18.5784 14.7419 19.4825 13.125 19.7736Z" fill="#130032"/>
</svg>
