<svg width="24" height="24" viewBox="0 0 24 24" fill="none" xmlns="http://www.w3.org/2000/svg">
<path d="M12.645 0.578263C12.4559 0.445961 12.2308 0.375 12 0.375C11.7692 0.375 11.5441 0.445961 11.355 0.578263C9.90537 1.64661 8.57909 2.8729 7.40063 4.23451C4.76719 7.25889 3.375 10.4651 3.375 13.4998C3.375 15.7873 4.2837 17.9811 5.9012 19.5986C7.51871 21.2161 9.71251 22.1248 12 22.1248C14.2875 22.1248 16.4813 21.2161 18.0988 19.5986C19.7163 17.9811 20.625 15.7873 20.625 13.4998C20.625 6.24732 12.9713 0.806075 12.645 0.578263ZM17.9634 15.7498H6.03656C5.85356 15.2667 5.73076 14.7629 5.67094 14.2498H18.3272C18.268 14.7629 18.1458 15.2667 17.9634 15.7498ZM9.06562 5.74576C9.9595 4.71899 10.9414 3.77227 12 2.91639C13.0586 3.77227 14.0405 4.71899 14.9344 5.74576C16.2469 7.26357 17.7722 9.48545 18.2344 11.9998H5.76562C6.22781 9.48545 7.75219 7.26357 9.06562 5.74576ZM12 19.8748C11.1615 19.8754 10.3312 19.71 9.55698 19.3882C8.78272 19.0664 8.07981 18.5945 7.48875 17.9998H16.5112C15.9202 18.5945 15.2173 19.0664 14.443 19.3882C13.6688 19.71 12.8385 19.8754 12 19.8748Z" fill="#130032"/>
</svg>
