<svg width="24" height="24" viewBox="0 0 24 24" fill="none" xmlns="http://www.w3.org/2000/svg">
<path d="M20.332 19.4931C20.4335 19.6021 20.5123 19.7301 20.5639 19.8697C20.6155 20.0094 20.6388 20.1579 20.6326 20.3066C20.6264 20.4554 20.5907 20.6014 20.5277 20.7362C20.4646 20.8711 20.3754 20.9921 20.2652 21.0922C20.1551 21.1923 20.0261 21.2696 19.8859 21.3195C19.7456 21.3694 19.5968 21.391 19.4482 21.383C19.2995 21.375 19.1539 21.3376 19.0198 21.2729C18.8858 21.2083 18.7658 21.1176 18.667 21.0062L15.5405 17.5675C15.3626 17.605 15.1813 17.6241 14.9995 17.6247C14.3034 17.6247 13.6357 17.3481 13.1434 16.8558C12.6511 16.3635 12.3745 15.6959 12.3745 14.9997C12.3744 14.7221 12.401 14.4452 12.4542 14.1728L9.10079 10.4837C8.95084 10.6573 8.75142 10.7809 8.52926 10.8379C8.30711 10.8949 8.07283 10.8827 7.85782 10.8028C7.64281 10.723 7.45735 10.5793 7.3263 10.3911C7.19524 10.2028 7.12484 9.97904 7.12454 9.74968C7.12411 9.32463 7.17926 8.90136 7.28861 8.49061L6.14204 7.22874C5.7992 8.0249 5.62308 8.88284 5.62454 9.74968C5.62454 12.0934 6.33517 12.7778 7.15736 13.5709C7.97954 14.3641 8.99954 15.3475 8.99954 17.6247C8.99954 18.4203 9.31561 19.1834 9.87822 19.746C10.4408 20.3086 11.2039 20.6247 11.9995 20.6247C12.8433 20.6247 13.5174 20.2778 14.1324 19.5334C14.3245 19.3108 14.5963 19.1722 14.8894 19.1475C15.1825 19.1228 15.4736 19.2138 15.7004 19.4011C15.9272 19.5884 16.0716 19.8571 16.1027 20.1496C16.1338 20.4421 16.0491 20.7351 15.8667 20.9659C14.8205 22.2325 13.5192 22.8747 11.9995 22.8747C10.6076 22.8732 9.27312 22.3196 8.28888 21.3353C7.30463 20.3511 6.75103 19.0166 6.74954 17.6247C6.74954 16.3037 6.31548 15.8847 5.59548 15.1872C4.60548 14.2366 3.37454 13.0487 3.37454 9.74968C3.37126 8.23973 3.76748 6.75578 4.52298 5.44843L3.66704 4.51093C3.56738 4.4016 3.49023 4.27372 3.43999 4.13457C3.38976 3.99543 3.36742 3.84776 3.37425 3.69998C3.38108 3.55221 3.41696 3.40722 3.47982 3.27331C3.54269 3.1394 3.63131 3.01918 3.74064 2.91952C3.84996 2.81986 3.97785 2.74271 4.11699 2.69247C4.25613 2.64223 4.40381 2.61989 4.55158 2.62673C4.69936 2.63356 4.84434 2.66943 4.97825 2.7323C5.11216 2.79516 5.23238 2.88379 5.33204 2.99311L20.332 19.4931ZM9.31267 3.96624C10.154 3.57407 11.0713 3.37209 11.9995 3.37468C13.6898 3.37641 15.3103 4.04862 16.5054 5.24379C17.7006 6.43896 18.3728 8.05945 18.3745 9.74968C18.3745 10.048 18.4931 10.3342 18.704 10.5452C18.915 10.7562 19.2012 10.8747 19.4995 10.8747C19.7979 10.8747 20.0841 10.7562 20.295 10.5452C20.506 10.3342 20.6245 10.048 20.6245 9.74968C20.6248 8.3001 20.2597 6.87383 19.563 5.60265C18.8663 4.33148 17.8605 3.2564 16.6384 2.47676C15.4163 1.69712 14.0175 1.23806 12.5711 1.14201C11.1247 1.04595 9.67741 1.31599 8.36298 1.92718C8.09968 2.05746 7.89778 2.28556 7.80044 2.56274C7.7031 2.83992 7.71804 3.14417 7.84207 3.41048C7.9661 3.67678 8.18938 3.88401 8.46418 3.98786C8.73899 4.09171 9.04351 4.08395 9.31267 3.96624ZM15.4149 11.56C15.4984 11.5801 15.584 11.5901 15.6699 11.59C15.9239 11.5898 16.1704 11.5036 16.3692 11.3454C16.568 11.1873 16.7075 10.9665 16.7649 10.7191C16.8385 10.4012 16.8753 10.0759 16.8745 9.74968C16.8731 8.4572 16.359 7.21809 15.445 6.30418C14.5311 5.39026 13.292 4.87617 11.9995 4.87468C11.8402 4.87468 11.6789 4.88218 11.5205 4.89811C11.2235 4.92708 10.9502 5.07284 10.7606 5.30334C10.5711 5.53383 10.4809 5.83018 10.5099 6.12718C10.5388 6.42418 10.6846 6.69751 10.9151 6.88704C11.1456 7.07657 11.4419 7.16677 11.7389 7.1378C11.8252 7.12936 11.9133 7.12468 11.9995 7.12468C12.6957 7.12468 13.3634 7.40124 13.8557 7.89352C14.348 8.3858 14.6245 9.05348 14.6245 9.74968C14.6251 9.9036 14.6081 10.0571 14.5739 10.2072C14.5065 10.4977 14.5572 10.8031 14.7149 11.0563C14.8726 11.3094 15.1244 11.4896 15.4149 11.5572V11.56Z" fill="#130032"/>
</svg>
