<svg width="24" height="24" viewBox="0 0 24 24" fill="none" xmlns="http://www.w3.org/2000/svg">
<path d="M17.8125 5.37563C16.0369 2.71875 13.8637 1.125 12 1.125C10.1363 1.125 7.96313 2.71875 6.1875 5.37563C4.40062 8.0625 3.375 11.2931 3.375 14.25C3.375 16.5375 4.2837 18.7313 5.9012 20.3488C7.51871 21.9663 9.71251 22.875 12 22.875C14.2875 22.875 16.4813 21.9663 18.0988 20.3488C19.7163 18.7313 20.625 16.5375 20.625 14.25C20.625 11.2931 19.5994 8.0625 17.8125 5.37563ZM12 20.625C10.3098 20.6233 8.68928 19.9511 7.49411 18.7559C6.29894 17.5607 5.62674 15.9402 5.625 14.25C5.625 8.52 9.95531 3.375 12 3.375C12.7116 3.375 13.6997 3.99844 14.685 5.05125L11.1609 9C11.032 9.14423 10.9425 9.31926 10.9009 9.5082C10.8594 9.69714 10.8673 9.8936 10.9238 10.0786C10.9804 10.2636 11.0837 10.4309 11.2237 10.5643C11.3638 10.6978 11.5359 10.7928 11.7234 10.8403L13.6828 11.3306L13.1428 14.0287C13.1139 14.1737 13.1137 14.3229 13.1424 14.4678C13.1711 14.6128 13.2281 14.7506 13.3101 14.8736C13.3922 14.9965 13.4976 15.1021 13.6204 15.1842C13.7432 15.2664 13.881 15.3236 14.0259 15.3525C14.0997 15.3676 14.1747 15.3751 14.25 15.375C14.51 15.3748 14.7619 15.2846 14.9629 15.1197C15.1639 14.9547 15.3016 14.7253 15.3525 14.4703L16.1025 10.7203C16.1593 10.4367 16.1047 10.1421 15.95 9.89771C15.7954 9.6533 15.5525 9.47786 15.2719 9.40781L14.0775 9.10875L16.0837 6.85875C17.3625 8.84438 18.375 11.4788 18.375 14.25C18.3733 15.9402 17.7011 17.5607 16.5059 18.7559C15.3107 19.9511 13.6902 20.6233 12 20.625Z" fill="#130032"/>
</svg>
