<svg width="24" height="24" viewBox="0 0 24 24" fill="none" xmlns="http://www.w3.org/2000/svg">
<path d="M17.8125 5.37563C16.0369 2.71875 13.8637 1.125 12 1.125C10.1363 1.125 7.96313 2.71875 6.1875 5.37563C4.40062 8.0625 3.375 11.2931 3.375 14.25C3.375 16.5375 4.2837 18.7313 5.9012 20.3488C7.51871 21.9663 9.71251 22.875 12 22.875C14.2875 22.875 16.4813 21.9663 18.0988 20.3488C19.7163 18.7313 20.625 16.5375 20.625 14.25C20.625 11.2931 19.5994 8.0625 17.8125 5.37563ZM12 20.625C10.3098 20.6233 8.68928 19.9511 7.49411 18.7559C6.29894 17.5607 5.62674 15.9402 5.625 14.25C5.625 8.52 9.95531 3.375 12 3.375C14.0447 3.375 18.375 8.52 18.375 14.25C18.3733 15.9402 17.7011 17.5607 16.5059 18.7559C15.3107 19.9511 13.6902 20.6233 12 20.625Z" fill="#130032"/>
</svg>
