<svg width="24" height="24" viewBox="0 0 24 24" fill="none" xmlns="http://www.w3.org/2000/svg">
<path d="M19.5 14.25H4.5C4.00272 14.25 3.52581 14.4475 3.17417 14.7991C2.82254 15.1508 2.625 15.6277 2.625 16.125V18C2.625 18.4973 2.82254 18.9742 3.17417 19.3258C3.52581 19.6774 4.00272 19.875 4.5 19.875H19.5C19.9973 19.875 20.4742 19.6774 20.8258 19.3258C21.1775 18.9742 21.375 18.4973 21.375 18V16.125C21.375 15.6277 21.1775 15.1508 20.8258 14.7991C20.4742 14.4475 19.9973 14.25 19.5 14.25ZM19.125 17.625H4.875V16.5H19.125V17.625ZM4.52531 12.75H19.4747C19.847 12.7496 20.211 12.6399 20.5215 12.4344C20.832 12.229 21.0753 11.9369 21.2211 11.5944C21.367 11.2518 21.4091 10.874 21.3421 10.5078C21.2752 10.1415 21.1021 9.80306 20.8444 9.53435L13.9294 2.3231C13.6799 2.06289 13.3804 1.85582 13.0488 1.71437C12.7172 1.57292 12.3605 1.5 12 1.5C11.6395 1.5 11.2828 1.57292 10.9512 1.71437C10.6196 1.85582 10.3201 2.06289 10.0706 2.3231L3.15562 9.53435C2.89793 9.80306 2.72485 10.1415 2.65787 10.5078C2.59088 10.874 2.63295 11.2518 2.77885 11.5944C2.92475 11.9369 3.16805 12.229 3.47853 12.4344C3.78902 12.6399 4.15301 12.7496 4.52531 12.75ZM11.6953 3.88029C11.7346 3.83905 11.7819 3.80622 11.8343 3.78378C11.8866 3.76135 11.943 3.74979 12 3.74979C12.057 3.74979 12.1134 3.76135 12.1657 3.78378C12.2181 3.80622 12.2654 3.83905 12.3047 3.88029L18.6562 10.5H5.34375L11.6953 3.88029Z" fill="#130032"/>
</svg>
