<svg width="24" height="24" viewBox="0 0 24 24" fill="none" xmlns="http://www.w3.org/2000/svg">
<path d="M22.125 9.375H21.0938L17.8903 6.17438C17.7167 5.99967 17.5101 5.86115 17.2826 5.76685C17.055 5.67255 16.811 5.62433 16.5647 5.625H13.5V4.125H15.375C15.6734 4.125 15.9595 4.00647 16.1705 3.7955C16.3815 3.58452 16.5 3.29837 16.5 3C16.5 2.70163 16.3815 2.41548 16.1705 2.2045C15.9595 1.99353 15.6734 1.875 15.375 1.875H9.375C9.07663 1.875 8.79048 1.99353 8.5795 2.2045C8.36853 2.41548 8.25 2.70163 8.25 3C8.25 3.29837 8.36853 3.58452 8.5795 3.7955C8.79048 4.00647 9.07663 4.125 9.375 4.125H11.25V5.625H6C5.50272 5.625 5.02581 5.82254 4.67417 6.17417C4.32254 6.52581 4.125 7.00272 4.125 7.5V12H2.625V10.125C2.625 9.82663 2.50647 9.54048 2.2955 9.3295C2.08452 9.11853 1.79837 9 1.5 9C1.20163 9 0.915483 9.11853 0.704505 9.3295C0.493526 9.54048 0.375 9.82663 0.375 10.125V16.125C0.375 16.4234 0.493526 16.7095 0.704505 16.9205C0.915483 17.1315 1.20163 17.25 1.5 17.25C1.79837 17.25 2.08452 17.1315 2.2955 16.9205C2.50647 16.7095 2.625 16.4234 2.625 16.125V14.25H4.125V15.8147C4.12433 16.061 4.17255 16.305 4.26685 16.5326C4.36115 16.7601 4.49967 16.9667 4.67438 17.1403L8.35969 20.8256C8.53332 21.0003 8.7399 21.1388 8.96745 21.2332C9.195 21.3275 9.439 21.3757 9.68531 21.375H16.5647C16.811 21.3757 17.055 21.3275 17.2826 21.2332C17.5101 21.1388 17.7167 21.0003 17.8903 20.8256L21.0938 17.625H22.125C22.6223 17.625 23.0992 17.4275 23.4508 17.0758C23.8025 16.7242 24 16.2473 24 15.75V11.25C24 10.7527 23.8025 10.2758 23.4508 9.92418C23.0992 9.57254 22.6223 9.375 22.125 9.375ZM21.75 15.375H20.625C20.4772 15.3749 20.3309 15.4039 20.1943 15.4603C20.0577 15.5168 19.9336 15.5996 19.8291 15.7041L16.4062 19.125H9.84375L6.375 15.6562V7.875H16.4062L19.8263 11.2959C19.9311 11.4007 20.0557 11.4837 20.1928 11.5402C20.3299 11.5967 20.4767 11.6255 20.625 11.625H21.75V15.375Z" fill="#130032"/>
</svg>
