<svg width="24" height="24" viewBox="0 0 24 24" fill="none" xmlns="http://www.w3.org/2000/svg">
<path d="M21.6244 8.06221L12.6244 2.06222C12.4395 1.93887 12.2222 1.87305 12 1.87305C11.7778 1.87305 11.5605 1.93887 11.3756 2.06222L2.37563 8.06221C2.22138 8.16512 2.09497 8.30456 2.00763 8.46812C1.92029 8.63168 1.87473 8.81429 1.875 8.99971V18.7497C1.875 19.247 2.07255 19.7239 2.42418 20.0755C2.77581 20.4272 3.25272 20.6247 3.75 20.6247H20.25C20.7473 20.6247 21.2242 20.4272 21.5758 20.0755C21.9275 19.7239 22.125 19.247 22.125 18.7497V8.99971C22.1253 8.81429 22.0797 8.63168 21.9924 8.46812C21.905 8.30456 21.7786 8.16512 21.6244 8.06221ZM8.41969 14.2497L4.125 17.2788V11.185L8.41969 14.2497ZM10.7213 15.3747H13.2788L17.5313 18.3747H6.47344L10.7213 15.3747ZM15.5803 14.2497L19.875 11.1832V17.2769L15.5803 14.2497ZM12 4.35159L19.0181 9.03065L13.2759 13.1247H10.7241L4.98188 9.03065L12 4.35159Z" fill="#130032"/>
</svg>
