<svg width="24" height="24" viewBox="0 0 24 24" fill="none" xmlns="http://www.w3.org/2000/svg">
<path d="M20.2501 19.1242H13.2189L21.3601 10.9829C21.6039 10.7392 21.7973 10.4498 21.9292 10.1313C22.0612 9.81278 22.1291 9.47142 22.1291 9.12667C22.1291 8.78193 22.0612 8.44057 21.9292 8.12207C21.7973 7.80357 21.6039 7.51418 21.3601 7.27042L17.478 3.39199C17.2342 3.1482 16.9448 2.95482 16.6263 2.82289C16.3078 2.69095 15.9665 2.62305 15.6217 2.62305C15.277 2.62305 14.9356 2.69095 14.6171 2.82289C14.2986 2.95482 14.0092 3.1482 13.7655 3.39199L2.64296 14.5135C2.39918 14.7573 2.2058 15.0467 2.07387 15.3652C1.94193 15.6837 1.87402 16.0251 1.87402 16.3698C1.87402 16.7145 1.94193 17.0559 2.07387 17.3744C2.2058 17.6929 2.39918 17.9823 2.64296 18.226L5.46109 21.0451C5.56564 21.1496 5.68975 21.2324 5.82632 21.2888C5.96289 21.3453 6.10924 21.3743 6.25702 21.3742H20.2501C20.5485 21.3742 20.8347 21.2556 21.0456 21.0447C21.2566 20.8337 21.3751 20.5475 21.3751 20.2492C21.3751 19.9508 21.2566 19.6647 21.0456 19.4537C20.8347 19.2427 20.5485 19.1242 20.2501 19.1242ZM15.3564 4.98292C15.3912 4.94806 15.4326 4.9204 15.4781 4.90153C15.5236 4.88265 15.5724 4.87294 15.6217 4.87294C15.671 4.87294 15.7198 4.88265 15.7653 4.90153C15.8108 4.9204 15.8522 4.94806 15.887 4.98292L19.7664 8.8623C19.8365 8.9326 19.8759 9.02784 19.8759 9.12714C19.8759 9.22644 19.8365 9.32169 19.7664 9.39199L15.0001 14.1554L10.5939 9.74917L15.3564 4.98292ZM6.72296 19.1242L4.2339 16.6351C4.16377 16.5648 4.12439 16.4696 4.12439 16.3703C4.12439 16.271 4.16377 16.1757 4.2339 16.1054L9.00015 11.3429L13.4064 15.7492L10.0314 19.1242H6.72296Z" fill="#130032"/>
</svg>
