<svg width="24" height="24" viewBox="0 0 24 24" fill="none" xmlns="http://www.w3.org/2000/svg">
<path d="M16.6875 7.31249C16.3857 5.93162 15.7177 4.65744 14.7538 3.62365C13.7898 2.58986 12.5654 1.83457 11.209 1.43703C9.85259 1.03948 8.41417 1.01434 7.04469 1.36425C5.67521 1.71415 4.42515 2.4262 3.42567 3.42567C2.4262 4.42515 1.71415 5.67521 1.36425 7.04469C1.01434 8.41417 1.03948 9.85259 1.43703 11.209C1.83457 12.5654 2.58986 13.7898 3.62365 14.7538C4.65744 15.7177 5.93162 16.3857 7.31249 16.6875C7.61433 18.0684 8.28226 19.3425 9.24621 20.3763C10.2101 21.4101 11.4346 22.1654 12.791 22.563C14.1474 22.9605 15.5858 22.9856 16.9553 22.6357C18.3248 22.2858 19.5748 21.5738 20.5743 20.5743C21.5738 19.5748 22.2858 18.3248 22.6357 16.9553C22.9856 15.5858 22.9605 14.1474 22.563 12.791C22.1654 11.4346 21.4101 10.2101 20.3763 9.24621C19.3425 8.28226 18.0684 7.61433 16.6875 7.31249ZM20.625 15C20.6245 15.2083 20.6126 15.4164 20.5894 15.6234L16.4644 11.4984C16.6608 10.9111 16.7867 10.3024 16.8394 9.68531C17.9439 10.0688 18.9017 10.7865 19.58 11.7388C20.2583 12.6911 20.6235 13.8308 20.625 15ZM9.38999 14.61C9.48572 13.2572 10.0664 11.9844 11.0254 11.0254C11.9844 10.0664 13.2572 9.48572 14.61 9.38999C14.5143 10.7428 13.9336 12.0156 12.9746 12.9746C12.0156 13.9336 10.7428 14.5143 9.38999 14.61ZM14.3128 7.15687C13.6957 7.20954 13.0871 7.33542 12.4997 7.53187L8.37468 3.40687C8.58238 3.38479 8.79113 3.37415 8.99999 3.37499C10.1684 3.37658 11.3074 3.74143 12.2593 4.41901C13.2111 5.09659 13.9288 6.05337 14.3128 7.15687ZM6.01781 4.23374L10.3987 8.61468C9.71431 9.11024 9.11305 9.7115 8.61749 10.3959L4.23374 6.01781C4.68682 5.29661 5.29661 4.68682 6.01781 4.23374ZM3.37499 8.99999C3.37546 8.79169 3.38735 8.58356 3.41062 8.37656L7.53562 12.5016C7.33917 13.0889 7.21329 13.6976 7.16062 14.3147C6.05612 13.9312 5.09831 13.2135 4.41999 12.2612C3.74168 11.3089 3.37646 10.1692 3.37499 8.99999ZM9.68718 16.8431C10.3043 16.7905 10.9129 16.6646 11.5003 16.4681L15.6253 20.5931C15.4176 20.6152 15.2089 20.6258 15 20.625C13.8316 20.6234 12.6926 20.2586 11.7407 19.581C10.7888 18.9034 10.0712 17.9466 9.68718 16.8431ZM17.9822 19.7662L13.6012 15.3853C14.2857 14.8898 14.8869 14.2885 15.3825 13.6041L19.7634 17.985C19.3108 18.7049 18.702 19.3136 17.9822 19.7662Z" fill="#130032"/>
</svg>
