<svg width="24" height="24" viewBox="0 0 24 24" fill="none" xmlns="http://www.w3.org/2000/svg">
<path d="M20.625 10.5009V19.5009C20.625 19.9982 20.4275 20.4751 20.0758 20.8267C19.7242 21.1783 19.2473 21.3759 18.75 21.3759H5.25C4.75272 21.3759 4.27581 21.1783 3.92417 20.8267C3.57254 20.4751 3.375 19.9982 3.375 19.5009V10.5009C3.375 10.0036 3.57254 9.52669 3.92417 9.17506C4.27581 8.82343 4.75272 8.62589 5.25 8.62589H7.125C7.42337 8.62589 7.70952 8.74441 7.9205 8.95539C8.13147 9.16637 8.25 9.45252 8.25 9.75089C8.25 10.0493 8.13147 10.3354 7.9205 10.5464C7.70952 10.7574 7.42337 10.8759 7.125 10.8759H5.625V19.1259H18.375V10.8759H16.875C16.5766 10.8759 16.2905 10.7574 16.0795 10.5464C15.8685 10.3354 15.75 10.0493 15.75 9.75089C15.75 9.45252 15.8685 9.16637 16.0795 8.95539C16.2905 8.74441 16.5766 8.62589 16.875 8.62589H18.75C19.2473 8.62589 19.7242 8.82343 20.0758 9.17506C20.4275 9.52669 20.625 10.0036 20.625 10.5009ZM9.04594 6.79682L10.875 4.96964V12.7509C10.875 13.0493 10.9935 13.3354 11.2045 13.5464C11.4155 13.7574 11.7016 13.8759 12 13.8759C12.2984 13.8759 12.5845 13.7574 12.7955 13.5464C13.0065 13.3354 13.125 13.0493 13.125 12.7509V4.96964L14.9541 6.79964C15.0587 6.90428 15.1829 6.98729 15.3197 7.04393C15.4564 7.10056 15.6029 7.12971 15.7509 7.12971C15.8989 7.12971 16.0455 7.10056 16.1822 7.04393C16.3189 6.98729 16.4432 6.90428 16.5478 6.79964C16.6525 6.69499 16.7355 6.57076 16.7921 6.43403C16.8487 6.2973 16.8779 6.15075 16.8779 6.00276C16.8779 5.85477 16.8487 5.70822 16.7921 5.5715C16.7355 5.43477 16.6525 5.31053 16.5478 5.20589L12.7978 1.45589C12.6933 1.35101 12.5691 1.26779 12.4324 1.21101C12.2956 1.15423 12.149 1.125 12.0009 1.125C11.8529 1.125 11.7063 1.15423 11.5695 1.21101C11.4328 1.26779 11.3086 1.35101 11.2041 1.45589L7.45406 5.20589C7.34942 5.31053 7.2664 5.43477 7.20977 5.5715C7.15314 5.70822 7.12399 5.85477 7.12399 6.00276C7.12399 6.30165 7.24272 6.58829 7.45406 6.79964C7.66541 7.01098 7.95205 7.12971 8.25094 7.12971C8.54982 7.12971 8.83647 7.01098 9.04781 6.79964L9.04594 6.79682Z" fill="#130032"/>
</svg>
