<svg width="24" height="24" viewBox="0 0 24 24" fill="none" xmlns="http://www.w3.org/2000/svg">
<path d="M5.33262 2.99365C5.23383 2.88229 5.11391 2.79164 4.97982 2.72696C4.84574 2.66228 4.70014 2.62486 4.55149 2.61686C4.40283 2.60886 4.25406 2.63045 4.11381 2.68037C3.97356 2.73029 3.84461 2.80755 3.73444 2.90767C3.62426 3.0078 3.53506 3.12879 3.47199 3.26365C3.40892 3.3985 3.37325 3.54453 3.36703 3.69327C3.36082 3.84201 3.38419 3.99051 3.43579 4.13016C3.48738 4.2698 3.56619 4.39781 3.66762 4.50678L5.16762 6.16147C1.93794 8.31209 0.536374 11.3983 0.468874 11.5437C0.405361 11.6876 0.372559 11.8433 0.372559 12.0007C0.372559 12.1581 0.405361 12.3137 0.468874 12.4577C0.503561 12.5346 1.32481 14.3571 3.13981 16.1712C5.56606 18.5946 8.62512 19.8752 12.0001 19.8752C13.6404 19.8843 15.266 19.5656 16.7814 18.9377L18.6648 21.0096C18.8665 21.2263 19.1455 21.3547 19.4413 21.3671C19.7371 21.3794 20.0258 21.2747 20.2449 21.0756C20.4639 20.8765 20.5957 20.5991 20.6116 20.3035C20.6275 20.0079 20.5263 19.7179 20.3298 19.4965L5.33262 2.99365ZM12.0001 17.6252C9.22606 17.6252 6.79981 16.6193 4.78981 14.6365C3.99917 13.8536 3.31886 12.9667 2.76762 12.0002C3.26169 11.1274 4.52919 9.19709 6.70512 7.84803L15.1511 17.1396C14.1325 17.4648 13.0693 17.6287 12.0001 17.6252ZM23.5314 12.4577C23.4976 12.5337 22.6876 14.3327 20.9064 16.129C20.8044 16.2422 20.6804 16.3335 20.5421 16.3974C20.4037 16.4613 20.2538 16.4964 20.1015 16.5005C19.9492 16.5047 19.7976 16.4779 19.6559 16.4218C19.5142 16.3656 19.3855 16.2812 19.2774 16.1738C19.1693 16.0664 19.0842 15.9381 19.0272 15.7968C18.9702 15.6554 18.9425 15.504 18.9458 15.3516C18.9491 15.1993 18.9833 15.0492 19.0464 14.9105C19.1094 14.7717 19.2 14.6473 19.3126 14.5446C20.0609 13.7838 20.7063 12.9285 21.2326 12.0002C20.6817 11.0335 20.0014 10.1466 19.2104 9.36397C17.1995 7.38115 14.7742 6.37522 12.0001 6.37522C11.6861 6.37522 11.372 6.38834 11.0626 6.41459C10.9135 6.43056 10.7628 6.41657 10.6192 6.37344C10.4756 6.33031 10.342 6.2589 10.2264 6.16342C10.1108 6.06794 10.0154 5.95032 9.94594 5.81746C9.87644 5.6846 9.8342 5.53919 9.8217 5.38977C9.8092 5.24035 9.8267 5.08994 9.87316 4.94738C9.91963 4.80482 9.99412 4.67299 10.0923 4.55963C10.1904 4.44627 10.3102 4.35367 10.4447 4.28728C10.5791 4.22089 10.7255 4.18205 10.8751 4.17303C11.2436 4.14115 11.6251 4.12522 12.0001 4.12522C15.3751 4.12522 18.4342 5.40678 20.8586 7.83022C22.6726 9.64428 23.4939 11.4677 23.5286 11.5437C23.5925 11.6875 23.6258 11.843 23.6263 12.0004C23.6268 12.1578 23.5944 12.3135 23.5314 12.4577Z" fill="#130032"/>
</svg>
