<svg width="24" height="24" viewBox="0 0 24 24" fill="none" xmlns="http://www.w3.org/2000/svg">
<path d="M21.3751 6.30284C21.3695 5.80119 21.2628 5.30582 21.0613 4.8464C20.8597 4.38697 20.5676 3.97294 20.2023 3.62909C18.7416 2.24909 16.3791 2.29597 14.9335 3.74253L13.3576 5.32784C12.8522 4.98113 12.2415 4.82217 11.6312 4.8785C11.021 4.93484 10.4497 5.20292 10.0163 5.63628L9.17258 6.48003C8.83378 6.81938 8.63788 7.27564 8.62515 7.755C8.61242 8.23435 8.78383 8.70037 9.10414 9.05722L4.58445 13.5778C4.09431 14.0647 3.73507 14.6675 3.54004 15.3303C3.34501 15.993 3.32051 16.6943 3.46883 17.3691L2.7657 18.9807C2.63069 19.2869 2.59165 19.6269 2.65374 19.9557C2.71584 20.2846 2.87614 20.5869 3.11351 20.8228C3.37932 21.0906 3.72008 21.2715 4.09081 21.3416C4.46154 21.4118 4.84482 21.3678 5.19008 21.2157L6.71914 20.5472C7.38129 20.6759 8.06492 20.6399 8.70985 20.4422C9.35479 20.2446 9.94124 19.8914 10.4176 19.4138L14.9401 14.8894C15.2968 15.2092 15.7624 15.3802 16.2413 15.3675C16.7203 15.3548 17.1761 15.1592 17.5154 14.821L18.3591 13.9772C18.7926 13.5424 19.0603 12.9697 19.116 12.3583C19.1716 11.7469 19.0117 11.1353 18.6638 10.6294L20.2801 9.00378C20.635 8.65044 20.9149 8.22909 21.103 7.76498C21.2912 7.30088 21.3837 6.80357 21.3751 6.30284ZM13.3454 13.3022L12.7773 13.8741H7.47476L10.6941 10.6528L13.3454 13.3022ZM8.82664 17.8219C8.58612 18.0629 8.28452 18.2339 7.95419 18.3165C7.62386 18.3991 7.27728 18.3901 6.95164 18.2907C6.69479 18.2111 6.41789 18.2268 6.17164 18.3347L5.34383 18.691L5.68976 17.9053C5.80159 17.649 5.81396 17.3603 5.72445 17.0953C5.61901 16.7826 5.59799 16.4476 5.66351 16.1241H10.5273L8.82664 17.8219ZM18.6835 7.41566L16.3051 9.80816C16.2002 9.91267 16.117 10.0369 16.0602 10.1736C16.0034 10.3104 15.9742 10.457 15.9742 10.605C15.9742 10.7531 16.0034 10.8997 16.0602 11.0365C16.117 11.1732 16.2002 11.2974 16.3051 11.4019L16.7626 11.8594C16.7974 11.8942 16.8251 11.9356 16.844 11.9811C16.8628 12.0266 16.8726 12.0754 16.8726 12.1247C16.8726 12.174 16.8628 12.2228 16.844 12.2683C16.8251 12.3138 16.7974 12.3552 16.7626 12.39L16.187 12.9666L15.7295 12.5082L11.4891 8.26222L11.0316 7.80378L11.6073 7.22816C11.6421 7.19329 11.6834 7.16563 11.729 7.14676C11.7745 7.12789 11.8233 7.11817 11.8726 7.11817C11.9219 7.11817 11.9707 7.12789 12.0162 7.14676C12.0617 7.16563 12.1031 7.19329 12.1379 7.22816L12.5954 7.68659C12.6999 7.79103 12.824 7.87385 12.9606 7.93031C13.0972 7.98677 13.2435 8.01577 13.3913 8.01566C13.5393 8.0159 13.6858 7.98696 13.8225 7.93049C13.9593 7.87403 14.0835 7.79114 14.1882 7.68659L16.5263 5.33534C17.117 4.74472 18.0713 4.71378 18.6554 5.26597C18.8018 5.40394 18.919 5.56997 19 5.75416C19.0809 5.93836 19.124 6.13695 19.1266 6.33813C19.1292 6.53931 19.0914 6.73896 19.0152 6.92521C18.9391 7.11145 18.8263 7.28047 18.6835 7.42222V7.41566Z" fill="#130032"/>
</svg>
