<svg width="24" height="24" viewBox="0 0 24 24" fill="none" xmlns="http://www.w3.org/2000/svg">
<path d="M21.3751 6.30284C21.3695 5.80119 21.2628 5.30582 21.0613 4.8464C20.8597 4.38697 20.5676 3.97294 20.2023 3.62909C18.7416 2.24909 16.3791 2.29597 14.9335 3.74253L13.3576 5.32784C12.8522 4.98113 12.2415 4.82217 11.6312 4.8785C11.021 4.93484 10.4497 5.20292 10.0163 5.63628L9.17258 6.48003C8.83378 6.81938 8.63788 7.27564 8.62515 7.755C8.61242 8.23435 8.78383 8.70037 9.10414 9.05722L4.58445 13.5778C4.09431 14.0647 3.73507 14.6675 3.54004 15.3303C3.34501 15.993 3.32051 16.6943 3.46883 17.3691L2.7657 18.9807C2.63069 19.2869 2.59165 19.6269 2.65374 19.9557C2.71584 20.2846 2.87614 20.5869 3.11351 20.8228C3.37932 21.0906 3.72008 21.2715 4.09081 21.3416C4.46154 21.4118 4.84482 21.3678 5.19008 21.2157L6.71914 20.5472C7.38129 20.676 8.06494 20.64 8.70989 20.4423C9.35484 20.2447 9.94128 19.8915 10.4176 19.4138L14.9401 14.8894C15.2968 15.2092 15.7624 15.3802 16.2413 15.3675C16.7203 15.3548 17.1761 15.1592 17.5154 14.821L18.3591 13.9772C18.793 13.5425 19.0611 12.9697 19.1169 12.3581C19.1727 11.7464 19.0127 11.1345 18.6648 10.6285L20.2801 9.00378C20.635 8.65044 20.9149 8.22909 21.103 7.76498C21.2912 7.30088 21.3837 6.80357 21.3751 6.30284ZM8.82664 17.8219C8.58612 18.0629 8.28452 18.2339 7.95419 18.3165C7.62386 18.3991 7.27728 18.3901 6.95164 18.2907C6.69479 18.2111 6.41789 18.2268 6.17164 18.3347L5.34383 18.691L5.68976 17.9053C5.80159 17.649 5.81396 17.3603 5.72445 17.0953C5.61163 16.7642 5.59408 16.4081 5.6738 16.0674C5.75353 15.7268 5.92733 15.4154 6.17539 15.1688L10.6941 10.6482L13.3454 13.3013L8.82664 17.8219ZM18.6835 7.41566L16.3051 9.80816C16.0947 10.0191 15.9765 10.3048 15.9765 10.6027C15.9765 10.9006 16.0947 11.1863 16.3051 11.3972L16.7626 11.8557C16.7974 11.8905 16.8251 11.9318 16.844 11.9774C16.8628 12.0229 16.8726 12.0717 16.8726 12.121C16.8726 12.1703 16.8628 12.219 16.844 12.2646C16.8251 12.3101 16.7974 12.3515 16.7626 12.3863L16.187 12.9628L11.0307 7.80191L11.6063 7.22628C11.6766 7.15615 11.7719 7.11677 11.8712 7.11677C11.9705 7.11677 12.0657 7.15615 12.136 7.22628L12.5954 7.68659C12.6999 7.79103 12.824 7.87385 12.9606 7.93031C13.0972 7.98677 13.2435 8.01577 13.3913 8.01566C13.5393 8.0159 13.6858 7.98696 13.8225 7.93049C13.9593 7.87403 14.0835 7.79114 14.1882 7.68659L16.5263 5.33534C17.117 4.74472 18.0713 4.71378 18.6554 5.26597C18.8018 5.40394 18.919 5.56997 19 5.75416C19.0809 5.93836 19.124 6.13695 19.1266 6.33813C19.1292 6.53931 19.0914 6.73896 19.0152 6.92521C18.9391 7.11145 18.8263 7.28047 18.6835 7.42222V7.41566Z" fill="#130032"/>
</svg>
