<svg width="24" height="24" viewBox="0 0 24 24" fill="none" xmlns="http://www.w3.org/2000/svg">
<path d="M8.625 8.25093H15.375C15.6734 8.25093 15.9595 8.36945 16.1705 8.58043C16.3815 8.79141 16.5 9.07756 16.5 9.37593C16.5 9.67429 16.3815 9.96044 16.1705 10.1714C15.9595 10.3824 15.6734 10.5009 15.375 10.5009H8.625C8.32663 10.5009 8.04048 10.3824 7.8295 10.1714C7.61853 9.96044 7.5 9.67429 7.5 9.37593C7.5 9.07756 7.61853 8.79141 7.8295 8.58043C8.04048 8.36945 8.32663 8.25093 8.625 8.25093ZM15.375 12.0009H8.625C8.32663 12.0009 8.04048 12.1195 7.8295 12.3304C7.61853 12.5414 7.5 12.8276 7.5 13.1259C7.5 13.4243 7.61853 13.7104 7.8295 13.9214C8.04048 14.1324 8.32663 14.2509 8.625 14.2509H15.375C15.6734 14.2509 15.9595 14.1324 16.1705 13.9214C16.3815 13.7104 16.5 13.4243 16.5 13.1259C16.5 12.8276 16.3815 12.5414 16.1705 12.3304C15.9595 12.1195 15.6734 12.0009 15.375 12.0009ZM24 9.75093V12.0009C24 12.896 23.6444 13.7545 23.0115 14.3874C22.3785 15.0203 21.5201 15.3759 20.625 15.3759H20.0484C19.3716 16.8272 18.1059 18.0825 16.2919 19.0809C15.0111 19.7733 13.641 20.2859 12.2203 20.6044C12.0748 20.6331 11.9252 20.6331 11.7797 20.6044C10.359 20.2859 8.98892 19.7733 7.70813 19.0809C5.89406 18.0825 4.62844 16.8309 3.95156 15.3759H3.375C2.47989 15.3759 1.62145 15.0203 0.988515 14.3874C0.355579 13.7545 0 12.896 0 12.0009L0 9.75093C0 8.85582 0.355579 7.99738 0.988515 7.36444C1.62145 6.73151 2.47989 6.37593 3.375 6.37593H3.5625C3.76673 5.95818 4.11939 5.63159 4.55156 5.45999L11.3016 2.75999C11.7485 2.58 12.2478 2.58 12.6947 2.75999L19.4447 5.45999C19.8783 5.63081 20.2324 5.95749 20.4375 6.37593H20.625C21.5201 6.37593 22.3785 6.73151 23.0115 7.36444C23.6444 7.99738 24 8.85582 24 9.75093ZM3.38719 13.1259C3.37969 13.0022 3.375 12.8775 3.375 12.7509V8.62593C3.07663 8.62593 2.79048 8.74445 2.5795 8.95543C2.36853 9.16641 2.25 9.45256 2.25 9.75093V12.0009C2.25 12.2993 2.36853 12.5854 2.5795 12.7964C2.79048 13.0074 3.07663 13.1259 3.375 13.1259H3.38719ZM18.375 7.45499L12 4.90499L5.625 7.45499V12.7509C5.625 16.56 10.8488 18.0619 12 18.3469C13.1484 18.0656 18.375 16.5609 18.375 12.7509V7.45499ZM21.75 9.75093C21.75 9.45256 21.6315 9.16641 21.4205 8.95543C21.2095 8.74445 20.9234 8.62593 20.625 8.62593V12.7509C20.625 12.8775 20.6203 13.0022 20.6128 13.1259H20.625C20.9234 13.1259 21.2095 13.0074 21.4205 12.7964C21.6315 12.5854 21.75 12.2993 21.75 12.0009V9.75093Z" fill="#130032"/>
</svg>
