<svg width="24" height="24" viewBox="0 0 24 24" fill="none" xmlns="http://www.w3.org/2000/svg">
<path d="M12 1.875C9.99747 1.875 8.0399 2.46882 6.37486 3.58137C4.70981 4.69392 3.41206 6.27523 2.64572 8.12533C1.87939 9.97543 1.67888 12.0112 2.06955 13.9753C2.46023 15.9393 3.42454 17.7435 4.84055 19.1595C6.25656 20.5755 8.06066 21.5398 10.0247 21.9305C11.9888 22.3211 14.0246 22.1206 15.8747 21.3543C17.7248 20.5879 19.3061 19.2902 20.4186 17.6251C21.5312 15.9601 22.125 14.0025 22.125 12C22.122 9.3156 21.0543 6.74199 19.1562 4.84383C17.258 2.94567 14.6844 1.87798 12 1.875ZM12 19.875C10.4425 19.875 8.91993 19.4131 7.62489 18.5478C6.32985 17.6825 5.32049 16.4526 4.72445 15.0136C4.12841 13.5747 3.97246 11.9913 4.27632 10.4637C4.58018 8.93606 5.3302 7.53287 6.43154 6.43153C7.53288 5.3302 8.93607 4.58017 10.4637 4.27632C11.9913 3.97246 13.5747 4.12841 15.0136 4.72445C16.4526 5.32049 17.6825 6.32985 18.5478 7.62488C19.4131 8.91992 19.875 10.4425 19.875 12C19.8728 14.0879 19.0424 16.0896 17.566 17.566C16.0896 19.0424 14.0879 19.8728 12 19.875ZM18.1875 12.9994L15.9375 16.3744C15.8349 16.5291 15.6956 16.656 15.532 16.7438C15.3684 16.8316 15.1857 16.8775 15 16.8775C14.8144 16.8775 14.6316 16.8316 14.468 16.7438C14.3044 16.656 14.1651 16.5291 14.0625 16.3744L12 13.2806L9.9375 16.3744C9.83488 16.5291 9.69557 16.656 9.53199 16.7438C9.36841 16.8316 9.18565 16.8775 9 16.8775C8.81436 16.8775 8.63159 16.8316 8.46802 16.7438C8.30444 16.656 8.16512 16.5291 8.0625 16.3744L5.8125 12.9994C5.69939 12.8298 5.63446 12.6328 5.62464 12.4292C5.61482 12.2256 5.66048 12.0232 5.75675 11.8436C5.85302 11.664 5.99627 11.5139 6.17121 11.4093C6.34615 11.3048 6.5462 11.2497 6.75 11.25H10.6481L8.8125 8.49938C8.69939 8.32984 8.63446 8.13277 8.62464 7.92921C8.61482 7.72564 8.66048 7.52323 8.75675 7.3436C8.85301 7.16397 8.99627 7.01386 9.17121 6.90931C9.34615 6.80476 9.5462 6.7497 9.75 6.75H14.25C14.4538 6.7497 14.6539 6.80476 14.8288 6.90931C15.0037 7.01386 15.147 7.16397 15.2433 7.3436C15.3395 7.52323 15.3852 7.72564 15.3754 7.92921C15.3655 8.13277 15.3006 8.32984 15.1875 8.49938L13.3519 11.25H17.25C17.4538 11.2497 17.6539 11.3048 17.8288 11.4093C18.0037 11.5139 18.147 11.664 18.2433 11.8436C18.3395 12.0232 18.3852 12.2256 18.3754 12.4292C18.3655 12.6328 18.3006 12.8298 18.1875 12.9994Z" fill="#130032"/>
</svg>
