<svg width="24" height="24" viewBox="0 0 24 24" fill="none" xmlns="http://www.w3.org/2000/svg">
<path d="M22.2047 12.5616C21.9814 11.7271 21.5806 10.9508 21.0296 10.2855C20.4786 9.62024 19.7905 9.08179 19.0122 8.70696C18.234 8.33213 17.384 8.12975 16.5204 8.11367C15.6567 8.09758 14.7998 8.26817 14.0081 8.61376L15.3413 3.29157C15.3981 3.06325 15.3818 2.82288 15.2949 2.60426C15.208 2.38563 15.0547 2.19977 14.8566 2.07282C13.5453 1.24175 11.963 0.951251 10.4421 1.26237C8.92115 1.57349 7.58001 2.46201 6.70045 3.74123C5.8209 5.02046 5.4714 6.5908 5.72539 8.12231C5.97938 9.65382 6.8171 11.0273 8.06251 11.9541L2.78626 13.4606C2.55951 13.5254 2.35887 13.6599 2.21268 13.8449C2.06649 14.03 1.98215 14.2563 1.97157 14.4919C1.89243 16.0525 2.42528 17.5825 3.45679 18.7563C4.48829 19.9302 5.93706 20.6553 7.49495 20.7774C9.05283 20.8995 10.5969 20.4091 11.7987 19.4103C13.0005 18.4115 13.7653 16.9833 13.9303 15.4294L17.8678 19.245C18.0375 19.4083 18.2542 19.5143 18.4873 19.5479C18.7204 19.5816 18.9582 19.5412 19.1672 19.4325C20.38 18.804 21.3421 17.7806 21.8944 16.5313C22.4467 15.2819 22.5561 13.8815 22.2047 12.5616ZM10.875 11.9991C10.875 11.7766 10.941 11.5591 11.0646 11.3741C11.1882 11.189 11.3639 11.0449 11.5695 10.9597C11.7751 10.8746 12.0013 10.8523 12.2195 10.8957C12.4377 10.9391 12.6382 11.0462 12.7955 11.2036C12.9528 11.3609 13.06 11.5614 13.1034 11.7796C13.1468 11.9978 13.1245 12.224 13.0394 12.4296C12.9542 12.6352 12.81 12.8109 12.625 12.9345C12.44 13.0581 12.2225 13.1241 12 13.1241C11.7016 13.1241 11.4155 13.0055 11.2045 12.7946C10.9935 12.5836 10.875 12.2974 10.875 11.9991ZM11.625 3.37407C12.0732 3.37407 12.5177 3.4544 12.9375 3.61126L11.6813 8.64001C11.2011 8.68585 10.7363 8.83408 10.3183 9.07472C9.90023 9.31536 9.53862 9.64281 9.25782 10.035C8.65626 9.54645 8.22083 8.88352 8.01142 8.13738C7.80201 7.39124 7.82891 6.59855 8.08842 5.86832C8.34793 5.1381 8.8273 4.50621 9.46061 4.05956C10.0939 3.61291 10.85 3.37343 11.625 3.37407ZM9.84376 18.0084C9.31874 18.3123 8.72786 18.4842 8.12179 18.5095C7.51573 18.5348 6.91257 18.4127 6.36407 18.1536C5.81557 17.8946 5.33809 17.5063 4.9726 17.0222C4.60712 16.5381 4.36452 15.9725 4.26564 15.3741L9.25126 13.95C9.53043 14.3437 9.8908 14.673 10.3081 14.9156C10.7253 15.1582 11.1897 15.3084 11.67 15.3563C11.5827 15.9066 11.3734 16.4304 11.0574 16.8893C10.7414 17.3482 10.3267 17.7306 9.84376 18.0084ZM19.6594 15.9872C19.4352 16.3766 19.1427 16.7224 18.7959 17.0081L15.0684 13.4053C15.2696 12.9668 15.3742 12.4901 15.375 12.0075C15.3758 11.525 15.2729 11.048 15.0731 10.6088C15.797 10.3324 16.5888 10.2871 17.3395 10.479C18.0902 10.6709 18.763 11.0907 19.2655 11.6806C19.7679 12.2704 20.0753 13.0015 20.1453 13.7732C20.2153 14.5449 20.0446 15.3193 19.6566 15.99L19.6594 15.9872Z" fill="#130032"/>
</svg>
