<svg width="24" height="24" viewBox="0 0 24 24" fill="none" xmlns="http://www.w3.org/2000/svg">
<path d="M16.6097 19.4166C16.7191 19.5161 16.8078 19.6362 16.8708 19.77C16.9337 19.9039 16.9697 20.0488 16.9767 20.1965C16.9836 20.3442 16.9614 20.4919 16.9113 20.631C16.8612 20.7702 16.7842 20.8981 16.6847 21.0075C16.5851 21.1169 16.465 21.2056 16.3312 21.2686C16.1974 21.3315 16.0525 21.3675 15.9048 21.3745C15.757 21.3815 15.6094 21.3593 15.4702 21.3092C15.3311 21.2591 15.2031 21.182 15.0938 21.0825C11.5786 17.8893 6.999 16.1216 2.25 16.125C1.95163 16.125 1.66548 16.0065 1.4545 15.7955C1.24353 15.5845 1.125 15.2984 1.125 15C1.125 14.7016 1.24353 14.4155 1.4545 14.2045C1.66548 13.9935 1.95163 13.875 2.25 13.875C7.55955 13.87 12.68 15.846 16.6097 19.4166ZM9.60281 19.2291C7.2974 18.1669 4.78833 17.6195 2.25 17.625C1.95163 17.625 1.66548 17.7435 1.4545 17.9545C1.24353 18.1655 1.125 18.4516 1.125 18.75C1.125 19.0484 1.24353 19.3345 1.4545 19.5455C1.66548 19.7565 1.95163 19.875 2.25 19.875C4.46388 19.8694 6.65242 20.3461 8.66344 21.2719C8.79825 21.3376 8.94485 21.3757 9.0946 21.3839C9.24436 21.3922 9.39425 21.3704 9.53546 21.3199C9.67668 21.2693 9.80636 21.1911 9.91689 21.0897C10.0274 20.9883 10.1166 20.8659 10.1791 20.7295C10.2416 20.5932 10.2762 20.4457 10.2809 20.2958C10.2856 20.1459 10.2602 19.9966 10.2064 19.8566C10.1525 19.7166 10.0712 19.5888 9.96723 19.4808C9.86325 19.3727 9.73872 19.2864 9.60094 19.2272L9.60281 19.2291ZM22.875 15C22.875 15.2984 22.7565 15.5845 22.5455 15.7955C22.3345 16.0065 22.0484 16.125 21.75 16.125C20.7651 16.1246 19.7815 16.1998 18.8081 16.35C19.9178 17.3242 20.9402 18.3935 21.8634 19.5459C21.9613 19.6605 22.0351 19.7936 22.0806 19.9373C22.126 20.081 22.1421 20.2323 22.1279 20.3824C22.1137 20.5324 22.0695 20.678 21.998 20.8107C21.9264 20.9433 21.829 21.0602 21.7114 21.1544C21.5938 21.2486 21.4584 21.3183 21.3134 21.3592C21.1684 21.4001 21.0166 21.4115 20.8671 21.3926C20.7176 21.3738 20.5734 21.3251 20.4431 21.2494C20.3127 21.1737 20.1989 21.0727 20.1084 20.9522C17.9696 18.2702 15.2527 16.1059 12.1604 14.6207C9.06815 13.1355 5.68041 12.3679 2.25 12.375C1.95163 12.375 1.66548 12.2565 1.4545 12.0455C1.24353 11.8345 1.125 11.5484 1.125 11.25C1.125 10.9516 1.24353 10.6655 1.4545 10.4545C1.66548 10.2435 1.95163 10.125 2.25 10.125C3.63189 10.1251 5.01147 10.238 6.375 10.4625V7.5C6.375 7.32535 6.41566 7.1531 6.49377 6.99688C6.57188 6.84067 6.68528 6.70479 6.825 6.6L12.825 2.1C13.0197 1.95395 13.2566 1.875 13.5 1.875C13.7434 1.875 13.9803 1.95395 14.175 2.1L20.175 6.6C20.3147 6.70479 20.4281 6.84067 20.5062 6.99688C20.5843 7.1531 20.625 7.32535 20.625 7.5V10.1512C21 10.1353 21.375 10.125 21.75 10.125C22.0484 10.125 22.3345 10.2435 22.5455 10.4545C22.7565 10.6655 22.875 10.9516 22.875 11.25C22.875 11.5484 22.7565 11.8345 22.5455 12.0455C22.3345 12.2565 22.0484 12.375 21.75 12.375C19.3822 12.3709 17.0283 12.7363 14.7731 13.4578C15.3531 13.7922 15.9203 14.1503 16.4747 14.5322C18.199 14.095 19.9711 13.8743 21.75 13.875C22.0484 13.875 22.3345 13.9935 22.5455 14.2045C22.7565 14.4155 22.875 14.7016 22.875 15ZM14.625 10.125H12.375V11.9344C13.1144 11.6363 13.8644 11.3741 14.625 11.1478V10.125ZM8.625 10.9397C9.13031 11.0709 9.63 11.2209 10.125 11.3822V9C10.125 8.70163 10.2435 8.41548 10.4545 8.2045C10.6655 7.99353 10.9516 7.875 11.25 7.875H15.75C16.0484 7.875 16.3345 7.99353 16.5455 8.2045C16.7565 8.41548 16.875 8.70163 16.875 9V10.5938C17.375 10.4963 17.875 10.4134 18.375 10.3453V8.0625L13.5 4.40625L8.625 8.0625V10.9397Z" fill="#130032"/>
</svg>
