<svg width="24" height="24" viewBox="0 0 24 24" fill="none" xmlns="http://www.w3.org/2000/svg">
<path d="M23.1384 10.4326L14.8716 5.16671C14.5898 4.98671 14.265 4.88567 13.9308 4.87415C13.5967 4.86264 13.2657 4.94107 12.9722 5.10125C12.6788 5.26143 12.4338 5.49748 12.2627 5.78473C12.0917 6.07199 12.001 6.3999 12 6.73421V9.54671L5.12156 5.16671C4.83985 4.98671 4.51496 4.88567 4.18085 4.87415C3.84674 4.86264 3.51566 4.94107 3.22222 5.10125C2.92878 5.26143 2.68375 5.49748 2.51273 5.78473C2.3417 6.07199 2.25097 6.3999 2.25 6.73421V17.2642C2.25158 17.5983 2.34269 17.9258 2.51385 18.2127C2.68501 18.4996 2.92996 18.7353 3.22319 18.8954C3.51641 19.0555 3.84719 19.134 4.18107 19.1228C4.51495 19.1116 4.83972 19.0111 5.12156 18.8317L12 14.4508V17.2633C12.0016 17.5973 12.0927 17.9249 12.2638 18.2118C12.435 18.4987 12.68 18.7344 12.9732 18.8945C13.2664 19.0545 13.5972 19.1331 13.9311 19.1218C14.265 19.1106 14.5897 19.0101 14.8716 18.8308L23.1384 13.5648C23.4023 13.3974 23.6196 13.166 23.7702 12.8921C23.9208 12.6183 23.9997 12.3108 23.9997 11.9983C23.9997 11.6857 23.9208 11.3783 23.7702 11.1044C23.6196 10.8305 23.4023 10.5992 23.1384 10.4317V10.4326ZM4.5 16.5592V7.43921L11.6606 11.9992L4.5 16.5592ZM14.25 16.5592V7.43921L21.4106 11.9992L14.25 16.5592Z" fill="#130032"/>
</svg>
