<svg width="24" height="24" viewBox="0 0 24 24" fill="none" xmlns="http://www.w3.org/2000/svg">
<path d="M21.0104 2.99189C19.8157 1.79734 18.1957 1.12588 16.5062 1.125C14.8167 1.12412 13.196 1.7939 12.0001 2.9872L5.42633 9.48408C5.25149 9.65772 5.11277 9.86425 5.01815 10.0918C4.92354 10.3193 4.87491 10.5633 4.87508 10.8097V17.5306L2.20508 20.2035C1.99373 20.4148 1.875 20.7014 1.875 21.0003C1.875 21.2992 1.99373 21.5859 2.20508 21.7972C2.41642 22.0085 2.70307 22.1273 3.00195 22.1273C3.30084 22.1273 3.58748 22.0085 3.79883 21.7972L6.46883 19.1244H13.1907C13.4372 19.1251 13.6813 19.077 13.909 18.9826C14.1368 18.8883 14.3435 18.7498 14.5173 18.575H14.5219L21.0104 12.0125C22.2061 10.816 22.8778 9.19373 22.8778 7.5022C22.8778 5.81068 22.2061 4.18837 21.0104 2.99189ZM13.5845 4.58564C14.3327 3.83196 15.3428 3.39591 16.4044 3.36827C17.4661 3.34062 18.4975 3.72352 19.284 4.43724C20.0704 5.15096 20.5513 6.14051 20.6265 7.19986C20.7016 8.25922 20.3653 9.30676 19.6876 10.1244H15.4688L18.0488 7.54533C18.2602 7.33398 18.3789 7.04734 18.3789 6.74845C18.3789 6.44957 18.2602 6.16292 18.0488 5.95158C17.8375 5.74023 17.5508 5.6215 17.252 5.6215C16.9531 5.6215 16.6664 5.74023 16.4551 5.95158L11.6251 10.7806V6.51877L13.5845 4.58564ZM7.12508 10.9681L9.37508 8.74439V13.0306L7.12508 15.2806V10.9681ZM13.0313 16.8744H8.71883L13.2188 12.3744H17.4845L13.0313 16.8744Z" fill="#130032"/>
</svg>
