<svg width="24" height="24" viewBox="0 0 24 24" fill="none" xmlns="http://www.w3.org/2000/svg">
<path d="M19.8749 8.62428C19.5841 8.62412 19.2948 8.66644 19.0161 8.7499L16.4849 5.5924C16.7115 5.19254 16.8432 4.74595 16.8698 4.28711C16.8965 3.82827 16.8173 3.36945 16.6385 2.94605C16.4597 2.52265 16.186 2.14601 15.8385 1.84518C15.491 1.54435 15.079 1.32738 14.6344 1.21102C14.1898 1.09466 13.7243 1.08201 13.274 1.17407C12.8237 1.26612 12.4006 1.46041 12.0373 1.74193C11.674 2.02345 11.3802 2.38469 11.1787 2.79775C10.9772 3.21082 10.8732 3.66467 10.8749 4.12428C10.8749 4.13459 10.8749 4.1449 10.8749 4.15521L7.00771 5.76678C6.69126 5.44571 6.30651 5.20009 5.88207 5.04817C5.45763 4.89625 5.00441 4.84194 4.5561 4.88927C4.10778 4.93661 3.67589 5.08437 3.29254 5.32158C2.90919 5.55879 2.58422 5.87934 2.34179 6.25942C2.09937 6.63949 1.94572 7.06932 1.89226 7.51695C1.8388 7.96458 1.88692 8.4185 2.03302 8.84497C2.17913 9.27145 2.41947 9.65951 2.73618 9.98033C3.05289 10.3011 3.43784 10.5465 3.8624 10.698L4.01427 14.5165C3.5983 14.7037 3.2305 14.9832 2.93883 15.334C2.64716 15.6847 2.43931 16.0973 2.33108 16.5404C2.22285 16.9835 2.2171 17.4455 2.31426 17.8912C2.41142 18.3369 2.60893 18.7545 2.89177 19.1124C3.17461 19.4703 3.53534 19.7589 3.94652 19.9564C4.3577 20.1539 4.8085 20.2551 5.26464 20.2521C5.72078 20.2492 6.17025 20.1423 6.57887 19.9396C6.98748 19.7368 7.34448 19.4436 7.62271 19.0821L11.6436 20.2071C11.6931 20.6635 11.8466 21.1025 12.0924 21.4903C12.3382 21.878 12.6698 22.2042 13.0615 22.4436C13.4532 22.6831 13.8946 22.8295 14.3518 22.8715C14.809 22.9135 15.2697 22.85 15.6985 22.6859C16.1272 22.5218 16.5126 22.2615 16.825 21.925C17.1373 21.5885 17.3682 21.1848 17.5 20.745C17.6318 20.3052 17.6608 19.8411 17.585 19.3883C17.5091 18.9355 17.3303 18.5062 17.0624 18.1333L19.3274 14.5708C19.5067 14.6044 19.6887 14.6213 19.8711 14.6215C20.6668 14.6215 21.4299 14.3054 21.9925 13.7428C22.5551 13.1802 22.8711 12.4171 22.8711 11.6215C22.8711 10.8258 22.5551 10.0628 21.9925 9.50014C21.4299 8.93753 20.6668 8.62146 19.8711 8.62146L19.8749 8.62428ZM6.71615 10.2405L9.99084 12.1362L6.7499 14.6552C6.5935 14.5638 6.42906 14.4869 6.25865 14.4255L6.10677 10.6071C6.32358 10.5092 6.52812 10.3862 6.71615 10.2405ZM14.3249 7.09053C14.4631 7.0685 14.5997 7.03718 14.7336 6.99678L17.2649 10.1543C17.1793 10.3066 17.1069 10.4659 17.0483 10.6305L13.4455 10.8021L14.3249 7.09053ZM8.1374 16.4299L11.4374 13.864L12.6805 17.5943C12.5236 17.7285 12.3807 17.8784 12.254 18.0415L8.23302 16.9165C8.2136 16.7519 8.181 16.5892 8.13552 16.4299H8.1374ZM14.8124 16.8808L13.5355 13.0521L17.1561 12.8805C17.2344 13.0506 17.3286 13.2129 17.4374 13.3652L15.1724 16.9277C15.0535 16.9048 14.9332 16.8891 14.8124 16.8808ZM13.8749 3.37428C14.0232 3.37428 14.1682 3.41826 14.2916 3.50067C14.4149 3.58308 14.511 3.70022 14.5678 3.83726C14.6246 3.97431 14.6394 4.12511 14.6105 4.27059C14.5815 4.41608 14.5101 4.54972 14.4052 4.65461C14.3003 4.7595 14.1667 4.83093 14.0212 4.85986C13.8757 4.8888 13.7249 4.87395 13.5879 4.81719C13.4508 4.76042 13.3337 4.66429 13.2513 4.54095C13.1689 4.41762 13.1249 4.27261 13.1249 4.12428C13.1249 3.92536 13.2039 3.7346 13.3446 3.59395C13.4852 3.45329 13.676 3.37428 13.8749 3.37428ZM11.7421 6.23178C11.8642 6.35434 11.9962 6.4666 12.1368 6.5674L11.2555 10.2687L7.8449 8.29428C7.86485 8.15517 7.87487 8.01481 7.8749 7.87428C7.8749 7.86396 7.8749 7.85365 7.8749 7.84334L11.7421 6.23178ZM4.8749 7.12428C5.02323 7.12428 5.16824 7.16826 5.29158 7.25067C5.41491 7.33309 5.51104 7.45022 5.56781 7.58726C5.62457 7.72431 5.63943 7.87511 5.61049 8.02059C5.58155 8.16608 5.51012 8.29972 5.40523 8.40461C5.30034 8.5095 5.1667 8.58093 5.02122 8.60987C4.87573 8.6388 4.72493 8.62395 4.58789 8.56719C4.45084 8.51042 4.33371 8.41429 4.2513 8.29095C4.16889 8.16762 4.1249 8.02261 4.1249 7.87428C4.1249 7.67536 4.20392 7.4846 4.34457 7.34395C4.48522 7.20329 4.67599 7.12428 4.8749 7.12428ZM5.2499 17.9993C5.10156 17.9993 4.95656 17.9553 4.83322 17.8729C4.70988 17.7905 4.61375 17.6733 4.55699 17.5363C4.50022 17.3992 4.48537 17.2484 4.51431 17.103C4.54325 16.9575 4.61468 16.8238 4.71957 16.7189C4.82446 16.6141 4.9581 16.5426 5.10358 16.5137C5.24907 16.4847 5.39987 16.4996 5.53691 16.5564C5.67396 16.6131 5.79109 16.7093 5.8735 16.8326C5.95591 16.9559 5.9999 17.1009 5.9999 17.2493C5.9999 17.4482 5.92088 17.639 5.78023 17.7796C5.63958 17.9203 5.44881 17.9993 5.2499 17.9993ZM14.6249 20.6243C14.4766 20.6243 14.3316 20.5803 14.2082 20.4979C14.0849 20.4155 13.9888 20.2983 13.932 20.1613C13.8752 20.0242 13.8604 19.8734 13.8893 19.728C13.9182 19.5825 13.9897 19.4488 14.0946 19.3439C14.1995 19.2391 14.3331 19.1676 14.4786 19.1387C14.6241 19.1097 14.7749 19.1246 14.9119 19.1814C15.049 19.2381 15.1661 19.3343 15.2485 19.4576C15.3309 19.5809 15.3749 19.7259 15.3749 19.8743C15.3749 20.0732 15.2959 20.264 15.1552 20.4046C15.0146 20.5453 14.8238 20.6243 14.6249 20.6243ZM19.8749 12.3743C19.7266 12.3743 19.5816 12.3303 19.4582 12.2479C19.3349 12.1655 19.2388 12.0483 19.182 11.9113C19.1252 11.7742 19.1104 11.6234 19.1393 11.478C19.1682 11.3325 19.2397 11.1988 19.3446 11.0939C19.4495 10.9891 19.5831 10.9176 19.7286 10.8887C19.8741 10.8597 20.0249 10.8746 20.1619 10.9314C20.299 10.9881 20.4161 11.0843 20.4985 11.2076C20.5809 11.3309 20.6249 11.4759 20.6249 11.6243C20.6249 11.8232 20.5459 12.014 20.4052 12.1546C20.2646 12.2953 20.0738 12.3743 19.8749 12.3743Z" fill="#130032"/>
</svg>
