<svg width="24" height="24" viewBox="0 0 24 24" fill="none" xmlns="http://www.w3.org/2000/svg">
<path d="M18.5766 9C19.1771 8.43333 19.5937 7.69952 19.7725 6.8935C19.9514 6.08747 19.8842 5.24633 19.5798 4.47889C19.2753 3.71145 18.7476 3.05303 18.0648 2.58881C17.3821 2.12458 16.5757 1.87593 15.7501 1.875H9.00008C8.17446 1.87593 7.36811 2.12458 6.68535 2.58881C6.0026 3.05303 5.47485 3.71145 5.1704 4.47889C4.86595 5.24633 4.7988 6.08747 4.97763 6.8935C5.15647 7.69952 5.57306 8.43333 6.17352 9C5.75405 9.39385 5.42182 9.87127 5.19829 10.4015C4.97475 10.9317 4.86487 11.5028 4.87573 12.0781C4.8866 12.6534 5.01797 13.22 5.26137 13.7414C5.50477 14.2627 5.85479 14.7273 6.28883 15.105C5.74601 15.6166 5.33886 16.255 5.10399 16.9629C4.86913 17.6709 4.81392 18.4261 4.94333 19.1607C5.07275 19.8952 5.38272 20.5861 5.84538 21.1712C6.30803 21.7562 6.90886 22.2171 7.59382 22.5124C8.27878 22.8076 9.02639 22.928 9.7694 22.8626C10.5124 22.7972 11.2275 22.5482 11.8504 22.1379C12.4733 21.7276 12.9845 21.1689 13.3379 20.5121C13.6913 19.8553 13.8759 19.1209 13.8751 18.375V15.6722C14.7587 16.1187 15.7735 16.2325 16.7341 15.9928C17.6947 15.7531 18.5371 15.1759 19.1074 14.3666C19.6777 13.5572 19.9379 12.5698 19.8404 11.5845C19.743 10.5993 19.2944 9.68193 18.5766 9ZM17.6251 6C17.6251 6.49728 17.4275 6.9742 17.0759 7.32583C16.7243 7.67746 16.2474 7.875 15.7501 7.875H13.8751V4.125H15.7501C16.2474 4.125 16.7243 4.32254 17.0759 4.67418C17.4275 5.02581 17.6251 5.50272 17.6251 6ZM7.12508 6C7.12508 5.50272 7.32262 5.02581 7.67425 4.67418C8.02589 4.32254 8.5028 4.125 9.00008 4.125H11.6251V7.875H9.00008C8.5028 7.875 8.02589 7.67746 7.67425 7.32583C7.32262 6.9742 7.12508 6.49728 7.12508 6ZM9.00008 13.875C8.5028 13.875 8.02589 13.6775 7.67425 13.3258C7.32262 12.9742 7.12508 12.4973 7.12508 12C7.12508 11.5027 7.32262 11.0258 7.67425 10.6742C8.02589 10.3225 8.5028 10.125 9.00008 10.125H11.6251V13.875H9.00008ZM11.6251 18.375C11.6251 18.82 11.4931 19.255 11.2459 19.625C10.9987 19.995 10.6473 20.2834 10.2361 20.4537C9.82498 20.624 9.37258 20.6686 8.93613 20.5818C8.49967 20.495 8.09876 20.2807 7.78409 19.966C7.46942 19.6513 7.25513 19.2504 7.16831 18.814C7.0815 18.3775 7.12605 17.9251 7.29635 17.514C7.46665 17.1028 7.75504 16.7514 8.12505 16.5042C8.49506 16.257 8.93007 16.125 9.37508 16.125H11.6251V18.375ZM15.7501 13.875C15.3792 13.875 15.0167 13.765 14.7084 13.559C14.4 13.353 14.1597 13.0601 14.0178 12.7175C13.8759 12.3749 13.8388 11.9979 13.9111 11.6342C13.9835 11.2705 14.162 10.9364 14.4243 10.6742C14.6865 10.412 15.0206 10.2334 15.3843 10.161C15.748 10.0887 16.125 10.1258 16.4676 10.2677C16.8102 10.4096 17.1031 10.65 17.3091 10.9583C17.5151 11.2666 17.6251 11.6292 17.6251 12C17.6251 12.4973 17.4275 12.9742 17.0759 13.3258C16.7243 13.6775 16.2474 13.875 15.7501 13.875Z" fill="#130032"/>
</svg>
