<svg width="24" height="24" viewBox="0 0 24 24" fill="none" xmlns="http://www.w3.org/2000/svg">
<path d="M14.9999 19.5C14.9999 19.7984 14.8814 20.0845 14.6704 20.2955C14.4595 20.5065 14.1733 20.625 13.8749 20.625H11.2499C10.9516 20.625 10.6654 20.5065 10.4545 20.2955C10.2435 20.0845 10.1249 19.7984 10.1249 19.5V14.25C10.1249 13.9516 10.2435 13.6655 10.4545 13.4545C10.6654 13.2435 10.9516 13.125 11.2499 13.125C11.5483 13.125 11.8345 13.2435 12.0454 13.4545C12.2564 13.6655 12.3749 13.9516 12.3749 14.25V18.375H13.8749C14.1733 18.375 14.4595 18.4935 14.6704 18.7045C14.8814 18.9155 14.9999 19.2016 14.9999 19.5ZM8.5312 13.3331C8.41097 13.2469 8.27492 13.1853 8.13084 13.1517C7.98675 13.1181 7.83746 13.1133 7.69151 13.1375C7.54556 13.1617 7.40582 13.2145 7.28029 13.2928C7.15476 13.3711 7.0459 13.4733 6.95995 13.5938L5.99995 14.9381L5.04088 13.5938C4.86684 13.351 4.60346 13.1872 4.30871 13.1386C4.01396 13.09 3.71196 13.1605 3.46916 13.3345C3.22637 13.5086 3.06265 13.7719 3.01404 14.0667C2.96543 14.3615 3.0359 14.6635 3.20995 14.9062L4.6162 16.875L3.20995 18.8438C3.12377 18.964 3.06211 19.1 3.0285 19.244C2.99488 19.3881 2.98997 19.5373 3.01404 19.6833C3.03811 19.8292 3.09069 19.969 3.16878 20.0946C3.24687 20.2203 3.34894 20.3293 3.46916 20.4155C3.58939 20.5016 3.7254 20.5633 3.86945 20.5969C4.0135 20.6305 4.16276 20.6354 4.30871 20.6114C4.45466 20.5873 4.59444 20.5347 4.72006 20.4566C4.84569 20.3785 4.9547 20.2765 5.04088 20.1562L5.99995 18.8081L6.95995 20.1562C7.13399 20.399 7.39737 20.5628 7.69212 20.6114C7.98687 20.66 8.28887 20.5895 8.53166 20.4155C8.77446 20.2414 8.93817 19.9781 8.98679 19.6833C9.0354 19.3885 8.96493 19.0865 8.79088 18.8438L7.38463 16.875L8.79088 14.9062C8.87744 14.786 8.93939 14.6499 8.97319 14.5056C9.00699 14.3614 9.01197 14.2119 8.98784 14.0657C8.96371 13.9196 8.91095 13.7796 8.83259 13.6539C8.75422 13.5282 8.6518 13.4192 8.5312 13.3331ZM20.0184 16.3378C19.5384 16.0144 18.9571 15.8466 18.4443 15.6984C18.1928 15.6305 17.9449 15.5495 17.7018 15.4556C17.9315 15.345 18.6121 15.3337 19.2084 15.4866C19.4922 15.5495 19.7893 15.5002 20.0376 15.3488C20.2858 15.1975 20.4658 14.956 20.5399 14.6749C20.6139 14.3938 20.5763 14.0949 20.4349 13.8409C20.2934 13.5869 20.0592 13.3976 19.7812 13.3125C19.4121 13.2214 19.0356 13.1631 18.6562 13.1381C17.7253 13.0763 16.9687 13.2394 16.3968 13.6228C16.118 13.81 15.8837 14.0561 15.7105 14.3438C15.5374 14.6316 15.4295 14.9538 15.3946 15.2878C15.2915 16.1072 15.6281 16.8131 16.3424 17.2744C16.7906 17.5641 17.3137 17.715 17.819 17.8612C18.1003 17.9447 18.5634 18.0769 18.7453 18.1922C18.7421 18.2152 18.7354 18.2377 18.7256 18.2587C18.5971 18.4041 17.8274 18.4266 17.189 18.2531C17.0458 18.2102 16.8955 18.1963 16.7469 18.2122C16.5982 18.228 16.4542 18.2733 16.3233 18.3455C16.1924 18.4176 16.0771 18.5151 15.9843 18.6323C15.8915 18.7495 15.823 18.884 15.7827 19.028C15.7425 19.1719 15.7313 19.3225 15.7499 19.4708C15.7685 19.6191 15.8165 19.7622 15.891 19.8918C15.9656 20.0214 16.0652 20.1348 16.1841 20.2254C16.303 20.3161 16.4387 20.3821 16.5834 20.4197C17.079 20.5531 17.5898 20.6221 18.1031 20.625C18.7087 20.625 19.3903 20.5153 19.9528 20.1422C20.2376 19.9539 20.4773 19.7049 20.6547 19.4132C20.8322 19.1215 20.943 18.7942 20.9793 18.4547C21.0937 17.5809 20.7496 16.8309 20.0165 16.3378H20.0184ZM3.37495 10.125V3.75C3.37495 3.25272 3.57249 2.77581 3.92412 2.42418C4.27575 2.07254 4.75267 1.875 5.24995 1.875H14.2499C14.3977 1.87488 14.5441 1.90389 14.6807 1.96035C14.8172 2.01681 14.9413 2.09962 15.0459 2.20406L20.2959 7.45406C20.4003 7.55862 20.4831 7.68272 20.5396 7.81929C20.5961 7.95586 20.6251 8.10222 20.6249 8.25V10.125C20.6249 10.4234 20.5064 10.7095 20.2954 10.9205C20.0845 11.1315 19.7983 11.25 19.4999 11.25C19.2016 11.25 18.9154 11.1315 18.7045 10.9205C18.4935 10.7095 18.3749 10.4234 18.3749 10.125V9.75H13.8749C13.5766 9.75 13.2904 9.63147 13.0795 9.4205C12.8685 9.20952 12.7499 8.92337 12.7499 8.625V4.125H5.62495V10.125C5.62495 10.4234 5.50642 10.7095 5.29544 10.9205C5.08446 11.1315 4.79831 11.25 4.49995 11.25C4.20158 11.25 3.91543 11.1315 3.70445 10.9205C3.49347 10.7095 3.37495 10.4234 3.37495 10.125ZM14.9999 7.5H17.1562L14.9999 5.34375V7.5Z" fill="#130032"/>
</svg>
