<svg width="24" height="24" viewBox="0 0 24 24" fill="none" xmlns="http://www.w3.org/2000/svg">
<path d="M4.5 16.875C4.5 17.6878 5.01562 18.375 5.625 18.375C5.75539 18.371 5.88359 18.3404 6.00174 18.2851C6.1199 18.2298 6.22554 18.151 6.31219 18.0534C6.51856 17.8379 6.80211 17.7131 7.10047 17.7066C7.39883 17.7001 7.68755 17.8124 7.90313 18.0187C8.1187 18.2251 8.24346 18.5087 8.24996 18.807C8.25647 19.1054 8.14418 19.3941 7.93781 19.6097C7.64182 19.9276 7.28398 20.1816 6.88627 20.3562C6.48855 20.5308 6.05934 20.6223 5.625 20.625C3.76406 20.625 2.25 18.9431 2.25 16.875C2.25 14.8069 3.76406 13.125 5.625 13.125C6.05934 13.1277 6.48855 13.2192 6.88627 13.3938C7.28398 13.5684 7.64182 13.8224 7.93781 14.1403C8.14418 14.3559 8.25647 14.6446 8.24996 14.943C8.24346 15.2413 8.1187 15.5249 7.90313 15.7313C7.68755 15.9376 7.39883 16.0499 7.10047 16.0434C6.80211 16.0369 6.51856 15.9121 6.31219 15.6966C6.2254 15.5992 6.11973 15.5205 6.0016 15.4652C5.88348 15.41 5.75535 15.3793 5.625 15.375C5.01562 15.375 4.5 16.0622 4.5 16.875ZM3.375 10.125V3.75C3.375 3.25272 3.57254 2.77581 3.92417 2.42418C4.27581 2.07254 4.75272 1.875 5.25 1.875H14.25C14.3978 1.87488 14.5441 1.90389 14.6807 1.96035C14.8173 2.01681 14.9414 2.09962 15.0459 2.20406L20.2959 7.45406C20.4004 7.55862 20.4832 7.68272 20.5397 7.81929C20.5961 7.95586 20.6251 8.10222 20.625 8.25V10.125C20.625 10.4234 20.5065 10.7095 20.2955 10.9205C20.0845 11.1315 19.7984 11.25 19.5 11.25C19.2016 11.25 18.9155 11.1315 18.7045 10.9205C18.4935 10.7095 18.375 10.4234 18.375 10.125V9.75H13.875C13.5766 9.75 13.2905 9.63147 13.0795 9.4205C12.8685 9.20952 12.75 8.92337 12.75 8.625V4.125H5.625V10.125C5.625 10.4234 5.50647 10.7095 5.2955 10.9205C5.08452 11.1315 4.79837 11.25 4.5 11.25C4.20163 11.25 3.91548 11.1315 3.7045 10.9205C3.49353 10.7095 3.375 10.4234 3.375 10.125ZM15 5.34375V7.5H17.1562L15 5.34375ZM13.875 15.75H13.125V15C13.125 14.7016 13.0065 14.4155 12.7955 14.2045C12.5845 13.9935 12.2984 13.875 12 13.875C11.7016 13.875 11.4155 13.9935 11.2045 14.2045C10.9935 14.4155 10.875 14.7016 10.875 15V15.75H10.125C9.82663 15.75 9.54048 15.8685 9.3295 16.0795C9.11853 16.2905 9 16.5766 9 16.875C9 17.1734 9.11853 17.4595 9.3295 17.6705C9.54048 17.8815 9.82663 18 10.125 18H10.875V18.75C10.875 19.0484 10.9935 19.3345 11.2045 19.5455C11.4155 19.7565 11.7016 19.875 12 19.875C12.2984 19.875 12.5845 19.7565 12.7955 19.5455C13.0065 19.3345 13.125 19.0484 13.125 18.75V18H13.875C14.1734 18 14.4595 17.8815 14.6705 17.6705C14.8815 17.4595 15 17.1734 15 16.875C15 16.5766 14.8815 16.2905 14.6705 16.0795C14.4595 15.8685 14.1734 15.75 13.875 15.75ZM20.625 15.75H19.875V15C19.875 14.7016 19.7565 14.4155 19.5455 14.2045C19.3345 13.9935 19.0484 13.875 18.75 13.875C18.4516 13.875 18.1655 13.9935 17.9545 14.2045C17.7435 14.4155 17.625 14.7016 17.625 15V15.75H16.875C16.5766 15.75 16.2905 15.8685 16.0795 16.0795C15.8685 16.2905 15.75 16.5766 15.75 16.875C15.75 17.1734 15.8685 17.4595 16.0795 17.6705C16.2905 17.8815 16.5766 18 16.875 18H17.625V18.75C17.625 19.0484 17.7435 19.3345 17.9545 19.5455C18.1655 19.7565 18.4516 19.875 18.75 19.875C19.0484 19.875 19.3345 19.7565 19.5455 19.5455C19.7565 19.3345 19.875 19.0484 19.875 18.75V18H20.625C20.9234 18 21.2095 17.8815 21.4205 17.6705C21.6315 17.4595 21.75 17.1734 21.75 16.875C21.75 16.5766 21.6315 16.2905 21.4205 16.0795C21.2095 15.8685 20.9234 15.75 20.625 15.75Z" fill="#130032"/>
</svg>
