<svg width="24" height="24" viewBox="0 0 24 24" fill="none" xmlns="http://www.w3.org/2000/svg">
<path d="M20.2959 7.45406L15.0459 2.20406C14.9414 2.09962 14.8173 2.01681 14.6807 1.96035C14.5441 1.90389 14.3978 1.87488 14.25 1.875H5.25C4.75272 1.875 4.27581 2.07254 3.92417 2.42418C3.57254 2.77581 3.375 3.25272 3.375 3.75V10.125C3.375 10.4234 3.49353 10.7095 3.7045 10.9205C3.91548 11.1315 4.20163 11.25 4.5 11.25C4.79837 11.25 5.08452 11.1315 5.2955 10.9205C5.50647 10.7095 5.625 10.4234 5.625 10.125V4.125H12.75V8.625C12.75 8.92337 12.8685 9.20952 13.0795 9.4205C13.2905 9.63147 13.5766 9.75 13.875 9.75H18.375V19.875C18.0766 19.875 17.7905 19.9935 17.5795 20.2045C17.3685 20.4155 17.25 20.7016 17.25 21C17.25 21.2984 17.3685 21.5845 17.5795 21.7955C17.7905 22.0065 18.0766 22.125 18.375 22.125H18.75C19.2473 22.125 19.7242 21.9275 20.0758 21.5758C20.4275 21.2242 20.625 20.7473 20.625 20.25V8.25C20.6251 8.10222 20.5961 7.95586 20.5397 7.81929C20.4832 7.68272 20.4004 7.55862 20.2959 7.45406ZM15 5.34375L17.1562 7.5H15V5.34375ZM14.8209 13.2834C14.652 13.1839 14.4601 13.1303 14.2641 13.1278C14.068 13.1254 13.8748 13.1742 13.7034 13.2694L11.8594 14.2913C11.7187 13.9467 11.4786 13.6517 11.1698 13.4441C10.8609 13.2364 10.4972 13.1253 10.125 13.125H4.5C4.00272 13.125 3.52581 13.3225 3.17417 13.6742C2.82254 14.0258 2.625 14.5027 2.625 15V19.5C2.625 19.9973 2.82254 20.4742 3.17417 20.8258C3.52581 21.1775 4.00272 21.375 4.5 21.375H10.125C10.4972 21.3747 10.8609 21.2636 11.1698 21.0559C11.4786 20.8483 11.7187 20.5533 11.8594 20.2087L13.7034 21.2334C13.8747 21.3286 14.0678 21.3774 14.2638 21.375C14.4597 21.3726 14.6516 21.3191 14.8205 21.2198C14.9893 21.1204 15.1293 20.9787 15.2266 20.8086C15.3239 20.6385 15.375 20.4459 15.375 20.25V14.25C15.375 14.0542 15.3239 13.8617 15.2267 13.6917C15.1295 13.5217 14.9897 13.38 14.8209 13.2806V13.2834ZM9.75 19.125H4.875V15.375H9.75V19.125ZM13.125 18.3384L12 17.7131V16.7869L13.125 16.1616V18.3384Z" fill="#130032"/>
</svg>
