<svg width="24" height="24" viewBox="0 0 24 24" fill="none" xmlns="http://www.w3.org/2000/svg">
<path d="M14.2294 18.45C14.1931 18.7895 14.0823 19.1168 13.9048 19.4085C13.7273 19.7003 13.4876 19.9492 13.2028 20.1375C12.6403 20.5125 11.9587 20.6203 11.3531 20.6203C10.8391 20.617 10.3277 20.5473 9.83156 20.4131C9.68688 20.3755 9.55113 20.3095 9.43226 20.2189C9.31339 20.1282 9.21377 20.0148 9.13923 19.8852C9.06468 19.7557 9.01671 19.6125 8.99811 19.4642C8.97952 19.3159 8.99066 19.1654 9.03091 19.0214C9.07115 18.8774 9.13968 18.7429 9.2325 18.6257C9.32531 18.5086 9.44055 18.4111 9.57148 18.3389C9.7024 18.2668 9.84639 18.2215 9.99504 18.2056C10.1437 18.1897 10.294 18.2037 10.4372 18.2466C11.0756 18.42 11.8434 18.3975 11.9738 18.2522C11.9836 18.2311 11.9902 18.2087 11.9934 18.1856C11.8116 18.0703 11.3531 17.9381 11.0672 17.8547C10.5619 17.7084 10.0359 17.5575 9.59063 17.2678C8.87531 16.8066 8.53969 16.1006 8.64281 15.2812C8.6777 14.9473 8.78554 14.625 8.95872 14.3373C9.1319 14.0496 9.36619 13.8034 9.645 13.6163C10.2131 13.2328 10.9734 13.0697 11.9044 13.1316C12.2846 13.1586 12.6617 13.2191 13.0312 13.3125C13.3166 13.3912 13.5594 13.5792 13.707 13.8358C13.8547 14.0923 13.8953 14.3967 13.8201 14.6829C13.7448 14.9692 13.5598 15.2143 13.3051 15.3651C13.0504 15.5158 12.7465 15.5602 12.4594 15.4884C11.8631 15.3356 11.1825 15.3469 10.9528 15.4575C11.1956 15.5513 11.4431 15.6324 11.6944 15.7003C12.2072 15.8484 12.7894 16.0162 13.2694 16.3397C13.9997 16.8309 14.3438 17.5809 14.2294 18.45ZM6.375 13.125C6.07663 13.125 5.79048 13.2435 5.5795 13.4545C5.36853 13.6655 5.25 13.9516 5.25 14.25V17.8125C5.25 17.9617 5.19074 18.1048 5.08525 18.2102C4.97976 18.3157 4.83668 18.375 4.6875 18.375C4.53832 18.375 4.39524 18.3157 4.28975 18.2102C4.18426 18.1048 4.125 17.9617 4.125 17.8125C4.125 17.5141 4.00647 17.228 3.7955 17.017C3.58452 16.806 3.29837 16.6875 3 16.6875C2.70163 16.6875 2.41548 16.806 2.2045 17.017C1.99353 17.228 1.875 17.5141 1.875 17.8125C1.875 18.5584 2.17132 19.2738 2.69876 19.8012C3.22621 20.3287 3.94158 20.625 4.6875 20.625C5.43342 20.625 6.14879 20.3287 6.67624 19.8012C7.20368 19.2738 7.5 18.5584 7.5 17.8125V14.25C7.5 13.9516 7.38147 13.6655 7.1705 13.4545C6.95952 13.2435 6.67337 13.125 6.375 13.125ZM19.3828 16.875L20.7891 14.9062C20.9631 14.6635 21.0336 14.3615 20.985 14.0667C20.9364 13.7719 20.7726 13.5086 20.5298 13.3345C20.287 13.1605 19.9851 13.09 19.6903 13.1386C19.3955 13.1872 19.1322 13.351 18.9581 13.5938L18 14.9381L17.04 13.5938C16.866 13.351 16.6026 13.1872 16.3078 13.1386C16.0131 13.09 15.7111 13.1605 15.4683 13.3345C15.2255 13.5086 15.0618 13.7719 15.0132 14.0667C14.9645 14.3615 15.035 14.6635 15.2091 14.9062L16.6153 16.875L15.2091 18.8438C15.1229 18.964 15.0612 19.1 15.0276 19.244C14.994 19.3881 14.9891 19.5373 15.0132 19.6833C15.0372 19.8292 15.0898 19.969 15.1679 20.0946C15.246 20.2203 15.3481 20.3293 15.4683 20.4155C15.5885 20.5016 15.7245 20.5633 15.8686 20.5969C16.0126 20.6305 16.1619 20.6354 16.3078 20.6114C16.4538 20.5873 16.5936 20.5347 16.7192 20.4566C16.8448 20.3785 16.9538 20.2765 17.04 20.1562L18 18.8081L18.9591 20.1562C19.1331 20.399 19.3965 20.5628 19.6912 20.6114C19.986 20.66 20.288 20.5895 20.5308 20.4155C20.7736 20.2414 20.9373 19.9781 20.9859 19.6833C21.0345 19.3885 20.964 19.0865 20.79 18.8438L19.3828 16.875ZM3.375 10.125V3.75C3.375 3.25272 3.57254 2.77581 3.92417 2.42418C4.27581 2.07254 4.75272 1.875 5.25 1.875H14.25C14.3978 1.87488 14.5441 1.90389 14.6807 1.96035C14.8173 2.01681 14.9414 2.09962 15.0459 2.20406L20.2959 7.45406C20.4004 7.55862 20.4832 7.68272 20.5397 7.81929C20.5961 7.95586 20.6251 8.10222 20.625 8.25V10.125C20.625 10.4234 20.5065 10.7095 20.2955 10.9205C20.0845 11.1315 19.7984 11.25 19.5 11.25C19.2016 11.25 18.9155 11.1315 18.7045 10.9205C18.4935 10.7095 18.375 10.4234 18.375 10.125V9.75H13.875C13.5766 9.75 13.2905 9.63147 13.0795 9.4205C12.8685 9.20952 12.75 8.92337 12.75 8.625V4.125H5.625V10.125C5.625 10.4234 5.50647 10.7095 5.2955 10.9205C5.08452 11.1315 4.79837 11.25 4.5 11.25C4.20163 11.25 3.91548 11.1315 3.7045 10.9205C3.49353 10.7095 3.375 10.4234 3.375 10.125ZM15 7.5H17.1562L15 5.34375V7.5Z" fill="#130032"/>
</svg>
