<svg width="24" height="24" viewBox="0 0 24 24" fill="none" xmlns="http://www.w3.org/2000/svg">
<path d="M20.2959 7.45406L15.0459 2.20406C14.9414 2.09962 14.8173 2.01681 14.6807 1.96035C14.5441 1.90389 14.3978 1.87488 14.25 1.875H5.25C4.75272 1.875 4.27581 2.07254 3.92417 2.42418C3.57254 2.77581 3.375 3.25272 3.375 3.75V10.125C3.375 10.4234 3.49353 10.7095 3.7045 10.9205C3.91548 11.1315 4.20163 11.25 4.5 11.25C4.79837 11.25 5.08452 11.1315 5.2955 10.9205C5.50647 10.7095 5.625 10.4234 5.625 10.125V4.125H12.75V8.625C12.75 8.92337 12.8685 9.20952 13.0795 9.4205C13.2905 9.63147 13.5766 9.75 13.875 9.75H18.375V19.875H17.625C17.3266 19.875 17.0405 19.9935 16.8295 20.2045C16.6185 20.4155 16.5 20.7016 16.5 21C16.5 21.2984 16.6185 21.5845 16.8295 21.7955C17.0405 22.0065 17.3266 22.125 17.625 22.125H18.75C19.2473 22.125 19.7242 21.9275 20.0758 21.5758C20.4275 21.2242 20.625 20.7473 20.625 20.25V8.25C20.6251 8.10222 20.5961 7.95586 20.5397 7.81929C20.4832 7.68272 20.4004 7.55862 20.2959 7.45406ZM15 5.34375L17.1562 7.5H15V5.34375ZM6 13.125H4.5C4.20163 13.125 3.91548 13.2435 3.7045 13.4545C3.49353 13.6655 3.375 13.9516 3.375 14.25V19.5C3.375 19.7984 3.49353 20.0845 3.7045 20.2955C3.91548 20.5065 4.20163 20.625 4.5 20.625C4.79837 20.625 5.08452 20.5065 5.2955 20.2955C5.50647 20.0845 5.625 19.7984 5.625 19.5V19.125H6C6.11433 19.1246 6.22856 19.118 6.34219 19.1053L6.90469 20.0672C7.06218 20.3089 7.30651 20.4809 7.58719 20.5476C7.86788 20.6143 8.16346 20.5706 8.41285 20.4256C8.66224 20.2805 8.84638 20.0452 8.92721 19.7683C9.00805 19.4913 8.9794 19.1939 8.84719 18.9375L8.31844 18.0319C8.68004 17.5927 8.90932 17.0597 8.97952 16.4952C9.04972 15.9306 8.95795 15.3578 8.71491 14.8434C8.47188 14.329 8.0876 13.8944 7.6069 13.5901C7.1262 13.2858 6.5689 13.1245 6 13.125ZM5.625 15.375H6C6.19891 15.375 6.38968 15.454 6.53033 15.5947C6.67098 15.7353 6.75 15.9261 6.75 16.125C6.75 16.3239 6.67098 16.5147 6.53033 16.6553C6.38968 16.796 6.19891 16.875 6 16.875H5.625V15.375ZM15.3544 18.4519C15.3188 18.7923 15.2082 19.1207 15.0308 19.4134C14.8533 19.7062 14.6132 19.956 14.3278 20.145C13.7653 20.52 13.0838 20.6278 12.4781 20.6278C11.9641 20.6245 11.4527 20.5548 10.9566 20.4206C10.6691 20.3403 10.4254 20.1491 10.2789 19.8891C10.1325 19.629 10.0953 19.3215 10.1756 19.0341C10.2559 18.7466 10.4471 18.5029 10.7072 18.3564C10.9672 18.21 11.2748 18.1728 11.5622 18.2531C12.2006 18.4275 12.9684 18.4041 13.0988 18.2587C13.1086 18.2377 13.1152 18.2152 13.1184 18.1922C12.9366 18.0769 12.4781 17.9447 12.1922 17.8622C11.6869 17.7159 11.1609 17.5641 10.7156 17.2744C10.0013 16.8131 9.66469 16.1072 9.76781 15.2869C9.80283 14.953 9.91074 14.631 10.0839 14.3434C10.2571 14.0559 10.4913 13.8099 10.77 13.6228C11.3381 13.2394 12.0984 13.0763 13.0294 13.1372C13.4095 13.1621 13.7866 13.2208 14.1562 13.3125C14.4416 13.3912 14.6844 13.5792 14.832 13.8358C14.9797 14.0923 15.0203 14.3967 14.9451 14.6829C14.8698 14.9692 14.6848 15.2143 14.4301 15.3651C14.1754 15.5158 13.8715 15.5602 13.5844 15.4884C12.9881 15.3356 12.3075 15.3469 12.0778 15.4575C12.3206 15.5513 12.5681 15.6324 12.8194 15.7003C13.3331 15.8484 13.9144 16.0162 14.3944 16.3397C15.1247 16.8328 15.4688 17.5828 15.3544 18.4519Z" fill="#130032"/>
</svg>
