<svg width="24" height="24" viewBox="0 0 24 24" fill="none" xmlns="http://www.w3.org/2000/svg">
<path d="M17.625 13.125H16.125C15.8266 13.125 15.5405 13.2435 15.3295 13.4545C15.1185 13.6655 15 13.9516 15 14.25V19.5C15 19.7984 15.1185 20.0845 15.3295 20.2955C15.5405 20.5065 15.8266 20.625 16.125 20.625C16.4234 20.625 16.7095 20.5065 16.9205 20.2955C17.1315 20.0845 17.25 19.7984 17.25 19.5V19.125H17.625C18.4206 19.125 19.1837 18.8089 19.7463 18.2463C20.3089 17.6837 20.625 16.9206 20.625 16.125C20.625 15.3294 20.3089 14.5663 19.7463 14.0037C19.1837 13.4411 18.4206 13.125 17.625 13.125ZM17.625 16.875H17.25V15.375H17.625C17.8239 15.375 18.0147 15.454 18.1553 15.5947C18.296 15.7353 18.375 15.9261 18.375 16.125C18.375 16.3239 18.296 16.5147 18.1553 16.6553C18.0147 16.796 17.8239 16.875 17.625 16.875ZM13.125 14.25V19.5C13.125 19.7984 13.0065 20.0845 12.7955 20.2955C12.5845 20.5065 12.2984 20.625 12 20.625C11.7016 20.625 11.4155 20.5065 11.2045 20.2955C10.9935 20.0845 10.875 19.7984 10.875 19.5V14.25C10.875 13.9516 10.9935 13.6655 11.2045 13.4545C11.4155 13.2435 11.7016 13.125 12 13.125C12.2984 13.125 12.5845 13.2435 12.7955 13.4545C13.0065 13.6655 13.125 13.9516 13.125 14.25ZM9 19.5C9 19.7984 8.88147 20.0845 8.6705 20.2955C8.45952 20.5065 8.17337 20.625 7.875 20.625H4.875C4.67799 20.625 4.48443 20.5732 4.3137 20.4749C4.14297 20.3766 4.00106 20.2352 3.90215 20.0648C3.80324 19.8944 3.75081 19.701 3.7501 19.504C3.7494 19.307 3.80044 19.1133 3.89813 18.9422L5.93625 15.375H4.875C4.57663 15.375 4.29048 15.2565 4.0795 15.0455C3.86853 14.8345 3.75 14.5484 3.75 14.25C3.75 13.9516 3.86853 13.6655 4.0795 13.4545C4.29048 13.2435 4.57663 13.125 4.875 13.125H7.875C8.0727 13.1245 8.26703 13.1762 8.43841 13.2747C8.60979 13.3733 8.75218 13.5153 8.85123 13.6864C8.95027 13.8575 9.00248 14.0517 9.0026 14.2494C9.00271 14.4471 8.95073 14.6413 8.85187 14.8125L6.81375 18.375H7.875C8.17337 18.375 8.45952 18.4935 8.6705 18.7045C8.88147 18.9155 9 19.2016 9 19.5ZM20.2959 7.455L15.0459 2.205C14.9415 2.10039 14.8174 2.0174 14.6808 1.96078C14.5442 1.90416 14.3978 1.87501 14.25 1.875H5.25C4.75272 1.875 4.27581 2.07254 3.92417 2.42417C3.57254 2.77581 3.375 3.25272 3.375 3.75V10.125C3.375 10.4234 3.49353 10.7095 3.7045 10.9205C3.91548 11.1315 4.20163 11.25 4.5 11.25C4.79837 11.25 5.08452 11.1315 5.2955 10.9205C5.50647 10.7095 5.625 10.4234 5.625 10.125V4.125H12.75V8.625C12.75 8.92337 12.8685 9.20952 13.0795 9.4205C13.2905 9.63147 13.5766 9.75 13.875 9.75H18.375V10.125C18.375 10.4234 18.4935 10.7095 18.7045 10.9205C18.9155 11.1315 19.2016 11.25 19.5 11.25C19.7984 11.25 20.0845 11.1315 20.2955 10.9205C20.5065 10.7095 20.625 10.4234 20.625 10.125V8.25C20.625 7.95187 20.5066 7.66593 20.2959 7.455ZM15 7.5V5.34375L17.1562 7.5H15Z" fill="#130032"/>
</svg>
