<svg width="24" height="24" viewBox="0 0 24 24" fill="none" xmlns="http://www.w3.org/2000/svg">
<path d="M20.2959 7.455L15.0459 2.205C14.9414 2.10039 14.8174 2.0174 14.6808 1.96078C14.5442 1.90416 14.3978 1.87501 14.25 1.875H5.24997C4.75269 1.875 4.27578 2.07254 3.92415 2.42417C3.57251 2.77581 3.37497 3.25272 3.37497 3.75V11.625C3.37497 11.9234 3.4935 12.2095 3.70448 12.4205C3.91545 12.6315 4.2016 12.75 4.49997 12.75C4.79834 12.75 5.08449 12.6315 5.29547 12.4205C5.50644 12.2095 5.62497 11.9234 5.62497 11.625V4.125H12.75V8.625C12.75 8.92337 12.8685 9.20952 13.0795 9.4205C13.2905 9.63147 13.5766 9.75 13.875 9.75H18.375V19.875H16.875C16.5766 19.875 16.2905 19.9935 16.0795 20.2045C15.8685 20.4155 15.75 20.7016 15.75 21C15.75 21.2984 15.8685 21.5845 16.0795 21.7955C16.2905 22.0065 16.5766 22.125 16.875 22.125H18.75C19.2473 22.125 19.7242 21.9275 20.0758 21.5758C20.4274 21.2242 20.625 20.7473 20.625 20.25V8.25C20.625 7.95187 20.5066 7.66593 20.2959 7.455ZM15 5.34375L17.1562 7.5H15V5.34375ZM10.125 11.625C9.12972 11.6248 8.15491 11.9075 7.31419 12.4402C6.47347 12.9728 5.80147 13.7335 5.37653 14.6334C4.40619 14.6986 3.49913 15.1383 2.84677 15.8595C2.1944 16.5808 1.84776 17.5273 1.87999 18.4993C1.91223 19.4713 2.32081 20.3927 3.01953 21.0692C3.71825 21.7457 4.65244 22.1242 5.62497 22.125H10.125C11.5174 22.125 12.8527 21.5719 13.8373 20.5873C14.8218 19.6027 15.375 18.2674 15.375 16.875C15.375 15.4826 14.8218 14.1473 13.8373 13.1627C12.8527 12.1781 11.5174 11.625 10.125 11.625ZM10.125 19.875H5.62497C5.28168 19.8749 4.94881 19.757 4.68194 19.5411C4.41507 19.3252 4.23034 19.0242 4.15859 18.6885C4.08684 18.3528 4.13241 18.0026 4.2877 17.6965C4.44299 17.3903 4.69859 17.1467 5.01185 17.0062C5.1218 17.2246 5.29991 17.4013 5.51922 17.5094C5.73852 17.6175 5.98709 17.6513 6.22728 17.6055C6.46747 17.5597 6.68621 17.4369 6.85039 17.2557C7.01456 17.0745 7.11523 16.8448 7.13716 16.6012C7.15225 16.4335 7.18109 16.2674 7.22341 16.1044C7.23466 16.0706 7.24403 16.0369 7.25247 16.0022C7.41411 15.4706 7.72019 14.9944 8.13658 14.6266C8.55297 14.2588 9.06333 14.0138 9.61076 13.919C10.1582 13.8242 10.7212 13.8833 11.237 14.0896C11.7529 14.296 12.2013 14.6416 12.5323 15.0878C12.8632 15.534 13.0638 16.0634 13.1116 16.617C13.1594 17.1705 13.0525 17.7264 12.8029 18.2228C12.5533 18.7191 12.1708 19.1364 11.6979 19.4282C11.2251 19.7199 10.6806 19.8746 10.125 19.875Z" fill="#130032"/>
</svg>
