<svg width="24" height="24" viewBox="0 0 24 24" fill="none" xmlns="http://www.w3.org/2000/svg">
<path d="M20.2959 7.45406L15.0459 2.20406C14.9414 2.09962 14.8173 2.01681 14.6807 1.96035C14.5441 1.90389 14.3978 1.87488 14.25 1.875H5.25C4.75272 1.875 4.27581 2.07254 3.92417 2.42418C3.57254 2.77581 3.375 3.25272 3.375 3.75V10.125C3.375 10.4234 3.49353 10.7095 3.7045 10.9205C3.91548 11.1315 4.20163 11.25 4.5 11.25C4.79837 11.25 5.08452 11.1315 5.2955 10.9205C5.50647 10.7095 5.625 10.4234 5.625 10.125V4.125H12.75V8.625C12.75 8.92337 12.8685 9.20952 13.0795 9.4205C13.2905 9.63147 13.5766 9.75 13.875 9.75H18.375V19.875H11.625C11.3266 19.875 11.0405 19.9935 10.8295 20.2045C10.6185 20.4155 10.5 20.7016 10.5 21C10.5 21.2984 10.6185 21.5845 10.8295 21.7955C11.0405 22.0065 11.3266 22.125 11.625 22.125H18.75C19.2473 22.125 19.7242 21.9275 20.0758 21.5758C20.4275 21.2242 20.625 20.7473 20.625 20.25V8.25C20.6251 8.10222 20.5961 7.95586 20.5397 7.81929C20.4832 7.68272 20.4004 7.55862 20.2959 7.45406ZM15 5.34375L17.1562 7.5H15V5.34375ZM4.5 16.875C4.5 17.6878 5.01562 18.375 5.625 18.375C5.75535 18.3707 5.88348 18.34 6.0016 18.2848C6.11973 18.2295 6.2254 18.1508 6.31219 18.0534C6.51856 17.8379 6.80211 17.7131 7.10047 17.7066C7.39883 17.7001 7.68755 17.8124 7.90313 18.0187C8.1187 18.2251 8.24346 18.5087 8.24996 18.807C8.25647 19.1054 8.14418 19.3941 7.93781 19.6097C7.64182 19.9276 7.28398 20.1816 6.88627 20.3562C6.48855 20.5308 6.05934 20.6223 5.625 20.625C3.76406 20.625 2.25 18.9431 2.25 16.875C2.25 14.8069 3.76406 13.125 5.625 13.125C6.05934 13.1277 6.48855 13.2192 6.88627 13.3938C7.28398 13.5684 7.64182 13.8224 7.93781 14.1403C8.14418 14.3559 8.25647 14.6446 8.24996 14.943C8.24346 15.2413 8.1187 15.5249 7.90313 15.7313C7.68755 15.9376 7.39883 16.0499 7.10047 16.0434C6.80211 16.0369 6.51856 15.9121 6.31219 15.6966C6.2254 15.5992 6.11973 15.5205 6.0016 15.4652C5.88348 15.41 5.75535 15.3793 5.625 15.375C5.01562 15.375 4.5 16.0622 4.5 16.875Z" fill="#130032"/>
</svg>
