<svg width="24" height="24" viewBox="0 0 24 24" fill="none" xmlns="http://www.w3.org/2000/svg">
<path d="M4.49959 11.25C4.79796 11.25 5.08411 11.1315 5.29509 10.9205C5.50607 10.7095 5.62459 10.4234 5.62459 10.125V4.125H12.7496V8.625C12.7496 8.92337 12.8681 9.20952 13.0791 9.4205C13.2901 9.63147 13.5762 9.75 13.8746 9.75H18.3746V10.125C18.3746 10.4234 18.4931 10.7095 18.7041 10.9205C18.9151 11.1315 19.2012 11.25 19.4996 11.25C19.798 11.25 20.0841 11.1315 20.2951 10.9205C20.5061 10.7095 20.6246 10.4234 20.6246 10.125V8.25C20.6246 7.95187 20.5062 7.66593 20.2955 7.455L15.0455 2.205C14.9411 2.10039 14.817 2.0174 14.6804 1.96078C14.5438 1.90416 14.3974 1.87501 14.2496 1.875H5.24959C4.75231 1.875 4.2754 2.07254 3.92377 2.42417C3.57214 2.77581 3.37459 3.25272 3.37459 3.75V10.125C3.37459 10.4234 3.49312 10.7095 3.7041 10.9205C3.91507 11.1315 4.20122 11.25 4.49959 11.25ZM17.1558 7.5H14.9996V5.34375L17.1558 7.5ZM22.1246 19.5C22.1246 19.7984 22.0061 20.0845 21.7951 20.2955C21.5841 20.5065 21.298 20.625 20.9996 20.625H18.3746C18.0762 20.625 17.7901 20.5065 17.5791 20.2955C17.3681 20.0845 17.2496 19.7984 17.2496 19.5V14.25C17.2496 13.9516 17.3681 13.6655 17.5791 13.4545C17.7901 13.2435 18.0762 13.125 18.3746 13.125C18.673 13.125 18.9591 13.2435 19.1701 13.4545C19.3811 13.6655 19.4996 13.9516 19.4996 14.25V18.375H20.9996C21.298 18.375 21.5841 18.4935 21.7951 18.7045C22.0061 18.9155 22.1246 19.2016 22.1246 19.5ZM8.60397 18.45C8.56733 18.79 8.45586 19.1176 8.27755 19.4094C8.09925 19.7011 7.85854 19.9498 7.57272 20.1375C7.01022 20.5125 6.32959 20.6203 5.72303 20.6203C5.20904 20.617 4.69763 20.5473 4.20147 20.4131C4.05678 20.3755 3.92104 20.3095 3.80216 20.2189C3.68329 20.1282 3.58367 20.0148 3.50913 19.8852C3.43459 19.7557 3.38662 19.6125 3.36802 19.4642C3.34942 19.3159 3.36057 19.1654 3.40081 19.0214C3.44106 18.8774 3.50959 18.7429 3.6024 18.6257C3.69522 18.5086 3.81045 18.4111 3.94138 18.3389C4.07231 18.2668 4.2163 18.2215 4.36494 18.2056C4.51358 18.1897 4.66389 18.2037 4.80709 18.2466C5.44553 18.42 6.21334 18.3975 6.34365 18.2522C6.35351 18.2311 6.36015 18.2087 6.36334 18.1856C6.18147 18.0703 5.72397 17.9381 5.43709 17.8547C4.93178 17.7084 4.40584 17.5575 3.96053 17.2678C3.24615 16.8066 2.90959 16.1006 3.01365 15.2812C3.04837 14.9473 3.15604 14.6251 3.32906 14.3374C3.50208 14.0497 3.73622 13.8035 4.0149 13.6163C4.58397 13.2328 5.34334 13.0697 6.27428 13.1316C6.65608 13.1583 7.03475 13.2188 7.40584 13.3125C7.69117 13.3912 7.93398 13.5792 8.08163 13.8358C8.22929 14.0923 8.2699 14.3967 8.19467 14.6829C8.11943 14.9692 7.93441 15.2143 7.6797 15.3651C7.425 15.5158 7.12113 15.5602 6.83397 15.4884C6.23865 15.3356 5.55803 15.3478 5.3274 15.4575C5.5705 15.5513 5.81834 15.6324 6.0699 15.7003C6.58272 15.8484 7.16397 16.0162 7.6449 16.3397C8.37428 16.8309 8.71834 17.5809 8.60397 18.45ZM15.729 18.6375C15.9918 18.0872 16.127 17.4848 16.1246 16.875C16.1246 14.8125 14.6105 13.125 12.7496 13.125C10.8887 13.125 9.37459 14.8125 9.37459 16.875C9.37459 18.9375 10.8887 20.625 12.7496 20.625C13.2478 20.6248 13.7384 20.5035 14.1793 20.2716L14.2046 20.2959C14.4159 20.5073 14.7026 20.626 15.0015 20.626C15.3004 20.626 15.587 20.5073 15.7983 20.2959C16.0097 20.0846 16.1284 19.7979 16.1284 19.4991C16.1284 19.2002 16.0097 18.9135 15.7983 18.7022L15.729 18.6375ZM11.6246 16.875C11.6246 16.0622 12.1402 15.375 12.7496 15.375C13.359 15.375 13.8746 16.0622 13.8746 16.875C13.8746 16.8966 13.8746 16.9181 13.8746 16.9397C13.6805 16.872 13.4716 16.8587 13.2705 16.9014C13.0694 16.9441 12.8839 17.041 12.734 17.1817C12.5842 17.3224 12.4757 17.5014 12.4205 17.6994C12.3652 17.8974 12.3652 18.1067 12.4205 18.3047C11.964 18.1087 11.6246 17.5312 11.6246 16.875Z" fill="#130032"/>
</svg>
