<svg width="24" height="24" viewBox="0 0 24 24" fill="none" xmlns="http://www.w3.org/2000/svg">
<path d="M9.375 14.25V19.5C9.375 19.7984 9.25647 20.0845 9.0455 20.2955C8.83452 20.5065 8.54837 20.625 8.25 20.625C7.95163 20.625 7.66548 20.5065 7.4545 20.2955C7.24353 20.0845 7.125 19.7984 7.125 19.5V17.8191L6.54656 18.645C6.44283 18.7932 6.3049 18.9141 6.14448 18.9976C5.98406 19.0811 5.80586 19.1248 5.625 19.1248C5.44414 19.1248 5.26594 19.0811 5.10552 18.9976C4.9451 18.9141 4.80717 18.7932 4.70344 18.645L4.125 17.8191V19.5C4.125 19.7984 4.00647 20.0845 3.7955 20.2955C3.58452 20.5065 3.29837 20.625 3 20.625C2.70163 20.625 2.41548 20.5065 2.2045 20.2955C1.99353 20.0845 1.875 19.7984 1.875 19.5V14.25C1.87505 14.0108 1.95137 13.7778 2.09286 13.5849C2.23436 13.392 2.43367 13.2492 2.66184 13.1773C2.89001 13.1054 3.13517 13.1081 3.3617 13.185C3.58823 13.2619 3.78435 13.409 3.92156 13.605L5.625 16.0378L7.32844 13.605C7.46565 13.409 7.66177 13.2619 7.8883 13.185C8.11483 13.1081 8.35999 13.1054 8.58816 13.1773C8.81633 13.2492 9.01564 13.392 9.15714 13.5849C9.29863 13.7778 9.37495 14.0108 9.375 14.25ZM17.25 16.875C17.25 17.3675 17.153 17.8551 16.9645 18.3101C16.7761 18.765 16.4999 19.1784 16.1517 19.5266C15.8034 19.8749 15.39 20.1511 14.9351 20.3395C14.4801 20.528 13.9925 20.625 13.5 20.625H12C11.7016 20.625 11.4155 20.5065 11.2045 20.2955C10.9935 20.0845 10.875 19.7984 10.875 19.5V14.25C10.875 13.9516 10.9935 13.6655 11.2045 13.4545C11.4155 13.2435 11.7016 13.125 12 13.125H13.5C13.9925 13.125 14.4801 13.222 14.9351 13.4105C15.39 13.5989 15.8034 13.8751 16.1517 14.2233C16.4999 14.5716 16.7761 14.985 16.9645 15.4399C17.153 15.8949 17.25 16.3825 17.25 16.875ZM15 16.875C15 16.4772 14.842 16.0956 14.5607 15.8143C14.2794 15.533 13.8978 15.375 13.5 15.375H13.125V18.375H13.5C13.8978 18.375 14.2794 18.217 14.5607 17.9357C14.842 17.6544 15 17.2728 15 16.875ZM20.625 8.25V21C20.625 21.2984 20.5065 21.5845 20.2955 21.7955C20.0845 22.0065 19.7984 22.125 19.5 22.125C19.2016 22.125 18.9155 22.0065 18.7045 21.7955C18.4935 21.5845 18.375 21.2984 18.375 21V9.75H13.875C13.5766 9.75 13.2905 9.63147 13.0795 9.4205C12.8685 9.20952 12.75 8.92337 12.75 8.625V4.125H5.625V10.125C5.625 10.4234 5.50647 10.7095 5.2955 10.9205C5.08452 11.1315 4.79837 11.25 4.5 11.25C4.20163 11.25 3.91548 11.1315 3.7045 10.9205C3.49353 10.7095 3.375 10.4234 3.375 10.125V3.75C3.375 3.25272 3.57254 2.77581 3.92417 2.42417C4.27581 2.07254 4.75272 1.875 5.25 1.875H14.25C14.3978 1.87501 14.5442 1.90416 14.6808 1.96078C14.8174 2.0174 14.9415 2.10039 15.0459 2.205L20.2959 7.455C20.5066 7.66593 20.625 7.95187 20.625 8.25ZM15 7.5H17.1562L15 5.34375V7.5Z" fill="#130032"/>
</svg>
