<svg width="24" height="24" viewBox="0 0 24 24" fill="none" xmlns="http://www.w3.org/2000/svg">
<path d="M8.18454 14.625L6.30954 19.875C6.23146 20.0935 6.08776 20.2824 5.89811 20.416C5.70847 20.5497 5.48215 20.6214 5.25016 20.6214C5.01817 20.6214 4.79186 20.5497 4.60221 20.416C4.41256 20.2824 4.26886 20.0935 4.19079 19.875L2.31579 14.625C2.232 14.3481 2.25813 14.0495 2.38874 13.7913C2.51936 13.5332 2.74443 13.3352 3.01718 13.2387C3.28992 13.1421 3.58938 13.1544 3.85334 13.2729C4.11729 13.3914 4.32544 13.607 4.43454 13.875L5.25016 16.155L6.06579 13.875C6.17488 13.607 6.38303 13.3914 6.64699 13.2729C6.91094 13.1544 7.2104 13.1421 7.48315 13.2387C7.7559 13.3352 7.98096 13.5332 8.11158 13.7913C8.2422 14.0495 8.26833 14.3481 8.18454 14.625ZM19.8752 18.375H18.0002V18H19.1252C19.4235 18 19.7097 17.8815 19.9207 17.6705C20.1316 17.4595 20.2502 17.1734 20.2502 16.875C20.2502 16.5766 20.1316 16.2905 19.9207 16.0795C19.7097 15.8685 19.4235 15.75 19.1252 15.75H18.0002V15.375H19.8752C20.1735 15.375 20.4597 15.2565 20.6707 15.0455C20.8816 14.8345 21.0002 14.5484 21.0002 14.25C21.0002 13.9516 20.8816 13.6655 20.6707 13.4545C20.4597 13.2435 20.1735 13.125 19.8752 13.125H16.8752C16.5768 13.125 16.2906 13.2435 16.0797 13.4545C15.8687 13.6655 15.7502 13.9516 15.7502 14.25V19.5C15.7502 19.7984 15.8687 20.0845 16.0797 20.2955C16.2906 20.5065 16.5768 20.625 16.8752 20.625H19.8752C20.1735 20.625 20.4597 20.5065 20.6707 20.2955C20.8816 20.0845 21.0002 19.7984 21.0002 19.5C21.0002 19.2016 20.8816 18.9155 20.6707 18.7045C20.4597 18.4935 20.1735 18.375 19.8752 18.375ZM13.5002 13.125C13.2018 13.125 12.9156 13.2435 12.7047 13.4545C12.4937 13.6655 12.3752 13.9516 12.3752 14.25V17.8125C12.3752 17.9617 12.3159 18.1048 12.2104 18.2102C12.1049 18.3157 11.9618 18.375 11.8127 18.375C11.6635 18.375 11.5204 18.3157 11.4149 18.2102C11.3094 18.1048 11.2502 17.9617 11.2502 17.8125V14.25C11.2502 13.9516 11.1316 13.6655 10.9207 13.4545C10.7097 13.2435 10.4235 13.125 10.1252 13.125C9.82679 13.125 9.54064 13.2435 9.32967 13.4545C9.11869 13.6655 9.00016 13.9516 9.00016 14.25V17.8125C9.00016 18.5584 9.29648 19.2738 9.82392 19.8012C10.3514 20.3287 11.0667 20.625 11.8127 20.625C12.5586 20.625 13.274 20.3287 13.8014 19.8012C14.3288 19.2738 14.6252 18.5584 14.6252 17.8125V14.25C14.6252 13.9516 14.5066 13.6655 14.2957 13.4545C14.0847 13.2435 13.7985 13.125 13.5002 13.125ZM3.37516 10.125V3.75C3.37516 3.25272 3.57271 2.77581 3.92434 2.42417C4.27597 2.07254 4.75288 1.875 5.25016 1.875H14.2502C14.398 1.87501 14.5444 1.90416 14.681 1.96078C14.8175 2.0174 14.9416 2.10039 15.0461 2.205L20.2961 7.455C20.5068 7.66593 20.6251 7.95187 20.6252 8.25V10.125C20.6252 10.4234 20.5066 10.7095 20.2957 10.9205C20.0847 11.1315 19.7985 11.25 19.5002 11.25C19.2018 11.25 18.9156 11.1315 18.7047 10.9205C18.4937 10.7095 18.3752 10.4234 18.3752 10.125V9.75H13.8752C13.5768 9.75 13.2906 9.63147 13.0797 9.4205C12.8687 9.20952 12.7502 8.92337 12.7502 8.625V4.125H5.62516V10.125C5.62516 10.4234 5.50663 10.7095 5.29566 10.9205C5.08468 11.1315 4.79853 11.25 4.50016 11.25C4.20179 11.25 3.91564 11.1315 3.70467 10.9205C3.49369 10.7095 3.37516 10.4234 3.37516 10.125ZM15.0002 7.5H17.1564L15.0002 5.34375V7.5Z" fill="#130032"/>
</svg>
