<svg width="24" height="24" viewBox="0 0 24 24" fill="none" xmlns="http://www.w3.org/2000/svg">
<path d="M10.6872 13.6256C10.5845 13.4709 10.4452 13.344 10.2817 13.2562C10.1181 13.1684 9.93531 13.1225 9.74967 13.1225C9.56402 13.1225 9.38126 13.1684 9.21768 13.2562C9.0541 13.344 8.91479 13.4709 8.81217 13.6256L7.40592 15.7331L6.77779 14.7872C6.67412 14.632 6.53346 14.505 6.36847 14.4176C6.20349 14.3303 6.01937 14.2854 5.83271 14.287C5.64605 14.2886 5.46271 14.3366 5.29923 14.4267C5.13575 14.5168 4.99725 14.6462 4.89623 14.8031L1.30373 20.3916C1.19447 20.5615 1.13299 20.7577 1.12573 20.9596C1.11847 21.1615 1.1657 21.3616 1.26247 21.5389C1.35924 21.7162 1.50197 21.8642 1.67568 21.9674C1.84938 22.0705 2.04765 22.1249 2.24967 22.125H14.2497C14.4535 22.1253 14.6535 22.0702 14.8285 21.9657C15.0034 21.8611 15.1467 21.711 15.2429 21.5314C15.3392 21.3518 15.3848 21.1494 15.375 20.9458C15.3652 20.7422 15.3003 20.5452 15.1872 20.3756L10.6872 13.6256ZM4.31217 19.875L5.85904 17.4656L6.4731 18.3853C6.57573 18.54 6.71504 18.6669 6.87862 18.7547C7.04219 18.8425 7.22496 18.8884 7.4106 18.8884C7.59625 18.8884 7.77901 18.8425 7.94259 18.7547C8.10617 18.6669 8.24548 18.54 8.3481 18.3853L9.75435 16.2778L12.1478 19.875H4.31217ZM20.2956 7.45406L15.0456 2.20406C14.941 2.09962 14.8169 2.01681 14.6804 1.96035C14.5438 1.90389 14.3974 1.87488 14.2497 1.875H5.24967C4.75239 1.875 4.27547 2.07254 3.92384 2.42418C3.57221 2.77581 3.37467 3.25272 3.37467 3.75V11.625C3.37467 11.9234 3.49319 12.2095 3.70417 12.4205C3.91515 12.6315 4.2013 12.75 4.49967 12.75C4.79804 12.75 5.08418 12.6315 5.29516 12.4205C5.50614 12.2095 5.62467 11.9234 5.62467 11.625V4.125H12.7497V8.625C12.7497 8.92337 12.8682 9.20952 13.0792 9.4205C13.2902 9.63147 13.5763 9.75 13.8747 9.75H18.3747V19.875C18.0763 19.875 17.7901 19.9935 17.5792 20.2045C17.3682 20.4155 17.2497 20.7016 17.2497 21C17.2497 21.2984 17.3682 21.5845 17.5792 21.7955C17.7901 22.0065 18.0763 22.125 18.3747 22.125H18.7497C19.2469 22.125 19.7239 21.9275 20.0755 21.5758C20.4271 21.2242 20.6247 20.7473 20.6247 20.25V8.25C20.6248 8.10222 20.5958 7.95586 20.5393 7.81929C20.4829 7.68272 20.4 7.55862 20.2956 7.45406ZM14.9997 5.34375L17.1559 7.5H14.9997V5.34375Z" fill="#130032"/>
</svg>
