<svg width="24" height="24" viewBox="0 0 24 24" fill="none" xmlns="http://www.w3.org/2000/svg">
<path d="M11.25 15.75H10.875V15.375C10.875 14.5794 10.5589 13.8163 9.99632 13.2537C9.43371 12.6911 8.67065 12.375 7.875 12.375C7.07935 12.375 6.31629 12.6911 5.75368 13.2537C5.19107 13.8163 4.875 14.5794 4.875 15.375V15.75H4.5C4.20163 15.75 3.91548 15.8685 3.7045 16.0795C3.49353 16.2905 3.375 16.5766 3.375 16.875V21C3.375 21.2984 3.49353 21.5845 3.7045 21.7955C3.91548 22.0065 4.20163 22.125 4.5 22.125H11.25C11.5484 22.125 11.8345 22.0065 12.0455 21.7955C12.2565 21.5845 12.375 21.2984 12.375 21V16.875C12.375 16.5766 12.2565 16.2905 12.0455 16.0795C11.8345 15.8685 11.5484 15.75 11.25 15.75ZM7.125 15.375C7.125 15.1761 7.20402 14.9853 7.34467 14.8447C7.48532 14.704 7.67609 14.625 7.875 14.625C8.07391 14.625 8.26468 14.704 8.40533 14.8447C8.54598 14.9853 8.625 15.1761 8.625 15.375V15.75H7.125V15.375ZM10.125 19.875H5.625V18H10.125V19.875ZM20.2959 7.455L15.0459 2.205C14.9415 2.10039 14.8174 2.0174 14.6808 1.96078C14.5442 1.90416 14.3978 1.87501 14.25 1.875H5.25C4.75272 1.875 4.27581 2.07254 3.92417 2.42417C3.57254 2.77581 3.375 3.25272 3.375 3.75V10.125C3.375 10.4234 3.49353 10.7095 3.7045 10.9205C3.91548 11.1315 4.20163 11.25 4.5 11.25C4.79837 11.25 5.08452 11.1315 5.2955 10.9205C5.50647 10.7095 5.625 10.4234 5.625 10.125V4.125H12.75V8.625C12.75 8.92337 12.8685 9.20952 13.0795 9.4205C13.2905 9.63147 13.5766 9.75 13.875 9.75H18.375V19.875H15.375C15.0766 19.875 14.7905 19.9935 14.5795 20.2045C14.3685 20.4155 14.25 20.7016 14.25 21C14.25 21.2984 14.3685 21.5845 14.5795 21.7955C14.7905 22.0065 15.0766 22.125 15.375 22.125H18.75C19.2473 22.125 19.7242 21.9275 20.0758 21.5758C20.4275 21.2242 20.625 20.7473 20.625 20.25V8.25C20.625 7.95187 20.5066 7.66593 20.2959 7.455ZM15 5.34375L17.1562 7.5H15V5.34375Z" fill="#130032"/>
</svg>
