<svg width="24" height="24" viewBox="0 0 24 24" fill="none" xmlns="http://www.w3.org/2000/svg">
<path d="M20.2959 7.455L15.0459 2.205C14.9415 2.10039 14.8174 2.0174 14.6808 1.96078C14.5442 1.90416 14.3978 1.87501 14.25 1.875H5.25C4.75272 1.875 4.27581 2.07254 3.92417 2.42417C3.57254 2.77581 3.375 3.25272 3.375 3.75V20.25C3.375 20.7473 3.57254 21.2242 3.92417 21.5758C4.27581 21.9275 4.75272 22.125 5.25 22.125H18.75C19.2473 22.125 19.7242 21.9275 20.0758 21.5758C20.4275 21.2242 20.625 20.7473 20.625 20.25V8.25C20.625 7.95187 20.5066 7.66593 20.2959 7.455ZM17.1562 7.5H15V5.34375L17.1562 7.5ZM5.625 19.875V4.125H12.75V8.625C12.75 8.92337 12.8685 9.20952 13.0795 9.4205C13.2905 9.63147 13.5766 9.75 13.875 9.75H18.375V19.875H5.625ZM14.67 15.3291C15.0126 14.6106 15.0902 13.7942 14.8892 13.024C14.6881 12.2538 14.2214 11.5795 13.5713 11.1202C12.9213 10.6608 12.1298 10.446 11.3367 10.5136C10.5436 10.5813 9.79996 10.9271 9.23713 11.4899C8.67429 12.0528 8.3285 12.7964 8.26083 13.5895C8.19317 14.3826 8.40799 15.1741 8.86734 15.8241C9.32669 16.4742 10.001 16.941 10.7712 17.142C11.5413 17.343 12.3578 17.2654 13.0763 16.9228L14.2013 18.0478C14.4126 18.2592 14.6992 18.3779 14.9981 18.3779C15.297 18.3779 15.5837 18.2592 15.795 18.0478C16.0063 17.8365 16.1251 17.5498 16.1251 17.2509C16.1251 16.9521 16.0063 16.6654 15.795 16.4541L14.67 15.3291ZM10.5 13.875C10.5 13.6525 10.566 13.435 10.6896 13.25C10.8132 13.065 10.9889 12.9208 11.1945 12.8356C11.4 12.7505 11.6262 12.7282 11.8445 12.7716C12.0627 12.815 12.2632 12.9222 12.4205 13.0795C12.5778 13.2368 12.685 13.4373 12.7284 13.6555C12.7718 13.8738 12.7495 14.1 12.6644 14.3055C12.5792 14.5111 12.435 14.6868 12.25 14.8104C12.065 14.934 11.8475 15 11.625 15C11.3266 15 11.0405 14.8815 10.8295 14.6705C10.6185 14.4595 10.5 14.1734 10.5 13.875Z" fill="#130032"/>
</svg>
