<svg width="24" height="24" viewBox="0 0 24 24" fill="none" xmlns="http://www.w3.org/2000/svg">
<path d="M20.2959 7.45406L15.0459 2.20406C14.9414 2.09962 14.8173 2.01681 14.6807 1.96035C14.5441 1.90389 14.3978 1.87488 14.25 1.875H5.25C4.75272 1.875 4.27581 2.07254 3.92417 2.42418C3.57254 2.77581 3.375 3.25272 3.375 3.75V20.25C3.375 20.7473 3.57254 21.2242 3.92417 21.5758C4.27581 21.9275 4.75272 22.125 5.25 22.125H18.75C19.2473 22.125 19.7242 21.9275 20.0758 21.5758C20.4275 21.2242 20.625 20.7473 20.625 20.25V8.25C20.6251 8.10222 20.5961 7.95586 20.5397 7.81929C20.4832 7.68272 20.4004 7.55862 20.2959 7.45406ZM15 5.34375L17.1562 7.5H15V5.34375ZM5.625 19.875V4.125H12.75V8.625C12.75 8.92337 12.8685 9.20952 13.0795 9.4205C13.2905 9.63147 13.5766 9.75 13.875 9.75H18.375V19.875H5.625ZM15.375 14.25C15.375 14.5484 15.2565 14.8345 15.0455 15.0455C14.8345 15.2565 14.5484 15.375 14.25 15.375H13.125V16.5C13.125 16.7984 13.0065 17.0845 12.7955 17.2955C12.5845 17.5065 12.2984 17.625 12 17.625C11.7016 17.625 11.4155 17.5065 11.2045 17.2955C10.9935 17.0845 10.875 16.7984 10.875 16.5V15.375H9.75C9.45163 15.375 9.16548 15.2565 8.9545 15.0455C8.74353 14.8345 8.625 14.5484 8.625 14.25C8.625 13.9516 8.74353 13.6655 8.9545 13.4545C9.16548 13.2435 9.45163 13.125 9.75 13.125H10.875V12C10.875 11.7016 10.9935 11.4155 11.2045 11.2045C11.4155 10.9935 11.7016 10.875 12 10.875C12.2984 10.875 12.5845 10.9935 12.7955 11.2045C13.0065 11.4155 13.125 11.7016 13.125 12V13.125H14.25C14.5484 13.125 14.8345 13.2435 15.0455 13.4545C15.2565 13.6655 15.375 13.9516 15.375 14.25Z" fill="#130032"/>
</svg>
