<svg width="24" height="24" viewBox="0 0 24 24" fill="none" xmlns="http://www.w3.org/2000/svg">
<path d="M4.5 14.25V19.5C4.5 19.7984 4.38147 20.0845 4.1705 20.2955C3.95952 20.5065 3.67337 20.625 3.375 20.625C3.07663 20.625 2.79048 20.5065 2.5795 20.2955C2.36853 20.0845 2.25 19.7984 2.25 19.5V14.25C2.25 13.9516 2.36853 13.6655 2.5795 13.4545C2.79048 13.2435 3.07663 13.125 3.375 13.125C3.67337 13.125 3.95952 13.2435 4.1705 13.4545C4.38147 13.6655 4.5 13.9516 4.5 14.25ZM11.25 13.125C10.9516 13.125 10.6655 13.2435 10.4545 13.4545C10.2435 13.6655 10.125 13.9516 10.125 14.25V15.9891L8.415 13.5938C8.27628 13.3998 8.07953 13.255 7.85315 13.1801C7.62677 13.1053 7.38246 13.1043 7.15548 13.1773C6.9285 13.2503 6.73059 13.3936 6.59031 13.5864C6.45003 13.7792 6.37463 14.0116 6.375 14.25V19.5C6.375 19.7984 6.49353 20.0845 6.7045 20.2955C6.91548 20.5065 7.20163 20.625 7.5 20.625C7.79837 20.625 8.08452 20.5065 8.2955 20.2955C8.50647 20.0845 8.625 19.7984 8.625 19.5V17.7609L10.335 20.1562C10.4393 20.3015 10.5767 20.4197 10.7358 20.5013C10.8949 20.5828 11.0712 20.6252 11.25 20.625C11.3664 20.6248 11.4822 20.6068 11.5931 20.5716C11.8202 20.4988 12.0183 20.3559 12.1588 20.1633C12.2993 19.9707 12.375 19.7384 12.375 19.5V14.25C12.375 13.9516 12.2565 13.6655 12.0455 13.4545C11.8345 13.2435 11.5484 13.125 11.25 13.125ZM15.375 13.125C15.0766 13.125 14.7905 13.2435 14.5795 13.4545C14.3685 13.6655 14.25 13.9516 14.25 14.25V19.5C14.25 19.7984 14.3685 20.0845 14.5795 20.2955C14.7905 20.5065 15.0766 20.625 15.375 20.625C15.6734 20.625 15.9595 20.5065 16.1705 20.2955C16.3815 20.0845 16.5 19.7984 16.5 19.5V14.25C16.5 13.9516 16.3815 13.6655 16.1705 13.4545C15.9595 13.2435 15.6734 13.125 15.375 13.125ZM20.625 8.25V21C20.625 21.2984 20.5065 21.5845 20.2955 21.7955C20.0845 22.0065 19.7984 22.125 19.5 22.125C19.2016 22.125 18.9155 22.0065 18.7045 21.7955C18.4935 21.5845 18.375 21.2984 18.375 21V9.75H13.875C13.5766 9.75 13.2905 9.63147 13.0795 9.4205C12.8685 9.20952 12.75 8.92337 12.75 8.625V4.125H5.625V10.125C5.625 10.4234 5.50647 10.7095 5.2955 10.9205C5.08452 11.1315 4.79837 11.25 4.5 11.25C4.20163 11.25 3.91548 11.1315 3.7045 10.9205C3.49353 10.7095 3.375 10.4234 3.375 10.125V3.75C3.375 3.25272 3.57254 2.77581 3.92417 2.42417C4.27581 2.07254 4.75272 1.875 5.25 1.875H14.25C14.3978 1.87501 14.5442 1.90416 14.6808 1.96078C14.8174 2.0174 14.9415 2.10039 15.0459 2.205L20.2959 7.455C20.5066 7.66593 20.625 7.95187 20.625 8.25ZM15 7.5H17.1562L15 5.34375V7.5Z" fill="#130032"/>
</svg>
