<svg width="24" height="24" viewBox="0 0 24 24" fill="none" xmlns="http://www.w3.org/2000/svg">
<path d="M20.2959 7.45406L15.0459 2.20406C14.9414 2.09962 14.8173 2.01681 14.6807 1.96035C14.5441 1.90389 14.3978 1.87488 14.25 1.875H5.25C4.75272 1.875 4.27581 2.07254 3.92417 2.42418C3.57254 2.77581 3.375 3.25272 3.375 3.75V10.125C3.375 10.4234 3.49353 10.7095 3.7045 10.9205C3.91548 11.1315 4.20163 11.25 4.5 11.25C4.79837 11.25 5.08452 11.1315 5.2955 10.9205C5.50647 10.7095 5.625 10.4234 5.625 10.125V4.125H12.75V8.625C12.75 8.92337 12.8685 9.20952 13.0795 9.4205C13.2905 9.63147 13.5766 9.75 13.875 9.75H18.375V21C18.375 21.2984 18.4935 21.5845 18.7045 21.7955C18.9155 22.0065 19.2016 22.125 19.5 22.125C19.7984 22.125 20.0845 22.0065 20.2955 21.7955C20.5065 21.5845 20.625 21.2984 20.625 21V8.25C20.6251 8.10222 20.5961 7.95586 20.5397 7.81929C20.4832 7.68272 20.4004 7.55862 20.2959 7.45406ZM15 5.34375L17.1562 7.5H15V5.34375ZM3.75 16.875C3.75 17.6878 4.26562 18.375 4.875 18.375C5.00535 18.3707 5.13348 18.34 5.2516 18.2848C5.36973 18.2295 5.4754 18.1508 5.56219 18.0534C5.76856 17.8379 6.05211 17.7131 6.35047 17.7066C6.64883 17.7001 6.93755 17.8124 7.15313 18.0187C7.3687 18.2251 7.49346 18.5087 7.49996 18.807C7.50647 19.1054 7.39418 19.3941 7.18781 19.6097C6.89182 19.9276 6.53398 20.1816 6.13627 20.3562C5.73855 20.5308 5.30934 20.6223 4.875 20.625C3.01406 20.625 1.5 18.9431 1.5 16.875C1.5 14.8069 3.01406 13.125 4.875 13.125C5.30934 13.1277 5.73855 13.2192 6.13627 13.3938C6.53398 13.5684 6.89182 13.8224 7.18781 14.1403C7.39418 14.3559 7.50647 14.6446 7.49996 14.943C7.49346 15.2413 7.3687 15.5249 7.15313 15.7313C6.93755 15.9376 6.64883 16.0499 6.35047 16.0434C6.05211 16.0369 5.76856 15.9121 5.56219 15.6966C5.4754 15.5992 5.36973 15.5205 5.2516 15.4652C5.13348 15.41 5.00535 15.3793 4.875 15.375C4.26562 15.375 3.75 16.0622 3.75 16.875ZM16.125 16.125C16.4234 16.125 16.7095 16.0065 16.9205 15.7955C17.1315 15.5845 17.25 15.2984 17.25 15C17.25 14.7016 17.1315 14.4155 16.9205 14.2045C16.7095 13.9935 16.4234 13.875 16.125 13.875H15.75V13.5C15.75 13.2016 15.6315 12.9155 15.4205 12.7045C15.2095 12.4935 14.9234 12.375 14.625 12.375C14.3266 12.375 14.0405 12.4935 13.8295 12.7045C13.6185 12.9155 13.5 13.2016 13.5 13.5V13.875H12.375V13.5C12.375 13.2016 12.2565 12.9155 12.0455 12.7045C11.8345 12.4935 11.5484 12.375 11.25 12.375C10.9516 12.375 10.6655 12.4935 10.4545 12.7045C10.2435 12.9155 10.125 13.2016 10.125 13.5V13.875H9.75C9.45163 13.875 9.16548 13.9935 8.9545 14.2045C8.74353 14.4155 8.625 14.7016 8.625 15C8.625 15.2984 8.74353 15.5845 8.9545 15.7955C9.16548 16.0065 9.45163 16.125 9.75 16.125H10.125V17.25H9.75C9.45163 17.25 9.16548 17.3685 8.9545 17.5795C8.74353 17.7905 8.625 18.0766 8.625 18.375C8.625 18.6734 8.74353 18.9595 8.9545 19.1705C9.16548 19.3815 9.45163 19.5 9.75 19.5H10.125V19.875C10.125 20.1734 10.2435 20.4595 10.4545 20.6705C10.6655 20.8815 10.9516 21 11.25 21C11.5484 21 11.8345 20.8815 12.0455 20.6705C12.2565 20.4595 12.375 20.1734 12.375 19.875V19.5H13.5V19.875C13.5 20.1734 13.6185 20.4595 13.8295 20.6705C14.0405 20.8815 14.3266 21 14.625 21C14.9234 21 15.2095 20.8815 15.4205 20.6705C15.6315 20.4595 15.75 20.1734 15.75 19.875V19.5H16.125C16.4234 19.5 16.7095 19.3815 16.9205 19.1705C17.1315 18.9595 17.25 18.6734 17.25 18.375C17.25 18.0766 17.1315 17.7905 16.9205 17.5795C16.7095 17.3685 16.4234 17.25 16.125 17.25H15.75V16.125H16.125ZM13.5 17.25H12.375V16.125H13.5V17.25Z" fill="#130032"/>
</svg>
