<svg width="24" height="24" viewBox="0 0 24 24" fill="none" xmlns="http://www.w3.org/2000/svg">
<path d="M4.49979 11.25C4.79816 11.25 5.0843 11.1315 5.29528 10.9205C5.50626 10.7095 5.62479 10.4234 5.62479 10.125V4.125H12.7498V8.625C12.7498 8.92337 12.8683 9.20952 13.0793 9.4205C13.2903 9.63147 13.5764 9.75 13.8748 9.75H18.3748V10.125C18.3748 10.4234 18.4933 10.7095 18.7043 10.9205C18.9153 11.1315 19.2014 11.25 19.4998 11.25C19.7982 11.25 20.0843 11.1315 20.2953 10.9205C20.5063 10.7095 20.6248 10.4234 20.6248 10.125V8.25C20.6248 7.95187 20.5064 7.66593 20.2957 7.455L15.0457 2.205C14.9412 2.10039 14.8172 2.0174 14.6806 1.96078C14.544 1.90416 14.3976 1.87501 14.2498 1.875H5.24979C4.75251 1.875 4.27559 2.07254 3.92396 2.42417C3.57233 2.77581 3.37479 3.25272 3.37479 3.75V10.125C3.37479 10.4234 3.49331 10.7095 3.70429 10.9205C3.91527 11.1315 4.20142 11.25 4.49979 11.25ZM17.156 7.5H14.9998V5.34375L17.156 7.5ZM8.22916 18.45C8.19304 18.7895 8.08238 19.1167 7.90508 19.4085C7.72778 19.7002 7.48823 19.9491 7.20354 20.1375C6.64104 20.5125 5.95947 20.6203 5.35291 20.6203C4.83893 20.617 4.32752 20.5473 3.83135 20.4131C3.68667 20.3755 3.55092 20.3095 3.43205 20.2189C3.31317 20.1282 3.21356 20.0148 3.13901 19.8852C3.06447 19.7557 3.0165 19.6125 2.9979 19.4642C2.9793 19.3159 2.99045 19.1654 3.03069 19.0214C3.07094 18.8774 3.13947 18.7429 3.23228 18.6257C3.3251 18.5086 3.44034 18.4111 3.57126 18.3389C3.70219 18.2668 3.84618 18.2215 3.99482 18.2056C4.14346 18.1897 4.29378 18.2037 4.43697 18.2466C5.07635 18.42 5.84322 18.3975 5.97354 18.2522C5.98339 18.2311 5.99003 18.2087 5.99322 18.1856C5.81135 18.0703 5.35385 17.9381 5.06697 17.8547C4.56166 17.7084 4.03572 17.5575 3.59041 17.2678C2.87604 16.8066 2.53947 16.1006 2.64354 15.2812C2.67825 14.9473 2.78593 14.6251 2.95895 14.3374C3.13197 14.0497 3.3661 13.8035 3.64479 13.6163C4.21385 13.2328 4.97322 13.0706 5.90416 13.1316C6.28438 13.1586 6.66148 13.2191 7.03104 13.3125C7.31636 13.3912 7.55917 13.5792 7.70683 13.8358C7.85449 14.0923 7.8951 14.3967 7.81986 14.6829C7.74463 14.9692 7.5596 15.2143 7.3049 15.3651C7.05019 15.5158 6.74633 15.5602 6.45916 15.4884C5.86385 15.3356 5.18322 15.3469 4.9526 15.4575C5.1957 15.5513 5.44353 15.6324 5.6951 15.7003C6.20791 15.8484 6.78916 16.0162 7.2701 16.3397C7.99948 16.8309 8.34354 17.5809 8.22916 18.45ZM14.5592 14.625L12.6842 19.875C12.6061 20.0935 12.4624 20.2824 12.2727 20.416C12.0831 20.5497 11.8568 20.6214 11.6248 20.6214C11.3928 20.6214 11.1665 20.5497 10.9768 20.416C10.7872 20.2824 10.6435 20.0935 10.5654 19.875L8.69041 14.625C8.63305 14.4841 8.60486 14.333 8.60754 14.1809C8.61023 14.0288 8.64374 13.8788 8.70605 13.74C8.76836 13.6013 8.85817 13.4765 8.97005 13.3735C9.08193 13.2704 9.21355 13.191 9.35697 13.1403C9.50038 13.0895 9.6526 13.0684 9.80441 13.0781C9.95623 13.0878 10.1045 13.1283 10.2402 13.197C10.376 13.2656 10.4964 13.3611 10.5942 13.4777C10.692 13.5942 10.7651 13.7294 10.8092 13.875L11.6248 16.1531L12.4404 13.875C12.4845 13.7294 12.5576 13.5942 12.6554 13.4777C12.7532 13.3611 12.8736 13.2656 13.0093 13.197C13.1451 13.1283 13.2933 13.0878 13.4452 13.0781C13.597 13.0684 13.7492 13.0895 13.8926 13.1403C14.036 13.191 14.1676 13.2704 14.2795 13.3735C14.3914 13.4765 14.4812 13.6013 14.5435 13.74C14.6058 13.8788 14.6393 14.0288 14.642 14.1809C14.6447 14.333 14.6165 14.4841 14.5592 14.625ZM20.9998 17.625V18.8316C20.9999 19.1215 20.888 19.4002 20.6876 19.6097C20.3916 19.9276 20.0338 20.1816 19.6361 20.3562C19.2383 20.5308 18.8091 20.6223 18.3748 20.625C16.5138 20.625 14.9998 18.9431 14.9998 16.875C14.9998 14.8069 16.5138 13.125 18.3748 13.125C19.0007 13.1268 19.6117 13.3162 20.1288 13.6688C20.2549 13.7498 20.3636 13.8551 20.4484 13.9787C20.5332 14.1023 20.5924 14.2415 20.6226 14.3883C20.6529 14.5351 20.6535 14.6865 20.6244 14.8335C20.5953 14.9805 20.5372 15.1202 20.4533 15.2445C20.3695 15.3687 20.2617 15.4749 20.1363 15.5569C20.0108 15.6389 19.8703 15.695 19.7228 15.722C19.5754 15.7489 19.4241 15.7461 19.2778 15.7137C19.1314 15.6813 18.993 15.62 18.8707 15.5334C18.7252 15.4318 18.5523 15.3766 18.3748 15.375C17.7654 15.375 17.2498 16.0622 17.2498 16.875C17.2498 17.6878 17.7654 18.375 18.3748 18.375C18.4607 18.3748 18.546 18.3616 18.6279 18.3356C18.4935 18.1707 18.4087 17.971 18.3832 17.7598C18.3577 17.5486 18.3926 17.3345 18.4839 17.1423C18.5751 16.9502 18.719 16.7878 18.8988 16.6741C19.0787 16.5604 19.287 16.5001 19.4998 16.5H19.8748C20.1732 16.5 20.4593 16.6185 20.6703 16.8295C20.8813 17.0405 20.9998 17.3266 20.9998 17.625Z" fill="#130032"/>
</svg>
