<svg width="24" height="24" viewBox="0 0 24 24" fill="none" xmlns="http://www.w3.org/2000/svg">
<path d="M18.75 1.875H5.25C4.75272 1.875 4.27581 2.07254 3.92417 2.42417C3.57254 2.77581 3.375 3.25272 3.375 3.75V20.25C3.375 20.7473 3.57254 21.2242 3.92417 21.5758C4.27581 21.9275 4.75272 22.125 5.25 22.125H18.75C19.2473 22.125 19.7242 21.9275 20.0758 21.5758C20.4275 21.2242 20.625 20.7473 20.625 20.25V3.75C20.625 3.25272 20.4275 2.77581 20.0758 2.42417C19.7242 2.07254 19.2473 1.875 18.75 1.875ZM18.375 19.875H5.625V4.125H18.375V19.875ZM7.125 7.5C7.125 7.20333 7.21297 6.91332 7.3778 6.66665C7.54262 6.41997 7.77689 6.22771 8.05097 6.11418C8.32506 6.00065 8.62666 5.97094 8.91764 6.02882C9.20861 6.0867 9.47588 6.22956 9.68566 6.43934C9.89544 6.64912 10.0383 6.91639 10.0962 7.20736C10.1541 7.49834 10.1244 7.79994 10.0108 8.07403C9.89729 8.34811 9.70503 8.58238 9.45835 8.7472C9.21168 8.91203 8.92167 9 8.625 9C8.22718 9 7.84564 8.84196 7.56434 8.56066C7.28304 8.27936 7.125 7.89782 7.125 7.5ZM7.125 16.5C7.125 16.2033 7.21297 15.9133 7.3778 15.6666C7.54262 15.42 7.77689 15.2277 8.05097 15.1142C8.32506 15.0006 8.62666 14.9709 8.91764 15.0288C9.20861 15.0867 9.47588 15.2296 9.68566 15.4393C9.89544 15.6491 10.0383 15.9164 10.0962 16.2074C10.1541 16.4983 10.1244 16.7999 10.0108 17.074C9.89729 17.3481 9.70503 17.5824 9.45835 17.7472C9.21168 17.912 8.92167 18 8.625 18C8.22718 18 7.84564 17.842 7.56434 17.5607C7.28304 17.2794 7.125 16.8978 7.125 16.5ZM7.125 12C7.125 11.7033 7.21297 11.4133 7.3778 11.1666C7.54262 10.92 7.77689 10.7277 8.05097 10.6142C8.32506 10.5006 8.62666 10.4709 8.91764 10.5288C9.20861 10.5867 9.47588 10.7296 9.68566 10.9393C9.89544 11.1491 10.0383 11.4164 10.0962 11.7074C10.1541 11.9983 10.1244 12.2999 10.0108 12.574C9.89729 12.8481 9.70503 13.0824 9.45835 13.2472C9.21168 13.412 8.92167 13.5 8.625 13.5C8.22718 13.5 7.84564 13.342 7.56434 13.0607C7.28304 12.7794 7.125 12.3978 7.125 12Z" fill="#130032"/>
</svg>
