<svg width="24" height="24" viewBox="0 0 24 24" fill="none" xmlns="http://www.w3.org/2000/svg">
<path d="M21.7501 19.8755H18.3564C20.2128 18.3746 21.4789 16.2657 21.9308 13.9216C22.3827 11.5775 21.9913 9.14909 20.8258 7.06565C19.6603 4.98222 17.7957 3.37793 15.5617 2.53635C13.3277 1.69478 10.8681 1.67013 8.61763 2.46674C6.36719 3.26336 4.47084 4.82995 3.2638 6.8896C2.05676 8.94925 1.61676 11.3693 2.02157 13.722C2.42637 16.0747 3.64992 18.2086 5.47594 19.7463C7.30195 21.2841 9.61284 22.1268 12.0001 22.1255H21.7501C22.0485 22.1255 22.3346 22.0069 22.5456 21.796C22.7566 21.585 22.8751 21.2988 22.8751 21.0005C22.8751 20.7021 22.7566 20.416 22.5456 20.205C22.3346 19.994 22.0485 19.8755 21.7501 19.8755ZM4.12512 12.0005C4.12512 10.4429 4.58698 8.92039 5.4523 7.62535C6.31761 6.33031 7.54752 5.32096 8.98649 4.72492C10.4255 4.12888 12.0089 3.97292 13.5365 4.27678C15.0641 4.58064 16.4672 5.33066 17.5686 6.432C18.6699 7.53334 19.4199 8.93653 19.7238 10.4641C20.0277 11.9917 19.8717 13.5751 19.2757 15.0141C18.6796 16.4531 17.6703 17.683 16.3752 18.5483C15.0802 19.4136 13.5576 19.8755 12.0001 19.8755C9.91223 19.8732 7.91049 19.0428 6.43412 17.5665C4.95776 16.0901 4.12735 14.0884 4.12512 12.0005ZM10.1251 7.87547C10.1251 7.50463 10.2351 7.14212 10.4411 6.83377C10.6471 6.52543 10.94 6.28511 11.2826 6.14319C11.6252 6.00128 12.0022 5.96415 12.3659 6.03649C12.7296 6.10884 13.0637 6.28742 13.3259 6.54964C13.5882 6.81187 13.7667 7.14596 13.8391 7.50967C13.9114 7.87339 13.8743 8.25039 13.7324 8.593C13.5905 8.93561 13.3502 9.22845 13.0418 9.43447C12.7335 9.6405 12.371 9.75047 12.0001 9.75047C11.5028 9.75047 11.0259 9.55292 10.6743 9.20129C10.3227 8.84966 10.1251 8.37275 10.1251 7.87547ZM12.0001 18.0005C11.6293 18.0005 11.2668 17.8905 10.9584 17.6845C10.6501 17.4784 10.4098 17.1856 10.2678 16.843C10.1259 16.5004 10.0888 16.1234 10.1611 15.7597C10.2335 15.396 10.4121 15.0619 10.6743 14.7996C10.9365 14.5374 11.2706 14.3588 11.6343 14.2865C11.998 14.2141 12.375 14.2513 12.7177 14.3932C13.0603 14.5351 13.3531 14.7754 13.5591 15.0838C13.7652 15.3921 13.8751 15.7546 13.8751 16.1255C13.8751 16.3717 13.8266 16.6155 13.7324 16.843C13.6382 17.0705 13.5001 17.2772 13.3259 17.4513C13.1518 17.6254 12.9451 17.7635 12.7177 17.8577C12.4902 17.952 12.2463 18.0005 12.0001 18.0005ZM14.2501 12.0005C14.2501 11.6296 14.3601 11.2671 14.5661 10.9588C14.7721 10.6504 15.065 10.4101 15.4076 10.2682C15.7502 10.1263 16.1272 10.0891 16.4909 10.1615C16.8546 10.2338 17.1887 10.4124 17.4509 10.6746C17.7132 10.9369 17.8917 11.271 17.9641 11.6347C18.0364 11.9984 17.9993 12.3754 17.8574 12.718C17.7155 13.0606 17.4752 13.3534 17.1668 13.5595C16.8585 13.7655 16.496 13.8755 16.1251 13.8755C15.6278 13.8755 15.1509 13.6779 14.7993 13.3263C14.4477 12.9747 14.2501 12.4977 14.2501 12.0005ZM9.75012 12.0005C9.75012 12.3713 9.64015 12.7338 9.43413 13.0422C9.2281 13.3505 8.93526 13.5908 8.59265 13.7327C8.25004 13.8747 7.87304 13.9118 7.50933 13.8394C7.14561 13.7671 6.81152 13.5885 6.54929 13.3263C6.28707 13.0641 6.10849 12.73 6.03615 12.3663C5.9638 12.0025 6.00093 11.6255 6.14285 11.2829C6.28476 10.9403 6.52508 10.6475 6.83343 10.4415C7.14177 10.2354 7.50428 10.1255 7.87512 10.1255C8.3724 10.1255 8.84931 10.323 9.20095 10.6746C9.55258 11.0263 9.75012 11.5032 9.75012 12.0005Z" fill="#130032"/>
</svg>
