<svg width="24" height="24" viewBox="0 0 24 24" fill="none" xmlns="http://www.w3.org/2000/svg">
<path d="M20.2503 9.37402H12.4615L19.7871 7.43995C19.9307 7.4021 20.0653 7.33621 20.1833 7.24609C20.3012 7.15597 20.4002 7.04339 20.4744 6.91485C20.5487 6.78631 20.5968 6.64434 20.6159 6.49714C20.635 6.34993 20.6248 6.20039 20.5859 6.05714L19.8209 3.24464C19.6895 2.77087 19.3767 2.36795 18.9503 2.12316C18.5239 1.87837 18.0182 1.81143 17.5428 1.93683L3.26184 5.70558C3.02391 5.76757 2.80072 5.87635 2.60531 6.02557C2.4099 6.17478 2.24618 6.36144 2.12371 6.57464C2.00102 6.78501 1.92163 7.01779 1.89024 7.2593C1.85884 7.5008 1.87607 7.74614 1.9409 7.98089L2.62527 10.499V18.749C2.62527 19.2463 2.82282 19.7232 3.17445 20.0748C3.52608 20.4265 4.00299 20.624 4.50027 20.624H19.5003C19.9976 20.624 20.4745 20.4265 20.8261 20.0748C21.1777 19.7232 21.3753 19.2463 21.3753 18.749V10.499C21.3753 10.2006 21.2567 9.9145 21.0458 9.70352C20.8348 9.49254 20.5486 9.37402 20.2503 9.37402ZM11.7087 5.80308L13.4234 6.79308L10.9906 7.43527L9.2759 6.44527L11.7087 5.80308ZM17.7509 4.20933L18.1175 5.55464L16.5115 5.97839L14.7968 4.98745L17.7509 4.20933ZM6.18777 7.26089L7.90246 8.24902L4.58371 9.12558L4.21902 7.78027L6.18777 7.26089ZM19.1253 18.374H4.87527V11.624H19.1253V18.374Z" fill="#130032"/>
</svg>
