<svg width="24" height="24" viewBox="0 0 24 24" fill="none" xmlns="http://www.w3.org/2000/svg">
<path d="M8.62506 12C8.62516 14.4779 7.99613 16.9153 6.79694 19.0838C6.72529 19.213 6.62887 19.3269 6.51321 19.4189C6.39754 19.5109 6.26488 19.5793 6.12281 19.62C5.98073 19.6607 5.83203 19.6731 5.68518 19.6564C5.53833 19.6396 5.39621 19.5942 5.26694 19.5225C5.00587 19.3778 4.81297 19.1353 4.73069 18.8484C4.68995 18.7063 4.67759 18.5576 4.69432 18.4107C4.71105 18.2639 4.75654 18.1218 4.82819 17.9925C5.84304 16.1583 6.37531 14.0963 6.37506 12C6.37516 10.9176 6.68756 9.8582 7.27477 8.94893C7.86198 8.03965 8.69907 7.3191 9.68561 6.87374C10.6721 6.42837 11.7662 6.2771 12.8366 6.43807C13.907 6.59904 14.9082 7.06542 15.7201 7.78125C15.8309 7.87901 15.9213 7.99762 15.9863 8.13034C16.0513 8.26305 16.0894 8.40726 16.0987 8.55473C16.1079 8.70221 16.088 8.85005 16.0401 8.98983C15.9922 9.1296 15.9172 9.25858 15.8194 9.36938C15.7217 9.48018 15.6031 9.57064 15.4704 9.6356C15.3376 9.70056 15.1934 9.73875 15.046 9.74798C14.8985 9.7572 14.7506 9.7373 14.6109 9.68939C14.4711 9.64148 14.3421 9.56651 14.2313 9.46875C13.7442 9.03949 13.1435 8.75987 12.5014 8.66342C11.8593 8.56697 11.203 8.65778 10.6112 8.92497C10.0195 9.19217 9.51731 9.62439 9.16502 10.1698C8.81273 10.7152 8.62525 11.3507 8.62506 12ZM16.5151 11.25H16.5001C16.2049 11.25 15.9216 11.3659 15.7111 11.5729C15.5007 11.7798 15.38 12.0611 15.3751 12.3563C15.3355 15.022 14.7949 17.6566 13.7813 20.1225C13.7215 20.2597 13.6897 20.4075 13.6877 20.5572C13.6857 20.7069 13.7137 20.8555 13.7698 20.9942C13.826 21.133 13.9093 21.2591 14.0149 21.3653C14.1204 21.4714 14.2461 21.5554 14.3845 21.6124C14.523 21.6694 14.6714 21.6981 14.8211 21.697C14.9708 21.6959 15.1187 21.6649 15.2563 21.6058C15.3939 21.5468 15.5183 21.4609 15.6222 21.3531C15.7262 21.2454 15.8075 21.118 15.8616 20.9784C16.9831 18.2529 17.5813 15.3406 17.6251 12.3938C17.6275 12.2456 17.6007 12.0985 17.5462 11.9607C17.4916 11.823 17.4104 11.6974 17.3072 11.5911C17.204 11.4848 17.0808 11.4 16.9447 11.3414C16.8086 11.2829 16.6623 11.2518 16.5141 11.25H16.5151ZM10.6819 18.8634C10.414 18.7341 10.1058 18.7161 9.82472 18.8135C9.54361 18.9108 9.3125 19.1155 9.18194 19.3828C9.0535 19.6463 8.91475 19.9125 8.77131 20.1722C8.69972 20.3015 8.65429 20.4436 8.63762 20.5904C8.62095 20.7372 8.63336 20.8859 8.67415 21.0279C8.71493 21.17 8.78329 21.3026 8.87533 21.4182C8.96736 21.5338 9.08126 21.6301 9.21053 21.7017C9.3398 21.7733 9.48191 21.8187 9.62873 21.8354C9.77556 21.8521 9.92423 21.8397 10.0663 21.7989C10.2083 21.7581 10.3409 21.6897 10.4565 21.5977C10.5721 21.5057 10.6685 21.3918 10.7401 21.2625C10.9032 20.9681 11.0598 20.6672 11.2088 20.3672C11.2732 20.2338 11.3105 20.0891 11.3188 19.9413C11.3271 19.7934 11.3061 19.6454 11.2571 19.5057C11.2081 19.366 11.1319 19.2374 11.0331 19.1272C10.9342 19.0169 10.8146 18.9273 10.681 18.8634H10.6819ZM12.0001 10.875C11.7017 10.875 11.4155 10.9935 11.2046 11.2045C10.9936 11.4155 10.8751 11.7016 10.8751 12C10.8755 13.3022 10.7261 14.6001 10.4298 15.8681C10.3617 16.1585 10.4118 16.4641 10.5689 16.7176C10.7261 16.9711 10.9775 17.1518 11.2679 17.22C11.3523 17.2401 11.4389 17.2502 11.5257 17.25C11.7792 17.2497 12.0252 17.1638 12.2237 17.0063C12.4223 16.8487 12.5619 16.6287 12.6198 16.3819C12.9562 14.9456 13.1257 13.4752 13.1251 12C13.1251 11.7016 13.0065 11.4155 12.7956 11.2045C12.5846 10.9935 12.2984 10.875 12.0001 10.875ZM12.0001 1.875C10.9995 1.87422 10.0043 2.02176 9.04694 2.31282C8.90536 2.35591 8.77365 2.42646 8.65934 2.52045C8.54502 2.61444 8.45034 2.73003 8.38069 2.86061C8.31105 2.99119 8.26781 3.13421 8.25344 3.28151C8.23907 3.4288 8.25385 3.57748 8.29694 3.71907C8.38396 4.005 8.58101 4.24466 8.84473 4.38531C8.97532 4.45495 9.11834 4.4982 9.26563 4.51257C9.41293 4.52694 9.56161 4.51216 9.70319 4.46907C10.8802 4.11142 12.1245 4.03426 13.3366 4.24377C14.5488 4.45328 15.695 4.94363 16.6837 5.67559C17.6723 6.40755 18.4759 7.36078 19.0301 8.45899C19.5842 9.5572 19.8736 10.7699 19.8751 12C19.8759 13.9348 19.6608 15.8636 19.2338 17.7506C19.2011 17.8947 19.1971 18.0439 19.222 18.1895C19.247 18.3352 19.3004 18.4745 19.3791 18.5995C19.4579 18.7245 19.5606 18.8328 19.6812 18.9181C19.8019 19.0035 19.9381 19.0642 20.0823 19.0969C20.164 19.1158 20.2477 19.1253 20.3316 19.125C20.5866 19.125 20.8341 19.0383 21.0334 18.8792C21.2326 18.7201 21.372 18.498 21.4285 18.2494C21.8921 16.1986 22.1257 14.1025 22.1251 12C22.1221 9.3156 21.0544 6.742 19.1562 4.84384C17.2581 2.94568 14.6845 1.87798 12.0001 1.875ZM6.41913 4.85063C6.31461 4.74575 6.19042 4.66253 6.05367 4.60575C5.91693 4.54897 5.77032 4.51974 5.62225 4.51974C5.47419 4.51974 5.32758 4.54897 5.19083 4.60575C5.05408 4.66253 4.92989 4.74575 4.82538 4.85063C3.88631 5.78878 3.14216 6.90348 2.63581 8.1305C2.12945 9.35752 1.87091 10.6726 1.87506 12C1.87811 13.1326 1.63467 14.2522 1.16163 15.2813C1.0959 15.4161 1.0578 15.5627 1.04955 15.7124C1.04131 15.8622 1.06309 16.0121 1.11362 16.1533C1.16415 16.2945 1.24241 16.4242 1.34379 16.5347C1.44518 16.6452 1.56763 16.7344 1.70397 16.7969C1.8403 16.8594 1.98776 16.894 2.13767 16.8987C2.28758 16.9034 2.43691 16.8781 2.57689 16.8242C2.71687 16.7703 2.84466 16.689 2.95275 16.585C3.06084 16.4811 3.14705 16.3565 3.20631 16.2188C3.81484 14.8958 4.12834 13.4562 4.12506 12C4.12214 10.9678 4.3236 9.94516 4.71781 8.99116C5.11203 8.03716 5.6912 7.17064 6.42194 6.44157C6.63253 6.23022 6.75054 5.94387 6.75001 5.64551C6.74948 5.34716 6.63046 5.06123 6.41913 4.85063Z" fill="#130032"/>
</svg>
