<svg width="24" height="24" viewBox="0 0 24 24" fill="none" xmlns="http://www.w3.org/2000/svg">
<path d="M14.9998 12C14.9994 15.4509 14.1504 18.8488 12.5276 21.8944C12.4591 22.0268 12.365 22.1442 12.2508 22.24C12.1365 22.3357 12.0043 22.4077 11.862 22.452C11.7196 22.4962 11.5699 22.5117 11.4215 22.4975C11.2732 22.4834 11.1291 22.4399 10.9976 22.3696C10.8662 22.2992 10.7501 22.2035 10.6559 22.0879C10.5618 21.9723 10.4916 21.8392 10.4494 21.6963C10.4072 21.5533 10.3938 21.4034 10.41 21.2552C10.4262 21.107 10.4717 20.9636 10.5438 20.8331C11.9925 18.1142 12.7501 15.0807 12.7498 12C12.7498 11.8011 12.6708 11.6103 12.5301 11.4697C12.3895 11.329 12.1987 11.25 11.9998 11.25C11.8009 11.25 11.6101 11.329 11.4694 11.4697C11.3288 11.6103 11.2498 11.8011 11.2498 12C11.2498 12.2984 11.1312 12.5845 10.9203 12.7955C10.7093 13.0065 10.4231 13.125 10.1248 13.125C9.82641 13.125 9.54026 13.0065 9.32928 12.7955C9.1183 12.5845 8.99977 12.2984 8.99977 12C8.99977 11.2043 9.31585 10.4413 9.87845 9.87868C10.4411 9.31607 11.2041 9 11.9998 9C12.7954 9 13.5585 9.31607 14.1211 9.87868C14.6837 10.4413 14.9998 11.2043 14.9998 12ZM11.9998 5.25C11.7014 5.25 11.4153 5.36853 11.2043 5.5795C10.9933 5.79048 10.8748 6.07663 10.8748 6.375C10.8748 6.67337 10.9933 6.95952 11.2043 7.1705C11.4153 7.38147 11.7014 7.5 11.9998 7.5C13.1929 7.50124 14.3367 7.97574 15.1804 8.81939C16.024 9.66303 16.4985 10.8069 16.4998 12C16.4998 12.7144 16.466 13.4362 16.3995 14.1441C16.3849 14.2915 16.3995 14.4403 16.4426 14.5821C16.4857 14.7238 16.5563 14.8557 16.6505 14.9701C16.7446 15.0844 16.8605 15.1791 16.9913 15.2486C17.1221 15.3181 17.2654 15.361 17.4129 15.375C17.4485 15.375 17.4841 15.375 17.5198 15.375C17.7995 15.3746 18.0691 15.27 18.2759 15.0816C18.4827 14.8932 18.6119 14.6345 18.6382 14.3559C18.7123 13.5778 18.7488 12.7847 18.7488 12C18.7469 10.2106 18.0352 8.49497 16.7699 7.22955C15.5047 5.96414 13.7892 5.25223 11.9998 5.25ZM8.99977 8.64656C9.2142 8.4456 9.34148 8.1687 9.35438 7.87511C9.36728 7.58151 9.26478 7.29452 9.06881 7.07552C8.87284 6.85652 8.59895 6.7229 8.30573 6.70324C8.01251 6.68358 7.72323 6.77944 7.49977 6.97031C6.79255 7.60366 6.22668 8.37888 5.83901 9.24548C5.45134 10.1121 5.25057 11.0506 5.24977 12C5.25026 13.9149 4.76239 15.7983 3.83227 17.4722C3.68694 17.7333 3.65128 18.0414 3.73312 18.3287C3.81496 18.6161 4.00761 18.8592 4.26868 19.0045C4.52975 19.1499 4.83787 19.1855 5.12524 19.1037C5.41261 19.0218 5.65569 18.8292 5.80102 18.5681C6.91659 16.5588 7.50127 14.2982 7.49977 12C7.50034 11.3671 7.6342 10.7413 7.89264 10.1635C8.15109 9.58575 8.52832 9.06888 8.99977 8.64656ZM9.94665 14.6559C9.80285 14.6216 9.6537 14.616 9.50772 14.6394C9.36174 14.6628 9.2218 14.7147 9.0959 14.7922C8.97 14.8696 8.86061 14.9712 8.77398 15.091C8.68735 15.2108 8.62518 15.3465 8.59102 15.4903C8.23012 17.0074 7.63282 18.4582 6.82102 19.7897C6.66587 20.0445 6.61832 20.3506 6.68882 20.6405C6.75932 20.9304 6.94211 21.1805 7.19696 21.3356C7.45182 21.4908 7.75787 21.5383 8.04779 21.4678C8.33771 21.3973 8.58775 21.2145 8.7429 20.9597C9.67711 19.4272 10.3649 17.7575 10.781 16.0116C10.8153 15.8678 10.821 15.7186 10.7976 15.5726C10.7742 15.4267 10.7223 15.2867 10.6448 15.1608C10.5673 15.0349 10.4658 14.9255 10.346 14.8389C10.2262 14.7523 10.0905 14.6901 9.94665 14.6559ZM17.1401 16.9125C16.997 16.8752 16.848 16.8665 16.7016 16.8869C16.5552 16.9073 16.4142 16.9563 16.2867 17.0312C16.1593 17.106 16.0478 17.2053 15.9587 17.3233C15.8697 17.4413 15.8047 17.5757 15.7676 17.7187C15.5598 18.5089 15.3095 19.2872 15.0176 20.0503C14.9111 20.3288 14.9195 20.6382 15.041 20.9105C15.1624 21.1828 15.387 21.3957 15.6654 21.5025C15.7936 21.5524 15.93 21.5778 16.0676 21.5775C16.2953 21.5776 16.5177 21.5085 16.7054 21.3794C16.893 21.2504 17.0371 21.0674 17.1185 20.8547C17.4403 20.0152 17.7154 19.1586 17.9426 18.2887C17.9805 18.1457 17.9897 17.9966 17.9699 17.8499C17.9501 17.7032 17.9015 17.5619 17.8269 17.4341C17.7524 17.3063 17.6533 17.1944 17.5355 17.1049C17.4176 17.0154 17.2833 16.95 17.1401 16.9125ZM11.9998 1.5C9.22498 1.50292 6.5639 2.60291 4.59691 4.56006C2.62992 6.51722 1.5166 9.17275 1.49977 11.9475C1.49977 11.9653 1.49977 11.9831 1.49977 12.0009C1.49995 12.8913 1.34121 13.7745 1.03102 14.6091C0.978436 14.7478 0.953818 14.8956 0.95859 15.0439C0.963361 15.1922 0.997427 15.3381 1.05883 15.4732C1.12023 15.6083 1.20774 15.7299 1.31634 15.8311C1.42494 15.9322 1.55247 16.0108 1.69159 16.0625C1.83071 16.1141 1.97867 16.1377 2.12695 16.1319C2.27523 16.1261 2.42089 16.091 2.55556 16.0287C2.69023 15.9664 2.81123 15.878 2.9116 15.7687C3.01197 15.6594 3.08973 15.5313 3.1404 15.3919C3.53778 14.3237 3.74405 13.194 3.74977 12.0544C3.74977 12.0366 3.74977 12.0187 3.74977 12.0009C3.74356 9.8129 4.60679 7.71201 6.14957 6.16044C7.69235 4.60887 9.7883 3.73372 11.9763 3.7275C14.1644 3.72128 16.2653 4.58452 17.8168 6.1273C19.3684 7.67008 20.2436 9.76603 20.2498 11.9541C20.2498 11.9691 20.2498 11.985 20.2498 12.0009C20.2503 13.9364 20.0384 15.8661 19.6179 17.7553C19.5528 18.0465 19.606 18.3516 19.7658 18.6035C19.9256 18.8555 20.1789 19.0336 20.4701 19.0987C20.5516 19.1168 20.635 19.1256 20.7185 19.125C20.974 19.1248 21.2219 19.0376 21.4212 18.8777C21.6206 18.7179 21.7596 18.495 21.8154 18.2456C22.2679 16.2119 22.4973 14.135 22.4998 12.0516C22.4998 12.0347 22.4998 12.0178 22.4998 12.0009C22.4968 9.21699 21.3896 6.54791 19.4212 4.57927C17.4527 2.61064 14.7837 1.50323 11.9998 1.5Z" fill="#130032"/>
</svg>
