<svg width="24" height="24" viewBox="0 0 24 24" fill="none" xmlns="http://www.w3.org/2000/svg">
<path d="M15 9H9C7.70707 9 6.46709 9.51361 5.55285 10.4279C4.63861 11.3421 4.125 12.5821 4.125 13.875C4.125 15.1679 4.63861 16.4079 5.55285 17.3221C6.46709 18.2364 7.70707 18.75 9 18.75H15C16.2929 18.75 17.5329 18.2364 18.4471 17.3221C19.3614 16.4079 19.875 15.1679 19.875 13.875C19.875 12.5821 19.3614 11.3421 18.4471 10.4279C17.5329 9.51361 16.2929 9 15 9ZM15 16.5H9C8.30381 16.5 7.63613 16.2234 7.14384 15.7312C6.65156 15.2389 6.375 14.5712 6.375 13.875C6.375 13.1788 6.65156 12.5111 7.14384 12.0188C7.63613 11.5266 8.30381 11.25 9 11.25H15C15.6962 11.25 16.3639 11.5266 16.8562 12.0188C17.3484 12.5111 17.625 13.1788 17.625 13.875C17.625 14.5712 17.3484 15.2389 16.8562 15.7312C16.3639 16.2234 15.6962 16.5 15 16.5ZM10.5 13.875C10.5 14.1717 10.412 14.4617 10.2472 14.7084C10.0824 14.955 9.84811 15.1473 9.57403 15.2608C9.29994 15.3744 8.99834 15.4041 8.70736 15.3462C8.41639 15.2883 8.14912 15.1454 7.93934 14.9357C7.72956 14.7259 7.5867 14.4586 7.52882 14.1676C7.47094 13.8767 7.50065 13.5751 7.61418 13.301C7.72771 13.0269 7.91997 12.7926 8.16665 12.6278C8.41332 12.463 8.70333 12.375 9 12.375C9.39782 12.375 9.77936 12.533 10.0607 12.8143C10.342 13.0956 10.5 13.4772 10.5 13.875ZM16.5 13.875C16.5 14.1717 16.412 14.4617 16.2472 14.7084C16.0824 14.955 15.8481 15.1473 15.574 15.2608C15.2999 15.3744 14.9983 15.4041 14.7074 15.3462C14.4164 15.2883 14.1491 15.1454 13.9393 14.9357C13.7296 14.7259 13.5867 14.4586 13.5288 14.1676C13.4709 13.8767 13.5006 13.5751 13.6142 13.301C13.7277 13.0269 13.92 12.7926 14.1666 12.6278C14.4133 12.463 14.7033 12.375 15 12.375C15.3978 12.375 15.7794 12.533 16.0607 12.8143C16.342 13.0956 16.5 13.4772 16.5 13.875ZM19.875 3.375C19.1771 3.37502 18.4963 3.59141 17.9265 3.99435C17.3567 4.3973 16.9258 4.967 16.6931 5.625H7.30688C7.04144 4.87446 6.51924 4.24191 5.83255 3.83913C5.14586 3.43635 4.3389 3.28928 3.55427 3.4239C2.76964 3.55853 2.05786 3.96618 1.54471 4.57482C1.03155 5.18346 0.75007 5.9539 0.75 6.75V13.875C0.752481 16.0623 1.62247 18.1593 3.16911 19.7059C4.71575 21.2525 6.81273 22.1225 9 22.125H15C17.1873 22.1225 19.2843 21.2525 20.8309 19.7059C22.3775 18.1593 23.2475 16.0623 23.25 13.875V6.75C23.25 5.85489 22.8944 4.99645 22.2615 4.36351C21.6285 3.73058 20.7701 3.375 19.875 3.375ZM21 13.875C20.9983 15.4658 20.3656 16.9909 19.2407 18.1157C18.1159 19.2406 16.5908 19.8733 15 19.875H9C7.40923 19.8733 5.88412 19.2406 4.75928 18.1157C3.63444 16.9909 3.00174 15.4658 3 13.875V6.75C3 6.45163 3.11853 6.16548 3.3295 5.9545C3.54048 5.74353 3.82663 5.625 4.125 5.625C4.42337 5.625 4.70952 5.74353 4.9205 5.9545C5.13147 6.16548 5.25 6.45163 5.25 6.75C5.25 7.04837 5.36853 7.33452 5.5795 7.5455C5.79048 7.75647 6.07663 7.875 6.375 7.875H17.625C17.9234 7.875 18.2095 7.75647 18.4205 7.5455C18.6315 7.33452 18.75 7.04837 18.75 6.75C18.75 6.45163 18.8685 6.16548 19.0795 5.9545C19.2905 5.74353 19.5766 5.625 19.875 5.625C20.1734 5.625 20.4595 5.74353 20.6705 5.9545C20.8815 6.16548 21 6.45163 21 6.75V13.875Z" fill="#130032"/>
</svg>
