<svg width="24" height="24" viewBox="0 0 24 24" fill="none" xmlns="http://www.w3.org/2000/svg">
<path d="M20.5734 4.17373L15.9441 2.7853L17.3438 2.15061C17.6154 2.02629 17.8265 1.79915 17.9307 1.51916C18.0349 1.23918 18.0235 0.929278 17.8992 0.657639C17.8377 0.523136 17.7502 0.402076 17.6419 0.301368C17.5335 0.200661 17.4064 0.12228 17.2678 0.0707003C16.9878 -0.0334703 16.6779 -0.0221504 16.4062 0.10217L12.4894 1.88342C10.4483 1.95312 8.51392 2.81219 7.09361 4.27971C5.67331 5.74722 4.87794 7.70865 4.875 9.75092V19.5009C4.875 19.7993 4.99353 20.0854 5.2045 20.2964C5.41548 20.5074 5.70163 20.6259 6 20.6259C6.29837 20.6259 6.58452 20.5074 6.7955 20.2964C7.00647 20.0854 7.125 19.7993 7.125 19.5009V16.8759H8.625V21.7509C8.625 22.2482 8.82254 22.7251 9.17417 23.0767C9.52581 23.4284 10.0027 23.6259 10.5 23.6259H15C15.4973 23.6259 15.9742 23.4284 16.3258 23.0767C16.6775 22.7251 16.875 22.2482 16.875 21.7509V9.75092C16.8735 8.85355 16.58 7.98105 16.0388 7.26527C15.4975 6.54949 14.738 6.02934 13.875 5.78342V4.51311L19.9266 6.32904C20.0315 6.36058 20.1405 6.37638 20.25 6.37592C20.5199 6.37567 20.7806 6.27842 20.9848 6.10191C21.1889 5.9254 21.3228 5.6814 21.362 5.4144C21.4012 5.1474 21.3432 4.8752 21.1984 4.64745C21.0536 4.4197 20.8318 4.25157 20.5734 4.17373ZM7.125 14.6259V9.75092C7.12671 8.45481 7.57522 7.19893 8.39494 6.19495C9.21465 5.19097 10.3554 4.5003 11.625 4.23936V5.78342C10.7618 6.02907 10.0021 6.54915 9.46086 7.26499C8.91959 7.98083 8.62617 8.85348 8.625 9.75092V14.6259H7.125ZM10.875 21.3759V16.8759H14.625V21.3759H10.875ZM14.625 9.75092V14.6259H10.875V9.75092C10.875 9.25364 11.0725 8.77673 11.4242 8.42509C11.7758 8.07346 12.2527 7.87592 12.75 7.87592C13.2473 7.87592 13.7242 8.07346 14.0758 8.42509C14.4275 8.77673 14.625 9.25364 14.625 9.75092Z" fill="#130032"/>
</svg>
