<svg width="24" height="24" viewBox="0 0 24 24" fill="none" xmlns="http://www.w3.org/2000/svg">
<path d="M16.6519 14.9623C16.4164 15.711 16.0036 16.3917 15.4487 16.9466C14.8937 17.5016 14.213 17.9143 13.4644 18.1498C13.3551 18.1838 13.2413 18.2012 13.1269 18.2014C12.858 18.2016 12.5979 18.1054 12.3937 17.9304C12.1896 17.7553 12.0549 17.5129 12.0141 17.2471C11.9733 16.9813 12.029 16.7097 12.1713 16.4814C12.3135 16.2532 12.5328 16.0834 12.7894 16.003C13.1928 15.8762 13.5597 15.6538 13.8587 15.3548C14.1578 15.0558 14.3801 14.6889 14.5069 14.2855C14.5512 14.1445 14.6228 14.0136 14.7177 13.9004C14.8126 13.7871 14.9289 13.6936 15.0599 13.6253C15.3245 13.4873 15.6331 13.46 15.9178 13.5495C16.0588 13.5938 16.1896 13.6655 16.3029 13.7604C16.4162 13.8553 16.5097 13.9716 16.578 14.1026C16.6463 14.2336 16.6882 14.3768 16.7012 14.524C16.7142 14.6712 16.6981 14.8195 16.6537 14.9605L16.6519 14.9623ZM20.625 13.4998C20.625 15.7873 19.7163 17.9811 18.0988 19.5986C16.4813 21.2161 14.2875 22.1248 12 22.1248C9.71251 22.1248 7.51871 21.2161 5.9012 19.5986C4.2837 17.9811 3.375 15.7873 3.375 13.4998C3.375 10.7989 4.43156 8.04546 6.51375 5.31733C6.6102 5.19092 6.73235 5.08639 6.87215 5.01063C7.01195 4.93487 7.16622 4.88961 7.32479 4.87783C7.48336 4.86605 7.64262 4.88801 7.79208 4.94228C7.94154 4.99654 8.0778 5.08187 8.19187 5.19265L10.0378 6.98421L11.9062 1.86452C11.968 1.69513 12.0696 1.54307 12.2025 1.42115C12.3353 1.29924 12.4955 1.21103 12.6696 1.16398C12.8436 1.11693 13.0264 1.1124 13.2026 1.15078C13.3788 1.18916 13.5432 1.26933 13.6819 1.38452C15.7688 3.11702 20.625 7.76702 20.625 13.4998ZM18.375 13.4998C18.375 9.58952 15.5053 6.15077 13.4513 4.1914L11.5566 9.38515C11.4923 9.56145 11.3849 9.71886 11.2442 9.84305C11.1035 9.96724 10.934 10.0543 10.7511 10.0962C10.5681 10.1381 10.3776 10.1336 10.1969 10.0831C10.0162 10.0326 9.85093 9.9377 9.71625 9.80702L7.56656 7.72108C6.28125 9.69171 5.625 11.6305 5.625 13.4998C5.625 15.1906 6.29665 16.8121 7.49219 18.0076C8.68774 19.2032 10.3092 19.8748 12 19.8748C13.6908 19.8748 15.3123 19.2032 16.5078 18.0076C17.7034 16.8121 18.375 15.1906 18.375 13.4998Z" fill="#130032"/>
</svg>
