<svg width="24" height="24" viewBox="0 0 24 24" fill="none" xmlns="http://www.w3.org/2000/svg">
<path d="M23.9194 10.8319L22.6069 7.55063C22.4684 7.20266 22.2283 6.90443 21.918 6.69476C21.6077 6.48508 21.2414 6.37366 20.8669 6.375H19.125V6C19.125 5.70163 19.0065 5.41548 18.7955 5.2045C18.5845 4.99353 18.2984 4.875 18 4.875C17.7016 4.875 17.4155 4.99353 17.2045 5.2045C16.9935 5.41548 16.875 5.70163 16.875 6V14.8181C16.4012 14.9873 15.9709 15.2595 15.6152 15.6152C15.2595 15.9709 14.9873 16.4012 14.8181 16.875H10.6819C10.4492 16.2171 10.0183 15.6474 9.44843 15.2445C8.87859 14.8416 8.19788 14.6253 7.5 14.6253C6.80212 14.6253 6.12141 14.8416 5.55157 15.2445C4.98174 15.6474 4.55081 16.2171 4.31813 16.875H3.375V13.5C3.375 13.2016 3.25647 12.9155 3.0455 12.7045C2.83452 12.4935 2.54837 12.375 2.25 12.375C1.95163 12.375 1.66548 12.4935 1.4545 12.7045C1.24353 12.9155 1.125 13.2016 1.125 13.5V17.25C1.125 17.7473 1.32254 18.2242 1.67417 18.5758C2.02581 18.9275 2.50272 19.125 3 19.125H4.31813C4.55081 19.7829 4.98174 20.3526 5.55157 20.7555C6.12141 21.1584 6.80212 21.3747 7.5 21.3747C8.19788 21.3747 8.87859 21.1584 9.44843 20.7555C10.0183 20.3526 10.4492 19.7829 10.6819 19.125H14.8181C15.0508 19.7829 15.4817 20.3526 16.0516 20.7555C16.6214 21.1584 17.3021 21.3747 18 21.3747C18.6979 21.3747 19.3786 21.1584 19.9484 20.7555C20.5183 20.3526 20.9492 19.7829 21.1819 19.125H22.125C22.6223 19.125 23.0992 18.9275 23.4508 18.5758C23.8025 18.2242 24 17.7473 24 17.25V11.25C24 11.1068 23.9726 10.9648 23.9194 10.8319ZM20.6138 8.625L21.2137 10.125H19.125V8.625H20.6138ZM7.5 19.125C7.2775 19.125 7.05999 19.059 6.87498 18.9354C6.68998 18.8118 6.54578 18.6361 6.46064 18.4305C6.37549 18.225 6.35321 17.9988 6.39662 17.7805C6.44002 17.5623 6.54717 17.3618 6.7045 17.2045C6.86184 17.0472 7.06229 16.94 7.28052 16.8966C7.49875 16.8532 7.72495 16.8755 7.93052 16.9606C8.13609 17.0458 8.31179 17.19 8.4354 17.375C8.55902 17.56 8.625 17.7775 8.625 18C8.625 18.2984 8.50647 18.5845 8.2955 18.7955C8.08452 19.0065 7.79837 19.125 7.5 19.125ZM18 19.125C17.7775 19.125 17.56 19.059 17.375 18.9354C17.19 18.8118 17.0458 18.6361 16.9606 18.4305C16.8755 18.225 16.8532 17.9988 16.8966 17.7805C16.94 17.5623 17.0472 17.3618 17.2045 17.2045C17.3618 17.0472 17.5623 16.94 17.7805 16.8966C17.9988 16.8532 18.225 16.8755 18.4305 16.9606C18.6361 17.0458 18.8118 17.19 18.9354 17.375C19.059 17.56 19.125 17.7775 19.125 18C19.125 18.2984 19.0065 18.5845 18.7955 18.7955C18.5845 19.0065 18.2984 19.125 18 19.125ZM21.1819 16.875C21.0127 16.4012 20.7405 15.9709 20.3848 15.6152C20.0291 15.2595 19.5988 14.9873 19.125 14.8181V12.375H21.75V16.875H21.1819ZM2.25 8.625C1.95163 8.625 1.66548 8.74353 1.4545 8.9545C1.24353 9.16548 1.125 9.45163 1.125 9.75C1.125 10.0484 1.24353 10.3345 1.4545 10.5455C1.66548 10.7565 1.95163 10.875 2.25 10.875H14.25C14.5484 10.875 14.8345 10.7565 15.0455 10.5455C15.2565 10.3345 15.375 10.0484 15.375 9.75C15.375 9.45163 15.2565 9.16548 15.0455 8.9545C14.8345 8.74353 14.5484 8.625 14.25 8.625H13.125V7.125H14.25C14.5484 7.125 14.8345 7.00647 15.0455 6.7955C15.2565 6.58452 15.375 6.29837 15.375 6C15.375 5.70163 15.2565 5.41548 15.0455 5.2045C14.8345 4.99353 14.5484 4.875 14.25 4.875H2.25C1.95163 4.875 1.66548 4.99353 1.4545 5.2045C1.24353 5.41548 1.125 5.70163 1.125 6C1.125 6.29837 1.24353 6.58452 1.4545 6.7955C1.66548 7.00647 1.95163 7.125 2.25 7.125H3.375V8.625H2.25ZM10.875 8.625H9.375V7.125H10.875V8.625ZM5.625 7.125H7.125V8.625H5.625V7.125Z" fill="#130032"/>
</svg>
