<svg width="24" height="24" viewBox="0 0 24 24" fill="none" xmlns="http://www.w3.org/2000/svg">
<path d="M13.6809 1.38392C13.5422 1.26893 13.3779 1.18894 13.2019 1.15067C13.0258 1.1124 12.8431 1.11698 12.6692 1.16402C12.4953 1.21106 12.3352 1.29919 12.2024 1.42099C12.0697 1.54279 11.9681 1.69469 11.9062 1.86392L10.0378 6.98361L8.19187 5.19205C8.0778 5.08128 7.94154 4.99595 7.79208 4.94168C7.64262 4.88742 7.48336 4.86545 7.32479 4.87723C7.16622 4.88902 7.01195 4.93428 6.87215 5.01003C6.73235 5.08579 6.6102 5.19032 6.51375 5.31674C4.43156 8.04486 3.375 10.7983 3.375 13.4992C3.375 15.7867 4.2837 17.9805 5.9012 19.598C7.51871 21.2155 9.71251 22.1242 12 22.1242C14.2875 22.1242 16.4813 21.2155 18.0988 19.598C19.7163 17.9805 20.625 15.7867 20.625 13.4992C20.625 7.76642 15.7687 3.11642 13.6809 1.38392ZM12 19.8742C10.3098 19.8725 8.68928 19.2003 7.49411 18.0051C6.29894 16.81 5.62674 15.1895 5.625 13.4992C5.625 11.6299 6.28125 9.69111 7.56656 7.72049L9.71625 9.80642C9.85093 9.93711 10.0162 10.032 10.1969 10.0825C10.3776 10.133 10.5681 10.1375 10.7511 10.0956C10.934 10.0537 11.1035 9.96664 11.2442 9.84245C11.3849 9.71826 11.4923 9.56085 11.5566 9.38455L13.4513 4.1908C15.5053 6.15017 18.375 9.58892 18.375 13.4992C18.3733 15.1895 17.7011 16.81 16.5059 18.0051C15.3107 19.2003 13.6902 19.8725 12 19.8742Z" fill="#130032"/>
</svg>
