<svg width="24" height="24" viewBox="0 0 24 24" fill="none" xmlns="http://www.w3.org/2000/svg">
<path d="M20.25 7.875H16.125V3.75C16.125 3.25272 15.9275 2.77581 15.5758 2.42417C15.2242 2.07254 14.7473 1.875 14.25 1.875H9.75C9.25272 1.875 8.77581 2.07254 8.42417 2.42417C8.07254 2.77581 7.875 3.25272 7.875 3.75V7.875H3.75C3.25272 7.875 2.77581 8.07254 2.42417 8.42417C2.07254 8.77581 1.875 9.25272 1.875 9.75V14.25C1.875 14.7473 2.07254 15.2242 2.42417 15.5758C2.77581 15.9275 3.25272 16.125 3.75 16.125H7.875V20.25C7.875 20.7473 8.07254 21.2242 8.42417 21.5758C8.77581 21.9275 9.25272 22.125 9.75 22.125H14.25C14.7473 22.125 15.2242 21.9275 15.5758 21.5758C15.9275 21.2242 16.125 20.7473 16.125 20.25V16.125H20.25C20.7473 16.125 21.2242 15.9275 21.5758 15.5758C21.9275 15.2242 22.125 14.7473 22.125 14.25V9.75C22.125 9.25272 21.9275 8.77581 21.5758 8.42417C21.2242 8.07254 20.7473 7.875 20.25 7.875ZM19.875 13.875H15C14.7016 13.875 14.4155 13.9935 14.2045 14.2045C13.9935 14.4155 13.875 14.7016 13.875 15V19.875H10.125V15C10.125 14.7016 10.0065 14.4155 9.7955 14.2045C9.58452 13.9935 9.29837 13.875 9 13.875H4.125V10.125H9C9.29837 10.125 9.58452 10.0065 9.7955 9.7955C10.0065 9.58452 10.125 9.29837 10.125 9V4.125H13.875V9C13.875 9.29837 13.9935 9.58452 14.2045 9.7955C14.4155 10.0065 14.7016 10.125 15 10.125H19.875V13.875Z" fill="#130032"/>
</svg>
