<svg width="24" height="24" viewBox="0 0 24 24" fill="none" xmlns="http://www.w3.org/2000/svg">
<path d="M20.25 4.875H16.875V4.125C16.875 3.42881 16.5984 2.76113 16.1062 2.26884C15.6139 1.77656 14.9462 1.5 14.25 1.5H9.75C9.05381 1.5 8.38613 1.77656 7.89384 2.26884C7.40156 2.76113 7.125 3.42881 7.125 4.125V4.875H3.75C3.25272 4.875 2.77581 5.07254 2.42417 5.42417C2.07254 5.77581 1.875 6.25272 1.875 6.75V18.75C1.875 19.2473 2.07254 19.7242 2.42417 20.0758C2.77581 20.4275 3.25272 20.625 3.75 20.625H20.25C20.7473 20.625 21.2242 20.4275 21.5758 20.0758C21.9275 19.7242 22.125 19.2473 22.125 18.75V6.75C22.125 6.25272 21.9275 5.77581 21.5758 5.42417C21.2242 5.07254 20.7473 4.875 20.25 4.875ZM9.375 4.125C9.375 4.02554 9.41451 3.93016 9.48483 3.85984C9.55516 3.78951 9.65054 3.75 9.75 3.75H14.25C14.3495 3.75 14.4448 3.78951 14.5152 3.85984C14.5855 3.93016 14.625 4.02554 14.625 4.125V4.875H9.375V4.125ZM19.875 18.375H4.125V7.125H19.875V18.375ZM15.375 12.75C15.375 13.0484 15.2565 13.3345 15.0455 13.5455C14.8345 13.7565 14.5484 13.875 14.25 13.875H13.125V15C13.125 15.2984 13.0065 15.5845 12.7955 15.7955C12.5845 16.0065 12.2984 16.125 12 16.125C11.7016 16.125 11.4155 16.0065 11.2045 15.7955C10.9935 15.5845 10.875 15.2984 10.875 15V13.875H9.75C9.45163 13.875 9.16548 13.7565 8.9545 13.5455C8.74353 13.3345 8.625 13.0484 8.625 12.75C8.625 12.4516 8.74353 12.1655 8.9545 11.9545C9.16548 11.7435 9.45163 11.625 9.75 11.625H10.875V10.5C10.875 10.2016 10.9935 9.91548 11.2045 9.7045C11.4155 9.49353 11.7016 9.375 12 9.375C12.2984 9.375 12.5845 9.49353 12.7955 9.7045C13.0065 9.91548 13.125 10.2016 13.125 10.5V11.625H14.25C14.5484 11.625 14.8345 11.7435 15.0455 11.9545C15.2565 12.1655 15.375 12.4516 15.375 12.75Z" fill="#130032"/>
</svg>
