<svg width="24" height="24" viewBox="0 0 24 24" fill="none" xmlns="http://www.w3.org/2000/svg">
<path d="M16.1247 7.12492C16.1247 7.42159 16.0367 7.7116 15.8719 7.95827C15.707 8.20494 15.4728 8.3972 15.1987 8.51074C14.9246 8.62427 14.623 8.65397 14.332 8.59609C14.041 8.53822 13.7738 8.39535 13.564 8.18558C13.3542 7.9758 13.2114 7.70852 13.1535 7.41755C13.0956 7.12658 13.1253 6.82498 13.2388 6.55089C13.3524 6.2768 13.5446 6.04253 13.7913 5.87771C14.038 5.71289 14.328 5.62492 14.6247 5.62492C15.0225 5.62492 15.404 5.78295 15.6853 6.06426C15.9666 6.34556 16.1247 6.72709 16.1247 7.12492ZM20.6453 13.648C20.0166 14.7864 19.1623 15.7846 18.1347 16.5815C18.1122 16.6002 18.0906 16.618 18.0672 16.634C17.6647 16.9408 17.2401 17.2175 16.7968 17.4618C15.0812 18.4059 12.9643 18.9524 10.495 19.0893L8.5309 23.3437C8.44127 23.5392 8.29747 23.705 8.11652 23.8213C7.93557 23.9376 7.72507 23.9996 7.50996 23.9999C7.48434 23.9999 7.45903 23.9999 7.43403 23.9999C7.20696 23.9846 6.98989 23.9008 6.81146 23.7595C6.63304 23.6182 6.50165 23.4262 6.43465 23.2087L5.10715 18.8962L0.794652 17.5659C0.576943 17.4988 0.384733 17.3672 0.24345 17.1884C0.102168 17.0097 0.0184705 16.7923 0.00343126 16.565C-0.011608 16.3377 0.0427195 16.1112 0.159227 15.9154C0.275734 15.7196 0.44893 15.5639 0.655902 15.4687L4.91215 13.5074C5.04996 11.039 5.59653 8.9221 6.54059 7.20742C6.78414 6.76347 7.05988 6.33796 7.36559 5.93429C7.38059 5.91367 7.39746 5.89304 7.4134 5.87242C8.21068 4.8422 9.21022 3.9859 10.3506 3.35617C12.7459 2.02585 15.444 1.82148 17.2881 1.88523C18.9531 1.94242 20.709 2.26023 21.1093 2.49648C21.2727 2.5933 21.4091 2.72967 21.5059 2.89304C21.7422 3.29242 22.0609 5.04929 22.1181 6.71429C22.1781 8.55554 21.9747 11.2499 20.6453 13.648ZM14.2047 16.1474C13.825 15.9216 13.4748 15.6495 13.1622 15.3374C12.3481 14.5253 11.8242 13.4677 11.6715 12.328C10.5319 12.1753 9.47423 11.6515 8.66215 10.8374C8.3501 10.5246 8.07831 10.1741 7.85309 9.79398C7.41559 11.074 7.17496 12.5643 7.13121 14.2649C7.12594 14.4755 7.06163 14.6804 6.94561 14.8563C6.82959 15.0321 6.66652 15.1719 6.47496 15.2596L4.26621 16.2787L6.33809 16.918C6.51346 16.972 6.67297 17.068 6.80272 17.1978C6.93246 17.3275 7.0285 17.487 7.08246 17.6624L7.71903 19.7334L8.73996 17.5218C8.82768 17.3302 8.96742 17.1672 9.14328 17.0511C9.31914 16.9351 9.52404 16.8708 9.73465 16.8655C11.4322 16.8274 12.9222 16.588 14.2047 16.1474ZM19.5934 4.40617C18.07 4.11179 13.7987 3.56242 10.6872 5.80398C10.2006 6.15396 9.75967 6.56339 9.37465 7.02273C9.36023 7.44886 9.4368 7.87318 9.59928 8.26739C9.76175 8.6616 10.0064 9.01664 10.3169 9.30886C10.6274 9.60108 10.9966 9.82376 11.3999 9.96205C11.8033 10.1003 12.2314 10.1511 12.6559 10.1109C12.821 10.095 12.9875 10.1159 13.1436 10.172C13.2997 10.2281 13.4414 10.318 13.5587 10.4352C13.676 10.5525 13.7659 10.6942 13.822 10.8503C13.878 11.0064 13.8989 11.173 13.8831 11.338C13.8428 11.763 13.8937 12.1917 14.0323 12.5954C14.1709 12.9992 14.3941 13.3687 14.6869 13.6792C14.9798 13.9898 15.3355 14.2343 15.7304 14.3965C16.1253 14.5586 16.5502 14.6345 16.9768 14.6193C17.4365 14.2346 17.8459 13.7936 18.1956 13.3068C20.4418 10.2009 19.8915 5.92679 19.5934 4.40617Z" fill="#130032"/>
</svg>
