<svg width="24" height="24" viewBox="0 0 24 24" fill="none" xmlns="http://www.w3.org/2000/svg">
<path d="M16.1254 7.12624C16.1254 7.42292 16.0374 7.71293 15.8726 7.9596C15.7077 8.20627 15.4735 8.39853 15.1994 8.51206C14.9253 8.6256 14.6237 8.6553 14.3327 8.59742C14.0417 8.53955 13.7745 8.39668 13.5647 8.1869C13.3549 7.97713 13.2121 7.70985 13.1542 7.41888C13.0963 7.12791 13.126 6.82631 13.2395 6.55222C13.3531 6.27813 13.5453 6.04386 13.792 5.87904C14.0387 5.71422 14.3287 5.62624 14.6254 5.62624C15.0232 5.62624 15.4047 5.78428 15.686 6.06558C15.9673 6.34689 16.1254 6.72842 16.1254 7.12624ZM22.1254 7.18812C22.1554 10.1741 21.4175 12.7916 19.9935 14.7594C18.5254 16.7891 16.3475 18.1541 13.5247 18.8178C11.7247 19.2416 9.64441 19.3803 7.30348 19.2284C7.44535 20.1966 7.63285 21.2072 7.86598 22.2603C7.90027 22.4056 7.90531 22.5562 7.88082 22.7034C7.85633 22.8506 7.80278 22.9915 7.72331 23.1178C7.64383 23.2442 7.54002 23.3534 7.4179 23.4392C7.29579 23.5251 7.15783 23.5857 7.01204 23.6177C6.86626 23.6496 6.71557 23.6523 6.56875 23.6254C6.42194 23.5986 6.28193 23.5428 6.15689 23.4613C6.03184 23.3799 5.92426 23.2743 5.84041 23.1508C5.75656 23.0274 5.69811 22.8885 5.66848 22.7422C5.38223 21.4391 5.16098 20.1919 5.00473 19.0006C3.81723 18.8444 2.57129 18.6234 1.26691 18.3378C0.979555 18.27 0.730384 18.0919 0.573159 17.842C0.415935 17.592 0.363262 17.2903 0.426504 17.0019C0.489747 16.7135 0.663835 16.4615 0.911209 16.3004C1.15858 16.1392 1.45941 16.0817 1.74879 16.1403C2.80066 16.3697 3.81035 16.5572 4.77785 16.7028C4.62973 14.3591 4.76566 12.2853 5.18848 10.4872C5.85223 7.66156 7.21723 5.48468 9.24504 4.01843C11.2138 2.59249 13.8313 1.85281 16.8182 1.88374C18.861 1.90343 20.7557 2.29812 21.1119 2.50624C21.2758 2.60271 21.4126 2.73915 21.5094 2.90281C21.71 3.24874 22.1047 5.14531 22.1254 7.18812ZM16.6447 14.9956C14.8167 14.4975 13.1503 13.5308 11.8106 12.191C10.4708 10.8513 9.50408 9.18492 9.00598 7.35687C8.14254 8.49687 7.54723 9.94156 7.23129 11.6694C6.95004 13.2059 6.88816 14.9741 7.04379 16.9559C9.02754 17.1106 10.7938 17.0497 12.3332 16.7684C14.0629 16.4534 15.5038 15.8581 16.6438 14.9956H16.6447ZM19.5941 4.40749C18.1035 4.12624 14.0347 3.61531 10.9447 5.57374C11.1835 7.47498 12.0485 9.2426 13.4034 10.5976C14.7582 11.9526 16.5257 12.8179 18.4269 13.0569C20.3844 9.96874 19.8754 5.89999 19.5941 4.40749Z" fill="#130032"/>
</svg>
