<svg width="24" height="24" viewBox="0 0 24 24" fill="none" xmlns="http://www.w3.org/2000/svg">
<path d="M22.8694 8.68737L5.61937 2.68737C5.44989 2.62845 5.26876 2.61093 5.09112 2.63628C4.91349 2.66162 4.74449 2.72908 4.59823 2.83304C4.45198 2.93699 4.33271 3.07443 4.25039 3.23386C4.16806 3.3933 4.12507 3.57012 4.125 3.74956V20.2496C4.125 20.5479 4.24353 20.8341 4.4545 21.045C4.66548 21.256 4.95163 21.3746 5.25 21.3746C5.54837 21.3746 5.83452 21.256 6.0455 21.045C6.25647 20.8341 6.375 20.5479 6.375 20.2496V16.5492L22.8694 10.8117C23.0898 10.7348 23.2808 10.5913 23.4159 10.401C23.5511 10.2106 23.6237 9.98299 23.6237 9.74956C23.6237 9.51613 23.5511 9.28848 23.4159 9.09816C23.2808 8.90784 23.0898 8.76428 22.8694 8.68737ZM6.375 14.1671V5.33206L19.0753 9.74956L6.375 14.1671Z" fill="#130032"/>
</svg>
