<svg width="24" height="24" viewBox="0 0 24 24" fill="none" xmlns="http://www.w3.org/2000/svg">
<path d="M3.76314 4.39452C3.64068 4.50067 3.5426 4.63203 3.47561 4.77959C3.40862 4.92716 3.3743 5.08746 3.37501 5.24952V20.9995C3.37501 21.2979 3.49354 21.584 3.70452 21.795C3.91549 22.006 4.20164 22.1245 4.50001 22.1245C4.79838 22.1245 5.08453 22.006 5.29551 21.795C5.50648 21.584 5.62501 21.2979 5.62501 20.9995V17.0358C7.76626 15.4308 9.57189 16.1808 12.2513 17.5045C13.7728 18.2545 15.5081 19.117 17.3888 19.117C18.7688 19.117 20.2275 18.6539 21.7369 17.347C21.8584 17.2417 21.9559 17.1116 22.0229 16.9654C22.0898 16.8192 22.1246 16.6603 22.125 16.4995V5.24952C22.1251 5.03382 22.0631 4.82265 21.9465 4.64117C21.8299 4.4597 21.6636 4.31557 21.4674 4.22596C21.2712 4.13635 21.0533 4.10504 20.8398 4.13576C20.6263 4.16647 20.4261 4.25792 20.2631 4.39921C17.9466 6.4064 16.0884 5.64702 13.2488 4.24171C10.6116 2.93109 7.32845 1.3064 3.76314 4.39452ZM19.875 15.9614C17.7338 17.5673 15.9281 16.8155 13.2488 15.4926C11.0775 14.4145 8.46845 13.1245 5.62501 14.4248V5.78296C7.76626 4.17796 9.57189 4.92796 12.2513 6.25171C13.7728 7.00171 15.5081 7.86421 17.3888 7.86421C18.2472 7.8655 19.0957 7.67962 19.875 7.31952V15.9614Z" fill="#130032"/>
</svg>
