<svg width="24" height="24" viewBox="0 0 24 24" fill="none" xmlns="http://www.w3.org/2000/svg">
<path d="M21.4688 4.21891C21.2726 4.12911 21.0547 4.09762 20.8411 4.12821C20.6275 4.15879 20.4272 4.25016 20.2641 4.39141C17.9475 6.3986 16.0894 5.63923 13.2497 4.23391C10.6116 2.93173 7.32845 1.30704 3.76314 4.39516C3.64068 4.50131 3.5426 4.63267 3.47561 4.78023C3.40862 4.9278 3.3743 5.0881 3.37501 5.25016V21.0002C3.37501 21.2985 3.49354 21.5847 3.70452 21.7957C3.91549 22.0066 4.20164 22.1252 4.50001 22.1252C4.79838 22.1252 5.08453 22.0066 5.29551 21.7957C5.50648 21.5847 5.62501 21.2985 5.62501 21.0002V17.0355C7.76626 15.4295 9.57188 16.1814 12.2513 17.5042C13.7728 18.2542 15.5081 19.1167 17.3888 19.1167C18.7688 19.1167 20.2275 18.6536 21.7369 17.3467C21.8583 17.2415 21.9557 17.1115 22.0227 16.9655C22.0896 16.8195 22.1245 16.6608 22.125 16.5002V5.25016C22.1267 5.03331 22.0656 4.82059 21.9492 4.63763C21.8327 4.45468 21.6659 4.30927 21.4688 4.21891ZM17.3888 7.86673C18.2474 7.86742 19.0958 7.68091 19.875 7.32016V10.3342C18.8438 11.1086 17.8875 11.3345 16.875 11.2127V7.84329C17.0447 7.85735 17.2163 7.86673 17.3888 7.86673ZM14.625 7.32016V10.5161C14.19 10.3286 13.7344 10.1036 13.2488 9.85985C12.4774 9.4627 11.685 9.1078 10.875 8.79673V5.60173C11.31 5.78923 11.7656 6.01423 12.2513 6.25798C13.0225 6.6552 13.8149 7.00979 14.625 7.32016ZM8.62501 4.90516V8.27266C7.59629 8.18413 6.56227 8.36541 5.62501 8.7986V5.78266C6.65626 5.00829 7.61251 4.78141 8.62501 4.90516ZM8.11126 13.8752C7.25242 13.8753 6.40396 14.0628 5.62501 14.4245V11.4095C6.65626 10.6361 7.61251 10.4102 8.62501 10.532V13.9014C8.45532 13.8874 8.28376 13.8752 8.11126 13.8752ZM10.875 14.4245V11.2286C11.31 11.4161 11.7656 11.6411 12.2513 11.8849C13.0225 12.2821 13.8149 12.6367 14.625 12.947V16.143C14.19 15.9508 13.7344 15.7305 13.2488 15.4867C12.4777 15.0891 11.6853 14.7345 10.875 14.4245ZM16.875 16.8395V13.4702C17.0447 13.4833 17.2163 13.4927 17.3888 13.4927C18.2476 13.4932 19.0961 13.306 19.875 12.9442V15.962C18.8438 16.7364 17.8875 16.9614 16.875 16.8395Z" fill="#130032"/>
</svg>
