<svg width="24" height="24" viewBox="0 0 24 24" fill="none" xmlns="http://www.w3.org/2000/svg">
<path d="M16.5647 4.56635C15.3753 3.3135 14.0365 2.21149 12.5784 1.2851C12.4037 1.18034 12.2038 1.125 12 1.125C11.7962 1.125 11.5963 1.18034 11.4216 1.2851C9.96346 2.21149 8.62469 3.3135 7.43531 4.56635C4.78125 7.35541 3.375 10.4445 3.375 13.4988C3.375 15.7863 4.2837 17.9801 5.9012 19.5976C7.51871 21.2151 9.71251 22.1238 12 22.1238C14.2875 22.1238 16.4813 21.2151 18.0988 19.5976C19.7163 17.9801 20.625 15.7863 20.625 13.4988C20.625 10.4445 19.2188 7.35541 16.5647 4.56635ZM9.375 17.2488C9.375 15.9992 9.89344 14.787 10.9172 13.6442C11.2486 13.2756 11.6109 12.9359 12 12.6288C12.3891 12.9359 12.7514 13.2756 13.0828 13.6442C14.1066 14.787 14.625 15.9992 14.625 17.2488C14.625 17.945 14.3484 18.6127 13.8562 19.105C13.3639 19.5973 12.6962 19.8738 12 19.8738C11.3038 19.8738 10.6361 19.5973 10.1438 19.105C9.65156 18.6127 9.375 17.945 9.375 17.2488ZM16.86 17.6182C16.8684 17.4963 16.875 17.3735 16.875 17.2488C16.875 12.912 12.75 10.3892 12.5784 10.2842C12.4037 10.1794 12.2038 10.1241 12 10.1241C11.7962 10.1241 11.5963 10.1794 11.4216 10.2842C11.25 10.3892 7.125 12.912 7.125 17.2488C7.125 17.3735 7.13156 17.4963 7.14 17.6182C6.16103 16.469 5.62387 15.0085 5.625 13.4988C5.625 11.0126 6.76969 8.54322 9.02625 6.15822C9.93107 5.20925 10.9271 4.35168 12 3.59791C13.6706 4.76697 18.375 8.50291 18.375 13.4988C18.3761 15.0085 17.839 16.469 16.86 17.6182Z" fill="#130032"/>
</svg>
