<svg width="24" height="24" viewBox="0 0 24 24" fill="none" xmlns="http://www.w3.org/2000/svg">
<path d="M17.25 1.125H6.75C6.25272 1.125 5.77581 1.32254 5.42417 1.67417C5.07254 2.02581 4.875 2.50272 4.875 3V7.24969C4.87581 7.65525 5.00731 8.04975 5.25 8.37469L7.125 10.875V21C7.125 21.4973 7.32254 21.9742 7.67417 22.3258C8.02581 22.6775 8.50272 22.875 9 22.875H15C15.4973 22.875 15.9742 22.6775 16.3258 22.3258C16.6775 21.9742 16.875 21.4973 16.875 21V10.875L18.75 8.37469C18.9927 8.04975 19.1242 7.65525 19.125 7.24969V3C19.125 2.50272 18.9275 2.02581 18.5758 1.67417C18.2242 1.32254 17.7473 1.125 17.25 1.125ZM16.875 3.375V4.875H7.125V3.375H16.875ZM15 9.62531C14.7573 9.95025 14.6258 10.3447 14.625 10.7503V20.625H9.375V10.7503C9.37419 10.3447 9.24269 9.95025 9 9.62531L7.125 7.125H16.875L15 9.62531ZM13.125 11.25V14.25C13.125 14.5484 13.0065 14.8345 12.7955 15.0455C12.5845 15.2565 12.2984 15.375 12 15.375C11.7016 15.375 11.4155 15.2565 11.2045 15.0455C10.9935 14.8345 10.875 14.5484 10.875 14.25V11.25C10.875 10.9516 10.9935 10.6655 11.2045 10.4545C11.4155 10.2435 11.7016 10.125 12 10.125C12.2984 10.125 12.5845 10.2435 12.7955 10.4545C13.0065 10.6655 13.125 10.9516 13.125 11.25Z" fill="#130032"/>
</svg>
