<svg width="24" height="24" viewBox="0 0 24 24" fill="none" xmlns="http://www.w3.org/2000/svg">
<path d="M21.1078 18.5353L15.375 8.98219V4.125H15.75C16.0484 4.125 16.3345 4.00647 16.5455 3.7955C16.7565 3.58452 16.875 3.29837 16.875 3C16.875 2.70163 16.7565 2.41548 16.5455 2.2045C16.3345 1.99353 16.0484 1.875 15.75 1.875H8.25002C7.95165 1.875 7.6655 1.99353 7.45452 2.2045C7.24354 2.41548 7.12502 2.70163 7.12502 3C7.12502 3.29837 7.24354 3.58452 7.45452 3.7955C7.6655 4.00647 7.95165 4.125 8.25002 4.125H8.62502V8.98219L2.89221 18.5353C2.72149 18.8198 2.62934 19.1446 2.62515 19.4763C2.62096 19.8081 2.7049 20.1351 2.86838 20.4238C3.03186 20.7126 3.26903 20.9527 3.55569 21.1198C3.84234 21.287 4.16821 21.375 4.50002 21.375H19.5C19.8318 21.375 20.1577 21.287 20.4443 21.1198C20.731 20.9527 20.9682 20.7126 21.1317 20.4238C21.2951 20.1351 21.3791 19.8081 21.3749 19.4763C21.3707 19.1446 21.2785 18.8198 21.1078 18.5353ZM13.125 4.125V9.29437C13.1251 9.49815 13.1805 9.69808 13.2853 9.87281L16.5788 15.3609C15.5672 15.4416 14.221 15.2381 12.5081 14.3709C11.1956 13.7072 9.93377 13.3088 8.73283 13.1747L10.7147 9.87281C10.8195 9.69808 10.875 9.49815 10.875 9.29437V4.125H13.125ZM5.16189 19.125L7.40627 15.3928C8.62502 15.2888 9.99564 15.6197 11.4956 16.3791C13.3341 17.3091 14.8941 17.6269 16.1691 17.6269C16.7259 17.6291 17.281 17.5655 17.8228 17.4375L18.8381 19.125H5.16189Z" fill="#130032"/>
</svg>
