<svg width="24" height="24" viewBox="0 0 24 24" fill="none" xmlns="http://www.w3.org/2000/svg">
<path d="M9.74988 1.91482C9.32567 1.82558 8.88361 1.88739 8.50014 2.08957C8.11668 2.29174 7.81592 2.62157 7.64988 3.02201C7.64332 3.03607 7.6377 3.05107 7.63207 3.06513L2.0127 18.0473C1.89739 18.3319 1.85375 18.6405 1.8856 18.9459C1.91745 19.2513 2.02383 19.5442 2.19537 19.7989C2.36691 20.0535 2.59838 20.2622 2.86943 20.4065C3.14048 20.5508 3.44282 20.6263 3.74988 20.6264H9.37488C9.87217 20.6264 10.3491 20.4288 10.7007 20.0772C11.0523 19.7256 11.2499 19.2487 11.2499 18.7514V3.75138C11.2528 3.3185 11.1045 2.89818 10.8307 2.5629C10.5569 2.22762 10.1746 1.99842 9.74988 1.91482ZM8.99988 18.3764H4.2927L8.99988 5.82232V18.3764ZM21.9871 18.0473L16.3696 3.06513C16.3639 3.05107 16.3583 3.03607 16.3518 3.02201C16.1833 2.62368 15.8823 2.29584 15.4997 2.09404C15.1172 1.89224 14.6766 1.8289 14.2528 1.91474C13.8289 2.00058 13.4477 2.23032 13.1738 2.56504C12.8999 2.89977 12.7501 3.31888 12.7499 3.75138V18.7514C12.7499 19.2487 12.9474 19.7256 13.2991 20.0772C13.6507 20.4288 14.1276 20.6264 14.6249 20.6264H20.2499C20.557 20.6264 20.8595 20.551 21.1307 20.4068C21.4018 20.2626 21.6334 20.054 21.8051 19.7993C21.9767 19.5446 22.0832 19.2516 22.1151 18.9461C22.147 18.6406 22.1033 18.332 21.988 18.0473H21.9871ZM14.9999 18.3764V5.82232L19.7071 18.3764H14.9999Z" fill="#130032"/>
</svg>
