<svg width="24" height="24" viewBox="0 0 24 24" fill="none" xmlns="http://www.w3.org/2000/svg">
<path d="M5.25 11.2494H20.25C20.6826 11.2494 21.1018 11.0998 21.4367 10.826C21.7716 10.5521 22.0015 10.1709 22.0875 9.74699C22.1735 9.32303 22.1102 8.8824 21.9084 8.49976C21.7066 8.11713 21.3787 7.81604 20.9803 7.64752L20.9372 7.62971L5.95406 2.01221C5.66947 1.89691 5.36091 1.85326 5.05551 1.88512C4.7501 1.91697 4.45719 2.02334 4.20251 2.19488C3.94784 2.36642 3.73919 2.59789 3.5949 2.86894C3.45061 3.13999 3.3751 3.44233 3.375 3.7494V9.3744C3.375 9.87168 3.57254 10.3486 3.92417 10.7002C4.27581 11.0519 4.75272 11.2494 5.25 11.2494ZM5.625 4.29221L18.1791 8.9994H5.625V4.29221ZM20.25 12.7494H5.25C4.75272 12.7494 4.27581 12.9469 3.92417 13.2986C3.57254 13.6502 3.375 14.1271 3.375 14.6244V20.2494C3.37495 20.5565 3.45034 20.859 3.59457 21.1302C3.73879 21.4013 3.94742 21.6329 4.20212 21.8046C4.45682 21.9762 4.74979 22.0827 5.05527 22.1146C5.36076 22.1465 5.6694 22.1029 5.95406 21.9875L20.9363 16.37L20.9794 16.3522C21.3783 16.1841 21.7067 15.8831 21.909 15.5003C22.1112 15.1176 22.1748 14.6766 22.0889 14.2524C22.003 13.8281 21.7729 13.4466 21.4377 13.1726C21.1026 12.8987 20.6829 12.7491 20.25 12.7494ZM5.625 19.7075V14.9994H18.1791L5.625 19.7075Z" fill="#130032"/>
</svg>
