<svg width="24" height="24" viewBox="0 0 24 24" fill="none" xmlns="http://www.w3.org/2000/svg">
<path d="M19.5 2.62501H7.81032C7.564 2.62434 7.32 2.67255 7.09246 2.76686C6.86491 2.86116 6.65833 2.99968 6.48469 3.17438L3.17438 6.48469C2.99968 6.65833 2.86116 6.86491 2.76686 7.09246C2.67255 7.32 2.62434 7.564 2.62501 7.81032V19.5C2.62501 19.9973 2.82255 20.4742 3.17418 20.8258C3.52581 21.1775 4.00273 21.375 4.50001 21.375H19.5C19.9973 21.375 20.4742 21.1775 20.8258 20.8258C21.1775 20.4742 21.375 19.9973 21.375 19.5V4.50001C21.375 4.00273 21.1775 3.52581 20.8258 3.17418C20.4742 2.82255 19.9973 2.62501 19.5 2.62501ZM8.62501 4.87501H15.375V6.75001H8.62501V4.87501ZM19.125 19.125H4.87501V7.96876L6.37501 6.46876V7.12501C6.37501 7.37124 6.4235 7.61505 6.51773 7.84254C6.61196 8.07002 6.75007 8.27672 6.92418 8.45083C7.27581 8.80246 7.75273 9.00001 8.25001 9.00001H15.75C15.9962 9.00001 16.2401 8.95151 16.4675 8.85728C16.695 8.76305 16.9017 8.62494 17.0758 8.45083C17.2499 8.27672 17.3881 8.07002 17.4823 7.84254C17.5765 7.61505 17.625 7.37124 17.625 7.12501V4.87501H19.125V19.125ZM12 10.125C11.2212 10.125 10.46 10.3559 9.81245 10.7886C9.16493 11.2213 8.66025 11.8362 8.36223 12.5557C8.06421 13.2752 7.98624 14.0669 8.13816 14.8307C8.29009 15.5945 8.6651 16.2961 9.21577 16.8467C9.76644 17.3974 10.468 17.7724 11.2318 17.9243C11.9956 18.0763 12.7873 17.9983 13.5068 17.7003C14.2263 17.4023 14.8413 16.8976 15.2739 16.2501C15.7066 15.6025 15.9375 14.8413 15.9375 14.0625C15.9375 13.0182 15.5227 12.0167 14.7842 11.2783C14.0458 10.5398 13.0443 10.125 12 10.125ZM12 15.75C11.6663 15.75 11.34 15.651 11.0625 15.4656C10.785 15.2802 10.5687 15.0166 10.441 14.7083C10.3132 14.3999 10.2798 14.0606 10.3449 13.7333C10.41 13.4059 10.5708 13.1053 10.8068 12.8693C11.0428 12.6333 11.3434 12.4725 11.6708 12.4074C11.9981 12.3423 12.3374 12.3757 12.6458 12.5035C12.9541 12.6312 13.2177 12.8475 13.4031 13.125C13.5885 13.4025 13.6875 13.7288 13.6875 14.0625C13.6875 14.5101 13.5097 14.9393 13.1932 15.2557C12.8768 15.5722 12.4476 15.75 12 15.75Z" fill="#130032"/>
</svg>
