<svg width="24" height="24" viewBox="0 0 24 24" fill="none" xmlns="http://www.w3.org/2000/svg">
<path d="M20.2164 12.0007C21.058 11.4076 21.6474 10.5212 21.8687 9.51561C22.09 8.51007 21.9273 7.45811 21.4125 6.56644C20.8977 5.67477 20.0681 5.00785 19.0866 4.69673C18.1051 4.38562 17.0427 4.4528 16.1083 4.88507C16.0152 3.85979 15.5422 2.90636 14.7821 2.21206C14.0219 1.51777 13.0296 1.13281 12.0001 1.13281C10.9707 1.13281 9.97837 1.51777 9.21823 2.21206C8.45809 2.90636 7.98505 3.85979 7.89202 4.88507C6.95755 4.4528 5.8952 4.38562 4.91372 4.69673C3.93224 5.00785 3.10259 5.67477 2.58779 6.56644C2.073 7.45811 1.91027 8.51007 2.1316 9.51561C2.35292 10.5212 2.94229 11.4076 3.7839 12.0007C2.9436 12.5943 2.35547 13.4806 2.13491 14.4855C1.91436 15.4904 2.0773 16.5415 2.59176 17.4324C3.10622 18.3234 3.93507 18.99 4.91566 19.3013C5.89625 19.6127 6.95781 19.5464 7.89202 19.1154C7.98505 20.1407 8.45809 21.0941 9.21823 21.7884C9.97837 22.4827 10.9707 22.8676 12.0001 22.8676C13.0296 22.8676 14.0219 22.4827 14.7821 21.7884C15.5422 21.0941 16.0152 20.1407 16.1083 19.1154C17.0425 19.5464 18.104 19.6127 19.0846 19.3013C20.0652 18.99 20.8941 18.3234 21.4085 17.4324C21.923 16.5415 22.0859 15.4904 21.8654 14.4855C21.6448 13.4806 21.0567 12.5943 20.2164 12.0007ZM10.1251 12.0007C10.1251 11.6299 10.2351 11.2673 10.4411 10.959C10.6472 10.6507 10.94 10.4103 11.2826 10.2684C11.6252 10.1265 12.0022 10.0894 12.3659 10.1617C12.7297 10.2341 13.0637 10.4127 13.326 10.6749C13.5882 10.9371 13.7668 11.2712 13.8391 11.6349C13.9115 11.9986 13.8743 12.3756 13.7324 12.7182C13.5905 13.0608 13.3502 13.3537 13.0418 13.5597C12.7335 13.7657 12.371 13.8757 12.0001 13.8757C11.5029 13.8757 11.026 13.6782 10.6743 13.3265C10.3227 12.9749 10.1251 12.498 10.1251 12.0007ZM16.908 7.00195C17.1213 6.87689 17.3572 6.79526 17.6022 6.76176C17.8472 6.72827 18.0964 6.74356 18.3355 6.80676C18.5745 6.86997 18.7987 6.97983 18.9952 7.13004C19.1916 7.28024 19.3564 7.46782 19.48 7.68196C19.6037 7.8961 19.6837 8.13259 19.7156 8.3778C19.7475 8.62302 19.7305 8.87211 19.6657 9.11075C19.6009 9.34938 19.4896 9.57285 19.3381 9.76828C19.1866 9.9637 18.9979 10.1272 18.783 10.2494C18.5345 10.3929 17.7967 10.7069 15.9611 10.8513C15.7745 10.212 15.4361 9.62731 14.9748 9.14695C16.0183 7.6282 16.6595 7.14539 16.908 7.00195ZM12.0001 3.3757C12.4974 3.3757 12.9743 3.57324 13.326 3.92487C13.6776 4.2765 13.8751 4.75342 13.8751 5.2507C13.8751 5.53757 13.7814 6.33351 12.9855 7.9957C12.3389 7.83601 11.6632 7.83601 11.0167 7.9957C10.2189 6.33351 10.1251 5.53757 10.1251 5.2507C10.1251 4.75342 10.3227 4.2765 10.6743 3.92487C11.026 3.57324 11.5029 3.3757 12.0001 3.3757ZM4.53108 7.6882C4.77973 7.25756 5.18926 6.94333 5.66959 6.81464C6.14991 6.68594 6.66169 6.75332 7.09233 7.00195C7.34077 7.14539 7.98202 7.6282 9.02546 9.14695C8.56418 9.62731 8.22582 10.212 8.03921 10.8513C6.20358 10.7069 5.46577 10.3929 5.21733 10.2494C4.7867 10.0008 4.47247 9.59127 4.34377 9.11095C4.21508 8.63062 4.28245 8.11885 4.53108 7.6882ZM7.09233 16.9994C6.87901 17.1245 6.64306 17.2061 6.39807 17.2396C6.15307 17.2731 5.90387 17.2578 5.66481 17.1946C5.42575 17.1314 5.20155 17.0216 5.00512 16.8714C4.80869 16.7212 4.64392 16.5336 4.52028 16.3194C4.39664 16.1053 4.31658 15.8688 4.2847 15.6236C4.25283 15.3784 4.26978 15.1293 4.33456 14.8907C4.39935 14.652 4.5107 14.4285 4.66221 14.2331C4.81371 14.0377 5.00237 13.8742 5.21733 13.7519C5.46577 13.6085 6.20358 13.2944 8.03921 13.1501C8.22582 13.7894 8.56418 14.3741 9.02546 14.8544C7.98202 16.3732 7.34077 16.856 7.09233 16.9994ZM12.0001 20.6257C11.5029 20.6257 11.026 20.4282 10.6743 20.0765C10.3227 19.7249 10.1251 19.248 10.1251 18.7507C10.1251 18.4638 10.2189 17.6679 11.0148 16.0057C11.6614 16.1654 12.337 16.1654 12.9836 16.0057C13.7814 17.6679 13.8751 18.4638 13.8751 18.7507C13.8751 19.248 13.6776 19.7249 13.326 20.0765C12.9743 20.4282 12.4974 20.6257 12.0001 20.6257ZM19.4692 16.3132C19.2206 16.7438 18.811 17.0581 18.3307 17.1868C17.8504 17.3155 17.3386 17.2481 16.908 16.9994C16.6595 16.856 16.0183 16.3732 14.9748 14.8544C15.4361 14.3741 15.7745 13.7894 15.9611 13.1501C17.7967 13.2944 18.5345 13.6085 18.783 13.7519C19.2136 14.0006 19.5278 14.4101 19.6565 14.8905C19.7852 15.3708 19.7178 15.8826 19.4692 16.3132Z" fill="#130032"/>
</svg>
