<svg width="24" height="24" viewBox="0 0 24 24" fill="none" xmlns="http://www.w3.org/2000/svg">
<path d="M23.2957 6.70508L20.2957 3.70508C20.0843 3.49373 19.7977 3.375 19.4988 3.375C19.1999 3.375 18.9133 3.49373 18.7019 3.70508C18.4906 3.91642 18.3718 4.20307 18.3718 4.50195C18.3718 4.80084 18.4906 5.08748 18.7019 5.29883L19.781 6.37601H19.4997C14.6247 6.37601 13.4247 9.25508 12.461 11.5679C11.6341 13.5526 11.0125 15.0413 8.45317 15.3263C8.16969 14.3723 7.55082 13.5529 6.71067 13.0192C5.87052 12.4856 4.86577 12.2737 3.88168 12.4227C2.8976 12.5716 2.00055 13.0714 1.35597 13.8297C0.711383 14.5881 0.36273 15.5539 0.374303 16.5492C0.385875 17.5444 0.756893 18.5019 1.41894 19.2451C2.08098 19.9882 2.9894 20.467 3.97669 20.593C4.96397 20.719 5.96353 20.4839 6.79104 19.9308C7.61855 19.3778 8.2182 18.5442 8.47942 17.5838C12.5425 17.221 13.6422 14.5838 14.5385 12.4341C15.4591 10.2198 16.1247 8.62601 19.4997 8.62601H19.781L18.701 9.70508C18.4896 9.91642 18.3709 10.2031 18.3709 10.502C18.3709 10.8008 18.4896 11.0875 18.701 11.2988C18.9123 11.5102 19.199 11.6289 19.4979 11.6289C19.7967 11.6289 20.0834 11.5102 20.2947 11.2988L23.2947 8.29883C23.3997 8.19437 23.483 8.07023 23.5398 7.93352C23.5967 7.7968 23.626 7.65021 23.6261 7.50215C23.6262 7.35408 23.597 7.20745 23.5403 7.07067C23.4836 6.9339 23.4005 6.80965 23.2957 6.70508ZM4.49973 18.376C4.12889 18.376 3.76638 18.266 3.45804 18.06C3.1497 17.854 2.90937 17.5612 2.76746 17.2185C2.62554 16.8759 2.58841 16.4989 2.66076 16.1352C2.73311 15.7715 2.91168 15.4374 3.17391 15.1752C3.43613 14.913 3.77022 14.7344 4.13394 14.662C4.49765 14.5897 4.87465 14.6268 5.21726 14.7687C5.55988 14.9107 5.85271 15.151 6.05874 15.4593C6.26477 15.7677 6.37473 16.1302 6.37473 16.501C6.37473 16.9983 6.17719 17.4752 5.82556 17.8268C5.47393 18.1785 4.99701 18.376 4.49973 18.376Z" fill="#130032"/>
</svg>
