<svg width="24" height="24" viewBox="0 0 24 24" fill="none" xmlns="http://www.w3.org/2000/svg">
<path d="M19.5 4.12487C18.4162 4.12379 17.3419 4.32802 16.3341 4.72674C14.8528 2.43924 12.6103 1.29737 12.5034 1.24393C12.3471 1.16572 12.1748 1.125 12 1.125C11.8252 1.125 11.6529 1.16572 11.4966 1.24393C11.3897 1.29737 9.14719 2.43924 7.66594 4.72674C6.65809 4.32802 5.58385 4.12379 4.5 4.12487C4.20163 4.12487 3.91548 4.24339 3.7045 4.45437C3.49353 4.66535 3.375 4.9515 3.375 5.24987V8.99987C3.37765 11.0918 4.13937 13.1117 5.51871 14.6845C6.89805 16.2573 8.80129 17.2761 10.875 17.5517V19.9292L8.00344 18.4939C7.73725 18.3655 7.43122 18.347 7.15149 18.4424C6.87176 18.5377 6.6408 18.7394 6.50853 19.0037C6.37626 19.268 6.3533 19.5737 6.44462 19.8548C6.53595 20.1359 6.73421 20.3697 6.99656 20.5058L11.4966 22.7558C11.6529 22.834 11.8252 22.8747 12 22.8747C12.1748 22.8747 12.3471 22.834 12.5034 22.7558L17.0034 20.5058C17.1377 20.441 17.2578 20.3502 17.3567 20.2386C17.4555 20.1269 17.5312 19.9968 17.5794 19.8557C17.6275 19.7145 17.6471 19.5652 17.637 19.4165C17.6269 19.2677 17.5873 19.1224 17.5206 18.9891C17.4539 18.8557 17.3613 18.737 17.2483 18.6398C17.1352 18.5425 17.004 18.4687 16.8622 18.4226C16.7204 18.3766 16.5708 18.3591 16.4222 18.3714C16.2736 18.3836 16.1289 18.4253 15.9966 18.4939L13.125 19.9292V17.5517C15.1987 17.2761 17.1019 16.2573 18.4813 14.6845C19.8606 13.1117 20.6223 11.0918 20.625 8.99987V5.24987C20.625 4.9515 20.5065 4.66535 20.2955 4.45437C20.0845 4.24339 19.7984 4.12487 19.5 4.12487ZM12 3.55674C12.5972 3.94674 13.6059 4.71081 14.3634 5.82549C13.3995 6.54216 12.5947 7.45099 12 8.49456C11.405 7.4512 10.6002 6.54242 9.63656 5.82549C10.3941 4.71081 11.4028 3.94674 12 3.55674ZM5.625 8.99987V6.47424C7.09639 6.74009 8.42782 7.51387 9.38722 8.66069C10.3466 9.80752 10.8731 11.2547 10.875 12.7499V15.2755C9.40369 15.0095 8.07237 14.2357 7.113 13.0889C6.15363 11.9421 5.62704 10.495 5.625 8.99987ZM18.375 8.99987C18.373 10.495 17.8464 11.9421 16.887 13.0889C15.9276 14.2357 14.5963 15.0095 13.125 15.2755V12.7499C13.1269 11.2547 13.6534 9.80752 14.6128 8.66069C15.5722 7.51387 16.9036 6.74009 18.375 6.47424V8.99987Z" fill="#130032"/>
</svg>
