<svg width="24" height="24" viewBox="0 0 24 24" fill="none" xmlns="http://www.w3.org/2000/svg">
<path d="M23.3714 11.2137C23.2507 11.0023 23.089 10.8171 22.8959 10.669C22.7027 10.5209 22.4819 10.4129 22.2464 10.3512C21.6835 10.2052 21.1048 10.1287 20.5233 10.1234C20.7345 8.80675 20.6383 7.4591 20.242 6.18587C20.0993 5.73869 19.7952 5.36068 19.3889 5.1255C18.9827 4.89031 18.5034 4.8148 18.0445 4.91368C17.1797 5.10451 16.3511 5.43273 15.5902 5.88587C14.9783 4.76218 14.1385 3.77868 13.1245 2.99837C12.7996 2.75596 12.405 2.625 11.9995 2.625C11.5941 2.625 11.1995 2.75596 10.8745 2.99837C9.86057 3.77868 9.02076 4.76218 8.40891 5.88587C7.64892 5.43268 6.82125 5.10415 5.95735 4.91274C5.49835 4.81391 5.019 4.88956 4.61273 5.12492C4.20647 5.36029 3.90242 5.73852 3.75985 6.18587C3.36361 7.4591 3.26734 8.80675 3.4786 10.1234C2.89614 10.1285 2.3165 10.205 1.75266 10.3512C1.51718 10.4129 1.29639 10.5209 1.10321 10.669C0.910028 10.8171 0.748354 11.0023 0.627662 11.2137C0.502856 11.4286 0.422009 11.6661 0.38982 11.9125C0.357632 12.1589 0.374744 12.4093 0.440162 12.649C0.772975 13.8827 1.79016 16.2265 4.85954 18.0602C7.88954 19.8734 10.5708 19.8734 12.007 19.8734C13.4433 19.8734 16.1095 19.8734 19.1386 18.0602C22.208 16.2265 23.2252 13.8827 23.558 12.649C23.6235 12.4093 23.6408 12.159 23.6088 11.9126C23.5767 11.6662 23.4961 11.4286 23.3714 11.2137ZM6.01454 16.1281C3.92485 14.8793 3.07547 13.3971 2.73329 12.439C3.18401 12.367 3.64204 12.3525 4.09641 12.3959C4.32266 12.9676 4.59056 13.5219 4.89797 14.0543C5.41314 14.9448 6.02941 15.7727 6.73454 16.5218C6.49641 16.4046 6.25641 16.2734 6.01454 16.1281ZM7.40579 13.8049C7.20891 13.5237 7.01954 13.2424 6.84329 12.934C5.37797 10.3765 5.51579 8.33649 5.81204 7.19462C6.42676 7.37507 7.01126 7.64583 7.54641 7.99805C7.26041 9.03109 7.11844 10.0987 7.12454 11.1706C7.12045 12.0564 7.21478 12.9399 7.40579 13.8049ZM11.9995 17.3674C11.0883 16.6109 9.37454 14.7162 9.37454 11.1677C9.37454 7.65962 11.062 5.75837 11.9995 4.97274C12.937 5.75837 14.6245 7.65962 14.6245 11.1677C14.6245 14.7171 12.9108 16.6137 11.9995 17.3702V17.3674ZM16.5933 13.8049C16.7843 12.9399 16.8786 12.0564 16.8745 11.1706C16.8806 10.0987 16.7387 9.03109 16.4527 7.99805C16.9878 7.6456 17.5723 7.37453 18.187 7.19368C18.4805 8.33649 18.6183 10.3812 17.1502 12.934C16.9777 13.2387 16.7883 13.5284 16.5933 13.8049ZM17.9864 16.1281C17.7464 16.2715 17.5092 16.4009 17.2758 16.5181C17.9781 15.7698 18.5918 14.9431 19.1048 14.0543C19.4123 13.5219 19.6802 12.9676 19.9064 12.3959C20.3608 12.3525 20.8188 12.367 21.2695 12.439C20.9236 13.3971 20.0742 14.8793 17.9845 16.1281H17.9864Z" fill="#130032"/>
</svg>
