<svg width="24" height="24" viewBox="0 0 24 24" fill="none" xmlns="http://www.w3.org/2000/svg">
<path d="M17.6034 20.0296C17.6324 20.1745 17.6325 20.3237 17.6038 20.4687C17.5751 20.6136 17.5181 20.7515 17.4361 20.8744C17.3541 20.9974 17.2487 21.1029 17.1259 21.1851C17.003 21.2673 16.8652 21.3245 16.7203 21.3534C16.6478 21.3679 16.574 21.3751 16.5 21.3749C16.24 21.3748 15.9881 21.2845 15.7871 21.1196C15.5861 20.9547 15.4484 20.7252 15.3975 20.4702L15.0225 18.5952C14.9641 18.3026 15.0243 17.9987 15.1899 17.7505C15.3555 17.5022 15.613 17.3299 15.9056 17.2715C16.1983 17.2131 16.5021 17.2733 16.7504 17.4389C16.9987 17.6045 17.1709 17.862 17.2294 18.1546L17.6034 20.0296ZM12 17.6249C11.7016 17.6249 11.4155 17.7435 11.2045 17.9544C10.9935 18.1654 10.875 18.4516 10.875 18.7499V20.9999C10.875 21.2983 10.9935 21.5844 11.2045 21.7954C11.4155 22.0064 11.7016 22.1249 12 22.1249C12.2984 22.1249 12.5845 22.0064 12.7955 21.7954C13.0065 21.5844 13.125 21.2983 13.125 20.9999V18.7499C13.125 18.4516 13.0065 18.1654 12.7955 17.9544C12.5845 17.7435 12.2984 17.6249 12 17.6249ZM8.09531 17.2715C7.9504 17.2425 7.80121 17.2424 7.65625 17.2711C7.5113 17.2998 7.37341 17.3568 7.25049 17.4388C7.12756 17.5208 7.02199 17.6263 6.93982 17.7491C6.85764 17.8719 6.80047 18.0097 6.77156 18.1546L6.39656 20.0296C6.3676 20.1745 6.36747 20.3237 6.39618 20.4687C6.42489 20.6136 6.48188 20.7515 6.56389 20.8744C6.6459 20.9974 6.75133 21.1029 6.87415 21.1851C6.99696 21.2673 7.13477 21.3245 7.27969 21.3534C7.35223 21.3679 7.42603 21.3751 7.5 21.3749C7.76001 21.3748 8.01193 21.2845 8.21292 21.1196C8.41392 20.9547 8.55158 20.7252 8.6025 20.4702L8.9775 18.5952C9.03601 18.3027 8.97595 17.9989 8.81051 17.7507C8.64508 17.5025 8.38782 17.3301 8.09531 17.2715ZM23.625 10.4999C23.625 12.1799 22.2909 13.6771 19.8675 14.7187C17.7478 15.6271 14.9531 16.1249 12 16.1249C9.04688 16.1249 6.25219 15.6243 4.1325 14.7187C1.70906 13.6771 0.375 12.1799 0.375 10.4999C0.375 8.24431 2.745 6.37493 6.74156 5.44774C7.26047 4.66931 7.94525 4.0154 8.74678 3.53293C9.5483 3.05046 10.4467 2.7514 11.3775 2.65721C12.3082 2.56302 13.2483 2.67604 14.1303 2.98815C15.0122 3.30026 15.8141 3.80374 16.4784 4.46243C16.7857 4.76599 17.0617 5.09952 17.3025 5.45806C21.2719 6.38806 23.625 8.25462 23.625 10.4999ZM7.875 9.07774V9.35899C7.87506 9.44208 7.90272 9.5228 7.95362 9.58847C8.00453 9.65413 8.0758 9.70103 8.15625 9.72181C9.41839 9.99949 10.7077 10.1347 12 10.1249C13.2922 10.1356 14.5815 10.0014 15.8438 9.72462C15.9242 9.70385 15.9955 9.65695 16.0464 9.59128C16.0973 9.52561 16.1249 9.4449 16.125 9.36181V8.99993C16.125 7.90591 15.6904 6.8567 14.9168 6.08312C14.1432 5.30953 13.094 4.87493 12 4.87493H11.9447C9.70031 4.90399 7.875 6.79024 7.875 9.07774ZM21.375 10.4999C21.375 9.87743 20.6578 9.30368 20.2303 9.01587C19.6312 8.62868 18.9862 8.31754 18.3103 8.08962C18.3531 8.39117 18.3748 8.69536 18.375 8.99993V9.36837C18.3759 9.96061 18.1754 10.5356 17.8064 10.9988C17.4374 11.462 16.9218 11.786 16.3444 11.9174C14.918 12.2322 13.4607 12.3857 12 12.3749C10.5396 12.3856 9.08266 12.2322 7.65656 11.9174C7.07908 11.7862 6.5634 11.4625 6.19422 10.9994C5.82504 10.5363 5.62431 9.96151 5.625 9.36931V9.08149C5.62539 8.74784 5.65109 8.4147 5.70187 8.08493C5.02455 8.31309 4.37808 8.62421 3.77719 9.01118C3.34688 9.299 2.625 9.87556 2.625 10.4999C2.625 11.8762 6.28125 13.8749 12 13.8749C17.7188 13.8749 21.375 11.8762 21.375 10.4999Z" fill="#130032"/>
</svg>
