<svg width="24" height="24" viewBox="0 0 24 24" fill="none" xmlns="http://www.w3.org/2000/svg">
<path d="M20.6728 18.5569C21.0582 18.0576 21.2959 17.4602 21.359 16.8327C21.4221 16.2051 21.3081 15.5724 21.0299 15.0064C20.7518 14.4403 20.3205 13.9635 19.7851 13.6301C19.2498 13.2966 18.6317 13.1199 18.0009 13.1199C17.3702 13.1199 16.7521 13.2966 16.2167 13.6301C15.6813 13.9635 15.2501 14.4403 14.9719 15.0064C14.6938 15.5724 14.5798 16.2051 14.6429 16.8327C14.706 17.4602 14.9437 18.0576 15.3291 18.5569C14.6383 19.105 14.1425 19.8611 13.9153 20.7131C13.839 21.0014 13.8802 21.3082 14.03 21.5661C14.1798 21.824 14.4258 22.0119 14.7141 22.0884C14.8074 22.1131 14.9035 22.1254 15 22.125C15.248 22.1248 15.4889 22.0428 15.6854 21.8915C15.8819 21.7403 16.0229 21.5284 16.0866 21.2887C16.3125 20.4562 17.0953 19.875 18 19.875C18.9047 19.875 19.6875 20.4562 19.9125 21.2887C19.9931 21.5727 20.182 21.8136 20.4386 21.9596C20.6951 22.1055 20.9988 22.1448 21.284 22.0689C21.5693 21.993 21.8133 21.808 21.9634 21.5539C22.1135 21.2997 22.1578 20.9968 22.0866 20.7103C21.8591 19.8592 21.3633 19.104 20.6728 18.5569ZM18 15.375C18.2225 15.375 18.44 15.441 18.625 15.5646C18.81 15.6882 18.9542 15.8639 19.0394 16.0695C19.1245 16.275 19.1468 16.5012 19.1034 16.7195C19.06 16.9377 18.9528 17.1382 18.7955 17.2955C18.6382 17.4528 18.4377 17.56 18.2195 17.6034C18.0012 17.6468 17.775 17.6245 17.5695 17.5394C17.3639 17.4542 17.1882 17.31 17.0646 17.125C16.941 16.94 16.875 16.7225 16.875 16.5C16.875 16.2016 16.9935 15.9155 17.2045 15.7045C17.4155 15.4935 17.7016 15.375 18 15.375ZM22.125 8.25V10.125C22.125 10.4234 22.0065 10.7095 21.7955 10.9205C21.5845 11.1315 21.2984 11.25 21 11.25C20.7016 11.25 20.4155 11.1315 20.2045 10.9205C19.9935 10.7095 19.875 10.4234 19.875 10.125V8.625H12.2503C11.8447 8.62433 11.4502 8.49281 11.1253 8.25L8.625 6.375H4.125V18.375H10.5C10.7984 18.375 11.0845 18.4935 11.2955 18.7045C11.5065 18.9155 11.625 19.2016 11.625 19.5C11.625 19.7984 11.5065 20.0845 11.2955 20.2955C11.0845 20.5065 10.7984 20.625 10.5 20.625H3.75C3.25272 20.625 2.77581 20.4275 2.42417 20.0758C2.07254 19.7242 1.875 19.2473 1.875 18.75V6C1.875 5.50272 2.07254 5.02581 2.42417 4.67417C2.77581 4.32254 3.25272 4.125 3.75 4.125H8.74969C9.15525 4.12581 9.54975 4.25731 9.87469 4.5L12.375 6.375H20.25C20.7473 6.375 21.2242 6.57254 21.5758 6.92417C21.9275 7.27581 22.125 7.75272 22.125 8.25Z" fill="#130032"/>
</svg>
