<svg width="24" height="24" viewBox="0 0 24 24" fill="none" xmlns="http://www.w3.org/2000/svg">
<path d="M20.25 6.375H12.375L9.87469 4.5C9.54975 4.25731 9.15525 4.12581 8.74969 4.125H3.75C3.25272 4.125 2.77581 4.32254 2.42417 4.67417C2.07254 5.02581 1.875 5.50272 1.875 6V18.75C1.875 19.2473 2.07254 19.7242 2.42417 20.0758C2.77581 20.4275 3.25272 20.625 3.75 20.625H20.3334C20.8084 20.6245 21.2638 20.4356 21.5997 20.0997C21.9356 19.7638 22.1245 19.3084 22.125 18.8334V8.25C22.125 7.75272 21.9275 7.27581 21.5758 6.92417C21.2242 6.57254 20.7473 6.375 20.25 6.375ZM19.875 18.375H4.125V6.375H8.625L11.325 8.4C11.5197 8.54605 11.7566 8.625 12 8.625H19.875V18.375ZM12 10.125C12.2984 10.125 12.5845 10.2435 12.7955 10.4545C13.0065 10.6655 13.125 10.9516 13.125 11.25V12.375H14.25C14.5484 12.375 14.8345 12.4935 15.0455 12.7045C15.2565 12.9155 15.375 13.2016 15.375 13.5C15.375 13.7984 15.2565 14.0845 15.0455 14.2955C14.8345 14.5065 14.5484 14.625 14.25 14.625H13.125V15.75C13.125 16.0484 13.0065 16.3345 12.7955 16.5455C12.5845 16.7565 12.2984 16.875 12 16.875C11.7016 16.875 11.4155 16.7565 11.2045 16.5455C10.9935 16.3345 10.875 16.0484 10.875 15.75V14.625H9.75C9.45163 14.625 9.16548 14.5065 8.9545 14.2955C8.74353 14.0845 8.625 13.7984 8.625 13.5C8.625 13.2016 8.74353 12.9155 8.9545 12.7045C9.16548 12.4935 9.45163 12.375 9.75 12.375H10.875V11.25C10.875 10.9516 10.9935 10.6655 11.2045 10.4545C11.4155 10.2435 11.7016 10.125 12 10.125Z" fill="#130032"/>
</svg>
