<svg width="24" height="24" viewBox="0 0 24 24" fill="none" xmlns="http://www.w3.org/2000/svg">
<path d="M21 14.25H20.625V13.875C20.625 13.0794 20.3089 12.3163 19.7463 11.7537C19.1837 11.1911 18.4206 10.875 17.625 10.875C16.8294 10.875 16.0663 11.1911 15.5037 11.7537C14.9411 12.3163 14.625 13.0794 14.625 13.875V14.25H14.25C13.9516 14.25 13.6655 14.3685 13.4545 14.5795C13.2435 14.7905 13.125 15.0766 13.125 15.375V19.5C13.125 19.7984 13.2435 20.0845 13.4545 20.2955C13.6655 20.5065 13.9516 20.625 14.25 20.625H21C21.2984 20.625 21.5845 20.5065 21.7955 20.2955C22.0065 20.0845 22.125 19.7984 22.125 19.5V15.375C22.125 15.0766 22.0065 14.7905 21.7955 14.5795C21.5845 14.3685 21.2984 14.25 21 14.25ZM16.875 13.875C16.875 13.6761 16.954 13.4853 17.0947 13.3447C17.2353 13.204 17.4261 13.125 17.625 13.125C17.8239 13.125 18.0147 13.204 18.1553 13.3447C18.296 13.4853 18.375 13.6761 18.375 13.875V14.25H16.875V13.875ZM19.875 18.375H15.375V16.5H19.875V18.375ZM20.25 6.37501H12.5053L10.0678 3.62907C9.89133 3.4306 9.67471 3.27189 9.43228 3.16344C9.18985 3.055 8.92714 2.99929 8.66156 3.00001H3.75C3.25272 3.00001 2.77581 3.19755 2.42417 3.54918C2.07254 3.90081 1.875 4.37773 1.875 4.87501V18.8081C1.87574 19.2898 2.0674 19.7515 2.40797 20.092C2.74854 20.4326 3.21024 20.6243 3.69188 20.625H9.8025C10.1009 20.625 10.387 20.5065 10.598 20.2955C10.809 20.0845 10.9275 19.7984 10.9275 19.5C10.9275 19.2016 10.809 18.9155 10.598 18.7045C10.387 18.4935 10.1009 18.375 9.8025 18.375H4.125V8.62501H19.875C19.875 8.92338 19.9935 9.20952 20.2045 9.4205C20.4155 9.63148 20.7016 9.75001 21 9.75001C21.2984 9.75001 21.5845 9.63148 21.7955 9.4205C22.0065 9.20952 22.125 8.92338 22.125 8.62501V8.25001C22.125 7.75273 21.9275 7.27581 21.5758 6.92418C21.2242 6.57255 20.7473 6.37501 20.25 6.37501ZM4.125 6.37501V5.25001H8.49469L9.495 6.37501H4.125Z" fill="#130032"/>
</svg>
