<svg width="24" height="24" viewBox="0 0 24 24" fill="none" xmlns="http://www.w3.org/2000/svg">
<path d="M22.125 8.25V8.625C22.125 8.92337 22.0065 9.20952 21.7955 9.4205C21.5845 9.63147 21.2984 9.75 21 9.75C20.7016 9.75 20.4155 9.63147 20.2045 9.4205C19.9935 9.20952 19.875 8.92337 19.875 8.625H12.2503C11.8447 8.62419 11.4502 8.49269 11.1253 8.25L8.625 6.375H4.125V18.375H9.75C10.0484 18.375 10.3345 18.4935 10.5455 18.7045C10.7565 18.9155 10.875 19.2016 10.875 19.5C10.875 19.7984 10.7565 20.0845 10.5455 20.2955C10.3345 20.5065 10.0484 20.625 9.75 20.625H3.75C3.25272 20.625 2.77581 20.4275 2.42417 20.0758C2.07254 19.7242 1.875 19.2473 1.875 18.75V6C1.875 5.50272 2.07254 5.02581 2.42417 4.67417C2.77581 4.32254 3.25272 4.125 3.75 4.125H8.74969C9.15525 4.12581 9.54975 4.25731 9.87469 4.5L12.375 6.375H20.25C20.7473 6.375 21.2242 6.57254 21.5758 6.92417C21.9275 7.27581 22.125 7.75272 22.125 8.25ZM22.125 15.375V19.5C22.125 19.7984 22.0065 20.0845 21.7955 20.2955C21.5845 20.5065 21.2984 20.625 21 20.625H14.25C13.9516 20.625 13.6655 20.5065 13.4545 20.2955C13.2435 20.0845 13.125 19.7984 13.125 19.5V15.375C13.125 15.0766 13.2435 14.7905 13.4545 14.5795C13.6655 14.3685 13.9516 14.25 14.25 14.25H14.625V13.875C14.625 13.0794 14.9411 12.3163 15.5037 11.7537C16.0663 11.1911 16.8294 10.875 17.625 10.875C18.4206 10.875 19.1837 11.1911 19.7463 11.7537C20.3089 12.3163 20.625 13.0794 20.625 13.875V14.25H21C21.2984 14.25 21.5845 14.3685 21.7955 14.5795C22.0065 14.7905 22.125 15.0766 22.125 15.375ZM16.875 14.25H18.375V13.875C18.375 13.6761 18.296 13.4853 18.1553 13.3447C18.0147 13.204 17.8239 13.125 17.625 13.125C17.4261 13.125 17.2353 13.204 17.0947 13.3447C16.954 13.4853 16.875 13.6761 16.875 13.875V14.25ZM19.875 16.5H15.375V18.375H19.875V16.5Z" fill="#130032"/>
</svg>
