<svg width="24" height="24" viewBox="0 0 24 24" fill="none" xmlns="http://www.w3.org/2000/svg">
<path d="M9.375 19.5C9.375 19.7984 9.25647 20.0845 9.0455 20.2955C8.83452 20.5065 8.54837 20.625 8.25 20.625H3.69188C3.21024 20.6243 2.74854 20.4326 2.40797 20.092C2.0674 19.7515 1.87574 19.2898 1.875 18.8081V18C1.875 17.7016 1.99353 17.4155 2.2045 17.2045C2.41548 16.9935 2.70163 16.875 3 16.875C3.29837 16.875 3.58452 16.9935 3.7955 17.2045C4.00647 17.4155 4.125 17.7016 4.125 18V18.375H8.25C8.54837 18.375 8.83452 18.4935 9.0455 18.7045C9.25647 18.9155 9.375 19.2016 9.375 19.5ZM15 18.375H12C11.7016 18.375 11.4155 18.4935 11.2045 18.7045C10.9935 18.9155 10.875 19.2016 10.875 19.5C10.875 19.7984 10.9935 20.0845 11.2045 20.2955C11.4155 20.5065 11.7016 20.625 12 20.625H15C15.2984 20.625 15.5845 20.5065 15.7955 20.2955C16.0065 20.0845 16.125 19.7984 16.125 19.5C16.125 19.2016 16.0065 18.9155 15.7955 18.7045C15.5845 18.4935 15.2984 18.375 15 18.375ZM21 13.125C20.7016 13.125 20.4155 13.2435 20.2045 13.4545C19.9935 13.6655 19.875 13.9516 19.875 14.25V18.375H18.75C18.4516 18.375 18.1655 18.4935 17.9545 18.7045C17.7435 18.9155 17.625 19.2016 17.625 19.5C17.625 19.7984 17.7435 20.0845 17.9545 20.2955C18.1655 20.5065 18.4516 20.625 18.75 20.625H20.3334C20.8084 20.6245 21.2638 20.4356 21.5997 20.0997C21.9356 19.7638 22.1245 19.3084 22.125 18.8334V14.25C22.125 13.9516 22.0065 13.6655 21.7955 13.4545C21.5845 13.2435 21.2984 13.125 21 13.125ZM20.25 6.375H15.75C15.4516 6.375 15.1655 6.49353 14.9545 6.7045C14.7435 6.91548 14.625 7.20163 14.625 7.5C14.625 7.79837 14.7435 8.08452 14.9545 8.2955C15.1655 8.50647 15.4516 8.625 15.75 8.625H19.875V10.5C19.875 10.7984 19.9935 11.0845 20.2045 11.2955C20.4155 11.5065 20.7016 11.625 21 11.625C21.2984 11.625 21.5845 11.5065 21.7955 11.2955C22.0065 11.0845 22.125 10.7984 22.125 10.5V8.25C22.125 7.75272 21.9275 7.27581 21.5758 6.92417C21.2242 6.57254 20.7473 6.375 20.25 6.375ZM3 15.375C3.29837 15.375 3.58452 15.2565 3.7955 15.0455C4.00647 14.8345 4.125 14.5484 4.125 14.25V11.25C4.125 10.9516 4.00647 10.6655 3.7955 10.4545C3.58452 10.2435 3.29837 10.125 3 10.125C2.70163 10.125 2.41548 10.2435 2.2045 10.4545C1.99353 10.6655 1.875 10.9516 1.875 11.25V14.25C1.875 14.5484 1.99353 14.8345 2.2045 15.0455C2.41548 15.2565 2.70163 15.375 3 15.375ZM1.875 7.5V4.875C1.875 4.37772 2.07254 3.90081 2.42417 3.54917C2.77581 3.19754 3.25272 3 3.75 3H8.66344C8.92807 3.00008 9.18969 3.05617 9.43109 3.16459C9.6725 3.27301 9.88821 3.43131 10.0641 3.62906L12.8438 6.75C12.9888 6.9122 13.0838 7.113 13.117 7.32806C13.1503 7.54313 13.1205 7.76322 13.0311 7.96167C12.9418 8.16012 12.7969 8.32842 12.6139 8.44615C12.4309 8.56389 12.2176 8.62601 12 8.625H3C2.70163 8.625 2.41548 8.50647 2.2045 8.2955C1.99353 8.08452 1.875 7.79837 1.875 7.5ZM4.125 6.375H9.495L8.49469 5.25H4.125V6.375Z" fill="#130032"/>
</svg>
