<svg width="24" height="24" viewBox="0 0 24 24" fill="none" xmlns="http://www.w3.org/2000/svg">
<path d="M4.125 6.375V18.375H10.125C10.4234 18.375 10.7095 18.4935 10.9205 18.7045C11.1315 18.9155 11.25 19.2016 11.25 19.5C11.25 19.7984 11.1315 20.0845 10.9205 20.2955C10.7095 20.5065 10.4234 20.625 10.125 20.625H3.75C3.25272 20.625 2.77581 20.4275 2.42417 20.0758C2.07254 19.7242 1.875 19.2473 1.875 18.75V6C1.875 5.50272 2.07254 5.02581 2.42417 4.67417C2.77581 4.32254 3.25272 4.125 3.75 4.125H8.74969C9.15525 4.12581 9.54975 4.25731 9.87469 4.5L12.375 6.375H20.25C20.7473 6.375 21.2242 6.57254 21.5758 6.92417C21.9275 7.27581 22.125 7.75272 22.125 8.25V10.125C22.125 10.4234 22.0065 10.7095 21.7955 10.9205C21.5845 11.1315 21.2984 11.25 21 11.25C20.7016 11.25 20.4155 11.1315 20.2045 10.9205C19.9935 10.7095 19.875 10.4234 19.875 10.125V8.625H12C11.7566 8.625 11.5197 8.54605 11.325 8.4L8.625 6.375H4.125ZM22.4662 16.0191L20.5369 17.6128L21.1228 19.9809C21.1758 20.1958 21.1643 20.4216 21.0896 20.6299C21.0149 20.8383 20.8805 21.02 20.703 21.1522C20.5256 21.2845 20.3131 21.3616 20.0921 21.3737C19.8711 21.3858 19.6514 21.3324 19.4606 21.2203L17.25 19.9181L15.0394 21.2194C14.8486 21.3315 14.6289 21.3848 14.4079 21.3727C14.1869 21.3606 13.9744 21.2836 13.797 21.1513C13.6195 21.019 13.4851 20.8373 13.4104 20.629C13.3357 20.4206 13.3242 20.1949 13.3772 19.98L13.9631 17.6119L12.0338 16.0181C11.8607 15.8753 11.7344 15.6841 11.6709 15.469C11.6074 15.2539 11.6096 15.0247 11.6773 14.8108C11.745 14.597 11.8751 14.4082 12.0509 14.2689C12.2267 14.1295 12.4401 14.0459 12.6637 14.0287L15.2344 13.83L16.2188 11.5538C16.3063 11.353 16.4505 11.1822 16.6336 11.0622C16.8168 10.9423 17.031 10.8784 17.25 10.8784C17.469 10.8784 17.6832 10.9423 17.8664 11.0622C18.0495 11.1822 18.1937 11.353 18.2812 11.5538L19.2638 13.8309L21.8344 14.0297C22.058 14.0469 22.2714 14.1305 22.4472 14.2698C22.623 14.4092 22.7531 14.5979 22.8208 14.8117C22.8885 15.0256 22.8908 15.2548 22.8273 15.4699C22.7637 15.6851 22.6374 15.8763 22.4644 16.0191H22.4662ZM18.885 16.0584L18.4163 16.0219C18.212 16.006 18.0159 15.9347 17.8492 15.8156C17.6825 15.6965 17.5515 15.5341 17.4703 15.3459L17.2519 14.8397L17.0334 15.3459C16.9522 15.5342 16.821 15.6967 16.6542 15.8158C16.4873 15.9349 16.291 16.0062 16.0866 16.0219L15.6178 16.0584L15.9441 16.3275C16.1073 16.4625 16.2291 16.6409 16.2954 16.8421C16.3618 17.0432 16.37 17.2591 16.3191 17.4647L16.2056 17.9231L16.6809 17.6419C16.8539 17.54 17.0511 17.4862 17.2519 17.4862C17.4527 17.4862 17.6498 17.54 17.8228 17.6419L18.2981 17.9231L18.1875 17.4647C18.1366 17.2591 18.1448 17.0432 18.2111 16.8421C18.2775 16.6409 18.3993 16.4625 18.5625 16.3275L18.885 16.0584Z" fill="#130032"/>
</svg>
