<svg width="24" height="24" viewBox="0 0 24 24" fill="none" xmlns="http://www.w3.org/2000/svg">
<path d="M20.6728 18.5569C21.0582 18.0576 21.2959 17.4602 21.359 16.8327C21.4221 16.2051 21.3081 15.5724 21.0299 15.0064C20.7518 14.4403 20.3205 13.9635 19.7851 13.6301C19.2498 13.2967 18.6317 13.1199 18.0009 13.1199C17.3702 13.1199 16.7521 13.2967 16.2167 13.6301C15.6813 13.9635 15.2501 14.4403 14.9719 15.0064C14.6938 15.5724 14.5798 16.2051 14.6429 16.8327C14.706 17.4602 14.9437 18.0576 15.3291 18.5569C14.6383 19.105 14.1425 19.8611 13.9153 20.7131C13.839 21.0014 13.8802 21.3082 14.03 21.5661C14.1798 21.824 14.4258 22.0119 14.7141 22.0884C14.8074 22.1131 14.9035 22.1254 15 22.125C15.248 22.1248 15.4889 22.0428 15.6854 21.8915C15.8819 21.7403 16.0229 21.5284 16.0866 21.2888C16.3125 20.4563 17.0953 19.875 18 19.875C18.9047 19.875 19.6875 20.4563 19.9125 21.2888C19.9931 21.5727 20.182 21.8136 20.4386 21.9596C20.6951 22.1055 20.9988 22.1448 21.284 22.0689C21.5693 21.993 21.8133 21.808 21.9634 21.5539C22.1135 21.2997 22.1578 20.9968 22.0866 20.7103C21.8591 19.8592 21.3633 19.104 20.6728 18.5569ZM18 15.375C18.2225 15.375 18.44 15.441 18.625 15.5646C18.81 15.6882 18.9542 15.8639 19.0394 16.0695C19.1245 16.2751 19.1468 16.5013 19.1034 16.7195C19.06 16.9377 18.9528 17.1382 18.7955 17.2955C18.6382 17.4528 18.4377 17.56 18.2195 17.6034C18.0012 17.6468 17.775 17.6245 17.5695 17.5394C17.3639 17.4542 17.1882 17.31 17.0646 17.125C16.941 16.94 16.875 16.7225 16.875 16.5C16.875 16.2016 16.9935 15.9155 17.2045 15.7045C17.4155 15.4935 17.7016 15.375 18 15.375ZM20.25 6.375H12.5053L10.0678 3.62907C9.89154 3.43084 9.67522 3.27226 9.43313 3.16382C9.19104 3.05539 8.9287 2.99955 8.66344 3H3.75C3.25272 3 2.77581 3.19755 2.42417 3.54918C2.07254 3.90081 1.875 4.37772 1.875 4.875V18.8072C1.8755 19.289 2.06705 19.7509 2.40764 20.0917C2.74824 20.4325 3.21008 20.6243 3.69188 20.625H10.5525C10.8509 20.625 11.137 20.5065 11.348 20.2955C11.559 20.0845 11.6775 19.7984 11.6775 19.5C11.6775 19.2016 11.559 18.9155 11.348 18.7045C11.137 18.4935 10.8509 18.375 10.5525 18.375H4.125V8.625H19.875V10.125C19.875 10.4234 19.9935 10.7095 20.2045 10.9205C20.4155 11.1315 20.7016 11.25 21 11.25C21.2984 11.25 21.5845 11.1315 21.7955 10.9205C22.0065 10.7095 22.125 10.4234 22.125 10.125V8.25C22.125 7.75272 21.9275 7.27581 21.5758 6.92418C21.2242 6.57255 20.7473 6.375 20.25 6.375ZM4.125 6.375V5.25H8.49469L9.495 6.375H4.125Z" fill="#130032"/>
</svg>
