<svg width="24" height="24" viewBox="0 0 24 24" fill="none" xmlns="http://www.w3.org/2000/svg">
<path d="M8.625 13.5C8.625 13.2016 8.74353 12.9155 8.9545 12.7045C9.16548 12.4935 9.45163 12.375 9.75 12.375H14.25C14.5484 12.375 14.8345 12.4935 15.0455 12.7045C15.2565 12.9155 15.375 13.2016 15.375 13.5C15.375 13.7984 15.2565 14.0845 15.0455 14.2955C14.8345 14.5065 14.5484 14.625 14.25 14.625H9.75C9.45163 14.625 9.16548 14.5065 8.9545 14.2955C8.74353 14.0845 8.625 13.7984 8.625 13.5ZM22.125 8.25001V18.8334C22.1245 19.3084 21.9356 19.7638 21.5997 20.0997C21.2638 20.4356 20.8084 20.6245 20.3334 20.625H3.69188C3.21024 20.6243 2.74854 20.4326 2.40797 20.092C2.0674 19.7515 1.87574 19.2898 1.875 18.8081V4.87501C1.875 4.37773 2.07254 3.90081 2.42417 3.54918C2.77581 3.19755 3.25272 3.00001 3.75 3.00001H8.66344C8.92902 2.99929 9.19172 3.055 9.43415 3.16344C9.67658 3.27189 9.89321 3.4306 10.0697 3.62907L12.5072 6.37501H20.25C20.7473 6.37501 21.2242 6.57255 21.5758 6.92418C21.9275 7.27581 22.125 7.75273 22.125 8.25001ZM4.125 6.37501H9.495L8.49469 5.25001H4.125V6.37501ZM19.875 8.62501H4.125V18.375H19.875V8.62501Z" fill="#130032"/>
</svg>
