<svg width="24" height="24" viewBox="0 0 24 24" fill="none" xmlns="http://www.w3.org/2000/svg">
<path d="M10.5525 18.375H4.125V8.625H19.875V10.5C19.875 10.7984 19.9935 11.0845 20.2045 11.2955C20.4155 11.5065 20.7016 11.625 21 11.625C21.2984 11.625 21.5845 11.5065 21.7955 11.2955C22.0065 11.0845 22.125 10.7984 22.125 10.5V8.25C22.125 7.75272 21.9275 7.27581 21.5758 6.92418C21.2242 6.57255 20.7473 6.375 20.25 6.375H12.5053L10.0678 3.62907C9.89154 3.43084 9.67522 3.27226 9.43313 3.16382C9.19104 3.05539 8.9287 2.99955 8.66344 3H3.75C3.25272 3 2.77581 3.19755 2.42417 3.54918C2.07254 3.90081 1.875 4.37772 1.875 4.875V18.8081C1.87574 19.2898 2.0674 19.7515 2.40797 20.092C2.74854 20.4326 3.21024 20.6243 3.69187 20.625H10.5525C10.8509 20.625 11.137 20.5065 11.348 20.2955C11.559 20.0845 11.6775 19.7984 11.6775 19.5C11.6775 19.2016 11.559 18.9155 11.348 18.7045C11.137 18.4935 10.8509 18.375 10.5525 18.375ZM4.125 5.25H8.49469L9.495 6.375H4.125V5.25ZM22.8225 14.8125C22.7548 14.5987 22.6247 14.4101 22.4489 14.2707C22.2732 14.1314 22.0598 14.0478 21.8362 14.0306L19.2656 13.8319L18.2812 11.5547C18.1937 11.354 18.0495 11.1831 17.8664 11.0632C17.6832 10.9432 17.469 10.8793 17.25 10.8793C17.031 10.8793 16.8168 10.9432 16.6336 11.0632C16.4505 11.1831 16.3063 11.354 16.2187 11.5547L15.2344 13.8309L12.6637 14.0297C12.4401 14.0469 12.2267 14.1305 12.0509 14.2698C11.8751 14.4092 11.745 14.5979 11.6773 14.8117C11.6096 15.0256 11.6074 15.2548 11.6709 15.4699C11.7344 15.6851 11.8607 15.8763 12.0337 16.0191L13.9631 17.6128L13.3772 19.9809C13.3242 20.1958 13.3357 20.4216 13.4104 20.6299C13.4851 20.8383 13.6195 21.02 13.797 21.1523C13.9744 21.2845 14.1869 21.3616 14.4079 21.3737C14.6289 21.3858 14.8486 21.3324 15.0394 21.2203L17.25 19.9181L19.4606 21.2194C19.6514 21.3315 19.8711 21.3848 20.0921 21.3727C20.3131 21.3606 20.5256 21.2836 20.703 21.1513C20.8805 21.019 21.0149 20.8373 21.0896 20.629C21.1643 20.4206 21.1758 20.1949 21.1228 19.98L20.5369 17.6119L22.4662 16.0181C22.6389 15.8755 22.765 15.6845 22.8285 15.4697C22.892 15.2549 22.8899 15.0261 22.8225 14.8125ZM18.5625 16.3275C18.3993 16.4625 18.2775 16.6409 18.2111 16.8421C18.1448 17.0432 18.1366 17.2591 18.1875 17.4647L18.3009 17.9231L17.8256 17.6419C17.6524 17.5405 17.4554 17.4871 17.2547 17.4871C17.054 17.4871 16.857 17.5405 16.6837 17.6419L16.2084 17.9231L16.3219 17.4647C16.3728 17.2591 16.3646 17.0432 16.2982 16.8421C16.2319 16.6409 16.1101 16.4625 15.9469 16.3275L15.6206 16.0584L16.0894 16.0219C16.2938 16.0062 16.4901 15.9349 16.657 15.8158C16.8239 15.6967 16.955 15.5342 17.0362 15.3459L17.2547 14.8397L17.4731 15.3459C17.5543 15.5341 17.6853 15.6965 17.852 15.8156C18.0187 15.9347 18.2148 16.006 18.4191 16.0219L18.8878 16.0584L18.5625 16.3275Z" fill="#130032"/>
</svg>
