<svg width="24" height="24" viewBox="0 0 24 24" fill="none" xmlns="http://www.w3.org/2000/svg">
<path d="M21.8493 4.98562C21.7283 4.27774 21.3907 3.62485 20.8829 3.11705C20.3751 2.60924 19.7222 2.27157 19.0143 2.15062C17.5855 1.90875 15.3815 1.7025 12.9899 2.09343C10.093 2.56781 7.64617 3.78656 5.71867 5.71875C3.79117 7.65093 2.56961 10.095 2.09523 12.9919C1.7043 15.3834 1.90773 17.5856 2.15242 19.0162C2.27337 19.7241 2.61104 20.377 3.11884 20.8848C3.62665 21.3926 4.27954 21.7303 4.98742 21.8512C6.06232 22.0326 7.15045 22.1242 8.24055 22.125C9.16804 22.1267 10.0942 22.0537 11.0099 21.9066C13.9068 21.4322 16.3537 20.2134 18.283 18.2831C20.2124 16.3528 21.4321 13.9069 21.9065 11.01C22.2974 8.61843 22.0912 6.41437 21.8493 4.98562ZM19.6312 5.36062C19.7672 6.16293 19.8486 6.97354 19.8749 7.78687L16.2121 4.125C17.0256 4.15214 17.8362 4.23483 18.6384 4.3725C18.8855 4.41517 19.1135 4.53305 19.2911 4.71006C19.4688 4.88707 19.5876 5.11458 19.6312 5.36156V5.36062ZM4.36867 18.6384C4.23265 17.8364 4.15122 17.0261 4.12492 16.2131L7.7868 19.875C6.97371 19.8478 6.16341 19.7654 5.36148 19.6284C5.11421 19.5857 4.88615 19.4677 4.70846 19.2905C4.53077 19.1133 4.4121 18.8856 4.36867 18.6384ZM16.6921 16.6922C15.6609 17.7234 13.7568 19.1447 10.7671 19.6762L4.32367 13.2328C4.85523 10.2431 6.28117 8.33718 7.31242 7.3125C8.34367 6.28781 10.2468 4.86 13.2374 4.32843L19.6809 10.7719C19.1446 13.7569 17.7187 15.6628 16.6921 16.6922ZM15.4209 10.17L14.9062 10.6875L15.4237 11.2041C15.635 11.4154 15.7537 11.702 15.7537 12.0009C15.7537 12.2998 15.635 12.5865 15.4237 12.7978C15.2123 13.0092 14.9257 13.1279 14.6268 13.1279C14.3279 13.1279 14.0413 13.0092 13.8299 12.7978L13.3124 12.2812L12.2812 13.3125L12.7987 13.83C13.01 14.0413 13.1287 14.328 13.1287 14.6269C13.1287 14.9258 13.01 15.2124 12.7987 15.4237C12.5873 15.6351 12.3007 15.7538 12.0018 15.7538C11.7029 15.7538 11.4163 15.6351 11.2049 15.4237L10.6874 14.9062L10.1699 15.4237C9.95858 15.6351 9.67193 15.7538 9.37305 15.7538C9.07416 15.7538 8.78751 15.6351 8.57617 15.4237C8.36483 15.2124 8.24609 14.9258 8.24609 14.6269C8.24609 14.328 8.36483 14.0413 8.57617 13.83L9.09367 13.3125L8.57617 12.7959C8.47152 12.6913 8.38851 12.5671 8.33188 12.4303C8.27524 12.2936 8.24609 12.1471 8.24609 11.9991C8.24609 11.8511 8.27524 11.7045 8.33188 11.5678C8.38851 11.4311 8.47152 11.3068 8.57617 11.2022C8.68082 11.0975 8.80505 11.0145 8.94178 10.9579C9.07851 10.9013 9.22505 10.8721 9.37305 10.8721C9.52104 10.8721 9.66758 10.9013 9.80431 10.9579C9.94104 11.0145 10.0653 11.0975 10.1699 11.2022L10.6874 11.7187L11.7187 10.6875L11.2012 10.17C11.0965 10.0654 11.0135 9.94112 10.9569 9.80439C10.9002 9.66766 10.8711 9.52112 10.8711 9.37312C10.8711 9.22513 10.9002 9.07858 10.9569 8.94186C11.0135 8.80513 11.0965 8.68089 11.2012 8.57625C11.3058 8.4716 11.4301 8.38859 11.5668 8.33195C11.7035 8.27532 11.8501 8.24617 11.998 8.24617C12.146 8.24617 12.2926 8.27532 12.4293 8.33195C12.566 8.38859 12.6903 8.4716 12.7949 8.57625L13.3124 9.09375L13.8299 8.57625C14.0413 8.3649 14.3279 8.24617 14.6268 8.24617C14.9257 8.24617 15.2123 8.3649 15.4237 8.57625C15.635 8.78759 15.7537 9.07424 15.7537 9.37312C15.7537 9.67201 15.635 9.95865 15.4237 10.17H15.4209Z" fill="#130032"/>
</svg>
