<svg width="24" height="24" viewBox="0 0 24 24" fill="none" xmlns="http://www.w3.org/2000/svg">
<path d="M20.25 14.626H15.8241L15.3806 13.126H20.25C20.5484 13.126 20.8345 13.0075 21.0455 12.7965C21.2565 12.5855 21.375 12.2994 21.375 12.001V11.626C21.3751 10.3338 21.1184 9.05456 20.6198 7.8625C20.1211 6.67044 19.3905 5.58938 18.4704 4.68217C17.5503 3.77497 16.459 3.0597 15.26 2.57796C14.0611 2.09621 12.7783 1.8576 11.4862 1.87599C6.1875 1.95099 1.875 6.32255 1.875 11.626C1.87436 13.2138 2.26151 14.7777 3.00278 16.1818C3.74405 17.5859 4.81702 18.7878 6.12844 19.6829C6.31578 19.8096 6.53696 19.8769 6.76313 19.876H10.875C11.1558 19.8759 11.4329 19.8128 11.686 19.6913C11.9391 19.5699 12.1617 19.3931 12.3374 19.174C12.5131 18.955 12.6373 18.6993 12.7009 18.4259C12.7645 18.1524 12.7659 17.8682 12.705 17.5941C12.6994 17.5685 12.6928 17.5432 12.6853 17.5182L12.4978 16.876H14.1459L15.0834 20.0326C15.1993 20.4186 15.4357 20.7573 15.7582 20.9991C16.0806 21.2409 16.472 21.3729 16.875 21.376H20.25C20.7473 21.376 21.2242 21.1784 21.5758 20.8268C21.9275 20.4752 22.125 19.9983 22.125 19.501V16.501C22.125 16.0037 21.9275 15.5268 21.5758 15.1752C21.2242 14.8235 20.7473 14.626 20.25 14.626ZM9.4125 11.5772C9.2364 11.7962 9.11192 12.0519 9.04829 12.3256C8.98467 12.5992 8.98354 12.8837 9.045 13.1579C9.05063 13.1835 9.05719 13.2088 9.06469 13.2338L10.3697 17.626H7.125C6.19353 16.9274 5.4375 16.0215 4.9168 14.9801C4.39609 13.9387 4.125 12.7903 4.125 11.626C4.125 7.54974 7.44281 4.18599 11.5181 4.12599H11.625C13.4845 4.12573 15.2777 4.81623 16.6568 6.06349C18.0359 7.31076 18.9025 9.02585 19.0884 10.876H10.875C10.5942 10.8755 10.3169 10.9383 10.0637 11.0597C9.81055 11.1811 9.58796 11.358 9.4125 11.5772ZM11.8256 14.626L11.3803 13.126H13.0313L13.4747 14.626H11.8256ZM19.875 19.126H17.1563L16.4916 16.876H19.875V19.126Z" fill="#130032"/>
</svg>
