<svg width="24" height="24" viewBox="0 0 24 24" fill="none" xmlns="http://www.w3.org/2000/svg">
<path d="M19.8753 16.875H14.6253C14.327 16.875 14.0408 16.9935 13.8299 17.2045C13.6189 17.4155 13.5003 17.7016 13.5003 18V19.125C13.5003 20.1196 13.8954 21.0734 14.5987 21.7766C15.302 22.4799 16.2558 22.875 17.2503 22.875C18.2449 22.875 19.1987 22.4799 19.902 21.7766C20.6053 21.0734 21.0003 20.1196 21.0003 19.125V18C21.0003 17.7016 20.8818 17.4155 20.6708 17.2045C20.4599 16.9935 20.1737 16.875 19.8753 16.875ZM17.2503 20.625C16.8525 20.625 16.471 20.467 16.1897 20.1857C15.9084 19.9044 15.7503 19.5228 15.7503 19.125H18.7503C18.7503 19.5228 18.5923 19.9044 18.311 20.1857C18.0297 20.467 17.6482 20.625 17.2503 20.625ZM9.37534 14.625H4.12534C3.82698 14.625 3.54083 14.7435 3.32985 14.9545C3.11887 15.1655 3.00034 15.4516 3.00034 15.75V16.875C3.00034 17.8696 3.39543 18.8234 4.09869 19.5266C4.80196 20.2299 5.75578 20.625 6.75034 20.625C7.74491 20.625 8.69873 20.2299 9.40199 19.5266C10.1053 18.8234 10.5003 17.8696 10.5003 16.875V15.75C10.5003 15.4516 10.3818 15.1655 10.1708 14.9545C9.95986 14.7435 9.67371 14.625 9.37534 14.625ZM6.75034 18.375C6.35252 18.375 5.97099 18.217 5.68968 17.9357C5.40838 17.6544 5.25034 17.2728 5.25034 16.875H8.25034C8.25034 17.2728 8.09231 17.6544 7.811 17.9357C7.5297 18.217 7.14817 18.375 6.75034 18.375ZM6.75034 1.125C5.43222 1.125 4.15347 2.28094 3.24316 4.29656C2.07597 6.88125 1.67003 10.6266 3.53753 12.7444C3.64313 12.864 3.77297 12.9599 3.91845 13.0255C4.06392 13.0911 4.22169 13.125 4.38128 13.125H9.11753C9.27712 13.125 9.43489 13.0911 9.58037 13.0255C9.72584 12.9599 9.85569 12.864 9.96128 12.7444C11.8288 10.6266 11.4228 6.88125 10.2557 4.29656C9.34534 2.28094 8.06284 1.125 6.75034 1.125ZM8.53816 10.875H4.95972C4.33066 9.73781 4.24066 7.55156 5.29347 5.22188C5.92159 3.82969 6.58909 3.375 6.75034 3.375C6.91159 3.375 7.57722 3.82969 8.20628 5.22188C9.25628 7.55156 9.16628 9.73781 8.53816 10.875ZM14.8832 15.375H19.6213C19.7809 15.375 19.9386 15.3411 20.0841 15.2755C20.2296 15.2099 20.3594 15.114 20.465 14.9944C22.3325 12.8766 21.9266 9.13125 20.7594 6.54656C19.8491 4.53094 18.5703 3.375 17.2503 3.375C15.9303 3.375 14.6535 4.53094 13.7432 6.54656C12.576 9.13125 12.17 12.8766 14.0375 14.9944C14.1433 15.1143 14.2735 15.2102 14.4193 15.2759C14.5651 15.3415 14.7233 15.3753 14.8832 15.375ZM15.7963 7.47187C16.4253 6.07969 17.0928 5.625 17.2503 5.625C17.4078 5.625 18.0772 6.07969 18.7053 7.47187C19.7582 9.80156 19.6682 11.9878 19.0391 13.125H15.4625C14.8344 11.9878 14.7444 9.80156 15.7963 7.47187Z" fill="#130032"/>
</svg>
