<svg width="24" height="24" viewBox="0 0 24 24" fill="none" xmlns="http://www.w3.org/2000/svg">
<path d="M13.125 8.25C13.125 7.95163 13.2435 7.66548 13.4545 7.4545C13.6655 7.24353 13.9516 7.125 14.25 7.125H17.25C17.5484 7.125 17.8345 7.24353 18.0455 7.4545C18.2565 7.66548 18.375 7.95163 18.375 8.25V11.25C18.375 11.5484 18.2565 11.8345 18.0455 12.0455C17.8345 12.2565 17.5484 12.375 17.25 12.375C16.9516 12.375 16.6655 12.2565 16.4545 12.0455C16.2435 11.8345 16.125 11.5484 16.125 11.25V9.375H14.25C13.9516 9.375 13.6655 9.25647 13.4545 9.0455C13.2435 8.83452 13.125 8.54837 13.125 8.25ZM6.75 16.875H9.75C10.0484 16.875 10.3345 16.7565 10.5455 16.5455C10.7565 16.3345 10.875 16.0484 10.875 15.75C10.875 15.4516 10.7565 15.1655 10.5455 14.9545C10.3345 14.7435 10.0484 14.625 9.75 14.625H7.875V12.75C7.875 12.4516 7.75647 12.1655 7.5455 11.9545C7.33452 11.7435 7.04837 11.625 6.75 11.625C6.45163 11.625 6.16548 11.7435 5.9545 11.9545C5.74353 12.1655 5.625 12.4516 5.625 12.75V15.75C5.625 16.0484 5.74353 16.3345 5.9545 16.5455C6.16548 16.7565 6.45163 16.875 6.75 16.875ZM22.125 5.25V18.75C22.125 19.2473 21.9275 19.7242 21.5758 20.0758C21.2242 20.4275 20.7473 20.625 20.25 20.625H3.75C3.25272 20.625 2.77581 20.4275 2.42417 20.0758C2.07254 19.7242 1.875 19.2473 1.875 18.75V5.25C1.875 4.75272 2.07254 4.27581 2.42417 3.92417C2.77581 3.57254 3.25272 3.375 3.75 3.375H20.25C20.7473 3.375 21.2242 3.57254 21.5758 3.92417C21.9275 4.27581 22.125 4.75272 22.125 5.25ZM19.875 5.625H4.125V18.375H19.875V5.625Z" fill="#130032"/>
</svg>
