<svg width="24" height="24" viewBox="0 0 24 24" fill="none" xmlns="http://www.w3.org/2000/svg">
<path d="M19.875 9.75002V3.75002C19.875 3.45165 19.7565 3.1655 19.5455 2.95452C19.3346 2.74354 19.0484 2.62502 18.75 2.62502H5.25004C5.02103 2.62381 4.7971 2.69254 4.60819 2.822C4.41927 2.95146 4.27437 3.13549 4.19284 3.34951C4.11131 3.56352 4.09704 3.79732 4.15194 4.01966C4.20683 4.242 4.32828 4.44229 4.50004 4.59377L9.04129 8.62502H5.25004C4.95167 8.62502 4.66552 8.74354 4.45455 8.95452C4.24357 9.1655 4.12504 9.45165 4.12504 9.75002V15.75C4.12505 15.8979 4.1542 16.0443 4.21082 16.1808C4.26744 16.3174 4.35043 16.4415 4.45504 16.546L11.205 23.296C11.3624 23.4531 11.5629 23.5601 11.7811 23.6034C11.9993 23.6467 12.2254 23.6244 12.4309 23.5392C12.6363 23.454 12.812 23.3098 12.9355 23.1249C13.0591 22.9399 13.125 22.7225 13.125 22.5V16.875H18.75C18.9791 16.8762 19.203 16.8075 19.3919 16.678C19.5808 16.5486 19.7257 16.3645 19.8072 16.1505C19.8888 15.9365 19.903 15.7027 19.8481 15.4804C19.7933 15.258 19.6718 15.0577 19.5 14.9063L14.9616 10.875H18.75C19.0484 10.875 19.3346 10.7565 19.5455 10.5455C19.7565 10.3345 19.875 10.0484 19.875 9.75002ZM15.7913 14.625H12C11.7017 14.625 11.4155 14.7435 11.2045 14.9545C10.9936 15.1655 10.875 15.4516 10.875 15.75V19.7813L6.37504 15.2813V10.875H11.5725L15.7913 14.625ZM17.625 8.62502H12.4275L8.20879 4.87502H17.625V8.62502Z" fill="#130032"/>
</svg>
