<svg width="24" height="24" viewBox="0 0 24 24" fill="none" xmlns="http://www.w3.org/2000/svg">
<path d="M21.6354 6.51094C21.8796 6.24226 22.0405 5.90848 22.0986 5.55013C22.1567 5.19178 22.1095 4.82426 21.9628 4.4922C21.8161 4.16014 21.5761 3.87781 21.272 3.67949C20.968 3.48118 20.6129 3.3754 20.2498 3.375H3.74982C3.38663 3.37504 3.03126 3.48055 2.7269 3.67873C2.42254 3.8769 2.18229 4.15921 2.03534 4.49135C1.88839 4.82348 1.84106 5.19114 1.8991 5.54967C1.95715 5.90819 2.11807 6.24214 2.36232 6.51094L2.37357 6.52406L8.62482 13.1953V20.25C8.62471 20.5894 8.71672 20.9224 8.89104 21.2136C9.06536 21.5048 9.31544 21.7433 9.61462 21.9035C9.91381 22.0637 10.2509 22.1397 10.5899 22.1234C10.9289 22.1071 11.2571 21.9991 11.5395 21.8109L14.5395 19.8103C14.7962 19.639 15.0067 19.407 15.1522 19.1349C15.2978 18.8628 15.3739 18.5589 15.3739 18.2503V13.1953L21.6242 6.52406L21.6354 6.51094ZM13.4276 11.9813C13.2328 12.1898 13.1246 12.4646 13.1248 12.75V18.0487L10.8748 19.5487V12.75C10.8748 12.4645 10.7662 12.1897 10.5711 11.9813L4.61513 5.625H19.3826L13.4276 11.9813ZM23.2958 19.455C23.4004 19.5596 23.4834 19.6839 23.54 19.8206C23.5967 19.9573 23.6258 20.1039 23.6258 20.2519C23.6258 20.3999 23.5967 20.5464 23.54 20.6831C23.4834 20.8199 23.4004 20.9441 23.2958 21.0487C23.1911 21.1534 23.0669 21.2364 22.9301 21.293C22.7934 21.3497 22.6469 21.3788 22.4989 21.3788C22.3509 21.3788 22.2043 21.3497 22.0676 21.293C21.9309 21.2364 21.8067 21.1534 21.702 21.0487L20.2498 19.5938L18.7948 21.0478C18.5835 21.2592 18.2968 21.3779 17.9979 21.3779C17.6991 21.3779 17.4124 21.2592 17.2011 21.0478C16.9897 20.8365 16.871 20.5498 16.871 20.2509C16.871 19.9521 16.9897 19.6654 17.2011 19.4541L18.6561 18L17.2011 16.545C16.9897 16.3337 16.871 16.047 16.871 15.7481C16.871 15.4492 16.9897 15.1626 17.2011 14.9513C17.4124 14.7399 17.6991 14.6212 17.9979 14.6212C18.2968 14.6212 18.5835 14.7399 18.7948 14.9513L20.2498 16.4062L21.7039 14.9513C21.9152 14.7399 22.2019 14.6212 22.5008 14.6212C22.7996 14.6212 23.0863 14.7399 23.2976 14.9513C23.509 15.1626 23.6277 15.4492 23.6277 15.7481C23.6277 16.047 23.509 16.3337 23.2976 16.545L21.8436 18L23.2958 19.455Z" fill="#130032"/>
</svg>
