<svg width="24" height="24" viewBox="0 0 24 24" fill="none" xmlns="http://www.w3.org/2000/svg">
<path d="M18 13.875H6C5.70163 13.875 5.41548 13.7565 5.2045 13.5455C4.99353 13.3345 4.875 13.0484 4.875 12.75C4.875 12.4516 4.99353 12.1655 5.2045 11.9545C5.41548 11.7435 5.70163 11.625 6 11.625H18C18.2984 11.625 18.5845 11.7435 18.7955 11.9545C19.0065 12.1655 19.125 12.4516 19.125 12.75C19.125 13.0484 19.0065 13.3345 18.7955 13.5455C18.5845 13.7565 18.2984 13.875 18 13.875ZM21.75 7.125H2.25C1.95163 7.125 1.66548 7.24353 1.4545 7.4545C1.24353 7.66548 1.125 7.95163 1.125 8.25C1.125 8.54837 1.24353 8.83452 1.4545 9.0455C1.66548 9.25647 1.95163 9.375 2.25 9.375H21.75C22.0484 9.375 22.3345 9.25647 22.5455 9.0455C22.7565 8.83452 22.875 8.54837 22.875 8.25C22.875 7.95163 22.7565 7.66548 22.5455 7.4545C22.3345 7.24353 22.0484 7.125 21.75 7.125ZM12 16.125H9.75C9.45163 16.125 9.16548 16.2435 8.9545 16.4545C8.74353 16.6655 8.625 16.9516 8.625 17.25C8.625 17.5484 8.74353 17.8345 8.9545 18.0455C9.16548 18.2565 9.45163 18.375 9.75 18.375H12C12.2984 18.375 12.5845 18.2565 12.7955 18.0455C13.0065 17.8345 13.125 17.5484 13.125 17.25C13.125 16.9516 13.0065 16.6655 12.7955 16.4545C12.5845 16.2435 12.2984 16.125 12 16.125ZM21.0459 15.7041C20.9414 15.5992 20.8172 15.516 20.6805 15.4592C20.5437 15.4024 20.3971 15.3732 20.2491 15.3732C20.101 15.3732 19.9544 15.4024 19.8176 15.4592C19.6809 15.516 19.5567 15.5992 19.4522 15.7041L18 17.1562L16.5459 15.7013C16.3346 15.4899 16.0479 15.3712 15.7491 15.3712C15.4502 15.3712 15.1635 15.4899 14.9522 15.7013C14.7408 15.9126 14.6221 16.1992 14.6221 16.4981C14.6221 16.797 14.7408 17.0837 14.9522 17.295L16.4062 18.75L14.9513 20.2041C14.8466 20.3087 14.7636 20.4329 14.707 20.5697C14.6503 20.7064 14.6212 20.8529 14.6212 21.0009C14.6212 21.1489 14.6503 21.2955 14.707 21.4322C14.7636 21.5689 14.8466 21.6932 14.9513 21.7978C15.1626 22.0092 15.4492 22.1279 15.7481 22.1279C15.8961 22.1279 16.0427 22.0987 16.1794 22.0421C16.3161 21.9855 16.4404 21.9025 16.545 21.7978L18 20.3438L19.4541 21.7987C19.6654 22.0101 19.9521 22.1288 20.2509 22.1288C20.5498 22.1288 20.8365 22.0101 21.0478 21.7987C21.2592 21.5874 21.3779 21.3008 21.3779 21.0019C21.3779 20.703 21.2592 20.4163 21.0478 20.205L19.5938 18.75L21.0487 17.2959C21.1532 17.1913 21.2359 17.067 21.2923 16.9304C21.3487 16.7937 21.3776 16.6473 21.3773 16.4994C21.377 16.3516 21.3476 16.2052 21.2908 16.0688C21.2339 15.9323 21.1507 15.8084 21.0459 15.7041Z" fill="#130032"/>
</svg>
