<svg width="24" height="24" viewBox="0 0 24 24" fill="none" xmlns="http://www.w3.org/2000/svg">
<path d="M16.5002 10.875H14.2502C13.9518 10.875 13.6657 10.7565 13.4547 10.5455C13.2437 10.3345 13.1252 10.0484 13.1252 9.75C13.1252 9.45163 13.2437 9.16548 13.4547 8.9545C13.6657 8.74353 13.9518 8.625 14.2502 8.625H16.5002C16.7985 8.625 17.0847 8.74353 17.2957 8.9545C17.5067 9.16548 17.6252 9.45163 17.6252 9.75C17.6252 10.0484 17.5067 10.3345 17.2957 10.5455C17.0847 10.7565 16.7985 10.875 16.5002 10.875ZM9.75018 8.625H9.37518V8.25C9.37518 7.95163 9.25665 7.66548 9.04567 7.4545C8.8347 7.24353 8.54855 7.125 8.25018 7.125C7.95181 7.125 7.66566 7.24353 7.45468 7.4545C7.24371 7.66548 7.12518 7.95163 7.12518 8.25V8.625H6.75018C6.45181 8.625 6.16566 8.74353 5.95468 8.9545C5.74371 9.16548 5.62518 9.45163 5.62518 9.75C5.62518 10.0484 5.74371 10.3345 5.95468 10.5455C6.16566 10.7565 6.45181 10.875 6.75018 10.875H7.12518V11.25C7.12518 11.5484 7.24371 11.8345 7.45468 12.0455C7.66566 12.2565 7.95181 12.375 8.25018 12.375C8.54855 12.375 8.8347 12.2565 9.04567 12.0455C9.25665 11.8345 9.37518 11.5484 9.37518 11.25V10.875H9.75018C10.0485 10.875 10.3347 10.7565 10.5457 10.5455C10.7567 10.3345 10.8752 10.0484 10.8752 9.75C10.8752 9.45163 10.7567 9.16548 10.5457 8.9545C10.3347 8.74353 10.0485 8.625 9.75018 8.625ZM22.9464 19.0256C22.6324 19.4735 22.2241 19.8472 21.7504 20.1205C21.2766 20.3939 20.7487 20.5603 20.2038 20.6081C19.659 20.6559 19.1102 20.5839 18.5961 20.3972C18.082 20.2104 17.6149 19.9135 17.2277 19.5272C17.2102 19.5106 17.1936 19.4931 17.178 19.4747L13.563 15.375H10.4374L6.82612 19.4747C6.81018 19.4925 6.7933 19.5103 6.77643 19.5272C6.21233 20.0906 5.48337 20.4595 4.69535 20.5804C3.90734 20.7014 3.10128 20.568 2.3942 20.1998C1.68711 19.8315 1.1158 19.2474 0.763191 18.5324C0.410582 17.8174 0.295028 17.0086 0.433304 16.2234C0.432773 16.2172 0.432773 16.2109 0.433304 16.2047L1.96893 8.32406C2.21329 6.9379 2.93807 5.6821 4.01607 4.77709C5.09407 3.87207 6.4564 3.37566 7.86393 3.375H16.1252C17.5284 3.377 18.8866 3.87011 19.9642 4.76879C21.0418 5.66746 21.7709 6.91501 22.0249 8.295C22.0252 8.30093 22.0252 8.30688 22.0249 8.31281L23.5586 16.2037C23.559 16.21 23.559 16.2163 23.5586 16.2225C23.6469 16.707 23.6383 17.2042 23.5332 17.6854C23.4281 18.1665 23.2287 18.622 22.9464 19.0256ZM16.1252 13.125C17.1197 13.125 18.0736 12.7299 18.7768 12.0266C19.4801 11.3234 19.8752 10.3696 19.8752 9.375C19.8752 8.38044 19.4801 7.42661 18.7768 6.72335C18.0736 6.02009 17.1197 5.625 16.1252 5.625H7.86487C6.98462 5.62587 6.13288 5.93713 5.45949 6.50404C4.7861 7.07094 4.3342 7.85716 4.1833 8.72437C4.18286 8.73093 4.18286 8.73751 4.1833 8.74406L2.65143 16.6191C2.58499 17.0098 2.67588 17.4109 2.90423 17.7348C3.13259 18.0587 3.47986 18.2791 3.87018 18.3478C4.10254 18.3883 4.34117 18.3737 4.56686 18.3052C4.79255 18.2366 4.99898 18.116 5.16955 17.9531L9.08455 13.5066C9.19006 13.3867 9.31987 13.2907 9.46535 13.2249C9.61083 13.1592 9.76864 13.1251 9.9283 13.125H16.1252ZM21.3527 16.6228L20.6964 13.2525C20.1803 13.8628 19.5471 14.3636 18.8343 14.7252C18.1215 15.0869 17.3435 15.3021 16.5461 15.3581L18.8346 17.9569C19.0623 18.1754 19.3531 18.3164 19.6657 18.3601C19.9782 18.4037 20.2966 18.3476 20.5754 18.1998C20.8543 18.052 21.0794 17.8201 21.2188 17.5369C21.3582 17.2538 21.4047 16.9339 21.3517 16.6228H21.3527Z" fill="#130032"/>
</svg>
