<svg width="24" height="24" viewBox="0 0 24 24" fill="none" xmlns="http://www.w3.org/2000/svg">
<path d="M22.5 17.6238H22.125V9.24908C22.1254 8.9399 22.0494 8.63543 21.9036 8.36276C21.7579 8.0901 21.547 7.8577 21.2897 7.68626L13.0397 2.18689C12.732 1.981 12.3702 1.87109 12 1.87109C11.6298 1.87109 11.268 1.981 10.9603 2.18689L2.71031 7.68626C2.45302 7.8577 2.24212 8.0901 2.09638 8.36276C1.95064 8.63543 1.87459 8.9399 1.875 9.24908V17.6238H1.5C1.20163 17.6238 0.915483 17.7423 0.704505 17.9533C0.493526 18.1642 0.375 18.4504 0.375 18.7488C0.375 19.0471 0.493526 19.3333 0.704505 19.5443C0.915483 19.7552 1.20163 19.8738 1.5 19.8738H22.5C22.7984 19.8738 23.0845 19.7552 23.2955 19.5443C23.5065 19.3333 23.625 19.0471 23.625 18.7488C23.625 18.4504 23.5065 18.1642 23.2955 17.9533C23.0845 17.7423 22.7984 17.6238 22.5 17.6238ZM4.125 9.4497L12 4.1997L19.875 9.4497V17.6238H18.375V11.2488C18.375 10.9504 18.2565 10.6642 18.0455 10.4533C17.8345 10.2423 17.5484 10.1238 17.25 10.1238H6.75C6.45163 10.1238 6.16548 10.2423 5.9545 10.4533C5.74353 10.6642 5.625 10.9504 5.625 11.2488V17.6238H4.125V9.4497ZM16.125 12.3738V13.8738H13.125V12.3738H16.125ZM10.875 13.8738H7.875V12.3738H10.875V13.8738ZM7.875 16.1238H10.875V17.6238H7.875V16.1238ZM13.125 16.1238H16.125V17.6238H13.125V16.1238Z" fill="#130032"/>
</svg>
