<svg width="24" height="24" viewBox="0 0 24 24" fill="none" xmlns="http://www.w3.org/2000/svg">
<path d="M18.7501 1.8746H12.3104C12.0641 1.87393 11.8201 1.92215 11.5925 2.01645C11.365 2.11075 11.1584 2.24927 10.9848 2.42397L9.90571 3.50304L8.45071 2.04897C8.0991 1.69747 7.62227 1.5 7.12509 1.5C6.6279 1.5 6.15108 1.69747 5.79946 2.04897L3.54946 4.29897C3.19795 4.65059 3.00049 5.12742 3.00049 5.6246C3.00049 6.12178 3.19795 6.59861 3.54946 6.95022L5.00353 8.40522L3.92446 9.48429C3.74976 9.65792 3.61124 9.8645 3.51694 10.092C3.42264 10.3196 3.37442 10.5636 3.37509 10.8099V20.2496C3.37509 20.7469 3.57263 21.2238 3.92426 21.5754C4.27589 21.9271 4.75281 22.1246 5.25009 22.1246H18.7501C19.2474 22.1246 19.7243 21.9271 20.0759 21.5754C20.4275 21.2238 20.6251 20.7469 20.6251 20.2496V3.7496C20.6251 3.25232 20.4275 2.77541 20.0759 2.42377C19.7243 2.07214 19.2474 1.8746 18.7501 1.8746ZM5.40571 5.6246L7.12509 3.90522L8.31478 5.09397L6.59446 6.81429L5.40571 5.6246ZM18.3751 19.8746H5.62509V10.9683L7.3904 9.20022L12.4688 4.1246H18.3751V19.8746ZM12.7501 6.3746C12.7501 6.07623 12.8686 5.79008 13.0796 5.5791C13.2906 5.36813 13.5767 5.2496 13.8751 5.2496H15.7501C16.0485 5.2496 16.3346 5.36813 16.5456 5.5791C16.7566 5.79008 16.8751 6.07623 16.8751 6.3746C16.8751 6.67297 16.7566 6.95912 16.5456 7.17009C16.3346 7.38107 16.0485 7.4996 15.7501 7.4996H13.8751C13.5767 7.4996 13.2906 7.38107 13.0796 7.17009C12.8686 6.95912 12.7501 6.67297 12.7501 6.3746ZM16.4532 12.503L13.801 14.6246L16.4532 16.7462C16.5686 16.8385 16.6646 16.9527 16.7359 17.0821C16.8071 17.2116 16.8521 17.3538 16.8684 17.5006C16.8847 17.6475 16.8719 17.7961 16.8307 17.938C16.7896 18.08 16.7209 18.2124 16.6285 18.3277C16.5362 18.4431 16.422 18.5391 16.2926 18.6104C16.1631 18.6816 16.0209 18.7267 15.8741 18.7429C15.7272 18.7592 15.5786 18.7464 15.4366 18.7052C15.2947 18.6641 15.1623 18.5954 15.047 18.503L12.0001 16.0655L8.95321 18.503C8.72024 18.6895 8.42272 18.7758 8.12612 18.7429C7.82952 18.7101 7.55813 18.5607 7.37165 18.3277C7.18517 18.0947 7.09888 17.7972 7.13175 17.5006C7.16463 17.204 7.31399 16.9326 7.54696 16.7462L10.1992 14.6246L7.54696 12.503C7.4316 12.4107 7.33556 12.2965 7.26432 12.1671C7.19308 12.0376 7.14803 11.8954 7.13175 11.7486C7.09888 11.452 7.18517 11.1545 7.37165 10.9215C7.55813 10.6885 7.82952 10.5391 8.12612 10.5063C8.27298 10.49 8.42161 10.5028 8.56353 10.544C8.70544 10.5851 8.83785 10.6538 8.95321 10.7462L12.0001 13.1837L15.047 10.7462C15.1623 10.6538 15.2947 10.5851 15.4366 10.544C15.5786 10.5028 15.7272 10.49 15.8741 10.5063C16.0209 10.5225 16.1631 10.5676 16.2926 10.6388C16.422 10.7101 16.5362 10.8061 16.6285 10.9215C16.7209 11.0368 16.7896 11.1692 16.8307 11.3112C16.8719 11.4531 16.8847 11.6017 16.8684 11.7486C16.8521 11.8954 16.8071 12.0376 16.7359 12.1671C16.6646 12.2965 16.5686 12.4107 16.4532 12.503Z" fill="#130032"/>
</svg>
