<svg width="24" height="24" viewBox="0 0 24 24" fill="none" xmlns="http://www.w3.org/2000/svg">
<path d="M23.0759 10.6749L21.5759 9.17491C21.2979 8.89713 20.9396 8.71373 20.5517 8.65065C20.1637 8.58756 19.7658 8.64797 19.4141 8.82335L15.1766 4.58585C15.352 4.23421 15.4126 3.83632 15.3497 3.4484C15.2868 3.06047 15.1036 2.70212 14.8259 2.42397L13.3259 0.923975C12.9743 0.572466 12.4975 0.375 12.0003 0.375C11.5031 0.375 11.0263 0.572466 10.6747 0.923975L4.67468 6.92397C4.32317 7.27559 4.1257 7.75242 4.1257 8.2496C4.1257 8.74678 4.32317 9.22361 4.67468 9.57522L6.17468 11.0752C6.45185 11.3524 6.80892 11.5358 7.19569 11.5995C7.58246 11.6632 7.97948 11.6041 8.33093 11.4305L2.7528 17.0049C2.19013 17.5676 1.87402 18.3307 1.87402 19.1265C1.87402 19.9222 2.19013 20.6854 2.7528 21.248C3.31548 21.8107 4.07863 22.1268 4.87437 22.1268C5.67011 22.1268 6.43326 21.8107 6.99593 21.248L12.5628 15.6765C12.3907 16.0275 12.3327 16.4234 12.3967 16.809C12.4608 17.1946 12.6437 17.5506 12.92 17.8271L14.42 19.3271C14.5941 19.5013 14.8008 19.6395 15.0284 19.7337C15.2559 19.828 15.4998 19.8765 15.7461 19.8765C15.9924 19.8765 16.2363 19.828 16.4638 19.7337C16.6913 19.6395 16.8981 19.5013 17.0722 19.3271L23.0722 13.3271C23.2464 13.153 23.3845 12.9462 23.4788 12.7187C23.5731 12.4912 23.6216 12.2473 23.6216 12.001C23.6216 11.7547 23.5731 11.5108 23.4788 11.2833C23.3845 11.0558 23.2464 10.849 23.0722 10.6749H23.0759ZM7.5003 9.21991L6.52905 8.25054L12.0003 2.78022L12.9697 3.75054L7.5003 9.21991ZM5.40405 19.6571C5.26332 19.7977 5.0725 19.8766 4.87357 19.8766C4.67463 19.8765 4.48388 19.7974 4.34327 19.6566C4.20267 19.5159 4.12372 19.3251 4.12381 19.1261C4.1239 18.9272 4.20301 18.7365 4.34374 18.5958L9.92374 13.0158L10.9841 14.0771L5.40405 19.6571ZM14.0947 14.0049L9.99593 9.90616L13.6522 6.24991L17.7509 10.3487L14.0947 14.0049ZM15.7494 17.4737L14.78 16.5005L20.2503 11.0312L21.2197 12.0005L15.7494 17.4737Z" fill="#130032"/>
</svg>
