<svg width="24" height="24" viewBox="0 0 24 24" fill="none" xmlns="http://www.w3.org/2000/svg">
<path d="M11.9999 7.12459C11.0357 7.12459 10.0932 7.4105 9.29147 7.94617C8.48978 8.48184 7.86494 9.24321 7.49597 10.134C7.12699 11.0248 7.03045 12.005 7.21855 12.9507C7.40665 13.8963 7.87095 14.7649 8.55273 15.4467C9.23451 16.1285 10.1032 16.5928 11.0488 16.7809C11.9945 16.969 12.9747 16.8725 13.8655 16.5035C14.7563 16.1345 15.5176 15.5097 16.0533 14.708C16.589 13.9063 16.8749 12.9638 16.8749 11.9996C16.8734 10.7071 16.3593 9.468 15.4454 8.55408C14.5315 7.64017 13.2924 7.12607 11.9999 7.12459ZM11.9999 14.6246C11.4807 14.6246 10.9732 14.4706 10.5415 14.1822C10.1098 13.8938 9.77338 13.4838 9.57469 13.0041C9.37601 12.5245 9.32403 11.9967 9.42532 11.4875C9.5266 10.9783 9.77661 10.5105 10.1437 10.1434C10.5108 9.77632 10.9786 9.52631 11.4878 9.42502C11.997 9.32374 12.5248 9.37572 13.0044 9.5744C13.4841 9.77308 13.894 10.1095 14.1825 10.5412C14.4709 10.9729 14.6249 11.4804 14.6249 11.9996C14.6249 12.6958 14.3483 13.3635 13.856 13.8557C13.3638 14.348 12.6961 14.6246 11.9999 14.6246ZM20.6249 12.0736V11.9255L21.9374 10.284C22.0476 10.1464 22.1239 9.98491 22.1602 9.81246C22.1965 9.64001 22.1918 9.46144 22.1464 9.29115C21.9096 8.39781 21.5556 7.53974 21.0936 6.73927C21.0046 6.58663 20.8809 6.45709 20.7326 6.36116C20.5842 6.26522 20.4153 6.20559 20.2396 6.18709L18.1508 5.95271L18.0468 5.84865L17.8124 3.75896C17.7937 3.5834 17.734 3.4147 17.6381 3.26649C17.5422 3.11829 17.4127 2.99474 17.2602 2.90584C16.4597 2.44242 15.6013 2.08714 14.7074 1.84927C14.5369 1.80459 14.3584 1.80057 14.1861 1.83753C14.0138 1.8745 13.8526 1.95141 13.7155 2.06209L12.0739 3.37459H11.9258L10.2843 2.06209C10.1467 1.95191 9.9852 1.87559 9.81275 1.83928C9.64031 1.80297 9.46174 1.80767 9.29144 1.85302C8.39787 2.09135 7.53979 2.44694 6.73957 2.91052C6.58752 2.99906 6.45835 3.12202 6.36245 3.26954C6.26655 3.41705 6.20659 3.585 6.18738 3.7599L5.953 5.84865L5.84894 5.95271L3.75925 6.18709C3.5837 6.20573 3.415 6.26543 3.26679 6.36136C3.11858 6.45729 2.99503 6.58675 2.90613 6.73927C2.44401 7.53999 2.09 8.39839 1.85332 9.29209C1.80812 9.46224 1.80349 9.64063 1.8398 9.8129C1.87611 9.98518 1.95235 10.1465 2.06238 10.284L3.37488 11.9255V12.0736L2.06238 13.7152C1.9522 13.8528 1.87589 14.0143 1.83957 14.1867C1.80326 14.3592 1.80797 14.5377 1.85332 14.708C2.09194 15.6016 2.44784 16.4597 2.91175 17.2599C3.0002 17.4118 3.12301 17.5409 3.27036 17.6368C3.4177 17.7327 3.58546 17.7927 3.76019 17.8121L5.84894 18.0446L5.953 18.1486L6.18738 20.2402C6.20602 20.4158 6.26573 20.5845 6.36165 20.7327C6.45758 20.8809 6.58704 21.0044 6.73957 21.0933C7.54009 21.5568 8.3985 21.912 9.29238 22.1499C9.46282 22.1946 9.64138 22.1986 9.81367 22.1616C9.98595 22.1247 10.1471 22.0478 10.2843 21.9371L11.9258 20.6246H12.0739L13.7155 21.9371C13.8531 22.0473 14.0146 22.1236 14.187 22.1599C14.3595 22.1962 14.538 22.1915 14.7083 22.1461C15.6017 21.9093 16.4597 21.5553 17.2602 21.0933C17.4126 21.005 17.5421 20.8821 17.6384 20.7346C17.7346 20.5871 17.7948 20.419 17.8143 20.244L18.0468 18.1552L18.1508 18.0511L20.2405 17.8121C20.4156 17.7927 20.5836 17.7324 20.7312 17.6362C20.8787 17.54 21.0016 17.4104 21.0899 17.258C21.5533 16.4575 21.9086 15.5991 22.1464 14.7052C22.1913 14.5353 22.1958 14.3573 22.1595 14.1854C22.1232 14.0135 22.0471 13.8524 21.9374 13.7152L20.6249 12.0736ZM18.3636 11.6152C18.3786 11.8712 18.3786 12.1279 18.3636 12.384C18.3469 12.6623 18.4341 12.9369 18.6083 13.1546L19.8121 14.6593C19.6984 14.9956 19.5628 15.3241 19.4061 15.6427L17.4908 15.8555C17.2135 15.8872 16.9579 16.0209 16.7736 16.2305C16.6033 16.4224 16.4218 16.604 16.2299 16.7743C16.0202 16.9585 15.8866 17.2142 15.8549 17.4915L15.643 19.4058C15.3245 19.5632 14.996 19.6994 14.6596 19.8136L13.1549 18.609C12.9552 18.4496 12.7072 18.363 12.4518 18.3633C12.4293 18.3633 12.4068 18.3633 12.3843 18.3633C12.1282 18.3783 11.8715 18.3783 11.6155 18.3633C11.3374 18.3469 11.0629 18.4337 10.8449 18.6071L9.34019 19.8118C9.00384 19.6981 8.67532 19.5625 8.35675 19.4058L8.14394 17.4905C8.11224 17.2132 7.97858 16.9576 7.76894 16.7733C7.57707 16.603 7.3955 16.4215 7.22519 16.2296C7.04092 16.0199 6.78531 15.8863 6.508 15.8546L4.59363 15.6427C4.43629 15.3242 4.30006 14.9957 4.18582 14.6593L5.38957 13.1546C5.56381 12.9369 5.65101 12.6623 5.63425 12.384C5.61925 12.1279 5.61925 11.8712 5.63425 11.6152C5.65101 11.3369 5.56381 11.0623 5.38957 10.8446L4.18769 9.3399C4.30132 9.00355 4.43693 8.67503 4.59363 8.35646L6.50894 8.14365C6.78624 8.11194 7.04186 7.97829 7.22613 7.76865C7.39644 7.57678 7.57801 7.3952 7.76988 7.2249C7.97952 7.04063 8.11317 6.78501 8.14488 6.50771L8.35675 4.59334C8.67528 4.436 9.0038 4.29976 9.34019 4.18552L10.8449 5.39021C11.0629 5.56364 11.3374 5.65044 11.6155 5.63396C11.8715 5.61896 12.1282 5.61896 12.3843 5.63396C12.6625 5.65098 12.9371 5.56412 13.1549 5.39021L14.6596 4.18552C14.996 4.29976 15.3245 4.436 15.643 4.59334L15.8558 6.50865C15.8875 6.78595 16.0212 7.04157 16.2308 7.22583C16.4227 7.39614 16.6043 7.57771 16.7746 7.76958C16.9588 7.97922 17.2144 8.11288 17.4918 8.14458L19.4061 8.35646C19.5635 8.67498 19.6997 9.0035 19.8139 9.3399L18.6102 10.8446C18.4353 11.062 18.3474 11.3366 18.3636 11.6152Z" fill="#130032"/>
</svg>
