<svg width="24" height="24" viewBox="0 0 24 24" fill="none" xmlns="http://www.w3.org/2000/svg">
<path d="M19.4996 1.875H15.7496C15.4513 1.875 15.1651 1.99353 14.9541 2.2045C14.7431 2.41548 14.6246 2.70163 14.6246 3C14.6246 3.29837 14.7431 3.58452 14.9541 3.7955C15.1651 4.00647 15.4513 4.125 15.7496 4.125H16.7809L15.3146 5.59406C14.5638 4.97016 13.6798 4.52701 12.7306 4.29879C11.7815 4.07057 10.7926 4.06337 9.84026 4.27774C8.8879 4.49212 7.99749 4.92234 7.23769 5.53524C6.47789 6.14814 5.86899 6.92735 5.45794 7.81278C5.04689 8.69821 4.84468 9.66622 4.86688 10.6422C4.88909 11.6181 5.13513 12.5759 5.58603 13.4417C6.03693 14.3075 6.68064 15.0582 7.46754 15.6359C8.25443 16.2136 9.16349 16.6029 10.1246 16.7738V18H8.24962C7.95125 18 7.6651 18.1185 7.45412 18.3295C7.24315 18.5405 7.12462 18.8266 7.12462 19.125C7.12462 19.4234 7.24315 19.7095 7.45412 19.9205C7.6651 20.1315 7.95125 20.25 8.24962 20.25H10.1246V21.75C10.1246 22.0484 10.2431 22.3345 10.4541 22.5455C10.6651 22.7565 10.9513 22.875 11.2496 22.875C11.548 22.875 11.8341 22.7565 12.0451 22.5455C12.2561 22.3345 12.3746 22.0484 12.3746 21.75V20.25H14.2496C14.548 20.25 14.8341 20.1315 15.0451 19.9205C15.2561 19.7095 15.3746 19.4234 15.3746 19.125C15.3746 18.8266 15.2561 18.5405 15.0451 18.3295C14.8341 18.1185 14.548 18 14.2496 18H12.3746V16.7738C13.3815 16.5942 14.3302 16.1747 15.1407 15.5509C15.9511 14.9271 16.5994 14.1173 17.0307 13.1899C17.462 12.2626 17.6637 11.245 17.6185 10.2233C17.5734 9.20154 17.2829 8.20571 16.7715 7.32L18.3746 5.71875V6.75C18.3746 7.04837 18.4931 7.33452 18.7041 7.5455C18.9151 7.75647 19.2013 7.875 19.4996 7.875C19.798 7.875 20.0841 7.75647 20.2951 7.5455C20.5061 7.33452 20.6246 7.04837 20.6246 6.75V3C20.6246 2.70163 20.5061 2.41548 20.2951 2.2045C20.0841 1.99353 19.798 1.875 19.4996 1.875ZM11.2496 14.625C10.4338 14.625 9.63624 14.3831 8.95789 13.9298C8.27954 13.4766 7.75083 12.8323 7.43862 12.0786C7.1264 11.3248 7.04472 10.4954 7.20388 9.69525C7.36304 8.89508 7.75591 8.16008 8.3328 7.58318C8.90969 7.00629 9.6447 6.61343 10.4449 6.45426C11.245 6.2951 12.0744 6.37679 12.8282 6.689C13.5819 7.00121 14.2262 7.52992 14.6794 8.20827C15.1327 8.88663 15.3746 9.68415 15.3746 10.5C15.3734 11.5936 14.9384 12.6421 14.1651 13.4154C13.3917 14.1888 12.3433 14.6238 11.2496 14.625Z" fill="#130032"/>
</svg>
