<svg width="24" height="24" viewBox="0 0 24 24" fill="none" xmlns="http://www.w3.org/2000/svg">
<path d="M19.875 9.0008C19.8752 7.49127 19.4414 6.01351 18.6255 4.74349C17.8096 3.47348 16.6459 2.46472 15.2729 1.83735C13.8999 1.20998 12.3756 0.990434 10.8814 1.20486C9.38715 1.41929 7.98604 2.05865 6.8449 3.04681C5.70376 4.03496 4.87067 5.33027 4.44484 6.77849C4.019 8.2267 4.01838 9.76679 4.44303 11.2154C4.86768 12.6639 5.69971 13.9599 6.84004 14.949C7.98038 15.9381 9.38096 16.5786 10.875 16.7942V18.3758H8.25C7.95163 18.3758 7.66548 18.4943 7.4545 18.7053C7.24353 18.9163 7.125 19.2024 7.125 19.5008C7.125 19.7992 7.24353 20.0853 7.4545 20.2963C7.66548 20.5073 7.95163 20.6258 8.25 20.6258H10.875V22.5008C10.875 22.7992 10.9935 23.0853 11.2045 23.2963C11.4155 23.5073 11.7016 23.6258 12 23.6258C12.2984 23.6258 12.5845 23.5073 12.7955 23.2963C13.0065 23.0853 13.125 22.7992 13.125 22.5008V20.6258H15.75C16.0484 20.6258 16.3345 20.5073 16.5455 20.2963C16.7565 20.0853 16.875 19.7992 16.875 19.5008C16.875 19.2024 16.7565 18.9163 16.5455 18.7053C16.3345 18.4943 16.0484 18.3758 15.75 18.3758H13.125V16.7942C14.9981 16.5215 16.7107 15.5842 17.9499 14.1533C19.1892 12.7225 19.8725 10.8937 19.875 9.0008ZM6.375 9.0008C6.375 7.88828 6.7049 6.80074 7.32298 5.87571C7.94107 4.95069 8.81957 4.22972 9.84741 3.80397C10.8752 3.37823 12.0062 3.26684 13.0974 3.48388C14.1885 3.70092 15.1908 4.23665 15.9775 5.02332C16.7641 5.80999 17.2999 6.81227 17.5169 7.90341C17.734 8.99456 17.6226 10.1256 17.1968 11.1534C16.7711 12.1812 16.0501 13.0597 15.1251 13.6778C14.2001 14.2959 13.1125 14.6258 12 14.6258C10.5087 14.6241 9.07896 14.0309 8.02444 12.9764C6.96993 11.9218 6.37674 10.4921 6.375 9.0008Z" fill="#130032"/>
</svg>
