<svg width="24" height="24" viewBox="0 0 24 24" fill="none" xmlns="http://www.w3.org/2000/svg">
<path d="M13.125 8.72002V6.48877L15.1716 7.71596C15.2983 7.79511 15.4396 7.84822 15.5871 7.87217C15.7346 7.89613 15.8854 7.89045 16.0307 7.85548C16.176 7.8205 16.3129 7.75692 16.4334 7.66846C16.5538 7.58 16.6554 7.46843 16.7323 7.34025C16.8091 7.21208 16.8597 7.06988 16.881 6.92196C16.9023 6.77403 16.8939 6.62335 16.8563 6.47871C16.8187 6.33407 16.7526 6.19837 16.662 6.07953C16.5714 5.9607 16.458 5.86111 16.3285 5.78658L14.1863 4.50127L16.3285 3.21596C16.5785 3.05979 16.7573 2.81168 16.8263 2.52502C16.8953 2.23836 16.8491 1.93606 16.6974 1.68319C16.5458 1.43032 16.301 1.24708 16.0156 1.1729C15.7302 1.09873 15.4271 1.13955 15.1716 1.28658L12 3.18877L8.82845 1.28658C8.57288 1.13955 8.2698 1.09873 7.98443 1.1729C7.69907 1.24708 7.45423 1.43032 7.3026 1.68319C7.15097 1.93606 7.10468 2.23836 7.17369 2.52502C7.2427 2.81168 7.42148 3.05979 7.67158 3.21596L9.81376 4.50127L7.67158 5.78658C7.54204 5.86111 7.42864 5.9607 7.33802 6.07953C7.2474 6.19837 7.18136 6.33407 7.14376 6.47871C7.10617 6.62335 7.09777 6.77403 7.11905 6.92196C7.14034 7.06988 7.19088 7.21208 7.26774 7.34025C7.34459 7.46843 7.44621 7.58 7.56667 7.66846C7.68712 7.75692 7.82399 7.8205 7.96929 7.85548C8.11458 7.89045 8.26539 7.89613 8.41291 7.87217C8.56042 7.84822 8.70169 7.79511 8.82845 7.71596L10.875 6.48877V8.72002C9.1055 9.00296 7.50759 9.9423 6.39974 11.3508C5.29189 12.7593 4.75547 14.5336 4.89739 16.3199C5.03931 18.1063 5.84915 19.7736 7.16549 20.9895C8.48184 22.2054 10.208 22.8806 12 22.8806C13.792 22.8806 15.5182 22.2054 16.8345 20.9895C18.1509 19.7736 18.9607 18.1063 19.1026 16.3199C19.2446 14.5336 18.7081 12.7593 17.6003 11.3508C16.4924 9.9423 14.8945 9.00296 13.125 8.72002ZM12 20.6263C11.0358 20.6263 10.0933 20.3404 9.29161 19.8047C8.48992 19.269 7.86508 18.5076 7.4961 17.6169C7.12712 16.7261 7.03058 15.7459 7.21869 14.8002C7.40679 13.8545 7.87109 12.9859 8.55287 12.3041C9.23465 11.6223 10.1033 11.158 11.0489 10.9699C11.9946 10.7818 12.9748 10.8784 13.8656 11.2474C14.7564 11.6163 15.5178 12.2412 16.0534 13.0429C16.5891 13.8446 16.875 14.7871 16.875 15.7513C16.8735 17.0437 16.3594 18.2829 15.4455 19.1968C14.5316 20.1107 13.2925 20.6248 12 20.6263Z" fill="#130032"/>
</svg>
