<svg width="24" height="24" viewBox="0 0 24 24" fill="none" xmlns="http://www.w3.org/2000/svg">
<path d="M20.2504 2.625H16.1254C15.8271 2.625 15.5409 2.74353 15.3299 2.9545C15.119 3.16548 15.0004 3.45163 15.0004 3.75C15.0004 4.04837 15.119 4.33452 15.3299 4.5455C15.5409 4.75647 15.8271 4.875 16.1254 4.875H17.5317L15.7504 6.65625L14.2964 5.205C14.085 4.99366 13.7984 4.87492 13.4995 4.87492C13.2006 4.87492 12.914 4.99366 12.7026 5.205C12.4913 5.41634 12.3725 5.70299 12.3725 6.00187C12.3725 6.30076 12.4913 6.58741 12.7026 6.79875L14.1567 8.25L13.1798 9.23063C11.7283 8.17997 9.9343 7.71476 8.15519 7.92771C6.37607 8.14066 4.7425 9.01613 3.58 10.3797C2.41751 11.7432 1.81144 13.4947 1.88257 15.2851C1.95371 17.0755 2.69682 18.7733 3.96382 20.0404C5.23083 21.3074 6.9287 22.0505 8.71911 22.1216C10.5095 22.1927 12.261 21.5867 13.6245 20.4242C14.988 19.2617 15.8635 17.6281 16.0765 15.849C16.2894 14.0699 15.8242 12.2758 14.7735 10.8244L15.7504 9.84375L17.2045 11.2987C17.4158 11.5101 17.7025 11.6288 18.0014 11.6288C18.3002 11.6288 18.5869 11.5101 18.7982 11.2987C19.0096 11.0874 19.1283 10.8008 19.1283 10.5019C19.1283 10.203 19.0096 9.91634 18.7982 9.705L17.3442 8.25L19.1254 6.46875V7.875C19.1254 8.17337 19.244 8.45952 19.4549 8.6705C19.6659 8.88147 19.9521 9 20.2504 9C20.5488 9 20.8349 8.88147 21.0459 8.6705C21.2569 8.45952 21.3754 8.17337 21.3754 7.875V3.75C21.3754 3.45163 21.2569 3.16548 21.0459 2.9545C20.8349 2.74353 20.5488 2.625 20.2504 2.625ZM12.4476 18.45C11.6502 19.2474 10.601 19.7437 9.47867 19.8544C8.35637 19.965 7.23043 19.6831 6.29266 19.0567C5.35488 18.4303 4.66328 17.4982 4.33567 16.4191C4.00805 15.34 4.0647 14.1807 4.49595 13.1387C4.9272 12.0967 5.70638 11.2364 6.70075 10.7044C7.69513 10.1724 8.84318 10.0016 9.94935 10.2211C11.0555 10.4407 12.0514 11.0369 12.7672 11.9083C13.4831 12.7796 13.8748 13.8723 13.8754 15C13.8757 16.2938 13.3621 17.5348 12.4476 18.45Z" fill="#130032"/>
</svg>
