<svg width="24" height="24" viewBox="0 0 24 24" fill="none" xmlns="http://www.w3.org/2000/svg">
<path d="M19.875 9.7508C19.8752 8.24127 19.4414 6.76351 18.6255 5.49349C17.8096 4.22348 16.6459 3.21472 15.2729 2.58735C13.8999 1.95998 12.3756 1.74043 10.8814 1.95486C9.38715 2.16929 7.98604 2.80865 6.8449 3.79681C5.70376 4.78496 4.87067 6.08027 4.44484 7.52849C4.019 8.9767 4.01838 10.5168 4.44303 11.9654C4.86768 13.4139 5.69971 14.7099 6.84004 15.699C7.98038 16.6881 9.38096 17.3286 10.875 17.5442V21.7508C10.875 22.0492 10.9935 22.3353 11.2045 22.5463C11.4155 22.7573 11.7016 22.8758 12 22.8758C12.2984 22.8758 12.5845 22.7573 12.7955 22.5463C13.0065 22.3353 13.125 22.0492 13.125 21.7508V17.5442C14.9981 17.2715 16.7107 16.3342 17.9499 14.9033C19.1892 13.4725 19.8725 11.6437 19.875 9.7508ZM12 15.3758C10.8875 15.3758 9.79994 15.0459 8.87492 14.4278C7.94989 13.8097 7.22892 12.9312 6.80318 11.9034C6.37743 10.8756 6.26604 9.74456 6.48308 8.65341C6.70012 7.56227 7.23585 6.55999 8.02252 5.77332C8.80919 4.98665 9.81147 4.45092 10.9026 4.23388C11.9938 4.01684 13.1248 4.12823 14.1526 4.55397C15.1804 4.97972 16.0589 5.70069 16.677 6.62571C17.2951 7.55074 17.625 8.63828 17.625 9.7508C17.6233 11.2421 17.0301 12.6718 15.9756 13.7264C14.921 14.7809 13.4913 15.3741 12 15.3758Z" fill="#130032"/>
</svg>
