<svg width="24" height="24" viewBox="0 0 24 24" fill="none" xmlns="http://www.w3.org/2000/svg">
<path d="M20.25 6.37651H17.8181C18.1661 5.87034 18.3596 5.274 18.375 4.65995C18.3889 4.19217 18.307 3.72648 18.1343 3.29151C17.9617 2.85654 17.7019 2.46146 17.371 2.13054C17.0401 1.79962 16.645 1.53985 16.21 1.36719C15.775 1.19454 15.3093 1.11263 14.8416 1.12651C14.4095 1.13573 13.984 1.23418 13.5918 1.41568C13.1996 1.59718 12.8492 1.85781 12.5625 2.1812C12.3511 2.42239 12.1627 2.68291 12 2.95932C11.8373 2.68291 11.6489 2.42239 11.4375 2.1812C11.1508 1.85781 10.8004 1.59718 10.4082 1.41568C10.016 1.23418 9.5905 1.13573 9.15844 1.12651C8.69066 1.11263 8.22497 1.19454 7.79 1.36719C7.35503 1.53985 6.95995 1.79962 6.62903 2.13054C6.29811 2.46146 6.03834 2.85654 5.86568 3.29151C5.69303 3.72648 5.61112 4.19217 5.625 4.65995C5.64043 5.274 5.83389 5.87034 6.18188 6.37651H3.75C3.25272 6.37651 2.77581 6.57405 2.42417 6.92568C2.07254 7.27732 1.875 7.75423 1.875 8.25151V11.2515C1.87491 11.6838 2.02417 12.1028 2.29751 12.4376C2.57085 12.7724 2.95149 13.0026 3.375 13.089V18.7515C3.375 19.2488 3.57254 19.7257 3.92417 20.0773C4.27581 20.429 4.75272 20.6265 5.25 20.6265H18.75C19.2473 20.6265 19.7242 20.429 20.0758 20.0773C20.4275 19.7257 20.625 19.2488 20.625 18.7515V13.089C21.0485 13.0026 21.4291 12.7724 21.7025 12.4376C21.9758 12.1028 22.1251 11.6838 22.125 11.2515V8.25151C22.125 7.75423 21.9275 7.27732 21.5758 6.92568C21.2242 6.57405 20.7473 6.37651 20.25 6.37651ZM19.875 10.8765H13.125V8.62651H19.875V10.8765ZM14.25 3.6737C14.333 3.58159 14.4341 3.50764 14.5471 3.4565C14.66 3.40536 14.7823 3.37812 14.9062 3.37651H14.9391C15.0977 3.37606 15.2548 3.40753 15.4011 3.46903C15.5473 3.53053 15.6797 3.62082 15.7903 3.73453C15.901 3.84823 15.9876 3.98303 16.0451 4.13089C16.1026 4.27876 16.1298 4.43668 16.125 4.59526C16.1234 4.71923 16.0962 4.84152 16.045 4.95445C15.9939 5.06739 15.9199 5.16853 15.8278 5.25151C15.1809 5.82526 14.1169 6.11964 13.2375 6.26026C13.3781 5.38464 13.6725 4.32057 14.25 3.6737ZM8.22187 3.72339C8.44441 3.50324 8.74416 3.37876 9.05719 3.37651H9.09375C9.21772 3.37812 9.34001 3.40536 9.45294 3.4565C9.56588 3.50764 9.66702 3.58159 9.75 3.6737C10.3237 4.32057 10.6181 5.3837 10.7578 6.26214C9.88594 6.12057 8.8125 5.8262 8.17219 5.25151C8.08008 5.16853 8.00613 5.06739 7.95499 4.95445C7.90385 4.84152 7.87661 4.71923 7.875 4.59526C7.87085 4.43403 7.89946 4.27363 7.95908 4.12377C8.0187 3.97391 8.1081 3.8377 8.22187 3.72339ZM4.125 8.62651H10.875V10.8765H4.125V8.62651ZM5.625 13.1265H10.875V18.3765H5.625V13.1265ZM13.125 18.3765V13.1265H18.375V18.3765H13.125Z" fill="#130032"/>
</svg>
