<svg width="24" height="24" viewBox="0 0 24 24" fill="none" xmlns="http://www.w3.org/2000/svg">
<path d="M19.5005 10.126C18.8278 10.1268 18.1707 10.3283 17.6132 10.7047C17.0557 11.0812 16.6232 11.6154 16.3711 12.2391L12.7149 11.7169C12.6249 11.7042 12.5426 11.6592 12.4833 11.5903L9.42705 8.01941C10.0485 7.58653 10.5063 6.9572 10.7268 6.23265C10.9473 5.50809 10.9177 4.73043 10.6428 4.02473C10.3678 3.31904 9.8635 2.72634 9.21092 2.34196C8.55834 1.95759 7.79544 1.80388 7.04493 1.90556C6.29442 2.00724 5.59993 2.35841 5.07315 2.90257C4.54637 3.44673 4.21793 4.15225 4.14066 4.90567C4.06339 5.65908 4.24178 6.41659 4.64713 7.05635C5.05249 7.69611 5.66124 8.18094 6.37549 8.43285V15.5691C5.62487 15.8345 4.99224 16.3567 4.5894 17.0434C4.18656 17.7301 4.03946 18.5371 4.17409 19.3218C4.30872 20.1065 4.71642 20.8183 5.32512 21.3315C5.93382 21.8446 6.70434 22.1261 7.50049 22.1261C8.29664 22.1261 9.06715 21.8446 9.67585 21.3315C10.2846 20.8183 10.6923 20.1065 10.8269 19.3218C10.9615 18.5371 10.8144 17.7301 10.4116 17.0434C10.0087 16.3567 9.3761 15.8345 8.62549 15.5691V10.5422L10.7817 13.0547C11.1965 13.5383 11.7729 13.8545 12.4036 13.9444L16.2792 14.4985C16.4638 15.0951 16.8104 15.6289 17.2803 16.0403C17.7502 16.4517 18.3251 16.7247 18.941 16.8288C19.5568 16.9329 20.1894 16.864 20.7685 16.6299C21.3475 16.3958 21.8502 16.0056 22.2207 15.5028C22.5912 14.9999 22.8148 14.4041 22.8668 13.7817C22.9187 13.1593 22.7969 12.5347 22.515 11.9774C22.233 11.4201 21.802 10.9519 21.2698 10.6251C20.7375 10.2982 20.1251 10.1254 19.5005 10.126ZM7.50049 4.12597C7.72299 4.12597 7.9405 4.19195 8.1255 4.31557C8.31051 4.43918 8.4547 4.61489 8.53985 4.82045C8.625 5.02602 8.64728 5.25222 8.60387 5.47045C8.56046 5.68868 8.45332 5.88913 8.29598 6.04647C8.13865 6.2038 7.93819 6.31095 7.71996 6.35435C7.50174 6.39776 7.27554 6.37548 7.06997 6.29034C6.8644 6.20519 6.6887 6.06099 6.56508 5.87599C6.44147 5.69098 6.37549 5.47347 6.37549 5.25097C6.37549 4.9526 6.49401 4.66645 6.70499 4.45548C6.91597 4.2445 7.20212 4.12597 7.50049 4.12597ZM7.50049 19.876C7.27798 19.876 7.06048 19.81 6.87547 19.6864C6.69047 19.5628 6.54627 19.3871 6.46112 19.1815C6.37597 18.9759 6.3537 18.7497 6.3971 18.5315C6.44051 18.3133 6.54766 18.1128 6.70499 17.9555C6.86233 17.7981 7.06278 17.691 7.28101 17.6476C7.49924 17.6042 7.72544 17.6265 7.93101 17.7116C8.13657 17.7968 8.31227 17.941 8.43589 18.126C8.55951 18.311 8.62549 18.5285 8.62549 18.751C8.62549 19.0493 8.50696 19.3355 8.29598 19.5465C8.085 19.7574 7.79886 19.876 7.50049 19.876ZM19.5005 14.626C19.278 14.626 19.0605 14.56 18.8755 14.4364C18.6905 14.3128 18.5463 14.1371 18.4611 13.9315C18.376 13.7259 18.3537 13.4997 18.3971 13.2815C18.4405 13.0633 18.5477 12.8628 18.705 12.7055C18.8623 12.5481 19.0628 12.441 19.281 12.3976C19.4992 12.3542 19.7254 12.3765 19.931 12.4616C20.1366 12.5468 20.3123 12.6909 20.4359 12.876C20.5595 13.061 20.6255 13.2785 20.6255 13.501C20.6255 13.7993 20.507 14.0855 20.296 14.2965C20.085 14.5074 19.7989 14.626 19.5005 14.626Z" fill="#130032"/>
</svg>
