<svg width="24" height="24" viewBox="0 0 24 24" fill="none" xmlns="http://www.w3.org/2000/svg">
<path d="M22.875 10.876H17.5116C17.2525 9.60546 16.5623 8.46344 15.558 7.64323C14.5536 6.82302 13.2967 6.375 12 6.375C10.7033 6.375 9.44639 6.82302 8.44203 7.64323C7.43767 8.46344 6.74754 9.60546 6.48844 10.876H1.125C0.826631 10.876 0.540483 10.9946 0.329505 11.2055C0.118526 11.4165 0 11.7027 0 12.001C0 12.2994 0.118526 12.5855 0.329505 12.7965C0.540483 13.0075 0.826631 13.126 1.125 13.126H6.48844C6.74754 14.3966 7.43767 15.5386 8.44203 16.3588C9.44639 17.179 10.7033 17.6271 12 17.6271C13.2967 17.6271 14.5536 17.179 15.558 16.3588C16.5623 15.5386 17.2525 14.3966 17.5116 13.126H22.875C23.1734 13.126 23.4595 13.0075 23.6705 12.7965C23.8815 12.5855 24 12.2994 24 12.001C24 11.7027 23.8815 11.4165 23.6705 11.2055C23.4595 10.9946 23.1734 10.876 22.875 10.876ZM12 15.376C11.3325 15.376 10.68 15.1781 10.125 14.8072C9.56993 14.4364 9.13735 13.9093 8.88191 13.2926C8.62646 12.6759 8.55962 11.9973 8.68985 11.3426C8.82007 10.6879 9.14151 10.0865 9.61351 9.61455C10.0855 9.14254 10.6869 8.82111 11.3416 8.69088C11.9963 8.56066 12.6749 8.62749 13.2916 8.88294C13.9083 9.13838 14.4354 9.57097 14.8062 10.126C15.1771 10.681 15.375 11.3335 15.375 12.001C15.375 12.8961 15.0194 13.7546 14.3865 14.3875C13.7535 15.0205 12.8951 15.376 12 15.376Z" fill="#130032"/>
</svg>
