<svg width="24" height="24" viewBox="0 0 24 24" fill="none" xmlns="http://www.w3.org/2000/svg">
<path d="M21.9376 10.8827L20.0748 3.74928C19.9954 3.44012 19.8191 3.16451 19.5717 2.96281C19.3243 2.76111 19.0189 2.64393 18.7001 2.62842C18.3812 2.61291 18.0658 2.69988 17.8 2.87662C17.5342 3.05335 17.332 3.31054 17.223 3.61053L15.6564 7.87428H8.3439L6.77733 3.60772C6.66803 3.30778 6.46555 3.05073 6.19956 2.87422C5.93356 2.6977 5.61803 2.61101 5.29919 2.62684C4.98035 2.64267 4.67496 2.76018 4.42775 2.96217C4.18055 3.16415 4.00452 3.43999 3.92546 3.74928L2.06265 10.8827C1.76889 12.0059 1.82285 13.1918 2.21738 14.2837C2.61192 15.3756 3.32847 16.322 4.27233 16.998L11.1414 21.8515C11.3932 22.0291 11.6939 22.1244 12.002 22.1244C12.3102 22.1244 12.6108 22.0291 12.8626 21.8515L19.7317 16.998C20.6749 16.3216 21.3907 15.3749 21.7846 14.283C22.1784 13.1912 22.2318 12.0055 21.9376 10.8827ZM18.4314 15.1605L12.0001 19.7046L5.5689 15.1605C4.99792 14.7496 4.56508 14.175 4.32755 13.5128C4.09003 12.8506 4.05901 12.132 4.23858 11.4518L5.49483 6.64241L6.50358 9.38741C6.58306 9.60363 6.72701 9.79025 6.91596 9.92203C7.10492 10.0538 7.32978 10.1244 7.56015 10.1243H16.4401C16.6705 10.1244 16.8954 10.0538 17.0843 9.92203C17.2733 9.79025 17.4172 9.60363 17.4967 9.38741L18.5055 6.64241L19.7617 11.4518C19.9413 12.132 19.9103 12.8506 19.6727 13.5128C19.4352 14.175 19.0024 14.7496 18.4314 15.1605Z" fill="#130032"/>
</svg>
