<svg width="24" height="24" viewBox="0 0 24 24" fill="none" xmlns="http://www.w3.org/2000/svg">
<path d="M21.0459 16.5459L19.5938 18L21.0488 19.4541C21.1534 19.5587 21.2364 19.6829 21.293 19.8197C21.3497 19.9564 21.3788 20.1029 21.3788 20.2509C21.3788 20.3989 21.3497 20.5455 21.293 20.6822C21.2364 20.8189 21.1534 20.9432 21.0488 21.0478C20.9441 21.1525 20.8199 21.2355 20.6831 21.2921C20.5464 21.3487 20.3999 21.3779 20.2519 21.3779C20.1039 21.3779 19.9573 21.3487 19.8206 21.2921C19.6839 21.2355 19.5597 21.1525 19.455 21.0478L18 19.5938L16.5459 21.0488C16.3346 21.2601 16.048 21.3788 15.7491 21.3788C15.4502 21.3788 15.1635 21.2601 14.9522 21.0488C14.7408 20.8374 14.6221 20.5508 14.6221 20.2519C14.6221 19.953 14.7408 19.6663 14.9522 19.455L16.4063 18L14.9513 16.5459C14.7399 16.3346 14.6212 16.048 14.6212 15.7491C14.6212 15.4502 14.7399 15.1635 14.9513 14.9522C15.1626 14.7408 15.4492 14.6221 15.7481 14.6221C16.047 14.6221 16.3337 14.7408 16.545 14.9522L18 16.4063L19.4541 14.9513C19.5587 14.8466 19.6829 14.7636 19.8197 14.707C19.9564 14.6503 20.1029 14.6212 20.2509 14.6212C20.3989 14.6212 20.5455 14.6503 20.6822 14.707C20.8189 14.7636 20.9432 14.8466 21.0478 14.9513C21.1525 15.0559 21.2355 15.1801 21.2921 15.3169C21.3487 15.4536 21.3779 15.6001 21.3779 15.7481C21.3779 15.8961 21.3487 16.0427 21.2921 16.1794C21.2355 16.3161 21.1525 16.4404 21.0478 16.545L21.0459 16.5459ZM22.125 12C22.125 12.2984 22.0065 12.5845 21.7955 12.7955C21.5845 13.0065 21.2984 13.125 21 13.125H9.42563C9.83532 17.7713 12.6722 20.0972 12.7069 20.1216C12.8892 20.2674 13.0216 20.4664 13.0857 20.6908C13.1499 20.9153 13.1426 21.1542 13.065 21.3743C12.9873 21.5945 12.843 21.785 12.6522 21.9195C12.4614 22.054 12.2335 22.1258 12 22.125C9.99747 22.125 8.0399 21.5312 6.37486 20.4186C4.70981 19.3061 3.41206 17.7248 2.64572 15.8747C1.87939 14.0246 1.67888 11.9888 2.06955 10.0247C2.46023 8.06066 3.42454 6.25656 4.84055 4.84055C6.25656 3.42454 8.06066 2.46023 10.0247 2.06955C11.9888 1.67888 14.0246 1.87939 15.8747 2.64572C17.7248 3.41206 19.3061 4.70981 20.4186 6.37486C21.5312 8.0399 22.125 9.99747 22.125 12ZM14.8322 4.65375C15.9978 6.53276 16.685 8.66884 16.8338 10.875H19.7934C19.5913 9.49164 19.0255 8.18674 18.1538 7.0937C17.2822 6.00065 16.1359 5.15865 14.8322 4.65375ZM11.0288 5.92782C10.1142 7.42858 9.56474 9.12311 9.42469 10.875H14.5753C14.2941 7.69688 12.8794 5.60438 12.0019 4.59375C11.6416 5.01114 11.3162 5.45732 11.0288 5.92782ZM4.20657 10.875H7.16625C7.31498 8.66884 8.00222 6.53276 9.16782 4.65375C7.86411 5.15865 6.71785 6.00065 5.84618 7.0937C4.97451 8.18674 4.40869 9.49164 4.20657 10.875ZM7.16625 13.125H4.20657C4.40869 14.5084 4.97451 15.8133 5.84618 16.9063C6.71785 17.9994 7.86411 18.8414 9.16782 19.3463C8.00222 17.4672 7.31498 15.3312 7.16625 13.125Z" fill="#130032"/>
</svg>
