<svg width="24" height="24" viewBox="0 0 24 24" fill="none" xmlns="http://www.w3.org/2000/svg">
<path d="M12 1.875C9.31468 1.875 6.73935 2.94174 4.84054 4.84054C2.94174 6.73935 1.875 9.31468 1.875 12C1.875 14.6853 2.94174 17.2607 4.84054 19.1595C6.73935 21.0583 9.31468 22.125 12 22.125C12.2331 22.1249 12.4603 22.0524 12.6504 21.9175C12.8405 21.7826 12.9839 21.592 13.061 21.3721C13.1381 21.1522 13.145 20.9137 13.0807 20.6897C13.0164 20.4657 12.8842 20.2672 12.7022 20.1216C12.6788 20.1028 11.0569 18.7725 10.0866 16.125H12C12.2984 16.125 12.5845 16.0065 12.7955 15.7955C13.0065 15.5845 13.125 15.2984 13.125 15C13.125 14.7016 13.0065 14.4155 12.7955 14.2045C12.5845 13.9935 12.2984 13.875 12 13.875H9.51375C9.32876 12.6318 9.32876 11.3682 9.51375 10.125H14.4825C14.5769 10.7456 14.6245 11.3723 14.625 12C14.625 12.2984 14.7435 12.5845 14.9545 12.7955C15.1655 13.0065 15.4516 13.125 15.75 13.125C16.0484 13.125 16.3345 13.0065 16.5455 12.7955C16.7565 12.5845 16.875 12.2984 16.875 12C16.8754 11.3732 16.8363 10.7469 16.7578 10.125H19.6472C19.7985 10.7385 19.875 11.3681 19.875 12C19.875 12.2984 19.9935 12.5845 20.2045 12.7955C20.4155 13.0065 20.7016 13.125 21 13.125C21.2984 13.125 21.5845 13.0065 21.7955 12.7955C22.0065 12.5845 22.125 12.2984 22.125 12C22.122 9.3156 21.0543 6.74199 19.1562 4.84383C17.258 2.94567 14.6844 1.87798 12 1.875ZM9.16781 4.65375C8.54127 5.65753 8.05252 6.74098 7.71469 7.875H5.295C6.20086 6.40829 7.56064 5.27729 9.16781 4.65375ZM9.16781 19.3463C7.56064 18.7227 6.20086 17.5917 5.295 16.125H7.71469C8.05252 17.259 8.54127 18.3425 9.16781 19.3463ZM7.24219 13.875H4.35281C4.04906 12.6435 4.04906 11.3565 4.35281 10.125H7.24219C7.08594 11.3701 7.08594 12.6299 7.24219 13.875ZM10.0866 7.875C10.334 7.19657 10.648 6.54432 11.0241 5.92781C11.3124 5.45721 11.6388 5.01103 12 4.59375C12.8293 5.56367 13.4768 6.67522 13.9116 7.875H10.0866ZM16.2853 7.875C15.9475 6.74098 15.4587 5.65753 14.8322 4.65375C16.4394 5.27729 17.7991 6.40829 18.705 7.875H16.2853ZM21.0459 16.5459L19.5938 18L21.0487 19.4541C21.1534 19.5587 21.2364 19.6829 21.293 19.8197C21.3497 19.9564 21.3788 20.1029 21.3788 20.2509C21.3788 20.3989 21.3497 20.5455 21.293 20.6822C21.2364 20.8189 21.1534 20.9432 21.0487 21.0478C20.9441 21.1525 20.8199 21.2355 20.6831 21.2921C20.5464 21.3487 20.3999 21.3779 20.2519 21.3779C20.1039 21.3779 19.9573 21.3487 19.8206 21.2921C19.6839 21.2355 19.5596 21.1525 19.455 21.0478L18 19.5938L16.5459 21.0487C16.3346 21.2601 16.0479 21.3788 15.7491 21.3788C15.4502 21.3788 15.1635 21.2601 14.9522 21.0487C14.7408 20.8374 14.6221 20.5508 14.6221 20.2519C14.6221 19.953 14.7408 19.6663 14.9522 19.455L16.4062 18L14.9513 16.5459C14.7399 16.3346 14.6212 16.0479 14.6212 15.7491C14.6212 15.4502 14.7399 15.1635 14.9513 14.9522C15.1626 14.7408 15.4492 14.6221 15.7481 14.6221C16.047 14.6221 16.3337 14.7408 16.545 14.9522L18 16.4062L19.4541 14.9513C19.5587 14.8466 19.6829 14.7636 19.8197 14.707C19.9564 14.6503 20.1029 14.6212 20.2509 14.6212C20.3989 14.6212 20.5455 14.6503 20.6822 14.707C20.8189 14.7636 20.9432 14.8466 21.0478 14.9513C21.1525 15.0559 21.2355 15.1801 21.2921 15.3169C21.3487 15.4536 21.3779 15.6001 21.3779 15.7481C21.3779 15.8961 21.3487 16.0427 21.2921 16.1794C21.2355 16.3161 21.1525 16.4404 21.0478 16.545L21.0459 16.5459Z" fill="#130032"/>
</svg>
