<svg width="24" height="24" viewBox="0 0 24 24" fill="none" xmlns="http://www.w3.org/2000/svg">
<path d="M12.7504 16.5015C14.0854 16.5015 15.3905 16.1057 16.5005 15.364C17.6105 14.6223 18.4757 13.5681 18.9866 12.3347C19.4975 11.1013 19.6311 9.74405 19.3707 8.43468C19.1102 7.12531 18.4674 5.92257 17.5234 4.97857C16.5794 4.03456 15.3766 3.39169 14.0673 3.13124C12.7579 2.87079 11.4007 3.00446 10.1673 3.51535C8.93388 4.02624 7.87968 4.89141 7.13798 6.00144C6.39628 7.11147 6.0004 8.41652 6.0004 9.75154C6.00238 11.5411 6.71418 13.2569 7.97962 14.5223C9.24506 15.7878 10.9608 16.4996 12.7504 16.5015ZM12.7504 5.25154C13.6404 5.25154 14.5104 5.51546 15.2505 6.00993C15.9905 6.50439 16.5673 7.2072 16.9079 8.02946C17.2484 8.85173 17.3376 9.75653 17.1639 10.6294C16.9903 11.5024 16.5617 12.3042 15.9324 12.9335C15.303 13.5629 14.5012 13.9914 13.6283 14.1651C12.7554 14.3387 11.8506 14.2496 11.0283 13.909C10.2061 13.5684 9.50325 12.9916 9.00878 12.2516C8.51432 11.5116 8.2504 10.6416 8.2504 9.75154C8.25164 8.55845 8.72614 7.41457 9.56979 6.57093C10.4134 5.72728 11.5573 5.25278 12.7504 5.25154ZM13.8754 20.1906V21.3765H15.7504C16.0488 21.3765 16.3349 21.4951 16.5459 21.706C16.7569 21.917 16.8754 22.2032 16.8754 22.5015C16.8754 22.7999 16.7569 23.0861 16.5459 23.297C16.3349 23.508 16.0488 23.6265 15.7504 23.6265H9.7504C9.45203 23.6265 9.16588 23.508 8.9549 23.297C8.74392 23.0861 8.6254 22.7999 8.6254 22.5015C8.6254 22.2032 8.74392 21.917 8.9549 21.706C9.16588 21.4951 9.45203 21.3765 9.7504 21.3765H11.6254V20.1915C9.6893 19.983 7.84934 19.2401 6.31115 18.046C4.77296 16.8518 3.59714 15.2535 2.9151 13.4295C2.23306 11.6056 2.07168 9.6279 2.44898 7.7175C2.82628 5.8071 3.72741 4.03926 5.05165 2.61154C5.15116 2.4997 5.272 2.40884 5.40708 2.3443C5.54216 2.27976 5.68876 2.24282 5.8383 2.23566C5.98784 2.2285 6.1373 2.25126 6.27793 2.3026C6.41855 2.35395 6.54752 2.43284 6.65727 2.53467C6.76701 2.63649 6.85534 2.75919 6.91705 2.89559C6.97877 3.03198 7.01265 3.17932 7.01669 3.32897C7.02074 3.47863 6.99487 3.62758 6.94061 3.76711C6.88636 3.90664 6.80479 4.03394 6.70071 4.14154C5.24533 5.70577 4.45357 7.77362 4.49206 9.90985C4.53056 12.0461 5.39631 14.0841 6.90709 15.5948C8.41788 17.1056 10.4559 17.9714 12.5921 18.0099C14.7283 18.0484 16.7962 17.2566 18.3604 15.8012C18.468 15.6971 18.5953 15.6156 18.7348 15.5613C18.8744 15.5071 19.0233 15.4812 19.173 15.4852C19.3226 15.4893 19.47 15.5232 19.6063 15.5849C19.7427 15.6466 19.8654 15.7349 19.9673 15.8447C20.0691 15.9544 20.148 16.0834 20.1993 16.224C20.2507 16.3646 20.2734 16.5141 20.2663 16.6636C20.2591 16.8132 20.2222 16.9598 20.1576 17.0949C20.0931 17.2299 20.0022 17.3508 19.8904 17.4503C18.2345 18.9902 16.124 19.9517 13.8754 20.1906Z" fill="#130032"/>
</svg>
