<svg width="24" height="24" viewBox="0 0 24 24" fill="none" xmlns="http://www.w3.org/2000/svg">
<path d="M16.875 5.625H7.125C5.23594 5.62699 3.42482 6.37829 2.08906 7.71406C0.75329 9.04982 0.00198535 10.8609 0 12.75L0 13.125C0.000113081 13.5511 0.121237 13.9685 0.349276 14.3285C0.577315 14.6884 0.902893 14.9763 1.28813 15.1584C1.58344 15.975 2.27344 16.7288 3.30562 17.34C4.38562 17.9784 5.70563 18.3713 6.75 18.3713C7.64744 18.3701 8.52009 18.0767 9.23593 17.5354C9.95177 16.9941 10.4719 16.2344 10.7175 15.3713H13.2825C13.5275 16.2351 14.0473 16.9956 14.7632 17.5376C15.4791 18.0796 16.3521 18.3736 17.25 18.375C18.9872 18.375 21.9956 17.1741 22.7166 15.1566C23.1006 14.9739 23.425 14.686 23.6522 14.3265C23.8794 13.9669 24 13.5503 24 13.125V12.75C23.998 10.8609 23.2467 9.04982 21.9109 7.71406C20.5752 6.37829 18.7641 5.62699 16.875 5.625ZM7.125 7.875H16.875C18.0145 7.87657 19.1176 8.27673 19.993 9.00614C20.8685 9.73555 21.4612 10.7482 21.6684 11.8687C21.3681 11.5996 21.0418 11.3609 20.6944 11.1562C19.6144 10.5178 18.2944 10.125 17.25 10.125C16.3526 10.1262 15.4799 10.4196 14.7641 10.9609C14.0482 11.5021 13.5281 12.2618 13.2825 13.125H10.7175C10.4719 12.2618 9.95177 11.5021 9.23593 10.9609C8.52009 10.4196 7.64744 10.1262 6.75 10.125C5.49375 10.125 3.57188 10.7541 2.33156 11.865C2.53975 10.7453 3.13284 9.73354 4.00819 9.00491C4.88354 8.27628 5.98608 7.87659 7.125 7.875ZM6.75 16.125C5.42531 16.125 3.375 14.9859 3.375 14.25C3.375 13.9931 3.70781 13.5366 4.45125 13.0969C5.295 12.5981 6.21375 12.375 6.75 12.375C7.24728 12.375 7.72419 12.5725 8.07582 12.9242C8.42746 13.2758 8.625 13.7527 8.625 14.25C8.625 14.7473 8.42746 15.2242 8.07582 15.5758C7.72419 15.9275 7.24728 16.125 6.75 16.125ZM19.5487 15.4031C18.705 15.9019 17.7862 16.125 17.25 16.125C16.7527 16.125 16.2758 15.9275 15.9242 15.5758C15.5725 15.2242 15.375 14.7473 15.375 14.25C15.375 13.7527 15.5725 13.2758 15.9242 12.9242C16.2758 12.5725 16.7527 12.375 17.25 12.375C18.5747 12.375 20.625 13.5141 20.625 14.25C20.625 14.5069 20.2922 14.9634 19.5487 15.4031Z" fill="#130032"/>
</svg>
