<svg width="24" height="24" viewBox="0 0 24 24" fill="none" xmlns="http://www.w3.org/2000/svg">
<path d="M16.875 9.375C16.875 9.67167 16.787 9.96168 16.6222 10.2084C16.4574 10.455 16.2231 10.6473 15.949 10.7608C15.6749 10.8744 15.3733 10.9041 15.0824 10.8462C14.7914 10.7883 14.5241 10.6454 14.3143 10.4357C14.1046 10.2259 13.9617 9.95861 13.9038 9.66763C13.8459 9.37666 13.8757 9.07506 13.9892 8.80097C14.1027 8.52689 14.295 8.29262 14.5416 8.1278C14.7883 7.96297 15.0783 7.875 15.375 7.875C15.7728 7.875 16.1544 8.03304 16.4357 8.31434C16.717 8.59564 16.875 8.97718 16.875 9.375ZM12.375 10.875C12.0783 10.875 11.7883 10.963 11.5416 11.1278C11.295 11.2926 11.1027 11.5269 10.9892 11.801C10.8757 12.0751 10.8459 12.3767 10.9038 12.6676C10.9617 12.9586 11.1046 13.2259 11.3143 13.4357C11.5241 13.6454 11.7914 13.7883 12.0824 13.8462C12.3733 13.9041 12.6749 13.8744 12.949 13.7608C13.2231 13.6473 13.4574 13.455 13.6222 13.2084C13.787 12.9617 13.875 12.6717 13.875 12.375C13.875 11.9772 13.717 11.5956 13.4357 11.3143C13.1544 11.033 12.7728 10.875 12.375 10.875ZM20.625 9C20.625 10.7059 20.1192 12.3734 19.1714 13.7918C18.2237 15.2102 16.8767 16.3157 15.3006 16.9685C13.7246 17.6213 11.9904 17.7921 10.3173 17.4593C8.64426 17.1265 7.10744 16.305 5.90121 15.0988C4.69498 13.8926 3.87353 12.3557 3.54073 10.6827C3.20793 9.00957 3.37874 7.27537 4.03154 5.69936C4.68435 4.12334 5.78984 2.7763 7.20821 1.82857C8.62658 0.880847 10.2941 0.375 12 0.375C14.2867 0.377482 16.4791 1.28698 18.0961 2.90394C19.713 4.52091 20.6225 6.71327 20.625 9ZM18.375 9C18.375 7.73914 18.0011 6.5066 17.3006 5.45824C16.6001 4.40988 15.6045 3.59278 14.4396 3.11027C13.2747 2.62776 11.9929 2.50151 10.7563 2.74749C9.51967 2.99347 8.38376 3.60063 7.4922 4.49219C6.60064 5.38375 5.99348 6.51967 5.7475 7.7563C5.50152 8.99293 5.62776 10.2747 6.11027 11.4396C6.59278 12.6045 7.40988 13.6001 8.45824 14.3006C9.50661 15.0011 10.7391 15.375 12 15.375C13.6902 15.3733 15.3107 14.7011 16.5059 13.5059C17.7011 12.3107 18.3733 10.6902 18.375 9ZM15.375 18.5494C13.1905 19.3169 10.8096 19.3169 8.625 18.5494C8.34367 18.4499 8.03434 18.4663 7.76508 18.5949C7.63176 18.6586 7.51228 18.7479 7.41348 18.8578C7.31467 18.9676 7.23847 19.0959 7.18922 19.2352C7.13998 19.3745 7.11865 19.5221 7.12646 19.6696C7.13428 19.8172 7.17107 19.9618 7.23475 20.0951C7.36336 20.3643 7.59367 20.5715 7.875 20.6709C8.84383 21.0136 9.85161 21.234 10.875 21.3272V22.875C10.875 23.1734 10.9935 23.4595 11.2045 23.6705C11.4155 23.8815 11.7016 24 12 24C12.2984 24 12.5845 23.8815 12.7955 23.6705C13.0065 23.4595 13.125 23.1734 13.125 22.875V21.3244C14.1484 21.2312 15.1562 21.0107 16.125 20.6681C16.4063 20.5687 16.6366 20.3615 16.7653 20.0923C16.8939 19.823 16.9102 19.5137 16.8108 19.2323C16.7113 18.951 16.5042 18.7207 16.2349 18.5921C15.9657 18.4635 15.6563 18.4471 15.375 18.5466V18.5494Z" fill="#130032"/>
</svg>
