<svg width="24" height="24" viewBox="0 0 24 24" fill="none" xmlns="http://www.w3.org/2000/svg">
<path d="M17.25 1.87537C16.9516 1.87537 16.6655 1.99389 16.4545 2.20487C16.2435 2.41585 16.125 2.702 16.125 3.00037V3.39599C15.1986 2.60674 14.0655 2.09942 12.8598 1.93407C11.654 1.76871 10.4262 1.95226 9.32151 2.46297C8.21684 2.97368 7.28161 3.79018 6.6265 4.81584C5.9714 5.84149 5.62386 7.03335 5.625 8.25037V10.5004C5.62386 11.7174 5.9714 12.9092 6.6265 13.9349C7.28161 14.9606 8.21684 15.7771 9.32151 16.2878C10.4262 16.7985 11.654 16.982 12.8598 16.8167C14.0655 16.6513 15.1986 16.144 16.125 15.3547V15.7504C16.1238 16.844 15.6888 17.8925 14.9154 18.6658C14.1421 19.4391 13.0936 19.8741 12 19.8754C10.5938 19.8754 9.16032 19.1647 8.4225 18.1063C8.25169 17.8616 7.99068 17.6949 7.69689 17.6426C7.4031 17.5904 7.1006 17.6571 6.85594 17.8279C6.61128 17.9987 6.44449 18.2597 6.39228 18.5535C6.34006 18.8473 6.40669 19.1498 6.5775 19.3944C7.73438 21.0529 9.86344 22.1254 12 22.1254C13.6902 22.1236 15.3107 21.4514 16.5059 20.2563C17.7011 19.0611 18.3733 17.4406 18.375 15.7504V3.00037C18.375 2.702 18.2565 2.41585 18.0455 2.20487C17.8345 1.99389 17.5484 1.87537 17.25 1.87537ZM12 14.6254C10.9064 14.6241 9.85788 14.1891 9.08456 13.4158C8.31124 12.6425 7.87624 11.594 7.875 10.5004V8.25037C7.875 7.15635 8.3096 6.10714 9.08319 5.33355C9.85677 4.55996 10.906 4.12537 12 4.12537C13.094 4.12537 14.1432 4.55996 14.9168 5.33355C15.6904 6.10714 16.125 7.15635 16.125 8.25037V10.5004C16.1238 11.594 15.6888 12.6425 14.9154 13.4158C14.1421 14.1891 13.0936 14.6241 12 14.6254Z" fill="#130032"/>
</svg>
