<svg width="24" height="24" viewBox="0 0 24 24" fill="none" xmlns="http://www.w3.org/2000/svg">
<path d="M13.125 1.5V4.5C13.125 4.79837 13.0065 5.08452 12.7955 5.2955C12.5845 5.50647 12.2984 5.625 12 5.625C11.7016 5.625 11.4155 5.50647 11.2045 5.2955C10.9935 5.08452 10.875 4.79837 10.875 4.5V1.5C10.875 1.20163 10.9935 0.915483 11.2045 0.704505C11.4155 0.493526 11.7016 0.375 12 0.375C12.2984 0.375 12.5845 0.493526 12.7955 0.704505C13.0065 0.915483 13.125 1.20163 13.125 1.5ZM16.5 4.875C16.2016 4.875 15.9155 4.99353 15.7045 5.2045C15.4935 5.41548 15.375 5.70163 15.375 6V9C15.375 9.29837 15.4935 9.58452 15.7045 9.7955C15.9155 10.0065 16.2016 10.125 16.5 10.125C16.7984 10.125 17.0845 10.0065 17.2955 9.7955C17.5065 9.58452 17.625 9.29837 17.625 9V6C17.625 5.70163 17.5065 5.41548 17.2955 5.2045C17.0845 4.99353 16.7984 4.875 16.5 4.875ZM12 18.375C11.7016 18.375 11.4155 18.4935 11.2045 18.7045C10.9935 18.9155 10.875 19.2016 10.875 19.5V22.5C10.875 22.7984 10.9935 23.0845 11.2045 23.2955C11.4155 23.5065 11.7016 23.625 12 23.625C12.2984 23.625 12.5845 23.5065 12.7955 23.2955C13.0065 23.0845 13.125 22.7984 13.125 22.5V19.5C13.125 19.2016 13.0065 18.9155 12.7955 18.7045C12.5845 18.4935 12.2984 18.375 12 18.375ZM12 7.125C11.7016 7.125 11.4155 7.24353 11.2045 7.4545C10.9935 7.66548 10.875 7.95163 10.875 8.25V15.75C10.875 16.0484 10.9935 16.3345 11.2045 16.5455C11.4155 16.7565 11.7016 16.875 12 16.875C12.2984 16.875 12.5845 16.7565 12.7955 16.5455C13.0065 16.3345 13.125 16.0484 13.125 15.75V8.25C13.125 7.95163 13.0065 7.66548 12.7955 7.4545C12.5845 7.24353 12.2984 7.125 12 7.125ZM7.5 4.875C7.20163 4.875 6.91548 4.99353 6.7045 5.2045C6.49353 5.41548 6.375 5.70163 6.375 6V11.25C6.375 11.5484 6.49353 11.8345 6.7045 12.0455C6.91548 12.2565 7.20163 12.375 7.5 12.375C7.79837 12.375 8.08452 12.2565 8.2955 12.0455C8.50647 11.8345 8.625 11.5484 8.625 11.25V6C8.625 5.70163 8.50647 5.41548 8.2955 5.2045C8.08452 4.99353 7.79837 4.875 7.5 4.875ZM16.5 11.625C16.2016 11.625 15.9155 11.7435 15.7045 11.9545C15.4935 12.1655 15.375 12.4516 15.375 12.75V18C15.375 18.2984 15.4935 18.5845 15.7045 18.7955C15.9155 19.0065 16.2016 19.125 16.5 19.125C16.7984 19.125 17.0845 19.0065 17.2955 18.7955C17.5065 18.5845 17.625 18.2984 17.625 18V12.75C17.625 12.4516 17.5065 12.1655 17.2955 11.9545C17.0845 11.7435 16.7984 11.625 16.5 11.625ZM3 9.375C2.70163 9.375 2.41548 9.49353 2.2045 9.7045C1.99353 9.91548 1.875 10.2016 1.875 10.5V13.5C1.875 13.7984 1.99353 14.0845 2.2045 14.2955C2.41548 14.5065 2.70163 14.625 3 14.625C3.29837 14.625 3.58452 14.5065 3.7955 14.2955C4.00647 14.0845 4.125 13.7984 4.125 13.5V10.5C4.125 10.2016 4.00647 9.91548 3.7955 9.7045C3.58452 9.49353 3.29837 9.375 3 9.375ZM7.5 13.875C7.20163 13.875 6.91548 13.9935 6.7045 14.2045C6.49353 14.4155 6.375 14.7016 6.375 15V18C6.375 18.2984 6.49353 18.5845 6.7045 18.7955C6.91548 19.0065 7.20163 19.125 7.5 19.125C7.79837 19.125 8.08452 19.0065 8.2955 18.7955C8.50647 18.5845 8.625 18.2984 8.625 18V15C8.625 14.7016 8.50647 14.4155 8.2955 14.2045C8.08452 13.9935 7.79837 13.875 7.5 13.875ZM21 9.375C20.7016 9.375 20.4155 9.49353 20.2045 9.7045C19.9935 9.91548 19.875 10.2016 19.875 10.5V13.5C19.875 13.7984 19.9935 14.0845 20.2045 14.2955C20.4155 14.5065 20.7016 14.625 21 14.625C21.2984 14.625 21.5845 14.5065 21.7955 14.2955C22.0065 14.0845 22.125 13.7984 22.125 13.5V10.5C22.125 10.2016 22.0065 9.91548 21.7955 9.7045C21.5845 9.49353 21.2984 9.375 21 9.375Z" fill="#130032"/>
</svg>
