<svg width="24" height="24" viewBox="0 0 24 24" fill="none" xmlns="http://www.w3.org/2000/svg">
<path d="M22.6678 10.3779L6.93752 1.37318C6.64992 1.20958 6.32453 1.12402 5.99365 1.12501C5.66277 1.126 5.3379 1.21349 5.05127 1.3788C4.76851 1.5405 4.53377 1.77439 4.37103 2.05654C4.20829 2.3387 4.12339 2.65902 4.12502 2.98474V21.0147C4.12367 21.3407 4.20899 21.6612 4.37224 21.9434C4.53549 22.2256 4.7708 22.4593 5.05409 22.6207C5.34065 22.7862 5.66554 22.8738 5.99646 22.8748C6.32738 22.8757 6.65279 22.7901 6.94034 22.6263L22.6678 13.6263C22.9578 13.4662 23.1996 13.2314 23.368 12.9461C23.5364 12.6609 23.6252 12.3357 23.6252 12.0044C23.6252 11.6732 23.5364 11.348 23.368 11.0628C23.1996 10.7775 22.9578 10.5426 22.6678 10.3826V10.3779ZM6.37502 19.031V4.96849L13.4063 11.9997L6.37502 19.031ZM15 13.5935L16.1625 14.756L10.725 17.8685L15 13.5935ZM10.726 6.1338L16.1635 9.2463L15 10.406L10.726 6.1338ZM18.1875 13.5935L16.5938 11.9997L18.1875 10.406L20.9738 11.9997L18.1875 13.5935Z" fill="#130032"/>
</svg>
