<svg width="24" height="24" viewBox="0 0 24 24" fill="none" xmlns="http://www.w3.org/2000/svg">
<path d="M22.5936 13.2797L16.1801 2.7666L16.1736 2.75629C16.0057 2.48515 15.7709 2.2617 15.4918 2.10738C15.2128 1.95306 14.8987 1.87306 14.5798 1.87504H9.41606C9.09716 1.87306 8.7831 1.95306 8.50401 2.10738C8.22493 2.2617 7.99019 2.48515 7.82231 2.75629L7.81574 2.7666L1.40606 13.2797C1.22823 13.5668 1.13123 13.8965 1.12529 14.2341C1.11935 14.5718 1.20469 14.9047 1.37231 15.1978L3.93731 19.68C4.101 19.9666 4.33742 20.2049 4.62269 20.3708C4.90796 20.5367 5.23198 20.6244 5.56199 20.625H18.4376C18.7676 20.6244 19.0917 20.5367 19.3769 20.3708C19.6622 20.2049 19.8986 19.9666 20.0623 19.68L22.6236 15.1978C22.7917 14.9051 22.8777 14.5723 22.8724 14.2347C22.8672 13.897 22.7708 13.5671 22.5936 13.2797ZM19.8636 13.125H16.3864L13.3123 7.99972L15.0111 5.16941L19.8636 13.125ZM5.13731 17.25L4.06481 15.375H6.26324L5.13731 17.25ZM8.88731 15.375H15.1123L16.9123 18.375H7.08731L8.88731 15.375ZM10.2373 13.125L11.9998 10.1869L13.7623 13.125H10.2373ZM17.7373 15.375H19.9357L18.8623 17.25L17.7373 15.375ZM11.9998 5.81254L10.9864 4.12504H13.0132L11.9998 5.81254ZM8.98949 5.16941L10.6873 7.99972L7.61324 13.125H4.13606L8.98949 5.16941Z" fill="#130032"/>
</svg>
