<svg width="24" height="24" viewBox="0 0 24 24" fill="none" xmlns="http://www.w3.org/2000/svg">
<path d="M12 1.875C9.99747 1.875 8.0399 2.46882 6.37486 3.58137C4.70981 4.69392 3.41206 6.27523 2.64572 8.12533C1.87939 9.97543 1.67888 12.0112 2.06955 13.9753C2.46023 15.9393 3.42454 17.7435 4.84055 19.1595C6.25656 20.5755 8.06066 21.5398 10.0247 21.9305C11.9888 22.3211 14.0246 22.1206 15.8747 21.3543C17.7248 20.5879 19.3061 19.2902 20.4186 17.6251C21.5312 15.9601 22.125 14.0025 22.125 12C22.122 9.3156 21.0543 6.74199 19.1562 4.84383C17.258 2.94567 14.6844 1.87798 12 1.875ZM12 4.125C13.1896 4.12523 14.3637 4.39533 15.4338 4.91498C16.504 5.43462 17.4423 6.19025 18.1781 7.125H12C11.1071 7.12581 10.2315 7.3716 9.46864 7.83561C8.70576 8.29962 8.08482 8.96406 7.67344 9.75656L6.01688 6.88781C6.75468 6.02158 7.67179 5.32591 8.70482 4.84889C9.73785 4.37187 10.8622 4.12488 12 4.125ZM14.625 12C14.625 12.5192 14.4711 13.0267 14.1826 13.4584C13.8942 13.8901 13.4842 14.2265 13.0045 14.4252C12.5249 14.6239 11.9971 14.6758 11.4879 14.5746C10.9787 14.4733 10.511 14.2233 10.1438 13.8562C9.77674 13.489 9.52673 13.0213 9.42544 12.5121C9.32416 12.0029 9.37614 11.4751 9.57482 10.9955C9.7735 10.5158 10.11 10.1058 10.5416 9.81739C10.9733 9.52895 11.4808 9.375 12 9.375C12.6962 9.375 13.3639 9.65156 13.8562 10.1438C14.3484 10.6361 14.625 11.3038 14.625 12ZM4.125 12C4.12444 11.0008 4.31539 10.0108 4.6875 9.08344L7.78125 14.4375C7.78688 14.4478 7.79438 14.4563 7.8 14.4656C8.22955 15.1983 8.84305 15.806 9.57973 16.2286C10.3164 16.6512 11.1507 16.874 12 16.875C12.0744 16.875 12.1475 16.8731 12.2194 16.8694L10.5619 19.7409C8.75496 19.4031 7.12282 18.4447 5.94751 17.0312C4.7722 15.6178 4.12756 13.8382 4.125 12ZM13.1297 19.7925L16.2188 14.4375C16.2272 14.4234 16.2338 14.4094 16.2413 14.3944C16.6778 13.6246 16.8959 12.7502 16.8717 11.8656C16.8476 10.981 16.5823 10.1198 16.1044 9.375H19.4231C19.8119 10.4723 19.9523 11.6423 19.8344 12.8005C19.7164 13.9586 19.343 15.0762 18.741 16.0727C18.139 17.0691 17.3235 17.9196 16.3532 18.5629C15.3828 19.2061 14.2819 19.6261 13.1297 19.7925Z" fill="#130032"/>
</svg>
