<svg width="24" height="24" viewBox="0 0 24 24" fill="none" xmlns="http://www.w3.org/2000/svg">
<path d="M21 4.125H3C2.50272 4.125 2.02581 4.32254 1.67417 4.67417C1.32254 5.02581 1.125 5.50272 1.125 6V18C1.125 18.4973 1.32254 18.9742 1.67417 19.3258C2.02581 19.6775 2.50272 19.875 3 19.875H9C9.14778 19.8751 9.29414 19.8461 9.43071 19.7897C9.56728 19.7332 9.69138 19.6504 9.79594 19.5459L12 17.3438L14.2041 19.5487C14.4157 19.7586 14.7019 19.876 15 19.875H21C21.4973 19.875 21.9742 19.6775 22.3258 19.3258C22.6775 18.9742 22.875 18.4973 22.875 18V6C22.875 5.50272 22.6775 5.02581 22.3258 4.67417C21.9742 4.32254 21.4973 4.125 21 4.125ZM20.625 17.625H15.4688L13.3284 15.4847C12.9768 15.1332 12.5 14.9357 12.0028 14.9357C11.5056 14.9357 11.0288 15.1332 10.6772 15.4847L8.53125 17.625H3.375V6.375H20.625V17.625ZM7.6875 15C8.31793 15 8.9342 14.8131 9.45838 14.4628C9.98256 14.1126 10.3911 13.6147 10.6324 13.0323C10.8736 12.4499 10.9367 11.809 10.8138 11.1906C10.6908 10.5723 10.3872 10.0044 9.9414 9.5586C9.49562 9.11282 8.92766 8.80924 8.30935 8.68625C7.69104 8.56326 7.05014 8.62638 6.4677 8.86763C5.88526 9.10889 5.38744 9.51744 5.03719 10.0416C4.68694 10.5658 4.5 11.1821 4.5 11.8125C4.5 12.6579 4.83582 13.4686 5.4336 14.0664C6.03137 14.6642 6.84212 15 7.6875 15ZM7.6875 10.875C7.87292 10.875 8.05418 10.93 8.20835 11.033C8.36252 11.136 8.48268 11.2824 8.55364 11.4537C8.62459 11.625 8.64316 11.8135 8.60699 11.9954C8.57081 12.1773 8.48152 12.3443 8.35041 12.4754C8.2193 12.6065 8.05225 12.6958 7.8704 12.732C7.68854 12.7682 7.50004 12.7496 7.32873 12.6786C7.15743 12.6077 7.01101 12.4875 6.908 12.3333C6.80498 12.1792 6.75 11.9979 6.75 11.8125C6.75 11.5639 6.84877 11.3254 7.02459 11.1496C7.2004 10.9738 7.43886 10.875 7.6875 10.875ZM16.3125 15C16.9429 15 17.5592 14.8131 18.0834 14.4628C18.6076 14.1126 19.0161 13.6147 19.2574 13.0323C19.4986 12.4499 19.5617 11.809 19.4388 11.1906C19.3158 10.5723 19.0122 10.0044 18.5664 9.5586C18.1206 9.11282 17.5527 8.80924 16.9344 8.68625C16.316 8.56326 15.6751 8.62638 15.0927 8.86763C14.5103 9.10889 14.0124 9.51744 13.6622 10.0416C13.3119 10.5658 13.125 11.1821 13.125 11.8125C13.125 12.6579 13.4608 13.4686 14.0586 14.0664C14.6564 14.6642 15.4671 15 16.3125 15ZM16.3125 10.875C16.4979 10.875 16.6792 10.93 16.8333 11.033C16.9875 11.136 17.1077 11.2824 17.1786 11.4537C17.2496 11.625 17.2682 11.8135 17.232 11.9954C17.1958 12.1773 17.1065 12.3443 16.9754 12.4754C16.8443 12.6065 16.6773 12.6958 16.4954 12.732C16.3135 12.7682 16.125 12.7496 15.9537 12.6786C15.7824 12.6077 15.636 12.4875 15.533 12.3333C15.43 12.1792 15.375 11.9979 15.375 11.8125C15.375 11.5639 15.4738 11.3254 15.6496 11.1496C15.8254 10.9738 16.0639 10.875 16.3125 10.875Z" fill="#130032"/>
</svg>
