<svg width="24" height="24" viewBox="0 0 24 24" fill="none" xmlns="http://www.w3.org/2000/svg">
<g clip-path="url(#clip0_7_19160)">
<path d="M23.625 12C23.625 12.2984 23.5065 12.5845 23.2955 12.7955C23.0845 13.0065 22.7984 13.125 22.5 13.125H20.5509C20.4847 13.634 20.373 14.136 20.2172 14.625C20.1446 14.8522 20.0017 15.0505 19.8091 15.1912C19.6165 15.3319 19.3842 15.4078 19.1456 15.4078C19.0295 15.4075 18.9141 15.3895 18.8034 15.3544C18.6626 15.3094 18.532 15.2372 18.4192 15.1417C18.3063 15.0463 18.2133 14.9296 18.1456 14.7982C18.0779 14.6668 18.0367 14.5234 18.0244 14.376C18.0121 14.2287 18.029 14.0805 18.0741 13.9397C18.3781 12.9838 18.4525 11.9698 18.2912 10.9798C18.13 9.98976 17.7376 9.05172 17.1459 8.24178C16.5542 7.43183 15.7799 6.77279 14.8858 6.31813C13.9917 5.86347 13.003 5.626 12 5.625C11.5437 5.62492 11.0886 5.67332 10.6425 5.76937C10.4968 5.80439 10.3455 5.80994 10.1976 5.78569C10.0498 5.76144 9.9082 5.70789 9.78129 5.62818C9.65438 5.54847 9.54468 5.44421 9.45862 5.32151C9.37257 5.19882 9.31189 5.06016 9.28016 4.9137C9.24843 4.76723 9.24629 4.6159 9.27385 4.46859C9.30142 4.32128 9.35814 4.18096 9.44068 4.05588C9.52322 3.93079 9.62993 3.82346 9.75453 3.74018C9.87912 3.65691 10.0191 3.59937 10.1663 3.57094C10.3997 3.52031 10.635 3.47719 10.875 3.44812V1.5C10.875 1.20163 10.9935 0.915483 11.2045 0.704505C11.4155 0.493526 11.7016 0.375 12 0.375C12.2984 0.375 12.5845 0.493526 12.7955 0.704505C13.0065 0.915483 13.125 1.20163 13.125 1.5V3.44812C15.0066 3.6989 16.7534 4.56205 18.0957 5.90433C19.438 7.2466 20.3011 8.99337 20.5519 10.875H22.5C22.7984 10.875 23.0845 10.9935 23.2955 11.2045C23.5065 11.4155 23.625 11.7016 23.625 12ZM20.3325 19.4934C20.4339 19.6024 20.5127 19.7304 20.5643 19.8701C20.6159 20.0097 20.6393 20.1582 20.6331 20.3069C20.6269 20.4557 20.5912 20.6017 20.5281 20.7366C20.4651 20.8714 20.3759 20.9924 20.2657 21.0925C20.1555 21.1927 20.0266 21.2699 19.8863 21.3198C19.7461 21.3698 19.5973 21.3914 19.4486 21.3834C19.3 21.3754 19.1544 21.3379 19.0203 21.2733C18.8862 21.2086 18.7663 21.1179 18.6675 21.0066L16.9191 19.0837C15.79 19.8693 14.4889 20.3721 13.125 20.55V22.5C13.125 22.7984 13.0065 23.0845 12.7955 23.2955C12.5845 23.5065 12.2984 23.625 12 23.625C11.7016 23.625 11.4155 23.5065 11.2045 23.2955C10.9935 23.0845 10.875 22.7984 10.875 22.5V20.5519C8.99337 20.3011 7.2466 19.438 5.90433 18.0957C4.56205 16.7534 3.6989 15.0066 3.44812 13.125H1.5C1.20163 13.125 0.915483 13.0065 0.704505 12.7955C0.493526 12.5845 0.375 12.2984 0.375 12C0.375 11.7016 0.493526 11.4155 0.704505 11.2045C0.915483 10.9935 1.20163 10.875 1.5 10.875H3.44906C3.66725 9.23551 4.35044 7.69281 5.41781 6.42938L3.6675 4.50656C3.56606 4.3976 3.48726 4.26958 3.43566 4.12994C3.38406 3.99029 3.36069 3.8418 3.36691 3.69306C3.37312 3.54431 3.4088 3.39828 3.47187 3.26343C3.53493 3.12858 3.62414 3.00758 3.73431 2.90746C3.84448 2.80733 3.97344 2.73007 4.11369 2.68015C4.25394 2.63023 4.40271 2.60864 4.55136 2.61664C4.70002 2.62464 4.84561 2.66206 4.9797 2.72674C5.11379 2.79142 5.2337 2.88207 5.3325 2.99344L17.8772 16.7916L20.3325 19.4934ZM15.3881 17.4L6.95062 8.11875C6.04429 9.30445 5.58267 10.7706 5.6462 12.2616C5.70974 13.7527 6.29439 15.1742 7.29831 16.2785C8.30222 17.3828 9.66176 18.0999 11.14 18.3049C12.6183 18.5098 14.1217 18.1896 15.3881 17.4Z" fill="#130032"/>
</g>
<defs>
<clipPath id="clip0_7_19160">
<rect width="24" height="24" fill="white"/>
</clipPath>
</defs>
</svg>
