<svg width="24" height="24" viewBox="0 0 24 24" fill="none" xmlns="http://www.w3.org/2000/svg">
<g clip-path="url(#clip0_7_18844)">
<path d="M22.5 10.875H20.5519C20.3011 8.99337 19.438 7.2466 18.0957 5.90433C16.7534 4.56205 15.0066 3.6989 13.125 3.44812V1.5C13.125 1.20163 13.0065 0.915483 12.7955 0.704505C12.5845 0.493526 12.2984 0.375 12 0.375C11.7016 0.375 11.4155 0.493526 11.2045 0.704505C10.9935 0.915483 10.875 1.20163 10.875 1.5V3.44812C8.99337 3.6989 7.2466 4.56205 5.90433 5.90433C4.56205 7.2466 3.6989 8.99337 3.44812 10.875H1.5C1.20163 10.875 0.915483 10.9935 0.704505 11.2045C0.493526 11.4155 0.375 11.7016 0.375 12C0.375 12.2984 0.493526 12.5845 0.704505 12.7955C0.915483 13.0065 1.20163 13.125 1.5 13.125H3.44812C3.6989 15.0066 4.56205 16.7534 5.90433 18.0957C7.2466 19.438 8.99337 20.3011 10.875 20.5519V22.5C10.875 22.7984 10.9935 23.0845 11.2045 23.2955C11.4155 23.5065 11.7016 23.625 12 23.625C12.2984 23.625 12.5845 23.5065 12.7955 23.2955C13.0065 23.0845 13.125 22.7984 13.125 22.5V20.5519C15.0066 20.3011 16.7534 19.438 18.0957 18.0957C19.438 16.7534 20.3011 15.0066 20.5519 13.125H22.5C22.7984 13.125 23.0845 13.0065 23.2955 12.7955C23.5065 12.5845 23.625 12.2984 23.625 12C23.625 11.7016 23.5065 11.4155 23.2955 11.2045C23.0845 10.9935 22.7984 10.875 22.5 10.875ZM12 18.375C10.7391 18.375 9.5066 18.0011 8.45824 17.3006C7.40988 16.6001 6.59278 15.6045 6.11027 14.4396C5.62776 13.2747 5.50151 11.9929 5.74749 10.7563C5.99347 9.51967 6.60063 8.38375 7.49219 7.49219C8.38375 6.60063 9.51967 5.99347 10.7563 5.74749C11.9929 5.50151 13.2747 5.62776 14.4396 6.11027C15.6045 6.59278 16.6001 7.40988 17.3006 8.45824C18.0011 9.5066 18.375 10.7391 18.375 12C18.3733 13.6902 17.7011 15.3107 16.5059 16.5059C15.3107 17.7011 13.6902 18.3733 12 18.375Z" fill="#130032"/>
</g>
<defs>
<clipPath id="clip0_7_18844">
<rect width="24" height="24" fill="white"/>
</clipPath>
</defs>
</svg>
