<svg width="24" height="24" viewBox="0 0 24 24" fill="none" xmlns="http://www.w3.org/2000/svg">
<path d="M5.33278 2.99331C5.23399 2.88194 5.11407 2.79129 4.97998 2.72661C4.8459 2.66193 4.7003 2.62451 4.55165 2.61651C4.40299 2.60851 4.25422 2.6301 4.11397 2.68002C3.97372 2.72994 3.84477 2.8072 3.73459 2.90733C3.62442 3.00745 3.53522 3.12844 3.47215 3.2633C3.40908 3.39815 3.37341 3.54418 3.36719 3.69292C3.36098 3.84167 3.38435 3.99016 3.43594 4.12981C3.48754 4.26945 3.56635 4.39747 3.66778 4.50643L4.07747 4.95737C3.86997 5.04152 3.6923 5.18569 3.56721 5.37141C3.44211 5.55713 3.37529 5.77595 3.37528 5.99987V13.4999C3.37473 15.1615 3.85419 16.788 4.75601 18.1837C5.65783 19.5793 6.94362 20.6848 8.45875 21.3671C9.97388 22.0494 11.6539 22.2795 13.2967 22.0298C14.9395 21.78 16.4751 21.061 17.719 19.9592L18.6715 21.0064C18.8732 21.2231 19.1522 21.3516 19.448 21.3639C19.7438 21.3763 20.0325 21.2715 20.2516 21.0724C20.4707 20.8734 20.6024 20.5959 20.6183 20.3003C20.6342 20.0047 20.533 19.7148 20.3365 19.4933L5.33278 2.99331ZM5.64309 13.9771C7.02993 14.2324 8.29336 14.9392 9.23653 15.9875C10.1797 17.0358 10.7496 18.3667 10.8575 19.7727C9.47064 19.5174 8.2072 18.8105 7.26404 17.7622C6.32087 16.7139 5.75096 15.3831 5.64309 13.9771ZM12.0003 15.9946C11.3411 14.8352 10.4226 13.8441 9.31661 13.0987C8.21068 12.3533 6.94729 11.8739 5.62528 11.698V7.22331C5.84466 7.26292 6.06183 7.31393 6.27591 7.37612L12.9162 14.6792C12.5709 15.0885 12.2643 15.5288 12.0003 15.9946ZM13.1431 19.7717C13.2383 18.5336 13.6917 17.3498 14.4481 16.3649L16.2012 18.2933C15.335 19.0547 14.2778 19.5657 13.1431 19.7717ZM20.6253 5.99987V13.4999C20.6242 13.9185 20.5928 14.3364 20.5315 14.7505C20.4928 15.0179 20.3592 15.2624 20.155 15.4393C19.9508 15.6163 19.6898 15.7139 19.4197 15.7142C19.3651 15.7139 19.3106 15.7098 19.2565 15.7021C18.9613 15.6592 18.6952 15.5007 18.5167 15.2616C18.3383 15.0225 18.2621 14.7223 18.305 14.4271C18.3265 14.278 18.3425 14.128 18.3537 13.9771C18.2825 13.9902 18.2103 14.0042 18.139 14.0192C17.9933 14.0543 17.8421 14.0598 17.6942 14.0356C17.5463 14.0113 17.4047 13.9578 17.2778 13.8781C17.1509 13.7983 17.0412 13.6941 16.9552 13.5714C16.8691 13.4487 16.8084 13.31 16.7767 13.1636C16.745 13.0171 16.7428 12.8658 16.7704 12.7185C16.7979 12.5711 16.8547 12.4308 16.9372 12.3057C17.0198 12.1807 17.1265 12.0733 17.2511 11.9901C17.3757 11.9068 17.5156 11.8492 17.6628 11.8208C17.8962 11.7702 18.1315 11.7271 18.3715 11.698V7.22518C16.9654 7.47732 15.6848 8.19441 14.735 9.26143C14.6365 9.37174 14.5172 9.46157 14.384 9.52579C14.2508 9.59002 14.1063 9.62737 13.9586 9.63573C13.6604 9.65261 13.3678 9.55034 13.145 9.35143C12.9222 9.15252 12.7875 8.87325 12.7707 8.57507C12.7538 8.27689 12.8561 7.98421 13.055 7.76143C13.5363 7.22339 14.0834 6.74809 14.6834 6.34674C13.9147 4.94706 12.6856 4.00299 11.9993 3.55674C11.474 3.89957 10.9852 4.2954 10.5406 4.73799C10.3299 4.94934 10.0438 5.06832 9.74538 5.06876C9.44693 5.0692 9.16053 4.95106 8.94919 4.74034C8.73784 4.52961 8.61887 4.24357 8.61843 3.94512C8.61799 3.64667 8.73612 3.36028 8.94684 3.14893C9.69853 2.39238 10.5574 1.7505 11.4959 1.24393C11.6522 1.16572 11.8246 1.125 11.9993 1.125C12.1741 1.125 12.3465 1.16572 12.5028 1.24393C12.6275 1.30581 15.2553 2.65018 16.6972 5.34456C17.5991 5.03377 18.5463 4.87505 19.5003 4.87487C19.7987 4.87487 20.0848 4.99339 20.2958 5.20437C20.5068 5.41535 20.6253 5.7015 20.6253 5.99987Z" fill="#130032"/>
</svg>
