<svg width="24" height="24" viewBox="0 0 24 24" fill="none" xmlns="http://www.w3.org/2000/svg">
<path d="M19.5 4.87393C18.5461 4.87355 17.5988 5.03196 16.6969 5.34268C15.2541 2.64643 12.6281 1.30581 12.5034 1.24393C12.3471 1.16572 12.1748 1.125 12 1.125C11.8252 1.125 11.6529 1.16572 11.4966 1.24393C11.3719 1.30581 8.74594 2.65018 7.30219 5.34268C6.40064 5.03188 5.45361 4.87346 4.5 4.87393C4.20163 4.87393 3.91548 4.99246 3.7045 5.20344C3.49353 5.41441 3.375 5.70056 3.375 5.99893V13.4989C3.375 15.7864 4.2837 17.9802 5.9012 19.5977C7.51871 21.2152 9.71251 22.1239 12 22.1239C14.2875 22.1239 16.4813 21.2152 18.0988 19.5977C19.7163 17.9802 20.625 15.7864 20.625 13.4989V5.99893C20.625 5.70056 20.5065 5.41441 20.2955 5.20344C20.0845 4.99246 19.7984 4.87393 19.5 4.87393ZM5.625 7.22331C6.99794 7.47175 8.25181 8.1628 9.19508 9.19087C10.1383 10.2189 10.7191 11.5275 10.8488 12.9167C9.48093 11.425 7.63156 10.4625 5.625 10.198V7.22331ZM10.875 19.7746C9.40369 19.5085 8.07237 18.7347 7.113 17.5879C6.15363 16.4411 5.62704 14.9941 5.625 13.4989V12.4733C7.09631 12.7393 8.42763 13.5131 9.387 14.6599C10.3464 15.8067 10.873 17.2538 10.875 18.7489V19.7746ZM9.31594 6.34674C10.0847 4.94612 11.3147 4.00299 12 3.55581C12.6862 4.00487 13.9153 4.94612 14.6841 6.34674C13.5789 7.09357 12.6605 8.08479 12 9.24362C11.3392 8.08501 10.4209 7.09385 9.31594 6.34674ZM18.375 13.4989C18.373 14.9941 17.8464 16.4411 16.887 17.5879C15.9276 18.7347 14.5963 19.5085 13.125 19.7746V18.7489C13.127 17.2538 13.6536 15.8067 14.613 14.6599C15.5724 13.5131 16.9037 12.7393 18.375 12.4733V13.4989ZM18.375 10.1971C16.3684 10.4615 14.5191 11.4241 13.1512 12.9158C13.2811 11.5268 13.8619 10.2184 14.8052 9.1905C15.7484 8.16261 17.0022 7.47171 18.375 7.22331V10.1971Z" fill="#130032"/>
</svg>
