<svg width="24" height="24" viewBox="0 0 24 24" fill="none" xmlns="http://www.w3.org/2000/svg">
<path d="M18.7497 14.25C18.2128 14.2496 17.6835 14.3783 17.2066 14.625L15.2013 13.065C15.3103 12.7412 15.3688 12.4025 15.3747 12.0609L16.345 11.7384C16.8938 12.2957 17.6192 12.6451 18.397 12.7268C19.1749 12.8085 19.957 12.6176 20.6096 12.1866C21.2623 11.7556 21.745 11.1112 21.9752 10.3638C22.2054 9.61627 22.1689 8.81203 21.8718 8.0885C21.5748 7.36497 21.0357 6.76706 20.3466 6.39699C19.6576 6.02692 18.8614 5.90765 18.0942 6.05957C17.3269 6.21149 16.6363 6.62517 16.1403 7.2299C15.6442 7.83463 15.3736 8.59286 15.3747 9.375C15.3747 9.47906 15.3804 9.58219 15.3897 9.68437L14.6604 9.92719C14.3451 9.52209 13.9416 9.19425 13.4805 8.9686C13.0195 8.74295 12.513 8.62543 11.9997 8.625C11.906 8.625 11.8235 8.625 11.7363 8.63625L11.3191 7.69875C11.8885 7.15868 12.2519 6.43707 12.3468 5.65803C12.4417 4.879 12.2621 4.09125 11.839 3.4303C11.4158 2.76935 10.7756 2.27652 10.0284 2.03659C9.28115 1.79666 8.47368 1.82464 7.74486 2.11569C7.01603 2.40675 6.41142 2.9427 6.03504 3.63134C5.65865 4.31999 5.53401 5.11827 5.68257 5.88888C5.83113 6.65948 6.24359 7.35422 6.84901 7.85359C7.45442 8.35296 8.21494 8.62574 8.99973 8.625C9.09348 8.625 9.17598 8.625 9.26317 8.61375L9.68036 9.55125C9.1861 10.0178 8.84465 10.6231 8.70091 11.2874C8.55717 11.9517 8.61788 12.644 8.87504 13.2731L6.88004 15.0459C6.183 14.6612 5.37238 14.5352 4.59145 14.6903C3.81052 14.8455 3.10958 15.2717 2.61252 15.8937C2.11546 16.5156 1.8543 17.2933 1.87519 18.0892C1.89608 18.8851 2.19767 19.648 2.72667 20.2431C3.25567 20.8381 3.97801 21.227 4.766 21.3409C5.55399 21.4549 6.35689 21.2866 7.03279 20.8658C7.70869 20.445 8.21405 19.7988 8.45956 19.0414C8.70507 18.284 8.67491 17.4642 8.37442 16.7269L10.3694 14.9541C10.9012 15.2483 11.5027 15.3931 12.1101 15.3732C12.7175 15.3532 13.3081 15.1692 13.8194 14.8406L15.656 16.2712C15.3644 16.9371 15.2956 17.6792 15.4598 18.3873C15.624 19.0954 16.0123 19.7315 16.5671 20.2011C17.1219 20.6707 17.8135 20.9486 18.539 20.9935C19.2645 21.0385 19.985 20.848 20.5935 20.4504C21.202 20.0529 21.6659 19.4695 21.9162 18.7871C22.1665 18.1047 22.1898 17.3597 21.9826 16.663C21.7754 15.9663 21.3488 15.3551 20.7664 14.9203C20.1839 14.4856 19.4766 14.2505 18.7497 14.25ZM18.7497 8.25C18.9722 8.25 19.1897 8.31598 19.3747 8.4396C19.5598 8.56321 19.7039 8.73891 19.7891 8.94448C19.8742 9.15005 19.8965 9.37625 19.8531 9.59448C19.8097 9.81271 19.7026 10.0132 19.5452 10.1705C19.3879 10.3278 19.1874 10.435 18.9692 10.4784C18.751 10.5218 18.5248 10.4995 18.3192 10.4144C18.1136 10.3292 17.9379 10.185 17.8143 10C17.6907 9.81501 17.6247 9.5975 17.6247 9.375C17.6247 9.07663 17.7433 8.79048 17.9542 8.5795C18.1652 8.36853 18.4514 8.25 18.7497 8.25ZM7.87473 5.25C7.87473 5.02749 7.94071 4.80999 8.06433 4.62498C8.18794 4.43998 8.36365 4.29578 8.56921 4.21063C8.77478 4.12549 9.00098 4.10321 9.21921 4.14662C9.43744 4.19002 9.63789 4.29717 9.79523 4.4545C9.95256 4.61184 10.0597 4.81229 10.1031 5.03052C10.1465 5.24875 10.1242 5.47495 10.0391 5.68052C9.95395 5.88608 9.80975 6.06179 9.62475 6.1854C9.43974 6.30902 9.22224 6.375 8.99973 6.375C8.70136 6.375 8.41521 6.25647 8.20424 6.04549C7.99326 5.83452 7.87473 5.54837 7.87473 5.25ZM5.24973 19.125C5.02723 19.125 4.80972 19.059 4.62471 18.9354C4.43971 18.8118 4.29552 18.6361 4.21037 18.4305C4.12522 18.225 4.10294 17.9988 4.14635 17.7805C4.18976 17.5623 4.2969 17.3618 4.45424 17.2045C4.61157 17.0472 4.81203 16.94 5.03025 16.8966C5.24848 16.8532 5.47468 16.8755 5.68025 16.9606C5.88582 17.0458 6.06152 17.19 6.18513 17.375C6.30875 17.56 6.37473 17.7775 6.37473 18C6.37473 18.2984 6.25621 18.5845 6.04523 18.7955C5.83425 19.0065 5.5481 19.125 5.24973 19.125ZM10.8747 12C10.8747 11.7775 10.9407 11.56 11.0643 11.375C11.1879 11.19 11.3636 11.0458 11.5692 10.9606C11.7748 10.8755 12.001 10.8532 12.2192 10.8966C12.4374 10.94 12.6379 11.0472 12.7952 11.2045C12.9526 11.3618 13.0597 11.5623 13.1031 11.7805C13.1465 11.9988 13.1242 12.225 13.0391 12.4305C12.9539 12.6361 12.8098 12.8118 12.6247 12.9354C12.4397 13.059 12.2222 13.125 11.9997 13.125C11.7014 13.125 11.4152 13.0065 11.2042 12.7955C10.9933 12.5845 10.8747 12.2984 10.8747 12ZM18.7497 18.75C18.5272 18.75 18.3097 18.684 18.1247 18.5604C17.9397 18.4368 17.7955 18.2611 17.7104 18.0555C17.6252 17.8499 17.6029 17.6238 17.6463 17.4055C17.6898 17.1873 17.7969 16.9868 17.9542 16.8295C18.1116 16.6722 18.312 16.565 18.5303 16.5216C18.7485 16.4782 18.9747 16.5005 19.1803 16.5856C19.3858 16.6708 19.5615 16.815 19.6851 17C19.8088 17.185 19.8747 17.4025 19.8747 17.625C19.8747 17.9234 19.7562 18.2095 19.5452 18.4205C19.3342 18.6315 19.0481 18.75 18.7497 18.75Z" fill="#130032"/>
</svg>
