<svg width="24" height="24" viewBox="0 0 24 24" fill="none" xmlns="http://www.w3.org/2000/svg">
<path d="M21.375 11.9981C21.3749 12.211 21.3144 12.4195 21.2006 12.5994C21.0868 12.7793 20.9242 12.9232 20.7318 13.0143L6.48184 19.7643C6.21273 19.8881 5.90567 19.9008 5.6273 19.7996C5.34892 19.6983 5.1217 19.4914 4.99494 19.2237C4.86818 18.956 4.85212 18.6491 4.95023 18.3696C5.04835 18.0901 5.25274 17.8606 5.51902 17.7309L17.625 11.9981L5.51902 6.26528C5.25274 6.13556 5.04835 5.90605 4.95023 5.62657C4.85212 5.34708 4.86818 5.04018 4.99494 4.77247C5.1217 4.50476 5.34892 4.29784 5.6273 4.19662C5.90567 4.09541 6.21273 4.10806 6.48184 4.23184L20.7318 10.9818C20.9242 11.073 21.0868 11.2169 21.2006 11.3968C21.3144 11.5767 21.3749 11.7852 21.375 11.9981Z" fill="#130032"/>
</svg>
