<svg width="24" height="24" viewBox="0 0 24 24" fill="none" xmlns="http://www.w3.org/2000/svg">
<path d="M20.25 4.125H3.75C3.25272 4.125 2.77581 4.32254 2.42417 4.67417C2.07254 5.02581 1.875 5.50272 1.875 6V18C1.875 18.4973 2.07254 18.9742 2.42417 19.3258C2.77581 19.6775 3.25272 19.875 3.75 19.875H20.25C20.7473 19.875 21.2242 19.6775 21.5758 19.3258C21.9275 18.9742 22.125 18.4973 22.125 18V6C22.125 5.50272 21.9275 5.02581 21.5758 4.67417C21.2242 4.32254 20.7473 4.125 20.25 4.125ZM10.125 13.125V10.875H13.875V13.125H10.125ZM13.875 15.375V17.625H10.125V15.375H13.875ZM4.125 10.875H7.875V13.125H4.125V10.875ZM10.125 8.625V6.375H13.875V8.625H10.125ZM16.125 10.875H19.875V13.125H16.125V10.875ZM19.875 8.625H16.125V6.375H19.875V8.625ZM7.875 6.375V8.625H4.125V6.375H7.875ZM4.125 15.375H7.875V17.625H4.125V15.375ZM16.125 17.625V15.375H19.875V17.625H16.125Z" fill="#130032"/>
</svg>
