<svg width="24" height="24" viewBox="0 0 24 24" fill="none" xmlns="http://www.w3.org/2000/svg">
<g clip-path="url(#clip0_7_19105)">
<path d="M8.67134 17.5767C8.77599 17.6813 8.859 17.8055 8.91564 17.9423C8.97227 18.079 9.00142 18.2255 9.00142 18.3735C9.00142 18.5215 8.97227 18.6681 8.91564 18.8048C8.859 18.9415 8.77599 19.0658 8.67134 19.1704C8.5667 19.2751 8.44246 19.3581 8.30573 19.4147C8.16901 19.4713 8.02246 19.5005 7.87447 19.5005C7.72647 19.5005 7.57993 19.4713 7.4432 19.4147C7.30647 19.3581 7.18224 19.2751 7.07759 19.1704L4.82759 16.9204C4.61625 16.7091 4.49752 16.4224 4.49752 16.1235C4.49752 15.8247 4.61625 15.538 4.82759 15.3267C5.03894 15.1153 5.32558 14.9966 5.62447 14.9966C5.92335 14.9966 6.21 15.1153 6.42134 15.3267L8.67134 17.5767ZM10.5004 11.2485C10.0554 11.2485 9.62038 11.3805 9.25037 11.6277C8.88036 11.875 8.59197 12.2264 8.42168 12.6375C8.25138 13.0486 8.20682 13.501 8.29364 13.9375C8.38046 14.374 8.59475 14.7749 8.90941 15.0895C9.22408 15.4042 9.625 15.6185 10.0615 15.7053C10.4979 15.7921 10.9503 15.7476 11.3614 15.5773C11.7726 15.407 12.124 15.1186 12.3712 14.7486C12.6184 14.3786 12.7504 13.9435 12.7504 13.4985C12.7504 12.9018 12.5134 12.3295 12.0914 11.9075C11.6694 11.4856 11.0971 11.2485 10.5004 11.2485ZM23.6713 5.66854C23.5011 5.83908 23.2806 5.95043 23.0422 5.98622C22.8039 6.022 22.5604 5.98031 22.3476 5.86729L17.0629 11.1548C17.3076 11.7136 17.4766 12.3025 17.5654 12.906C17.8007 14.5542 17.3592 16.0326 16.3213 17.0704C15.9012 17.4898 15.3992 17.8182 14.8467 18.0351C14.7774 18.0697 14.7194 18.1233 14.6797 18.1898C14.64 18.2563 14.6202 18.3327 14.6226 18.4101C14.5729 19.8735 14.0451 21.1495 13.0963 22.0982C12.0942 23.0957 10.7348 23.6235 9.20009 23.6235C8.86223 23.6229 8.52483 23.5985 8.19041 23.5504C6.36509 23.2898 4.55947 22.3457 3.10634 20.8926C1.65322 19.4395 0.709155 17.6339 0.44853 15.8085C0.16728 13.8632 0.68853 12.1204 1.90634 10.9026C2.85509 9.95385 4.13103 9.42604 5.59447 9.37354C5.67185 9.37594 5.7483 9.35611 5.81477 9.3164C5.88123 9.27669 5.93492 9.21876 5.96947 9.14948C6.18587 8.59814 6.51327 8.09715 6.93134 7.6776C7.96916 6.63979 9.44759 6.19823 11.0957 6.43354C11.6983 6.52263 12.2863 6.69161 12.8442 6.93604L18.1317 1.65135C18.0044 1.41322 17.967 1.13726 18.0264 0.873863C18.0857 0.610461 18.2378 0.377184 18.4549 0.216624C18.6719 0.056063 18.9395 -0.0210715 19.2087 -0.0006971C19.478 0.0196773 19.7309 0.136201 19.9213 0.327601L23.6713 4.0776C23.8823 4.28858 24.0008 4.57471 24.0008 4.87307C24.0008 5.17143 23.8823 5.45756 23.6713 5.66854ZM20.7192 4.31104L19.6879 3.27979L17.9067 5.06104L18.9379 6.09229L20.7192 4.31104ZM13.7526 10.2435C12.7063 9.19448 11.3807 8.62354 10.251 8.62354C9.56759 8.62354 8.95634 8.83073 8.52228 9.26573C8.32159 9.46968 8.1652 9.71288 8.06291 9.9801C7.86758 10.4573 7.53709 10.8671 7.11205 11.1591C6.68701 11.451 6.18594 11.6125 5.67041 11.6235C5.05447 11.6442 4.17697 11.811 3.49728 12.4917C2.79228 13.1967 2.50072 14.2607 2.67603 15.4917C2.86822 16.8389 3.58634 18.1926 4.69728 19.3035C5.80822 20.4145 7.16197 21.1326 8.50916 21.3248C9.73634 21.5001 10.8004 21.2085 11.5092 20.5035C12.1888 19.8239 12.3529 18.9464 12.3773 18.3304C12.3878 17.8148 12.5488 17.3134 12.8405 16.8881C13.1321 16.4627 13.5417 16.1318 14.0188 15.936C14.2854 15.8323 14.5276 15.6746 14.7304 15.4729C15.8845 14.3226 15.4382 11.9264 13.7554 10.2435H13.7526ZM15.8442 9.1926L17.3442 7.68604L16.3129 6.65479L14.8063 8.15479C14.9938 8.31135 15.172 8.47541 15.3463 8.64885C15.5207 8.82229 15.6838 9.00698 15.8442 9.1926Z" fill="#130032"/>
</g>
<defs>
<clipPath id="clip0_7_19105">
<rect width="24" height="24" fill="white"/>
</clipPath>
</defs>
</svg>
