<svg width="24" height="24" viewBox="0 0 24 24" fill="none" xmlns="http://www.w3.org/2000/svg">
<g clip-path="url(#clip0_7_19437)">
<path d="M18.75 8.25002C18.75 7.65667 18.5741 7.07665 18.2444 6.5833C17.9148 6.08996 17.4463 5.70544 16.8981 5.47838C16.3499 5.25131 15.7467 5.1919 15.1648 5.30766C14.5828 5.42341 14.0483 5.70914 13.6287 6.12869C13.2091 6.54825 12.9234 7.0828 12.8077 7.66474C12.6919 8.24669 12.7513 8.84989 12.9784 9.39807C13.2054 9.94624 13.59 10.4148 14.0833 10.7444C14.5767 11.0741 15.1567 11.25 15.75 11.25C16.5457 11.25 17.3087 10.9339 17.8713 10.3713C18.434 9.80873 18.75 9.04566 18.75 8.25002ZM15.75 9.00002C15.6017 9.00002 15.4567 8.95603 15.3333 8.87362C15.21 8.79121 15.1139 8.67407 15.0571 8.53703C15.0003 8.39998 14.9855 8.24918 15.0144 8.1037C15.0434 7.95821 15.1148 7.82457 15.2197 7.71969C15.3246 7.6148 15.4582 7.54337 15.6037 7.51443C15.7492 7.48549 15.9 7.50034 16.037 7.55711C16.1741 7.61387 16.2912 7.71 16.3736 7.83334C16.456 7.95667 16.5 8.10168 16.5 8.25002C16.5 8.44893 16.421 8.63969 16.2804 8.78034C16.1397 8.921 15.9489 9.00002 15.75 9.00002ZM16.9744 19.5263L19.9041 13.08C20.8895 12.2311 21.5917 11.1011 21.9165 9.84165C22.2412 8.58218 22.1729 7.25352 21.7208 6.03398C21.2687 4.81443 20.4543 3.76236 19.3871 3.01895C18.3198 2.27554 17.0507 1.87638 15.75 1.87502C15.6872 1.87469 15.6245 1.87971 15.5625 1.89002L2.69159 4.03595C2.2533 4.1079 1.85494 4.33355 1.56789 4.67248C1.28083 5.01142 1.12384 5.44148 1.12503 5.88564V10.6144C1.12272 11.0594 1.27921 11.4905 1.56636 11.8305C1.85351 12.1704 2.2525 12.3967 2.69159 12.4688L11.625 13.9528V18.75C11.6256 19.1931 11.783 19.6217 12.0694 19.9598C12.3558 20.2978 12.7527 20.5236 13.1897 20.5969C13.3603 21.5501 13.8603 22.4131 14.6024 23.0351C15.3446 23.6572 16.2817 23.9987 17.25 24H18.75C19.0484 24 19.3345 23.8815 19.5455 23.6705C19.7565 23.4595 19.875 23.1734 19.875 22.875C19.875 22.5766 19.7565 22.2905 19.5455 22.0795C19.3345 21.8685 19.0484 21.75 18.75 21.75H17.25C16.8819 21.75 16.522 21.6416 16.2151 21.4384C15.9081 21.2351 15.6678 20.9461 15.5241 20.6072C15.8371 20.5632 16.134 20.4411 16.3875 20.2522C16.641 20.0633 16.8428 19.8137 16.9744 19.5263ZM3.37503 6.20345L15.8372 4.12502C16.9312 4.12502 17.9804 4.55961 18.754 5.3332C19.5276 6.10679 19.9622 7.156 19.9622 8.25002C19.9622 9.34403 19.5276 10.3932 18.754 11.1668C17.9804 11.9404 16.9312 12.375 15.8372 12.375L3.37503 10.2966V6.20345ZM15.5625 14.61C15.6245 14.6203 15.6872 14.6253 15.75 14.625C16.0907 14.6247 16.4309 14.5971 16.7672 14.5425L15.0253 18.375H13.875V14.3278L15.5625 14.61Z" fill="#130032"/>
</g>
<defs>
<clipPath id="clip0_7_19437">
<rect width="24" height="24" fill="white"/>
</clipPath>
</defs>
</svg>
