<svg width="24" height="24" viewBox="0 0 24 24" fill="none" xmlns="http://www.w3.org/2000/svg">
<path d="M21.3658 14.3175L17.6439 15.6713L14.2933 14.3306C14.0249 14.2232 13.7255 14.2232 13.4571 14.3306L10.1252 15.6637L6.79331 14.3306C6.53653 14.2277 6.25083 14.2231 5.99081 14.3175L1.86581 15.8175C1.72694 15.868 1.59937 15.9453 1.49039 16.0451C1.3814 16.1449 1.29314 16.2651 1.23063 16.399C1.10439 16.6694 1.09075 16.9789 1.19269 17.2594C1.29463 17.5398 1.50381 17.7683 1.77422 17.8946C2.04462 18.0208 2.3541 18.0344 2.63456 17.9325L3.39581 17.6559C3.49777 18.6741 3.97402 19.6182 4.73231 20.3053C5.49059 20.9924 6.47692 21.3736 7.50019 21.375H16.5002C17.5938 21.3738 18.6423 20.9388 19.4156 20.1654C20.189 19.3921 20.6239 18.3436 20.6252 17.25V16.9809L22.1346 16.4325C22.2734 16.382 22.401 16.3047 22.51 16.2049C22.619 16.1051 22.7072 15.9849 22.7697 15.851C22.8323 15.7171 22.8678 15.5722 22.8743 15.4246C22.8808 15.277 22.8582 15.1295 22.8077 14.9906C22.7572 14.8518 22.6799 14.7242 22.5801 14.6152C22.4803 14.5062 22.3601 14.4179 22.2262 14.3554C22.0923 14.2929 21.9474 14.2574 21.7998 14.2509C21.6521 14.2444 21.5047 14.267 21.3658 14.3175ZM16.5002 19.125H7.50019C7.00291 19.125 6.526 18.9275 6.17436 18.5758C5.82273 18.2242 5.62519 17.7473 5.62519 17.25V16.845L6.35644 16.5787L9.70706 17.9194C9.97546 18.0268 10.2749 18.0268 10.5433 17.9194L13.8752 16.5863L17.2071 17.9194C17.4639 18.0223 17.7495 18.0269 18.0096 17.9325L18.2805 17.8331C18.1577 18.2085 17.9194 18.5356 17.5997 18.7676C17.28 18.9995 16.8952 19.1246 16.5002 19.125ZM1.12519 12C1.12519 11.7016 1.24372 11.4155 1.45469 11.2045C1.66567 10.9935 1.95182 10.875 2.25019 10.875H21.7502C22.0486 10.875 22.3347 10.9935 22.5457 11.2045C22.7567 11.4155 22.8752 11.7016 22.8752 12C22.8752 12.2984 22.7567 12.5845 22.5457 12.7955C22.3347 13.0065 22.0486 13.125 21.7502 13.125H2.25019C1.95182 13.125 1.66567 13.0065 1.45469 12.7955C1.24372 12.5845 1.12519 12.2984 1.12519 12ZM4.51894 9.75H19.4814C19.7804 9.74976 20.0751 9.6793 20.3418 9.54431C20.6085 9.40932 20.8398 9.21356 21.0171 8.97281C21.1902 8.73823 21.3049 8.46581 21.3519 8.17808C21.3988 7.89034 21.3766 7.59557 21.2871 7.31812C20.2614 4.11375 16.443 1.875 12.0002 1.875C7.55738 1.875 3.73988 4.11281 2.71331 7.31719C2.62352 7.5946 2.60118 7.88942 2.64814 8.17719C2.69509 8.46497 2.81 8.7374 2.98331 8.97187C3.16023 9.21301 3.39143 9.40911 3.65822 9.54429C3.925 9.67948 4.21986 9.74995 4.51894 9.75ZM12.0002 4.125C15.1596 4.125 17.9636 5.51719 18.9377 7.5H5.06269C6.03769 5.51719 8.84175 4.125 12.0002 4.125Z" fill="#130032"/>
</svg>
