<svg width="24" height="24" viewBox="0 0 24 24" fill="none" xmlns="http://www.w3.org/2000/svg">
<g clip-path="url(#clip0_7_19100)">
<path d="M23.4544 9.85951L17.5041 3.86701C15.7446 2.11114 13.3603 1.125 10.8746 1.125C8.38879 1.125 6.00455 2.11114 4.24503 3.86701L4.23284 3.88014L2.94097 5.21326C2.73335 5.42759 2.61938 5.71562 2.62413 6.01398C2.62888 6.31233 2.75195 6.59659 2.96628 6.8042C3.18061 7.01182 3.46863 7.12579 3.76699 7.12104C4.06535 7.11629 4.3496 6.99322 4.55722 6.77889L5.84253 5.45233C6.26804 5.02694 6.74594 4.65742 7.26472 4.35264L11.1563 8.24983L2.42347 16.9836C2.24928 17.1577 2.1111 17.3644 2.01682 17.592C1.92255 17.8195 1.87402 18.0634 1.87402 18.3097C1.87402 18.556 1.92255 18.7998 2.01682 19.0274C2.1111 19.2549 2.24928 19.4616 2.42347 19.6358L4.36315 21.5755C4.71477 21.927 5.1916 22.1244 5.68878 22.1244C6.18596 22.1244 6.66279 21.927 7.0144 21.5755L15.75 12.8436L15.8916 12.9851L18.1088 15.2033C18.2829 15.3775 18.4896 15.5156 18.7172 15.6099C18.9447 15.7042 19.1886 15.7527 19.4349 15.7527C19.6812 15.7527 19.925 15.7042 20.1526 15.6099C20.3801 15.5156 20.5868 15.3775 20.761 15.2033L23.4507 12.5126C23.6252 12.3387 23.7638 12.1322 23.8585 11.9047C23.9532 11.6772 24.0021 11.4333 24.0024 11.1869C24.0028 10.9405 23.9546 10.6964 23.8605 10.4686C23.7665 10.2409 23.6285 10.0339 23.4544 9.85951ZM5.68878 19.7192L4.28253 18.313L10.125 12.4686L11.5313 13.8748L5.68878 19.7192ZM13.125 12.2811L11.7188 10.8748L13.5478 9.04576C13.6527 8.94125 13.7359 8.81706 13.7927 8.68031C13.8495 8.54356 13.8787 8.39696 13.8787 8.24889C13.8787 8.10082 13.8495 7.95421 13.7927 7.81747C13.7359 7.68072 13.6527 7.55653 13.5478 7.45201L9.58503 3.49108C10.7196 3.28141 11.8881 3.35062 12.99 3.69277C14.0919 4.03491 15.0941 4.63972 15.9103 5.45514L18.8578 8.4242L16.6875 10.5936L16.546 10.452C16.4414 10.3471 16.3173 10.2639 16.1805 10.2071C16.0438 10.1504 15.8972 10.1211 15.7491 10.1211C15.601 10.1211 15.4544 10.1504 15.3177 10.2071C15.1809 10.2639 15.0567 10.3471 14.9522 10.452L13.125 12.2811ZM19.4363 13.3414L18.2813 12.1873L20.446 10.0226L21.5991 11.1842L19.4363 13.3414Z" fill="#130032"/>
</g>
<defs>
<clipPath id="clip0_7_19100">
<rect width="24" height="24" fill="white"/>
</clipPath>
</defs>
</svg>
