<svg width="24" height="24" viewBox="0 0 24 24" fill="none" xmlns="http://www.w3.org/2000/svg">
<path d="M21.375 14.625V18C21.375 19.2984 21.2222 20.4862 20.9457 21.345C20.9023 21.4879 20.8309 21.6207 20.7356 21.7357C20.6403 21.8507 20.5231 21.9456 20.3908 22.0149C20.2585 22.0841 20.1137 22.1263 19.9649 22.139C19.8161 22.1517 19.6663 22.1347 19.5242 22.0889C19.382 22.0431 19.2504 21.9694 19.137 21.8722C19.0236 21.7751 18.9308 21.6563 18.8638 21.5228C18.7968 21.3893 18.757 21.2439 18.7468 21.0949C18.7366 20.9459 18.7562 20.7963 18.8044 20.655C19.005 20.0316 19.125 19.0387 19.125 18V14.625C19.125 14.4261 19.046 14.2353 18.9054 14.0947C18.7647 13.954 18.574 13.875 18.375 13.875C18.1761 13.875 17.9854 13.954 17.8447 14.0947C17.7041 14.2353 17.625 14.4261 17.625 14.625V15C17.625 15.2984 17.5065 15.5845 17.2955 15.7955C17.0846 16.0065 16.7984 16.125 16.5 16.125C16.2017 16.125 15.9155 16.0065 15.7045 15.7955C15.4936 15.5845 15.375 15.2984 15.375 15V13.125C15.375 12.9261 15.296 12.7353 15.1554 12.5947C15.0147 12.454 14.824 12.375 14.625 12.375C14.4261 12.375 14.2354 12.454 14.0947 12.5947C13.9541 12.7353 13.875 12.9261 13.875 13.125V14.25C13.875 14.5484 13.7565 14.8345 13.5455 15.0455C13.3346 15.2565 13.0484 15.375 12.75 15.375C12.4517 15.375 12.1655 15.2565 11.9545 15.0455C11.7436 14.8345 11.625 14.5484 11.625 14.25V7.875C11.625 7.67609 11.546 7.48532 11.4054 7.34467C11.2647 7.20402 11.074 7.125 10.875 7.125C10.6761 7.125 10.4854 7.20402 10.3447 7.34467C10.2041 7.48532 10.125 7.67609 10.125 7.875V18C10.1248 18.2442 10.045 18.4817 9.89784 18.6767C9.75067 18.8716 9.54406 19.0133 9.30923 19.0804C9.0744 19.1475 8.82411 19.1364 8.59616 19.0487C8.36821 18.9611 8.17498 18.8016 8.04567 18.5944L6.29442 15.7819L6.27473 15.75C6.17627 15.5768 6.01304 15.4499 5.82096 15.397C5.62889 15.3442 5.42369 15.3698 5.25051 15.4683C5.07733 15.5667 4.95036 15.73 4.89753 15.922C4.84469 16.1141 4.87033 16.3193 4.96879 16.4925L7.33785 20.4188C7.49189 20.6744 7.53807 20.9807 7.46625 21.2703C7.39443 21.56 7.21049 21.8092 6.95488 21.9633C6.69928 22.1173 6.39296 22.1635 6.1033 22.0917C5.81365 22.0199 5.56439 21.8359 5.41035 21.5803L3.03754 17.6428L3.02629 17.6241C2.65404 16.9796 2.5346 16.2199 2.69118 15.4923C2.84775 14.7648 3.26916 14.1214 3.87355 13.6871C4.47794 13.2529 5.22215 13.0588 5.96163 13.1425C6.70112 13.2263 7.38308 13.5819 7.87504 14.1403V7.875C7.87504 7.07935 8.19111 6.31629 8.75372 5.75368C9.31633 5.19107 10.0794 4.875 10.875 4.875C11.6707 4.875 12.4338 5.19107 12.9964 5.75368C13.559 6.31629 13.875 7.07935 13.875 7.875V10.2188C14.5454 10.0457 15.255 10.1099 15.8835 10.4004C16.5119 10.6908 17.0206 11.1898 17.3232 11.8125C17.7772 11.6425 18.2658 11.5851 18.7469 11.6452C19.228 11.7053 19.6874 11.8811 20.0857 12.1576C20.484 12.434 20.8094 12.8029 21.0339 13.2327C21.2585 13.6624 21.3755 14.1401 21.375 14.625ZM5.25004 9C5.54841 9 5.83456 8.88147 6.04554 8.6705C6.25651 8.45952 6.37504 8.17337 6.37504 7.875C6.37504 6.68153 6.84915 5.53693 7.69306 4.69302C8.53697 3.84911 9.68157 3.375 10.875 3.375C12.0685 3.375 13.2131 3.84911 14.057 4.69302C14.9009 5.53693 15.375 6.68153 15.375 7.875C15.375 8.17337 15.4936 8.45952 15.7045 8.6705C15.9155 8.88147 16.2017 9 16.5 9C16.7984 9 17.0846 8.88147 17.2955 8.6705C17.5065 8.45952 17.625 8.17337 17.625 7.875C17.625 6.08479 16.9139 4.3679 15.648 3.10203C14.3821 1.83616 12.6653 1.125 10.875 1.125C9.08483 1.125 7.36794 1.83616 6.10207 3.10203C4.8362 4.3679 4.12504 6.08479 4.12504 7.875C4.12504 8.17337 4.24357 8.45952 4.45455 8.6705C4.66552 8.88147 4.95167 9 5.25004 9Z" fill="#130032"/>
</svg>
