<svg width="24" height="24" viewBox="0 0 24 24" fill="none" xmlns="http://www.w3.org/2000/svg">
<path d="M17.6251 4.124C17.3722 4.1235 17.1202 4.155 16.8751 4.21775V4.124C16.8758 3.44488 16.646 2.78563 16.2233 2.25406C15.8007 1.72248 15.2102 1.35004 14.5484 1.19762C13.8866 1.04521 13.1927 1.12185 12.5801 1.41501C11.9675 1.70817 11.4725 2.2005 11.176 2.8115C10.722 2.64168 10.2336 2.58442 9.75261 2.64461C9.27162 2.7048 8.81237 2.88065 8.41419 3.1571C8.016 3.43355 7.69074 3.80238 7.46624 4.232C7.24174 4.66162 7.12469 5.13925 7.12511 5.624V10.3893C6.63657 9.83198 5.95901 9.47522 5.22305 9.38779C4.48708 9.30036 3.7448 9.48845 3.13928 9.91581C2.53376 10.3432 2.10787 10.9795 1.94368 11.7023C1.7795 12.425 1.88866 13.1829 2.25011 13.8299C5.23323 20.1177 7.06417 22.874 12.0001 22.874C14.2868 22.8715 16.4792 21.962 18.0962 20.3451C19.7131 18.7281 20.6226 16.5357 20.6251 14.249V7.124C20.6251 6.32835 20.309 5.56528 19.7464 5.00268C19.1838 4.44007 18.4208 4.124 17.6251 4.124ZM18.3751 14.249C18.3731 15.9391 17.7008 17.5595 16.5057 18.7546C15.3106 19.9497 13.6903 20.622 12.0001 20.624C8.64105 20.624 7.3398 19.3115 4.26761 12.8296C4.25448 12.8024 4.24042 12.7752 4.22542 12.749C4.13213 12.5772 4.10961 12.3758 4.16265 12.1876C4.21569 11.9994 4.34011 11.8394 4.50939 11.7417C4.67867 11.6439 4.87944 11.6161 5.06893 11.6641C5.25842 11.7122 5.42165 11.8323 5.52386 11.999L5.54355 12.0318L7.2948 14.8443C7.42397 15.052 7.61732 15.212 7.84555 15.2999C8.07378 15.3879 8.32447 15.399 8.55962 15.3318C8.79478 15.2645 9.00159 15.1224 9.14875 14.927C9.2959 14.7316 9.37536 14.4936 9.37511 14.249V5.624C9.37511 5.42508 9.45413 5.23432 9.59478 5.09367C9.73543 4.95301 9.9262 4.874 10.1251 4.874C10.324 4.874 10.5148 4.95301 10.6554 5.09367C10.7961 5.23432 10.8751 5.42508 10.8751 5.624V11.249C10.8751 11.5474 10.9936 11.8335 11.2046 12.0445C11.4156 12.2555 11.7017 12.374 12.0001 12.374C12.2985 12.374 12.5846 12.2555 12.7956 12.0445C13.0066 11.8335 13.1251 11.5474 13.1251 11.249V4.124C13.1251 3.92508 13.2041 3.73432 13.3448 3.59367C13.4854 3.45301 13.6762 3.374 13.8751 3.374C14.074 3.374 14.2648 3.45301 14.4054 3.59367C14.5461 3.73432 14.6251 3.92508 14.6251 4.124V11.249C14.6251 11.5474 14.7436 11.8335 14.9546 12.0445C15.1656 12.2555 15.4517 12.374 15.7501 12.374C16.0485 12.374 16.3346 12.2555 16.5456 12.0445C16.7566 11.8335 16.8751 11.5474 16.8751 11.249V7.124C16.8751 6.92508 16.9541 6.73432 17.0948 6.59367C17.2354 6.45301 17.4262 6.374 17.6251 6.374C17.824 6.374 18.0148 6.45301 18.1554 6.59367C18.2961 6.73432 18.3751 6.92508 18.3751 7.124V14.249Z" fill="#130032"/>
</svg>
