<svg width="24" height="24" viewBox="0 0 24 24" fill="none" xmlns="http://www.w3.org/2000/svg">
<path d="M17.625 7.874C17.372 7.8735 17.12 7.905 16.875 7.96775V5.624C16.8754 5.13925 16.7584 4.66162 16.5339 4.232C16.3094 3.80238 15.9841 3.43355 15.5859 3.1571C15.1877 2.88065 14.7285 2.7048 14.2475 2.64461C13.7665 2.58442 13.2781 2.64168 12.8241 2.8115C12.5276 2.2005 12.0326 1.70817 11.42 1.41501C10.8074 1.12185 10.1135 1.04521 9.45172 1.19762C8.78993 1.35004 8.19942 1.72248 7.77677 2.25406C7.35413 2.78563 7.12434 3.44488 7.125 4.124V4.21775C6.68156 4.10325 6.2178 4.0918 5.76925 4.18428C5.3207 4.27675 4.89928 4.47069 4.53728 4.75124C4.17529 5.03178 3.88233 5.39149 3.68086 5.80277C3.4794 6.21406 3.37477 6.66602 3.375 7.124V14.249C3.375 16.5365 4.2837 18.7303 5.9012 20.3478C7.51871 21.9653 9.71251 22.874 12 22.874C14.2875 22.874 16.4813 21.9653 18.0988 20.3478C19.7163 18.7303 20.625 16.5365 20.625 14.249V10.874C20.625 10.0783 20.3089 9.31528 19.7463 8.75268C19.1837 8.19007 18.4206 7.874 17.625 7.874ZM18.375 14.249C18.375 15.9398 17.7034 17.5613 16.5078 18.7568C15.3123 19.9523 13.6908 20.624 12 20.624C10.3092 20.624 8.68774 19.9523 7.49219 18.7568C6.29665 17.5613 5.625 15.9398 5.625 14.249V7.124C5.625 6.92508 5.70402 6.73432 5.84467 6.59367C5.98532 6.45301 6.17609 6.374 6.375 6.374C6.57391 6.374 6.76468 6.45301 6.90533 6.59367C7.04598 6.73432 7.125 6.92508 7.125 7.124V10.874C7.125 11.1724 7.24353 11.4585 7.4545 11.6695C7.66548 11.8805 7.95163 11.999 8.25 11.999C8.54837 11.999 8.83452 11.8805 9.0455 11.6695C9.25647 11.4585 9.375 11.1724 9.375 10.874V4.124C9.375 3.92508 9.45402 3.73432 9.59467 3.59367C9.73532 3.45301 9.92609 3.374 10.125 3.374C10.3239 3.374 10.5147 3.45301 10.6553 3.59367C10.796 3.73432 10.875 3.92508 10.875 4.124V10.124C10.875 10.4224 10.9935 10.7085 11.2045 10.9195C11.4155 11.1305 11.7016 11.249 12 11.249C12.2984 11.249 12.5845 11.1305 12.7955 10.9195C13.0065 10.7085 13.125 10.4224 13.125 10.124V5.624C13.125 5.42508 13.204 5.23432 13.3447 5.09367C13.4853 4.95301 13.6761 4.874 13.875 4.874C14.0739 4.874 14.2647 4.95301 14.4053 5.09367C14.546 5.23432 14.625 5.42508 14.625 5.624V11.7552C13.558 12.0099 12.6077 12.6163 11.9274 13.4769C11.2472 14.3375 10.8764 15.402 10.875 16.499C10.875 16.7974 10.9935 17.0835 11.2045 17.2945C11.4155 17.5055 11.7016 17.624 12 17.624C12.2984 17.624 12.5845 17.5055 12.7955 17.2945C13.0065 17.0835 13.125 16.7974 13.125 16.499C13.125 15.8028 13.4016 15.1351 13.8938 14.6428C14.3861 14.1506 15.0538 13.874 15.75 13.874C16.0484 13.874 16.3345 13.7555 16.5455 13.5445C16.7565 13.3335 16.875 13.0474 16.875 12.749V10.874C16.875 10.6751 16.954 10.4843 17.0947 10.3437C17.2353 10.203 17.4261 10.124 17.625 10.124C17.8239 10.124 18.0147 10.203 18.1553 10.3437C18.296 10.4843 18.375 10.6751 18.375 10.874V14.249Z" fill="#130032"/>
</svg>
