<svg width="24" height="24" viewBox="0 0 24 24" fill="none" xmlns="http://www.w3.org/2000/svg">
<path d="M17.625 7.12326C17.2663 7.12212 16.9103 7.18563 16.5741 7.31076C16.3773 6.90558 16.0919 6.54991 15.7389 6.27012C15.386 5.99033 14.9745 5.79361 14.5352 5.69455C14.0958 5.59549 13.6397 5.59664 13.2009 5.6979C12.762 5.79916 12.3516 5.99795 12 6.27951C11.5587 5.92616 11.0265 5.70471 10.4647 5.64068C9.90303 5.57665 9.33465 5.67265 8.82512 5.91762C8.31559 6.16259 7.88564 6.54655 7.58485 7.02525C7.28405 7.50394 7.12465 8.0579 7.125 8.62326V10.1233H6.375C5.57935 10.1233 4.81629 10.4393 4.25368 11.0019C3.69107 11.5645 3.375 12.3276 3.375 13.1233V14.2483C3.375 16.5357 4.2837 18.7295 5.9012 20.3471C7.51871 21.9646 9.71251 22.8733 12 22.8733C14.2875 22.8733 16.4813 21.9646 18.0988 20.3471C19.7163 18.7295 20.625 16.5357 20.625 14.2483V10.1233C20.625 9.32761 20.3089 8.56454 19.7463 8.00193C19.1837 7.43933 18.4206 7.12326 17.625 7.12326ZM18.375 14.2483C18.375 15.939 17.7034 17.5605 16.5078 18.7561C15.3123 19.9516 13.6908 20.6233 12 20.6233C10.3092 20.6233 8.68774 19.9516 7.49219 18.7561C6.29665 17.5605 5.625 15.939 5.625 14.2483V13.1233C5.625 12.9243 5.70402 12.7336 5.84467 12.5929C5.98532 12.4523 6.17609 12.3733 6.375 12.3733H7.125V14.2483C7.125 14.5466 7.24353 14.8328 7.4545 15.0437C7.66548 15.2547 7.95163 15.3733 8.25 15.3733C8.54837 15.3733 8.83452 15.2547 9.0455 15.0437C9.25647 14.8328 9.375 14.5466 9.375 14.2483V8.62326C9.375 8.42434 9.45402 8.23358 9.59467 8.09293C9.73532 7.95227 9.92609 7.87326 10.125 7.87326C10.3239 7.87326 10.5147 7.95227 10.6553 8.09293C10.796 8.23358 10.875 8.42434 10.875 8.62326V11.2483C10.875 11.5466 10.9935 11.8328 11.2045 12.0437C11.4155 12.2547 11.7016 12.3733 12 12.3733C12.2984 12.3733 12.5845 12.2547 12.7955 12.0437C13.0065 11.8328 13.125 11.5466 13.125 11.2483V8.62326C13.125 8.42434 13.204 8.23358 13.3447 8.09293C13.4853 7.95227 13.6761 7.87326 13.875 7.87326C14.0739 7.87326 14.2647 7.95227 14.4053 8.09293C14.546 8.23358 14.625 8.42434 14.625 8.62326V11.2483C14.625 11.5466 14.7435 11.8328 14.9545 12.0437C15.1655 12.2547 15.4516 12.3733 15.75 12.3733C16.0484 12.3733 16.3345 12.2547 16.5455 12.0437C16.7565 11.8328 16.875 11.5466 16.875 11.2483V10.1233C16.875 9.92434 16.954 9.73358 17.0947 9.59293C17.2353 9.45227 17.4261 9.37326 17.625 9.37326C17.8239 9.37326 18.0147 9.45227 18.1553 9.59293C18.296 9.73358 18.375 9.92434 18.375 10.1233V14.2483Z" fill="#130032"/>
</svg>
