<svg width="24" height="24" viewBox="0 0 24 24" fill="none" xmlns="http://www.w3.org/2000/svg">
<path d="M18.75 7.12611H17.625V6.00111C17.6244 5.34985 17.4354 4.71268 17.0808 4.16643C16.7262 3.62019 16.2211 3.18822 15.6264 2.92262C15.0318 2.65701 14.373 2.56912 13.7296 2.66955C13.0861 2.76998 12.4854 3.05444 12 3.48861C11.5714 3.10513 11.0519 2.83756 10.4908 2.71127C9.92966 2.58499 9.3456 2.60418 8.79401 2.76704C8.24241 2.9299 7.74159 3.23101 7.33907 3.64181C6.93654 4.0526 6.64567 4.55944 6.49406 5.11423C5.98219 4.91126 5.42843 4.83661 4.88108 4.8968C4.33373 4.95699 3.80943 5.15019 3.35389 5.45955C2.89836 5.76891 2.52544 6.18503 2.26766 6.67161C2.00988 7.1582 1.87508 7.70046 1.875 8.25111V12.0011C1.875 14.6864 2.94174 17.2618 4.84054 19.1606C6.73935 21.0594 9.31468 22.1261 12 22.1261C14.6853 22.1261 17.2607 21.0594 19.1595 19.1606C21.0583 17.2618 22.125 14.6864 22.125 12.0011V10.5011C22.125 9.606 21.7694 8.74756 21.1365 8.11462C20.5035 7.48169 19.6451 7.12611 18.75 7.12611ZM13.125 6.00111C13.125 5.70274 13.2435 5.41659 13.4545 5.20561C13.6655 4.99463 13.9516 4.87611 14.25 4.87611C14.5484 4.87611 14.8345 4.99463 15.0455 5.20561C15.2565 5.41659 15.375 5.70274 15.375 6.00111V7.12611H13.125V6.00111ZM8.625 6.00111C8.625 5.70274 8.74353 5.41659 8.9545 5.20561C9.16548 4.99463 9.45163 4.87611 9.75 4.87611C10.0484 4.87611 10.3345 4.99463 10.5455 5.20561C10.7565 5.41659 10.875 5.70274 10.875 6.00111V9.75111C10.875 10.0495 10.7565 10.3356 10.5455 10.5466C10.3345 10.7576 10.0484 10.8761 9.75 10.8761C9.45163 10.8761 9.16548 10.7576 8.9545 10.5466C8.74353 10.3356 8.625 10.0495 8.625 9.75111V6.00111ZM4.125 8.25111C4.125 7.95274 4.24353 7.66659 4.4545 7.45561C4.66548 7.24463 4.95163 7.12611 5.25 7.12611C5.54837 7.12611 5.83452 7.24463 6.0455 7.45561C6.25647 7.66659 6.375 7.95274 6.375 8.25111V9.75111C6.375 10.0495 6.25647 10.3356 6.0455 10.5466C5.83452 10.7576 5.54837 10.8761 5.25 10.8761C4.95163 10.8761 4.66548 10.7576 4.4545 10.5466C4.24353 10.3356 4.125 10.0495 4.125 9.75111V8.25111ZM19.875 12.0011C19.8761 14.0079 19.111 15.9394 17.736 17.4011C16.3609 18.8628 14.4798 19.7444 12.4766 19.8659C10.4735 19.9874 8.49959 19.3395 6.95803 18.0547C5.41648 16.7698 4.42359 14.9449 4.18219 12.9527C4.74678 13.1412 5.35125 13.1768 5.93405 13.0557C6.51685 12.9347 7.05717 12.6614 7.5 12.2636C8.05202 12.7599 8.75267 13.0597 9.49282 13.1163C10.233 13.173 10.9711 12.9833 11.5922 12.5767C11.7651 12.7994 11.9651 12.9997 12.1875 13.173C11.3426 14.075 10.8732 15.2652 10.875 16.5011C10.875 16.7995 10.9935 17.0856 11.2045 17.2966C11.4155 17.5076 11.7016 17.6261 12 17.6261C12.2984 17.6261 12.5845 17.5076 12.7955 17.2966C13.0065 17.0856 13.125 16.7995 13.125 16.5011C13.125 15.8049 13.4016 15.1372 13.8938 14.645C14.3861 14.1527 15.0538 13.8761 15.75 13.8761C16.0484 13.8761 16.3345 13.7576 16.5455 13.5466C16.7565 13.3356 16.875 13.0495 16.875 12.7511C16.875 12.4527 16.7565 12.1666 16.5455 11.9556C16.3345 11.7446 16.0484 11.6261 15.75 11.6261H14.25C13.9516 11.6261 13.6655 11.5076 13.4545 11.2966C13.2435 11.0856 13.125 10.7995 13.125 10.5011V9.37611H18.75C19.0484 9.37611 19.3345 9.49463 19.5455 9.70561C19.7565 9.91659 19.875 10.2027 19.875 10.5011V12.0011Z" fill="#130032"/>
</svg>
