<svg width="24" height="24" viewBox="0 0 24 24" fill="none" xmlns="http://www.w3.org/2000/svg">
<path d="M18.3752 7.875C18.0162 7.87393 17.6599 7.93744 17.3234 8.0625C17.0208 7.43976 16.5121 6.94085 15.8837 6.65036C15.2552 6.35988 14.5456 6.29572 13.8752 6.46875V4.125C13.8752 3.32935 13.5592 2.56629 12.9965 2.00368C12.4339 1.44107 11.6709 1.125 10.8752 1.125C10.0796 1.125 9.31651 1.44107 8.75391 2.00368C8.1913 2.56629 7.87523 3.32935 7.87523 4.125V10.3903C7.38442 9.82753 6.70136 9.46802 5.95959 9.38207C5.21781 9.29611 4.47065 9.48989 3.86414 9.92552C3.25764 10.3611 2.8354 11.0073 2.67997 11.7377C2.52454 12.4681 2.64709 13.2302 3.02366 13.875L3.46241 14.6475C6.66679 20.295 8.13023 22.875 12.7502 22.875C15.037 22.8725 17.2293 21.963 18.8463 20.3461C20.4632 18.7291 21.3727 16.5367 21.3752 14.25V10.875C21.3752 10.0794 21.0592 9.31629 20.4965 8.75368C19.9339 8.19107 19.1709 7.875 18.3752 7.875ZM19.1252 14.25C19.1232 15.9401 18.451 17.5605 17.2558 18.7556C16.0607 19.9507 14.4404 20.623 12.7502 20.625C9.56273 20.625 8.67304 19.2703 5.41898 13.5328L4.97929 12.7566C4.9788 12.7544 4.9788 12.7522 4.97929 12.75C4.87983 12.5777 4.8529 12.3729 4.90441 12.1808C4.95593 11.9886 5.08167 11.8248 5.25398 11.7253C5.42628 11.6259 5.63104 11.5989 5.82321 11.6504C6.01538 11.702 6.17921 11.8277 6.27866 12C6.28429 12.0112 6.29085 12.0216 6.29741 12.0328L8.04866 14.8453C8.17854 15.0513 8.37173 15.2095 8.59922 15.2963C8.82671 15.3831 9.07621 15.3937 9.31026 15.3266C9.54432 15.2595 9.75028 15.1183 9.89723 14.9242C10.0442 14.73 10.1242 14.4935 10.1252 14.25V4.125C10.1252 3.92609 10.2042 3.73532 10.3449 3.59467C10.4855 3.45402 10.6763 3.375 10.8752 3.375C11.0741 3.375 11.2649 3.45402 11.4056 3.59467C11.5462 3.73532 11.6252 3.92609 11.6252 4.125V10.5C11.6252 10.7984 11.7438 11.0845 11.9547 11.2955C12.1657 11.5065 12.4519 11.625 12.7502 11.625C13.0486 11.625 13.3347 11.5065 13.5457 11.2955C13.7567 11.0845 13.8752 10.7984 13.8752 10.5V9.375C13.8752 9.17609 13.9542 8.98532 14.0949 8.84467C14.2355 8.70402 14.4263 8.625 14.6252 8.625C14.8241 8.625 15.0149 8.70402 15.1556 8.84467C15.2962 8.98532 15.3752 9.17609 15.3752 9.375V11.25C15.3752 11.5484 15.4938 11.8345 15.7047 12.0455C15.9157 12.2565 16.2019 12.375 16.5002 12.375C16.7986 12.375 17.0847 12.2565 17.2957 12.0455C17.5067 11.8345 17.6252 11.5484 17.6252 11.25V10.875C17.6252 10.6761 17.7042 10.4853 17.8449 10.3447C17.9855 10.204 18.1763 10.125 18.3752 10.125C18.5741 10.125 18.7649 10.204 18.9056 10.3447C19.0462 10.4853 19.1252 10.6761 19.1252 10.875V14.25Z" fill="#130032"/>
</svg>
