<svg width="24" height="24" viewBox="0 0 24 24" fill="none" xmlns="http://www.w3.org/2000/svg">
<path d="M21.8212 12.927C21.4972 12.6788 21.1204 12.5084 20.72 12.4291C20.3197 12.3498 19.9064 12.3636 19.5122 12.4695L16.125 13.2439C16.125 13.2045 16.125 13.1651 16.125 13.1257C16.125 12.3301 15.8089 11.567 15.2463 11.0044C14.6837 10.4418 13.9206 10.1257 13.125 10.1257H8.43187C7.98858 10.1244 7.54944 10.2111 7.13988 10.3807C6.73033 10.5503 6.3585 10.7995 6.04594 11.1139L4.03125 13.1257H1.875C1.37772 13.1257 0.900805 13.3233 0.549175 13.6749C0.197544 14.0265 0 14.5035 0 15.0007L0 18.7507C0 19.248 0.197544 19.7249 0.549175 20.0766C0.900805 20.4282 1.37772 20.6257 1.875 20.6257H11.25C11.342 20.6258 11.4336 20.6144 11.5228 20.592L17.5228 19.092C17.5802 19.0779 17.6363 19.0591 17.6906 19.0357L21.33 17.4851C21.3516 17.4767 21.3722 17.4673 21.3928 17.457C21.7998 17.2534 22.1483 16.9495 22.4055 16.5741C22.6628 16.1986 22.8202 15.7639 22.863 15.3108C22.9059 14.8577 22.8328 14.4011 22.6505 13.9841C22.4682 13.5671 22.1829 13.2033 21.8212 12.927ZM2.25 15.3757H3.375V18.3757H2.25V15.3757ZM20.4075 15.4329L16.8909 16.9329L11.1112 18.3757H5.625V14.7195L7.63687 12.7076C7.74087 12.6025 7.86468 12.519 8.00114 12.4621C8.1376 12.4051 8.284 12.3757 8.43187 12.3757H13.125C13.3239 12.3757 13.5147 12.4547 13.6553 12.5954C13.796 12.7361 13.875 12.9268 13.875 13.1257C13.875 13.3246 13.796 13.5154 13.6553 13.6561C13.5147 13.7967 13.3239 13.8757 13.125 13.8757H10.5C10.2016 13.8757 9.91548 13.9943 9.7045 14.2052C9.49353 14.4162 9.375 14.7024 9.375 15.0007C9.375 15.2991 9.49353 15.5852 9.7045 15.7962C9.91548 16.0072 10.2016 16.1257 10.5 16.1257H13.5C13.5848 16.1257 13.6694 16.1163 13.7522 16.0976L20.0334 14.6529L20.0775 14.6417C20.1415 14.6242 20.2086 14.6218 20.2737 14.6345C20.3388 14.6472 20.4001 14.6748 20.4528 14.7151C20.5055 14.7554 20.5482 14.8072 20.5776 14.8667C20.6069 14.9262 20.6222 14.9916 20.6222 15.0579C20.6227 15.1338 20.6032 15.2085 20.5655 15.2744C20.5277 15.3403 20.4732 15.395 20.4075 15.4329ZM14.2041 6.04573C14.0992 5.94122 14.016 5.81702 13.9592 5.68028C13.9024 5.54353 13.8732 5.39692 13.8732 5.24886C13.8732 5.10079 13.9024 4.95418 13.9592 4.81744C14.016 4.68069 14.0992 4.5565 14.2041 4.45198L17.2041 1.45198C17.3086 1.3471 17.4328 1.26388 17.5695 1.2071C17.7063 1.15032 17.8529 1.12109 18.0009 1.12109C18.149 1.12109 18.2956 1.15032 18.4324 1.2071C18.5691 1.26388 18.6933 1.3471 18.7978 1.45198L21.7978 4.45198C21.9025 4.55663 21.9855 4.68086 22.0421 4.81759C22.0987 4.95432 22.1279 5.10086 22.1279 5.24886C22.1279 5.39685 22.0987 5.54339 22.0421 5.68012C21.9855 5.81685 21.9025 5.94108 21.7978 6.04573C21.6932 6.15038 21.5689 6.23339 21.4322 6.29002C21.2955 6.34666 21.1489 6.37581 21.0009 6.37581C20.8529 6.37581 20.7064 6.34666 20.5697 6.29002C20.4329 6.23339 20.3087 6.15038 20.2041 6.04573L19.125 4.96948V9.75073C19.125 10.0491 19.0065 10.3352 18.7955 10.5462C18.5845 10.7572 18.2984 10.8757 18 10.8757C17.7016 10.8757 17.4155 10.7572 17.2045 10.5462C16.9935 10.3352 16.875 10.0491 16.875 9.75073V4.96948L15.7959 6.04573C15.6915 6.15033 15.5674 6.23331 15.4308 6.28992C15.2942 6.34654 15.1478 6.37568 15 6.37568C14.8522 6.37568 14.7058 6.34654 14.5692 6.28992C14.4326 6.23331 14.3085 6.15033 14.2041 6.04573Z" fill="#130032"/>
</svg>
