<svg width="24" height="24" viewBox="0 0 24 24" fill="none" xmlns="http://www.w3.org/2000/svg">
<path d="M17.3091 2.17041C17.3519 2.02868 17.4224 1.89681 17.5163 1.78236C17.6102 1.66791 17.7258 1.57312 17.8565 1.50345C17.9871 1.43377 18.1302 1.39057 18.2776 1.37632C18.425 1.36207 18.5737 1.37705 18.7153 1.42041C19.7252 1.73005 20.6488 2.2713 21.4125 3.00103C21.6241 3.2081 21.7455 3.49022 21.7505 3.78624C21.7555 4.08225 21.6435 4.36829 21.439 4.58233C21.2345 4.79637 20.9538 4.92116 20.6579 4.92963C20.3619 4.9381 20.0746 4.82958 19.8581 4.62759C19.3479 4.14244 18.7316 3.78293 18.0581 3.57759C17.9164 3.53464 17.7845 3.46411 17.6701 3.37007C17.5557 3.27603 17.4609 3.16031 17.3913 3.02957C17.3217 2.89883 17.2787 2.75563 17.2645 2.60819C17.2504 2.46075 17.2655 2.31198 17.3091 2.17041ZM21.8297 15.7323C21.3883 17.3801 20.4682 18.86 19.1857 19.9849C17.9033 21.1098 16.316 21.8291 14.6247 22.0519C12.9334 22.2747 11.2141 21.9909 9.68403 21.2365C8.15401 20.482 6.88207 19.2909 6.02906 17.8135L2.27907 11.3148C1.88204 10.6263 1.77445 9.80834 1.97993 9.04057C2.1854 8.27281 2.68715 7.61795 3.375 7.21978C3.59696 7.0916 3.83455 6.99266 4.08188 6.92541C3.80342 6.34545 3.71877 5.69133 3.84043 5.05959C3.9621 4.42785 4.28362 3.85196 4.75755 3.4169C5.23149 2.98183 5.83273 2.71065 6.47255 2.64337C7.11237 2.57608 7.75687 2.71626 8.31094 3.04322C8.61205 2.65413 9.00423 2.34506 9.45293 2.14325C9.90163 1.94144 10.3931 1.85309 10.884 1.88597C11.3749 1.91885 11.8501 2.07196 12.2679 2.3318C12.6857 2.59165 13.0332 2.95026 13.2797 3.37603L14.6419 5.73572C14.9686 5.41425 15.3645 5.17191 15.7995 5.02729C16.2344 4.88267 16.6966 4.83962 17.1508 4.90144C17.6049 4.96326 18.0388 5.12832 18.4192 5.38394C18.7997 5.63955 19.1165 5.97893 19.3453 6.37603L20.9681 9.18853C21.5373 10.1681 21.9065 11.2509 22.0544 12.3741C22.2023 13.4973 22.1259 14.6388 21.8297 15.7323ZM19.0172 10.3126L17.3972 7.50103C17.3479 7.41571 17.2824 7.34093 17.2042 7.28095C17.1261 7.22097 17.0369 7.17697 16.9417 7.15147C16.8466 7.12596 16.7473 7.11944 16.6497 7.13229C16.552 7.14514 16.4578 7.1771 16.3725 7.22634C16.2872 7.27559 16.2124 7.34116 16.1524 7.4193C16.0924 7.49745 16.0484 7.58665 16.0229 7.6818C15.9974 7.77695 15.9909 7.87619 16.0038 7.97386C16.0166 8.07153 16.0486 8.16571 16.0978 8.25103L16.7241 9.33572C16.8615 9.57371 16.907 9.85376 16.8521 10.123C16.7971 10.3923 16.6456 10.6321 16.4259 10.7973C15.8861 11.2015 15.5226 11.7979 15.4107 12.463C15.2988 13.128 15.4472 13.8106 15.825 14.3692C15.9126 14.4913 15.9748 14.6297 16.008 14.7762C16.0413 14.9227 16.0448 15.0744 16.0184 15.2224C15.992 15.3703 15.9363 15.5114 15.8545 15.6375C15.7727 15.7635 15.6664 15.8719 15.542 15.9562C15.4177 16.0405 15.2776 16.099 15.1303 16.1283C14.9829 16.1576 14.8311 16.1571 14.684 16.1268C14.5368 16.0965 14.3972 16.037 14.2734 15.9518C14.1496 15.8667 14.0441 15.7576 13.9631 15.631C13.3595 14.7389 13.068 13.6721 13.1342 12.5969C13.2003 11.5218 13.6203 10.4987 14.3288 9.68728L11.3344 4.50103C11.2349 4.32823 11.0709 4.20201 10.8784 4.15014C10.6859 4.09828 10.4806 4.12501 10.3078 4.22447C10.135 4.32392 10.0088 4.48795 9.95693 4.68047C9.90506 4.87299 9.9318 5.07823 10.0313 5.25103L12.3047 9.18853C12.3818 9.31658 12.4326 9.4587 12.4541 9.60661C12.4757 9.75451 12.4675 9.90522 12.4302 10.0499C12.3928 10.1947 12.327 10.3305 12.2366 10.4495C12.1462 10.5685 12.0329 10.6683 11.9035 10.743C11.774 10.8178 11.631 10.866 11.4828 10.8848C11.3345 10.9037 11.1839 10.8928 11.0399 10.8528C10.8959 10.8128 10.7613 10.7445 10.644 10.6519C10.5266 10.5593 10.4289 10.4443 10.3566 10.3135L7.43719 5.25103C7.33499 5.08438 7.17175 4.96423 6.98226 4.91616C6.79277 4.86809 6.592 4.89591 6.42272 4.99369C6.25344 5.09147 6.12902 5.25148 6.07598 5.43964C6.02294 5.6278 6.04546 5.82923 6.13875 6.00103L9.28125 11.4385C9.424 11.6965 9.45979 12.0002 9.38092 12.2842C9.30205 12.5683 9.11483 12.8101 8.85952 12.9575C8.60422 13.1049 8.30124 13.1462 8.01578 13.0726C7.73032 12.9989 7.48519 12.8161 7.33313 12.5635L5.52469 9.43884C5.4769 9.35083 5.41196 9.27328 5.33371 9.21077C5.25546 9.14826 5.16548 9.10205 5.06909 9.07488C4.97269 9.0477 4.87183 9.04011 4.77245 9.05255C4.67307 9.06499 4.57719 9.0972 4.49046 9.1473C4.40374 9.19739 4.32792 9.26435 4.26749 9.34422C4.20707 9.42409 4.16325 9.51525 4.13862 9.61233C4.11399 9.70941 4.10906 9.81044 4.12411 9.90945C4.13916 10.0085 4.17389 10.1035 4.22625 10.1888L7.97813 16.6885C8.82351 18.1528 10.2159 19.2212 11.8491 19.6588C12.6577 19.8755 13.5011 19.9308 14.3312 19.8215C15.1612 19.7122 15.9615 19.4406 16.6866 19.022C17.4116 18.6034 18.0471 18.0461 18.5567 17.3819C19.0663 16.7177 19.4402 15.9597 19.6569 15.151C19.8735 14.3424 19.9288 13.499 19.8195 12.6689C19.7103 11.8389 19.4386 11.0386 19.02 10.3135L19.0172 10.3126ZM4.73063 18.5635C4.65826 18.4328 4.56055 18.3177 4.44322 18.2251C4.32589 18.1325 4.19129 18.0643 4.04727 18.0243C3.90325 17.9843 3.75271 17.9734 3.60444 17.9922C3.45617 18.0111 3.31314 18.0593 3.18371 18.134C3.05428 18.2088 2.94104 18.3086 2.8506 18.4276C2.76017 18.5466 2.69435 18.6824 2.657 18.8271C2.61965 18.9718 2.61151 19.1226 2.63306 19.2705C2.65461 19.4184 2.70541 19.5605 2.7825 19.6885C3.3019 20.5879 3.93179 21.4187 4.6575 22.1617C4.75974 22.2712 4.88285 22.3593 5.01959 22.4206C5.15634 22.482 5.30396 22.5154 5.4538 22.5189C5.60363 22.5224 5.75265 22.4959 5.89211 22.441C6.03157 22.3861 6.15866 22.3039 6.26591 22.1993C6.37316 22.0946 6.45841 21.9695 6.51666 21.8314C6.5749 21.6933 6.60497 21.545 6.60508 21.3951C6.6052 21.2452 6.57538 21.0968 6.51735 20.9587C6.45932 20.8205 6.37427 20.6953 6.26719 20.5904C5.67274 19.9813 5.15657 19.3004 4.73063 18.5635Z" fill="#130032"/>
</svg>
