<svg width="24" height="24" viewBox="0 0 24 24" fill="none" xmlns="http://www.w3.org/2000/svg">
<path d="M22.8617 18.5303L21.5258 7.28034C21.4705 6.82362 21.2498 6.403 20.9053 6.09808C20.5608 5.79315 20.1165 5.62508 19.6564 5.62566H16.8589C16.76 4.40491 16.2052 3.26614 15.3048 2.43583C14.4045 1.60553 13.2246 1.14453 11.9999 1.14453C10.7751 1.14453 9.59524 1.60553 8.69491 2.43583C7.79457 3.26614 7.23976 4.40491 7.1408 5.62566H4.3433C3.88325 5.62508 3.43894 5.79315 3.09445 6.09808C2.74996 6.403 2.5292 6.82362 2.47393 7.28034L1.13799 18.5303C1.1068 18.7939 1.13193 19.0612 1.21173 19.3143C1.29153 19.5675 1.42417 19.8008 1.60089 19.9989C1.7776 20.197 1.99436 20.3553 2.23682 20.4633C2.47928 20.5714 2.74192 20.6267 3.00737 20.6257H20.9924C21.2578 20.6267 21.5204 20.5714 21.7629 20.4633C22.0054 20.3553 22.2221 20.197 22.3988 19.9989C22.5756 19.8008 22.7082 19.5675 22.788 19.3143C22.8678 19.0612 22.8929 18.7939 22.8617 18.5303ZM11.9999 3.37566C12.631 3.37572 13.2411 3.6032 13.7182 4.01643C14.1953 4.42966 14.5075 5.00095 14.5977 5.62566H9.40205C9.49222 5.00095 9.80446 4.42966 10.2816 4.01643C10.7587 3.6032 11.3687 3.37572 11.9999 3.37566ZM3.42174 18.3757L4.66955 7.87566H7.12487V9.75066C7.12487 10.049 7.24339 10.3352 7.45437 10.5462C7.66535 10.7571 7.9515 10.8757 8.24987 10.8757C8.54823 10.8757 8.83438 10.7571 9.04536 10.5462C9.25634 10.3352 9.37487 10.049 9.37487 9.75066V7.87566H14.6249V9.75066C14.6249 10.049 14.7434 10.3352 14.9544 10.5462C15.1653 10.7571 15.4515 10.8757 15.7499 10.8757C16.0482 10.8757 16.3344 10.7571 16.5454 10.5462C16.7563 10.3352 16.8749 10.049 16.8749 9.75066V7.87566H19.3302L20.578 18.3757H3.42174Z" fill="#130032"/>
</svg>
