<svg width="24" height="24" viewBox="0 0 24 24" fill="none" xmlns="http://www.w3.org/2000/svg">
<path d="M23.8013 10.1351L21.4078 5.35384C21.2982 5.13319 21.1461 4.93631 20.9603 4.77447C20.7745 4.61263 20.5586 4.48899 20.325 4.41063C20.0914 4.33227 19.8447 4.30072 19.5989 4.31779C19.3531 4.33485 19.113 4.4002 18.8925 4.51009L16.7194 5.59665L12.3469 4.17915C12.1213 4.10695 11.8787 4.10695 11.6531 4.17915L7.28063 5.59665L5.10751 4.51009C4.88697 4.4002 4.64694 4.33485 4.40114 4.31779C4.15533 4.30072 3.90858 4.33227 3.67497 4.41063C3.44137 4.48899 3.2255 4.61263 3.03971 4.77447C2.85392 4.93631 2.70185 5.13319 2.59219 5.35384L0.198756 10.1351C0.088866 10.3556 0.0235207 10.5957 0.00645562 10.8415C-0.0106094 11.0873 0.0209405 11.334 0.0993016 11.5676C0.177663 11.8012 0.301298 12.0171 0.46314 12.2029C0.624982 12.3887 0.821855 12.5407 1.04251 12.6504L3.54282 13.901L8.34094 17.4082C8.45461 17.4914 8.58272 17.5527 8.71876 17.5891L14.5313 19.0891C14.6232 19.1126 14.7176 19.1245 14.8125 19.1248C15.1108 19.1245 15.3967 19.0058 15.6075 18.7948L20.5406 13.8616L22.9622 12.6504C23.407 12.4281 23.7453 12.0382 23.9026 11.5665C24.06 11.0948 24.0235 10.5799 23.8013 10.1351ZM18.3525 12.8679L15.7725 10.4304C15.5592 10.2286 15.2755 10.1182 14.9819 10.1228C14.6883 10.1273 14.4082 10.2465 14.2013 10.4548C13.2956 11.3679 11.8519 12.0307 10.3753 11.3501L13.9556 7.88134H16.0856L18.5053 12.7216L18.3525 12.8679ZM4.43626 6.69071L5.68032 7.31227L3.61782 11.4279L2.37376 10.8063L4.43626 6.69071ZM14.4675 16.7501L9.49032 15.4685L5.55282 12.5941L7.98469 7.73415L12 6.43196L12.1584 6.48352L8.43751 10.0948L8.42532 10.106C8.22703 10.3045 8.07581 10.545 7.98282 10.8097C7.88984 11.0744 7.85744 11.3567 7.88803 11.6356C7.91862 11.9145 8.01141 12.1829 8.15957 12.4212C8.30772 12.6595 8.50747 12.8615 8.74407 13.0123C10.7081 14.2676 13.0566 14.1438 14.9625 12.7563L16.7625 14.4579L14.4675 16.7501ZM20.3738 11.4279L18.3113 7.31227L19.5553 6.69071L21.6131 10.8063L20.3738 11.4279ZM11.1141 20.531C11.0771 20.6741 11.0124 20.8085 10.9235 20.9265C10.8347 21.0446 10.7234 21.1439 10.5961 21.219C10.4689 21.294 10.3281 21.3433 10.1817 21.3639C10.0354 21.3845 9.8865 21.3761 9.74344 21.3391L7.24969 20.6951C7.1119 20.6595 6.9821 20.5981 6.86719 20.5141L4.58626 18.8435C4.35296 18.6647 4.19892 18.4017 4.15709 18.1107C4.11527 17.8198 4.18897 17.524 4.36244 17.2867C4.53591 17.0494 4.79537 16.8894 5.08529 16.841C5.37521 16.7926 5.67258 16.8596 5.91376 17.0276L8.02032 18.567L10.3059 19.1566C10.4494 19.1935 10.5842 19.2584 10.7025 19.3475C10.8208 19.4367 10.9204 19.5483 10.9955 19.676C11.0706 19.8037 11.1197 19.9449 11.1401 20.0917C11.1604 20.2384 11.1516 20.3877 11.1141 20.531Z" fill="#130032"/>
</svg>
