<svg width="24" height="24" viewBox="0 0 24 24" fill="none" xmlns="http://www.w3.org/2000/svg">
<path d="M17.625 9.1575V8.625C17.625 7.72989 17.2694 6.87145 16.6365 6.23851C16.0035 5.60558 15.1451 5.25 14.25 5.25H13.125V3.375H15.75C15.8495 3.375 15.9448 3.41451 16.0152 3.48484C16.0855 3.55516 16.125 3.65054 16.125 3.75C16.125 4.04837 16.2435 4.33452 16.4545 4.5455C16.6655 4.75647 16.9516 4.875 17.25 4.875C17.5484 4.875 17.8345 4.75647 18.0455 4.5455C18.2565 4.33452 18.375 4.04837 18.375 3.75C18.375 3.05381 18.0984 2.38613 17.6062 1.89384C17.1139 1.40156 16.4462 1.125 15.75 1.125H9.75C9.45163 1.125 9.16548 1.24353 8.9545 1.4545C8.74353 1.66548 8.625 1.95163 8.625 2.25C8.625 2.54837 8.74353 2.83452 8.9545 3.0455C9.16548 3.25647 9.45163 3.375 9.75 3.375H10.875V5.25H9.75C8.85489 5.25 7.99645 5.60558 7.36351 6.23851C6.73058 6.87145 6.375 7.72989 6.375 8.625V9.1575C5.51183 9.40315 4.75214 9.92323 4.21086 10.6391C3.66959 11.3549 3.37617 12.2276 3.375 13.125V20.25C3.375 20.7473 3.57254 21.2242 3.92417 21.5758C4.27581 21.9275 4.75272 22.125 5.25 22.125H18.75C19.2473 22.125 19.7242 21.9275 20.0758 21.5758C20.4275 21.2242 20.625 20.7473 20.625 20.25V13.125C20.6238 12.2276 20.3304 11.3549 19.7891 10.6391C19.2479 9.92323 18.4882 9.40315 17.625 9.1575ZM9.75 7.5H14.25C14.5484 7.5 14.8345 7.61853 15.0455 7.8295C15.2565 8.04048 15.375 8.32663 15.375 8.625V9H8.625V8.625C8.625 8.32663 8.74353 8.04048 8.9545 7.8295C9.16548 7.61853 9.45163 7.5 9.75 7.5ZM18.375 19.875H5.625V13.125C5.625 12.6277 5.82254 12.1508 6.17417 11.7992C6.52581 11.4475 7.00272 11.25 7.5 11.25H16.5C16.9973 11.25 17.4742 11.4475 17.8258 11.7992C18.1775 12.1508 18.375 12.6277 18.375 13.125V19.875Z" fill="#130032"/>
</svg>
