<svg width="24" height="24" viewBox="0 0 24 24" fill="none" xmlns="http://www.w3.org/2000/svg">
<path d="M21.8212 12.9263C21.4972 12.678 21.1204 12.5077 20.72 12.4284C20.3197 12.349 19.9064 12.3628 19.5122 12.4688L16.125 13.2431C16.125 13.2037 16.125 13.1644 16.125 13.125C16.125 12.3294 15.8089 11.5663 15.2463 11.0037C14.6837 10.4411 13.9206 10.125 13.125 10.125H8.43187C7.9886 10.1238 7.54949 10.2105 7.13994 10.3801C6.7304 10.5497 6.35856 10.7989 6.04594 11.1131L4.03125 13.125H1.875C1.37772 13.125 0.900805 13.3225 0.549175 13.6742C0.197544 14.0258 0 14.5027 0 15L0 18.75C0 19.2473 0.197544 19.7242 0.549175 20.0758C0.900805 20.4275 1.37772 20.625 1.875 20.625H11.25C11.342 20.625 11.4336 20.6137 11.5228 20.5912L17.5228 19.0912C17.5802 19.0772 17.6363 19.0584 17.6906 19.035L21.33 17.4844C21.3516 17.4759 21.3722 17.4666 21.3928 17.4562C21.7998 17.2526 22.1483 16.9488 22.4055 16.5733C22.6628 16.1979 22.8202 15.7631 22.863 15.31C22.9059 14.857 22.8328 14.4004 22.6505 13.9834C22.4682 13.5664 22.1829 13.2026 21.8212 12.9263ZM2.25 15.375H3.375V18.375H2.25V15.375ZM20.4075 15.4322L16.8909 16.9322L11.1112 18.375H5.625V14.7188L7.63687 12.7069C7.74087 12.6017 7.86468 12.5183 8.00114 12.4613C8.1376 12.4044 8.284 12.375 8.43187 12.375H13.125C13.3239 12.375 13.5147 12.454 13.6553 12.5947C13.796 12.7353 13.875 12.9261 13.875 13.125C13.875 13.3239 13.796 13.5147 13.6553 13.6553C13.5147 13.796 13.3239 13.875 13.125 13.875H10.5C10.2016 13.875 9.91548 13.9935 9.7045 14.2045C9.49353 14.4155 9.375 14.7016 9.375 15C9.375 15.2984 9.49353 15.5845 9.7045 15.7955C9.91548 16.0065 10.2016 16.125 10.5 16.125H13.5C13.5848 16.125 13.6694 16.1156 13.7522 16.0969L20.0334 14.6522L20.0775 14.6409C20.1415 14.6235 20.2087 14.6211 20.2739 14.6338C20.339 14.6465 20.4003 14.6741 20.4531 14.7144C20.5058 14.7546 20.5486 14.8065 20.5781 14.8659C20.6076 14.9254 20.623 14.9908 20.6231 15.0572C20.6236 15.1332 20.6039 15.2079 20.566 15.2738C20.5281 15.3397 20.4734 15.3944 20.4075 15.4322ZM14.2041 7.54594C13.9927 7.33459 13.874 7.04795 13.874 6.74906C13.874 6.45018 13.9927 6.16353 14.2041 5.95219C14.4154 5.74084 14.702 5.62211 15.0009 5.62211C15.2998 5.62211 15.5865 5.74084 15.7978 5.95219L16.875 7.03125V2.25C16.875 1.95163 16.9935 1.66548 17.2045 1.4545C17.4155 1.24353 17.7016 1.125 18 1.125C18.2984 1.125 18.5845 1.24353 18.7955 1.4545C19.0065 1.66548 19.125 1.95163 19.125 2.25V7.03125L20.2041 5.95125C20.3087 5.8466 20.4329 5.76359 20.5697 5.70696C20.7064 5.65032 20.8529 5.62117 21.0009 5.62117C21.1489 5.62117 21.2955 5.65032 21.4322 5.70696C21.5689 5.76359 21.6932 5.8466 21.7978 5.95125C21.9025 6.0559 21.9855 6.18013 22.0421 6.31686C22.0987 6.45359 22.1279 6.60013 22.1279 6.74813C22.1279 6.89612 22.0987 7.04266 22.0421 7.17939C21.9855 7.31612 21.9025 7.44035 21.7978 7.545L18.7978 10.545C18.6933 10.6499 18.5691 10.7331 18.4324 10.7899C18.2956 10.8467 18.149 10.8759 18.0009 10.8759C17.8529 10.8759 17.7063 10.8467 17.5695 10.7899C17.4328 10.7331 17.3086 10.6499 17.2041 10.545L14.2041 7.54594Z" fill="#130032"/>
</svg>
