<svg width="24" height="24" viewBox="0 0 24 24" fill="none" xmlns="http://www.w3.org/2000/svg">
<path d="M22.3261 16.6115L18.9952 13.2805L15.6042 2.09148C15.4966 1.73493 15.308 1.40811 15.053 1.1366C14.7981 0.865085 14.4838 0.656245 14.1347 0.526417C13.7856 0.396588 13.4112 0.349292 13.0408 0.388229C12.6704 0.427166 12.314 0.55128 11.9996 0.75086C11.6851 0.55128 11.3287 0.427166 10.9583 0.388229C10.5879 0.349292 10.2135 0.396588 9.86445 0.526417C9.51536 0.656245 9.20105 0.865085 8.94611 1.1366C8.69116 1.40811 8.5025 1.73493 8.39487 2.09148L5.00394 13.2805L1.673 16.6115C1.32149 16.9631 1.12402 17.4399 1.12402 17.9371C1.12402 18.4343 1.32149 18.9111 1.673 19.2627L4.73769 22.3274C5.0893 22.6789 5.56613 22.8764 6.06331 22.8764C6.56049 22.8764 7.03732 22.6789 7.38894 22.3274L11.9161 17.8012C11.9452 17.7721 11.9724 17.743 11.9996 17.713C12.0267 17.743 12.0539 17.7721 12.083 17.8012L16.6102 22.3274C16.9618 22.6789 17.4386 22.8764 17.9358 22.8764C18.433 22.8764 18.9098 22.6789 19.2614 22.3274L22.3261 19.2627C22.6776 18.9111 22.8751 18.4343 22.8751 17.9371C22.8751 17.4399 22.6776 16.9631 22.3261 16.6115ZM6.06331 20.4712L3.53206 17.9399L4.56331 16.9087L7.09456 19.4399L6.06331 20.4712ZM10.8746 14.8837C10.8753 15.13 10.8271 15.374 10.7328 15.6016C10.6385 15.8291 10.4999 16.0357 10.3252 16.2093L8.68831 17.8462L6.15706 15.3149L6.79737 14.6746C6.92842 14.544 7.02505 14.383 7.07862 14.2059L10.5474 2.7468C10.5592 2.70873 10.5842 2.67614 10.618 2.65494C10.6518 2.63374 10.692 2.62532 10.7314 2.63122C10.7708 2.63711 10.8068 2.65692 10.8329 2.68706C10.859 2.7172 10.8735 2.75569 10.8736 2.79555L10.8746 14.8837ZM15.3277 17.863L13.6739 16.2093C13.4992 16.0357 13.3606 15.8291 13.2663 15.6016C13.172 15.374 13.1238 15.13 13.1246 14.8837V2.78992C13.1247 2.75006 13.1392 2.71158 13.1652 2.68143C13.1913 2.65129 13.2273 2.63148 13.2668 2.62559C13.3062 2.6197 13.3464 2.62812 13.3802 2.64932C13.4139 2.67052 13.439 2.7031 13.4508 2.74117L16.9196 14.2002C16.9731 14.3773 17.0698 14.5384 17.2008 14.669L17.9133 15.3815L15.3277 17.863ZM17.9358 20.4712L16.9186 19.4549L19.5089 16.9762L20.4699 17.9371L17.9358 20.4712Z" fill="#130032"/>
</svg>
