<svg width="24" height="24" viewBox="0 0 24 24" fill="none" xmlns="http://www.w3.org/2000/svg">
<path d="M22.125 18.6234V22.5C22.125 22.7984 22.0065 23.0845 21.7955 23.2955C21.5845 23.5065 21.2984 23.625 21 23.625C20.7016 23.625 20.4155 23.5065 20.2045 23.2955C19.9935 23.0845 19.875 22.7984 19.875 22.5V18.6234C19.8722 17.097 19.3424 15.6183 18.375 14.4375V18.9628C18.3737 19.204 18.295 19.4384 18.1504 19.6314C18.0058 19.8244 17.803 19.9659 17.5719 20.0349C17.3408 20.1039 17.0937 20.0968 16.8669 20.0147C16.6402 19.9326 16.4458 19.7797 16.3125 19.5788L15.3122 18.0506C15.3 18.0328 15.2887 18.015 15.2784 17.9963C15.1818 17.8222 15.0201 17.6937 14.8287 17.6389C14.6373 17.5841 14.432 17.6076 14.258 17.7042C14.0839 17.8008 13.9554 17.9626 13.9006 18.154C13.8458 18.3453 13.8693 18.5506 13.9659 18.7247L16.0284 21.8803C16.112 22.0039 16.1702 22.1428 16.1996 22.2891C16.2289 22.4354 16.2289 22.586 16.1995 22.7323C16.1701 22.8785 16.112 23.0175 16.0284 23.141C15.9448 23.2646 15.8374 23.3703 15.7126 23.452C15.5878 23.5337 15.4479 23.5897 15.3012 23.6168C15.1545 23.644 15.0039 23.6417 14.8581 23.61C14.7123 23.5784 14.5743 23.5181 14.452 23.4327C14.3298 23.3472 14.2257 23.2382 14.1459 23.1122L12.0591 19.9247C12.0478 19.9069 12.0366 19.8891 12.0262 19.8703C11.6985 19.2984 11.5682 18.6344 11.6555 17.9811C11.7428 17.3277 12.0429 16.7213 12.5094 16.2555C12.9759 15.7898 13.5828 15.4906 14.2364 15.4044C14.8899 15.3181 15.5536 15.4494 16.125 15.7781V6.375H15.375C15.0766 6.375 14.7905 6.25647 14.5795 6.0455C14.3685 5.83452 14.25 5.54837 14.25 5.25C14.25 4.95163 14.3685 4.66548 14.5795 4.4545C14.7905 4.24353 15.0766 4.125 15.375 4.125H16.5C16.9973 4.125 17.4742 4.32254 17.8258 4.67417C18.1775 5.02581 18.375 5.50272 18.375 6V11.3925C19.5306 12.2122 20.4738 13.2959 21.126 14.5537C21.7783 15.8114 22.1208 17.2067 22.125 18.6234ZM8.25 5.25C8.25 4.95163 8.13147 4.66548 7.9205 4.4545C7.70952 4.24353 7.42337 4.125 7.125 4.125H6C5.50272 4.125 5.02581 4.32254 4.67417 4.67417C4.32254 5.02581 4.125 5.50272 4.125 6V18.75C4.125 19.0484 4.24353 19.3345 4.4545 19.5455C4.66548 19.7565 4.95163 19.875 5.25 19.875C5.54837 19.875 5.83452 19.7565 6.0455 19.5455C6.25647 19.3345 6.375 19.0484 6.375 18.75V6.375H7.125C7.42337 6.375 7.70952 6.25647 7.9205 6.0455C8.13147 5.83452 8.25 5.54837 8.25 5.25ZM14.6709 10.92C14.8823 10.7087 15.001 10.422 15.001 10.1231C15.001 9.82424 14.8823 9.53759 14.6709 9.32625C14.4596 9.11491 14.1729 8.99617 13.8741 8.99617C13.5752 8.99617 13.2885 9.11491 13.0772 9.32625L12.375 10.0312V1.5C12.375 1.20163 12.2565 0.915483 12.0455 0.704505C11.8345 0.493526 11.5484 0.375 11.25 0.375C10.9516 0.375 10.6655 0.493526 10.4545 0.704505C10.2435 0.915483 10.125 1.20163 10.125 1.5V10.0312L9.42094 9.32625C9.20959 9.11491 8.92295 8.99617 8.62406 8.99617C8.32518 8.99617 8.03853 9.11491 7.82719 9.32625C7.61584 9.53759 7.49711 9.82424 7.49711 10.1231C7.49711 10.2711 7.52626 10.4177 7.5829 10.5544C7.63953 10.6911 7.72254 10.8154 7.82719 10.92L10.4522 13.545C10.5567 13.6499 10.6809 13.7331 10.8176 13.7899C10.9544 13.8467 11.101 13.8759 11.2491 13.8759C11.3971 13.8759 11.5437 13.8467 11.6805 13.7899C11.8172 13.7331 11.9414 13.6499 12.0459 13.545L14.6709 10.92Z" fill="#130032"/>
</svg>
