<svg width="24" height="24" viewBox="0 0 24 24" fill="none" xmlns="http://www.w3.org/2000/svg">
<path d="M11.25 13.1268C10.9516 13.1268 10.6655 13.0083 10.4545 12.7973C10.2435 12.5863 10.125 12.3002 10.125 12.0018V4.22057L9.42094 4.92464C9.20959 5.13598 8.92295 5.25471 8.62406 5.25471C8.32518 5.25471 8.03853 5.13598 7.82719 4.92464C7.61584 4.71329 7.49711 4.42665 7.49711 4.12776C7.49711 3.82888 7.61584 3.54223 7.82719 3.33089L10.4522 0.705887C10.5567 0.601007 10.6809 0.517791 10.8176 0.46101C10.9544 0.404229 11.101 0.375 11.2491 0.375C11.3971 0.375 11.5437 0.404229 11.6805 0.46101C11.8172 0.517791 11.9414 0.601007 12.0459 0.705887L14.6709 3.33089C14.8823 3.54223 15.001 3.82888 15.001 4.12776C15.001 4.42665 14.8823 4.71329 14.6709 4.92464C14.4596 5.13598 14.1729 5.25471 13.8741 5.25471C13.5752 5.25471 13.2885 5.13598 13.0772 4.92464L12.375 4.22057V12.0018C12.375 12.3002 12.2565 12.5863 12.0455 12.7973C11.8345 13.0083 11.5484 13.1268 11.25 13.1268ZM18.375 11.3943V9.00182C18.375 8.50454 18.1775 8.02763 17.8258 7.676C17.4742 7.32437 16.9973 7.12682 16.5 7.12682H15.375C15.0766 7.12682 14.7905 7.24535 14.5795 7.45633C14.3685 7.66731 14.25 7.95346 14.25 8.25182C14.25 8.55019 14.3685 8.83634 14.5795 9.04732C14.7905 9.2583 15.0766 9.37682 15.375 9.37682H16.125V15.78C15.5532 15.4502 14.8886 15.3183 14.2342 15.4046C13.5798 15.4909 12.9721 15.7906 12.5054 16.2573C12.0386 16.724 11.7387 17.3316 11.6523 17.9859C11.5658 18.6403 11.6976 19.3049 12.0272 19.8768C12.0375 19.8956 12.0487 19.9134 12.06 19.9312L14.1469 23.1187C14.2278 23.2424 14.3323 23.349 14.4545 23.4323C14.5766 23.5157 14.714 23.5741 14.8587 23.6044C15.0034 23.6346 15.1527 23.6361 15.298 23.6087C15.4433 23.5812 15.5817 23.5254 15.7055 23.4445C15.8292 23.3635 15.9358 23.259 16.0191 23.1369C16.1024 23.0147 16.1609 22.8774 16.1912 22.7327C16.2214 22.5879 16.2229 22.4387 16.1954 22.2934C16.168 22.1481 16.1122 22.0096 16.0312 21.8859L13.9688 18.7303C13.8722 18.5562 13.8487 18.3509 13.9034 18.1595C13.9582 17.9682 14.0867 17.8064 14.2608 17.7098C14.4348 17.6132 14.6401 17.5897 14.8315 17.6445C15.0229 17.6992 15.1847 17.8278 15.2812 18.0018C15.2916 18.0206 15.3028 18.0384 15.315 18.0562L16.3125 19.5843C16.4458 19.7853 16.6402 19.9381 16.8669 20.0203C17.0937 20.1024 17.3408 20.1095 17.5719 20.0404C17.803 19.9714 18.0058 19.83 18.1504 19.637C18.295 19.4439 18.3737 19.2096 18.375 18.9684V14.4393C19.3415 15.6191 19.8714 17.0963 19.875 18.6215V22.5018C19.875 22.8002 19.9935 23.0863 20.2045 23.2973C20.4155 23.5083 20.7016 23.6268 21 23.6268C21.2984 23.6268 21.5845 23.5083 21.7955 23.2973C22.0065 23.0863 22.125 22.8002 22.125 22.5018V18.6253C22.1208 17.2085 21.7783 15.8132 21.126 14.5555C20.4738 13.2978 19.5306 12.214 18.375 11.3943ZM7.125 7.12682H6C5.50272 7.12682 5.02581 7.32437 4.67417 7.676C4.32254 8.02763 4.125 8.50454 4.125 9.00182V18.7518C4.125 19.0502 4.24353 19.3363 4.4545 19.5473C4.66548 19.7583 4.95163 19.8768 5.25 19.8768C5.54837 19.8768 5.83452 19.7583 6.0455 19.5473C6.25647 19.3363 6.375 19.0502 6.375 18.7518V9.37682H7.125C7.42337 9.37682 7.70952 9.2583 7.9205 9.04732C8.13147 8.83634 8.25 8.55019 8.25 8.25182C8.25 7.95346 8.13147 7.66731 7.9205 7.45633C7.70952 7.24535 7.42337 7.12682 7.125 7.12682Z" fill="#130032"/>
</svg>
