<svg width="24" height="24" viewBox="0 0 24 24" fill="none" xmlns="http://www.w3.org/2000/svg">
<path d="M20.6974 7.83507L18.7117 4.40664C18.3366 3.75972 17.7202 3.28792 16.9978 3.09461C16.2754 2.90131 15.5058 3.00228 14.8577 3.37539C14.6934 3.46982 14.5389 3.58037 14.3964 3.70539L13.5002 2.15664C13.2698 1.76025 12.9465 1.42583 12.5581 1.18221C12.1697 0.938587 11.7278 0.793067 11.2707 0.758192C10.8135 0.723318 10.3548 0.800134 9.9339 0.982021C9.51304 1.16391 9.14272 1.44541 8.85487 1.80226C8.43674 1.59214 7.97303 1.489 7.50526 1.50209C7.03749 1.51518 6.58028 1.64409 6.17456 1.87726C5.58209 2.21672 5.13362 2.76045 4.91309 3.40668C4.69256 4.05292 4.71508 4.75737 4.97643 5.3882C4.78854 5.44791 4.60752 5.52742 4.43643 5.62539C4.11618 5.80991 3.83544 6.05575 3.61027 6.34884C3.38509 6.64193 3.21989 6.97653 3.12411 7.33352C3.02834 7.6905 3.00387 8.06286 3.05209 8.4293C3.10032 8.79575 3.2203 9.14909 3.40518 9.46914L3.43331 9.51789C3.25037 9.57762 3.07386 9.65551 2.90643 9.75039C2.58618 9.93491 2.30544 10.1807 2.08027 10.4738C1.85509 10.7669 1.68989 11.1015 1.59411 11.4585C1.49834 11.8155 1.47387 12.1879 1.52209 12.5543C1.57032 12.9207 1.6903 13.2741 1.87518 13.5941L5.18737 19.3129C6.2402 21.1221 7.96645 22.4409 9.9888 22.9811C12.0111 23.5213 14.1651 23.2389 15.9799 22.1957C16.8793 21.6819 17.6679 20.9948 18.2998 20.174C18.9318 19.3533 19.3946 18.4153 19.6614 17.4145C19.698 17.2785 19.7299 17.1435 19.7552 17.0066C20.8544 15.7699 21.5369 14.2188 21.706 12.5729C21.875 10.9269 21.5222 9.26945 20.6974 7.83507ZM15.723 5.66758C15.7516 5.55988 15.8116 5.46312 15.8953 5.38955C15.979 5.31599 16.0826 5.26894 16.1931 5.25438C16.3036 5.23981 16.4159 5.25839 16.5158 5.30775C16.6157 5.35712 16.6987 5.43504 16.7542 5.53164L18.7399 8.96008C19.3784 10.0651 19.6211 11.3548 19.428 12.6163C19.276 12.2091 19.091 11.815 18.8749 11.4379L15.7811 6.09414C15.7436 6.03045 15.7191 5.95994 15.7092 5.8867C15.6992 5.81347 15.7039 5.73898 15.723 5.66758ZM10.5096 3.41757C10.5286 3.34584 10.5616 3.27858 10.6067 3.21967C10.6519 3.16076 10.7082 3.11136 10.7725 3.07432C10.8369 3.03729 10.9079 3.01334 10.9815 3.00387C11.0551 2.9944 11.1298 2.99959 11.2014 3.01914C11.2729 3.03823 11.34 3.07125 11.3987 3.11629C11.4574 3.16133 11.5067 3.21752 11.5436 3.28164L13.6371 6.8957C13.4594 6.95541 13.2879 7.03234 13.1252 7.12539C12.9614 7.21979 12.8075 7.33034 12.6658 7.45539L10.5658 3.84414C10.4913 3.71502 10.471 3.5616 10.5096 3.41757ZM7.04081 4.16758C7.05984 4.09594 7.09284 4.02878 7.13791 3.96994C7.18298 3.9111 7.23924 3.86175 7.30345 3.82473C7.36765 3.7877 7.43855 3.76373 7.51205 3.75419C7.58555 3.74465 7.66021 3.74973 7.73174 3.76914C7.87488 3.80883 7.99673 3.90308 8.07112 4.03164L8.42456 4.64851C8.24486 4.70653 8.07148 4.78254 7.90706 4.87539C7.7441 4.96939 7.59085 5.0793 7.44956 5.20351L7.09518 4.59414C7.05793 4.53034 7.03378 4.45976 7.02412 4.38652C7.01446 4.31328 7.0195 4.23885 7.03893 4.16758H7.04081ZM14.8539 20.2504C13.5571 20.9946 12.0185 21.1955 10.574 20.809C9.12962 20.4226 7.89681 19.4803 7.14487 18.1879L3.83268 12.4691C3.79571 12.4051 3.77171 12.3345 3.76206 12.2612C3.75242 12.1879 3.75731 12.1134 3.77647 12.042C3.79562 11.9706 3.82866 11.9037 3.8737 11.8451C3.91873 11.7865 3.97488 11.7373 4.03893 11.7004C4.10302 11.6631 4.17384 11.6389 4.24733 11.6291C4.32082 11.6193 4.39551 11.6241 4.46713 11.6433C4.53875 11.6624 4.60587 11.6956 4.66463 11.7408C4.7234 11.786 4.77265 11.8423 4.80956 11.9066L6.71174 15.1879C6.86093 15.4471 7.10697 15.6364 7.39575 15.7142C7.68453 15.792 7.99238 15.7519 8.25159 15.6027C8.51079 15.4535 8.70012 15.2075 8.77792 14.9187C8.85572 14.63 8.81562 14.3221 8.66643 14.0629L5.35799 8.34414C5.2834 8.21472 5.26327 8.06097 5.30204 7.91672C5.34081 7.77246 5.43529 7.64951 5.56471 7.57492C5.69413 7.50033 5.84788 7.4802 5.99213 7.51897C6.13639 7.55773 6.25934 7.65222 6.33393 7.78164L9.32081 12.9379C9.46999 13.1971 9.71603 13.3864 10.0048 13.4642C10.2936 13.542 10.6014 13.5019 10.8606 13.3527C11.1199 13.2035 11.3092 12.9575 11.387 12.6687C11.4648 12.38 11.4247 12.0721 11.2755 11.8129L8.83143 7.59883V7.59414C8.75684 7.46435 8.73686 7.31024 8.77589 7.16572C8.81492 7.0212 8.90977 6.8981 9.03956 6.82351C9.16935 6.74892 9.32345 6.72894 9.46797 6.76797C9.61249 6.807 9.73559 6.90185 9.81018 7.03164L13.2386 12.9379C13.3878 13.1964 13.6335 13.385 13.9218 13.4622C14.21 13.5395 14.5172 13.4991 14.7756 13.3499C15.0341 13.2007 15.2227 12.955 15.3 12.6667C15.3773 12.3785 15.3369 12.0713 15.1877 11.8129L14.0111 9.78695C13.9779 9.72071 13.9581 9.64859 13.9528 9.5747C13.9475 9.50081 13.9568 9.4266 13.9802 9.3563C14.0274 9.21433 14.1291 9.09693 14.2628 9.02992C14.3291 8.99674 14.4012 8.97693 14.4751 8.97163C14.549 8.96632 14.6232 8.97562 14.6935 8.99899C14.8355 9.0462 14.9529 9.14787 15.0199 9.28164L16.9202 12.5629C17.2898 13.2032 17.5295 13.9101 17.6257 14.6431C17.7219 15.3762 17.6726 16.121 17.4807 16.835C17.2888 17.549 16.958 18.2181 16.5073 18.8042C16.0566 19.3902 15.4947 19.8817 14.8539 20.2504Z" fill="#130032"/>
</svg>
