<svg width="24" height="24" viewBox="0 0 24 24" fill="none" xmlns="http://www.w3.org/2000/svg">
<g clip-path="url(#clip0_7_18676)">
<path d="M20.625 13.876V17.251C20.625 18.5495 20.4722 19.7373 20.1957 20.596C20.1004 20.8753 19.8993 21.106 19.6356 21.2383C19.3718 21.3707 19.0667 21.3942 18.7858 21.3037C18.505 21.2132 18.2709 21.016 18.1341 20.7545C17.9973 20.4931 17.9687 20.1884 18.0544 19.906C18.255 19.2826 18.375 18.2898 18.375 17.251V13.876C18.375 13.6771 18.296 13.4863 18.1554 13.3457C18.0147 13.205 17.824 13.126 17.625 13.126C17.4261 13.126 17.2354 13.205 17.0947 13.3457C16.9541 13.4863 16.875 13.6771 16.875 13.876V14.251C16.875 14.5494 16.7565 14.8355 16.5455 15.0465C16.3346 15.2575 16.0484 15.376 15.75 15.376C15.4517 15.376 15.1655 15.2575 14.9545 15.0465C14.7436 14.8355 14.625 14.5494 14.625 14.251V12.376C14.625 12.1771 14.546 11.9863 14.4054 11.8457C14.2647 11.705 14.074 11.626 13.875 11.626C13.6761 11.626 13.4854 11.705 13.3447 11.8457C13.2041 11.9863 13.125 12.1771 13.125 12.376V13.501C13.125 13.7994 13.0065 14.0855 12.7955 14.2965C12.5846 14.5075 12.2984 14.626 12 14.626C11.7017 14.626 11.4155 14.5075 11.2045 14.2965C10.9936 14.0855 10.875 13.7994 10.875 13.501V7.12601C10.875 6.9271 10.796 6.73634 10.6554 6.59568C10.5147 6.45503 10.324 6.37601 10.125 6.37601C9.92613 6.37601 9.73536 6.45503 9.59471 6.59568C9.45406 6.73634 9.37504 6.9271 9.37504 7.12601V17.251C9.37476 17.4952 9.29502 17.7328 9.14784 17.9277C9.00067 18.1226 8.79406 18.2643 8.55923 18.3314C8.3244 18.3985 8.07411 18.3874 7.84616 18.2997C7.61821 18.2121 7.42498 18.0526 7.29567 17.8454L5.54442 15.0329L5.52473 15.001C5.42627 14.8278 5.26304 14.7009 5.07096 14.648C4.87889 14.5952 4.67369 14.6208 4.50051 14.7193C4.32733 14.8178 4.20036 14.981 4.14753 15.1731C4.09469 15.3651 4.12033 15.5703 4.21879 15.7435L6.58785 19.6698C6.74189 19.9254 6.78807 20.2317 6.71625 20.5213C6.64443 20.811 6.46049 21.0603 6.20488 21.2143C5.94928 21.3683 5.64296 21.4145 5.3533 21.3427C5.06365 21.2709 4.81439 21.0869 4.66035 20.8313L2.28754 16.8938L2.27629 16.8751C1.90404 16.2307 1.7846 15.4709 1.94118 14.7433C2.09775 14.0158 2.51916 13.3724 3.12355 12.9381C3.72794 12.5039 4.47215 12.3098 5.21163 12.3936C5.95112 12.4773 6.63308 12.8329 7.12504 13.3913V7.12601C7.12504 6.33036 7.44111 5.5673 8.00372 5.00469C8.56633 4.44208 9.32939 4.12601 10.125 4.12601C10.9207 4.12601 11.6838 4.44208 12.2464 5.00469C12.809 5.5673 13.125 6.33036 13.125 7.12601V9.46976C13.7954 9.29673 14.505 9.3609 15.1335 9.65138C15.7619 9.94186 16.2706 10.4408 16.5732 11.0635C17.0272 10.8935 17.5158 10.8361 17.9969 10.8962C18.478 10.9563 18.9374 11.1321 19.3357 11.4086C19.734 11.6851 20.0594 12.054 20.2839 12.4837C20.5085 12.9134 20.6255 13.3912 20.625 13.876ZM23.67 4.45508L20.67 1.45508C20.5654 1.35043 20.4412 1.26742 20.3044 1.21078C20.1677 1.15415 20.0212 1.125 19.8732 1.125C19.7252 1.125 19.5786 1.15415 19.4419 1.21078C19.3052 1.26742 19.1809 1.35043 19.0763 1.45508C18.9716 1.55972 18.8886 1.68396 18.832 1.82069C18.7754 1.95741 18.7462 2.10396 18.7462 2.25195C18.7462 2.39994 18.7754 2.54649 18.832 2.68322C18.8886 2.81995 18.9716 2.94418 19.0763 3.04883L20.1563 4.12601H16.125C15.8267 4.12601 15.5405 4.24454 15.3295 4.45552C15.1186 4.6665 15 4.95265 15 5.25101C15 5.54938 15.1186 5.83553 15.3295 6.04651C15.5405 6.25749 15.8267 6.37601 16.125 6.37601H20.1563L19.0791 7.45508C18.9745 7.55972 18.8914 7.68396 18.8348 7.82069C18.7782 7.95741 18.749 8.10396 18.749 8.25195C18.749 8.39995 18.7782 8.54649 18.8348 8.68322C18.8914 8.81995 18.9745 8.94418 19.0791 9.04883C19.1838 9.15347 19.308 9.23648 19.4447 9.29312C19.5814 9.34975 19.728 9.3789 19.876 9.3789C20.024 9.3789 20.1705 9.34975 20.3072 9.29312C20.444 9.23648 20.5682 9.15347 20.6729 9.04883L23.6729 6.04883C23.7775 5.94413 23.8605 5.81979 23.9171 5.68294C23.9736 5.54609 24.0026 5.39943 24.0023 5.25137C24.0021 5.1033 23.9726 4.95674 23.9156 4.8201C23.8585 4.68345 23.7751 4.55941 23.67 4.45508Z" fill="#130032"/>
</g>
<defs>
<clipPath id="clip0_7_18676">
<rect width="24" height="24" fill="white"/>
</clipPath>
</defs>
</svg>
