<svg width="24" height="24" viewBox="0 0 24 24" fill="none" xmlns="http://www.w3.org/2000/svg">
<path d="M13.5 17.249C13.5 17.5457 13.412 17.8357 13.2472 18.0824C13.0824 18.329 12.8481 18.5213 12.574 18.6348C12.2999 18.7483 11.9983 18.7781 11.7074 18.7202C11.4164 18.6623 11.1491 18.5194 10.9393 18.3097C10.7296 18.0999 10.5867 17.8326 10.5288 17.5416C10.4709 17.2507 10.5006 16.9491 10.6142 16.675C10.7277 16.4009 10.92 16.1666 11.1666 16.0018C11.4133 15.837 11.7033 15.749 12 15.749C12.3978 15.749 12.7794 15.907 13.0607 16.1883C13.342 16.4696 13.5 16.8512 13.5 17.249ZM20.625 10.499V14.249C20.625 16.5365 19.7163 18.7303 18.0988 20.3478C16.4813 21.9653 14.2875 22.874 12 22.874C9.71251 22.874 7.51871 21.9653 5.9012 20.3478C4.2837 18.7303 3.375 16.5365 3.375 14.249V7.124C3.37477 6.66602 3.4794 6.21406 3.68086 5.80277C3.88233 5.39149 4.17529 5.03178 4.53728 4.75124C4.89928 4.47069 5.3207 4.27675 5.76925 4.18428C6.2178 4.0918 6.68156 4.10325 7.125 4.21775V4.124C7.12434 3.44488 7.35413 2.78563 7.77677 2.25406C8.19942 1.72248 8.78993 1.35004 9.45172 1.19762C10.1135 1.04521 10.8074 1.12185 11.42 1.41501C12.0326 1.70817 12.5276 2.2005 12.8241 2.8115C13.2781 2.64168 13.7665 2.58442 14.2475 2.64461C14.7285 2.7048 15.1877 2.88065 15.5859 3.1571C15.9841 3.43355 16.3094 3.80238 16.5339 4.232C16.7584 4.66162 16.8754 5.13925 16.875 5.624V7.59275C17.3184 7.47825 17.7822 7.4668 18.2308 7.55928C18.6793 7.65175 19.1007 7.84569 19.4627 8.12624C19.8247 8.40678 20.1177 8.76649 20.3191 9.17777C20.5206 9.58906 20.6252 10.041 20.625 10.499ZM18.375 10.499C18.375 10.3001 18.296 10.1093 18.1553 9.96867C18.0147 9.82801 17.8239 9.749 17.625 9.749C17.4261 9.749 17.2353 9.82801 17.0947 9.96867C16.954 10.1093 16.875 10.3001 16.875 10.499C16.875 10.7974 16.7565 11.0835 16.5455 11.2945C16.3345 11.5055 16.0484 11.624 15.75 11.624C15.4516 11.624 15.1655 11.5055 14.9545 11.2945C14.7435 11.0835 14.625 10.7974 14.625 10.499V5.624C14.625 5.42508 14.546 5.23432 14.4053 5.09367C14.2647 4.95301 14.0739 4.874 13.875 4.874C13.6761 4.874 13.4853 4.95301 13.3447 5.09367C13.204 5.23432 13.125 5.42508 13.125 5.624V9.749C13.125 10.0474 13.0065 10.3335 12.7955 10.5445C12.5845 10.7555 12.2984 10.874 12 10.874C11.7016 10.874 11.4155 10.7555 11.2045 10.5445C10.9935 10.3335 10.875 10.0474 10.875 9.749V4.124C10.875 3.92508 10.796 3.73432 10.6553 3.59367C10.5147 3.45301 10.3239 3.374 10.125 3.374C9.92609 3.374 9.73532 3.45301 9.59467 3.59367C9.45402 3.73432 9.375 3.92508 9.375 4.124V10.499C9.375 10.7974 9.25647 11.0835 9.0455 11.2945C8.83452 11.5055 8.54837 11.624 8.25 11.624C7.95163 11.624 7.66548 11.5055 7.4545 11.2945C7.24353 11.0835 7.125 10.7974 7.125 10.499V7.124C7.125 6.92508 7.04598 6.73432 6.90533 6.59367C6.76468 6.45301 6.57391 6.374 6.375 6.374C6.17609 6.374 5.98532 6.45301 5.84467 6.59367C5.70402 6.73432 5.625 6.92508 5.625 7.124V14.249C5.625 15.9398 6.29665 17.5613 7.49219 18.7568C8.68774 19.9523 10.3092 20.624 12 20.624C13.6908 20.624 15.3123 19.9523 16.5078 18.7568C17.7034 17.5613 18.375 15.9398 18.375 14.249V10.499ZM12 11.999C11.0318 11.9967 10.0819 12.2631 9.25617 12.7686C8.43039 13.2741 7.76111 13.9988 7.32281 14.8621C7.19112 15.1273 7.16931 15.4338 7.26211 15.715C7.35491 15.9962 7.55484 16.2295 7.81853 16.3642C8.08222 16.499 8.3884 16.5243 8.67065 16.4348C8.95291 16.3452 9.18847 16.148 9.32625 15.8859C9.57765 15.3935 9.96021 14.9802 10.4317 14.6915C10.9032 14.4028 11.4453 14.2501 11.9981 14.2501C12.551 14.2501 13.0931 14.4028 13.5645 14.6915C14.036 14.9802 14.4186 15.3935 14.67 15.8859C14.7646 16.0711 14.9087 16.2264 15.0863 16.3346C15.2639 16.4429 15.468 16.4998 15.6759 16.499C15.8537 16.4993 16.0289 16.4568 16.1869 16.3752C16.4525 16.2396 16.6534 16.0039 16.7453 15.7202C16.8372 15.4365 16.8127 15.1278 16.6772 14.8621C16.2389 13.9988 15.5696 13.2741 14.7438 12.7686C13.9181 12.2631 12.9682 11.9967 12 11.999Z" fill="#130032"/>
</svg>
