<svg width="24" height="24" viewBox="0 0 24 24" fill="none" xmlns="http://www.w3.org/2000/svg">
<g clip-path="url(#clip0_7_18682)">
<path d="M24.0002 5.25101C24.0002 5.54938 23.8816 5.83553 23.6707 6.04651C23.4597 6.25749 23.1735 6.37601 22.8752 6.37601H18.8439L19.923 7.45508C20.0276 7.55972 20.1106 7.68396 20.1673 7.82069C20.2239 7.95742 20.253 8.10396 20.253 8.25195C20.253 8.39995 20.2239 8.54649 20.1673 8.68322C20.1106 8.81995 20.0276 8.94418 19.923 9.04883C19.8183 9.15347 19.6941 9.23648 19.5574 9.29312C19.4206 9.34975 19.2741 9.3789 19.1261 9.3789C18.9781 9.3789 18.8316 9.34975 18.6948 9.29312C18.5581 9.23648 18.4339 9.15347 18.3292 9.04883L15.3292 6.04883C15.2243 5.94431 15.1411 5.82012 15.0843 5.68337C15.0276 5.54663 14.9983 5.40002 14.9983 5.25195C14.9983 5.10389 15.0276 4.95728 15.0843 4.82053C15.1411 4.68378 15.2243 4.55959 15.3292 4.45508L18.3292 1.45508C18.4339 1.35043 18.5581 1.26742 18.6948 1.21078C18.8316 1.15415 18.9781 1.125 19.1261 1.125C19.2741 1.125 19.4206 1.15415 19.5574 1.21078C19.6941 1.26742 19.8183 1.35043 19.923 1.45508C20.0276 1.55972 20.1106 1.68396 20.1673 1.82069C20.2239 1.95741 20.253 2.10396 20.253 2.25195C20.253 2.39995 20.2239 2.54649 20.1673 2.68322C20.1106 2.81995 20.0276 2.94418 19.923 3.04883L18.8439 4.12601H22.8752C23.1735 4.12601 23.4597 4.24454 23.6707 4.45552C23.8816 4.6665 24.0002 4.95265 24.0002 5.25101ZM17.6252 10.876C17.2661 10.8748 16.9098 10.9383 16.5733 11.0635C16.2707 10.4408 15.7621 9.94186 15.1336 9.65138C14.5051 9.3609 13.7955 9.29673 13.1252 9.46976V7.12601C13.1252 6.33037 12.8091 5.5673 12.2465 5.00469C11.6839 4.44208 10.9208 4.12601 10.1252 4.12601C9.32951 4.12601 8.56644 4.44208 8.00384 5.00469C7.44123 5.5673 7.12516 6.33037 7.12516 7.12601V13.3913C6.63332 12.8322 5.9511 12.4759 5.21117 12.3919C4.47124 12.3078 3.72649 12.502 3.12177 12.9366C2.51705 13.3712 2.09559 14.0151 1.93934 14.7433C1.7831 15.4714 1.90324 16.2316 2.27641 16.876L2.28766 16.8948L4.66047 20.8323C4.81463 21.0879 5.06401 21.2718 5.35375 21.3435C5.64349 21.4152 5.94987 21.3689 6.20547 21.2148C6.46107 21.0606 6.64497 20.8112 6.7167 20.5215C6.78843 20.2317 6.74213 19.9254 6.58797 19.6698L4.21891 15.7435C4.12045 15.5705 4.09476 15.3654 4.14751 15.1734C4.20025 14.9814 4.3271 14.8182 4.50016 14.7198C4.67321 14.6213 4.87829 14.5956 5.07028 14.6484C5.26227 14.7011 5.42545 14.828 5.52391 15.001L5.54359 15.0329L7.29484 17.8454C7.42398 18.053 7.61724 18.2129 7.84538 18.3009C8.07352 18.3889 8.32411 18.4001 8.55922 18.333C8.79432 18.2658 9.00114 18.1238 9.14837 17.9286C9.29559 17.7334 9.37521 17.4955 9.37516 17.251V7.12601C9.37516 6.9271 9.45417 6.73634 9.59483 6.59568C9.73548 6.45503 9.92624 6.37601 10.1252 6.37601C10.3241 6.37601 10.5148 6.45503 10.6555 6.59568C10.7961 6.73634 10.8752 6.9271 10.8752 7.12601V13.501C10.8752 13.7994 10.9937 14.0855 11.2047 14.2965C11.4156 14.5075 11.7018 14.626 12.0002 14.626C12.2985 14.626 12.5847 14.5075 12.7957 14.2965C13.0066 14.0855 13.1252 13.7994 13.1252 13.501V12.376C13.1252 12.1771 13.2042 11.9863 13.3448 11.8457C13.4855 11.705 13.6762 11.626 13.8752 11.626C14.0741 11.626 14.2648 11.705 14.4055 11.8457C14.5461 11.9863 14.6252 12.1771 14.6252 12.376V14.251C14.6252 14.5494 14.7437 14.8355 14.9547 15.0465C15.1656 15.2575 15.4518 15.376 15.7502 15.376C16.0485 15.376 16.3347 15.2575 16.5457 15.0465C16.7566 14.8355 16.8752 14.5494 16.8752 14.251V13.876C16.8752 13.6771 16.9542 13.4863 17.0948 13.3457C17.2355 13.205 17.4262 13.126 17.6252 13.126C17.8241 13.126 18.0148 13.205 18.1555 13.3457C18.2961 13.4863 18.3752 13.6771 18.3752 13.876V17.251C18.3752 18.2898 18.2552 19.2826 18.0545 19.906C18.0063 20.0474 17.9868 20.1969 17.9969 20.3459C18.0071 20.4949 18.0469 20.6403 18.1139 20.7738C18.1809 20.9073 18.2738 21.0261 18.3871 21.1233C18.5005 21.2205 18.6321 21.2941 18.7743 21.3399C18.9164 21.3857 19.0662 21.4028 19.215 21.39C19.3638 21.3773 19.5086 21.3351 19.6409 21.2659C19.7733 21.1967 19.8905 21.1018 19.9857 20.9867C20.081 20.8717 20.1524 20.7389 20.1958 20.596C20.477 19.7373 20.6252 18.5495 20.6252 17.251V13.876C20.6252 13.0804 20.3091 12.3173 19.7465 11.7547C19.1839 11.1921 18.4208 10.876 17.6252 10.876Z" fill="#130032"/>
</g>
<defs>
<clipPath id="clip0_7_18682">
<rect width="24" height="24" fill="white"/>
</clipPath>
</defs>
</svg>
