<svg width="24" height="24" viewBox="0 0 24 24" fill="none" xmlns="http://www.w3.org/2000/svg">
<path d="M21.8212 12.9263C21.4905 12.6729 21.1054 12.4999 20.6962 12.421C22.1428 10.7757 22.875 9.12849 22.875 7.50006C22.875 4.81224 20.7103 2.62506 18.0506 2.62506C16.7698 2.61891 15.5384 3.11934 14.625 4.01724C13.7116 3.11934 12.4802 2.61891 11.1994 2.62506C8.53969 2.62506 6.375 4.81224 6.375 7.50006C6.375 8.45162 6.63 9.40318 7.14563 10.3782C6.73405 10.548 6.36027 10.7979 6.04594 11.1132L4.03125 13.1251H1.875C1.37772 13.1251 0.900805 13.3226 0.549175 13.6742C0.197544 14.0259 0 14.5028 0 15.0001L0 18.7501C0 19.2473 0.197544 19.7243 0.549175 20.0759C0.900805 20.4275 1.37772 20.6251 1.875 20.6251H11.25C11.342 20.6251 11.4336 20.6138 11.5228 20.5913L17.5228 19.0913C17.5802 19.0772 17.6363 19.0584 17.6906 19.0351L21.33 17.4844C21.3516 17.476 21.3722 17.4666 21.3928 17.4563C21.7998 17.2527 22.1483 16.9488 22.4056 16.5734C22.6628 16.1979 22.8202 15.7632 22.863 15.3101C22.9059 14.857 22.8328 14.4005 22.6505 13.9834C22.4682 13.5664 22.1829 13.2026 21.8212 12.9263ZM11.1994 4.87506C11.7063 4.86724 12.2039 5.01078 12.6288 5.28734C13.0537 5.5639 13.3864 5.96089 13.5844 6.42756C13.6691 6.63389 13.8133 6.81037 13.9986 6.93458C14.1839 7.05878 14.4019 7.12509 14.625 7.12509C14.8481 7.12509 15.0661 7.05878 15.2514 6.93458C15.4367 6.81037 15.5809 6.63389 15.6656 6.42756C15.8636 5.96089 16.1963 5.5639 16.6212 5.28734C17.0461 5.01078 17.5437 4.86724 18.0506 4.87506C19.4456 4.87506 20.625 6.07693 20.625 7.50006C20.625 9.19318 19.2188 11.1413 16.5581 13.1429L16.125 13.2432C16.125 13.2038 16.125 13.1644 16.125 13.1251C16.125 12.3294 15.8089 11.5663 15.2463 11.0037C14.6837 10.4411 13.9206 10.1251 13.125 10.1251H9.62906C8.94563 9.16506 8.625 8.32224 8.625 7.50006C8.625 6.07693 9.80437 4.87506 11.1994 4.87506ZM2.25 15.3751H3.375V18.3751H2.25V15.3751ZM20.4075 15.4322L16.8909 16.9322L11.1112 18.3751H5.625V14.7188L7.63688 12.7069C7.74087 12.6018 7.86468 12.5183 8.00114 12.4614C8.1376 12.4044 8.284 12.3751 8.43188 12.3751H13.125C13.3239 12.3751 13.5147 12.4541 13.6553 12.5947C13.796 12.7354 13.875 12.9261 13.875 13.1251C13.875 13.324 13.796 13.5147 13.6553 13.6554C13.5147 13.796 13.3239 13.8751 13.125 13.8751H10.5C10.2016 13.8751 9.91548 13.9936 9.7045 14.2046C9.49353 14.4155 9.375 14.7017 9.375 15.0001C9.375 15.2984 9.49353 15.5846 9.7045 15.7956C9.91548 16.0065 10.2016 16.1251 10.5 16.1251H13.5C13.5848 16.1251 13.6694 16.1156 13.7522 16.0969L20.0334 14.6522L20.0775 14.641C20.1415 14.6236 20.2087 14.6211 20.2739 14.6339C20.339 14.6466 20.4003 14.6742 20.4531 14.7144C20.5058 14.7547 20.5486 14.8065 20.5781 14.866C20.6076 14.9254 20.623 14.9909 20.6231 15.0572C20.6236 15.1332 20.6039 15.208 20.566 15.2739C20.5281 15.3398 20.4734 15.3944 20.4075 15.4322Z" fill="#130032"/>
</svg>
