<svg width="24" height="24" viewBox="0 0 24 24" fill="none" xmlns="http://www.w3.org/2000/svg">
<path d="M20.222 2.62467C19.9252 2.11089 19.4828 1.69663 18.9507 1.43427C18.4186 1.17191 17.8206 1.07322 17.2324 1.15068C16.6441 1.22815 16.0921 1.47829 15.646 1.86948C15.2 2.26067 14.8799 2.77534 14.7263 3.34842L13.8751 6.52842L13.0229 3.34935C12.8073 2.59173 12.3024 1.94929 11.6172 1.56075C10.932 1.17222 10.1215 1.06876 9.36062 1.27273C8.59979 1.47669 7.9497 1.97171 7.55072 2.65089C7.15175 3.33007 7.0359 4.13893 7.2282 4.90279L7.95195 7.60467L7.71852 7.55967C7.13781 7.44323 6.53564 7.50129 5.98788 7.72652C5.44011 7.95175 4.97127 8.33408 4.64044 8.82532C4.3096 9.31657 4.13157 9.89474 4.12878 10.487C4.12599 11.0793 4.29857 11.6591 4.62477 12.1534C4.68383 12.2425 4.74758 12.3278 4.81227 12.4094C4.49835 12.7883 4.28348 13.2393 4.18695 13.7219C4.14538 13.9251 4.12496 14.1322 4.12602 14.3397V14.9997C4.12602 17.0882 4.9557 19.0913 6.43255 20.5681C7.9094 22.045 9.91244 22.8747 12.001 22.8747H12.061C16.3735 22.8428 19.876 19.2719 19.876 14.9153V14.6022C19.8751 13.42 19.5008 12.2683 18.8063 11.3115L20.522 4.90279C20.6249 4.52207 20.6514 4.12473 20.5999 3.73371C20.5484 3.34268 20.42 2.96574 20.222 2.62467ZM16.8995 3.93154C16.9509 3.73934 17.0766 3.57546 17.2489 3.47595C17.4212 3.37644 17.626 3.34945 17.8182 3.40092C18.0104 3.45238 18.1743 3.5781 18.2738 3.75039C18.3733 3.92269 18.4003 4.12747 18.3488 4.31967L16.9191 9.65592C16.4765 9.41623 16.0034 9.23743 15.5129 9.12435L16.8995 3.93154ZM9.47633 3.74967C9.55056 3.62138 9.66115 3.51796 9.79412 3.45247C9.92709 3.38699 10.0765 3.36237 10.2234 3.38173C10.3704 3.40109 10.5083 3.46356 10.6198 3.56125C10.7313 3.65893 10.8113 3.78746 10.8498 3.9306L12.1257 8.69123C11.8677 8.74687 11.6181 8.83606 11.3832 8.95654C11.1247 8.64567 10.8057 8.39051 10.4457 8.20654L9.40508 4.32248C9.37853 4.22703 9.37116 4.12726 9.38339 4.02894C9.39562 3.93063 9.42721 3.83571 9.47633 3.74967ZM6.49977 14.7315C6.41864 14.6084 6.3756 14.4641 6.37603 14.3167C6.37645 14.1693 6.42032 14.0252 6.50214 13.9026C6.58397 13.78 6.70013 13.6842 6.8361 13.6272C6.97207 13.5702 7.12182 13.5545 7.26664 13.5822L8.21258 13.7697C8.40733 13.8094 8.57834 13.9249 8.68803 14.0906C8.79772 14.2564 8.83712 14.4589 8.79758 14.6537C8.77782 14.7507 8.73908 14.8427 8.6836 14.9246C8.62811 15.0065 8.55698 15.0766 8.47428 15.1309C8.39159 15.1852 8.29897 15.2226 8.20176 15.2409C8.10456 15.2593 8.00468 15.2582 7.90789 15.2378L6.97039 15.0503C6.77777 15.0099 6.60874 14.8954 6.49977 14.7315ZM6.39102 10.3506C6.4107 10.2541 6.4492 10.1624 6.50433 10.0807C6.55946 9.99907 6.63014 9.92909 6.71232 9.87476C6.79451 9.82044 6.88659 9.78284 6.98331 9.76411C7.08003 9.74538 7.17949 9.74588 7.27602 9.7656H7.2882L9.23164 10.1406C9.3281 10.1607 9.41966 10.1995 9.5011 10.255C9.58254 10.3104 9.65226 10.3814 9.70627 10.4638C9.76029 10.5462 9.79755 10.6384 9.81593 10.7352C9.8343 10.832 9.83343 10.9315 9.81336 11.0279C9.79329 11.1244 9.75442 11.216 9.69897 11.2974C9.64351 11.3788 9.57256 11.4486 9.49017 11.5026C9.40777 11.5566 9.31554 11.5939 9.21874 11.6122C9.12194 11.6306 9.02248 11.6297 8.92602 11.6097H8.91383L6.97133 11.2347C6.77744 11.1938 6.60757 11.078 6.49884 10.9123C6.39011 10.7467 6.35135 10.5447 6.39102 10.3506ZM17.6251 14.9153C17.6251 18.0409 15.122 20.6022 12.0441 20.6247C10.9567 20.6323 9.89038 20.325 8.97377 19.7399C8.05715 19.1549 7.32946 18.317 6.87852 17.3275L7.46352 17.4447C7.93424 17.541 8.4212 17.5228 8.88343 17.3917C9.34567 17.2606 9.76965 17.0204 10.1197 16.6913C10.4698 16.3621 10.7357 15.9538 10.895 15.5005C11.0543 15.0472 11.1025 14.5623 11.0354 14.0865C11.3735 14.3218 11.7565 14.4848 12.1604 14.5656L12.4004 14.6134C12.3854 14.7417 12.377 14.8706 12.3751 14.9997C12.3729 15.9816 12.7579 16.9248 13.4466 17.6247C13.6555 17.8378 13.9404 17.9591 14.2388 17.9621C14.5372 17.9651 14.8245 17.8495 15.0376 17.6406C15.2507 17.4317 15.3721 17.1468 15.375 16.8484C15.378 16.5501 15.2624 16.2628 15.0535 16.0497C14.8292 15.821 14.684 15.5266 14.6391 15.2094C14.5943 14.8923 14.6521 14.5691 14.8041 14.2872C14.8882 14.1323 14.9346 13.96 14.9399 13.7839C14.9451 13.6078 14.9089 13.433 14.8342 13.2735C14.7595 13.114 14.6484 12.9742 14.5098 12.8655C14.3712 12.7567 14.209 12.6821 14.0363 12.6475L12.6001 12.3606C12.5036 12.3406 12.412 12.3018 12.3306 12.2464C12.2491 12.191 12.1794 12.1201 12.1253 12.0377C12.0712 11.9554 12.0339 11.8632 12.0155 11.7664C11.9971 11.6696 11.9979 11.5702 12.0179 11.4737C12.0379 11.3773 12.0767 11.2857 12.1321 11.2042C12.1875 11.1228 12.2584 11.053 12.3408 10.999C12.4231 10.9449 12.5153 10.9076 12.6121 10.8892C12.7088 10.8707 12.8083 10.8715 12.9048 10.8915L14.911 11.2928C15.6755 11.4471 16.3632 11.8608 16.8578 12.4638C17.3524 13.0669 17.6234 13.8223 17.6251 14.6022V14.9153Z" fill="#130032"/>
</svg>
