<svg width="24" height="24" viewBox="0 0 24 24" fill="none" xmlns="http://www.w3.org/2000/svg">
<path d="M21 5.625H3C2.50272 5.625 2.02581 5.82254 1.67417 6.17417C1.32254 6.52581 1.125 7.00272 1.125 7.5V16.5C1.125 16.9973 1.32254 17.4742 1.67417 17.8258C2.02581 18.1775 2.50272 18.375 3 18.375H21C21.4973 18.375 21.9742 18.1775 22.3258 17.8258C22.6775 17.4742 22.875 16.9973 22.875 16.5V7.5C22.875 7.00272 22.6775 6.52581 22.3258 6.17417C21.9742 5.82254 21.4973 5.625 21 5.625ZM20.625 16.125H3.375V7.875H20.625V16.125ZM15.375 12C15.375 11.7033 15.463 11.4133 15.6278 11.1666C15.7926 10.92 16.0269 10.7277 16.301 10.6142C16.5751 10.5006 16.8767 10.4709 17.1676 10.5288C17.4586 10.5867 17.7259 10.7296 17.9357 10.9393C18.1454 11.1491 18.2883 11.4164 18.3462 11.7074C18.4041 11.9983 18.3744 12.2999 18.2608 12.574C18.1473 12.8481 17.955 13.0824 17.7084 13.2472C17.4617 13.412 17.1717 13.5 16.875 13.5C16.4772 13.5 16.0956 13.342 15.8143 13.0607C15.533 12.7794 15.375 12.3978 15.375 12Z" fill="#130032"/>
</svg>
