<svg width="24" height="24" viewBox="0 0 24 24" fill="none" xmlns="http://www.w3.org/2000/svg">
<path d="M19.1162 21.6111C19.1346 21.7578 19.1239 21.9066 19.0847 22.0491C19.0456 22.1916 18.9788 22.325 18.888 22.4416C18.7973 22.5583 18.6845 22.6559 18.556 22.729C18.4276 22.802 18.286 22.8491 18.1393 22.8674C18.093 22.8729 18.0463 22.8757 17.9996 22.8758C17.7257 22.8754 17.4614 22.7751 17.2562 22.5937C17.051 22.4123 16.919 22.1623 16.885 21.8905L16.135 15.8905C16.1104 15.6939 16.1383 15.4943 16.2156 15.3119C16.293 15.1295 16.4172 14.9708 16.5756 14.8518C17.3863 14.2414 18.0402 13.4471 18.4834 12.5343C18.9267 11.6214 19.1464 10.6163 19.1246 9.60175C19.1246 9.52582 19.1181 9.45175 19.1143 9.37675H17.7765L15.6109 11.9755C15.703 12.2236 15.75 12.4862 15.7496 12.7508C15.751 13.2141 15.6097 13.6665 15.345 14.0467C15.0803 14.4269 14.7051 14.7164 14.2701 14.8759C13.8352 15.0354 13.3617 15.0572 12.914 14.9383C12.4663 14.8195 12.066 14.5657 11.7675 14.2114C11.469 13.8572 11.2867 13.4196 11.2455 12.9582C11.2042 12.4968 11.306 12.0339 11.537 11.6323C11.7679 11.2307 12.1169 10.91 12.5364 10.7136C12.956 10.5172 13.4258 10.4547 13.8821 10.5346L16.3853 7.53456C16.4905 7.40713 16.6225 7.30444 16.7719 7.23379C16.9213 7.16315 17.0844 7.12628 17.2496 7.12581H18.5537C18.0717 6.06373 17.3083 5.15374 16.3463 4.49439C15.3842 3.83505 14.26 3.45147 13.0956 3.38519C12.9806 3.37894 12.8653 3.37581 12.7496 3.37581V5.17863C13.1786 5.42628 13.5138 5.80855 13.7034 6.26615C13.8929 6.72375 13.9262 7.2311 13.798 7.70953C13.6698 8.18795 13.3873 8.61071 12.9944 8.91223C12.6014 9.21375 12.1199 9.37718 11.6246 9.37718C11.1293 9.37718 10.6479 9.21375 10.2549 8.91223C9.86198 8.61071 9.5795 8.18795 9.45131 7.70953C9.32311 7.2311 9.35637 6.72375 9.54591 6.26615C9.73546 5.80855 10.0707 5.42628 10.4996 5.17863V3.78269C9.2877 4.2414 8.244 5.058 7.50721 6.12401C6.77042 7.19001 6.3754 8.45496 6.37464 9.75081C6.37451 9.93167 6.33077 10.1098 6.24714 10.2702L4.2662 14.0774L6.46839 15.0852C6.66423 15.1749 6.83017 15.319 6.9465 15.5004C7.06284 15.6817 7.12467 15.8926 7.12464 16.108V19.1258H11.2496C11.548 19.1258 11.8342 19.2443 12.0451 19.4553C12.2561 19.6663 12.3746 19.9524 12.3746 20.2508C12.3746 20.5492 12.2561 20.8353 12.0451 21.0463C11.8342 21.2573 11.548 21.3758 11.2496 21.3758H6.74964C6.25236 21.3758 5.77545 21.1783 5.42382 20.8266C5.07219 20.475 4.87464 19.9981 4.87464 19.5008V16.8299L2.9462 15.9468C2.93398 15.9419 2.92208 15.9363 2.91058 15.9299C2.48315 15.7159 2.15359 15.3467 1.98927 14.8978C1.82495 14.4489 1.83827 13.9543 2.02652 13.5149C2.03687 13.4889 2.04876 13.4635 2.06214 13.4389L4.12464 9.46675C4.16236 8.3187 4.42903 7.18975 4.90899 6.14616C5.38894 5.10257 6.07252 4.16536 6.9196 3.38954C7.76668 2.61372 8.76019 2.01492 9.84183 1.62828C10.9235 1.24164 12.0715 1.07495 13.2184 1.138C17.6903 1.37331 21.2743 5.068 21.3746 9.54831C21.402 10.808 21.1539 12.0584 20.6479 13.2123C20.1419 14.3662 19.3901 15.3957 18.445 16.2289L19.1162 21.6111Z" fill="#130032"/>
</svg>
