<svg width="24" height="24" viewBox="0 0 24 24" fill="none" xmlns="http://www.w3.org/2000/svg">
<path d="M15.3752 7.5C15.3752 7.20163 15.4937 6.91548 15.7047 6.7045C15.9157 6.49353 16.2019 6.375 16.5002 6.375H22.5002C22.7986 6.375 23.0847 6.49353 23.2957 6.7045C23.5067 6.91548 23.6252 7.20163 23.6252 7.5C23.6252 7.79837 23.5067 8.08452 23.2957 8.2955C23.0847 8.50647 22.7986 8.625 22.5002 8.625H16.5002C16.2019 8.625 15.9157 8.50647 15.7047 8.2955C15.4937 8.08452 15.3752 7.79837 15.3752 7.5ZM22.5002 15.375H16.5002C16.2019 15.375 15.9157 15.4935 15.7047 15.7045C15.4937 15.9155 15.3752 16.2016 15.3752 16.5C15.3752 16.7984 15.4937 17.0845 15.7047 17.2955C15.9157 17.5065 16.2019 17.625 16.5002 17.625H22.5002C22.7986 17.625 23.0847 17.5065 23.2957 17.2955C23.5067 17.0845 23.6252 16.7984 23.6252 16.5C23.6252 16.2016 23.5067 15.9155 23.2957 15.7045C23.0847 15.4935 22.7986 15.375 22.5002 15.375ZM22.5002 10.875H16.5002C16.2019 10.875 15.9157 10.9935 15.7047 11.2045C15.4937 11.4155 15.3752 11.7016 15.3752 12C15.3752 12.2984 15.4937 12.5845 15.7047 12.7955C15.9157 13.0065 16.2019 13.125 16.5002 13.125H22.5002C22.7986 13.125 23.0847 13.0065 23.2957 12.7955C23.5067 12.5845 23.6252 12.2984 23.6252 12C23.6252 11.7016 23.5067 11.4155 23.2957 11.2045C23.0847 10.9935 22.7986 10.875 22.5002 10.875ZM13.8752 6V18C13.8752 18.4973 13.6777 18.9742 13.326 19.3258C12.9744 19.6775 12.4975 19.875 12.0002 19.875H8.25022C7.21107 19.875 6.18219 19.6694 5.22288 19.27C4.26358 18.8705 3.39281 18.2852 2.66077 17.5476C1.92873 16.8101 1.3499 15.935 0.957633 14.9727C0.565368 14.0104 0.367428 12.9801 0.375222 11.9409C0.407097 7.63125 3.97803 4.125 8.3346 4.125H12.0002C12.4975 4.125 12.9744 4.32254 13.326 4.67417C13.6777 5.02581 13.8752 5.50272 13.8752 6ZM11.6252 6.375H8.3346C5.20991 6.375 2.64866 8.87906 2.62522 11.9569C2.61953 12.6992 2.76082 13.4353 3.04096 14.1227C3.32109 14.8102 3.73452 15.4354 4.25742 15.9623C4.78032 16.4892 5.40234 16.9074 6.08762 17.1927C6.7729 17.4781 7.50789 17.625 8.25022 17.625H11.6252V6.375Z" fill="#130032"/>
</svg>
