<svg width="24" height="24" viewBox="0 0 24 24" fill="none" xmlns="http://www.w3.org/2000/svg">
<path d="M19.1934 4.86142C17.7792 3.43817 15.9743 2.46686 14.0074 2.07063C12.0405 1.6744 10.0003 1.87108 8.1453 2.63574C6.29033 3.4004 4.70416 4.69861 3.58787 6.3658C2.47158 8.03299 1.87543 9.99408 1.875 12.0005V17.2505C1.875 17.9467 2.15156 18.6144 2.64384 19.1066C3.13613 19.5989 3.80381 19.8755 4.5 19.8755H6C6.69619 19.8755 7.36387 19.5989 7.85616 19.1066C8.34844 18.6144 8.625 17.9467 8.625 17.2505V13.5005C8.625 12.8043 8.34844 12.1366 7.85616 11.6443C7.36387 11.152 6.69619 10.8755 6 10.8755H4.20375C4.47525 9.0013 5.41264 7.28758 6.84434 6.04802C8.27603 4.80846 10.1063 4.12597 12 4.12548H12.06C13.9453 4.13355 15.7647 4.82014 17.1853 6.05963C18.6059 7.29913 19.5327 9.00866 19.7962 10.8755H18C17.3038 10.8755 16.6361 11.152 16.1438 11.6443C15.6516 12.1366 15.375 12.8043 15.375 13.5005V17.2505C15.375 17.9467 15.6516 18.6144 16.1438 19.1066C16.6361 19.5989 17.3038 19.8755 18 19.8755H19.8375C19.7511 20.299 19.5209 20.6796 19.1861 20.953C18.8512 21.2263 18.4322 21.3756 18 21.3755H12.75C12.4516 21.3755 12.1655 21.494 11.9545 21.705C11.7435 21.916 11.625 22.2021 11.625 22.5005C11.625 22.7988 11.7435 23.085 11.9545 23.296C12.1655 23.507 12.4516 23.6255 12.75 23.6255H18C19.0936 23.6242 20.1421 23.1892 20.9154 22.4159C21.6888 21.6426 22.1238 20.5941 22.125 19.5005V12.0005C22.1302 10.6761 21.8739 9.36382 21.3708 8.13875C20.8677 6.91367 20.1278 5.79994 19.1934 4.86142ZM6 13.1255C6.09946 13.1255 6.19484 13.165 6.26517 13.2353C6.33549 13.3056 6.375 13.401 6.375 13.5005V17.2505C6.375 17.3499 6.33549 17.4453 6.26517 17.5156C6.19484 17.586 6.09946 17.6255 6 17.6255H4.5C4.40054 17.6255 4.30516 17.586 4.23484 17.5156C4.16451 17.4453 4.125 17.3499 4.125 17.2505V13.1255H6ZM17.625 17.2505V13.5005C17.625 13.401 17.6645 13.3056 17.7348 13.2353C17.8052 13.165 17.9005 13.1255 18 13.1255H19.875V17.6255H18C17.9005 17.6255 17.8052 17.586 17.7348 17.5156C17.6645 17.4453 17.625 17.3499 17.625 17.2505Z" fill="#130032"/>
</svg>
