<svg width="24" height="24" viewBox="0 0 24 24" fill="none" xmlns="http://www.w3.org/2000/svg">
<path d="M21.1727 5.07293C20.084 3.98747 18.61 3.37691 17.0727 3.37463C15.5353 3.37235 14.0595 3.97852 12.9677 5.06074L12.0002 5.95887L11.0327 5.06074C9.94112 3.97194 8.46178 3.36135 6.92005 3.36329C5.37833 3.36522 3.90051 3.97952 2.81172 5.07105C1.72292 6.16259 1.11233 7.64193 1.11426 9.18366C1.1162 10.7254 1.7305 12.2032 2.82203 13.292L11.1986 21.7904C11.3033 21.8967 11.428 21.9811 11.5657 22.0388C11.7033 22.0964 11.851 22.126 12.0002 22.126C12.1493 22.126 12.297 22.0964 12.4347 22.0388C12.5723 21.9811 12.697 21.8967 12.8017 21.7904L21.1727 13.2976C21.7127 12.7578 22.141 12.117 22.4333 11.4116C22.7255 10.7062 22.876 9.9502 22.876 9.18668C22.876 8.42316 22.7255 7.66712 22.4333 6.96176C22.141 6.25639 21.7127 5.61551 21.1727 5.07574V5.07293ZM19.5789 11.7095L12.0002 19.3951L4.41859 11.7029C3.75278 11.0344 3.3794 10.1289 3.38038 9.1854C3.38135 8.24184 3.75661 7.33721 4.42381 6.67002C5.091 6.00282 5.99563 5.62757 6.93918 5.62659C7.88274 5.62561 8.78814 5.99899 9.45672 6.6648C9.46609 6.67418 9.47547 6.68355 9.48578 6.69199L11.2333 8.31949C11.4415 8.5135 11.7155 8.62137 12.0002 8.62137C12.2848 8.62137 12.5588 8.5135 12.767 8.31949L14.5145 6.69199C14.5248 6.68355 14.5342 6.67418 14.5436 6.6648C14.8748 6.33437 15.2679 6.0724 15.7004 5.89388C16.1329 5.71535 16.5963 5.62376 17.0642 5.62432C17.532 5.62489 17.9952 5.71761 18.4273 5.89718C18.8593 6.07675 19.2517 6.33966 19.5822 6.6709C19.9126 7.00214 20.1746 7.39522 20.3531 7.82769C20.5316 8.26017 20.6232 8.72358 20.6227 9.19146C20.6221 9.65933 20.5294 10.1225 20.3498 10.5546C20.1702 10.9866 19.9073 11.3791 19.5761 11.7095H19.5789Z" fill="#130032"/>
</svg>
