<svg width="24" height="24" viewBox="0 0 24 24" fill="none" xmlns="http://www.w3.org/2000/svg">
<path d="M16.6875 3.37518C15.8746 3.3731 15.0694 3.53219 14.3184 3.84324C13.5674 4.1543 12.8855 4.61114 12.3122 5.18737L12 5.49956L11.6878 5.18737C10.8225 4.322 9.71995 3.73266 8.51967 3.4939C7.31939 3.25514 6.07526 3.37768 4.94462 3.84601C3.81398 4.31434 2.84761 5.10744 2.16772 6.125C1.48784 7.14256 1.12496 8.33888 1.125 9.56268C1.125 16.3446 11.0447 21.7633 11.4666 21.9911C11.6305 22.0794 11.8138 22.1256 12 22.1256C12.1862 22.1256 12.3695 22.0794 12.5334 21.9911C12.9553 21.7633 22.875 16.3446 22.875 9.56268C22.873 7.92226 22.2205 6.3496 21.0605 5.18965C19.9006 4.0297 18.3279 3.37717 16.6875 3.37518ZM16.1728 16.7214C14.8671 17.8294 13.4714 18.8266 12 19.7027C10.5286 18.8266 9.13287 17.8294 7.82719 16.7214C5.79562 14.9786 3.375 12.3208 3.375 9.56268C3.37494 8.78388 3.60584 8.02255 4.0385 7.37498C4.47115 6.7274 5.08613 6.22268 5.80565 5.92464C6.52516 5.62659 7.31691 5.54862 8.08075 5.70057C8.84458 5.85252 9.5462 6.22758 10.0969 6.77831L10.4062 7.09049L9.70125 7.79549C9.59637 7.90001 9.51315 8.0242 9.45637 8.16095C9.39959 8.29769 9.37036 8.4443 9.37036 8.59237C9.37036 8.74044 9.39959 8.88704 9.45637 9.02379C9.51315 9.16054 9.59637 9.28473 9.70125 9.38924L11.7356 11.4236L10.4513 12.7071C10.3466 12.8117 10.2636 12.9359 10.207 13.0727C10.1503 13.2094 10.1212 13.3559 10.1212 13.5039C10.1212 13.6519 10.1503 13.7985 10.207 13.9352C10.2636 14.0719 10.3466 14.1962 10.4513 14.3008C10.5559 14.4055 10.6801 14.4885 10.8169 14.5451C10.9536 14.6017 11.1001 14.6309 11.2481 14.6309C11.3961 14.6309 11.5427 14.6017 11.6794 14.5451C11.8161 14.4885 11.9404 14.4055 12.045 14.3008L14.1244 12.2205C14.2293 12.116 14.3125 11.9918 14.3693 11.855C14.426 11.7183 14.4553 11.5717 14.4553 11.4236C14.4553 11.2756 14.426 11.1289 14.3693 10.9922C14.3125 10.8555 14.2293 10.7313 14.1244 10.6267L12.0938 8.59049L13.9031 6.77831C14.4538 6.22758 15.1554 5.85252 15.9193 5.70057C16.6831 5.54862 17.4748 5.62659 18.1944 5.92464C18.9139 6.22268 19.5288 6.7274 19.9615 7.37498C20.3942 8.02255 20.6251 8.78388 20.625 9.56268C20.625 12.3208 18.2044 14.9786 16.1728 16.7214Z" fill="#130032"/>
</svg>
