<svg width="24" height="24" viewBox="0 0 24 24" fill="none" xmlns="http://www.w3.org/2000/svg">
<path d="M6.72775 13.875H2.97212C2.67375 13.875 2.38761 13.7565 2.17663 13.5455C1.96565 13.3345 1.84712 13.0484 1.84712 12.75C1.84712 12.4516 1.96565 12.1655 2.17663 11.9545C2.38761 11.7435 2.67375 11.625 2.97212 11.625H6.12493L7.29212 9.87563C7.39474 9.72092 7.53405 9.59402 7.69763 9.50623C7.86121 9.41844 8.04397 9.3725 8.22962 9.3725C8.41527 9.3725 8.59803 9.41844 8.76161 9.50623C8.92519 9.59402 9.0645 9.72092 9.16712 9.87563L11.2296 12.9694L11.7921 12.1256C11.895 11.9714 12.0345 11.845 12.198 11.7576C12.3616 11.6703 12.5442 11.6247 12.7296 11.625H14.9796C15.278 11.625 15.5641 11.7435 15.7751 11.9545C15.9861 12.1655 16.1046 12.4516 16.1046 12.75C16.1046 13.0484 15.9861 13.3345 15.7751 13.5455C15.5641 13.7565 15.278 13.875 14.9796 13.875H13.3296L12.1615 15.6244C12.0589 15.7791 11.9196 15.906 11.756 15.9938C11.5924 16.0816 11.4096 16.1275 11.224 16.1275C11.0383 16.1275 10.8556 16.0816 10.692 15.9938C10.5284 15.906 10.3891 15.7791 10.2865 15.6244L8.224 12.5306L7.6615 13.3744C7.55894 13.5281 7.4201 13.6542 7.25724 13.7415C7.09439 13.8288 6.91253 13.8747 6.72775 13.875ZM16.6793 3.37501C14.7931 3.37501 13.1168 4.11844 11.9852 5.39626C10.8509 4.11844 9.17743 3.37501 7.29025 3.37501C5.76648 3.37276 4.29546 3.93287 3.15906 4.948C2.02266 5.96312 1.30081 7.36188 1.13181 8.87626C1.09899 9.17376 1.18569 9.47211 1.37285 9.70568C1.56 9.93925 1.83228 10.0889 2.12978 10.1217C2.42728 10.1545 2.72563 10.0678 2.9592 9.88069C3.19277 9.69353 3.34243 9.42126 3.37525 9.12376C3.48318 8.16112 3.94218 7.27205 4.66445 6.62657C5.38672 5.9811 6.32158 5.62451 7.29025 5.62501C8.96181 5.62501 10.3606 6.50626 10.9418 7.92563C11.0258 8.13341 11.17 8.31137 11.3558 8.43667C11.5416 8.56198 11.7607 8.62892 11.9848 8.62892C12.2089 8.62892 12.4279 8.56198 12.6137 8.43667C12.7996 8.31137 12.9437 8.13341 13.0277 7.92563C13.609 6.50626 15.0077 5.62501 16.6793 5.62501C17.7245 5.62476 18.727 6.03925 19.4668 6.77749C20.2066 7.51572 20.6233 8.51736 20.6252 9.56251C20.6252 12.3206 18.2009 14.9784 16.1665 16.7213C14.8587 17.8297 13.4607 18.8273 11.9871 19.7034C10.9681 19.0988 8.67118 17.6409 6.68931 15.6975C6.58392 15.5938 6.45915 15.512 6.32212 15.4565C6.18508 15.4011 6.03847 15.3732 5.89065 15.3744C5.74283 15.3756 5.5967 15.4059 5.4606 15.4636C5.3245 15.5213 5.2011 15.6052 5.09743 15.7106C4.99377 15.816 4.91188 15.9408 4.85644 16.0778C4.801 16.2149 4.77309 16.3615 4.77431 16.5093C4.77553 16.6571 4.80585 16.8032 4.86354 16.9393C4.92124 17.0754 5.00517 17.1988 5.11056 17.3025C7.95962 20.0972 11.3121 21.915 11.4537 21.99C11.6179 22.078 11.8013 22.124 11.9876 22.124C12.1739 22.124 12.3573 22.078 12.5215 21.99C12.9377 21.7631 22.8752 16.3444 22.8752 9.56251C22.8723 7.92093 22.2183 6.34757 21.0567 5.18759C19.8951 4.02761 18.3209 3.37575 16.6793 3.37501Z" fill="#130032"/>
</svg>
