<svg width="24" height="24" viewBox="0 0 24 24" fill="none" xmlns="http://www.w3.org/2000/svg">
<path d="M21.1728 5.07739C20.0841 3.98867 18.6078 3.37641 17.0681 3.375C15.5284 3.3736 14.0511 3.98316 12.9603 5.06989L12.0003 5.99427L11.0403 5.06989C9.94806 3.98966 8.47256 3.38576 6.93635 3.39019C5.40014 3.39463 3.92815 4.00703 2.84213 5.09355C1.75611 6.18007 1.14437 7.65233 1.14064 9.18855C1.13691 10.7248 1.74148 12.2 2.82221 13.2918L11.1988 21.7893C11.3035 21.8956 11.4282 21.98 11.5658 22.0376C11.7035 22.0952 11.8511 22.1249 12.0003 22.1249C12.1495 22.1249 12.2972 22.0952 12.4348 22.0376C12.5724 21.98 12.6972 21.8956 12.8019 21.7893L21.1728 13.2974C22.2629 12.2073 22.8752 10.7289 22.8752 9.18739C22.8752 7.64585 22.2629 6.16744 21.1728 5.07739ZM19.5791 11.7121L12.0031 19.3996L4.42159 11.7121C4.08965 11.3815 3.82617 10.9887 3.64623 10.5562C3.46629 10.1237 3.37342 9.65994 3.37293 9.19149C3.37245 8.72303 3.46436 8.25908 3.6434 7.82619C3.82245 7.3933 4.08511 6.99998 4.41636 6.66873C4.74761 6.33748 5.14094 6.07481 5.57382 5.89577C6.00671 5.71672 6.47067 5.62481 6.93912 5.6253C7.40758 5.62578 7.87133 5.71866 8.30385 5.8986C8.73637 6.07854 9.12915 6.34202 9.45971 6.67395L9.47471 6.68895L10.3813 7.56177L9.72502 8.19552C9.61726 8.29918 9.53123 8.42329 9.47199 8.56059C9.41274 8.69788 9.38147 8.84561 9.37998 8.99514C9.3785 9.14467 9.40684 9.29299 9.46335 9.43143C9.51985 9.56988 9.6034 9.69567 9.70909 9.80145L11.9066 11.9999L11.2016 12.704C10.9902 12.9153 10.8715 13.2019 10.8715 13.5008C10.8715 13.7997 10.9902 14.0864 11.2016 14.2977C11.4129 14.509 11.6996 14.6278 11.9985 14.6278C12.2973 14.6278 12.584 14.509 12.7953 14.2977L14.2953 12.7977C14.4002 12.6932 14.4834 12.569 14.5402 12.4322C14.597 12.2955 14.6262 12.1489 14.6262 12.0008C14.6262 11.8528 14.597 11.7062 14.5402 11.5694C14.4834 11.4327 14.4002 11.3085 14.2953 11.204L12.1063 9.01489L14.5316 6.68333L14.5466 6.66833C14.8776 6.33694 15.2706 6.07407 15.7033 5.89475C16.136 5.71544 16.5997 5.6232 17.0681 5.62331C17.5365 5.62343 18.0002 5.71589 18.4328 5.89542C18.8654 6.07494 19.2583 6.33801 19.5891 6.66956C19.9199 7.0011 20.1821 7.39463 20.3607 7.82761C20.5392 8.2606 20.6307 8.72454 20.6297 9.1929C20.6288 9.66125 20.5355 10.1248 20.3552 10.5571C20.175 10.9894 19.9112 11.3818 19.5791 11.7121Z" fill="#130032"/>
</svg>
