<svg width="24" height="24" viewBox="0 0 24 24" fill="none" xmlns="http://www.w3.org/2000/svg">
<path d="M21.15 5.87225L12.9 1.35631C12.6243 1.20457 12.3147 1.125 12 1.125C11.6853 1.125 11.3757 1.20457 11.1 1.35631L2.85 5.87225C2.5548 6.03377 2.3085 6.27175 2.13695 6.56124C1.9654 6.85073 1.87492 7.18106 1.875 7.51756V16.4819C1.87492 16.8184 1.9654 17.1488 2.13695 17.4382C2.3085 17.7277 2.5548 17.9657 2.85 18.1272L11.1 22.6432C11.3756 22.7951 11.6853 22.8748 12 22.8748C12.3147 22.8748 12.6244 22.7951 12.9 22.6432L21.15 18.1272C21.4452 17.9657 21.6915 17.7277 21.863 17.4382C22.0346 17.1488 22.1251 16.8184 22.125 16.4819V7.51756C22.1251 7.18106 22.0346 6.85073 21.863 6.56124C21.6915 6.27175 21.4452 6.03377 21.15 5.87225ZM19.875 16.2597L12 20.5722L4.125 16.2597V7.73975L12 3.42725L19.875 7.73975V16.2597Z" fill="#130032"/>
</svg>
