<svg width="24" height="24" viewBox="0 0 24 24" fill="none" xmlns="http://www.w3.org/2000/svg">
<path d="M19.1597 4.83688C17.5035 3.18057 15.3242 2.14972 12.9932 1.91994C10.6622 1.69017 8.32366 2.27569 6.37593 3.57676C4.42821 4.87782 2.99183 6.81394 2.3115 9.05527C1.63117 11.2966 1.74898 13.7045 2.64485 15.8687C3.54073 18.0329 5.15925 19.8195 7.22468 20.9243C9.29011 22.029 11.6747 22.3834 13.9721 21.9272C16.2696 21.471 18.3378 20.2323 19.8244 18.4222C21.311 16.6121 22.124 14.3426 22.125 12.0003C22.125 9.31388 21.0584 6.73734 19.1597 4.83688ZM13.125 12.7503H10.875V10.4431L13.125 9.31813V12.7503ZM9.375 19.43V15.0003H14.625V19.43C12.9256 20.025 11.0744 20.025 9.375 19.43ZM17.5688 17.57C17.3497 17.7881 17.118 17.9931 16.875 18.1841V14.6253C16.8751 14.1931 16.7258 13.7741 16.4525 13.4392C16.1791 13.1044 15.7985 12.8743 15.375 12.7878V7.50032C15.375 7.30854 15.3259 7.11995 15.2325 6.95245C15.1391 6.78496 15.0044 6.64413 14.8412 6.54334C14.6781 6.44255 14.4919 6.38515 14.3003 6.37658C14.1087 6.36801 13.9181 6.40856 13.7466 6.49438L9.24656 8.74438C9.0598 8.83784 8.90274 8.98144 8.79296 9.1591C8.68318 9.33677 8.62503 9.54148 8.625 9.75032V12.7888C8.20165 12.8752 7.82113 13.1052 7.54781 13.4398C7.27449 13.7745 7.12513 14.1932 7.125 14.6253V18.1878C6.88197 17.9968 6.65033 17.7918 6.43125 17.5738C5.32999 16.4724 4.58005 15.0692 4.27626 13.5416C3.97247 12.014 4.12846 10.4307 4.72453 8.99176C5.32059 7.55284 6.32995 6.32298 7.62497 5.4577C8.91999 4.59242 10.4425 4.13058 12 4.13058C13.5575 4.13058 15.08 4.59242 16.375 5.4577C17.6701 6.32298 18.6794 7.55284 19.2755 8.99176C19.8715 10.4307 20.0275 12.014 19.7237 13.5416C19.42 15.0692 18.67 16.4724 17.5688 17.5738V17.57Z" fill="#130032"/>
</svg>
