<svg width="24" height="24" viewBox="0 0 24 24" fill="none" xmlns="http://www.w3.org/2000/svg">
<g clip-path="url(#clip0_7_18658)">
<path d="M21.3684 14.2793L17.0728 13.2322L6.79594 2.95434C6.68847 2.84691 6.56034 2.76237 6.4193 2.70582C6.27827 2.64926 6.12723 2.62187 5.97531 2.62528C5.8234 2.6287 5.67374 2.66286 5.53539 2.7257C5.39704 2.78854 5.27285 2.87875 5.17031 2.9909C3.045 5.31403 1.875 8.25028 1.875 11.2503V18.0003C1.875 18.4976 2.07254 18.9745 2.42417 19.3261C2.77581 19.6777 3.25272 19.8753 3.75 19.8753H6.75C6.99623 19.8753 7.24005 19.8268 7.46753 19.7325C7.69502 19.6383 7.90172 19.5002 8.07583 19.3261C8.24994 19.152 8.38805 18.9453 8.48227 18.7178C8.5765 18.4903 8.625 18.2465 8.625 18.0003V14.09L8.72531 14.1565C10.3674 15.2834 11.6423 16.8677 12.3919 18.7128C12.5323 19.058 12.773 19.3532 13.0828 19.5604C13.3926 19.7676 13.7573 19.8773 14.13 19.8753H22.125C22.6223 19.8753 23.0992 19.6777 23.4508 19.3261C23.8025 18.9745 24 18.4976 24 18.0003V17.5568C24.0022 16.792 23.7422 16.0495 23.2633 15.4531C22.7845 14.8567 22.1157 14.4425 21.3684 14.2793ZM6.375 17.6253H4.125V12.4381C4.89242 12.5229 5.64745 12.6962 6.375 12.9546V17.6253ZM21.75 17.6253H14.3766C13.4494 15.474 11.9326 13.6289 10.0013 12.3031C8.27642 11.1117 6.27549 10.3814 4.18875 10.1815C4.39601 8.45789 5.04834 6.81788 6.08156 5.42278L15.7041 15.0462C15.8502 15.1917 16.0334 15.2945 16.2338 15.3434L20.8463 16.4684L20.8697 16.474C21.1189 16.5267 21.3425 16.6636 21.5028 16.8616C21.6631 17.0596 21.7503 17.3068 21.75 17.5615V17.6253Z" fill="#130032"/>
</g>
<defs>
<clipPath id="clip0_7_18658">
<rect width="24" height="24" fill="white"/>
</clipPath>
</defs>
</svg>
