<svg width="24" height="24" viewBox="0 0 24 24" fill="none" xmlns="http://www.w3.org/2000/svg">
<g clip-path="url(#clip0_7_18656)">
<path d="M23.6712 10.078C23.5667 9.97317 23.4425 9.88995 23.3057 9.83317C23.169 9.77639 23.0224 9.74716 22.8743 9.74716C22.7263 9.74716 22.5796 9.77639 22.4429 9.83317C22.3062 9.88995 22.182 9.97317 22.0774 10.078L18.0003 14.1552L10.594 6.74898L14.674 2.66992C14.8854 2.45858 15.0041 2.17193 15.0041 1.87305C15.0041 1.57416 14.8854 1.28751 14.674 1.07617C14.4627 0.864826 14.176 0.746094 13.8771 0.746094C13.5782 0.746094 13.2916 0.864826 13.0803 1.07617L8.73494 5.42336C8.48611 5.67285 8.31262 5.98741 8.23436 6.33097C8.15609 6.67454 8.17622 7.03321 8.29244 7.36586L6.48494 9.17336C6.13344 9.52497 5.93597 10.0018 5.93597 10.499C5.93597 10.9962 6.13344 11.473 6.48494 11.8246L6.65651 11.999L1.45432 17.203C1.31873 17.3387 1.22007 17.5068 1.16772 17.6913C1.11536 17.8758 1.11106 18.0707 1.15521 18.2573C1.19936 18.444 1.2905 18.6162 1.41997 18.7577C1.54944 18.8993 1.71294 19.0053 1.89495 19.0659L8.64495 21.3159C8.75941 21.3545 8.87944 21.3741 9.00026 21.374C9.1481 21.374 9.2945 21.3448 9.43107 21.2882C9.56765 21.2316 9.69172 21.1486 9.7962 21.044L12.7503 18.0927L12.9246 18.2671C13.2762 18.6186 13.7531 18.8161 14.2503 18.8161C14.7474 18.8161 15.2243 18.6186 15.5759 18.2671L17.3824 16.4605C17.5811 16.5298 17.7899 16.5656 18.0003 16.5665C18.2466 16.5672 18.4906 16.5189 18.7181 16.4246C18.9457 16.3303 19.1522 16.1918 19.3259 16.0171L23.6712 11.6727C23.7762 11.5682 23.8596 11.4439 23.9164 11.3071C23.9733 11.1703 24.0026 11.0236 24.0026 10.8754C24.0026 10.7272 23.9733 10.5805 23.9164 10.4437C23.8596 10.3068 23.7762 10.1826 23.6712 10.078ZM8.69651 18.9618L4.33244 17.5077L8.25026 13.5927L11.1565 16.499L8.69651 18.9618ZM14.2503 16.4052L9.0462 11.204L8.34401 10.499L9.75026 9.09273L15.6565 14.999L14.2503 16.4052Z" fill="#130032"/>
</g>
<defs>
<clipPath id="clip0_7_18656">
<rect width="24" height="24" fill="white"/>
</clipPath>
</defs>
</svg>
