<svg width="24" height="24" viewBox="0 0 24 24" fill="none" xmlns="http://www.w3.org/2000/svg">
<path d="M21 13.8734H12.4453L3.85687 3.76997C3.66128 3.55105 3.38786 3.41727 3.09498 3.39717C2.8021 3.37708 2.51297 3.47226 2.2893 3.6624C2.06564 3.85254 1.92515 4.12258 1.89784 4.41487C1.87053 4.70717 1.95855 4.99856 2.14313 5.22684L11.0644 15.7268L11.07 15.7334L14.6681 19.9672C14.8446 20.1734 15.0637 20.339 15.3104 20.4523C15.5571 20.5656 15.8254 20.624 16.0969 20.6234H21C21.4973 20.6234 21.9742 20.4259 22.3258 20.0742C22.6775 19.7226 22.875 19.2457 22.875 18.7484V15.7484C22.875 15.2511 22.6775 14.7742 22.3258 14.4226C21.9742 14.0709 21.4973 13.8734 21 13.8734ZM14.3578 16.1234H16.875V18.3734H16.2703L14.3578 16.1234ZM20.625 18.3734H19.125V16.1234H20.625V18.3734ZM14.4056 10.52L20.1431 3.76997C20.3387 3.55105 20.6121 3.41727 20.905 3.39717C21.1979 3.37708 21.487 3.47226 21.7107 3.6624C21.9344 3.85254 22.0748 4.12258 22.1022 4.41487C22.1295 4.70717 22.0414 4.99856 21.8569 5.22684L16.1194 11.9768C16.025 12.0935 15.9083 12.1902 15.776 12.2611C15.6437 12.332 15.4986 12.3757 15.3492 12.3897C15.1998 12.4036 15.0491 12.3875 14.906 12.3424C14.7628 12.2972 14.6302 12.2239 14.5159 12.1267C14.4015 12.0295 14.3078 11.9104 14.2402 11.7764C14.1726 11.6424 14.1325 11.4963 14.1222 11.3466C14.1119 11.1968 14.1317 11.0466 14.1804 10.9046C14.229 10.7627 14.3056 10.6319 14.4056 10.52ZM10.2675 17.1247C10.0402 16.9315 9.74553 16.8366 9.44826 16.8607C9.15098 16.8848 8.87543 17.0259 8.68219 17.2531L7.72969 18.3734H7.125V16.1168C7.41122 16.0858 7.67464 15.9462 7.86104 15.7268C8.04744 15.5074 8.14263 15.2249 8.12701 14.9374C8.11139 14.6499 7.98616 14.3794 7.77709 14.1814C7.56802 13.9835 7.29102 13.8733 7.00312 13.8734H3C2.50272 13.8734 2.02581 14.0709 1.67417 14.4226C1.32254 14.7742 1.125 15.2511 1.125 15.7484V18.7484C1.125 19.2457 1.32254 19.7226 1.67417 20.0742C2.02581 20.4259 2.50272 20.6234 3 20.6234H7.90313C8.17458 20.624 8.44293 20.5656 8.68961 20.4523C8.93629 20.339 9.15543 20.1734 9.33187 19.9672L10.3959 18.7147C10.4923 18.602 10.5654 18.4714 10.6111 18.3304C10.6568 18.1894 10.6742 18.0407 10.6622 17.893C10.6503 17.7452 10.6093 17.6013 10.5415 17.4694C10.4738 17.3376 10.3807 17.2204 10.2675 17.1247ZM3.375 16.1234H4.875V18.3734H3.375V16.1234Z" fill="#130032"/>
</svg>
