<svg width="24" height="24" viewBox="0 0 24 24" fill="none" xmlns="http://www.w3.org/2000/svg">
<path d="M22.9347 11.0916L17.8469 3.46031C17.6757 3.20342 17.4438 2.99277 17.1716 2.84705C16.8995 2.70133 16.5956 2.62506 16.2869 2.625H7.7125C7.4038 2.62506 7.0999 2.70133 6.82776 2.84705C6.55562 2.99277 6.32367 3.20342 6.1525 3.46031L1.06469 11.0916C0.916061 11.3146 0.81698 11.5669 0.774124 11.8315C0.731268 12.0961 0.745633 12.3668 0.81625 12.6253L2.82531 19.9931C2.93348 20.3899 3.1691 20.7401 3.49588 20.9898C3.82266 21.2395 4.22248 21.3749 4.63375 21.375H7.12469C7.37092 21.375 7.61473 21.3265 7.84222 21.2323C8.06971 21.138 8.2764 20.9999 8.45051 20.8258C8.62462 20.6517 8.76273 20.445 8.85696 20.2175C8.95119 19.99 8.99969 19.7462 8.99969 19.5V18.375H14.9997V19.5C14.9997 19.9973 15.1972 20.4742 15.5489 20.8258C15.9005 21.1775 16.3774 21.375 16.8747 21.375H19.3656C19.7769 21.3749 20.1767 21.2395 20.5035 20.9898C20.8303 20.7401 21.0659 20.3899 21.1741 19.9931L23.1831 12.6253C23.2537 12.3668 23.2681 12.0961 23.2253 11.8315C23.1824 11.5669 23.0833 11.3146 22.9347 11.0916ZM7.87469 16.125V6.6225L8.99969 7.32562V12.75C8.99969 13.0484 9.11821 13.3345 9.32919 13.5455C9.54017 13.7565 9.82632 13.875 10.1247 13.875C10.4231 13.875 10.7092 13.7565 10.9202 13.5455C11.1312 13.3345 11.2497 13.0484 11.2497 12.75V8.73281L11.4034 8.82656C11.5822 8.93831 11.7888 8.99757 11.9997 8.99757C12.2105 8.99757 12.4171 8.93831 12.5959 8.82656L12.7497 8.73281V12C12.7497 12.2984 12.8682 12.5845 13.0792 12.7955C13.2902 13.0065 13.5763 13.125 13.8747 13.125C14.1731 13.125 14.4592 13.0065 14.6702 12.7955C14.8812 12.5845 14.9997 12.2984 14.9997 12V7.32562L16.1247 6.6225V16.125H7.87469ZM11.9997 6.54844L9.32406 4.875H14.6753L11.9997 6.54844ZM4.92063 19.125L3.03156 12.1978L5.62469 8.30813V16.5C5.62488 16.8647 5.7314 17.2214 5.93121 17.5264C6.13103 17.8315 6.41546 18.0716 6.74969 18.2175V19.125H4.92063ZM19.0769 19.125H17.2497V18.2175C17.5839 18.0716 17.8683 17.8315 18.0682 17.5264C18.268 17.2214 18.3745 16.8647 18.3747 16.5V8.30813L20.9678 12.1978L19.0769 19.125Z" fill="#130032"/>
</svg>
