<svg width="24" height="24" viewBox="0 0 24 24" fill="none" xmlns="http://www.w3.org/2000/svg">
<path d="M13.5 9.75C13.5 10.0467 13.412 10.3367 13.2472 10.5834C13.0823 10.83 12.8481 11.0223 12.574 11.1358C12.2999 11.2494 11.9983 11.2791 11.7073 11.2212C11.4163 11.1633 11.1491 11.0204 10.9393 10.8107C10.7295 10.6009 10.5867 10.3336 10.5288 10.0426C10.4709 9.75166 10.5006 9.45006 10.6141 9.17597C10.7277 8.90189 10.9199 8.66762 11.1666 8.5028C11.4133 8.33797 11.7033 8.25 12 8.25C12.3978 8.25 12.7793 8.40804 13.0606 8.68934C13.3419 8.97064 13.5 9.35218 13.5 9.75ZM22.125 12.1434C22.0813 14.7666 21.024 17.271 19.1745 19.1318C17.3251 20.9926 14.8272 22.0653 12.2043 22.125H11.9934C9.50947 22.1409 7.1075 21.2373 5.24995 19.5881C5.13596 19.4908 5.04258 19.3716 4.9753 19.2376C4.90802 19.1036 4.86819 18.9576 4.85816 18.808C4.84813 18.6584 4.8681 18.5083 4.9169 18.3666C4.96569 18.2248 5.04232 18.0942 5.14229 17.9825C5.24227 17.8708 5.36356 17.7802 5.49905 17.716C5.63453 17.6518 5.78148 17.6154 5.93125 17.6088C6.08103 17.6022 6.23061 17.6256 6.3712 17.6777C6.51179 17.7297 6.64057 17.8094 6.74995 17.9119C7.21154 18.324 7.72154 18.6785 8.2687 18.9675L10.2881 16.1906C8.37558 15.5344 6.35902 15.8784 5.18527 16.0772C4.56294 16.1857 3.92263 16.1162 3.33801 15.8769C2.75339 15.6376 2.24821 15.2381 1.88058 14.7244C1.86558 14.7047 1.85152 14.6841 1.83839 14.6634L0.546516 12.6009C0.39023 12.3514 0.338034 12.0504 0.401136 11.7628C0.464237 11.4752 0.637604 11.2237 0.884016 11.0625L10.125 5.01656V3C10.125 2.70163 10.2435 2.41548 10.4545 2.2045C10.6654 1.99353 10.9516 1.875 11.25 1.875H12C13.3417 1.87487 14.6702 2.14143 15.908 2.65921C17.1459 3.17698 18.2685 3.93564 19.2106 4.89108C20.1527 5.84651 20.8955 6.97968 21.3958 8.2247C21.8961 9.46973 22.144 10.8018 22.125 12.1434ZM19.875 12.1125C19.9043 10.0694 19.1383 8.09486 17.7388 6.606C16.3394 5.11714 14.416 4.23053 12.375 4.13344V5.625C12.3743 5.81119 12.3275 5.9943 12.2386 6.15793C12.1498 6.32155 12.0217 6.46056 11.8659 6.5625L3.03839 12.3384L3.7237 13.4334C3.8485 13.5968 4.01567 13.7228 4.20707 13.7979C4.39846 13.8729 4.60675 13.8941 4.80933 13.8591C6.33089 13.6012 9.44058 13.0753 12.2756 14.6091C13.1193 14.5399 13.9063 14.1562 14.4804 13.534C15.0545 12.9118 15.3738 12.0966 15.375 11.25C15.375 10.9516 15.4935 10.6655 15.7045 10.4545C15.9154 10.2435 16.2016 10.125 16.5 10.125C16.7983 10.125 17.0845 10.2435 17.2954 10.4545C17.5064 10.6655 17.625 10.9516 17.625 11.25C17.623 12.638 17.1087 13.9765 16.1807 15.0087C15.2527 16.0409 13.9762 16.6941 12.5962 16.8431L10.4915 19.7372C11.0417 19.8393 11.6008 19.8848 12.1603 19.8731C14.1991 19.8251 16.1404 18.9906 17.5782 17.5442C19.016 16.0978 19.839 14.1516 19.875 12.1125Z" fill="#130032"/>
</svg>
