<svg width="24" height="24" viewBox="0 0 24 24" fill="none" xmlns="http://www.w3.org/2000/svg">
<path d="M19.125 7.09125V3.75C19.125 3.25272 18.9275 2.77581 18.5758 2.42417C18.2242 2.07254 17.7473 1.875 17.25 1.875H6.75C6.25272 1.875 5.77581 2.07254 5.42417 2.42417C5.07254 2.77581 4.875 3.25272 4.875 3.75V7.125C4.87572 7.41596 4.94381 7.70279 5.07393 7.96303C5.20405 8.22327 5.39267 8.44985 5.625 8.625L10.125 12L5.625 15.375C5.39267 15.5502 5.20405 15.7767 5.07393 16.037C4.94381 16.2972 4.87572 16.584 4.875 16.875V20.25C4.875 20.7473 5.07254 21.2242 5.42417 21.5758C5.77581 21.9275 6.25272 22.125 6.75 22.125H17.25C17.7473 22.125 18.2242 21.9275 18.5758 21.5758C18.9275 21.2242 19.125 20.7473 19.125 20.25V16.9088C19.1247 16.6183 19.0574 16.3318 18.9283 16.0717C18.7992 15.8115 18.6118 15.5846 18.3806 15.4088L13.8656 12L18.3806 8.5875C18.6113 8.412 18.7984 8.18574 18.9275 7.92626C19.0566 7.66679 19.1241 7.38106 19.125 7.09125ZM16.875 4.125V6.75H7.125V4.125H16.875ZM12 10.5938L9.87469 9H14.1028L12 10.5938ZM16.875 19.875H7.125V17.0625L10.875 14.25V15.75C10.875 16.0484 10.9935 16.3345 11.2045 16.5455C11.4155 16.7565 11.7016 16.875 12 16.875C12.2984 16.875 12.5845 16.7565 12.7955 16.5455C13.0065 16.3345 13.125 16.0484 13.125 15.75V14.2603L16.875 17.0953V19.875Z" fill="#130032"/>
</svg>
