<svg width="24" height="24" viewBox="0 0 24 24" fill="none" xmlns="http://www.w3.org/2000/svg">
<path d="M19.125 7.09125V3.75C19.125 3.25272 18.9275 2.77581 18.5758 2.42417C18.2242 2.07254 17.7473 1.875 17.25 1.875H6.75C6.25272 1.875 5.77581 2.07254 5.42417 2.42417C5.07254 2.77581 4.875 3.25272 4.875 3.75V7.125C4.87572 7.41596 4.94381 7.70279 5.07393 7.96303C5.20405 8.22327 5.39267 8.44985 5.625 8.625L10.125 12L5.625 15.375C5.39267 15.5502 5.20405 15.7767 5.07393 16.037C4.94381 16.2972 4.87572 16.584 4.875 16.875V20.25C4.875 20.7473 5.07254 21.2242 5.42417 21.5758C5.77581 21.9275 6.25272 22.125 6.75 22.125H17.25C17.7473 22.125 18.2242 21.9275 18.5758 21.5758C18.9275 21.2242 19.125 20.7473 19.125 20.25V16.9088C19.1247 16.6183 19.0574 16.3318 18.9283 16.0717C18.7992 15.8115 18.6118 15.5846 18.3806 15.4088L13.8656 12L18.3806 8.5875C18.6113 8.412 18.7984 8.18574 18.9275 7.92626C19.0566 7.66679 19.1241 7.38106 19.125 7.09125ZM15.5916 16.125H8.37281L12 13.4062L15.5916 16.125ZM7.125 19.875V18.375H16.875V19.875H7.125ZM16.875 6.90469L12 10.5938L7.125 6.9375V4.125H16.875V6.90469Z" fill="#130032"/>
</svg>
