<svg width="24" height="24" viewBox="0 0 24 24" fill="none" xmlns="http://www.w3.org/2000/svg">
<path d="M22.5 19.1255H21.375V13.5005C21.6153 13.585 21.8771 13.5854 22.1176 13.5017C22.3582 13.418 22.5632 13.2551 22.6992 13.0398C22.8352 12.8245 22.894 12.5693 22.8662 12.3162C22.8384 12.063 22.7255 11.8268 22.5459 11.6462L13.3256 2.42397C12.974 2.07247 12.4972 1.875 12 1.875C11.5028 1.875 11.026 2.07247 10.6744 2.42397L1.45406 11.6443C1.27345 11.8247 1.15958 12.0612 1.13116 12.3149C1.10274 12.5686 1.16146 12.8245 1.29766 13.0404C1.43387 13.2563 1.63947 13.4195 1.88068 13.5031C2.12189 13.5867 2.38437 13.5858 2.625 13.5005V19.1255H1.5C1.20163 19.1255 0.915483 19.2441 0.704505 19.455C0.493526 19.666 0.375 19.9522 0.375 20.2505C0.375 20.5489 0.493526 20.8351 0.704505 21.046C0.915483 21.257 1.20163 21.3755 1.5 21.3755H22.5C22.7984 21.3755 23.0845 21.257 23.2955 21.046C23.5065 20.8351 23.625 20.5489 23.625 20.2505C23.625 19.9522 23.5065 19.666 23.2955 19.455C23.0845 19.2441 22.7984 19.1255 22.5 19.1255ZM4.875 11.4052L12 4.28022L19.125 11.4052V19.1255H15.375V14.2505C15.375 13.9522 15.2565 13.666 15.0455 13.455C14.8345 13.2441 14.5484 13.1255 14.25 13.1255H9.75C9.45163 13.1255 9.16548 13.2441 8.9545 13.455C8.74353 13.666 8.625 13.9522 8.625 14.2505V19.1255H4.875V11.4052ZM13.125 19.1255H10.875V15.3755H13.125V19.1255Z" fill="#130032"/>
</svg>
