<svg width="24" height="24" viewBox="0 0 24 24" fill="none" xmlns="http://www.w3.org/2000/svg">
<path d="M20.8256 9.92397L13.3256 2.42397C12.974 2.07247 12.4972 1.875 12 1.875C11.5028 1.875 11.026 2.07247 10.6744 2.42397L3.17438 9.92397C2.99957 10.0977 2.86098 10.3045 2.76668 10.5322C2.67237 10.7599 2.62422 11.0041 2.62501 11.2505V20.2505C2.62501 20.5489 2.74354 20.8351 2.95451 21.046C3.16549 21.257 3.45164 21.3755 3.75001 21.3755H9.75001C10.0484 21.3755 10.3345 21.257 10.5455 21.046C10.7565 20.8351 10.875 20.5489 10.875 20.2505V15.3755H13.125V20.2505C13.125 20.5489 13.2435 20.8351 13.4545 21.046C13.6655 21.257 13.9516 21.3755 14.25 21.3755H20.25C20.5484 21.3755 20.8345 21.257 21.0455 21.046C21.2565 20.8351 21.375 20.5489 21.375 20.2505V11.2505C21.3758 11.0041 21.3276 10.7599 21.2333 10.5322C21.139 10.3045 21.0005 10.0977 20.8256 9.92397ZM19.125 19.1255H15.375V14.2505C15.375 13.9522 15.2565 13.666 15.0455 13.455C14.8345 13.2441 14.5484 13.1255 14.25 13.1255H9.75001C9.45164 13.1255 9.16549 13.2441 8.95451 13.455C8.74354 13.666 8.62501 13.9522 8.62501 14.2505V19.1255H4.87501V11.4052L12 4.28022L19.125 11.4052V19.1255Z" fill="#130032"/>
</svg>
