<svg width="24" height="24" viewBox="0 0 24 24" fill="none" xmlns="http://www.w3.org/2000/svg">
<path d="M12 8.62447C11.3325 8.62447 10.68 8.82241 10.125 9.19326C9.56993 9.56411 9.13735 10.0912 8.88191 10.7079C8.62646 11.3246 8.55962 12.0032 8.68985 12.6579C8.82007 13.3126 9.14151 13.914 9.61351 14.386C10.0855 14.858 10.6869 15.1794 11.3416 15.3096C11.9963 15.4398 12.6749 15.373 13.2916 15.1176C13.9083 14.8621 14.4354 14.4295 14.8062 13.8745C15.1771 13.3195 15.375 12.667 15.375 11.9995C15.375 11.1044 15.0194 10.2459 14.3865 9.61299C13.7535 8.98005 12.8951 8.62447 12 8.62447ZM12 13.1245C11.7775 13.1245 11.56 13.0585 11.375 12.9349C11.19 12.8113 11.0458 12.6356 10.9606 12.43C10.8755 12.2244 10.8532 11.9982 10.8966 11.78C10.94 11.5618 11.0472 11.3613 11.2045 11.204C11.3618 11.0466 11.5623 10.9395 11.7805 10.8961C11.9988 10.8527 12.225 10.875 12.4305 10.9601C12.6361 11.0453 12.8118 11.1895 12.9354 11.3745C13.059 11.5595 13.125 11.777 13.125 11.9995C13.125 12.2978 13.0065 12.584 12.7955 12.795C12.5845 13.0059 12.2984 13.1245 12 13.1245ZM15.3159 4.03072L16.0791 1.43853C16.1324 1.25489 16.138 1.06069 16.0953 0.874279C16.0527 0.687866 15.9633 0.515393 15.8355 0.373147C15.7077 0.230901 15.5458 0.123578 15.365 0.061312C15.1842 -0.000953654 14.9905 -0.0161063 14.8022 0.017285C12.8133 0.433214 10.9082 1.17948 9.16594 2.2251C5.3775 4.52572 3.375 7.90541 3.375 11.9995C3.37554 13.7032 3.87985 15.3688 4.8245 16.7867C5.76915 18.2046 7.11196 19.3115 8.68406 19.9682L7.92094 22.5604C7.87223 22.7279 7.86316 22.9045 7.89443 23.0761C7.92571 23.2478 7.99648 23.4098 8.10114 23.5494C8.20581 23.689 8.3415 23.8023 8.4975 23.8804C8.6535 23.9585 8.82553 23.9993 9 23.9995C9.06634 23.9996 9.13256 23.9936 9.19781 23.9817C11.1867 23.5657 13.0918 22.8195 14.8341 21.7738C18.6225 19.4732 20.625 16.0935 20.625 11.9995C20.6245 10.2957 20.1202 8.63016 19.1755 7.21226C18.2309 5.79437 16.888 4.68745 15.3159 4.03072ZM13.7222 19.8135C12.7533 20.3995 11.7243 20.8798 10.6528 21.246L11.1478 19.5585C11.1905 19.4144 11.2038 19.2631 11.187 19.1137C11.1702 18.9643 11.1236 18.8198 11.05 18.6887C10.9764 18.5577 10.8773 18.4426 10.7585 18.3505C10.6398 18.2584 10.5037 18.191 10.3584 18.1523C9.00216 17.7909 7.80307 16.9919 6.94722 15.8794C6.09136 14.7669 5.62659 13.4031 5.625 11.9995C5.625 8.70697 7.19063 6.07635 10.2797 4.18166C11.2486 3.59543 12.2776 3.11486 13.3491 2.74822L12.8541 4.43572C12.8114 4.57988 12.7981 4.73112 12.8149 4.88052C12.8317 5.02991 12.8783 5.17442 12.9518 5.30551C13.0254 5.4366 13.1245 5.55162 13.2433 5.64376C13.3621 5.7359 13.4982 5.8033 13.6434 5.84197C15.0001 6.20396 16.1994 7.00375 17.055 8.11716C17.9105 9.23057 18.3746 10.5953 18.375 11.9995C18.375 15.292 16.8094 17.9217 13.7203 19.8173L13.7222 19.8135Z" fill="#130032"/>
</svg>
