<svg width="24" height="24" viewBox="0 0 24 24" fill="none" xmlns="http://www.w3.org/2000/svg">
<path d="M21.3749 10.8753C21.3735 10.3422 21.2307 9.81908 20.9611 9.35924C20.6915 8.8994 20.3047 8.51932 19.8402 8.25777C19.6564 6.30564 18.7509 4.49231 17.3009 3.17244C15.8509 1.85256 13.9607 1.12109 11.9999 1.12109C10.0391 1.12109 8.1489 1.85256 6.6989 3.17244C5.24889 4.49231 4.34342 6.30564 4.15959 8.25777C3.60224 8.56977 3.15902 9.05153 2.89445 9.6329C2.62988 10.2143 2.55778 10.8649 2.68863 11.4901C2.81948 12.1153 3.14647 12.6824 3.62198 13.1089C4.09749 13.5353 4.69671 13.7989 5.3324 13.8612L10.3715 22.6803C10.5354 22.9675 10.7724 23.2062 11.0584 23.3723C11.3444 23.5384 11.6692 23.6259 11.9999 23.6259C12.3306 23.6259 12.6554 23.5384 12.9414 23.3723C13.2274 23.2062 13.4644 22.9675 13.6283 22.6803L18.6674 13.8612C19.4089 13.7886 20.0968 13.4426 20.5973 12.8907C21.0978 12.3387 21.375 11.6203 21.3749 10.8753ZM5.47396 10.1403C5.72824 10.0886 5.95684 9.9506 6.12103 9.74967C6.28522 9.54875 6.37491 9.29725 6.3749 9.03777V9.00027C6.3749 7.50843 6.96753 6.07768 8.02243 5.02279C9.07732 3.9679 10.5081 3.37527 11.9999 3.37527C13.4917 3.37527 14.9225 3.9679 15.9774 5.02279C17.0323 6.07768 17.6249 7.50843 17.6249 9.00027V9.03777C17.6249 9.29725 17.7146 9.54875 17.8788 9.74967C18.043 9.9506 18.2716 10.0886 18.5258 10.1403C18.7082 10.1773 18.8703 10.2808 18.9806 10.4306C19.0909 10.5805 19.1416 10.766 19.1228 10.9511C19.1039 11.1362 19.017 11.3077 18.8788 11.4323C18.7406 11.5569 18.561 11.6257 18.3749 11.6253H5.6249C5.43883 11.6257 5.25924 11.5569 5.12103 11.4323C4.98282 11.3077 4.89586 11.1362 4.87705 10.9511C4.85823 10.766 4.9089 10.5805 5.01922 10.4306C5.12953 10.2808 5.29161 10.1773 5.47396 10.1403ZM16.0677 13.8753L14.5208 16.5828L12.974 13.8753H16.0677ZM7.93209 13.8753H10.3827L13.2252 18.8496L11.9999 20.9946L7.93209 13.8753Z" fill="#130032"/>
</svg>
