<svg width="24" height="24" viewBox="0 0 24 24" fill="none" xmlns="http://www.w3.org/2000/svg">
<path d="M15 8.25C15 7.95333 15.088 7.66332 15.2528 7.41665C15.4176 7.16997 15.6519 6.97771 15.926 6.86418C16.2001 6.75065 16.5017 6.72094 16.7926 6.77882C17.0836 6.8367 17.3509 6.97956 17.5607 7.18934C17.7704 7.39912 17.9133 7.66639 17.9712 7.95736C18.0291 8.24834 17.9994 8.54994 17.8858 8.82403C17.7723 9.09811 17.58 9.33238 17.3334 9.4972C17.0867 9.66203 16.7967 9.75 16.5 9.75C16.1022 9.75 15.7206 9.59196 15.4393 9.31066C15.158 9.02936 15 8.64782 15 8.25ZM22.125 5.25V15C22.125 15.4973 21.9275 15.9742 21.5758 16.3258C21.2242 16.6775 20.7473 16.875 20.25 16.875H19.125V18.75C19.125 19.2473 18.9275 19.7242 18.5758 20.0758C18.2242 20.4275 17.7473 20.625 17.25 20.625H3.75C3.25272 20.625 2.77581 20.4275 2.42417 20.0758C2.07254 19.7242 1.875 19.2473 1.875 18.75V8.25C1.875 7.75272 2.07254 7.27581 2.42417 6.92417C2.77581 6.57254 3.25272 6.375 3.75 6.375H5.625V5.25C5.625 4.75272 5.82254 4.27581 6.17417 3.92417C6.52581 3.57254 7.00272 3.375 7.5 3.375H20.25C20.7473 3.375 21.2242 3.57254 21.5758 3.92417C21.9275 4.27581 22.125 4.75272 22.125 5.25ZM16.875 16.875H7.5C7.00272 16.875 6.52581 16.6775 6.17417 16.3258C5.82254 15.9742 5.625 15.4973 5.625 15V8.625H4.125V18.375H16.875V16.875ZM14.8444 14.625L11.625 11.4056L8.40563 14.625H14.8444ZM19.875 5.625H7.875V11.9738L10.2994 9.54938C10.651 9.19787 11.1278 9.0004 11.625 9.0004C12.1222 9.0004 12.599 9.19787 12.9506 9.54938L18.0262 14.625H19.875V5.625Z" fill="#130032"/>
</svg>
