<svg width="24" height="24" viewBox="0 0 24 24" fill="none" xmlns="http://www.w3.org/2000/svg">
<path d="M23.6254 12.0007C23.6256 13.1133 23.2957 14.201 22.6777 15.1261C22.0596 16.0513 21.181 16.7723 20.1531 17.1981C19.1252 17.6239 17.9941 17.7353 16.9029 17.5182C15.8116 17.3011 14.8093 16.7653 14.0226 15.9785L13.9767 15.9288L8.3648 9.59224C7.89035 9.12648 7.2889 8.81123 6.63594 8.68604C5.98297 8.56086 5.30758 8.63132 4.69452 8.88858C4.08145 9.14585 3.55803 9.57846 3.18993 10.1321C2.82184 10.6858 2.62547 11.3358 2.62547 12.0007C2.62547 12.6655 2.82184 13.3156 3.18993 13.8692C3.55803 14.4229 4.08145 14.8555 4.69452 15.1128C5.30758 15.37 5.98297 15.4405 6.63594 15.3153C7.2889 15.1901 7.89035 14.8749 8.3648 14.4091L8.65355 14.0829C8.85134 13.8591 9.12993 13.7231 9.42802 13.7047C9.72612 13.6863 10.0193 13.7871 10.2431 13.9849C10.4669 14.1827 10.6029 14.4613 10.6213 14.7594C10.6396 15.0575 10.5388 15.3506 10.341 15.5744L10.027 15.9288L9.98104 15.9785C9.19434 16.7651 8.19206 17.3007 7.10094 17.5177C6.00982 17.7346 4.87887 17.6232 3.85109 17.1974C2.82331 16.7716 1.94486 16.0507 1.32682 15.1257C0.708783 14.2007 0.378906 13.1132 0.378906 12.0007C0.378906 10.8882 0.708783 9.8007 1.32682 8.87569C1.94486 7.95069 2.82331 7.22972 3.85109 6.80395C4.87887 6.37817 6.00982 6.26672 7.10094 6.48369C8.19206 6.70065 9.19434 7.23629 9.98104 8.02286L10.027 8.07255L15.6389 14.4091C16.1133 14.8749 16.7148 15.1901 17.3677 15.3153C18.0207 15.4405 18.6961 15.37 19.3091 15.1128C19.9222 14.8555 20.4456 14.4229 20.8137 13.8692C21.1818 13.3156 21.3782 12.6655 21.3782 12.0007C21.3782 11.3358 21.1818 10.6858 20.8137 10.1321C20.4456 9.57846 19.9222 9.14585 19.3091 8.88858C18.6961 8.63132 18.0207 8.56086 17.3677 8.68604C16.7148 8.81123 16.1133 9.12648 15.6389 9.59224L15.3501 9.91849C15.2522 10.0293 15.1334 10.1197 15.0005 10.1846C14.8676 10.2495 14.7232 10.2876 14.5756 10.2967C14.428 10.3058 14.2801 10.2857 14.1402 10.2376C14.0004 10.1895 13.8714 10.1144 13.7606 10.0165C13.6498 9.91852 13.5593 9.79972 13.4945 9.66683C13.4296 9.53395 13.3915 9.38958 13.3824 9.24198C13.3733 9.09438 13.3934 8.94643 13.4414 8.80658C13.4895 8.66674 13.5647 8.53773 13.6626 8.42693L13.9767 8.07255L14.0226 8.02286C14.8093 7.23606 15.8116 6.70022 16.9029 6.48312C17.9941 6.26602 19.1252 6.37742 20.1531 6.80322C21.181 7.22902 22.0596 7.95009 22.6777 8.87524C23.2957 9.80039 23.6256 10.8881 23.6254 12.0007Z" fill="#130032"/>
</svg>
