<svg width="24" height="24" viewBox="0 0 24 24" fill="none" xmlns="http://www.w3.org/2000/svg">
<path d="M16.6875 7.31445C16.3857 5.93358 15.7177 4.6594 14.7538 3.62561C13.7898 2.59181 12.5654 1.83652 11.209 1.43898C9.85259 1.04143 8.41417 1.0163 7.04469 1.3662C5.67521 1.7161 4.42515 2.42815 3.42567 3.42763C2.4262 4.42711 1.71415 5.67717 1.36425 7.04665C1.01434 8.41613 1.03948 9.85454 1.43703 11.211C1.83457 12.5674 2.58986 13.7918 3.62365 14.7557C4.65744 15.7197 5.93162 16.3876 7.31249 16.6894C7.61433 18.0703 8.28226 19.3445 9.24621 20.3783C10.2101 21.4121 11.4346 22.1674 12.791 22.5649C14.1474 22.9625 15.5858 22.9876 16.9553 22.6377C18.3248 22.2878 19.5748 21.5757 20.5743 20.5763C21.5738 19.5768 22.2858 18.3267 22.6357 16.9572C22.9856 15.5878 22.9605 14.1494 22.563 12.7929C22.1654 11.4365 21.4101 10.2121 20.3763 9.24816C19.3425 8.28422 18.0684 7.61628 16.6875 7.31445ZM14.6072 9.39476C14.5411 10.3624 14.2241 11.2962 13.6875 12.1041L11.9006 10.3144C12.7083 9.77682 13.6421 9.45887 14.61 9.39195L14.6072 9.39476ZM7.15406 14.3176C6.25325 14.0056 5.44649 13.4699 4.80954 12.7606C4.1726 12.0514 3.72636 11.1918 3.51272 10.2628C3.29909 9.33376 3.32507 8.36566 3.58824 7.44942C3.8514 6.53317 4.3431 5.69884 5.01718 5.02476C5.69126 4.35068 6.52559 3.85898 7.44184 3.59581C8.35808 3.33265 9.32618 3.30667 10.2552 3.5203C11.1843 3.73393 12.0438 4.18017 12.753 4.81712C13.4623 5.45407 13.9981 6.26083 14.31 7.16164C12.4682 7.32601 10.7427 8.13244 9.43521 9.43997C8.12768 10.7475 7.32125 12.473 7.15687 14.3148L7.15406 14.3176ZM9.38718 14.6148C9.45327 13.6471 9.77023 12.7133 10.3069 11.9054L12.0994 13.6894C11.2917 14.2271 10.3579 14.545 9.38999 14.6119L9.38718 14.6148ZM15 20.6269C13.8316 20.6254 12.6926 20.2605 11.7407 19.5829C10.7888 18.9054 10.0712 17.9486 9.68718 16.8451C11.5299 16.6812 13.2564 15.8747 14.5646 14.5665C15.8727 13.2583 16.6793 11.5319 16.8431 9.68913C18.0983 10.1257 19.1584 10.9926 19.8355 12.1362C20.5126 13.2798 20.7629 14.6261 20.542 15.9366C20.3212 17.2471 19.6435 18.4371 18.6291 19.2957C17.6146 20.1542 16.329 20.6258 15 20.6269Z" fill="#130032"/>
</svg>
