<svg width="24" height="24" viewBox="0 0 24 24" fill="none" xmlns="http://www.w3.org/2000/svg">
<path d="M18.7496 8.78063C18.7496 8.72906 18.7496 8.6775 18.7496 8.625C18.7496 6.83479 18.0385 5.1179 16.7726 3.85203C15.5067 2.58616 13.7898 1.875 11.9996 1.875C10.2094 1.875 8.49251 2.58616 7.22664 3.85203C5.96077 5.1179 5.24961 6.83479 5.24961 8.625C5.24961 8.6775 5.24961 8.72906 5.24961 8.78063C4.45748 9.21076 3.75953 9.7952 3.19692 10.4994C2.63432 11.2037 2.21847 12.0135 1.97391 12.8811C1.72934 13.7486 1.66102 14.6564 1.77296 15.5508C1.88491 16.4452 2.17486 17.3081 2.62571 18.0887C3.07656 18.8692 3.67917 19.5515 4.39799 20.0954C5.11681 20.6392 5.93728 21.0336 6.81099 21.2553C7.68469 21.4769 8.59394 21.5213 9.48509 21.3858C10.3762 21.2504 11.2312 20.9378 11.9996 20.4666C12.768 20.9378 13.623 21.2504 14.5141 21.3858C15.4053 21.5213 16.3145 21.4769 17.1882 21.2553C18.0619 21.0336 18.8824 20.6392 19.6012 20.0954C20.3201 19.5515 20.9227 18.8692 21.3735 18.0887C21.8244 17.3081 22.1143 16.4452 22.2263 15.5508C22.3382 14.6564 22.2699 13.7486 22.0253 12.8811C21.7808 12.0135 21.3649 11.2037 20.8023 10.4994C20.2397 9.7952 19.5417 9.21076 18.7496 8.78063ZM14.8796 12.0825C14.6299 11.4702 14.2913 10.8981 13.8746 10.3847C14.6258 10.1167 15.435 10.0546 16.2184 10.2047C15.9409 10.9363 15.4784 11.5833 14.8759 12.0825H14.8796ZM11.9996 17.5969C11.4256 16.9476 11.0521 16.1459 10.9243 15.2887C11.6366 15.4037 12.3627 15.4037 13.0749 15.2887C12.9472 16.1459 12.5736 16.9476 11.9996 17.5969ZM7.78649 10.2047C8.56981 10.0546 9.37903 10.1167 10.1302 10.3847C9.71359 10.8981 9.37494 11.4702 9.12524 12.0825C8.52412 11.5829 8.06285 10.9359 7.78649 10.2047ZM11.9996 13.125C11.7184 13.1248 11.4377 13.0981 11.1615 13.0453C11.3541 12.5342 11.6381 12.0625 11.9996 11.6531C12.3612 12.0625 12.6452 12.5342 12.8377 13.0453C12.5615 13.0981 12.2809 13.1248 11.9996 13.125ZM11.9996 4.125C13.0776 4.12646 14.1194 4.51431 14.9359 5.21816C15.7524 5.92201 16.2896 6.89523 16.4499 7.96125C14.9161 7.71324 13.3436 8.00374 11.9996 8.78344C10.6556 8.00374 9.08317 7.71324 7.5493 7.96125C7.70964 6.89523 8.2468 5.92201 9.06332 5.21816C9.87983 4.51431 10.9216 4.12646 11.9996 4.125ZM4.12461 14.625C4.12439 13.9648 4.26979 13.3126 4.55045 12.715C4.83111 12.1173 5.24013 11.589 5.74836 11.1675C6.3163 12.5555 7.32764 13.7165 8.62461 14.4694C8.62461 14.5209 8.62461 14.5725 8.62461 14.625C8.6224 16.1688 9.15212 17.6663 10.1246 18.8653C9.44606 19.1052 8.71986 19.1789 8.00695 19.0801C7.29405 18.9813 6.61524 18.713 6.02749 18.2976C5.43973 17.8822 4.96018 17.3319 4.62908 16.6929C4.29798 16.0538 4.12498 15.3447 4.12461 14.625ZM15.3746 19.125C14.8634 19.1249 14.3561 19.037 13.8746 18.8653C14.8471 17.6663 15.3768 16.1688 15.3746 14.625C15.3746 14.5725 15.3746 14.5209 15.3746 14.4694C16.673 13.7171 17.6857 12.556 18.2546 11.1675C18.9652 11.7594 19.4761 12.556 19.7179 13.4486C19.9597 14.3413 19.9205 15.2868 19.6058 16.1564C19.291 17.0261 18.716 17.7776 17.9589 18.3088C17.2018 18.84 16.2995 19.125 15.3746 19.125Z" fill="#130032"/>
</svg>
