<svg width="24" height="24" viewBox="0 0 24 24" fill="none" xmlns="http://www.w3.org/2000/svg">
<path d="M19.875 11.25V18.75C19.875 19.0484 19.7565 19.3345 19.5455 19.5455C19.3345 19.7565 19.0484 19.875 18.75 19.875C18.4516 19.875 18.1655 19.7565 17.9545 19.5455C17.7435 19.3345 17.625 19.0484 17.625 18.75V11.25C17.625 9.75816 17.0324 8.32742 15.9775 7.27252C14.9226 6.21763 13.4918 5.625 12 5.625C10.5082 5.625 9.07742 6.21763 8.02252 7.27252C6.96763 8.32742 6.375 9.75816 6.375 11.25V18.75C6.375 19.0484 6.25647 19.3345 6.0455 19.5455C5.83452 19.7565 5.54837 19.875 5.25 19.875C4.95163 19.875 4.66548 19.7565 4.4545 19.5455C4.24353 19.3345 4.125 19.0484 4.125 18.75V11.25C4.125 9.16142 4.95468 7.15838 6.43153 5.68153C7.90838 4.20469 9.91142 3.375 12 3.375C14.0886 3.375 16.0916 4.20469 17.5685 5.68153C19.0453 7.15838 19.875 9.16142 19.875 11.25Z" fill="#130032"/>
</svg>
