<svg width="24" height="24" viewBox="0 0 24 24" fill="none" xmlns="http://www.w3.org/2000/svg">
<path d="M2.62492 12.3763C2.32655 12.3763 2.0404 12.2577 1.82942 12.0468C1.61844 11.8358 1.49992 11.5496 1.49992 11.2513C1.49992 10.9529 1.61844 10.6667 1.82942 10.4558C2.0404 10.2448 2.32655 10.1263 2.62492 10.1263H5.24992C5.34937 10.1263 5.44476 10.0867 5.51508 10.0164C5.58541 9.94609 5.62492 9.85071 5.62492 9.75126C5.62492 9.6518 5.58541 9.55642 5.51508 9.48609C5.44476 9.41576 5.34937 9.37626 5.24992 9.37626H3.74992C3.08189 9.37524 2.43939 9.11957 1.9533 8.66135C1.46721 8.20312 1.17411 7.5768 1.13371 6.91C1.09332 6.2432 1.30866 5.58608 1.73587 5.07252C2.16309 4.55896 2.77003 4.2276 3.43304 4.14594C3.50748 3.92416 3.64921 3.7311 3.8385 3.59363C4.02779 3.45616 4.25522 3.38112 4.48916 3.37895C4.72309 3.37679 4.95188 3.4476 5.14368 3.58154C5.33548 3.71549 5.48076 3.90589 5.55929 4.12626H5.99992C6.29829 4.12626 6.58443 4.24478 6.79541 4.45576C7.00639 4.66674 7.12492 4.95289 7.12492 5.25126C7.12492 5.54962 7.00639 5.83577 6.79541 6.04675C6.58443 6.25773 6.29829 6.37626 5.99992 6.37626H3.74992C3.65046 6.37626 3.55508 6.41576 3.48475 6.48609C3.41443 6.55642 3.37492 6.6518 3.37492 6.75126C3.37492 6.85071 3.41443 6.94609 3.48475 7.01642C3.55508 7.08675 3.65046 7.12626 3.74992 7.12626H5.24992C5.91794 7.12727 6.56044 7.38294 7.04653 7.84117C7.53262 8.29939 7.82572 8.92571 7.86612 9.59251C7.90652 10.2593 7.69117 10.9164 7.26396 11.43C6.83675 11.9435 6.22981 12.2749 5.56679 12.3566C5.49235 12.5784 5.35063 12.7714 5.16134 12.9089C4.97205 13.0464 4.74461 13.1214 4.51068 13.1236C4.27675 13.1257 4.04796 13.0549 3.85615 12.921C3.66435 12.787 3.51907 12.5966 3.44054 12.3763H2.62492ZM22.1249 5.25126V18.0013C22.1249 18.4985 21.9274 18.9754 21.5757 19.3271C21.2241 19.6787 20.7472 19.8763 20.2499 19.8763H3.74992C3.25264 19.8763 2.77572 19.6787 2.42409 19.3271C2.07246 18.9754 1.87492 18.4985 1.87492 18.0013V15.3763C1.87492 15.0779 1.99344 14.7917 2.20442 14.5808C2.4154 14.3698 2.70155 14.2513 2.99992 14.2513C3.29829 14.2513 3.58443 14.3698 3.79541 14.5808C4.00639 14.7917 4.12492 15.0779 4.12492 15.3763V17.6263H14.6249V15.3763H8.24992C7.95155 15.3763 7.6654 15.2577 7.45442 15.0468C7.24344 14.8358 7.12492 14.5496 7.12492 14.2513C7.12492 13.9529 7.24344 13.6667 7.45442 13.4558C7.6654 13.2448 7.95155 13.1263 8.24992 13.1263H14.6249V10.8763H10.4999C10.2015 10.8763 9.9154 10.7577 9.70442 10.5468C9.49344 10.3358 9.37492 10.0496 9.37492 9.75126C9.37492 9.45289 9.49344 9.16674 9.70442 8.95576C9.9154 8.74478 10.2015 8.62626 10.4999 8.62626H19.8749V6.37626H9.74992C9.45155 6.37626 9.1654 6.25773 8.95442 6.04675C8.74344 5.83577 8.62492 5.54962 8.62492 5.25126C8.62492 4.95289 8.74344 4.66674 8.95442 4.45576C9.1654 4.24478 9.45155 4.12626 9.74992 4.12626H20.9999C21.2983 4.12626 21.5844 4.24478 21.7954 4.45576C22.0064 4.66674 22.1249 4.95289 22.1249 5.25126ZM16.8749 13.1263H19.8749V10.8763H16.8749V13.1263ZM19.8749 17.6263V15.3763H16.8749V17.6263H19.8749Z" fill="#130032"/>
</svg>
