<svg width="24" height="24" viewBox="0 0 24 24" fill="none" xmlns="http://www.w3.org/2000/svg">
<path d="M22.6282 21.703C22.5359 21.8184 22.4218 21.9145 22.2923 21.9857C22.1629 22.057 22.0206 22.102 21.8738 22.1183C21.7269 22.1346 21.5783 22.1218 21.4363 22.0806C21.2944 22.0394 21.162 21.9707 21.0467 21.8783C21.0148 21.853 17.4973 19.1249 11.9998 19.1249C6.50229 19.1249 2.98385 21.853 2.94916 21.8802C2.71594 22.0667 2.41819 22.1529 2.12141 22.1198C1.82463 22.0868 1.55314 21.9372 1.36666 21.704C1.18018 21.4707 1.09399 21.173 1.12704 20.8762C1.16009 20.5794 1.30969 20.308 1.54291 20.1215C1.69479 19.9996 5.0651 17.353 10.5288 16.934C10.3044 15.8692 10.2315 14.7782 10.3123 13.693C10.4688 11.744 11.2385 9.20147 13.781 7.15116C13.573 7.13074 13.3638 7.12354 13.1548 7.1296C11.5423 7.1821 10.5663 8.10179 10.0854 10.0246C10.0245 10.2667 9.8847 10.4816 9.68816 10.6356C9.49161 10.7895 9.24944 10.8737 8.99979 10.8749C8.90749 10.8751 8.81552 10.8638 8.72604 10.8412C8.43664 10.7688 8.18785 10.5844 8.03437 10.3286C7.88089 10.0728 7.83529 9.76651 7.9076 9.4771C8.32572 7.80929 9.55385 4.99397 13.0882 4.88335C13.5526 4.87109 14.0172 4.90248 14.4757 4.9771C14.1504 4.51866 13.7435 4.11366 13.2495 3.90929C12.4732 3.58772 11.4935 3.7846 10.3376 4.49335C10.2114 4.5706 10.0712 4.62224 9.92508 4.64533C9.77893 4.66841 9.62967 4.66248 9.48581 4.62787C9.34195 4.59327 9.20632 4.53067 9.08665 4.44365C8.96699 4.35662 8.86563 4.24688 8.78838 4.12069C8.71113 3.9945 8.65948 3.85433 8.6364 3.70818C8.61332 3.56203 8.61925 3.41276 8.65385 3.2689C8.68846 3.12504 8.75106 2.98941 8.83808 2.86975C8.9251 2.75008 9.03484 2.64873 9.16104 2.57147C10.9704 1.46147 12.6401 1.2121 14.1232 1.83179C15.1038 2.24147 15.9635 3.04304 16.631 4.16429C17.1804 3.49022 17.8235 3.02241 18.5248 2.7946C20.0642 2.29304 21.4967 3.02616 22.4276 3.7321C22.5491 3.8198 22.6518 3.93087 22.7298 4.05881C22.8077 4.18675 22.8594 4.32898 22.8816 4.47714C22.9039 4.6253 22.8963 4.77641 22.8594 4.92161C22.8224 5.06681 22.7568 5.20316 22.6665 5.32268C22.5761 5.44219 22.4628 5.54245 22.3332 5.61758C22.2036 5.6927 22.0602 5.74118 21.9116 5.76016C21.763 5.77915 21.6121 5.76825 21.4678 5.72812C21.3234 5.68799 21.1885 5.61944 21.071 5.52647C20.3407 4.97429 19.7192 4.77647 19.226 4.93397C18.7976 5.07179 18.4338 5.46554 18.1545 5.88929C18.6892 6.03888 19.2039 6.25262 19.6873 6.52585C21.1385 7.35741 22.8748 9.11335 22.8748 12.7499C22.8748 13.0483 22.7563 13.3344 22.5453 13.5454C22.3343 13.7564 22.0482 13.8749 21.7498 13.8749C21.4514 13.8749 21.1653 13.7564 20.9543 13.5454C20.7433 13.3344 20.6248 13.0483 20.6248 12.7499C20.6248 10.8749 20.0501 9.5221 18.9176 8.7046C19.1259 9.47631 19.1724 10.2828 19.0542 11.0733C18.9359 11.8638 18.6555 12.6214 18.2304 13.2983C18.1556 13.4311 18.0546 13.5473 17.9335 13.6399C17.8125 13.7324 17.6738 13.7994 17.5261 13.8368C17.3783 13.8741 17.2246 13.8811 17.074 13.8572C16.9235 13.8333 16.7794 13.7791 16.6505 13.6979C16.5216 13.6166 16.4105 13.51 16.324 13.3845C16.2375 13.2591 16.1774 13.1173 16.1474 12.9679C16.1173 12.8185 16.1179 12.6646 16.1492 12.5154C16.1804 12.3663 16.2417 12.225 16.3292 12.1002C16.6018 11.6488 16.7777 11.1457 16.8457 10.6227C16.9563 9.77054 16.7454 8.95304 16.2213 8.18522C14.0079 9.52397 12.7788 11.4065 12.5651 13.7915C12.4813 14.8324 12.5722 15.88 12.8342 16.8908C18.6682 17.1449 22.2945 19.9912 22.4529 20.1177C22.5688 20.2101 22.6654 20.3244 22.7369 20.4542C22.8085 20.584 22.8538 20.7266 22.8701 20.8739C22.8864 21.0213 22.8734 21.1703 22.8319 21.3126C22.7904 21.4549 22.7212 21.5876 22.6282 21.703ZM1.87479 13.4999C1.87479 12.9066 2.05073 12.3265 2.38038 11.8332C2.71002 11.3399 3.17856 10.9553 3.72674 10.7283C4.27491 10.5012 4.87811 10.4418 5.46006 10.5576C6.042 10.6733 6.57655 10.959 6.99611 11.3786C7.41566 11.7981 7.70139 12.3327 7.81714 12.9146C7.9329 13.4966 7.87349 14.0998 7.64643 14.648C7.41936 15.1961 7.03484 15.6647 6.5415 15.9943C6.04815 16.324 5.46813 16.4999 4.87479 16.4999C4.07914 16.4999 3.31608 16.1838 2.75347 15.6212C2.19086 15.0586 1.87479 14.2956 1.87479 13.4999ZM4.12479 13.4999C4.12479 13.6482 4.16877 13.7933 4.25118 13.9166C4.3336 14.0399 4.45073 14.1361 4.58777 14.1928C4.72482 14.2496 4.87562 14.2644 5.0211 14.2355C5.16659 14.2066 5.30023 14.1351 5.40512 14.0302C5.51001 13.9254 5.58144 13.7917 5.61038 13.6462C5.63931 13.5007 5.62446 13.3499 5.5677 13.2129C5.51093 13.0759 5.4148 12.9587 5.29146 12.8763C5.16813 12.7939 5.02312 12.7499 4.87479 12.7499C4.67587 12.7499 4.48511 12.8289 4.34446 12.9696C4.2038 13.1102 4.12479 13.301 4.12479 13.4999Z" fill="#130032"/>
</svg>
