<svg width="24" height="24" viewBox="0 0 24 24" fill="none" xmlns="http://www.w3.org/2000/svg">
<path d="M22.5 7.875H21.9094L21.1022 4.10719C21.0105 3.68848 20.779 3.31349 20.4456 3.04406C20.1123 2.77462 19.6971 2.62681 19.2684 2.625H4.73156C4.30294 2.62681 3.88774 2.77462 3.55439 3.04406C3.22104 3.31349 2.98946 3.68848 2.89781 4.10719L2.09062 7.875H1.5C1.20163 7.875 0.915483 7.99353 0.704505 8.2045C0.493526 8.41548 0.375 8.70163 0.375 9C0.375 9.29837 0.493526 9.58452 0.704505 9.7955C0.915483 10.0065 1.20163 10.125 1.5 10.125H1.875V18.75C1.875 19.2473 2.07254 19.7242 2.42417 20.0758C2.77581 20.4275 3.25272 20.625 3.75 20.625H6.375C6.87228 20.625 7.34919 20.4275 7.70083 20.0758C8.05246 19.7242 8.25 19.2473 8.25 18.75V16.875H15.75V18.75C15.75 19.2473 15.9475 19.7242 16.2992 20.0758C16.6508 20.4275 17.1277 20.625 17.625 20.625H20.25C20.7473 20.625 21.2242 20.4275 21.5758 20.0758C21.9275 19.7242 22.125 19.2473 22.125 18.75V10.125H22.5C22.7984 10.125 23.0845 10.0065 23.2955 9.7955C23.5065 9.58452 23.625 9.29837 23.625 9C23.625 8.70163 23.5065 8.41548 23.2955 8.2045C23.0845 7.99353 22.7984 7.875 22.5 7.875ZM5.03438 4.875H18.9656L19.6087 7.875H4.39125L5.03438 4.875ZM6 18.375H4.125V16.875H6V18.375ZM18 18.375V16.875H19.875V18.375H18ZM19.875 14.625H16.875V12.375C16.875 12.0766 16.7565 11.7905 16.5455 11.5795C16.3345 11.3685 16.0484 11.25 15.75 11.25C15.4516 11.25 15.1655 11.3685 14.9545 11.5795C14.7435 11.7905 14.625 12.0766 14.625 12.375V14.625H13.125V12.375C13.125 12.0766 13.0065 11.7905 12.7955 11.5795C12.5845 11.3685 12.2984 11.25 12 11.25C11.7016 11.25 11.4155 11.3685 11.2045 11.5795C10.9935 11.7905 10.875 12.0766 10.875 12.375V14.625H9.375V12.375C9.375 12.0766 9.25647 11.7905 9.0455 11.5795C8.83452 11.3685 8.54837 11.25 8.25 11.25C7.95163 11.25 7.66548 11.3685 7.4545 11.5795C7.24353 11.7905 7.125 12.0766 7.125 12.375V14.625H4.125V10.125H19.875V14.625Z" fill="#130032"/>
</svg>
