<svg width="24" height="24" viewBox="0 0 24 24" fill="none" xmlns="http://www.w3.org/2000/svg">
<path d="M19.5 13.5011H13.125V9.21863C14.0829 8.94709 14.9103 8.33826 15.4544 7.50448C15.9986 6.6707 16.2228 5.66825 16.0857 4.68209C15.9486 3.69594 15.4595 2.79264 14.7086 2.13887C13.9577 1.48511 12.9956 1.125 12 1.125C11.0044 1.125 10.0423 1.48511 9.2914 2.13887C8.54048 2.79264 8.05135 3.69594 7.91428 4.68209C7.77721 5.66825 8.00144 6.6707 8.54559 7.50448C9.08975 8.33826 9.91711 8.94709 10.875 9.21863V13.5011H4.5C4.00272 13.5011 3.52581 13.6987 3.17417 14.0503C2.82254 14.4019 2.625 14.8788 2.625 15.3761V19.5011C2.625 19.9984 2.82254 20.4753 3.17417 20.827C3.52581 21.1786 4.00272 21.3761 4.5 21.3761H19.5C19.9973 21.3761 20.4742 21.1786 20.8258 20.827C21.1775 20.4753 21.375 19.9984 21.375 19.5011V15.3761C21.375 14.8788 21.1775 14.4019 20.8258 14.0503C20.4742 13.6987 19.9973 13.5011 19.5 13.5011ZM10.125 5.25113C10.125 4.88029 10.235 4.51777 10.441 4.20943C10.647 3.90109 10.9399 3.66077 11.2825 3.51885C11.6251 3.37694 12.0021 3.33981 12.3658 3.41215C12.7295 3.4845 13.0636 3.66308 13.3258 3.9253C13.588 4.18753 13.7666 4.52162 13.839 4.88533C13.9113 5.24905 13.8742 5.62605 13.7323 5.96866C13.5904 6.31127 13.35 6.6041 13.0417 6.81013C12.7334 7.01616 12.3708 7.12613 12 7.12613C11.5027 7.12613 11.0258 6.92858 10.6742 6.57695C10.3225 6.22532 10.125 5.74841 10.125 5.25113ZM19.125 19.1261H4.875V15.7511H19.125V19.1261ZM16.125 9.75113H19.125C19.4234 9.75113 19.7095 9.86965 19.9205 10.0806C20.1315 10.2916 20.25 10.5778 20.25 10.8761C20.25 11.1745 20.1315 11.4606 19.9205 11.6716C19.7095 11.8826 19.4234 12.0011 19.125 12.0011H16.125C15.8266 12.0011 15.5405 11.8826 15.3295 11.6716C15.1185 11.4606 15 11.1745 15 10.8761C15 10.5778 15.1185 10.2916 15.3295 10.0806C15.5405 9.86965 15.8266 9.75113 16.125 9.75113Z" fill="#130032"/>
</svg>
