<svg width="24" height="24" viewBox="0 0 24 24" fill="none" xmlns="http://www.w3.org/2000/svg">
<path d="M18.375 7.12636C18.375 7.42303 18.287 7.71304 18.1222 7.95971C17.9574 8.20639 17.7231 8.39865 17.449 8.51218C17.1749 8.62571 16.8733 8.65541 16.5824 8.59754C16.2914 8.53966 16.0241 8.3968 15.8143 8.18702C15.6046 7.97724 15.4617 7.70996 15.4038 7.41899C15.346 7.12802 15.3757 6.82642 15.4892 6.55233C15.6027 6.27824 15.795 6.04398 16.0417 5.87915C16.2883 5.71433 16.5783 5.62636 16.875 5.62636C17.2728 5.62636 17.6544 5.78439 17.9357 6.0657C18.217 6.347 18.375 6.72853 18.375 7.12636ZM22.875 9.25823C22.8014 11.2979 21.9416 13.2299 20.4757 14.6499C19.0097 16.0699 17.0512 16.8678 15.0103 16.8764H15C14.2496 16.8775 13.5029 16.7708 12.7828 16.5595L12.0459 17.2973C11.9414 17.4017 11.8173 17.4845 11.6807 17.541C11.5441 17.5975 11.3978 17.6265 11.25 17.6264H10.125V18.7514C10.125 19.0497 10.0065 19.3359 9.7955 19.5469C9.58452 19.7578 9.29838 19.8764 9.00001 19.8764H7.87501V21.0014C7.87501 21.2997 7.75648 21.5859 7.5455 21.7969C7.33452 22.0078 7.04838 22.1264 6.75001 22.1264H3.75001C3.25273 22.1264 2.77581 21.9288 2.42418 21.5772C2.07255 21.2256 1.87501 20.7486 1.87501 20.2514V17.5617C1.87434 17.3154 1.92255 17.0714 2.01686 16.8438C2.11116 16.6163 2.24968 16.4097 2.42438 16.236L7.44188 11.2185C7.12409 10.1257 7.04693 8.97705 7.21572 7.85157C7.38451 6.72609 7.79524 5.65057 8.41961 4.69907C9.04399 3.74757 9.86719 2.94271 10.8325 2.33991C11.7978 1.73711 12.8823 1.35071 14.0113 1.2073C15.1403 1.0639 16.287 1.1669 17.3723 1.50922C18.4577 1.85154 19.456 2.42504 20.2984 3.19022C21.1408 3.95541 21.8074 4.8941 22.2522 5.94164C22.697 6.98918 22.9095 8.12069 22.875 9.25823ZM18.9778 5.02355C18.4351 4.47596 17.7848 4.04686 17.0678 3.76334C16.3509 3.47983 15.5829 3.34806 14.8125 3.37636C11.8125 3.47011 9.37501 5.99105 9.37501 8.99105C9.37268 9.70322 9.50632 10.4093 9.76876 11.0714C9.85721 11.278 9.88172 11.5065 9.83911 11.7272C9.79649 11.948 9.68872 12.1509 9.52969 12.3098L4.12501 17.7201V19.8764H5.62501V18.7514C5.62501 18.453 5.74353 18.1668 5.95451 17.9559C6.16549 17.7449 6.45164 17.6264 6.75001 17.6264H7.87501V16.5014C7.87501 16.203 7.99353 15.9168 8.20451 15.7059C8.41549 15.4949 8.70164 15.3764 9.00001 15.3764H10.7813L11.6859 14.4717C11.8449 14.3125 12.048 14.2046 12.2689 14.1619C12.4899 14.1193 12.7185 14.1439 12.9253 14.2326C13.5856 14.4946 14.2897 14.6282 15 14.6264H15.0075C18.0075 14.6264 20.5266 12.1823 20.6222 9.18886C20.6505 8.41867 20.5189 7.65097 20.2359 6.9341C19.9529 6.21724 19.5246 5.56673 18.9778 5.02355Z" fill="#130032"/>
</svg>
