<svg width="24" height="24" viewBox="0 0 24 24" fill="none" xmlns="http://www.w3.org/2000/svg">
<path d="M22.0027 2.74834C21.4431 2.18913 20.6844 1.875 19.8933 1.875C19.1022 1.875 18.3435 2.18913 17.7839 2.74834L1.45457 19.0852C1.31227 19.2271 1.21059 19.4046 1.1601 19.5991C1.10961 19.7937 1.11216 19.9982 1.16747 20.1914C1.22278 20.3846 1.32885 20.5595 1.47463 20.6978C1.62042 20.8361 1.8006 20.9329 1.99644 20.978C3.1376 21.2423 4.30509 21.376 5.47644 21.3765C8.63675 21.3765 11.7961 20.3996 14.7671 18.4824C17.7971 16.5268 19.5633 14.2918 19.6364 14.198C19.8056 13.9812 19.8895 13.7099 19.8722 13.4354C19.8549 13.1609 19.7377 12.9023 19.5427 12.7083L17.9058 11.064L22.0027 6.96615C22.5609 6.40626 22.8744 5.64788 22.8744 4.85724C22.8744 4.06661 22.5609 3.30823 22.0027 2.74834ZM13.4874 16.629C10.5933 18.4815 7.61957 19.314 4.61957 19.1021L13.6871 10.0327L15.5152 11.8618L17.2027 13.5493C16.091 14.7198 14.8438 15.7537 13.4874 16.629ZM20.4118 5.37896L16.3121 9.47021L15.2808 8.43896L19.3777 4.34021C19.5175 4.21988 19.6977 4.15685 19.882 4.16375C20.0664 4.17065 20.2413 4.24697 20.3717 4.37742C20.5022 4.50786 20.5785 4.68279 20.5854 4.86714C20.5923 5.05149 20.5293 5.23163 20.4089 5.37146L20.4118 5.37896Z" fill="#130032"/>
</svg>
