<svg width="24" height="24" viewBox="0 0 24 24" fill="none" xmlns="http://www.w3.org/2000/svg">
<path d="M18 1.875C17.7016 1.875 17.4155 1.99353 17.2045 2.2045C16.9935 2.41548 16.875 2.70163 16.875 3V5.625H7.125V3C7.125 2.70163 7.00647 2.41548 6.7955 2.2045C6.58452 1.99353 6.29837 1.875 6 1.875C5.70163 1.875 5.41548 1.99353 5.2045 2.2045C4.99353 2.41548 4.875 2.70163 4.875 3V21C4.875 21.2984 4.99353 21.5845 5.2045 21.7955C5.41548 22.0065 5.70163 22.125 6 22.125C6.29837 22.125 6.58452 22.0065 6.7955 21.7955C7.00647 21.5845 7.125 21.2984 7.125 21V18.375H16.875V21C16.875 21.2984 16.9935 21.5845 17.2045 21.7955C17.4155 22.0065 17.7016 22.125 18 22.125C18.2984 22.125 18.5845 22.0065 18.7955 21.7955C19.0065 21.5845 19.125 21.2984 19.125 21V3C19.125 2.70163 19.0065 2.41548 18.7955 2.2045C18.5845 1.99353 18.2984 1.875 18 1.875ZM16.875 7.875V10.875H7.125V7.875H16.875ZM7.125 16.125V13.125H16.875V16.125H7.125Z" fill="#130032"/>
</svg>
