<svg width="24" height="24" viewBox="0 0 24 24" fill="none" xmlns="http://www.w3.org/2000/svg">
<path d="M20.5567 19.8656L15.8223 6.84375L16.5376 4.875H17.2501C17.5485 4.875 17.8346 4.75647 18.0456 4.5455C18.2566 4.33452 18.3751 4.04837 18.3751 3.75C18.3751 3.45163 18.2566 3.16548 18.0456 2.9545C17.8346 2.74353 17.5485 2.625 17.2501 2.625H8.25009C7.96213 2.62705 7.68593 2.73944 7.47836 2.93903C7.27078 3.13862 7.14765 3.41021 7.13431 3.69787C7.12097 3.98552 7.21845 4.26734 7.40666 4.48528C7.59488 4.70322 7.8595 4.84069 8.14603 4.86937L2.69353 19.8694C2.59178 20.1496 2.60542 20.4588 2.73145 20.7289C2.85749 20.9991 3.08561 21.2082 3.36572 21.3103C3.48902 21.3544 3.61915 21.3763 3.75009 21.375C3.98107 21.375 4.20646 21.304 4.39566 21.1715C4.58485 21.039 4.72867 20.8515 4.80759 20.6344L5.62509 18.375H9.23447L8.69259 19.8656C8.59089 20.146 8.60466 20.4552 8.73088 20.7254C8.8571 20.9956 9.08544 21.2047 9.36572 21.3066C9.48876 21.352 9.61892 21.3752 9.75009 21.375C9.98107 21.375 10.2065 21.304 10.3957 21.1715C10.5848 21.039 10.7287 20.8515 10.8076 20.6344L12.4473 16.125H16.8029L18.4426 20.6344C18.5215 20.8515 18.6653 21.039 18.8545 21.1715C19.0437 21.304 19.2691 21.375 19.5001 21.375C19.6313 21.3751 19.7614 21.3519 19.8845 21.3066C20.1646 21.2045 20.3927 20.9954 20.5187 20.7252C20.6448 20.455 20.6584 20.1459 20.5567 19.8656ZM11.6898 11.625H8.08322L8.90634 9.375H12.512L11.6898 11.625ZM13.3257 7.125H9.72009L10.5385 4.875H14.1442L13.3257 7.125ZM6.44728 16.125L7.26572 13.875H10.8751L10.0567 16.125H6.44728ZM13.2657 13.875L14.6251 10.1353L15.9845 13.875H13.2657Z" fill="#130032"/>
</svg>
