<svg width="24" height="24" viewBox="0 0 24 24" fill="none" xmlns="http://www.w3.org/2000/svg">
<path d="M16.875 6.77625V6.75C16.875 6.25272 16.6775 5.77581 16.3258 5.42417C15.9742 5.07254 15.4973 4.875 15 4.875H13.125V1.5C13.125 1.20163 13.0065 0.915483 12.7955 0.704505C12.5845 0.493526 12.2984 0.375 12 0.375C11.7017 0.375 11.4155 0.493526 11.2045 0.704505C10.9935 0.915483 10.875 1.20163 10.875 1.5V4.875H9.00002C8.50274 4.875 8.02582 5.07254 7.67419 5.42417C7.32256 5.77581 7.12502 6.25272 7.12502 6.75V6.77625C5.31919 7.67823 3.80088 9.06621 2.7409 10.7841C1.68091 12.5019 1.1213 14.4814 1.12502 16.5C1.12502 16.7984 1.24354 17.0845 1.45452 17.2955C1.6655 17.5065 1.95165 17.625 2.25002 17.625H7.89283C7.98824 18.6483 8.46219 19.5991 9.22189 20.2913C9.98158 20.9834 10.9723 21.3671 12 21.3671C13.0277 21.3671 14.0185 20.9834 14.7782 20.2913C15.5378 19.5991 16.0118 18.6483 16.1072 17.625H21.75C22.0484 17.625 22.3345 17.5065 22.5455 17.2955C22.7565 17.0845 22.875 16.7984 22.875 16.5C22.8787 14.4814 22.3191 12.5019 21.2591 10.7841C20.1992 9.06621 18.6808 7.67823 16.875 6.77625ZM12 19.125C11.5678 19.1251 11.1488 18.9758 10.8139 18.7025C10.4791 18.4291 10.249 18.0485 10.1625 17.625H13.8375C13.7511 18.0485 13.521 18.4291 13.1861 18.7025C12.8513 18.9758 12.4323 19.1251 12 19.125ZM3.44814 15.375C3.64262 13.8755 4.22895 12.4538 5.14802 11.2531C6.06709 10.0524 7.28643 9.11518 8.68314 8.53594C8.88769 8.45061 9.06247 8.30677 9.18556 8.12247C9.30865 7.93817 9.37456 7.72162 9.37502 7.5V7.125H14.625V7.5C14.6249 7.7221 14.6906 7.93926 14.8137 8.12412C14.9368 8.30897 15.1119 8.45324 15.3169 8.53875C16.7142 9.11839 17.934 10.0563 18.8531 11.2579C19.7722 12.4594 20.3582 13.8822 20.5519 15.3825L3.44814 15.375Z" fill="#130032"/>
</svg>
