<svg width="24" height="24" viewBox="0 0 24 24" fill="none" xmlns="http://www.w3.org/2000/svg">
<path d="M23.5315 13.8066L19.0315 3.30656C18.9449 3.10468 18.8011 2.93257 18.6179 2.81145C18.4346 2.69034 18.2199 2.62552 18.0003 2.625H6.00026C5.7806 2.62552 5.5659 2.69034 5.38264 2.81145C5.19939 2.93257 5.0556 3.10468 4.96901 3.30656L0.469012 13.8066C0.39571 13.9775 0.365919 14.1639 0.382306 14.3491C0.398694 14.5344 0.460748 14.7127 0.562916 14.8681C0.665085 15.0235 0.804181 15.1511 0.967759 15.2396C1.13134 15.328 1.31429 15.3746 1.50026 15.375H10.8753V19.125H9.00026C8.70189 19.125 8.41575 19.2435 8.20477 19.4545C7.99379 19.6655 7.87526 19.9516 7.87526 20.25C7.87526 20.5484 7.99379 20.8345 8.20477 21.0455C8.41575 21.2565 8.70189 21.375 9.00026 21.375H15.0003C15.2986 21.375 15.5848 21.2565 15.7958 21.0455C16.0067 20.8345 16.1253 20.5484 16.1253 20.25C16.1253 19.9516 16.0067 19.6655 15.7958 19.4545C15.5848 19.2435 15.2986 19.125 15.0003 19.125H13.1253V15.375H17.6253V18C17.6253 18.2984 17.7438 18.5845 17.9548 18.7955C18.1657 19.0065 18.4519 19.125 18.7503 19.125C19.0486 19.125 19.3348 19.0065 19.5458 18.7955C19.7567 18.5845 19.8753 18.2984 19.8753 18V15.375H22.5003C22.6862 15.3746 22.8692 15.328 23.0328 15.2396C23.1963 15.1511 23.3354 15.0235 23.4376 14.8681C23.5398 14.7127 23.6018 14.5344 23.6182 14.3491C23.6346 14.1639 23.6048 13.9775 23.5315 13.8066ZM3.20651 13.125L6.74183 4.875H17.2587L20.794 13.125H3.20651Z" fill="#130032"/>
</svg>
