<svg width="24" height="24" viewBox="0 0 24 24" fill="none" xmlns="http://www.w3.org/2000/svg">
<path d="M23.625 15C23.6238 16.0936 23.1888 17.1421 22.4154 17.9154C21.6421 18.6888 20.5936 19.1238 19.5 19.125H17.8659C16.7959 19.1227 15.7487 18.8163 14.8462 18.2415C13.9437 17.6666 13.2232 16.8471 12.7687 15.8784L9.94219 9.82312C9.66945 9.24198 9.23718 8.75031 8.69575 8.4054C8.15432 8.06049 7.52602 7.87655 6.88406 7.875H6C5.10489 7.875 4.24645 8.23058 3.61351 8.86351C2.98058 9.49645 2.625 10.3549 2.625 11.25V13.5C2.625 14.3951 2.98058 15.2535 3.61351 15.8865C4.24645 16.5194 5.10489 16.875 6 16.875H6.75C7.26105 16.8753 7.76107 16.7265 8.18873 16.4467C8.61639 16.1669 8.95308 15.7684 9.1575 15.3C9.21659 15.1646 9.30178 15.0421 9.40821 14.9396C9.51463 14.8371 9.6402 14.7566 9.77774 14.7026C9.91529 14.6486 10.0621 14.6223 10.2099 14.625C10.3576 14.6278 10.5033 14.6597 10.6388 14.7188C10.7742 14.7778 10.8966 14.863 10.9991 14.9695C11.1016 15.0759 11.1822 15.2014 11.2362 15.339C11.2901 15.4765 11.3165 15.6234 11.3137 15.7711C11.3109 15.9188 11.2791 16.0646 11.22 16.2C10.8404 17.0697 10.2153 17.8097 9.4213 18.3293C8.62729 18.8488 7.6989 19.1254 6.75 19.125H6C4.50869 19.1233 3.07896 18.5301 2.02444 17.4756C0.969927 16.421 0.376737 14.9913 0.375 13.5V11.25C0.376737 9.75869 0.969927 8.32896 2.02444 7.27444C3.07896 6.21993 4.50869 5.62674 6 5.625H6.88406C7.95405 5.62731 9.00134 5.93373 9.90382 6.50855C10.8063 7.08337 11.5268 7.90289 11.9813 8.87156L14.8125 14.9269C15.0849 15.5073 15.5164 15.9985 16.057 16.3433C16.5975 16.6882 17.2248 16.8726 17.8659 16.875H19.5C19.9973 16.875 20.4742 16.6775 20.8258 16.3258C21.1775 15.9742 21.375 15.4973 21.375 15C21.375 14.5027 21.1775 14.0258 20.8258 13.6742C20.4742 13.3225 19.9973 13.125 19.5 13.125H17.625C16.6304 13.125 15.6766 12.7299 14.9733 12.0267C14.2701 11.3234 13.875 10.3696 13.875 9.375C13.875 8.38044 14.2701 7.42661 14.9733 6.72335C15.6766 6.02009 16.6304 5.625 17.625 5.625H19.5C20.3951 5.625 21.2535 5.98058 21.8865 6.61351C22.5194 7.24645 22.875 8.10489 22.875 9C22.875 9.29837 22.7565 9.58452 22.5455 9.7955C22.3345 10.0065 22.0484 10.125 21.75 10.125C21.4516 10.125 21.1655 10.0065 20.9545 9.7955C20.7435 9.58452 20.625 9.29837 20.625 9C20.625 8.70163 20.5065 8.41548 20.2955 8.2045C20.0845 7.99353 19.7984 7.875 19.5 7.875H17.625C17.2272 7.875 16.8456 8.03304 16.5643 8.31434C16.283 8.59564 16.125 8.97718 16.125 9.375C16.125 9.77282 16.283 10.1544 16.5643 10.4357C16.8456 10.717 17.2272 10.875 17.625 10.875H19.5C20.5936 10.8762 21.6421 11.3112 22.4154 12.0846C23.1888 12.8579 23.6238 13.9064 23.625 15Z" fill="#130032"/>
</svg>
