<svg width="24" height="24" viewBox="0 0 24 24" fill="none" xmlns="http://www.w3.org/2000/svg">
<path d="M21.3207 3.73709C21.3046 3.46187 21.188 3.20213 20.9931 3.00718C20.7981 2.81224 20.5384 2.69566 20.2632 2.67959C16.5507 2.46115 13.2704 2.89897 10.5132 3.9799C7.87504 5.01397 5.8416 6.61709 4.63035 8.61584C2.97847 11.3449 2.97472 14.658 4.58816 17.8212L2.9541 19.4552C2.84945 19.5599 2.76644 19.6841 2.70981 19.8208C2.65317 19.9576 2.62402 20.1041 2.62402 20.2521C2.62402 20.4001 2.65317 20.5466 2.70981 20.6834C2.76644 20.8201 2.84945 20.9443 2.9541 21.049C3.16544 21.2603 3.45209 21.379 3.75097 21.379C3.89897 21.379 4.04551 21.3499 4.18224 21.2933C4.31897 21.2366 4.4432 21.1536 4.54785 21.049L6.18191 19.4149C7.75129 20.2155 9.35816 20.6196 10.9116 20.6196C12.4899 20.6245 14.0388 20.193 15.3872 19.3727C17.386 18.1615 18.9891 16.1271 20.0232 13.4899C21.1013 10.7308 21.5391 7.44959 21.3207 3.73709ZM14.2182 17.4452C12.3347 18.5862 10.125 18.6724 7.86941 17.719L15.795 9.79334C15.8997 9.68869 15.9827 9.56446 16.0393 9.42773C16.096 9.291 16.1251 9.14446 16.1251 8.99647C16.1251 8.84847 16.096 8.70193 16.0393 8.5652C15.9827 8.42847 15.8997 8.30424 15.795 8.19959C15.6904 8.09494 15.5662 8.01193 15.4294 7.9553C15.2927 7.89867 15.1462 7.86952 14.9982 7.86952C14.8502 7.86952 14.7036 7.89867 14.5669 7.9553C14.4302 8.01193 14.3059 8.09494 14.2013 8.19959L6.28129 16.1308C5.33066 13.8808 5.41691 11.6655 6.56254 9.78209C8.52285 6.5449 13.1757 4.74584 19.125 4.88365C19.2544 10.8312 17.4554 15.4849 14.2182 17.4452Z" fill="#130032"/>
</svg>
