<svg width="24" height="24" viewBox="0 0 24 24" fill="none" xmlns="http://www.w3.org/2000/svg">
<path d="M7.875 10.5C7.875 10.2033 7.96297 9.91332 8.1278 9.66665C8.29262 9.41997 8.52689 9.22771 8.80097 9.11418C9.07506 9.00065 9.37666 8.97094 9.66764 9.02882C9.95861 9.0867 10.2259 9.22956 10.4357 9.43934C10.6454 9.64912 10.7883 9.91639 10.8462 10.2074C10.9041 10.4983 10.8744 10.7999 10.7608 11.074C10.6473 11.3481 10.455 11.5824 10.2084 11.7472C9.96168 11.912 9.67167 12 9.375 12C8.97718 12 8.59564 11.842 8.31434 11.5607C8.03304 11.2794 7.875 10.8978 7.875 10.5ZM14.625 9C14.3283 9 14.0383 9.08797 13.7916 9.2528C13.545 9.41762 13.3527 9.65189 13.2392 9.92597C13.1256 10.2001 13.0959 10.5017 13.1538 10.7926C13.2117 11.0836 13.3546 11.3509 13.5643 11.5607C13.7741 11.7704 14.0414 11.9133 14.3324 11.9712C14.6233 12.0291 14.9249 11.9994 15.199 11.8858C15.4731 11.7723 15.7074 11.58 15.8722 11.3334C16.037 11.0867 16.125 10.7967 16.125 10.5C16.125 10.1022 15.967 9.72064 15.6857 9.43934C15.4044 9.15804 15.0228 9 14.625 9ZM14.025 13.2984C13.4168 13.6754 12.7155 13.8751 12 13.8751C11.2845 13.8751 10.5832 13.6754 9.975 13.2984C9.85003 13.2177 9.71029 13.1626 9.56386 13.1362C9.41744 13.1098 9.26723 13.1128 9.12195 13.1448C8.97667 13.1769 8.8392 13.2375 8.71748 13.3231C8.59577 13.4086 8.49224 13.5175 8.41289 13.6433C8.33353 13.7692 8.27993 13.9095 8.25518 14.0562C8.23043 14.203 8.23503 14.3531 8.26871 14.498C8.30239 14.643 8.36448 14.7798 8.45138 14.9005C8.53829 15.0213 8.64828 15.1236 8.775 15.2016C9.74245 15.805 10.8598 16.1249 12 16.1249C13.1402 16.1249 14.2576 15.805 15.225 15.2016C15.3517 15.1236 15.4617 15.0213 15.5486 14.9005C15.6355 14.7798 15.6976 14.643 15.7313 14.498C15.765 14.3531 15.7696 14.203 15.7448 14.0562C15.7201 13.9095 15.6665 13.7692 15.5871 13.6433C15.5078 13.5175 15.4042 13.4086 15.2825 13.3231C15.1608 13.2375 15.0233 13.1769 14.878 13.1448C14.7328 13.1128 14.5826 13.1098 14.4361 13.1362C14.2897 13.1626 14.15 13.2177 14.025 13.2984ZM20.625 7.875V16.125C20.624 16.8227 20.4073 17.503 20.0044 18.0726C19.6016 18.6423 19.0325 19.0734 18.375 19.3069V21C18.375 21.4973 18.1775 21.9742 17.8258 22.3258C17.4742 22.6775 16.9973 22.875 16.5 22.875H7.5C7.00272 22.875 6.52581 22.6775 6.17417 22.3258C5.82254 21.9742 5.625 21.4973 5.625 21V19.3069C4.96753 19.0734 4.39837 18.6423 3.99556 18.0726C3.59274 17.503 3.37598 16.8227 3.375 16.125V7.875C3.375 6.97989 3.73058 6.12145 4.36351 5.48851C4.99645 4.85558 5.85489 4.5 6.75 4.5H7.875V3C7.875 2.50272 8.07254 2.02581 8.42417 1.67417C8.77581 1.32254 9.25272 1.125 9.75 1.125H14.25C14.7473 1.125 15.2242 1.32254 15.5758 1.67417C15.9275 2.02581 16.125 2.50272 16.125 3V4.5H17.25C18.1451 4.5 19.0035 4.85558 19.6365 5.48851C20.2694 6.12145 20.625 6.97989 20.625 7.875ZM10.125 4.5H13.875V3.375H10.125V4.5ZM16.125 20.625V19.5H7.875V20.625H16.125ZM18.375 7.875C18.375 7.57663 18.2565 7.29048 18.0455 7.0795C17.8345 6.86853 17.5484 6.75 17.25 6.75H6.75C6.45163 6.75 6.16548 6.86853 5.9545 7.0795C5.74353 7.29048 5.625 7.57663 5.625 7.875V16.125C5.625 16.4234 5.74353 16.7095 5.9545 16.9205C6.16548 17.1315 6.45163 17.25 6.75 17.25H17.25C17.5484 17.25 17.8345 17.1315 18.0455 16.9205C18.2565 16.7095 18.375 16.4234 18.375 16.125V7.875Z" fill="#130032"/>
</svg>
