<svg width="24" height="24" viewBox="0 0 24 24" fill="none" xmlns="http://www.w3.org/2000/svg">
<path d="M19.7665 19.2319C19.7032 19.3657 19.6143 19.4856 19.5046 19.5849C19.395 19.6842 19.2668 19.761 19.1275 19.8107C18.9882 19.8604 18.8404 19.8822 18.6927 19.8747C18.5449 19.8672 18.4001 19.8307 18.2665 19.7672L4.01647 13.0172C3.82423 12.9259 3.66182 12.782 3.5481 12.6021C3.43439 12.4222 3.37402 12.2138 3.37402 12.001C3.37402 11.7882 3.43439 11.5797 3.5481 11.3998C3.66182 11.2199 3.82423 11.076 4.01647 10.9847L18.2665 4.23472C18.4002 4.16956 18.5456 4.13158 18.6941 4.12298C18.8427 4.11437 18.9914 4.13532 19.1318 4.18461C19.2722 4.2339 19.4014 4.31054 19.512 4.41011C19.6226 4.50967 19.7123 4.63018 19.7759 4.76466C19.8396 4.89913 19.876 5.0449 19.8829 5.19353C19.8899 5.34215 19.8673 5.49068 19.8164 5.63052C19.7656 5.77035 19.6875 5.8987 19.5867 6.00816C19.486 6.11761 19.3645 6.20598 19.2293 6.26816L7.12522 12.001L19.2283 17.7338C19.3621 17.7968 19.4821 17.8855 19.5816 17.9949C19.681 18.1043 19.7579 18.2322 19.8079 18.3713C19.8579 18.5104 19.88 18.6581 19.8728 18.8057C19.8657 18.9534 19.8296 19.0982 19.7665 19.2319Z" fill="#130032"/>
</svg>
