<svg width="24" height="24" viewBox="0 0 24 24" fill="none" xmlns="http://www.w3.org/2000/svg">
<path d="M12 1.875C9.99747 1.875 8.0399 2.46882 6.37486 3.58137C4.70981 4.69392 3.41206 6.27523 2.64572 8.12533C1.87939 9.97543 1.67888 12.0112 2.06955 13.9753C2.46023 15.9393 3.42454 17.7435 4.84055 19.1595C6.25656 20.5755 8.06066 21.5398 10.0247 21.9305C11.9888 22.3211 14.0246 22.1206 15.8747 21.3543C17.7248 20.5879 19.3061 19.2902 20.4186 17.6251C21.5312 15.9601 22.125 14.0025 22.125 12C22.122 9.3156 21.0543 6.74199 19.1562 4.84383C17.258 2.94567 14.6844 1.87798 12 1.875ZM12 19.875C10.4425 19.875 8.91993 19.4131 7.62489 18.5478C6.32985 17.6825 5.32049 16.4526 4.72445 15.0136C4.12841 13.5747 3.97246 11.9913 4.27632 10.4637C4.58018 8.93606 5.3302 7.53287 6.43154 6.43153C7.53288 5.3302 8.93607 4.58017 10.4637 4.27632C11.9913 3.97246 13.5747 4.12841 15.0136 4.72445C16.4526 5.32049 17.6825 6.32985 18.5478 7.62488C19.4131 8.91992 19.875 10.4425 19.875 12C19.8728 14.0879 19.0424 16.0896 17.566 17.566C16.0896 19.0424 14.0879 19.8728 12 19.875ZM16.0444 9.41813L13.0444 16.9181C12.9608 17.1268 12.8167 17.3056 12.6305 17.4316C12.4444 17.5576 12.2248 17.6249 12 17.6249C11.7752 17.6249 11.5556 17.5576 11.3695 17.4316C11.1833 17.3056 11.0392 17.1268 10.9556 16.9181L7.95563 9.41813C7.89937 9.28072 7.87086 9.13354 7.87176 8.98506C7.87265 8.83659 7.90293 8.68976 7.96084 8.55304C8.01875 8.41632 8.10315 8.29242 8.20918 8.18848C8.3152 8.08454 8.44076 8.00261 8.5786 7.94743C8.71644 7.89224 8.86384 7.86489 9.0123 7.86694C9.16077 7.869 9.30735 7.90042 9.44361 7.9594C9.57987 8.01838 9.70311 8.10375 9.80622 8.21058C9.90933 8.31742 9.99027 8.44361 10.0444 8.58187L12 13.4709L13.9556 8.58187C14.0681 8.30717 14.2846 8.08805 14.5579 7.97227C14.8313 7.85649 15.1393 7.85343 15.4149 7.96376C15.6905 8.07409 15.9113 8.28887 16.0292 8.56129C16.1471 8.83371 16.1526 9.14169 16.0444 9.41813Z" fill="#130032"/>
</svg>
