<svg width="24" height="24" viewBox="0 0 24 24" fill="none" xmlns="http://www.w3.org/2000/svg">
<path d="M16.8529 10.3823C16.8174 10.2071 16.7405 10.043 16.6289 9.90343C16.5172 9.76388 16.3739 9.65294 16.2108 9.57981L11.8129 7.60449L13.0223 2.50918C13.0796 2.26737 13.0551 2.0134 12.9529 1.78692C12.8506 1.56045 12.6762 1.37422 12.4569 1.2573C12.2376 1.14038 11.9858 1.09935 11.7408 1.14062C11.4957 1.18189 11.2712 1.30314 11.1023 1.48543L2.17451 11.1276C2.0532 11.2586 1.96481 11.4167 1.91667 11.5886C1.86852 11.7606 1.862 11.9415 1.89763 12.1165C1.93327 12.2914 2.01004 12.4554 2.1216 12.5948C2.23316 12.7342 2.37631 12.8451 2.5392 12.9182L6.94545 14.8945L5.73045 19.9889C5.67252 20.231 5.69652 20.4854 5.79869 20.7124C5.90087 20.9394 6.07544 21.1261 6.29507 21.2433C6.51471 21.3604 6.767 21.4014 7.01243 21.3599C7.25787 21.3183 7.48258 21.1965 7.65139 21.0136L16.5754 11.3704C16.6968 11.2395 16.7852 11.0817 16.8334 10.9099C16.8817 10.738 16.8884 10.5572 16.8529 10.3823ZM8.9067 16.3411L9.3417 14.5092C9.40218 14.2545 9.37198 13.9868 9.2563 13.752C9.14062 13.5172 8.94671 13.3301 8.70795 13.2229L4.8867 11.5073L9.8442 6.15793L9.4092 7.98981C9.34725 8.24468 9.3763 8.51319 9.49134 8.74891C9.60638 8.98464 9.80017 9.17276 10.0392 9.28074L13.8614 10.9964L8.9067 16.3411ZM22.7536 19.7461L19.3786 12.9961C19.2852 12.8091 19.1415 12.6518 18.9638 12.5419C18.786 12.432 18.5812 12.3738 18.3722 12.3738C18.1632 12.3738 17.9583 12.432 17.7806 12.5419C17.6028 12.6518 17.4592 12.8091 17.3658 12.9961L13.9908 19.7461C13.9205 19.8786 13.8774 20.0238 13.864 20.1733C13.8507 20.3227 13.8674 20.4733 13.9131 20.6162C13.9588 20.759 14.0326 20.8913 14.1302 21.0053C14.2278 21.1192 14.3473 21.2124 14.4814 21.2795C14.6156 21.3466 14.7619 21.3862 14.9116 21.3959C15.0613 21.4057 15.2114 21.3854 15.3532 21.3362C15.4949 21.2871 15.6254 21.21 15.7369 21.1097C15.8485 21.0094 15.9388 20.8878 16.0026 20.752L16.4414 19.8745H20.3011L20.7398 20.752C20.8732 21.0189 21.1072 21.2219 21.3902 21.3163C21.6733 21.4107 21.9823 21.3888 22.2492 21.2554C22.5161 21.122 22.7191 20.8881 22.8135 20.605C22.9079 20.3219 22.886 20.013 22.7526 19.7461H22.7536ZM17.5701 17.6245L18.3755 16.0148L19.1798 17.6245H17.5701Z" fill="#130032"/>
</svg>
