<svg width="24" height="24" viewBox="0 0 24 24" fill="none" xmlns="http://www.w3.org/2000/svg">
<path d="M5.33278 2.99424C5.23399 2.88287 5.11407 2.79222 4.97998 2.72754C4.8459 2.66286 4.7003 2.62544 4.55165 2.61744C4.40299 2.60945 4.25422 2.63103 4.11397 2.68095C3.97372 2.73088 3.84477 2.80814 3.73459 2.90826C3.62442 3.00838 3.53522 3.12938 3.47215 3.26423C3.40908 3.39909 3.37341 3.54511 3.36719 3.69386C3.36098 3.8426 3.38435 3.9911 3.43594 4.13074C3.48754 4.27038 3.56635 4.3984 3.66778 4.50736L7.11591 8.29955L3.6781 11.983C3.55328 12.1167 3.46294 12.2787 3.41488 12.4552C3.36683 12.6316 3.36252 12.8171 3.40231 12.9956C3.44211 13.1741 3.52482 13.3402 3.64329 13.4795C3.76175 13.6189 3.91239 13.7272 4.08216 13.7952L8.88028 15.7142L7.88747 22.3339C7.85103 22.5716 7.89171 22.8148 8.00356 23.0277C8.11541 23.2405 8.29254 23.412 8.50896 23.5168C8.72538 23.6217 8.9697 23.6544 9.2061 23.6103C9.44249 23.5661 9.65851 23.4474 9.82247 23.2714L15.3443 17.3549L18.6678 21.0111C18.8695 21.2278 19.1485 21.3562 19.4442 21.3686C19.74 21.3809 20.0287 21.2762 20.2478 21.0771C20.4669 20.878 20.5987 20.6006 20.6146 20.305C20.6305 20.0094 20.5292 19.7194 20.3328 19.498L5.33278 2.99424ZM10.6503 19.0836L11.2381 15.1677C11.2757 14.917 11.2275 14.6611 11.1014 14.4412C10.9753 14.2214 10.7787 14.0506 10.5434 13.9564L6.44466 12.3167L8.63372 9.97299L13.8256 15.6842L10.6503 19.0836ZM10.445 6.38143C10.3364 6.2806 10.2488 6.15931 10.1872 6.02453C10.1256 5.88975 10.0913 5.74414 10.0861 5.59605C10.081 5.44795 10.1052 5.30031 10.1573 5.16158C10.2093 5.02286 10.2883 4.89579 10.3897 4.78768L14.1781 0.732989C14.3421 0.557063 14.5581 0.438306 14.7945 0.394138C15.0309 0.34997 15.2752 0.382715 15.4916 0.48757C15.708 0.592425 15.8852 0.763872 15.997 0.976763C16.1089 1.18965 16.1495 1.43278 16.1131 1.67049L15.1203 8.28736L19.9184 10.2064C20.0882 10.2744 20.2388 10.3827 20.3573 10.5221C20.4757 10.6614 20.5585 10.8275 20.5983 11.006C20.6381 11.1845 20.6337 11.37 20.5857 11.5464C20.5376 11.7229 20.4473 11.885 20.3225 12.0186L18.7456 13.7061C18.542 13.9243 18.26 14.0526 17.9617 14.0629C17.6634 14.0732 17.3733 13.9646 17.1551 13.761C16.9369 13.5573 16.8086 13.2754 16.7983 12.9771C16.788 12.6788 16.8966 12.3887 17.1003 12.1705L17.5559 11.6821L13.4572 10.0424C13.2219 9.94823 13.0252 9.7774 12.8992 9.55756C12.7731 9.33772 12.7249 9.08175 12.7625 8.83111L13.3503 4.91518L12.0378 6.32143C11.9373 6.4302 11.8163 6.51805 11.6818 6.57996C11.5472 6.64186 11.4018 6.6766 11.2538 6.68218C11.1059 6.68775 10.9582 6.66405 10.8194 6.61244C10.6806 6.56083 10.5534 6.48233 10.445 6.38143Z" fill="#130032"/>
</svg>
