<svg width="24" height="24" viewBox="0 0 24 24" fill="none" xmlns="http://www.w3.org/2000/svg">
<path d="M20.5977 11.0041C20.5578 10.8258 20.4751 10.6598 20.3567 10.5207C20.2382 10.3815 20.0877 10.2733 19.9181 10.2053L15.1199 8.28627L16.1127 1.66658C16.1492 1.42888 16.1085 1.18575 15.9967 0.972856C15.8848 0.759966 15.7077 0.588519 15.4913 0.483664C15.2748 0.378809 15.0305 0.346064 14.7941 0.390232C14.5577 0.4344 14.3417 0.553157 14.1777 0.729083L3.67774 11.9791C3.55293 12.1127 3.46259 12.2748 3.41453 12.4513C3.36648 12.6277 3.36217 12.8132 3.40196 12.9917C3.44176 13.1702 3.52447 13.3363 3.64294 13.4756C3.7614 13.6149 3.91204 13.7233 4.08181 13.7913L8.87993 15.7103L7.88712 22.3328C7.85068 22.5705 7.89136 22.8137 8.00321 23.0266C8.11506 23.2395 8.29219 23.4109 8.50861 23.5158C8.72503 23.6206 8.96935 23.6534 9.20575 23.6092C9.44214 23.565 9.65816 23.4463 9.82212 23.2703L20.3221 12.0203C20.4475 11.8863 20.5381 11.7236 20.5862 11.5464C20.6342 11.3693 20.6382 11.1831 20.5977 11.0041ZM10.6499 19.0825L11.2377 15.1666C11.2753 14.916 11.2271 14.66 11.1011 14.4401C10.975 14.2203 10.7784 14.0495 10.5431 13.9553L6.44431 12.3156L13.3499 4.9169L12.7621 8.83283C12.7246 9.08346 12.7727 9.33944 12.8988 9.55928C13.0249 9.77912 13.2215 9.94994 13.4568 10.0441L17.5556 11.6838L10.6499 19.0825Z" fill="#130032"/>
</svg>
