<svg width="24" height="24" viewBox="0 0 24 24" fill="none" xmlns="http://www.w3.org/2000/svg">
<path d="M16.8751 21.7486C16.8751 22.047 16.7566 22.3331 16.5456 22.5441C16.3346 22.7551 16.0485 22.8736 15.7501 22.8736H8.25013C7.95176 22.8736 7.66561 22.7551 7.45463 22.5441C7.24365 22.3331 7.12513 22.047 7.12513 21.7486C7.12513 21.4502 7.24365 21.1641 7.45463 20.9531C7.66561 20.7421 7.95176 20.6236 8.25013 20.6236H15.7501C16.0485 20.6236 16.3346 20.7421 16.5456 20.9531C16.7566 21.1641 16.8751 21.4502 16.8751 21.7486ZM20.6251 9.74858C20.6214 11.0906 20.3062 12.4134 19.7043 13.6129C19.1023 14.8124 18.2301 15.8557 17.1564 16.6608C17.0673 16.7304 16.9955 16.8197 16.9468 16.9217C16.898 17.0236 16.8734 17.1355 16.8751 17.2486C16.8751 17.4948 16.8266 17.7386 16.7324 17.9661C16.6382 18.1936 16.5001 18.4003 16.326 18.5744C16.1518 18.7485 15.9451 18.8866 15.7177 18.9809C15.4902 19.0751 15.2464 19.1236 15.0001 19.1236H9.00013C8.7539 19.1236 8.51008 19.0751 8.28259 18.9809C8.05511 18.8866 7.84841 18.7485 7.6743 18.5744C7.50019 18.4003 7.36208 18.1936 7.26785 17.9661C7.17362 17.7386 7.12513 17.4948 7.12513 17.2486V17.227C7.12343 17.113 7.09497 17.0011 7.04205 16.9001C6.98912 16.7991 6.91321 16.712 6.82044 16.6458C5.75426 15.8508 4.88785 14.8185 4.28984 13.6306C3.69183 12.4428 3.37865 11.1319 3.37513 9.80202C3.34981 5.12577 7.12513 1.23608 11.7929 1.12358C12.9429 1.09595 14.0868 1.29863 15.1572 1.71969C16.2277 2.14074 17.2031 2.77168 18.0261 3.57535C18.8491 4.37902 19.503 5.3392 19.9493 6.39937C20.3957 7.45954 20.6255 8.59828 20.6251 9.74858ZM18.3751 9.74858C18.3754 8.89823 18.2055 8.05642 17.8755 7.27271C17.5455 6.489 17.062 5.77923 16.4536 5.18519C15.8451 4.59115 15.124 4.12484 14.3326 3.81372C13.5412 3.5026 12.6955 3.35295 11.8454 3.37358C8.39638 3.45702 5.60638 6.33233 5.62513 9.78514C5.62723 10.769 5.85863 11.7387 6.30095 12.6175C6.74326 13.4963 7.38433 14.2599 8.17325 14.8476C8.4954 15.0893 8.76582 15.3931 8.96855 15.7411C9.17128 16.0891 9.3022 16.4742 9.35356 16.8736H10.8751V13.9673L8.20419 11.2945C8.09954 11.1899 8.01653 11.0656 7.9599 10.9289C7.90326 10.7922 7.87411 10.6456 7.87411 10.4976C7.87411 10.1988 7.99285 9.91211 8.20419 9.70077C8.41553 9.48943 8.70218 9.37069 9.00106 9.37069C9.29995 9.37069 9.5866 9.48943 9.79794 9.70077L12.0001 11.9048L14.2042 9.70077C14.4155 9.48943 14.7022 9.37069 15.0011 9.37069C15.2999 9.37069 15.5866 9.48943 15.7979 9.70077C16.0093 9.91211 16.128 10.1988 16.128 10.4976C16.128 10.7965 16.0093 11.0832 15.7979 11.2945L13.1251 13.9673V16.8736H14.6486C14.698 16.4771 14.8264 16.0945 15.0263 15.7484C15.2261 15.4024 15.4933 15.0999 15.812 14.8589C16.6106 14.2682 17.2588 13.4978 17.7041 12.6099C18.1494 11.7221 18.3793 10.7418 18.3751 9.74858Z" fill="#130032"/>
</svg>
