<svg width="24" height="24" viewBox="0 0 24 24" fill="none" xmlns="http://www.w3.org/2000/svg">
<path d="M20.625 7.8743C20.3266 7.8743 20.0405 7.99282 19.8295 8.2038C19.6185 8.41478 19.5 8.70093 19.5 8.9993V9.7493H18.0816L17.6194 5.1368C17.5925 4.85529 17.4607 4.59421 17.25 4.40555L13.2281 0.832735L13.2 0.809297C12.8631 0.528672 12.4385 0.375 12 0.375C11.5615 0.375 11.1369 0.528672 10.8 0.809297L10.7719 0.832735L6.75 4.40555C6.53809 4.59236 6.40423 4.85207 6.375 5.13305L5.91844 9.7493H4.5V8.9993C4.5 8.70093 4.38147 8.41478 4.1705 8.2038C3.95952 7.99282 3.67337 7.8743 3.375 7.8743C3.07663 7.8743 2.79048 7.99282 2.5795 8.2038C2.36853 8.41478 2.25 8.70093 2.25 8.9993V10.8743C2.25 11.1727 2.36853 11.4588 2.5795 11.6698C2.79048 11.8808 3.07663 11.9993 3.375 11.9993H5.6925L4.88344 20.0712C4.85862 20.3312 4.88842 20.5936 4.97094 20.8415C5.05345 21.0894 5.18686 21.3173 5.3626 21.5106C5.53834 21.7039 5.75254 21.8583 5.99146 21.964C6.23038 22.0697 6.48875 22.1243 6.75 22.1243H17.25C17.5116 22.1242 17.7703 22.0694 18.0095 21.9634C18.2486 21.8574 18.463 21.7025 18.6387 21.5087C18.8144 21.3149 18.9476 21.0864 19.0297 20.838C19.1119 20.5897 19.1411 20.3268 19.1156 20.0665L18.3075 11.9993H20.625C20.9234 11.9993 21.2095 11.8808 21.4205 11.6698C21.6315 11.4588 21.75 11.1727 21.75 10.8743V8.9993C21.75 8.70093 21.6315 8.41478 21.4205 8.2038C21.2095 7.99282 20.9234 7.8743 20.625 7.8743ZM12 2.7518L13.5431 4.1243H10.4569L12 2.7518ZM8.51813 6.3743H15.4819L15.8203 9.7493H13.125V8.9993C13.125 8.70093 13.0065 8.41478 12.7955 8.2038C12.5845 7.99282 12.2984 7.8743 12 7.8743C11.7016 7.8743 11.4155 7.99282 11.2045 8.2038C10.9935 8.41478 10.875 8.70093 10.875 8.9993V9.7493H8.17969L8.51813 6.3743ZM7.16437 19.8743L7.46531 16.8743H16.5347L16.8356 19.8743H7.16437ZM16.3125 14.6243H7.6875L7.95 11.9993H16.0425L16.3125 14.6243Z" fill="#130032"/>
</svg>
