<svg width="24" height="24" viewBox="0 0 24 24" fill="none" xmlns="http://www.w3.org/2000/svg">
<path d="M16.8751 21.7486C16.8751 22.047 16.7566 22.3331 16.5456 22.5441C16.3346 22.7551 16.0485 22.8736 15.7501 22.8736H8.25013C7.95176 22.8736 7.66561 22.7551 7.45463 22.5441C7.24365 22.3331 7.12513 22.047 7.12513 21.7486C7.12513 21.4502 7.24365 21.1641 7.45463 20.9531C7.66561 20.7421 7.95176 20.6236 8.25013 20.6236H15.7501C16.0485 20.6236 16.3346 20.7421 16.5456 20.9531C16.7566 21.1641 16.8751 21.4502 16.8751 21.7486ZM20.6251 9.74858C20.6285 11.0556 20.3333 12.3462 19.7618 13.5217C19.1904 14.6973 18.3579 15.7267 17.3279 16.5314C17.1885 16.6377 17.0751 16.7744 16.9966 16.9312C16.9182 17.088 16.8766 17.2607 16.8751 17.4361V17.6236C16.8751 18.1209 16.6776 18.5978 16.326 18.9494C15.9743 19.301 15.4974 19.4986 15.0001 19.4986H9.00013C8.50285 19.4986 8.02593 19.301 7.6743 18.9494C7.32267 18.5978 7.12513 18.1209 7.12513 17.6236V17.4361C7.12492 17.2636 7.08508 17.0936 7.00868 16.939C6.93228 16.7844 6.82136 16.6494 6.6845 16.5445C5.65735 15.7445 4.82563 14.7212 4.25228 13.5523C3.67893 12.3834 3.37898 11.0993 3.37513 9.79733C3.34981 5.12577 7.12513 1.23608 11.7929 1.12358C12.9429 1.09595 14.0868 1.29863 15.1572 1.71969C16.2277 2.14074 17.2031 2.77168 18.0261 3.57535C18.8491 4.37902 19.503 5.3392 19.9493 6.39937C20.3957 7.45954 20.6255 8.59828 20.6251 9.74858ZM18.3751 9.74858C18.3754 8.89823 18.2055 8.05642 17.8755 7.27271C17.5455 6.489 17.062 5.77923 16.4536 5.18519C15.8451 4.59115 15.124 4.12484 14.3326 3.81372C13.5412 3.5026 12.6955 3.35295 11.8454 3.37358C8.39638 3.45608 5.60638 6.3314 5.62513 9.78421C5.62834 10.7465 5.85029 11.6954 6.27419 12.5593C6.6981 13.4232 7.31286 14.1794 8.072 14.7708C8.45445 15.0659 8.7688 15.44 8.99367 15.8676C9.21854 16.2952 9.34865 16.7662 9.37513 17.2486H14.6345C14.6615 16.7653 14.7918 16.2933 15.0166 15.8646C15.2414 15.4359 15.5554 15.0604 15.9376 14.7633C16.6989 14.1682 17.3143 13.4071 17.7367 12.538C18.1592 11.6689 18.3775 10.7149 18.3751 9.74858ZM16.4936 9.24983C16.394 8.40805 16.0612 7.61085 15.5326 6.94822C15.0039 6.28559 14.3006 5.78392 13.502 5.49983C13.2229 5.40863 12.9191 5.43019 12.6557 5.55991C12.3922 5.68963 12.1899 5.91723 12.092 6.19409C11.9941 6.47095 12.0083 6.77513 12.1316 7.04164C12.2549 7.30816 12.4776 7.51589 12.752 7.62046C13.1533 7.76113 13.5073 8.01129 13.7739 8.34264C14.0404 8.67399 14.209 9.07331 14.2604 9.49546C14.2933 9.79209 14.4426 10.0635 14.6755 10.2501C14.7909 10.3424 14.9233 10.4112 15.0652 10.4524C15.2071 10.4936 15.3558 10.5064 15.5026 10.4901C15.6495 10.4739 15.7917 10.4289 15.9212 10.3577C16.0507 10.2864 16.1649 10.1904 16.2572 10.0751C16.3496 9.95971 16.4183 9.8273 16.4595 9.68538C16.5007 9.54347 16.5136 9.39483 16.4973 9.24796L16.4936 9.24983Z" fill="#130032"/>
</svg>
