<svg width="24" height="24" viewBox="0 0 24 24" fill="none" xmlns="http://www.w3.org/2000/svg">
<path d="M20.3876 3.61376C19.8248 3.049 19.0802 2.70172 18.2858 2.63348C17.4914 2.56524 16.6985 2.78044 16.0477 3.24094C15.3968 3.70144 14.93 4.3775 14.7299 5.14931C14.5299 5.92112 14.6095 6.73882 14.9548 7.45751L7.45477 14.9575C6.82472 14.6567 6.117 14.5583 5.42878 14.6758C4.74056 14.7933 4.10559 15.121 3.61102 15.6138C3.17443 16.0516 2.86652 16.601 2.7209 17.202C2.57528 17.8029 2.59756 18.4323 2.78529 19.0215C2.97302 19.6106 3.31899 20.1369 3.78544 20.5428C4.25189 20.9487 4.82089 21.2186 5.43033 21.3232C6.03976 21.4277 6.6662 21.3628 7.24127 21.1356C7.81634 20.9084 8.31793 20.5275 8.69128 20.0346C9.06464 19.5417 9.29541 18.9558 9.35841 18.3406C9.42141 17.7255 9.31422 17.1049 9.04852 16.5466L16.5485 9.04657C17.2672 9.39182 18.0849 9.47148 18.8567 9.27143C19.6285 9.07139 20.3046 8.60456 20.7651 7.95368C21.2256 7.3028 21.4408 6.50991 21.3726 5.71552C21.3043 4.92114 20.957 4.17656 20.3923 3.61376H20.3876ZM6.79384 18.8013C6.63635 18.9582 6.43588 19.065 6.21776 19.1081C5.99964 19.1511 5.77364 19.1286 5.5683 19.0434C5.36296 18.9581 5.18749 18.8139 5.06405 18.629C4.94061 18.4441 4.87472 18.2267 4.87472 18.0044C4.87472 17.782 4.94061 17.5647 5.06405 17.3798C5.18749 17.1949 5.36296 17.0507 5.5683 16.9654C5.77364 16.8801 5.99964 16.8576 6.21776 16.9007C6.43588 16.9438 6.63635 17.0506 6.79384 17.2075C7.00492 17.4184 7.12361 17.7044 7.12378 18.0028C7.12396 18.3011 7.00561 18.5873 6.79477 18.7984L6.79384 18.8013ZM18.7938 6.80126C18.6893 6.90614 18.5651 6.98936 18.4284 7.04614C18.2916 7.10292 18.145 7.13215 17.997 7.13215C17.8489 7.13215 17.7023 7.10292 17.5655 7.04614C17.4288 6.98936 17.3046 6.90614 17.2001 6.80126C17.0431 6.64377 16.9364 6.44331 16.8933 6.22519C16.8502 6.00707 16.8727 5.78107 16.958 5.57573C17.0432 5.37039 17.1874 5.19492 17.3724 5.07147C17.5573 4.94803 17.7746 4.88215 17.997 4.88215C18.2193 4.88215 18.4367 4.94803 18.6216 5.07147C18.8065 5.19492 18.9507 5.37039 19.036 5.57573C19.1212 5.78107 19.1437 6.00707 19.1006 6.22519C19.0575 6.44331 18.9508 6.64377 18.7938 6.80126Z" fill="#130032"/>
</svg>
