<svg width="24" height="24" viewBox="0 0 24 24" fill="none" xmlns="http://www.w3.org/2000/svg">
<path d="M22.6377 2.8639C22.3243 2.55039 21.9521 2.30169 21.5426 2.13201C21.1331 1.96233 20.6941 1.875 20.2508 1.875C19.8075 1.875 19.3685 1.96233 18.959 2.13201C18.5494 2.30169 18.1773 2.55039 17.8639 2.8639C17.252 3.4776 16.8991 4.30286 16.8782 5.16926C16.8572 6.03565 17.1698 6.877 17.7514 7.51953L15.5174 11.6689C14.8471 11.5653 14.1612 11.6656 13.5486 11.9567L12.0486 10.4567C12.3932 9.73818 12.4725 8.92086 12.2724 8.14949C12.0722 7.37811 11.6056 6.70245 10.9551 6.24212C10.3045 5.78179 9.51211 5.56651 8.71809 5.63438C7.92407 5.70225 7.17968 6.04891 6.61673 6.61297C6.00354 7.22598 5.6498 8.05147 5.62885 8.91827C5.6079 9.78507 5.92136 10.6267 6.50423 11.2686L4.26548 15.4189C3.74072 15.3369 3.20401 15.3799 2.69901 15.5445C2.19402 15.709 1.73498 15.9904 1.35923 16.3658C0.892243 16.8329 0.572597 17.4268 0.439902 18.0739C0.307207 18.7209 0.367296 19.3927 0.612722 20.0059C0.858148 20.6191 1.27812 21.1469 1.8206 21.5237C2.36307 21.9006 3.0042 22.1099 3.66453 22.1259C4.32486 22.1419 4.97535 21.9637 5.5354 21.6135C6.09545 21.2633 6.54044 20.7565 6.81521 20.1559C7.08998 19.5552 7.18246 18.8871 7.08119 18.2344C6.97992 17.5817 6.68934 16.9731 6.24548 16.4839L8.47954 12.3345C8.65159 12.3623 8.82557 12.3764 8.99985 12.3767C9.50291 12.3769 9.99967 12.2648 10.4539 12.0486L11.9539 13.5486C11.6902 14.1007 11.5815 14.7141 11.6395 15.3231C11.6975 15.9322 11.92 16.5141 12.2831 17.0065C12.6463 17.4989 13.1364 17.8833 13.7012 18.1186C14.266 18.354 14.8841 18.4313 15.4894 18.3425C16.0948 18.2537 16.6646 18.0019 17.1379 17.6142C17.6112 17.2265 17.9703 16.7175 18.1766 16.1415C18.3829 15.5655 18.4288 14.9443 18.3093 14.3442C18.1899 13.7442 17.9095 13.1879 17.4983 12.7348L19.7342 8.58453C19.9048 8.61165 20.0772 8.62575 20.2499 8.62672C20.9173 8.62669 21.5697 8.42876 22.1247 8.05797C22.6796 7.68717 23.1122 7.16016 23.3677 6.54356C23.6231 5.92695 23.6901 5.24845 23.5599 4.59382C23.4298 3.93919 23.1086 3.33783 22.6367 2.86578L22.6377 2.8639ZM8.20016 8.20765C8.41151 7.99631 8.69815 7.87758 8.99704 7.87758C9.29593 7.87758 9.58257 7.99631 9.79391 8.20765C10.0053 8.419 10.124 8.70564 10.124 9.00453C10.124 9.30342 10.0053 9.59006 9.79391 9.8014C9.58257 10.0127 9.29593 10.1315 8.99704 10.1315C8.69815 10.1315 8.41151 10.0127 8.20016 9.8014C7.98882 9.59006 7.87009 9.30342 7.87009 9.00453C7.87009 8.70564 7.98882 8.419 8.20016 8.20765ZM4.54391 19.5514C4.38642 19.7083 4.18596 19.8151 3.96784 19.8582C3.74972 19.9013 3.52372 19.8788 3.31838 19.7935C3.11304 19.7083 2.93757 19.5641 2.81413 19.3791C2.69068 19.1942 2.6248 18.9769 2.6248 18.7545C2.6248 18.5322 2.69068 18.3148 2.81413 18.1299C2.93757 17.945 3.11304 17.8008 3.31838 17.7155C3.52372 17.6303 3.74972 17.6078 3.96784 17.6509C4.18596 17.694 4.38642 17.8007 4.54391 17.9577C4.75488 18.1686 4.87339 18.4548 4.87339 18.7531C4.87339 19.0515 4.75488 19.3376 4.54391 19.5486V19.5514ZM15.7939 15.8014C15.6364 15.9583 15.436 16.0651 15.2178 16.1082C14.9997 16.1513 14.7737 16.1288 14.5684 16.0435C14.363 15.9583 14.1876 15.8141 14.0641 15.6291C13.9407 15.4442 13.8748 15.2269 13.8748 15.0045C13.8748 14.7822 13.9407 14.5648 14.0641 14.3799C14.1876 14.195 14.363 14.0508 14.5684 13.9655C14.7737 13.8803 14.9997 13.8578 15.2178 13.9009C15.436 13.944 15.6364 14.0507 15.7939 14.2077C16.0048 14.4183 16.1235 14.7041 16.1239 15.0023C16.1242 15.3004 16.0062 15.5865 15.7958 15.7977L15.7939 15.8014ZM21.0439 6.0514C20.8864 6.20835 20.686 6.31511 20.4678 6.3582C20.2497 6.40129 20.0237 6.37878 19.8184 6.29352C19.613 6.20826 19.4376 6.06406 19.3141 5.87914C19.1907 5.69422 19.1248 5.47687 19.1248 5.25453C19.1248 5.03219 19.1907 4.81484 19.3141 4.62992C19.4376 4.445 19.613 4.3008 19.8184 4.21554C20.0237 4.13028 20.2497 4.10777 20.4678 4.15086C20.686 4.19395 20.8864 4.30071 21.0439 4.45765C21.2547 4.66818 21.3733 4.95371 21.3739 5.2516C21.3744 5.5495 21.2567 5.83545 21.0467 6.04672L21.0439 6.0514Z" fill="#130032"/>
</svg>
