<svg width="24" height="24" viewBox="0 0 24 24" fill="none" xmlns="http://www.w3.org/2000/svg">
<path d="M20.4801 11.4782L17.6601 14.2963C17.4488 14.5077 17.1622 14.6264 16.8633 14.6264C16.5644 14.6264 16.2777 14.5077 16.0664 14.2963C15.855 14.085 15.7363 13.7983 15.7363 13.4994C15.7363 13.2006 15.855 12.9139 16.0664 12.7026L18.8864 9.8835C19.5194 9.25034 19.875 8.39164 19.8749 7.4963C19.8748 6.60096 19.5191 5.74232 18.8859 5.10928C18.2528 4.47624 17.3941 4.12066 16.4987 4.12074C15.6034 4.12083 14.7447 4.47659 14.1117 5.10975L11.2955 7.93069C11.0841 8.14203 10.7975 8.26077 10.4986 8.26077C10.1997 8.26077 9.91305 8.14203 9.70171 7.93069C9.49036 7.71935 9.37163 7.4327 9.37163 7.13381C9.37163 6.83493 9.49036 6.54828 9.70171 6.33694L12.5208 3.51881C13.576 2.46371 15.0071 1.87101 16.4994 1.87109C17.9916 1.87118 19.4227 2.46405 20.4778 3.51928C21.5329 4.57451 22.1256 6.00566 22.1255 7.4979C22.1254 8.99013 21.5326 10.4212 20.4773 11.4763L20.4801 11.4782ZM12.7055 16.0719L9.88639 18.8919C9.57288 19.2054 9.2007 19.454 8.79111 19.6236C8.38151 19.7932 7.94251 19.8805 7.49919 19.8805C7.05586 19.8804 6.61688 19.7931 6.20732 19.6234C5.79775 19.4537 5.42562 19.205 5.11217 18.8915C4.47914 18.2583 4.12355 17.3996 4.12364 16.5043C4.12372 15.6089 4.47948 14.7503 5.11264 14.1173L7.93077 11.2982C8.14211 11.0868 8.26084 10.8002 8.26084 10.5013C8.26084 10.2024 8.14211 9.91578 7.93077 9.70444C7.71942 9.4931 7.43278 9.37436 7.13389 9.37436C6.83501 9.37436 6.54836 9.4931 6.33702 9.70444L3.52077 12.5235C2.99833 13.046 2.58393 13.6663 2.30121 14.3489C2.01849 15.0316 1.873 15.7632 1.87305 16.5021C1.87313 17.9943 2.46601 19.4254 3.52124 20.4805C4.57647 21.5356 6.00762 22.1283 7.49985 22.1283C8.99208 22.1282 10.4232 21.5353 11.4783 20.4801L14.2964 17.661C14.5077 17.4497 14.6265 17.163 14.6265 16.8641C14.6265 16.5652 14.5077 16.2786 14.2964 16.0673C14.085 15.8559 13.7984 15.7372 13.4995 15.7372C13.2006 15.7372 12.914 15.8559 12.7026 16.0673L12.7055 16.0719Z" fill="#130032"/>
</svg>
