<svg width="24" height="24" viewBox="0 0 24 24" fill="none" xmlns="http://www.w3.org/2000/svg">
<path d="M13.125 15.375V21.75C13.125 22.0484 13.0065 22.3345 12.7955 22.5455C12.5845 22.7565 12.2984 22.875 12 22.875C11.7016 22.875 11.4155 22.7565 11.2045 22.5455C10.9935 22.3345 10.875 22.0484 10.875 21.75V15.375C10.875 15.0766 10.9935 14.7905 11.2045 14.5795C11.4155 14.3685 11.7016 14.25 12 14.25C12.2984 14.25 12.5845 14.3685 12.7955 14.5795C13.0065 14.7905 13.125 15.0766 13.125 15.375ZM19.5 8.625H14.7188L18.0487 5.29594C18.2601 5.08459 18.3788 4.79795 18.3788 4.49906C18.3788 4.20018 18.2601 3.91353 18.0487 3.70219C17.8374 3.49084 17.5508 3.37211 17.2519 3.37211C16.953 3.37211 16.6663 3.49084 16.455 3.70219L13.125 7.03125V2.25C13.125 1.95163 13.0065 1.66548 12.7955 1.4545C12.5845 1.24353 12.2984 1.125 12 1.125C11.7016 1.125 11.4155 1.24353 11.2045 1.4545C10.9935 1.66548 10.875 1.95163 10.875 2.25V7.03125L7.54594 3.70406C7.33459 3.49272 7.04795 3.37399 6.74906 3.37399C6.45018 3.37399 6.16353 3.49272 5.95219 3.70406C5.74084 3.91541 5.62211 4.20205 5.62211 4.50094C5.62211 4.79982 5.74084 5.08647 5.95219 5.29781L9.28125 8.625H4.5C4.20163 8.625 3.91548 8.74353 3.7045 8.9545C3.49353 9.16548 3.375 9.45163 3.375 9.75C3.375 10.0484 3.49353 10.3345 3.7045 10.5455C3.91548 10.7565 4.20163 10.875 4.5 10.875H9.28125L5.95406 14.2041C5.84942 14.3087 5.7664 14.4329 5.70977 14.5697C5.65314 14.7064 5.62399 14.8529 5.62399 15.0009C5.62399 15.2998 5.74272 15.5865 5.95406 15.7978C6.16541 16.0092 6.45205 16.1279 6.75094 16.1279C7.04982 16.1279 7.33647 16.0092 7.54781 15.7978L12 11.3438L16.4541 15.7987C16.6654 16.0101 16.9521 16.1288 17.2509 16.1288C17.5498 16.1288 17.8365 16.0101 18.0478 15.7987C18.2592 15.5874 18.3779 15.3008 18.3779 15.0019C18.3779 14.703 18.2592 14.4163 18.0478 14.205L14.7188 10.875H19.5C19.7984 10.875 20.0845 10.7565 20.2955 10.5455C20.5065 10.3345 20.625 10.0484 20.625 9.75C20.625 9.45163 20.5065 9.16548 20.2955 8.9545C20.0845 8.74353 19.7984 8.625 19.5 8.625Z" fill="#130032"/>
</svg>
