<svg width="24" height="24" viewBox="0 0 24 24" fill="none" xmlns="http://www.w3.org/2000/svg">
<path d="M8.20358 14.2038L14.2036 8.20382C14.3082 8.09917 14.4325 8.01616 14.5692 7.95953C14.7059 7.90289 14.8525 7.87375 15.0005 7.87375C15.1484 7.87375 15.295 7.90289 15.4317 7.95953C15.5684 8.01616 15.6927 8.09917 15.7973 8.20382C15.902 8.30847 15.985 8.4327 16.0416 8.56943C16.0983 8.70616 16.1274 8.8527 16.1274 9.0007C16.1274 9.14869 16.0983 9.29523 16.0416 9.43196C15.985 9.56869 15.902 9.69292 15.7973 9.79757L9.79733 15.7976C9.58599 16.0089 9.29934 16.1276 9.00045 16.1276C8.70157 16.1276 8.41492 16.0089 8.20358 15.7976C7.99224 15.5862 7.8735 15.2996 7.8735 15.0007C7.8735 14.7018 7.99224 14.4152 8.20358 14.2038ZM20.4848 3.51632C19.4289 2.46277 17.9982 1.87109 16.5065 1.87109C15.0149 1.87109 13.5842 2.46277 12.5283 3.51632L9.70452 6.33726C9.49317 6.5486 9.37444 6.83525 9.37444 7.13413C9.37444 7.28213 9.40359 7.42867 9.46022 7.5654C9.51686 7.70213 9.59987 7.82636 9.70452 7.93101C9.80916 8.03566 9.9334 8.11867 10.0701 8.1753C10.2069 8.23194 10.3534 8.26109 10.5014 8.26109C10.8003 8.26109 11.0869 8.14235 11.2983 7.93101L14.1173 5.11288C14.7504 4.47972 15.609 4.12397 16.5043 4.12388C17.3997 4.12379 18.2584 4.47938 18.8915 5.11242C19.5247 5.74545 19.8805 6.60409 19.8806 7.49943C19.8806 8.39477 19.5251 9.25347 18.892 9.88663L16.0692 12.7038C15.9646 12.8085 15.8815 12.9327 15.8249 13.0694C15.7683 13.2062 15.7391 13.3527 15.7391 13.5007C15.7391 13.6487 15.7683 13.7952 15.8249 13.932C15.8815 14.0687 15.9646 14.1929 16.0692 14.2976C16.1739 14.4022 16.2981 14.4852 16.4348 14.5419C16.5715 14.5985 16.7181 14.6276 16.8661 14.6276C17.0141 14.6276 17.1606 14.5985 17.2973 14.5419C17.4341 14.4852 17.5583 14.4022 17.663 14.2976L20.483 11.4794C21.537 10.4229 22.1288 8.99118 22.1283 7.49871C22.1277 6.00624 21.535 4.57497 20.4801 3.51913L20.4848 3.51632ZM12.7055 16.0676L9.88639 18.8876C9.57288 19.201 9.2007 19.4496 8.7911 19.6193C8.38151 19.7889 7.94251 19.8762 7.49919 19.8761C7.05586 19.8761 6.61688 19.7887 6.20732 19.619C5.79775 19.4493 5.42562 19.2006 5.11217 18.8871C4.47914 18.2539 4.12355 17.3952 4.12364 16.4999C4.12372 15.6046 4.47948 14.7459 5.11264 14.1129L7.93077 11.2938C8.03541 11.1892 8.11842 11.0649 8.17506 10.9282C8.23169 10.7915 8.26084 10.6449 8.26084 10.4969C8.26084 10.349 8.23169 10.2024 8.17506 10.0657C8.11842 9.92895 8.03541 9.80472 7.93077 9.70007C7.82612 9.59543 7.70189 9.51241 7.56516 9.45578C7.42843 9.39914 7.28189 9.37 7.13389 9.37C6.9859 9.37 6.83935 9.39914 6.70263 9.45578C6.5659 9.51241 6.44166 9.59543 6.33702 9.70007L3.52077 12.5219C2.99833 13.0444 2.58393 13.6647 2.30121 14.3474C2.01849 15.03 1.873 15.7617 1.87305 16.5006C1.87313 17.9928 2.46601 19.4239 3.52124 20.479C4.57647 21.5341 6.00762 22.1268 7.49985 22.1267C8.99208 22.1266 10.4232 21.5337 11.4783 20.4785L14.2964 17.6594C14.5077 17.4481 14.6265 17.1615 14.6265 16.8626C14.6265 16.5637 14.5077 16.277 14.2964 16.0657C14.085 15.8544 13.7984 15.7356 13.4995 15.7356C13.2006 15.7356 12.914 15.8544 12.7026 16.0657L12.7055 16.0676Z" fill="#130032"/>
</svg>
