<svg width="24" height="24" viewBox="0 0 24 24" fill="none" xmlns="http://www.w3.org/2000/svg">
<path d="M18.3563 5.64381C17.8655 5.15292 17.2002 4.87644 16.506 4.87486C15.8118 4.87328 15.1453 5.14673 14.6522 5.63537L13.5638 6.77631C13.463 6.88769 13.3409 6.97776 13.2048 7.04119C13.0686 7.10463 12.9211 7.14015 12.771 7.14567C12.6208 7.15118 12.4711 7.12657 12.3307 7.07329C12.1902 7.02001 12.0619 6.93914 11.9532 6.83545C11.8445 6.73177 11.7576 6.60736 11.6978 6.46957C11.6379 6.33178 11.6063 6.1834 11.6047 6.03319C11.6032 5.88297 11.6317 5.73397 11.6886 5.59496C11.7456 5.45595 11.8298 5.32975 11.9363 5.22381L13.0313 4.07162L13.0501 4.05287C13.9643 3.13862 15.2043 2.625 16.4972 2.625C17.7902 2.625 19.0302 3.13862 19.9444 4.05287C20.8587 4.96712 21.3723 6.20711 21.3723 7.50006C21.3723 8.79301 20.8587 10.033 19.9444 10.9472L19.9257 10.966L18.7735 12.0638C18.5561 12.2606 18.2704 12.3647 17.9773 12.3539C17.6843 12.3432 17.407 12.2184 17.2046 12.0062C17.0022 11.794 16.8906 11.5112 16.8937 11.2179C16.8967 10.9247 17.0142 10.6442 17.221 10.4363L18.3619 9.34787C18.851 8.85518 19.1249 8.18885 19.1239 7.49468C19.1228 6.8005 18.8468 6.13501 18.3563 5.64381ZM10.4363 17.2238L9.34787 18.3647C8.85556 18.8571 8.18785 19.1336 7.49162 19.1336C6.79539 19.1336 6.12768 18.8571 5.63537 18.3647C5.14306 17.8724 4.86649 17.2047 4.86649 16.5085C4.86649 15.8123 5.14306 15.1446 5.63537 14.6522L6.77631 13.5638C6.98312 13.3559 7.10057 13.0754 7.10363 12.7822C7.1067 12.489 6.99514 12.2061 6.79272 11.9939C6.59031 11.7817 6.31304 11.657 6.01998 11.6462C5.72692 11.6354 5.44124 11.7395 5.22381 11.9363L4.07162 13.0313L4.05287 13.0501C3.13862 13.9643 2.625 15.2043 2.625 16.4972C2.625 17.7902 3.13862 19.0302 4.05287 19.9444C4.96712 20.8587 6.20711 21.3723 7.50006 21.3723C8.79301 21.3723 10.033 20.8587 10.9472 19.9444L10.966 19.9257L12.0638 18.7735C12.1703 18.6676 12.2545 18.5414 12.3115 18.4023C12.3684 18.2633 12.3969 18.1143 12.3954 17.9641C12.3938 17.8139 12.3622 17.6655 12.3023 17.5277C12.2425 17.3899 12.1557 17.2655 12.047 17.1618C11.9383 17.0582 11.8099 16.9773 11.6694 16.924C11.529 16.8707 11.3793 16.8461 11.2292 16.8516C11.079 16.8572 10.9315 16.8927 10.7954 16.9561C10.6592 17.0195 10.5371 17.1096 10.4363 17.221V17.2238ZM20.2501 13.8751H18.0001C17.7017 13.8751 17.4155 13.9936 17.2046 14.2046C16.9936 14.4155 16.8751 14.7017 16.8751 15.0001C16.8751 15.2984 16.9936 15.5846 17.2046 15.7956C17.4155 16.0065 17.7017 16.1251 18.0001 16.1251H20.2501C20.5484 16.1251 20.8346 16.0065 21.0456 15.7956C21.2565 15.5846 21.3751 15.2984 21.3751 15.0001C21.3751 14.7017 21.2565 14.4155 21.0456 14.2046C20.8346 13.9936 20.5484 13.8751 20.2501 13.8751ZM3.75006 10.1251H6.00006C6.29843 10.1251 6.58458 10.0065 6.79555 9.79555C7.00653 9.58458 7.12506 9.29843 7.12506 9.00006C7.12506 8.70169 7.00653 8.41554 6.79555 8.20456C6.58458 7.99359 6.29843 7.87506 6.00006 7.87506H3.75006C3.45169 7.87506 3.16554 7.99359 2.95456 8.20456C2.74359 8.41554 2.62506 8.70169 2.62506 9.00006C2.62506 9.29843 2.74359 9.58458 2.95456 9.79555C3.16554 10.0065 3.45169 10.1251 3.75006 10.1251ZM15.0001 16.8751C14.7017 16.8751 14.4155 16.9936 14.2046 17.2046C13.9936 17.4155 13.8751 17.7017 13.8751 18.0001V20.2501C13.8751 20.5484 13.9936 20.8346 14.2046 21.0456C14.4155 21.2565 14.7017 21.3751 15.0001 21.3751C15.2984 21.3751 15.5846 21.2565 15.7956 21.0456C16.0065 20.8346 16.1251 20.5484 16.1251 20.2501V18.0001C16.1251 17.7017 16.0065 17.4155 15.7956 17.2046C15.5846 16.9936 15.2984 16.8751 15.0001 16.8751ZM9.00006 7.12506C9.29843 7.12506 9.58458 7.00653 9.79555 6.79555C10.0065 6.58458 10.1251 6.29843 10.1251 6.00006V3.75006C10.1251 3.45169 10.0065 3.16554 9.79555 2.95456C9.58458 2.74359 9.29843 2.62506 9.00006 2.62506C8.70169 2.62506 8.41554 2.74359 8.20456 2.95456C7.99359 3.16554 7.87506 3.45169 7.87506 3.75006V6.00006C7.87506 6.29843 7.99359 6.58458 8.20456 6.79555C8.41554 7.00653 8.70169 7.12506 9.00006 7.12506Z" fill="#130032"/>
</svg>
