<svg width="24" height="24" viewBox="0 0 24 24" fill="none" xmlns="http://www.w3.org/2000/svg">
<path d="M21.7023 20.3794C21.5868 20.4719 21.4541 20.5406 21.3119 20.5818C21.1697 20.6229 21.0207 20.6355 20.8736 20.619C20.7265 20.6024 20.5842 20.557 20.4546 20.4853C20.3251 20.4136 20.211 20.3171 20.1189 20.2013C19.9867 20.0362 16.8752 16.0538 16.8752 8.25C16.8752 6.95707 16.3615 5.71709 15.4473 4.80285C14.5331 3.88861 13.2931 3.375 12.0002 3.375C10.7072 3.375 9.46725 3.88861 8.55301 4.80285C7.63877 5.71709 7.12515 6.95707 7.12515 8.25C7.12515 16.0538 4.01171 20.0362 3.87953 20.2013C3.69367 20.4347 3.42267 20.5848 3.12616 20.6185C2.82965 20.6521 2.53191 20.5666 2.29843 20.3808C2.06496 20.1949 1.91488 19.9239 1.88121 19.6274C1.84754 19.3309 1.93304 19.0332 2.1189 18.7997C2.1564 18.75 4.87515 15.1931 4.87515 8.25C4.87515 6.36033 5.62582 4.54806 6.96202 3.21186C8.29821 1.87567 10.1105 1.125 12.0002 1.125C13.8898 1.125 15.7021 1.87567 17.0383 3.21186C18.3745 4.54806 19.1252 6.36033 19.1252 8.25C19.1252 15.2053 21.8533 18.765 21.8814 18.8006C22.0666 19.0339 22.1518 19.3311 22.1182 19.627C22.0847 19.923 21.9351 20.1935 21.7023 20.3794ZM9.75015 11.25C10.0468 11.25 10.3368 11.162 10.5835 10.9972C10.8302 10.8324 11.0224 10.5981 11.136 10.324C11.2495 10.0499 11.2792 9.74834 11.2213 9.45737C11.1635 9.16639 11.0206 8.89912 10.8108 8.68934C10.601 8.47956 10.3338 8.3367 10.0428 8.27882C9.75182 8.22094 9.45022 8.25065 9.17613 8.36418C8.90204 8.47771 8.66777 8.66997 8.50295 8.91665C8.33812 9.16332 8.25015 9.45333 8.25015 9.75C8.25015 10.1478 8.40819 10.5294 8.68949 10.8107C8.9708 11.092 9.35233 11.25 9.75015 11.25ZM15.7502 9.75C15.7502 9.45333 15.6622 9.16332 15.4974 8.91665C15.3325 8.66997 15.0983 8.47771 14.8242 8.36418C14.5501 8.25065 14.2485 8.22094 13.9575 8.27882C13.6665 8.3367 13.3993 8.47956 13.1895 8.68934C12.9797 8.89912 12.8369 9.16639 12.779 9.45737C12.7211 9.74834 12.7508 10.0499 12.8643 10.324C12.9779 10.5981 13.1701 10.8324 13.4168 10.9972C13.6635 11.162 13.9535 11.25 14.2502 11.25C14.648 11.25 15.0295 11.092 15.3108 10.8107C15.5921 10.5294 15.7502 10.1478 15.7502 9.75ZM8.93078 14.5312L11.5558 15.6562C11.6958 15.7162 11.8465 15.7471 11.9987 15.7471C12.151 15.7471 12.3017 15.7162 12.4417 15.6562L15.0667 14.5312C15.3203 14.4011 15.515 14.1795 15.6115 13.9113C15.7081 13.6431 15.6992 13.3483 15.5867 13.0864C15.4742 12.8245 15.2665 12.615 15.0055 12.5004C14.7445 12.3857 14.4498 12.3744 14.1808 12.4688L11.9992 13.4062L9.81765 12.4688C9.54848 12.3735 9.25318 12.3842 8.99159 12.4986C8.73 12.613 8.5217 12.8226 8.40891 13.0849C8.29613 13.3472 8.28729 13.6426 8.38419 13.9112C8.4811 14.1797 8.6765 14.4014 8.93078 14.5312ZM12.0002 17.25C10.6566 17.252 9.36295 17.759 8.37578 18.6703C8.26688 18.7702 8.17873 18.8906 8.11636 19.0246C8.05399 19.1585 8.01861 19.3035 8.01226 19.4511C8.0059 19.5988 8.02869 19.7462 8.07932 19.8851C8.12995 20.0239 8.20743 20.1514 8.30734 20.2603C8.40725 20.3692 8.52762 20.4574 8.6616 20.5197C8.79557 20.5821 8.94052 20.6175 9.08817 20.6238C9.38635 20.6367 9.67742 20.5305 9.89734 20.3288C10.4678 19.7961 11.2192 19.4999 11.9997 19.4999C12.7802 19.4999 13.5315 19.7961 14.102 20.3288C14.2109 20.4287 14.3384 20.5061 14.4773 20.5568C14.6161 20.6074 14.7636 20.6302 14.9112 20.6238C15.0588 20.6175 15.2038 20.5821 15.3378 20.5197C15.4717 20.4574 15.5921 20.3692 15.692 20.2603C15.7919 20.1514 15.8694 20.0239 15.92 19.8851C15.9707 19.7462 15.9935 19.5988 15.9871 19.4511C15.9808 19.3035 15.9454 19.1585 15.883 19.0246C15.8206 18.8906 15.7325 18.7702 15.6236 18.6703C14.6367 17.759 13.3434 17.2521 12.0002 17.25Z" fill="#130032"/>
</svg>
