<svg width="24" height="24" viewBox="0 0 24 24" fill="none" xmlns="http://www.w3.org/2000/svg">
<path d="M21.3745 11.9994C21.3745 12.2978 21.256 12.5839 21.045 12.7949C20.8341 13.0059 20.5479 13.1244 20.2495 13.1244H10.8745C10.5762 13.1244 10.29 13.0059 10.079 12.7949C9.86806 12.5839 9.74954 12.2978 9.74954 11.9994C9.74954 11.701 9.86806 11.4149 10.079 11.2039C10.29 10.9929 10.5762 10.8744 10.8745 10.8744H20.2495C20.5479 10.8744 20.8341 10.9929 21.045 11.2039C21.256 11.4149 21.3745 11.701 21.3745 11.9994ZM10.8745 7.1244H20.2495C20.5479 7.1244 20.8341 7.00587 21.045 6.79489C21.256 6.58392 21.3745 6.29777 21.3745 5.9994C21.3745 5.70103 21.256 5.41488 21.045 5.2039C20.8341 4.99293 20.5479 4.8744 20.2495 4.8744H10.8745C10.5762 4.8744 10.29 4.99293 10.079 5.2039C9.86806 5.41488 9.74954 5.70103 9.74954 5.9994C9.74954 6.29777 9.86806 6.58392 10.079 6.79489C10.29 7.00587 10.5762 7.1244 10.8745 7.1244ZM20.2495 16.8744H10.8745C10.5762 16.8744 10.29 16.9929 10.079 17.2039C9.86806 17.4149 9.74954 17.701 9.74954 17.9994C9.74954 18.2978 9.86806 18.5839 10.079 18.7949C10.29 19.0059 10.5762 19.1244 10.8745 19.1244H20.2495C20.5479 19.1244 20.8341 19.0059 21.045 18.7949C21.256 18.5839 21.3745 18.2978 21.3745 17.9994C21.3745 17.701 21.256 17.4149 21.045 17.2039C20.8341 16.9929 20.5479 16.8744 20.2495 16.8744ZM4.12453 5.55971V9.7494C4.12453 10.0478 4.24306 10.3339 4.45404 10.5449C4.66502 10.7559 4.95117 10.8744 5.24953 10.8744C5.5479 10.8744 5.83405 10.7559 6.04503 10.5449C6.25601 10.3339 6.37453 10.0478 6.37453 9.7494V3.7494C6.37443 3.55775 6.32537 3.36929 6.232 3.20192C6.13863 3.03455 6.00405 2.89381 5.84102 2.79304C5.67799 2.69228 5.49193 2.63483 5.30047 2.62615C5.10901 2.61748 4.91851 2.65786 4.74703 2.74346L3.24703 3.49346C2.99873 3.6258 2.80903 3.84638 2.71535 4.11169C2.62167 4.377 2.63081 4.66778 2.74096 4.92669C2.85111 5.1856 3.05429 5.39383 3.31041 5.51032C3.56653 5.62681 3.857 5.64309 4.12453 5.55596V5.55971ZM7.84922 14.6403C7.80102 14.2935 7.68315 13.9599 7.5027 13.6598C7.32226 13.3596 7.08297 13.0991 6.79922 12.8938C6.23355 12.4832 5.53106 12.3072 4.83864 12.4026C4.14621 12.498 3.51748 12.8574 3.08391 13.4057C2.91754 13.6194 2.78563 13.858 2.69297 14.1125C2.59529 14.3918 2.61158 14.6984 2.73831 14.9657C2.86504 15.2331 3.092 15.4398 3.37003 15.541C3.64806 15.6423 3.95478 15.6299 4.22375 15.5066C4.49272 15.3832 4.70228 15.1589 4.80703 14.8822C4.82052 14.8485 4.83884 14.8169 4.86141 14.7885C4.93409 14.7005 5.03761 14.6435 5.15086 14.6292C5.2641 14.6149 5.37853 14.6444 5.47078 14.7116C5.51138 14.7396 5.54574 14.7758 5.57171 14.8177C5.59768 14.8596 5.61471 14.9065 5.62172 14.9553C5.62801 15.0013 5.62485 15.048 5.61243 15.0926C5.60002 15.1373 5.57862 15.1789 5.54954 15.215L5.53735 15.231L2.8486 18.8263C2.72373 18.9935 2.64784 19.1921 2.6294 19.4C2.61096 19.6079 2.65071 19.8168 2.74419 20.0034C2.83767 20.1899 2.98121 20.3468 3.15875 20.4565C3.3363 20.5662 3.54085 20.6243 3.74953 20.6244H6.74953C7.0479 20.6244 7.33405 20.5059 7.54503 20.2949C7.75601 20.0839 7.87453 19.7978 7.87453 19.4994C7.87453 19.201 7.75601 18.9149 7.54503 18.7039C7.33405 18.4929 7.0479 18.3744 6.74953 18.3744H5.99953L7.33828 16.5828C7.54919 16.3098 7.70309 15.9971 7.79086 15.6634C7.87863 15.3297 7.89848 14.9818 7.84922 14.6403Z" fill="#130032"/>
</svg>
