<svg width="24" height="24" viewBox="0 0 24 24" fill="none" xmlns="http://www.w3.org/2000/svg">
<path d="M2.625 6C2.625 5.70163 2.74353 5.41548 2.9545 5.2045C3.16548 4.99353 3.45163 4.875 3.75 4.875H20.25C20.5484 4.875 20.8345 4.99353 21.0455 5.2045C21.2565 5.41548 21.375 5.70163 21.375 6C21.375 6.29837 21.2565 6.58452 21.0455 6.7955C20.8345 7.00647 20.5484 7.125 20.25 7.125H3.75C3.45163 7.125 3.16548 7.00647 2.9545 6.7955C2.74353 6.58452 2.625 6.29837 2.625 6ZM3.75 13.125H20.25C20.5484 13.125 20.8345 13.0065 21.0455 12.7955C21.2565 12.5845 21.375 12.2984 21.375 12C21.375 11.7016 21.2565 11.4155 21.0455 11.2045C20.8345 10.9935 20.5484 10.875 20.25 10.875H3.75C3.45163 10.875 3.16548 10.9935 2.9545 11.2045C2.74353 11.4155 2.625 11.7016 2.625 12C2.625 12.2984 2.74353 12.5845 2.9545 12.7955C3.16548 13.0065 3.45163 13.125 3.75 13.125ZM13.5 16.875H3.75C3.45163 16.875 3.16548 16.9935 2.9545 17.2045C2.74353 17.4155 2.625 17.7016 2.625 18C2.625 18.2984 2.74353 18.5845 2.9545 18.7955C3.16548 19.0065 3.45163 19.125 3.75 19.125H13.5C13.7984 19.125 14.0845 19.0065 14.2955 18.7955C14.5065 18.5845 14.625 18.2984 14.625 18C14.625 17.7016 14.5065 17.4155 14.2955 17.2045C14.0845 16.9935 13.7984 16.875 13.5 16.875ZM21.75 16.875H20.625V15.75C20.625 15.4516 20.5065 15.1655 20.2955 14.9545C20.0845 14.7435 19.7984 14.625 19.5 14.625C19.2016 14.625 18.9155 14.7435 18.7045 14.9545C18.4935 15.1655 18.375 15.4516 18.375 15.75V16.875H17.25C16.9516 16.875 16.6655 16.9935 16.4545 17.2045C16.2435 17.4155 16.125 17.7016 16.125 18C16.125 18.2984 16.2435 18.5845 16.4545 18.7955C16.6655 19.0065 16.9516 19.125 17.25 19.125H18.375V20.25C18.375 20.5484 18.4935 20.8345 18.7045 21.0455C18.9155 21.2565 19.2016 21.375 19.5 21.375C19.7984 21.375 20.0845 21.2565 20.2955 21.0455C20.5065 20.8345 20.625 20.5484 20.625 20.25V19.125H21.75C22.0484 19.125 22.3345 19.0065 22.5455 18.7955C22.7565 18.5845 22.875 18.2984 22.875 18C22.875 17.7016 22.7565 17.4155 22.5455 17.2045C22.3345 16.9935 22.0484 16.875 21.75 16.875Z" fill="#130032"/>
</svg>
