<svg width="24" height="24" viewBox="0 0 24 24" fill="none" xmlns="http://www.w3.org/2000/svg">
<path d="M2.625 6C2.625 5.70163 2.74353 5.41548 2.9545 5.2045C3.16548 4.99353 3.45163 4.875 3.75 4.875H20.25C20.5484 4.875 20.8345 4.99353 21.0455 5.2045C21.2565 5.41548 21.375 5.70163 21.375 6C21.375 6.29837 21.2565 6.58452 21.0455 6.7955C20.8345 7.00647 20.5484 7.125 20.25 7.125H3.75C3.45163 7.125 3.16548 7.00647 2.9545 6.7955C2.74353 6.58452 2.625 6.29837 2.625 6ZM3.75 13.125H8.25C8.54837 13.125 8.83452 13.0065 9.0455 12.7955C9.25647 12.5845 9.375 12.2984 9.375 12C9.375 11.7016 9.25647 11.4155 9.0455 11.2045C8.83452 10.9935 8.54837 10.875 8.25 10.875H3.75C3.45163 10.875 3.16548 10.9935 2.9545 11.2045C2.74353 11.4155 2.625 11.7016 2.625 12C2.625 12.2984 2.74353 12.5845 2.9545 12.7955C3.16548 13.0065 3.45163 13.125 3.75 13.125ZM9.75 16.875H3.75C3.45163 16.875 3.16548 16.9935 2.9545 17.2045C2.74353 17.4155 2.625 17.7016 2.625 18C2.625 18.2984 2.74353 18.5845 2.9545 18.7955C3.16548 19.0065 3.45163 19.125 3.75 19.125H9.75C10.0484 19.125 10.3345 19.0065 10.5455 18.7955C10.7565 18.5845 10.875 18.2984 10.875 18C10.875 17.7016 10.7565 17.4155 10.5455 17.2045C10.3345 16.9935 10.0484 16.875 9.75 16.875ZM22.4662 13.7691L20.5369 15.3628L21.1228 17.7309C21.1758 17.9458 21.1643 18.1716 21.0896 18.3799C21.0149 18.5883 20.8805 18.77 20.703 18.9022C20.5256 19.0345 20.3131 19.1116 20.0921 19.1237C19.8711 19.1358 19.6514 19.0824 19.4606 18.9703L17.25 17.6681L15.0394 18.9694C14.8486 19.0815 14.6289 19.1348 14.4079 19.1227C14.1869 19.1106 13.9744 19.0336 13.797 18.9013C13.6195 18.769 13.4851 18.5873 13.4104 18.379C13.3357 18.1706 13.3242 17.9449 13.3772 17.73L13.9631 15.3619L12.0338 13.7681C11.8607 13.6253 11.7344 13.4341 11.6709 13.219C11.6074 13.0039 11.6096 12.7747 11.6773 12.5608C11.745 12.347 11.8751 12.1582 12.0509 12.0189C12.2267 11.8795 12.4401 11.7959 12.6637 11.7787L15.2344 11.58L16.2188 9.30469C16.3063 9.10396 16.4505 8.93314 16.6336 8.81317C16.8168 8.6932 17.031 8.6293 17.25 8.6293C17.469 8.6293 17.6832 8.6932 17.8664 8.81317C18.0495 8.93314 18.1937 9.10396 18.2812 9.30469L19.2638 11.5809L21.8344 11.7797C22.058 11.7969 22.2714 11.8805 22.4472 12.0198C22.623 12.1592 22.7531 12.3479 22.8208 12.5617C22.8885 12.7756 22.8908 13.0048 22.8273 13.2199C22.7637 13.4351 22.6374 13.6263 22.4644 13.7691H22.4662ZM18.8841 13.8084L18.4153 13.7719C18.211 13.756 18.015 13.6847 17.8483 13.5656C17.6816 13.4465 17.5505 13.2841 17.4694 13.0959L17.2509 12.5897L17.0325 13.0959C16.9513 13.2842 16.8201 13.4467 16.6532 13.5658C16.4863 13.6849 16.2901 13.7562 16.0856 13.7719L15.6169 13.8084L15.9431 14.0775C16.1064 14.2125 16.2282 14.3909 16.2945 14.5921C16.3608 14.7932 16.369 15.0091 16.3181 15.2147L16.2047 15.6731L16.68 15.3919C16.8532 15.2905 17.0503 15.2371 17.2509 15.2371C17.4516 15.2371 17.6487 15.2905 17.8219 15.3919L18.2972 15.6731L18.1875 15.2147C18.1366 15.0091 18.1448 14.7932 18.2111 14.5921C18.2775 14.3909 18.3993 14.2125 18.5625 14.0775L18.8841 13.8084Z" fill="#130032"/>
</svg>
