<svg width="24" height="24" viewBox="0 0 24 24" fill="none" xmlns="http://www.w3.org/2000/svg">
<path d="M11.625 18C11.625 18.2984 11.5065 18.5845 11.2955 18.7955C11.0845 19.0065 10.7984 19.125 10.5 19.125H3.75C3.45163 19.125 3.16548 19.0065 2.9545 18.7955C2.74353 18.5845 2.625 18.2984 2.625 18C2.625 17.7016 2.74353 17.4155 2.9545 17.2045C3.16548 16.9935 3.45163 16.875 3.75 16.875H10.5C10.7984 16.875 11.0845 16.9935 11.2955 17.2045C11.5065 17.4155 11.625 17.7016 11.625 18ZM3.75 7.125H20.25C20.5484 7.125 20.8345 7.00647 21.0455 6.7955C21.2565 6.58452 21.375 6.29837 21.375 6C21.375 5.70163 21.2565 5.41548 21.0455 5.2045C20.8345 4.99353 20.5484 4.875 20.25 4.875H3.75C3.45163 4.875 3.16548 4.99353 2.9545 5.2045C2.74353 5.41548 2.625 5.70163 2.625 6C2.625 6.29837 2.74353 6.58452 2.9545 6.7955C3.16548 7.00647 3.45163 7.125 3.75 7.125ZM3.75 13.125H9C9.29837 13.125 9.58452 13.0065 9.7955 12.7955C10.0065 12.5845 10.125 12.2984 10.125 12C10.125 11.7016 10.0065 11.4155 9.7955 11.2045C9.58452 10.9935 9.29837 10.875 9 10.875H3.75C3.45163 10.875 3.16548 10.9935 2.9545 11.2045C2.74353 11.4155 2.625 11.7016 2.625 12C2.625 12.2984 2.74353 12.5845 2.9545 12.7955C3.16548 13.0065 3.45163 13.125 3.75 13.125ZM23.625 13.5C23.625 15.0938 22.7316 16.6462 20.97 18.1144C20.2073 18.7461 19.3806 19.2963 18.5034 19.7559C18.3471 19.8341 18.1748 19.8749 18 19.8749C17.8252 19.8749 17.6529 19.8341 17.4966 19.7559C16.6194 19.2963 15.7927 18.7461 15.03 18.1144C13.2684 16.6462 12.375 15.0938 12.375 13.5C12.3754 12.8487 12.5643 12.2114 12.9188 11.665C13.2734 11.1186 13.7785 10.6865 14.3731 10.4208C14.9678 10.155 15.6267 10.0671 16.2702 10.1675C16.9138 10.2679 17.5145 10.5523 18 10.9866C18.4855 10.5523 19.0862 10.2679 19.7298 10.1675C20.3733 10.0671 21.0322 10.155 21.6269 10.4208C22.2215 10.6865 22.7266 11.1186 23.0812 11.665C23.4357 12.2114 23.6246 12.8487 23.625 13.5ZM21.375 13.5C21.375 13.2016 21.2565 12.9155 21.0455 12.7045C20.8345 12.4935 20.5484 12.375 20.25 12.375C19.9516 12.375 19.6655 12.4935 19.4545 12.7045C19.2435 12.9155 19.125 13.2016 19.125 13.5C19.125 13.7984 19.0065 14.0845 18.7955 14.2955C18.5845 14.5065 18.2984 14.625 18 14.625C17.7016 14.625 17.4155 14.5065 17.2045 14.2955C16.9935 14.0845 16.875 13.7984 16.875 13.5C16.875 13.2016 16.7565 12.9155 16.5455 12.7045C16.3345 12.4935 16.0484 12.375 15.75 12.375C15.4516 12.375 15.1655 12.4935 14.9545 12.7045C14.7435 12.9155 14.625 13.2016 14.625 13.5C14.625 15.1153 16.7672 16.7278 18 17.4647C19.2319 16.7287 21.375 15.1153 21.375 13.5Z" fill="#130032"/>
</svg>
