<svg width="24" height="24" viewBox="0 0 24 24" fill="none" xmlns="http://www.w3.org/2000/svg">
<path d="M18 7.5C18 7.79837 17.8815 8.08452 17.6705 8.2955C17.4595 8.50647 17.1734 8.625 16.875 8.625H15.375C15.0766 8.625 14.7905 8.50647 14.5795 8.2955C14.3685 8.08452 14.25 7.79837 14.25 7.5C14.25 7.20163 14.3685 6.91548 14.5795 6.7045C14.7905 6.49353 15.0766 6.375 15.375 6.375H16.875C17.1734 6.375 17.4595 6.49353 17.6705 6.7045C17.8815 6.91548 18 7.20163 18 7.5ZM16.875 10.125H15.375C15.0766 10.125 14.7905 10.2435 14.5795 10.4545C14.3685 10.6655 14.25 10.9516 14.25 11.25C14.25 11.5484 14.3685 11.8345 14.5795 12.0455C14.7905 12.2565 15.0766 12.375 15.375 12.375H16.875C17.1734 12.375 17.4595 12.2565 17.6705 12.0455C17.8815 11.8345 18 11.5484 18 11.25C18 10.9516 17.8815 10.6655 17.6705 10.4545C17.4595 10.2435 17.1734 10.125 16.875 10.125ZM7.125 8.625H8.625C8.92337 8.625 9.20952 8.50647 9.4205 8.2955C9.63147 8.08452 9.75 7.79837 9.75 7.5C9.75 7.20163 9.63147 6.91548 9.4205 6.7045C9.20952 6.49353 8.92337 6.375 8.625 6.375H7.125C6.82663 6.375 6.54048 6.49353 6.3295 6.7045C6.11853 6.91548 6 7.20163 6 7.5C6 7.79837 6.11853 8.08452 6.3295 8.2955C6.54048 8.50647 6.82663 8.625 7.125 8.625ZM8.625 10.125H7.125C6.82663 10.125 6.54048 10.2435 6.3295 10.4545C6.11853 10.6655 6 10.9516 6 11.25C6 11.5484 6.11853 11.8345 6.3295 12.0455C6.54048 12.2565 6.82663 12.375 7.125 12.375H8.625C8.92337 12.375 9.20952 12.2565 9.4205 12.0455C9.63147 11.8345 9.75 11.5484 9.75 11.25C9.75 10.9516 9.63147 10.6655 9.4205 10.4545C9.20952 10.2435 8.92337 10.125 8.625 10.125ZM21.375 4.5V21C21.375 21.2984 21.2565 21.5845 21.0455 21.7955C20.8345 22.0065 20.5484 22.125 20.25 22.125C19.9516 22.125 19.6655 22.0065 19.4545 21.7955C19.2435 21.5845 19.125 21.2984 19.125 21V19.875H13.125V21C13.125 21.2984 13.0065 21.5845 12.7955 21.7955C12.5845 22.0065 12.2984 22.125 12 22.125C11.7016 22.125 11.4155 22.0065 11.2045 21.7955C10.9935 21.5845 10.875 21.2984 10.875 21V19.875H4.875V21C4.875 21.2984 4.75647 21.5845 4.5455 21.7955C4.33452 22.0065 4.04837 22.125 3.75 22.125C3.45163 22.125 3.16548 22.0065 2.9545 21.7955C2.74353 21.5845 2.625 21.2984 2.625 21V4.5C2.625 4.00272 2.82254 3.52581 3.17417 3.17417C3.52581 2.82254 4.00272 2.625 4.5 2.625H19.5C19.9973 2.625 20.4742 2.82254 20.8258 3.17417C21.1775 3.52581 21.375 4.00272 21.375 4.5ZM10.875 17.625V4.875H4.875V17.625H10.875ZM13.125 17.625H19.125V4.875H13.125V17.625Z" fill="#130032"/>
</svg>
