<svg width="24" height="24" viewBox="0 0 24 24" fill="none" xmlns="http://www.w3.org/2000/svg">
<path d="M20.25 12.75C20.25 13.0467 20.162 13.3367 19.9972 13.5834C19.8324 13.83 19.5981 14.0223 19.324 14.1358C19.0499 14.2494 18.7483 14.2791 18.4574 14.2212C18.1664 14.1633 17.8991 14.0204 17.6893 13.8107C17.4796 13.6009 17.3367 13.3336 17.2788 13.0426C17.2209 12.7517 17.2506 12.4501 17.3642 12.176C17.4777 11.9019 17.67 11.6676 17.9166 11.5028C18.1633 11.338 18.4533 11.25 18.75 11.25C19.1478 11.25 19.5294 11.408 19.8107 11.6893C20.092 11.9707 20.25 12.3522 20.25 12.75ZM23.625 12.75C23.625 16.7456 21.4837 19.875 18.75 19.875H5.25C2.51625 19.875 0.375 16.7456 0.375 12.75C0.375 8.75438 2.51625 5.62501 5.25 5.62501H8.53125L11.9513 2.20407C12.0561 2.09929 12.1807 2.01629 12.3178 1.95981C12.4549 1.90334 12.6017 1.87452 12.75 1.87501H15.75C16.0484 1.87501 16.3345 1.99353 16.5455 2.20451C16.7565 2.41549 16.875 2.70164 16.875 3.00001C16.875 3.29837 16.7565 3.58452 16.5455 3.7955C16.3345 4.00648 16.0484 4.12501 15.75 4.12501H13.2188L11.7188 5.62501H18.75C21.4837 5.62501 23.625 8.75438 23.625 12.75ZM5.25 17.625H15.1659C14.8003 17.0404 14.5138 16.4099 14.3137 15.75H7.5C7.20163 15.75 6.91548 15.6315 6.7045 15.4205C6.49353 15.2095 6.375 14.9234 6.375 14.625C6.375 14.3266 6.49353 14.0405 6.7045 13.8295C6.91548 13.6185 7.20163 13.5 7.5 13.5H13.9003C13.8834 13.2534 13.875 13.0041 13.875 12.75C13.875 10.8469 14.3616 9.14063 15.1659 7.87501H5.25C4.51406 7.87501 3.72844 8.57907 3.21 9.75001H9.75C10.0484 9.75001 10.3345 9.86853 10.5455 10.0795C10.7565 10.2905 10.875 10.5766 10.875 10.875C10.875 11.1734 10.7565 11.4595 10.5455 11.6705C10.3345 11.8815 10.0484 12 9.75 12H2.65781C2.63625 12.2428 2.625 12.4922 2.625 12.75C2.625 15.6225 4.00875 17.625 5.25 17.625ZM21.375 12.75C21.375 9.87751 19.9912 7.87501 18.75 7.87501C17.5088 7.87501 16.125 9.87751 16.125 12.75C16.125 15.6225 17.5088 17.625 18.75 17.625C19.9912 17.625 21.375 15.6225 21.375 12.75Z" fill="#130032"/>
</svg>
