<svg width="24" height="24" viewBox="0 0 24 24" fill="none" xmlns="http://www.w3.org/2000/svg">
<path d="M19.6725 4.44753C18.8754 3.63397 17.9241 2.98745 16.8743 2.54575C15.8245 2.10405 14.6971 1.87604 13.5581 1.87503H13.5253C12.3908 1.87199 11.2671 2.09417 10.2191 2.52868C9.17111 2.96319 8.21981 3.60139 7.42032 4.40628L1.66501 10.2347C1.3165 10.5871 1.12165 11.063 1.12305 11.5586C1.12446 12.0542 1.32201 12.5291 1.67251 12.8794L4.35939 15.5625C4.53323 15.7372 4.73997 15.8757 4.96767 15.97C5.19537 16.0643 5.4395 16.1125 5.68595 16.1119H5.69626C5.94445 16.1116 6.19007 16.0617 6.41869 15.9651C6.64731 15.8685 6.8543 15.7272 7.02751 15.5494L12.7341 9.70034C12.9436 9.49508 13.2246 9.37918 13.5179 9.37708C13.8112 9.37498 14.0938 9.48685 14.3063 9.68909C14.4105 9.79101 14.4933 9.9128 14.5496 10.0473C14.606 10.1817 14.6348 10.3261 14.6344 10.4719C14.6376 10.7908 14.5142 11.0979 14.2913 11.326L8.45532 16.9688C8.27687 17.1419 8.13464 17.3489 8.03692 17.5775C7.9392 17.8062 7.88792 18.052 7.88609 18.3006C7.88426 18.5492 7.9319 18.7958 8.02625 19.0258C8.12059 19.2559 8.25976 19.4649 8.43564 19.6407L11.1225 22.3275C11.4728 22.6753 11.9457 22.8715 12.4394 22.874C12.933 22.8764 13.4078 22.6849 13.7616 22.3407L19.5516 16.6744L19.56 16.666C22.9359 13.2919 22.9856 7.81034 19.6725 4.44753ZM5.68314 13.7072L3.52688 11.551L5.2322 9.82503L7.3772 11.97L5.68314 13.7072ZM12.4519 20.4741L10.2956 18.3178L12.0403 16.6303L14.1853 18.7744L12.4519 20.4741ZM17.9728 15.0722L15.795 17.2032L13.6594 15.0685L15.8634 12.9375L15.8775 12.9244C16.2003 12.5992 16.4555 12.2134 16.6283 11.789C16.8011 11.3647 16.8881 10.9104 16.8844 10.4522C16.883 10.0073 16.7922 9.56713 16.6175 9.15792C16.4428 8.7487 16.1876 8.37876 15.8672 8.07003C15.228 7.46093 14.3766 7.12492 13.4937 7.13332C12.6108 7.14172 11.7659 7.49388 11.1384 8.11503L11.1291 8.12534L8.94939 10.3585L6.81376 8.22378L9.01689 5.99253C9.60752 5.39855 10.3101 4.92764 11.084 4.60708C11.8579 4.28652 12.6877 4.12267 13.5253 4.12503H13.5497C14.3916 4.12608 15.2249 4.29483 16.0009 4.62142C16.7769 4.94801 17.4801 5.42591 18.0694 6.02722C20.5172 8.51066 20.4731 12.5672 17.9728 15.0722Z" fill="#130032"/>
</svg>
