<svg width="24" height="24" viewBox="0 0 24 24" fill="none" xmlns="http://www.w3.org/2000/svg">
<path d="M18.75 3.375H15C14.5027 3.375 14.0258 3.57254 13.6742 3.92418C13.3225 4.27581 13.125 4.75272 13.125 5.25V13.5C13.125 13.7984 13.0065 14.0845 12.7955 14.2955C12.5845 14.5065 12.2984 14.625 12 14.625C11.7016 14.625 11.4155 14.5065 11.2045 14.2955C10.9935 14.0845 10.875 13.7984 10.875 13.5V5.25C10.875 4.75272 10.6775 4.27581 10.3258 3.92418C9.97419 3.57254 9.49728 3.375 9 3.375H5.25C4.75272 3.375 4.27581 3.57254 3.92417 3.92418C3.57254 4.27581 3.375 4.75272 3.375 5.25V13.5C3.375 15.7875 4.2837 17.9813 5.9012 19.5988C7.51871 21.2163 9.71251 22.125 12 22.125H12.0666C16.7859 22.0894 20.6259 18.1781 20.6259 13.4062V5.25C20.6259 5.00369 20.5774 4.7598 20.4831 4.53225C20.3888 4.30471 20.2506 4.09797 20.0764 3.92384C19.9022 3.74972 19.6954 3.61163 19.4678 3.51746C19.2402 3.42328 18.9963 3.37488 18.75 3.375ZM18.375 5.625V7.875H15.375V5.625H18.375ZM8.625 5.625V7.875H5.625V5.625H8.625ZM12.0487 19.875H12C10.3092 19.875 8.68774 19.2034 7.49219 18.0078C6.29665 16.8123 5.625 15.1908 5.625 13.5V10.125H8.625V13.5C8.625 14.3951 8.98058 15.2535 9.61351 15.8865C10.2464 16.5194 11.1049 16.875 12 16.875C12.8951 16.875 13.7535 16.5194 14.3865 15.8865C15.0194 15.2535 15.375 14.3951 15.375 13.5V10.125H18.375V13.4062C18.375 16.9472 15.5372 19.8487 12.0487 19.875Z" fill="#130032"/>
</svg>
