<svg width="24" height="24" viewBox="0 0 24 24" fill="none" xmlns="http://www.w3.org/2000/svg">
<path d="M14.6254 10.4994C14.6254 10.7978 14.5068 11.0839 14.2959 11.2949C14.0849 11.5059 13.7987 11.6244 13.5004 11.6244H7.50036C7.20199 11.6244 6.91584 11.5059 6.70486 11.2949C6.49389 11.0839 6.37536 10.7978 6.37536 10.4994C6.37536 10.201 6.49389 9.91487 6.70486 9.70389C6.91584 9.49291 7.20199 9.37438 7.50036 9.37438H13.5004C13.7987 9.37438 14.0849 9.49291 14.2959 9.70389C14.5068 9.91487 14.6254 10.201 14.6254 10.4994ZM21.7963 21.7953C21.6918 21.9002 21.5676 21.9834 21.4308 22.0402C21.2941 22.097 21.1475 22.1262 20.9994 22.1262C20.8514 22.1262 20.7047 22.097 20.568 22.0402C20.4313 21.9834 20.3071 21.9002 20.2025 21.7953L15.7504 17.3431C14.0108 18.678 11.8286 19.3013 9.64643 19.0864C7.46426 18.8715 5.44552 17.8347 3.99972 16.1861C2.55393 14.5376 1.78935 12.4008 1.86107 10.2092C1.9328 8.01768 2.83546 5.93546 4.38595 4.38497C5.93644 2.83448 8.01865 1.93182 10.2102 1.86009C12.4018 1.78837 14.5385 2.55295 16.1871 3.99875C17.8356 5.44454 18.8725 7.46328 19.0874 9.64545C19.3023 11.8276 18.679 14.0098 17.3441 15.7494L21.801 20.2053C22.011 20.4169 22.1285 20.7032 22.1277 21.0013C22.1268 21.2994 22.0076 21.585 21.7963 21.7953ZM10.5004 16.8744C11.7612 16.8744 12.9938 16.5005 14.0421 15.8C15.0905 15.0995 15.9076 14.1039 16.3901 12.939C16.8726 11.7741 16.9988 10.4923 16.7529 9.25568C16.5069 8.01905 15.8997 6.88314 15.0082 5.99158C14.1166 5.10002 12.9807 4.49286 11.7441 4.24688C10.5074 4.0009 9.22563 4.12714 8.06075 4.60965C6.89587 5.09216 5.90024 5.90926 5.19974 6.95762C4.49925 8.00599 4.12536 9.23853 4.12536 10.4994C4.12734 12.1895 4.79963 13.8099 5.99475 15.005C7.18986 16.2001 8.81021 16.8724 10.5004 16.8744Z" fill="#130032"/>
</svg>
