<svg width="24" height="24" viewBox="0 0 24 24" fill="none" xmlns="http://www.w3.org/2000/svg">
<path d="M21.7963 20.2034L17.3441 15.7494C18.679 14.0098 19.3023 11.8276 19.0874 9.64545C18.8725 7.46328 17.8356 5.44454 16.1871 3.99875C14.5385 2.55295 12.4018 1.78837 10.2102 1.86009C8.01865 1.93182 5.93644 2.83448 4.38595 4.38497C2.83546 5.93546 1.9328 8.01768 1.86107 10.2092C1.78935 12.4008 2.55393 14.5376 3.99972 16.1861C5.44552 17.8347 7.46426 18.8715 9.64643 19.0864C11.8286 19.3013 14.0108 18.678 15.7504 17.3431L20.2063 21.8C20.3109 21.9047 20.4352 21.9877 20.5719 22.0443C20.7086 22.1009 20.8552 22.1301 21.0032 22.1301C21.1512 22.1301 21.2977 22.1009 21.4344 22.0443C21.5712 21.9877 21.6954 21.9047 21.8 21.8C21.9047 21.6954 21.9877 21.5711 22.0443 21.4344C22.101 21.2977 22.1301 21.1511 22.1301 21.0031C22.1301 20.8551 22.101 20.7086 22.0443 20.5719C21.9877 20.4351 21.9047 20.3109 21.8 20.2063L21.7963 20.2034ZM4.12536 10.4994C4.12536 9.23853 4.49925 8.00599 5.19974 6.95762C5.90024 5.90926 6.89587 5.09216 8.06075 4.60965C9.22563 4.12714 10.5074 4.0009 11.7441 4.24688C12.9807 4.49286 14.1166 5.10002 15.0082 5.99158C15.8997 6.88314 16.5069 8.01905 16.7529 9.25568C16.9988 10.4923 16.8726 11.7741 16.3901 12.939C15.9076 14.1039 15.0905 15.0995 14.0421 15.8C12.9938 16.5005 11.7612 16.8744 10.5004 16.8744C8.81014 16.8726 7.18964 16.2004 5.99447 15.0053C4.7993 13.8101 4.1271 12.1896 4.12536 10.4994Z" fill="#130032"/>
</svg>
