<svg width="24" height="24" viewBox="0 0 24 24" fill="none" xmlns="http://www.w3.org/2000/svg">
<path d="M10.875 9.96863V16.5011C10.875 16.7995 10.9935 17.0856 11.2045 17.2966C11.4155 17.5076 11.7016 17.6261 12 17.6261C12.2984 17.6261 12.5845 17.5076 12.7955 17.2966C13.0065 17.0856 13.125 16.7995 13.125 16.5011V9.96863C14.0829 9.69709 14.9103 9.08826 15.4544 8.25448C15.9986 7.4207 16.2228 6.41825 16.0857 5.43209C15.9486 4.44594 15.4595 3.54264 14.7086 2.88887C13.9577 2.23511 12.9956 1.875 12 1.875C11.0044 1.875 10.0423 2.23511 9.2914 2.88887C8.54048 3.54264 8.05135 4.44594 7.91428 5.43209C7.77721 6.41825 8.00144 7.4207 8.54559 8.25448C9.08975 9.08826 9.91711 9.69709 10.875 9.96863ZM12 4.12613C12.3708 4.12613 12.7334 4.23609 13.0417 4.44212C13.35 4.64815 13.5904 4.94098 13.7323 5.2836C13.8742 5.62621 13.9113 6.00321 13.839 6.36692C13.7666 6.73064 13.588 7.06473 13.3258 7.32695C13.0636 7.58918 12.7295 7.76775 12.3658 7.8401C12.0021 7.91245 11.6251 7.87532 11.2825 7.7334C10.9399 7.59149 10.647 7.35116 10.441 7.04282C10.235 6.73448 10.125 6.37197 10.125 6.00113C10.125 5.50385 10.3225 5.02693 10.6742 4.6753C11.0258 4.32367 11.5027 4.12613 12 4.12613ZM22.875 16.5011C22.875 18.5252 20.6344 19.6886 19.2984 20.2024C17.3306 20.9599 14.7394 21.3761 12 21.3761C6.59625 21.3761 1.125 19.7018 1.125 16.5011C1.125 14.4171 3.57375 12.7324 7.67625 11.9955C7.8226 11.9671 7.97315 11.968 8.11914 11.9983C8.26513 12.0285 8.40365 12.0875 8.52665 12.1717C8.64965 12.256 8.75467 12.3639 8.83562 12.4891C8.91656 12.6143 8.97181 12.7543 8.99815 12.9011C9.02449 13.0478 9.0214 13.1983 8.98906 13.3439C8.95672 13.4894 8.89577 13.6271 8.80976 13.7489C8.72375 13.8706 8.61439 13.9741 8.48803 14.0533C8.36168 14.1324 8.22086 14.1856 8.07375 14.2099C4.86844 14.7864 3.375 15.918 3.375 16.5011C3.375 16.8761 4.0425 17.5389 5.50969 18.1024C7.22531 18.7586 9.53063 19.1261 12 19.1261C14.4694 19.1261 16.7747 18.7624 18.4903 18.1024C19.9566 17.5389 20.625 16.8761 20.625 16.5011C20.625 15.918 19.1316 14.7864 15.9263 14.2099C15.7791 14.1856 15.6383 14.1324 15.512 14.0533C15.3856 13.9741 15.2763 13.8706 15.1902 13.7489C15.1042 13.6271 15.0433 13.4894 15.0109 13.3439C14.9786 13.1983 14.9755 13.0478 15.0019 12.9011C15.0282 12.7543 15.0834 12.6143 15.1644 12.4891C15.2453 12.3639 15.3504 12.256 15.4733 12.1717C15.5963 12.0875 15.7349 12.0285 15.8809 11.9983C16.0268 11.968 16.1774 11.9671 16.3237 11.9955C20.4262 12.7324 22.875 14.4171 22.875 16.5011Z" fill="#130032"/>
</svg>
