<svg width="24" height="24" viewBox="0 0 24 24" fill="none" xmlns="http://www.w3.org/2000/svg">
<path d="M20.25 19.1248H13.125V13.0114C14.4908 12.7326 15.7044 11.9566 16.5306 10.8338C17.3568 9.71106 17.7366 8.32154 17.5965 6.93464C17.4564 5.54773 16.8063 4.26226 15.7723 3.32742C14.7383 2.39259 13.394 1.875 12 1.875C10.606 1.875 9.26173 2.39259 8.2277 3.32742C7.19367 4.26226 6.54359 5.54773 6.40348 6.93464C6.26338 8.32154 6.64323 9.71106 7.4694 10.8338C8.29557 11.9566 9.5092 12.7326 10.875 13.0114V19.1248H3.75C3.45163 19.1248 3.16548 19.2433 2.9545 19.4543C2.74353 19.6653 2.625 19.9514 2.625 20.2498C2.625 20.5482 2.74353 20.8343 2.9545 21.0453C3.16548 21.2563 3.45163 21.3748 3.75 21.3748H20.25C20.5484 21.3748 20.8345 21.2563 21.0455 21.0453C21.2565 20.8343 21.375 20.5482 21.375 20.2498C21.375 19.9514 21.2565 19.6653 21.0455 19.4543C20.8345 19.2433 20.5484 19.1248 20.25 19.1248ZM8.625 7.49979C8.625 6.83228 8.82294 6.17976 9.19379 5.62474C9.56464 5.06972 10.0917 4.63714 10.7084 4.3817C11.3251 4.12625 12.0037 4.05941 12.6584 4.18964C13.3131 4.31986 13.9145 4.6413 14.3865 5.1133C14.8585 5.58531 15.1799 6.18667 15.3102 6.84136C15.4404 7.49605 15.3735 8.17464 15.1181 8.79135C14.8626 9.40805 14.4301 9.93515 13.875 10.306C13.32 10.6768 12.6675 10.8748 12 10.8748C11.1049 10.8748 10.2464 10.5192 9.61351 9.88627C8.98058 9.25334 8.625 8.3949 8.625 7.49979Z" fill="#130032"/>
</svg>
