<svg width="24" height="24" viewBox="0 0 24 24" fill="none" xmlns="http://www.w3.org/2000/svg">
<path d="M16.125 9.75C16.125 10.0484 16.0065 10.3345 15.7955 10.5455C15.5845 10.7565 15.2984 10.875 15 10.875H13.125V12.75C13.125 13.0484 13.0065 13.3345 12.7955 13.5455C12.5845 13.7565 12.2984 13.875 12 13.875C11.7016 13.875 11.4155 13.7565 11.2045 13.5455C10.9935 13.3345 10.875 13.0484 10.875 12.75V10.875H9C8.70163 10.875 8.41548 10.7565 8.2045 10.5455C7.99353 10.3345 7.875 10.0484 7.875 9.75C7.875 9.45163 7.99353 9.16548 8.2045 8.9545C8.41548 8.74353 8.70163 8.625 9 8.625H10.875V6.75C10.875 6.45163 10.9935 6.16548 11.2045 5.9545C11.4155 5.74353 11.7016 5.625 12 5.625C12.2984 5.625 12.5845 5.74353 12.7955 5.9545C13.0065 6.16548 13.125 6.45163 13.125 6.75V8.625H15C15.2984 8.625 15.5845 8.74353 15.7955 8.9545C16.0065 9.16548 16.125 9.45163 16.125 9.75ZM20.625 9.75C20.625 12.7856 19.2328 15.9909 16.5994 19.0191C15.4209 20.3807 14.0946 21.607 12.645 22.6753C12.4559 22.8076 12.2308 22.8786 12 22.8786C11.7692 22.8786 11.5441 22.8076 11.355 22.6753C11.0288 22.4438 3.375 17.0025 3.375 9.75C3.375 7.46251 4.2837 5.26871 5.9012 3.6512C7.51871 2.0337 9.71251 1.125 12 1.125C14.2875 1.125 16.4813 2.0337 18.0988 3.6512C19.7163 5.26871 20.625 7.46251 20.625 9.75ZM18.375 9.75C18.375 8.05925 17.7034 6.43774 16.5078 5.24219C15.3123 4.04665 13.6908 3.375 12 3.375C10.3092 3.375 8.68774 4.04665 7.49219 5.24219C6.29665 6.43774 5.625 8.05925 5.625 9.75C5.625 12.8728 7.5 15.6909 9.06562 17.5041C9.9595 18.5308 10.9414 19.4776 12 20.3334C13.0586 19.4776 14.0405 18.5308 14.9344 17.5041C16.5 15.6909 18.375 12.8728 18.375 9.75Z" fill="#130032"/>
</svg>
