<svg width="24" height="24" viewBox="0 0 24 24" fill="none" xmlns="http://www.w3.org/2000/svg">
<path d="M21.6919 4.36203C21.5572 4.25695 21.4003 4.18393 21.2331 4.14852C21.066 4.1131 20.8929 4.11623 20.7272 4.15766L15.1312 5.55641L9.50625 2.74391C9.26599 2.62369 8.99064 2.59343 8.73 2.65859L2.73 4.15859C2.48625 4.21885 2.26967 4.35892 2.11473 4.5565C1.95979 4.75409 1.8754 4.99782 1.875 5.24891V18.7489C1.87503 18.9199 1.91401 19.0885 1.98899 19.2422C2.06396 19.3958 2.17297 19.5303 2.30771 19.6355C2.44246 19.7407 2.59941 19.8138 2.76663 19.8493C2.93386 19.8847 3.10697 19.8816 3.27281 19.8402L8.86875 18.4414L14.4938 21.2539C14.734 21.3741 15.0094 21.4044 15.27 21.3392L21.27 19.8392C21.5137 19.779 21.7303 19.6389 21.8853 19.4413C22.0402 19.2437 22.1246 19 22.125 18.7489V5.24891C22.125 5.07788 22.0859 4.90911 22.0109 4.75543C21.9358 4.60176 21.8267 4.46721 21.6919 4.36203ZM10.125 5.56953L13.875 7.44453V18.4283L10.125 16.5533V5.56953ZM4.125 6.13203L7.875 5.19453V16.3705L4.125 17.308V6.13203ZM19.875 17.8705L16.125 18.808V7.62734L19.875 6.68984V17.8705Z" fill="#130032"/>
</svg>
