<svg width="24" height="24" viewBox="0 0 24 24" fill="none" xmlns="http://www.w3.org/2000/svg">
<path d="M17.625 6.74979C17.625 5.68547 17.323 4.643 16.7541 3.74346C16.1852 2.84393 15.3728 2.12425 14.4112 1.66801C13.4496 1.21178 12.3784 1.03771 11.3218 1.16604C10.2652 1.29436 9.26677 1.71981 8.44236 2.39296C7.61795 3.06612 7.00144 3.95935 6.66443 4.96891C6.32742 5.97847 6.28375 7.06292 6.53849 8.09631C6.79323 9.1297 7.33593 10.0696 8.10354 10.8069C8.87115 11.5441 9.83218 12.0485 10.875 12.2614V21.7498C10.875 22.0482 10.9935 22.3343 11.2045 22.5453C11.4155 22.7563 11.7016 22.8748 12 22.8748C12.2984 22.8748 12.5845 22.7563 12.7955 22.5453C13.0065 22.3343 13.125 22.0482 13.125 21.7498V12.2614C14.3946 12.0006 15.5355 11.3099 16.3553 10.3059C17.175 9.30192 17.6235 8.04595 17.625 6.74979ZM12 10.1248C11.3325 10.1248 10.68 9.92685 10.125 9.556C9.56994 9.18515 9.13735 8.65805 8.88191 8.04135C8.62646 7.42465 8.55962 6.74605 8.68985 6.09136C8.82008 5.43668 9.14151 4.83531 9.61352 4.36331C10.0855 3.8913 10.6869 3.56987 11.3416 3.43964C11.9963 3.30942 12.6749 3.37625 13.2916 3.6317C13.9083 3.88715 14.4354 4.31973 14.8062 4.87474C15.1771 5.42976 15.375 6.08228 15.375 6.74979C15.375 7.6449 15.0194 8.50334 14.3865 9.13628C13.7536 9.76921 12.8951 10.1248 12 10.1248Z" fill="#130032"/>
</svg>
