<svg width="24" height="24" viewBox="0 0 24 24" fill="none" xmlns="http://www.w3.org/2000/svg">
<path d="M21.75 4.125H2.25C2.00377 4.125 1.75995 4.1735 1.53247 4.26773C1.30498 4.36195 1.09828 4.50006 0.924175 4.67417C0.572544 5.02581 0.375 5.50272 0.375 6V18C0.375 18.4973 0.572544 18.9742 0.924175 19.3258C1.09828 19.4999 1.30498 19.638 1.53247 19.7323C1.75995 19.8265 2.00377 19.875 2.25 19.875H21.75C22.2473 19.875 22.7242 19.6775 23.0758 19.3258C23.4275 18.9742 23.625 18.4973 23.625 18V6C23.625 5.50272 23.4275 5.02581 23.0758 4.67417C22.7242 4.32254 22.2473 4.125 21.75 4.125ZM21.375 17.625H2.625V6.375H21.375V17.625ZM4.5 13.875V10.125C4.49983 9.90237 4.56571 9.68469 4.68931 9.49952C4.81292 9.31435 4.98869 9.17002 5.19436 9.0848C5.40004 8.99958 5.62637 8.9773 5.84472 9.02078C6.06307 9.06426 6.2636 9.17155 6.42094 9.32906L8.25 11.1562L10.0791 9.32625C10.2366 9.16857 10.4374 9.06122 10.656 9.01783C10.8746 8.97443 11.1012 8.99695 11.3069 9.08252C11.5127 9.16809 11.6885 9.31286 11.8119 9.49846C11.9353 9.68406 12.0007 9.90213 12 10.125V13.875C12 14.1734 11.8815 14.4595 11.6705 14.6705C11.4595 14.8815 11.1734 15 10.875 15C10.5766 15 10.2905 14.8815 10.0795 14.6705C9.86853 14.4595 9.75 14.1734 9.75 13.875V12.8438L9.04594 13.5487C8.94142 13.6536 8.81723 13.7368 8.68048 13.7936C8.54374 13.8504 8.39713 13.8796 8.24906 13.8796C8.101 13.8796 7.95439 13.8504 7.81764 13.7936C7.6809 13.7368 7.5567 13.6536 7.45219 13.5487L6.75 12.8438V13.875C6.75 14.1734 6.63147 14.4595 6.4205 14.6705C6.20952 14.8815 5.92337 15 5.625 15C5.32663 15 5.04048 14.8815 4.8295 14.6705C4.61853 14.4595 4.5 14.1734 4.5 13.875ZM13.7466 11.6719C13.8389 11.5565 13.953 11.4604 14.0825 11.3892C14.2119 11.3179 14.3542 11.2729 14.501 11.2566C14.6479 11.2403 14.7965 11.2531 14.9384 11.2943C15.0804 11.3355 15.2128 11.4042 15.3281 11.4966L15.375 11.5341V10.125C15.375 9.82663 15.4935 9.54048 15.7045 9.3295C15.9155 9.11853 16.2016 9 16.5 9C16.7984 9 17.0845 9.11853 17.2955 9.3295C17.5065 9.54048 17.625 9.82663 17.625 10.125V11.5312L17.6719 11.4937C17.9049 11.3073 18.2024 11.221 18.499 11.2539C18.7956 11.2867 19.067 11.4361 19.2534 11.6691C19.4399 11.902 19.5262 12.1996 19.4933 12.4962C19.4605 12.7928 19.3111 13.0641 19.0781 13.2506L17.2031 14.7506C17.0036 14.9104 16.7556 14.9974 16.5 14.9974C16.2444 14.9974 15.9964 14.9104 15.7969 14.7506L13.9219 13.2506C13.6897 13.0642 13.5408 12.7934 13.508 12.4975C13.4751 12.2015 13.5609 11.9047 13.7466 11.6719Z" fill="#130032"/>
</svg>
