<svg width="24" height="24" viewBox="0 0 24 24" fill="none" xmlns="http://www.w3.org/2000/svg">
<path d="M19.16 4.83737C17.5029 3.17911 15.322 2.14677 12.989 1.91629C10.656 1.68581 8.31531 2.27144 6.36572 3.57338C4.41613 4.87533 2.97832 6.81303 2.2973 9.05628C1.61628 11.2995 1.7342 13.7095 2.63096 15.8756C3.52771 18.0416 5.14782 19.8297 7.2152 20.9351C9.28258 22.0405 11.6693 22.3948 13.9686 21.9377C16.268 21.4806 18.3377 20.2403 19.825 18.4281C21.3124 16.616 22.1253 14.3442 22.1254 11.9999C22.1253 9.31372 21.0587 6.73749 19.16 4.83737ZM10.1254 13.1249H13.8754V14.6249H10.1254V13.1249ZM8.62535 19.1174V16.8749H15.3754V19.1155C14.3201 19.614 13.1676 19.8727 12.0006 19.873C10.8335 19.8733 9.68086 19.6153 8.62535 19.1174ZM17.6254 17.5114V16.4999C17.6254 16.0676 17.4762 15.6486 17.2028 15.3138C16.9295 14.9789 16.5489 14.7488 16.1254 14.6624V12.7499C16.125 12.3369 15.9884 11.9356 15.7367 11.6083C15.4849 11.281 15.1322 11.0459 14.7332 10.9396L13.8069 7.61237C13.6972 7.21754 13.4612 6.86951 13.1349 6.62154C12.8087 6.37358 12.4101 6.23933 12.0004 6.23933C11.5906 6.23933 11.192 6.37358 10.8658 6.62154C10.5395 6.86951 10.3035 7.21754 10.1938 7.61237L9.26754 10.9396C8.86853 11.0459 8.51577 11.281 8.26404 11.6083C8.01231 11.9356 7.87568 12.3369 7.87535 12.7499V14.6642C7.45216 14.7506 7.07176 14.9805 6.79846 15.3149C6.52515 15.6494 6.3757 16.0679 6.37535 16.4999V17.5096C5.2901 16.4019 4.55601 14.9985 4.26514 13.4754C3.97426 11.9522 4.13955 10.3771 4.74027 8.94749C5.341 7.51789 6.35042 6.29747 7.64196 5.43924C8.9335 4.58102 10.4497 4.12321 12.0004 4.12321C13.551 4.12321 15.0672 4.58102 16.3588 5.43924C17.6503 6.29747 18.6597 7.51789 19.2604 8.94749C19.8612 10.3771 20.0264 11.9522 19.7356 13.4754C19.4447 14.9985 18.7106 16.4019 17.6254 17.5096V17.5114Z" fill="#130032"/>
</svg>
