<svg width="24" height="24" viewBox="0 0 24 24" fill="none" xmlns="http://www.w3.org/2000/svg">
<path d="M22.7896 3.31969C22.7045 3.11403 22.5603 2.93825 22.3752 2.81459C22.1901 2.69093 21.9725 2.62495 21.7499 2.625H2.24995C2.0274 2.62501 1.80985 2.69103 1.62482 2.81471C1.4398 2.93838 1.29561 3.11416 1.21051 3.31979C1.1254 3.52543 1.1032 3.75169 1.14671 3.96995C1.19022 4.18821 1.29749 4.38866 1.45495 4.54594L10.8749 13.9688V19.125H8.24995C7.95158 19.125 7.66543 19.2435 7.45445 19.4545C7.24347 19.6655 7.12495 19.9516 7.12495 20.25C7.12495 20.5484 7.24347 20.8345 7.45445 21.0455C7.66543 21.2565 7.95158 21.375 8.24995 21.375H15.7499C16.0483 21.375 16.3345 21.2565 16.5454 21.0455C16.7564 20.8345 16.8749 20.5484 16.8749 20.25C16.8749 19.9516 16.7564 19.6655 16.5454 19.4545C16.3345 19.2435 16.0483 19.125 15.7499 19.125H13.1249V13.9688L22.5449 4.54594C22.7025 4.38868 22.8098 4.18822 22.8534 3.96994C22.8969 3.75166 22.8747 3.52536 22.7896 3.31969ZM19.0312 4.875L17.9062 6H6.0937L4.9687 4.875H19.0312ZM11.9999 11.9062L8.3437 8.25H15.6562L11.9999 11.9062Z" fill="#130032"/>
</svg>
