<svg width="24" height="24" viewBox="0 0 24 24" fill="none" xmlns="http://www.w3.org/2000/svg">
<path d="M20.5584 2.95243C20.3071 2.7805 20.0176 2.67239 19.7151 2.63744C19.4126 2.60248 19.1061 2.64173 18.8222 2.7518C17.5312 3.2543 14.9222 4.09618 12 4.09618C9.07781 4.09618 6.46875 3.25243 5.17781 2.7518C4.89375 2.64167 4.58713 2.60241 4.28448 2.63743C3.98183 2.67245 3.69228 2.78069 3.44087 2.95279C3.18947 3.12488 2.98378 3.35565 2.84163 3.62512C2.69947 3.89459 2.62511 4.19464 2.625 4.4993V9.72774C2.625 13.1627 3.55313 16.4074 5.23875 18.8637C7.01344 21.4502 9.41437 22.8743 12 22.8743C14.5856 22.8743 16.9866 21.4502 18.7612 18.8656C20.4469 16.4056 21.375 13.1646 21.375 9.72962V4.4993C21.3749 4.19451 21.3004 3.89435 21.1582 3.62481C21.0159 3.35527 20.81 3.12448 20.5584 2.95243ZM19.125 9.72962C19.125 12.7146 18.3366 15.5074 16.9059 17.5924C15.5625 19.5471 13.8216 20.6243 12 20.6243C10.1784 20.6243 8.4375 19.5471 7.09406 17.5924C5.66344 15.5074 4.875 12.7146 4.875 9.72962V5.04212C6.43031 5.59993 9.06281 6.34899 12 6.34899C14.9372 6.34899 17.5697 5.59899 19.125 5.04212V9.72962ZM14.8481 17.5784C14.7741 17.7062 14.6756 17.8183 14.5582 17.908C14.4409 17.9978 14.307 18.0636 14.1642 18.1017C14.0215 18.1397 13.8726 18.1493 13.7261 18.1298C13.5797 18.1103 13.4385 18.0621 13.3106 17.9881C12.9144 17.7494 12.4607 17.6232 11.9981 17.6232C11.5356 17.6232 11.0818 17.7494 10.6856 17.9881C10.5576 18.0695 10.4144 18.1241 10.2647 18.1487C10.115 18.1734 9.96181 18.1674 9.81444 18.1313C9.66707 18.0952 9.52852 18.0297 9.40714 17.9387C9.28575 17.8477 9.18403 17.733 9.1081 17.6016C9.03217 17.4703 8.98359 17.3249 8.9653 17.1743C8.947 17.0237 8.95936 16.8709 9.00164 16.7252C9.04391 16.5795 9.11523 16.4438 9.21129 16.3264C9.30735 16.2089 9.42618 16.1121 9.56063 16.0418C10.299 15.6059 11.1407 15.3759 11.9981 15.3759C12.8555 15.3759 13.6973 15.6059 14.4356 16.0418C14.6941 16.1909 14.8827 16.4365 14.9601 16.7247C15.0375 17.0128 14.9972 17.3199 14.8481 17.5784ZM12.9272 10.6409C13.007 10.5165 13.1106 10.409 13.232 10.3247C13.3534 10.2403 13.4903 10.1808 13.6347 10.1493C13.7791 10.1179 13.9284 10.1152 14.0738 10.1415C14.2193 10.1678 14.3582 10.2225 14.4825 10.3024C14.752 10.4662 15.0598 10.5561 15.375 10.5631C15.6096 10.5573 15.841 10.5067 16.0566 10.414C16.1924 10.3558 16.3383 10.3248 16.486 10.323C16.6338 10.3212 16.7804 10.3485 16.9176 10.4033C17.0548 10.4581 17.1799 10.5395 17.2857 10.6427C17.3914 10.7458 17.4758 10.8688 17.5341 11.0046C17.5923 11.1404 17.6232 11.2863 17.625 11.4341C17.6269 11.5818 17.5996 11.7285 17.5448 11.8657C17.4899 12.0029 17.4086 12.1279 17.3054 12.2337C17.2022 12.3395 17.0792 12.4239 16.9434 12.4821C16.3544 12.7417 15.7102 12.8513 15.0684 12.8013C14.4267 12.7512 13.8073 12.543 13.2656 12.1952C13.0147 12.034 12.838 11.7796 12.7745 11.4881C12.7111 11.1966 12.766 10.8919 12.9272 10.6409ZM10.7344 12.1952C10.1923 12.5424 9.57269 12.7498 8.93088 12.7989C8.28906 12.848 7.64509 12.7372 7.05656 12.4765C6.91139 12.4251 6.77831 12.3445 6.66556 12.2396C6.55281 12.1347 6.46279 12.0078 6.40108 11.8667C6.33937 11.7257 6.30728 11.5734 6.3068 11.4194C6.30632 11.2654 6.33746 11.113 6.3983 10.9715C6.45913 10.83 6.54835 10.7026 6.66045 10.597C6.77254 10.4914 6.90512 10.41 7.04997 10.3577C7.19482 10.3054 7.34886 10.2835 7.50255 10.2931C7.65623 10.3028 7.80629 10.344 7.94344 10.414C8.15905 10.5067 8.39039 10.5573 8.625 10.5631C8.94082 10.5561 9.24925 10.4662 9.51937 10.3024C9.64366 10.2224 9.78249 10.1676 9.92793 10.1413C10.0734 10.1149 10.2226 10.1174 10.3671 10.1487C10.5115 10.18 10.6484 10.2395 10.7699 10.3237C10.8914 10.4079 10.9951 10.5152 11.0752 10.6395C11.1552 10.7637 11.2099 10.9026 11.2363 11.048C11.2627 11.1935 11.2601 11.3427 11.2289 11.4872C11.1976 11.6316 11.1381 11.7685 11.0539 11.89C10.9697 12.0115 10.8624 12.1152 10.7381 12.1952H10.7344Z" fill="#130032"/>
</svg>
