<svg width="24" height="24" viewBox="0 0 24 24" fill="none" xmlns="http://www.w3.org/2000/svg">
<path d="M20.5584 2.95243C20.3071 2.7805 20.0176 2.67239 19.7151 2.63744C19.4126 2.60248 19.1061 2.64173 18.8222 2.7518C17.5312 3.2543 14.9222 4.09618 12 4.09618C9.07781 4.09618 6.46875 3.25243 5.17781 2.7518C4.89375 2.64167 4.58713 2.60241 4.28448 2.63743C3.98183 2.67245 3.69228 2.78069 3.44087 2.95279C3.18947 3.12488 2.98378 3.35565 2.84163 3.62512C2.69947 3.89459 2.62511 4.19464 2.625 4.4993V9.72774C2.625 13.1627 3.55313 16.4074 5.23875 18.8637C7.01344 21.4502 9.41437 22.8743 12 22.8743C14.5856 22.8743 16.9866 21.4502 18.7612 18.8656C20.4469 16.4056 21.375 13.1646 21.375 9.72962V4.4993C21.3749 4.19451 21.3004 3.89435 21.1582 3.62481C21.0159 3.35527 20.81 3.12448 20.5584 2.95243ZM19.125 9.72962C19.125 12.7146 18.3366 15.5074 16.9059 17.5924C15.5625 19.5471 13.8216 20.6243 12 20.6243C10.1784 20.6243 8.4375 19.5471 7.09406 17.5924C5.66344 15.5074 4.875 12.7146 4.875 9.72962V5.04212C6.43031 5.59993 9.06281 6.34899 12 6.34899C14.9372 6.34899 17.5697 5.59899 19.125 5.04212V9.72962ZM15.4997 15.6246C15.6871 15.8566 15.7746 16.1536 15.7432 16.4501C15.7117 16.7467 15.5638 17.0186 15.3319 17.2062C14.386 17.9623 13.211 18.3742 12 18.3742C10.789 18.3742 9.61404 17.9623 8.66813 17.2062C8.43823 17.018 8.29212 16.7465 8.26166 16.451C8.2312 16.1555 8.31888 15.8599 8.50556 15.6288C8.69223 15.3976 8.96275 15.2497 9.25807 15.2174C9.55339 15.185 9.84954 15.2707 10.0819 15.4559C10.6275 15.8887 11.3035 16.1243 12 16.1243C12.6965 16.1243 13.3725 15.8887 13.9181 15.4559C14.1503 15.2686 14.4473 15.1812 14.7438 15.2128C15.0404 15.2445 15.3123 15.3926 15.4997 15.6246ZM12.9272 12.2956C12.766 12.0445 12.7111 11.7398 12.7745 11.4483C12.838 11.1568 13.0147 10.9024 13.2656 10.7412C13.8076 10.394 14.4269 10.1862 15.0685 10.1362C15.7102 10.0861 16.3542 10.1954 16.9434 10.4543C17.2177 10.5719 17.434 10.7936 17.5448 11.0707C17.6555 11.3478 17.6517 11.6576 17.5341 11.9318C17.4165 12.2061 17.1947 12.4224 16.9176 12.5331C16.6405 12.6439 16.3308 12.64 16.0566 12.5224C15.841 12.4298 15.6096 12.3795 15.375 12.3743C15.0599 12.381 14.752 12.4705 14.4825 12.634C14.3582 12.714 14.2193 12.7686 14.0738 12.7949C13.9284 12.8212 13.7791 12.8185 13.6347 12.7871C13.4903 12.7557 13.3534 12.6961 13.232 12.6117C13.1106 12.5274 13.007 12.42 12.9272 12.2956ZM8.625 12.3743C8.39033 12.3796 8.15891 12.4303 7.94344 12.5234C7.80764 12.5816 7.66171 12.6125 7.51396 12.6143C7.36622 12.6162 7.21956 12.5889 7.08237 12.5341C6.80528 12.4233 6.58354 12.207 6.46594 11.9327C6.34833 11.6585 6.34449 11.3488 6.45525 11.0717C6.56601 10.7946 6.78231 10.5728 7.05656 10.4552C7.64522 10.1951 8.2891 10.0846 8.93081 10.1337C9.57252 10.1828 10.1921 10.3899 10.7344 10.7365C10.8587 10.8165 10.966 10.9202 11.0502 11.0417C11.1344 11.1632 11.1938 11.3001 11.2251 11.4446C11.2564 11.589 11.2589 11.7383 11.2326 11.8837C11.2062 12.0292 11.1514 12.168 11.0714 12.2923C10.9914 12.4166 10.8877 12.5239 10.7662 12.6081C10.6447 12.6923 10.5078 12.7517 10.3633 12.783C10.2188 12.8143 10.0696 12.8168 9.92418 12.7905C9.77874 12.7641 9.63991 12.7093 9.51562 12.6293C9.24607 12.4681 8.93903 12.3802 8.625 12.3743Z" fill="#130032"/>
</svg>
