<svg width="24" height="24" viewBox="0 0 24 24" fill="none" xmlns="http://www.w3.org/2000/svg">
<path d="M17.25 2.625H6.75C5.65636 2.62624 4.60787 3.06124 3.83455 3.83455C3.06124 4.60787 2.62624 5.65636 2.625 6.75V18C2.62624 19.0936 3.06124 20.1421 3.83455 20.9154C4.60787 21.6888 5.65636 22.1238 6.75 22.125H15C15.2984 22.125 15.5845 22.0065 15.7955 21.7955C16.0065 21.5845 16.125 21.2984 16.125 21C16.125 20.7016 16.0065 20.4155 15.7955 20.2045C15.5845 19.9935 15.2984 19.875 15 19.875H6.75C6.25272 19.875 5.77581 19.6775 5.42417 19.3258C5.07254 18.9742 4.875 18.4973 4.875 18V17.625H17.25C18.3436 17.6238 19.3921 17.1888 20.1654 16.4154C20.9388 15.6421 21.3738 14.5936 21.375 13.5V6.75C21.3738 5.65636 20.9388 4.60787 20.1654 3.83455C19.3921 3.06124 18.3436 2.62624 17.25 2.625ZM19.125 13.5C19.125 13.7462 19.0765 13.99 18.9823 14.2175C18.888 14.445 18.7499 14.6517 18.5758 14.8258C18.4017 14.9999 18.195 15.138 17.9675 15.2323C17.74 15.3265 17.4962 15.375 17.25 15.375H4.875V6.75C4.875 6.25272 5.07254 5.77581 5.42417 5.42417C5.77581 5.07254 6.25272 4.875 6.75 4.875H17.25C17.7473 4.875 18.2242 5.07254 18.5758 5.42417C18.9275 5.77581 19.125 6.25272 19.125 6.75V13.5ZM17.625 9.75V12.75C17.625 13.0484 17.5065 13.3345 17.2955 13.5455C17.0845 13.7565 16.7984 13.875 16.5 13.875C16.2016 13.875 15.9155 13.7565 15.7045 13.5455C15.4935 13.3345 15.375 13.0484 15.375 12.75V9.75C15.375 9.45163 15.2565 9.16548 15.0455 8.9545C14.8345 8.74353 14.5484 8.625 14.25 8.625C13.9516 8.625 13.6655 8.74353 13.4545 8.9545C13.2435 9.16548 13.125 9.45163 13.125 9.75V12.75C13.125 13.0484 13.0065 13.3345 12.7955 13.5455C12.5845 13.7565 12.2984 13.875 12 13.875C11.7016 13.875 11.4155 13.7565 11.2045 13.5455C10.9935 13.3345 10.875 13.0484 10.875 12.75V9.75C10.875 9.45163 10.7565 9.16548 10.5455 8.9545C10.3345 8.74353 10.0484 8.625 9.75 8.625C9.45163 8.625 9.16548 8.74353 8.9545 8.9545C8.74353 9.16548 8.625 9.45163 8.625 9.75V12.75C8.625 13.0484 8.50647 13.3345 8.2955 13.5455C8.08452 13.7565 7.79837 13.875 7.5 13.875C7.20163 13.875 6.91548 13.7565 6.7045 13.5455C6.49353 13.3345 6.375 13.0484 6.375 12.75V9.75C6.37559 9.09874 6.5646 8.46157 6.91922 7.91533C7.27384 7.36909 7.77893 6.93711 8.37357 6.67151C8.9682 6.4059 9.62698 6.31802 10.2704 6.41845C10.9139 6.51887 11.5146 6.80333 12 7.2375C12.4854 6.80333 13.0861 6.51887 13.7296 6.41845C14.373 6.31802 15.0318 6.4059 15.6264 6.67151C16.2211 6.93711 16.7262 7.36909 17.0808 7.91533C17.4354 8.46157 17.6244 9.09874 17.625 9.75Z" fill="#130032"/>
</svg>
