<svg width="24" height="24" viewBox="0 0 24 24" fill="none" xmlns="http://www.w3.org/2000/svg">
<path d="M10.875 6.74898C10.875 7.04735 10.7565 7.3335 10.5455 7.54448C10.3345 7.75546 10.0484 7.87398 9.75 7.87398H3.75C3.45163 7.87398 3.16548 7.75546 2.9545 7.54448C2.74353 7.3335 2.625 7.04735 2.625 6.74898C2.625 6.45061 2.74353 6.16447 2.9545 5.95349C3.16548 5.74251 3.45163 5.62398 3.75 5.62398H9.75C10.0484 5.62398 10.3345 5.74251 10.5455 5.95349C10.7565 6.16447 10.875 6.45061 10.875 6.74898ZM9.75 16.124H7.875V14.249C7.875 13.9506 7.75647 13.6645 7.5455 13.4535C7.33452 13.2425 7.04837 13.124 6.75 13.124C6.45163 13.124 6.16548 13.2425 5.9545 13.4535C5.74353 13.6645 5.625 13.9506 5.625 14.249V16.124H3.75C3.45163 16.124 3.16548 16.2425 2.9545 16.4535C2.74353 16.6645 2.625 16.9506 2.625 17.249C2.625 17.5474 2.74353 17.8335 2.9545 18.0445C3.16548 18.2555 3.45163 18.374 3.75 18.374H5.625V20.249C5.625 20.5474 5.74353 20.8335 5.9545 21.0445C6.16548 21.2555 6.45163 21.374 6.75 21.374C7.04837 21.374 7.33452 21.2555 7.5455 21.0445C7.75647 20.8335 7.875 20.5474 7.875 20.249V18.374H9.75C10.0484 18.374 10.3345 18.2555 10.5455 18.0445C10.7565 17.8335 10.875 17.5474 10.875 17.249C10.875 16.9506 10.7565 16.6645 10.5455 16.4535C10.3345 16.2425 10.0484 16.124 9.75 16.124ZM14.25 16.499H20.25C20.5484 16.499 20.8345 16.3805 21.0455 16.1695C21.2565 15.9585 21.375 15.6724 21.375 15.374C21.375 15.0756 21.2565 14.7895 21.0455 14.5785C20.8345 14.3675 20.5484 14.249 20.25 14.249H14.25C13.9516 14.249 13.6655 14.3675 13.4545 14.5785C13.2435 14.7895 13.125 15.0756 13.125 15.374C13.125 15.6724 13.2435 15.9585 13.4545 16.1695C13.6655 16.3805 13.9516 16.499 14.25 16.499ZM20.25 17.999H14.25C13.9516 17.999 13.6655 18.1175 13.4545 18.3285C13.2435 18.5395 13.125 18.8256 13.125 19.124C13.125 19.4224 13.2435 19.7085 13.4545 19.9195C13.6655 20.1305 13.9516 20.249 14.25 20.249H20.25C20.5484 20.249 20.8345 20.1305 21.0455 19.9195C21.2565 19.7085 21.375 19.4224 21.375 19.124C21.375 18.8256 21.2565 18.5395 21.0455 18.3285C20.8345 18.1175 20.5484 17.999 20.25 17.999ZM14.2041 9.79492C14.3086 9.8998 14.4328 9.98302 14.5695 10.0398C14.7063 10.0966 14.8529 10.1258 15.0009 10.1258C15.149 10.1258 15.2956 10.0966 15.4324 10.0398C15.5691 9.98302 15.6933 9.8998 15.7978 9.79492L17.25 8.34273L18.7041 9.79773C18.9154 10.0091 19.2021 10.1278 19.5009 10.1278C19.7998 10.1278 20.0865 10.0091 20.2978 9.79773C20.5092 9.58639 20.6279 9.29974 20.6279 9.00086C20.6279 8.70197 20.5092 8.41533 20.2978 8.20398L18.8438 6.74898L20.2987 5.29492C20.5101 5.08358 20.6288 4.79693 20.6288 4.49805C20.6288 4.19916 20.5101 3.91251 20.2987 3.70117C20.0874 3.48983 19.8008 3.37109 19.5019 3.37109C19.203 3.37109 18.9163 3.48983 18.705 3.70117L17.25 5.15523L15.7959 3.70305C15.5846 3.4917 15.2979 3.37297 14.9991 3.37297C14.7002 3.37297 14.4135 3.4917 14.2022 3.70305C13.9908 3.91439 13.8721 4.20103 13.8721 4.49992C13.8721 4.79881 13.9908 5.08545 14.2022 5.2968L15.6562 6.74898L14.2041 8.20305C14.0995 8.30753 14.0165 8.4316 13.9599 8.56817C13.9033 8.70475 13.8741 8.85114 13.8741 8.99898C13.8741 9.14683 13.9033 9.29322 13.9599 9.42979C14.0165 9.56636 14.0995 9.69044 14.2041 9.79492Z" fill="#130032"/>
</svg>
