<svg width="24" height="24" viewBox="0 0 24 24" fill="none" xmlns="http://www.w3.org/2000/svg">
<path d="M7.125 20.25C7.125 20.5484 7.00647 20.8345 6.7955 21.0455C6.58452 21.2565 6.29837 21.375 6 21.375H3.75C3.45163 21.375 3.16548 21.2565 2.9545 21.0455C2.74353 20.8345 2.625 20.5484 2.625 20.25V3.75C2.625 3.45163 2.74353 3.16548 2.9545 2.9545C3.16548 2.74353 3.45163 2.625 3.75 2.625H6C6.29837 2.625 6.58452 2.74353 6.7955 2.9545C7.00647 3.16548 7.125 3.45163 7.125 3.75C7.125 4.04837 7.00647 4.33452 6.7955 4.5455C6.58452 4.75647 6.29837 4.875 6 4.875H4.875V19.125H6C6.29837 19.125 6.58452 19.2435 6.7955 19.4545C7.00647 19.6655 7.125 19.9516 7.125 20.25ZM20.25 2.625H18C17.7016 2.625 17.4155 2.74353 17.2045 2.9545C16.9935 3.16548 16.875 3.45163 16.875 3.75C16.875 4.04837 16.9935 4.33452 17.2045 4.5455C17.4155 4.75647 17.7016 4.875 18 4.875H19.125V19.125H18C17.7016 19.125 17.4155 19.2435 17.2045 19.4545C16.9935 19.6655 16.875 19.9516 16.875 20.25C16.875 20.5484 16.9935 20.8345 17.2045 21.0455C17.4155 21.2565 17.7016 21.375 18 21.375H20.25C20.5484 21.375 20.8345 21.2565 21.0455 21.0455C21.2565 20.8345 21.375 20.5484 21.375 20.25V3.75C21.375 3.45163 21.2565 3.16548 21.0455 2.9545C20.8345 2.74353 20.5484 2.625 20.25 2.625ZM17.625 15V11.25C17.6244 10.5987 17.4354 9.96157 17.0808 9.41533C16.7262 8.86909 16.2211 8.43711 15.6264 8.17151C15.0318 7.9059 14.373 7.81802 13.7296 7.91845C13.0861 8.01887 12.4854 8.30333 12 8.7375C11.5045 8.29224 10.8881 8.00398 10.2288 7.90919C9.56942 7.8144 8.89676 7.91734 8.29594 8.205C8.13866 8.04754 7.93821 7.94027 7.71995 7.89676C7.50169 7.85325 7.27543 7.87545 7.06979 7.96056C6.86416 8.04566 6.68838 8.18985 6.56471 8.37487C6.44103 8.5599 6.37501 8.77745 6.375 9V15C6.375 15.2984 6.49353 15.5845 6.7045 15.7955C6.91548 16.0065 7.20163 16.125 7.5 16.125C7.79837 16.125 8.08452 16.0065 8.2955 15.7955C8.50647 15.5845 8.625 15.2984 8.625 15V11.25C8.625 10.9516 8.74353 10.6655 8.9545 10.4545C9.16548 10.2435 9.45163 10.125 9.75 10.125C10.0484 10.125 10.3345 10.2435 10.5455 10.4545C10.7565 10.6655 10.875 10.9516 10.875 11.25V15C10.875 15.2984 10.9935 15.5845 11.2045 15.7955C11.4155 16.0065 11.7016 16.125 12 16.125C12.2984 16.125 12.5845 16.0065 12.7955 15.7955C13.0065 15.5845 13.125 15.2984 13.125 15V11.25C13.125 10.9516 13.2435 10.6655 13.4545 10.4545C13.6655 10.2435 13.9516 10.125 14.25 10.125C14.5484 10.125 14.8345 10.2435 15.0455 10.4545C15.2565 10.6655 15.375 10.9516 15.375 11.25V15C15.375 15.2984 15.4935 15.5845 15.7045 15.7955C15.9155 16.0065 16.2016 16.125 16.5 16.125C16.7984 16.125 17.0845 16.0065 17.2955 15.7955C17.5065 15.5845 17.625 15.2984 17.625 15Z" fill="#130032"/>
</svg>
