<svg width="24" height="24" viewBox="0 0 24 24" fill="none" xmlns="http://www.w3.org/2000/svg">
<path d="M20.625 9.00101C20.6258 7.55506 20.2631 6.1321 19.5702 4.86298C18.8773 3.59387 17.8765 2.51932 16.6597 1.73814C15.4429 0.956958 14.0493 0.494221 12.6069 0.392475C11.1645 0.290729 9.71975 0.553239 8.40536 1.15587C7.09097 1.7585 5.94919 2.6819 5.08498 3.84118C4.22078 5.00046 3.6619 6.3584 3.45973 7.79015C3.25755 9.22189 3.41858 10.6815 3.92799 12.0347C4.43741 13.388 5.27887 14.5914 6.375 15.5344V22.501C6.37502 22.6928 6.42407 22.8814 6.51749 23.0489C6.61091 23.2164 6.7456 23.3572 6.90876 23.458C7.07192 23.5588 7.25815 23.6162 7.44974 23.6248C7.64133 23.6333 7.83193 23.5928 8.00344 23.5069L12 21.5091L15.9975 23.5069C16.169 23.5925 16.3595 23.6329 16.5509 23.6243C16.7424 23.6156 16.9285 23.5581 17.0915 23.4574C17.2545 23.3566 17.3891 23.2159 17.4825 23.0485C17.5758 22.8811 17.6249 22.6927 17.625 22.501V15.5344C18.5662 14.7258 19.3216 13.7234 19.8394 12.5957C20.3572 11.4681 20.6252 10.2419 20.625 9.00101ZM5.625 9.00101C5.625 7.74015 5.99889 6.50761 6.69938 5.45925C7.39988 4.41088 8.39551 3.59378 9.56039 3.11127C10.7253 2.62876 12.0071 2.50252 13.2437 2.7485C14.4803 2.99448 15.6162 3.60164 16.5078 4.4932C17.3994 5.38476 18.0065 6.52068 18.2525 7.7573C18.4985 8.99393 18.3722 10.2757 17.8897 11.4406C17.4072 12.6055 16.5901 13.6011 15.5418 14.3016C14.4934 15.0021 13.2609 15.376 12 15.376C10.3098 15.3743 8.68928 14.7021 7.49411 13.5069C6.29895 12.3117 5.62674 10.6912 5.625 9.00101ZM15.375 20.6813L12.5025 19.2451C12.3462 19.1669 12.1738 19.1261 11.9991 19.1261C11.8243 19.1261 11.6519 19.1669 11.4956 19.2451L8.625 20.6804V16.9379C9.69232 17.3917 10.8402 17.6256 12 17.6256C13.1598 17.6256 14.3077 17.3917 15.375 16.9379V20.6813ZM12 13.876C12.9642 13.876 13.9067 13.5901 14.7084 13.0544C15.5101 12.5187 16.1349 11.7574 16.5039 10.8666C16.8729 9.9758 16.9694 8.9956 16.7813 8.04994C16.5932 7.10428 16.1289 6.23564 15.4471 5.55386C14.7654 4.87208 13.8967 4.40778 12.9511 4.21968C12.0054 4.03157 11.0252 4.12812 10.1344 4.49709C9.24363 4.86607 8.48226 5.49091 7.94659 6.2926C7.41091 7.09429 7.125 8.03682 7.125 9.00101C7.12649 10.2935 7.64058 11.5326 8.5545 12.4465C9.46842 13.3604 10.7075 13.8745 12 13.876ZM12 6.37601C12.5192 6.37601 13.0267 6.52996 13.4584 6.8184C13.8901 7.10684 14.2265 7.51681 14.4252 7.99646C14.6239 8.47612 14.6758 9.00392 14.5746 9.51312C14.4733 10.0223 14.2233 10.49 13.8562 10.8572C13.489 11.2243 13.0213 11.4743 12.5121 11.5756C12.0029 11.6769 11.4751 11.6249 10.9955 11.4262C10.5158 11.2275 10.1058 10.8911 9.81739 10.4594C9.52895 10.0277 9.375 9.52018 9.375 9.00101C9.375 8.30481 9.65156 7.63713 10.1438 7.14485C10.6361 6.65257 11.3038 6.37601 12 6.37601Z" fill="#130032"/>
</svg>
