<svg width="24" height="24" viewBox="0 0 24 24" fill="none" xmlns="http://www.w3.org/2000/svg">
<g clip-path="url(#clip0_7_18335)">
<path d="M6.375 5.625C5.11415 5.625 3.88161 5.99889 2.83324 6.69938C1.78488 7.39988 0.96778 8.39551 0.485271 9.56039C0.00276218 10.7253 -0.123484 12.0071 0.122497 13.2437C0.368477 14.4803 0.975637 15.6162 1.8672 16.5078C2.75876 17.3994 3.89467 18.0065 5.1313 18.2525C6.36793 18.4985 7.64973 18.3722 8.81461 17.8897C9.97949 17.4072 10.9751 16.5901 11.6756 15.5418C12.3761 14.4934 12.75 13.2609 12.75 12C12.7483 10.3098 12.0761 8.68928 10.8809 7.49411C9.68572 6.29894 8.06522 5.62674 6.375 5.625ZM6.375 16.125C5.55915 16.125 4.76163 15.8831 4.08328 15.4298C3.40492 14.9766 2.87621 14.3323 2.564 13.5786C2.25179 12.8248 2.1701 11.9954 2.32926 11.1953C2.48843 10.3951 2.8813 9.66008 3.45819 9.08318C4.03508 8.50629 4.77008 8.11343 5.57026 7.95426C6.37043 7.7951 7.19983 7.87679 7.95357 8.189C8.70732 8.50121 9.35155 9.02992 9.80482 9.70827C10.2581 10.3866 10.5 11.1842 10.5 12C10.4988 13.0936 10.0638 14.1421 9.29045 14.9154C8.51713 15.6888 7.46864 16.1238 6.375 16.125ZM17.25 5.625C15.0347 5.625 13.875 8.83219 13.875 12C13.875 15.1678 15.0347 18.375 17.25 18.375C19.4653 18.375 20.625 15.1678 20.625 12C20.625 8.83219 19.4653 5.625 17.25 5.625ZM17.25 16.1128C16.8994 15.9103 16.125 14.5106 16.125 12C16.125 9.48937 16.8994 8.08969 17.25 7.88719C17.6006 8.08969 18.375 9.48937 18.375 12C18.375 14.5106 17.6006 15.9103 17.25 16.1128ZM24 6.75V17.25C24 17.5484 23.8815 17.8345 23.6705 18.0455C23.4595 18.2565 23.1734 18.375 22.875 18.375C22.5766 18.375 22.2905 18.2565 22.0795 18.0455C21.8685 17.8345 21.75 17.5484 21.75 17.25V6.75C21.75 6.45163 21.8685 6.16548 22.0795 5.9545C22.2905 5.74353 22.5766 5.625 22.875 5.625C23.1734 5.625 23.4595 5.74353 23.6705 5.9545C23.8815 6.16548 24 6.45163 24 6.75Z" fill="#130032"/>
</g>
<defs>
<clipPath id="clip0_7_18335">
<rect width="24" height="24" fill="white"/>
</clipPath>
</defs>
</svg>
