<svg width="24" height="24" viewBox="0 0 24 24" fill="none" xmlns="http://www.w3.org/2000/svg">
<path d="M21.5344 7.76719L5.04 2.70469L5.025 2.7C4.74548 2.61847 4.45082 2.60317 4.16436 2.65529C3.8779 2.70741 3.60751 2.82552 3.37463 3.00028C3.14174 3.17504 2.95275 3.40163 2.82263 3.6621C2.69252 3.92258 2.62485 4.20977 2.625 4.50094V18.0009C2.625 18.4972 2.82177 18.9733 3.17218 19.3248C3.5226 19.6762 3.99807 19.8744 4.49437 19.8759C4.67394 19.8757 4.85257 19.8501 5.025 19.8H5.04L12.375 17.55V18.3759C12.375 18.8732 12.5725 19.3501 12.9242 19.7018C13.2758 20.0534 13.7527 20.2509 14.25 20.2509H17.25C17.7473 20.2509 18.2242 20.0534 18.5758 19.7018C18.9275 19.3501 19.125 18.8732 19.125 18.3759V15.4753L21.5344 14.7356C21.9209 14.6192 22.2597 14.3817 22.5011 14.0581C22.7424 13.7346 22.8735 13.3421 22.875 12.9384V9.56344C22.8733 9.15996 22.7421 8.76768 22.5008 8.44432C22.2595 8.12097 21.9207 7.88361 21.5344 7.76719ZM4.875 17.4928V5.01L12.375 7.31344V15.1884L4.875 17.4928ZM16.875 18.0009H14.625V16.8553L16.875 16.1653V18.0009ZM20.625 12.6619L14.625 14.5022V8.00063L20.625 9.84469V12.6619Z" fill="#130032"/>
</svg>
