<svg width="24" height="24" viewBox="0 0 24 24" fill="none" xmlns="http://www.w3.org/2000/svg">
<path d="M23.625 11.2484C23.6236 9.9559 23.1095 8.71679 22.1955 7.80288C21.2816 6.88896 20.0425 6.37487 18.75 6.37338H15.03C14.7075 6.35369 10.0988 5.99838 5.70566 2.314C5.43238 2.08457 5.09931 1.93787 4.74556 1.89115C4.39181 1.84442 4.03208 1.89961 3.7086 2.05022C3.38512 2.20084 3.11134 2.44063 2.9194 2.74143C2.72747 3.04223 2.62535 3.39156 2.62504 3.74838V18.7484C2.62278 19.1056 2.72366 19.4559 2.91556 19.7572C3.10746 20.0586 3.38224 20.2981 3.70691 20.4471C4.0302 20.5997 4.39059 20.6561 4.74503 20.6093C5.09946 20.5626 5.43296 20.4149 5.70566 20.1837C7.9543 18.2934 10.6295 16.9793 13.5 16.3549V18.8112C13.5 19.1198 13.5761 19.4237 13.7217 19.6958C13.8672 19.9679 14.0777 20.1999 14.3344 20.3712C14.376 20.3992 14.4196 20.4243 14.4647 20.4462L15.8185 21.1081C16.0687 21.2579 16.3504 21.3472 16.6412 21.369C16.932 21.3909 17.2239 21.3445 17.4937 21.2338C17.7635 21.123 18.0037 20.9508 18.1953 20.731C18.3868 20.5111 18.5245 20.2495 18.5972 19.9671L19.6369 16.0465C20.7572 15.8379 21.7692 15.2441 22.4976 14.3677C23.2259 13.4914 23.6248 12.3879 23.625 11.2484ZM4.87504 17.9637V4.53588C8.26597 7.16744 11.641 8.10775 13.5 8.4415V14.0609C11.641 14.3909 8.26597 15.3312 4.87504 17.9637ZM16.5366 18.9546L15.75 18.5703V16.1234H17.2875L16.5366 18.9546ZM18.75 13.8734H15.75V8.62338H18.75C19.4462 8.62338 20.1139 8.89994 20.6062 9.39222C21.0985 9.88451 21.375 10.5522 21.375 11.2484C21.375 11.9446 21.0985 12.6123 20.6062 13.1045C20.1139 13.5968 19.4462 13.8734 18.75 13.8734Z" fill="#130032"/>
</svg>
