<svg width="24" height="24" viewBox="0 0 24 24" fill="none" xmlns="http://www.w3.org/2000/svg">
<path d="M21.75 4.875H2.25C2.00377 4.875 1.75995 4.9235 1.53247 5.01773C1.30498 5.11195 1.09828 5.25006 0.924175 5.42417C0.572544 5.77581 0.375 6.25272 0.375 6.75V18.75C0.375 19.0484 0.493526 19.3345 0.704505 19.5455C0.915483 19.7565 1.20163 19.875 1.5 19.875C1.79837 19.875 2.08452 19.7565 2.2955 19.5455C2.50647 19.3345 2.625 19.0484 2.625 18.75V17.625H4.5V18.75C4.5 19.0484 4.61853 19.3345 4.8295 19.5455C5.04048 19.7565 5.32663 19.875 5.625 19.875C5.92337 19.875 6.20952 19.7565 6.4205 19.5455C6.63147 19.3345 6.75 19.0484 6.75 18.75V17.625H8.625V18.75C8.625 19.0484 8.74353 19.3345 8.9545 19.5455C9.16548 19.7565 9.45163 19.875 9.75 19.875C10.0484 19.875 10.3345 19.7565 10.5455 19.5455C10.7565 19.3345 10.875 19.0484 10.875 18.75V17.625H13.125V18.75C13.125 19.0484 13.2435 19.3345 13.4545 19.5455C13.6655 19.7565 13.9516 19.875 14.25 19.875C14.5484 19.875 14.8345 19.7565 15.0455 19.5455C15.2565 19.3345 15.375 19.0484 15.375 18.75V17.625H17.25V18.75C17.25 19.0484 17.3685 19.3345 17.5795 19.5455C17.7905 19.7565 18.0766 19.875 18.375 19.875C18.6734 19.875 18.9595 19.7565 19.1705 19.5455C19.3815 19.3345 19.5 19.0484 19.5 18.75V17.625H21.375V18.75C21.375 19.0484 21.4935 19.3345 21.7045 19.5455C21.9155 19.7565 22.2016 19.875 22.5 19.875C22.7984 19.875 23.0845 19.7565 23.2955 19.5455C23.5065 19.3345 23.625 19.0484 23.625 18.75V6.75C23.625 6.25272 23.4275 5.77581 23.0758 5.42417C22.7242 5.07254 22.2473 4.875 21.75 4.875ZM2.625 7.125H21.375V15.375H2.625V7.125ZM11.25 13.125V9.375C11.25 9.07663 11.1315 8.79048 10.9205 8.5795C10.7095 8.36853 10.4234 8.25 10.125 8.25H5.25C4.95163 8.25 4.66548 8.36853 4.4545 8.5795C4.24353 8.79048 4.125 9.07663 4.125 9.375V13.125C4.125 13.4234 4.24353 13.7095 4.4545 13.9205C4.66548 14.1315 4.95163 14.25 5.25 14.25H10.125C10.4234 14.25 10.7095 14.1315 10.9205 13.9205C11.1315 13.7095 11.25 13.4234 11.25 13.125ZM9 12H6.375V10.5H9V12ZM13.875 14.25H18.75C19.0484 14.25 19.3345 14.1315 19.5455 13.9205C19.7565 13.7095 19.875 13.4234 19.875 13.125V9.375C19.875 9.07663 19.7565 8.79048 19.5455 8.5795C19.3345 8.36853 19.0484 8.25 18.75 8.25H13.875C13.5766 8.25 13.2905 8.36853 13.0795 8.5795C12.8685 8.79048 12.75 9.07663 12.75 9.375V13.125C12.75 13.4234 12.8685 13.7095 13.0795 13.9205C13.2905 14.1315 13.5766 14.25 13.875 14.25ZM15 10.5H17.625V12H15V10.5Z" fill="#130032"/>
</svg>
