<svg width="24" height="24" viewBox="0 0 24 24" fill="none" xmlns="http://www.w3.org/2000/svg">
<path d="M17.296 11.2961L14.296 14.2961C14.1915 14.401 14.0673 14.4842 13.9305 14.541C13.7938 14.5978 13.6472 14.627 13.4991 14.627C13.351 14.627 13.2044 14.5978 13.0677 14.541C12.9309 14.4842 12.8068 14.401 12.7022 14.2961L10.5 12.0939L8.29599 14.2961C8.08464 14.5074 7.798 14.6262 7.49911 14.6262C7.20023 14.6262 6.91358 14.5074 6.70224 14.2961C6.49089 14.0848 6.37216 13.7981 6.37216 13.4992C6.37216 13.2003 6.49089 12.9137 6.70224 12.7023L9.70224 9.70235C9.80675 9.59747 9.93095 9.51425 10.0677 9.45747C10.2044 9.40069 10.351 9.37146 10.4991 9.37146C10.6472 9.37146 10.7938 9.40069 10.9305 9.45747C11.0673 9.51425 11.1915 9.59747 11.296 9.70235L13.5 11.9064L15.7041 9.70141C15.9155 9.49007 16.2021 9.37134 16.501 9.37134C16.7999 9.37134 17.0865 9.49007 17.2979 9.70141C17.5092 9.91276 17.6279 10.1994 17.6279 10.4983C17.6279 10.7972 17.5092 11.0838 17.2979 11.2952L17.296 11.2961ZM22.125 12.0002C22.1254 13.7345 21.6803 15.4399 20.8323 16.9528C19.9843 18.4657 18.7619 19.7354 17.2823 20.6402C15.8027 21.545 14.1155 22.0546 12.3824 22.1201C10.6493 22.1856 8.92841 21.8048 7.38474 21.0142L4.34442 22.0314C4.01345 22.143 3.6579 22.1598 3.31784 22.0802C2.97779 22.0005 2.66675 21.8274 2.41978 21.5804C2.17281 21.3335 1.99973 21.0224 1.92005 20.6824C1.84037 20.3423 1.85725 19.9868 1.9688 19.6558L2.98224 16.6155C2.28632 15.2523 1.9085 13.7491 1.87718 12.2189C1.84585 10.6887 2.16185 9.17134 2.8014 7.78084C3.44095 6.39035 4.38741 5.16294 5.56962 4.1909C6.75184 3.21886 8.13904 2.52749 9.62693 2.16876C11.1148 1.81003 12.6647 1.79328 14.16 2.11978C15.6553 2.44628 17.0571 3.10752 18.26 4.05379C19.4629 5.00006 20.4357 6.20673 21.1052 7.58308C21.7746 8.95943 22.1233 10.4696 22.125 12.0002ZM19.875 12.0002C19.8747 10.7922 19.5965 9.60049 19.062 8.51724C18.5274 7.434 17.7508 6.48825 16.7922 5.75317C15.8337 5.01809 14.7188 4.51337 13.534 4.27807C12.3492 4.04278 11.1261 4.0832 9.95939 4.39622C8.79268 4.70925 7.71363 5.28647 6.8057 6.08325C5.89777 6.88003 5.18531 7.87499 4.72343 8.99117C4.26156 10.1074 4.06265 11.3148 4.1421 12.5202C4.22155 13.7255 4.57723 14.8965 5.18161 15.9423C5.26163 16.0804 5.31136 16.2339 5.32753 16.3926C5.34369 16.5513 5.32591 16.7116 5.27536 16.863L4.34442 19.6558L7.13724 18.7248C7.25212 18.6866 7.3724 18.667 7.49349 18.6667C7.69107 18.6671 7.88508 18.7195 8.05599 18.8186C9.2532 19.5113 10.6117 19.8765 11.9949 19.8774C13.3781 19.8783 14.7371 19.5149 15.9353 18.8237C17.1334 18.1325 18.1283 17.138 18.8199 15.9401C19.5115 14.7422 19.8755 13.3833 19.875 12.0002Z" fill="#130032"/>
</svg>
