<svg width="24" height="24" viewBox="0 0 24 24" fill="none" xmlns="http://www.w3.org/2000/svg">
<path d="M22.875 13.9978C22.875 15.5766 22.5591 16.935 21.9609 17.9269C21.1931 19.2009 19.9997 19.875 18.51 19.875C15.6666 19.875 13.755 16.3078 11.7319 12.5316C10.2619 9.78844 8.4375 6.375 6.9375 6.375C6.21469 6.375 5.32875 7.25344 4.62563 8.66719C3.82136 10.3303 3.39431 12.1505 3.375 13.9978C3.375 15.1509 3.585 16.1334 3.96562 16.7653C4.31906 17.3522 4.80375 17.625 5.49 17.625C6.77906 17.625 8.36156 14.9062 8.88188 14.0166C9.03218 13.7587 9.27875 13.5712 9.56735 13.4951C9.85595 13.4191 10.1629 13.4608 10.4208 13.6111C10.6786 13.7614 10.8662 14.008 10.9422 14.2966C11.0183 14.5852 10.9766 14.8922 10.8263 15.15C9.99094 16.5825 9.27656 17.5875 8.57625 18.3169C7.57031 19.365 6.5625 19.875 5.49 19.875C4.00031 19.875 2.80687 19.2009 2.03906 17.9269C1.44094 16.935 1.125 15.5766 1.125 13.9978C1.125 9.87562 3.33563 4.125 6.9375 4.125C9.78094 4.125 11.6925 7.69219 13.7156 11.4684C15.1875 14.2116 17.0128 17.625 18.51 17.625C19.1963 17.625 19.6809 17.3522 20.0344 16.7653C20.415 16.1334 20.625 15.1509 20.625 13.9978C20.606 12.1506 20.1793 10.3304 19.3753 8.66719C18.6722 7.25344 17.7862 6.375 17.0625 6.375C16.5262 6.375 15.8803 6.84375 15.1416 7.76531C14.9551 7.99829 14.6837 8.14764 14.3871 8.18052C14.0905 8.2134 13.793 8.12711 13.56 7.94062C13.327 7.75414 13.1777 7.48275 13.1448 7.18615C13.1119 6.88955 13.1982 6.59204 13.3847 6.35906C14.5894 4.85625 15.7922 4.125 17.0625 4.125C18.7172 4.125 20.25 5.38219 21.3891 7.665C22.3445 9.64081 22.8519 11.8032 22.875 13.9978Z" fill="#130032"/>
</svg>
