<svg width="24" height="24" viewBox="0 0 24 24" fill="none" xmlns="http://www.w3.org/2000/svg">
<path d="M8.99979 11.626C8.33228 11.626 7.67976 11.824 7.12474 12.1948C6.56972 12.5657 6.13714 13.0928 5.8817 13.7095C5.62625 14.3262 5.55941 15.0048 5.68964 15.6594C5.81986 16.3141 6.1413 16.9155 6.6133 17.3875C7.08531 17.8595 7.68667 18.1809 8.34136 18.3112C8.99605 18.4414 9.67465 18.3746 10.2913 18.1191C10.908 17.8637 11.4352 17.4311 11.806 16.8761C12.1768 16.321 12.3748 15.6685 12.3748 15.001C12.3748 14.1059 12.0192 13.2475 11.3863 12.6145C10.7533 11.9816 9.8949 11.626 8.99979 11.626ZM8.99979 16.126C8.77729 16.126 8.55978 16.06 8.37477 15.9364C8.18977 15.8128 8.04557 15.6371 7.96042 15.4315C7.87528 15.226 7.853 14.9998 7.89641 14.7815C7.93981 14.5633 8.04696 14.3629 8.20429 14.2055C8.36163 14.0482 8.56208 13.941 8.78031 13.8976C8.99854 13.8542 9.22474 13.8765 9.43031 13.9617C9.63588 14.0468 9.81158 14.191 9.93519 14.376C10.0588 14.561 10.1248 14.7785 10.1248 15.001C10.1248 15.2994 10.0063 15.5855 9.79528 15.7965C9.58431 16.0075 9.29816 16.126 8.99979 16.126ZM21.0457 11.2051C21.1506 11.3096 21.2338 11.4338 21.2906 11.5705C21.3474 11.7073 21.3766 11.8539 21.3766 12.002C21.3766 12.15 21.3474 12.2966 21.2906 12.4334C21.2338 12.5701 21.1506 12.6943 21.0457 12.7988L16.5457 17.2988C16.3344 17.5102 16.0477 17.6289 15.7489 17.6289C15.45 17.6289 15.1633 17.5102 14.952 17.2988C14.7406 17.0875 14.6219 16.8008 14.6219 16.502C14.6219 16.2031 14.7406 15.9164 14.952 15.7051L19.452 11.2051C19.5565 11.1002 19.6807 11.017 19.8174 10.9602C19.9542 10.9034 20.1008 10.8742 20.2489 10.8742C20.3969 10.8742 20.5435 10.9034 20.6803 10.9602C20.817 11.017 20.9412 11.1002 21.0457 11.2051ZM17.6707 9.33008C17.7756 9.43459 17.8588 9.55878 17.9156 9.69553C17.9724 9.83228 18.0016 9.97889 18.0016 10.127C18.0016 10.275 17.9724 10.4216 17.9156 10.5584C17.8588 10.6951 17.7756 10.8193 17.6707 10.9238L15.7957 12.7988C15.5844 13.0102 15.2977 13.1289 14.9989 13.1289C14.7 13.1289 14.4133 13.0102 14.202 12.7988C13.9906 12.5875 13.8719 12.3008 13.8719 12.002C13.8719 11.7031 13.9906 11.4164 14.202 11.2051L16.077 9.33008C16.1815 9.2252 16.3057 9.14198 16.4424 9.0852C16.5792 9.02842 16.7258 8.99919 16.8739 8.99919C17.0219 8.99919 17.1685 9.02842 17.3053 9.0852C17.442 9.14198 17.5662 9.2252 17.6707 9.33008ZM21.7957 6.79883L20.2957 8.29883C20.0844 8.51017 19.7977 8.6289 19.4989 8.6289C19.2 8.6289 18.9133 8.51017 18.702 8.29883C18.4906 8.08748 18.3719 7.80084 18.3719 7.50195C18.3719 7.20306 18.4906 6.91642 18.702 6.70508L20.202 5.20508C20.4133 4.99373 20.7 4.875 20.9989 4.875C21.2977 4.875 21.5844 4.99373 21.7957 5.20508C22.0071 5.41642 22.1258 5.70307 22.1258 6.00195C22.1258 6.30084 22.0071 6.58748 21.7957 6.79883ZM11.202 8.20508L17.952 1.45508C18.1633 1.24373 18.45 1.125 18.7489 1.125C19.0477 1.125 19.3344 1.24373 19.5457 1.45508C19.7571 1.66642 19.8758 1.95307 19.8758 2.25195C19.8758 2.55084 19.7571 2.83748 19.5457 3.04883L12.7957 9.79883C12.6911 9.90347 12.5668 9.98648 12.4301 10.0431C12.2934 10.0998 12.1468 10.1289 11.9989 10.1289C11.8509 10.1289 11.7043 10.0998 11.5676 10.0431C11.4309 9.98648 11.3066 9.90347 11.202 9.79883C11.0973 9.69418 11.0143 9.56995 10.9577 9.43322C10.9011 9.29649 10.8719 9.14994 10.8719 9.00195C10.8719 8.85396 10.9011 8.70741 10.9577 8.57069C11.0143 8.43396 11.0973 8.30972 11.202 8.20508ZM14.036 18.4482C14.1409 18.5527 14.2241 18.6769 14.2809 18.8137C14.3377 18.9504 14.3669 19.097 14.3669 19.2451C14.3669 19.3931 14.3377 19.5398 14.2809 19.6765C14.2241 19.8132 14.1409 19.9374 14.036 20.042C13.3742 20.7034 12.5886 21.2281 11.7241 21.586C10.8595 21.9439 9.9329 22.128 8.99719 22.1277C8.06148 22.1275 7.13498 21.943 6.27058 21.5847C5.40618 21.2264 4.62081 20.7014 3.95932 20.0396C3.29783 19.3778 2.77316 18.5922 2.41528 17.7276C2.0574 16.8631 1.87332 15.9365 1.87354 15.0008C1.87375 14.0651 2.05827 13.1385 2.41655 12.2741C2.77483 11.4097 3.29986 10.6244 3.96166 9.96289L11.7185 2.20508C11.9299 1.99373 12.2165 1.875 12.5154 1.875C12.8143 1.875 13.1009 1.99373 13.3123 2.20508C13.5236 2.41642 13.6424 2.70307 13.6424 3.00195C13.6424 3.30084 13.5236 3.58748 13.3123 3.79883L5.5526 11.5538C4.63835 12.4681 4.12473 13.7081 4.12473 15.001C4.12473 16.294 4.63835 17.534 5.5526 18.4482C6.46685 19.3625 7.70684 19.8761 8.99979 19.8761C10.2927 19.8761 11.5327 19.3625 12.447 18.4482C12.658 18.2372 12.9441 18.1187 13.2424 18.1187C13.5408 18.1187 13.8269 18.2372 14.0379 18.4482H14.036Z" fill="#130032"/>
</svg>
