<svg width="24" height="24" viewBox="0 0 24 24" fill="none" xmlns="http://www.w3.org/2000/svg">
<path d="M20.536 18.9319L17.9672 10.8581L20.3325 8.25657C20.529 8.03512 20.6302 7.74516 20.6143 7.44955C20.5984 7.15395 20.4666 6.87652 20.2476 6.67743C20.0285 6.47833 19.7398 6.37361 19.444 6.38597C19.1482 6.39833 18.8692 6.52677 18.6675 6.74344L17.1788 8.38032L15.7631 3.93188C15.6435 3.55205 15.4055 3.22041 15.0841 2.98531C14.7627 2.75022 14.3745 2.62398 13.9763 2.62501H10.0228C9.62459 2.62398 9.23645 2.75022 8.915 2.98531C8.59356 3.22041 8.35565 3.55205 8.23596 3.93188L3.46314 18.9319C3.37379 19.2129 3.35198 19.5111 3.3995 19.8021C3.44701 20.0931 3.5625 20.3689 3.73659 20.6069C3.91068 20.8449 4.13846 21.0385 4.40142 21.172C4.66439 21.3055 4.95512 21.375 5.25002 21.375H18.75C19.0449 21.375 19.3357 21.3055 19.5986 21.172C19.8616 21.0385 20.0894 20.8449 20.2634 20.6069C20.4375 20.3689 20.553 20.0931 20.6005 19.8021C20.6481 19.5111 20.6262 19.2129 20.5369 18.9319H20.536ZM16.8047 14.625H14.5425L16.2188 12.7819L16.8047 14.625ZM10.2966 4.87501H13.7025L15.4294 10.3041L11.5022 14.625H7.19439L10.2966 4.87501ZM5.76283 19.125L6.47814 16.875H17.521L18.2363 19.125H5.76283Z" fill="#130032"/>
</svg>
