<svg width="24" height="24" viewBox="0 0 24 24" fill="none" xmlns="http://www.w3.org/2000/svg">
<path d="M5.33229 3.74398C5.2335 3.63262 5.11358 3.54197 4.97949 3.47729C4.84541 3.41261 4.69982 3.37519 4.55116 3.36719C4.4025 3.35919 4.25373 3.38078 4.11348 3.4307C3.97323 3.48062 3.84428 3.55788 3.73411 3.658C3.62393 3.75813 3.53473 3.87912 3.47166 4.01398C3.40859 4.14883 3.37292 4.29486 3.3667 4.4436C3.36049 4.59234 3.38386 4.74084 3.43546 4.88049C3.48706 5.02013 3.56586 5.14814 3.66729 5.25711L7.12479 9.06055V12.0005C7.12408 12.8044 7.32217 13.596 7.70142 14.3048C8.08067 15.0136 8.62931 15.6176 9.29849 16.063C9.96766 16.5084 10.7366 16.7815 11.5368 16.8578C12.3371 16.9342 13.1438 16.8114 13.8851 16.5005L14.9407 17.6621C14.0328 18.1348 13.0234 18.3797 11.9998 18.3755C10.3096 18.3738 8.68907 17.7016 7.49391 16.5064C6.29874 15.3113 5.62653 13.6908 5.62479 12.0005C5.62479 11.7022 5.50627 11.416 5.29529 11.2051C5.08431 10.9941 4.79816 10.8755 4.49979 10.8755C4.20143 10.8755 3.91528 10.9941 3.7043 11.2051C3.49332 11.416 3.37479 11.7022 3.37479 12.0005C3.37744 14.0925 4.13916 16.1124 5.5185 17.6852C6.89785 19.258 8.80108 20.2768 10.8748 20.5524V22.5005C10.8748 22.7989 10.9933 23.0851 11.2043 23.296C11.4153 23.507 11.7014 23.6255 11.9998 23.6255C12.2982 23.6255 12.5843 23.507 12.7953 23.296C13.0063 23.0851 13.1248 22.7989 13.1248 22.5005V20.5534C14.319 20.4008 15.467 19.9956 16.4923 19.3646L18.6673 21.7571C18.869 21.9738 19.148 22.1022 19.4438 22.1146C19.7395 22.1269 20.0283 22.0222 20.2473 21.8231C20.4664 21.624 20.5982 21.3466 20.6141 21.051C20.63 20.7554 20.5287 20.4654 20.3323 20.244L5.33229 3.74398ZM11.9998 14.6255C11.3036 14.6255 10.6359 14.349 10.1436 13.8567C9.65136 13.3644 9.37479 12.6967 9.37479 12.0005V11.5318L12.1779 14.6152C12.1189 14.6255 12.0598 14.6255 11.9998 14.6255ZM17.906 14.3987C18.2163 13.6373 18.3755 12.8228 18.3748 12.0005C18.3748 11.7022 18.4933 11.416 18.7043 11.2051C18.9153 10.9941 19.2014 10.8755 19.4998 10.8755C19.7982 10.8755 20.0843 10.9941 20.2953 11.2051C20.5063 11.416 20.6248 11.7022 20.6248 12.0005C20.6266 13.1129 20.412 14.2149 19.9929 15.2452C19.8736 15.5106 19.656 15.7194 19.386 15.8279C19.116 15.9363 18.8144 15.9358 18.5447 15.8266C18.275 15.7174 18.0581 15.508 17.9395 15.2422C17.8209 14.9765 17.81 14.6751 17.9089 14.4015L17.906 14.3987ZM8.03417 3.16461C8.63481 2.32454 9.48672 1.69691 10.4671 1.37222C11.4474 1.04753 12.5055 1.04255 13.4889 1.35799C14.4722 1.67344 15.33 2.29301 15.9385 3.12739C16.5471 3.96177 16.8749 4.96783 16.8748 6.00055V11.3012C16.8748 11.5995 16.7563 11.8857 16.5453 12.0967C16.3343 12.3076 16.0482 12.4262 15.7498 12.4262C15.4514 12.4262 15.1653 12.3076 14.9543 12.0967C14.7433 11.8857 14.6248 11.5995 14.6248 11.3012V6.00055C14.6251 5.44421 14.4485 4.90218 14.1208 4.45267C13.793 4.00316 13.3308 3.66942 12.801 3.4996C12.2713 3.32979 11.7012 3.33268 11.1732 3.50787C10.6452 3.68306 10.1864 4.02148 9.86323 4.4743C9.77705 4.59439 9.66806 4.69634 9.54248 4.77432C9.4169 4.85229 9.27719 4.90477 9.13133 4.92876C8.83675 4.97719 8.535 4.90663 8.29245 4.73258C8.0499 4.55853 7.88643 4.29526 7.83799 4.00068C7.78955 3.7061 7.86012 3.40435 8.03417 3.1618V3.16461Z" fill="#130032"/>
</svg>
