<svg width="24" height="24" viewBox="0 0 24 24" fill="none" xmlns="http://www.w3.org/2000/svg">
<path d="M21 19.125H19.875C20.7061 17.9071 21.2115 16.4966 21.343 15.028C21.4745 13.5593 21.2277 12.0815 20.6262 10.7353C20.0246 9.3891 19.0883 8.21938 17.9065 7.33762C16.7247 6.45585 15.3368 5.89143 13.875 5.69812V3C13.875 2.50272 13.6775 2.02581 13.3258 1.67417C12.9742 1.32254 12.4973 1.125 12 1.125H7.5C7.00272 1.125 6.52581 1.32254 6.17417 1.67417C5.82254 2.02581 5.625 2.50272 5.625 3V12C5.625 12.4973 5.82254 12.9742 6.17417 13.3258C6.52581 13.6775 7.00272 13.875 7.5 13.875H12C12.4973 13.875 12.9742 13.6775 13.3258 13.3258C13.6775 12.9742 13.875 12.4973 13.875 12V7.97625C15.3462 8.24187 16.6774 9.01532 17.6368 10.1618C18.5962 11.3083 19.1229 12.7551 19.125 14.25C19.1289 15.1793 18.9278 16.098 18.536 16.9407C18.1442 17.7833 17.5713 18.5291 16.8581 19.125H3C2.70163 19.125 2.41548 19.2435 2.2045 19.4545C1.99353 19.6655 1.875 19.9516 1.875 20.25C1.875 20.5484 1.99353 20.8345 2.2045 21.0455C2.41548 21.2565 2.70163 21.375 3 21.375H21C21.2984 21.375 21.5845 21.2565 21.7955 21.0455C22.0065 20.8345 22.125 20.5484 22.125 20.25C22.125 19.9516 22.0065 19.6655 21.7955 19.4545C21.5845 19.2435 21.2984 19.125 21 19.125ZM11.625 11.625H7.875V3.375H11.625V11.625ZM6.75 17.625C6.45163 17.625 6.16548 17.5065 5.9545 17.2955C5.74353 17.0845 5.625 16.7984 5.625 16.5C5.625 16.2016 5.74353 15.9155 5.9545 15.7045C6.16548 15.4935 6.45163 15.375 6.75 15.375H12.75C13.0484 15.375 13.3345 15.4935 13.5455 15.7045C13.7565 15.9155 13.875 16.2016 13.875 16.5C13.875 16.7984 13.7565 17.0845 13.5455 17.2955C13.3345 17.5065 13.0484 17.625 12.75 17.625H6.75Z" fill="#130032"/>
</svg>
