<svg width="24" height="24" viewBox="0 0 24 24" fill="none" xmlns="http://www.w3.org/2000/svg">
<path d="M10.875 9.75143C10.875 10.0498 10.7565 10.3359 10.5455 10.5469C10.3345 10.7579 10.0484 10.8764 9.75 10.8764H9.375V14.2514C9.375 14.5498 9.25647 14.8359 9.0455 15.0469C8.83452 15.2579 8.54837 15.3764 8.25 15.3764C7.95163 15.3764 7.66548 15.2579 7.4545 15.0469C7.24353 14.8359 7.125 14.5498 7.125 14.2514V10.8764H6.75C6.45163 10.8764 6.16548 10.7579 5.9545 10.5469C5.74353 10.3359 5.625 10.0498 5.625 9.75143C5.625 9.45306 5.74353 9.16691 5.9545 8.95593C6.16548 8.74495 6.45163 8.62643 6.75 8.62643H9.75C10.0484 8.62643 10.3345 8.74495 10.5455 8.95593C10.7565 9.16691 10.875 9.45306 10.875 9.75143ZM22.5 8.6958V14.2514C22.5011 15.3137 22.0923 16.3355 21.3588 17.1039C20.6254 17.8723 19.6237 18.3281 18.5625 18.3764C18.0725 19.4625 17.2878 20.3895 16.2977 21.0523C15.3075 21.715 14.1514 22.087 12.9605 22.1261C11.7697 22.1651 10.5917 21.8696 9.56024 21.2732C8.52878 20.6767 7.68514 19.8031 7.125 18.7514H3.375C2.87772 18.7514 2.40081 18.5539 2.04917 18.2023C1.69754 17.8506 1.5 17.3737 1.5 16.8764V7.12643C1.5 6.62915 1.69754 6.15223 2.04917 5.8006C2.40081 5.44897 2.87772 5.25143 3.375 5.25143H8.625C8.62553 4.36776 8.90982 3.50761 9.436 2.79768C9.96219 2.08774 10.7024 1.56554 11.5477 1.30799C12.3931 1.05044 13.2987 1.07116 14.1314 1.36708C14.964 1.663 15.6796 2.21849 16.1728 2.95174C16.7755 2.66419 17.4499 2.56187 18.1107 2.65773C18.7715 2.75359 19.389 3.04331 19.8852 3.49024C20.3813 3.93717 20.7336 4.52122 20.8977 5.16848C21.0618 5.81575 21.0302 6.49714 20.8069 7.12643H20.9306C21.3467 7.12692 21.7456 7.29243 22.0398 7.58663C22.334 7.88084 22.4995 8.27973 22.5 8.6958ZM16.875 5.16611C16.875 5.19424 16.875 5.22236 16.875 5.25143C16.8756 5.90291 16.7224 6.54534 16.4278 7.12643H17.625C17.8077 7.12701 17.9878 7.08308 18.1497 6.99843C18.3117 6.91379 18.4505 6.79098 18.5543 6.64062C18.6582 6.49027 18.7238 6.31689 18.7456 6.13548C18.7673 5.95407 18.7446 5.77008 18.6793 5.59943C18.614 5.42878 18.5081 5.2766 18.3708 5.15605C18.2335 5.0355 18.0689 4.9502 17.8913 4.90754C17.7136 4.86487 17.5282 4.86612 17.3512 4.91117C17.1741 4.95622 17.0107 5.04373 16.875 5.16611ZM10.875 5.25143H13.125C13.3881 5.25156 13.6482 5.30724 13.8882 5.41484C14.1283 5.52243 14.343 5.67952 14.5181 5.8758C14.5885 5.67513 14.6246 5.46407 14.625 5.25143C14.625 4.75415 14.4275 4.27723 14.0758 3.9256C13.7242 3.57397 13.2473 3.37643 12.75 3.37643C12.2527 3.37643 11.7758 3.57397 11.4242 3.9256C11.0725 4.27723 10.875 4.75415 10.875 5.25143ZM3.75 16.5014H12.75V7.50143H3.75V16.5014ZM16.875 15.7514V9.37643H15V16.8764C15 17.3737 14.8025 17.8506 14.4508 18.2023C14.0992 18.5539 13.6223 18.7514 13.125 18.7514H9.92438C10.5106 19.3026 11.2451 19.6703 12.0376 19.8092C12.8301 19.9482 13.6459 19.8523 14.3847 19.5335C15.1234 19.2146 15.7527 18.6867 16.1952 18.0147C16.6377 17.3427 16.874 16.556 16.875 15.7514ZM20.25 9.37643H19.125V15.7514C19.125 15.8255 19.125 15.8986 19.1194 15.9717C19.4551 15.8265 19.741 15.5863 19.9419 15.2806C20.1428 14.975 20.2499 14.6172 20.25 14.2514V9.37643Z" fill="#130032"/>
</svg>
