<svg width="24" height="24" viewBox="0 0 24 24" fill="none" xmlns="http://www.w3.org/2000/svg">
<path d="M15.7504 1.125C14.7486 1.12395 13.7579 1.33443 12.8431 1.74266C11.9283 2.1509 11.1101 2.74768 10.4418 3.49398C9.77358 4.24027 9.27045 5.11925 8.96534 6.07341C8.66024 7.02757 8.56004 8.03539 8.6713 9.03094L2.24193 17.7984C1.97439 18.1592 1.84605 18.6044 1.8805 19.0522C1.91494 19.5 2.10986 19.9203 2.42943 20.2359L3.76911 21.5756C4.08471 21.8952 4.50504 22.0901 4.95285 22.1246C5.40066 22.159 5.84586 22.0307 6.20661 21.7631L14.9741 15.3338C15.936 15.4377 16.909 15.3447 17.8338 15.0603C18.7585 14.7759 19.6157 14.3062 20.353 13.6798C21.0903 13.0533 21.6923 12.2833 22.1223 11.4166C22.5523 10.5499 22.8012 9.60472 22.854 8.63867C22.9068 7.67261 22.7623 6.70593 22.4292 5.79756C22.0962 4.88918 21.5817 4.05814 20.917 3.35511C20.2524 2.65207 19.4515 2.09177 18.5632 1.70836C17.6749 1.32495 16.7179 1.12646 15.7504 1.125ZM20.6254 8.25C20.6263 9.15327 20.3747 10.0388 19.8988 10.8066L13.1947 4.10157C13.9332 3.64698 14.7795 3.39759 15.6465 3.37911C16.5134 3.36063 17.3696 3.57373 18.1268 3.99643C18.8839 4.41914 19.5146 5.03615 19.9538 5.78384C20.393 6.53154 20.6248 7.38285 20.6254 8.25ZM5.13036 19.7541L4.2463 18.87L9.51411 11.6859C10.1661 12.8638 11.1365 13.8343 12.3144 14.4863L5.13036 19.7541ZM10.8754 8.25C10.8743 7.34671 11.1259 6.46114 11.6019 5.69344L18.306 12.3975C17.5676 12.852 16.7214 13.1014 15.8545 13.12C14.9876 13.1385 14.1315 12.9255 13.3744 12.5029C12.6173 12.0803 11.9866 11.4634 11.5473 10.7158C11.108 9.96827 10.8761 9.11707 10.8754 8.25Z" fill="#130032"/>
</svg>
