<svg width="24" height="24" viewBox="0 0 24 24" fill="none" xmlns="http://www.w3.org/2000/svg">
<path d="M11.625 12C11.625 11.3325 11.4271 10.68 11.0562 10.125C10.6854 9.56993 10.1583 9.13735 9.54156 8.88191C8.92486 8.62646 8.24626 8.55962 7.59157 8.68985C6.93688 8.82007 6.33552 9.14151 5.86351 9.61351C5.39151 10.0855 5.07007 10.6869 4.93985 11.3416C4.80962 11.9963 4.87646 12.6749 5.13191 13.2916C5.38735 13.9083 5.81993 14.4354 6.37495 14.8062C6.92997 15.1771 7.58249 15.375 8.25 15.375C9.14511 15.375 10.0035 15.0194 10.6365 14.3865C11.2694 13.7535 11.625 12.8951 11.625 12ZM7.125 12C7.125 11.7775 7.19098 11.56 7.3146 11.375C7.43821 11.19 7.61391 11.0458 7.81948 10.9606C8.02505 10.8755 8.25125 10.8532 8.46948 10.8966C8.68771 10.94 8.88816 11.0472 9.0455 11.2045C9.20283 11.3618 9.30998 11.5623 9.35338 11.7805C9.39679 11.9988 9.37451 12.225 9.28936 12.4305C9.20422 12.6361 9.06002 12.8118 8.87502 12.9354C8.69001 13.059 8.4725 13.125 8.25 13.125C7.95163 13.125 7.66548 13.0065 7.4545 12.7955C7.24353 12.5845 7.125 12.2984 7.125 12ZM21 9.375H19.875V3C19.875 2.70163 19.7565 2.41548 19.5455 2.2045C19.3345 1.99353 19.0484 1.875 18.75 1.875H9.75C9.45163 1.875 9.16548 1.99353 8.9545 2.2045C8.74353 2.41548 8.625 2.70163 8.625 3V5.25H3.375C2.87772 5.25 2.40081 5.44754 2.04917 5.79917C1.69754 6.15081 1.5 6.62772 1.5 7.125V16.875C1.5 17.3723 1.69754 17.8492 2.04917 18.2008C2.40081 18.5525 2.87772 18.75 3.375 18.75H6.375V20.25C6.375 20.7473 6.57254 21.2242 6.92417 21.5758C7.27581 21.9275 7.75272 22.125 8.25 22.125H20.25C20.7473 22.125 21.2242 21.9275 21.5758 21.5758C21.9275 21.2242 22.125 20.7473 22.125 20.25V10.5C22.125 10.2016 22.0065 9.91548 21.7955 9.7045C21.5845 9.49353 21.2984 9.375 21 9.375ZM16.0828 15.75L19.875 12.8006V18.6994L16.0828 15.75ZM10.875 4.125H17.625V11.7L15 13.7419V7.125C15 6.62772 14.8025 6.15081 14.4508 5.79917C14.0992 5.44754 13.6223 5.25 13.125 5.25H10.875V4.125ZM3.75 7.5H12.75V16.5H3.75V7.5ZM8.625 18.75H13.125C13.4882 18.7497 13.8435 18.644 14.1477 18.4456C14.452 18.2472 14.692 17.9647 14.8387 17.6325L17.7188 19.875H8.625V18.75Z" fill="#130032"/>
</svg>
