<svg width="24" height="24" viewBox="0 0 24 24" fill="none" xmlns="http://www.w3.org/2000/svg">
<path d="M19.5 3.375H4.5C3.80381 3.375 3.13613 3.65156 2.64384 4.14384C2.15156 4.63613 1.875 5.30381 1.875 6V16.5C1.875 17.1962 2.15156 17.8639 2.64384 18.3562C3.13613 18.8484 3.80381 19.125 4.5 19.125H19.5C19.8447 19.125 20.1861 19.0571 20.5045 18.9252C20.823 18.7933 21.1124 18.5999 21.3562 18.3562C21.5999 18.1124 21.7933 17.823 21.9252 17.5045C22.0571 17.1861 22.125 16.8447 22.125 16.5V6C22.125 5.65528 22.0571 5.31394 21.9252 4.99546C21.7933 4.67698 21.5999 4.3876 21.3562 4.14384C21.1124 3.90009 20.823 3.70673 20.5045 3.57482C20.1861 3.4429 19.8447 3.375 19.5 3.375ZM19.875 16.5C19.875 16.5995 19.8355 16.6948 19.7652 16.7652C19.6948 16.8355 19.5995 16.875 19.5 16.875H4.5C4.40054 16.875 4.30516 16.8355 4.23484 16.7652C4.16451 16.6948 4.125 16.5995 4.125 16.5V6C4.125 5.90054 4.16451 5.80516 4.23484 5.73484C4.30516 5.66451 4.40054 5.625 4.5 5.625H19.5C19.5995 5.625 19.6948 5.66451 19.7652 5.73484C19.8355 5.80516 19.875 5.90054 19.875 6V16.5ZM16.125 21.375C16.125 21.6734 16.0065 21.9595 15.7955 22.1705C15.5845 22.3815 15.2984 22.5 15 22.5H9C8.70163 22.5 8.41548 22.3815 8.2045 22.1705C7.99353 21.9595 7.875 21.6734 7.875 21.375C7.875 21.0766 7.99353 20.7905 8.2045 20.5795C8.41548 20.3685 8.70163 20.25 9 20.25H15C15.2984 20.25 15.5845 20.3685 15.7955 20.5795C16.0065 20.7905 16.125 21.0766 16.125 21.375ZM15.0459 9.70406C15.2573 9.91541 15.376 10.2021 15.376 10.5009C15.376 10.7998 15.2573 11.0865 15.0459 11.2978C14.8346 11.5092 14.5479 11.6279 14.2491 11.6279C13.9502 11.6279 13.6635 11.5092 13.4522 11.2978L13.125 10.9688V14.25C13.125 14.5484 13.0065 14.8345 12.7955 15.0455C12.5845 15.2565 12.2984 15.375 12 15.375C11.7016 15.375 11.4155 15.2565 11.2045 15.0455C10.9935 14.8345 10.875 14.5484 10.875 14.25V10.9688L10.5459 11.2987C10.3346 11.5101 10.0479 11.6288 9.74906 11.6288C9.45018 11.6288 9.16353 11.5101 8.95219 11.2987C8.74084 11.0874 8.62211 10.8008 8.62211 10.5019C8.62211 10.203 8.74084 9.91634 8.95219 9.705L11.2022 7.455C11.3067 7.35012 11.4309 7.2669 11.5676 7.21012C11.7044 7.15334 11.851 7.12411 11.9991 7.12411C12.1471 7.12411 12.2937 7.15334 12.4305 7.21012C12.5672 7.2669 12.6914 7.35012 12.7959 7.455L15.0459 9.70406Z" fill="#130032"/>
</svg>
