<svg width="24" height="24" viewBox="0 0 24 24" fill="none" xmlns="http://www.w3.org/2000/svg">
<path d="M22.1594 13.0672C22.0151 12.9225 21.8342 12.82 21.636 12.7704C21.4378 12.7209 21.2298 12.7262 21.0344 12.7859C19.6695 13.198 18.2184 13.2321 16.8357 12.8846C15.453 12.5371 14.1904 11.8211 13.1824 10.8127C12.1745 9.80438 11.4589 8.54152 11.112 7.15866C10.765 5.77579 10.7997 4.3247 11.2122 2.95997C11.2724 2.76451 11.2782 2.55633 11.2289 2.35783C11.1796 2.15934 11.0772 1.97803 10.9326 1.83341C10.7879 1.68879 10.6066 1.58633 10.4081 1.53705C10.2096 1.48777 10.0015 1.49354 9.80599 1.55372C7.75324 2.18466 5.95183 3.44706 4.65818 5.16122C3.5269 6.66487 2.83703 8.45402 2.66596 10.3279C2.49489 12.2018 2.8494 14.0863 3.68971 15.77C4.53002 17.4536 5.82288 18.8697 7.42322 19.8595C9.02356 20.8493 10.8681 21.3735 12.7497 21.3734C14.9466 21.3799 17.085 20.6655 18.8369 19.34C20.5502 18.045 21.8113 16.2426 22.4407 14.1893C22.4998 13.9944 22.5049 13.787 22.4554 13.5893C22.4058 13.3917 22.3035 13.2112 22.1594 13.0672ZM17.4832 17.5428C15.9668 18.6844 14.0891 19.2398 12.1957 19.107C10.3023 18.9741 8.52054 18.1619 7.1784 16.8198C5.83627 15.4776 5.02403 13.6959 4.89118 11.8025C4.75833 9.90907 5.3138 8.03138 6.45537 6.51497C7.05606 5.72041 7.8005 5.04561 8.65006 4.5256C8.63318 4.7656 8.62475 5.00653 8.62475 5.24841C8.62772 7.93281 9.69542 10.5064 11.5936 12.4046C13.4917 14.3027 16.0653 15.3704 18.7497 15.3734C18.9916 15.3734 19.2326 15.365 19.4726 15.3481C18.9528 16.1978 18.278 16.9423 17.4832 17.5428Z" fill="#130032"/>
</svg>
