<svg width="24" height="24" viewBox="0 0 24 24" fill="none" xmlns="http://www.w3.org/2000/svg">
<path d="M19.5 3.37494H15.9675C15.722 2.51203 15.2018 1.7527 14.4858 1.21205C13.7699 0.6714 12.8972 0.378906 12 0.378906C11.1028 0.378906 10.2301 0.6714 9.51418 1.21205C8.79822 1.7527 8.27804 2.51203 8.0325 3.37494H4.5C4.20163 3.37494 3.91548 3.49346 3.7045 3.70444C3.49353 3.91542 3.375 4.20157 3.375 4.49994C3.375 4.79831 3.49353 5.08446 3.7045 5.29543C3.91548 5.50641 4.20163 5.62494 4.5 5.62494H8.0325C8.19587 6.20308 8.48387 6.73843 8.87625 7.19338C7.89 7.74775 7.06906 8.5546 6.49769 9.5311C5.92632 10.5076 5.62512 11.6186 5.625 12.7499V18.7499C5.625 19.2472 5.82254 19.7241 6.17417 20.0758C6.52581 20.4274 7.00272 20.6249 7.5 20.6249H9C9 21.4206 9.31607 22.1837 9.87868 22.7463C10.4413 23.3089 11.2044 23.6249 12 23.6249C12.7956 23.6249 13.5587 23.3089 14.1213 22.7463C14.6839 22.1837 15 21.4206 15 20.6249H16.5C16.9973 20.6249 17.4742 20.4274 17.8258 20.0758C18.1775 19.7241 18.375 19.2472 18.375 18.7499V12.7499C18.3745 11.6182 18.0727 10.507 17.5007 9.53044C16.9286 8.55391 16.1069 7.74727 15.12 7.19338C15.5124 6.73843 15.8004 6.20308 15.9637 5.62494H19.5C19.7984 5.62494 20.0845 5.50641 20.2955 5.29543C20.5065 5.08446 20.625 4.79831 20.625 4.49994C20.625 4.20157 20.5065 3.91542 20.2955 3.70444C20.0845 3.49346 19.7984 3.37494 19.5 3.37494ZM12.75 20.6249C12.75 20.8239 12.671 21.0146 12.5303 21.1553C12.3897 21.2959 12.1989 21.3749 12 21.3749C11.8011 21.3749 11.6103 21.2959 11.4697 21.1553C11.329 21.0146 11.25 20.8239 11.25 20.6249V15.3749C11.25 15.176 11.329 14.9853 11.4697 14.8446C11.6103 14.704 11.8011 14.6249 12 14.6249C12.1989 14.6249 12.3897 14.704 12.5303 14.8446C12.671 14.9853 12.75 15.176 12.75 15.3749V20.6249ZM16.125 18.3749H15V15.3749C15 14.5793 14.6839 13.8162 14.1213 13.2536C13.5587 12.691 12.7956 12.3749 12 12.3749C11.2044 12.3749 10.4413 12.691 9.87868 13.2536C9.31607 13.8162 9 14.5793 9 15.3749V18.3749H7.875V12.7499C7.875 11.6559 8.3096 10.6067 9.08318 9.83312C9.85677 9.05954 10.906 8.62494 12 8.62494C13.094 8.62494 14.1432 9.05954 14.9168 9.83312C15.6904 10.6067 16.125 11.6559 16.125 12.7499V18.3749ZM10.125 4.49994C10.125 4.1291 10.235 3.76659 10.441 3.45824C10.647 3.1499 10.9399 2.90958 11.2825 2.76766C11.6251 2.62575 12.0021 2.58862 12.3658 2.66097C12.7295 2.73331 13.0636 2.91189 13.3258 3.17411C13.588 3.43634 13.7666 3.77043 13.839 4.13414C13.9113 4.49786 13.8742 4.87486 13.7323 5.21747C13.5904 5.56008 13.35 5.85292 13.0417 6.05894C12.7334 6.26497 12.3708 6.37494 12 6.37494C11.5027 6.37494 11.0258 6.17739 10.6742 5.82576C10.3225 5.47413 10.125 4.99722 10.125 4.49994Z" fill="#130032"/>
</svg>
