<svg width="24" height="24" viewBox="0 0 24 24" fill="none" xmlns="http://www.w3.org/2000/svg">
<g clip-path="url(#clip0_7_18307)">
<path d="M19.875 11.625C19.7606 11.625 19.6472 11.6306 19.5356 11.64L16.4288 3.35531C16.3484 3.14076 16.2044 2.95587 16.0161 2.82536C15.8278 2.69485 15.6041 2.62495 15.375 2.625H12.375C12.0766 2.625 11.7905 2.74353 11.5795 2.9545C11.3685 3.16548 11.25 3.45163 11.25 3.75C11.25 4.04837 11.3685 4.33452 11.5795 4.5455C11.7905 4.75647 12.0766 4.875 12.375 4.875H14.595L17.4291 12.4313C16.8016 12.8942 16.3171 13.5245 16.0312 14.25H13.2938L11.1788 8.60531C11.0984 8.39076 10.9544 8.20587 10.7661 8.07536C10.5778 7.94485 10.3541 7.87495 10.125 7.875H2.625C2.32663 7.875 2.04048 7.99353 1.8295 8.2045C1.61853 8.41548 1.5 8.70163 1.5 9C1.5 9.29837 1.61853 9.58452 1.8295 9.7955C2.04048 10.0065 2.32663 10.125 2.625 10.125H3V10.3987C2.09531 10.8777 1.33809 11.594 0.80958 12.4706C0.281065 13.3473 0.00119787 14.3513 0 15.375C0 15.6734 0.118526 15.9595 0.329505 16.1705C0.540483 16.3815 0.826631 16.5 1.125 16.5H1.56938C1.74531 17.4471 2.24718 18.3028 2.98795 18.9187C3.72872 19.5345 4.66167 19.8717 5.625 19.8717C6.58833 19.8717 7.52128 19.5345 8.26205 18.9187C9.00282 18.3028 9.50469 17.4471 9.68062 16.5H15.8194C15.9619 17.2707 16.321 17.9849 16.8547 18.5589C17.3884 19.1329 18.0746 19.5429 18.833 19.7411C19.5913 19.9392 20.3904 19.9171 21.1367 19.6775C21.8829 19.4379 22.5455 18.9907 23.0467 18.3881C23.548 17.7856 23.8672 17.0527 23.967 16.2753C24.0668 15.4979 23.9431 14.7081 23.6103 13.9985C23.2775 13.2889 22.7494 12.6888 22.0879 12.2684C21.4264 11.8481 20.6588 11.6249 19.875 11.625ZM4.5 12.1922C4.71943 12.1146 4.9094 11.9709 5.04373 11.7808C5.17805 11.5907 5.25012 11.3637 5.25 11.1309V10.125H9.345L10.8919 14.25H2.44313C2.61079 13.7753 2.88253 13.3441 3.23843 12.9881C3.59433 12.632 4.02538 12.3601 4.5 12.1922ZM5.625 17.625C5.26033 17.6248 4.90363 17.5183 4.59858 17.3185C4.29353 17.1187 4.05337 16.8342 3.9075 16.5H7.3425C7.19663 16.8342 6.95647 17.1187 6.65142 17.3185C6.34637 17.5183 5.98967 17.6248 5.625 17.625ZM19.875 17.625C19.5042 17.625 19.1416 17.515 18.8333 17.309C18.525 17.103 18.2846 16.8101 18.1427 16.4675C18.0008 16.1249 17.9637 15.7479 18.036 15.3842C18.1084 15.0205 18.287 14.6864 18.5492 14.4242C18.8114 14.162 19.1455 13.9834 19.5092 13.911C19.8729 13.8387 20.2499 13.8758 20.5925 14.0177C20.9351 14.1596 21.228 14.4 21.434 14.7083C21.64 15.0166 21.75 15.3792 21.75 15.75C21.75 16.2473 21.5525 16.7242 21.2008 17.0758C20.8492 17.4275 20.3723 17.625 19.875 17.625Z" fill="#130032"/>
</g>
<defs>
<clipPath id="clip0_7_18307">
<rect width="24" height="24" fill="white"/>
</clipPath>
</defs>
</svg>
