<svg width="24" height="24" viewBox="0 0 24 24" fill="none" xmlns="http://www.w3.org/2000/svg">
<path d="M20.625 11.625C20.3702 11.624 20.1162 11.6555 19.8694 11.7188C19.7484 7.82438 17.1178 5.87625 15.1819 4.44562C14.0794 3.63094 13.125 2.92594 13.125 2.25C13.125 1.95163 13.0065 1.66548 12.7955 1.4545C12.5845 1.24353 12.2984 1.125 12 1.125C11.7016 1.125 11.4155 1.24353 11.2045 1.4545C10.9935 1.66548 10.875 1.95163 10.875 2.25C10.875 2.92594 9.92062 3.63094 8.8125 4.44844C6.87844 5.87906 4.24781 7.82344 4.125 11.7216C3.68179 11.6071 3.21827 11.5956 2.76994 11.688C2.3216 11.7803 1.90034 11.974 1.5384 12.2542C1.17646 12.5344 0.883445 12.8938 0.681793 13.3047C0.480141 13.7156 0.375198 14.1673 0.375 14.625V19.5C0.375 19.7984 0.493526 20.0845 0.704505 20.2955C0.915483 20.5065 1.20163 20.625 1.5 20.625H22.5C22.7984 20.625 23.0845 20.5065 23.2955 20.2955C23.5065 20.0845 23.625 19.7984 23.625 19.5V14.625C23.625 13.8294 23.3089 13.0663 22.7463 12.5037C22.1837 11.9411 21.4206 11.625 20.625 11.625ZM4.125 18.375H2.625V14.625C2.625 14.4261 2.70402 14.2353 2.84467 14.0947C2.98532 13.954 3.17609 13.875 3.375 13.875C3.57391 13.875 3.76468 13.954 3.90533 14.0947C4.04598 14.2353 4.125 14.4261 4.125 14.625V18.375ZM10.1541 6.25688C10.8103 5.775 11.4666 5.28562 12 4.73156C12.5325 5.28562 13.1944 5.775 13.8459 6.25688C15.45 7.44375 17.1 8.66625 17.5219 10.875H6.47812C6.9 8.66625 8.55 7.44375 10.1541 6.25688ZM17.625 18.375H15.375V15.75C15.375 15.4516 15.2565 15.1655 15.0455 14.9545C14.8345 14.7435 14.5484 14.625 14.25 14.625C13.9516 14.625 13.6655 14.7435 13.4545 14.9545C13.2435 15.1655 13.125 15.4516 13.125 15.75V18.375H10.875V15.75C10.875 15.4516 10.7565 15.1655 10.5455 14.9545C10.3345 14.7435 10.0484 14.625 9.75 14.625C9.45163 14.625 9.16548 14.7435 8.9545 14.9545C8.74353 15.1655 8.625 15.4516 8.625 15.75V18.375H6.375V13.125H17.625V18.375ZM21.375 18.375H19.875V14.625C19.875 14.4261 19.954 14.2353 20.0947 14.0947C20.2353 13.954 20.4261 13.875 20.625 13.875C20.8239 13.875 21.0147 13.954 21.1553 14.0947C21.296 14.2353 21.375 14.4261 21.375 14.625V18.375Z" fill="#130032"/>
</svg>
