<svg width="24" height="24" viewBox="0 0 24 24" fill="none" xmlns="http://www.w3.org/2000/svg">
<g clip-path="url(#clip0_7_18304)">
<path d="M19.4996 10.5C19.4462 10.5 19.3937 10.5 19.3412 10.5L19.013 9.39375C19.1734 9.37969 19.3355 9.37125 19.4996 9.37125C19.798 9.37125 20.0841 9.25272 20.2951 9.04175C20.5061 8.83077 20.6246 8.54462 20.6246 8.24625C20.6246 7.94788 20.5061 7.66173 20.2951 7.45076C20.0841 7.23978 19.798 7.12125 19.4996 7.12125H18.3399L17.5787 4.55156C17.509 4.31961 17.3664 4.11632 17.172 3.9719C16.9776 3.82749 16.7418 3.74967 16.4996 3.75H13.4996C13.2012 3.75 12.9151 3.86853 12.7041 4.07951C12.4931 4.29048 12.3746 4.57663 12.3746 4.875C12.3746 5.17337 12.4931 5.45952 12.7041 5.6705C12.9151 5.88147 13.2012 6 13.4996 6H15.6559L15.9896 7.125H14.2496C12.4271 7.125 10.9384 7.55813 9.94461 8.37844C9.78109 8.50951 9.58421 8.59229 9.37616 8.61747C9.16811 8.64265 8.95717 8.60922 8.76711 8.52094C7.53617 7.95844 3.40554 6.17719 2.98742 6L2.49336 5.79C2.49336 5.79 2.09961 5.625 1.87461 5.625C1.61445 5.62496 1.36233 5.71508 1.16114 5.88002C0.959964 6.04496 0.822166 6.27453 0.77121 6.52965C0.720253 6.78476 0.759288 7.04965 0.881668 7.27922C1.00405 7.50879 1.20221 7.68885 1.44242 7.78875C1.60367 7.85719 5.53648 9.52313 7.83617 10.5694C8.27794 10.7695 8.75743 10.8728 9.24242 10.8722C10.0207 10.8748 10.7757 10.6067 11.378 10.1138C11.9162 9.67031 12.8387 9.4125 13.9927 9.37875C12.7571 10.5871 11.9533 12.1684 11.7052 13.8788H8.85711C8.58329 12.8183 7.9321 11.894 7.0256 11.2793C6.1191 10.6646 5.01952 10.4016 3.93298 10.5396C2.84644 10.6776 1.84753 11.2072 1.12349 12.029C0.399456 12.8508 0 13.9085 0 15.0038C0 16.099 0.399456 17.1567 1.12349 17.9785C1.84753 18.8003 2.84644 19.3299 3.93298 19.4679C5.01952 19.6059 6.1191 19.3429 7.0256 18.7282C7.9321 18.1135 8.58329 17.1892 8.85711 16.1288H12.7496C13.048 16.1288 13.3341 16.0102 13.5451 15.7992C13.7561 15.5883 13.8746 15.3021 13.8746 15.0038C13.8749 13.9839 14.1525 12.9834 14.6777 12.1092C15.2028 11.235 15.9557 10.5199 16.8559 10.0406L17.184 11.1469C16.252 11.7091 15.5555 12.59 15.2233 13.6265C14.8911 14.663 14.9458 15.7847 15.3772 16.7839C15.8087 17.7831 16.5877 18.5921 17.5699 19.061C18.5521 19.5299 19.671 19.6269 20.7193 19.3341C21.7675 19.0412 22.6741 18.3784 23.2711 17.4683C23.8681 16.5583 24.1151 15.4627 23.9662 14.3846C23.8174 13.3064 23.2828 12.3187 22.4616 11.6045C21.6403 10.8902 20.588 10.4978 19.4996 10.5ZM4.49961 16.125H6.44679C6.19914 16.5539 5.81687 16.8892 5.35927 17.0787C4.90167 17.2683 4.39432 17.3015 3.91589 17.1733C3.43747 17.0451 3.01471 16.7627 2.71319 16.3697C2.41167 15.9768 2.24824 15.4953 2.24824 15C2.24824 14.5047 2.41167 14.0232 2.71319 13.6303C3.01471 13.2373 3.43747 12.9549 3.91589 12.8267C4.39432 12.6985 4.90167 12.7317 5.35927 12.9213C5.81687 13.1108 6.19914 13.4461 6.44679 13.875H4.49961C4.20124 13.875 3.91509 13.9935 3.70411 14.2045C3.49313 14.4155 3.37461 14.7016 3.37461 15C3.37461 15.2984 3.49313 15.5845 3.70411 15.7955C3.91509 16.0065 4.20124 16.125 4.49961 16.125ZM19.4996 17.25C19.0601 17.2495 18.6303 17.1202 18.2634 16.8782C17.8965 16.6362 17.6085 16.292 17.435 15.8882C17.2615 15.4843 17.2101 15.0385 17.2871 14.6058C17.3641 14.173 17.5662 13.7723 17.8684 13.4531L18.4205 15.3197C18.4895 15.5523 18.6318 15.7565 18.8263 15.9016C19.0208 16.0467 19.257 16.1251 19.4996 16.125C19.6078 16.1248 19.7154 16.1093 19.8193 16.0791C19.961 16.0371 20.0931 15.9677 20.208 15.8747C20.3229 15.7817 20.4183 15.6669 20.4888 15.537C20.5593 15.4071 20.6036 15.2646 20.619 15.1176C20.6344 14.9706 20.6207 14.822 20.5787 14.6803L20.0246 12.8128C20.5597 12.942 21.0289 13.2628 21.3433 13.7146C21.6578 14.1663 21.7958 14.7177 21.7311 15.2644C21.6664 15.811 21.4036 16.315 20.9924 16.6809C20.5812 17.0468 20.0501 17.2493 19.4996 17.25Z" fill="#130032"/>
</g>
<defs>
<clipPath id="clip0_7_18304">
<rect width="24" height="24" fill="white"/>
</clipPath>
</defs>
</svg>
