<svg width="24" height="24" viewBox="0 0 24 24" fill="none" xmlns="http://www.w3.org/2000/svg">
<path d="M13.5 1.125H10.5C8.80978 1.12674 7.18928 1.79895 5.99411 2.99411C4.79895 4.18928 4.12674 5.80978 4.125 7.5V16.5C4.12674 18.1902 4.79895 19.8107 5.99411 21.0059C7.18928 22.2011 8.80978 22.8733 10.5 22.875H13.5C15.1902 22.8733 16.8107 22.2011 18.0059 21.0059C19.2011 19.8107 19.8733 18.1902 19.875 16.5V7.5C19.8733 5.80978 19.2011 4.18928 18.0059 2.99411C16.8107 1.79895 15.1902 1.12674 13.5 1.125ZM17.625 7.5V9.375H15V8.25C15 7.75272 14.8025 7.27581 14.4508 6.92417C14.0992 6.57254 13.6223 6.375 13.125 6.375V3.375H13.5C14.5936 3.37624 15.6421 3.81124 16.4154 4.58455C17.1888 5.35787 17.6238 6.40636 17.625 7.5ZM11.25 8.625H12.75V12.375H11.25V8.625ZM10.5 3.375H10.875V6.375C10.3777 6.375 9.90081 6.57254 9.54917 6.92417C9.19754 7.27581 9 7.75272 9 8.25V9.375H6.375V7.5C6.37624 6.40636 6.81124 5.35787 7.58455 4.58455C8.35787 3.81124 9.40636 3.37624 10.5 3.375ZM13.5 20.625H10.5C9.40636 20.6238 8.35787 20.1888 7.58455 19.4154C6.81124 18.6421 6.37624 17.5936 6.375 16.5V11.625H9V12.75C9 13.2473 9.19754 13.7242 9.54917 14.0758C9.90081 14.4275 10.3777 14.625 10.875 14.625H13.125C13.6223 14.625 14.0992 14.4275 14.4508 14.0758C14.8025 13.7242 15 13.2473 15 12.75V11.625H17.625V16.5C17.6238 17.5936 17.1888 18.6421 16.4154 19.4154C15.6421 20.1888 14.5936 20.6238 13.5 20.625Z" fill="#130032"/>
</svg>
