<svg width="24" height="24" viewBox="0 0 24 24" fill="none" xmlns="http://www.w3.org/2000/svg">
<path d="M13.5 1.125H10.5C8.80978 1.12674 7.18928 1.79895 5.99411 2.99411C4.79895 4.18928 4.12674 5.80978 4.125 7.5V16.5C4.12674 18.1902 4.79895 19.8107 5.99411 21.0059C7.18928 22.2011 8.80978 22.8733 10.5 22.875H13.5C15.1902 22.8733 16.8107 22.2011 18.0059 21.0059C19.2011 19.8107 19.8733 18.1902 19.875 16.5V7.5C19.8733 5.80978 19.2011 4.18928 18.0059 2.99411C16.8107 1.79895 15.1902 1.12674 13.5 1.125ZM17.4375 6.28125C17.5612 6.67569 17.6244 7.08661 17.625 7.5V9.375H14.3438L17.4375 6.28125ZM16.1728 4.36125L13.125 7.40625V3.375H13.5C14.48 3.37449 15.428 3.72428 16.1728 4.36125ZM10.5 3.375H10.875V9.375H6.375V7.5C6.37624 6.40636 6.81124 5.35787 7.58455 4.58455C8.35787 3.81124 9.40636 3.37624 10.5 3.375ZM13.5 20.625H10.5C9.40636 20.6238 8.35787 20.1888 7.58455 19.4154C6.81124 18.6421 6.37624 17.5936 6.375 16.5V11.625H17.625V16.5C17.6238 17.5936 17.1888 18.6421 16.4154 19.4154C15.6421 20.1888 14.5936 20.6238 13.5 20.625Z" fill="#130032"/>
</svg>
