<svg width="24" height="24" viewBox="0 0 24 24" fill="none" xmlns="http://www.w3.org/2000/svg">
<path d="M22.125 4.5C22.125 4.79837 22.0065 5.08452 21.7955 5.2955C21.5845 5.50647 21.2984 5.625 21 5.625H19.875V6.75C19.875 7.04837 19.7565 7.33452 19.5455 7.5455C19.3345 7.75647 19.0484 7.875 18.75 7.875C18.4516 7.875 18.1655 7.75647 17.9545 7.5455C17.7435 7.33452 17.625 7.04837 17.625 6.75V5.625H16.5C16.2016 5.625 15.9155 5.50647 15.7045 5.2955C15.4935 5.08452 15.375 4.79837 15.375 4.5C15.375 4.20163 15.4935 3.91548 15.7045 3.7045C15.9155 3.49353 16.2016 3.375 16.5 3.375H17.625V2.25C17.625 1.95163 17.7435 1.66548 17.9545 1.4545C18.1655 1.24353 18.4516 1.125 18.75 1.125C19.0484 1.125 19.3345 1.24353 19.5455 1.4545C19.7565 1.66548 19.875 1.95163 19.875 2.25V3.375H21C21.2984 3.375 21.5845 3.49353 21.7955 3.7045C22.0065 3.91548 22.125 4.20163 22.125 4.5ZM20.625 10.5V15.375C20.6252 16.1826 20.3647 16.9686 19.8823 17.6162C19.3998 18.2639 18.7212 18.7384 17.9474 18.9694C17.1736 19.2003 16.3458 19.1753 15.5874 18.898C14.8289 18.6207 14.1802 18.106 13.7378 17.4304C13.2954 16.7548 13.0829 15.9544 13.1319 15.1483C13.181 14.3422 13.4889 13.5735 14.0099 12.9565C14.5309 12.3395 15.2372 11.9072 16.0237 11.7239C16.8102 11.5406 17.6349 11.616 18.375 11.9391V10.5C18.375 10.2016 18.4935 9.91548 18.7045 9.7045C18.9155 9.49353 19.2016 9.375 19.5 9.375C19.7984 9.375 20.0845 9.49353 20.2955 9.7045C20.5065 9.91548 20.625 10.2016 20.625 10.5ZM18.375 15.375C18.375 15.0783 18.287 14.7883 18.1222 14.5416C17.9574 14.295 17.7231 14.1027 17.449 13.9892C17.1749 13.8756 16.8733 13.8459 16.5824 13.9038C16.2914 13.9617 16.0241 14.1046 15.8143 14.3143C15.6046 14.5241 15.4617 14.7914 15.4038 15.0824C15.3459 15.3733 15.3757 15.6749 15.4892 15.949C15.6027 16.2231 15.795 16.4574 16.0416 16.6222C16.2883 16.787 16.5783 16.875 16.875 16.875C17.2728 16.875 17.6544 16.717 17.9357 16.4357C18.217 16.1544 18.375 15.7728 18.375 15.375ZM8.625 10.6284V18.375C8.62522 19.1826 8.36473 19.9686 7.88229 20.6162C7.39985 21.2639 6.72123 21.7384 5.94739 21.9694C5.17355 22.2003 4.34583 22.1753 3.58737 21.898C2.8289 21.6207 2.18021 21.106 1.7378 20.4304C1.29539 19.7548 1.08289 18.9544 1.13192 18.1483C1.18095 17.3422 1.48888 16.5735 2.00992 15.9565C2.53095 15.3395 3.23724 14.9072 4.02372 14.7239C4.8102 14.5406 5.63486 14.616 6.375 14.9391V5.25C6.37504 4.99913 6.45893 4.75547 6.61334 4.55775C6.76774 4.36003 6.98381 4.21959 7.22719 4.15875L12.4772 2.84625C12.7646 2.77961 13.0667 2.82854 13.3184 2.98249C13.57 3.13645 13.7512 3.3831 13.8227 3.66932C13.8943 3.95554 13.8505 4.25842 13.7009 4.5127C13.5513 4.76697 13.3078 4.9523 13.0228 5.02875L8.625 6.12844V8.30906L14.7272 6.78375C15.0146 6.71711 15.3167 6.76604 15.5684 6.91999C15.82 7.07395 16.0012 7.3206 16.0727 7.60682C16.1443 7.89304 16.1005 8.19592 15.9509 8.4502C15.8013 8.70447 15.5578 8.8898 15.2728 8.96625L8.625 10.6284ZM6.375 18.375C6.375 18.0783 6.28703 17.7883 6.12221 17.5416C5.95738 17.295 5.72312 17.1027 5.44903 16.9892C5.17494 16.8756 4.87334 16.8459 4.58237 16.9038C4.2914 16.9617 4.02412 17.1046 3.81434 17.3143C3.60456 17.5241 3.4617 17.7914 3.40382 18.0824C3.34595 18.3733 3.37565 18.6749 3.48918 18.949C3.60271 19.2231 3.79497 19.4574 4.04165 19.6222C4.28832 19.787 4.57833 19.875 4.875 19.875C5.27283 19.875 5.65436 19.717 5.93566 19.4357C6.21697 19.1544 6.375 18.7728 6.375 18.375Z" fill="#130032"/>
</svg>
