<svg width="24" height="24" viewBox="0 0 24 24" fill="none" xmlns="http://www.w3.org/2000/svg">
<path d="M19.8234 4.9225L12.3234 2.6725C12.1555 2.62208 11.9781 2.61163 11.8053 2.64197C11.6326 2.67232 11.4694 2.74262 11.3287 2.84727C11.1879 2.95192 11.0736 3.08802 10.9949 3.24471C10.9161 3.40139 10.8751 3.57432 10.875 3.74968V13.1453C9.96267 12.5623 8.88221 12.2996 7.80405 12.3987C6.72589 12.4977 5.71138 12.9529 4.92053 13.6923C4.12967 14.4318 3.60748 15.4134 3.43631 16.4825C3.26515 17.5516 3.45474 18.6473 3.9752 19.5967C4.49566 20.5461 5.31736 21.2952 6.31071 21.7259C7.30405 22.1566 8.41251 22.2444 9.46126 21.9754C10.51 21.7063 11.4394 21.0959 12.1027 20.2402C12.7661 19.3845 13.1258 18.3324 13.125 17.2497V9.76187L19.1766 11.5769C19.3445 11.6273 19.522 11.6377 19.6947 11.6074C19.8674 11.5771 20.0306 11.5067 20.1714 11.4021C20.3121 11.2974 20.4264 11.1613 20.5051 11.0047C20.5839 10.848 20.625 10.6751 20.625 10.4997V5.99968C20.6249 5.75783 20.5469 5.52243 20.4025 5.3284C20.2582 5.13437 20.0551 4.99203 19.8234 4.9225ZM8.25001 19.8747C7.73083 19.8747 7.22331 19.7207 6.79163 19.4323C6.35995 19.1439 6.0235 18.7339 5.82482 18.2542C5.62614 17.7746 5.57416 17.2468 5.67544 16.7376C5.77673 16.2284 6.02674 15.7606 6.39385 15.3935C6.76096 15.0264 7.22869 14.7764 7.73789 14.6751C8.24709 14.5738 8.77489 14.6258 9.25455 14.8245C9.73421 15.0232 10.1442 15.3596 10.4326 15.7913C10.7211 16.223 10.875 16.7305 10.875 17.2497C10.875 17.9459 10.5984 18.6136 10.1062 19.1058C9.61388 19.5981 8.9462 19.8747 8.25001 19.8747ZM18.375 8.9875L13.125 7.4125V5.26187L18.375 6.83687V8.9875Z" fill="#130032"/>
</svg>
