<svg width="24" height="24" viewBox="0 0 24 24" fill="none" xmlns="http://www.w3.org/2000/svg">
<path d="M22.125 4.49923C22.125 4.7976 22.0065 5.08375 21.7955 5.29473C21.5845 5.50571 21.2984 5.62423 21 5.62423H16.5C16.2016 5.62423 15.9155 5.50571 15.7045 5.29473C15.4935 5.08375 15.375 4.7976 15.375 4.49923C15.375 4.20086 15.4935 3.91472 15.7045 3.70374C15.9155 3.49276 16.2016 3.37423 16.5 3.37423H21C21.2984 3.37423 21.5845 3.49276 21.7955 3.70374C22.0065 3.91472 22.125 4.20086 22.125 4.49923ZM20.625 8.24923V15.3742C20.6252 16.1818 20.3647 16.9679 19.8823 17.6155C19.3998 18.2631 18.7212 18.7377 17.9474 18.9686C17.1736 19.1996 16.3458 19.1745 15.5874 18.8972C14.8289 18.6199 14.1802 18.1052 13.7378 17.4296C13.2954 16.754 13.0829 15.9536 13.1319 15.1476C13.181 14.3415 13.4889 13.5728 14.0099 12.9558C14.5309 12.3388 15.2372 11.9065 16.0237 11.7231C16.8102 11.5398 17.6349 11.6153 18.375 11.9383V8.24923C18.375 7.95086 18.4935 7.66472 18.7045 7.45374C18.9155 7.24276 19.2016 7.12423 19.5 7.12423C19.7984 7.12423 20.0845 7.24276 20.2955 7.45374C20.5065 7.66472 20.625 7.95086 20.625 8.24923ZM18.375 15.3742C18.375 15.0776 18.287 14.7876 18.1222 14.5409C17.9574 14.2942 17.7231 14.1019 17.449 13.9884C17.1749 13.8749 16.8733 13.8452 16.5824 13.9031C16.2914 13.9609 16.0241 14.1038 15.8143 14.3136C15.6046 14.5234 15.4617 14.7906 15.4038 15.0816C15.3459 15.3726 15.3757 15.6742 15.4892 15.9483C15.6027 16.2223 15.795 16.4566 16.0416 16.6214C16.2883 16.7863 16.5783 16.8742 16.875 16.8742C17.2728 16.8742 17.6544 16.7162 17.9357 16.4349C18.217 16.1536 18.375 15.7721 18.375 15.3742ZM8.625 10.6277V18.3742C8.62522 19.1818 8.36473 19.9679 7.88229 20.6155C7.39985 21.2631 6.72123 21.7377 5.94739 21.9686C5.17355 22.1996 4.34583 22.1745 3.58737 21.8972C2.8289 21.6199 2.18021 21.1052 1.7378 20.4296C1.29539 19.754 1.08289 18.9536 1.13192 18.1476C1.18095 17.3415 1.48888 16.5728 2.00992 15.9558C2.53095 15.3388 3.23724 14.9065 4.02372 14.7231C4.8102 14.5398 5.63486 14.6153 6.375 14.9383V5.24923C6.37504 4.99836 6.45893 4.7547 6.61334 4.55698C6.76774 4.35926 6.98381 4.21882 7.22719 4.15798L12.4772 2.84548C12.7646 2.77884 13.0667 2.82777 13.3184 2.98173C13.57 3.13568 13.7512 3.38234 13.8227 3.66856C13.8943 3.95478 13.8505 4.25765 13.7009 4.51193C13.5513 4.76621 13.3078 4.95153 13.0228 5.02798L8.625 6.12767V8.3083L14.7272 6.78298C15.0146 6.71634 15.3167 6.76527 15.5684 6.91923C15.82 7.07318 16.0012 7.31984 16.0727 7.60606C16.1443 7.89228 16.1005 8.19515 15.9509 8.44943C15.8013 8.70371 15.5578 8.88903 15.2728 8.96548L8.625 10.6277ZM6.375 18.3742C6.375 18.0776 6.28703 17.7876 6.12221 17.5409C5.95738 17.2942 5.72312 17.1019 5.44903 16.9884C5.17494 16.8749 4.87334 16.8452 4.58237 16.9031C4.2914 16.9609 4.02412 17.1038 3.81434 17.3136C3.60456 17.5234 3.4617 17.7906 3.40382 18.0816C3.34595 18.3726 3.37565 18.6742 3.48918 18.9483C3.60271 19.2223 3.79497 19.4566 4.04165 19.6214C4.28832 19.7863 4.57833 19.8742 4.875 19.8742C5.27283 19.8742 5.65436 19.7162 5.93566 19.4349C6.21697 19.1536 6.375 18.7721 6.375 18.3742Z" fill="#130032"/>
</svg>
