<svg width="24" height="24" viewBox="0 0 24 24" fill="none" xmlns="http://www.w3.org/2000/svg">
<path d="M22.3781 9.60368L5.88845 3.48649L5.86501 3.47806C5.53252 3.36302 5.17438 3.34386 4.83152 3.42275C4.48865 3.50164 4.1749 3.6754 3.92613 3.92418C3.67735 4.17295 3.50359 4.4867 3.4247 4.82956C3.34581 5.17243 3.36498 5.53057 3.48001 5.86306L3.48845 5.88649L9.60563 22.3762C9.73531 22.7409 9.97471 23.0566 10.2909 23.2798C10.6072 23.5031 10.9848 23.623 11.3719 23.6231H11.4047C11.8001 23.6162 12.1833 23.4845 12.4993 23.2467C12.8154 23.009 13.0482 22.6773 13.1644 22.2993L13.1728 22.2721L15.1631 15.1612L22.2741 13.1709L22.3013 13.1624C22.6793 13.0475 23.0113 12.816 23.2499 12.5011C23.4886 12.1863 23.6217 11.804 23.6302 11.409C23.6387 11.014 23.5222 10.6264 23.2974 10.3015C23.0725 9.97666 22.7508 9.7311 22.3781 9.59993V9.60368ZM13.9472 13.1662C13.7611 13.2183 13.5917 13.3174 13.455 13.454C13.3184 13.5906 13.2193 13.7601 13.1672 13.9462L11.3222 20.5359L5.88751 5.88556L20.5369 11.3231L13.9472 13.1662Z" fill="#130032"/>
</svg>
