<svg width="24" height="24" viewBox="0 0 24 24" fill="none" xmlns="http://www.w3.org/2000/svg">
<path d="M20.1668 3.83293C19.3932 3.0595 18.3441 2.625 17.2502 2.625C16.1563 2.625 15.1072 3.0595 14.3336 3.83293L12.0836 6.08293C11.9187 6.24686 11.8092 6.45831 11.7705 6.68762C11.1002 10.5932 5.18551 17.2214 2.95801 19.4507C2.74666 19.6621 2.62793 19.9487 2.62793 20.2476C2.62793 20.5465 2.74666 20.8331 2.95801 21.0445C3.16935 21.2558 3.45599 21.3746 3.75488 21.3746C4.05377 21.3746 4.34041 21.2558 4.55176 21.0445C6.77832 18.8198 13.4102 12.8995 17.3186 12.232C17.5477 12.1926 17.7589 12.0832 17.9233 11.9189L20.1733 9.66887C20.9468 8.8953 21.3813 7.8462 21.3813 6.75231C21.3813 5.65841 20.9468 4.60931 20.1733 3.83574L20.1668 3.83293ZM18.573 8.07512L16.5649 10.0842C15.1727 10.3945 13.5274 11.1539 11.6458 12.3511C12.843 10.4695 13.6024 8.82418 13.9127 7.43199L15.9218 5.42387C16.0947 5.24479 16.3016 5.10195 16.5304 5.00368C16.7591 4.90541 17.0052 4.85369 17.2541 4.85152C17.5031 4.84936 17.75 4.8968 17.9804 4.99108C18.2108 5.08536 18.4202 5.22458 18.5962 5.40063C18.7723 5.57668 18.9115 5.78603 19.0058 6.01646C19.1001 6.24689 19.1475 6.49379 19.1454 6.74275C19.1432 6.99171 19.0915 7.23774 18.9932 7.4665C18.8949 7.69526 18.7521 7.90216 18.573 8.07512Z" fill="#130032"/>
</svg>
