<svg width="24" height="24" viewBox="0 0 24 24" fill="none" xmlns="http://www.w3.org/2000/svg">
<path d="M21.75 10.125H13.125V8.625H13.5C13.7462 8.625 13.99 8.5765 14.2175 8.48227C14.445 8.38805 14.6517 8.24994 14.8258 8.07583C14.9999 7.90172 15.138 7.69502 15.2323 7.46753C15.3265 7.24005 15.375 6.99623 15.375 6.75V3.75C15.375 3.50377 15.3265 3.25995 15.2323 3.03247C15.138 2.80498 14.9999 2.59828 14.8258 2.42417C14.6517 2.25006 14.445 2.11195 14.2175 2.01773C13.99 1.9235 13.7462 1.875 13.5 1.875H10.5C10.0027 1.875 9.52581 2.07254 9.17418 2.42417C8.82254 2.77581 8.625 3.25272 8.625 3.75V6.75C8.625 6.99623 8.6735 7.24005 8.76773 7.46753C8.86195 7.69502 9.00006 7.90172 9.17418 8.07583C9.52581 8.42746 10.0027 8.625 10.5 8.625H10.875V10.125H2.25C1.95163 10.125 1.66548 10.2435 1.4545 10.4545C1.24353 10.6655 1.125 10.9516 1.125 11.25C1.125 11.5484 1.24353 11.8345 1.4545 12.0455C1.66548 12.2565 1.95163 12.375 2.25 12.375H4.875V14.625H4.5C4.00272 14.625 3.52581 14.8225 3.17417 15.1742C2.82254 15.5258 2.625 16.0027 2.625 16.5V19.5C2.625 19.9973 2.82254 20.4742 3.17417 20.8258C3.52581 21.1775 4.00272 21.375 4.5 21.375H7.5C7.99728 21.375 8.47419 21.1775 8.82583 20.8258C9.17746 20.4742 9.375 19.9973 9.375 19.5V16.5C9.375 16.0027 9.17746 15.5258 8.82583 15.1742C8.47419 14.8225 7.99728 14.625 7.5 14.625H7.125V12.375H16.875V13.125C16.875 13.4234 16.9935 13.7095 17.2045 13.9205C17.4155 14.1315 17.7016 14.25 18 14.25C18.2984 14.25 18.5845 14.1315 18.7955 13.9205C19.0065 13.7095 19.125 13.4234 19.125 13.125V12.375H21.75C22.0484 12.375 22.3345 12.2565 22.5455 12.0455C22.7565 11.8345 22.875 11.5484 22.875 11.25C22.875 10.9516 22.7565 10.6655 22.5455 10.4545C22.3345 10.2435 22.0484 10.125 21.75 10.125ZM10.875 4.125H13.125V6.375H10.875V4.125ZM7.125 19.125H4.875V16.875H7.125V19.125ZM21.0459 16.5459L19.5938 18L21.0487 19.4541C21.1534 19.5587 21.2364 19.6829 21.293 19.8197C21.3497 19.9564 21.3788 20.1029 21.3788 20.2509C21.3788 20.3989 21.3497 20.5455 21.293 20.6822C21.2364 20.8189 21.1534 20.9432 21.0487 21.0478C20.9441 21.1525 20.8199 21.2355 20.6831 21.2921C20.5464 21.3487 20.3999 21.3779 20.2519 21.3779C20.1039 21.3779 19.9573 21.3487 19.8206 21.2921C19.6839 21.2355 19.5596 21.1525 19.455 21.0478L18 19.5938L16.5459 21.0487C16.3346 21.2601 16.0479 21.3788 15.7491 21.3788C15.4502 21.3788 15.1635 21.2601 14.9522 21.0487C14.7408 20.8374 14.6221 20.5508 14.6221 20.2519C14.6221 19.953 14.7408 19.6663 14.9522 19.455L16.4062 18L14.9513 16.5459C14.7399 16.3346 14.6212 16.0479 14.6212 15.7491C14.6212 15.4502 14.7399 15.1635 14.9513 14.9522C15.1626 14.7408 15.4492 14.6221 15.7481 14.6221C16.047 14.6221 16.3337 14.7408 16.545 14.9522L18 16.4062L19.4541 14.9513C19.5587 14.8466 19.6829 14.7636 19.8197 14.707C19.9564 14.6503 20.1029 14.6212 20.2509 14.6212C20.3989 14.6212 20.5455 14.6503 20.6822 14.707C20.8189 14.7636 20.9432 14.8466 21.0478 14.9513C21.1525 15.0559 21.2355 15.1801 21.2921 15.3169C21.3487 15.4536 21.3779 15.6001 21.3779 15.7481C21.3779 15.8961 21.3487 16.0427 21.2921 16.1794C21.2355 16.3161 21.1525 16.4404 21.0478 16.545L21.0459 16.5459Z" fill="#130032"/>
</svg>
