<svg width="24" height="24" viewBox="0 0 24 24" fill="none" xmlns="http://www.w3.org/2000/svg">
<path d="M20.25 3.375H3.75C3.25272 3.375 2.77581 3.57254 2.42417 3.92417C2.07254 4.27581 1.875 4.75272 1.875 5.25V20.25C1.87502 20.4418 1.92407 20.6304 2.01749 20.7979C2.11091 20.9654 2.2456 21.1062 2.40876 21.207C2.57192 21.3078 2.75814 21.3652 2.94974 21.3737C3.14133 21.3823 3.33193 21.3418 3.50344 21.2559L6 20.0081L8.49656 21.2559C8.65286 21.3341 8.82523 21.3749 9 21.3749C9.17477 21.3749 9.34714 21.3341 9.50344 21.2559L12 20.0081L14.4966 21.2559C14.6529 21.3341 14.8252 21.3749 15 21.3749C15.1748 21.3749 15.3471 21.3341 15.5034 21.2559L18 20.0081L20.4966 21.2559C20.6681 21.3418 20.8587 21.3823 21.0503 21.3737C21.2419 21.3652 21.4281 21.3078 21.5912 21.207C21.7544 21.1062 21.8891 20.9654 21.9825 20.7979C22.0759 20.6304 22.125 20.4418 22.125 20.25V5.25C22.125 4.75272 21.9275 4.27581 21.5758 3.92417C21.2242 3.57254 20.7473 3.375 20.25 3.375ZM19.875 18.4294L18.5034 17.7441C18.3471 17.6659 18.1748 17.6251 18 17.6251C17.8252 17.6251 17.6529 17.6659 17.4966 17.7441L15 18.9919L12.5034 17.7441C12.3471 17.6659 12.1748 17.6251 12 17.6251C11.8252 17.6251 11.6529 17.6659 11.4966 17.7441L9 18.9919L6.50344 17.7441C6.34714 17.6659 6.17477 17.6251 6 17.6251C5.82523 17.6251 5.65286 17.6659 5.49656 17.7441L4.125 18.4294V5.625H19.875V18.4294ZM12.75 10.125C12.75 9.82663 12.8685 9.54048 13.0795 9.3295C13.2905 9.11853 13.5766 9 13.875 9H17.25C17.5484 9 17.8345 9.11853 18.0455 9.3295C18.2565 9.54048 18.375 9.82663 18.375 10.125C18.375 10.4234 18.2565 10.7095 18.0455 10.9205C17.8345 11.1315 17.5484 11.25 17.25 11.25H13.875C13.5766 11.25 13.2905 11.1315 13.0795 10.9205C12.8685 10.7095 12.75 10.4234 12.75 10.125ZM12.75 13.875C12.75 13.5766 12.8685 13.2905 13.0795 13.0795C13.2905 12.8685 13.5766 12.75 13.875 12.75H17.25C17.5484 12.75 17.8345 12.8685 18.0455 13.0795C18.2565 13.2905 18.375 13.5766 18.375 13.875C18.375 14.1734 18.2565 14.4595 18.0455 14.6705C17.8345 14.8815 17.5484 15 17.25 15H13.875C13.5766 15 13.2905 14.8815 13.0795 14.6705C12.8685 14.4595 12.75 14.1734 12.75 13.875ZM6.75 16.125H10.5C10.7984 16.125 11.0845 16.0065 11.2955 15.7955C11.5065 15.5845 11.625 15.2984 11.625 15V9C11.625 8.70163 11.5065 8.41548 11.2955 8.2045C11.0845 7.99353 10.7984 7.875 10.5 7.875H6.75C6.45163 7.875 6.16548 7.99353 5.9545 8.2045C5.74353 8.41548 5.625 8.70163 5.625 9V15C5.625 15.2984 5.74353 15.5845 5.9545 15.7955C6.16548 16.0065 6.45163 16.125 6.75 16.125ZM7.875 10.125H9.375V13.875H7.875V10.125Z" fill="#130032"/>
</svg>
