<svg width="24" height="24" viewBox="0 0 24 24" fill="none" xmlns="http://www.w3.org/2000/svg">
<path d="M20.2568 2.91739C20.036 2.71675 19.7446 2.61204 19.4466 2.62628C19.1486 2.64052 18.8684 2.77255 18.6678 2.99332L18.3209 3.37489H12.0003C10.3555 3.37408 8.74482 3.84384 7.35836 4.72872C5.97189 5.61361 4.86752 6.87667 4.1756 8.36884C3.48368 9.861 3.23309 11.52 3.45342 13.1499C3.67374 14.7799 4.35578 16.3128 5.41903 17.5677L3.66778 19.4933C3.56635 19.6023 3.48754 19.7303 3.43594 19.8699C3.38435 20.0096 3.36098 20.1581 3.36719 20.3068C3.37341 20.4556 3.40908 20.6016 3.47215 20.7365C3.53522 20.8713 3.62442 20.9923 3.73459 21.0924C3.84477 21.1926 3.97372 21.2698 4.11397 21.3197C4.25422 21.3697 4.40299 21.3912 4.55165 21.3832C4.7003 21.3752 4.8459 21.3378 4.97998 21.2731C5.11407 21.2085 5.23399 21.1178 5.33278 21.0065L7.0831 19.0818C8.52519 20.0881 10.2418 20.6268 12.0003 20.6249H18.7503C19.0487 20.6249 19.3348 20.5064 19.5458 20.2954C19.7568 20.0844 19.8753 19.7983 19.8753 19.4999C19.8753 19.2015 19.7568 18.9154 19.5458 18.7044C19.3348 18.4934 19.0487 18.3749 18.7503 18.3749H12.0003C10.8017 18.3762 9.62743 18.0371 8.61403 17.3971L20.3328 4.50645C20.5334 4.28565 20.6381 3.99419 20.6239 3.69619C20.6096 3.39819 20.4776 3.11805 20.2568 2.91739ZM5.62528 11.9999C5.62702 10.3097 6.29923 8.68917 7.4944 7.494C8.68956 6.29883 10.3101 5.62662 12.0003 5.62489H16.2753L6.94997 15.883C6.09017 14.7713 5.6242 13.4053 5.62528 11.9999Z" fill="#130032"/>
</svg>
