<svg width="24" height="24" viewBox="0 0 24 24" fill="none" xmlns="http://www.w3.org/2000/svg">
<path d="M19.5003 17.6267H8.40684L9.77091 16.1267H14.2503C15.453 16.1258 16.631 15.7846 17.6481 15.1426C18.6652 14.5006 19.4799 13.5839 19.9981 12.4985C20.5164 11.4131 20.717 10.2033 20.5768 9.00871C20.4366 7.81414 19.9614 6.6836 19.2059 5.74768L20.3309 4.5083C20.5274 4.28685 20.6286 3.99689 20.6127 3.70128C20.5968 3.40568 20.465 3.12826 20.246 2.92916C20.0269 2.73006 19.7381 2.62534 19.4424 2.6377C19.1466 2.65006 18.8676 2.7785 18.6659 2.99518L17.5034 4.27299C16.5199 3.68583 15.3957 3.37611 14.2503 3.37674H5.25028C4.95191 3.37674 4.66577 3.49526 4.45479 3.70624C4.24381 3.91722 4.12528 4.20337 4.12528 4.50174C4.12528 4.80011 4.24381 5.08625 4.45479 5.29723C4.66577 5.50821 4.95191 5.62674 5.25028 5.62674H14.2503C14.8342 5.62637 15.4114 5.7507 15.9434 5.99143L8.77528 13.8767H5.25028C4.95191 13.8767 4.66577 13.9953 4.45479 14.2062C4.24381 14.4172 4.12528 14.7034 4.12528 15.0017C4.12528 15.3001 4.24381 15.5863 4.45479 15.7972C4.66577 16.0082 4.95191 16.1267 5.25028 16.1267H6.72966L3.66778 19.4952C3.56635 19.6041 3.48754 19.7322 3.43594 19.8718C3.38435 20.0114 3.36098 20.1599 3.36719 20.3087C3.37341 20.4574 3.40908 20.6035 3.47215 20.7383C3.53522 20.8732 3.62442 20.9942 3.73459 21.0943C3.84477 21.1944 3.97372 21.2717 4.11397 21.3216C4.25422 21.3715 4.40299 21.3931 4.55165 21.3851C4.7003 21.3771 4.8459 21.3397 4.97998 21.275C5.11407 21.2103 5.23399 21.1197 5.33278 21.0083L6.36403 19.8767H19.5003C19.7987 19.8767 20.0848 19.7582 20.2958 19.5472C20.5068 19.3363 20.6253 19.0501 20.6253 18.7517C20.6253 18.4534 20.5068 18.1672 20.2958 17.9562C20.0848 17.7453 19.7987 17.6267 19.5003 17.6267ZM17.6665 7.44174C18.0858 8.06207 18.3284 8.78483 18.3682 9.53252C18.408 10.2802 18.2435 11.0246 17.8924 11.686C17.5413 12.3473 17.0168 12.9006 16.3752 13.2865C15.7336 13.6725 14.999 13.8765 14.2503 13.8767H11.8128L17.6665 7.44174Z" fill="#130032"/>
</svg>
