<svg width="24" height="24" viewBox="0 0 24 24" fill="none" xmlns="http://www.w3.org/2000/svg">
<path d="M21.375 15.0017C21.375 15.3001 21.2565 15.5863 21.0455 15.7972C20.8345 16.0082 20.5484 16.1267 20.25 16.1267H9.77063L5.3325 21.0083C5.13079 21.225 4.85181 21.3534 4.55603 21.3658C4.26026 21.3781 3.97153 21.2734 3.75245 21.0743C3.53338 20.8752 3.4016 20.5978 3.3857 20.3022C3.36979 20.0066 3.47104 19.7166 3.6675 19.4952L6.72937 16.1267H3.75C3.45163 16.1267 3.16548 16.0082 2.9545 15.7972C2.74353 15.5863 2.625 15.3001 2.625 15.0017C2.625 14.7034 2.74353 14.4172 2.9545 14.2062C3.16548 13.9953 3.45163 13.8767 3.75 13.8767H8.775L12.1875 10.1267H3.75C3.45163 10.1267 3.16548 10.0082 2.9545 9.79723C2.74353 9.58625 2.625 9.30011 2.625 9.00174C2.625 8.70337 2.74353 8.41722 2.9545 8.20624C3.16548 7.99526 3.45163 7.87674 3.75 7.87674H14.2294L18.6675 2.99518C18.8692 2.7785 19.1482 2.65006 19.444 2.6377C19.7397 2.62534 20.0285 2.73006 20.2475 2.92916C20.4666 3.12826 20.5984 3.40568 20.6143 3.70128C20.6302 3.99689 20.529 4.28685 20.3325 4.5083L17.2706 7.87674H20.25C20.5484 7.87674 20.8345 7.99526 21.0455 8.20624C21.2565 8.41722 21.375 8.70337 21.375 9.00174C21.375 9.30011 21.2565 9.58625 21.0455 9.79723C20.8345 10.0082 20.5484 10.1267 20.25 10.1267H15.225L11.8125 13.8767H20.25C20.5484 13.8767 20.8345 13.9953 21.0455 14.2062C21.2565 14.4172 21.375 14.7034 21.375 15.0017Z" fill="#130032"/>
</svg>
