<svg width="24" height="24" viewBox="0 0 24 24" fill="none" xmlns="http://www.w3.org/2000/svg">
<path d="M20.2959 12.7957L12.7959 20.2957C12.6912 20.4004 12.567 20.4834 12.4303 20.54C12.2936 20.5967 12.147 20.6258 11.999 20.6258C11.851 20.6258 11.7045 20.5967 11.5678 20.54C11.431 20.4834 11.3068 20.4004 11.2021 20.2957C11.0975 20.1911 11.0145 20.0668 10.9579 19.9301C10.9012 19.7934 10.8721 19.6468 10.8721 19.4989C10.8721 19.3509 10.9012 19.2043 10.9579 19.0676C11.0145 18.9309 11.0975 18.8066 11.2021 18.702L18.7021 11.202C18.8068 11.0973 18.931 11.0143 19.0678 10.9577C19.2045 10.9011 19.351 10.8719 19.499 10.8719C19.647 10.8719 19.7936 10.9011 19.9303 10.9577C20.067 11.0143 20.1912 11.0973 20.2959 11.202C20.4005 11.3066 20.4836 11.4309 20.5402 11.5676C20.5968 11.7043 20.626 11.8509 20.626 11.9989C20.626 12.1468 20.5968 12.2934 20.5402 12.4301C20.4836 12.5668 20.4005 12.6911 20.2959 12.7957ZM18.7959 2.95198C18.6914 2.8471 18.5672 2.76388 18.4304 2.7071C18.2937 2.65032 18.1471 2.62109 17.999 2.62109C17.851 2.62109 17.7043 2.65032 17.5676 2.7071C17.4309 2.76388 17.3067 2.8471 17.2021 2.95198L2.95215 17.202C2.7408 17.4133 2.62207 17.7 2.62207 17.9989C2.62207 18.2977 2.7408 18.5844 2.95215 18.7957C3.16349 19.0071 3.45014 19.1258 3.74902 19.1258C4.04791 19.1258 4.33455 19.0071 4.5459 18.7957L18.7959 4.54573C18.9005 4.44125 18.9835 4.31717 19.0401 4.1806C19.0967 4.04403 19.1258 3.89764 19.1258 3.74979C19.1258 3.60195 19.0967 3.45556 19.0401 3.31899C18.9835 3.18241 18.9005 3.05834 18.7959 2.95386V2.95198Z" fill="#130032"/>
</svg>
