<svg width="24" height="24" viewBox="0 0 24 24" fill="none" xmlns="http://www.w3.org/2000/svg">
<path d="M21.7959 5.20589L18.7959 2.20589C18.6914 2.10101 18.5672 2.01779 18.4305 1.96101C18.2937 1.90423 18.1471 1.875 17.9991 1.875C17.851 1.875 17.7044 1.90423 17.5676 1.96101C17.4309 2.01779 17.3067 2.10101 17.2022 2.20589L8.20219 11.2059C7.99195 11.4174 7.87427 11.7036 7.875 12.0018V15.0018C7.875 15.3002 7.99353 15.5863 8.2045 15.7973C8.41548 16.0083 8.70163 16.1268 9 16.1268H12C12.1478 16.1269 12.2941 16.0979 12.4307 16.0415C12.5673 15.985 12.6914 15.9022 12.7959 15.7978L21.7959 6.79776C21.9005 6.69328 21.9835 6.56921 22.0401 6.43263C22.0967 6.29606 22.1259 6.14967 22.1259 6.00182C22.1259 5.85398 22.0967 5.70759 22.0401 5.57102C21.9835 5.43444 21.9005 5.31037 21.7959 5.20589ZM18 4.59557L19.4062 6.00182L18.375 7.03307L16.9688 5.62682L18 4.59557ZM11.5312 13.8768H10.125V12.4706L15.375 7.22057L16.7812 8.62682L11.5312 13.8768ZM21.375 13.1803V19.5018C21.375 19.9991 21.1775 20.476 20.8258 20.8276C20.4742 21.1793 19.9973 21.3768 19.5 21.3768H4.5C4.00272 21.3768 3.52581 21.1793 3.17417 20.8276C2.82254 20.476 2.625 19.9991 2.625 19.5018V4.50182C2.625 4.00454 2.82254 3.52763 3.17417 3.176C3.52581 2.82437 4.00272 2.62682 4.5 2.62682H10.8216C11.1199 2.62682 11.4061 2.74535 11.6171 2.95633C11.828 3.16731 11.9466 3.45346 11.9466 3.75182C11.9466 4.05019 11.828 4.33634 11.6171 4.54732C11.4061 4.7583 11.1199 4.87682 10.8216 4.87682H4.875V19.1268H19.125V13.1803C19.125 12.8819 19.2435 12.5957 19.4545 12.3848C19.6655 12.1738 19.9516 12.0553 20.25 12.0553C20.5484 12.0553 20.8345 12.1738 21.0455 12.3848C21.2565 12.5957 21.375 12.8819 21.375 13.1803Z" fill="#130032"/>
</svg>
