<svg width="24" height="24" viewBox="0 0 24 24" fill="none" xmlns="http://www.w3.org/2000/svg">
<path d="M20.625 12.375V19.5C20.625 19.9973 20.4275 20.4742 20.0758 20.8258C19.7242 21.1775 19.2473 21.375 18.75 21.375H4.5C4.00272 21.375 3.52581 21.1775 3.17417 20.8258C2.82254 20.4742 2.625 19.9973 2.625 19.5V5.25C2.625 4.75272 2.82254 4.27581 3.17417 3.92417C3.52581 3.57254 4.00272 3.375 4.5 3.375H11.625C11.9234 3.375 12.2095 3.49353 12.4205 3.7045C12.6315 3.91548 12.75 4.20163 12.75 4.5C12.75 4.79837 12.6315 5.08452 12.4205 5.2955C12.2095 5.50647 11.9234 5.625 11.625 5.625H4.875V19.125H18.375V12.375C18.375 12.0766 18.4935 11.7905 18.7045 11.5795C18.9155 11.3685 19.2016 11.25 19.5 11.25C19.7984 11.25 20.0845 11.3685 20.2955 11.5795C20.5065 11.7905 20.625 12.0766 20.625 12.375ZM22.125 5.625C22.125 6.36668 21.9051 7.0917 21.493 7.70839C21.081 8.32507 20.4953 8.80572 19.8101 9.08955C19.1248 9.37338 18.3708 9.44764 17.6434 9.30295C16.916 9.15825 16.2478 8.8011 15.7233 8.27665C15.1989 7.7522 14.8417 7.08402 14.6971 6.35659C14.5524 5.62916 14.6266 4.87516 14.9105 4.18994C15.1943 3.50471 15.6749 2.91904 16.2916 2.50699C16.9083 2.09493 17.6333 1.875 18.375 1.875C19.3696 1.875 20.3234 2.27009 21.0266 2.97335C21.7299 3.67661 22.125 4.63044 22.125 5.625ZM19.875 5.625C19.875 5.32833 19.787 5.03832 19.6222 4.79164C19.4574 4.54497 19.2231 4.35271 18.949 4.23918C18.6749 4.12565 18.3733 4.09594 18.0824 4.15382C17.7914 4.2117 17.5241 4.35456 17.3143 4.56434C17.1046 4.77412 16.9617 5.04139 16.9038 5.33236C16.8459 5.62334 16.8756 5.92494 16.9892 6.19903C17.1027 6.47311 17.295 6.70738 17.5416 6.8722C17.7883 7.03703 18.0783 7.125 18.375 7.125C18.7728 7.125 19.1544 6.96696 19.4357 6.68566C19.717 6.40436 19.875 6.02282 19.875 5.625Z" fill="#130032"/>
</svg>
