<svg width="24" height="24" viewBox="0 0 24 24" fill="none" xmlns="http://www.w3.org/2000/svg">
<path d="M20.25 3.375H16.5C16.2016 3.375 15.9155 3.49353 15.7045 3.7045C15.4935 3.91548 15.375 4.20163 15.375 4.5C15.375 4.79837 15.4935 5.08452 15.7045 5.2955C15.9155 5.50647 16.2016 5.625 16.5 5.625H17.25V15.12L11.1103 3.95813C11.0133 3.78163 10.8707 3.63441 10.6974 3.53184C10.5241 3.42927 10.3264 3.3751 10.125 3.375H3.75C3.45163 3.375 3.16548 3.49353 2.9545 3.7045C2.74353 3.91548 2.625 4.20163 2.625 4.5C2.625 4.79837 2.74353 5.08452 2.9545 5.2955C3.16548 5.50647 3.45163 5.625 3.75 5.625H4.5V18.375H3.75C3.45163 18.375 3.16548 18.4935 2.9545 18.7045C2.74353 18.9155 2.625 19.2016 2.625 19.5C2.625 19.7984 2.74353 20.0845 2.9545 20.2955C3.16548 20.5065 3.45163 20.625 3.75 20.625H7.5C7.79837 20.625 8.08452 20.5065 8.2955 20.2955C8.50647 20.0845 8.625 19.7984 8.625 19.5C8.625 19.2016 8.50647 18.9155 8.2955 18.7045C8.08452 18.4935 7.79837 18.375 7.5 18.375H6.75V8.88L12.8897 20.0419C12.9867 20.2184 13.1293 20.3656 13.3026 20.4682C13.4759 20.5707 13.6736 20.6249 13.875 20.625H18.375C18.6734 20.625 18.9595 20.5065 19.1705 20.2955C19.3815 20.0845 19.5 19.7984 19.5 19.5V5.625H20.25C20.5484 5.625 20.8345 5.50647 21.0455 5.2955C21.2565 5.08452 21.375 4.79837 21.375 4.5C21.375 4.20163 21.2565 3.91548 21.0455 3.7045C20.8345 3.49353 20.5484 3.375 20.25 3.375ZM7.52813 5.625H9.45938L16.4719 18.375H14.5406L7.52813 5.625Z" fill="#130032"/>
</svg>
