<svg width="24" height="24" viewBox="0 0 24 24" fill="none" xmlns="http://www.w3.org/2000/svg">
<path d="M8.70281 4.68753C8.92067 3.37496 9.59832 2.18268 10.6146 1.32391C11.6309 0.465134 12.9195 -0.0041318 14.25 2.74123e-05C14.5484 2.74123e-05 14.8345 0.118554 15.0455 0.329532C15.2565 0.540511 15.375 0.826659 15.375 1.12503C15.375 1.4234 15.2565 1.70954 15.0455 1.92052C14.8345 2.1315 14.5484 2.25003 14.25 2.25003C13.4516 2.24712 12.6782 2.52854 12.0684 3.04388C11.4586 3.55922 11.0522 4.27482 10.9219 5.06253C10.8776 5.32448 10.742 5.5623 10.5392 5.73389C10.3364 5.90548 10.0794 5.99976 9.81375 6.00003C9.7509 6.00027 9.68816 5.99494 9.62625 5.98409C9.48045 5.95966 9.34089 5.90673 9.21556 5.82834C9.09023 5.74994 8.98157 5.64761 8.89581 5.5272C8.81005 5.40678 8.74886 5.27065 8.71575 5.12657C8.68263 4.98249 8.67824 4.8333 8.70281 4.68753ZM13.875 3.75003C13.5766 3.75003 13.2905 3.86855 13.0795 4.07953C12.8685 4.29051 12.75 4.57666 12.75 4.87503C12.75 5.1734 12.8685 5.45954 13.0795 5.67052C13.2905 5.8815 13.5766 6.00003 13.875 6.00003H14.25C15.5425 5.99854 16.7816 5.48445 17.6955 4.57053C18.6094 3.65661 19.1235 2.4175 19.125 1.12503C19.125 0.826659 19.0065 0.540511 18.7955 0.329532C18.5845 0.118554 18.2984 2.74123e-05 18 2.74123e-05C17.7016 2.74123e-05 17.4155 0.118554 17.2045 0.329532C16.9935 0.540511 16.875 0.826659 16.875 1.12503C16.875 1.82122 16.5984 2.4889 16.1062 2.98118C15.6139 3.47347 14.9462 3.75003 14.25 3.75003H13.875ZM23.625 20.25C23.625 20.5484 23.5065 20.8345 23.2955 21.0455C23.0845 21.2565 22.7984 21.375 22.5 21.375H1.5C1.20163 21.375 0.915483 21.2565 0.704505 21.0455C0.493526 20.8345 0.375 20.5484 0.375 20.25C0.375 19.9517 0.493526 19.6655 0.704505 19.4545C0.915483 19.2436 1.20163 19.125 1.5 19.125H3.01406C4.18313 16.6378 5.47031 13.0866 5.61281 9.29909C5.62987 8.81454 5.83499 8.35569 6.18467 8.01984C6.53435 7.68398 7.0011 7.49753 7.48594 7.50003H15.7678C16.2505 7.49952 16.7148 7.68518 17.0641 8.01836C17.4133 8.35155 17.6206 8.8066 17.6428 9.28878C17.8303 13.425 19.7484 17.3963 20.6972 19.125H22.5C22.7984 19.125 23.0845 19.2436 23.2955 19.4545C23.5065 19.6655 23.625 19.9517 23.625 20.25ZM15.4125 9.75003H13.9125C14.1337 13.3678 15.3647 16.7372 16.4878 19.125H18.1547C17.055 16.9238 15.6562 13.4682 15.4125 9.75003ZM5.4825 19.125H14.0138C12.9206 16.605 11.8472 13.2985 11.6522 9.75003H7.84406C7.64906 13.2985 6.57562 16.605 5.4825 19.125Z" fill="#130032"/>
</svg>
