<svg width="24" height="24" viewBox="0 0 24 24" fill="none" xmlns="http://www.w3.org/2000/svg">
<path d="M17.625 9C17.625 7.88748 17.2951 6.79995 16.677 5.87492C16.0589 4.94989 15.1804 4.22892 14.1526 3.80318C13.1248 3.37744 11.9938 3.26604 10.9026 3.48309C9.81148 3.70013 8.8092 4.23586 8.02253 5.02253C7.23586 5.8092 6.70013 6.81148 6.48309 7.90262C6.26604 8.99376 6.37744 10.1248 6.80318 11.1526C7.22892 12.1804 7.94989 13.0589 8.87492 13.677C9.79995 14.2951 10.8875 14.625 12 14.625C12.2449 14.6246 12.4895 14.608 12.7322 14.5753L10.2694 18.9478C10.1229 19.2079 10.0858 19.5155 10.1661 19.803C10.2465 20.0904 10.4377 20.3342 10.6978 20.4806C10.9579 20.6271 11.2655 20.6642 11.553 20.5839C11.8404 20.5035 12.0842 20.3123 12.2306 20.0522L16.875 11.8022C17.3675 10.9505 17.6262 9.98382 17.625 9ZM8.625 9C8.625 8.33249 8.82294 7.67997 9.19379 7.12495C9.56464 6.56994 10.0917 6.13736 10.7084 5.88191C11.3251 5.62646 12.0037 5.55963 12.6584 5.68985C13.3131 5.82008 13.9145 6.14152 14.3865 6.61352C14.8585 7.08552 15.1799 7.68689 15.3102 8.34157C15.4404 8.99626 15.3735 9.67486 15.1181 10.2916C14.8626 10.9083 14.4301 11.4354 13.8751 11.8062C13.32 12.1771 12.6675 12.375 12 12.375C11.1049 12.375 10.2465 12.0194 9.61352 11.3865C8.98058 10.7536 8.625 9.89511 8.625 9Z" fill="#130032"/>
</svg>
