<svg width="24" height="24" viewBox="0 0 24 24" fill="none" xmlns="http://www.w3.org/2000/svg">
<path d="M19.5 2.625H4.5C4.00272 2.625 3.52581 2.82254 3.17417 3.17417C2.82254 3.52581 2.625 4.00272 2.625 4.5V19.5C2.625 19.9973 2.82254 20.4742 3.17417 20.8258C3.52581 21.1775 4.00272 21.375 4.5 21.375H19.5C19.9973 21.375 20.4742 21.1775 20.8258 20.8258C21.1775 20.4742 21.375 19.9973 21.375 19.5V4.5C21.375 4.00272 21.1775 3.52581 20.8258 3.17417C20.4742 2.82254 19.9973 2.625 19.5 2.625ZM19.125 19.125H4.875V4.875H19.125V19.125ZM10.125 13.3725C10.556 13.6205 11.0322 13.7799 11.5256 13.8412L10.2844 15.9234C10.2043 16.0504 10.1504 16.192 10.1259 16.3401C10.1014 16.4881 10.1067 16.6396 10.1417 16.7855C10.1766 16.9315 10.2403 17.069 10.3292 17.1899C10.418 17.3109 10.5302 17.4128 10.659 17.4897C10.7879 17.5667 10.9308 17.617 11.0795 17.6379C11.2281 17.6587 11.3794 17.6497 11.5244 17.6112C11.6694 17.5727 11.8053 17.5055 11.924 17.4137C12.0427 17.3219 12.1419 17.2073 12.2156 17.0766L15.2475 12C15.6184 11.3577 15.7904 10.6198 15.7419 9.87973C15.6935 9.13963 15.4266 8.43053 14.9751 7.8421C14.5236 7.25367 13.9078 6.81234 13.2054 6.57392C12.5031 6.3355 11.7459 6.3107 11.0294 6.50265C10.313 6.69461 9.66962 7.09469 9.18059 7.65232C8.69156 8.20995 8.37886 8.90007 8.28205 9.63541C8.18524 10.3707 8.30866 11.1183 8.6367 11.7835C8.96475 12.4487 9.48268 13.0017 10.125 13.3725ZM10.7006 9.375C10.8995 9.03038 11.2272 8.7789 11.6115 8.67587C11.9959 8.57285 12.4054 8.62671 12.75 8.82562C13.0946 9.02454 13.3461 9.3522 13.4491 9.73653C13.5522 10.1209 13.4983 10.5304 13.2994 10.875C13.095 11.2083 12.7685 11.4486 12.3895 11.5447C12.0105 11.6409 11.609 11.5852 11.2704 11.3897C10.9319 11.1941 10.683 10.8741 10.577 10.4978C10.4709 10.1215 10.5159 9.7186 10.7025 9.375H10.7006Z" fill="#130032"/>
</svg>
