<svg width="24" height="24" viewBox="0 0 24 24" fill="none" xmlns="http://www.w3.org/2000/svg">
<path d="M19.5 2.625H4.5C4.00272 2.625 3.52581 2.82254 3.17417 3.17417C2.82254 3.52581 2.625 4.00272 2.625 4.5V19.5C2.625 19.9973 2.82254 20.4742 3.17417 20.8258C3.52581 21.1775 4.00272 21.375 4.5 21.375H19.5C19.9973 21.375 20.4742 21.1775 20.8258 20.8258C21.1775 20.4742 21.375 19.9973 21.375 19.5V4.5C21.375 4.00272 21.1775 3.52581 20.8258 3.17417C20.4742 2.82254 19.9973 2.625 19.5 2.625ZM19.125 19.125H4.875V4.875H19.125V19.125ZM8.625 7.5C8.625 7.20163 8.74353 6.91548 8.9545 6.7045C9.16548 6.49353 9.45163 6.375 9.75 6.375H14.25C14.4558 6.37503 14.6576 6.4315 14.8335 6.53825C15.0094 6.645 15.1527 6.79795 15.2477 6.98046C15.3427 7.16297 15.3858 7.36805 15.3724 7.57337C15.359 7.7787 15.2895 7.97641 15.1716 8.145L13.4522 10.6013C13.922 10.8631 14.3299 11.223 14.6484 11.6565C14.9668 12.0899 15.1883 12.5868 15.2977 13.1134C15.4072 13.64 15.4021 14.184 15.2828 14.7084C15.1635 15.2329 14.9328 15.7255 14.6063 16.153C14.2799 16.5804 13.8653 16.9326 13.3907 17.1856C12.9161 17.4387 12.3926 17.5867 11.8557 17.6196C11.3189 17.6526 10.7813 17.5696 10.2793 17.3764C9.77735 17.1832 9.32282 16.8843 8.94656 16.5C8.83915 16.3954 8.75373 16.2703 8.69534 16.1322C8.63695 15.9941 8.60676 15.8457 8.60655 15.6957C8.60634 15.5458 8.63611 15.3973 8.69412 15.259C8.75212 15.1207 8.83718 14.9954 8.9443 14.8905C9.05143 14.7855 9.17845 14.7031 9.3179 14.6479C9.45735 14.5928 9.60642 14.5661 9.75634 14.5694C9.90626 14.5727 10.054 14.606 10.1909 14.6672C10.3278 14.7284 10.451 14.8164 10.5534 14.9259C10.7266 15.1023 10.9407 15.2332 11.1767 15.3068C11.4127 15.3805 11.6632 15.3947 11.906 15.3482C12.1488 15.3017 12.3763 15.1959 12.5683 15.0402C12.7604 14.8846 12.9109 14.6838 13.0067 14.4559C13.1024 14.228 13.1403 13.98 13.1171 13.7339C13.0938 13.4878 13.0101 13.2512 12.8734 13.0453C12.7366 12.8393 12.5511 12.6704 12.3333 12.5534C12.1155 12.4365 11.8722 12.3752 11.625 12.375C11.4192 12.375 11.2174 12.3185 11.0415 12.2118C10.8656 12.105 10.7223 11.952 10.6273 11.7695C10.5323 11.587 10.4892 11.382 10.5026 11.1766C10.516 10.9713 10.5855 10.7736 10.7034 10.605L12.0938 8.625H9.75C9.45163 8.625 9.16548 8.50647 8.9545 8.2955C8.74353 8.08452 8.625 7.79837 8.625 7.5Z" fill="#130032"/>
</svg>
