<svg width="24" height="24" viewBox="0 0 24 24" fill="none" xmlns="http://www.w3.org/2000/svg">
<path d="M12 1.875C9.99747 1.875 8.0399 2.46882 6.37486 3.58137C4.70981 4.69392 3.41206 6.27523 2.64572 8.12533C1.87939 9.97543 1.67888 12.0112 2.06955 13.9753C2.46023 15.9393 3.42454 17.7435 4.84055 19.1595C6.25656 20.5755 8.06066 21.5398 10.0247 21.9305C11.9888 22.3211 14.0246 22.1206 15.8747 21.3543C17.7248 20.5879 19.3061 19.2902 20.4186 17.6251C21.5312 15.9601 22.125 14.0025 22.125 12C22.122 9.3156 21.0543 6.74199 19.1562 4.84383C17.258 2.94567 14.6844 1.87798 12 1.875ZM12 19.875C10.4425 19.875 8.91993 19.4131 7.62489 18.5478C6.32985 17.6825 5.32049 16.4526 4.72445 15.0136C4.12841 13.5747 3.97246 11.9913 4.27632 10.4637C4.58018 8.93606 5.3302 7.53287 6.43154 6.43153C7.53288 5.3302 8.93607 4.58017 10.4637 4.27632C11.9913 3.97246 13.5747 4.12841 15.0136 4.72445C16.4526 5.32049 17.6825 6.32985 18.5478 7.62488C19.4131 8.91992 19.875 10.4425 19.875 12C19.8728 14.0879 19.0424 16.0896 17.566 17.566C16.0896 19.0424 14.0879 19.8728 12 19.875ZM15.375 14.25C15.3751 14.995 15.1533 15.7231 14.7379 16.3415C14.3225 16.9598 13.7323 17.4405 13.0427 17.7221C12.353 18.0037 11.595 18.0736 10.8655 17.9227C10.136 17.7718 9.46796 17.4071 8.94657 16.875C8.83915 16.7704 8.75374 16.6453 8.69535 16.5072C8.63696 16.3691 8.60677 16.2207 8.60656 16.0707C8.60635 15.9208 8.63612 15.7723 8.69412 15.634C8.75212 15.4957 8.83719 15.3704 8.94431 15.2655C9.05143 15.1605 9.17845 15.0781 9.3179 15.0229C9.45735 14.9678 9.60642 14.9411 9.75634 14.9444C9.90626 14.9477 10.054 14.981 10.1909 15.0422C10.3278 15.1034 10.451 15.1914 10.5534 15.3009C10.7266 15.4773 10.9407 15.6082 11.1767 15.6818C11.4127 15.7555 11.6632 15.7697 11.906 15.7232C12.1488 15.6767 12.3763 15.5709 12.5683 15.4152C12.7604 15.2596 12.9109 15.0588 13.0067 14.8309C13.1024 14.603 13.1403 14.355 13.1171 14.1089C13.0938 13.8628 13.0101 13.6262 12.8734 13.4203C12.7366 13.2143 12.5511 13.0454 12.3333 12.9284C12.1155 12.8115 11.8722 12.7502 11.625 12.75C11.4192 12.75 11.2174 12.6935 11.0415 12.5868C10.8656 12.48 10.7224 12.327 10.6273 12.1445C10.5323 11.962 10.4892 11.757 10.5026 11.5516C10.516 11.3463 10.5855 11.1486 10.7034 10.98L12.0938 9H9.75C9.45164 9 9.16549 8.88147 8.95451 8.6705C8.74353 8.45952 8.625 8.17337 8.625 7.875C8.625 7.57663 8.74353 7.29048 8.95451 7.0795C9.16549 6.86853 9.45164 6.75 9.75 6.75H14.25C14.4558 6.75003 14.6576 6.8065 14.8335 6.91325C15.0094 7.02 15.1527 7.17295 15.2477 7.35546C15.3427 7.53797 15.3859 7.74305 15.3724 7.94837C15.359 8.1537 15.2895 8.35141 15.1716 8.52L13.4522 10.9762C14.035 11.3015 14.5205 11.7763 14.8585 12.3518C15.1965 12.9273 15.3748 13.5826 15.375 14.25Z" fill="#130032"/>
</svg>
