<svg width="24" height="24" viewBox="0 0 24 24" fill="none" xmlns="http://www.w3.org/2000/svg">
<path d="M19.5 2.625H4.5C4.00272 2.625 3.52581 2.82254 3.17417 3.17417C2.82254 3.52581 2.625 4.00272 2.625 4.5V19.5C2.625 19.9973 2.82254 20.4742 3.17417 20.8258C3.52581 21.1775 4.00272 21.375 4.5 21.375H19.5C19.9973 21.375 20.4742 21.1775 20.8258 20.8258C21.1775 20.4742 21.375 19.9973 21.375 19.5V4.5C21.375 4.00272 21.1775 3.52581 20.8258 3.17417C20.4742 2.82254 19.9973 2.625 19.5 2.625ZM19.125 19.125H4.875V4.875H19.125V19.125ZM9.1875 9.62438C9.10533 9.50132 9.04823 9.36326 9.0195 9.21811C8.99076 9.07295 8.99094 8.92356 9.02002 8.77847C9.04911 8.63339 9.10653 8.49547 9.189 8.37261C9.27147 8.24975 9.37737 8.14437 9.50062 8.0625L11.7506 6.5625C11.9202 6.44939 12.1172 6.38446 12.3208 6.37464C12.5244 6.36482 12.7268 6.41048 12.9064 6.50675C13.086 6.60301 13.2361 6.74626 13.3407 6.9212C13.4452 7.09614 13.5003 7.2962 13.5 7.5V16.5C13.5 16.7984 13.3815 17.0845 13.1705 17.2955C12.9595 17.5065 12.6734 17.625 12.375 17.625C12.0766 17.625 11.7905 17.5065 11.5795 17.2955C11.3685 17.0845 11.25 16.7984 11.25 16.5V9.60187L10.7494 9.9375C10.6263 10.0197 10.4883 10.0768 10.3431 10.1055C10.198 10.1342 10.0486 10.1341 9.90347 10.105C9.75839 10.0759 9.62047 10.0185 9.49761 9.936C9.37475 9.85353 9.26937 9.74763 9.1875 9.62438Z" fill="#130032"/>
</svg>
