<svg width="24" height="24" viewBox="0 0 24 24" fill="none" xmlns="http://www.w3.org/2000/svg">
<path d="M12 1.875C9.99747 1.875 8.0399 2.46882 6.37486 3.58137C4.70981 4.69392 3.41206 6.27523 2.64572 8.12533C1.87939 9.97543 1.67888 12.0112 2.06955 13.9753C2.46023 15.9393 3.42454 17.7435 4.84055 19.1595C6.25656 20.5755 8.06066 21.5398 10.0247 21.9305C11.9888 22.3211 14.0246 22.1206 15.8747 21.3543C17.7248 20.5879 19.3061 19.2902 20.4186 17.6251C21.5312 15.9601 22.125 14.0025 22.125 12C22.122 9.3156 21.0543 6.74199 19.1562 4.84383C17.258 2.94567 14.6844 1.87798 12 1.875ZM12 19.875C10.4425 19.875 8.91993 19.4131 7.62489 18.5478C6.32985 17.6825 5.32049 16.4526 4.72445 15.0136C4.12841 13.5747 3.97246 11.9913 4.27632 10.4637C4.58018 8.93606 5.3302 7.53287 6.43154 6.43153C7.53288 5.3302 8.93607 4.58017 10.4637 4.27632C11.9913 3.97246 13.5747 4.12841 15.0136 4.72445C16.4526 5.32049 17.6825 6.32985 18.5478 7.62488C19.4131 8.91992 19.875 10.4425 19.875 12C19.8728 14.0879 19.0424 16.0896 17.566 17.566C16.0896 19.0424 14.0879 19.8728 12 19.875ZM15 13.125H14.625V7.5C14.625 7.2656 14.5518 7.03705 14.4156 6.84628C14.2794 6.65552 14.087 6.51206 13.8653 6.43596C13.6436 6.35986 13.4036 6.3549 13.179 6.42179C12.9543 6.48869 12.7562 6.62408 12.6122 6.80906L7.36219 13.5591C7.23283 13.7253 7.15273 13.9245 7.13101 14.134C7.10929 14.3435 7.14683 14.5549 7.23934 14.7441C7.33185 14.9333 7.47563 15.0928 7.6543 15.2043C7.83298 15.3159 8.03938 15.375 8.25 15.375H12.375V16.5C12.375 16.7984 12.4935 17.0845 12.7045 17.2955C12.9155 17.5065 13.2016 17.625 13.5 17.625C13.7984 17.625 14.0845 17.5065 14.2955 17.2955C14.5065 17.0845 14.625 16.7984 14.625 16.5V15.375H15C15.2984 15.375 15.5845 15.2565 15.7955 15.0455C16.0065 14.8345 16.125 14.5484 16.125 14.25C16.125 13.9516 16.0065 13.6655 15.7955 13.4545C15.5845 13.2435 15.2984 13.125 15 13.125ZM12.375 13.125H10.5506L12.375 10.7812V13.125Z" fill="#130032"/>
</svg>
