<svg width="24" height="24" viewBox="0 0 24 24" fill="none" xmlns="http://www.w3.org/2000/svg">
<path d="M12 9.3754C11.7551 9.3758 11.5105 9.3924 11.2678 9.42509L13.7306 5.05259C13.8032 4.92381 13.8496 4.78202 13.8673 4.63529C13.885 4.48857 13.8737 4.33979 13.8339 4.19745C13.7941 4.05512 13.7267 3.92201 13.6354 3.80574C13.5442 3.68946 13.431 3.59229 13.3022 3.51978C13.1734 3.44727 13.0316 3.40083 12.8849 3.38311C12.7382 3.3654 12.5894 3.37676 12.4471 3.41654C12.3047 3.45633 12.1716 3.52376 12.0553 3.61498C11.9391 3.70621 11.8419 3.81944 11.7694 3.94822L7.12502 12.2001C6.5088 13.2736 6.26388 14.5204 6.42822 15.7472C6.59257 16.9741 7.15699 18.1125 8.03402 18.9859C8.91105 19.8594 10.0517 20.4192 11.2792 20.5786C12.5067 20.738 13.7525 20.488 14.8235 19.8674C15.8945 19.2469 16.7309 18.2904 17.2031 17.1462C17.6753 16.002 17.7568 14.734 17.4352 13.5387C17.1135 12.3434 16.4066 11.2876 15.4239 10.5349C14.4413 9.78221 13.2378 9.37465 12 9.3754ZM12 18.3754C11.3325 18.3754 10.68 18.1775 10.125 17.8066C9.56995 17.4358 9.13737 16.9087 8.88192 16.292C8.62648 15.6753 8.55964 14.9967 8.68987 14.342C8.82009 13.6873 9.14153 13.0859 9.61353 12.6139C10.0855 12.1419 10.6869 11.8205 11.3416 11.6903C11.9963 11.56 12.6749 11.6269 13.2916 11.8823C13.9083 12.1378 14.4354 12.5703 14.8062 13.1254C15.1771 13.6804 15.375 14.3329 15.375 15.0004C15.375 15.8955 15.0194 16.754 14.3865 17.3869C13.7536 18.0198 12.8951 18.3754 12 18.3754Z" fill="#130032"/>
</svg>
