<svg width="24" height="24" viewBox="0 0 24 24" fill="none" xmlns="http://www.w3.org/2000/svg">
<path d="M19.5 2.625H4.5C4.00272 2.625 3.52581 2.82254 3.17417 3.17417C2.82254 3.52581 2.625 4.00272 2.625 4.5V19.5C2.625 19.9973 2.82254 20.4742 3.17417 20.8258C3.52581 21.1775 4.00272 21.375 4.5 21.375H19.5C19.9973 21.375 20.4742 21.1775 20.8258 20.8258C21.1775 20.4742 21.375 19.9973 21.375 19.5V4.5C21.375 4.00272 21.1775 3.52581 20.8258 3.17417C20.4742 2.82254 19.9973 2.625 19.5 2.625ZM19.125 19.125H4.875V4.875H19.125V19.125ZM8.625 8.25C8.625 7.95163 8.74353 7.66548 8.9545 7.4545C9.16548 7.24353 9.45163 7.125 9.75 7.125H14.25C14.4308 7.12497 14.609 7.16853 14.7694 7.25199C14.9299 7.33546 15.0678 7.45637 15.1716 7.60447C15.2753 7.75258 15.3419 7.92351 15.3655 8.10279C15.3892 8.28208 15.3693 8.46442 15.3075 8.63437L12.3075 16.8844C12.257 17.0232 12.1797 17.1508 12.0799 17.2598C11.9801 17.3688 11.8599 17.4571 11.726 17.5196C11.5921 17.5821 11.4472 17.6176 11.2996 17.6241C11.152 17.6306 11.0045 17.608 10.8656 17.5575C10.7268 17.507 10.5992 17.4297 10.4902 17.3299C10.3812 17.2301 10.2929 17.1099 10.2304 16.976C10.1679 16.8421 10.1324 16.6972 10.1259 16.5496C10.1194 16.402 10.142 16.2545 10.1925 16.1156L12.6441 9.375H9.75C9.45163 9.375 9.16548 9.25647 8.9545 9.0455C8.74353 8.83452 8.625 8.54837 8.625 8.25Z" fill="#130032"/>
</svg>
