<svg width="24" height="24" viewBox="0 0 24 24" fill="none" xmlns="http://www.w3.org/2000/svg">
<path d="M15.2288 11.1486C15.9703 10.4931 16.4947 9.6274 16.7324 8.66662C16.97 7.70584 16.9096 6.69548 16.5591 5.76988C16.2087 4.84427 15.5848 4.04726 14.7704 3.4848C13.956 2.92235 12.9897 2.62109 12 2.62109C11.0103 2.62109 10.044 2.92235 9.22959 3.4848C8.41521 4.04726 7.79132 4.84427 7.44086 5.76988C7.09039 6.69548 7.02997 7.70584 7.26761 8.66662C7.50526 9.6274 8.02971 10.4931 8.77125 11.1486C7.79188 11.8351 7.05683 12.8159 6.67282 13.9486C6.28881 15.0813 6.27583 16.3069 6.63578 17.4475C6.99573 18.5881 7.70985 19.5842 8.67447 20.2913C9.63909 20.9984 10.804 21.3797 12 21.3797C13.196 21.3797 14.3609 20.9984 15.3255 20.2913C16.2901 19.5842 17.0043 18.5881 17.3642 17.4475C17.7242 16.3069 17.7112 15.0813 17.3272 13.9486C16.9432 12.8159 16.2081 11.8351 15.2288 11.1486ZM9.375 7.50079C9.375 6.98161 9.52895 6.47409 9.81739 6.04242C10.1058 5.61074 10.5158 5.27428 10.9955 5.0756C11.4751 4.87692 12.0029 4.82494 12.5121 4.92623C13.0213 5.02751 13.489 5.27752 13.8562 5.64463C14.2233 6.01174 14.4733 6.47947 14.5746 6.98868C14.6758 7.49788 14.6239 8.02567 14.4252 8.50533C14.2265 8.98499 13.8901 9.39496 13.4584 9.6834C13.0267 9.97183 12.5192 10.1258 12 10.1258C11.3038 10.1258 10.6361 9.84923 10.1438 9.35694C9.65156 8.86466 9.375 8.19698 9.375 7.50079ZM12 19.1258C11.3325 19.1258 10.68 18.9278 10.125 18.557C9.56994 18.1861 9.13735 17.659 8.88191 17.0423C8.62646 16.4256 8.55962 15.747 8.68985 15.0924C8.82007 14.4377 9.14151 13.8363 9.61352 13.3643C10.0855 12.8923 10.6869 12.5709 11.3416 12.4406C11.9963 12.3104 12.6749 12.3772 13.2916 12.6327C13.9083 12.8881 14.4354 13.3207 14.8062 13.8757C15.1771 14.4308 15.375 15.0833 15.375 15.7508C15.375 16.6459 15.0194 17.5043 14.3865 18.1373C13.7536 18.7702 12.8951 19.1258 12 19.1258Z" fill="#130032"/>
</svg>
