<svg width="24" height="24" viewBox="0 0 24 24" fill="none" xmlns="http://www.w3.org/2000/svg">
<path d="M12 1.875C9.99747 1.875 8.0399 2.46882 6.37486 3.58137C4.70981 4.69392 3.41206 6.27523 2.64572 8.12533C1.87939 9.97543 1.67888 12.0112 2.06955 13.9753C2.46023 15.9393 3.42454 17.7435 4.84055 19.1595C6.25656 20.5755 8.06066 21.5398 10.0247 21.9305C11.9888 22.3211 14.0246 22.1206 15.8747 21.3543C17.7248 20.5879 19.3061 19.2902 20.4186 17.6251C21.5312 15.9601 22.125 14.0025 22.125 12C22.122 9.3156 21.0543 6.74199 19.1562 4.84383C17.258 2.94567 14.6844 1.87798 12 1.875ZM12 19.875C10.4425 19.875 8.91993 19.4131 7.62489 18.5478C6.32985 17.6825 5.32049 16.4526 4.72445 15.0136C4.12841 13.5747 3.97246 11.9913 4.27632 10.4637C4.58018 8.93606 5.3302 7.53287 6.43154 6.43153C7.53288 5.3302 8.93607 4.58017 10.4637 4.27632C11.9913 3.97246 13.5747 4.12841 15.0136 4.72445C16.4526 5.32049 17.6825 6.32985 18.5478 7.62488C19.4131 8.91992 19.875 10.4425 19.875 12C19.8728 14.0879 19.0424 16.0896 17.566 17.566C16.0896 19.0424 14.0879 19.8728 12 19.875ZM14.6953 11.7816L12 15.375H14.25C14.5484 15.375 14.8345 15.4935 15.0455 15.7045C15.2565 15.9155 15.375 16.2016 15.375 16.5C15.375 16.7984 15.2565 17.0845 15.0455 17.2955C14.8345 17.5065 14.5484 17.625 14.25 17.625H9.75C9.54108 17.625 9.33628 17.5668 9.15856 17.457C8.98083 17.3471 8.83721 17.19 8.74377 17.0031C8.65034 16.8162 8.61079 16.6071 8.62955 16.399C8.64831 16.1909 8.72465 15.9921 8.85 15.825L12.8972 10.4288C12.9948 10.2993 13.0633 10.1502 13.0979 9.99175C13.1326 9.83331 13.1325 9.66926 13.0978 9.51084C13.0631 9.35242 12.9946 9.20338 12.8969 9.07392C12.7993 8.94446 12.6747 8.83765 12.5319 8.7608C12.3891 8.68396 12.2314 8.63891 12.0695 8.62872C11.9077 8.61854 11.7455 8.64347 11.5942 8.70181C11.4429 8.76014 11.306 8.8505 11.1928 8.9667C11.0797 9.08289 10.993 9.22218 10.9388 9.375C10.8393 9.65634 10.6322 9.88664 10.3629 10.0153C10.0936 10.1439 9.78431 10.1602 9.50297 10.0608C9.22164 9.96133 8.99133 9.75418 8.86272 9.48492C8.73411 9.21566 8.71774 8.90634 8.81719 8.625C8.93279 8.29984 9.09717 7.99416 9.30469 7.71844C9.8435 7.0036 10.6442 6.53207 11.5307 6.40759C11.9696 6.34596 12.4164 6.37138 12.8455 6.48241C13.2746 6.59344 13.6776 6.7879 14.0316 7.05469C14.3855 7.32148 14.6835 7.65537 14.9084 8.0373C15.1333 8.41923 15.2808 8.84173 15.3424 9.28066C15.404 9.71959 15.3786 10.1664 15.2676 10.5955C15.1566 11.0246 14.9621 11.4276 14.6953 11.7816Z" fill="#130032"/>
</svg>
