<svg width="24" height="24" viewBox="0 0 24 24" fill="none" xmlns="http://www.w3.org/2000/svg">
<path d="M12 1.875C9.99747 1.875 8.0399 2.46882 6.37486 3.58137C4.70981 4.69392 3.41206 6.27523 2.64572 8.12533C1.87939 9.97543 1.67888 12.0112 2.06955 13.9753C2.46023 15.9393 3.42454 17.7435 4.84055 19.1595C6.25656 20.5755 8.06066 21.5398 10.0247 21.9305C11.9888 22.3211 14.0246 22.1206 15.8747 21.3543C17.7248 20.5879 19.3061 19.2902 20.4186 17.6251C21.5312 15.9601 22.125 14.0025 22.125 12C22.122 9.3156 21.0543 6.74199 19.1562 4.84383C17.258 2.94567 14.6844 1.87798 12 1.875ZM12 19.875C10.4425 19.875 8.91993 19.4131 7.62489 18.5478C6.32985 17.6825 5.32049 16.4526 4.72445 15.0136C4.12841 13.5747 3.97246 11.9913 4.27632 10.4637C4.58018 8.93606 5.3302 7.53287 6.43154 6.43153C7.53288 5.3302 8.93607 4.58017 10.4637 4.27632C11.9913 3.97246 13.5747 4.12841 15.0136 4.72445C16.4526 5.32049 17.6825 6.32985 18.5478 7.62488C19.4131 8.91992 19.875 10.4425 19.875 12C19.8728 14.0879 19.0424 16.0896 17.566 17.566C16.0896 19.0424 14.0879 19.8728 12 19.875ZM13.5 7.5V16.5C13.5 16.7984 13.3815 17.0845 13.1705 17.2955C12.9595 17.5065 12.6734 17.625 12.375 17.625C12.0766 17.625 11.7905 17.5065 11.5795 17.2955C11.3685 17.0845 11.25 16.7984 11.25 16.5V9.60187L10.7494 9.9375C10.5007 10.1031 10.1965 10.1631 9.90359 10.1044C9.61068 10.0457 9.3531 9.87302 9.1875 9.62438C9.02191 9.37573 8.96187 9.0715 9.02059 8.77859C9.07931 8.48568 9.25199 8.22809 9.50063 8.0625L11.7506 6.5625C11.9202 6.44939 12.1172 6.38446 12.3208 6.37464C12.5244 6.36482 12.7268 6.41048 12.9064 6.50675C13.086 6.60301 13.2361 6.74626 13.3407 6.9212C13.4452 7.09614 13.5003 7.2962 13.5 7.5Z" fill="#130032"/>
</svg>
