<svg width="24" height="24" viewBox="0 0 24 24" fill="none" xmlns="http://www.w3.org/2000/svg">
<path d="M12 17.625C14.6494 17.625 16.5 15.3122 16.5 12C16.5 8.68781 14.6494 6.375 12 6.375C9.35063 6.375 7.5 8.68781 7.5 12C7.5 15.3122 9.35063 17.625 12 17.625ZM12 8.625C14.1872 8.625 14.25 11.655 14.25 12C14.25 12.345 14.1872 15.375 12 15.375C9.81281 15.375 9.75 12.345 9.75 12C9.75 11.655 9.81281 8.625 12 8.625ZM19.5 2.625H4.5C4.00272 2.625 3.52581 2.82254 3.17417 3.17417C2.82254 3.52581 2.625 4.00272 2.625 4.5V19.5C2.625 19.9973 2.82254 20.4742 3.17417 20.8258C3.52581 21.1775 4.00272 21.375 4.5 21.375H19.5C19.9973 21.375 20.4742 21.1775 20.8258 20.8258C21.1775 20.4742 21.375 19.9973 21.375 19.5V4.5C21.375 4.00272 21.1775 3.52581 20.8258 3.17417C20.4742 2.82254 19.9973 2.625 19.5 2.625ZM19.125 19.125H4.875V4.875H19.125V19.125Z" fill="#130032"/>
</svg>
