<svg width="24" height="24" viewBox="0 0 24 24" fill="none" xmlns="http://www.w3.org/2000/svg">
<path d="M12 1.875C9.99747 1.875 8.0399 2.46882 6.37486 3.58137C4.70981 4.69392 3.41206 6.27523 2.64572 8.12533C1.87939 9.97543 1.67888 12.0112 2.06955 13.9753C2.46023 15.9393 3.42454 17.7435 4.84055 19.1595C6.25656 20.5755 8.06066 21.5398 10.0247 21.9305C11.9888 22.3211 14.0246 22.1206 15.8747 21.3543C17.7248 20.5879 19.3061 19.2902 20.4186 17.6251C21.5312 15.9601 22.125 14.0025 22.125 12C22.122 9.3156 21.0543 6.74199 19.1562 4.84383C17.258 2.94567 14.6844 1.87798 12 1.875ZM12 19.875C10.4425 19.875 8.91993 19.4131 7.62489 18.5478C6.32985 17.6825 5.32049 16.4526 4.72445 15.0136C4.12841 13.5747 3.97246 11.9913 4.27632 10.4637C4.58018 8.93606 5.3302 7.53287 6.43154 6.43153C7.53288 5.3302 8.93607 4.58017 10.4637 4.27632C11.9913 3.97246 13.5747 4.12841 15.0136 4.72445C16.4526 5.32049 17.6825 6.32985 18.5478 7.62488C19.4131 8.91992 19.875 10.4425 19.875 12C19.8728 14.0879 19.0424 16.0896 17.566 17.566C16.0896 19.0424 14.0879 19.8728 12 19.875ZM12.4744 10.1559L13.7156 8.07656C13.7957 7.94965 13.8496 7.80799 13.8741 7.65994C13.8986 7.51188 13.8933 7.36042 13.8584 7.21446C13.8234 7.06851 13.7597 6.93102 13.6708 6.81008C13.582 6.68914 13.4698 6.58721 13.341 6.51027C13.2121 6.43334 13.0692 6.38296 12.9206 6.3621C12.7719 6.34125 12.6207 6.35034 12.4756 6.38884C12.3306 6.42734 12.1947 6.49447 12.076 6.58629C11.9573 6.6781 11.8581 6.79273 11.7844 6.92344L8.76188 11.9859C8.35589 12.6821 8.18499 13.4906 8.27449 14.2915C8.36399 15.0924 8.70913 15.8432 9.25877 16.4326C9.80842 17.022 10.5333 17.4186 11.326 17.5637C12.1188 17.7089 12.9372 17.5947 13.66 17.2383C14.3828 16.8818 14.9715 16.302 15.3389 15.5847C15.7063 14.8674 15.8329 14.0508 15.6998 13.256C15.5668 12.4611 15.1812 11.7303 14.6003 11.1717C14.0193 10.6132 13.2739 10.2567 12.4744 10.155V10.1559ZM12 15.375C11.7033 15.375 11.4133 15.287 11.1666 15.1222C10.92 14.9574 10.7277 14.7231 10.6142 14.449C10.5007 14.1749 10.4709 13.8733 10.5288 13.5824C10.5867 13.2914 10.7296 13.0241 10.9393 12.8143C11.1491 12.6046 11.4164 12.4617 11.7074 12.4038C11.9983 12.3459 12.2999 12.3756 12.574 12.4892C12.8481 12.6027 13.0824 12.795 13.2472 13.0416C13.412 13.2883 13.5 13.5783 13.5 13.875C13.5 14.2728 13.342 14.6544 13.0607 14.9357C12.7794 15.217 12.3978 15.375 12 15.375Z" fill="#130032"/>
</svg>
