<svg width="24" height="24" viewBox="0 0 24 24" fill="none" xmlns="http://www.w3.org/2000/svg">
<path d="M13.8752 4.49979V19.4998C13.8752 19.7982 13.7566 20.0843 13.5456 20.2953C13.3347 20.5063 13.0485 20.6248 12.7502 20.6248C12.4518 20.6248 12.1656 20.5063 11.9547 20.2953C11.7437 20.0843 11.6252 19.7982 11.6252 19.4998V6.48635L9.57859 7.71447C9.32302 7.86151 9.01994 7.90233 8.73457 7.82815C8.4492 7.75398 8.20436 7.57074 8.05274 7.31787C7.90111 7.06499 7.85482 6.7627 7.92383 6.47604C7.99283 6.18938 8.17162 5.94127 8.42171 5.7851L12.1717 3.5351C12.3424 3.43276 12.5372 3.37755 12.7362 3.37509C12.9352 3.37262 13.1313 3.423 13.3045 3.52108C13.4777 3.61916 13.6218 3.76142 13.722 3.93336C13.8223 4.1053 13.8751 4.30076 13.8752 4.49979Z" fill="#130032"/>
</svg>
