<svg width="24" height="24" viewBox="0 0 24 24" fill="none" xmlns="http://www.w3.org/2000/svg">
<path d="M19.5 2.625H4.5C4.00272 2.625 3.52581 2.82254 3.17417 3.17417C2.82254 3.52581 2.625 4.00272 2.625 4.5V19.5C2.625 19.9973 2.82254 20.4742 3.17417 20.8258C3.52581 21.1775 4.00272 21.375 4.5 21.375H19.5C19.9973 21.375 20.4742 21.1775 20.8258 20.8258C21.1775 20.4742 21.375 19.9973 21.375 19.5V4.5C21.375 4.00272 21.1775 3.52581 20.8258 3.17417C20.4742 2.82254 19.9973 2.625 19.5 2.625ZM19.125 19.125H4.875V4.875H19.125V19.125ZM8.25 15.375H12.375V16.5C12.375 16.7984 12.4935 17.0845 12.7045 17.2955C12.9155 17.5065 13.2016 17.625 13.5 17.625C13.7984 17.625 14.0845 17.5065 14.2955 17.2955C14.5065 17.0845 14.625 16.7984 14.625 16.5V15.375H15C15.2984 15.375 15.5845 15.2565 15.7955 15.0455C16.0065 14.8345 16.125 14.5484 16.125 14.25C16.125 13.9516 16.0065 13.6655 15.7955 13.4545C15.5845 13.2435 15.2984 13.125 15 13.125H14.625V7.5C14.625 7.2656 14.5518 7.03705 14.4156 6.84628C14.2794 6.65552 14.087 6.51206 13.8653 6.43596C13.6436 6.35986 13.4036 6.3549 13.179 6.42179C12.9543 6.48869 12.7562 6.62408 12.6122 6.80906L7.36219 13.5591C7.23283 13.7253 7.15273 13.9245 7.13101 14.134C7.10929 14.3435 7.14682 14.5549 7.23933 14.7441C7.33185 14.9333 7.47562 15.0928 7.6543 15.2043C7.83297 15.3159 8.03937 15.375 8.25 15.375ZM12.375 10.7812V13.125H10.5506L12.375 10.7812Z" fill="#130032"/>
</svg>
