<svg width="24" height="24" viewBox="0 0 24 24" fill="none" xmlns="http://www.w3.org/2000/svg">
<path d="M16.8748 15C16.8748 16.0859 16.5604 17.1485 15.9698 18.0596C15.3791 18.9708 14.5374 19.6915 13.5461 20.1348C12.5549 20.5781 11.4565 20.725 10.3836 20.5578C9.3107 20.3906 8.30913 19.9164 7.49978 19.1925C7.38579 19.0951 7.29241 18.976 7.22513 18.842C7.15784 18.708 7.11802 18.5619 7.10799 18.4124C7.09796 18.2628 7.11793 18.1127 7.16672 17.9709C7.21552 17.8292 7.29215 17.6986 7.39212 17.5869C7.49209 17.4752 7.61339 17.3846 7.74887 17.3204C7.88436 17.2562 8.03131 17.2198 8.18108 17.2132C8.33085 17.2066 8.48043 17.23 8.62103 17.2821C8.76162 17.3341 8.89039 17.4137 8.99978 17.5162C9.4076 17.8808 9.89791 18.1408 10.4285 18.2737C10.9591 18.4067 11.5141 18.4088 12.0456 18.2796C12.5772 18.1505 13.0694 17.8942 13.4798 17.5326C13.8903 17.1711 14.2067 16.7152 14.4019 16.2042C14.5971 15.6932 14.6651 15.1424 14.6001 14.5992C14.5352 14.0561 14.3392 13.5369 14.029 13.0863C13.7189 12.6358 13.3039 12.2673 12.8197 12.0128C12.3356 11.7582 11.7968 11.6251 11.2498 11.625C11.0409 11.625 10.8361 11.5668 10.6583 11.457C10.4806 11.3471 10.337 11.19 10.2435 11.0031C10.1501 10.8162 10.1106 10.6071 10.1293 10.399C10.1481 10.1909 10.2244 9.99214 10.3498 9.825L13.4998 5.625H8.24978C7.95141 5.625 7.66526 5.50647 7.45428 5.2955C7.24331 5.08452 7.12478 4.79837 7.12478 4.5C7.12478 4.20163 7.24331 3.91548 7.45428 3.7045C7.66526 3.49353 7.95141 3.375 8.24978 3.375H15.7498C15.9587 3.375 16.1635 3.43318 16.3412 3.54302C16.5189 3.65286 16.6626 3.81002 16.756 3.99688C16.8494 4.18375 16.889 4.39295 16.8702 4.60103C16.8515 4.80911 16.7751 5.00786 16.6498 5.175L13.2298 9.735C14.2999 10.139 15.2217 10.859 15.8728 11.7995C16.5239 12.7399 16.8733 13.8562 16.8748 15Z" fill="#130032"/>
</svg>
