<svg width="24" height="24" viewBox="0 0 24 24" fill="none" xmlns="http://www.w3.org/2000/svg">
<path d="M16.875 19.4996C16.875 19.798 16.7565 20.0842 16.5455 20.2951C16.3345 20.5061 16.0484 20.6246 15.75 20.6246H8.25C8.04107 20.6246 7.83628 20.5665 7.65855 20.4566C7.48083 20.3468 7.3372 20.1896 7.24377 20.0028C7.15034 19.8159 7.11078 19.6067 7.12955 19.3986C7.14831 19.1905 7.22465 18.9918 7.35 18.8246L14.0953 9.83214C14.3195 9.53635 14.4784 9.19639 14.5616 8.83467C14.6448 8.47295 14.6503 8.09771 14.5778 7.73371C14.5053 7.36971 14.3564 7.02521 14.141 6.72297C13.9256 6.42072 13.6486 6.16759 13.3281 5.98027C13.0077 5.79296 12.6512 5.67573 12.2822 5.63631C11.9131 5.59689 11.5399 5.63618 11.1871 5.75159C10.8344 5.86699 10.5101 6.0559 10.2357 6.30583C9.96133 6.55576 9.74306 6.86103 9.59531 7.20151C9.47572 7.47502 9.25237 7.68981 8.97441 7.79864C8.69644 7.90747 8.38663 7.90142 8.11313 7.78183C7.83962 7.66223 7.62483 7.43888 7.516 7.16092C7.40717 6.88295 7.41322 6.57314 7.53281 6.29964C7.68553 5.95062 7.8784 5.62058 8.1075 5.3162C8.88562 4.2836 10.0421 3.60239 11.3224 3.42245C11.9564 3.33334 12.6017 3.36999 13.2216 3.53028C13.8414 3.69058 14.4236 3.97138 14.9348 4.35667C15.4461 4.74195 15.8765 5.22418 16.2015 5.7758C16.5264 6.32742 16.7395 6.93764 16.8286 7.57162C16.9177 8.20559 16.8811 8.85091 16.7208 9.47073C16.5605 10.0905 16.2797 10.6727 15.8944 11.184L10.5 18.3746H15.75C16.0484 18.3746 16.3345 18.4932 16.5455 18.7041C16.7565 18.9151 16.875 19.2013 16.875 19.4996Z" fill="#130032"/>
</svg>
