<svg width="24" height="24" viewBox="0 0 24 24" fill="none" xmlns="http://www.w3.org/2000/svg">
<path d="M19.5 2.625H4.5C4.00272 2.625 3.52581 2.82254 3.17417 3.17417C2.82254 3.52581 2.625 4.00272 2.625 4.5V19.5C2.625 19.9973 2.82254 20.4742 3.17417 20.8258C3.52581 21.1775 4.00272 21.375 4.5 21.375H19.5C19.9973 21.375 20.4742 21.1775 20.8258 20.8258C21.1775 20.4742 21.375 19.9973 21.375 19.5V4.5C21.375 4.00272 21.1775 3.52581 20.8258 3.17417C20.4742 2.82254 19.9973 2.625 19.5 2.625ZM19.125 19.125H4.875V4.875H19.125V19.125ZM8.64 11.8125L9.39 7.3125C9.43433 7.05023 9.57015 6.81216 9.77336 6.64053C9.97657 6.4689 10.234 6.37483 10.5 6.375H14.25C14.5484 6.375 14.8345 6.49353 15.0455 6.7045C15.2565 6.91548 15.375 7.20163 15.375 7.5C15.375 7.79837 15.2565 8.08452 15.0455 8.2955C14.8345 8.50647 14.5484 8.625 14.25 8.625H11.4534L11.1994 10.1466C11.3408 10.1323 11.4829 10.1251 11.625 10.125C12.6196 10.125 13.5734 10.5201 14.2767 11.2233C14.9799 11.9266 15.375 12.8804 15.375 13.875C15.375 14.8696 14.9799 15.8234 14.2767 16.5267C13.5734 17.2299 12.6196 17.625 11.625 17.625C11.1285 17.6324 10.6355 17.54 10.1754 17.3532C9.71526 17.1664 9.29738 16.889 8.94656 16.5375C8.84315 16.432 8.76152 16.3071 8.70636 16.1701C8.65119 16.033 8.62356 15.8865 8.62504 15.7387C8.62652 15.591 8.65708 15.445 8.71498 15.3091C8.77288 15.1732 8.85699 15.05 8.9625 14.9466C9.06801 14.8431 9.19285 14.7615 9.32991 14.7064C9.46696 14.6512 9.61354 14.6236 9.76127 14.625C9.909 14.6265 10.055 14.6571 10.1909 14.715C10.3268 14.7729 10.45 14.857 10.5534 14.9625C10.6948 15.1003 10.8627 15.2079 11.0469 15.2788C11.2311 15.3497 11.4278 15.3824 11.625 15.375C12.0228 15.375 12.4044 15.217 12.6857 14.9357C12.967 14.6544 13.125 14.2728 13.125 13.875C13.125 13.4772 12.967 13.0956 12.6857 12.8143C12.4044 12.533 12.0228 12.375 11.625 12.375C11.4278 12.3676 11.2311 12.4003 11.0469 12.4712C10.8627 12.5421 10.6948 12.6497 10.5534 12.7875C10.3858 12.9589 10.1678 13.0723 9.93128 13.1111C9.69472 13.1499 9.45194 13.1122 9.23834 13.0033C9.02475 12.8945 8.8515 12.7202 8.74387 12.506C8.63624 12.2918 8.59984 12.0488 8.64 11.8125Z" fill="#130032"/>
</svg>
