<svg width="24" height="24" viewBox="0 0 24 24" fill="none" xmlns="http://www.w3.org/2000/svg">
<path d="M16.8748 15C16.8748 16.0859 16.5604 17.1485 15.9698 18.0596C15.3791 18.9708 14.5374 19.6915 13.5461 20.1348C12.5549 20.5781 11.4565 20.725 10.3836 20.5578C9.3107 20.3906 8.30913 19.9164 7.49978 19.1925C7.38579 19.0951 7.29241 18.976 7.22513 18.842C7.15784 18.708 7.11802 18.5619 7.10799 18.4124C7.09796 18.2628 7.11793 18.1127 7.16672 17.9709C7.21552 17.8292 7.29215 17.6986 7.39212 17.5869C7.49209 17.4752 7.61339 17.3846 7.74887 17.3204C7.88436 17.2562 8.03131 17.2198 8.18108 17.2132C8.33085 17.2066 8.48043 17.23 8.62103 17.2821C8.76162 17.3341 8.89039 17.4137 8.99978 17.5162C9.48273 17.948 10.0797 18.2316 10.7195 18.3332C11.3593 18.4349 12.0148 18.3503 12.6077 18.0895C13.2007 17.8287 13.7061 17.4028 14.0636 16.8626C14.4211 16.3224 14.6156 15.6907 14.6238 15.043C14.6321 14.3952 14.4537 13.7588 14.1101 13.2097C13.7664 12.6605 13.272 12.2219 12.6858 11.9461C12.0997 11.6704 11.4465 11.5691 10.8044 11.6545C10.1622 11.7398 9.55824 12.0082 9.06447 12.4275C8.88646 12.5788 8.66576 12.6709 8.43302 12.6911C8.20027 12.7113 7.96701 12.6585 7.76563 12.5401C7.56424 12.4217 7.40472 12.2435 7.3092 12.0303C7.21368 11.8171 7.18691 11.5794 7.23259 11.3503L8.64634 4.27969C8.69729 4.02456 8.83509 3.79497 9.03628 3.63002C9.23747 3.46507 9.48961 3.37495 9.74978 3.375H15.7498C16.0481 3.375 16.3343 3.49353 16.5453 3.7045C16.7563 3.91548 16.8748 4.20163 16.8748 4.5C16.8748 4.79837 16.7563 5.08452 16.5453 5.2955C16.3343 5.50647 16.0481 5.625 15.7498 5.625H10.6723L9.88853 9.54281C10.7176 9.33602 11.583 9.32085 12.4188 9.49843C13.2546 9.67602 14.039 10.0417 14.7125 10.5677C15.3859 11.0937 15.9306 11.7663 16.3052 12.5343C16.6799 13.3022 16.8747 14.1455 16.8748 15Z" fill="#130032"/>
</svg>
