<svg width="24" height="24" viewBox="0 0 24 24" fill="none" xmlns="http://www.w3.org/2000/svg">
<path d="M16.8272 4.82344L12.3272 19.8234C12.2577 20.0551 12.1153 20.2582 11.9213 20.4025C11.7273 20.5469 11.4919 20.6249 11.25 20.625C11.1404 20.6251 11.0314 20.609 10.9266 20.5772C10.6416 20.4906 10.4026 20.2945 10.2621 20.0319C10.1215 19.7693 10.0907 19.4618 10.1766 19.1766L14.2378 5.625H8.25C7.95163 5.625 7.66548 5.50647 7.4545 5.2955C7.24353 5.08452 7.125 4.79837 7.125 4.5C7.125 4.20163 7.24353 3.91548 7.4545 3.7045C7.66548 3.49353 7.95163 3.375 8.25 3.375H15.75C15.9254 3.37505 16.0983 3.4161 16.255 3.49486C16.4117 3.57363 16.5478 3.68793 16.6524 3.82865C16.7571 3.96937 16.8274 4.13261 16.8577 4.30533C16.8881 4.47805 16.8776 4.65547 16.8272 4.82344Z" fill="#130032"/>
</svg>
