<svg width="24" height="24" viewBox="0 0 24 24" fill="none" xmlns="http://www.w3.org/2000/svg">
<path d="M19.5 2.625H4.5C4.00272 2.625 3.52581 2.82254 3.17417 3.17417C2.82254 3.52581 2.625 4.00272 2.625 4.5V19.5C2.625 19.9973 2.82254 20.4742 3.17417 20.8258C3.52581 21.1775 4.00272 21.375 4.5 21.375H19.5C19.9973 21.375 20.4742 21.1775 20.8258 20.8258C21.1775 20.4742 21.375 19.9973 21.375 19.5V4.5C21.375 4.00272 21.1775 3.52581 20.8258 3.17417C20.4742 2.82254 19.9973 2.625 19.5 2.625ZM19.125 19.125H4.875V4.875H19.125V19.125ZM12.8972 10.4288C12.9864 10.3108 13.0514 10.1764 13.0886 10.0333C13.1258 9.89015 13.1344 9.74109 13.114 9.59464C13.0935 9.44818 13.0444 9.30719 12.9694 9.17974C12.8944 9.05229 12.795 8.94088 12.6769 8.85187C12.4386 8.67245 12.1389 8.59497 11.8436 8.63646C11.5482 8.67795 11.2815 8.83501 11.1019 9.07312C11.032 9.16457 10.977 9.26644 10.9388 9.375C10.8393 9.65634 10.6322 9.88664 10.3629 10.0153C10.0936 10.1439 9.78431 10.1602 9.50297 10.0608C9.22163 9.96133 8.99133 9.75418 8.86272 9.48492C8.73411 9.21566 8.71773 8.90634 8.81719 8.625C8.93298 8.29993 9.09735 7.99428 9.30469 7.71844C9.84349 7.0036 10.6442 6.53207 11.5307 6.40759C11.9696 6.34596 12.4164 6.37138 12.8455 6.48241C13.2746 6.59344 13.6776 6.7879 14.0316 7.05469C14.3855 7.32148 14.6835 7.65537 14.9084 8.0373C15.1333 8.41923 15.2808 8.84173 15.3424 9.28066C15.404 9.71959 15.3786 10.1664 15.2676 10.5955C15.1566 11.0246 14.9621 11.4276 14.6953 11.7816L12 15.375H14.25C14.5484 15.375 14.8345 15.4935 15.0455 15.7045C15.2565 15.9155 15.375 16.2016 15.375 16.5C15.375 16.7984 15.2565 17.0845 15.0455 17.2955C14.8345 17.5065 14.5484 17.625 14.25 17.625H9.75C9.54107 17.625 9.33628 17.5668 9.15855 17.457C8.98083 17.3471 8.8372 17.19 8.74377 17.0031C8.65034 16.8162 8.61078 16.6071 8.62955 16.399C8.64831 16.1909 8.72464 15.9921 8.85 15.825L12.8972 10.4288Z" fill="#130032"/>
</svg>
