<svg width="24" height="24" viewBox="0 0 24 24" fill="none" xmlns="http://www.w3.org/2000/svg">
<path d="M17.2502 14.6253H16.1252V4.50029C16.1253 4.26716 16.0529 4.03976 15.9181 3.84954C15.7833 3.65932 15.5928 3.51568 15.3728 3.43848C15.1528 3.36127 14.9143 3.35432 14.6902 3.41858C14.4661 3.48283 14.2674 3.61513 14.1218 3.79717L5.1218 15.0472C4.98932 15.2126 4.90628 15.4122 4.88225 15.6228C4.85822 15.8334 4.89418 16.0465 4.98599 16.2375C5.0778 16.4286 5.22171 16.5898 5.40115 16.7027C5.5806 16.8155 5.78827 16.8753 6.00024 16.8753H13.8752V19.5003C13.8752 19.7987 13.9938 20.0848 14.2047 20.2958C14.4157 20.5068 14.7019 20.6253 15.0002 20.6253C15.2986 20.6253 15.5848 20.5068 15.7957 20.2958C16.0067 20.0848 16.1252 19.7987 16.1252 19.5003V16.8753H17.2502C17.5486 16.8753 17.8348 16.7568 18.0457 16.5458C18.2567 16.3348 18.3752 16.0487 18.3752 15.7503C18.3752 15.4519 18.2567 15.1658 18.0457 14.9548C17.8348 14.7438 17.5486 14.6253 17.2502 14.6253ZM13.8752 14.6253H8.34399L13.8752 7.70748V14.6253Z" fill="#130032"/>
</svg>
