<svg width="24" height="24" viewBox="0 0 24 24" fill="none" xmlns="http://www.w3.org/2000/svg">
<path d="M12 1.875C9.99747 1.875 8.0399 2.46882 6.37486 3.58137C4.70981 4.69392 3.41206 6.27523 2.64572 8.12533C1.87939 9.97543 1.67888 12.0112 2.06955 13.9753C2.46023 15.9393 3.42454 17.7435 4.84055 19.1595C6.25656 20.5755 8.06066 21.5398 10.0247 21.9305C11.9888 22.3211 14.0246 22.1206 15.8747 21.3543C17.7248 20.5879 19.3061 19.2902 20.4186 17.6251C21.5312 15.9601 22.125 14.0025 22.125 12C22.122 9.3156 21.0543 6.74199 19.1562 4.84383C17.258 2.94567 14.6844 1.87798 12 1.875ZM12 19.875C10.4425 19.875 8.91993 19.4131 7.62489 18.5478C6.32985 17.6825 5.32049 16.4526 4.72445 15.0136C4.12841 13.5747 3.97246 11.9913 4.27632 10.4637C4.58018 8.93606 5.3302 7.53287 6.43154 6.43153C7.53288 5.3302 8.93607 4.58017 10.4637 4.27632C11.9913 3.97246 13.5747 4.12841 15.0136 4.72445C16.4526 5.32049 17.6825 6.32985 18.5478 7.62488C19.4131 8.91992 19.875 10.4425 19.875 12C19.8728 14.0879 19.0424 16.0896 17.566 17.566C16.0896 19.0424 14.0879 19.8728 12 19.875ZM14.5875 11.5397C14.9998 11.0474 15.2631 10.4476 15.3464 9.81088C15.4298 9.17414 15.3298 8.52684 15.0581 7.94497C14.7864 7.36309 14.3544 6.87081 13.8127 6.5259C13.271 6.18099 12.6422 5.99778 12 5.99778C11.3578 5.99778 10.729 6.18099 10.1873 6.5259C9.64562 6.87081 9.21358 7.36309 8.94191 7.94497C8.67023 8.52684 8.5702 9.17414 8.65356 9.81088C8.73692 10.4476 9.0002 11.0474 9.4125 11.5397C8.87014 12.0567 8.49511 12.7244 8.33577 13.4566C8.17643 14.1887 8.24009 14.9519 8.51855 15.6475C8.797 16.3432 9.27748 16.9395 9.89802 17.3595C10.5186 17.7795 11.2507 18.004 12 18.004C12.7493 18.004 13.4815 17.7795 14.102 17.3595C14.7225 16.9395 15.203 16.3432 15.4815 15.6475C15.7599 14.9519 15.8236 14.1887 15.6642 13.4566C15.5049 12.7244 15.1299 12.0567 14.5875 11.5397ZM10.875 9.375C10.875 9.1525 10.941 8.93499 11.0646 8.74998C11.1882 8.56498 11.3639 8.42078 11.5695 8.33564C11.7751 8.25049 12.0013 8.22821 12.2195 8.27162C12.4377 8.31502 12.6382 8.42217 12.7955 8.5795C12.9528 8.73684 13.06 8.93729 13.1034 9.15552C13.1468 9.37375 13.1245 9.59995 13.0394 9.80552C12.9542 10.0111 12.81 10.1868 12.625 10.3104C12.44 10.434 12.2225 10.5 12 10.5C11.7016 10.5 11.4155 10.3815 11.2045 10.1705C10.9935 9.95952 10.875 9.67337 10.875 9.375ZM12 15.75C11.7033 15.75 11.4133 15.662 11.1666 15.4972C10.92 15.3324 10.7277 15.0981 10.6142 14.824C10.5007 14.5499 10.4709 14.2483 10.5288 13.9574C10.5867 13.6664 10.7296 13.3991 10.9393 13.1893C11.1491 12.9796 11.4164 12.8367 11.7074 12.7788C11.9983 12.7209 12.2999 12.7506 12.574 12.8642C12.8481 12.9777 13.0824 13.17 13.2472 13.4166C13.412 13.6633 13.5 13.9533 13.5 14.25C13.5 14.6478 13.342 15.0294 13.0607 15.3107C12.7794 15.592 12.3978 15.75 12 15.75Z" fill="#130032"/>
</svg>
