<svg width="24" height="24" viewBox="0 0 24 24" fill="none" xmlns="http://www.w3.org/2000/svg">
<path d="M12 1.875C9.99747 1.875 8.0399 2.46882 6.37486 3.58137C4.70981 4.69392 3.41206 6.27523 2.64572 8.12533C1.87939 9.97543 1.67888 12.0112 2.06955 13.9753C2.46023 15.9393 3.42454 17.7435 4.84055 19.1595C6.25656 20.5755 8.06066 21.5398 10.0247 21.9305C11.9888 22.3211 14.0246 22.1206 15.8747 21.3543C17.7248 20.5879 19.3061 19.2902 20.4186 17.6251C21.5312 15.9601 22.125 14.0025 22.125 12C22.122 9.3156 21.0543 6.74199 19.1562 4.84383C17.258 2.94567 14.6844 1.87798 12 1.875ZM12 19.875C10.4425 19.875 8.91993 19.4131 7.62489 18.5478C6.32985 17.6825 5.32049 16.4526 4.72445 15.0136C4.12841 13.5747 3.97246 11.9913 4.27632 10.4637C4.58018 8.93606 5.3302 7.53287 6.43154 6.43153C7.53288 5.3302 8.93607 4.58017 10.4637 4.27632C11.9913 3.97246 13.5747 4.12841 15.0136 4.72445C16.4526 5.32049 17.6825 6.32985 18.5478 7.62488C19.4131 8.91992 19.875 10.4425 19.875 12C19.8728 14.0879 19.0424 16.0896 17.566 17.566C16.0896 19.0424 14.0879 19.8728 12 19.875ZM13.875 6.8775C13.3942 6.59995 12.8579 6.43259 12.3046 6.38752C11.7513 6.34244 11.1949 6.42077 10.6755 6.61684C10.1562 6.81292 9.68685 7.12185 9.30141 7.52135C8.91596 7.92084 8.62401 8.40092 8.44664 8.92695C8.26927 9.45298 8.2109 10.0118 8.27574 10.5631C8.34058 11.1145 8.52702 11.6445 8.82159 12.115C9.11617 12.5856 9.51153 12.9848 9.97915 13.284C10.4468 13.5832 10.975 13.7748 11.5256 13.845L10.2844 15.9234C10.2043 16.0504 10.1504 16.192 10.1259 16.3401C10.1014 16.4881 10.1067 16.6396 10.1417 16.7855C10.1766 16.9315 10.2403 17.069 10.3292 17.1899C10.418 17.3109 10.5302 17.4128 10.659 17.4897C10.7879 17.5667 10.9308 17.617 11.0795 17.6379C11.2281 17.6587 11.3794 17.6497 11.5244 17.6112C11.6695 17.5727 11.8053 17.5055 11.924 17.4137C12.0428 17.3219 12.1419 17.2073 12.2156 17.0766L15.2475 12C15.7448 11.1387 15.8795 10.1152 15.6221 9.1545C15.3647 8.19386 14.7363 7.3748 13.875 6.8775ZM13.2994 10.875C13.151 11.1319 12.9298 11.339 12.6638 11.4702C12.3977 11.6014 12.0987 11.6508 11.8046 11.6121C11.5105 11.5733 11.2345 11.4483 11.0115 11.2527C10.7884 11.0571 10.6284 10.7998 10.5516 10.5133C10.4747 10.2268 10.4846 9.92388 10.5799 9.64296C10.6752 9.36204 10.8517 9.11569 11.087 8.93505C11.3223 8.75442 11.6059 8.64761 11.9019 8.62813C12.1979 8.60865 12.4931 8.67738 12.75 8.82562C13.0944 9.0248 13.3455 9.3526 13.4482 9.73693C13.5508 10.1213 13.4967 10.5306 13.2975 10.875H13.2994Z" fill="#130032"/>
</svg>
