<svg width="24" height="24" viewBox="0 0 24 24" fill="none" xmlns="http://www.w3.org/2000/svg">
<path d="M17.4956 5.72266C16.2056 3.69578 14.3081 2.62891 12 2.62891C9.69187 2.62891 7.79437 3.69578 6.50437 5.72266C5.45344 7.37359 4.875 9.60297 4.875 11.9992C4.875 14.3955 5.45344 16.6239 6.50437 18.2748C7.79437 20.3027 9.69469 21.3742 12 21.3742C14.3053 21.3742 16.2056 20.3027 17.4956 18.2748C18.5466 16.6239 19.125 14.3955 19.125 11.9992C19.125 9.60297 18.5466 7.37359 17.4956 5.72266ZM15.5972 17.0664C14.7291 18.4323 13.5188 19.1242 12 19.1242C10.4812 19.1242 9.27094 18.4323 8.40281 17.0673C7.57875 15.7727 7.125 13.9727 7.125 11.9992C7.125 10.0258 7.57875 8.22578 8.40281 6.93109C9.27094 5.56609 10.4812 4.87422 12 4.87422C13.5188 4.87422 14.7291 5.56609 15.5972 6.93109C16.4212 8.22578 16.875 10.0305 16.875 11.9992C16.875 13.968 16.4212 15.7727 15.5972 17.0673V17.0664Z" fill="#130032"/>
</svg>
