<svg width="24" height="24" viewBox="0 0 24 24" fill="none" xmlns="http://www.w3.org/2000/svg">
<path d="M19.5 2.625H4.5C4.00272 2.625 3.52581 2.82254 3.17417 3.17417C2.82254 3.52581 2.625 4.00272 2.625 4.5V19.5C2.625 19.9973 2.82254 20.4742 3.17417 20.8258C3.52581 21.1775 4.00272 21.375 4.5 21.375H19.5C19.9973 21.375 20.4742 21.1775 20.8258 20.8258C21.1775 20.4742 21.375 19.9973 21.375 19.5V4.5C21.375 4.00272 21.1775 3.52581 20.8258 3.17417C20.4742 2.82254 19.9973 2.625 19.5 2.625ZM19.125 19.125H4.875V4.875H19.125V19.125ZM8.25 14.25C8.24934 14.8707 8.40274 15.4818 8.69645 16.0285C8.99015 16.5753 9.41496 17.0406 9.9328 17.3827C10.4506 17.7249 11.0453 17.9331 11.6634 17.9888C12.2816 18.0445 12.9039 17.9459 13.4745 17.7019C14.0452 17.4578 14.5464 17.076 14.9331 16.5905C15.3198 16.1051 15.58 15.5312 15.6903 14.9205C15.8006 14.3097 15.7576 13.6811 15.5651 13.091C15.3727 12.501 15.0367 11.9679 14.5875 11.5397C14.9998 11.0474 15.2631 10.4476 15.3464 9.81088C15.4298 9.17414 15.3298 8.52684 15.0581 7.94497C14.7864 7.36309 14.3544 6.87081 13.8127 6.5259C13.271 6.18099 12.6422 5.99778 12 5.99778C11.3578 5.99778 10.729 6.18099 10.1873 6.5259C9.64562 6.87081 9.21358 7.36309 8.9419 7.94497C8.67023 8.52684 8.5702 9.17414 8.65355 9.81088C8.73691 10.4476 9.0002 11.0474 9.4125 11.5397C9.04505 11.889 8.7525 12.3094 8.55265 12.7753C8.3528 13.2413 8.24983 13.743 8.25 14.25ZM12 15.75C11.7033 15.75 11.4133 15.662 11.1666 15.4972C10.92 15.3324 10.7277 15.0981 10.6142 14.824C10.5006 14.5499 10.4709 14.2483 10.5288 13.9574C10.5867 13.6664 10.7296 13.3991 10.9393 13.1893C11.1491 12.9796 11.4164 12.8367 11.7074 12.7788C11.9983 12.7209 12.2999 12.7506 12.574 12.8642C12.8481 12.9777 13.0824 13.17 13.2472 13.4166C13.412 13.6633 13.5 13.9533 13.5 14.25C13.5 14.6478 13.342 15.0294 13.0607 15.3107C12.7794 15.592 12.3978 15.75 12 15.75ZM10.875 9.375C10.875 9.1525 10.941 8.93499 11.0646 8.74998C11.1882 8.56498 11.3639 8.42078 11.5695 8.33564C11.775 8.25049 12.0012 8.22821 12.2195 8.27162C12.4377 8.31502 12.6382 8.42217 12.7955 8.5795C12.9528 8.73684 13.06 8.93729 13.1034 9.15552C13.1468 9.37375 13.1245 9.59995 13.0394 9.80552C12.9542 10.0111 12.81 10.1868 12.625 10.3104C12.44 10.434 12.2225 10.5 12 10.5C11.7016 10.5 11.4155 10.3815 11.2045 10.1705C10.9935 9.95952 10.875 9.67337 10.875 9.375Z" fill="#130032"/>
</svg>
