<svg width="24" height="24" viewBox="0 0 24 24" fill="none" xmlns="http://www.w3.org/2000/svg">
<path d="M19.5 2.625H4.5C4.00272 2.625 3.52581 2.82254 3.17417 3.17417C2.82254 3.52581 2.625 4.00272 2.625 4.5V19.5C2.625 19.9973 2.82254 20.4742 3.17417 20.8258C3.52581 21.1775 4.00272 21.375 4.5 21.375H19.5C19.9973 21.375 20.4742 21.1775 20.8258 20.8258C21.1775 20.4742 21.375 19.9973 21.375 19.5V4.5C21.375 4.00272 21.1775 3.52581 20.8258 3.17417C20.4742 2.82254 19.9973 2.625 19.5 2.625ZM19.125 19.125H4.875V4.875H19.125V19.125ZM12 17.625C12.9523 17.6234 13.8684 17.2595 14.5622 16.6073C15.2561 15.955 15.6758 15.0631 15.7362 14.1127C15.7965 13.1623 15.493 12.2245 14.8873 11.4897C14.2815 10.7548 13.4188 10.278 12.4744 10.1559L13.7156 8.07656C13.7957 7.94965 13.8496 7.80799 13.8741 7.65994C13.8986 7.51188 13.8933 7.36042 13.8583 7.21446C13.8234 7.06851 13.7597 6.93102 13.6708 6.81008C13.582 6.68914 13.4698 6.58721 13.341 6.51027C13.2121 6.43334 13.0692 6.38296 12.9205 6.3621C12.7719 6.34125 12.6206 6.35034 12.4756 6.38884C12.3306 6.42734 12.1947 6.49447 12.076 6.58629C11.9573 6.6781 11.8581 6.79273 11.7844 6.92344L8.76188 11.9859C8.42964 12.5557 8.25353 13.203 8.25133 13.8625C8.24913 14.522 8.42091 15.1704 8.74933 15.7424C9.07776 16.3143 9.55122 16.7895 10.1219 17.1201C10.6927 17.4506 11.3405 17.6248 12 17.625ZM12 12.375C12.2967 12.375 12.5867 12.463 12.8334 12.6278C13.08 12.7926 13.2723 13.0269 13.3858 13.301C13.4994 13.5751 13.5291 13.8767 13.4712 14.1676C13.4133 14.4586 13.2704 14.7259 13.0607 14.9357C12.8509 15.1454 12.5836 15.2883 12.2926 15.3462C12.0017 15.4041 11.7001 15.3744 11.426 15.2608C11.1519 15.1473 10.9176 14.955 10.7528 14.7084C10.588 14.4617 10.5 14.1717 10.5 13.875C10.5 13.4772 10.658 13.0956 10.9393 12.8143C11.2206 12.533 11.6022 12.375 12 12.375Z" fill="#130032"/>
</svg>
