<svg width="24" height="24" viewBox="0 0 24 24" fill="none" xmlns="http://www.w3.org/2000/svg">
<path d="M7.125 11.9997C7.125 12.9639 7.41091 13.9065 7.94659 14.7081C8.48226 15.5098 9.24363 16.1347 10.1344 16.5037C11.0252 16.8726 12.0054 16.9692 12.9511 16.7811C13.8967 16.593 14.7654 16.1287 15.4471 15.4469C16.1289 14.7651 16.5932 13.8965 16.7813 12.9508C16.9694 12.0052 16.8729 11.025 16.5039 10.1342C16.1349 9.24337 15.5101 8.482 14.7084 7.94633C13.9067 7.41066 12.9642 7.12475 12 7.12475C10.7075 7.12599 9.4682 7.64 8.55423 8.55397C7.64025 9.46794 7.12624 10.7072 7.125 11.9997ZM14.625 11.9997C14.625 12.5189 14.471 13.0264 14.1826 13.4581C13.8942 13.8898 13.4842 14.2262 13.0045 14.4249C12.5249 14.6236 11.9971 14.6756 11.4879 14.5743C10.9787 14.473 10.511 14.223 10.1438 13.8559C9.77673 13.4888 9.52672 13.0211 9.42544 12.5119C9.32415 12.0027 9.37614 11.4749 9.57482 10.9952C9.7735 10.5155 10.1099 10.1056 10.5416 9.81714C10.9733 9.5287 11.4808 9.37475 12 9.37475C12.6962 9.37475 13.3639 9.65131 13.8562 10.1436C14.3484 10.6359 14.625 11.3036 14.625 11.9997ZM21.15 5.87225L12.9 1.35631C12.6243 1.20457 12.3147 1.125 12 1.125C11.6853 1.125 11.3757 1.20457 11.1 1.35631L2.85 5.87225C2.5548 6.03377 2.3085 6.27175 2.13695 6.56124C1.9654 6.85073 1.87492 7.18106 1.875 7.51756V16.4819C1.87492 16.8184 1.9654 17.1488 2.13695 17.4382C2.3085 17.7277 2.5548 17.9657 2.85 18.1272L11.1 22.6432C11.3756 22.7951 11.6853 22.8748 12 22.8748C12.3147 22.8748 12.6244 22.7951 12.9 22.6432L21.15 18.1272C21.4452 17.9657 21.6915 17.7277 21.863 17.4382C22.0346 17.1488 22.1251 16.8184 22.125 16.4819V7.51756C22.1251 7.18106 22.0346 6.85073 21.863 6.56124C21.6915 6.27175 21.4452 6.03377 21.15 5.87225ZM19.875 16.2597L12 20.5722L4.125 16.2597V7.73975L12 3.42725L19.875 7.73975V16.2597Z" fill="#130032"/>
</svg>
