<svg width="24" height="24" viewBox="0 0 24 24" fill="none" xmlns="http://www.w3.org/2000/svg">
<path d="M18.0004 13.875C18.0004 14.1717 17.9124 14.4617 17.7476 14.7084C17.5828 14.955 17.3485 15.1473 17.0744 15.2608C16.8003 15.3744 16.4987 15.4041 16.2078 15.3462C15.9168 15.2883 15.6495 15.1454 15.4397 14.9357C15.23 14.7259 15.0871 14.4586 15.0292 14.1676C14.9713 13.8767 15.001 13.5751 15.1146 13.301C15.2281 13.0269 15.4204 12.7926 15.667 12.6278C15.9137 12.463 16.2037 12.375 16.5004 12.375C16.8982 12.375 17.2797 12.533 17.5611 12.8143C17.8424 13.0956 18.0004 13.4772 18.0004 13.875ZM17.6254 10.125C17.4611 10.1253 17.2987 10.0891 17.1501 10.0191L11.0863 7.18969C9.68826 7.39257 8.39718 8.0541 7.41587 9.07036C6.43456 10.0866 5.81861 11.4001 5.66477 12.8044L11.8457 9.50719C12.0171 9.4157 12.2094 9.37017 12.4036 9.37504C12.5979 9.37992 12.7876 9.43503 12.9542 9.53501C13.1208 9.63499 13.2587 9.77643 13.3544 9.94554C13.4502 10.1147 13.5004 10.3057 13.5004 10.5V19.6978C14.4001 19.482 15.2418 19.0722 15.9665 18.497C16.6912 17.9218 17.2814 17.1951 17.6957 16.3678C17.7611 16.2339 17.8524 16.1142 17.9644 16.0158C18.0763 15.9175 18.2068 15.8423 18.348 15.7948C18.4893 15.7473 18.6386 15.7283 18.7873 15.7389C18.9359 15.7496 19.081 15.7897 19.2141 15.8569C19.3471 15.9241 19.4655 16.0171 19.5623 16.1304C19.6591 16.2437 19.7324 16.3752 19.7779 16.5171C19.8235 16.659 19.8404 16.8086 19.8277 16.9571C19.815 17.1056 19.7729 17.2501 19.7038 17.3822C19.0325 18.7234 18.0214 19.8653 16.7713 20.694C15.5211 21.5227 14.0756 22.0093 12.5788 22.1053C12.5117 22.118 12.4437 22.1246 12.3754 22.125C12.3426 22.125 12.3116 22.125 12.2816 22.1203C12.1879 22.1203 12.0941 22.125 12.0004 22.125C10.5192 22.1248 9.063 21.7432 7.77211 21.0168C6.48123 20.2905 5.39914 19.244 4.63012 17.978C3.86109 16.7121 3.43104 15.2695 3.38138 13.7891C3.33173 12.3087 3.66416 10.8405 4.34664 9.52594C3.66667 9.08716 3.14687 8.4402 2.8649 7.68166C2.58292 6.92312 2.55388 6.09372 2.78213 5.31733C3.01038 4.54093 3.48366 3.8592 4.13128 3.37395C4.77891 2.8887 5.56614 2.62597 6.37539 2.625C6.53972 2.6247 6.70206 2.66088 6.8507 2.73094L17.842 7.85906C18.2167 7.804 18.5567 7.6092 18.7938 7.31378C19.0308 7.01836 19.1474 6.6442 19.1199 6.26643C19.0925 5.88865 18.9232 5.53523 18.646 5.27714C18.3688 5.01905 18.0042 4.87538 17.6254 4.875C17.327 4.875 17.0409 4.75648 16.8299 4.5455C16.6189 4.33452 16.5004 4.04837 16.5004 3.75C16.5004 3.45163 16.6189 3.16549 16.8299 2.95451C17.0409 2.74353 17.327 2.625 17.6254 2.625C18.62 2.625 19.5738 3.02009 20.277 3.72335C20.9803 4.42661 21.3754 5.38044 21.3754 6.375C21.3754 7.36956 20.9803 8.32339 20.277 9.02665C19.5738 9.72991 18.62 10.125 17.6254 10.125ZM7.50039 18.0113V14.3747L5.87008 15.2447C6.16905 16.2907 6.73022 17.2429 7.50039 18.0113ZM11.2504 12.375L9.75039 13.1747V19.4634C10.2335 19.6464 10.7373 19.7692 11.2504 19.8291V12.375ZM8.10977 5.80125L6.15883 4.89094C5.84979 4.93636 5.56264 5.07711 5.33745 5.29357C5.11226 5.51003 4.96025 5.79139 4.90265 6.09839C4.84505 6.40539 4.88473 6.72271 5.01614 7.00607C5.14755 7.28944 5.36415 7.52471 5.6357 7.67906C6.33996 6.90857 7.17824 6.27232 8.10977 5.80125Z" fill="#130032"/>
</svg>
