<svg width="24" height="24" viewBox="0 0 24 24" fill="none" xmlns="http://www.w3.org/2000/svg">
<path d="M21.5756 7.2572L16.7428 2.42438C16.5692 2.24963 16.3626 2.11109 16.1351 2.01679C15.9075 1.92248 15.6635 1.87429 15.4172 1.87501H8.58282C8.3365 1.87429 8.09248 1.92248 7.86493 2.01679C7.63737 2.11109 7.4308 2.24963 7.2572 2.42438L2.42438 7.2572C2.24963 7.4308 2.11109 7.63737 2.01679 7.86493C1.92248 8.09248 1.87429 8.3365 1.87501 8.58282V15.4172C1.87429 15.6635 1.92248 15.9075 2.01679 16.1351C2.11109 16.3626 2.24963 16.5692 2.42438 16.7428L7.2572 21.5756C7.4308 21.7504 7.63737 21.8889 7.86493 21.9832C8.09248 22.0775 8.3365 22.1257 8.58282 22.125H15.4172C15.6635 22.1257 15.9075 22.0775 16.1351 21.9832C16.3626 21.8889 16.5692 21.7504 16.7428 21.5756L21.5756 16.7428C21.7504 16.5692 21.8889 16.3626 21.9832 16.1351C22.0775 15.9075 22.1257 15.6635 22.125 15.4172V8.58282C22.1257 8.3365 22.0775 8.09248 21.9832 7.86493C21.8889 7.63737 21.7504 7.4308 21.5756 7.2572ZM19.875 15.2616L15.2616 19.875H8.73845L4.12501 15.2616V8.73845L8.73845 4.12501H15.2616L19.875 8.73845V15.2616Z" fill="#130032"/>
</svg>
