<svg width="24" height="24" viewBox="0 0 24 24" fill="none" xmlns="http://www.w3.org/2000/svg">
<path d="M23.625 12C23.625 12.2984 23.5065 12.5845 23.2955 12.7955C23.0845 13.0065 22.7984 13.125 22.5 13.125H21.2438C20.9891 14.192 20.3827 15.1423 19.5221 15.8226C18.6615 16.5029 17.597 16.8736 16.5 16.875H13.125V18.375H15C15.8951 18.375 16.7535 18.7306 17.3865 19.3635C18.0194 19.9965 18.375 20.8549 18.375 21.75C18.375 22.0484 18.2565 22.3345 18.0455 22.5455C17.8345 22.7565 17.5484 22.875 17.25 22.875C16.9516 22.875 16.6655 22.7565 16.4545 22.5455C16.2435 22.3345 16.125 22.0484 16.125 21.75C16.125 21.4517 16.0065 21.1655 15.7955 20.9545C15.5845 20.7435 15.2984 20.625 15 20.625H13.125V21.75C13.125 22.0484 13.0065 22.3345 12.7955 22.5455C12.5845 22.7565 12.2984 22.875 12 22.875C11.7016 22.875 11.4155 22.7565 11.2045 22.5455C10.9935 22.3345 10.875 22.0484 10.875 21.75V20.625H9C8.70163 20.625 8.41548 20.7435 8.2045 20.9545C7.99353 21.1655 7.875 21.4517 7.875 21.75C7.875 22.0484 7.75647 22.3345 7.5455 22.5455C7.33452 22.7565 7.04837 22.875 6.75 22.875C6.45163 22.875 6.16548 22.7565 5.9545 22.5455C5.74353 22.3345 5.625 22.0484 5.625 21.75C5.625 20.8549 5.98058 19.9965 6.61351 19.3635C7.24645 18.7306 8.10489 18.375 9 18.375H10.875V16.875H7.5C6.40301 16.8736 5.33846 16.5029 4.47789 15.8226C3.61731 15.1423 3.01086 14.192 2.75625 13.125H1.5C1.20163 13.125 0.915483 13.0065 0.704505 12.7955C0.493526 12.5845 0.375 12.2984 0.375 12C0.375 11.7017 0.493526 11.4155 0.704505 11.2045C0.915483 10.9935 1.20163 10.875 1.5 10.875H3.75C4.04837 10.875 4.33452 10.9935 4.5455 11.2045C4.75647 11.4155 4.875 11.7017 4.875 12C4.875 12.6962 5.15156 13.3639 5.64384 13.8562C6.13613 14.3485 6.80381 14.625 7.5 14.625H16.5C17.1962 14.625 17.8639 14.3485 18.3562 13.8562C18.8484 13.3639 19.125 12.6962 19.125 12C19.125 11.7017 19.2435 11.4155 19.4545 11.2045C19.6655 10.9935 19.9516 10.875 20.25 10.875H22.5C22.7984 10.875 23.0845 10.9935 23.2955 11.2045C23.5065 11.4155 23.625 11.7017 23.625 12ZM6.82687 12.4688C6.65164 12.2643 6.52251 12.0245 6.44826 11.7657C6.374 11.5068 6.35637 11.235 6.39656 10.9688L7.66875 2.71877C7.73441 2.27431 7.95819 1.86844 8.299 1.57568C8.63981 1.28291 9.07478 1.1229 9.52406 1.12502H14.4759C14.9252 1.1229 15.3602 1.28291 15.701 1.57568C16.0418 1.86844 16.2656 2.27431 16.3312 2.71877L17.6034 10.9688C17.6439 11.2357 17.6263 11.5082 17.5518 11.7677C17.4772 12.0272 17.3475 12.2675 17.1716 12.4722C16.9956 12.677 16.7774 12.8413 16.5321 12.954C16.2868 13.0666 16.02 13.125 15.75 13.125H8.25C7.97949 13.1248 7.71224 13.066 7.46659 12.9527C7.22094 12.8394 7.00271 12.6743 6.82687 12.4688ZM8.68781 10.875H15.3122L14.1562 3.37502H9.84375L8.68781 10.875Z" fill="#130032"/>
</svg>
