<svg width="24" height="24" viewBox="0 0 24 24" fill="none" xmlns="http://www.w3.org/2000/svg">
<path d="M22.0313 13.5479L16.7935 4.56101C16.7887 4.55163 16.7834 4.54255 16.7776 4.53382C16.2729 3.72066 15.5691 3.04971 14.7328 2.58444C13.8964 2.11918 12.9552 1.875 11.9982 1.875C11.0411 1.875 10.0999 2.11918 9.2636 2.58444C8.42727 3.04971 7.72347 3.72066 7.21881 4.53382C7.21295 4.54255 7.20762 4.55163 7.20287 4.56101L1.96881 13.5479C1.44324 14.4003 1.15475 15.3775 1.13315 16.3787C1.11154 17.3799 1.3576 18.3687 1.84592 19.243C2.33423 20.1173 3.04709 20.8453 3.91087 21.352C4.77465 21.8587 5.75802 22.1255 6.75943 22.1251H17.2407C18.2421 22.1255 19.2255 21.8587 20.0892 21.352C20.953 20.8453 21.6659 20.1173 22.1542 19.243C22.6425 18.3687 22.8886 17.3799 22.867 16.3787C22.8454 15.3775 22.5569 14.4003 22.0313 13.5479ZM14.6251 19.8751H9.37506V16.1251H14.6251V19.8751ZM20.1901 18.1407C19.9011 18.6694 19.4743 19.1099 18.9549 19.4153C18.4356 19.7207 17.8432 19.8796 17.2407 19.8751H16.8751V15.7501C16.8751 15.2528 16.6775 14.7759 16.3259 14.4242C15.9743 14.0726 15.4973 13.8751 15.0001 13.8751H9.00006C8.50278 13.8751 8.02586 14.0726 7.67423 14.4242C7.3226 14.7759 7.12506 15.2528 7.12506 15.7501V19.8751H6.75943C6.15771 19.8751 5.56692 19.7143 5.04825 19.4092C4.52958 19.1042 4.1019 18.666 3.8095 18.1401C3.5171 17.6142 3.37061 17.0197 3.38522 16.4182C3.39982 15.8166 3.57498 15.2299 3.89256 14.7188L3.9085 14.6926L9.14162 5.70757C9.44527 5.22332 9.86693 4.82411 10.3671 4.54739C10.8672 4.27067 11.4294 4.1255 12.001 4.1255C12.5726 4.1255 13.1348 4.27067 13.6349 4.54739C14.1351 4.82411 14.5567 5.22332 14.8604 5.70757L20.0935 14.6935L20.1094 14.7198C20.4304 15.2296 20.6073 15.8169 20.6214 16.4192C20.6354 17.0216 20.486 17.6164 20.1891 18.1407H20.1901Z" fill="#130032"/>
</svg>
