<svg width="24" height="24" viewBox="0 0 24 24" fill="none" xmlns="http://www.w3.org/2000/svg">
<path d="M21.458 10.6494C21.7854 9.75096 21.8783 8.78394 21.7281 7.83962C21.5779 6.89531 21.1894 6.00488 20.5994 5.25244C20.0094 4.49999 19.2373 3.91037 18.3561 3.53927C17.4748 3.16818 16.5135 3.02784 15.563 3.13154C14.9483 2.39866 14.157 1.83462 13.2637 1.49272C12.3704 1.15083 11.4047 1.04237 10.4578 1.1776C9.51089 1.31283 8.61412 1.68728 7.85224 2.26556C7.09035 2.84384 6.48851 3.60685 6.1036 4.48248C5.16178 4.64815 4.27775 5.0512 3.53502 5.65355C2.79228 6.2559 2.21538 7.03766 1.8588 7.92497C1.50222 8.81228 1.37775 9.77586 1.49713 10.7247C1.61652 11.6735 1.97582 12.5762 2.5411 13.3475C2.23164 14.1986 2.13197 15.1118 2.25053 16.0096C2.3691 16.9074 2.7024 17.7634 3.22219 18.505C3.74198 19.2466 4.43292 19.8519 5.23644 20.2697C6.03996 20.6874 6.93236 20.9052 7.83798 20.9047C8.04001 20.9047 8.24189 20.8934 8.44267 20.8709C9.05785 21.6025 9.84933 22.1653 10.7424 22.5061C11.6354 22.8469 12.6006 22.9545 13.5468 22.8187C14.493 22.683 15.389 22.3083 16.1502 21.7302C16.9114 21.152 17.5127 20.3894 17.8974 19.5144C18.8392 19.3487 19.7232 18.9456 20.4659 18.3433C21.2087 17.7409 21.7856 16.9592 22.1422 16.0719C22.4987 15.1845 22.6232 14.221 22.5038 13.2722C22.3844 12.3234 22.0251 11.4207 21.4599 10.6494H21.458ZM17.0452 5.46404C17.8069 5.66795 18.4732 6.13214 18.9284 6.77605C19.3836 7.41995 19.5989 8.20292 19.537 8.98904L15.938 6.9106C15.767 6.81186 15.573 6.75988 15.3755 6.75988C15.178 6.75988 14.984 6.81186 14.813 6.9106L11.2505 8.96748V7.6681L14.4849 5.80154C14.8681 5.57871 15.2917 5.43415 15.7312 5.37621C16.1707 5.31828 16.6173 5.34813 17.0452 5.46404ZM12.7505 11.5653V12.4315L12.0005 12.8647L11.2505 12.4315V11.5653L12.0005 11.1322L12.7505 11.5653ZM7.87548 6.74841C7.87546 6.13349 8.04345 5.53024 8.36129 5.00383C8.67914 4.47742 9.13476 4.04785 9.67895 3.76152C10.2231 3.47519 10.8352 3.34298 11.4491 3.37917C12.0629 3.41535 12.6553 3.61856 13.162 3.96685L9.56298 6.04435C9.39199 6.14307 9.24999 6.28506 9.15125 6.45604C9.05252 6.62702 9.00051 6.82097 9.00048 7.01841V11.1322L7.87548 10.4825V6.74841ZM4.15641 8.3356C4.4965 7.74365 5.00896 7.26944 5.62548 6.97623V11.1322C5.62535 11.3298 5.67727 11.5239 5.77602 11.6951C5.87476 11.8662 6.01685 12.0084 6.18798 12.1072L9.75048 14.1631L8.62548 14.8109L5.3911 12.9453C4.6162 12.4976 4.05082 11.7605 3.81928 10.8961C3.58775 10.0317 3.70901 9.11065 4.15641 8.3356ZM6.95579 18.5328C6.19406 18.3289 5.52777 17.8647 5.07259 17.2208C4.6174 16.5769 4.40205 15.7939 4.46391 15.0078L8.06298 17.0862C8.234 17.185 8.428 17.2369 8.62548 17.2369C8.82296 17.2369 9.01696 17.185 9.18798 17.0862L12.7505 15.0294V16.3287L9.5161 18.1953C9.13288 18.4181 8.70926 18.5627 8.26977 18.6206C7.83028 18.6785 7.38366 18.6487 6.95579 18.5328ZM16.1255 17.2484C16.1255 17.8633 15.9575 18.4666 15.6397 18.993C15.3218 19.5194 14.8662 19.949 14.322 20.2353C13.7778 20.5216 13.1657 20.6538 12.5519 20.6177C11.938 20.5815 11.3457 20.3783 10.8389 20.03L14.438 17.9525C14.609 17.8538 14.751 17.7118 14.8497 17.5408C14.9484 17.3698 15.0004 17.1759 15.0005 16.9784V12.8647L16.1255 13.5144V17.2484ZM19.8445 15.6612C19.5045 16.2532 18.992 16.7274 18.3755 17.0206V12.8647C18.3756 12.6671 18.3237 12.4729 18.2249 12.3018C18.1262 12.1306 17.9841 11.9885 17.813 11.8897L14.2505 9.83373L15.3755 9.18591L18.6099 11.0534C19.3842 11.5011 19.9493 12.2378 20.1808 13.1018C20.4123 13.9658 20.2913 14.8863 19.8445 15.6612Z" fill="#130032"/>
</svg>
