<svg width="24" height="24" viewBox="0 0 24 24" fill="none" xmlns="http://www.w3.org/2000/svg">
<path d="M22.875 7.125H1.125C0.826631 7.125 0.540483 7.24353 0.329505 7.4545C0.118526 7.66548 0 7.95163 0 8.25L0 8.625C0 11.8076 1.26428 14.8598 3.51472 17.1103C5.76516 19.3607 8.8174 20.625 12 20.625C15.1826 20.625 18.2348 19.3607 20.4853 17.1103C22.7357 14.8598 24 11.8076 24 8.625V8.25C24 7.95163 23.8815 7.66548 23.6705 7.4545C23.4595 7.24353 23.1734 7.125 22.875 7.125ZM6.04875 9.375H10.0509L7.93781 13.0359C6.89495 12.0775 6.22562 10.7803 6.04875 9.375ZM12 10.5L14.1506 14.2247C12.7665 14.7584 11.2335 14.7584 9.84937 14.2247L12 10.5ZM16.0622 13.0359L13.9491 9.375H17.9513C17.7744 10.7803 17.1051 12.0775 16.0622 13.0359ZM12 18.375C9.54479 18.3719 7.18085 17.444 5.37915 15.7761C3.57745 14.1081 2.47025 11.8227 2.27812 9.375H3.78469C3.97314 11.4236 4.92015 13.3278 6.43998 14.7142C7.95981 16.1007 9.94279 16.8693 12 16.8693C14.0572 16.8693 16.0402 16.1007 17.56 14.7142C19.0799 13.3278 20.0269 11.4236 20.2153 9.375H21.7219C21.5298 11.8227 20.4225 14.1081 18.6208 15.7761C16.8191 17.444 14.4552 18.3719 12 18.375Z" fill="#130032"/>
</svg>
