<svg width="24" height="24" viewBox="0 0 24 24" fill="none" xmlns="http://www.w3.org/2000/svg">
<path d="M16.3123 6.78375C17.1778 6.20053 17.8869 5.41375 18.3772 4.49249C18.8676 3.57122 19.1243 2.54365 19.1248 1.5C19.1248 1.20163 19.0063 0.915483 18.7953 0.704505C18.5843 0.493526 18.2982 0.375 17.9998 0.375H17.2498C16.2161 0.375676 15.1981 0.62769 14.2836 1.10932C13.369 1.59096 12.5852 2.28776 11.9998 3.13969C11.4144 2.28776 10.6307 1.59096 9.71606 1.10932C8.80146 0.62769 7.78347 0.375676 6.74981 0.375H5.99981C5.70144 0.375 5.41529 0.493526 5.20431 0.704505C4.99333 0.915483 4.87481 1.20163 4.87481 1.5C4.87481 1.79837 4.99333 2.08452 5.20431 2.2955C5.41529 2.50647 5.70144 2.625 5.99981 2.625H6.74981C7.66397 2.62618 8.55193 2.93052 9.27462 3.49035C9.99731 4.05019 10.5139 4.8339 10.7436 5.71875C8.72567 6.01496 6.87791 7.01627 5.528 8.5451C4.17808 10.0739 3.41327 12.0315 3.3692 14.0705C3.32514 16.1095 4.00467 18.0983 5.28728 19.684C6.56988 21.2697 8.37266 22.3499 10.3759 22.733C12.3791 23.1161 14.4532 22.7774 16.2304 21.7768C18.0077 20.7763 19.3731 19.1786 20.0845 17.2672C20.7959 15.3558 20.8074 13.2542 20.1169 11.3352C19.4264 9.41611 18.0785 7.80364 16.3123 6.78375ZM16.7079 2.65875C16.4816 3.42473 16.0384 4.10884 15.4319 4.62852C14.8254 5.14821 14.0814 5.48127 13.2898 5.5875C13.5165 4.82174 13.96 4.13794 14.5666 3.61859C15.1733 3.09925 15.9173 2.76654 16.7089 2.66062L16.7079 2.65875ZM11.9998 20.625C10.739 20.625 9.50641 20.2511 8.45805 19.5506C7.40968 18.8501 6.59258 17.8545 6.11007 16.6896C5.62757 15.5247 5.50132 14.2429 5.7473 13.0063C5.99328 11.7697 6.60044 10.6338 7.492 9.74219C8.38356 8.85063 9.51948 8.24347 10.7561 7.99749C11.9927 7.75151 13.2745 7.87776 14.4394 8.36027C15.6043 8.84278 16.5999 9.65988 17.3004 10.7082C18.0009 11.7566 18.3748 12.9891 18.3748 14.25C18.3731 15.9402 17.7009 17.5607 16.5057 18.7559C15.3105 19.9511 13.69 20.6233 11.9998 20.625ZM16.6517 15.7125C16.4162 16.4611 16.0034 17.1419 15.4485 17.6968C14.8935 18.2517 14.2128 18.6645 13.4642 18.9C13.3549 18.934 13.2411 18.9514 13.1267 18.9516C12.8578 18.9518 12.5977 18.8556 12.3935 18.6805C12.1894 18.5055 12.0547 18.2631 12.0139 17.9973C11.9731 17.7315 12.0288 17.4598 12.1711 17.2316C12.3133 17.0033 12.5326 16.8336 12.7892 16.7531C13.1926 16.6264 13.5595 16.404 13.8585 16.105C14.1576 15.8059 14.3799 15.4391 14.5067 15.0356C14.551 14.8947 14.6227 14.7638 14.7175 14.6505C14.8124 14.5373 14.9287 14.4438 15.0597 14.3754C15.3243 14.2374 15.6329 14.2102 15.9176 14.2997C16.0586 14.344 16.1894 14.4157 16.3027 14.5106C16.416 14.6054 16.5095 14.7217 16.5778 14.8527C16.6461 14.9838 16.688 15.127 16.701 15.2741C16.714 15.4213 16.6979 15.5697 16.6536 15.7106L16.6517 15.7125Z" fill="#130032"/>
</svg>
