<svg width="24" height="24" viewBox="0 0 24 24" fill="none" xmlns="http://www.w3.org/2000/svg">
<path d="M19.5 2.625H4.5C4.00272 2.625 3.52581 2.82254 3.17417 3.17417C2.82254 3.52581 2.625 4.00272 2.625 4.5V19.5C2.625 19.9973 2.82254 20.4742 3.17417 20.8258C3.52581 21.1775 4.00272 21.375 4.5 21.375H19.5C19.9973 21.375 20.4742 21.1775 20.8258 20.8258C21.1775 20.4742 21.375 19.9973 21.375 19.5V4.5C21.375 4.00272 21.1775 3.52581 20.8258 3.17417C20.4742 2.82254 19.9973 2.625 19.5 2.625ZM19.125 19.125H4.875V4.875H19.125V19.125ZM6.375 7.5C6.375 7.20333 6.46297 6.91332 6.6278 6.66665C6.79262 6.41997 7.02689 6.22771 7.30097 6.11418C7.57506 6.00065 7.87666 5.97094 8.16764 6.02882C8.45861 6.0867 8.72588 6.22956 8.93566 6.43934C9.14544 6.64912 9.2883 6.91639 9.34618 7.20736C9.40406 7.49834 9.37435 7.79994 9.26082 8.07403C9.14729 8.34811 8.95503 8.58238 8.70835 8.7472C8.46168 8.91203 8.17167 9 7.875 9C7.47718 9 7.09564 8.84196 6.81434 8.56066C6.53304 8.27936 6.375 7.89782 6.375 7.5ZM10.5 7.5C10.5 7.20333 10.588 6.91332 10.7528 6.66665C10.9176 6.41997 11.1519 6.22771 11.426 6.11418C11.7001 6.00065 12.0017 5.97094 12.2926 6.02882C12.5836 6.0867 12.8509 6.22956 13.0607 6.43934C13.2704 6.64912 13.4133 6.91639 13.4712 7.20736C13.5291 7.49834 13.4994 7.79994 13.3858 8.07403C13.2723 8.34811 13.08 8.58238 12.8334 8.7472C12.5867 8.91203 12.2967 9 12 9C11.6022 9 11.2206 8.84196 10.9393 8.56066C10.658 8.27936 10.5 7.89782 10.5 7.5ZM14.625 7.5C14.625 7.20333 14.713 6.91332 14.8778 6.66665C15.0426 6.41997 15.2769 6.22771 15.551 6.11418C15.8251 6.00065 16.1267 5.97094 16.4176 6.02882C16.7086 6.0867 16.9759 6.22956 17.1857 6.43934C17.3954 6.64912 17.5383 6.91639 17.5962 7.20736C17.6541 7.49834 17.6244 7.79994 17.5108 8.07403C17.3973 8.34811 17.205 8.58238 16.9584 8.7472C16.7117 8.91203 16.4217 9 16.125 9C15.7272 9 15.3456 8.84196 15.0643 8.56066C14.783 8.27936 14.625 7.89782 14.625 7.5ZM7.125 18H16.875C17.1734 18 17.4595 17.8815 17.6705 17.6705C17.8815 17.4595 18 17.1734 18 16.875V11.25C18 10.9516 17.8815 10.6655 17.6705 10.4545C17.4595 10.2435 17.1734 10.125 16.875 10.125H7.125C6.82663 10.125 6.54048 10.2435 6.3295 10.4545C6.11853 10.6655 6 10.9516 6 11.25V16.875C6 17.1734 6.11853 17.4595 6.3295 17.6705C6.54048 17.8815 6.82663 18 7.125 18ZM8.25 12.375H15.75V15.75H8.25V12.375Z" fill="#130032"/>
</svg>
