<svg width="24" height="24" viewBox="0 0 24 24" fill="none" xmlns="http://www.w3.org/2000/svg">
<path d="M20.25 1.875H6.75C5.65636 1.87624 4.60787 2.31124 3.83455 3.08455C3.06124 3.85787 2.62624 4.90636 2.625 6V12.75C2.625 13.4462 2.90156 14.1139 3.39384 14.6062C3.88613 15.0984 4.55381 15.375 5.25 15.375H8.96625L8.625 19.4062C8.625 19.4372 8.625 19.4691 8.625 19.5C8.625 20.3951 8.98058 21.2535 9.61351 21.8865C10.2464 22.5194 11.1049 22.875 12 22.875C12.8951 22.875 13.7535 22.5194 14.3865 21.8865C15.0194 21.2535 15.375 20.3951 15.375 19.5C15.375 19.4691 15.375 19.4372 15.375 19.4062L15.0375 15.375H18.75C19.4462 15.375 20.1139 15.0984 20.6062 14.6062C21.0984 14.1139 21.375 13.4462 21.375 12.75V3C21.375 2.70163 21.2565 2.41548 21.0455 2.2045C20.8345 1.99353 20.5484 1.875 20.25 1.875ZM6.75 4.125H15V6.375C15 6.67337 15.1185 6.95952 15.3295 7.1705C15.5405 7.38147 15.8266 7.5 16.125 7.5C16.4234 7.5 16.7095 7.38147 16.9205 7.1705C17.1315 6.95952 17.25 6.67337 17.25 6.375V4.125H19.125V9H4.875V6C4.875 5.50272 5.07254 5.02581 5.42417 4.67417C5.77581 4.32254 6.25272 4.125 6.75 4.125ZM18.75 13.125H14.625C14.3598 13.1251 14.0977 13.1814 13.8559 13.2902C13.6141 13.3991 13.3981 13.558 13.2222 13.7565C13.0464 13.9549 12.9146 14.1884 12.8356 14.4416C12.7566 14.6947 12.7322 14.9617 12.7641 15.225L13.1241 19.5375C13.1241 19.8359 13.0055 20.122 12.7946 20.333C12.5836 20.544 12.2974 20.6625 11.9991 20.6625C11.7007 20.6625 11.4145 20.544 11.2036 20.333C10.9926 20.122 10.8741 19.8359 10.8741 19.5375L11.2341 15.225C11.2659 14.9619 11.2415 14.695 11.1627 14.442C11.0838 14.189 10.9522 13.9556 10.7765 13.7572C10.6009 13.5587 10.3851 13.3998 10.1435 13.2908C9.90196 13.1819 9.64002 13.1253 9.375 13.125H5.25C5.15054 13.125 5.05516 13.0855 4.98484 13.0152C4.91451 12.9448 4.875 12.8495 4.875 12.75V11.25H19.125V12.75C19.125 12.8495 19.0855 12.9448 19.0152 13.0152C18.9448 13.0855 18.8495 13.125 18.75 13.125Z" fill="#130032"/>
</svg>
