<svg width="24" height="24" viewBox="0 0 24 24" fill="none" xmlns="http://www.w3.org/2000/svg">
<g clip-path="url(#clip0_7_18224)">
<path d="M22.1055 13.3959C22.2875 13.3354 22.451 13.2293 22.5805 13.0878C22.7099 12.9463 22.8011 12.774 22.8452 12.5873C22.8894 12.4007 22.8851 12.2058 22.8327 12.0213C22.7804 11.8368 22.6817 11.6687 22.5461 11.5331L11.7189 0.705887C11.6144 0.601007 11.4902 0.517791 11.3535 0.46101C11.2167 0.404229 11.0701 0.375 10.9221 0.375C10.774 0.375 10.6274 0.404229 10.4906 0.46101C10.3539 0.517791 10.2297 0.601007 10.1252 0.705887L6.58613 4.24682L4.54519 2.20589C4.33385 1.99454 4.0472 1.87581 3.74831 1.87581C3.44943 1.87581 3.16278 1.99454 2.95144 2.20589C2.74009 2.41723 2.62136 2.70388 2.62136 3.00276C2.62136 3.30165 2.74009 3.58829 2.95144 3.79964L4.99519 5.83776L1.14394 9.68995C0.900157 9.93371 0.706777 10.2231 0.574842 10.5416C0.442907 10.8601 0.375 11.2015 0.375 11.5462C0.375 11.8909 0.442907 12.2323 0.574842 12.5508C0.706777 12.8693 0.900157 13.1587 1.14394 13.4024L9.09956 21.3581C9.34332 21.6019 9.63271 21.7952 9.95121 21.9272C10.2697 22.0591 10.6111 22.127 10.9558 22.127C11.3006 22.127 11.6419 22.0591 11.9604 21.9272C12.2789 21.7952 12.5683 21.6019 12.8121 21.3581L20.1077 14.0634L22.1055 13.3959ZM19.1449 12.0112C18.9789 12.0663 18.828 12.1594 18.7043 12.2831L11.2211 19.7671C11.1863 19.802 11.1449 19.8297 11.0994 19.8485C11.0539 19.8674 11.0051 19.8771 10.9558 19.8771C10.9065 19.8771 10.8577 19.8674 10.8122 19.8485C10.7667 19.8297 10.7253 19.802 10.6905 19.7671L2.73488 11.8134C2.70001 11.7786 2.67235 11.7372 2.65348 11.6917C2.63461 11.6462 2.62489 11.5974 2.62489 11.5481C2.62489 11.4988 2.63461 11.45 2.65348 11.4045C2.67235 11.3589 2.70001 11.3176 2.73488 11.2828L6.58613 7.42964L8.86331 9.70682C8.59189 10.3478 8.55178 11.0632 8.74987 11.7304C8.94795 12.3977 9.37189 12.9753 9.94907 13.3643C10.5262 13.7534 11.2207 13.9296 11.9136 13.8628C12.6064 13.7961 13.2545 13.4905 13.7468 12.9984C14.2385 12.506 14.5438 11.8579 14.6104 11.1652C14.6769 10.4724 14.5005 9.77809 14.1114 9.20109C13.7223 8.62409 13.1447 8.20032 12.4775 8.00234C11.8103 7.80437 11.0951 7.84451 10.4543 8.11589L8.178 5.83776L10.9239 3.09464L19.668 11.8396L19.1449 12.0112ZM11.0946 10.3471C11.2357 10.2075 11.4265 10.1295 11.6251 10.1303C11.8236 10.1311 12.0138 10.2106 12.1538 10.3513C12.2938 10.4921 12.3723 10.6827 12.3721 10.8813C12.3718 11.0798 12.2928 11.2702 12.1524 11.4106C12.012 11.551 11.8216 11.63 11.6231 11.6303C11.4245 11.6305 11.2339 11.552 11.0932 11.412C10.9524 11.272 10.8729 11.0818 10.8721 10.8833C10.8713 10.6847 10.9493 10.4939 11.0889 10.3528L11.0946 10.3471ZM24.0002 19.5009C24.0002 20.0976 23.7631 20.6699 23.3412 21.0919C22.9192 21.5138 22.3469 21.7509 21.7502 21.7509C21.1535 21.7509 20.5812 21.5138 20.1592 21.0919C19.7372 20.6699 19.5002 20.0976 19.5002 19.5009C19.5002 17.6784 20.7124 16.0106 20.8502 15.8259C20.955 15.6862 21.0909 15.5728 21.2471 15.4947C21.4033 15.4166 21.5755 15.3759 21.7502 15.3759C21.9248 15.3759 22.0971 15.4166 22.2533 15.4947C22.4095 15.5728 22.5454 15.6862 22.6502 15.8259C22.788 16.0115 24.0002 17.6793 24.0002 19.5009Z" fill="#130032"/>
</g>
<defs>
<clipPath id="clip0_7_18224">
<rect width="24" height="24" fill="white"/>
</clipPath>
</defs>
</svg>
