<svg width="24" height="24" viewBox="0 0 24 24" fill="none" xmlns="http://www.w3.org/2000/svg">
<path d="M21.8877 2.11344C21.2548 1.48055 20.3964 1.125 19.5013 1.125C18.6062 1.125 17.7478 1.48055 17.1149 2.11344L17.0783 2.15094L12.1508 7.55844L11.6071 7.01562C11.3633 6.77184 11.074 6.57846 10.7555 6.44653C10.437 6.31459 10.0956 6.24668 9.75085 6.24668C9.40611 6.24668 9.06474 6.31459 8.74624 6.44653C8.42774 6.57846 8.13836 6.77184 7.8946 7.01562L0.704911 14.2053C0.600031 14.3098 0.516814 14.434 0.460033 14.5708C0.403252 14.7075 0.374023 14.8541 0.374023 15.0022C0.374023 15.1503 0.403252 15.2969 0.460033 15.4336C0.516814 15.5704 0.600031 15.6945 0.704911 15.7991L8.20491 23.2991C8.30943 23.4039 8.43362 23.4872 8.57036 23.5439C8.70711 23.6007 8.85372 23.6299 9.00179 23.6299C9.14985 23.6299 9.29646 23.6007 9.43321 23.5439C9.56995 23.4872 9.69414 23.4039 9.79866 23.2991L16.9893 16.1084C17.2331 15.8647 17.4264 15.5753 17.5584 15.2568C17.6903 14.9383 17.7582 14.5969 17.7582 14.2522C17.7582 13.9074 17.6903 13.5661 17.5584 13.2476C17.4264 12.9291 17.2331 12.6397 16.9893 12.3959L16.4455 11.8522L21.853 6.92469L21.8905 6.88812C22.204 6.57451 22.4526 6.2022 22.6221 5.79247C22.7916 5.38273 22.8788 4.94361 22.8785 4.5002C22.8782 4.05678 22.7906 3.61776 22.6206 3.20823C22.4506 2.7987 22.2016 2.42668 21.8877 2.11344ZM8.99991 20.9075L8.15616 20.0637L9.79772 18.4212C10.0091 18.2099 10.1278 17.9233 10.1278 17.6244C10.1278 17.3255 10.0091 17.0388 9.79772 16.8275C9.58638 16.6162 9.29973 16.4974 9.00085 16.4974C8.70196 16.4974 8.41532 16.6162 8.20397 16.8275L6.56241 18.47L5.53116 17.4387L7.17366 15.7962C7.385 15.5849 7.50374 15.2983 7.50374 14.9994C7.50374 14.7005 7.385 14.4138 7.17366 14.2025C6.96232 13.9912 6.67567 13.8724 6.37679 13.8724C6.0779 13.8724 5.79125 13.9912 5.57991 14.2025L3.93741 15.845L3.09366 15.0012L6.74991 11.345L12.6562 17.2512L8.99991 20.9075ZM20.3118 5.28031L14.0558 10.9812C13.9433 11.0837 13.8528 11.208 13.7897 11.3465C13.7266 11.485 13.6923 11.6348 13.6888 11.787C13.6853 11.9391 13.7127 12.0904 13.7693 12.2316C13.826 12.3729 13.9107 12.5012 14.0183 12.6087L15.3946 13.985C15.4295 14.0198 15.4571 14.0612 15.476 14.1067C15.4949 14.1522 15.5046 14.201 15.5046 14.2503C15.5046 14.2996 15.4949 14.3484 15.476 14.3939C15.4571 14.4394 15.4295 14.4808 15.3946 14.5156L14.2499 15.6575L8.34366 9.75125L9.48741 8.6075C9.52224 8.57263 9.5636 8.54497 9.60912 8.5261C9.65464 8.50723 9.70344 8.49752 9.75272 8.49752C9.802 8.49752 9.8508 8.50723 9.89633 8.5261C9.94185 8.54497 9.98321 8.57263 10.018 8.6075L11.3943 9.98375C11.5018 10.0914 11.6301 10.1761 11.7714 10.2328C11.9126 10.2894 12.0639 10.3168 12.2161 10.3133C12.3682 10.3098 12.5181 10.2755 12.6566 10.2124C12.795 10.1493 12.9193 10.0588 13.0218 9.94625L18.7227 3.69031C18.9341 3.47897 19.2207 3.36023 19.5196 3.36023C19.8185 3.36023 20.1051 3.47897 20.3165 3.69031C20.5278 3.90165 20.6465 4.1883 20.6465 4.48719C20.6465 4.78607 20.5278 5.07272 20.3165 5.28406L20.3118 5.28031Z" fill="#130032"/>
</svg>
