<svg width="24" height="24" viewBox="0 0 24 24" fill="none" xmlns="http://www.w3.org/2000/svg">
<path d="M19.0847 4.77952C17.663 3.38093 15.8597 2.43378 13.9013 2.05709C11.9429 1.6804 9.91687 1.891 8.07782 2.6624C6.23877 3.43381 4.66877 4.7316 3.56514 6.39268C2.46151 8.05375 1.8735 10.004 1.875 11.9983C1.875 16.1908 4.4625 19.7092 8.625 21.1801C9.13405 21.3601 9.67885 21.4153 10.2137 21.3412C10.7485 21.267 11.2577 21.0656 11.6985 20.7539C12.1394 20.4422 12.499 20.0292 12.7472 19.5497C12.9954 19.0702 13.125 18.5382 13.125 17.9983C13.125 17.6999 13.2435 17.4138 13.4545 17.2028C13.6655 16.9918 13.9516 16.8733 14.25 16.8733H18.5822C19.3479 16.8769 20.0918 16.6185 20.6903 16.141C21.2889 15.6635 21.7062 14.9956 21.8728 14.2483C22.0467 13.4822 22.1313 12.6985 22.125 11.913C22.1158 10.5819 21.8422 9.26585 21.3203 8.0413C20.7984 6.81675 20.0385 5.70804 19.0847 4.77952ZM19.6791 13.7486C19.6232 13.9973 19.4839 14.2194 19.2844 14.378C19.0849 14.5366 18.8371 14.6222 18.5822 14.6205H14.25C13.3549 14.6205 12.4965 14.976 11.8635 15.609C11.2306 16.2419 10.875 17.1004 10.875 17.9955C10.8748 18.1753 10.8315 18.3525 10.7486 18.5122C10.6658 18.6719 10.5459 18.8093 10.399 18.9131C10.2521 19.0169 10.0824 19.0839 9.90424 19.1085C9.72607 19.1332 9.54459 19.1148 9.375 19.0548C7.81407 18.5036 6.50157 17.5773 5.58 16.3773C4.62267 15.1195 4.11081 13.5789 4.125 11.9983C4.12489 9.92375 4.94337 7.93297 6.40263 6.45844C7.86188 4.98392 9.84403 4.14476 11.9184 4.12327H12C14.0745 4.13171 16.0626 4.95501 17.5357 6.41567C19.0088 7.87633 19.8489 9.85736 19.875 11.9317C19.8801 12.5441 19.8144 13.155 19.6791 13.7523V13.7486ZM13.5 7.12327C13.5 7.41994 13.412 7.70995 13.2472 7.95662C13.0824 8.2033 12.8481 8.39556 12.574 8.50909C12.2999 8.62262 11.9983 8.65233 11.7074 8.59445C11.4164 8.53657 11.1491 8.39371 10.9393 8.18393C10.7296 7.97415 10.5867 7.70688 10.5288 7.41591C10.4709 7.12493 10.5007 6.82333 10.6142 6.54925C10.7277 6.27516 10.92 6.04089 11.1666 5.87607C11.4133 5.71124 11.7033 5.62327 12 5.62327C12.3978 5.62327 12.7794 5.78131 13.0607 6.06261C13.342 6.34391 13.5 6.72545 13.5 7.12327ZM9.375 9.37327C9.375 9.66994 9.28703 9.95995 9.12221 10.2066C8.95739 10.4533 8.72312 10.6456 8.44903 10.7591C8.17494 10.8726 7.87334 10.9023 7.58237 10.8444C7.2914 10.7866 7.02412 10.6437 6.81434 10.4339C6.60456 10.2242 6.4617 9.95688 6.40382 9.6659C6.34595 9.37493 6.37565 9.07333 6.48918 8.79924C6.60272 8.52516 6.79497 8.29089 7.04165 8.12607C7.28832 7.96124 7.57833 7.87327 7.875 7.87327C8.27283 7.87327 8.65436 8.03131 8.93566 8.31261C9.21697 8.59391 9.375 8.97545 9.375 9.37327ZM9.375 14.6233C9.375 14.9199 9.28703 15.21 9.12221 15.4566C8.95739 15.7033 8.72312 15.8956 8.44903 16.0091C8.17494 16.1226 7.87334 16.1523 7.58237 16.0944C7.2914 16.0366 7.02412 15.8937 6.81434 15.6839C6.60456 15.4742 6.4617 15.2069 6.40382 14.9159C6.34595 14.6249 6.37565 14.3233 6.48918 14.0492C6.60272 13.7752 6.79497 13.5409 7.04165 13.3761C7.28832 13.2112 7.57833 13.1233 7.875 13.1233C8.27283 13.1233 8.65436 13.2813 8.93566 13.5626C9.21697 13.8439 9.375 14.2254 9.375 14.6233ZM17.625 9.37327C17.625 9.66994 17.537 9.95995 17.3722 10.2066C17.2074 10.4533 16.9731 10.6456 16.699 10.7591C16.4249 10.8726 16.1233 10.9023 15.8324 10.8444C15.5414 10.7866 15.2741 10.6437 15.0643 10.4339C14.8546 10.2242 14.7117 9.95688 14.6538 9.6659C14.5959 9.37493 14.6257 9.07333 14.7392 8.79924C14.8527 8.52516 15.045 8.29089 15.2916 8.12607C15.5383 7.96124 15.8283 7.87327 16.125 7.87327C16.5228 7.87327 16.9044 8.03131 17.1857 8.31261C17.467 8.59391 17.625 8.97545 17.625 9.37327Z" fill="#130032"/>
</svg>
