<svg width="24" height="24" viewBox="0 0 24 24" fill="none" xmlns="http://www.w3.org/2000/svg">
<path d="M22.8919 4.51406C22.6647 4.33814 22.3999 4.21729 22.1181 4.161C21.8364 4.10472 21.5454 4.11454 21.2681 4.18968L20.9409 4.27781C19.1944 4.74843 15.945 5.625 12 5.625C8.055 5.625 4.80562 4.74843 3.05906 4.27781L2.73187 4.18968C2.45436 4.11588 2.1636 4.10681 1.88203 4.16317C1.60045 4.21952 1.33558 4.3398 1.10785 4.51472C0.880115 4.68964 0.695602 4.91454 0.568539 5.17206C0.441477 5.42957 0.375262 5.71284 0.375 6V18C0.374998 18.4963 0.57177 18.9724 0.922185 19.3238C1.2726 19.6753 1.74807 19.8735 2.24437 19.875C2.40992 19.8747 2.57473 19.853 2.73469 19.8103L3.03375 19.7287C4.78125 19.2553 8.03437 18.375 12 18.375C15.9656 18.375 19.2187 19.2562 20.9662 19.7297L21.2653 19.8112C21.5431 19.8856 21.8342 19.895 22.1162 19.8389C22.3983 19.7827 22.6636 19.6624 22.8917 19.4873C23.1198 19.3122 23.3045 19.087 23.4317 18.8291C23.5589 18.5712 23.625 18.2875 23.625 18V6C23.6259 5.71252 23.5601 5.42874 23.4329 5.17093C23.3057 4.91312 23.1205 4.68828 22.8919 4.51406ZM12 7.875C16.125 7.875 19.6069 6.96656 21.375 6.49031V16.6012L16.5722 11.7994C16.2206 11.4479 15.7437 11.2504 15.2466 11.2504C14.7494 11.2504 14.2726 11.4479 13.9209 11.7994L12.3103 13.4062L8.45062 9.54937C8.09901 9.19786 7.62218 9.0004 7.125 9.0004C6.62782 9.0004 6.15099 9.19786 5.79937 9.54937L2.625 12.7228V6.49031C4.39312 6.96656 7.875 7.875 12 7.875ZM13.9012 15L15.2466 13.6547L18.3834 16.7916C17.4375 16.6041 16.3659 16.4231 15.2016 16.2994L13.9012 15ZM2.625 17.5087V15.9047L7.125 11.4047L11.8453 16.125C7.7925 16.1475 4.38187 17.0344 2.625 17.5087ZM17.25 10.125C17.25 9.82832 17.338 9.53831 17.5028 9.29164C17.6676 9.04497 17.9019 8.85271 18.176 8.73918C18.4501 8.62565 18.7517 8.59594 19.0426 8.65382C19.3336 8.7117 19.6009 8.85456 19.8107 9.06434C20.0204 9.27412 20.1633 9.54139 20.2212 9.83236C20.2791 10.1233 20.2493 10.4249 20.1358 10.699C20.0223 10.9731 19.83 11.2074 19.5834 11.3722C19.3367 11.537 19.0467 11.625 18.75 11.625C18.3522 11.625 17.9706 11.467 17.6893 11.1857C17.408 10.9044 17.25 10.5228 17.25 10.125Z" fill="#130032"/>
</svg>
