<svg width="24" height="24" viewBox="0 0 24 24" fill="none" xmlns="http://www.w3.org/2000/svg">
<path d="M21.3613 20.0175L19.2988 3.5175C19.2422 3.06394 19.0218 2.64671 18.6791 2.34424C18.3364 2.04177 17.895 1.8749 17.4379 1.875H6.56291C6.10582 1.8749 5.66444 2.04177 5.32175 2.34424C4.97905 2.64671 4.75865 3.06394 4.70197 3.5175L2.63947 20.0175C2.6065 20.2813 2.63002 20.5492 2.70847 20.8032C2.78693 21.0573 2.91852 21.2917 3.09451 21.4911C3.2705 21.6904 3.48687 21.85 3.72926 21.9593C3.97165 22.0686 4.23452 22.1251 4.50041 22.125H8.3151C8.73126 22.1263 9.13596 21.9887 9.46507 21.7339C9.79417 21.4792 10.0289 21.1219 10.132 20.7187L12.0004 13.5L13.867 20.7131C13.97 21.1172 14.2047 21.4754 14.5341 21.7311C14.8635 21.9868 15.2687 22.1254 15.6857 22.125H19.5004C19.7663 22.1251 20.0292 22.0686 20.2716 21.9593C20.5139 21.85 20.7303 21.6904 20.9063 21.4911C21.0823 21.2917 21.2139 21.0573 21.2923 20.8032C21.3708 20.5492 21.3943 20.2813 21.3613 20.0175ZM17.107 4.125L17.2945 5.625H6.70635L6.89385 4.125H17.107ZM8.02541 19.875H4.9251L5.9751 11.475C6.78202 11.2502 7.50164 10.7856 8.03869 10.1427C8.57574 9.49985 8.9049 8.70905 8.9826 7.875H10.8754V8.85656L8.02541 19.875ZM15.9763 19.875L13.1254 8.85656V7.875H15.0182C15.0958 8.70897 15.425 9.49969 15.9621 10.1424C16.4991 10.7851 17.2188 11.2495 18.0257 11.4741L19.0757 19.875H15.9763Z" fill="#130032"/>
</svg>
