<svg width="24" height="24" viewBox="0 0 24 24" fill="none" xmlns="http://www.w3.org/2000/svg">
<path d="M22.6333 18.58L22.6277 18.5716L13.6221 2.82718C13.4587 2.53818 13.2215 2.29774 12.9347 2.13045C12.648 1.96315 12.3219 1.875 11.9899 1.875C11.6579 1.875 11.3319 1.96315 11.0451 2.13045C10.7583 2.29774 10.5211 2.53818 10.3577 2.82718L1.3671 18.58C1.18101 18.9122 1.10048 19.2932 1.1362 19.6723C1.17193 20.0513 1.32222 20.4106 1.56709 20.7021C1.81195 20.9937 2.13979 21.2038 2.507 21.3046C2.8742 21.4053 3.26336 21.3918 3.62272 21.2659L12.0002 18.4366L20.3777 21.2659C20.5791 21.3373 20.7912 21.3738 21.0049 21.3737C21.3317 21.3727 21.6525 21.2863 21.9356 21.123C22.2187 20.9597 22.4542 20.7253 22.6188 20.443C22.7833 20.1606 22.8713 19.8402 22.8738 19.5134C22.8764 19.1866 22.7935 18.8649 22.6333 18.58ZM13.1252 16.4416V11.2487C13.1252 10.9504 13.0067 10.6642 12.7957 10.4533C12.5847 10.2423 12.2986 10.1237 12.0002 10.1237C11.7019 10.1237 11.4157 10.2423 11.2047 10.4533C10.9937 10.6642 10.8752 10.9504 10.8752 11.2487V16.4416L3.81772 18.8256L11.9899 4.50437L20.1808 18.8247L13.1252 16.4416Z" fill="#130032"/>
</svg>
