<svg width="24" height="24" viewBox="0 0 24 24" fill="none" xmlns="http://www.w3.org/2000/svg">
<path d="M21.9239 10.3587L6.16827 1.36807C5.83607 1.18199 5.45509 1.10145 5.07601 1.13718C4.69693 1.1729 4.3377 1.32319 4.04612 1.56806C3.75454 1.81293 3.54442 2.14077 3.4437 2.50797C3.34299 2.87518 3.35646 3.26434 3.48233 3.6237L6.3117 12.0012L3.48233 20.3787C3.38286 20.6613 3.35256 20.9637 3.39398 21.2604C3.4354 21.5571 3.54733 21.8396 3.72039 22.0842C3.89345 22.3288 4.1226 22.5283 4.38865 22.6661C4.6547 22.8039 4.9499 22.876 5.24952 22.8762C5.57172 22.8755 5.88836 22.7922 6.1692 22.6343L6.17764 22.6287L21.9276 13.6221C22.2164 13.4587 22.4566 13.2215 22.6238 12.9348C22.7909 12.6481 22.879 12.3223 22.879 11.9904C22.879 11.6586 22.7909 11.3327 22.6238 11.046C22.4566 10.7593 22.2164 10.5222 21.9276 10.3587H21.9239ZM5.92358 20.1818L8.3067 13.1262H13.4995C13.7979 13.1262 14.084 13.0077 14.295 12.7967C14.506 12.5857 14.6245 12.2996 14.6245 12.0012C14.6245 11.7028 14.506 11.4167 14.295 11.2057C14.084 10.9947 13.7979 10.8762 13.4995 10.8762H8.3067L5.92264 3.8187L20.2439 11.9909L5.92358 20.1818Z" fill="#130032"/>
</svg>
