<svg width="24" height="24" viewBox="0 0 24 24" fill="none" xmlns="http://www.w3.org/2000/svg">
<path d="M19.9203 12.795L12.2272 20.4825C11.1719 21.5373 9.74089 22.1298 8.24884 22.1295C6.75678 22.1293 5.32594 21.5363 4.27108 20.4811C3.21622 19.4258 2.62376 17.9948 2.62402 16.5027C2.62429 15.0107 3.21726 13.5798 4.27249 12.525L13.475 3.34777C14.1785 2.64462 15.1326 2.24974 16.1272 2.25C16.6197 2.25013 17.1074 2.34727 17.5624 2.53587C18.0174 2.72446 18.4307 3.00083 18.7789 3.34918C19.1271 3.69753 19.4032 4.11105 19.5916 4.56612C19.7799 5.02119 19.8768 5.50891 19.8767 6.00142C19.8765 6.49394 19.7794 6.9816 19.5908 7.43657C19.4022 7.89155 19.1258 8.30492 18.7775 8.65308L18.7615 8.66808L9.7803 17.3137C9.67381 17.4161 9.54818 17.4966 9.41059 17.5505C9.27301 17.6044 9.12616 17.6306 8.97842 17.6277C8.83069 17.6249 8.68497 17.5929 8.54958 17.5337C8.4142 17.4745 8.29179 17.3893 8.18936 17.2828C8.08693 17.1763 8.00648 17.0507 7.9526 16.9131C7.89872 16.7755 7.87246 16.6286 7.87534 16.4809C7.87821 16.3332 7.91015 16.1874 7.96934 16.0521C8.02853 15.9167 8.11381 15.7943 8.2203 15.6918L17.1931 7.05558C17.4736 6.77338 17.6305 6.39131 17.6292 5.99344C17.628 5.59557 17.4688 5.21449 17.1866 4.93402C17.0468 4.79515 16.8811 4.68516 16.6989 4.61033C16.5166 4.5355 16.3214 4.4973 16.1244 4.49791C15.7265 4.49914 15.3455 4.65838 15.065 4.94058L5.86249 14.115C5.22957 14.7481 4.8741 15.6068 4.87428 16.502C4.87437 16.9453 4.96176 17.3842 5.13148 17.7937C5.3012 18.2033 5.54991 18.5753 5.86343 18.8887C6.17694 19.2021 6.5491 19.4507 6.95868 19.6202C7.36825 19.7898 7.80721 19.877 8.25049 19.8769C9.14575 19.8767 10.0043 19.5209 10.6372 18.8878L18.3303 11.2003C18.4349 11.0956 18.5592 11.0126 18.6959 10.956C18.8326 10.8993 18.9792 10.8702 19.1272 10.8702C19.2752 10.8702 19.4217 10.8993 19.5584 10.956C19.6952 11.0126 19.8194 11.0956 19.924 11.2003C20.0287 11.3049 20.1117 11.4292 20.1683 11.5659C20.225 11.7026 20.2541 11.8492 20.2541 11.9971C20.2541 12.1451 20.225 12.2917 20.1683 12.4284C20.1117 12.5651 20.0287 12.6894 19.924 12.794L19.9203 12.795Z" fill="#130032"/>
</svg>
