<svg width="24" height="24" viewBox="0 0 24 24" fill="none" xmlns="http://www.w3.org/2000/svg">
<path d="M22.125 11.25C22.122 8.5656 21.0543 5.99199 19.1562 4.09383C17.258 2.19567 14.6844 1.12798 12 1.125C9.3156 1.12798 6.74199 2.19567 4.84383 4.09383C2.94567 5.99199 1.87798 8.5656 1.875 11.25C1.87523 11.4048 1.9074 11.5579 1.96951 11.6997C2.03162 11.8415 2.12232 11.9689 2.23594 12.0741L2.25656 12.0928C2.2725 12.1069 2.28938 12.1219 2.30719 12.135L2.325 12.15L10.875 18.5625V19.875H10.5C10.2016 19.875 9.91548 19.9935 9.7045 20.2045C9.49353 20.4155 9.375 20.7016 9.375 21C9.375 21.2984 9.49353 21.5845 9.7045 21.7955C9.91548 22.0065 10.2016 22.125 10.5 22.125H13.5C13.7984 22.125 14.0845 22.0065 14.2955 21.7955C14.5065 21.5845 14.625 21.2984 14.625 21C14.625 20.7016 14.5065 20.4155 14.2955 20.2045C14.0845 19.9935 13.7984 19.875 13.5 19.875H13.125V18.5625L21.675 12.15C21.8147 12.0452 21.9281 11.9093 22.0062 11.7531C22.0843 11.5969 22.125 11.4247 22.125 11.25ZM19.7953 10.125H16.8403C16.6725 7.38094 15.9028 5.38781 15.0656 3.9975C16.3135 4.52725 17.404 5.36918 18.2323 6.44232C19.0606 7.51545 19.5989 8.78367 19.7953 10.125ZM9.41437 10.125C9.67031 6.44625 11.1562 4.51031 12 3.69187C12.8438 4.51031 14.3297 6.44625 14.5856 10.125H9.41437ZM8.93438 3.9975C8.09063 5.38781 7.3275 7.38094 7.15969 10.125H4.20469C4.4011 8.78367 4.93935 7.51545 5.76768 6.44232C6.596 5.36918 7.68654 4.52725 8.93438 3.9975ZM6.375 12.375H10.875V15.75L6.375 12.375ZM13.125 12.375H17.625L13.125 15.75V12.375Z" fill="#130032"/>
</svg>
