<svg width="24" height="24" viewBox="0 0 24 24" fill="none" xmlns="http://www.w3.org/2000/svg">
<path d="M19.5 3.375H9C7.30925 3.375 5.68774 4.04665 4.49219 5.24219C3.29665 6.43774 2.625 8.05925 2.625 9.75C2.625 11.4408 3.29665 13.0623 4.49219 14.2578C5.68774 15.4534 7.30925 16.125 9 16.125H12.375V19.5C12.375 19.7984 12.4935 20.0845 12.7045 20.2955C12.9155 20.5065 13.2016 20.625 13.5 20.625C13.7984 20.625 14.0845 20.5065 14.2955 20.2955C14.5065 20.0845 14.625 19.7984 14.625 19.5V5.625H16.125V19.5C16.125 19.7984 16.2435 20.0845 16.4545 20.2955C16.6655 20.5065 16.9516 20.625 17.25 20.625C17.5484 20.625 17.8345 20.5065 18.0455 20.2955C18.2565 20.0845 18.375 19.7984 18.375 19.5V5.625H19.5C19.7984 5.625 20.0845 5.50647 20.2955 5.2955C20.5065 5.08452 20.625 4.79837 20.625 4.5C20.625 4.20163 20.5065 3.91548 20.2955 3.7045C20.0845 3.49353 19.7984 3.375 19.5 3.375ZM12.375 13.875H9C7.90598 13.875 6.85677 13.4404 6.08318 12.6668C5.3096 11.8932 4.875 10.844 4.875 9.75C4.875 8.65598 5.3096 7.60677 6.08318 6.83318C6.85677 6.0596 7.90598 5.625 9 5.625H12.375V13.875Z" fill="#130032"/>
</svg>
