<svg width="24" height="24" viewBox="0 0 24 24" fill="none" xmlns="http://www.w3.org/2000/svg">
<path d="M23.3229 4.23188C23.1535 3.96866 22.9207 3.75224 22.6458 3.60251C22.3709 3.45278 22.0628 3.37455 21.7498 3.375H8.32575C7.96454 3.37495 7.611 3.47924 7.30764 3.67532C7.00429 3.87141 6.76403 4.15094 6.61575 4.48031L0.54075 17.9803C0.412224 18.2658 0.357238 18.579 0.38081 18.8912C0.404382 19.2034 0.50576 19.5047 0.675696 19.7677C0.845631 20.0306 1.07871 20.2469 1.35367 20.3966C1.62863 20.5464 1.93672 20.6249 2.24981 20.625H15.6739C16.0351 20.6251 16.3886 20.5208 16.692 20.3247C16.9953 20.1286 17.2356 19.8491 17.3839 19.5197L23.4589 6.01969C23.5882 5.73425 23.6435 5.42084 23.6198 5.10838C23.596 4.79592 23.4939 4.49448 23.3229 4.23188ZM15.4311 18.375H2.83106L8.56856 5.625H21.1686L15.4311 18.375Z" fill="#130032"/>
</svg>
