<svg width="24" height="24" viewBox="0 0 24 24" fill="none" xmlns="http://www.w3.org/2000/svg">
<path d="M21.75 17.6243H19.125V16.1243H21C21.1709 16.1243 21.3396 16.0853 21.4933 16.0103C21.6469 15.9354 21.7814 15.8264 21.8866 15.6916C21.9918 15.5569 22.0649 15.3999 22.1004 15.2327C22.1358 15.0655 22.1327 14.8923 22.0912 14.7265L19.0912 2.72651C19.0303 2.48325 18.8898 2.26734 18.6921 2.11307C18.4944 1.95879 18.2508 1.875 18 1.875C17.7492 1.875 17.5056 1.95879 17.3079 2.11307C17.1102 2.26734 16.9697 2.48325 16.9088 2.72651L13.9088 14.7265C13.8673 14.8923 13.8642 15.0655 13.8996 15.2327C13.9351 15.3999 14.0082 15.5569 14.1134 15.6916C14.2186 15.8264 14.3531 15.9354 14.5067 16.0103C14.6604 16.0853 14.8291 16.1243 15 16.1243H16.875V17.6243H10.875V16.4993C11.1734 16.4993 11.4595 16.3808 11.6705 16.1698C11.8815 15.9588 12 15.6727 12 15.3743C12 15.076 11.8815 14.7898 11.6705 14.5788C11.4595 14.3678 11.1734 14.2493 10.875 14.2493V13.1243C11.1734 13.1243 11.4595 13.0058 11.6705 12.7948C11.8815 12.5838 12 12.2977 12 11.9993C12 11.701 11.8815 11.4148 11.6705 11.2038C11.4595 10.9928 11.1734 10.8743 10.875 10.8743H3C2.70163 10.8743 2.41548 10.9928 2.2045 11.2038C1.99353 11.4148 1.875 11.701 1.875 11.9993C1.875 12.2977 1.99353 12.5838 2.2045 12.7948C2.41548 13.0058 2.70163 13.1243 3 13.1243V14.2493C2.70163 14.2493 2.41548 14.3678 2.2045 14.5788C1.99353 14.7898 1.875 15.076 1.875 15.3743C1.875 15.6727 1.99353 15.9588 2.2045 16.1698C2.41548 16.3808 2.70163 16.4993 3 16.4993V17.6243H2.25C1.95163 17.6243 1.66548 17.7428 1.4545 17.9538C1.24353 18.1648 1.125 18.451 1.125 18.7493C1.125 19.0477 1.24353 19.3338 1.4545 19.5448C1.66548 19.7558 1.95163 19.8743 2.25 19.8743H21.75C22.0484 19.8743 22.3345 19.7558 22.5455 19.5448C22.7565 19.3338 22.875 19.0477 22.875 18.7493C22.875 18.451 22.7565 18.1648 22.5455 17.9538C22.3345 17.7428 22.0484 17.6243 21.75 17.6243ZM18 7.63807L19.5591 13.8743H16.4409L18 7.63807ZM5.25 13.1243H8.625V14.2493H5.25V13.1243ZM5.25 16.4993H8.625V17.6243H5.25V16.4993ZM10.875 9.37432C11.4683 9.37432 12.0484 9.19837 12.5417 8.86873C13.0351 8.53908 13.4196 8.07055 13.6466 7.52237C13.8737 6.97419 13.9331 6.37099 13.8174 5.78905C13.7016 5.20711 13.4159 4.67256 12.9963 4.253C12.5768 3.83344 12.0422 3.54772 11.4603 3.43196C10.8783 3.31621 10.2751 3.37562 9.72695 3.60268C9.17877 3.82974 8.71024 4.21426 8.38059 4.70761C8.05095 5.20096 7.875 5.78098 7.875 6.37432C7.875 7.16997 8.19107 7.93303 8.75368 8.49564C9.31629 9.05825 10.0794 9.37432 10.875 9.37432ZM10.875 5.62432C11.0233 5.62432 11.1683 5.66831 11.2917 5.75072C11.415 5.83313 11.5111 5.95026 11.5679 6.08731C11.6247 6.22435 11.6395 6.37515 11.6106 6.52064C11.5816 6.66612 11.5102 6.79976 11.4053 6.90465C11.3004 7.00954 11.1668 7.08097 11.0213 7.10991C10.8758 7.13885 10.725 7.12399 10.588 7.06723C10.4509 7.01046 10.3338 6.91433 10.2514 6.791C10.169 6.66766 10.125 6.52266 10.125 6.37432C10.125 6.17541 10.204 5.98464 10.3447 5.84399C10.4853 5.70334 10.6761 5.62432 10.875 5.62432Z" fill="#130032"/>
</svg>
