<svg width="24" height="24" viewBox="0 0 24 24" fill="none" xmlns="http://www.w3.org/2000/svg">
<path d="M17.7073 2.65277C15.882 1.90277 13.7145 1.68808 11.6033 2.03964C9.32701 2.41464 7.35357 3.40183 5.89576 4.88402C2.38764 8.45214 3.09826 15.7093 4.68732 19.4893C5.33139 21.0343 6.46857 22.8756 8.20389 22.8756C10.5833 22.8756 11.6464 20.8 12.5848 18.9681C13.2158 17.7362 13.8683 16.4612 14.8564 15.7909C15.3711 15.4421 16.0958 15.1628 16.8636 14.8665C19.0845 14.0106 22.1248 12.8378 22.1248 8.73527C22.1248 6.01839 20.5142 3.8012 17.7073 2.65277ZM16.0536 12.7675C15.2023 13.0956 14.3211 13.4359 13.5936 13.929C12.1283 14.9228 11.307 16.5268 10.5814 17.9425C9.73013 19.6065 9.1592 20.6256 8.20389 20.6256C8.08389 20.6256 7.45389 20.2684 6.7592 18.6193C5.38857 15.3521 4.86451 9.14214 7.49982 6.46089C8.60514 5.33589 10.1933 4.55402 11.9708 4.2587C12.4976 4.17186 13.0306 4.12827 13.5645 4.12839C14.6894 4.11881 15.8058 4.32471 16.8533 4.73495C17.9783 5.1962 19.8729 6.3287 19.8729 8.73527C19.8748 11.17 18.4226 11.8534 16.0536 12.7675Z" fill="#130032"/>
</svg>
