<svg width="24" height="24" viewBox="0 0 24 24" fill="none" xmlns="http://www.w3.org/2000/svg">
<path d="M20.9313 8.53875C20.4381 7.90533 19.8147 7.38517 19.1032 7.01344C18.9814 5.61118 18.3384 4.30553 17.301 3.35423C16.2636 2.40293 14.9072 1.87512 13.4997 1.875H7.87472C7.4566 1.87506 7.0505 2.01488 6.72096 2.27222C6.39143 2.52957 6.15736 2.88968 6.05597 3.29531L2.68097 16.7953C2.61188 17.0717 2.60668 17.3602 2.66578 17.6389C2.72489 17.9177 2.84672 18.1792 3.02205 18.4038C3.19737 18.6284 3.42157 18.8101 3.67761 18.935C3.93365 19.06 4.21481 19.125 4.49972 19.125H6.59878L6.43097 19.7953C6.36188 20.0717 6.35668 20.3602 6.41578 20.6389C6.47489 20.9177 6.59672 21.1792 6.77205 21.4038C6.94737 21.6284 7.17157 21.8101 7.42761 21.935C7.68365 22.06 7.96481 22.125 8.24972 22.125H11.2028C11.621 22.1249 12.0271 21.9851 12.3566 21.7278C12.6861 21.4704 12.9202 21.1103 13.0216 20.7047L13.7932 17.625H16.4997C17.5535 17.6249 18.5861 17.3288 19.4798 16.7704C20.3735 16.2119 21.0924 15.4137 21.5545 14.4666C22.0166 13.5196 22.2034 12.4617 22.0935 11.4136C21.9837 10.3656 21.5816 9.36943 20.9332 8.53875H20.9313ZM8.16815 4.125H13.4997C14.0128 4.12352 14.5195 4.23981 14.9806 4.46492C15.4417 4.69003 15.845 5.01795 16.1594 5.42344C16.3859 5.71187 16.5642 6.03513 16.6872 6.38062C16.6253 6.38062 16.5644 6.375 16.4997 6.375H11.2497C10.8316 6.37506 10.4255 6.51488 10.096 6.77222C9.76643 7.02957 9.53236 7.38968 9.43097 7.79531L7.16128 16.875H4.98065L8.16815 4.125ZM16.6769 8.62969C16.4446 9.28659 16.0143 9.85528 15.4452 10.2574C14.8762 10.6595 14.1965 10.8753 13.4997 10.875H10.9807L11.5432 8.625H16.4997C16.5578 8.625 16.6178 8.625 16.6769 8.62969ZM19.7707 12.8184C19.5892 13.5486 19.1685 14.197 18.5757 14.6603C17.9829 15.1237 17.2521 15.3752 16.4997 15.375H13.4997C13.0816 15.3751 12.6755 15.5149 12.346 15.7722C12.0164 16.0296 11.7824 16.3897 11.681 16.7953L10.9113 19.875H8.73065L10.4182 13.125H13.4997C14.6418 13.1262 15.7571 12.7792 16.6968 12.1301C17.6365 11.481 18.356 10.5608 18.7591 9.49219C19.2131 9.90309 19.5472 10.4294 19.7259 11.0152C19.9045 11.6009 19.9209 12.2241 19.7735 12.8184H19.7707Z" fill="#130032"/>
</svg>
