<svg width="24" height="24" viewBox="0 0 24 24" fill="none" xmlns="http://www.w3.org/2000/svg">
<path d="M12 1.875C9.99747 1.875 8.0399 2.46882 6.37486 3.58137C4.70981 4.69392 3.41206 6.27523 2.64572 8.12533C1.87939 9.97543 1.67888 12.0112 2.06955 13.9753C2.46023 15.9393 3.42454 17.7435 4.84055 19.1595C6.25656 20.5755 8.06066 21.5398 10.0247 21.9305C11.9888 22.3211 14.0246 22.1206 15.8747 21.3543C17.7248 20.5879 19.3061 19.2902 20.4186 17.6251C21.5312 15.9601 22.125 14.0025 22.125 12C22.122 9.3156 21.0543 6.74199 19.1562 4.84383C17.258 2.94567 14.6844 1.87798 12 1.875ZM19.875 12C19.8772 13.2325 19.5881 14.448 19.0313 15.5475L13.125 11.4141V4.20656C14.9981 4.47929 16.7107 5.41664 17.9499 6.84747C19.1892 8.27829 19.8725 10.1071 19.875 12ZM10.875 4.20656V11.4141L4.96875 15.5475C4.40404 14.4323 4.11318 13.1985 4.12026 11.9484C4.12733 10.6984 4.43215 9.46802 5.00945 8.35923C5.58675 7.25045 6.41992 6.29517 7.43995 5.57252C8.45998 4.84988 9.63751 4.38066 10.875 4.20375V4.20656ZM6.26532 17.3888L10.875 14.1609V19.7934C9.11019 19.5379 7.4847 18.6899 6.26532 17.3888ZM13.125 19.7934V14.1609L17.7347 17.3888C16.5153 18.6899 14.8898 19.5379 13.125 19.7934Z" fill="#130032"/>
</svg>
