<svg width="24" height="24" viewBox="0 0 24 24" fill="none" xmlns="http://www.w3.org/2000/svg">
<path d="M21.1803 11.4478C21.171 11.43 21.1625 11.4131 21.1522 11.3953L18.3753 6.45469V3C18.3753 2.50272 18.1778 2.02581 17.8262 1.67417C17.4745 1.32254 16.9976 1.125 16.5003 1.125H7.50033C7.00305 1.125 6.52614 1.32254 6.17451 1.67417C5.82288 2.02581 5.62533 2.50272 5.62533 3V6.45656L2.84846 11.3953C2.83797 11.4125 2.82858 11.4304 2.82033 11.4488C2.66706 11.7567 2.60196 12.1011 2.63224 12.4437C2.66252 12.7864 2.78699 13.114 2.9919 13.3903C3.00033 13.4025 3.00877 13.4137 3.01815 13.425L11.1219 23.5772C11.2273 23.7091 11.361 23.8156 11.5132 23.8888C11.6653 23.9619 11.832 23.9999 12.0008 23.9999C12.1696 23.9999 12.3363 23.9619 12.4884 23.8888C12.6406 23.8156 12.7743 23.7091 12.8797 23.5772L20.9825 13.425C20.9919 13.4137 21.0003 13.4025 21.0088 13.3903C21.2137 13.1138 21.3381 12.7861 21.3684 12.4432C21.3987 12.1004 21.3336 11.7559 21.1803 11.4478ZM16.1253 3.375V5.625H7.87533V3.375H16.1253ZM12.0003 13.5C11.8149 13.5 11.6337 13.445 11.4795 13.342C11.3253 13.239 11.2052 13.0926 11.1342 12.9213C11.0632 12.75 11.0447 12.5615 11.0808 12.3796C11.117 12.1977 11.2063 12.0307 11.3374 11.8996C11.4685 11.7685 11.6356 11.6792 11.8174 11.643C11.9993 11.6068 12.1878 11.6254 12.3591 11.6964C12.5304 11.7673 12.6768 11.8875 12.7798 12.0417C12.8829 12.1958 12.9378 12.3771 12.9378 12.5625C12.9378 12.8111 12.8391 13.0496 12.6632 13.2254C12.4874 13.4012 12.249 13.5 12.0003 13.5ZM13.1253 19.6631V15.5447C13.8235 15.2813 14.4072 14.7814 14.7746 14.1319C15.142 13.4824 15.27 12.7246 15.1361 11.9905C15.0023 11.2564 14.6151 10.5926 14.0421 10.1146C13.4691 9.63661 12.7465 9.37482 12.0003 9.37482C11.2541 9.37482 10.5316 9.63661 9.95857 10.1146C9.38555 10.5926 8.99839 11.2564 8.86454 11.9905C8.73068 12.7246 8.85862 13.4824 9.22606 14.1319C9.5935 14.7814 10.1772 15.2813 10.8753 15.5447V19.6622L4.95315 12.2428L7.40658 7.875H16.5941L19.0494 12.2428L13.1253 19.6631Z" fill="#130032"/>
</svg>
