<svg width="24" height="24" viewBox="0 0 24 24" fill="none" xmlns="http://www.w3.org/2000/svg">
<path d="M23.6248 8.68976C23.6254 8.44344 23.5772 8.19944 23.4829 7.97189C23.3886 7.74434 23.2501 7.53777 23.0754 7.36413L16.6366 0.924443C16.4625 0.750253 16.2558 0.612074 16.0282 0.517799C15.8007 0.423523 15.5568 0.375 15.3105 0.375C15.0642 0.375 14.8204 0.423523 14.5928 0.517799C14.3653 0.612074 14.1586 0.750253 13.9844 0.924443L11.3763 3.53257L6.01007 5.54538C5.70189 5.66086 5.42954 5.85542 5.22038 6.10951C5.01122 6.36359 4.87262 6.66826 4.81851 6.99288L2.63976 20.0635C2.61248 20.2249 2.62074 20.3903 2.66397 20.5481C2.70719 20.706 2.78434 20.8525 2.89003 20.9775C2.99571 21.1024 3.1274 21.2028 3.27588 21.2717C3.42437 21.3405 3.58609 21.3761 3.74976 21.376C3.81257 21.3763 3.87529 21.3713 3.93726 21.361L17.0107 19.1813C17.335 19.1267 17.6393 18.988 17.8932 18.7791C18.1472 18.5702 18.342 18.2983 18.4582 17.9907L20.4701 12.6235L23.0782 10.0154C23.2524 9.84154 23.3905 9.63487 23.4843 9.40732C23.5781 9.17978 23.6258 8.93588 23.6248 8.68976ZM16.4248 16.9979L7.03101 18.5635L10.1248 15.4698C10.8047 15.7767 11.5708 15.8354 12.2896 15.6357C13.0084 15.436 13.6343 14.9905 14.0585 14.3767C14.4826 13.763 14.678 13.02 14.6107 12.277C14.5434 11.534 14.2176 10.8382 13.6901 10.3106C13.1626 9.78313 12.4668 9.45735 11.7238 9.39005C10.9808 9.32274 10.2378 9.51817 9.62404 9.9423C9.01031 10.3664 8.56479 10.9924 8.36507 11.7112C8.16535 12.43 8.22407 13.1961 8.53101 13.876L5.43726 16.9698L7.00288 7.57601L11.7185 5.80788L18.1919 12.2823L16.4248 16.9979ZM10.4998 12.5635C10.4998 12.3781 10.5547 12.1968 10.6578 12.0427C10.7608 11.8885 10.9072 11.7683 11.0785 11.6974C11.2498 11.6264 11.4383 11.6078 11.6202 11.644C11.802 11.6802 11.9691 11.7695 12.1002 11.9006C12.2313 12.0317 12.3206 12.1988 12.3567 12.3806C12.3929 12.5625 12.3744 12.751 12.3034 12.9223C12.2324 13.0936 12.1123 13.24 11.9581 13.343C11.8039 13.446 11.6227 13.501 11.4373 13.501C11.1886 13.501 10.9502 13.4022 10.7743 13.2264C10.5985 13.0506 10.4998 12.8121 10.4998 12.5635ZM19.4998 10.4073L13.5935 4.50101L15.3129 2.78163L21.2191 8.68788L19.4998 10.4073Z" fill="#130032"/>
</svg>
