<svg width="24" height="24" viewBox="0 0 24 24" fill="none" xmlns="http://www.w3.org/2000/svg">
<path d="M21.5766 6.61272L17.3869 2.42397C17.0353 2.07247 16.5584 1.875 16.0613 1.875C15.5641 1.875 15.0872 2.07247 14.7356 2.42397L3.17438 13.9843C2.99968 14.1579 2.86116 14.3645 2.76686 14.592C2.67255 14.8196 2.62434 15.0636 2.62501 15.3099V19.4996C2.62501 19.9969 2.82255 20.4738 3.17418 20.8254C3.52581 21.1771 4.00273 21.3746 4.50001 21.3746H8.68969C8.93602 21.3753 9.18003 21.3271 9.40759 21.2328C9.63514 21.1385 9.84172 21 10.0153 20.8252L17.4647 13.3768L17.8547 14.679L14.58 17.9537C14.3687 18.165 14.2499 18.4516 14.2499 18.7505C14.2499 19.0494 14.3687 19.3361 14.58 19.5474C14.7914 19.7588 15.078 19.8775 15.3769 19.8775C15.6758 19.8775 15.9624 19.7588 16.1738 19.5474L19.9238 15.7974C20.0674 15.6536 20.1693 15.4736 20.2189 15.2765C20.2684 15.0794 20.2636 14.8726 20.205 14.678L19.2731 11.5721L21.5784 9.26679C21.7528 9.09251 21.8911 8.88556 21.9853 8.65779C22.0796 8.43001 22.1281 8.18588 22.1279 7.93937C22.1277 7.69285 22.0789 7.44879 21.9843 7.22115C21.8897 6.99351 21.7512 6.78676 21.5766 6.61272ZM6.09376 14.2496L12.75 7.59335L16.4063 11.2496L9.75001 17.9058L6.09376 14.2496ZM4.87501 16.2183L7.78126 19.1246H4.87501V16.2183ZM18 9.65585L14.3438 5.9996L16.0631 4.28022L19.7194 7.93647L18 9.65585Z" fill="#130032"/>
</svg>
