<svg width="24" height="24" viewBox="0 0 24 24" fill="none" xmlns="http://www.w3.org/2000/svg">
<path d="M21.5756 6.61413L17.3869 2.42444C17.2128 2.25025 17.006 2.11207 16.7785 2.0178C16.551 1.92352 16.3071 1.875 16.0608 1.875C15.8145 1.875 15.5706 1.92352 15.3431 2.0178C15.1155 2.11207 14.9088 2.25025 14.7347 2.42444L3.17438 13.9857C2.99963 14.1593 2.86109 14.3659 2.76679 14.5934C2.67248 14.821 2.62429 15.065 2.62501 15.3113V19.501C2.62501 19.9983 2.82255 20.4752 3.17418 20.8268C3.52581 21.1785 4.00273 21.376 4.50001 21.376H8.68969C8.93601 21.3767 9.18001 21.3285 9.40756 21.2342C9.63511 21.1399 9.84168 21.0013 10.0153 20.8266L21.5756 9.26538C21.9271 8.91377 22.1246 8.43694 22.1246 7.93976C22.1246 7.44257 21.9271 6.96574 21.5756 6.61413ZM8.53126 19.126H4.87501V15.4698L12.75 7.59476L16.4063 11.251L8.53126 19.126ZM18 9.65726L14.3438 6.00101L16.0631 4.28163L19.7194 7.93788L18 9.65726Z" fill="#130032"/>
</svg>
