<svg width="24" height="24" viewBox="0 0 24 24" fill="none" xmlns="http://www.w3.org/2000/svg">
<path d="M19.16 4.83737C17.5029 3.17911 15.322 2.14677 12.989 1.91629C10.656 1.68581 8.31531 2.27144 6.36572 3.57338C4.41613 4.87533 2.97832 6.81303 2.2973 9.05628C1.61628 11.2995 1.7342 13.7095 2.63096 15.8756C3.52771 18.0416 5.14782 19.8297 7.2152 20.9351C9.28258 22.0405 11.6693 22.3948 13.9686 21.9377C16.268 21.4806 18.3377 20.2403 19.825 18.4281C21.3124 16.616 22.1253 14.3442 22.1254 11.9999C22.1253 9.31372 21.0587 6.73749 19.16 4.83737ZM8.62535 18.7499C8.62535 18.4515 8.74388 18.1654 8.95486 17.9544C9.16584 17.7434 9.45199 17.6249 9.75035 17.6249C10.0487 17.6249 10.3349 17.7434 10.5458 17.9544C10.7568 18.1654 10.8754 18.4515 10.8754 18.7499V19.7914C10.0957 19.6799 9.33717 19.4517 8.62535 19.1146V18.7499ZM13.1254 18.7499C13.1254 18.4515 13.2439 18.1654 13.4549 17.9544C13.6658 17.7434 13.952 17.6249 14.2504 17.6249C14.5487 17.6249 14.8349 17.7434 15.0458 17.9544C15.2568 18.1654 15.3754 18.4515 15.3754 18.7499V19.1146C14.6635 19.4517 13.9051 19.6799 13.1254 19.7914V18.7499ZM9.95098 13.8749H14.0497L14.7594 15.4142C14.2671 15.3394 13.7644 15.3746 13.2873 15.5172C12.8103 15.6599 12.3707 15.9065 12.0004 16.2392C11.6299 15.9066 11.1903 15.6602 10.7133 15.5177C10.2362 15.3752 9.7335 15.3402 9.24129 15.4152L9.95098 13.8749ZM10.9897 11.6249L12.0004 9.433L13.011 11.6249H10.9897ZM17.6254 17.5114V16.4999C17.6247 16.3381 17.5895 16.1783 17.5222 16.0311L13.0222 6.28112C12.9323 6.08577 12.7882 5.92029 12.6071 5.80429C12.426 5.6883 12.2154 5.62665 12.0004 5.62665C11.7853 5.62665 11.5747 5.6883 11.3936 5.80429C11.2125 5.92029 11.0684 6.08577 10.9785 6.28112L6.47848 16.0311C6.4112 16.1783 6.37605 16.3381 6.37535 16.4999V17.5096C5.2901 16.4019 4.55601 14.9985 4.26514 13.4754C3.97426 11.9522 4.13955 10.3771 4.74027 8.94749C5.341 7.51789 6.35042 6.29747 7.64196 5.43924C8.9335 4.58102 10.4497 4.12321 12.0004 4.12321C13.551 4.12321 15.0672 4.58102 16.3588 5.43924C17.6503 6.29747 18.6597 7.51789 19.2604 8.94749C19.8612 10.3771 20.0264 11.9522 19.7356 13.4754C19.4447 14.9985 18.7106 16.4019 17.6254 17.5096V17.5114Z" fill="#130032"/>
</svg>
