<svg width="24" height="24" viewBox="0 0 24 24" fill="none" xmlns="http://www.w3.org/2000/svg">
<path d="M19.5 2.62682H15C14.5027 2.62682 14.0258 2.82437 13.6742 3.176C13.3225 3.52763 13.125 4.00454 13.125 4.50182V19.5018C13.125 19.9991 13.3225 20.476 13.6742 20.8276C14.0258 21.1793 14.5027 21.3768 15 21.3768H19.5C19.9973 21.3768 20.4742 21.1793 20.8258 20.8276C21.1775 20.476 21.375 19.9991 21.375 19.5018V4.50182C21.375 4.00454 21.1775 3.52763 20.8258 3.176C20.4742 2.82437 19.9973 2.62682 19.5 2.62682ZM19.125 19.1268H15.375V16.8768H16.875C17.1734 16.8768 17.4595 16.7583 17.6705 16.5473C17.8815 16.3363 18 16.0502 18 15.7518C18 15.4535 17.8815 15.1673 17.6705 14.9563C17.4595 14.7454 17.1734 14.6268 16.875 14.6268H15.375V13.1268H16.875C17.1734 13.1268 17.4595 13.0083 17.6705 12.7973C17.8815 12.5863 18 12.3002 18 12.0018C18 11.7035 17.8815 11.4173 17.6705 11.2063C17.4595 10.9954 17.1734 10.8768 16.875 10.8768H15.375V9.37682H16.875C17.1734 9.37682 17.4595 9.2583 17.6705 9.04732C17.8815 8.83634 18 8.55019 18 8.25182C18 7.95346 17.8815 7.66731 17.6705 7.45633C17.4595 7.24535 17.1734 7.12682 16.875 7.12682H15.375V4.87682H19.125V19.1268ZM7.54594 2.20589C7.44142 2.10101 7.31723 2.01779 7.18049 1.96101C7.04374 1.90423 6.89713 1.875 6.74907 1.875C6.601 1.875 6.45439 1.90423 6.31765 1.96101C6.1809 2.01779 6.05671 2.10101 5.95219 2.20589L2.95219 5.20589C2.74195 5.41735 2.62427 5.70364 2.625 6.00182V19.5018C2.625 19.9991 2.82255 20.476 3.17418 20.8276C3.52581 21.1793 4.00272 21.3768 4.5 21.3768H9C9.49728 21.3768 9.9742 21.1793 10.3258 20.8276C10.6775 20.476 10.875 19.9991 10.875 19.5018V6.00182C10.8751 5.85404 10.8461 5.70769 10.7897 5.57112C10.7332 5.43455 10.6504 5.31044 10.5459 5.20589L7.54594 2.20589ZM4.875 8.62682H8.625V15.3768H4.875V8.62682ZM6.75 4.59557L8.53125 6.37682H4.96875L6.75 4.59557ZM4.875 19.1268V17.6268H8.625V19.1268H4.875Z" fill="#130032"/>
</svg>
