<svg width="24" height="24" viewBox="0 0 24 24" fill="none" xmlns="http://www.w3.org/2000/svg">
<path d="M5.33251 2.99304C5.23371 2.88167 5.11379 2.79102 4.97971 2.72634C4.84562 2.66166 4.70003 2.62424 4.55137 2.61624C4.40271 2.60824 4.25395 2.62983 4.11369 2.67975C3.97344 2.72967 3.84449 2.80693 3.73432 2.90706C3.62415 3.00718 3.53494 3.12818 3.47187 3.26303C3.40881 3.39788 3.37313 3.54391 3.36692 3.69266C3.3607 3.8414 3.38407 3.98989 3.43567 4.12954C3.48727 4.26918 3.56607 4.3972 3.66751 4.50616L7.94626 9.21241L3.17438 13.9843C2.99968 14.1579 2.86116 14.3645 2.76686 14.592C2.67255 14.8196 2.62434 15.0636 2.62501 15.3099V19.4996C2.62501 19.9969 2.82255 20.4738 3.17418 20.8254C3.52581 21.1771 4.00273 21.3746 4.50001 21.3746H8.68969C8.93602 21.3753 9.18003 21.3271 9.40759 21.2328C9.63514 21.1385 9.84172 21 10.0153 20.8252L14.4619 16.3796L18.6684 21.0062C18.7672 21.1175 18.8872 21.2082 19.0212 21.2729C19.1553 21.3375 19.3009 21.375 19.4496 21.383C19.5982 21.391 19.747 21.3694 19.8873 21.3194C20.0275 21.2695 20.1565 21.1923 20.2666 21.0921C20.3768 20.992 20.466 20.871 20.5291 20.7362C20.5921 20.6013 20.6278 20.4553 20.634 20.3065C20.6402 20.1578 20.6169 20.0093 20.5653 19.8697C20.5137 19.73 20.4349 19.602 20.3334 19.493L5.33251 2.99304ZM8.53126 19.1246H4.87501V15.4684L9.46126 10.8821L12.9469 14.7155L8.53126 19.1246ZM21.5766 6.61272L17.3869 2.42397C17.0353 2.07247 16.5584 1.875 16.0613 1.875C15.5641 1.875 15.0872 2.07247 14.7356 2.42397L11.3606 5.79897C11.169 5.99277 11.0542 6.24956 11.0376 6.52161C11.0211 6.79367 11.1038 7.06249 11.2705 7.27812C11.4372 7.49375 11.6765 7.64152 11.944 7.69399C12.2115 7.74645 12.4889 7.70003 12.7247 7.56335L16.4063 11.2496L16.3556 11.2993C16.251 11.4039 16.168 11.5282 16.1113 11.6649C16.0547 11.8016 16.0256 11.9482 16.0256 12.0962C16.0256 12.2442 16.0547 12.3907 16.1113 12.5274C16.168 12.6642 16.251 12.7884 16.3556 12.893C16.4603 12.9977 16.5845 13.0807 16.7212 13.1373C16.858 13.194 17.0045 13.2231 17.1525 13.2231C17.3005 13.2231 17.447 13.194 17.5838 13.1373C17.7205 13.0807 17.8447 12.9977 17.9494 12.893L21.5747 9.26772C21.7494 9.09368 21.8881 8.88687 21.9828 8.65914C22.0775 8.43141 22.1263 8.18724 22.1265 7.94061C22.1267 7.69399 22.0782 7.44975 21.9838 7.22189C21.8894 6.99403 21.7511 6.78702 21.5766 6.61272ZM18 9.65585L14.3438 5.9996L16.0631 4.28022L19.7194 7.93648L18 9.65585Z" fill="#130032"/>
</svg>
