<svg width="24" height="24" viewBox="0 0 24 24" fill="none" xmlns="http://www.w3.org/2000/svg">
<path d="M21.3749 7.91093L13.1342 1.50874L13.1099 1.48999C12.7887 1.25292 12.4 1.125 12.0008 1.125C11.6016 1.125 11.2129 1.25292 10.8917 1.48999L10.8674 1.50874L2.62487 7.91093C2.31423 8.14363 2.08347 8.46701 1.96441 8.83643C1.84535 9.20586 1.84388 9.60313 1.96019 9.97343L4.96019 20.0525L4.96769 20.0769C5.08861 20.4543 5.32645 20.7836 5.64682 21.017C5.96719 21.2504 6.35349 21.3759 6.74987 21.3753H17.2499C17.6463 21.3756 18.0326 21.2497 18.3528 21.016C18.673 20.7822 18.9106 20.4527 19.0311 20.075L19.0386 20.0506L22.0386 9.97155C22.1546 9.6016 22.1531 9.2048 22.0342 8.83577C21.9153 8.46674 21.685 8.14363 21.3749 7.91093ZM16.9686 19.1253H7.03112L4.183 9.55062L11.9999 3.47749L19.8167 9.55062L16.9686 19.1253Z" fill="#130032"/>
</svg>
