<svg width="24" height="24" viewBox="0 0 24 24" fill="none" xmlns="http://www.w3.org/2000/svg">
<path d="M22.7812 8.42242C22.6598 8.04552 22.422 7.71687 22.1018 7.48385C21.7817 7.25083 21.3959 7.12548 20.9999 7.12586H15.5484L13.7859 1.69305C13.6677 1.31268 13.4311 0.980031 13.1105 0.743625C12.79 0.507219 12.4023 0.379431 12.004 0.378908C11.6057 0.378384 11.2176 0.505152 10.8965 0.740715C10.5753 0.976278 10.3378 1.30831 10.2187 1.68836L8.45148 7.12586H2.99991C2.60342 7.12588 2.21713 7.25159 1.89657 7.48493C1.576 7.71826 1.33766 8.04721 1.21578 8.42451C1.0939 8.80181 1.09477 9.20803 1.21825 9.58481C1.34174 9.96159 1.58148 10.2895 1.90304 10.5215L6.31866 13.6987L4.6246 18.9205C4.50227 19.2968 4.5021 19.7021 4.6241 20.0785C4.7461 20.4548 4.98402 20.7829 5.30382 21.0159C5.62362 21.2488 6.0089 21.3746 6.40454 21.3753C6.80018 21.3759 7.18589 21.2515 7.50648 21.0196L11.9999 17.7862L16.4896 21.0159C16.8099 21.2485 17.1956 21.3739 17.5914 21.3739C17.9873 21.374 18.373 21.2487 18.6933 21.0161C19.0137 20.7835 19.2522 20.4555 19.3746 20.0791C19.4971 19.7027 19.4973 19.2971 19.3752 18.9205L17.6812 13.6987L22.1015 10.5187C22.4215 10.2857 22.6597 9.95749 22.7818 9.58094C22.9039 9.20439 22.9037 8.79885 22.7812 8.42242ZM11.9999 3.47992L13.183 7.12586H10.8168L11.9999 3.47992ZM4.16429 9.37586H7.72116L7.04804 11.4505L4.16429 9.37586ZM7.11835 18.5259L8.23679 15.0777L10.0734 16.3996L7.11835 18.5259ZM8.96616 12.8306L10.0912 9.37586H13.918L15.043 12.8306L11.9999 15.014L8.96616 12.8306ZM13.9265 16.3996L15.763 15.0777L16.8815 18.5259L13.9265 16.3996ZM16.9518 11.4505L16.2787 9.37586H19.8355L16.9518 11.4505Z" fill="#130032"/>
</svg>
