<svg width="24" height="24" viewBox="0 0 24 24" fill="none" xmlns="http://www.w3.org/2000/svg">
<path d="M15.99 3.45187C15.7572 2.57086 15.2398 1.79148 14.5182 1.23501C13.7965 0.678542 12.9112 0.376191 12 0.375C11.7016 0.375 11.4155 0.493526 11.2045 0.704505C10.9935 0.915483 10.875 1.20163 10.875 1.5C10.875 1.79837 10.9935 2.08452 11.2045 2.2955C11.4155 2.50647 11.7016 2.625 12 2.625C12.3224 2.62548 12.6392 2.70907 12.9198 2.86771C13.2005 3.02635 13.4355 3.25467 13.6022 3.53062C12.1905 3.84979 10.9292 4.63905 10.0249 5.76904C9.12057 6.89903 8.62697 8.30271 8.62499 9.75C8.62499 11.7881 8.07843 13.5131 7.00124 14.8772C5.85562 16.3275 4.07812 17.4159 1.71937 18.1106C1.31244 18.2293 0.95771 18.4823 0.713042 18.8284C0.468374 19.1745 0.348204 19.5933 0.372132 20.0165C0.39606 20.4397 0.562673 20.8423 0.844797 21.1587C1.12692 21.475 1.50791 21.6864 1.92562 21.7584C3.353 22.0049 4.799 22.1275 6.24749 22.125C10.1484 22.125 14.4975 21.2456 17.5172 18.7144C20.0775 16.5675 21.375 13.5516 21.375 9.75C21.373 8.23132 20.8298 6.76307 19.8429 5.60879C18.8559 4.45451 17.4899 3.68979 15.99 3.45187ZM15 5.625C15.8026 5.6252 16.5878 5.85956 17.2592 6.29934C17.9306 6.73913 18.4591 7.36524 18.78 8.10094L18 8.49187L15.5034 7.24312C15.3471 7.16491 15.1748 7.12419 15 7.12419C14.8252 7.12419 14.6529 7.16491 14.4966 7.24312L12 8.49187L11.22 8.10094C11.5409 7.36524 12.0694 6.73913 12.7408 6.29934C13.4122 5.85956 14.1974 5.6252 15 5.625ZM16.0716 16.9903C14.4403 18.3581 12.1031 19.2844 9.31218 19.6697C7.50249 19.9088 5.67114 19.9368 3.85499 19.7531C8.23124 18.0178 10.6312 14.8275 10.8562 10.4353L11.4966 10.7559C11.653 10.8337 11.8253 10.8741 12 10.8741C12.1747 10.8741 12.347 10.8337 12.5034 10.7559L15 9.50719L17.4966 10.7559C17.653 10.8337 17.8253 10.8741 18 10.8741C18.1747 10.8741 18.347 10.8337 18.5034 10.7559L19.1062 10.4541C18.96 13.2253 17.9419 15.4219 16.0716 16.9903Z" fill="#130032"/>
</svg>
