<svg width="24" height="24" viewBox="0 0 24 24" fill="none" xmlns="http://www.w3.org/2000/svg">
<path d="M19.5462 6.04406L6.04616 19.5441C5.94151 19.6487 5.81728 19.7317 5.68055 19.7884C5.54382 19.845 5.39728 19.8741 5.24928 19.8741C5.10129 19.8741 4.95475 19.845 4.81802 19.7884C4.68129 19.7317 4.55706 19.6487 4.45241 19.5441C4.34776 19.4394 4.26475 19.3152 4.20812 19.1785C4.15148 19.0417 4.12233 18.8952 4.12233 18.7472C4.12233 18.5992 4.15148 18.4526 4.20812 18.3159C4.26475 18.1792 4.34776 18.055 4.45241 17.9503L17.9524 4.45031C18.1638 4.23897 18.4504 4.12024 18.7493 4.12024C19.0482 4.12024 19.3348 4.23897 19.5462 4.45031C19.7575 4.66166 19.8762 4.9483 19.8762 5.24719C19.8762 5.54607 19.7575 5.83272 19.5462 6.04406ZM4.47397 9.77531C3.86081 9.16153 3.47944 8.35414 3.39483 7.4907C3.31023 6.62726 3.52762 5.7612 4.00998 5.04007C4.49233 4.31895 5.20981 3.78738 6.04015 3.53594C6.87049 3.2845 7.76232 3.32875 8.5637 3.66115C9.36507 3.99354 10.0264 4.59352 10.435 5.35885C10.8436 6.12418 10.9742 7.00751 10.8046 7.85833C10.6349 8.70916 10.1755 9.47483 9.50457 10.0249C8.83367 10.575 7.9928 10.8754 7.12522 10.875C6.63252 10.8762 6.14449 10.7796 5.68938 10.5909C5.23428 10.4021 4.82117 10.1249 4.47397 9.77531ZM5.62522 7.125C5.62506 7.47204 5.74524 7.8084 5.96528 8.07677C6.18532 8.34513 6.49161 8.5289 6.83195 8.59675C7.1723 8.6646 7.52564 8.61234 7.83177 8.44887C8.1379 8.2854 8.37788 8.02084 8.51081 7.70027C8.64375 7.3797 8.66141 7.02295 8.5608 6.69081C8.46018 6.35868 8.24751 6.0717 7.95903 5.87879C7.67054 5.68588 7.32409 5.59897 6.97871 5.63287C6.63333 5.66677 6.31038 5.81937 6.06491 6.06469C5.92506 6.2035 5.81417 6.36872 5.73869 6.55073C5.66321 6.73275 5.62464 6.92795 5.62522 7.125ZM20.6252 16.875C20.6252 17.7426 20.3244 18.5833 19.774 19.2539C19.2236 19.9245 18.4577 20.3835 17.6068 20.5528C16.756 20.7221 15.8727 20.5911 15.1076 20.1821C14.3425 19.7732 13.7428 19.1116 13.4108 18.3101C13.0787 17.5086 13.0348 16.6168 13.2866 15.7866C13.5384 14.9564 14.0702 14.2391 14.7915 13.7571C15.5128 13.275 16.3789 13.058 17.2423 13.1429C18.1057 13.2278 18.9129 13.6095 19.5265 14.2228C19.876 14.5702 20.1532 14.9835 20.3418 15.4387C20.5304 15.894 20.6267 16.3822 20.6252 16.875ZM18.3752 16.875C18.3759 16.6778 18.3374 16.4824 18.2619 16.3002C18.1864 16.118 18.0755 15.9527 17.9355 15.8137C17.6901 15.5685 17.3672 15.4159 17.0218 15.3819C16.6765 15.348 16.3301 15.4349 16.0416 15.6277C15.7531 15.8206 15.5404 16.1075 15.4397 16.4395C15.3391 16.7716 15.3566 17.1283 15.4894 17.4489C15.6223 17.7695 15.8621 18.0341 16.1682 18.1977C16.4742 18.3612 16.8275 18.4136 17.1678 18.3459C17.5081 18.2783 17.8145 18.0947 18.0346 17.8265C18.2548 17.5583 18.3752 17.222 18.3752 16.875Z" fill="#130032"/>
</svg>
