<svg width="24" height="24" viewBox="0 0 24 24" fill="none" xmlns="http://www.w3.org/2000/svg">
<path d="M20.7457 12.3151L16.5157 7.51976C16.2136 7.1765 15.845 6.8982 15.4321 6.70175C15.0192 6.5053 14.5707 6.3948 14.1138 6.37694C14.6585 5.93927 15.0539 5.34333 15.2454 4.67138C15.437 3.99942 15.4153 3.28458 15.1833 2.62549C14.9513 1.9664 14.5204 1.39557 13.9502 0.991764C13.38 0.58796 12.6985 0.371094 11.9998 0.371094C11.301 0.371094 10.6195 0.58796 10.0493 0.991764C9.47906 1.39557 9.04822 1.9664 8.81622 2.62549C8.58422 3.28458 8.5625 3.99942 8.75407 4.67138C8.94563 5.34333 9.34102 5.93927 9.88569 6.37694C9.4288 6.3948 8.9803 6.5053 8.56742 6.70175C8.15454 6.8982 7.78588 7.1765 7.48381 7.51976L3.25381 12.3151C2.84616 12.7376 2.61981 13.3027 2.62308 13.8898C2.62635 14.4769 2.85898 15.0395 3.27131 15.4575C3.68364 15.8754 4.24301 16.1157 4.83002 16.1269C5.41703 16.1381 5.98518 15.9195 6.41319 15.5176L7.04413 15.0123L5.78788 19.7832C5.5685 20.3227 5.56687 20.9263 5.78333 21.467C5.99979 22.0076 6.41748 22.4433 6.94856 22.6824C7.47964 22.9215 8.08274 22.9453 8.63102 22.7489C9.1793 22.5524 9.63006 22.1511 9.8885 21.6291L11.9998 17.9926L14.111 21.6291C14.3666 22.1462 14.8125 22.5443 15.3551 22.7401C15.7638 22.889 16.207 22.9163 16.6309 22.8186C17.0549 22.7208 17.4414 22.5023 17.7437 22.1894C18.046 21.8765 18.251 21.4827 18.3341 21.0556C18.4171 20.6285 18.3746 20.1866 18.2116 19.7832L16.9554 15.0123L17.5863 15.5176C18.0143 15.9195 18.5825 16.1381 19.1695 16.1269C19.7565 16.1157 20.3159 15.8754 20.7282 15.4575C21.1405 15.0395 21.3732 14.4769 21.3764 13.8898C21.3797 13.3027 21.1533 12.7376 20.7457 12.3151ZM11.9998 2.62694C12.2223 2.62694 12.4398 2.69292 12.6248 2.81654C12.8098 2.94016 12.954 3.11586 13.0391 3.32142C13.1243 3.52699 13.1465 3.75319 13.1031 3.97142C13.0597 4.18965 12.9526 4.3901 12.7952 4.54744C12.6379 4.70477 12.4375 4.81192 12.2192 4.85533C12.001 4.89873 11.7748 4.87646 11.5692 4.79131C11.3637 4.70616 11.188 4.56196 11.0643 4.37696C10.9407 4.19195 10.8748 3.97445 10.8748 3.75194C10.8748 3.45357 10.9933 3.16743 11.2043 2.95645C11.4152 2.74547 11.7014 2.62694 11.9998 2.62694ZM19.031 13.7944L15.701 11.1235C15.5163 10.9754 15.2896 10.8894 15.0532 10.8776C14.8168 10.8659 14.5827 10.929 14.3843 11.058C14.1858 11.187 14.0331 11.3753 13.9478 11.5961C13.8626 11.8169 13.8491 12.059 13.9094 12.2879L16.0563 20.4394C16.0736 20.5038 16.0965 20.5666 16.1248 20.6269C16.1108 20.5949 16.0951 20.5636 16.0779 20.5332L12.9729 15.1894C12.874 15.019 12.732 14.8775 12.5613 14.7791C12.3905 14.6807 12.1968 14.6289 11.9998 14.6289C11.8027 14.6289 11.609 14.6807 11.4382 14.7791C11.2675 14.8775 11.1255 15.019 11.0266 15.1894L7.92163 20.5332C7.90438 20.5636 7.88874 20.5949 7.87475 20.6269C7.90259 20.5664 7.92548 20.5037 7.94319 20.4394L10.0873 12.2907C10.1476 12.0618 10.1341 11.8197 10.0489 11.5989C9.96363 11.3781 9.8109 11.1898 9.61244 11.0608C9.41397 10.9318 9.17987 10.8687 8.94346 10.8805C8.70705 10.8922 8.48037 10.9783 8.29569 11.1263L4.9685 13.7944C4.93571 13.8198 4.90441 13.847 4.87475 13.876C4.89163 13.8601 4.90756 13.8423 4.9235 13.8254L9.17131 9.00757C9.27691 8.88791 9.40676 8.79208 9.55223 8.72646C9.6977 8.66083 9.85547 8.62691 10.0151 8.62694H13.9844C14.144 8.62691 14.3018 8.66083 14.4473 8.72646C14.5927 8.79208 14.7226 8.88791 14.8282 9.00757L19.0769 13.8254C19.0929 13.8423 19.1088 13.8601 19.1257 13.876C19.0957 13.847 19.0641 13.8198 19.031 13.7944Z" fill="#130032"/>
</svg>
