<svg width="24" height="24" viewBox="0 0 24 24" fill="none" xmlns="http://www.w3.org/2000/svg">
<path d="M8.47838 10.1813L9.06338 9.59625C7.90219 8.95687 6.59771 8.62269 5.27213 8.625H3.74963C3.45127 8.625 3.16512 8.50647 2.95414 8.2955C2.74316 8.08452 2.62463 7.79837 2.62463 7.5C2.62463 7.20163 2.74316 6.91548 2.95414 6.70451C3.16512 6.49353 3.45127 6.375 3.74963 6.375H5.27213C6.60225 6.37149 7.91984 6.63185 9.14865 7.14101C10.3775 7.65017 11.4931 8.39801 12.4309 9.34125L16.2043 13.1147C17.2112 13.14 18.2771 12.7734 19.5315 11.7338C19.6448 11.6366 19.7764 11.5629 19.9185 11.517C20.0605 11.4712 20.2103 11.4541 20.3591 11.4667C20.5079 11.4794 20.6526 11.5215 20.7849 11.5906C20.9173 11.6598 21.0345 11.7545 21.1298 11.8695C21.2251 11.9844 21.2966 12.1171 21.3401 12.2599C21.3836 12.4028 21.3982 12.5528 21.3832 12.7013C21.3681 12.8499 21.3236 12.9939 21.2523 13.1251C21.1809 13.2563 21.0842 13.3719 20.9678 13.4653C19.2643 14.8781 17.724 15.375 16.3262 15.375C14.4737 15.375 12.8706 14.5041 11.4624 13.7391C9.11307 12.4631 7.25682 11.4553 4.46776 13.7681C4.23801 13.9586 3.94202 14.05 3.64489 14.0222C3.34777 13.9944 3.07384 13.8497 2.88338 13.62C2.69293 13.3903 2.60153 13.0943 2.62931 12.7971C2.65709 12.5 2.80176 12.2261 3.03151 12.0356C5.0687 10.3463 6.87151 9.9675 8.47838 10.1813ZM13.1246 6.75C13.1246 6.08249 13.3226 5.42997 13.6934 4.87495C14.0643 4.31994 14.5914 3.88735 15.2081 3.63191C15.8248 3.37646 16.5034 3.30963 17.1581 3.43985C17.8127 3.57008 18.4141 3.89151 18.8861 4.36352C19.3581 4.83552 19.6796 5.43689 19.8098 6.09157C19.94 6.74626 19.8732 7.42486 19.6177 8.04156C19.3623 8.65826 18.9297 9.18536 18.3747 9.55621C17.8197 9.92706 17.1671 10.125 16.4996 10.125C15.6045 10.125 14.7461 9.76942 14.1131 9.13649C13.4802 8.50355 13.1246 7.64511 13.1246 6.75ZM15.3746 6.75C15.3746 6.97251 15.4406 7.19001 15.5642 7.37502C15.6878 7.56002 15.8635 7.70422 16.0691 7.78937C16.2747 7.87451 16.5009 7.89679 16.7191 7.85338C16.9373 7.80998 17.1378 7.70283 17.2951 7.5455C17.4525 7.38816 17.5596 7.18771 17.603 6.96948C17.6464 6.75125 17.6241 6.52505 17.539 6.31948C17.4538 6.11392 17.3097 5.93821 17.1247 5.8146C16.9396 5.69098 16.7221 5.625 16.4996 5.625C16.2013 5.625 15.9151 5.74353 15.7041 5.95451C15.4932 6.16548 15.3746 6.45163 15.3746 6.75ZM19.5315 16.9838C16.7424 19.2966 14.8862 18.2888 12.5368 17.0119C10.0665 15.6713 6.99245 14.0016 3.03151 17.2866C2.91504 17.38 2.81833 17.4956 2.74701 17.6268C2.67569 17.758 2.63119 17.902 2.61611 18.0505C2.60102 18.1991 2.61566 18.3491 2.65915 18.4919C2.70265 18.6348 2.77414 18.7675 2.86945 18.8824C2.96477 18.9973 3.082 19.0921 3.21432 19.1613C3.34665 19.2304 3.49141 19.2725 3.64017 19.2852C3.78893 19.2978 3.93872 19.2807 4.08081 19.2348C4.22289 19.189 4.35443 19.1153 4.46776 19.0181C7.25682 16.7063 9.11307 17.7131 11.4624 18.99C12.8687 19.7541 14.4737 20.625 16.3262 20.625C17.724 20.625 19.2643 20.1291 20.9678 18.7163C21.0815 18.6219 21.1756 18.5062 21.2446 18.3755C21.3136 18.2448 21.3562 18.1019 21.37 17.9547C21.3837 17.8076 21.3684 17.6592 21.3248 17.518C21.2812 17.3769 21.2102 17.2456 21.1159 17.1319C21.0216 17.0181 20.9058 16.9241 20.7751 16.855C20.6445 16.786 20.5015 16.7434 20.3544 16.7297C20.2073 16.7159 20.0589 16.7313 19.9177 16.7749C19.7765 16.8185 19.6453 16.8894 19.5315 16.9838Z" fill="#130032"/>
</svg>
