<svg width="24" height="24" viewBox="0 0 24 24" fill="none" xmlns="http://www.w3.org/2000/svg">
<path d="M22.069 8.14111C21.9664 7.63715 21.6911 7.18482 21.2906 6.86219C20.8901 6.53955 20.3895 6.36686 19.8753 6.37392H14.1181C14.6618 5.93573 15.0562 5.33967 15.247 4.6679C15.4377 3.99614 15.4154 3.28175 15.183 2.62322C14.9507 1.96468 14.5198 1.39443 13.9498 0.991069C13.3797 0.587705 12.6986 0.371094 12.0003 0.371094C11.302 0.371094 10.6208 0.587705 10.0508 0.991069C9.48077 1.39443 9.04989 1.96468 8.81756 2.62322C8.58522 3.28175 8.56288 3.99614 8.75361 4.6679C8.94434 5.33967 9.33875 5.93573 9.88247 6.37392H4.12529C3.6129 6.37519 3.1163 6.55131 2.7176 6.87315C2.3189 7.19499 2.04199 7.64327 1.93267 8.14386C1.82335 8.64445 1.88816 9.16736 2.11639 9.62611C2.34461 10.0849 2.72258 10.452 3.18779 10.6667L3.2056 10.6752L7.67091 12.6439L5.79029 19.7802C5.57444 20.3145 5.57187 20.9114 5.78311 21.4476C5.99435 21.9838 6.40329 22.4185 6.9256 22.6621C7.22269 22.8018 7.54698 22.8741 7.87529 22.8739C8.29422 22.8747 8.70504 22.7584 9.06149 22.5383C9.41793 22.3182 9.70584 22.0029 9.89279 21.628L12.0003 17.9905L14.1106 21.628C14.3695 22.1495 14.8204 22.5503 15.3686 22.7463C15.9169 22.9423 16.5197 22.9181 17.0505 22.6789C17.5813 22.4396 17.9987 22.004 18.215 21.4634C18.4312 20.9229 18.4296 20.3195 18.2103 19.7802L16.3353 12.6411L20.8006 10.6724L20.8184 10.6639C21.288 10.4548 21.6698 10.0883 21.8981 9.62777C22.1264 9.16722 22.1869 8.64145 22.069 8.14111ZM12.0003 2.62392C12.2228 2.62392 12.4403 2.6899 12.6253 2.81352C12.8103 2.93714 12.9545 3.11284 13.0397 3.31841C13.1248 3.52397 13.1471 3.75017 13.1037 3.9684C13.0603 4.18663 12.9531 4.38709 12.7958 4.54442C12.6384 4.70175 12.438 4.8089 12.2198 4.85231C12.0015 4.89572 11.7753 4.87344 11.5698 4.78829C11.3642 4.70314 11.1885 4.55895 11.0649 4.37394C10.9413 4.18894 10.8753 3.97143 10.8753 3.74892C10.8753 3.45056 10.9938 3.16441 11.2048 2.95343C11.4158 2.74245 11.7019 2.62392 12.0003 2.62392ZM14.5465 10.9677C14.3022 11.0755 14.1041 11.2667 13.9878 11.5072C13.8715 11.7477 13.8446 12.0217 13.9118 12.2802L16.0559 20.4364C16.0731 20.5008 16.096 20.5636 16.1244 20.6239C16.1103 20.5939 16.0944 20.5639 16.0775 20.5349L12.9734 15.1864C12.8745 15.0159 12.7326 14.8744 12.5618 14.7761C12.391 14.6777 12.1974 14.6259 12.0003 14.6259C11.8032 14.6259 11.6096 14.6777 11.4388 14.7761C11.268 14.8744 11.1261 15.0159 11.0272 15.1864L7.9231 20.5349C7.90623 20.5639 7.89029 20.5939 7.87623 20.6239C7.90461 20.5636 7.92751 20.5008 7.94466 20.4364L10.0887 12.2877C10.156 12.0292 10.129 11.7552 10.0128 11.5147C9.89647 11.2742 9.69842 11.083 9.45404 10.9752L4.12529 8.62392H19.8753L14.5465 10.9677Z" fill="#130032"/>
</svg>
