<svg width="24" height="24" viewBox="0 0 24 24" fill="none" xmlns="http://www.w3.org/2000/svg">
<path d="M16.5003 8.625C17.0936 8.625 17.6736 8.44905 18.167 8.11941C18.6603 7.78977 19.0449 7.32123 19.2719 6.77305C19.499 6.22487 19.5584 5.62167 19.4426 5.03973C19.3269 4.45779 19.0412 3.92324 18.6216 3.50368C18.202 3.08412 17.6675 2.7984 17.0856 2.68265C16.5036 2.56689 15.9004 2.6263 15.3522 2.85336C14.8041 3.08043 14.3355 3.46494 14.0059 3.95829C13.6762 4.45164 13.5003 5.03166 13.5003 5.625C13.5003 6.42065 13.8164 7.18371 14.379 7.74632C14.9416 8.30893 15.7046 8.625 16.5003 8.625ZM16.5003 4.875C16.6486 4.875 16.7936 4.91899 16.917 5.0014C17.0403 5.08381 17.1364 5.20094 17.1932 5.33799C17.25 5.47503 17.2648 5.62583 17.2359 5.77132C17.2069 5.9168 17.1355 6.05044 17.0306 6.15533C16.9257 6.26022 16.7921 6.33165 16.6466 6.36059C16.5011 6.38953 16.3503 6.37468 16.2133 6.31791C16.0762 6.26115 15.9591 6.16502 15.8767 6.04168C15.7943 5.91834 15.7503 5.77334 15.7503 5.625C15.7503 5.42609 15.8293 5.23532 15.97 5.09467C16.1106 4.95402 16.3014 4.875 16.5003 4.875ZM2.67029 7.56C2.75383 7.27357 2.94774 7.03205 3.20935 6.88859C3.47096 6.74512 3.77885 6.71146 4.06529 6.795L10.3934 8.64L11.2053 7.82906C11.3098 7.72418 11.434 7.64097 11.5707 7.58419C11.7075 7.52741 11.8541 7.49818 12.0022 7.49818C12.1502 7.49818 12.2968 7.52741 12.4336 7.58419C12.5703 7.64097 12.6945 7.72418 12.799 7.82906L15.469 10.5H18.7503C19.0487 10.5 19.3348 10.6185 19.5458 10.8295C19.7568 11.0405 19.8753 11.3266 19.8753 11.625C19.8753 11.9234 19.7568 12.2095 19.5458 12.4205C19.3348 12.6315 19.0487 12.75 18.7503 12.75H15.0003C14.7022 12.75 14.4162 12.6316 14.2053 12.4209L13.7468 11.9625L3.43435 8.95594C3.2925 8.91448 3.16021 8.84548 3.04504 8.75288C2.92987 8.66028 2.83407 8.5459 2.76311 8.41626C2.69216 8.28663 2.64744 8.14429 2.63151 7.99737C2.61558 7.85045 2.62876 7.70183 2.67029 7.56ZM22.3737 19.8347C21.5334 20.3952 20.5804 20.7648 19.5819 20.9175C18.5834 21.0703 17.5635 21.0024 16.594 20.7188L1.93622 16.4541C1.78681 16.4198 1.64597 16.3554 1.52234 16.2648C1.39872 16.1742 1.29492 16.0592 1.21732 15.927C1.13972 15.7948 1.08995 15.6482 1.07107 15.4961C1.05219 15.3439 1.06459 15.1896 1.10752 15.0424C1.15045 14.8953 1.223 14.7584 1.32072 14.6403C1.41843 14.5222 1.53925 14.4253 1.67576 14.3556C1.81227 14.2859 1.96159 14.2448 2.11455 14.2349C2.26752 14.2249 2.4209 14.2463 2.56529 14.2978L10.0578 16.4794L11.3525 15.1847L7.94091 14.2059C7.79634 14.1676 7.66088 14.1008 7.54243 14.0095C7.42399 13.9181 7.32494 13.8041 7.25109 13.674C7.17724 13.544 7.13006 13.4005 7.11233 13.252C7.09459 13.1035 7.10664 12.9529 7.14778 12.8091C7.18891 12.6653 7.25831 12.5312 7.35191 12.4145C7.44552 12.2979 7.56144 12.201 7.6929 12.1297C7.82437 12.0584 7.96874 12.014 8.11756 11.9991C8.26639 11.9843 8.41669 11.9992 8.55966 12.0431L13.8097 13.5431C13.9976 13.5971 14.1682 13.6992 14.3047 13.8392C14.4412 13.9793 14.5388 14.1525 14.5879 14.3418C14.637 14.5311 14.636 14.7299 14.5848 14.9186C14.5337 15.1074 14.4342 15.2795 14.2962 15.4181L12.5215 17.1938L17.2184 18.5625C17.8739 18.7545 18.5635 18.8004 19.2387 18.6969C19.9138 18.5933 20.558 18.343 21.1259 17.9634C21.3746 17.798 21.6787 17.738 21.9716 17.7969C22.2644 17.8557 22.5218 18.0284 22.6873 18.277C22.8528 18.5257 22.9127 18.8299 22.8539 19.1227C22.7951 19.4155 22.6224 19.673 22.3737 19.8384V19.8347Z" fill="#130032"/>
</svg>
