<svg width="24" height="24" viewBox="0 0 24 24" fill="none" xmlns="http://www.w3.org/2000/svg">
<path d="M22.5 10.8743H21.375V4.49935C21.3749 4.22475 21.3145 3.95352 21.198 3.70484C21.0816 3.45615 20.9119 3.23609 20.7011 3.06019C20.4902 2.88429 20.2433 2.75685 19.9777 2.68688C19.7122 2.61692 19.4345 2.60613 19.1644 2.65528L4.16437 5.38247C3.73251 5.46104 3.3419 5.68864 3.06061 6.02562C2.77931 6.36259 2.62515 6.78758 2.625 7.22653V10.8743H1.5C1.20163 10.8743 0.915483 10.9929 0.704505 11.2038C0.493526 11.4148 0.375 11.701 0.375 11.9993C0.375 12.2977 0.493526 12.5839 0.704505 12.7948C0.915483 13.0058 1.20163 13.1243 1.5 13.1243H2.625V16.7722C2.62515 17.2111 2.77931 17.6361 3.06061 17.9731C3.3419 18.31 3.73251 18.5376 4.16437 18.6162L19.1644 21.3434C19.4345 21.3926 19.7122 21.3818 19.9777 21.3118C20.2433 21.2418 20.4902 21.1144 20.7011 20.9385C20.9119 20.7626 21.0816 20.5425 21.198 20.2939C21.3145 20.0452 21.3749 19.7739 21.375 19.4993V13.1243H22.5C22.7984 13.1243 23.0845 13.0058 23.2955 12.7948C23.5065 12.5839 23.625 12.2977 23.625 11.9993C23.625 11.701 23.5065 11.4148 23.2955 11.2038C23.0845 10.9929 22.7984 10.8743 22.5 10.8743ZM4.875 7.53966L19.125 4.94935V10.8743H4.875V7.53966ZM19.125 19.0493L4.875 16.459V13.1243H19.125V19.0493Z" fill="#130032"/>
</svg>
