<svg width="24" height="24" viewBox="0 0 24 24" fill="none" xmlns="http://www.w3.org/2000/svg">
<path d="M14.2498 7.875C14.9173 7.875 15.5698 7.67706 16.1248 7.30621C16.6798 6.93536 17.1124 6.40826 17.3679 5.79156C17.6233 5.17486 17.6901 4.49626 17.5599 3.84157C17.4297 3.18689 17.1082 2.58552 16.6362 2.11352C16.1642 1.64151 15.5629 1.32008 14.9082 1.18985C14.2535 1.05963 13.5749 1.12646 12.9582 1.38191C12.3415 1.63735 11.8144 2.06994 11.4436 2.62495C11.0727 3.17997 10.8748 3.83249 10.8748 4.5C10.8748 5.39511 11.2303 6.25355 11.8633 6.88649C12.4962 7.51942 13.3547 7.875 14.2498 7.875ZM14.2498 3.375C14.4723 3.375 14.6898 3.44098 14.8748 3.5646C15.0598 3.68822 15.204 3.86392 15.2891 4.06948C15.3743 4.27505 15.3966 4.50125 15.3531 4.71948C15.3097 4.93771 15.2026 5.13816 15.0453 5.2955C14.8879 5.45283 14.6875 5.55998 14.4692 5.60338C14.251 5.64679 14.0248 5.62451 13.8192 5.53937C13.6137 5.45422 13.438 5.31002 13.3144 5.12502C13.1907 4.94001 13.1248 4.72251 13.1248 4.5C13.1248 4.20163 13.2433 3.91548 13.4543 3.70451C13.6652 3.49353 13.9514 3.375 14.2498 3.375ZM20.6248 13.875C20.6248 14.1734 20.5062 14.4595 20.2953 14.6705C20.0843 14.8815 19.7981 15 19.4998 15C16.031 15 14.3182 13.2684 12.9373 11.8781C12.7769 11.7169 12.6223 11.5594 12.4685 11.4094L11.6594 13.2703L14.906 15.5841C15.0514 15.6884 15.1697 15.826 15.2512 15.9853C15.3328 16.1446 15.3751 16.3211 15.3748 16.5V21.75C15.3748 22.0484 15.2562 22.3345 15.0453 22.5455C14.8343 22.7565 14.5481 22.875 14.2498 22.875C13.9514 22.875 13.6652 22.7565 13.4543 22.5455C13.2433 22.3345 13.1248 22.0484 13.1248 21.75V17.0784L10.7463 15.3797L7.78101 22.1981C7.72479 22.3375 7.64121 22.4642 7.53522 22.5707C7.42922 22.6772 7.30296 22.7615 7.16388 22.8184C7.0248 22.8753 6.87572 22.9038 6.72545 22.9022C6.57518 22.9005 6.42676 22.8688 6.28896 22.8088C6.15115 22.7489 6.02676 22.662 5.92311 22.5531C5.81946 22.4443 5.73866 22.3158 5.68549 22.1753C5.63232 22.0347 5.60784 21.8849 5.61352 21.7348C5.61919 21.5846 5.65489 21.4371 5.71851 21.3009L10.4116 10.5075C9.74664 10.5544 8.96539 10.8169 8.06789 11.295C7.06251 11.8491 6.12417 12.5169 5.27132 13.2853C5.05376 13.4896 4.76397 13.599 4.4657 13.5896C4.16743 13.5802 3.88511 13.4527 3.68086 13.2352C3.4766 13.0176 3.36713 12.7278 3.37654 12.4295C3.38594 12.1313 3.51345 11.8489 3.73101 11.6447C3.9757 11.415 9.76476 6.05063 13.4894 9.28406C13.8588 9.60469 14.2057 9.95531 14.5413 10.2947C15.7901 11.5575 16.9685 12.75 19.4998 12.75C19.7981 12.75 20.0843 12.8685 20.2953 13.0795C20.5062 13.2905 20.6248 13.5766 20.6248 13.875Z" fill="#130032"/>
</svg>
