<svg width="24" height="24" viewBox="0 0 24 24" fill="none" xmlns="http://www.w3.org/2000/svg">
<path d="M14.2497 7.875C14.9172 7.875 15.5697 7.67706 16.1248 7.30621C16.6798 6.93536 17.1124 6.40826 17.3678 5.79156C17.6232 5.17486 17.6901 4.49626 17.5599 3.84157C17.4296 3.18689 17.1082 2.58552 16.6362 2.11352C16.1642 1.64151 15.5628 1.32008 14.9081 1.18985C14.2535 1.05963 13.5749 1.12646 12.9582 1.38191C12.3415 1.63735 11.8144 2.06994 11.4435 2.62495C11.0727 3.17997 10.8747 3.83249 10.8747 4.5C10.8747 5.39511 11.2303 6.25355 11.8632 6.88649C12.4962 7.51942 13.3546 7.875 14.2497 7.875ZM14.2497 3.375C14.4722 3.375 14.6897 3.44098 14.8747 3.5646C15.0597 3.68822 15.2039 3.86392 15.2891 4.06948C15.3742 4.27505 15.3965 4.50125 15.3531 4.71948C15.3097 4.93771 15.2025 5.13816 15.0452 5.2955C14.8879 5.45283 14.6874 5.55998 14.4692 5.60338C14.251 5.64679 14.0248 5.62451 13.8192 5.53937C13.6136 5.45422 13.4379 5.31002 13.3143 5.12502C13.1907 4.94001 13.1247 4.72251 13.1247 4.5C13.1247 4.20163 13.2432 3.91548 13.4542 3.70451C13.6652 3.49353 13.9513 3.375 14.2497 3.375ZM19.1247 13.5V21.75C19.1247 22.0484 19.0062 22.3345 18.7952 22.5455C18.5842 22.7565 18.2981 22.875 17.9997 22.875C17.7013 22.875 17.4152 22.7565 17.2042 22.5455C16.9932 22.3345 16.8747 22.0484 16.8747 21.75V14.5538C14.5385 14.2378 13.6928 12.9328 12.9953 11.8575C12.85 11.6334 12.7094 11.4159 12.5575 11.2125L11.6631 13.275L14.906 15.5841C15.0513 15.6884 15.1697 15.826 15.2512 15.9853C15.3327 16.1446 15.3751 16.3211 15.3747 16.5V21.75C15.3747 22.0484 15.2562 22.3345 15.0452 22.5455C14.8342 22.7565 14.5481 22.875 14.2497 22.875C13.9513 22.875 13.6652 22.7565 13.4542 22.5455C13.2432 22.3345 13.1247 22.0484 13.1247 21.75V17.0784L10.7463 15.3797L7.78096 22.1981C7.72474 22.3375 7.64116 22.4642 7.53517 22.5707C7.42917 22.6772 7.30291 22.7615 7.16383 22.8184C7.02475 22.8753 6.87567 22.9038 6.7254 22.9022C6.57513 22.9005 6.42671 22.8688 6.28891 22.8088C6.1511 22.7489 6.02671 22.662 5.92306 22.5531C5.81941 22.4443 5.73861 22.3158 5.68544 22.1753C5.63227 22.0347 5.60779 21.8849 5.61347 21.7348C5.61914 21.5846 5.65484 21.4371 5.71846 21.3009L11.111 8.89688C11.1722 8.75581 11.2617 8.6288 11.374 8.52369C11.4863 8.41858 11.6189 8.33761 11.7637 8.28577C11.9085 8.23393 12.0624 8.21233 12.2158 8.22231C12.3693 8.23228 12.5191 8.27361 12.656 8.34375C12.9533 8.49808 13.2315 8.68688 13.4847 8.90625C14.1203 9.45844 14.5244 10.0809 14.8806 10.6303C15.5875 11.7188 16.0122 12.375 17.9997 12.375C18.2981 12.375 18.5842 12.4935 18.7952 12.7045C19.0062 12.9155 19.1247 13.2016 19.1247 13.5ZM6.05596 14.4263L3.68127 13.4063C3.40821 13.2881 3.19305 13.0666 3.08289 12.7903C2.97273 12.5139 2.97653 12.2051 3.09346 11.9316L5.34346 6.68156C5.46159 6.4085 5.68307 6.19334 5.95944 6.08318C6.23581 5.97302 6.54457 5.97682 6.81815 6.09375L9.21909 7.125C9.36462 7.17603 9.49811 7.25644 9.61127 7.36123C9.72442 7.46602 9.81482 7.59295 9.87685 7.73415C9.93888 7.87535 9.97121 8.0278 9.97185 8.18202C9.97248 8.33624 9.9414 8.48894 9.88053 8.63065C9.81966 8.77235 9.73031 8.90002 9.61802 9.00574C9.50573 9.11146 9.37291 9.19296 9.22779 9.24518C9.08268 9.2974 8.92838 9.31923 8.77448 9.30931C8.62057 9.29938 8.47035 9.25792 8.33315 9.1875L6.96534 8.6025L5.60221 11.7844L6.9419 12.3581C7.0791 12.4153 7.20361 12.4992 7.30822 12.6048C7.41283 12.7104 7.49547 12.8357 7.55137 12.9734C7.60726 13.1112 7.63531 13.2586 7.63388 13.4073C7.63245 13.5559 7.60158 13.7028 7.54304 13.8395C7.48451 13.9761 7.39947 14.0998 7.29285 14.2034C7.18623 14.307 7.06014 14.3884 6.92186 14.443C6.78359 14.4975 6.63587 14.5241 6.48724 14.5213C6.33862 14.5184 6.19203 14.4861 6.05596 14.4263Z" fill="#130032"/>
</svg>
