<svg width="24" height="24" viewBox="0 0 24 24" fill="none" xmlns="http://www.w3.org/2000/svg">
<path d="M15.75 7.5C16.3434 7.5 16.9234 7.32405 17.4167 6.99441C17.9101 6.66477 18.2946 6.19623 18.5217 5.64805C18.7487 5.09987 18.8081 4.49667 18.6924 3.91473C18.5766 3.33279 18.2909 2.79824 17.8713 2.37868C17.4518 1.95912 16.9172 1.6734 16.3353 1.55765C15.7534 1.44189 15.1502 1.5013 14.602 1.72836C14.0538 1.95543 13.5853 2.33994 13.2556 2.83329C12.926 3.32664 12.75 3.90666 12.75 4.5C12.75 5.29565 13.0661 6.05871 13.6287 6.62132C14.1913 7.18393 14.9544 7.5 15.75 7.5ZM15.75 3.75C15.8984 3.75 16.0434 3.79399 16.1667 3.8764C16.29 3.95881 16.3862 4.07594 16.4429 4.21299C16.4997 4.35003 16.5146 4.50083 16.4856 4.64632C16.4567 4.7918 16.3852 4.92544 16.2804 5.03033C16.1755 5.13522 16.0418 5.20665 15.8963 5.23559C15.7509 5.26453 15.6001 5.24968 15.463 5.19291C15.326 5.13615 15.2088 5.04002 15.1264 4.91668C15.044 4.79334 15 4.64834 15 4.5C15 4.30109 15.079 4.11032 15.2197 3.96967C15.3603 3.82902 15.5511 3.75 15.75 3.75ZM20.5669 10.17L7.8169 6.42C7.53568 6.35082 7.23862 6.39274 6.98753 6.53705C6.73645 6.68136 6.55069 6.91694 6.46891 7.19476C6.38714 7.47258 6.41565 7.77123 6.54851 8.02855C6.68138 8.28588 6.90836 8.48205 7.18221 8.57625L10.5235 9.5625L7.83846 13.5938L4.12502 12.4941C3.69084 12.3644 3.23223 12.3387 2.78629 12.4192C2.34036 12.4996 1.91963 12.6839 1.55815 12.9572C1.18955 13.2302 0.890384 13.5862 0.684849 13.9963C0.479314 14.4064 0.373177 14.8591 0.375024 15.3178C0.376597 15.9516 0.581832 16.5681 0.960452 17.0763C1.33907 17.5846 1.87102 17.9577 2.47784 18.1406L16.875 22.3791C17.3125 22.5071 17.7738 22.5312 18.2223 22.4494C18.6707 22.3677 19.0939 22.1824 19.458 21.9082C19.8222 21.6341 20.1174 21.2787 20.32 20.8704C20.5226 20.4621 20.627 20.0121 20.625 19.5563C20.6235 18.9223 20.4182 18.3057 20.0394 17.7974C19.6606 17.2891 19.1283 16.9161 18.5213 16.7334L14.7956 15.6366L15.9375 13.9388C16.0361 13.7918 16.0987 13.6236 16.1201 13.4479C16.1414 13.2722 16.1211 13.0939 16.0606 12.9276C16.0001 12.7613 15.9013 12.6115 15.772 12.4906C15.6428 12.3696 15.4869 12.2809 15.3169 12.2316L12.0769 11.2941L12.7875 10.2272L19.936 12.33C20.0797 12.3794 20.232 12.3992 20.3836 12.3882C20.5352 12.3772 20.6829 12.3355 20.818 12.2658C20.9531 12.1961 21.0726 12.0997 21.1694 11.9825C21.2662 11.8653 21.3382 11.7297 21.3811 11.5838C21.424 11.438 21.4369 11.285 21.4191 11.1341C21.4013 10.9831 21.353 10.8374 21.2773 10.7056C21.2015 10.5738 21.0998 10.4587 20.9784 10.3673C20.857 10.2759 20.7182 10.2101 20.5706 10.1738L20.5669 10.17ZM18.375 19.5563C18.3761 19.6656 18.3511 19.7736 18.3022 19.8714C18.2533 19.9692 18.1819 20.054 18.0938 20.1188C18.0119 20.1816 17.9162 20.224 17.8146 20.2424C17.713 20.2609 17.6085 20.2548 17.5097 20.2247L3.11346 15.9825C2.99145 15.9433 2.88255 15.8714 2.79865 15.7745C2.71475 15.6777 2.65906 15.5596 2.63768 15.4333C2.6163 15.3069 2.63005 15.1772 2.67741 15.0581C2.72478 14.939 2.80395 14.8353 2.90627 14.7581C2.98846 14.6958 3.08417 14.6538 3.18564 14.6353C3.28712 14.6169 3.39151 14.6227 3.49034 14.6522L17.8894 18.8916C18.0308 18.9359 18.1542 19.0243 18.2416 19.144C18.329 19.2636 18.3758 19.4081 18.375 19.5563ZM13.2075 13.9688L12.5325 14.9747L10.095 14.2584L10.7606 13.2609L13.2075 13.9688Z" fill="#130032"/>
</svg>
