<svg width="24" height="24" viewBox="0 0 24 24" fill="none" xmlns="http://www.w3.org/2000/svg">
<path d="M12 1.875C9.99747 1.875 8.0399 2.46882 6.37486 3.58137C4.70981 4.69392 3.41206 6.27523 2.64572 8.12533C1.87939 9.97543 1.67888 12.0112 2.06955 13.9753C2.46023 15.9393 3.42454 17.7435 4.84055 19.1595C6.25656 20.5755 8.06066 21.5398 10.0247 21.9305C11.9888 22.3211 14.0246 22.1206 15.8747 21.3543C17.7248 20.5879 19.3061 19.2902 20.4186 17.6251C21.5312 15.9601 22.125 14.0025 22.125 12C22.122 9.3156 21.0543 6.74199 19.1562 4.84383C17.258 2.94567 14.6844 1.87798 12 1.875ZM12 19.875C10.4425 19.875 8.91993 19.4131 7.62489 18.5478C6.32985 17.6825 5.32049 16.4526 4.72445 15.0136C4.12841 13.5747 3.97246 11.9913 4.27632 10.4637C4.58018 8.93606 5.3302 7.53287 6.43154 6.43153C7.53288 5.3302 8.93607 4.58017 10.4637 4.27632C11.9913 3.97246 13.5747 4.12841 15.0136 4.72445C16.4526 5.32049 17.6825 6.32985 18.5478 7.62488C19.4131 8.91992 19.875 10.4425 19.875 12C19.8728 14.0879 19.0424 16.0896 17.566 17.566C16.0896 19.0424 14.0879 19.8728 12 19.875ZM10.125 7.5C10.125 7.12916 10.235 6.76665 10.441 6.45831C10.647 6.14996 10.9399 5.90964 11.2825 5.76773C11.6251 5.62581 12.0021 5.58868 12.3658 5.66103C12.7295 5.73337 13.0636 5.91195 13.3258 6.17417C13.5881 6.4364 13.7666 6.77049 13.839 7.13421C13.9113 7.49792 13.8742 7.87492 13.7323 8.21753C13.5904 8.56014 13.35 8.85298 13.0417 9.05901C12.7334 9.26503 12.3708 9.375 12 9.375C11.5027 9.375 11.0258 9.17746 10.6742 8.82583C10.3225 8.47419 10.125 7.99728 10.125 7.5ZM17.25 11.25C17.25 11.5484 17.1315 11.8345 16.9205 12.0455C16.7095 12.2565 16.4234 12.375 16.125 12.375H13.125V12.4228L15.5738 16.2712C15.7338 16.5229 15.7873 16.8278 15.7226 17.1189C15.6579 17.41 15.4803 17.6635 15.2288 17.8237C15.0487 17.9395 14.839 18.0007 14.625 18C14.4356 18.0001 14.2493 17.9523 14.0833 17.8612C13.9173 17.7701 13.7769 17.6385 13.6753 17.4788L12 14.8453L10.3238 17.4788C10.1597 17.7214 9.90738 17.8905 9.62056 17.95C9.33374 18.0096 9.035 17.9549 8.78786 17.7976C8.54073 17.6404 8.36468 17.3929 8.29715 17.1079C8.22962 16.8228 8.27594 16.5227 8.42625 16.2712L10.875 12.4228V12.375H7.875C7.57664 12.375 7.29049 12.2565 7.07951 12.0455C6.86853 11.8345 6.75 11.5484 6.75 11.25C6.75 10.9516 6.86853 10.6655 7.07951 10.4545C7.29049 10.2435 7.57664 10.125 7.875 10.125H16.125C16.4234 10.125 16.7095 10.2435 16.9205 10.4545C17.1315 10.6655 17.25 10.9516 17.25 11.25Z" fill="#130032"/>
</svg>
