<svg width="24" height="24" viewBox="0 0 24 24" fill="none" xmlns="http://www.w3.org/2000/svg">
<path d="M15.75 7.875C16.3433 7.875 16.9234 7.69905 17.4167 7.36941C17.9101 7.03977 18.2946 6.57123 18.5216 6.02305C18.7487 5.47487 18.8081 4.87167 18.6924 4.28973C18.5766 3.70779 18.2909 3.17324 17.8713 2.75368C17.4518 2.33412 16.9172 2.0484 16.3353 1.93265C15.7533 1.81689 15.1501 1.8763 14.602 2.10336C14.0538 2.33043 13.5852 2.71494 13.2556 3.20829C12.9259 3.70164 12.75 4.28166 12.75 4.875C12.75 5.67065 13.0661 6.43371 13.6287 6.99632C14.1913 7.55893 14.9544 7.875 15.75 7.875ZM15.75 4.125C15.8983 4.125 16.0433 4.16899 16.1667 4.2514C16.29 4.33381 16.3861 4.45094 16.4429 4.58799C16.4997 4.72503 16.5145 4.87583 16.4856 5.02132C16.4567 5.16681 16.3852 5.30044 16.2803 5.40533C16.1754 5.51022 16.0418 5.58165 15.8963 5.61059C15.7508 5.63953 15.6 5.62468 15.463 5.56791C15.3259 5.51115 15.2088 5.41502 15.1264 5.29168C15.044 5.16834 15 5.02334 15 4.875C15 4.67609 15.079 4.48532 15.2197 4.34467C15.3603 4.20402 15.5511 4.125 15.75 4.125ZM19.125 13.125C18.3833 13.125 17.6583 13.3449 17.0416 13.757C16.4249 14.169 15.9443 14.7547 15.6605 15.4399C15.3766 16.1252 15.3024 16.8792 15.4471 17.6066C15.5918 18.334 15.9489 19.0022 16.4734 19.5267C16.9978 20.0511 17.666 20.4083 18.3934 20.5529C19.1208 20.6976 19.8748 20.6234 20.5601 20.3396C21.2453 20.0557 21.831 19.5751 22.243 18.9584C22.6551 18.3417 22.875 17.6167 22.875 16.875C22.875 15.8804 22.4799 14.9266 21.7767 14.2234C21.0734 13.5201 20.1196 13.125 19.125 13.125ZM19.125 18.375C18.8283 18.375 18.5383 18.287 18.2916 18.1222C18.045 17.9574 17.8527 17.7231 17.7392 17.449C17.6257 17.1749 17.5959 16.8733 17.6538 16.5824C17.7117 16.2914 17.8546 16.0241 18.0643 15.8143C18.2741 15.6046 18.5414 15.4617 18.8324 15.4038C19.1233 15.3459 19.4249 15.3757 19.699 15.4892C19.9731 15.6027 20.2074 15.795 20.3722 16.0416C20.537 16.2883 20.625 16.5783 20.625 16.875C20.625 17.2728 20.467 17.6544 20.1857 17.9357C19.9044 18.217 19.5228 18.375 19.125 18.375ZM5.0625 12.75C4.28374 12.75 3.52246 12.9809 2.87494 13.4136C2.22743 13.8462 1.72275 14.4612 1.42473 15.1807C1.12671 15.9002 1.04873 16.6919 1.20066 17.4557C1.35259 18.2195 1.7276 18.9211 2.27827 19.4717C2.82894 20.0224 3.53053 20.3974 4.29433 20.5493C5.05813 20.7013 5.84983 20.6233 6.56932 20.3253C7.2888 20.0273 7.90375 19.5226 8.33641 18.8751C8.76907 18.2275 9 17.4663 9 16.6875C9 15.6432 8.58516 14.6417 7.84673 13.9033C7.10831 13.1648 6.10679 12.75 5.0625 12.75ZM5.0625 18.375C4.72875 18.375 4.40249 18.276 4.12498 18.0906C3.84747 17.9052 3.63118 17.6416 3.50345 17.3333C3.37573 17.0249 3.34231 16.6856 3.40743 16.3583C3.47254 16.0309 3.63326 15.7303 3.86926 15.4943C4.10526 15.2583 4.40594 15.0975 4.73329 15.0324C5.06063 14.9673 5.39993 15.0007 5.70828 15.1285C6.01663 15.2562 6.28018 15.4725 6.46561 15.75C6.65103 16.0275 6.75 16.3537 6.75 16.6875C6.75 17.1351 6.57221 17.5643 6.25574 17.8807C5.93928 18.1972 5.51005 18.375 5.0625 18.375ZM17.625 12H14.25C14.1022 12.0001 13.9559 11.9711 13.8193 11.9147C13.6827 11.8582 13.5586 11.7754 13.4541 11.6709L11.25 9.46875L9.84375 10.875L12.7988 13.8291C13.0086 14.0407 13.126 14.3269 13.125 14.625V19.125C13.125 19.4234 13.0065 19.7095 12.7955 19.9205C12.5845 20.1315 12.2984 20.25 12 20.25C11.7016 20.25 11.4155 20.1315 11.2045 19.9205C10.9935 19.7095 10.875 19.4234 10.875 19.125V15.0938L7.45406 11.6709C7.34918 11.5664 7.26597 11.4422 7.20919 11.3055C7.15241 11.1687 7.12318 11.0221 7.12318 10.8741C7.12318 10.726 7.15241 10.5794 7.20919 10.4426C7.26597 10.3059 7.34918 10.1817 7.45406 10.0772L10.4541 7.07719C10.5586 6.97231 10.6828 6.88909 10.8195 6.83231C10.9563 6.77553 11.1029 6.7463 11.2509 6.7463C11.399 6.7463 11.5456 6.77553 11.6824 6.83231C11.8191 6.88909 11.9433 6.97231 12.0478 7.07719L14.7188 9.75H17.625C17.9234 9.75 18.2095 9.86853 18.4205 10.0795C18.6315 10.2905 18.75 10.5766 18.75 10.875C18.75 11.1734 18.6315 11.4595 18.4205 11.6705C18.2095 11.8815 17.9234 12 17.625 12Z" fill="#130032"/>
</svg>
