<svg width="24" height="24" viewBox="0 0 24 24" fill="none" xmlns="http://www.w3.org/2000/svg">
<path d="M11.9996 7.875C12.6671 7.875 13.3196 7.67706 13.8746 7.30621C14.4297 6.93536 14.8622 6.40826 15.1177 5.79156C15.3731 5.17486 15.44 4.49626 15.3097 3.84157C15.1795 3.18689 14.8581 2.58552 14.3861 2.11352C13.9141 1.64151 13.3127 1.32008 12.658 1.18985C12.0033 1.05963 11.3247 1.12646 10.708 1.38191C10.0913 1.63735 9.56423 2.06994 9.19338 2.62495C8.82253 3.17997 8.62459 3.83249 8.62459 4.5C8.62459 5.39511 8.98017 6.25355 9.61311 6.88649C10.246 7.51942 11.1045 7.875 11.9996 7.875ZM11.9996 3.375C12.2221 3.375 12.4396 3.44098 12.6246 3.5646C12.8096 3.68822 12.9538 3.86392 13.039 4.06948C13.1241 4.27505 13.1464 4.50125 13.103 4.71948C13.0596 4.93771 12.9524 5.13816 12.7951 5.2955C12.6378 5.45283 12.4373 5.55998 12.2191 5.60338C12.0008 5.64679 11.7746 5.62451 11.5691 5.53937C11.3635 5.45422 11.1878 5.31002 11.0642 5.12502C10.9406 4.94001 10.8746 4.72251 10.8746 4.5C10.8746 4.20163 10.9931 3.91548 11.2041 3.70451C11.4151 3.49353 11.7012 3.375 11.9996 3.375ZM21.9643 12.9534C21.8883 13.0802 21.7881 13.1908 21.6693 13.2788C21.5506 13.3669 21.4157 13.4307 21.2723 13.4665C21.1289 13.5024 20.9798 13.5097 20.8336 13.4879C20.6874 13.4661 20.5469 13.4158 20.4202 13.3397C20.3902 13.3219 17.3855 11.5659 13.1246 11.2884V13.8197L18.8433 20.25C18.9418 20.3608 19.0175 20.4899 19.0661 20.63C19.1147 20.77 19.1352 20.9183 19.1265 21.0663C19.1178 21.2143 19.0801 21.3591 19.0154 21.4925C18.9507 21.6259 18.8604 21.7453 18.7496 21.8438C18.6388 21.9422 18.5097 22.0179 18.3696 22.0665C18.2296 22.1151 18.0813 22.1357 17.9333 22.127C17.7853 22.1182 17.6405 22.0805 17.5071 22.0158C17.3737 21.9511 17.2543 21.8608 17.1558 21.75L11.9996 15.9459L6.84334 21.75C6.74485 21.8608 6.6255 21.9511 6.4921 22.0158C6.35871 22.0805 6.21388 22.1182 6.06588 22.127C5.91789 22.1357 5.76963 22.1151 5.62957 22.0665C5.48951 22.0179 5.36039 21.9422 5.24959 21.8438C5.13879 21.7453 5.04847 21.6259 4.98379 21.4925C4.91912 21.3591 4.88135 21.2143 4.87264 21.0663C4.86393 20.9183 4.88446 20.77 4.93306 20.63C4.98165 20.4899 5.05735 20.3608 5.15584 20.25L10.8746 13.8197V11.2884C6.58834 11.565 3.61084 13.3209 3.57897 13.3406C3.32312 13.4942 3.01675 13.5398 2.72727 13.4674C2.43779 13.3951 2.18891 13.2107 2.03537 12.9548C1.88184 12.699 1.83623 12.3926 1.90858 12.1031C1.98092 11.8137 2.1653 11.5648 2.42115 11.4113C2.58522 11.3119 6.50115 9 11.9996 9C17.498 9 21.414 11.3119 21.578 11.4103C21.8338 11.5638 22.0182 11.8125 22.0907 12.1019C22.1631 12.3913 22.1176 12.6976 21.9643 12.9534Z" fill="#130032"/>
</svg>
