<svg width="24" height="24" viewBox="0 0 24 24" fill="none" xmlns="http://www.w3.org/2000/svg">
<path d="M12.375 6.74898C12.375 6.45061 12.4935 6.16447 12.7045 5.95349C12.9155 5.74251 13.2016 5.62398 13.5 5.62398H17.5313L16.4541 4.54492C16.3494 4.44027 16.2664 4.31604 16.2098 4.17931C16.1531 4.04258 16.124 3.89604 16.124 3.74805C16.124 3.44916 16.2427 3.16251 16.4541 2.95117C16.6654 2.73983 16.9521 2.62109 17.2509 2.62109C17.5498 2.62109 17.8365 2.73983 18.0478 2.95117L21.0478 5.95117C21.1527 6.05569 21.2359 6.17988 21.2927 6.31662C21.3495 6.45337 21.3787 6.59998 21.3787 6.74804C21.3787 6.89611 21.3495 7.04272 21.2927 7.17947C21.2359 7.31621 21.1527 7.4404 21.0478 7.54492L18.0478 10.5449C17.8365 10.7563 17.5498 10.875 17.2509 10.875C16.9521 10.875 16.6654 10.7563 16.4541 10.5449C16.2427 10.3336 16.124 10.0469 16.124 9.74804C16.124 9.44916 16.2427 9.16251 16.4541 8.95117L17.5313 7.87398H13.5C13.2016 7.87398 12.9155 7.75546 12.7045 7.54448C12.4935 7.3335 12.375 7.04735 12.375 6.74898ZM21.36 17.2096C21.1814 18.5704 20.5136 19.8197 19.4812 20.7241C18.4488 21.6285 17.1225 22.1261 15.75 22.124C8.09907 22.124 1.87501 15.8999 1.87501 8.24898C1.87291 6.87649 2.37052 5.55018 3.2749 4.51779C4.17928 3.4854 5.42856 2.81755 6.78938 2.63898C7.19035 2.58942 7.5966 2.67069 7.94764 2.87071C8.29868 3.07072 8.57572 3.37877 8.73751 3.74898L10.7166 8.16742L10.7231 8.18429C10.8455 8.46836 10.8954 8.77835 10.8684 9.08646C10.8414 9.39456 10.7383 9.69115 10.5684 9.94961C10.5443 9.98729 10.5177 10.0233 10.4888 10.0574L8.70188 12.1865C9.36376 13.3902 10.6238 14.639 11.8416 15.2999L13.9331 13.5187C13.9665 13.4903 14.0016 13.464 14.0381 13.4399C14.2977 13.2659 14.5968 13.1597 14.908 13.1312C15.2192 13.1027 15.5325 13.1528 15.8194 13.2768L15.8363 13.2843L20.25 15.2615C20.6202 15.4233 20.9283 15.7003 21.1283 16.0514C21.3283 16.4024 21.4096 16.8086 21.36 17.2096ZM19.0809 17.204L15.1434 15.4405L13.0416 17.2284C13.0082 17.257 12.9731 17.2836 12.9366 17.308C12.6665 17.488 12.3543 17.5948 12.0306 17.618C11.7069 17.6412 11.3827 17.5799 11.0897 17.4402C9.26344 16.559 7.44376 14.7515 6.56063 12.9402C6.42019 12.649 6.35744 12.3264 6.37847 12.0038C6.39949 11.6812 6.50358 11.3695 6.68063 11.099C6.70507 11.0613 6.73201 11.0253 6.76126 10.9912L8.55938 8.85836L6.79501 4.92086C6.03695 5.08756 5.35873 5.50859 4.87303 6.11402C4.38733 6.71944 4.12337 7.47281 4.12501 8.24898C4.12873 11.331 5.3547 14.2857 7.534 16.465C9.7133 18.6443 12.668 19.8703 15.75 19.874C16.5267 19.8763 17.2807 19.6126 17.8867 19.1268C18.4927 18.6411 18.9141 17.9625 19.0809 17.204Z" fill="#130032"/>
</svg>
