<svg width="24" height="24" viewBox="0 0 24 24" fill="none" xmlns="http://www.w3.org/2000/svg">
<path d="M20.25 15.2621L15.8353 13.284L15.8184 13.2765C15.5317 13.1522 15.2182 13.102 14.907 13.1305C14.5957 13.159 14.2966 13.2653 14.0372 13.4396C14.0008 13.4639 13.9658 13.4902 13.9322 13.5183L11.8406 15.2996C10.6219 14.6386 9.36282 13.3899 8.70094 12.1862L10.4878 10.0618C10.5165 10.0275 10.5432 9.99148 10.5675 9.95396C10.737 9.69536 10.8399 9.39885 10.867 9.09085C10.8942 8.78285 10.8448 8.47292 10.7231 8.18865C10.7202 8.18321 10.7177 8.17757 10.7156 8.17178L8.73751 3.74959C8.57513 3.37977 8.29801 3.07205 7.94716 2.87197C7.5963 2.67189 7.19035 2.59008 6.78938 2.63865C5.42848 2.81743 4.17918 3.48547 3.27482 4.51801C2.37046 5.55056 1.87288 6.877 1.87501 8.24959C1.87501 15.9005 8.09907 22.1246 15.75 22.1246C17.1226 22.1267 18.449 21.6291 19.4816 20.7248C20.5141 19.8204 21.1822 18.5711 21.3609 17.2102C21.4095 16.8092 21.3277 16.4033 21.1276 16.0524C20.9275 15.7016 20.6198 15.4245 20.25 15.2621ZM15.75 19.8746C12.668 19.8709 9.7133 18.6449 7.534 16.4656C5.3547 14.2863 4.12873 11.3316 4.12501 8.24959C4.12286 7.47286 4.38655 6.71879 4.87227 6.11267C5.35799 5.50654 6.03648 5.08487 6.79501 4.91771L8.55938 8.85521L6.76313 10.9946C6.7341 11.0292 6.70717 11.0655 6.68251 11.1033C6.50546 11.3739 6.40137 11.6856 6.38034 12.0082C6.35932 12.3308 6.42207 12.6534 6.56251 12.9446C7.44563 14.7521 9.26532 16.5596 11.0916 17.4446C11.3847 17.5836 11.7089 17.6441 12.0325 17.6203C12.356 17.5964 12.6679 17.4891 12.9375 17.3087C12.9738 17.2842 13.0085 17.2576 13.0416 17.229L15.1444 15.4412L19.0819 17.2046C18.9147 17.9631 18.493 18.6416 17.8869 19.1273C17.2808 19.613 16.5267 19.8767 15.75 19.8746ZM13.125 9.74959V5.99959C13.125 5.70122 13.2435 5.41507 13.4545 5.20409C13.6655 4.99311 13.9516 4.87459 14.25 4.87459C14.5484 4.87459 14.8345 4.99311 15.0455 5.20409C15.2565 5.41507 15.375 5.70122 15.375 5.99959V7.03084L17.955 4.45084C18.1664 4.23949 18.453 4.12076 18.7519 4.12076C19.0508 4.12076 19.3374 4.23949 19.5488 4.45084C19.7601 4.66218 19.8788 4.94883 19.8788 5.24771C19.8788 5.5466 19.7601 5.83324 19.5488 6.04459L16.9688 8.62459H18C18.2984 8.62459 18.5845 8.74311 18.7955 8.95409C19.0065 9.16507 19.125 9.45122 19.125 9.74959C19.125 10.048 19.0065 10.3341 18.7955 10.5451C18.5845 10.7561 18.2984 10.8746 18 10.8746H14.25C13.9516 10.8746 13.6655 10.7561 13.4545 10.5451C13.2435 10.3341 13.125 10.048 13.125 9.74959Z" fill="#130032"/>
</svg>
