<svg width="24" height="24" viewBox="0 0 24 24" fill="none" xmlns="http://www.w3.org/2000/svg">
<path d="M21.9742 8.18344C16.5676 2.77219 7.4326 2.77219 2.02604 8.18344C0.0151026 10.1962 -0.17896 13.1644 1.55729 15.4022C1.80433 15.7187 2.14642 15.9475 2.53323 16.055C2.92003 16.1625 3.33114 16.143 3.70604 15.9994L8.2876 14.3709L8.32979 14.3559C8.61892 14.2396 8.87449 14.053 9.07337 13.813C9.27225 13.573 9.40818 13.2873 9.46885 12.9816L9.97885 10.4278C11.2838 10.0219 12.6809 10.019 13.9876 10.4194L14.5314 12.9956C14.5943 13.2983 14.7312 13.5808 14.9298 13.8178C15.1284 14.0548 15.3825 14.239 15.6695 14.3541L15.7117 14.37L20.2998 15.9984C20.6746 16.1418 21.0855 16.1612 21.4721 16.0537C21.8587 15.9462 22.2006 15.7175 22.4476 15.4012C24.1792 13.1644 23.9851 10.1962 21.9742 8.18344ZM20.8276 13.7991L16.6876 12.3281L16.1476 9.75C16.0815 9.43321 15.9345 9.13894 15.7209 8.8958C15.5073 8.65266 15.2345 8.46894 14.9289 8.3625C13.0158 7.70723 10.9383 7.71185 9.02823 8.37562C8.72319 8.48422 8.45147 8.66996 8.23953 8.91475C8.0276 9.15955 7.88267 9.45506 7.81885 9.7725L7.3126 12.3309L3.1726 13.7991C2.31385 12.5006 2.47791 10.9144 3.61604 9.77531C5.88854 7.5 8.94479 6.36375 12.0001 6.36375C15.0554 6.36375 18.1117 7.5 20.3842 9.77531C21.5223 10.9144 21.6864 12.5016 20.8276 13.7991ZM21.3751 18.75C21.3751 19.0484 21.2566 19.3345 21.0456 19.5455C20.8346 19.7565 20.5485 19.875 20.2501 19.875H3.7501C3.45173 19.875 3.16559 19.7565 2.95461 19.5455C2.74363 19.3345 2.6251 19.0484 2.6251 18.75C2.6251 18.4516 2.74363 18.1655 2.95461 17.9545C3.16559 17.7435 3.45173 17.625 3.7501 17.625H20.2501C20.5485 17.625 20.8346 17.7435 21.0456 17.9545C21.2566 18.1655 21.3751 18.4516 21.3751 18.75Z" fill="#130032"/>
</svg>
