<svg width="24" height="24" viewBox="0 0 24 24" fill="none" xmlns="http://www.w3.org/2000/svg">
<path d="M13.455 8.95365L14.9063 7.49959L13.455 6.04459C13.2437 5.83324 13.1249 5.5466 13.1249 5.24771C13.1249 5.09972 13.1541 4.95318 13.2107 4.81645C13.2673 4.67972 13.3504 4.55549 13.455 4.45084C13.5597 4.34619 13.6839 4.26318 13.8206 4.20655C13.9573 4.14991 14.1039 4.12076 14.2519 4.12076C14.5508 4.12076 14.8374 4.23949 15.0488 4.45084L16.5 5.90584L17.955 4.45084C18.1664 4.23949 18.453 4.12076 18.7519 4.12076C19.0508 4.12076 19.3374 4.23949 19.5488 4.45084C19.7601 4.66218 19.8788 4.94883 19.8788 5.24771C19.8788 5.5466 19.7601 5.83324 19.5488 6.04459L18.0938 7.49959L19.5488 8.95365C19.7601 9.165 19.8788 9.45164 19.8788 9.75053C19.8788 10.0494 19.7601 10.3361 19.5488 10.5474C19.3374 10.7587 19.0508 10.8775 18.7519 10.8775C18.453 10.8775 18.1664 10.7587 17.955 10.5474L16.5 9.09334L15.0459 10.5474C14.9413 10.652 14.8171 10.7351 14.6803 10.7917C14.5436 10.8483 14.3971 10.8775 14.2491 10.8775C14.1011 10.8775 13.9545 10.8483 13.8178 10.7917C13.6811 10.7351 13.5568 10.652 13.4522 10.5474C13.3475 10.4428 13.2645 10.3185 13.2079 10.1818C13.1513 10.0451 13.1221 9.89852 13.1221 9.75053C13.1221 9.60253 13.1513 9.45599 13.2079 9.31926C13.2645 9.18253 13.3475 9.0583 13.4522 8.95365H13.455ZM21.3609 17.2102C21.1822 18.5711 20.5141 19.8204 19.4816 20.7248C18.449 21.6291 17.1226 22.1267 15.75 22.1246C8.09907 22.1246 1.87501 15.9005 1.87501 8.24959C1.87288 6.877 2.37046 5.55056 3.27482 4.51801C4.17918 3.48547 5.42848 2.81743 6.78938 2.63865C7.19035 2.59008 7.5963 2.67189 7.94716 2.87197C8.29801 3.07205 8.57513 3.37977 8.73751 3.74959L10.7166 8.16803C10.7187 8.17382 10.7212 8.17946 10.7241 8.1849C10.8457 8.46917 10.8951 8.7791 10.868 9.0871C10.8408 9.3951 10.7379 9.69161 10.5684 9.95021C10.5441 9.98773 10.5175 10.0237 10.4888 10.058L8.70188 12.1871C9.36376 13.3908 10.6238 14.6396 11.8416 15.3005L13.9331 13.5193C13.9667 13.4912 14.0018 13.4649 14.0381 13.4405C14.2977 13.2665 14.5967 13.1603 14.9079 13.1316C15.219 13.1029 15.5324 13.1528 15.8194 13.2765L15.8363 13.284L20.25 15.2621C20.6198 15.4245 20.9275 15.7016 21.1276 16.0524C21.3277 16.4033 21.4095 16.8092 21.3609 17.2102ZM19.0819 17.2046L15.1444 15.4412L13.0416 17.229C13.0085 17.2576 12.9738 17.2842 12.9375 17.3087C12.6672 17.4879 12.355 17.5939 12.0315 17.6164C11.7079 17.639 11.3841 17.5772 11.0916 17.4371C9.26532 16.5558 7.44563 14.7483 6.56251 12.9371C6.42207 12.6459 6.35932 12.3233 6.38034 12.0007C6.40137 11.6781 6.50546 11.3664 6.68251 11.0958C6.70717 11.058 6.7341 11.0217 6.76313 10.9871L8.55938 8.85803L6.79501 4.92053C6.03695 5.08758 5.35882 5.50884 4.87315 6.11438C4.38749 6.71993 4.1235 7.47335 4.12501 8.24959C4.12873 11.3316 5.3547 14.2863 7.534 16.4656C9.7133 18.6449 12.668 19.8709 15.75 19.8746C16.5267 19.8767 17.2808 19.613 17.8869 19.1273C18.493 18.6416 18.9147 17.9631 19.0819 17.2046Z" fill="#130032"/>
</svg>
