<svg width="24" height="24" viewBox="0 0 24 24" fill="none" xmlns="http://www.w3.org/2000/svg">
<path d="M13.455 10.5447C13.3501 10.4401 13.2669 10.316 13.2101 10.1792C13.1533 10.0425 13.1241 9.89586 13.1241 9.74779C13.1241 9.59972 13.1533 9.45311 13.2101 9.31637C13.2669 9.17962 13.3501 9.05543 13.455 8.95092L16.0313 6.37467H15C14.7016 6.37467 14.4155 6.25614 14.2045 6.04516C13.9935 5.83418 13.875 5.54803 13.875 5.24967C13.875 4.9513 13.9935 4.66515 14.2045 4.45417C14.4155 4.24319 14.7016 4.12467 15 4.12467H18.75C19.0484 4.12467 19.3345 4.24319 19.5455 4.45417C19.7565 4.66515 19.875 4.9513 19.875 5.24967V8.99967C19.875 9.29803 19.7565 9.58418 19.5455 9.79516C19.3345 10.0061 19.0484 10.1247 18.75 10.1247C18.4516 10.1247 18.1655 10.0061 17.9545 9.79516C17.7435 9.58418 17.625 9.29803 17.625 8.99967V7.96842L15.0459 10.5475C14.9414 10.6524 14.8172 10.7356 14.6805 10.7924C14.5437 10.8491 14.3971 10.8784 14.2491 10.8784C14.101 10.8784 13.9544 10.8491 13.8176 10.7924C13.6809 10.7356 13.5567 10.6524 13.4522 10.5475L13.455 10.5447ZM21.3609 17.2103C21.1822 18.5712 20.5141 19.8205 19.4816 20.7248C18.449 21.6292 17.1226 22.1268 15.75 22.1247C8.09907 22.1247 1.87501 15.9006 1.87501 8.24967C1.87288 6.87707 2.37046 5.55064 3.27482 4.51809C4.17918 3.48555 5.42848 2.8175 6.78938 2.63873C7.19037 2.59 7.59638 2.67174 7.94727 2.87184C8.29816 3.07194 8.57526 3.37975 8.73751 3.74967L10.7166 8.1681C10.7187 8.17389 10.7212 8.17953 10.7241 8.18498C10.8457 8.46925 10.8951 8.77918 10.868 9.08718C10.8408 9.39518 10.7379 9.69168 10.5684 9.95029C10.5443 9.98797 10.5177 10.024 10.4888 10.0581L8.70188 12.1872C9.36376 13.3909 10.6238 14.6397 11.8416 15.3006L13.9331 13.5194C13.9667 13.4912 14.0018 13.465 14.0381 13.4406C14.2976 13.2665 14.5967 13.1603 14.9079 13.1318C15.2192 13.1033 15.5326 13.1534 15.8194 13.2775L15.8363 13.285L20.25 15.2622C20.6198 15.4245 20.9275 15.7017 21.1276 16.0525C21.3277 16.4034 21.4095 16.8093 21.3609 17.2103ZM19.0819 17.2047L15.1444 15.4412L13.0416 17.229C13.0085 17.2577 12.9738 17.2843 12.9375 17.3087C12.6672 17.488 12.355 17.594 12.0315 17.6165C11.7079 17.639 11.3841 17.5772 11.0916 17.4372C9.26532 16.5559 7.44563 14.7484 6.56251 12.9372C6.42207 12.646 6.35932 12.3234 6.38034 12.0008C6.40137 11.6781 6.50546 11.3664 6.68251 11.0959C6.70695 11.0582 6.73388 11.0222 6.76313 10.9881L8.55938 8.85904L6.79501 4.92154C6.03711 5.08856 5.35909 5.50968 4.87345 6.11503C4.3878 6.72039 4.12372 7.47358 4.12501 8.24967C4.12873 11.3317 5.3547 14.2864 7.534 16.4657C9.7133 18.645 12.668 19.8709 15.75 19.8747C16.5267 19.8768 17.2808 19.6131 17.8869 19.1274C18.493 18.6417 18.9147 17.9632 19.0819 17.2047Z" fill="#130032"/>
</svg>
