<svg width="24" height="24" viewBox="0 0 24 24" fill="none" xmlns="http://www.w3.org/2000/svg">
<path d="M20.25 15.2621L15.8353 13.284L15.8184 13.2765C15.5317 13.1522 15.2182 13.102 14.907 13.1305C14.5957 13.159 14.2966 13.2653 14.0372 13.4396C14.0008 13.4639 13.9658 13.4902 13.9322 13.5183L11.8406 15.2996C10.6219 14.6386 9.36282 13.3899 8.70094 12.1862L10.4878 10.0618C10.5168 10.0277 10.5434 9.99164 10.5675 9.95396C10.737 9.69536 10.8399 9.39885 10.867 9.09085C10.8942 8.78285 10.8448 8.47292 10.7231 8.18865L10.7156 8.17178L8.73751 3.74959C8.57513 3.37977 8.29801 3.07205 7.94716 2.87197C7.5963 2.67189 7.19035 2.59008 6.78938 2.63865C5.42848 2.81743 4.17918 3.48547 3.27482 4.51801C2.37046 5.55056 1.87288 6.877 1.87501 8.24959C1.87501 15.9005 8.09907 22.1246 15.75 22.1246C17.1226 22.1267 18.449 21.6291 19.4816 20.7248C20.5141 19.8204 21.1822 18.5711 21.3609 17.2102C21.4095 16.8092 21.3277 16.4033 21.1276 16.0524C20.9275 15.7016 20.6198 15.4245 20.25 15.2621ZM15.75 19.8746C12.668 19.8709 9.7133 18.6449 7.534 16.4656C5.3547 14.2863 4.12873 11.3316 4.12501 8.24959C4.12273 7.47294 4.38639 6.71891 4.87215 6.11291C5.3579 5.50691 6.03647 5.08546 6.79501 4.91865L8.55938 8.85615L6.76313 10.9937C6.73388 11.0278 6.70695 11.0638 6.68251 11.1015C6.50512 11.3722 6.40084 11.6842 6.37981 12.0072C6.35878 12.3302 6.42172 12.6531 6.56251 12.9446C7.44563 14.7521 9.26532 16.5596 11.0916 17.4446C11.3847 17.5836 11.7089 17.6441 12.0325 17.6203C12.356 17.5964 12.6679 17.4891 12.9375 17.3087C12.9738 17.2842 13.0085 17.2576 13.0416 17.229L15.1444 15.4412L19.0819 17.2046C18.9147 17.9631 18.493 18.6416 17.8869 19.1273C17.2808 19.613 16.5267 19.8767 15.75 19.8746ZM17.625 9.74959V4.49959C17.625 4.20122 17.7435 3.91507 17.9545 3.70409C18.1655 3.49311 18.4516 3.37459 18.75 3.37459C19.0484 3.37459 19.3345 3.49311 19.5455 3.70409C19.7565 3.91507 19.875 4.20122 19.875 4.49959V9.74959C19.875 10.048 19.7565 10.3341 19.5455 10.5451C19.3345 10.7561 19.0484 10.8746 18.75 10.8746C18.4516 10.8746 18.1655 10.7561 17.9545 10.5451C17.7435 10.3341 17.625 10.048 17.625 9.74959ZM13.875 9.74959V4.49959C13.875 4.20122 13.9935 3.91507 14.2045 3.70409C14.4155 3.49311 14.7016 3.37459 15 3.37459C15.2984 3.37459 15.5845 3.49311 15.7955 3.70409C16.0065 3.91507 16.125 4.20122 16.125 4.49959V9.74959C16.125 10.048 16.0065 10.3341 15.7955 10.5451C15.5845 10.7561 15.2984 10.8746 15 10.8746C14.7016 10.8746 14.4155 10.7561 14.2045 10.5451C13.9935 10.3341 13.875 10.048 13.875 9.74959Z" fill="#130032"/>
</svg>
