<svg width="24" height="24" viewBox="0 0 24 24" fill="none" xmlns="http://www.w3.org/2000/svg">
<path d="M5.33481 2.99295C5.23677 2.87897 5.11687 2.78579 4.98221 2.71893C4.84755 2.65207 4.70085 2.61288 4.55078 2.60367C4.40072 2.59447 4.25033 2.61544 4.1085 2.66534C3.96668 2.71524 3.8363 2.79307 3.72506 2.89421C3.61382 2.99536 3.52399 3.11778 3.46087 3.25424C3.39774 3.39069 3.36261 3.53841 3.35755 3.68868C3.35248 3.83894 3.37759 3.98869 3.43139 4.12909C3.48518 4.26948 3.56657 4.39767 3.67075 4.50608L5.90668 6.97076C4.46473 7.64595 3.15062 8.5658 2.02262 9.68951C0.0116846 11.7014 -0.182378 14.6676 1.55387 16.9083C1.73017 17.1325 1.95531 17.3136 2.21216 17.4377C2.46901 17.5619 2.75079 17.6257 3.03606 17.6245C3.26427 17.6246 3.49055 17.5827 3.70356 17.5008L8.28793 15.8742L8.33012 15.8583C8.61953 15.7423 8.87535 15.5559 9.07429 15.3158C9.27324 15.0758 9.40899 14.7898 9.46918 14.4839L9.97918 11.932C10.0936 11.8964 10.2107 11.8645 10.3279 11.8383L18.6632 21.0098C18.7613 21.1238 18.8812 21.217 19.0158 21.2838C19.1505 21.3507 19.2972 21.3899 19.4473 21.3991C19.5973 21.4083 19.7477 21.3873 19.8896 21.3374C20.0314 21.2875 20.1618 21.2097 20.273 21.1086C20.3842 21.0074 20.4741 20.885 20.5372 20.7485C20.6003 20.6121 20.6354 20.4644 20.6405 20.3141C20.6456 20.1638 20.6205 20.0141 20.5667 19.8737C20.5129 19.7333 20.4315 19.6051 20.3273 19.4967L5.33481 2.99295ZM7.81918 11.2767L7.31293 13.8342L3.17293 15.3014C2.31418 14.0039 2.47825 12.4176 3.61637 11.2795C4.72399 10.1704 6.04845 9.3017 7.507 8.72764L8.69481 10.0308C8.47005 10.1659 8.27604 10.3466 8.12524 10.5611C7.97444 10.7757 7.87019 11.0194 7.81918 11.2767ZM22.4442 16.9017C22.181 17.241 21.8088 17.4791 21.3904 17.5758C21.1121 17.641 20.8194 17.5978 20.5717 17.455C20.3241 17.3122 20.1401 17.0805 20.0571 16.8069C19.9742 16.5333 19.9985 16.2384 20.1251 15.9821C20.2517 15.7258 20.4712 15.5273 20.7389 15.427C21.6961 14.1079 21.5592 12.4542 20.3836 11.2786C18.2601 9.1542 15.3754 7.94576 12.2732 7.87451C11.9749 7.87116 11.6901 7.74941 11.4815 7.53606C11.2729 7.32271 11.1575 7.03522 11.1609 6.73686C11.1643 6.43849 11.286 6.15367 11.4994 5.94507C11.7127 5.73646 12.0002 5.62116 12.2986 5.62451H12.3239C16.0111 5.70607 19.4386 7.14795 21.9745 9.68482C23.9854 11.7004 24.1795 14.6667 22.4451 16.9026L22.4442 16.9017Z" fill="#130032"/>
</svg>
