<svg width="24" height="24" viewBox="0 0 24 24" fill="none" xmlns="http://www.w3.org/2000/svg">
<path d="M20.25 15.2622L15.8353 13.284L15.8184 13.2765C15.5317 13.1523 15.2182 13.1021 14.907 13.1306C14.5957 13.1591 14.2966 13.2654 14.0372 13.4397C14.0008 13.464 13.9658 13.4903 13.9322 13.5184L11.8406 15.2997C10.6219 14.6387 9.36282 13.39 8.70094 12.1862L10.4878 10.0619C10.5168 10.0277 10.5434 9.99172 10.5675 9.95404C10.737 9.69544 10.8399 9.39893 10.867 9.09093C10.8942 8.78293 10.8448 8.473 10.7231 8.18873C10.7202 8.18328 10.7177 8.17764 10.7156 8.17185L8.73751 3.74967C8.57526 3.37975 8.29816 3.07194 7.94727 2.87184C7.59638 2.67174 7.19037 2.59 6.78938 2.63873C5.42848 2.8175 4.17918 3.48555 3.27482 4.51809C2.37046 5.55064 1.87288 6.87707 1.87501 8.24967C1.87501 15.9006 8.09907 22.1247 15.75 22.1247C17.1226 22.1268 18.449 21.6292 19.4816 20.7248C20.5141 19.8205 21.1822 18.5712 21.3609 17.2103C21.4095 16.8093 21.3277 16.4034 21.1276 16.0525C20.9275 15.7017 20.6198 15.4245 20.25 15.2622ZM15.75 19.8747C12.668 19.8709 9.7133 18.645 7.534 16.4657C5.3547 14.2864 4.12873 11.3317 4.12501 8.24967C4.12273 7.47301 4.38639 6.71898 4.87215 6.11298C5.3579 5.50698 6.03647 5.08553 6.79501 4.91873L8.55938 8.85623L6.76313 10.9937C6.73388 11.0278 6.70695 11.0638 6.68251 11.1015C6.50512 11.3723 6.40084 11.6843 6.37981 12.0073C6.35878 12.3303 6.42172 12.6532 6.56251 12.9447C7.44563 14.7522 9.26532 16.5597 11.0916 17.4447C11.3847 17.5836 11.7089 17.6442 12.0325 17.6204C12.356 17.5965 12.6679 17.4892 12.9375 17.3087C12.9738 17.2843 13.0085 17.2577 13.0416 17.229L15.1444 15.4412L19.0819 17.2047C18.9147 17.9632 18.493 18.6417 17.8869 19.1274C17.2808 19.6131 16.5267 19.8768 15.75 19.8747ZM12.375 7.49967C12.375 7.2013 12.4935 6.91515 12.7045 6.70417C12.9155 6.49319 13.2016 6.37467 13.5 6.37467H15.375V4.49967C15.375 4.2013 15.4935 3.91515 15.7045 3.70417C15.9155 3.49319 16.2016 3.37467 16.5 3.37467C16.7984 3.37467 17.0845 3.49319 17.2955 3.70417C17.5065 3.91515 17.625 4.2013 17.625 4.49967V6.37467H19.5C19.7984 6.37467 20.0845 6.49319 20.2955 6.70417C20.5065 6.91515 20.625 7.2013 20.625 7.49967C20.625 7.79803 20.5065 8.08418 20.2955 8.29516C20.0845 8.50614 19.7984 8.62467 19.5 8.62467H17.625V10.4997C17.625 10.798 17.5065 11.0842 17.2955 11.2952C17.0845 11.5061 16.7984 11.6247 16.5 11.6247C16.2016 11.6247 15.9155 11.5061 15.7045 11.2952C15.4935 11.0842 15.375 10.798 15.375 10.4997V8.62467H13.5C13.2016 8.62467 12.9155 8.50614 12.7045 8.29516C12.4935 8.08418 12.375 7.79803 12.375 7.49967Z" fill="#130032"/>
</svg>
