<svg width="24" height="24" viewBox="0 0 24 24" fill="none" xmlns="http://www.w3.org/2000/svg">
<path d="M21.375 9.75C21.373 7.86094 20.6217 6.04982 19.2859 4.71406C17.9502 3.37829 16.1391 2.62699 14.25 2.625H6.75C6.45163 2.625 6.16548 2.74353 5.9545 2.9545C5.74353 3.16548 5.625 3.45163 5.625 3.75V15.75C5.62723 17.8379 6.45764 19.8396 7.934 21.316C9.41037 22.7924 11.4121 23.6228 13.5 23.625C13.7984 23.625 14.0845 23.5065 14.2955 23.2955C14.5065 23.0845 14.625 22.7984 14.625 22.5V16.8647C16.4464 16.7666 18.1611 15.9746 19.4166 14.6513C20.672 13.328 21.3728 11.5741 21.375 9.75ZM7.875 8.04469L11.5763 14.625H7.875V8.04469ZM12.375 11.4553L8.67375 4.875H12.375V11.4553ZM7.98938 16.875H12.375V21.2616C11.2954 21.0388 10.3047 20.5046 9.52526 19.7251C8.74586 18.9455 8.21191 17.9547 7.98938 16.875ZM14.625 14.6091V4.89094C15.8457 4.98989 16.9845 5.54471 17.8148 6.44504C18.6451 7.34538 19.1061 8.52525 19.1061 9.75C19.1061 10.9747 18.6451 12.1546 17.8148 13.055C16.9845 13.9553 15.8457 14.5101 14.625 14.6091Z" fill="#130032"/>
</svg>
