<svg width="24" height="24" viewBox="0 0 24 24" fill="none" xmlns="http://www.w3.org/2000/svg">
<path d="M22.125 16.125C22.125 17.1196 21.7299 18.0734 21.0266 18.7767C20.3234 19.4799 19.3696 19.875 18.375 19.875C17.3804 19.875 16.4266 19.4799 15.7233 18.7767C15.0201 18.0734 14.625 17.1196 14.625 16.125V7.125H9.375V18.75C9.375 19.0484 9.25647 19.3345 9.0455 19.5455C8.83452 19.7565 8.54837 19.875 8.25 19.875C7.95163 19.875 7.66548 19.7565 7.4545 19.5455C7.24353 19.3345 7.125 19.0484 7.125 18.75V7.125H6.75C5.85489 7.125 4.99645 7.48058 4.36351 8.11351C3.73058 8.74645 3.375 9.60489 3.375 10.5C3.375 10.7984 3.25647 11.0845 3.0455 11.2955C2.83452 11.5065 2.54837 11.625 2.25 11.625C1.95163 11.625 1.66548 11.5065 1.4545 11.2955C1.24353 11.0845 1.125 10.7984 1.125 10.5C1.12674 9.00869 1.71993 7.57896 2.77444 6.52444C3.82896 5.46993 5.25869 4.87674 6.75 4.875H21C21.2984 4.875 21.5845 4.99353 21.7955 5.2045C22.0065 5.41548 22.125 5.70163 22.125 6C22.125 6.29837 22.0065 6.58452 21.7955 6.7955C21.5845 7.00647 21.2984 7.125 21 7.125H16.875V16.125C16.875 16.5228 17.033 16.9044 17.3143 17.1857C17.5956 17.467 17.9772 17.625 18.375 17.625C18.7728 17.625 19.1544 17.467 19.4357 17.1857C19.717 16.9044 19.875 16.5228 19.875 16.125C19.875 15.8266 19.9935 15.5405 20.2045 15.3295C20.4155 15.1185 20.7016 15 21 15C21.2984 15 21.5845 15.1185 21.7955 15.3295C22.0065 15.5405 22.125 15.8266 22.125 16.125Z" fill="#130032"/>
</svg>
