<svg width="24" height="24" viewBox="0 0 24 24" fill="none" xmlns="http://www.w3.org/2000/svg">
<path d="M19.5 2.625H4.5C4.00272 2.625 3.52581 2.82254 3.17417 3.17417C2.82254 3.52581 2.625 4.00272 2.625 4.5V19.5C2.625 19.9973 2.82254 20.4742 3.17417 20.8258C3.52581 21.1775 4.00272 21.375 4.5 21.375H19.5C19.9973 21.375 20.4742 21.1775 20.8258 20.8258C21.1775 20.4742 21.375 19.9973 21.375 19.5V4.5C21.375 4.00272 21.1775 3.52581 20.8258 3.17417C20.4742 2.82254 19.9973 2.625 19.5 2.625ZM8.625 12.375V4.875H10.875V12.375H8.625ZM13.5 14.625V19.125H10.5V14.625H13.5ZM15.375 12.375H13.125V4.875H15.375V12.375ZM4.875 4.875H6.375V13.5C6.375 13.7984 6.49353 14.0845 6.7045 14.2955C6.91548 14.5065 7.20163 14.625 7.5 14.625H8.25V19.125H4.875V4.875ZM19.125 19.125H15.75V14.625H16.5C16.7984 14.625 17.0845 14.5065 17.2955 14.2955C17.5065 14.0845 17.625 13.7984 17.625 13.5V4.875H19.125V19.125Z" fill="#130032"/>
</svg>
