<svg width="24" height="24" viewBox="0 0 24 24" fill="none" xmlns="http://www.w3.org/2000/svg">
<path d="M22.875 11.625H19.0706L16.8206 7.125H18C18.2984 7.125 18.5845 7.00647 18.7955 6.7955C19.0065 6.58452 19.125 6.29837 19.125 6C19.125 5.70163 19.0065 5.41548 18.7955 5.2045C18.5845 4.99353 18.2984 4.875 18 4.875H6C5.70163 4.875 5.41548 4.99353 5.2045 5.2045C4.99353 5.41548 4.875 5.70163 4.875 6C4.875 6.29837 4.99353 6.58452 5.2045 6.7955C5.41548 7.00647 5.70163 7.125 6 7.125H7.17938L4.92938 11.625H1.125C0.826631 11.625 0.540483 11.7435 0.329505 11.9545C0.118526 12.1655 0 12.4516 0 12.75C0 13.0484 0.118526 13.3345 0.329505 13.5455C0.540483 13.7565 0.826631 13.875 1.125 13.875H3.80438L1.99406 17.4966C1.92375 17.6291 1.88066 17.7743 1.86732 17.9238C1.85397 18.0732 1.87065 18.2238 1.91637 18.3667C1.96209 18.5096 2.03593 18.6419 2.13354 18.7558C2.23115 18.8697 2.35056 18.963 2.48474 19.03C2.61893 19.0971 2.76517 19.1367 2.91488 19.1464C3.06459 19.1562 3.21473 19.1359 3.35647 19.0867C3.49821 19.0376 3.62869 18.9605 3.74022 18.8602C3.85176 18.7599 3.9421 18.6383 4.00594 18.5025L6.32062 13.875H17.6794L19.9941 18.5025C20.0579 18.6383 20.1482 18.7599 20.2598 18.8602C20.3713 18.9605 20.5018 19.0376 20.6435 19.0867C20.7853 19.1359 20.9354 19.1562 21.0851 19.1464C21.2348 19.1367 21.3811 19.0971 21.5153 19.03C21.6494 18.963 21.7689 18.8697 21.8665 18.7558C21.9641 18.6419 22.0379 18.5096 22.0836 18.3667C22.1293 18.2238 22.146 18.0732 22.1327 17.9238C22.1193 17.7743 22.0762 17.6291 22.0059 17.4966L20.1956 13.875H22.875C23.1734 13.875 23.4595 13.7565 23.6705 13.5455C23.8815 13.3345 24 13.0484 24 12.75C24 12.4516 23.8815 12.1655 23.6705 11.9545C23.4595 11.7435 23.1734 11.625 22.875 11.625ZM7.44562 11.625L9.69563 7.125H14.3044L16.5544 11.625H7.44562Z" fill="#130032"/>
</svg>
