<svg width="24" height="24" viewBox="0 0 24 24" fill="none" xmlns="http://www.w3.org/2000/svg">
<path d="M20.5552 3.44755C19.5481 2.44065 18.1824 1.875 16.7583 1.875C15.3342 1.875 13.9685 2.44065 12.9614 3.44755L3.44674 12.9622C2.43975 13.9692 1.87402 15.335 1.87402 16.7591C1.87402 18.1832 2.43975 19.549 3.44674 20.556C4.45373 21.563 5.81951 22.1287 7.24362 22.1287C8.66772 22.1287 10.0335 21.563 11.0405 20.556L20.5552 11.0385C21.5601 10.0309 22.1244 8.66602 22.1244 7.24302C22.1244 5.82001 21.5601 4.45509 20.5552 3.44755ZM9.44768 18.9622C9.16276 19.2706 8.8185 19.5183 8.43554 19.6904C8.05258 19.8625 7.63881 19.9555 7.21904 19.9638C6.79928 19.9721 6.38215 19.8955 5.99269 19.7387C5.60323 19.5818 5.24945 19.348 4.95257 19.0511C4.65569 18.7542 4.42183 18.4004 4.265 18.011C4.10817 17.6215 4.03161 17.2044 4.03991 16.7846C4.0482 16.3648 4.14119 15.9511 4.31329 15.5681C4.48538 15.1852 4.73305 14.8409 5.04143 14.556L8.99955 10.5941L13.4058 15.0004L9.44768 18.9622ZM18.9633 9.44755L14.9996 13.4066L10.5933 9.00036L14.5561 5.03849C15.1479 4.49177 15.9282 4.1953 16.7337 4.21123C17.5392 4.22715 18.3073 4.55422 18.877 5.1239C19.4466 5.69357 19.7737 6.46163 19.7896 7.26712C19.8055 8.07261 19.5091 8.85299 18.9624 9.44474L18.9633 9.44755ZM18.0474 7.07942C18.1522 7.18394 18.2355 7.30813 18.2922 7.44488C18.349 7.58162 18.3783 7.72823 18.3783 7.8763C18.3783 8.02436 18.349 8.17097 18.2922 8.30772C18.2355 8.44446 18.1522 8.56866 18.0474 8.67317L15.7974 10.9232C15.6927 11.0278 15.5685 11.1108 15.4318 11.1675C15.295 11.2241 15.1485 11.2532 15.0005 11.2532C14.8525 11.2532 14.706 11.2241 14.5692 11.1675C14.4325 11.1108 14.3083 11.0278 14.2036 10.9232C14.099 10.8185 14.016 10.6943 13.9593 10.5576C13.9027 10.4208 13.8735 10.2743 13.8735 10.1263C13.8735 9.9783 13.9027 9.83176 13.9593 9.69503C14.016 9.5583 14.099 9.43407 14.2036 9.32942L16.4536 7.07942C16.5581 6.97454 16.6823 6.89133 16.8191 6.83455C16.9558 6.77776 17.1024 6.74854 17.2505 6.74854C17.3986 6.74854 17.5452 6.77776 17.6819 6.83455C17.8187 6.89133 17.9428 6.97454 18.0474 7.07942Z" fill="#130032"/>
</svg>
