<svg width="24" height="24" viewBox="0 0 24 24" fill="none" xmlns="http://www.w3.org/2000/svg">
<path d="M22.8682 18.3486C22.8464 18.083 22.7682 17.8252 22.6389 17.5923C22.5095 17.3593 22.332 17.1566 22.1182 16.9976L19.031 14.548L20.1654 13.4136C20.6442 12.939 20.9983 12.3535 21.1964 11.7091C21.3945 11.0647 21.4303 10.3814 21.3007 9.71983C20.8475 7.49148 19.6261 5.49304 17.8498 4.07327C16.0481 2.62396 13.7981 1.84701 11.486 1.87577C8.9503 1.91845 6.53036 2.94477 4.73707 4.73806C2.94378 6.53135 1.91747 8.95129 1.87478 11.487C1.84625 13.7981 2.62285 16.047 4.07134 17.848C5.49111 19.6243 7.48955 20.8456 9.71791 21.2989C10.3793 21.4285 11.0625 21.3926 11.7068 21.1946C12.351 20.9965 12.9363 20.6424 13.4107 20.1636L14.547 19.032L16.9967 22.1211C17.1556 22.3349 17.3583 22.5124 17.5913 22.6417C17.8242 22.771 18.0821 22.8492 18.3476 22.8711C18.3992 22.8711 18.4507 22.8776 18.5032 22.8776C19.0001 22.8773 19.4766 22.6797 19.8279 22.3283L22.3254 19.8308C22.5185 19.6383 22.6672 19.4058 22.7609 19.1498C22.8547 18.8937 22.8913 18.6203 22.8682 18.3486ZM4.12478 11.5189C4.18103 7.50077 7.49978 4.18202 11.5179 4.12577C12.6911 4.11112 13.852 4.36545 14.9116 4.86924C15.9712 5.37303 16.9012 6.11288 17.6304 7.03202L7.03103 17.6314C6.11189 16.9022 5.37204 15.9721 4.86825 14.9126C4.36446 13.853 4.11013 12.6921 4.12478 11.5189ZM18.5351 20.4383L15.5257 16.6423C15.4271 16.5183 15.3033 16.4166 15.1626 16.3437C15.0219 16.2708 14.8674 16.2285 14.7092 16.2195H14.6445C14.4967 16.2194 14.3503 16.2484 14.2138 16.3049C14.0772 16.3613 13.9531 16.4441 13.8485 16.5486L11.8207 18.5726C11.6075 18.7894 11.344 18.9502 11.0537 19.0408C10.7635 19.1314 10.4554 19.149 10.1567 19.092C9.78394 19.0172 9.41778 18.9128 9.06166 18.7798L18.7788 9.06265C18.9118 9.41877 19.0162 9.78493 19.091 10.1576C19.148 10.4563 19.1304 10.7645 19.0398 11.0547C18.9492 11.345 18.7884 11.6084 18.5717 11.8217L16.5438 13.8495C16.4315 13.9615 16.3441 14.096 16.2874 14.2441C16.2307 14.3923 16.2059 14.5507 16.2148 14.7091C16.2236 14.8675 16.2659 15.0222 16.3387 15.1631C16.4116 15.304 16.5135 15.4279 16.6376 15.5267L20.4373 18.5361L18.5351 20.4383Z" fill="#130032"/>
</svg>
