<svg width="24" height="24" viewBox="0 0 24 24" fill="none" xmlns="http://www.w3.org/2000/svg">
<path d="M21.375 10.4991C21.375 12.7116 20.5978 14.7394 19.1859 16.2066C17.8613 17.5838 16.0622 18.3741 14.25 18.3741C12.8016 18.3741 11.7394 17.9822 10.9791 17.5013L10.095 21.2569C10.0624 21.402 10.0014 21.5392 9.91542 21.6605C9.82947 21.7819 9.72031 21.885 9.59426 21.9639C9.46821 22.0428 9.32777 22.0959 9.18106 22.1202C9.03435 22.1445 8.88428 22.1394 8.73953 22.1054C8.59479 22.0713 8.45823 22.0088 8.33777 21.9216C8.2173 21.8345 8.11531 21.7243 8.03771 21.5974C7.9601 21.4706 7.90842 21.3296 7.88564 21.1826C7.86286 21.0357 7.86944 20.8857 7.905 20.7413L10.905 7.99127C10.9376 7.84618 10.9986 7.70899 11.0846 7.58764C11.1705 7.46629 11.2797 7.36318 11.4057 7.28428C11.5318 7.20538 11.6722 7.15225 11.8189 7.12797C11.9657 7.10368 12.1157 7.10873 12.2605 7.14281C12.4052 7.17689 12.5418 7.23933 12.6622 7.32652C12.7827 7.4137 12.8847 7.52391 12.9623 7.65076C13.0399 7.77761 13.0916 7.91859 13.1144 8.06554C13.1371 8.21249 13.1306 8.3625 13.095 8.50689L11.5528 15.0628C11.88 15.4547 12.6713 16.1241 14.25 16.1241C16.6463 16.1241 19.125 14.0194 19.125 10.4991C19.1245 9.52153 18.8992 8.5572 18.4665 7.68063C18.0338 6.80405 17.4053 6.03873 16.6297 5.44382C15.854 4.84892 14.9519 4.44036 13.9931 4.24975C13.0343 4.05913 12.0445 4.09156 11.1003 4.34453C10.156 4.5975 9.2826 5.06423 8.54753 5.70864C7.81246 6.35305 7.23543 7.15788 6.86105 8.06089C6.48667 8.96391 6.32497 9.94093 6.38846 10.9164C6.45195 11.8919 6.73892 12.8397 7.22719 13.6866C7.365 13.9441 7.39728 14.245 7.31721 14.5259C7.23714 14.8068 7.05099 15.0455 6.79812 15.1916C6.54525 15.3377 6.24547 15.3797 5.96216 15.3088C5.67886 15.2379 5.43423 15.0596 5.28 14.8116C4.6187 13.6658 4.22981 12.3834 4.14341 11.0633C4.05702 9.74323 4.27543 8.42098 4.78176 7.19883C5.28808 5.97668 6.06875 4.88737 7.06338 4.01517C8.05801 3.14297 9.23994 2.51125 10.5178 2.16887C11.7956 1.82649 13.135 1.78264 14.4325 2.04069C15.73 2.29875 16.9507 2.8518 18.0002 3.65707C19.0498 4.46234 19.9 5.49824 20.4852 6.68466C21.0704 7.87107 21.3749 9.1762 21.375 10.4991Z" fill="#130032"/>
</svg>
