<svg width="24" height="24" viewBox="0 0 24 24" fill="none" xmlns="http://www.w3.org/2000/svg">
<path d="M19.5933 2.25001C19.4872 2.13138 19.3571 2.03661 19.2117 1.97196C19.0663 1.90732 18.9087 1.87427 18.7496 1.87501H5.24958C5.09056 1.87507 4.93336 1.90884 4.78835 1.9741C4.64334 2.03935 4.51381 2.1346 4.4083 2.25358C4.30279 2.37255 4.22371 2.51254 4.17625 2.66431C4.1288 2.81608 4.11407 2.97619 4.13302 3.13407L6.30333 21.2278C6.35897 21.6824 6.57905 22.1009 6.92205 22.4043C7.26505 22.7078 7.70724 22.8752 8.1652 22.875H15.834C16.2926 22.8751 16.7354 22.707 17.0785 22.4026C17.4216 22.0982 17.6412 21.6786 17.6958 21.2231L19.8661 3.13407C19.8859 2.9758 19.8719 2.81512 19.8248 2.6627C19.7778 2.51028 19.6989 2.36961 19.5933 2.25001ZM17.4811 4.12501L17.3011 5.62501H6.69802L6.51802 4.12501H17.4811ZM15.5011 20.625H8.49802L6.96802 7.87501H17.0311L15.5011 20.625Z" fill="#130032"/>
</svg>
