<svg width="24" height="24" viewBox="0 0 24 24" fill="none" xmlns="http://www.w3.org/2000/svg">
<path d="M21.7955 20.207L17.6705 16.082C19.0974 15.4893 20.2407 14.369 20.8622 12.9545C21.4838 11.5399 21.5356 9.94007 21.0071 8.4882C20.905 8.20787 20.6957 7.97958 20.4253 7.85352C20.1549 7.72746 19.8455 7.71397 19.5652 7.81601L16.2267 9.03476C16.5843 7.96507 16.633 6.81627 16.3675 5.72012C16.1019 4.62397 15.5328 3.62487 14.7254 2.8374C13.9179 2.04993 12.9049 1.50599 11.8024 1.26796C10.7 1.02993 9.55277 1.10745 8.49236 1.49164C8.21204 1.59373 7.98374 1.80298 7.85768 2.07338C7.73162 2.34377 7.71813 2.65317 7.82018 2.93351L9.03893 6.27195C7.96857 5.91313 6.8187 5.86356 5.72144 6.12892C4.62418 6.39429 3.62404 6.96383 2.83593 7.7721C2.04783 8.58037 1.50375 9.59458 1.26619 10.6982C1.02863 11.8018 1.10724 12.9501 1.49299 14.011C1.59507 14.2913 1.80433 14.5196 2.07473 14.6457C2.34512 14.7718 2.65452 14.7852 2.93486 14.6832L6.2733 13.4645C5.9121 14.535 5.8608 15.6858 6.12531 16.7842C6.38982 17.8826 6.95938 18.884 7.76832 19.6727C8.57725 20.4615 9.59263 21.0055 10.6974 21.2422C11.8021 21.4789 12.9513 21.3985 14.0124 21.0104C14.2927 20.9083 14.521 20.699 14.647 20.4286C14.7731 20.1583 14.7866 19.8489 14.6846 19.5685L13.4705 16.2319C13.9467 16.3924 14.4412 16.4919 14.9424 16.5282L20.2083 21.7941C20.4196 22.0055 20.7063 22.1242 21.0052 22.1242C21.3041 22.1242 21.5907 22.0055 21.802 21.7941C22.0134 21.5828 22.1321 21.2961 22.1321 20.9973C22.1321 20.6984 22.0134 20.4117 21.802 20.2004L21.7955 20.207ZM12.1289 3.73133C12.7131 4.00372 13.2172 4.42209 13.5926 4.94607C13.968 5.47005 14.202 6.08195 14.272 6.72271C14.342 7.36348 14.2457 8.01147 13.9923 8.60415C13.7389 9.19684 13.3371 9.7142 12.8255 10.1063L10.3777 3.38164C10.9811 3.35477 11.5821 3.47476 12.1289 3.73133ZM3.37924 12.1257C3.34258 11.3275 3.56181 10.5385 4.00498 9.87369C4.44815 9.20885 5.09209 8.70295 5.84292 8.42972C6.59376 8.15649 7.41224 8.13022 8.17905 8.35474C8.94586 8.57926 9.62091 9.04284 10.1058 9.67789L3.37924 12.1257ZM10.3721 18.7745C9.78786 18.5021 9.28374 18.0837 8.90834 17.5597C8.53295 17.0357 8.29895 16.4238 8.22894 15.7831C8.15893 15.1423 8.25526 14.4943 8.50864 13.9016C8.76203 13.3089 9.1639 12.7916 9.67549 12.3995L12.1233 19.1269C11.5196 19.1529 10.9187 19.0319 10.3721 18.7745ZM13.7892 13.9454C13.241 13.6911 12.7627 13.3076 12.3952 12.8279L19.1245 10.3801C19.1528 11.024 19.0146 11.6644 18.7233 12.2394C18.4319 12.8144 17.9973 13.3046 17.4613 13.6627C16.9253 14.0208 16.3061 14.2346 15.6634 14.2837C15.0207 14.3327 14.3761 14.2152 13.792 13.9426L13.7892 13.9454Z" fill="#130032"/>
</svg>
