<svg width="24" height="24" viewBox="0 0 24 24" fill="none" xmlns="http://www.w3.org/2000/svg">
<path d="M21.75 9.375H20.25V5.625H21.75C22.0484 5.625 22.3345 5.50647 22.5455 5.2955C22.7565 5.08452 22.875 4.79837 22.875 4.5C22.875 4.20163 22.7565 3.91548 22.5455 3.7045C22.3345 3.49353 22.0484 3.375 21.75 3.375H19.875C19.7003 3.14213 19.4739 2.95313 19.2135 2.82295C18.9532 2.69277 18.6661 2.625 18.375 2.625H16.125C15.8339 2.625 15.5468 2.69277 15.2865 2.82295C15.0261 2.95313 14.7997 3.14213 14.625 3.375H13.5C10.8156 3.37798 8.24199 4.44567 6.34383 6.34383C4.44567 8.24199 3.37798 10.8156 3.375 13.5V14.625C3.14213 14.7997 2.95313 15.0261 2.82295 15.2865C2.69277 15.5468 2.625 15.8339 2.625 16.125V18.375C2.625 18.6661 2.69277 18.9532 2.82295 19.2135C2.95313 19.4739 3.14213 19.7003 3.375 19.875V21.75C3.375 22.0484 3.49353 22.3345 3.7045 22.5455C3.91548 22.7565 4.20163 22.875 4.5 22.875C4.79837 22.875 5.08452 22.7565 5.2955 22.5455C5.50647 22.3345 5.625 22.0484 5.625 21.75V20.25H9.375V21.75C9.375 22.0484 9.49353 22.3345 9.7045 22.5455C9.91548 22.7565 10.2016 22.875 10.5 22.875C10.7984 22.875 11.0845 22.7565 11.2955 22.5455C11.5065 22.3345 11.625 22.0484 11.625 21.75V19.875C11.8579 19.7003 12.0469 19.4739 12.1771 19.2135C12.3072 18.9532 12.375 18.6661 12.375 18.375V16.125C12.375 15.8339 12.3072 15.5468 12.1771 15.2865C12.0469 15.0261 11.8579 14.7997 11.625 14.625V13.5C11.625 13.0027 11.8225 12.5258 12.1742 12.1742C12.5258 11.8225 13.0027 11.625 13.5 11.625H14.625C14.7997 11.8579 15.0261 12.0469 15.2865 12.1771C15.5468 12.3072 15.8339 12.375 16.125 12.375H18.375C18.6661 12.375 18.9532 12.3072 19.2135 12.1771C19.4739 12.0469 19.7003 11.8579 19.875 11.625H21.75C22.0484 11.625 22.3345 11.5065 22.5455 11.2955C22.7565 11.0845 22.875 10.7984 22.875 10.5C22.875 10.2016 22.7565 9.91548 22.5455 9.7045C22.3345 9.49353 22.0484 9.375 21.75 9.375ZM10.125 16.5V18H4.875V16.5H10.125ZM9.375 13.5V14.25H5.625V13.5C5.62723 11.4121 6.45764 9.41037 7.934 7.934C9.41037 6.45764 11.4121 5.62723 13.5 5.625H14.25V9.375H13.5C12.4064 9.37624 11.3579 9.81124 10.5846 10.5846C9.81124 11.3579 9.37624 12.4064 9.375 13.5ZM16.5 4.875H18V10.125H16.5V4.875Z" fill="#130032"/>
</svg>
