<svg width="24" height="24" viewBox="0 0 24 24" fill="none" xmlns="http://www.w3.org/2000/svg">
<path d="M20.5419 3.76714L20.5081 3.73432L17.4303 0.902136C17.0775 0.560954 16.605 0.371713 16.1142 0.375043C15.6234 0.378374 15.1535 0.57401 14.8053 0.919949L10.3466 5.35245C9.78095 4.8173 9.02944 4.52302 8.25085 4.5318C7.47225 4.54059 6.72757 4.85175 6.17419 5.39953C5.62081 5.94731 5.30209 6.68879 5.28539 7.46725C5.26868 8.24572 5.55531 9.00019 6.08468 9.5712L4.6728 10.9774C4.49861 11.1516 4.36043 11.3583 4.26616 11.5858C4.17188 11.8134 4.12336 12.0573 4.12336 12.3035C4.12336 12.5498 4.17188 12.7937 4.26616 13.0212C4.36043 13.2488 4.49861 13.4555 4.6728 13.6296L6.33405 15.2909L3.5028 18.1221C2.94013 18.6848 2.62402 19.448 2.62402 20.2437C2.62402 21.0394 2.94013 21.8026 3.5028 22.3653C4.06548 22.9279 4.82863 23.244 5.62437 23.244C6.42011 23.244 7.18325 22.9279 7.74593 22.3653L16.325 13.7103C16.5014 13.5333 16.6407 13.3228 16.7346 13.0912C16.8285 12.8596 16.8752 12.6116 16.8719 12.3617C16.8686 12.1118 16.8153 11.8651 16.7153 11.6361C16.6152 11.407 16.4704 11.2003 16.2894 11.0281L15.0706 9.86557L16.1872 8.75932L17.5681 9.97807C17.9226 10.3175 18.3961 10.5044 18.8869 10.4986C19.3777 10.4929 19.8467 10.2948 20.1931 9.94714L20.5409 9.59932C20.924 9.21627 21.2279 8.76151 21.4353 8.261C21.6426 7.76049 21.7493 7.22405 21.7493 6.68229C21.7493 6.14054 21.6426 5.60409 21.4353 5.10358C21.2279 4.60307 20.924 4.14831 20.5409 3.76526L20.5419 3.76714ZM6.52999 12.3096L7.67468 11.1668L9.06874 12.5609L7.92499 13.7056L6.52999 12.3096ZM6.15499 20.7809C6.01414 20.9214 5.82324 21.0001 5.62431 20.9999C5.42537 20.9996 5.23469 20.9203 5.09421 20.7795C4.95373 20.6386 4.87495 20.4477 4.87522 20.2488C4.87548 20.0499 4.95476 19.8592 5.09562 19.7187L11.4575 13.3568C11.5624 13.2523 11.6456 13.1281 11.7024 12.9914C11.7591 12.8546 11.7884 12.708 11.7884 12.5599C11.7884 12.4119 11.7591 12.2653 11.7024 12.1285C11.6456 11.9918 11.5624 11.8676 11.4575 11.7631L7.71874 8.02901C7.57801 7.88828 7.49895 7.69741 7.49895 7.49839C7.49895 7.29936 7.57801 7.10849 7.71874 6.96776C7.85947 6.82703 8.05034 6.74797 8.24937 6.74797C8.44839 6.74797 8.63926 6.82703 8.77999 6.96776C8.78561 6.97432 8.79218 6.97995 8.7978 6.98557L14.4641 12.3968L6.15499 20.7809ZM18.9509 8.01026L18.8572 8.10401L17.4631 6.88339C17.1081 6.55093 16.6382 6.36892 16.1519 6.37556C15.6656 6.3822 15.2008 6.57698 14.855 6.91901L13.4487 8.31401L11.975 6.90776L16.1347 2.76682L18.965 5.37307C19.3104 5.72595 19.5026 6.20081 19.5 6.69456C19.4973 7.18831 19.3 7.66109 18.9509 8.01026Z" fill="#130032"/>
</svg>
