<svg width="24" height="24" viewBox="0 0 24 24" fill="none" xmlns="http://www.w3.org/2000/svg">
<path d="M22.3275 10.679L13.3275 1.67898C12.9762 1.32919 12.5005 1.13281 12.0047 1.13281C11.5089 1.13281 11.0333 1.32919 10.6819 1.67898L1.68191 10.6837C1.33212 11.0351 1.13574 11.5107 1.13574 12.0065C1.13574 12.5023 1.33212 12.9779 1.68191 13.3293L10.6866 22.3293C11.038 22.6791 11.5136 22.8755 12.0094 22.8755C12.5052 22.8755 12.9808 22.6791 13.3322 22.3293L22.3322 13.3293C22.682 12.9779 22.8784 12.5023 22.8784 12.0065C22.8784 11.5107 22.682 11.0351 22.3322 10.6837L22.3275 10.679ZM12 3.53429L16.3425 7.87679H15C14.8523 7.87668 14.7059 7.90568 14.5693 7.96214C14.4328 8.0186 14.3087 8.10142 14.2041 8.20586L12 10.408L9.79597 8.20586C9.69142 8.10142 9.56731 8.0186 9.43074 7.96214C9.29417 7.90568 9.14782 7.87668 9.00004 7.87679H7.65754L12 3.53429ZM5.40754 10.1268H8.53129L10.4063 12.0018L8.53129 13.8768H5.40754L3.53254 12.0018L5.40754 10.1268ZM12 20.4693L7.65754 16.1268H9.00004C9.14782 16.1269 9.29417 16.0979 9.43074 16.0414C9.56731 15.985 9.69142 15.9022 9.79597 15.7977L12 13.5955L14.2041 15.8005C14.4157 16.0104 14.702 16.1278 15 16.1268H16.3425L12 20.4693ZM18.5925 13.8768H15.4688L13.5938 12.0018L15.4688 10.1268H18.5953L20.4703 12.0018L18.5925 13.8768Z" fill="#130032"/>
</svg>
