<svg width="24" height="24" viewBox="0 0 24 24" fill="none" xmlns="http://www.w3.org/2000/svg">
<path d="M22.8217 5.81717C22.7638 5.57719 22.659 5.35107 22.5132 5.15185C22.3674 4.95264 22.1836 4.7843 21.9723 4.65654C18.9643 2.83691 15.5157 1.875 12.0001 1.875C8.48456 1.875 5.03599 2.83691 2.02796 4.65654C1.81755 4.78445 1.6344 4.95256 1.48896 5.15125C1.34352 5.34995 1.23864 5.57534 1.18032 5.81457C1.12199 6.0538 1.11135 6.30218 1.14902 6.54552C1.18668 6.78885 1.27191 7.02239 1.39983 7.23279L10.3998 21.9759C10.567 22.2514 10.8023 22.4792 11.0831 22.6373C11.3639 22.7954 11.6807 22.8785 12.003 22.8785C12.3252 22.8785 12.642 22.7954 12.9228 22.6373C13.2036 22.4792 13.439 22.2514 13.6061 21.9759L22.6061 7.23279C22.7339 7.02282 22.8187 6.78958 22.8557 6.54659C22.8927 6.30359 22.8812 6.05566 22.8217 5.81717ZM12.0001 4.12498C14.9763 4.12237 17.9008 4.90288 20.4798 6.3881L19.6876 7.68748C17.3499 6.33942 14.6987 5.62979 12.0001 5.62979C9.30155 5.62979 6.6504 6.33942 4.31264 7.68748L3.52046 6.3881C6.09953 4.90288 9.02399 4.12237 12.0001 4.12498ZM7.86389 13.5056L5.91952 10.3181C6.20545 10.1768 6.5227 10.1108 6.84125 10.1263C7.15981 10.1418 7.46915 10.2383 7.74002 10.4067C8.01089 10.575 8.23433 10.8097 8.38921 11.0885C8.54409 11.3673 8.6253 11.681 8.62514 12C8.62384 12.2928 8.55437 12.5813 8.42224 12.8426C8.29011 13.104 8.09895 13.331 7.86389 13.5056ZM12.0001 20.2837L9.04139 15.4359C9.64214 15.0356 10.1273 14.4847 10.4484 13.8381C10.7696 13.1916 10.9154 12.4721 10.8714 11.7516C10.8273 11.031 10.595 10.3347 10.1975 9.73203C9.80005 9.12941 9.25141 8.64165 8.60639 8.31748C11.9507 7.42783 15.5109 7.89058 18.5167 9.6056L17.6776 10.98C16.7487 10.4847 15.6656 10.3633 14.6501 10.6407C13.6346 10.918 12.7636 11.5731 12.2154 12.4718C11.6672 13.3705 11.4833 14.4447 11.7014 15.4746C11.9195 16.5044 12.5231 17.4119 13.3886 18.0112L12.0001 20.2837ZM13.8751 14.625C13.8753 14.3137 13.9529 14.0074 14.1011 13.7337C14.2492 13.4599 14.4631 13.2274 14.7236 13.0569C14.984 12.8865 15.2828 12.7836 15.593 12.7575C15.9031 12.7315 16.2149 12.783 16.5001 12.9075L14.5651 16.079C14.3494 15.9031 14.1755 15.6813 14.0562 15.4298C13.9368 15.1783 13.875 14.9034 13.8751 14.625Z" fill="#130032"/>
</svg>
