<svg width="24" height="24" viewBox="0 0 24 24" fill="none" xmlns="http://www.w3.org/2000/svg">
<path d="M23.9642 4.84193C23.948 4.56702 23.8314 4.30763 23.6367 4.11291C23.442 3.91818 23.1826 3.80164 22.9077 3.78537C17.9136 3.49193 13.8889 5.03787 12.1414 7.92349C11.0033 9.79849 10.9639 12.0644 12.0046 14.2329C11.4981 14.879 11.1085 15.6088 10.8533 16.3891L9.66643 15.2022C10.3405 13.6301 10.2692 12.0044 9.44143 10.6376C8.13081 8.47099 5.14581 7.31224 1.45768 7.52505C1.18262 7.54135 0.923111 7.65802 0.728361 7.85294C0.533611 8.04787 0.417169 8.30748 0.401119 8.58255C0.187369 12.2707 1.34612 15.2557 3.51081 16.5663C4.24497 17.0138 5.08852 17.2496 5.94831 17.2479C6.68133 17.2419 7.40545 17.0865 8.07643 16.7913L10.4999 19.2185V21.3747C10.4999 21.6731 10.6184 21.9593 10.8294 22.1702C11.0404 22.3812 11.3265 22.4997 11.6249 22.4997C11.9232 22.4997 12.2094 22.3812 12.4204 22.1702C12.6313 21.9593 12.7499 21.6731 12.7499 21.3747V18.6101C12.7476 17.6044 13.0585 16.623 13.6396 15.8022C14.5808 16.2481 15.6075 16.4844 16.6489 16.4951C17.7694 16.4976 18.8689 16.1907 19.8261 15.6082C22.7108 13.8607 24.2586 9.83599 23.9642 4.84193ZM4.67612 14.6416C3.43956 13.8916 2.69049 12.0672 2.62956 9.75443C4.94237 9.81537 6.76768 10.5644 7.51674 11.801C7.80968 12.2775 7.92983 12.8402 7.85706 13.3947L6.79487 12.3288C6.58353 12.1175 6.29688 11.9987 5.99799 11.9987C5.69911 11.9987 5.41246 12.1175 5.20112 12.3288C4.98977 12.5401 4.87104 12.8268 4.87104 13.1257C4.87104 13.4246 4.98977 13.7112 5.20112 13.9226L6.26424 14.9857C5.71119 15.054 5.15132 14.9327 4.67612 14.6416ZM18.6608 13.6872C17.6614 14.2919 16.5046 14.4063 15.3036 14.0397L18.7958 10.5485C19.0072 10.3371 19.1259 10.0505 19.1259 9.75162C19.1259 9.45273 19.0072 9.16609 18.7958 8.95474C18.5845 8.7434 18.2978 8.62467 17.9989 8.62467C17.7 8.62467 17.4134 8.7434 17.2021 8.95474L13.7099 12.446C13.3471 11.2497 13.4614 10.0882 14.0624 9.09349C15.253 7.12474 18.0608 5.99974 21.6861 5.99974H21.7499C21.763 9.65599 20.638 12.4854 18.6608 13.6872Z" fill="#130032"/>
</svg>
