<svg width="24" height="24" viewBox="0 0 24 24" fill="none" xmlns="http://www.w3.org/2000/svg">
<path d="M23.3052 5.50181C22.7136 4.48275 21.1489 3.52744 17.1027 4.5915C15.7522 3.65958 14.1725 3.11484 12.5347 3.01625C10.8968 2.91766 9.2632 3.26898 7.81068 4.03218C6.35816 4.79537 5.14209 5.94136 4.29411 7.34606C3.44614 8.75077 2.99857 10.3607 2.99987 12.0015C2.99987 12.2265 3.00799 12.4496 3.02424 12.6709C0.0523673 15.6446 0.102993 17.4765 0.697368 18.5012C1.25612 19.4649 2.37174 19.8765 3.81362 19.8765C4.73143 19.8765 5.78237 19.7096 6.90268 19.4162C8.25345 20.3468 9.83299 20.8903 11.4704 20.9879C13.1078 21.0855 14.7407 20.7334 16.1924 19.9699C17.6442 19.2063 18.8595 18.0602 19.7068 16.6558C20.5542 15.2513 21.0013 13.6418 20.9999 12.0015C20.9999 11.7756 20.9914 11.5524 20.9746 11.3302C22.3161 9.98212 23.2114 8.68556 23.5058 7.58025C23.7702 6.60337 23.5424 5.90775 23.3052 5.50181ZM11.9999 5.2515C13.5287 5.25356 15.0118 5.77381 16.2069 6.72731C17.402 7.68081 18.2386 9.01126 18.5802 10.5015C17.2499 11.6949 15.4686 12.9943 13.3049 14.2384C11.2667 15.4093 9.22206 16.3346 7.39018 16.9243C6.40369 15.9989 5.718 14.7984 5.42202 13.4785C5.12604 12.1586 5.23343 10.7803 5.73026 9.52219C6.2271 8.26409 7.09045 7.18429 8.20837 6.42279C9.3263 5.66128 10.6472 5.25322 11.9999 5.2515ZM2.64268 17.3724C2.58549 17.2721 2.62674 16.6018 3.64299 15.3371C3.95864 16.1251 4.38445 16.8643 4.90768 17.5327C3.29237 17.7774 2.70456 17.4774 2.64268 17.3724ZM11.9999 18.7515C11.2812 18.7516 10.5671 18.6364 9.88487 18.4102C11.4469 17.7744 12.9636 17.0324 14.4242 16.1893C15.8794 15.3594 17.2756 14.43 18.6027 13.4077C18.2786 14.919 17.4466 16.2736 16.2452 17.2459C15.0438 18.2183 13.5455 18.7496 11.9999 18.7515ZM21.3346 6.99994C21.2146 7.44806 20.8836 8.019 20.3605 8.66869C20.0448 7.87965 19.6187 7.13945 19.0949 6.47025C20.5789 6.24806 21.2671 6.47025 21.3589 6.63056C21.3749 6.65775 21.3946 6.77775 21.3346 6.99994Z" fill="#130032"/>
</svg>
