<svg width="24" height="24" viewBox="0 0 24 24" fill="none" xmlns="http://www.w3.org/2000/svg">
<path d="M21.9834 10.4112L8.47594 2.14904C8.19267 1.97635 7.86865 1.88191 7.53696 1.87537C7.20526 1.86882 6.87777 1.95039 6.58791 2.11177C6.29804 2.27314 6.05618 2.50854 5.88702 2.79393C5.71785 3.07932 5.62744 3.40448 5.625 3.73623V20.2606C5.62744 20.5924 5.71785 20.9175 5.88702 21.2029C6.05618 21.4883 6.29804 21.7237 6.58791 21.8851C6.87777 22.0464 7.20526 22.128 7.53696 22.1215C7.86865 22.1149 8.19267 22.0205 8.47594 21.8478L21.9834 13.5856C22.2558 13.4198 22.4809 13.1867 22.6371 12.9087C22.7934 12.6308 22.8754 12.3173 22.8754 11.9984C22.8754 11.6796 22.7934 11.3661 22.6371 11.0881C22.4809 10.8101 22.2558 10.577 21.9834 10.4112ZM7.875 19.5781V4.41873L20.265 11.9984L7.875 19.5781Z" fill="#130032"/>
</svg>
