<svg width="24" height="24" viewBox="0 0 24 24" fill="none" xmlns="http://www.w3.org/2000/svg">
<path d="M17.625 6.00023V18.0002C17.625 18.2986 17.5065 18.5847 17.2955 18.7957C17.0845 19.0067 16.7984 19.1252 16.5 19.1252C16.2016 19.1252 15.9155 19.0067 15.7045 18.7957C15.4935 18.5847 15.375 18.2986 15.375 18.0002V6.00023C15.375 5.70186 15.4935 5.41571 15.7045 5.20473C15.9155 4.99375 16.2016 4.87523 16.5 4.87523C16.7984 4.87523 17.0845 4.99375 17.2955 5.20473C17.5065 5.41571 17.625 5.70186 17.625 6.00023ZM21 4.87523C20.7016 4.87523 20.4155 4.99375 20.2045 5.20473C19.9935 5.41571 19.875 5.70186 19.875 6.00023V18.0002C19.875 18.2986 19.9935 18.5847 20.2045 18.7957C20.4155 19.0067 20.7016 19.1252 21 19.1252C21.2984 19.1252 21.5845 19.0067 21.7955 18.7957C22.0065 18.5847 22.125 18.2986 22.125 18.0002V6.00023C22.125 5.70186 22.0065 5.41571 21.7955 5.20473C21.5845 4.99375 21.2984 4.87523 21 4.87523ZM13.875 12.0002C13.8757 12.3129 13.797 12.6207 13.6463 12.8946C13.4956 13.1686 13.2779 13.3999 13.0134 13.5668L4.74656 18.8318C4.46485 19.0118 4.13996 19.1128 3.80585 19.1243C3.47174 19.1359 3.14066 19.0574 2.84722 18.8972C2.55378 18.7371 2.30875 18.501 2.13773 18.2138C1.9667 17.9265 1.87597 17.5986 1.875 17.2643V6.73616C1.87597 6.40185 1.9667 6.07394 2.13773 5.78668C2.30875 5.49943 2.55378 5.26338 2.84722 5.1032C3.14066 4.94302 3.47174 4.86459 3.80585 4.87611C4.13996 4.88762 4.46485 4.98866 4.74656 5.16866L13.0134 10.4337C13.2779 10.6006 13.4956 10.8318 13.6463 11.1058C13.797 11.3798 13.8757 11.6875 13.875 12.0002ZM11.2856 12.0002L4.125 7.44116V16.5593L11.2856 12.0002Z" fill="#130032"/>
</svg>
