<svg width="24" height="24" viewBox="0 0 24 24" fill="none" xmlns="http://www.w3.org/2000/svg">
<path d="M22.546 5.95304C22.4415 5.84817 22.3173 5.76495 22.1805 5.70817C22.0438 5.65139 21.8972 5.62216 21.7491 5.62216C21.601 5.62216 21.4544 5.65139 21.3177 5.70817C21.1809 5.76495 21.0567 5.84817 20.9522 5.95304L18 8.90523L15.0938 5.99898L18.0488 3.04492C18.2601 2.83358 18.3789 2.54693 18.3789 2.24805C18.3789 1.94916 18.2601 1.66251 18.0488 1.45117C17.8374 1.23983 17.5508 1.12109 17.2519 1.12109C16.953 1.12109 16.6664 1.23983 16.455 1.45117L13.5 4.40523L11.296 2.20305C11.1913 2.0984 11.0671 2.01539 10.9304 1.95875C10.7936 1.90212 10.6471 1.87297 10.4991 1.87297C10.2002 1.87297 9.91357 1.9917 9.70222 2.20305C9.49088 2.41439 9.37215 2.70103 9.37215 2.99992C9.37215 3.29881 9.49088 3.58545 9.70222 3.79679L10.0313 4.12398L5.33347 8.82461C4.95037 9.20766 4.64647 9.66242 4.43913 10.1629C4.23179 10.6634 4.12507 11.1999 4.12507 11.7416C4.12507 12.2834 4.23179 12.8198 4.43913 13.3203C4.64647 13.8209 4.95037 14.2756 5.33347 14.6587L6.54097 15.8662L2.2041 20.203C2.09945 20.3077 2.01644 20.4319 1.95981 20.5687C1.90317 20.7054 1.87402 20.8519 1.87402 20.9999C1.87402 21.1479 1.90317 21.2945 1.95981 21.4312C2.01644 21.5679 2.09945 21.6921 2.2041 21.7968C2.41544 22.0081 2.70209 22.1269 3.00097 22.1269C3.14897 22.1269 3.29551 22.0977 3.43224 22.0411C3.56897 21.9845 3.6932 21.9014 3.79785 21.7968L8.13472 17.4599L9.34222 18.6674C9.72527 19.0505 10.18 19.3544 10.6805 19.5618C11.1811 19.7691 11.7175 19.8758 12.2593 19.8758C12.801 19.8758 13.3375 19.7691 13.838 19.5618C14.3385 19.3544 14.7932 19.0505 15.1763 18.6674L19.875 13.9677L20.2041 14.2977C20.3087 14.4024 20.433 14.4854 20.5697 14.542C20.7064 14.5987 20.853 14.6278 21.001 14.6278C21.149 14.6278 21.2955 14.5987 21.4322 14.542C21.569 14.4854 21.6932 14.4024 21.7978 14.2977C21.9025 14.1931 21.9855 14.0689 22.0421 13.9321C22.0988 13.7954 22.1279 13.6489 22.1279 13.5009C22.1279 13.3529 22.0988 13.2063 22.0421 13.0696C21.9855 12.9329 21.9025 12.8086 21.7978 12.704L19.5938 10.499L22.5488 7.54492C22.6532 7.44025 22.736 7.31603 22.7923 7.17936C22.8487 7.04269 22.8776 6.89624 22.8773 6.7484C22.8771 6.60056 22.8477 6.45422 22.7908 6.31774C22.734 6.18127 22.6508 6.05734 22.546 5.95304ZM13.5835 17.0746C13.4094 17.2488 13.2026 17.387 12.9751 17.4813C12.7476 17.5755 12.5037 17.6241 12.2574 17.6241C12.0111 17.6241 11.7672 17.5755 11.5397 17.4813C11.3121 17.387 11.1054 17.2488 10.9313 17.0746L6.92441 13.0677C6.75022 12.8936 6.61204 12.6869 6.51777 12.4593C6.42349 12.2318 6.37497 11.9879 6.37497 11.7416C6.37497 11.4953 6.42349 11.2515 6.51777 11.0239C6.61204 10.7964 6.75022 10.5897 6.92441 10.4155L11.625 5.71773L18.2813 12.374L13.5835 17.0746Z" fill="#130032"/>
</svg>
