<svg width="24" height="24" viewBox="0 0 24 24" fill="none" xmlns="http://www.w3.org/2000/svg">
<path d="M22.546 1.45589C22.4415 1.35101 22.3173 1.26779 22.1805 1.21101C22.0438 1.15423 21.8972 1.125 21.7491 1.125C21.601 1.125 21.4544 1.15423 21.3177 1.21101C21.1809 1.26779 21.0567 1.35101 20.9522 1.45589L16.3069 6.10401L16.0688 5.86495C15.4353 5.23321 14.5771 4.87845 13.6824 4.87845C12.7877 4.87845 11.9295 5.23321 11.296 5.86495L9.37504 7.78307L9.04597 7.45307C8.94133 7.34843 8.81709 7.26542 8.68037 7.20878C8.54364 7.15215 8.39709 7.123 8.2491 7.123C7.95021 7.123 7.66357 7.24173 7.45222 7.45307C7.34758 7.55772 7.26457 7.68196 7.20793 7.81868C7.1513 7.95541 7.12215 8.10196 7.12215 8.24995C7.12215 8.54884 7.24088 8.83548 7.45222 9.04682L7.78129 9.37682L5.86316 11.2978C5.23028 11.9307 4.87473 12.7891 4.87473 13.6842C4.87473 14.5792 5.23028 15.4376 5.86316 16.0706L6.10222 16.3087L1.4541 20.9559C1.24276 21.1672 1.12402 21.4539 1.12402 21.7528C1.12402 22.0516 1.24276 22.3383 1.4541 22.5496C1.66544 22.761 1.95209 22.8797 2.25097 22.8797C2.54986 22.8797 2.83651 22.761 3.04785 22.5496L7.69504 17.9015L7.93316 18.1406C8.56682 18.7721 9.42496 19.1267 10.3196 19.1267C11.2142 19.1267 12.0723 18.7721 12.706 18.1406L14.625 16.2206L14.9541 16.5506C15.1654 16.7619 15.4521 16.8807 15.751 16.8807C16.0499 16.8807 16.3365 16.7619 16.5478 16.5506C16.7592 16.3392 16.8779 16.0526 16.8779 15.7537C16.8779 15.4548 16.7592 15.1682 16.5478 14.9568L16.2188 14.6268L18.1397 12.7059C18.7726 12.073 19.1282 11.2145 19.1282 10.3195C19.1282 9.42441 18.7726 8.566 18.1397 7.93307L17.9007 7.69495L22.5488 3.04776C22.6532 2.9431 22.736 2.81887 22.7923 2.6822C22.8487 2.54553 22.8776 2.39908 22.8773 2.25124C22.8771 2.1034 22.8477 1.95706 22.7908 1.82059C22.734 1.68411 22.6508 1.56018 22.546 1.45589ZM11.1132 16.5496C11.0086 16.6545 10.8845 16.7377 10.7477 16.7945C10.611 16.8513 10.4644 16.8805 10.3163 16.8805C10.1682 16.8805 10.0216 16.8513 9.88487 16.7945C9.74812 16.7377 9.62393 16.6545 9.51941 16.5496L7.4541 14.4796C7.34922 14.3751 7.266 14.2509 7.20922 14.1142C7.15244 13.9774 7.12321 13.8308 7.12321 13.6828C7.12321 13.5347 7.15244 13.3881 7.20922 13.2513C7.266 13.1146 7.34922 12.9904 7.4541 12.8859L9.37504 10.9706L13.0313 14.6268L11.1132 16.5496ZM16.5507 11.1168L14.625 13.0331L10.9688 9.37682L12.8897 7.45589C12.9942 7.35101 13.1184 7.26779 13.2552 7.21101C13.3919 7.15423 13.5385 7.125 13.6866 7.125C13.8347 7.125 13.9813 7.15423 14.118 7.21101C14.2548 7.26779 14.379 7.35101 14.4835 7.45589L16.5516 9.52401C16.6565 9.62853 16.7397 9.75272 16.7965 9.88947C16.8533 10.0262 16.8825 10.1728 16.8825 10.3209C16.8825 10.469 16.8533 10.6156 16.7965 10.7523C16.7397 10.8891 16.6565 11.0132 16.5516 11.1178L16.5507 11.1168ZM7.9941 3.13026C7.86567 2.86408 7.84715 2.55805 7.94253 2.27832C8.03791 1.99858 8.23954 1.76762 8.50384 1.63535C8.76813 1.50308 9.07387 1.48012 9.35495 1.57145C9.63603 1.66277 9.86989 1.86103 10.006 2.12339L10.756 3.62339C10.8246 3.75575 10.8663 3.90044 10.8785 4.04904C10.8908 4.19765 10.8733 4.3472 10.8273 4.48901C10.7812 4.63083 10.7074 4.76206 10.6102 4.8751C10.5129 4.98813 10.3942 5.0807 10.2608 5.14744C10.1275 5.21417 9.9822 5.25373 9.83343 5.26382C9.68467 5.2739 9.53538 5.25432 9.39425 5.20619C9.25312 5.15807 9.12297 5.08237 9.01135 4.9835C8.89974 4.88463 8.80889 4.76456 8.7441 4.63026L7.9941 3.13026ZM1.6191 8.49839C1.75264 8.23162 1.98668 8.02882 2.26973 7.93458C2.55279 7.84035 2.86168 7.8624 3.12847 7.99589L4.62847 8.74589C4.76277 8.81068 4.88284 8.90153 4.98171 9.01314C5.08059 9.12475 5.15628 9.25491 5.20441 9.39604C5.25253 9.53717 5.27212 9.68645 5.26203 9.83522C5.25194 9.98399 5.21238 10.1293 5.14565 10.2626C5.07892 10.3959 4.98634 10.5147 4.87331 10.6119C4.76028 10.7092 4.62904 10.783 4.48723 10.8291C4.34542 10.8751 4.19586 10.8926 4.04725 10.8803C3.89865 10.8681 3.75396 10.8264 3.6216 10.7578L2.1216 10.0078C1.85483 9.87422 1.65203 9.64018 1.55779 9.35713C1.46356 9.07408 1.48561 8.76518 1.6191 8.49839ZM22.381 15.5053C22.2474 15.772 22.0134 15.9748 21.7303 16.0691C21.4473 16.1633 21.1384 16.1412 20.8716 16.0078L19.3716 15.2578C19.1092 15.1217 18.911 14.8878 18.8197 14.6067C18.7283 14.3257 18.7513 14.0199 18.8836 13.7556C19.0158 13.4913 19.2468 13.2897 19.5265 13.1943C19.8063 13.0989 20.1123 13.1175 20.3785 13.2459L21.8785 13.9959C22.1452 14.1294 22.348 14.3635 22.4423 14.6465C22.5365 14.9296 22.5145 15.2385 22.381 15.5053ZM16.006 20.8734C16.0746 21.0057 16.1163 21.1504 16.1285 21.299C16.1408 21.4476 16.1233 21.5972 16.0773 21.739C16.0312 21.8808 15.9574 22.0121 15.8602 22.1251C15.7629 22.2381 15.6442 22.3307 15.5108 22.3974C15.3775 22.4642 15.2322 22.5037 15.0834 22.5138C14.9347 22.5239 14.7854 22.5043 14.6443 22.4562C14.5031 22.4081 14.373 22.3324 14.2614 22.2335C14.1497 22.1346 14.0589 22.0146 13.9941 21.8803L13.2441 20.3803C13.1157 20.1141 13.0971 19.808 13.1925 19.5283C13.2879 19.2486 13.4895 19.0176 13.7538 18.8854C14.0181 18.7531 14.3239 18.7301 14.6049 18.8214C14.886 18.9128 15.1199 19.111 15.256 19.3734L16.006 20.8734Z" fill="#130032"/>
</svg>
