<svg width="24" height="24" viewBox="0 0 24 24" fill="none" xmlns="http://www.w3.org/2000/svg">
<path d="M12.8438 15.7498L13.9238 14.6707C14.1351 14.4594 14.2539 14.1727 14.2539 13.8739C14.2539 13.575 14.1351 13.2883 13.9238 13.077C13.7124 12.8656 13.4258 12.7469 13.1269 12.7469C12.828 12.7469 12.5414 12.8656 12.33 13.077L11.25 14.156L9.84379 12.7498L10.9238 11.6707C11.1351 11.4594 11.2539 11.1727 11.2539 10.8739C11.2539 10.575 11.1351 10.2883 10.9238 10.077C10.7124 9.86564 10.4258 9.7469 10.1269 9.7469C9.82803 9.7469 9.54138 9.86564 9.33004 10.077L8.25004 11.156L6.79597 9.70386C6.58463 9.49251 6.29799 9.37378 5.9991 9.37378C5.70021 9.37378 5.41357 9.49251 5.20222 9.70386C4.99088 9.9152 4.87215 10.2018 4.87215 10.5007C4.87215 10.7996 4.99088 11.0863 5.20222 11.2976L5.53129 11.6248L3.61316 13.5457C2.98028 14.1787 2.62473 15.0371 2.62473 15.9321C2.62473 16.8272 2.98028 17.6856 3.61316 18.3185L3.85222 18.5567L1.4541 20.9539C1.24276 21.1652 1.12402 21.4518 1.12402 21.7507C1.12402 22.0496 1.24276 22.3363 1.4541 22.5476C1.66544 22.7589 1.95209 22.8777 2.25097 22.8777C2.54986 22.8777 2.83651 22.7589 3.04785 22.5476L5.44504 20.1495L5.68316 20.3885C6.31682 21.0201 7.17496 21.3747 8.06957 21.3747C8.96418 21.3747 9.82232 21.0201 10.456 20.3885L12.375 18.4685L12.7041 18.7985C12.9154 19.0099 13.2021 19.1286 13.501 19.1286C13.7999 19.1286 14.0865 19.0099 14.2978 18.7985C14.5092 18.5872 14.6279 18.3006 14.6279 18.0017C14.6279 17.7028 14.5092 17.4161 14.2978 17.2048L12.8438 15.7498ZM8.86316 18.7957C8.75865 18.9006 8.63445 18.9838 8.49771 19.0406C8.36096 19.0974 8.21435 19.1266 8.06629 19.1266C7.91822 19.1266 7.77161 19.0974 7.63487 19.0406C7.49812 18.9838 7.37393 18.9006 7.26941 18.7957L5.2041 16.7276C5.09922 16.6231 5.016 16.4989 4.95922 16.3622C4.90244 16.2254 4.87321 16.0788 4.87321 15.9307C4.87321 15.7827 4.90244 15.6361 4.95922 15.4993C5.016 15.3626 5.09922 15.2384 5.2041 15.1339L7.12504 13.2185L10.7813 16.8748L8.86316 18.7957ZM22.5507 1.45198C22.4461 1.3471 22.322 1.26388 22.1852 1.2071C22.0485 1.15032 21.9019 1.12109 21.7538 1.12109C21.6057 1.12109 21.4591 1.15032 21.3224 1.2071C21.1856 1.26388 21.0614 1.3471 20.9569 1.45198L18.5569 3.85198L18.3188 3.61292C17.6853 2.98118 16.8271 2.62642 15.9324 2.62642C15.0377 2.62642 14.1795 2.98118 13.546 3.61292L11.625 5.53104L11.296 5.20104C11.0846 4.9897 10.798 4.87097 10.4991 4.87097C10.2002 4.87097 9.91357 4.9897 9.70222 5.20104C9.49088 5.41239 9.37215 5.69903 9.37215 5.99792C9.37215 6.2968 9.49088 6.58345 9.70222 6.79479L17.2022 14.2948C17.4136 14.5061 17.7002 14.6249 17.9991 14.6249C18.298 14.6249 18.5846 14.5061 18.796 14.2948C19.0073 14.0834 19.1261 13.7968 19.1261 13.4979C19.1261 13.199 19.0073 12.9124 18.796 12.701L18.4688 12.3748L20.3897 10.4539C21.0226 9.82093 21.3782 8.96252 21.3782 8.06745C21.3782 7.17238 21.0226 6.31397 20.3897 5.68104L20.1507 5.44292L22.5488 3.04573C22.6532 2.94106 22.736 2.81684 22.7923 2.68017C22.8487 2.5435 22.8776 2.39705 22.8773 2.24921C22.8771 2.10137 22.8477 1.95503 22.7908 1.81855C22.734 1.68208 22.6508 1.55815 22.546 1.45386L22.5507 1.45198ZM18.8007 8.85823L16.875 10.781L13.2188 7.12479L15.1397 5.20386C15.2442 5.09898 15.3684 5.01576 15.5052 4.95898C15.6419 4.9022 15.7885 4.87297 15.9366 4.87297C16.0847 4.87297 16.2313 4.9022 16.368 4.95898C16.5048 5.01576 16.629 5.09898 16.7335 5.20386L18.8016 7.27198C18.9065 7.3765 18.9897 7.50069 19.0465 7.63743C19.1033 7.77418 19.1325 7.92079 19.1325 8.06886C19.1325 8.21692 19.1033 8.36353 19.0465 8.50028C18.9897 8.63702 18.9065 8.76121 18.8016 8.86573L18.8007 8.85823Z" fill="#130032"/>
</svg>
