<svg width="24" height="24" viewBox="0 0 24 24" fill="none" xmlns="http://www.w3.org/2000/svg">
<path d="M21 4.5H16.875V1.5C16.875 1.20163 16.7565 0.915483 16.5455 0.704505C16.3345 0.493526 16.0484 0.375 15.75 0.375C15.4516 0.375 15.1655 0.493526 14.9545 0.704505C14.7435 0.915483 14.625 1.20163 14.625 1.5V4.5H9.375V1.5C9.375 1.20163 9.25647 0.915483 9.0455 0.704505C8.83452 0.493526 8.54837 0.375 8.25 0.375C7.95163 0.375 7.66548 0.493526 7.4545 0.704505C7.24353 0.915483 7.125 1.20163 7.125 1.5V4.5H3.05156C2.2875 4.5 1.875 5.07937 1.875 5.625C1.875 5.92337 1.99353 6.20952 2.2045 6.4205C2.41548 6.63147 2.70163 6.75 3 6.75H4.125V15.375C4.12624 16.4686 4.56124 17.5171 5.33455 18.2904C6.10787 19.0638 7.15636 19.4988 8.25 19.5H10.875V22.5C10.875 22.7984 10.9935 23.0845 11.2045 23.2955C11.4155 23.5065 11.7016 23.625 12 23.625C12.2984 23.625 12.5845 23.5065 12.7955 23.2955C13.0065 23.0845 13.125 22.7984 13.125 22.5V19.5H15.75C16.8436 19.4988 17.8921 19.0638 18.6654 18.2904C19.4388 17.5171 19.8738 16.4686 19.875 15.375V6.75H21C21.2984 6.75 21.5845 6.63147 21.7955 6.4205C22.0065 6.20952 22.125 5.92337 22.125 5.625C22.125 5.32663 22.0065 5.04048 21.7955 4.8295C21.5845 4.61853 21.2984 4.5 21 4.5ZM17.625 15.375C17.625 15.8723 17.4275 16.3492 17.0758 16.7008C16.7242 17.0525 16.2473 17.25 15.75 17.25H8.25C7.75272 17.25 7.27581 17.0525 6.92417 16.7008C6.57254 16.3492 6.375 15.8723 6.375 15.375V6.75H17.625V15.375ZM9.57562 12.6403C9.47272 12.4915 9.40723 12.32 9.38471 12.1405C9.36219 11.961 9.3833 11.7787 9.44625 11.6091L10.5712 8.60906C10.6231 8.47068 10.7017 8.34387 10.8025 8.23585C10.9033 8.12784 11.0245 8.04075 11.159 7.97955C11.2935 7.91835 11.4387 7.88424 11.5864 7.87917C11.7341 7.8741 11.8813 7.89817 12.0197 7.95C12.1581 8.00183 12.2849 8.08041 12.3929 8.18125C12.5009 8.28209 12.588 8.40322 12.6492 8.53772C12.7104 8.67222 12.7445 8.81746 12.7496 8.96514C12.7546 9.11282 12.7306 9.26006 12.6788 9.39844L12.1238 10.875H13.5C13.6818 10.875 13.8608 10.919 14.0219 11.0032C14.1829 11.0875 14.3212 11.2096 14.4248 11.359C14.5283 11.5083 14.5942 11.6806 14.6166 11.861C14.6391 12.0413 14.6175 12.2245 14.5538 12.3947L13.4288 15.3947C13.3241 15.6742 13.1127 15.9006 12.841 16.0242C12.7065 16.0854 12.5613 16.1195 12.4136 16.1246C12.2659 16.1296 12.1187 16.1056 11.9803 16.0538C11.8419 16.0019 11.7151 15.9233 11.6071 15.8225C11.4991 15.7217 11.412 15.6005 11.3508 15.466C11.2272 15.1944 11.2166 14.8848 11.3212 14.6053L11.8763 13.125H10.5C10.3182 13.1249 10.1392 13.0808 9.9782 12.9963C9.81722 12.9119 9.67908 12.7898 9.57562 12.6403Z" fill="#130032"/>
</svg>
