<svg width="24" height="24" viewBox="0 0 24 24" fill="none" xmlns="http://www.w3.org/2000/svg">
<path d="M19.5459 6.04594L6.04594 19.5459C5.83459 19.7573 5.54795 19.876 5.24906 19.876C4.95018 19.876 4.66353 19.7573 4.45219 19.5459C4.24084 19.3346 4.12211 19.0479 4.12211 18.7491C4.12211 18.4502 4.24084 18.1635 4.45219 17.9522L17.9522 4.45219C18.1635 4.24084 18.4502 4.12211 18.7491 4.12211C19.0479 4.12211 19.3346 4.24084 19.5459 4.45219C19.7573 4.66353 19.876 4.95018 19.876 5.24906C19.876 5.54795 19.7573 5.83459 19.5459 6.04594ZM5.625 10.5C5.625 10.7984 5.74353 11.0845 5.9545 11.2955C6.16548 11.5065 6.45163 11.625 6.75 11.625C7.04837 11.625 7.33452 11.5065 7.5455 11.2955C7.75647 11.0845 7.875 10.7984 7.875 10.5V7.875H10.5C10.7984 7.875 11.0845 7.75647 11.2955 7.5455C11.5065 7.33452 11.625 7.04837 11.625 6.75C11.625 6.45163 11.5065 6.16548 11.2955 5.9545C11.0845 5.74353 10.7984 5.625 10.5 5.625H7.875V3C7.875 2.70163 7.75647 2.41548 7.5455 2.2045C7.33452 1.99353 7.04837 1.875 6.75 1.875C6.45163 1.875 6.16548 1.99353 5.9545 2.2045C5.74353 2.41548 5.625 2.70163 5.625 3V5.625H3C2.70163 5.625 2.41548 5.74353 2.2045 5.9545C1.99353 6.16548 1.875 6.45163 1.875 6.75C1.875 7.04837 1.99353 7.33452 2.2045 7.5455C2.41548 7.75647 2.70163 7.875 3 7.875H5.625V10.5ZM21 16.125H13.5C13.2016 16.125 12.9155 16.2435 12.7045 16.4545C12.4935 16.6655 12.375 16.9516 12.375 17.25C12.375 17.5484 12.4935 17.8345 12.7045 18.0455C12.9155 18.2565 13.2016 18.375 13.5 18.375H21C21.2984 18.375 21.5845 18.2565 21.7955 18.0455C22.0065 17.8345 22.125 17.5484 22.125 17.25C22.125 16.9516 22.0065 16.6655 21.7955 16.4545C21.5845 16.2435 21.2984 16.125 21 16.125Z" fill="#130032"/>
</svg>
