<svg width="24" height="24" viewBox="0 0 24 24" fill="none" xmlns="http://www.w3.org/2000/svg">
<path d="M19.5 2.625H4.5C4.00272 2.625 3.52581 2.82254 3.17417 3.17417C2.82254 3.52581 2.625 4.00272 2.625 4.5V19.5C2.625 19.9973 2.82254 20.4742 3.17417 20.8258C3.52581 21.1775 4.00272 21.375 4.5 21.375H19.5C19.9973 21.375 20.4742 21.1775 20.8258 20.8258C21.1775 20.4742 21.375 19.9973 21.375 19.5V4.5C21.375 4.00272 21.1775 3.52581 20.8258 3.17417C20.4742 2.82254 19.9973 2.625 19.5 2.625ZM19.125 19.125H4.875V4.875H19.125V19.125ZM7.125 12C7.125 11.7016 7.24353 11.4155 7.4545 11.2045C7.66548 10.9935 7.95163 10.875 8.25 10.875H10.875V8.25C10.875 7.95163 10.9935 7.66548 11.2045 7.4545C11.4155 7.24353 11.7016 7.125 12 7.125C12.2984 7.125 12.5845 7.24353 12.7955 7.4545C13.0065 7.66548 13.125 7.95163 13.125 8.25V10.875H15.75C16.0484 10.875 16.3345 10.9935 16.5455 11.2045C16.7565 11.4155 16.875 11.7016 16.875 12C16.875 12.2984 16.7565 12.5845 16.5455 12.7955C16.3345 13.0065 16.0484 13.125 15.75 13.125H13.125V15.75C13.125 16.0484 13.0065 16.3345 12.7955 16.5455C12.5845 16.7565 12.2984 16.875 12 16.875C11.7016 16.875 11.4155 16.7565 11.2045 16.5455C10.9935 16.3345 10.875 16.0484 10.875 15.75V13.125H8.25C7.95163 13.125 7.66548 13.0065 7.4545 12.7955C7.24353 12.5845 7.125 12.2984 7.125 12Z" fill="#130032"/>
</svg>
