<svg width="24" height="24" viewBox="0 0 24 24" fill="none" xmlns="http://www.w3.org/2000/svg">
<path d="M22.5 9.375H21.6562L19.1925 5.07C19.0286 4.78302 18.7917 4.54447 18.5059 4.37852C18.2201 4.21257 17.8955 4.12511 17.565 4.125H6.435C6.1045 4.12511 5.77991 4.21257 5.4941 4.37852C5.20829 4.54447 4.97143 4.78302 4.8075 5.07L2.34375 9.375H1.5C1.20163 9.375 0.915483 9.49353 0.704505 9.7045C0.493526 9.91548 0.375 10.2016 0.375 10.5C0.375 10.7984 0.493526 11.0845 0.704505 11.2955C0.915483 11.5065 1.20163 11.625 1.5 11.625H1.875V18.75C1.875 19.2473 2.07254 19.7242 2.42417 20.0758C2.77581 20.4275 3.25272 20.625 3.75 20.625H6.375C6.87228 20.625 7.34919 20.4275 7.70083 20.0758C8.05246 19.7242 8.25 19.2473 8.25 18.75V16.875H15.75V18.75C15.75 19.2473 15.9475 19.7242 16.2992 20.0758C16.6508 20.4275 17.1277 20.625 17.625 20.625H20.25C20.7473 20.625 21.2242 20.4275 21.5758 20.0758C21.9275 19.7242 22.125 19.2473 22.125 18.75V11.625H22.5C22.7984 11.625 23.0845 11.5065 23.2955 11.2955C23.5065 11.0845 23.625 10.7984 23.625 10.5C23.625 10.2016 23.5065 9.91548 23.2955 9.7045C23.0845 9.49353 22.7984 9.375 22.5 9.375ZM6.65625 6.375H17.3438L19.0575 9.375H4.93875L6.65625 6.375ZM6 18.375H4.125V16.875H6V18.375ZM19.875 18.375H18V16.875H19.875V18.375ZM19.875 14.625H4.125V11.625H19.875V14.625ZM8.625 1.875C8.625 1.57663 8.74353 1.29048 8.9545 1.0795C9.16548 0.868526 9.45163 0.75 9.75 0.75H14.25C14.5484 0.75 14.8345 0.868526 15.0455 1.0795C15.2565 1.29048 15.375 1.57663 15.375 1.875C15.375 2.17337 15.2565 2.45952 15.0455 2.6705C14.8345 2.88147 14.5484 3 14.25 3H9.75C9.45163 3 9.16548 2.88147 8.9545 2.6705C8.74353 2.45952 8.625 2.17337 8.625 1.875Z" fill="#130032"/>
</svg>
