<svg width="24" height="24" viewBox="0 0 24 24" fill="none" xmlns="http://www.w3.org/2000/svg">
<path d="M21.888 9.13572C22.521 8.50268 22.8766 7.64409 22.8766 6.74884C22.8766 5.85359 22.521 4.99501 21.888 4.36197C21.5745 4.04852 21.2024 3.79988 20.7928 3.63024C20.3833 3.4606 19.9444 3.37329 19.5011 3.37329C18.6058 3.37329 17.7472 3.72893 17.1142 4.36197C16.9719 4.50487 16.8427 4.66017 16.728 4.82603L14.6139 4.24947C14.5659 3.60527 14.3341 2.98836 13.946 2.472C13.5578 1.95565 13.0296 1.56154 12.4241 1.33647C11.8186 1.1114 11.1612 1.06484 10.53 1.2023C9.89882 1.33977 9.32034 1.65548 8.86327 2.11197C8.39172 2.58441 8.07063 3.1859 7.94049 3.84059C7.81036 4.49529 7.877 5.17385 8.13202 5.79072L5.36171 8.28447C4.7216 7.93765 3.98668 7.8066 3.26615 7.91082C2.54562 8.01503 1.87794 8.34893 1.36233 8.86291C0.767293 9.45708 0.415494 10.252 0.37583 11.0919C0.336166 11.9319 0.611493 12.7564 1.14789 13.404C1.68429 14.0516 2.44313 14.4756 3.27579 14.5931C4.10844 14.7105 4.95495 14.5128 5.64952 14.0388L11.7695 18.5267C11.5928 19.1127 11.5788 19.7357 11.729 20.3291C11.8792 20.9225 12.188 21.4638 12.6222 21.8952C13.0564 22.3266 13.5998 22.6318 14.1942 22.7781C14.7885 22.9244 15.4115 22.9063 15.9963 22.7258C16.5812 22.5452 17.1059 22.209 17.5144 21.7532C17.9229 21.2973 18.1997 20.739 18.3152 20.1379C18.4307 19.5368 18.3806 18.9156 18.1702 18.3408C17.9598 17.766 17.597 17.2593 17.1208 16.8748L19.5001 10.1248C19.9437 10.1253 20.383 10.0383 20.7927 9.86852C21.2025 9.69878 21.5747 9.44975 21.888 9.13572ZM13.0998 16.7117L6.97983 12.2238C7.20316 11.4779 7.16311 10.6778 6.86639 9.95791L9.63764 7.46322C10.2773 7.81136 11.0125 7.94324 11.7333 7.83915C12.4541 7.73507 13.1219 7.40061 13.637 6.88572C13.7798 6.74158 13.9091 6.58467 14.0233 6.41697L16.1373 6.99353C16.1952 7.80035 16.542 8.55926 17.1142 9.13103C17.1991 9.21675 17.2883 9.2981 17.3814 9.37478L15.0001 16.1248C14.3221 16.1251 13.6599 16.3296 13.0998 16.7117ZM20.297 5.95291C20.454 6.11039 20.5607 6.31086 20.6038 6.52898C20.6469 6.7471 20.6244 6.9731 20.5391 7.17844C20.4539 7.38378 20.3097 7.55925 20.1248 7.68269C19.9398 7.80614 19.7225 7.87202 19.5001 7.87202C19.2778 7.87202 19.0605 7.80614 18.8755 7.68269C18.6906 7.55925 18.5464 7.38378 18.4612 7.17844C18.3759 6.9731 18.3534 6.7471 18.3965 6.52898C18.4396 6.31086 18.5463 6.11039 18.7033 5.95291C18.8078 5.84803 18.932 5.76481 19.0687 5.70803C19.2055 5.65125 19.3521 5.62202 19.5001 5.62202C19.6482 5.62202 19.7948 5.65125 19.9316 5.70803C20.0683 5.76481 20.1925 5.84803 20.297 5.95291ZM10.4533 3.70291C10.6108 3.54596 10.8112 3.4392 11.0293 3.39611C11.2475 3.35302 11.4735 3.37553 11.6788 3.46079C11.8841 3.54605 12.0596 3.69025 12.1831 3.87517C12.3065 4.06009 12.3724 4.27744 12.3724 4.49978C12.3724 4.72212 12.3065 4.93947 12.1831 5.12439C12.0596 5.30931 11.8841 5.45351 11.6788 5.53877C11.4735 5.62403 11.2475 5.64654 11.0293 5.60345C10.8112 5.56036 10.6108 5.4536 10.4533 5.29666C10.3485 5.19208 10.2653 5.06784 10.2086 4.93106C10.1519 4.79428 10.1228 4.64765 10.1228 4.49959C10.1229 4.35152 10.1523 4.20493 10.2091 4.06822C10.266 3.9315 10.3493 3.80736 10.4542 3.70291H10.4533ZM2.95327 12.0467C2.79633 11.8892 2.68957 11.6887 2.64648 11.4706C2.60338 11.2525 2.62589 11.0265 2.71115 10.8211C2.79642 10.6158 2.94061 10.4403 3.12553 10.3169C3.31045 10.1934 3.52781 10.1275 3.75014 10.1275C3.97248 10.1275 4.18983 10.1934 4.37475 10.3169C4.55967 10.4403 4.70387 10.6158 4.78913 10.8211C4.8744 11.0265 4.8969 11.2525 4.85381 11.4706C4.81072 11.6887 4.70396 11.8892 4.54702 12.0467C4.44244 12.1515 4.3182 12.2346 4.18142 12.2913C4.04464 12.348 3.89802 12.3772 3.74995 12.3771C3.60188 12.377 3.45529 12.3477 3.31858 12.2908C3.18187 12.234 3.05772 12.1507 2.95327 12.0457V12.0467ZM15.797 20.2967C15.6395 20.4536 15.4391 20.5604 15.2209 20.6034C15.0028 20.6465 14.7768 20.624 14.5715 20.5388C14.3661 20.4535 14.1907 20.3093 14.0672 20.1244C13.9438 19.9395 13.8779 19.7221 13.8779 19.4998C13.8779 19.2774 13.9438 19.0601 14.0672 18.8752C14.1907 18.6903 14.3661 18.5461 14.5715 18.4608C14.7768 18.3755 15.0028 18.353 15.2209 18.3961C15.4391 18.4392 15.6395 18.546 15.797 18.7029C15.9018 18.8075 15.985 18.9317 16.0417 19.0685C16.0984 19.2053 16.1275 19.3519 16.1274 19.5C16.1273 19.648 16.098 19.7946 16.0412 19.9313C15.9843 20.0681 15.901 20.1922 15.7961 20.2967H15.797Z" fill="#130032"/>
</svg>
