<svg width="24" height="24" viewBox="0 0 24 24" fill="none" xmlns="http://www.w3.org/2000/svg">
<path d="M21.7763 6.68566C21.5971 6.5146 21.3664 6.4075 21.1201 6.38097C20.757 5.35131 20.0319 4.48878 19.08 3.95409C18.1281 3.4194 17.0142 3.24903 15.946 3.47472C15.5586 2.76588 14.9875 2.17438 14.2927 1.76232C13.5979 1.35026 12.805 1.13281 11.9972 1.13281C11.1894 1.13281 10.3965 1.35026 9.70174 1.76232C9.00695 2.17438 8.43589 2.76588 8.04849 3.47472C6.98026 3.24903 5.86642 3.4194 4.9145 3.95409C3.96258 4.48878 3.23752 5.35131 2.87442 6.38097C2.71633 6.39873 2.56381 6.44981 2.42691 6.53085C2.29001 6.61189 2.17186 6.72104 2.08025 6.8511C1.98864 6.98116 1.92566 7.12918 1.89546 7.28537C1.86526 7.44156 1.86853 7.60238 1.90505 7.75722L4.76911 19.9288C4.86467 20.3408 5.09729 20.7083 5.42889 20.9709C5.76049 21.2335 6.17142 21.3758 6.59442 21.3744H17.4057C17.8287 21.3758 18.2396 21.2335 18.5712 20.9709C18.9028 20.7083 19.1354 20.3408 19.231 19.9288L22.095 7.75722C22.1399 7.56632 22.1341 7.367 22.0782 7.17904C22.0223 6.99108 21.9182 6.82099 21.7763 6.68566ZM7.12505 5.62441C7.49222 5.62319 7.85396 5.71306 8.17786 5.88597C8.33097 5.96738 8.50083 6.0123 8.67417 6.01722C8.84751 6.02213 9.01964 5.98691 9.17712 5.9143C9.33459 5.84168 9.47315 5.73365 9.58197 5.59863C9.69079 5.46362 9.76692 5.30527 9.80443 5.13597C9.91615 4.63702 10.1945 4.191 10.5936 3.87139C10.9927 3.55178 11.4887 3.37763 12 3.37763C12.5114 3.37763 13.0074 3.55178 13.4065 3.87139C13.8056 4.191 14.0839 4.63702 14.1957 5.13597C14.2332 5.30527 14.3093 5.46362 14.4181 5.59863C14.5269 5.73365 14.6655 5.84168 14.823 5.9143C14.9805 5.98691 15.1526 6.02213 15.3259 6.01722C15.4993 6.0123 15.6691 5.96738 15.8222 5.88597C16.1461 5.71306 16.5079 5.62319 16.875 5.62441C17.3039 5.624 17.724 5.74618 18.0858 5.97656C18.4475 6.20694 18.7359 6.53591 18.9169 6.92472L15.811 7.81159L12.6966 6.56659C12.2497 6.38661 11.7504 6.38661 11.3035 6.56659L8.18911 7.81159L5.08317 6.92472C5.2642 6.53591 5.55258 6.20694 5.91434 5.97656C6.2761 5.74618 6.69616 5.624 7.12505 5.62441ZM9.48099 9.71847L12 8.71066L14.5191 9.71847L13.2647 19.1244H10.7335L9.48099 9.71847ZM4.5338 9.10816L7.23192 9.87878L8.46474 19.1244H6.89067L4.5338 9.10816ZM17.1094 19.1244H15.5354L16.7682 9.87878L19.4663 9.10816L17.1094 19.1244Z" fill="#130032"/>
</svg>
