<svg width="24" height="24" viewBox="0 0 24 24" fill="none" xmlns="http://www.w3.org/2000/svg">
<path d="M12 0.375C10.1109 0.376985 8.29982 1.12829 6.96406 2.46406C5.62829 3.79982 4.87699 5.61094 4.875 7.5V16.5C4.875 16.9973 5.07254 17.4742 5.42417 17.8258C5.77581 18.1775 6.25272 18.375 6.75 18.375H9V21C9 21.7956 9.31607 22.5587 9.87868 23.1213C10.4413 23.6839 11.2044 24 12 24C12.7956 24 13.5587 23.6839 14.1213 23.1213C14.6839 22.5587 15 21.7956 15 21V18.375H17.25C17.7473 18.375 18.2242 18.1775 18.5758 17.8258C18.9275 17.4742 19.125 16.9973 19.125 16.5V7.5C19.123 5.61094 18.3717 3.79982 17.0359 2.46406C15.7002 1.12829 13.8891 0.376985 12 0.375ZM12.75 21C12.75 21.1989 12.671 21.3897 12.5303 21.5303C12.3897 21.671 12.1989 21.75 12 21.75C11.8011 21.75 11.6103 21.671 11.4697 21.5303C11.329 21.3897 11.25 21.1989 11.25 21V18.375H12.75V21ZM16.875 16.125H7.125V7.5C7.125 6.20707 7.63861 4.96709 8.55285 4.05285C9.46709 3.13861 10.7071 2.625 12 2.625C13.2929 2.625 14.5329 3.13861 15.4471 4.05285C16.3614 4.96709 16.875 6.20707 16.875 7.5V16.125ZM11.25 7.125V13.5C11.25 13.7984 11.1315 14.0845 10.9205 14.2955C10.7095 14.5065 10.4234 14.625 10.125 14.625C9.82663 14.625 9.54048 14.5065 9.3295 14.2955C9.11853 14.0845 9 13.7984 9 13.5V7.125C9 6.82663 9.11853 6.54048 9.3295 6.3295C9.54048 6.11853 9.82663 6 10.125 6C10.4234 6 10.7095 6.11853 10.9205 6.3295C11.1315 6.54048 11.25 6.82663 11.25 7.125ZM15 7.125V13.5C15 13.7984 14.8815 14.0845 14.6705 14.2955C14.4595 14.5065 14.1734 14.625 13.875 14.625C13.5766 14.625 13.2905 14.5065 13.0795 14.2955C12.8685 14.0845 12.75 13.7984 12.75 13.5V7.125C12.75 6.82663 12.8685 6.54048 13.0795 6.3295C13.2905 6.11853 13.5766 6 13.875 6C14.1734 6 14.4595 6.11853 14.6705 6.3295C14.8815 6.54048 15 6.82663 15 7.125Z" fill="#130032"/>
</svg>
