<svg width="24" height="24" viewBox="0 0 24 24" fill="none" xmlns="http://www.w3.org/2000/svg">
<path d="M18.7501 13.4997H12.0938L14.0851 11.5075C14.7934 11.8237 15.5594 11.9903 16.3351 11.9969C17.2278 11.9989 18.1038 11.7543 18.8663 11.29C21.1163 9.92405 22.3351 6.80968 22.1045 2.95843C22.0882 2.68352 21.9717 2.42413 21.7769 2.22941C21.5822 2.03468 21.3228 1.91814 21.0479 1.90187C17.1957 1.67593 14.0813 2.88531 12.7163 5.13999C11.8501 6.56874 11.7788 8.27124 12.4979 9.92124L11.2501 11.1559L10.2057 10.1125C10.6688 8.90405 10.5807 7.66374 9.94696 6.60999C8.90634 4.89812 6.57384 3.97468 3.70228 4.14437C3.4272 4.16042 3.16759 4.27686 2.97266 4.47161C2.77774 4.66636 2.66107 4.92587 2.64478 5.20093C2.47603 8.07343 3.39478 10.4078 5.11228 11.4456C5.70514 11.8076 6.38639 11.999 7.08103 11.9987C7.60438 11.9954 8.12267 11.8959 8.61009 11.7053L9.65634 12.7497L8.90634 13.4997H5.25009C4.95172 13.4997 4.66557 13.6182 4.45459 13.8292C4.24361 14.0402 4.12509 14.3263 4.12509 14.6247C4.12509 14.923 4.24361 15.2092 4.45459 15.4202C4.66557 15.6312 4.95172 15.7497 5.25009 15.7497H5.93165L7.02196 20.6566C7.11278 21.0738 7.34405 21.4473 7.67714 21.7145C8.01023 21.9817 8.42494 22.1265 8.85196 22.1247H15.1492C15.5762 22.1267 15.991 21.9819 16.3241 21.7147C16.6573 21.4474 16.8885 21.0739 16.9792 20.6566L18.0695 15.7497H18.7501C19.0485 15.7497 19.3346 15.6312 19.5456 15.4202C19.7566 15.2092 19.8751 14.923 19.8751 14.6247C19.8751 14.3263 19.7566 14.0402 19.5456 13.8292C19.3346 13.6182 19.0485 13.4997 18.7501 13.4997ZM14.6345 6.30531C15.4501 4.95812 17.371 4.17155 19.8751 4.12468C19.8301 6.62687 19.0435 8.5478 17.6954 9.36437C16.8113 9.89968 15.7782 9.87812 14.6954 9.30624C14.1198 8.22249 14.0992 7.18937 14.6345 6.30531ZM8.01665 9.5153C7.52634 9.75249 6.89165 9.8903 6.27853 9.52187C5.48446 9.04093 4.98384 7.88312 4.89103 6.39062C6.38446 6.48437 7.54134 6.98312 8.02228 7.77718C8.39165 8.38843 8.25009 9.02499 8.01665 9.5153ZM14.8482 19.8747H9.15196L8.23603 15.7497H15.7651L14.8482 19.8747Z" fill="#130032"/>
</svg>
