<svg width="24" height="24" viewBox="0 0 24 24" fill="none" xmlns="http://www.w3.org/2000/svg">
<path d="M20.25 3.375H13.125V2.25C13.125 1.95163 13.0065 1.66548 12.7955 1.4545C12.5845 1.24353 12.2984 1.125 12 1.125C11.7016 1.125 11.4155 1.24353 11.2045 1.4545C10.9935 1.66548 10.875 1.95163 10.875 2.25V3.375H3.75C3.25272 3.375 2.77581 3.57254 2.42417 3.92417C2.07254 4.27581 1.875 4.75272 1.875 5.25V16.5C1.875 16.9973 2.07254 17.4742 2.42417 17.8258C2.77581 18.1775 3.25272 18.375 3.75 18.375H6.65625L5.11875 20.2969C4.93227 20.5299 4.84598 20.8274 4.87885 21.124C4.91173 21.4206 5.06109 21.692 5.29406 21.8784C5.52704 22.0649 5.82455 22.1512 6.12115 22.1183C6.41775 22.0855 6.68914 21.9361 6.87562 21.7031L9.53813 18.375H14.4562L17.1188 21.7031C17.2111 21.8185 17.3252 21.9145 17.4547 21.9858C17.5841 22.057 17.7264 22.1021 17.8732 22.1183C18.0201 22.1346 18.1687 22.1218 18.3106 22.0806C18.4525 22.0395 18.585 21.9708 18.7003 21.8784C18.8157 21.7861 18.9117 21.6719 18.983 21.5425C19.0542 21.413 19.0992 21.2708 19.1155 21.124C19.1318 20.9771 19.119 20.8285 19.0778 20.6866C19.0367 20.5446 18.968 20.4122 18.8756 20.2969L17.3438 18.375H20.25C20.7473 18.375 21.2242 18.1775 21.5758 17.8258C21.9275 17.4742 22.125 16.9973 22.125 16.5V5.25C22.125 4.75272 21.9275 4.27581 21.5758 3.92417C21.2242 3.57254 20.7473 3.375 20.25 3.375ZM19.875 16.125H4.125V5.625H19.875V16.125Z" fill="#130032"/>
</svg>
