<svg width="24" height="24" viewBox="0 0 24 24" fill="none" xmlns="http://www.w3.org/2000/svg">
<path d="M15.7959 14.2041C16.0073 14.4154 16.126 14.7021 16.126 15.0009C16.126 15.2998 16.0073 15.5865 15.7959 15.7978C15.5846 16.0092 15.298 16.1279 14.9991 16.1279C14.7002 16.1279 14.4135 16.0092 14.2022 15.7978L8.20219 9.79781C7.99085 9.58647 7.87212 9.29982 7.87212 9.00094C7.87212 8.70205 7.99085 8.41541 8.20219 8.20406C8.41354 7.99272 8.70018 7.87399 8.99907 7.87399C9.29795 7.87399 9.5846 7.99272 9.79594 8.20406L15.7959 14.2041ZM22.125 12C22.125 14.0025 21.5312 15.9601 20.4186 17.6251C19.3061 19.2902 17.7248 20.5879 15.8747 21.3543C14.0246 22.1206 11.9888 22.3211 10.0247 21.9305C8.06066 21.5398 6.25656 20.5755 4.84055 19.1595C3.42454 17.7435 2.46023 15.9393 2.06955 13.9753C1.67888 12.0112 1.87939 9.97543 2.64572 8.12533C3.41206 6.27523 4.70981 4.69392 6.37486 3.58137C8.0399 2.46882 9.99747 1.875 12 1.875C14.6844 1.87798 17.258 2.94567 19.1562 4.84383C21.0543 6.74199 22.122 9.3156 22.125 12ZM19.875 12C19.875 10.4425 19.4131 8.91992 18.5478 7.62488C17.6825 6.32985 16.4526 5.32049 15.0136 4.72445C13.5747 4.12841 11.9913 3.97246 10.4637 4.27632C8.93607 4.58017 7.53288 5.3302 6.43154 6.43153C5.3302 7.53287 4.58018 8.93606 4.27632 10.4637C3.97246 11.9913 4.12841 13.5747 4.72445 15.0136C5.32049 16.4526 6.32985 17.6825 7.62489 18.5478C8.91993 19.4131 10.4425 19.875 12 19.875C14.0879 19.8728 16.0896 19.0424 17.566 17.566C19.0424 16.0896 19.8728 14.0879 19.875 12Z" fill="#130032"/>
</svg>
