<svg width="24" height="24" viewBox="0 0 24 24" fill="none" xmlns="http://www.w3.org/2000/svg">
<g clip-path="url(#clip0_7_18118)">
<path d="M9.75 12V12.75C9.75 13.0484 9.63147 13.3345 9.4205 13.5455C9.20952 13.7565 8.92337 13.875 8.625 13.875C8.32663 13.875 8.04048 13.7565 7.8295 13.5455C7.61853 13.3345 7.5 13.0484 7.5 12.75V12C7.5 11.7016 7.61853 11.4155 7.8295 11.2045C8.04048 10.9935 8.32663 10.875 8.625 10.875C8.92337 10.875 9.20952 10.9935 9.4205 11.2045C9.63147 11.4155 9.75 11.7016 9.75 12ZM12 10.5C11.7016 10.5 11.4155 10.6185 11.2045 10.8295C10.9935 11.0405 10.875 11.3266 10.875 11.625V12.75C10.875 13.0484 10.9935 13.3345 11.2045 13.5455C11.4155 13.7565 11.7016 13.875 12 13.875C12.2984 13.875 12.5845 13.7565 12.7955 13.5455C13.0065 13.3345 13.125 13.0484 13.125 12.75V11.625C13.125 11.3266 13.0065 11.0405 12.7955 10.8295C12.5845 10.6185 12.2984 10.5 12 10.5ZM15.375 10.125C15.0766 10.125 14.7905 10.2435 14.5795 10.4545C14.3685 10.6655 14.25 10.9516 14.25 11.25V12.75C14.25 13.0484 14.3685 13.3345 14.5795 13.5455C14.7905 13.7565 15.0766 13.875 15.375 13.875C15.6734 13.875 15.9595 13.7565 16.1705 13.5455C16.3815 13.3345 16.5 13.0484 16.5 12.75V11.25C16.5 10.9516 16.3815 10.6655 16.1705 10.4545C15.9595 10.2435 15.6734 10.125 15.375 10.125ZM20.625 8.5875V15.375H21C21.2984 15.375 21.5845 15.4935 21.7955 15.7045C22.0065 15.9155 22.125 16.2016 22.125 16.5C22.125 16.7984 22.0065 17.0845 21.7955 17.2955C21.5845 17.5065 21.2984 17.625 21 17.625H13.125V19.8019C13.5539 20.0495 13.8892 20.4318 14.0787 20.8894C14.2683 21.347 14.3015 21.8543 14.1733 22.3328C14.0451 22.8112 13.7627 23.234 13.3697 23.5355C12.9768 23.837 12.4953 24.0004 12 24.0004C11.5047 24.0004 11.0232 23.837 10.6303 23.5355C10.2373 23.234 9.95486 22.8112 9.82667 22.3328C9.69847 21.8543 9.73173 21.347 9.92127 20.8894C10.1108 20.4318 10.4461 20.0495 10.875 19.8019V17.625H3C2.70163 17.625 2.41548 17.5065 2.2045 17.2955C1.99353 17.0845 1.875 16.7984 1.875 16.5C1.875 16.2016 1.99353 15.9155 2.2045 15.7045C2.41548 15.4935 2.70163 15.375 3 15.375H3.375V8.5875C2.95149 8.50105 2.57085 8.27093 2.29751 7.93609C2.02417 7.60124 1.87491 7.18224 1.875 6.75V4.5C1.875 4.00272 2.07254 3.52581 2.42417 3.17417C2.77581 2.82254 3.25272 2.625 3.75 2.625H20.25C20.7473 2.625 21.2242 2.82254 21.5758 3.17417C21.9275 3.52581 22.125 4.00272 22.125 4.5V6.75C22.1251 7.18224 21.9758 7.60124 21.7025 7.93609C21.4291 8.27093 21.0485 8.50105 20.625 8.5875ZM4.125 6.375H19.875V4.875H4.125V6.375ZM18.375 15.375V8.625H5.625V15.375H18.375Z" fill="#130032"/>
</g>
<defs>
<clipPath id="clip0_7_18118">
<rect width="24" height="24" fill="white"/>
</clipPath>
</defs>
</svg>
