<svg width="24" height="24" viewBox="0 0 24 24" fill="none" xmlns="http://www.w3.org/2000/svg">
<g clip-path="url(#clip0_7_18119)">
<path d="M22.125 6.75V4.5C22.125 4.00272 21.9275 3.52581 21.5758 3.17417C21.2242 2.82254 20.7473 2.625 20.25 2.625H3.75C3.25272 2.625 2.77581 2.82254 2.42417 3.17417C2.07254 3.52581 1.875 4.00272 1.875 4.5V6.75C1.87491 7.18224 2.02417 7.60124 2.29751 7.93609C2.57085 8.27093 2.95149 8.50105 3.375 8.5875V15.375H3C2.70163 15.375 2.41548 15.4935 2.2045 15.7045C1.99353 15.9155 1.875 16.2016 1.875 16.5C1.875 16.7984 1.99353 17.0845 2.2045 17.2955C2.41548 17.5065 2.70163 17.625 3 17.625H10.875V19.8019C10.4461 20.0495 10.1108 20.4318 9.92127 20.8894C9.73173 21.347 9.69847 21.8543 9.82667 22.3328C9.95486 22.8112 10.2373 23.234 10.6303 23.5355C11.0232 23.837 11.5047 24.0004 12 24.0004C12.4953 24.0004 12.9768 23.837 13.3697 23.5355C13.7627 23.234 14.0451 22.8112 14.1733 22.3328C14.3015 21.8543 14.2683 21.347 14.0787 20.8894C13.8892 20.4318 13.5539 20.0495 13.125 19.8019V17.625H21C21.2984 17.625 21.5845 17.5065 21.7955 17.2955C22.0065 17.0845 22.125 16.7984 22.125 16.5C22.125 16.2016 22.0065 15.9155 21.7955 15.7045C21.5845 15.4935 21.2984 15.375 21 15.375H20.625V8.5875C21.0485 8.50105 21.4291 8.27093 21.7025 7.93609C21.9758 7.60124 22.1251 7.18224 22.125 6.75ZM4.125 4.875H19.875V6.375H4.125V4.875ZM5.625 15.375V8.625H18.375V15.375H5.625Z" fill="#130032"/>
</g>
<defs>
<clipPath id="clip0_7_18119">
<rect width="24" height="24" fill="white"/>
</clipPath>
</defs>
</svg>
