<svg width="24" height="24" viewBox="0 0 24 24" fill="none" xmlns="http://www.w3.org/2000/svg">
<path d="M22.875 11.9981C22.875 12.2965 22.7565 12.5826 22.5455 12.7936C22.3345 13.0046 22.0484 13.1231 21.75 13.1231H19.4456L16.0059 20.0016C15.9125 20.1883 15.7689 20.3454 15.5912 20.4552C15.4136 20.5649 15.2088 20.6231 15 20.6231H14.9437C14.7256 20.6121 14.5154 20.5378 14.3387 20.4092C14.1621 20.2807 14.0267 20.1036 13.9491 19.8994L8.90625 6.66843L6.27375 12.4669C6.18392 12.6629 6.03968 12.8289 5.85818 12.9452C5.67669 13.0616 5.46558 13.1233 5.25 13.1231H2.25C1.95163 13.1231 1.66548 13.0046 1.4545 12.7936C1.24353 12.5826 1.125 12.2965 1.125 11.9981C1.125 11.6998 1.24353 11.4136 1.4545 11.2026C1.66548 10.9916 1.95163 10.8731 2.25 10.8731H4.52531L7.97625 3.27937C8.06828 3.07752 8.21794 2.90739 8.4064 2.79037C8.59486 2.67334 8.81371 2.61464 9.03544 2.62166C9.25716 2.62867 9.47187 2.70108 9.65256 2.82978C9.83324 2.95849 9.97185 3.13774 10.0509 3.345L15.1397 16.7006L17.7441 11.4919C17.8379 11.3056 17.9817 11.1491 18.1593 11.0399C18.3369 10.9306 18.5415 10.8729 18.75 10.8731H21.75C22.0484 10.8731 22.3345 10.9916 22.5455 11.2026C22.7565 11.4136 22.875 11.6998 22.875 11.9981Z" fill="#130032"/>
</svg>
