<svg width="24" height="24" viewBox="0 0 24 24" fill="none" xmlns="http://www.w3.org/2000/svg">
<path d="M5.33278 2.99304C5.23398 2.88167 5.11407 2.79102 4.97998 2.72634C4.84589 2.66166 4.7003 2.62424 4.55164 2.61624C4.40298 2.60824 4.25422 2.62983 4.11397 2.67975C3.97371 2.72967 3.84476 2.80693 3.73459 2.90706C3.62442 3.00718 3.53521 3.12818 3.47214 3.26303C3.40908 3.39788 3.3734 3.54391 3.36719 3.69266C3.36097 3.8414 3.38434 3.98989 3.43594 4.12954C3.48754 4.26918 3.56634 4.3972 3.66778 4.50616L5.62528 6.65585C4.78655 6.93184 4.00642 7.36132 3.32465 7.92241C3.11949 8.08747 2.9514 8.2939 2.83132 8.52824C2.71123 8.76259 2.64186 9.0196 2.62771 9.28253C2.61356 9.54547 2.65495 9.80844 2.74919 10.0543C2.84342 10.3002 2.98839 10.5235 3.17465 10.7096L7.43653 14.9724L3.70528 18.7037C3.49393 18.915 3.3752 19.2017 3.3752 19.5005C3.3752 19.7994 3.49393 20.0861 3.70528 20.2974C3.91662 20.5088 4.20327 20.6275 4.50215 20.6275C4.80104 20.6275 5.08768 20.5088 5.29903 20.2974L9.03028 16.5652L13.2931 20.8271C13.6443 21.1774 14.1199 21.3742 14.6159 21.3746C14.66 21.3746 14.704 21.3746 14.7481 21.3699C15.0157 21.3506 15.276 21.274 15.5115 21.1455C15.747 21.0169 15.9521 20.8393 16.1131 20.6246C16.4557 20.1704 16.7551 19.6851 17.0075 19.1752L18.6687 21.0024C18.7675 21.1138 18.8874 21.2044 19.0215 21.2691C19.1556 21.3338 19.3012 21.3712 19.4499 21.3792C19.5985 21.3872 19.7473 21.3656 19.8875 21.3157C20.0278 21.2658 20.1567 21.1885 20.2669 21.0884C20.3771 20.9883 20.4663 20.8673 20.5293 20.7324C20.5924 20.5976 20.6281 20.4515 20.6343 20.3028C20.6405 20.1541 20.6172 20.0056 20.5656 19.8659C20.514 19.7263 20.4352 19.5983 20.3337 19.4893L5.33278 2.99304ZM14.5662 18.9193L5.07028 9.42335C5.81278 8.90585 6.59184 8.63585 7.39809 8.60866L15.3209 17.3274C15.1517 17.8933 14.8972 18.4301 14.5662 18.9193ZM22.3268 10.013L18.6706 13.6796C18.5662 13.7842 18.4423 13.8673 18.3059 13.9241C18.1694 13.9808 18.0231 14.0101 17.8754 14.0104C17.7276 14.0106 17.5812 13.9817 17.4446 13.9253C17.308 13.869 17.1838 13.7863 17.0792 13.6819C16.8678 13.4712 16.7489 13.1852 16.7484 12.8867C16.7482 12.739 16.7771 12.5926 16.8334 12.456C16.8898 12.3194 16.9725 12.1952 17.0768 12.0905L20.4697 8.68741L15.3134 3.53116L12.2431 6.60898C12.0319 6.81756 11.7469 6.93423 11.45 6.93357C11.1532 6.93292 10.8687 6.81499 10.6584 6.60548C10.4482 6.39597 10.3293 6.11185 10.3275 5.81504C10.3258 5.51822 10.4415 5.23276 10.6493 5.02085L13.984 1.67491C14.1582 1.50058 14.365 1.36228 14.5926 1.26793C14.8202 1.17357 15.0642 1.125 15.3106 1.125C15.557 1.125 15.801 1.17357 16.0286 1.26793C16.2562 1.36228 16.463 1.50058 16.6372 1.67491L22.3268 7.36366C22.6783 7.71528 22.8758 8.19211 22.8758 8.68929C22.8758 9.18647 22.6783 9.6633 22.3268 10.0149V10.013Z" fill="#130032"/>
</svg>
