<svg width="24" height="24" viewBox="0 0 24 24" fill="none" xmlns="http://www.w3.org/2000/svg">
<path d="M22.3268 7.36366L16.6372 1.67491C16.463 1.50058 16.2562 1.36228 16.0286 1.26793C15.801 1.17357 15.557 1.125 15.3106 1.125C15.0642 1.125 14.8202 1.17357 14.5926 1.26793C14.365 1.36228 14.1582 1.50058 13.984 1.67491L9.11278 6.56304C7.94747 6.25085 5.67403 6.02679 3.32465 7.92241C3.11949 8.08747 2.9514 8.2939 2.83132 8.52824C2.71123 8.76259 2.64186 9.0196 2.62771 9.28253C2.61356 9.54547 2.65495 9.80844 2.74919 10.0543C2.84342 10.3002 2.98839 10.5235 3.17465 10.7096L7.43653 14.9724L3.70528 18.7037C3.49393 18.915 3.3752 19.2017 3.3752 19.5005C3.3752 19.7994 3.49393 20.0861 3.70528 20.2974C3.91662 20.5088 4.20327 20.6275 4.50215 20.6275C4.80104 20.6275 5.08768 20.5088 5.29903 20.2974L9.03028 16.5652L13.2931 20.8271C13.6443 21.178 14.1204 21.3752 14.6168 21.3755C14.66 21.3755 14.704 21.3755 14.7481 21.3708C15.0157 21.3515 15.276 21.275 15.5115 21.1464C15.747 21.0178 15.9521 20.8402 16.1131 20.6255C16.5528 20.0415 17.1443 19.1133 17.4668 18.0005C17.7893 16.8877 17.7903 15.8555 17.4818 14.8693L22.3287 10.0065C22.6774 9.65496 22.8729 9.1798 22.8725 8.68468C22.8722 8.18956 22.676 7.71468 22.3268 7.36366ZM15.365 13.8127C15.1985 13.9798 15.0888 14.1949 15.0513 14.4278C15.0138 14.6606 15.0504 14.8993 15.1559 15.1102C15.4775 15.7534 15.8028 17.079 14.5672 18.9212L5.07028 9.42523C7.04747 8.05741 8.77622 8.80273 8.91403 8.86273C9.12403 8.97175 9.36371 9.00977 9.59714 8.97106C9.83056 8.93235 10.0451 8.81901 10.2087 8.64804L15.3115 3.52835L20.4678 8.6846L15.365 13.8127Z" fill="#130032"/>
</svg>
