<svg width="24" height="24" viewBox="0 0 24 24" fill="none" xmlns="http://www.w3.org/2000/svg">
<path d="M20.3325 19.4917L5.3325 2.9917C5.2337 2.88034 5.11379 2.78969 4.9797 2.72501C4.84561 2.66033 4.70002 2.6229 4.55136 2.61491C4.40271 2.60691 4.25394 2.6285 4.11369 2.67842C3.97344 2.72834 3.84448 2.8056 3.73431 2.90572C3.62414 3.00585 3.53493 3.12684 3.47187 3.26169C3.4088 3.39655 3.37312 3.54258 3.36691 3.69132C3.36069 3.84006 3.38406 3.98856 3.43566 4.1282C3.48726 4.26785 3.56606 4.39586 3.6675 4.50483L5.8125 6.85983L4.30594 15.3733H3.75C3.45163 15.3733 3.16548 15.4918 2.9545 15.7028C2.74353 15.9137 2.625 16.1999 2.625 16.4983C2.625 16.7966 2.74353 17.0828 2.9545 17.2938C3.16548 17.5047 3.45163 17.6233 3.75 17.6233H10.875V22.4983C10.875 22.7966 10.9935 23.0828 11.2045 23.2938C11.4155 23.5047 11.7016 23.6233 12 23.6233C12.2984 23.6233 12.5845 23.5047 12.7955 23.2938C13.0065 23.0828 13.125 22.7966 13.125 22.4983V17.6233H15.5934L18.6675 21.0048C18.8692 21.2215 19.1482 21.3499 19.444 21.3623C19.7397 21.3747 20.0285 21.2699 20.2475 21.0708C20.4666 20.8717 20.5984 20.5943 20.6143 20.2987C20.6302 20.0031 20.529 19.7132 20.3325 19.4917ZM6.59063 15.3733L7.72219 8.96451L13.5478 15.3733H6.59063ZM8.44312 3.74826C8.44312 3.44989 8.56165 3.16375 8.77263 2.95277C8.98361 2.74179 9.26976 2.62326 9.56812 2.62326H18C18.2984 2.62326 18.5845 2.74179 18.7955 2.95277C19.0065 3.16375 19.125 3.44989 19.125 3.74826C19.125 4.04663 19.0065 4.33278 18.7955 4.54376C18.5845 4.75474 18.2984 4.87326 18 4.87326H17.8406L19.2778 13.0145C19.3036 13.16 19.3004 13.3092 19.2685 13.4535C19.2366 13.5978 19.1766 13.7344 19.0919 13.8555C19.0072 13.9766 18.8995 14.0799 18.7748 14.1593C18.6502 14.2388 18.5112 14.2929 18.3656 14.3186C18.3006 14.3297 18.2347 14.3353 18.1688 14.3355C17.9044 14.335 17.6486 14.2415 17.4463 14.0712C17.244 13.901 17.1081 13.6649 17.0625 13.4045L15.5559 4.87326H9.56812C9.26976 4.87326 8.98361 4.75474 8.77263 4.54376C8.56165 4.33278 8.44312 4.04663 8.44312 3.74826Z" fill="#130032"/>
</svg>
