<svg width="24" height="24" viewBox="0 0 24 24" fill="none" xmlns="http://www.w3.org/2000/svg">
<path d="M20.8513 14.5472C20.6908 14.4459 20.5073 14.3868 20.3178 14.3755C20.1283 14.3642 19.939 14.401 19.7676 14.4826C19.5316 14.595 19.2703 14.6438 19.0096 14.6242C18.7489 14.6046 18.4979 14.5171 18.2814 14.3705C18.0649 14.224 17.8905 14.0234 17.7754 13.7886C17.6603 13.5539 17.6086 13.2931 17.6254 13.0322C17.6509 12.6709 17.8048 12.3306 18.0593 12.0727C18.3137 11.8148 18.6519 11.6564 19.0129 11.626C19.2709 11.6067 19.5294 11.6552 19.7629 11.7666C19.9343 11.849 20.1238 11.8866 20.3136 11.8759C20.5035 11.8653 20.6876 11.8066 20.8486 11.7055C21.0097 11.6044 21.1425 11.464 21.2346 11.2977C21.3267 11.1313 21.3752 10.9443 21.3754 10.7541V6.75099C21.3754 6.25371 21.1778 5.7768 20.8262 5.42517C20.4746 5.07354 19.9977 4.87599 19.5004 4.87599H16.5004C16.4996 4.3638 16.3942 3.85716 16.1908 3.3871C15.9873 2.91704 15.6901 2.49344 15.3173 2.14224C14.9444 1.7895 14.5025 1.51777 14.0194 1.34416C13.5363 1.17055 13.0225 1.09882 12.5104 1.13349C11.6069 1.19286 10.7552 1.5765 10.112 2.21383C9.46881 2.85116 9.0774 3.6993 9.00976 4.60224C9.00039 4.69505 9.00039 4.78224 9.00039 4.87599H6.00039C5.50311 4.87599 5.0262 5.07354 4.67456 5.42517C4.32293 5.7768 4.12539 6.25371 4.12539 6.75099V9.37599C3.6132 9.37683 3.10656 9.48219 2.6365 9.68562C2.16644 9.88906 1.74284 10.1863 1.39164 10.5591C0.906536 11.0756 0.577685 11.7189 0.443182 12.4146C0.30868 13.1103 0.37403 13.8299 0.631662 14.4899C0.889295 15.15 1.32867 15.7236 1.89888 16.1442C2.46909 16.5648 3.1468 16.8153 3.85351 16.8666C3.94392 16.8744 4.03466 16.8775 4.12539 16.876V19.501C4.12539 19.9983 4.32293 20.4752 4.67456 20.8268C5.0262 21.1784 5.50311 21.376 6.00039 21.376H19.5004C19.9977 21.376 20.4746 21.1784 20.8262 20.8268C21.1778 20.4752 21.3754 19.9983 21.3754 19.501V15.4988C21.3755 15.3088 21.3275 15.122 21.2358 14.9556C21.1442 14.7892 21.0119 14.6487 20.8513 14.5472ZM19.1254 19.126H6.37539V15.4988C6.37541 15.3089 6.32738 15.1222 6.23577 14.9559C6.14416 14.7896 6.01196 14.6492 5.85147 14.5477C5.69098 14.4463 5.50742 14.3871 5.3179 14.3757C5.12838 14.3643 4.93906 14.4011 4.76758 14.4826C4.53287 14.5955 4.27266 14.6449 4.01289 14.626C3.6528 14.5958 3.31529 14.4381 3.06098 14.1814C2.80667 13.9247 2.65223 13.5857 2.62539 13.2254C2.60802 12.9645 2.65915 12.7035 2.77372 12.4685C2.88828 12.2334 3.0623 12.0324 3.27852 11.8854C3.49474 11.7383 3.74564 11.6504 4.00634 11.6302C4.26705 11.61 4.5285 11.6583 4.76476 11.7704C4.93637 11.8525 5.12599 11.8897 5.31591 11.8787C5.50582 11.8676 5.68983 11.8085 5.85072 11.707C6.01161 11.6055 6.14412 11.4648 6.23588 11.2982C6.32764 11.1315 6.37564 10.9444 6.37539 10.7541V7.12599H10.3785C10.5683 7.12585 10.755 7.07771 10.9211 6.98603C11.0873 6.89436 11.2276 6.76214 11.3289 6.60167C11.4302 6.44121 11.4893 6.25771 11.5007 6.06827C11.512 5.87883 11.4753 5.6896 11.3938 5.51818C11.2809 5.28347 11.2314 5.02327 11.2504 4.76349C11.2804 4.40334 11.438 4.06572 11.6948 3.81138C11.9515 3.55703 12.2906 3.40264 12.651 3.37599C12.9119 3.35853 13.1728 3.40956 13.4078 3.52401C13.6429 3.63846 13.844 3.81236 13.9911 4.02847C14.1382 4.24457 14.2263 4.49539 14.2466 4.75604C14.267 5.01669 14.2188 5.27813 14.107 5.51443C14.0246 5.68607 13.9872 5.87579 13.9982 6.06584C14.0091 6.25589 14.0682 6.44005 14.1697 6.60107C14.2712 6.76209 14.412 6.89471 14.5787 6.98652C14.7455 7.07833 14.9328 7.12632 15.1232 7.12599H19.1254V9.37599C19.0316 9.37599 18.9445 9.37599 18.8535 9.3863C17.8862 9.45817 16.9844 9.90206 16.3374 10.6247C15.6904 11.3474 15.3486 12.2927 15.3838 13.262C15.419 14.2314 15.8284 15.1494 16.5261 15.8232C17.2238 16.4971 18.1554 16.8744 19.1254 16.876V19.126Z" fill="#130032"/>
</svg>
