<svg width="24" height="24" viewBox="0 0 24 24" fill="none" xmlns="http://www.w3.org/2000/svg">
<path d="M11.2503 15.0003C11.2503 15.297 11.1623 15.587 10.9975 15.8336C10.8327 16.0803 10.5984 16.2726 10.3243 16.3861C10.0502 16.4996 9.74862 16.5293 9.45765 16.4715C9.16667 16.4136 8.8994 16.2707 8.68962 16.0609C8.47984 15.8512 8.33698 15.5839 8.2791 15.2929C8.22122 15.0019 8.25093 14.7003 8.36446 14.4263C8.47799 14.1522 8.67025 13.9179 8.91693 13.7531C9.1636 13.5883 9.45361 13.5003 9.75028 13.5003C10.1481 13.5003 10.5296 13.6583 10.8109 13.9396C11.0922 14.2209 11.2503 14.6025 11.2503 15.0003ZM14.2503 13.5003C13.9536 13.5003 13.6636 13.5883 13.4169 13.7531C13.1703 13.9179 12.978 14.1522 12.8645 14.4263C12.7509 14.7003 12.7212 15.0019 12.7791 15.2929C12.837 15.5839 12.9798 15.8512 13.1896 16.0609C13.3994 16.2707 13.6667 16.4136 13.9576 16.4715C14.2486 16.5293 14.5502 16.4996 14.8243 16.3861C15.0984 16.2726 15.3327 16.0803 15.4975 15.8336C15.6623 15.587 15.7503 15.297 15.7503 15.0003C15.7503 14.6025 15.5922 14.2209 15.3109 13.9396C15.0296 13.6583 14.6481 13.5003 14.2503 13.5003ZM20.6253 17.6253C20.6252 18.6246 20.3399 19.6032 19.8028 20.446C19.2658 21.2888 18.4994 21.9608 17.5936 22.3831C16.6878 22.8054 15.6803 22.9604 14.6895 22.8298C13.6987 22.6993 12.7658 22.2887 12.0003 21.6462C10.9572 22.5 9.62564 22.9198 8.2815 22.8187C6.93736 22.7176 5.68358 22.1034 4.77986 21.1033C3.87614 20.1032 3.39173 18.7938 3.42694 17.4463C3.46216 16.0988 4.01431 14.8165 4.96903 13.865C5.06678 13.2591 5.24295 12.6685 5.49309 12.1081C4.64419 10.375 4.02038 8.5404 3.63684 6.64903C3.33309 5.08247 3.14465 2.93935 3.95747 1.59403C4.1732 1.21813 4.48565 0.90685 4.86236 0.69253C5.23907 0.478209 5.6663 0.368667 6.09965 0.375283C8.22122 0.375283 9.90591 2.91684 11.1134 7.93153C11.7023 7.85654 12.2983 7.85654 12.8872 7.93153C14.0947 2.91684 15.7793 0.375283 17.9009 0.375283C18.3343 0.368667 18.7615 0.478209 19.1382 0.69253C19.5149 0.90685 19.8274 1.21813 20.0431 1.59403C20.8559 2.93841 20.6675 5.08153 20.3665 6.64341C19.983 8.53478 19.3592 10.3693 18.5103 12.1025C18.7594 12.6634 18.9346 13.2542 19.0315 13.8603C19.5365 14.3486 19.9379 14.9336 20.2117 15.5805C20.4856 16.2274 20.6262 16.9228 20.6253 17.6253ZM15.05 8.56153C15.6904 8.86441 16.2819 9.2613 16.805 9.73903C16.8781 9.8056 16.9484 9.8731 17.0187 9.94247C17.5197 8.74137 17.9009 7.49376 18.1568 6.21778C18.5225 4.32122 18.3762 3.18685 18.1175 2.75841C18.0406 2.63185 18.0003 2.62528 17.9009 2.62528C17.3225 2.62528 16.0793 4.25653 15.05 8.56153ZM6.98184 9.94247C7.05122 9.87403 7.12247 9.8056 7.19559 9.73903C7.71867 9.2613 8.3102 8.86441 8.95059 8.56153C7.92122 4.25653 6.67809 2.62528 6.09965 2.62528C5.9984 2.62528 5.95997 2.63185 5.88309 2.75841C5.30091 3.72216 5.69372 6.82903 6.98184 9.94247ZM18.3753 17.6253C18.376 17.1783 18.2765 16.7368 18.0841 16.3333C17.8916 15.9298 17.6112 15.5745 17.2634 15.2937C17.1476 15.1997 17.0516 15.0835 16.9811 14.952C16.9106 14.8205 16.867 14.6763 16.8528 14.5278C16.7365 13.3214 16.175 12.2017 15.2779 11.3869C14.3807 10.572 13.2122 10.1206 12.0003 10.1206C10.7883 10.1206 9.61986 10.572 8.72271 11.3869C7.82556 12.2017 7.26409 13.3214 7.14778 14.5278C7.13355 14.6763 7.08991 14.8205 7.01941 14.952C6.94892 15.0835 6.85297 15.1997 6.73716 15.2937C6.13824 15.7845 5.75231 16.4879 5.66009 17.2568C5.56787 18.0256 5.7765 18.8003 6.24235 19.4189C6.70819 20.0374 7.39516 20.4519 8.15957 20.5755C8.92397 20.6992 9.70659 20.5226 10.3437 20.0825L9.78122 19.6137C9.55172 19.423 9.40739 19.149 9.37996 18.8518C9.35253 18.5547 9.44426 18.2588 9.63497 18.0293C9.82568 17.7999 10.0997 17.6555 10.3969 17.6281C10.694 17.6007 10.9898 17.6924 11.2193 17.8831L12.0003 18.5347L12.7812 17.885C13.0107 17.6943 13.3066 17.6025 13.6037 17.63C13.9008 17.6574 14.1749 17.8017 14.3656 18.0312C14.5563 18.2607 14.648 18.5566 14.6206 18.8537C14.5932 19.1508 14.4488 19.4249 14.2193 19.6156L13.6568 20.0843C14.1065 20.3986 14.6337 20.5835 15.1812 20.619C15.7286 20.6545 16.2753 20.5392 16.7618 20.2857C17.2482 20.0321 17.6559 19.6501 17.9404 19.181C18.2249 18.712 18.3753 18.1739 18.3753 17.6253Z" fill="#130032"/>
</svg>
