<svg width="24" height="24" viewBox="0 0 24 24" fill="none" xmlns="http://www.w3.org/2000/svg">
<g clip-path="url(#clip0_7_18105)">
<path d="M21.8157 2.18396C20.4423 0.81146 18.5091 0.187086 16.3707 0.424273C14.326 0.651148 12.3254 1.65052 10.7373 3.23677C9.14913 4.82302 8.15069 6.82459 7.92476 8.87021C7.73726 10.5886 8.10194 12.174 8.96538 13.4433L7.06226 15.3474L6.88788 15.173C6.53627 14.8215 6.05944 14.624 5.56226 14.624C5.06507 14.624 4.58825 14.8215 4.23663 15.173L1.29944 18.1102C1.12525 18.2843 0.987074 18.4911 0.892799 18.7186C0.798523 18.9461 0.75 19.19 0.75 19.4363C0.75 19.6826 0.798523 19.9265 0.892799 20.154C0.987074 20.3815 1.12525 20.5883 1.29944 20.7624L3.23819 22.7011C3.41231 22.8753 3.61905 23.0135 3.84658 23.1078C4.07412 23.2021 4.31799 23.2506 4.56429 23.2506C4.81058 23.2506 5.05446 23.2021 5.28199 23.1078C5.50953 23.0135 5.71626 22.8753 5.89038 22.7011L8.82569 19.7658C8.99988 19.5917 9.13806 19.385 9.23234 19.1574C9.32661 18.9299 9.37514 18.686 9.37514 18.4397C9.37514 18.1934 9.32661 17.9496 9.23234 17.722C9.13806 17.4945 8.99988 17.2878 8.82569 17.1136L8.65132 16.9402L10.5554 15.0361C11.6044 15.7496 12.8701 16.1246 14.2501 16.1246C14.5439 16.1246 14.8375 16.108 15.1294 16.0749C17.1741 15.848 19.1748 14.8486 20.7619 13.2624C22.3491 11.6761 23.3494 9.67459 23.5744 7.62896C23.8126 5.49052 23.1882 3.56209 21.8157 2.18396ZM4.56569 20.8402L3.15944 19.434L5.56413 17.0293L6.97038 18.4355L4.56569 20.8402ZM12.0001 13.2896C11.4691 12.9743 11.0259 12.5307 10.711 11.9996H12.0001V13.2896ZM10.1251 9.75052C10.1393 8.70154 10.4089 7.67182 10.9107 6.75052H12.0001V9.75052H10.1251ZM14.2501 6.74959H17.2501V9.74959H14.2501V6.74959ZM19.5001 9.74959V6.74959H21.3751C21.3618 7.79858 21.0924 8.82844 20.5904 9.74959H19.5001ZM20.7891 4.49959H19.5001V3.21146C20.0301 3.52678 20.4729 3.96958 20.7882 4.49959H20.7891ZM17.2332 2.62459H17.2501V4.49959H14.2501V3.40646C15.2316 2.88896 16.2638 2.62459 17.2332 2.62459ZM14.2501 13.8802V11.9996H17.2501V13.0936C16.3291 13.5963 15.2992 13.8663 14.2501 13.8802Z" fill="#130032"/>
</g>
<defs>
<clipPath id="clip0_7_18105">
<rect width="24" height="24" fill="white"/>
</clipPath>
</defs>
</svg>
