<svg width="24" height="24" viewBox="0 0 24 24" fill="none" xmlns="http://www.w3.org/2000/svg">
<path d="M15 16.1256C15.6675 16.1256 16.32 15.9277 16.875 15.5568C17.4301 15.186 17.8626 14.6589 18.1181 14.0422C18.3735 13.4255 18.4404 12.7469 18.3102 12.0922C18.1799 11.4375 17.8585 10.8361 17.3865 10.3641C16.9145 9.89211 16.3131 9.57067 15.6584 9.44045C15.0037 9.31022 14.3251 9.37706 13.7084 9.6325C13.0917 9.88795 12.5646 10.3205 12.1938 10.8755C11.8229 11.4306 11.625 12.0831 11.625 12.7506C11.625 13.6457 11.9806 14.5041 12.6135 15.1371C13.2465 15.77 14.1049 16.1256 15 16.1256ZM15 11.6256C15.2225 11.6256 15.44 11.6916 15.625 11.8152C15.81 11.9388 15.9542 12.1145 16.0394 12.3201C16.1245 12.5256 16.1468 12.7518 16.1034 12.9701C16.06 13.1883 15.9528 13.3888 15.7955 13.5461C15.6382 13.7034 15.4377 13.8106 15.2195 13.854C15.0012 13.8974 14.775 13.8751 14.5695 13.79C14.3639 13.7048 14.1882 13.5606 14.0646 13.3756C13.941 13.1906 13.875 12.9731 13.875 12.7506C13.875 12.4522 13.9935 12.1661 14.2045 11.9551C14.4155 11.7441 14.7016 11.6256 15 11.6256ZM20.25 5.6256H10.665L18.3234 3.32872C18.6094 3.24294 18.8495 3.04709 18.9911 2.78424C19.1326 2.5214 19.1639 2.2131 19.0781 1.92716C18.9923 1.64122 18.7965 1.40107 18.5336 1.25954C18.2708 1.11801 17.9625 1.08669 17.6766 1.17247L2.67656 5.67247C2.44476 5.74205 2.24158 5.88453 2.09718 6.07875C1.95278 6.27297 1.87487 6.50858 1.875 6.7506V18.0006C1.875 18.4979 2.07254 18.9748 2.42417 19.3264C2.77581 19.6781 3.25272 19.8756 3.75 19.8756H20.25C20.7473 19.8756 21.2242 19.6781 21.5758 19.3264C21.9275 18.9748 22.125 18.4979 22.125 18.0006V7.5006C22.125 7.00332 21.9275 6.5264 21.5758 6.17477C21.2242 5.82314 20.7473 5.6256 20.25 5.6256ZM19.875 17.6256H4.125V7.8756H19.875V17.6256ZM5.625 10.8756C5.625 10.5772 5.74353 10.2911 5.9545 10.0801C6.16548 9.86912 6.45163 9.7506 6.75 9.7506H9C9.29837 9.7506 9.58452 9.86912 9.7955 10.0801C10.0065 10.2911 10.125 10.5772 10.125 10.8756C10.125 11.174 10.0065 11.4601 9.7955 11.6711C9.58452 11.8821 9.29837 12.0006 9 12.0006H6.75C6.45163 12.0006 6.16548 11.8821 5.9545 11.6711C5.74353 11.4601 5.625 11.174 5.625 10.8756ZM5.625 14.6256C5.625 14.3272 5.74353 14.0411 5.9545 13.8301C6.16548 13.6191 6.45163 13.5006 6.75 13.5006H9C9.29837 13.5006 9.58452 13.6191 9.7955 13.8301C10.0065 14.0411 10.125 14.3272 10.125 14.6256C10.125 14.924 10.0065 15.2101 9.7955 15.4211C9.58452 15.6321 9.29837 15.7506 9 15.7506H6.75C6.45163 15.7506 6.16548 15.6321 5.9545 15.4211C5.74353 15.2101 5.625 14.924 5.625 14.6256Z" fill="#130032"/>
</svg>
