<svg width="24" height="24" viewBox="0 0 24 24" fill="none" xmlns="http://www.w3.org/2000/svg">
<path d="M11.9998 10.5008C12.2965 10.5008 12.5865 10.5888 12.8331 10.7536C13.0798 10.9184 13.2721 11.1527 13.3856 11.4268C13.4991 11.7009 13.5288 12.0025 13.471 12.2934C13.4131 12.5844 13.2702 12.8517 13.0604 13.0614C12.8507 13.2712 12.5834 13.4141 12.2924 13.472C12.0014 13.5298 11.6998 13.5001 11.4258 13.3866C11.1517 13.2731 10.9174 13.0808 10.7526 12.8341C10.5878 12.5875 10.4998 12.2975 10.4998 12.0008C10.4998 11.603 10.6578 11.2214 10.9391 10.9401C11.2204 10.6588 11.602 10.5008 11.9998 10.5008ZM8.99978 12.0008C8.99978 11.7024 8.88126 11.4163 8.67028 11.2053C8.4593 10.9943 8.17315 10.8758 7.87478 10.8758H4.16884C4.45444 8.87135 5.50215 7.05431 7.09384 5.80298L8.94166 9.00079C9.01403 9.13156 9.11173 9.2466 9.22906 9.33919C9.34639 9.43178 9.481 9.50007 9.62502 9.54005C9.76903 9.58004 9.91957 9.59092 10.0678 9.57208C10.2161 9.55323 10.3591 9.50502 10.4886 9.43028C10.618 9.35554 10.7312 9.25575 10.8217 9.13675C10.9121 9.01775 10.9779 8.88192 11.0153 8.7372C11.0526 8.59248 11.0608 8.44177 11.0392 8.29386C11.0177 8.14596 10.9669 8.00384 10.8898 7.87579L8.82728 4.31329C8.697 4.08738 8.52102 3.89113 8.3106 3.73708C8.10017 3.58303 7.85992 3.47458 7.60521 3.41864C7.35049 3.3627 7.08691 3.36052 6.8313 3.41222C6.57569 3.46392 6.33367 3.56838 6.12072 3.71891C4.92308 4.56336 3.92331 5.65805 3.19066 6.92717C2.458 8.19628 2.00997 9.60949 1.87759 11.0689C1.85427 11.3307 1.88565 11.5945 1.96974 11.8435C2.05382 12.0926 2.18878 12.3214 2.36603 12.5155C2.54166 12.7077 2.7554 12.8613 2.99364 12.9663C3.23188 13.0714 3.4894 13.1257 3.74978 13.1258H7.87478C8.17315 13.1258 8.4593 13.0073 8.67028 12.7963C8.88126 12.5853 8.99978 12.2992 8.99978 12.0008ZM22.1173 11.0689C21.985 9.60959 21.537 8.19648 20.8044 6.9275C20.0717 5.65852 19.0719 4.56402 17.8742 3.71985C17.6613 3.56928 17.4193 3.46477 17.1637 3.41299C16.9082 3.36122 16.6446 3.36333 16.3899 3.41917C16.1352 3.47502 15.8949 3.58338 15.6845 3.73734C15.474 3.89129 15.298 4.08745 15.1676 4.31329L13.1098 7.87579C12.967 8.13374 12.9312 8.43742 13.0101 8.72148C13.089 9.00555 13.2762 9.24731 13.5315 9.39474C13.7868 9.54218 14.0898 9.5835 14.3753 9.50982C14.6607 9.43615 14.9058 9.25336 15.0579 9.00079L16.9057 5.8011C18.4978 7.05289 19.5456 8.87068 19.8307 10.8758H16.1248C15.8264 10.8758 15.5403 10.9943 15.3293 11.2053C15.1183 11.4163 14.9998 11.7024 14.9998 12.0008C14.9998 12.2992 15.1183 12.5853 15.3293 12.7963C15.5403 13.0073 15.8264 13.1258 16.1248 13.1258H20.2498C20.5094 13.1251 20.766 13.0704 21.0034 12.9654C21.2408 12.8603 21.4538 12.7071 21.6288 12.5155C21.8061 12.3214 21.9411 12.0926 22.0251 11.8435C22.1092 11.5945 22.1406 11.3307 22.1173 11.0689ZM15.0373 15.0111C14.8881 14.7526 14.6424 14.564 14.3541 14.4868C14.0659 14.4095 13.7587 14.4499 13.5003 14.5991C13.2418 14.7483 13.0532 14.994 12.9759 15.2822C12.8986 15.5705 12.939 15.8776 13.0882 16.1361L14.9238 19.3133C13.0461 20.0608 10.9534 20.0608 9.07572 19.3133L10.9113 16.1342C11.0605 15.8758 11.1009 15.5686 11.0237 15.2804C10.9464 14.9921 10.7578 14.7464 10.4993 14.5972C10.2409 14.448 9.93371 14.4076 9.64546 14.4849C9.35721 14.5622 9.11147 14.7508 8.96228 15.0092L6.91666 18.553C6.7864 18.7785 6.70455 19.0286 6.67632 19.2875C6.64809 19.5464 6.67409 19.8083 6.75267 20.0566C6.83126 20.3049 6.9607 20.5341 7.13275 20.7296C7.3048 20.925 7.51569 21.0826 7.75197 21.192C9.08393 21.806 10.5331 22.1239 11.9998 22.1239C13.4664 22.1239 14.9156 21.806 16.2476 21.192C16.4839 21.0826 16.6948 20.925 16.8668 20.7296C17.0389 20.5341 17.1683 20.3049 17.2469 20.0566C17.3255 19.8083 17.3515 19.5464 17.3232 19.2875C17.295 19.0286 17.2132 18.7785 17.0829 18.553L15.0373 15.0111Z" fill="#130032"/>
</svg>
