<svg width="24" height="24" viewBox="0 0 24 24" fill="none" xmlns="http://www.w3.org/2000/svg">
<path d="M23.6246 7.50077V9.75077C23.6246 10.0491 23.5061 10.3353 23.2951 10.5463C23.0842 10.7572 22.798 10.8758 22.4996 10.8758C22.2013 10.8758 21.9151 10.7572 21.7042 10.5463C21.4932 10.3353 21.3746 10.0491 21.3746 9.75077V8.62577H12.7796L8.5534 19.8955C8.47295 20.1098 8.32901 20.2945 8.14081 20.4249C7.9526 20.5553 7.72908 20.6252 7.50012 20.6252C7.27115 20.6252 7.04763 20.5553 6.85943 20.4249C6.67122 20.2945 6.52728 20.1098 6.44683 19.8955L1.94683 7.89546C1.89361 7.75686 1.86835 7.6091 1.87251 7.46069C1.87667 7.31228 1.91016 7.16616 1.97105 7.03076C2.03195 6.89536 2.11904 6.77334 2.22732 6.67176C2.33559 6.57017 2.4629 6.49103 2.6019 6.43888C2.74091 6.38672 2.88886 6.3626 3.03723 6.3679C3.18561 6.37321 3.33146 6.40782 3.46639 6.46976C3.60132 6.53169 3.72266 6.61973 3.82341 6.72878C3.92415 6.83783 4.00232 6.96574 4.0534 7.10515L7.49965 16.2926L10.9468 7.10515C11.0273 6.89092 11.1712 6.70633 11.3593 6.57601C11.5474 6.44569 11.7708 6.37584 11.9996 6.37577H22.4996C22.798 6.37577 23.0842 6.4943 23.2951 6.70528C23.5061 6.91626 23.6246 7.2024 23.6246 7.50077Z" fill="#130032"/>
</svg>
