<svg width="24" height="24" viewBox="0 0 24 24" fill="none" xmlns="http://www.w3.org/2000/svg">
<path d="M19.125 10.1255C18.1939 10.128 17.2828 10.3959 16.4985 10.8979C15.7143 11.3999 15.0894 12.115 14.6972 12.9595H14.625C12.7641 12.9595 11.25 14.5111 11.25 16.418C11.25 18.3249 12.7641 19.8755 14.625 19.8755H19.125C20.4179 19.8755 21.6579 19.3619 22.5721 18.4476C23.4864 17.5334 24 16.2934 24 15.0005C24 13.7075 23.4864 12.4676 22.5721 11.5533C21.6579 10.6391 20.4179 10.1255 19.125 10.1255ZM19.125 17.6255H14.625C14.0044 17.6255 13.5 17.0836 13.5 16.417C13.5 15.7505 14.0044 15.2086 14.625 15.2086C14.762 15.2081 14.8978 15.2348 15.0244 15.2874C15.1776 15.3501 15.3428 15.3784 15.5081 15.37C15.6735 15.3616 15.8349 15.3168 15.981 15.2388C16.127 15.1608 16.2541 15.0515 16.353 14.9187C16.452 14.786 16.5204 14.633 16.5534 14.4708C16.6536 13.9845 16.8896 13.5367 17.2341 13.1792C17.5786 12.8216 18.0173 12.5691 18.4995 12.4509C18.9817 12.3328 19.4875 12.3537 19.9583 12.5114C20.429 12.6691 20.8454 12.9571 21.1591 13.3419C21.4728 13.7267 21.6709 14.1926 21.7305 14.6855C21.79 15.1784 21.7086 15.678 21.4957 16.1265C21.2827 16.575 20.9469 16.9538 20.5273 17.2192C20.1077 17.4845 19.6215 17.6254 19.125 17.6255ZM10.2394 12.8292C10.4221 13.0649 10.5038 13.3634 10.4666 13.6593C10.4293 13.9551 10.2761 14.2241 10.0406 14.407C9.95008 14.4772 9.87681 14.5672 9.82644 14.67C9.77606 14.7729 9.74991 14.8859 9.75 15.0005V16.5005C9.75 16.7988 9.63147 17.085 9.4205 17.296C9.20952 17.507 8.92337 17.6255 8.625 17.6255C8.32663 17.6255 8.04048 17.507 7.8295 17.296C7.61853 17.085 7.5 16.7988 7.5 16.5005V15.0005C7.49858 14.5429 7.60253 14.0911 7.8038 13.6801C8.00507 13.2691 8.29825 12.9099 8.66062 12.6305C8.77733 12.5398 8.91074 12.4731 9.05325 12.434C9.19576 12.395 9.34456 12.3844 9.49117 12.4028C9.63778 12.4213 9.77931 12.4684 9.90769 12.5416C10.0361 12.6148 10.1488 12.7125 10.2394 12.8292ZM12.8119 11.1417C12.1291 10.7329 11.3501 10.5124 10.5543 10.5028C9.75855 10.4932 8.97446 10.6948 8.28201 11.087C7.58956 11.4793 7.01353 12.0482 6.61264 12.7357C6.21175 13.4231 6.00035 14.2046 6 15.0005V16.5005C6 16.7988 5.88147 17.085 5.6705 17.296C5.45952 17.507 5.17337 17.6255 4.875 17.6255C4.57663 17.6255 4.29048 17.507 4.0795 17.296C3.86853 17.085 3.75 16.7988 3.75 16.5005V15.0005C3.74993 13.8064 4.06664 12.6336 4.66782 11.6018C5.269 10.5701 6.13312 9.71625 7.17203 9.1275C8.21093 8.53876 9.38743 8.23615 10.5815 8.25057C11.7755 8.26498 12.9444 8.59589 13.9688 9.20954C14.2246 9.36308 14.409 9.61196 14.4813 9.90144C14.5537 10.1909 14.5081 10.4973 14.3545 10.7531C14.201 11.009 13.9521 11.1934 13.6626 11.2657C13.3732 11.3381 13.0668 11.2925 12.8109 11.1389L12.8119 11.1417ZM2.25 15.0005V16.5005C2.25 16.7988 2.13147 17.085 1.9205 17.296C1.70952 17.507 1.42337 17.6255 1.125 17.6255C0.826631 17.6255 0.540483 17.507 0.329505 17.296C0.118526 17.085 1.06451e-08 16.7988 1.06451e-08 16.5005V15.0005C-9.06715e-05 12.9862 0.57919 11.0144 1.66875 9.3203C2.75832 7.62616 4.31218 6.28117 6.14502 5.44573C7.97786 4.6103 10.0123 4.31968 12.0058 4.60853C13.9992 4.89739 15.8675 5.75353 17.3878 7.07485C17.613 7.27066 17.7511 7.54788 17.7718 7.84554C17.7926 8.14319 17.6942 8.4369 17.4984 8.66204C17.3026 8.88719 17.0254 9.02533 16.7278 9.04607C16.4301 9.06682 16.1364 8.96847 15.9113 8.77267C14.7167 7.73465 13.2487 7.06212 11.6825 6.83528C10.1163 6.60845 8.51786 6.83688 7.07786 7.49333C5.63787 8.14979 4.41707 9.20657 3.56105 10.5376C2.70503 11.8687 2.24993 13.4179 2.25 15.0005Z" fill="#130032"/>
</svg>
