<svg width="24" height="24" viewBox="0 0 24 24" fill="none" xmlns="http://www.w3.org/2000/svg">
<path d="M24 16.125V16.875C24 17.1734 23.8815 17.4595 23.6705 17.6705C23.4595 17.8815 23.1734 18 22.875 18C22.5766 18 22.2905 17.8815 22.0795 17.6705C21.8685 17.4595 21.75 17.1734 21.75 16.875V16.125C21.75 13.5391 20.7228 11.0592 18.8943 9.23071C17.0658 7.40223 14.5859 6.375 12 6.375C9.41414 6.375 6.93419 7.40223 5.10571 9.23071C3.27723 11.0592 2.25 13.5391 2.25 16.125V16.875C2.25 17.1734 2.13147 17.4595 1.9205 17.6705C1.70952 17.8815 1.42337 18 1.125 18C0.826631 18 0.540483 17.8815 0.329505 17.6705C0.118526 17.4595 0 17.1734 0 16.875L0 16.125C0 12.9424 1.26428 9.89016 3.51472 7.63972C5.76516 5.38928 8.8174 4.125 12 4.125C15.1826 4.125 18.2348 5.38928 20.4853 7.63972C22.7357 9.89016 24 12.9424 24 16.125ZM12 13.125C11.1049 13.125 10.2465 13.4806 9.61351 14.1135C8.98058 14.7465 8.625 15.6049 8.625 16.5V16.875C8.625 17.1734 8.74353 17.4595 8.9545 17.6705C9.16548 17.8815 9.45163 18 9.75 18C10.0484 18 10.3345 17.8815 10.5455 17.6705C10.7565 17.4595 10.875 17.1734 10.875 16.875V16.5C10.875 16.2016 10.9935 15.9155 11.2045 15.7045C11.4155 15.4935 11.7016 15.375 12 15.375C12.2984 15.375 12.5845 15.4935 12.7955 15.7045C13.0065 15.9155 13.125 16.2016 13.125 16.5V16.875C13.125 17.1734 13.2435 17.4595 13.4545 17.6705C13.6655 17.8815 13.9516 18 14.25 18C14.5484 18 14.8345 17.8815 15.0455 17.6705C15.2565 17.4595 15.375 17.1734 15.375 16.875V16.5C15.375 15.6049 15.0194 14.7465 14.3865 14.1135C13.7535 13.4806 12.8951 13.125 12 13.125ZM12 8.625C9.91211 8.62723 7.91037 9.45764 6.434 10.934C4.95764 12.4104 4.12723 14.4121 4.125 16.5V16.875C4.125 17.1734 4.24353 17.4595 4.4545 17.6705C4.66548 17.8815 4.95163 18 5.25 18C5.54837 18 5.83452 17.8815 6.0455 17.6705C6.25647 17.4595 6.375 17.1734 6.375 16.875V16.5C6.375 15.0082 6.96763 13.5774 8.02252 12.5225C9.07742 11.4676 10.5082 10.875 12 10.875C13.4918 10.875 14.9226 11.4676 15.9775 12.5225C17.0324 13.5774 17.625 15.0082 17.625 16.5V16.875C17.625 17.1734 17.7435 17.4595 17.9545 17.6705C18.1655 17.8815 18.4516 18 18.75 18C19.0484 18 19.3345 17.8815 19.5455 17.6705C19.7565 17.4595 19.875 17.1734 19.875 16.875V16.5C19.8728 14.4121 19.0424 12.4104 17.566 10.934C16.0896 9.45764 14.0879 8.62723 12 8.625Z" fill="#130032"/>
</svg>
