<svg width="24" height="24" viewBox="0 0 24 24" fill="none" xmlns="http://www.w3.org/2000/svg">
<path d="M10.1831 9.73031C10.089 9.44736 10.1111 9.13862 10.2446 8.87194C10.378 8.60527 10.6118 8.40248 10.8947 8.30813L12.0197 7.93313C12.1887 7.87685 12.3687 7.86154 12.5449 7.88844C12.721 7.91534 12.8882 7.9837 13.0328 8.08787C13.1773 8.19205 13.295 8.32906 13.3763 8.48764C13.4575 8.64622 13.4999 8.82183 13.5 9V12.75C13.5 13.0484 13.3815 13.3345 13.1705 13.5455C12.9595 13.7565 12.6734 13.875 12.375 13.875C12.0766 13.875 11.7905 13.7565 11.5795 13.5455C11.3685 13.3345 11.25 13.0484 11.25 12.75V10.5C11.0139 10.4999 10.7838 10.4255 10.5923 10.2874C10.4009 10.1492 10.2577 9.95433 10.1831 9.73031ZM23.625 19.5C23.625 19.7984 23.5065 20.0845 23.2955 20.2955C23.0845 20.5065 22.7984 20.625 22.5 20.625H1.5C1.20163 20.625 0.915483 20.5065 0.704505 20.2955C0.493526 20.0845 0.375 19.7984 0.375 19.5C0.375 19.2016 0.493526 18.9155 0.704505 18.7045C0.915483 18.4935 1.20163 18.375 1.5 18.375H1.875V9.75C1.875 9.25272 2.07254 8.77581 2.42417 8.42417C2.77581 8.07254 3.25272 7.875 3.75 7.875H7.125V5.25C7.125 4.75272 7.32254 4.27581 7.67417 3.92417C8.02581 3.57254 8.50272 3.375 9 3.375H15C15.4973 3.375 15.9742 3.57254 16.3258 3.92417C16.6775 4.27581 16.875 4.75272 16.875 5.25V11.625H20.25C20.7473 11.625 21.2242 11.8225 21.5758 12.1742C21.9275 12.5258 22.125 13.0027 22.125 13.5V18.375H22.5C22.7984 18.375 23.0845 18.4935 23.2955 18.7045C23.5065 18.9155 23.625 19.2016 23.625 19.5ZM16.875 13.875V18.375H19.875V13.875H16.875ZM9.375 18.375H14.625V5.625H9.375V18.375ZM4.125 18.375H7.125V10.125H4.125V18.375Z" fill="#130032"/>
</svg>
