<svg width="24" height="24" viewBox="0 0 24 24" fill="none" xmlns="http://www.w3.org/2000/svg">
<path d="M19.8265 3.30992L7.61554 1.15367C7.373 1.11076 7.12438 1.11606 6.88389 1.16927C6.6434 1.22247 6.41575 1.32254 6.21394 1.46375C6.01213 1.60497 5.84012 1.78456 5.70774 1.99227C5.57536 2.19998 5.48521 2.43173 5.44242 2.67429L2.65336 18.518C2.56725 19.0076 2.67905 19.5113 2.9642 19.9185C3.24934 20.3256 3.68449 20.6029 4.17398 20.6893L16.3849 22.8455C16.4939 22.8649 16.6043 22.8746 16.7149 22.8746C17.1563 22.8748 17.5836 22.7193 17.9216 22.4355C18.2596 22.1517 18.4866 21.7578 18.5627 21.323L21.3518 5.47929C21.3941 5.23669 21.3882 4.98814 21.3345 4.74781C21.2807 4.50749 21.1801 4.28011 21.0385 4.07866C20.8969 3.8772 20.7169 3.70563 20.509 3.57373C20.301 3.44183 20.0691 3.35218 19.8265 3.30992ZM16.4065 20.5637L4.93429 18.5377L7.59398 3.43367L19.0662 5.45961L16.4065 20.5637ZM8.61586 6.27992C8.66776 5.98618 8.83419 5.72507 9.07855 5.55402C9.32292 5.38296 9.62522 5.31595 9.91898 5.36773L16.219 6.48054C16.5007 6.52375 16.7556 6.67228 16.932 6.89614C17.1085 7.11999 17.1934 7.40248 17.1695 7.68652C17.1457 7.97056 17.015 8.23497 16.8037 8.42633C16.5925 8.61769 16.3165 8.72172 16.0315 8.71742C15.9655 8.71731 15.8996 8.71166 15.8346 8.70054L9.52804 7.58304C9.2343 7.53115 8.9732 7.36472 8.80214 7.12035C8.63109 6.87598 8.56408 6.57368 8.61586 6.27992ZM7.96898 9.97273C7.99467 9.82719 8.04879 9.68814 8.12824 9.56352C8.20769 9.4389 8.31092 9.33116 8.43202 9.24645C8.55312 9.16174 8.68973 9.10172 8.83404 9.06982C8.97834 9.03792 9.12752 9.03477 9.27305 9.06054L15.5749 10.1743C15.8515 10.2241 16.0995 10.3757 16.27 10.5991C16.4404 10.8226 16.5211 11.1018 16.496 11.3817C16.471 11.6617 16.3421 11.9221 16.1346 12.1118C15.9272 12.3014 15.6563 12.4066 15.3752 12.4065C15.3092 12.4064 15.2434 12.4008 15.1784 12.3896L8.87742 11.2759C8.58437 11.2231 8.32419 11.0563 8.15391 10.812C7.98362 10.5678 7.91712 10.2659 7.96898 9.97273ZM7.31273 13.6655C7.36463 13.3718 7.53106 13.1107 7.77543 12.9396C8.0198 12.7686 8.3221 12.7016 8.61586 12.7534L11.7696 13.3112C12.0469 13.3597 12.2959 13.5105 12.4674 13.7337C12.639 13.9569 12.7206 14.2363 12.6963 14.5167C12.6719 14.7971 12.5433 15.0582 12.3358 15.2485C12.1283 15.4387 11.857 15.5443 11.5755 15.5443C11.5095 15.5443 11.4436 15.5384 11.3787 15.5265L8.22773 14.9705C8.08185 14.9452 7.9424 14.8913 7.8174 14.8119C7.69239 14.7325 7.58429 14.6293 7.49928 14.508C7.41427 14.3868 7.35403 14.25 7.32202 14.1054C7.29001 13.9608 7.28685 13.8113 7.31273 13.6655Z" fill="#130032"/>
</svg>
