<svg width="24" height="24" viewBox="0 0 24 24" fill="none" xmlns="http://www.w3.org/2000/svg">
<path d="M9.3752 19.5009C9.3752 19.7992 9.25667 20.0854 9.04569 20.2964C8.83472 20.5073 8.54857 20.6259 8.2502 20.6259H3.7502C3.28956 20.6256 2.83712 20.504 2.43831 20.2735C2.03951 20.043 1.70838 19.7116 1.4782 19.3126C1.24801 18.9136 1.12688 18.4611 1.12695 18.0004C1.12703 17.5398 1.24832 17.0873 1.47864 16.6884L4.23957 11.9184L3.79332 12.0374C3.64954 12.0791 3.49889 12.0917 3.35019 12.0744C3.20149 12.0571 3.05774 12.0103 2.92736 11.9367C2.79698 11.8632 2.68259 11.7643 2.5909 11.646C2.49921 11.5276 2.43205 11.3922 2.39337 11.2476C2.35469 11.103 2.34526 10.9521 2.36564 10.8038C2.38601 10.6555 2.43578 10.5127 2.51203 10.3839C2.58827 10.2551 2.68947 10.1428 2.80967 10.0535C2.92988 9.96432 3.06669 9.89998 3.21207 9.86431L6.28426 9.04212C6.57231 8.96508 6.87915 9.00554 7.13739 9.1546C7.39562 9.30367 7.58411 9.54916 7.66145 9.83712L8.48551 12.9093C8.52861 13.0534 8.54238 13.2047 8.52599 13.3542C8.5096 13.5038 8.46339 13.6485 8.39009 13.7798C8.3168 13.9112 8.21791 14.0265 8.09926 14.119C7.98062 14.2115 7.84464 14.2792 7.69936 14.3182C7.55409 14.3572 7.40246 14.3667 7.25346 14.346C7.10446 14.3254 6.96111 14.2751 6.83189 14.1981C6.70266 14.1212 6.59019 14.019 6.50112 13.8978C6.41205 13.7766 6.34819 13.6388 6.31332 13.4924L6.1952 13.0321L3.42957 17.8134C3.39683 17.8701 3.37951 17.9344 3.37932 17.9998C3.37914 18.0653 3.3961 18.1297 3.42853 18.1866C3.46095 18.2435 3.50771 18.2909 3.56414 18.3241C3.62058 18.3573 3.68472 18.3752 3.7502 18.3759H8.2502C8.54857 18.3759 8.83472 18.4944 9.04569 18.7054C9.25667 18.9164 9.3752 19.2025 9.3752 19.5009ZM12.0002 3.37587C12.0662 3.37465 12.1313 3.39147 12.1885 3.42451C12.2456 3.45755 12.2927 3.50556 12.3246 3.56337L15.0855 8.33244L14.6402 8.21337C14.4956 8.16934 14.3437 8.15489 14.1934 8.17088C14.0431 8.18688 13.8976 8.23299 13.7655 8.30647C13.6334 8.37995 13.5175 8.47929 13.4247 8.59855C13.3318 8.71781 13.264 8.85456 13.2252 9.00063C13.1863 9.1467 13.1774 9.29909 13.1987 9.4487C13.2201 9.59832 13.2714 9.74209 13.3496 9.87144C13.4278 10.0008 13.5312 10.1131 13.6537 10.2016C13.7762 10.2901 13.9153 10.3529 14.0627 10.3865L17.1349 11.2106C17.4229 11.2876 17.7298 11.2471 17.988 11.0981C18.2462 10.949 18.4347 10.7035 18.5121 10.4156L19.3314 7.3415C19.4088 7.05308 19.3684 6.74575 19.2191 6.48712C19.1452 6.35906 19.0468 6.24682 18.9295 6.15679C18.8122 6.06677 18.6783 6.00072 18.5355 5.96243C18.2471 5.88511 17.9398 5.92552 17.6811 6.07479C17.4225 6.22406 17.2338 6.46995 17.1564 6.75837L17.0336 7.214L14.2718 2.43837C14.0411 2.04014 13.7099 1.70954 13.3112 1.47971C12.9125 1.24989 12.4604 1.12891 12.0002 1.12891C11.54 1.12891 11.0879 1.24989 10.6892 1.47971C10.2905 1.70954 9.95926 2.04014 9.72864 2.43837L7.55739 6.18837C7.47774 6.31644 7.42466 6.45921 7.40129 6.6082C7.37793 6.75719 7.38476 6.90936 7.42138 7.05566C7.45799 7.20195 7.52365 7.3394 7.61445 7.45981C7.70525 7.58023 7.81933 7.68116 7.94991 7.7566C8.0805 7.83205 8.22492 7.88047 8.37459 7.89899C8.52426 7.9175 8.67612 7.90574 8.82115 7.86439C8.96619 7.82304 9.10142 7.75295 9.21883 7.65829C9.33623 7.56363 9.43341 7.44634 9.50457 7.31337L11.6758 3.56337C11.7077 3.50556 11.7548 3.45755 11.8119 3.42451C11.8691 3.39147 11.9342 3.37465 12.0002 3.37587ZM22.518 16.6884L20.3486 12.9384C20.2775 12.8054 20.1803 12.6881 20.0629 12.5935C19.9455 12.4988 19.8102 12.4287 19.6652 12.3874C19.5202 12.346 19.3683 12.3342 19.2186 12.3528C19.069 12.3713 18.9246 12.4197 18.794 12.4951C18.6634 12.5706 18.5493 12.6715 18.4585 12.7919C18.3677 12.9123 18.3021 13.0498 18.2654 13.1961C18.2288 13.3424 18.222 13.4946 18.2454 13.6435C18.2687 13.7925 18.3218 13.9353 18.4014 14.0634L20.5708 17.8134C20.6037 17.8704 20.621 17.935 20.6211 18.0008C20.6211 18.0666 20.6038 18.1312 20.5709 18.1882C20.5381 18.2452 20.4908 18.2925 20.4338 18.3255C20.3769 18.3584 20.3122 18.3758 20.2465 18.3759H14.7189L15.048 18.0468C15.1527 17.9422 15.2357 17.8179 15.2923 17.6812C15.3489 17.5445 15.3781 17.3979 15.3781 17.2499C15.3781 17.1019 15.3489 16.9554 15.2923 16.8187C15.2357 16.6819 15.1527 16.5577 15.048 16.4531C14.9434 16.3484 14.8191 16.2654 14.6824 16.2088C14.5457 16.1521 14.3991 16.123 14.2511 16.123C14.1031 16.123 13.9566 16.1521 13.8199 16.2088C13.6831 16.2654 13.5589 16.3484 13.4543 16.4531L11.2043 18.7031C11.0994 18.8076 11.0162 18.9318 10.9594 19.0685C10.9026 19.2053 10.8734 19.3519 10.8734 19.4999C10.8734 19.648 10.9026 19.7946 10.9594 19.9314C11.0162 20.0681 11.0994 20.1923 11.2043 20.2968L13.4543 22.5468C13.5589 22.6515 13.6831 22.7345 13.8199 22.7911C13.9566 22.8477 14.1031 22.8769 14.2511 22.8769C14.3991 22.8769 14.5457 22.8477 14.6824 22.7911C14.8191 22.7345 14.9434 22.6515 15.048 22.5468C15.1527 22.4422 15.2357 22.3179 15.2923 22.1812C15.3489 22.0445 15.3781 21.8979 15.3781 21.7499C15.3781 21.6019 15.3489 21.4554 15.2923 21.3187C15.2357 21.1819 15.1527 21.0577 15.048 20.9531L14.7189 20.6259H20.2502C20.7108 20.6256 21.1633 20.504 21.5621 20.2735C21.9609 20.043 22.292 19.7116 22.5222 19.3126C22.7524 18.9136 22.8735 18.4611 22.8734 18.0004C22.8734 17.5398 22.7521 17.0873 22.5218 16.6884H22.518Z" fill="#130032"/>
</svg>
