<svg width="24" height="24" viewBox="0 0 24 24" fill="none" xmlns="http://www.w3.org/2000/svg">
<path d="M23.6248 9.74941C23.6245 9.12477 23.4508 8.51247 23.1231 7.98068C22.7955 7.44889 22.3266 7.01847 21.7688 6.73734C21.211 6.4562 20.5862 6.33538 19.9638 6.38833C19.3414 6.44127 18.7459 6.66591 18.2436 7.03722C16.7016 6.27963 15.0305 5.82001 13.318 5.68254L13.6742 3.5441L15.1433 3.78878C15.3169 4.25267 15.6388 4.64628 16.0589 4.90859C16.4791 5.1709 16.9741 5.28723 17.4671 5.23955C17.9601 5.19187 18.4236 4.98284 18.7857 4.64488C19.1478 4.30692 19.3883 3.85891 19.4698 3.37036C19.5513 2.8818 19.4694 2.37999 19.2366 1.94276C19.0039 1.50553 18.6334 1.15732 18.1825 0.952137C17.7317 0.746952 17.2258 0.69626 16.7432 0.807923C16.2607 0.919586 15.8284 1.18736 15.5136 1.56972L12.9373 1.13941C12.7916 1.11469 12.6423 1.11895 12.4982 1.15194C12.3541 1.18493 12.2179 1.24602 12.0974 1.33169C11.9768 1.41737 11.8744 1.52596 11.7959 1.65126C11.7174 1.77656 11.6644 1.9161 11.6398 2.06191L11.0417 5.65347C9.13858 5.77629 7.31233 6.25253 5.75608 7.03722C5.07746 6.54033 4.23776 6.31473 3.40148 6.40462C2.56521 6.49452 1.79264 6.89343 1.23513 7.52321C0.677628 8.15299 0.375364 8.96824 0.387562 9.80924C0.399761 10.6502 0.725543 11.4564 1.30108 12.0697C1.1841 12.5373 1.1249 13.0174 1.12483 13.4994C1.12483 15.6828 2.31077 17.706 4.46514 19.1975C6.49296 20.601 9.16858 21.3744 11.9998 21.3744C14.8311 21.3744 17.5067 20.601 19.5345 19.1975C21.6889 17.706 22.8748 15.6828 22.8748 13.4994C22.8748 13.0174 22.8156 12.5373 22.6986 12.0697C23.2915 11.4424 23.6227 10.6126 23.6248 9.74941ZM20.8208 10.7188C20.5855 10.8566 20.4083 11.0751 20.322 11.3338C20.2358 11.5925 20.2465 11.8736 20.352 12.125C20.5293 12.5617 20.6219 13.0281 20.6248 13.4994C20.6248 14.9225 19.7811 16.2885 18.2539 17.3478C16.5983 18.4935 14.3773 19.1244 11.9998 19.1244C9.62233 19.1244 7.40608 18.4935 5.74577 17.3478C4.21858 16.2885 3.37483 14.9225 3.37483 13.4994C3.37618 13.0292 3.46652 12.5635 3.64108 12.1269C3.74719 11.8763 3.75883 11.5956 3.67385 11.3371C3.58886 11.0785 3.41301 10.8595 3.17889 10.7207C3.03414 10.6361 2.91011 10.5203 2.81587 10.3817C2.72162 10.2431 2.65955 10.0851 2.63418 9.91944C2.60881 9.75375 2.62079 9.58448 2.66924 9.42401C2.71769 9.26353 2.80139 9.11592 2.91422 8.99195C3.02705 8.86798 3.16615 8.77079 3.32137 8.70749C3.47658 8.64419 3.64398 8.61637 3.81133 8.62607C3.97867 8.63577 4.14173 8.68274 4.28859 8.76356C4.43545 8.84437 4.56239 8.95698 4.66014 9.09316C4.82641 9.32127 5.07235 9.47854 5.34917 9.53376C5.62599 9.58898 5.91345 9.53813 6.15452 9.39128L6.17514 9.3791C7.77546 8.40691 9.84358 7.87441 11.9998 7.87441C14.1561 7.87441 16.2186 8.40785 17.8208 9.37441L17.8414 9.3866C18.0823 9.53503 18.3702 9.58725 18.6478 9.53287C18.9255 9.47849 19.1725 9.32149 19.3395 9.09316C19.4427 8.94791 19.5792 8.82954 19.7376 8.74797C19.896 8.66641 20.0717 8.62404 20.2498 8.62441C20.4967 8.6244 20.7366 8.70557 20.9328 8.8554C21.1289 9.00522 21.2703 9.2154 21.3353 9.45353C21.4002 9.69166 21.385 9.94453 21.292 10.1732C21.199 10.4018 21.0334 10.5935 20.8208 10.7188ZM8.24983 13.8744C7.87899 13.8744 7.51648 13.7644 7.20814 13.5584C6.89979 13.3524 6.65947 13.0596 6.51756 12.7169C6.37564 12.3743 6.33851 11.9973 6.41086 11.6336C6.48321 11.2699 6.66178 10.9358 6.92401 10.6736C7.18623 10.4114 7.52032 10.2328 7.88404 10.1604C8.24775 10.0881 8.62475 10.1252 8.96736 10.2671C9.30997 10.409 9.60281 10.6494 9.80884 10.9577C10.0149 11.2661 10.1248 11.6286 10.1248 11.9994C10.1248 12.4967 9.92729 12.9736 9.57566 13.3252C9.22403 13.6769 8.74711 13.8744 8.24983 13.8744ZM17.6248 11.9994C17.6248 12.3702 17.5149 12.7328 17.3088 13.0411C17.1028 13.3494 16.81 13.5898 16.4674 13.7317C16.1248 13.8736 15.7478 13.9107 15.384 13.8384C15.0203 13.766 14.6862 13.5875 14.424 13.3252C14.1618 13.063 13.9832 12.7289 13.9109 12.3652C13.8385 12.0015 13.8756 11.6245 14.0176 11.2819C14.1595 10.9393 14.3998 10.6464 14.7081 10.4404C15.0165 10.2344 15.379 10.1244 15.7498 10.1244C16.2471 10.1244 16.724 10.322 17.0757 10.6736C17.4273 11.0252 17.6248 11.5021 17.6248 11.9994ZM15.7011 15.7982C15.7444 15.9397 15.7594 16.0885 15.7452 16.2359C15.7309 16.3832 15.6877 16.5264 15.618 16.657C15.5484 16.7876 15.4536 16.9032 15.3391 16.9972C15.2247 17.0911 15.0928 17.1615 14.9511 17.2044C13.023 17.7702 10.9729 17.7702 9.04483 17.2044C8.75889 17.1174 8.51924 16.9203 8.37859 16.6566C8.23793 16.3929 8.20781 16.0841 8.29483 15.7982C8.38186 15.5122 8.5789 15.2726 8.84263 15.1319C9.10635 14.9913 9.41514 14.9611 9.70108 15.0482C11.2015 15.4825 12.7944 15.4825 14.2948 15.0482C14.4364 15.0048 14.5851 14.9898 14.7325 15.0041C14.8799 15.0183 15.023 15.0615 15.1537 15.1312C15.2843 15.2009 15.3999 15.2957 15.4939 15.4101C15.5878 15.5246 15.6582 15.6564 15.7011 15.7982Z" fill="#130032"/>
</svg>
