<svg width="24" height="24" viewBox="0 0 24 24" fill="none" xmlns="http://www.w3.org/2000/svg">
<path d="M1.87491 11.999C1.8769 10.1099 2.6282 8.29881 3.96397 6.96304C5.29973 5.62727 7.11085 4.87597 8.99991 4.87398H18.2812L17.9512 4.54492C17.8465 4.44027 17.7635 4.31604 17.7069 4.17931C17.6502 4.04258 17.6211 3.89604 17.6211 3.74805C17.6211 3.60005 17.6502 3.45351 17.7069 3.31678C17.7635 3.18005 17.8465 3.05582 17.9512 2.95117C18.0558 2.84652 18.18 2.76351 18.3168 2.70688C18.4535 2.65024 18.6 2.62109 18.748 2.62109C18.896 2.62109 19.0426 2.65024 19.1793 2.70688C19.316 2.76351 19.4403 2.84652 19.5449 2.95117L21.7949 5.20117C21.8998 5.30569 21.983 5.42988 22.0398 5.56662C22.0966 5.70337 22.1258 5.84998 22.1258 5.99805C22.1258 6.14611 22.0966 6.29272 22.0398 6.42947C21.983 6.56621 21.8998 6.6904 21.7949 6.79492L19.5449 9.04492C19.3336 9.25626 19.0469 9.375 18.748 9.375C18.4491 9.375 18.1625 9.25626 17.9512 9.04492C17.7398 8.83358 17.6211 8.54693 17.6211 8.24804C17.6211 7.94916 17.7398 7.66251 17.9512 7.45117L18.2812 7.12398H8.99991C7.70744 7.12547 6.46833 7.63956 5.55441 8.55348C4.64049 9.4674 4.1264 10.7065 4.12491 11.999C4.12491 12.2974 4.00638 12.5835 3.79541 12.7945C3.58443 13.0055 3.29828 13.124 2.99991 13.124C2.70154 13.124 2.41539 13.0055 2.20442 12.7945C1.99344 12.5835 1.87491 12.2974 1.87491 11.999ZM20.9999 10.874C20.7015 10.874 20.4154 10.9925 20.2044 11.2035C19.9934 11.4145 19.8749 11.7006 19.8749 11.999C19.8734 13.2915 19.3593 14.5306 18.4454 15.4445C17.5315 16.3584 16.2924 16.8725 14.9999 16.874H5.71866L6.04866 16.5449C6.15331 16.4403 6.23632 16.316 6.29295 16.1793C6.34959 16.0426 6.37874 15.896 6.37874 15.748C6.37874 15.6001 6.34959 15.4535 6.29295 15.3168C6.23632 15.1801 6.15331 15.0558 6.04866 14.9512C5.94401 14.8465 5.81978 14.7635 5.68305 14.7069C5.54632 14.6502 5.39978 14.6211 5.25179 14.6211C5.10379 14.6211 4.95725 14.6502 4.82052 14.7069C4.68379 14.7635 4.55956 14.8465 4.45491 14.9512L2.20491 17.2012C2.10003 17.3057 2.01681 17.4299 1.96003 17.5666C1.90325 17.7034 1.87402 17.85 1.87402 17.998C1.87402 18.1461 1.90325 18.2927 1.96003 18.4295C2.01681 18.5662 2.10003 18.6904 2.20491 18.7949L4.45491 21.0449C4.55956 21.1496 4.68379 21.2326 4.82052 21.2892C4.95725 21.3458 5.10379 21.375 5.25179 21.375C5.39978 21.375 5.54632 21.3458 5.68305 21.2892C5.81978 21.2326 5.94401 21.1496 6.04866 21.0449C6.15331 20.9403 6.23632 20.816 6.29295 20.6793C6.34959 20.5426 6.37874 20.396 6.37874 20.248C6.37874 20.1001 6.34959 19.9535 6.29295 19.8168C6.23632 19.6801 6.15331 19.5558 6.04866 19.4512L5.71866 19.124H14.9999C16.889 19.122 18.7001 18.3707 20.0359 17.0349C21.3716 15.6992 22.1229 13.888 22.1249 11.999C22.1249 11.7006 22.0064 11.4145 21.7954 11.2035C21.5844 10.9925 21.2983 10.874 20.9999 10.874Z" fill="#130032"/>
</svg>
