<svg width="24" height="24" viewBox="0 0 24 24" fill="none" xmlns="http://www.w3.org/2000/svg">
<path d="M20.25 7.875H14.625V3.75C14.625 3.25272 14.4275 2.77581 14.0758 2.42417C13.7242 2.07254 13.2473 1.875 12.75 1.875H6.75C6.25272 1.875 5.77581 2.07254 5.42417 2.42417C5.07254 2.77581 4.875 3.25272 4.875 3.75V8.25C4.875 8.74728 5.07254 9.22419 5.42417 9.57583C5.77581 9.92746 6.25272 10.125 6.75 10.125H12.375V13.875H6.75C6.25272 13.875 5.77581 14.0725 5.42417 14.4242C5.07254 14.7758 4.875 15.2527 4.875 15.75V20.25C4.875 20.7473 5.07254 21.2242 5.42417 21.5758C5.77581 21.9275 6.25272 22.125 6.75 22.125H12.75C13.2473 22.125 13.7242 21.9275 14.0758 21.5758C14.4275 21.2242 14.625 20.7473 14.625 20.25V16.125H20.25C20.7473 16.125 21.2242 15.9275 21.5758 15.5758C21.9275 15.2242 22.125 14.7473 22.125 14.25V9.75C22.125 9.25272 21.9275 8.77581 21.5758 8.42417C21.2242 8.07254 20.7473 7.875 20.25 7.875ZM12.375 19.875H7.125V16.125H12.375V19.875ZM12.375 7.875H7.125V4.125H12.375V7.875ZM19.875 13.875H14.625V10.125H19.875V13.875Z" fill="#130032"/>
</svg>
