<svg width="24" height="24" viewBox="0 0 24 24" fill="none" xmlns="http://www.w3.org/2000/svg">
<path d="M12.75 10.125H4.5C4.20163 10.125 3.91548 10.2435 3.7045 10.4545C3.49353 10.6655 3.375 10.9516 3.375 11.25V19.5C3.375 19.7984 3.49353 20.0845 3.7045 20.2955C3.91548 20.5065 4.20163 20.625 4.5 20.625H12.75C13.0484 20.625 13.3345 20.5065 13.5455 20.2955C13.7565 20.0845 13.875 19.7984 13.875 19.5V11.25C13.875 10.9516 13.7565 10.6655 13.5455 10.4545C13.3345 10.2435 13.0484 10.125 12.75 10.125ZM11.625 18.375H5.625V12.375H11.625V18.375ZM20.625 17.625V18.75C20.625 19.2473 20.4275 19.7242 20.0758 20.0758C19.7242 20.4275 19.2473 20.625 18.75 20.625H16.875C16.5766 20.625 16.2905 20.5065 16.0795 20.2955C15.8685 20.0845 15.75 19.7984 15.75 19.5C15.75 19.2016 15.8685 18.9155 16.0795 18.7045C16.2905 18.4935 16.5766 18.375 16.875 18.375H18.375V17.625C18.375 17.3266 18.4935 17.0405 18.7045 16.8295C18.9155 16.6185 19.2016 16.5 19.5 16.5C19.7984 16.5 20.0845 16.6185 20.2955 16.8295C20.5065 17.0405 20.625 17.3266 20.625 17.625ZM20.625 10.875V13.125C20.625 13.4234 20.5065 13.7095 20.2955 13.9205C20.0845 14.1315 19.7984 14.25 19.5 14.25C19.2016 14.25 18.9155 14.1315 18.7045 13.9205C18.4935 13.7095 18.375 13.4234 18.375 13.125V10.875C18.375 10.5766 18.4935 10.2905 18.7045 10.0795C18.9155 9.86853 19.2016 9.75 19.5 9.75C19.7984 9.75 20.0845 9.86853 20.2955 10.0795C20.5065 10.2905 20.625 10.5766 20.625 10.875ZM20.625 5.25V6.75C20.625 7.04837 20.5065 7.33452 20.2955 7.5455C20.0845 7.75647 19.7984 7.875 19.5 7.875C19.2016 7.875 18.9155 7.75647 18.7045 7.5455C18.4935 7.33452 18.375 7.04837 18.375 6.75V5.625H17.25C16.9516 5.625 16.6655 5.50647 16.4545 5.2955C16.2435 5.08452 16.125 4.79837 16.125 4.5C16.125 4.20163 16.2435 3.91548 16.4545 3.7045C16.6655 3.49353 16.9516 3.375 17.25 3.375H18.75C19.2473 3.375 19.7242 3.57254 20.0758 3.92417C20.4275 4.27581 20.625 4.75272 20.625 5.25ZM14.25 4.5C14.25 4.79837 14.1315 5.08452 13.9205 5.2955C13.7095 5.50647 13.4234 5.625 13.125 5.625H10.875C10.5766 5.625 10.2905 5.50647 10.0795 5.2955C9.86853 5.08452 9.75 4.79837 9.75 4.5C9.75 4.20163 9.86853 3.91548 10.0795 3.7045C10.2905 3.49353 10.5766 3.375 10.875 3.375H13.125C13.4234 3.375 13.7095 3.49353 13.9205 3.7045C14.1315 3.91548 14.25 4.20163 14.25 4.5ZM3.375 7.125V5.25C3.375 4.75272 3.57254 4.27581 3.92417 3.92417C4.27581 3.57254 4.75272 3.375 5.25 3.375H6.375C6.67337 3.375 6.95952 3.49353 7.1705 3.7045C7.38147 3.91548 7.5 4.20163 7.5 4.5C7.5 4.79837 7.38147 5.08452 7.1705 5.2955C6.95952 5.50647 6.67337 5.625 6.375 5.625H5.625V7.125C5.625 7.42337 5.50647 7.70952 5.2955 7.9205C5.08452 8.13147 4.79837 8.25 4.5 8.25C4.20163 8.25 3.91548 8.13147 3.7045 7.9205C3.49353 7.70952 3.375 7.42337 3.375 7.125Z" fill="#130032"/>
</svg>
