<svg width="24" height="24" viewBox="0 0 24 24" fill="none" xmlns="http://www.w3.org/2000/svg">
<path d="M21.1591 5.10585C20.8649 4.94475 20.5329 4.86551 20.1977 4.8764C19.8625 4.88728 19.5363 4.98788 19.2532 5.16773L12.3747 9.54866V6.73616C12.3738 6.40185 12.283 6.07394 12.112 5.78668C11.941 5.49943 11.696 5.26338 11.4025 5.1032C11.1091 4.94302 10.778 4.86459 10.4439 4.87611C10.1098 4.88762 9.78489 4.98866 9.50317 5.16866L1.2363 10.4337C0.972408 10.6011 0.755093 10.8325 0.604521 11.1064C0.453949 11.3802 0.375 11.6877 0.375 12.0002C0.375 12.3128 0.453949 12.6202 0.604521 12.8941C0.755093 13.168 0.972408 13.3993 1.2363 13.5668L9.50317 18.8327C9.78489 19.0127 10.1098 19.1138 10.4439 19.1253C10.778 19.1368 11.1091 19.0584 11.4025 18.8982C11.696 18.738 11.941 18.502 12.112 18.2147C12.283 17.9274 12.3738 17.5995 12.3747 17.2652V14.4527L19.2532 18.8337C19.535 19.0137 19.8599 19.1147 20.1941 19.1262C20.5283 19.1377 20.8595 19.0592 21.1529 18.8989C21.4464 18.7386 21.6914 18.5024 21.8624 18.215C22.0333 17.9276 22.1239 17.5996 22.1247 17.2652V6.73522C22.1245 6.40204 22.0347 6.07505 21.8648 5.78842C21.695 5.5018 21.4512 5.26606 21.1591 5.10585ZM10.1247 16.5602L2.96505 12.0002L10.1247 7.44023V16.5602ZM19.8747 16.5602L12.715 12.0002L19.8747 7.44023V16.5602Z" fill="#130032"/>
</svg>
