<svg width="24" height="24" viewBox="0 0 24 24" fill="none" xmlns="http://www.w3.org/2000/svg">
<path d="M22.3008 18.9806C22.0407 19.1268 21.7332 19.1637 21.446 19.0832C21.1587 19.0027 20.9152 18.8113 20.769 18.5513L14.3433 7.125H13.1246V7.5C13.1246 7.79837 13.006 8.08452 12.7951 8.2955C12.5841 8.50647 12.2979 8.625 11.9996 8.625C11.7012 8.625 11.4151 8.50647 11.2041 8.2955C10.9931 8.08452 10.8746 7.79837 10.8746 7.5V7.125H9.65583L3.2302 18.5513C3.15863 18.6816 3.06194 18.7964 2.94572 18.8891C2.8295 18.9818 2.69606 19.0506 2.55311 19.0914C2.41015 19.1322 2.26052 19.1443 2.11287 19.127C1.96521 19.1096 1.82246 19.0632 1.69286 18.9903C1.56327 18.9175 1.44939 18.8197 1.35783 18.7025C1.26626 18.5854 1.19882 18.4513 1.15941 18.308C1.11999 18.1646 1.10937 18.0149 1.12817 17.8674C1.14698 17.7199 1.19482 17.5776 1.26895 17.4487L7.07583 7.125H2.24958C1.95121 7.125 1.66506 7.00647 1.45408 6.7955C1.2431 6.58452 1.12458 6.29837 1.12458 6C1.12458 5.70163 1.2431 5.41548 1.45408 5.2045C1.66506 4.99353 1.95121 4.875 2.24958 4.875H21.7496C22.0479 4.875 22.3341 4.99353 22.5451 5.2045C22.7561 5.41548 22.8746 5.70163 22.8746 6C22.8746 6.29837 22.7561 6.58452 22.5451 6.7955C22.3341 7.00647 22.0479 7.125 21.7496 7.125H16.9233L22.7302 17.4487C22.8764 17.7088 22.9133 18.0163 22.8328 18.3036C22.7522 18.5909 22.5609 18.8344 22.3008 18.9806ZM11.9996 10.125C11.7012 10.125 11.4151 10.2435 11.2041 10.4545C10.9931 10.6655 10.8746 10.9516 10.8746 11.25V12.75C10.8746 13.0484 10.9931 13.3345 11.2041 13.5455C11.4151 13.7565 11.7012 13.875 11.9996 13.875C12.2979 13.875 12.5841 13.7565 12.7951 13.5455C13.006 13.3345 13.1246 13.0484 13.1246 12.75V11.25C13.1246 10.9516 13.006 10.6655 12.7951 10.4545C12.5841 10.2435 12.2979 10.125 11.9996 10.125ZM11.9996 15.375C11.7012 15.375 11.4151 15.4935 11.2041 15.7045C10.9931 15.9155 10.8746 16.2016 10.8746 16.5V18C10.8746 18.2984 10.9931 18.5845 11.2041 18.7955C11.4151 19.0065 11.7012 19.125 11.9996 19.125C12.2979 19.125 12.5841 19.0065 12.7951 18.7955C13.006 18.5845 13.1246 18.2984 13.1246 18V16.5C13.1246 16.2016 13.006 15.9155 12.7951 15.7045C12.5841 15.4935 12.2979 15.375 11.9996 15.375Z" fill="#130032"/>
</svg>
