<svg width="24" height="24" viewBox="0 0 24 24" fill="none" xmlns="http://www.w3.org/2000/svg">
<path d="M6.75 9.75C6.75 9.45333 6.83797 9.16332 7.0028 8.91665C7.16762 8.66997 7.40189 8.47771 7.67597 8.36418C7.95006 8.25065 8.25166 8.22094 8.54264 8.27882C8.83361 8.3367 9.10088 8.47956 9.31066 8.68934C9.52044 8.89912 9.6633 9.16639 9.72118 9.45737C9.77906 9.74834 9.74935 10.0499 9.63582 10.324C9.52229 10.5981 9.33003 10.8324 9.08335 10.9972C8.83668 11.162 8.54667 11.25 8.25 11.25C7.85218 11.25 7.47064 11.092 7.18934 10.8107C6.90804 10.5294 6.75 10.1478 6.75 9.75ZM15.75 11.25C16.0467 11.25 16.3367 11.162 16.5834 10.9972C16.83 10.8324 17.0223 10.5981 17.1358 10.324C17.2494 10.0499 17.2791 9.74834 17.2212 9.45737C17.1633 9.16639 17.0204 8.89912 16.8107 8.68934C16.6009 8.47956 16.3336 8.3367 16.0426 8.27882C15.7517 8.22094 15.4501 8.25065 15.176 8.36418C14.9019 8.47771 14.6676 8.66997 14.5028 8.91665C14.338 9.16332 14.25 9.45333 14.25 9.75C14.25 10.1478 14.408 10.5294 14.6893 10.8107C14.9706 11.092 15.3522 11.25 15.75 11.25ZM22.125 7.5V18C22.125 18.8951 21.7694 19.7535 21.1365 20.3865C20.5035 21.0194 19.6451 21.375 18.75 21.375H5.25C4.35489 21.375 3.49645 21.0194 2.86351 20.3865C2.23058 19.7535 1.875 18.8951 1.875 18V7.5C1.875 6.60489 2.23058 5.74645 2.86351 5.11351C3.49645 4.48058 4.35489 4.125 5.25 4.125H10.875V1.5C10.875 1.20163 10.9935 0.915483 11.2045 0.704505C11.4155 0.493526 11.7016 0.375 12 0.375C12.2984 0.375 12.5845 0.493526 12.7955 0.704505C13.0065 0.915483 13.125 1.20163 13.125 1.5V4.125H18.75C19.6451 4.125 20.5035 4.48058 21.1365 5.11351C21.7694 5.74645 22.125 6.60489 22.125 7.5ZM19.875 7.5C19.875 7.20163 19.7565 6.91548 19.5455 6.7045C19.3345 6.49353 19.0484 6.375 18.75 6.375H5.25C4.95163 6.375 4.66548 6.49353 4.4545 6.7045C4.24353 6.91548 4.125 7.20163 4.125 7.5V18C4.125 18.2984 4.24353 18.5845 4.4545 18.7955C4.66548 19.0065 4.95163 19.125 5.25 19.125H18.75C19.0484 19.125 19.3345 19.0065 19.5455 18.7955C19.7565 18.5845 19.875 18.2984 19.875 18V7.5ZM18.75 15.1875C18.75 15.9334 18.4537 16.6488 17.9262 17.1762C17.3988 17.7037 16.6834 18 15.9375 18H8.0625C7.31658 18 6.60121 17.7037 6.07376 17.1762C5.54632 16.6488 5.25 15.9334 5.25 15.1875C5.25 14.4416 5.54632 13.7262 6.07376 13.1988C6.60121 12.6713 7.31658 12.375 8.0625 12.375H15.9375C16.6834 12.375 17.3988 12.6713 17.9262 13.1988C18.4537 13.7262 18.75 14.4416 18.75 15.1875ZM11.25 14.625V15.75H12.75V14.625H11.25ZM8.0625 15.75H9V14.625H8.0625C7.91332 14.625 7.77024 14.6843 7.66475 14.7898C7.55926 14.8952 7.5 15.0383 7.5 15.1875C7.5 15.3367 7.55926 15.4798 7.66475 15.5852C7.77024 15.6907 7.91332 15.75 8.0625 15.75ZM16.5 15.1875C16.5 15.0383 16.4407 14.8952 16.3352 14.7898C16.2298 14.6843 16.0867 14.625 15.9375 14.625H15V15.75H15.9375C16.0867 15.75 16.2298 15.6907 16.3352 15.5852C16.4407 15.4798 16.5 15.3367 16.5 15.1875Z" fill="#130032"/>
</svg>
