<svg width="24" height="24" viewBox="0 0 24 24" fill="none" xmlns="http://www.w3.org/2000/svg">
<path d="M14.6248 21.376C14.6248 21.6744 14.5062 21.9605 14.2953 22.1715C14.0843 22.3825 13.7981 22.501 13.4998 22.501H10.4998C10.2014 22.501 9.91525 22.3825 9.70427 22.1715C9.49329 21.9605 9.37477 21.6744 9.37477 21.376C9.37477 21.0776 9.49329 20.7915 9.70427 20.5805C9.91525 20.3695 10.2014 20.251 10.4998 20.251H13.4998C13.7981 20.251 14.0843 20.3695 14.2953 20.5805C14.5062 20.7915 14.6248 21.0776 14.6248 21.376ZM11.9998 10.876C12.2964 10.876 12.5864 10.788 12.8331 10.6232C13.0798 10.4584 13.2721 10.2241 13.3856 9.95002C13.4991 9.67593 13.5288 9.37433 13.4709 9.08336C13.4131 8.79239 13.2702 8.52511 13.0604 8.31533C12.8506 8.10555 12.5834 7.96269 12.2924 7.90481C12.0014 7.84694 11.6998 7.87664 11.4257 7.99017C11.1517 8.1037 10.9174 8.29596 10.7526 8.54264C10.5877 8.78931 10.4998 9.07932 10.4998 9.37599C10.4998 9.77382 10.6578 10.1553 10.9391 10.4367C11.2204 10.718 11.6019 10.876 11.9998 10.876ZM21.3307 14.6916L20.172 19.9069C20.1038 20.2182 19.957 20.5068 19.7456 20.7453C19.5342 20.9837 19.2653 21.1641 18.9645 21.2691C18.7629 21.3399 18.5509 21.3761 18.3373 21.376C17.9192 21.3756 17.5133 21.2346 17.1851 20.9757L14.7345 19.126H9.26508L6.81445 20.9766C6.48608 21.2352 6.08026 21.3759 5.66227 21.376C5.44861 21.3758 5.23654 21.3393 5.03508 21.2682C4.73423 21.1631 4.46529 20.9828 4.25392 20.7444C4.04254 20.5059 3.89576 20.2173 3.82758 19.906L2.66883 14.6916C2.60739 14.4118 2.61058 14.1216 2.67816 13.8431C2.74574 13.5647 2.87593 13.3053 3.05883 13.0847L5.66789 9.95349C5.7677 8.78029 6.04099 7.62838 6.47883 6.53537C7.72289 3.41818 9.94758 1.46349 10.8513 0.767868C11.18 0.5132 11.584 0.375 11.9998 0.375C12.4155 0.375 12.8195 0.5132 13.1482 0.767868C14.0482 1.46349 16.2766 3.41818 17.5207 6.53537C17.9585 7.62838 18.2318 8.78029 18.3316 9.95349L20.9407 13.0847C21.1236 13.3053 21.2538 13.5647 21.3214 13.8431C21.3889 14.1216 21.3921 14.4118 21.3307 14.6916ZM9.54258 16.876H14.457C16.286 13.5291 16.6132 10.3341 15.431 7.36974C14.4748 4.96974 12.7685 3.36662 11.9998 2.73099C11.231 3.36662 9.52477 4.96974 8.56852 7.36974C7.38539 10.3341 7.71352 13.5291 9.54258 16.876ZM7.42852 17.6935C6.68051 16.3032 6.14579 14.8084 5.84227 13.2591L4.90477 14.3841L5.89664 18.8504L7.42852 17.6935ZM19.0938 14.3832L18.1563 13.2582C17.8528 14.8075 17.3181 16.3023 16.5701 17.6926L18.101 18.8485L19.0938 14.3832Z" fill="#130032"/>
</svg>
