<svg width="24" height="24" viewBox="0 0 24 24" fill="none" xmlns="http://www.w3.org/2000/svg">
<path d="M21.3611 4.39597C21.3331 3.93917 21.139 3.50838 20.8154 3.18477C20.4918 2.86115 20.061 2.66707 19.6042 2.6391C18.3733 2.56691 15.2308 2.67847 12.6217 5.2866L12.2814 5.62504H6.9714C6.72506 5.62421 6.48101 5.67236 6.25344 5.76667C6.02587 5.86098 5.81931 5.99958 5.64577 6.17441L2.42546 9.39285C2.17893 9.63926 2.00597 9.94952 1.92599 10.2888C1.84602 10.6281 1.8622 10.9829 1.97272 11.3135C2.08324 11.6441 2.28372 11.9373 2.55165 12.1602C2.81958 12.3832 3.14436 12.5271 3.48952 12.5757L6.9714 13.0613L10.9389 17.0288L11.4255 20.5144C11.4728 20.8601 11.6163 21.1856 11.8396 21.4537C12.0628 21.7219 12.3569 21.922 12.6883 22.0313C12.881 22.0944 13.0827 22.1261 13.2855 22.125C13.5312 22.1249 13.7744 22.0762 14.0013 21.9817C14.2281 21.8873 14.4341 21.749 14.6073 21.5747L17.8267 18.3544C18.0013 18.1807 18.1397 17.9741 18.2338 17.7466C18.3279 17.519 18.376 17.275 18.3751 17.0288V11.7188L18.7126 11.3822C21.3217 8.76941 21.4333 5.62504 21.3611 4.39597ZM7.12514 7.87504H10.0314L7.10171 10.8075L4.5489 10.4513L7.12514 7.87504ZM14.2126 6.87847C14.8546 6.23122 15.6205 5.72018 16.4646 5.37593C17.3088 5.03168 18.2136 4.86132 19.1251 4.87504C19.1394 5.78683 18.9692 6.6921 18.6248 7.53646C18.2803 8.38081 17.7687 9.14682 17.1208 9.78847L12.0001 14.9063L9.09389 12L14.2126 6.87847ZM16.1251 16.875L13.548 19.4522L13.1917 16.8994L16.1251 13.9688V16.875ZM9.37514 18.9375C8.55858 20.0485 6.91983 21.375 3.75015 21.375C3.45178 21.375 3.16563 21.2565 2.95465 21.0455C2.74367 20.8346 2.62515 20.5484 2.62515 20.25C2.62515 17.0775 3.94889 15.4388 5.06264 14.625C5.18048 14.526 5.31737 14.4523 5.46486 14.4083C5.61235 14.3643 5.76729 14.3511 5.92009 14.3694C6.07291 14.3877 6.22033 14.4371 6.35326 14.5147C6.48619 14.5923 6.60179 14.6963 6.69292 14.8203C6.78404 14.9443 6.84875 15.0857 6.88304 15.2358C6.91732 15.3858 6.92046 15.5413 6.89226 15.6926C6.86405 15.8439 6.80511 15.9878 6.71906 16.1154C6.63302 16.243 6.52171 16.3516 6.39202 16.4344C5.84077 16.8403 5.20421 17.6063 4.96889 19.0313C6.39483 18.796 7.15983 18.1594 7.56577 17.6082C7.64863 17.4785 7.75722 17.3672 7.88482 17.2811C8.01243 17.1951 8.15633 17.1361 8.30762 17.1079C8.45892 17.0797 8.61439 17.0829 8.76443 17.1171C8.91446 17.1514 9.05586 17.2161 9.17989 17.3073C9.30391 17.3984 9.40792 17.514 9.48548 17.6469C9.56304 17.7798 9.6125 17.9273 9.63081 18.0801C9.64911 18.2329 9.63586 18.3878 9.59189 18.5353C9.54791 18.6828 9.47414 18.8197 9.37514 18.9375Z" fill="#130032"/>
</svg>
