<svg width="24" height="24" viewBox="0 0 24 24" fill="none" xmlns="http://www.w3.org/2000/svg">
<path d="M19.5 14.625H4.5C4.00272 14.625 3.52581 14.8225 3.17417 15.1742C2.82254 15.5258 2.625 16.0027 2.625 16.5V18.75C2.625 19.2473 2.82254 19.7242 3.17417 20.0758C3.52581 20.4275 4.00272 20.625 4.5 20.625H19.5C19.9973 20.625 20.4742 20.4275 20.8258 20.0758C21.1775 19.7242 21.375 19.2473 21.375 18.75V16.5C21.375 16.0027 21.1775 15.5258 20.8258 15.1742C20.4742 14.8225 19.9973 14.625 19.5 14.625ZM19.125 18.375H4.875V16.875H19.125V18.375ZM19.5 7.5H4.5C4.00272 7.5 3.52581 7.69754 3.17417 8.04917C2.82254 8.40081 2.625 8.87772 2.625 9.375V11.625C2.625 12.1223 2.82254 12.5992 3.17417 12.9508C3.52581 13.3025 4.00272 13.5 4.5 13.5H19.5C19.9973 13.5 20.4742 13.3025 20.8258 12.9508C21.1775 12.5992 21.375 12.1223 21.375 11.625V9.375C21.375 8.87772 21.1775 8.40081 20.8258 8.04917C20.4742 7.69754 19.9973 7.5 19.5 7.5ZM19.125 11.25H4.875V9.75H19.125V11.25ZM9 3.375C9 3.07663 9.11853 2.79048 9.3295 2.5795C9.54048 2.36853 9.82663 2.25 10.125 2.25H10.875V1.5C10.875 1.20163 10.9935 0.915483 11.2045 0.704505C11.4155 0.493526 11.7016 0.375 12 0.375C12.2984 0.375 12.5845 0.493526 12.7955 0.704505C13.0065 0.915483 13.125 1.20163 13.125 1.5V2.25H13.875C14.1734 2.25 14.4595 2.36853 14.6705 2.5795C14.8815 2.79048 15 3.07663 15 3.375C15 3.67337 14.8815 3.95952 14.6705 4.1705C14.4595 4.38147 14.1734 4.5 13.875 4.5H13.125V5.25C13.125 5.54837 13.0065 5.83452 12.7955 6.0455C12.5845 6.25647 12.2984 6.375 12 6.375C11.7016 6.375 11.4155 6.25647 11.2045 6.0455C10.9935 5.83452 10.875 5.54837 10.875 5.25V4.5H10.125C9.82663 4.5 9.54048 4.38147 9.3295 4.1705C9.11853 3.95952 9 3.67337 9 3.375Z" fill="#130032"/>
</svg>
