<svg width="24" height="24" viewBox="0 0 24 24" fill="none" xmlns="http://www.w3.org/2000/svg">
<path d="M19.5 10.5H4.5C4.00272 10.5 3.52581 10.6975 3.17417 11.0492C2.82254 11.4008 2.625 11.8777 2.625 12.375V14.625C2.625 15.1223 2.82254 15.5992 3.17417 15.9508C3.52581 16.3025 4.00272 16.5 4.5 16.5H19.5C19.9973 16.5 20.4742 16.3025 20.8258 15.9508C21.1775 15.5992 21.375 15.1223 21.375 14.625V12.375C21.375 11.8777 21.1775 11.4008 20.8258 11.0492C20.4742 10.6975 19.9973 10.5 19.5 10.5ZM19.125 14.25H4.875V12.75H19.125V14.25ZM19.5 3.375H4.5C4.00272 3.375 3.52581 3.57254 3.17417 3.92417C2.82254 4.27581 2.625 4.75272 2.625 5.25V7.5C2.625 7.99728 2.82254 8.47419 3.17417 8.82583C3.52581 9.17746 4.00272 9.375 4.5 9.375H19.5C19.9973 9.375 20.4742 9.17746 20.8258 8.82583C21.1775 8.47419 21.375 7.99728 21.375 7.5V5.25C21.375 4.75272 21.1775 4.27581 20.8258 3.92417C20.4742 3.57254 19.9973 3.375 19.5 3.375ZM19.125 7.125H4.875V5.625H19.125V7.125ZM15 20.625C15 20.9234 14.8815 21.2095 14.6705 21.4205C14.4595 21.6315 14.1734 21.75 13.875 21.75H13.125V22.5C13.125 22.7984 13.0065 23.0845 12.7955 23.2955C12.5845 23.5065 12.2984 23.625 12 23.625C11.7016 23.625 11.4155 23.5065 11.2045 23.2955C10.9935 23.0845 10.875 22.7984 10.875 22.5V21.75H10.125C9.82663 21.75 9.54048 21.6315 9.3295 21.4205C9.11853 21.2095 9 20.9234 9 20.625C9 20.3266 9.11853 20.0405 9.3295 19.8295C9.54048 19.6185 9.82663 19.5 10.125 19.5H10.875V18.75C10.875 18.4516 10.9935 18.1655 11.2045 17.9545C11.4155 17.7435 11.7016 17.625 12 17.625C12.2984 17.625 12.5845 17.7435 12.7955 17.9545C13.0065 18.1655 13.125 18.4516 13.125 18.75V19.5H13.875C14.1734 19.5 14.4595 19.6185 14.6705 19.8295C14.8815 20.0405 15 20.3266 15 20.625Z" fill="#130032"/>
</svg>
