<svg width="24" height="24" viewBox="0 0 24 24" fill="none" xmlns="http://www.w3.org/2000/svg">
<path d="M21.375 18C21.375 18.2984 21.2565 18.5845 21.0455 18.7955C20.8345 19.0065 20.5484 19.125 20.25 19.125C19.9516 19.125 19.6655 19.0065 19.4545 18.7955C19.2435 18.5845 19.125 18.2984 19.125 18C19.125 10.7625 13.2375 4.875 6 4.875C5.70163 4.875 5.41548 4.75647 5.20451 4.5455C4.99353 4.33452 4.875 4.04837 4.875 3.75C4.875 3.45163 4.99353 3.16548 5.20451 2.9545C5.41548 2.74353 5.70163 2.625 6 2.625C14.4778 2.625 21.375 9.52219 21.375 18ZM6 9.375C5.70163 9.375 5.41548 9.49353 5.20451 9.7045C4.99353 9.91548 4.875 10.2016 4.875 10.5C4.875 10.7984 4.99353 11.0845 5.20451 11.2955C5.41548 11.5065 5.70163 11.625 6 11.625C7.69022 11.6267 9.31072 12.2989 10.5059 13.4941C11.7011 14.6893 12.3733 16.3098 12.375 18C12.375 18.2984 12.4935 18.5845 12.7045 18.7955C12.9155 19.0065 13.2016 19.125 13.5 19.125C13.7984 19.125 14.0845 19.0065 14.2955 18.7955C14.5065 18.5845 14.625 18.2984 14.625 18C14.6225 15.7133 13.713 13.5209 12.0961 11.9039C10.4791 10.287 8.28673 9.37748 6 9.375ZM6.375 16.125C6.07833 16.125 5.78832 16.213 5.54165 16.3778C5.29497 16.5426 5.10271 16.7769 4.98918 17.051C4.87565 17.3251 4.84594 17.6267 4.90382 17.9176C4.9617 18.2086 5.10456 18.4759 5.31434 18.6857C5.52412 18.8954 5.79139 19.0383 6.08237 19.0962C6.37334 19.1541 6.67494 19.1244 6.94903 19.0108C7.22311 18.8973 7.45738 18.705 7.62221 18.4584C7.78703 18.2117 7.875 17.9217 7.875 17.625C7.875 17.2272 7.71697 16.8456 7.43566 16.5643C7.15436 16.283 6.77283 16.125 6.375 16.125Z" fill="#130032"/>
</svg>
