<svg width="24" height="24" viewBox="0 0 24 24" fill="none" xmlns="http://www.w3.org/2000/svg">
<path d="M10.2881 13.7119C10.9517 14.3721 11.4778 15.1573 11.836 16.022C12.1942 16.8868 12.3774 17.814 12.375 18.7501C12.375 19.0484 12.2565 19.3346 12.0455 19.5456C11.8345 19.7565 11.5484 19.8751 11.25 19.8751C10.9516 19.8751 10.6655 19.7565 10.4545 19.5456C10.2435 19.3346 10.125 19.0484 10.125 18.7501C10.125 17.4571 9.61139 16.2172 8.69715 15.3029C7.78291 14.3887 6.54293 13.8751 5.25 13.8751C4.95163 13.8751 4.66548 13.7565 4.45451 13.5456C4.24353 13.3346 4.125 13.0484 4.125 12.7501C4.125 12.4517 4.24353 12.1655 4.45451 11.9546C4.66548 11.7436 4.95163 11.6251 5.25 11.6251C6.18604 11.6225 7.11328 11.8057 7.97807 12.1639C8.84286 12.5221 9.62803 13.0483 10.2881 13.7119ZM5.25 7.12506C4.95163 7.12506 4.66548 7.24359 4.45451 7.45457C4.24353 7.66554 4.125 7.95169 4.125 8.25006C4.125 8.54843 4.24353 8.83458 4.45451 9.04556C4.66548 9.25653 4.95163 9.37506 5.25 9.37506C7.73641 9.37506 10.121 10.3628 11.8791 12.1209C13.6373 13.8791 14.625 16.2637 14.625 18.7501C14.625 19.0484 14.7435 19.3346 14.9545 19.5456C15.1655 19.7565 15.4516 19.8751 15.75 19.8751C16.0484 19.8751 16.3345 19.7565 16.5455 19.5456C16.7565 19.3346 16.875 19.0484 16.875 18.7501C16.875 17.2234 16.5743 15.7118 15.9901 14.3014C15.4059 12.891 14.5496 11.6094 13.4701 10.5299C12.3906 9.45046 11.1091 8.59417 9.6987 8.00996C8.28829 7.42575 6.77662 7.12506 5.25 7.12506ZM16.6519 7.34819C15.1581 5.84603 13.3813 4.65511 11.4241 3.84438C9.46695 3.03365 7.36842 2.61921 5.25 2.62506C4.95163 2.62506 4.66548 2.74359 4.45451 2.95457C4.24353 3.16554 4.125 3.45169 4.125 3.75006C4.125 4.04843 4.24353 4.33458 4.45451 4.54556C4.66548 4.75653 4.95163 4.87506 5.25 4.87506C7.07283 4.86997 8.87857 5.22655 10.5626 5.92415C12.2467 6.62176 13.7757 7.64653 15.0609 8.93912C16.3535 10.2244 17.3783 11.7534 18.0759 13.4374C18.7735 15.1215 19.1301 16.9272 19.125 18.7501C19.125 19.0484 19.2435 19.3346 19.4545 19.5456C19.6655 19.7565 19.9516 19.8751 20.25 19.8751C20.5484 19.8751 20.8345 19.7565 21.0455 19.5456C21.2565 19.3346 21.375 19.0484 21.375 18.7501C21.3809 16.6316 20.9664 14.5331 20.1557 12.576C19.3449 10.6188 18.154 8.84192 16.6519 7.34819ZM5.625 16.8751C5.32833 16.8751 5.03832 16.963 4.79165 17.1279C4.54497 17.2927 4.35271 17.5269 4.23918 17.801C4.12565 18.0751 4.09594 18.3767 4.15382 18.6677C4.2117 18.9587 4.35456 19.2259 4.56434 19.4357C4.77412 19.6455 5.04139 19.7884 5.33237 19.8462C5.62334 19.9041 5.92494 19.8744 6.19903 19.7609C6.47311 19.6474 6.70738 19.4551 6.87221 19.2084C7.03703 18.9617 7.125 18.6717 7.125 18.3751C7.125 17.9772 6.96697 17.5957 6.68566 17.3144C6.40436 17.0331 6.02283 16.8751 5.625 16.8751Z" fill="#130032"/>
</svg>
