<svg width="24" height="24" viewBox="0 0 24 24" fill="none" xmlns="http://www.w3.org/2000/svg">
<path d="M18.75 1.125C18.4516 1.125 18.1655 1.24353 17.9545 1.4545C17.7435 1.66548 17.625 1.95163 17.625 2.25V3.375H15.375V2.25C15.375 1.95163 15.2565 1.66548 15.0455 1.4545C14.8345 1.24353 14.5484 1.125 14.25 1.125C13.9516 1.125 13.6655 1.24353 13.4545 1.4545C13.2435 1.66548 13.125 1.95163 13.125 2.25V3.375H10.875V2.25C10.875 1.95163 10.7565 1.66548 10.5455 1.4545C10.3345 1.24353 10.0484 1.125 9.75 1.125C9.45163 1.125 9.16548 1.24353 8.9545 1.4545C8.74353 1.66548 8.625 1.95163 8.625 2.25V3.375H6.375V2.25C6.375 1.95163 6.25647 1.66548 6.0455 1.4545C5.83452 1.24353 5.54837 1.125 5.25 1.125C4.95163 1.125 4.66548 1.24353 4.4545 1.4545C4.24353 1.66548 4.125 1.95163 4.125 2.25V21.75C4.125 22.0484 4.24353 22.3345 4.4545 22.5455C4.66548 22.7565 4.95163 22.875 5.25 22.875C5.54837 22.875 5.83452 22.7565 6.0455 22.5455C6.25647 22.3345 6.375 22.0484 6.375 21.75V20.625H8.625V21.75C8.625 22.0484 8.74353 22.3345 8.9545 22.5455C9.16548 22.7565 9.45163 22.875 9.75 22.875C10.0484 22.875 10.3345 22.7565 10.5455 22.5455C10.7565 22.3345 10.875 22.0484 10.875 21.75V20.625H13.125V21.75C13.125 22.0484 13.2435 22.3345 13.4545 22.5455C13.6655 22.7565 13.9516 22.875 14.25 22.875C14.5484 22.875 14.8345 22.7565 15.0455 22.5455C15.2565 22.3345 15.375 22.0484 15.375 21.75V20.625H17.625V21.75C17.625 22.0484 17.7435 22.3345 17.9545 22.5455C18.1655 22.7565 18.4516 22.875 18.75 22.875C19.0484 22.875 19.3345 22.7565 19.5455 22.5455C19.7565 22.3345 19.875 22.0484 19.875 21.75V2.25C19.875 1.95163 19.7565 1.66548 19.5455 1.4545C19.3345 1.24353 19.0484 1.125 18.75 1.125ZM6.375 5.625H17.625V18.375H6.375V5.625ZM12 16.875C12.1943 16.875 12.3853 16.8246 12.5544 16.7288C12.7234 16.633 12.8648 16.4951 12.9647 16.3284L15.2147 12.5784C15.3194 12.4037 15.3748 12.2038 15.3748 12C15.3748 11.7962 15.3194 11.5963 15.2147 11.4216L12.9647 7.67156C12.8647 7.50497 12.7233 7.36711 12.5543 7.27139C12.3852 7.17567 12.1943 7.12536 12 7.12536C11.8057 7.12536 11.6148 7.17567 11.4457 7.27139C11.2767 7.36711 11.1353 7.50497 11.0353 7.67156L8.78531 11.4216C8.68055 11.5963 8.62521 11.7962 8.62521 12C8.62521 12.2038 8.68055 12.4037 8.78531 12.5784L11.0353 16.3284C11.1352 16.4951 11.2766 16.633 11.4456 16.7288C11.6147 16.8246 11.8057 16.875 12 16.875ZM12 10.4362L12.9375 12L12 13.5637L11.0625 12L12 10.4362Z" fill="#130032"/>
</svg>
