<svg width="24" height="24" viewBox="0 0 24 24" fill="none" xmlns="http://www.w3.org/2000/svg">
<path d="M23.5146 16.0119C23.4228 15.8209 23.2788 15.6597 23.0993 15.5469C22.9199 15.4341 22.7122 15.3743 22.5002 15.3744H13.8752V13.8744H20.2502C20.4682 13.8744 20.6814 13.8111 20.864 13.6922C21.0466 13.5733 21.1908 13.4039 21.2789 13.2046C21.3671 13.0053 21.3955 12.7847 21.3607 12.5696C21.3258 12.3545 21.2293 12.1541 21.0827 11.9928L13.8752 4.06439V1.12439C13.8751 0.893605 13.804 0.668438 13.6716 0.47943C13.5391 0.290421 13.3518 0.146717 13.1349 0.0678054C12.918 -0.0111062 12.6821 -0.0214066 12.4592 0.0383012C12.2363 0.0980089 12.0371 0.224835 11.8887 0.401581L2.13867 12.0266C2.00113 12.1906 1.91325 12.3905 1.88534 12.6027C1.85744 12.815 1.89067 13.0308 1.98113 13.2248C2.07159 13.4188 2.21553 13.583 2.39605 13.6981C2.57657 13.8131 2.78617 13.8743 3.00024 13.8744H11.6252V15.3744H1.50024C1.28827 15.3743 1.0806 15.4342 0.901153 15.547C0.72171 15.6599 0.577796 15.8211 0.48599 16.0121C0.394185 16.2032 0.358224 16.4163 0.382252 16.6269C0.406279 16.8375 0.489317 17.0371 0.621798 17.2025L3.3968 20.6713C3.57198 20.8912 3.7946 21.0686 4.04802 21.1904C4.30143 21.3121 4.57909 21.375 4.86024 21.3744H19.1402C19.4215 21.3749 19.6992 21.3119 19.9526 21.19C20.206 21.068 20.4286 20.8904 20.6037 20.6703L23.3787 17.2016C23.511 17.0362 23.594 16.8368 23.6181 16.6263C23.6421 16.4159 23.6063 16.2029 23.5146 16.0119ZM17.7068 11.6244H13.8752V7.40564L17.7068 11.6244ZM5.41242 11.6244L11.6252 4.21814V11.6244H5.41242ZM18.9593 19.1244H5.04117L3.84399 17.6244H20.1565L18.9593 19.1244Z" fill="#130032"/>
</svg>
