<svg width="24" height="24" viewBox="0 0 24 24" fill="none" xmlns="http://www.w3.org/2000/svg">
<path d="M21.375 3.75V6.375C21.375 6.67337 21.2565 6.95952 21.0455 7.1705C20.8345 7.38147 20.5484 7.5 20.25 7.5C19.9516 7.5 19.6655 7.38147 19.4545 7.1705C19.2435 6.95952 19.125 6.67337 19.125 6.375V4.875H17.625C17.3266 4.875 17.0405 4.75647 16.8295 4.5455C16.6185 4.33452 16.5 4.04837 16.5 3.75C16.5 3.45163 16.6185 3.16548 16.8295 2.9545C17.0405 2.74353 17.3266 2.625 17.625 2.625H20.25C20.5484 2.625 20.8345 2.74353 21.0455 2.9545C21.2565 3.16548 21.375 3.45163 21.375 3.75ZM20.25 16.5C19.9516 16.5 19.6655 16.6185 19.4545 16.8295C19.2435 17.0405 19.125 17.3266 19.125 17.625V19.125H17.625C17.3266 19.125 17.0405 19.2435 16.8295 19.4545C16.6185 19.6655 16.5 19.9516 16.5 20.25C16.5 20.5484 16.6185 20.8345 16.8295 21.0455C17.0405 21.2565 17.3266 21.375 17.625 21.375H20.25C20.5484 21.375 20.8345 21.2565 21.0455 21.0455C21.2565 20.8345 21.375 20.5484 21.375 20.25V17.625C21.375 17.3266 21.2565 17.0405 21.0455 16.8295C20.8345 16.6185 20.5484 16.5 20.25 16.5ZM6.375 19.125H4.875V17.625C4.875 17.3266 4.75647 17.0405 4.5455 16.8295C4.33452 16.6185 4.04837 16.5 3.75 16.5C3.45163 16.5 3.16548 16.6185 2.9545 16.8295C2.74353 17.0405 2.625 17.3266 2.625 17.625V20.25C2.625 20.5484 2.74353 20.8345 2.9545 21.0455C3.16548 21.2565 3.45163 21.375 3.75 21.375H6.375C6.67337 21.375 6.95952 21.2565 7.1705 21.0455C7.38147 20.8345 7.5 20.5484 7.5 20.25C7.5 19.9516 7.38147 19.6655 7.1705 19.4545C6.95952 19.2435 6.67337 19.125 6.375 19.125ZM3.75 7.5C4.04837 7.5 4.33452 7.38147 4.5455 7.1705C4.75647 6.95952 4.875 6.67337 4.875 6.375V4.875H6.375C6.67337 4.875 6.95952 4.75647 7.1705 4.5455C7.38147 4.33452 7.5 4.04837 7.5 3.75C7.5 3.45163 7.38147 3.16548 7.1705 2.9545C6.95952 2.74353 6.67337 2.625 6.375 2.625H3.75C3.45163 2.625 3.16548 2.74353 2.9545 2.9545C2.74353 3.16548 2.625 3.45163 2.625 3.75V6.375C2.625 6.67337 2.74353 6.95952 2.9545 7.1705C3.16548 7.38147 3.45163 7.5 3.75 7.5ZM12 19.5C10.5166 19.5 9.06659 19.0601 7.83322 18.236C6.59985 17.4119 5.63856 16.2406 5.0709 14.8701C4.50325 13.4997 4.35472 11.9917 4.64411 10.5368C4.9335 9.08197 5.64781 7.74559 6.6967 6.6967C7.74559 5.64781 9.08197 4.9335 10.5368 4.64411C11.9917 4.35472 13.4997 4.50325 14.8701 5.0709C16.2406 5.63856 17.4119 6.59985 18.236 7.83322C19.0601 9.06659 19.5 10.5166 19.5 12C19.4978 13.9884 18.7069 15.8948 17.3008 17.3008C15.8948 18.7069 13.9884 19.4978 12 19.5ZM17.25 12C17.25 10.9616 16.9421 9.94661 16.3652 9.08326C15.7883 8.2199 14.9684 7.54699 14.0091 7.14963C13.0498 6.75227 11.9942 6.6483 10.9758 6.85088C9.95738 7.05345 9.02192 7.55346 8.28769 8.28769C7.55346 9.02192 7.05345 9.95738 6.85088 10.9758C6.6483 11.9942 6.75227 13.0498 7.14963 14.0091C7.54699 14.9684 8.2199 15.7883 9.08326 16.3652C9.94661 16.9421 10.9616 17.25 12 17.25C13.3919 17.2485 14.7264 16.6949 15.7107 15.7107C16.6949 14.7264 17.2485 13.3919 17.25 12ZM9.75 9.75C9.45333 9.75 9.16332 9.83797 8.91665 10.0028C8.66997 10.1676 8.47771 10.4019 8.36418 10.676C8.25065 10.9501 8.22094 11.2517 8.27882 11.5426C8.3367 11.8336 8.47956 12.1009 8.68934 12.3107C8.89912 12.5204 9.16639 12.6633 9.45736 12.7212C9.74834 12.7791 10.0499 12.7494 10.324 12.6358C10.5981 12.5223 10.8324 12.33 10.9972 12.0834C11.162 11.8367 11.25 11.5467 11.25 11.25C11.25 10.8522 11.092 10.4706 10.8107 10.1893C10.5294 9.90804 10.1478 9.75 9.75 9.75ZM14.25 9.75C13.9533 9.75 13.6633 9.83797 13.4166 10.0028C13.17 10.1676 12.9777 10.4019 12.8642 10.676C12.7506 10.9501 12.7209 11.2517 12.7788 11.5426C12.8367 11.8336 12.9796 12.1009 13.1893 12.3107C13.3991 12.5204 13.6664 12.6633 13.9574 12.7212C14.2483 12.7791 14.5499 12.7494 14.824 12.6358C15.0981 12.5223 15.3324 12.33 15.4972 12.0834C15.662 11.8367 15.75 11.5467 15.75 11.25C15.75 10.8522 15.592 10.4706 15.3107 10.1893C15.0294 9.90804 14.6478 9.75 14.25 9.75Z" fill="#130032"/>
</svg>
