<svg width="24" height="24" viewBox="0 0 24 24" fill="none" xmlns="http://www.w3.org/2000/svg">
<path d="M22.3858 17.2308L9.21394 8.21766C9.32104 7.86349 9.37537 7.49548 9.37519 7.12547C9.37529 6.27709 9.08772 5.45375 8.55945 4.78992C8.03117 4.12609 7.29341 3.66101 6.46667 3.47064C5.63993 3.28026 4.77306 3.37585 4.00767 3.74179C3.24227 4.10773 2.62357 4.72239 2.25263 5.48537C1.88169 6.24836 1.78043 7.11458 1.96539 7.94255C2.15035 8.77052 2.61059 9.51131 3.27095 10.0439C3.93131 10.5765 4.75275 10.8695 5.60111 10.8749C6.44947 10.8804 7.27461 10.598 7.94175 10.0739L10.7542 12.0014L7.94175 13.9289C7.37354 13.4825 6.68845 13.2097 5.9689 13.1435C5.24934 13.0772 4.52596 13.2202 3.88578 13.5554C3.24559 13.8905 2.71587 14.4035 2.36033 15.0326C2.00479 15.6616 1.83857 16.3801 1.88168 17.1014C1.92478 17.8227 2.17537 18.5162 2.6033 19.0984C3.03123 19.6807 3.61828 20.1269 4.29382 20.3834C4.96936 20.64 5.70462 20.6958 6.41117 20.5443C7.11771 20.3928 7.76544 20.0404 8.27644 19.5295C8.62614 19.1819 8.90334 18.7683 9.09196 18.3127C9.28057 17.8571 9.37684 17.3686 9.37519 16.8755C9.37546 16.5052 9.32113 16.1368 9.21394 15.7823L12.7502 13.3636L21.1146 19.088C21.2365 19.1714 21.3737 19.2301 21.5183 19.2605C21.6629 19.291 21.8121 19.2927 21.9573 19.2654C22.1026 19.2382 22.2411 19.1827 22.3649 19.102C22.4886 19.0213 22.5953 18.9169 22.6788 18.795C22.7623 18.6731 22.8209 18.5359 22.8513 18.3913C22.8818 18.2467 22.8835 18.0975 22.8563 17.9522C22.8291 17.807 22.7735 17.6685 22.6928 17.5447C22.6121 17.4209 22.5078 17.3143 22.3858 17.2308ZM6.6855 17.9377C6.44008 18.1829 6.11723 18.3355 5.77193 18.3695C5.42663 18.4034 5.08025 18.3166 4.79177 18.1238C4.50329 17.931 4.29056 17.6442 4.18982 17.3122C4.08907 16.9802 4.10653 16.6235 4.23924 16.3029C4.37194 15.9824 4.61167 15.7177 4.9176 15.554C5.22354 15.3904 5.57675 15.3378 5.91708 15.4053C6.2574 15.4728 6.5638 15.6562 6.78409 15.9243C7.00437 16.1924 7.12491 16.5285 7.12519 16.8755C7.12534 17.0727 7.08659 17.2681 7.01114 17.4504C6.93569 17.6326 6.82503 17.7982 6.6855 17.9377ZM4.56487 8.18485C4.355 7.97511 4.21204 7.70783 4.15408 7.41684C4.09612 7.12584 4.12577 6.82419 4.23927 6.55004C4.35278 6.27589 4.54503 6.04157 4.79173 5.8767C5.03842 5.71184 5.32847 5.62384 5.62519 5.62384C5.9219 5.62384 6.21195 5.71184 6.45864 5.8767C6.70534 6.04157 6.8976 6.27589 7.0111 6.55004C7.1246 6.82419 7.15425 7.12584 7.09629 7.41684C7.03833 7.70783 6.89538 7.97511 6.6855 8.18485C6.40422 8.46594 6.02284 8.62384 5.62519 8.62384C5.22753 8.62384 4.84615 8.46594 4.56487 8.18485ZM15.1417 10.3636C15.0583 10.2417 14.9998 10.1045 14.9694 9.95989C14.939 9.81531 14.9373 9.66615 14.9646 9.52095C14.9918 9.37574 15.0474 9.23732 15.1282 9.11359C15.2089 8.98986 15.3132 8.88325 15.4352 8.79985L21.1146 4.91297C21.3608 4.74439 21.664 4.68055 21.9573 4.73549C22.2507 4.79044 22.5102 4.95966 22.6788 5.20594C22.8474 5.45222 22.9112 5.75538 22.8563 6.04872C22.8013 6.34207 22.6321 6.60158 22.3858 6.77016L16.7055 10.657C16.5836 10.7404 16.4464 10.799 16.3018 10.8294C16.1572 10.8598 16.0081 10.8614 15.8628 10.8342C15.7176 10.8069 15.5792 10.7514 15.4555 10.6706C15.3318 10.5899 15.2252 10.4855 15.1417 10.3636Z" fill="#130032"/>
</svg>
