<svg width="24" height="24" viewBox="0 0 24 24" fill="none" xmlns="http://www.w3.org/2000/svg">
<path d="M19.8748 12.375H19.8111L16.8167 3.39469C16.7421 3.17067 16.5989 2.97579 16.4075 2.83765C16.216 2.69951 15.9859 2.62511 15.7498 2.625H12.7498C12.4514 2.625 12.1653 2.74353 11.9543 2.9545C11.7433 3.16548 11.6248 3.45163 11.6248 3.75C11.6248 4.04837 11.7433 4.33452 11.9543 4.5455C12.1653 4.75647 12.4514 4.875 12.7498 4.875H14.9389L16.3292 9.04594L10.7426 15.375H7.7998C7.62138 14.4976 7.13491 13.713 6.42835 13.163C5.72179 12.6131 4.84177 12.3341 3.9474 12.3765C3.05304 12.4189 2.20336 12.7799 1.55201 13.3942C0.900647 14.0086 0.490597 14.8357 0.395997 15.726C0.301396 16.6164 0.528489 17.5112 1.03622 18.2487C1.54394 18.9862 2.29879 19.5177 3.16427 19.7471C4.02976 19.9765 4.94876 19.8886 5.75511 19.4994C6.56146 19.1102 7.20194 18.4453 7.56074 17.625H11.2498C11.4094 17.625 11.5672 17.5911 11.7126 17.5255C11.8581 17.4599 11.988 17.364 12.0936 17.2444L17.1561 11.5134L17.6811 13.0894C16.9579 13.6139 16.4457 14.3793 16.2368 15.2479C16.0278 16.1165 16.1358 17.0312 16.5413 17.8272C16.9469 18.6232 17.6232 19.2483 18.4487 19.5899C19.2741 19.9316 20.1944 19.9673 21.0439 19.6907C21.8934 19.4141 22.6162 18.8433 23.0822 18.0811C23.5482 17.3189 23.7268 16.4154 23.5858 15.5332C23.4448 14.6511 22.9935 13.8482 22.3132 13.2692C21.6328 12.6902 20.7682 12.3731 19.8748 12.375ZM4.1248 17.625C3.82813 17.625 3.53812 17.537 3.29145 17.3722C3.04477 17.2074 2.85251 16.9731 2.73898 16.699C2.62545 16.4249 2.59575 16.1233 2.65362 15.8324C2.7115 15.5414 2.85436 15.2741 3.06414 15.0643C3.27392 14.8546 3.54119 14.7117 3.83217 14.6538C4.12314 14.5959 4.42474 14.6256 4.69883 14.7392C4.97292 14.8527 5.20718 15.045 5.37201 15.2916C5.53683 15.5383 5.6248 15.8283 5.6248 16.125C5.6248 16.5228 5.46677 16.9044 5.18546 17.1857C4.90416 17.467 4.52263 17.625 4.1248 17.625ZM19.8748 17.625C19.5781 17.625 19.2881 17.537 19.0414 17.3722C18.7948 17.2074 18.6025 16.9731 18.489 16.699C18.3755 16.4249 18.3457 16.1233 18.4036 15.8324C18.4615 15.5414 18.6044 15.2741 18.8141 15.0643C19.0239 14.8546 19.2912 14.7117 19.5822 14.6538C19.8731 14.5959 20.1747 14.6256 20.4488 14.7392C20.7229 14.8527 20.9572 15.045 21.122 15.2916C21.2868 15.5383 21.3748 15.8283 21.3748 16.125C21.3748 16.5228 21.2168 16.9044 20.9355 17.1857C20.6542 17.467 20.2726 17.625 19.8748 17.625Z" fill="#130032"/>
</svg>
