<svg width="24" height="24" viewBox="0 0 24 24" fill="none" xmlns="http://www.w3.org/2000/svg">
<path d="M21.75 5.625V18.375C21.75 18.8723 21.5525 19.3492 21.2008 19.7008C20.8492 20.0525 20.3723 20.25 19.875 20.25H16.125C15.8266 20.25 15.5405 20.1315 15.3295 19.9205C15.1185 19.7095 15 19.4234 15 19.125C15 18.8266 15.1185 18.5405 15.3295 18.3295C15.5405 18.1185 15.8266 18 16.125 18H19.5V6H4.5V6.375C4.5 6.67337 4.38147 6.95952 4.1705 7.1705C3.95952 7.38147 3.67337 7.5 3.375 7.5C3.07663 7.5 2.79048 7.38147 2.5795 7.1705C2.36853 6.95952 2.25 6.67337 2.25 6.375V5.625C2.25 5.12772 2.44754 4.65081 2.79917 4.29917C3.15081 3.94754 3.62772 3.75 4.125 3.75H19.875C20.3723 3.75 20.8492 3.94754 21.2008 4.29917C21.5525 4.65081 21.75 5.12772 21.75 5.625ZM3.375 16.5C3.07663 16.5 2.79048 16.6185 2.5795 16.8295C2.36853 17.0405 2.25 17.3266 2.25 17.625C2.25 17.9234 2.36853 18.2095 2.5795 18.4205C2.79048 18.6315 3.07663 18.75 3.375 18.75C3.47446 18.75 3.56984 18.7895 3.64016 18.8598C3.71049 18.9302 3.75 19.0255 3.75 19.125C3.75 19.4234 3.86853 19.7095 4.0795 19.9205C4.29048 20.1315 4.57663 20.25 4.875 20.25C5.17337 20.25 5.45952 20.1315 5.6705 19.9205C5.88147 19.7095 6 19.4234 6 19.125C6 18.4288 5.72344 17.7611 5.23116 17.2688C4.73887 16.7766 4.07119 16.5 3.375 16.5ZM3.375 12.75C3.07663 12.75 2.79048 12.8685 2.5795 13.0795C2.36853 13.2905 2.25 13.5766 2.25 13.875C2.25 14.1734 2.36853 14.4595 2.5795 14.6705C2.79048 14.8815 3.07663 15 3.375 15C4.46864 15.0012 5.51713 15.4362 6.29045 16.2096C7.06376 16.9829 7.49876 18.0314 7.5 19.125C7.5 19.4234 7.61853 19.7095 7.8295 19.9205C8.04048 20.1315 8.32663 20.25 8.625 20.25C8.92337 20.25 9.20952 20.1315 9.4205 19.9205C9.63147 19.7095 9.75 19.4234 9.75 19.125C9.74826 17.4348 9.07606 15.8143 7.88089 14.6191C6.68572 13.4239 5.06522 12.7517 3.375 12.75ZM3.375 9C3.07663 9 2.79048 9.11853 2.5795 9.3295C2.36853 9.54048 2.25 9.82663 2.25 10.125C2.25 10.4234 2.36853 10.7095 2.5795 10.9205C2.79048 11.1315 3.07663 11.25 3.375 11.25C5.46289 11.2522 7.46463 12.0826 8.941 13.559C10.4174 15.0354 11.2478 17.0371 11.25 19.125C11.25 19.4234 11.3685 19.7095 11.5795 19.9205C11.7905 20.1315 12.0766 20.25 12.375 20.25C12.6734 20.25 12.9595 20.1315 13.1705 19.9205C13.3815 19.7095 13.5 19.4234 13.5 19.125C13.497 16.4406 12.4293 13.867 10.5312 11.9688C8.63301 10.0707 6.0594 9.00298 3.375 9Z" fill="#130032"/>
</svg>
