<svg width="24" height="24" viewBox="0 0 24 24" fill="none" xmlns="http://www.w3.org/2000/svg">
<g clip-path="url(#clip0_7_18065)">
<path d="M19.5459 4.45354C19.6508 4.55805 19.734 4.68224 19.7908 4.81899C19.8476 4.95574 19.8768 5.10234 19.8768 5.25041C19.8768 5.39848 19.8476 5.54509 19.7908 5.68183C19.734 5.81858 19.6508 5.94277 19.5459 6.04729L14.6709 10.9223C14.4596 11.1336 14.1729 11.2524 13.874 11.2524C13.5751 11.2524 13.2885 11.1336 13.0771 10.9223C12.8658 10.7109 12.7471 10.4243 12.7471 10.1254C12.7471 9.82652 12.8658 9.53988 13.0771 9.32854L17.9521 4.45354C18.0567 4.34866 18.1809 4.26544 18.3176 4.20866C18.4543 4.15188 18.601 4.12265 18.749 4.12265C18.8971 4.12265 19.0437 4.15188 19.1804 4.20866C19.3172 4.26544 19.4414 4.34866 19.5459 4.45354ZM23.625 5.47729C23.6268 6.14768 23.4956 6.81177 23.2391 7.43115C22.9826 8.05052 22.6058 8.6129 22.1306 9.08572L17.1403 14.076C16.9667 14.2509 16.7602 14.3896 16.5326 14.4841C16.3051 14.5785 16.061 14.6269 15.8146 14.6263H14.625V15.8292C14.6241 16.2379 14.4905 16.6353 14.2443 16.9617C14.2134 17.0025 14.1795 17.041 14.1431 17.077L13.3931 17.827C13.0415 18.1785 12.5646 18.3759 12.0675 18.3759C11.5703 18.3759 11.0934 18.1785 10.7418 17.827L9.25308 16.3382L2.2959 23.2963C2.19125 23.401 2.06702 23.484 1.93029 23.5406C1.79356 23.5973 1.64702 23.6264 1.49902 23.6264C1.35103 23.6264 1.20448 23.5973 1.06776 23.5406C0.931028 23.484 0.806794 23.401 0.702147 23.2963C0.5975 23.1917 0.514489 23.0675 0.457854 22.9307C0.40122 22.794 0.37207 22.6475 0.37207 22.4995C0.37207 22.3515 0.40122 22.2049 0.457854 22.0682C0.514489 21.9315 0.5975 21.8072 0.702147 21.7026L7.66027 14.7445L6.17433 13.2585C6.00014 13.0844 5.86196 12.8777 5.76769 12.6502C5.67341 12.4226 5.62489 12.1787 5.62489 11.9324C5.62489 11.6861 5.67341 11.4423 5.76769 11.2147C5.86196 10.9872 6.00014 10.7805 6.17433 10.6063L6.92433 9.85635C6.9605 9.81859 6.99935 9.7835 7.04058 9.75135C7.36719 9.50707 7.7643 9.37547 8.17215 9.37635H9.37496V8.18572C9.37432 7.93927 9.42255 7.69514 9.51685 7.46744C9.61114 7.23975 9.74964 7.033 9.92433 6.85916L14.9146 1.86885C15.6283 1.15545 16.5375 0.669667 17.5273 0.472926C18.517 0.276184 19.5429 0.377313 20.4751 0.763528C21.4074 1.14974 22.2043 1.8037 22.7649 2.64273C23.3256 3.48176 23.6249 4.46818 23.625 5.47729ZM21.375 5.47729C21.3749 4.91317 21.2076 4.36174 20.8941 3.89271C20.5807 3.42367 20.1353 3.05808 19.6141 2.84216C19.093 2.62623 18.5195 2.56966 17.9662 2.67959C17.4129 2.78953 16.9046 3.06103 16.5056 3.45979L11.625 8.3451V9.75135C11.625 10.2486 11.4274 10.7255 11.0758 11.0772C10.7242 11.4288 10.2472 11.6263 9.74996 11.6263H8.33808L8.03058 11.9338L10.0481 13.9523L12.0665 15.9698L12.374 15.6623V14.2513C12.374 13.7541 12.5716 13.2772 12.9232 12.9255C13.2748 12.5739 13.7517 12.3763 14.249 12.3763H15.6553L20.5359 7.49479C20.8023 7.23072 21.0136 6.91643 21.1576 6.57012C21.3016 6.22381 21.3755 5.85236 21.375 5.47729Z" fill="#130032"/>
</g>
<defs>
<clipPath id="clip0_7_18065">
<rect width="24" height="24" fill="white"/>
</clipPath>
</defs>
</svg>
