<svg width="24" height="24" viewBox="0 0 24 24" fill="none" xmlns="http://www.w3.org/2000/svg">
<g clip-path="url(#clip0_7_18063)">
<path d="M23.7093 14.25C23.5846 14.1122 21.4828 11.8266 18.0646 10.4353C17.8631 8.72156 17.2115 7.16344 16.1803 5.9625C14.7299 4.2675 12.6365 3.375 10.1249 3.375C5.1037 3.375 1.84588 7.85531 1.70995 8.04562C1.5359 8.28842 1.46543 8.59042 1.51404 8.88517C1.56265 9.17992 1.72637 9.4433 1.96917 9.61734C2.21196 9.79139 2.51396 9.86186 2.80871 9.81325C3.10346 9.76464 3.36684 9.60092 3.54088 9.35812C3.56713 9.31687 6.24838 5.625 10.1249 5.625C11.9859 5.625 13.4484 6.22969 14.4731 7.42313C15.0229 8.07744 15.4201 8.84607 15.6356 9.67313C14.7059 9.47416 13.7578 9.37423 12.8071 9.375C10.2759 9.375 8.13932 10.0434 6.6337 11.3091C5.27807 12.4491 4.49995 14.0419 4.49995 15.6797C4.49995 18.1369 6.32245 20.625 9.80713 20.625C14.6756 20.625 17.5265 16.8488 18.0449 12.8972C19.528 13.6183 20.8788 14.5844 22.0406 15.7547C22.1368 15.8732 22.2561 15.971 22.3913 16.0419C22.5264 16.1129 22.6746 16.1556 22.8268 16.1674C22.979 16.1792 23.1321 16.16 23.2766 16.1108C23.4211 16.0616 23.5541 15.9835 23.6675 15.8813C23.7809 15.7791 23.8722 15.6548 23.9361 15.5161C23.9999 15.3775 24.0348 15.2272 24.0387 15.0746C24.0427 14.922 24.0155 14.7702 23.9588 14.6284C23.9022 14.4867 23.8173 14.3579 23.7093 14.25ZM14.2846 16.2881C13.5084 17.2406 12.1021 18.375 9.80713 18.375C7.69495 18.375 6.74995 17.0212 6.74995 15.6797C6.74995 13.7269 8.64557 11.625 12.8071 11.625C13.8422 11.6277 14.872 11.7735 15.8671 12.0581C15.7724 13.635 15.2071 15.1556 14.2846 16.2881Z" fill="#130032"/>
</g>
<defs>
<clipPath id="clip0_7_18063">
<rect width="24" height="24" fill="white"/>
</clipPath>
</defs>
</svg>
