<svg width="24" height="24" viewBox="0 0 24 24" fill="none" xmlns="http://www.w3.org/2000/svg">
<path d="M19.5466 18.0456C19.4541 18.1379 19.3808 18.2475 19.3308 18.3682C19.2808 18.4888 19.2551 18.6181 19.2551 18.7487C19.2551 18.8793 19.2808 19.0087 19.3308 19.1293C19.3808 19.25 19.4541 19.3596 19.5466 19.4519C19.7579 19.6632 19.8766 19.9499 19.8766 20.2487C19.8766 20.5476 19.7579 20.8343 19.5466 21.0456C19.3352 21.257 19.0486 21.3757 18.7497 21.3757C18.4508 21.3757 18.1641 21.257 17.9528 21.0456C17.6509 20.7442 17.4113 20.3861 17.2479 19.992C17.0844 19.5979 17.0003 19.1754 17.0003 18.7487C17.0003 18.3221 17.0844 17.8996 17.2479 17.5055C17.4113 17.1113 17.6509 16.7533 17.9528 16.4519L18.8312 15.5734C18.9978 15.3832 19.0858 15.1367 19.0774 14.884C19.069 14.6312 18.9649 14.3912 18.7861 14.2124C18.6073 14.0336 18.3672 13.9294 18.1144 13.921C17.8617 13.9126 17.6153 14.0006 17.425 14.1672L11.1662 20.425C10.5571 21.0342 9.73086 21.3764 8.86936 21.3764C8.00787 21.3764 7.18166 21.0342 6.57249 20.425C5.96332 19.8158 5.62109 18.9896 5.62109 18.1281C5.62109 17.2666 5.96332 16.4404 6.57249 15.8312L15.8312 6.57343C15.9978 6.38316 16.0858 6.1367 16.0774 5.88397C16.069 5.63125 15.9649 5.39116 15.7861 5.21236C15.6073 5.03355 15.3672 4.92941 15.1144 4.92102C14.8617 4.91263 14.6153 5.00063 14.425 5.16718L8.16624 11.4241C7.55707 12.0332 6.73086 12.3754 5.86937 12.3754C5.00787 12.3754 4.18166 12.0332 3.57249 11.4241C2.96332 10.8149 2.62109 9.98867 2.62109 9.12718C2.62109 8.26568 2.96332 7.43947 3.57249 6.8303L7.45374 2.95374C7.66508 2.7424 7.95173 2.62366 8.25062 2.62366C8.5495 2.62366 8.83615 2.7424 9.04749 2.95374C9.25883 3.16508 9.37757 3.45173 9.37757 3.75062C9.37757 4.0495 9.25883 4.33615 9.04749 4.54749L5.1653 8.42405C4.99875 8.61432 4.91075 8.86078 4.91914 9.11351C4.92753 9.36624 5.03168 9.60632 5.21048 9.78512C5.38928 9.96393 5.62937 10.0681 5.8821 10.0765C6.13482 10.0849 6.38129 9.99685 6.57155 9.8303L12.8303 3.57249C13.4395 2.96332 14.2657 2.62109 15.1272 2.62109C15.9887 2.62109 16.8149 2.96332 17.4241 3.57249C18.0332 4.18166 18.3755 5.00787 18.3755 5.86937C18.3755 6.73086 18.0332 7.55707 17.4241 8.16624L8.16624 17.4241C7.99969 17.6143 7.91169 17.8608 7.92008 18.1135C7.92847 18.3662 8.03262 18.6063 8.21142 18.7851C8.39022 18.9639 8.63031 19.0681 8.88303 19.0765C9.13576 19.0849 9.38222 18.9969 9.57249 18.8303L15.8303 12.5725C16.1319 12.2709 16.49 12.0316 16.8841 11.8684C17.2782 11.7051 17.7006 11.6211 18.1272 11.6211C18.5537 11.6211 18.9761 11.7051 19.3702 11.8684C19.7643 12.0316 20.1224 12.2709 20.4241 12.5725C20.7257 12.8741 20.9649 13.2322 21.1282 13.6263C21.2914 14.0204 21.3755 14.4428 21.3755 14.8694C21.3755 15.2959 21.2914 15.7183 21.1282 16.1124C20.9649 16.5065 20.7257 16.8646 20.4241 17.1662L19.5466 18.0456Z" fill="#130032"/>
</svg>
