<svg width="24" height="24" viewBox="0 0 24 24" fill="none" xmlns="http://www.w3.org/2000/svg">
<path d="M21.4453 9.37969C21.1153 9.03563 20.775 8.68031 20.6634 8.41125C20.5641 8.17125 20.5566 7.67719 20.55 7.24219C20.5359 6.30469 20.5181 5.13844 19.6894 4.31063C18.8606 3.48281 17.6953 3.46687 16.7578 3.45C16.3228 3.44344 15.8287 3.43594 15.5887 3.33656C15.3197 3.225 14.9644 2.88469 14.6203 2.55469C13.9566 1.91813 13.1297 1.125 12 1.125C10.8703 1.125 10.0434 1.91813 9.37969 2.55469C9.03563 2.88469 8.68031 3.225 8.41125 3.33656C8.17125 3.43594 7.67719 3.44344 7.24219 3.45C6.30469 3.46875 5.13844 3.48187 4.3125 4.3125C3.48656 5.14313 3.46875 6.30469 3.45 7.24219C3.44344 7.67719 3.43594 8.17125 3.33656 8.41125C3.225 8.68031 2.88469 9.03563 2.55469 9.37969C1.91813 10.0434 1.125 10.875 1.125 12C1.125 13.125 1.91813 13.9566 2.55469 14.625C2.88469 14.9691 3.225 15.3244 3.33656 15.5934C3.43594 15.8334 3.44344 16.3275 3.45 16.7625C3.46406 17.7 3.48187 18.8663 4.31063 19.6941C5.13937 20.5219 6.30469 20.5378 7.24219 20.5547C7.67719 20.5613 8.17125 20.5688 8.41125 20.6681C8.68031 20.7797 9.03563 21.12 9.37969 21.45C10.0434 22.0819 10.875 22.875 12 22.875C13.125 22.875 13.9566 22.0819 14.6203 21.4453C14.9644 21.1153 15.3197 20.775 15.5887 20.6634C15.8287 20.5641 16.3228 20.5566 16.7578 20.55C17.6953 20.5359 18.8616 20.5181 19.6894 19.6894C20.5172 18.8606 20.5331 17.6953 20.55 16.7578C20.5566 16.3228 20.5641 15.8287 20.6634 15.5887C20.775 15.3197 21.1153 14.9644 21.4453 14.6203C22.0819 13.9566 22.875 13.1297 22.875 12C22.875 10.8703 22.0819 10.0434 21.4453 9.37969ZM19.8216 13.0631C19.3697 13.5319 18.8578 14.0681 18.5841 14.7281C18.3206 15.3656 18.3103 16.0556 18.3028 16.7241C18.2953 17.2266 18.285 17.9156 18.1012 18.0984C17.9175 18.2812 17.2294 18.2925 16.7269 18.3C16.0584 18.3103 15.3684 18.3206 14.7309 18.5812C14.0747 18.8541 13.5366 19.3659 13.0659 19.8178C12.7294 20.1413 12.225 20.625 12 20.625C11.775 20.625 11.2706 20.1412 10.9369 19.8216C10.4681 19.3697 9.93188 18.8578 9.27188 18.5841C8.63438 18.3206 7.94438 18.3103 7.27594 18.3028C6.77344 18.2953 6.08437 18.285 5.90156 18.1012C5.71875 17.9175 5.7075 17.2294 5.7 16.7269C5.68969 16.0584 5.67937 15.3684 5.41875 14.7309C5.145 14.0747 4.63312 13.5375 4.18125 13.0659C3.85875 12.7294 3.375 12.225 3.375 12C3.375 11.775 3.85875 11.2706 4.17844 10.9369C4.63031 10.4681 5.14219 9.93188 5.41594 9.27188C5.67938 8.63438 5.68969 7.94438 5.69719 7.27594C5.7075 6.77344 5.71875 6.08437 5.90625 5.90625C6.09375 5.72813 6.77813 5.71219 7.28063 5.70469C7.94906 5.69438 8.63906 5.68406 9.27656 5.42344C9.93281 5.15062 10.4709 4.63875 10.9416 4.18687C11.2706 3.85875 11.775 3.375 12 3.375C12.225 3.375 12.7294 3.85875 13.0631 4.17844C13.5319 4.63031 14.0681 5.14219 14.7281 5.41594C15.3656 5.67938 16.0556 5.68969 16.7241 5.69719C17.2266 5.70469 17.9156 5.715 18.0984 5.89875C18.2812 6.0825 18.2925 6.77063 18.3 7.27313C18.3103 7.94156 18.3206 8.63156 18.5812 9.26906C18.855 9.92531 19.3669 10.4625 19.8187 10.9341C20.1384 11.2678 20.6222 11.7722 20.6222 11.9972C20.6222 12.2222 20.1412 12.7294 19.8216 13.0631Z" fill="#130032"/>
</svg>
