<svg width="24" height="24" viewBox="0 0 24 24" fill="none" xmlns="http://www.w3.org/2000/svg">
<path d="M21.4453 9.37969C21.1153 9.03563 20.775 8.68031 20.6634 8.41125C20.5641 8.17125 20.5566 7.67719 20.55 7.24219C20.5359 6.30469 20.5181 5.13844 19.6894 4.31063C18.8606 3.48281 17.6953 3.46687 16.7578 3.45C16.3228 3.44344 15.8287 3.43594 15.5887 3.33656C15.3197 3.225 14.9644 2.88469 14.6203 2.55469C13.9566 1.91813 13.1297 1.125 12 1.125C10.8703 1.125 10.0434 1.91813 9.37969 2.55469C9.03563 2.88469 8.68031 3.225 8.41125 3.33656C8.17125 3.43594 7.67719 3.44344 7.24219 3.45C6.30469 3.46875 5.13844 3.48187 4.3125 4.3125C3.48656 5.14313 3.46875 6.30469 3.45 7.24219C3.44344 7.67719 3.43594 8.17125 3.33656 8.41125C3.225 8.68031 2.88469 9.03563 2.55469 9.37969C1.91813 10.0434 1.125 10.875 1.125 12C1.125 13.125 1.91813 13.9566 2.55469 14.625C2.88469 14.9691 3.225 15.3244 3.33656 15.5934C3.43594 15.8334 3.44344 16.3275 3.45 16.7625C3.46406 17.7 3.48187 18.8663 4.31063 19.6941C5.13937 20.5219 6.30469 20.5378 7.24219 20.5547C7.67719 20.5613 8.17125 20.5688 8.41125 20.6681C8.68031 20.7797 9.03563 21.12 9.37969 21.45C10.0434 22.0819 10.875 22.875 12 22.875C13.125 22.875 13.9566 22.0819 14.6203 21.4453C14.9644 21.1153 15.3197 20.775 15.5887 20.6634C15.8287 20.5641 16.3228 20.5566 16.7578 20.55C17.6953 20.5359 18.8616 20.5181 19.6894 19.6894C20.5172 18.8606 20.5331 17.6953 20.55 16.7578C20.5566 16.3228 20.5641 15.8287 20.6634 15.5887C20.775 15.3197 21.1153 14.9644 21.4453 14.6203C22.0819 13.9566 22.875 13.1297 22.875 12C22.875 10.8703 22.0819 10.0434 21.4453 9.37969ZM19.8216 13.0631C19.3697 13.5319 18.8578 14.0681 18.585 14.7281C18.3206 15.3656 18.3103 16.0556 18.3038 16.7241C18.2963 17.2266 18.2859 17.9156 18.1022 18.0984C17.9184 18.2812 17.2303 18.2925 16.7278 18.3C16.0594 18.3103 15.3694 18.3206 14.7319 18.5812C14.0756 18.8541 13.5384 19.3659 13.0669 19.8178C12.7294 20.1413 12.225 20.625 12 20.625C11.775 20.625 11.2706 20.1412 10.9369 19.8216C10.4681 19.3697 9.93188 18.8578 9.27188 18.585C8.63438 18.3206 7.94438 18.3103 7.27594 18.3038C6.77344 18.2963 6.08437 18.2859 5.90156 18.1022C5.71875 17.9184 5.7075 17.2303 5.7 16.7278C5.68969 16.0594 5.67937 15.3694 5.41875 14.7319C5.14594 14.0756 4.63406 13.5384 4.18219 13.0669C3.85875 12.7294 3.375 12.225 3.375 12C3.375 11.775 3.85875 11.2706 4.17844 10.9369C4.63031 10.4681 5.14219 9.93188 5.415 9.27188C5.67937 8.63438 5.68969 7.94438 5.69625 7.27594C5.7075 6.77344 5.71875 6.08437 5.90625 5.90625C6.09375 5.72813 6.77813 5.71219 7.28063 5.70469C7.94906 5.69438 8.63906 5.68406 9.27656 5.42344C9.93281 5.15062 10.47 4.63875 10.9416 4.18687C11.2706 3.85875 11.775 3.375 12 3.375C12.225 3.375 12.7294 3.85875 13.0631 4.17844C13.5319 4.63031 14.0681 5.14219 14.7281 5.415C15.3656 5.67937 16.0556 5.68969 16.7241 5.69625C17.2266 5.70375 17.9156 5.71406 18.0984 5.89781C18.2812 6.08156 18.2925 6.76969 18.3 7.27219C18.3103 7.94063 18.3206 8.63063 18.5812 9.26813C18.8541 9.92438 19.3659 10.4616 19.8178 10.9331C20.1375 11.2669 20.6213 11.7712 20.6213 11.9963C20.6213 12.2212 20.1412 12.7294 19.8216 13.0631ZM13.5 16.875C13.5 17.1717 13.412 17.4617 13.2472 17.7084C13.0824 17.955 12.8481 18.1473 12.574 18.2608C12.2999 18.3744 11.9983 18.4041 11.7074 18.3462C11.4164 18.2883 11.1491 18.1454 10.9393 17.9357C10.7296 17.7259 10.5867 17.4586 10.5288 17.1676C10.4709 16.8767 10.5006 16.5751 10.6142 16.301C10.7277 16.0269 10.92 15.7926 11.1666 15.6278C11.4133 15.463 11.7033 15.375 12 15.375C12.3978 15.375 12.7794 15.533 13.0607 15.8143C13.342 16.0956 13.5 16.4772 13.5 16.875ZM16.125 10.125C16.125 11.8472 14.8416 13.3012 13.0997 13.74C13.0411 14.0117 12.8839 14.2521 12.6586 14.4148C12.4333 14.5775 12.1557 14.651 11.8793 14.6212C11.603 14.5914 11.3475 14.4604 11.162 14.2533C10.9766 14.0463 10.8743 13.7779 10.875 13.5V12.75C10.875 12.4516 10.9935 12.1655 11.2045 11.9545C11.4155 11.7435 11.7016 11.625 12 11.625C13.0312 11.625 13.875 10.9519 13.875 10.125C13.875 9.29813 13.0312 8.625 12 8.625C10.9688 8.625 10.125 9.29813 10.125 10.125V10.5C10.125 10.7984 10.0065 11.0845 9.7955 11.2955C9.58452 11.5065 9.29837 11.625 9 11.625C8.70163 11.625 8.41548 11.5065 8.2045 11.2955C7.99353 11.0845 7.875 10.7984 7.875 10.5V10.125C7.875 8.05688 9.72563 6.375 12 6.375C14.2744 6.375 16.125 8.05688 16.125 10.125Z" fill="#130032"/>
</svg>
