<svg width="24" height="24" viewBox="0 0 24 24" fill="none" xmlns="http://www.w3.org/2000/svg">
<path d="M21.375 21.7513C21.375 22.0497 21.2565 22.3358 21.0455 22.5468C20.8345 22.7578 20.5484 22.8763 20.25 22.8763H10.5C10.2017 22.8763 9.91551 22.7578 9.70453 22.5468C9.49355 22.3358 9.37502 22.0497 9.37502 21.7513C9.37502 21.4529 9.49355 21.1668 9.70453 20.9558C9.91551 20.7448 10.2017 20.6263 10.5 20.6263H20.25C20.5484 20.6263 20.8345 20.7448 21.0455 20.9558C21.2565 21.1668 21.375 21.4529 21.375 21.7513ZM21.375 15.0013V17.6263C21.375 18.1236 21.1775 18.6005 20.8258 18.9521C20.4742 19.3038 19.9973 19.5013 19.5 19.5013H10.5094C10.1609 19.5024 9.81906 19.4058 9.52263 19.2225C9.22619 19.0393 8.98702 18.7767 8.83221 18.4644L3.5719 7.97005C3.44239 7.70931 3.375 7.42212 3.375 7.13099C3.375 6.83986 3.44239 6.55267 3.5719 6.29193L5.64565 2.15755C5.86713 1.7146 6.25485 1.37727 6.72418 1.21918C7.19351 1.0611 7.70631 1.09512 8.15065 1.3138L10.9453 2.65161L10.9622 2.66005C11.407 2.88235 11.7453 3.27223 11.9027 3.74394C12.06 4.21565 12.0235 4.73054 11.8013 5.17536L11.7853 5.2063L10.5469 7.5088L13.336 13.1263H19.5C19.9973 13.1263 20.4742 13.3238 20.8258 13.6755C21.1775 14.0271 21.375 14.504 21.375 15.0013ZM19.125 15.3763H13.1035C12.755 15.3774 12.4131 15.2808 12.1167 15.0975C11.8203 14.9143 11.5811 14.6517 11.4263 14.3394L8.44596 8.33943C8.31671 8.07928 8.24945 7.79273 8.24945 7.50224C8.24945 7.21175 8.31671 6.9252 8.44596 6.66505C8.45158 6.65474 8.45721 6.64443 8.4619 6.63411L9.60565 4.51349L7.49158 3.49818L5.66908 7.1263L10.741 17.2513H19.125V15.3763Z" fill="#130032"/>
</svg>
