<svg width="24" height="24" viewBox="0 0 24 24" fill="none" xmlns="http://www.w3.org/2000/svg">
<path d="M18.7498 19.8769H8.38572L18.7151 11.37C18.8317 11.2769 18.9287 11.1616 19.0003 11.0307C19.072 10.8998 19.1168 10.7559 19.1323 10.6075C19.1478 10.4591 19.1336 10.3091 19.0906 10.1662C19.0476 10.0233 18.9765 9.89043 18.8816 9.77526C18.7868 9.6601 18.6699 9.56496 18.5379 9.4954C18.4059 9.42583 18.2613 9.38322 18.1127 9.37005C17.964 9.35688 17.8143 9.37342 17.6721 9.4187C17.5299 9.46397 17.3981 9.53708 17.2845 9.63377L15.6176 11.0063C15.1104 10.744 14.5759 10.538 14.0238 10.3922C14.9275 9.93607 15.6509 9.18858 16.0773 8.27053C16.5037 7.35247 16.6081 6.31747 16.3737 5.33275C16.1392 4.34804 15.5796 3.47113 14.7853 2.8437C13.9909 2.21628 13.0083 1.875 11.996 1.875C10.9838 1.875 10.0011 2.21628 9.20678 2.8437C8.41244 3.47113 7.85284 4.34804 7.61839 5.33275C7.38395 6.31747 7.48835 7.35247 7.91474 8.27053C8.34112 9.18858 9.06458 9.93607 9.96822 10.3922C8.70985 10.7271 7.5543 11.3691 6.60526 12.2607C5.65622 13.1523 4.94338 14.2656 4.53072 15.5006C4.43599 15.7836 4.45754 16.0926 4.59063 16.3597C4.72372 16.6267 4.95745 16.83 5.24041 16.9247C5.52336 17.0194 5.83236 16.9979 6.09942 16.8648C6.36648 16.7317 6.56974 16.498 6.66447 16.215C7.13148 14.8238 8.1233 13.6699 9.42863 12.9992C10.734 12.3285 12.2496 12.194 13.6526 12.6244L4.53447 20.1338C4.35568 20.2811 4.22674 20.4801 4.16529 20.7035C4.10384 20.9269 4.11286 21.1638 4.19113 21.3819C4.26939 21.6 4.41309 21.7886 4.60257 21.9219C4.79205 22.0553 5.01808 22.1269 5.24978 22.1269H18.7498C19.0482 22.1269 19.3343 22.0084 19.5453 21.7974C19.7563 21.5864 19.8748 21.3003 19.8748 21.0019C19.8748 20.7035 19.7563 20.4174 19.5453 20.2064C19.3343 19.9954 19.0482 19.8769 18.7498 19.8769ZM11.9998 4.1269C12.4448 4.1269 12.8798 4.25886 13.2498 4.50609C13.6198 4.75332 13.9082 5.10473 14.0785 5.51586C14.2488 5.92699 14.2934 6.37939 14.2065 6.81585C14.1197 7.25231 13.9054 7.65322 13.5908 7.96789C13.2761 8.28256 12.8752 8.49685 12.4387 8.58366C12.0023 8.67048 11.5499 8.62592 11.1387 8.45563C10.7276 8.28533 10.3762 7.99694 10.129 7.62693C9.88174 7.25692 9.74978 6.82191 9.74978 6.3769C9.74978 5.78016 9.98683 5.20786 10.4088 4.78591C10.8307 4.36395 11.403 4.1269 11.9998 4.1269ZM19.182 14.7685C19.5192 15.5164 19.7368 16.3127 19.827 17.1281C19.8598 17.4248 19.7734 17.7223 19.5869 17.9552C19.4004 18.1882 19.1289 18.3375 18.8323 18.3703C18.5357 18.4032 18.2381 18.3168 18.0052 18.1303C17.7722 17.9437 17.6229 17.6723 17.5901 17.3756C17.5267 16.794 17.3717 16.226 17.1307 15.6928C17.0113 15.4213 17.0039 15.1136 17.1102 14.8367C17.2165 14.5598 17.4278 14.336 17.6983 14.2141C17.9687 14.0923 18.2763 14.0821 18.5542 14.186C18.8321 14.2898 19.0577 14.4991 19.182 14.7685Z" fill="#130032"/>
</svg>
