<svg width="24" height="24" viewBox="0 0 24 24" fill="none" xmlns="http://www.w3.org/2000/svg">
<g clip-path="url(#clip0_7_18054)">
<path d="M22.8752 12.3765C22.5769 12.3765 22.2907 12.495 22.0797 12.706C21.8688 12.917 21.7502 13.2031 21.7502 13.5015V14.6265H18.469L17.1237 13.2821L21.5787 8.8271C21.9302 8.47549 22.1277 7.99866 22.1277 7.50148C22.1277 7.00429 21.9302 6.52747 21.5787 6.17585L16.3287 0.925852C16.1545 0.751239 15.9476 0.612704 15.7198 0.51818C15.492 0.423656 15.2478 0.375 15.0012 0.375C14.7545 0.375 14.5103 0.423656 14.2826 0.51818C14.0548 0.612704 13.8478 0.751239 13.6737 0.925852L0.602115 14.108C0.314383 14.3967 0.118647 14.7642 0.0396225 15.1641C-0.0394019 15.564 0.00182877 15.9783 0.158109 16.3548C0.314388 16.7312 0.578709 17.0529 0.917696 17.2793C1.25668 17.5056 1.65513 17.6264 2.06274 17.6265H5.22212L7.67274 20.0771C7.84686 20.2513 8.05359 20.3895 8.28113 20.4837C8.50866 20.578 8.75254 20.6265 8.99883 20.6265C9.24513 20.6265 9.48901 20.578 9.71654 20.4837C9.94408 20.3895 10.1508 20.2513 10.3249 20.0771L15.529 14.873L16.984 16.3271C17.1577 16.5019 17.3645 16.6405 17.5922 16.7348C17.8199 16.8291 18.0641 16.8773 18.3106 16.8765H21.7502V18.0015C21.7502 18.2998 21.8688 18.586 22.0797 18.797C22.2907 19.0079 22.5769 19.1265 22.8752 19.1265C23.1736 19.1265 23.4598 19.0079 23.6707 18.797C23.8817 18.586 24.0002 18.2998 24.0002 18.0015V13.5015C24.0002 13.2031 23.8817 12.917 23.6707 12.706C23.4598 12.495 23.1736 12.3765 22.8752 12.3765ZM15.0002 2.78304L16.4065 4.18929L5.22305 15.3765H2.51368L15.0002 2.78304ZM9.00024 18.2209L7.27993 16.5015L18.0002 5.7821L19.7196 7.50148L14.7349 12.4862L9.00024 18.2209Z" fill="#130032"/>
</g>
<defs>
<clipPath id="clip0_7_18054">
<rect width="24" height="24" fill="white"/>
</clipPath>
</defs>
</svg>
