<svg width="24" height="24" viewBox="0 0 24 24" fill="none" xmlns="http://www.w3.org/2000/svg">
<path d="M14.625 20.25C14.625 20.5484 14.5065 20.8345 14.2955 21.0455C14.0845 21.2565 13.7984 21.375 13.5 21.375H10.5C10.2016 21.375 9.91548 21.2565 9.7045 21.0455C9.49353 20.8345 9.375 20.5484 9.375 20.25C9.375 19.9516 9.49353 19.6655 9.7045 19.4545C9.91548 19.2435 10.2016 19.125 10.5 19.125H13.5C13.7984 19.125 14.0845 19.2435 14.2955 19.4545C14.5065 19.6655 14.625 19.9516 14.625 20.25ZM3.75 14.625C4.04837 14.625 4.33452 14.5065 4.5455 14.2955C4.75647 14.0845 4.875 13.7984 4.875 13.5V10.5C4.875 10.2016 4.75647 9.91548 4.5455 9.7045C4.33452 9.49353 4.04837 9.375 3.75 9.375C3.45163 9.375 3.16548 9.49353 2.9545 9.7045C2.74353 9.91548 2.625 10.2016 2.625 10.5V13.5C2.625 13.7984 2.74353 14.0845 2.9545 14.2955C3.16548 14.5065 3.45163 14.625 3.75 14.625ZM6.75 19.125H4.875V17.25C4.875 16.9516 4.75647 16.6655 4.5455 16.4545C4.33452 16.2435 4.04837 16.125 3.75 16.125C3.45163 16.125 3.16548 16.2435 2.9545 16.4545C2.74353 16.6655 2.625 16.9516 2.625 17.25V19.5C2.625 19.9973 2.82254 20.4742 3.17417 20.8258C3.52581 21.1775 4.00272 21.375 4.5 21.375H6.75C7.04837 21.375 7.33452 21.2565 7.5455 21.0455C7.75647 20.8345 7.875 20.5484 7.875 20.25C7.875 19.9516 7.75647 19.6655 7.5455 19.4545C7.33452 19.2435 7.04837 19.125 6.75 19.125ZM21.375 4.5V19.5C21.375 19.9973 21.1775 20.4742 20.8258 20.8258C20.4742 21.1775 19.9973 21.375 19.5 21.375H17.25C16.9516 21.375 16.6655 21.2565 16.4545 21.0455C16.2435 20.8345 16.125 20.5484 16.125 20.25C16.125 19.9516 16.2435 19.6655 16.4545 19.4545C16.6655 19.2435 16.9516 19.125 17.25 19.125H17.5312L4.875 6.46875V6.75C4.875 7.04837 4.75647 7.33452 4.5455 7.5455C4.33452 7.75647 4.04837 7.875 3.75 7.875C3.45163 7.875 3.16548 7.75647 2.9545 7.5455C2.74353 7.33452 2.625 7.04837 2.625 6.75V4.5C2.625 4.00272 2.82254 3.52581 3.17417 3.17417C3.52581 2.82254 4.00272 2.625 4.5 2.625H19.5C19.9973 2.625 20.4742 2.82254 20.8258 3.17417C21.1775 3.52581 21.375 4.00272 21.375 4.5ZM19.125 4.875H6.46875L19.125 17.5312V4.875Z" fill="#130032"/>
</svg>
