<svg width="24" height="24" viewBox="0 0 24 24" fill="none" xmlns="http://www.w3.org/2000/svg">
<path d="M9.375 3.74826C9.375 3.44989 9.49353 3.16375 9.7045 2.95277C9.91548 2.74179 10.2016 2.62326 10.5 2.62326H13.5C13.7984 2.62326 14.0845 2.74179 14.2955 2.95277C14.5065 3.16375 14.625 3.44989 14.625 3.74826C14.625 4.04663 14.5065 4.33278 14.2955 4.54376C14.0845 4.75474 13.7984 4.87326 13.5 4.87326H10.5C10.2016 4.87326 9.91548 4.75474 9.7045 4.54376C9.49353 4.33278 9.375 4.04663 9.375 3.74826ZM13.5 19.1233H10.5C10.2016 19.1233 9.91548 19.2418 9.7045 19.4528C9.49353 19.6637 9.375 19.9499 9.375 20.2483C9.375 20.5466 9.49353 20.8328 9.7045 21.0438C9.91548 21.2547 10.2016 21.3733 10.5 21.3733H13.5C13.7984 21.3733 14.0845 21.2547 14.2955 21.0438C14.5065 20.8328 14.625 20.5466 14.625 20.2483C14.625 19.9499 14.5065 19.6637 14.2955 19.4528C14.0845 19.2418 13.7984 19.1233 13.5 19.1233ZM19.5 2.62326H17.25C16.9516 2.62326 16.6655 2.74179 16.4545 2.95277C16.2435 3.16375 16.125 3.44989 16.125 3.74826C16.125 4.04663 16.2435 4.33278 16.4545 4.54376C16.6655 4.75474 16.9516 4.87326 17.25 4.87326H19.125V6.74826C19.125 7.04663 19.2435 7.33278 19.4545 7.54376C19.6655 7.75474 19.9516 7.87326 20.25 7.87326C20.5484 7.87326 20.8345 7.75474 21.0455 7.54376C21.2565 7.33278 21.375 7.04663 21.375 6.74826V4.49826C21.375 4.00098 21.1775 3.52407 20.8258 3.17244C20.4742 2.82081 19.9973 2.62326 19.5 2.62326ZM20.25 9.37326C19.9516 9.37326 19.6655 9.49179 19.4545 9.70277C19.2435 9.91375 19.125 10.1999 19.125 10.4983V13.4983C19.125 13.7966 19.2435 14.0828 19.4545 14.2938C19.6655 14.5047 19.9516 14.6233 20.25 14.6233C20.5484 14.6233 20.8345 14.5047 21.0455 14.2938C21.2565 14.0828 21.375 13.7966 21.375 13.4983V10.4983C21.375 10.1999 21.2565 9.91375 21.0455 9.70277C20.8345 9.49179 20.5484 9.37326 20.25 9.37326ZM3.75 14.6233C4.04837 14.6233 4.33452 14.5047 4.5455 14.2938C4.75647 14.0828 4.875 13.7966 4.875 13.4983V10.4983C4.875 10.1999 4.75647 9.91375 4.5455 9.70277C4.33452 9.49179 4.04837 9.37326 3.75 9.37326C3.45163 9.37326 3.16548 9.49179 2.9545 9.70277C2.74353 9.91375 2.625 10.1999 2.625 10.4983V13.4983C2.625 13.7966 2.74353 14.0828 2.9545 14.2938C3.16548 14.5047 3.45163 14.6233 3.75 14.6233ZM6.75 19.1233H4.875V17.2483C4.875 16.9499 4.75647 16.6637 4.5455 16.4528C4.33452 16.2418 4.04837 16.1233 3.75 16.1233C3.45163 16.1233 3.16548 16.2418 2.9545 16.4528C2.74353 16.6637 2.625 16.9499 2.625 17.2483V19.4983C2.625 19.9955 2.82254 20.4725 3.17417 20.8241C3.52581 21.1757 4.00272 21.3733 4.5 21.3733H6.75C7.04837 21.3733 7.33452 21.2547 7.5455 21.0438C7.75647 20.8328 7.875 20.5466 7.875 20.2483C7.875 19.9499 7.75647 19.6637 7.5455 19.4528C7.33452 19.2418 7.04837 19.1233 6.75 19.1233ZM5.3325 2.9917C5.2337 2.88034 5.11379 2.78969 4.9797 2.72501C4.84561 2.66033 4.70002 2.6229 4.55136 2.61491C4.40271 2.60691 4.25394 2.6285 4.11369 2.67842C3.97344 2.72834 3.84448 2.8056 3.73431 2.90572C3.62414 3.00585 3.53493 3.12684 3.47187 3.26169C3.4088 3.39655 3.37312 3.54258 3.36691 3.69132C3.36069 3.84006 3.38406 3.98856 3.43566 4.1282C3.48726 4.26785 3.56606 4.39586 3.6675 4.50483L18.6675 21.0048C18.8692 21.2215 19.1482 21.3499 19.444 21.3623C19.7397 21.3747 20.0285 21.2699 20.2475 21.0708C20.4666 20.8717 20.5984 20.5943 20.6143 20.2987C20.6302 20.0031 20.529 19.7132 20.3325 19.4917L5.3325 2.9917Z" fill="#130032"/>
</svg>
