<svg width="24" height="24" viewBox="0 0 24 24" fill="none" xmlns="http://www.w3.org/2000/svg">
<path d="M6.375 20.25C6.375 20.5484 6.25647 20.8345 6.0455 21.0455C5.83452 21.2565 5.54837 21.375 5.25 21.375H4.5C4.00272 21.375 3.52581 21.1775 3.17417 20.8258C2.82254 20.4742 2.625 19.9973 2.625 19.5V18.75C2.625 18.4516 2.74353 18.1655 2.9545 17.9545C3.16548 17.7435 3.45163 17.625 3.75 17.625C4.04837 17.625 4.33452 17.7435 4.5455 17.9545C4.75647 18.1655 4.875 18.4516 4.875 18.75V19.125H5.25C5.54837 19.125 5.83452 19.2435 6.0455 19.4545C6.25647 19.6655 6.375 19.9516 6.375 20.25ZM10.5 19.125H9C8.70163 19.125 8.41548 19.2435 8.2045 19.4545C7.99353 19.6655 7.875 19.9516 7.875 20.25C7.875 20.5484 7.99353 20.8345 8.2045 21.0455C8.41548 21.2565 8.70163 21.375 9 21.375H10.5C10.7984 21.375 11.0845 21.2565 11.2955 21.0455C11.5065 20.8345 11.625 20.5484 11.625 20.25C11.625 19.9516 11.5065 19.6655 11.2955 19.4545C11.0845 19.2435 10.7984 19.125 10.5 19.125ZM3.75 16.125C4.04837 16.125 4.33452 16.0065 4.5455 15.7955C4.75647 15.5845 4.875 15.2984 4.875 15V13.5C4.875 13.2016 4.75647 12.9155 4.5455 12.7045C4.33452 12.4935 4.04837 12.375 3.75 12.375C3.45163 12.375 3.16548 12.4935 2.9545 12.7045C2.74353 12.9155 2.625 13.2016 2.625 13.5V15C2.625 15.2984 2.74353 15.5845 2.9545 15.7955C3.16548 16.0065 3.45163 16.125 3.75 16.125ZM15.75 17.625C15.4516 17.625 15.1655 17.7435 14.9545 17.9545C14.7435 18.1655 14.625 18.4516 14.625 18.75V19.125H14.25C13.9516 19.125 13.6655 19.2435 13.4545 19.4545C13.2435 19.6655 13.125 19.9516 13.125 20.25C13.125 20.5484 13.2435 20.8345 13.4545 21.0455C13.6655 21.2565 13.9516 21.375 14.25 21.375H15C15.4973 21.375 15.9742 21.1775 16.3258 20.8258C16.6775 20.4742 16.875 19.9973 16.875 19.5V18.75C16.875 18.4516 16.7565 18.1655 16.5455 17.9545C16.3345 17.7435 16.0484 17.625 15.75 17.625ZM15.75 10.875C16.0484 10.875 16.3345 10.7565 16.5455 10.5455C16.7565 10.3345 16.875 10.0484 16.875 9.75V9C16.875 8.50272 16.6775 8.02581 16.3258 7.67417C15.9742 7.32254 15.4973 7.125 15 7.125H14.25C13.9516 7.125 13.6655 7.24353 13.4545 7.4545C13.2435 7.66548 13.125 7.95163 13.125 8.25C13.125 8.54837 13.2435 8.83452 13.4545 9.0455C13.6655 9.25647 13.9516 9.375 14.25 9.375H14.625V9.75C14.625 10.0484 14.7435 10.3345 14.9545 10.5455C15.1655 10.7565 15.4516 10.875 15.75 10.875ZM5.25 7.125H4.5C4.00272 7.125 3.52581 7.32254 3.17417 7.67417C2.82254 8.02581 2.625 8.50272 2.625 9V9.75C2.625 10.0484 2.74353 10.3345 2.9545 10.5455C3.16548 10.7565 3.45163 10.875 3.75 10.875C4.04837 10.875 4.33452 10.7565 4.5455 10.5455C4.75647 10.3345 4.875 10.0484 4.875 9.75V9.375H5.25C5.54837 9.375 5.83452 9.25647 6.0455 9.0455C6.25647 8.83452 6.375 8.54837 6.375 8.25C6.375 7.95163 6.25647 7.66548 6.0455 7.4545C5.83452 7.24353 5.54837 7.125 5.25 7.125ZM19.5 2.625H9.375C8.87772 2.625 8.40081 2.82254 8.04917 3.17417C7.69754 3.52581 7.5 4.00272 7.5 4.5V8.25C7.49897 8.26874 7.49897 8.28751 7.5 8.30625C7.51444 8.59476 7.63932 8.86666 7.84875 9.06563C8.05818 9.26459 8.33613 9.37536 8.625 9.375H10.5C10.7984 9.375 11.0845 9.25647 11.2955 9.0455C11.5065 8.83452 11.625 8.54837 11.625 8.25C11.625 7.95163 11.5065 7.66548 11.2955 7.4545C11.0845 7.24353 10.7984 7.125 10.5 7.125H9.75V4.875H19.125V14.25H16.875V13.5C16.875 13.2016 16.7565 12.9155 16.5455 12.7045C16.3345 12.4935 16.0484 12.375 15.75 12.375C15.4516 12.375 15.1655 12.4935 14.9545 12.7045C14.7435 12.9155 14.625 13.2016 14.625 13.5V15.375C14.625 15.6734 14.7435 15.9595 14.9545 16.1705C15.1655 16.3815 15.4516 16.5 15.75 16.5H19.5C19.9973 16.5 20.4742 16.3025 20.8258 15.9508C21.1775 15.5992 21.375 15.1223 21.375 14.625V4.5C21.375 4.00272 21.1775 3.52581 20.8258 3.17417C20.4742 2.82254 19.9973 2.625 19.5 2.625Z" fill="#130032"/>
</svg>
