<svg width="24" height="24" viewBox="0 0 24 24" fill="none" xmlns="http://www.w3.org/2000/svg">
<path d="M14.625 7.5H4.5C4.00272 7.5 3.52581 7.69754 3.17417 8.04917C2.82254 8.40081 2.625 8.87772 2.625 9.375V19.5C2.625 19.9973 2.82254 20.4742 3.17417 20.8258C3.52581 21.1775 4.00272 21.375 4.5 21.375H14.625C15.1223 21.375 15.5992 21.1775 15.9508 20.8258C16.3025 20.4742 16.5 19.9973 16.5 19.5V9.375C16.5 8.87772 16.3025 8.40081 15.9508 8.04917C15.5992 7.69754 15.1223 7.5 14.625 7.5ZM14.25 19.125H4.875V9.75H14.25V19.125ZM12.375 3.75C12.375 3.45163 12.4935 3.16548 12.7045 2.9545C12.9155 2.74353 13.2016 2.625 13.5 2.625H15C15.2984 2.625 15.5845 2.74353 15.7955 2.9545C16.0065 3.16548 16.125 3.45163 16.125 3.75C16.125 4.04837 16.0065 4.33452 15.7955 4.5455C15.5845 4.75647 15.2984 4.875 15 4.875H13.5C13.2016 4.875 12.9155 4.75647 12.7045 4.5455C12.4935 4.33452 12.375 4.04837 12.375 3.75ZM21.375 4.5V5.25C21.375 5.54837 21.2565 5.83452 21.0455 6.0455C20.8345 6.25647 20.5484 6.375 20.25 6.375C19.9516 6.375 19.6655 6.25647 19.4545 6.0455C19.2435 5.83452 19.125 5.54837 19.125 5.25V4.875H18.75C18.4516 4.875 18.1655 4.75647 17.9545 4.5455C17.7435 4.33452 17.625 4.04837 17.625 3.75C17.625 3.45163 17.7435 3.16548 17.9545 2.9545C18.1655 2.74353 18.4516 2.625 18.75 2.625H19.5C19.9973 2.625 20.4742 2.82254 20.8258 3.17417C21.1775 3.52581 21.375 4.00272 21.375 4.5ZM21.375 9V10.5C21.375 10.7984 21.2565 11.0845 21.0455 11.2955C20.8345 11.5065 20.5484 11.625 20.25 11.625C19.9516 11.625 19.6655 11.5065 19.4545 11.2955C19.2435 11.0845 19.125 10.7984 19.125 10.5V9C19.125 8.70163 19.2435 8.41548 19.4545 8.2045C19.6655 7.99353 19.9516 7.875 20.25 7.875C20.5484 7.875 20.8345 7.99353 21.0455 8.2045C21.2565 8.41548 21.375 8.70163 21.375 9ZM21.375 14.25V15C21.375 15.4973 21.1775 15.9742 20.8258 16.3258C20.4742 16.6775 19.9973 16.875 19.5 16.875H18.75C18.4516 16.875 18.1655 16.7565 17.9545 16.5455C17.7435 16.3345 17.625 16.0484 17.625 15.75C17.625 15.4516 17.7435 15.1655 17.9545 14.9545C18.1655 14.7435 18.4516 14.625 18.75 14.625H19.125V14.25C19.125 13.9516 19.2435 13.6655 19.4545 13.4545C19.6655 13.2435 19.9516 13.125 20.25 13.125C20.5484 13.125 20.8345 13.2435 21.0455 13.4545C21.2565 13.6655 21.375 13.9516 21.375 14.25ZM7.125 5.25V4.5C7.125 4.00272 7.32254 3.52581 7.67417 3.17417C8.02581 2.82254 8.50272 2.625 9 2.625H9.75C10.0484 2.625 10.3345 2.74353 10.5455 2.9545C10.7565 3.16548 10.875 3.45163 10.875 3.75C10.875 4.04837 10.7565 4.33452 10.5455 4.5455C10.3345 4.75647 10.0484 4.875 9.75 4.875H9.375V5.25C9.375 5.54837 9.25647 5.83452 9.0455 6.0455C8.83452 6.25647 8.54837 6.375 8.25 6.375C7.95163 6.375 7.66548 6.25647 7.4545 6.0455C7.24353 5.83452 7.125 5.54837 7.125 5.25Z" fill="#130032"/>
</svg>
