<svg width="24" height="24" viewBox="0 0 24 24" fill="none" xmlns="http://www.w3.org/2000/svg">
<path d="M14.625 3.75C14.625 4.04837 14.5065 4.33452 14.2955 4.5455C14.0845 4.75647 13.7984 4.875 13.5 4.875H10.5C10.2016 4.875 9.91548 4.75647 9.7045 4.5455C9.49353 4.33452 9.375 4.04837 9.375 3.75C9.375 3.45163 9.49353 3.16548 9.7045 2.9545C9.91548 2.74353 10.2016 2.625 10.5 2.625H13.5C13.7984 2.625 14.0845 2.74353 14.2955 2.9545C14.5065 3.16548 14.625 3.45163 14.625 3.75ZM13.5 19.125H10.5C10.2016 19.125 9.91548 19.2435 9.7045 19.4545C9.49353 19.6655 9.375 19.9516 9.375 20.25C9.375 20.5484 9.49353 20.8345 9.7045 21.0455C9.91548 21.2565 10.2016 21.375 10.5 21.375H13.5C13.7984 21.375 14.0845 21.2565 14.2955 21.0455C14.5065 20.8345 14.625 20.5484 14.625 20.25C14.625 19.9516 14.5065 19.6655 14.2955 19.4545C14.0845 19.2435 13.7984 19.125 13.5 19.125ZM19.125 4.875V6.75C19.125 7.04837 19.2435 7.33452 19.4545 7.5455C19.6655 7.75647 19.9516 7.875 20.25 7.875C20.5484 7.875 20.8345 7.75647 21.0455 7.5455C21.2565 7.33452 21.375 7.04837 21.375 6.75V4.5C21.375 4.00272 21.1775 3.52581 20.8258 3.17417C20.4742 2.82254 19.9973 2.625 19.5 2.625H17.25C16.9516 2.625 16.6655 2.74353 16.4545 2.9545C16.2435 3.16548 16.125 3.45163 16.125 3.75C16.125 4.04837 16.2435 4.33452 16.4545 4.5455C16.6655 4.75647 16.9516 4.875 17.25 4.875H19.125ZM20.25 9.375C19.9516 9.375 19.6655 9.49353 19.4545 9.7045C19.2435 9.91548 19.125 10.2016 19.125 10.5V13.5C19.125 13.7984 19.2435 14.0845 19.4545 14.2955C19.6655 14.5065 19.9516 14.625 20.25 14.625C20.5484 14.625 20.8345 14.5065 21.0455 14.2955C21.2565 14.0845 21.375 13.7984 21.375 13.5V10.5C21.375 10.2016 21.2565 9.91548 21.0455 9.7045C20.8345 9.49353 20.5484 9.375 20.25 9.375ZM3.75 14.625C4.04837 14.625 4.33452 14.5065 4.5455 14.2955C4.75647 14.0845 4.875 13.7984 4.875 13.5V10.5C4.875 10.2016 4.75647 9.91548 4.5455 9.7045C4.33452 9.49353 4.04837 9.375 3.75 9.375C3.45163 9.375 3.16548 9.49353 2.9545 9.7045C2.74353 9.91548 2.625 10.2016 2.625 10.5V13.5C2.625 13.7984 2.74353 14.0845 2.9545 14.2955C3.16548 14.5065 3.45163 14.625 3.75 14.625ZM6.75 19.125H4.875V17.25C4.875 16.9516 4.75647 16.6655 4.5455 16.4545C4.33452 16.2435 4.04837 16.125 3.75 16.125C3.45163 16.125 3.16548 16.2435 2.9545 16.4545C2.74353 16.6655 2.625 16.9516 2.625 17.25V19.5C2.625 19.9973 2.82254 20.4742 3.17417 20.8258C3.52581 21.1775 4.00272 21.375 4.5 21.375H6.75C7.04837 21.375 7.33452 21.2565 7.5455 21.0455C7.75647 20.8345 7.875 20.5484 7.875 20.25C7.875 19.9516 7.75647 19.6655 7.5455 19.4545C7.33452 19.2435 7.04837 19.125 6.75 19.125ZM6.75 2.625H4.5C4.00272 2.625 3.52581 2.82254 3.17417 3.17417C2.82254 3.52581 2.625 4.00272 2.625 4.5V6.75C2.625 7.04837 2.74353 7.33452 2.9545 7.5455C3.16548 7.75647 3.45163 7.875 3.75 7.875C4.04837 7.875 4.33452 7.75647 4.5455 7.5455C4.75647 7.33452 4.875 7.04837 4.875 6.75V4.875H6.75C7.04837 4.875 7.33452 4.75647 7.5455 4.5455C7.75647 4.33452 7.875 4.04837 7.875 3.75C7.875 3.45163 7.75647 3.16548 7.5455 2.9545C7.33452 2.74353 7.04837 2.625 6.75 2.625ZM22.5 19.125H21.375V18C21.375 17.7016 21.2565 17.4155 21.0455 17.2045C20.8345 16.9935 20.5484 16.875 20.25 16.875C19.9516 16.875 19.6655 16.9935 19.4545 17.2045C19.2435 17.4155 19.125 17.7016 19.125 18V19.125H18C17.7016 19.125 17.4155 19.2435 17.2045 19.4545C16.9935 19.6655 16.875 19.9516 16.875 20.25C16.875 20.5484 16.9935 20.8345 17.2045 21.0455C17.4155 21.2565 17.7016 21.375 18 21.375H19.125V22.5C19.125 22.7984 19.2435 23.0845 19.4545 23.2955C19.6655 23.5065 19.9516 23.625 20.25 23.625C20.5484 23.625 20.8345 23.5065 21.0455 23.2955C21.2565 23.0845 21.375 22.7984 21.375 22.5V21.375H22.5C22.7984 21.375 23.0845 21.2565 23.2955 21.0455C23.5065 20.8345 23.625 20.5484 23.625 20.25C23.625 19.9516 23.5065 19.6655 23.2955 19.4545C23.0845 19.2435 22.7984 19.125 22.5 19.125Z" fill="#130032"/>
</svg>
