<svg width="24" height="24" viewBox="0 0 24 24" fill="none" xmlns="http://www.w3.org/2000/svg">
<path d="M6.70179 5.67656C6.63259 5.44438 6.49027 5.24074 6.29601 5.09594C6.10176 4.95114 5.86595 4.87292 5.62367 4.87292C5.38139 4.87292 5.14558 4.95114 4.95132 5.09594C4.75707 5.24074 4.61475 5.44438 4.54554 5.67656L1.17054 16.9266C1.12008 17.0947 1.10965 17.2723 1.1401 17.4451C1.17054 17.618 1.24102 17.7813 1.34588 17.9221C1.45074 18.0629 1.58709 18.1771 1.74401 18.2558C1.90093 18.3344 2.07408 18.3752 2.24961 18.375H8.99961C9.17497 18.375 9.3479 18.3339 9.50459 18.2551C9.66127 18.1764 9.79737 18.0621 9.90202 17.9214C10.0067 17.7806 10.077 17.6174 10.1073 17.4447C10.1377 17.272 10.1272 17.0945 10.0768 16.9266L6.70179 5.67656ZM3.76179 16.125L5.62461 9.915L7.48742 16.125H3.76179ZM19.8746 6.9375C19.8746 5.93623 19.5777 4.95745 19.0214 4.12493C18.4651 3.2924 17.6745 2.64353 16.7494 2.26036C15.8244 1.87719 14.8065 1.77694 13.8245 1.97228C12.8424 2.16761 11.9404 2.64977 11.2324 3.35777C10.5244 4.06578 10.0422 4.96783 9.84688 5.94986C9.65154 6.93189 9.7518 7.94979 10.135 8.87484C10.5181 9.79989 11.167 10.5905 11.9995 11.1468C12.8321 11.7031 13.8108 12 14.8121 12C16.1543 11.9985 17.4411 11.4647 18.3902 10.5156C19.3393 9.56651 19.8731 8.2797 19.8746 6.9375ZM11.9996 6.9375C11.9996 6.38124 12.1646 5.83747 12.4736 5.37496C12.7826 4.91245 13.2219 4.55196 13.7358 4.33909C14.2497 4.12622 14.8152 4.07052 15.3608 4.17904C15.9064 4.28756 16.4075 4.55543 16.8008 4.94876C17.1942 5.3421 17.462 5.84324 17.5706 6.38881C17.6791 6.93438 17.6234 7.49988 17.4105 8.0138C17.1976 8.52772 16.8372 8.96697 16.3746 9.27601C15.9121 9.58505 15.3684 9.75 14.8121 9.75C14.0662 9.75 13.3508 9.45369 12.8234 8.92624C12.2959 8.39879 11.9996 7.68342 11.9996 6.9375ZM20.9996 13.5H12.7496C12.4512 13.5 12.1651 13.6185 11.9541 13.8295C11.7431 14.0405 11.6246 14.3266 11.6246 14.625V19.5C11.6246 19.7984 11.7431 20.0845 11.9541 20.2955C12.1651 20.5065 12.4512 20.625 12.7496 20.625H20.9996C21.298 20.625 21.5841 20.5065 21.7951 20.2955C22.0061 20.0845 22.1246 19.7984 22.1246 19.5V14.625C22.1246 14.3266 22.0061 14.0405 21.7951 13.8295C21.5841 13.6185 21.298 13.5 20.9996 13.5ZM19.8746 18.375H13.8746V15.75H19.8746V18.375Z" fill="#130032"/>
</svg>
