<svg width="24" height="24" viewBox="0 0 24 24" fill="none" xmlns="http://www.w3.org/2000/svg">
<path d="M16.4995 14.6253C15.4949 14.6237 14.5246 14.9906 13.7724 15.6565L9.94642 13.2003C10.1839 12.4179 10.1839 11.5826 9.94642 10.8003L13.7724 8.34401C14.5171 8.99848 15.4733 9.36164 16.4647 9.36652C17.4561 9.37139 18.4158 9.01767 19.1669 8.37056C19.918 7.72345 20.4098 6.8266 20.5517 5.84539C20.6935 4.86417 20.4758 3.86476 19.9387 3.03143C19.4016 2.1981 18.5814 1.58706 17.6292 1.31098C16.677 1.0349 15.657 1.11239 14.7575 1.52917C13.8579 1.94595 13.1394 2.6739 12.7344 3.57881C12.3293 4.48372 12.2651 5.50455 12.5536 6.45308L8.72673 8.90651C8.13162 8.38058 7.39733 8.03763 6.61206 7.91885C5.82678 7.80007 5.02391 7.9105 4.29987 8.2369C3.57583 8.56329 2.96141 9.09176 2.5304 9.75884C2.09939 10.4259 1.87012 11.2032 1.87012 11.9975C1.87012 12.7917 2.09939 13.569 2.5304 14.2361C2.96141 14.9031 3.57583 15.4316 4.29987 15.758C5.02391 16.0844 5.82678 16.1948 6.61206 16.0761C7.39733 15.9573 8.13162 15.6143 8.72673 15.0884L12.5527 17.5503C12.3002 18.3805 12.316 19.2692 12.5979 20.0899C12.8797 20.9106 13.4131 21.6216 14.1224 22.1216C14.8316 22.6216 15.6804 22.8852 16.5481 22.875C17.4158 22.8647 18.2582 22.5811 18.9553 22.0644C19.6525 21.5477 20.169 20.8243 20.4313 19.9972C20.6936 19.17 20.6884 18.2812 20.4163 17.4572C20.1443 16.6331 19.6194 15.9159 18.9162 15.4075C18.2129 14.899 17.3673 14.6253 16.4995 14.6253ZM16.4995 3.37526C16.8704 3.37526 17.2329 3.48523 17.5412 3.69126C17.8496 3.89729 18.0899 4.19012 18.2318 4.53273C18.3737 4.87534 18.4109 5.25234 18.3385 5.61606C18.2662 5.97977 18.0876 6.31387 17.8254 6.57609C17.5631 6.83831 17.2291 7.01689 16.8653 7.08924C16.5016 7.16158 16.1246 7.12445 15.782 6.98254C15.4394 6.84062 15.1466 6.6003 14.9405 6.29196C14.7345 5.98362 14.6245 5.6211 14.6245 5.25026C14.6245 4.75298 14.8221 4.27607 15.1737 3.92444C15.5254 3.57281 16.0023 3.37526 16.4995 3.37526ZM5.99955 13.8753C5.62871 13.8753 5.26619 13.7653 4.95785 13.5593C4.64951 13.3532 4.40919 13.0604 4.26727 12.7178C4.12536 12.3752 4.08823 11.9982 4.16057 11.6345C4.23292 11.2708 4.4115 10.9367 4.67372 10.6744C4.93594 10.4122 5.27004 10.2336 5.63375 10.1613C5.99747 10.0889 6.37447 10.1261 6.71708 10.268C7.05969 10.4099 7.35252 10.6502 7.55855 10.9586C7.76458 11.2669 7.87455 11.6294 7.87455 12.0003C7.87455 12.4975 7.677 12.9745 7.32537 13.3261C6.97374 13.6777 6.49683 13.8753 5.99955 13.8753ZM16.4995 20.6253C16.1287 20.6253 15.7662 20.5153 15.4579 20.3093C15.1495 20.1032 14.9092 19.8104 14.7673 19.4678C14.6254 19.1252 14.5882 18.7482 14.6606 18.3845C14.7329 18.0208 14.9115 17.6867 15.1737 17.4244C15.4359 17.1622 15.77 16.9836 16.1337 16.9113C16.4975 16.8389 16.8745 16.8761 17.2171 17.018C17.5597 17.1599 17.8525 17.4002 18.0585 17.7086C18.2646 18.0169 18.3745 18.3794 18.3745 18.7503C18.3745 19.2475 18.177 19.7245 17.8254 20.0761C17.4737 20.4277 16.9968 20.6253 16.4995 20.6253Z" fill="#130032"/>
</svg>
