<svg width="24" height="24" viewBox="0 0 24 24" fill="none" xmlns="http://www.w3.org/2000/svg">
<path d="M21.7959 10.5459L17.2959 15.0459C17.0846 15.2572 16.7979 15.3759 16.4991 15.3759C16.2002 15.3759 15.9135 15.2572 15.7022 15.0459C15.4908 14.8345 15.3721 14.5479 15.3721 14.249C15.3721 13.9501 15.4908 13.6635 15.7022 13.4521L18.2812 10.8749H15.4688C13.7225 10.8744 12.0255 11.4542 10.6448 12.5234C9.26403 13.5926 8.27782 15.0903 7.84125 16.7812C7.80432 16.9242 7.73957 17.0586 7.6507 17.1766C7.56183 17.2947 7.45058 17.3941 7.32331 17.4691C7.19603 17.5441 7.05522 17.5934 6.90892 17.614C6.76262 17.6346 6.61368 17.6262 6.47062 17.5893C6.32757 17.5524 6.19318 17.4876 6.07515 17.3987C5.95711 17.3099 5.85774 17.1986 5.7827 17.0714C5.70766 16.9441 5.65842 16.8033 5.63779 16.657C5.61717 16.5107 5.62557 16.3617 5.6625 16.2187C6.22291 14.0443 7.49057 12.1182 9.2659 10.7434C11.0412 9.36861 13.2234 8.62334 15.4688 8.62492H18.2812L15.7041 6.04492C15.4927 5.83358 15.374 5.54693 15.374 5.24804C15.374 4.94916 15.4927 4.66251 15.7041 4.45117C15.9154 4.23983 16.2021 4.12109 16.5009 4.12109C16.7998 4.12109 17.0865 4.23983 17.2978 4.45117L21.7978 8.95117C21.9027 9.05583 21.9859 9.18018 22.0426 9.31707C22.0993 9.45397 22.1284 9.60073 22.1282 9.7489C22.1281 9.89708 22.0986 10.0438 22.0416 10.1805C21.9846 10.3173 21.9011 10.4414 21.7959 10.5459ZM18 19.1249H4.125V8.24992C4.125 7.95155 4.00647 7.6654 3.7955 7.45442C3.58452 7.24345 3.29837 7.12492 3 7.12492C2.70163 7.12492 2.41548 7.24345 2.2045 7.45442C1.99353 7.6654 1.875 7.95155 1.875 8.24992V20.2499C1.875 20.5483 1.99353 20.8344 2.2045 21.0454C2.41548 21.2564 2.70163 21.3749 3 21.3749H18C18.2984 21.3749 18.5845 21.2564 18.7955 21.0454C19.0065 20.8344 19.125 20.5483 19.125 20.2499C19.125 19.9516 19.0065 19.6654 18.7955 19.4544C18.5845 19.2434 18.2984 19.1249 18 19.1249Z" fill="#130032"/>
</svg>
