<svg width="24" height="24" viewBox="0 0 24 24" fill="none" xmlns="http://www.w3.org/2000/svg">
<path d="M19.5 3.375H4.5C4.00272 3.375 3.52581 3.57254 3.17417 3.92417C2.82254 4.27581 2.625 4.75272 2.625 5.25V10.5C2.625 15.5897 5.0925 18.6769 7.1625 20.3709C9.38531 22.1887 11.61 22.8084 11.7037 22.8356C11.8978 22.8881 12.1022 22.8881 12.2963 22.8356C12.39 22.8094 14.6147 22.1887 16.8375 20.3709C18.9075 18.6769 21.375 15.5897 21.375 10.5V5.25C21.375 4.75272 21.1775 4.27581 20.8258 3.92417C20.4742 3.57254 19.9973 3.375 19.5 3.375ZM4.875 5.625H19.125V10.5C19.1396 11.8299 18.9174 13.1517 18.4688 14.4037L12.6459 10.3284C12.4569 10.1961 12.2317 10.1252 12.0009 10.1252C11.7702 10.1252 11.545 10.1961 11.3559 10.3284L5.53125 14.4037C5.0826 13.1517 4.86038 11.8299 4.875 10.5V5.625ZM15.4772 18.5766C14.4396 19.4327 13.2637 20.1058 12 20.5669C10.7362 20.106 9.56023 19.4329 8.52281 18.5766C7.77026 17.9574 7.11014 17.2339 6.5625 16.4278L12 12.6234L17.4375 16.4278C16.8899 17.2339 16.2297 17.9574 15.4772 18.5766Z" fill="#130032"/>
</svg>
