<svg width="24" height="24" viewBox="0 0 24 24" fill="none" xmlns="http://www.w3.org/2000/svg">
<path d="M7.20563 10.8319C7.31653 10.5549 7.53291 10.3333 7.80718 10.2159C8.08145 10.0984 8.39114 10.0947 8.66813 10.2056L10.875 11.0887V9C10.875 8.70163 10.9935 8.41548 11.2045 8.2045C11.4155 7.99353 11.7016 7.875 12 7.875C12.2984 7.875 12.5845 7.99353 12.7955 8.2045C13.0065 8.41548 13.125 8.70163 13.125 9V11.0887L15.3319 10.2056C15.6083 10.0975 15.9163 10.1029 16.1887 10.2208C16.4611 10.3387 16.6759 10.5596 16.7862 10.8351C16.8966 11.1107 16.8935 11.4187 16.7777 11.6921C16.662 11.9654 16.4428 12.1819 16.1681 12.2944L13.7812 13.2497L15.15 15.075C15.2386 15.1932 15.3031 15.3277 15.3398 15.4708C15.3765 15.6139 15.3846 15.7628 15.3637 15.9091C15.3428 16.0554 15.2933 16.1961 15.218 16.3232C15.1428 16.4503 15.0432 16.5614 14.925 16.65C14.8068 16.7386 14.6723 16.8031 14.5292 16.8398C14.3861 16.8765 14.2372 16.8846 14.0909 16.8637C13.9446 16.8428 13.8039 16.7933 13.6768 16.718C13.5497 16.6428 13.4386 16.5432 13.35 16.425L12 14.625L10.65 16.425C10.5614 16.5432 10.4503 16.6428 10.3232 16.718C10.1961 16.7933 10.0554 16.8428 9.9091 16.8637C9.76285 16.8846 9.61391 16.8765 9.4708 16.8398C9.32768 16.8031 9.19319 16.7386 9.075 16.65C8.95681 16.5614 8.85724 16.4503 8.78197 16.3232C8.7067 16.1961 8.6572 16.0554 8.63631 15.9091C8.61541 15.7628 8.62353 15.6139 8.6602 15.4708C8.69686 15.3277 8.76136 15.1932 8.85 15.075L10.2188 13.2497L7.83187 12.2944C7.5549 12.1835 7.33331 11.9671 7.21587 11.6928C7.09843 11.4186 7.09474 11.1089 7.20563 10.8319ZM21.375 5.25V10.5C21.375 15.5897 18.9075 18.6769 16.8375 20.3709C14.6147 22.1887 12.39 22.8084 12.2963 22.8356C12.1022 22.8881 11.8978 22.8881 11.7037 22.8356C11.61 22.8094 9.38531 22.1887 7.1625 20.3709C5.0925 18.6769 2.625 15.5897 2.625 10.5V5.25C2.625 4.75272 2.82254 4.27581 3.17417 3.92417C3.52581 3.57254 4.00272 3.375 4.5 3.375H19.5C19.9973 3.375 20.4742 3.57254 20.8258 3.92417C21.1775 4.27581 21.375 4.75272 21.375 5.25ZM19.125 5.625H4.875V10.5C4.875 13.8478 6.10219 16.5647 8.52281 18.5766C9.56023 19.4329 10.7362 20.106 12 20.5669C13.2637 20.1058 14.4396 19.4327 15.4772 18.5766C17.8978 16.5647 19.125 13.8478 19.125 10.5V5.625Z" fill="#130032"/>
</svg>
