<svg width="24" height="24" viewBox="0 0 24 24" fill="none" xmlns="http://www.w3.org/2000/svg">
<path d="M19.5 3.375H4.5C4.00272 3.375 3.52581 3.57254 3.17417 3.92417C2.82254 4.27581 2.625 4.75272 2.625 5.25V10.5C2.625 15.5897 5.0925 18.6769 7.1625 20.3709C9.38531 22.1887 11.61 22.8084 11.7037 22.8356C11.8978 22.8881 12.1022 22.8881 12.2963 22.8356C12.39 22.8094 14.6147 22.1887 16.8375 20.3709C18.9075 18.6769 21.375 15.5897 21.375 10.5V5.25C21.375 4.75272 21.1775 4.27581 20.8258 3.92417C20.4742 3.57254 19.9973 3.375 19.5 3.375ZM19.125 10.5C19.125 10.6256 19.125 10.7512 19.1194 10.875H13.125V5.625H19.125V10.5ZM4.875 5.625H10.875V10.875H4.88063C4.88063 10.7512 4.875 10.6256 4.875 10.5V5.625ZM5.15625 13.125H10.875V20.0897C10.0342 19.6795 9.24471 19.1716 8.52281 18.5766C6.77063 17.1197 5.64375 15.2934 5.15625 13.125ZM15.4781 18.5766C14.7559 19.1717 13.9661 19.6795 13.125 20.0897V13.125H18.8438C18.3562 15.2934 17.2294 17.1197 15.4772 18.5766H15.4781Z" fill="#130032"/>
</svg>
