<svg width="24" height="24" viewBox="0 0 24 24" fill="none" xmlns="http://www.w3.org/2000/svg">
<path d="M22.2656 6.26252L12.3094 3.41814C12.1571 3.37484 11.9974 3.36398 11.8406 3.38627L1.98469 4.79252C1.53839 4.85827 1.13048 5.08196 0.835103 5.42293C0.539722 5.7639 0.376466 6.19952 0.375 6.65064V17.3494C0.376914 17.8002 0.540372 18.2354 0.835712 18.5759C1.13105 18.9165 1.5387 19.1399 1.98469 19.2056L11.8406 20.6119C11.8934 20.6194 11.9467 20.6231 12 20.6231C12.1046 20.6232 12.2088 20.6087 12.3094 20.58L22.2656 17.7375C22.6561 17.6244 22.9996 17.388 23.2446 17.0635C23.4896 16.7391 23.623 16.3441 23.625 15.9375V8.06252C23.6232 7.65592 23.4898 7.26084 23.2448 6.93637C22.9997 6.61191 22.6562 6.3755 22.2656 6.26252ZM8.625 10.875H7.875V6.22595L10.875 5.79752V18.2025L7.875 17.7741V13.125H8.625C8.92337 13.125 9.20952 13.0065 9.4205 12.7955C9.63147 12.5845 9.75 12.2984 9.75 12C9.75 11.7016 9.63147 11.4155 9.4205 11.2045C9.20952 10.9935 8.92337 10.875 8.625 10.875ZM2.625 6.97595L5.625 6.54752V10.875H4.875C4.57663 10.875 4.29048 10.9935 4.0795 11.2045C3.86853 11.4155 3.75 11.7016 3.75 12C3.75 12.2984 3.86853 12.5845 4.0795 12.7955C4.29048 13.0065 4.57663 13.125 4.875 13.125H5.625V17.4525L2.625 17.0241V6.97595ZM21.375 15.6563L13.125 18.0131V5.99158L21.375 8.34845V15.6563Z" fill="#130032"/>
</svg>
