<svg width="24" height="24" viewBox="0 0 24 24" fill="none" xmlns="http://www.w3.org/2000/svg">
<path d="M18.75 3.375H16.5938L15.4209 2.20406C15.3164 2.09962 15.1923 2.01681 15.0557 1.96035C14.9191 1.90389 14.7728 1.87488 14.625 1.875H9.375C9.22722 1.87488 9.08086 1.90389 8.94429 1.96035C8.80772 2.01681 8.68362 2.09962 8.57906 2.20406L7.40625 3.375H5.25C4.75272 3.375 4.27581 3.57254 3.92417 3.92418C3.57254 4.27581 3.375 4.75272 3.375 5.25V19.5C3.375 19.9973 3.57254 20.4742 3.92417 20.8258C4.27581 21.1775 4.75272 21.375 5.25 21.375H18.75C19.2473 21.375 19.7242 21.1775 20.0758 20.8258C20.4275 20.4742 20.625 19.9973 20.625 19.5V5.25C20.625 4.75272 20.4275 4.27581 20.0758 3.92418C19.7242 3.57254 19.2473 3.375 18.75 3.375ZM9 4.96875L9.68719 4.28156L11.1394 6.76875L9 8.8575V4.96875ZM12.8606 6.76875L14.3128 4.27875L15 4.96875V8.8575L12.8606 6.76875ZM5.625 5.625H6.75V9.75C6.74989 10.1202 6.85936 10.4821 7.06462 10.7902C7.26988 11.0983 7.56174 11.3387 7.90341 11.4812C8.24509 11.6236 8.62129 11.6618 8.98461 11.5908C9.34792 11.5198 9.68209 11.3428 9.945 11.0822L10.875 10.1719V19.125H5.625V5.625ZM18.375 19.125H13.125V10.1719L14.055 11.0803C14.3178 11.3408 14.6518 11.5177 15.0149 11.5888C15.3781 11.6598 15.7541 11.6219 16.0957 11.4796C16.4373 11.3374 16.7292 11.0973 16.9346 10.7895C17.14 10.4817 17.2497 10.12 17.25 9.75V5.625H18.375V19.125Z" fill="#130032"/>
</svg>
