<svg width="24" height="24" viewBox="0 0 24 24" fill="none" xmlns="http://www.w3.org/2000/svg">
<path d="M22.7962 6.45444C22.6966 6.146 22.5072 5.87425 22.2524 5.67388C21.9976 5.47351 21.6889 5.35359 21.3656 5.32944L18.1294 5.07444L16.8862 2.12413C16.7601 1.82775 16.5495 1.57501 16.2808 1.39736C16.0121 1.21972 15.6971 1.125 15.375 1.125C15.0529 1.125 14.7379 1.21972 14.4692 1.39736C14.2005 1.57501 13.9899 1.82775 13.8637 2.12413L12.6206 5.07069L9.38531 5.32569C9.06257 5.34987 8.75432 5.46956 8.49983 5.66952C8.24535 5.86948 8.05613 6.14066 7.95629 6.44852C7.85645 6.75639 7.8505 7.087 7.93921 7.39826C8.02791 7.70952 8.20724 7.98733 8.45437 8.19631L10.9078 10.2682L10.1578 13.3619C10.083 13.6757 10.1026 14.0045 10.2141 14.3071C10.3255 14.6098 10.5239 14.8727 10.7843 15.063C11.0447 15.2533 11.3555 15.3624 11.6777 15.3767C11.9999 15.391 12.3191 15.3097 12.5953 15.1432L15.375 13.4679L18.1491 15.1376C18.4252 15.3041 18.7445 15.3853 19.0667 15.3711C19.3889 15.3568 19.6997 15.2477 19.9601 15.0574C20.2205 14.8671 20.4188 14.6041 20.5303 14.3015C20.6418 13.9989 20.6613 13.67 20.5866 13.3563L19.8366 10.2626L22.29 8.19069C22.5372 7.98426 22.7174 7.70889 22.8076 7.39968C22.8978 7.09046 22.8938 6.7614 22.7962 6.45444ZM17.8594 8.99975C17.6996 9.13461 17.5806 9.31131 17.5157 9.51002C17.4508 9.70873 17.4426 9.9216 17.4919 10.1248L18.0544 12.4601L15.9534 11.1944C15.778 11.0895 15.5775 11.0341 15.3731 11.0341C15.1688 11.0341 14.9682 11.0895 14.7928 11.1944L12.6919 12.4601L13.2544 10.1248C13.3036 9.92152 13.2952 9.70859 13.2301 9.50987C13.165 9.31115 13.0458 9.1345 12.8859 8.99975L11.0625 7.451L13.4841 7.2635C13.6896 7.24723 13.8867 7.17479 14.0538 7.0541C14.221 6.9334 14.3518 6.7691 14.4319 6.57913L15.375 4.331L16.3228 6.57538C16.4029 6.76535 16.5337 6.92965 16.7008 7.05035C16.868 7.17104 17.0651 7.24348 17.2706 7.25975L19.6912 7.44725L17.8594 8.99975ZM3.04687 17.2985C2.83553 17.5098 2.54888 17.6286 2.25 17.6286C1.95111 17.6286 1.66447 17.5098 1.45312 17.2985C1.24178 17.0872 1.12305 16.8005 1.12305 16.5016C1.12305 16.2027 1.24178 15.9161 1.45312 15.7048L6.30562 10.8532C6.51697 10.6418 6.80361 10.5231 7.1025 10.5231C7.40138 10.5231 7.68803 10.6418 7.89937 10.8532C8.11072 11.0645 8.22945 11.3512 8.22945 11.6501C8.22945 11.9489 8.11072 12.2356 7.89937 12.4469L3.04687 17.2985ZM9.00844 16.4951C9.11332 16.5996 9.19653 16.7238 9.25331 16.8605C9.31009 16.9973 9.33932 17.1439 9.33932 17.2919C9.33932 17.44 9.31009 17.5866 9.25331 17.7234C9.19653 17.8601 9.11332 17.9843 9.00844 18.0888L4.54687 22.5513C4.44223 22.656 4.31799 22.739 4.18126 22.7956C4.04454 22.8522 3.89799 22.8814 3.75 22.8814C3.60201 22.8814 3.45546 22.8522 3.31873 22.7956C3.182 22.739 3.05777 22.656 2.95312 22.5513C2.84848 22.4467 2.76547 22.3224 2.70883 22.1857C2.6522 22.049 2.62305 21.9024 2.62305 21.7544C2.62305 21.6064 2.6522 21.4599 2.70883 21.3232C2.76547 21.1864 2.84848 21.0622 2.95312 20.9576L7.41562 16.496C7.51986 16.3912 7.64374 16.3079 7.78018 16.2509C7.91662 16.194 8.06294 16.1645 8.21078 16.1642C8.35863 16.1638 8.50509 16.1926 8.64179 16.2489C8.7785 16.3052 8.90277 16.3879 9.0075 16.4923L9.00844 16.4951ZM14.8622 17.3913C14.9671 17.4958 15.0503 17.62 15.1071 17.7568C15.1638 17.8935 15.1931 18.0401 15.1931 18.1882C15.1931 18.3363 15.1638 18.4829 15.1071 18.6196C15.0503 18.7564 14.9671 18.8805 14.8622 18.9851L11.2997 22.5476C11.0883 22.7589 10.8017 22.8776 10.5028 22.8776C10.2039 22.8776 9.91728 22.7589 9.70594 22.5476C9.49459 22.3362 9.37586 22.0496 9.37586 21.7507C9.37586 21.4518 9.49459 21.1652 9.70594 20.9538L13.2684 17.3913C13.3727 17.2864 13.4967 17.2031 13.6333 17.1461C13.7699 17.0892 13.9163 17.0598 14.0643 17.0595C14.2122 17.0592 14.3588 17.0882 14.4955 17.1446C14.6323 17.2011 14.7566 17.2839 14.8612 17.3885L14.8622 17.3913Z" fill="#130032"/>
</svg>
