<svg width="24" height="24" viewBox="0 0 24 24" fill="none" xmlns="http://www.w3.org/2000/svg">
<path d="M21.8634 5.27906C21.7579 5.15261 21.6258 5.05087 21.4766 4.98105C21.3274 4.91123 21.1647 4.87503 21 4.875H6.1875L5.67469 2.04844C5.62751 1.78939 5.49096 1.55509 5.28882 1.38635C5.08668 1.21761 4.83175 1.12513 4.56844 1.125H2.25C1.95163 1.125 1.66548 1.24353 1.4545 1.4545C1.24353 1.66548 1.125 1.95163 1.125 2.25C1.125 2.54837 1.24353 2.83452 1.4545 3.0455C1.66548 3.25647 1.95163 3.375 2.25 3.375H3.62906L5.96437 16.2188C6.02707 16.5599 6.15676 16.8852 6.34594 17.1759C6.01101 17.5678 5.78272 18.0394 5.68309 18.5452C5.58345 19.051 5.61583 19.5739 5.7771 20.0635C5.93837 20.5532 6.2231 20.993 6.60381 21.3406C6.98452 21.6881 7.44837 21.9318 7.95063 22.0479C8.45288 22.164 8.97659 22.1488 9.47124 22.0036C9.9659 21.8585 10.4148 21.5883 10.7747 21.2192C11.1345 20.8501 11.3932 20.3944 11.5257 19.8962C11.6582 19.3981 11.6601 18.8741 11.5312 18.375H14.7187C14.5623 18.9807 14.5992 19.6202 14.8242 20.2039C15.0492 20.7877 15.4511 21.2865 15.9736 21.6305C16.496 21.9746 17.113 22.1467 17.7382 22.1228C18.3633 22.0989 18.9653 21.8801 19.46 21.4972C19.9547 21.1142 20.3173 20.5862 20.497 19.9869C20.6767 19.3877 20.6647 18.7473 20.4624 18.1553C20.2602 17.5633 19.878 17.0493 19.3692 16.6852C18.8604 16.3212 18.2506 16.1253 17.625 16.125H8.54719C8.45951 16.1249 8.37465 16.0941 8.30734 16.0379C8.24003 15.9817 8.19453 15.9037 8.17875 15.8175L7.96125 14.625H18.3844C18.9993 14.625 19.5946 14.4091 20.0667 14.0151C20.5387 13.621 20.8574 13.0738 20.9672 12.4688L22.1072 6.20062C22.1365 6.03854 22.1299 5.87199 22.0877 5.71275C22.0456 5.55351 21.9691 5.40546 21.8634 5.27906ZM9.375 19.125C9.375 19.2733 9.33101 19.4183 9.2486 19.5417C9.16619 19.665 9.04906 19.7611 8.91201 19.8179C8.77497 19.8747 8.62417 19.8895 8.47868 19.8606C8.3332 19.8316 8.19956 19.7602 8.09467 19.6553C7.98978 19.5504 7.91835 19.4168 7.88941 19.2713C7.86047 19.1258 7.87532 18.975 7.93209 18.838C7.98886 18.7009 8.08498 18.5838 8.20832 18.5014C8.33166 18.419 8.47666 18.375 8.625 18.375C8.82391 18.375 9.01468 18.454 9.15533 18.5947C9.29598 18.7353 9.375 18.9261 9.375 19.125ZM17.625 19.875C17.4767 19.875 17.3317 19.831 17.2083 19.7486C17.085 19.6662 16.9889 19.5491 16.9321 19.412C16.8753 19.275 16.8605 19.1242 16.8894 18.9787C16.9183 18.8332 16.9898 18.6996 17.0947 18.5947C17.1996 18.4898 17.3332 18.4184 17.4787 18.3894C17.6242 18.3605 17.775 18.3753 17.912 18.4321C18.0491 18.4889 18.1662 18.585 18.2486 18.7083C18.331 18.8317 18.375 18.9767 18.375 19.125C18.375 19.3239 18.296 19.5147 18.1553 19.6553C18.0147 19.796 17.8239 19.875 17.625 19.875ZM18.75 12.0675C18.7343 12.1533 18.6892 12.2309 18.6225 12.287C18.5558 12.3431 18.4716 12.3742 18.3844 12.375H7.5525L6.59812 7.125H19.6519L18.75 12.0675Z" fill="#130032"/>
</svg>
