<svg width="24" height="24" viewBox="0 0 24 24" fill="none" xmlns="http://www.w3.org/2000/svg">
<path d="M23.2959 5.20508L18.7959 0.705076C18.6913 0.600429 18.5671 0.517419 18.4303 0.460784C18.2936 0.404149 18.1471 0.375 17.9991 0.375C17.7002 0.375 17.4135 0.493732 17.2022 0.705076C16.9908 0.916421 16.8721 1.20307 16.8721 1.50195C16.8721 1.80084 16.9908 2.08748 17.2022 2.29883L18.6563 3.75101L12.5278 9.87945L9.57563 6.92539C9.22401 6.57388 8.74719 6.37642 8.25 6.37642C7.75282 6.37642 7.27599 6.57388 6.92438 6.92539L1.67438 12.1754C1.49984 12.3492 1.36143 12.5557 1.26714 12.7833C1.17285 13.0108 1.12454 13.2547 1.125 13.501V21.001C1.125 21.4983 1.32255 21.9752 1.67418 22.3268C2.02581 22.6785 2.50272 22.876 3 22.876H10.5C10.7463 22.8767 10.9903 22.8285 11.2179 22.7342C11.4454 22.6399 11.652 22.5013 11.8256 22.3266L17.0756 17.0766C17.4271 16.725 17.6246 16.2482 17.6246 15.751C17.6246 15.2538 17.4271 14.777 17.0756 14.4254L14.1216 11.4704L20.25 5.34476L21.7041 6.79976C21.9154 7.01111 22.2021 7.12984 22.5009 7.12984C22.7998 7.12984 23.0865 7.01111 23.2978 6.79976C23.5092 6.58842 23.6279 6.30177 23.6279 6.00289C23.6279 5.704 23.5092 5.41736 23.2978 5.20601L23.2959 5.20508ZM15.2194 15.751L10.3444 20.626H3.375V13.6566L8.25 8.78164L10.9397 11.4704L7.45407 14.9551C7.24272 15.1664 7.12399 15.4531 7.12399 15.752C7.12399 16.0508 7.24272 16.3375 7.45407 16.5488C7.66541 16.7602 7.95205 16.8789 8.25094 16.8789C8.54983 16.8789 8.83647 16.7602 9.04782 16.5488L12.5325 13.0632L15.2194 15.751Z" fill="#130032"/>
</svg>
