<svg width="24" height="24" viewBox="0 0 24 24" fill="none" xmlns="http://www.w3.org/2000/svg">
<path d="M6.375 22.125C6.375 22.4217 6.28703 22.7117 6.1222 22.9584C5.95738 23.205 5.72311 23.3973 5.44903 23.5108C5.17494 23.6244 4.87334 23.6541 4.58237 23.5962C4.29139 23.5383 4.02412 23.3954 3.81434 23.1857C3.60456 22.9759 3.4617 22.7086 3.40382 22.4176C3.34594 22.1267 3.37565 21.8251 3.48918 21.551C3.60271 21.2769 3.79497 21.0426 4.04165 20.8778C4.28832 20.713 4.57833 20.625 4.875 20.625C5.27283 20.625 5.65436 20.783 5.93566 21.0643C6.21697 21.3456 6.375 21.7272 6.375 22.125ZM7.875 17.625C7.57833 17.625 7.28832 17.713 7.04165 17.8778C6.79497 18.0426 6.60271 18.2769 6.48918 18.551C6.37565 18.8251 6.34594 19.1267 6.40382 19.4176C6.4617 19.7086 6.60456 19.9759 6.81434 20.1857C7.02412 20.3954 7.29139 20.5383 7.58237 20.5962C7.87334 20.6541 8.17494 20.6244 8.44903 20.5108C8.72311 20.3973 8.95738 20.205 9.1222 19.9584C9.28703 19.7117 9.375 19.4217 9.375 19.125C9.375 18.7272 9.21696 18.3456 8.93566 18.0643C8.65436 17.783 8.27283 17.625 7.875 17.625ZM1.875 17.625C1.57833 17.625 1.28832 17.713 1.04165 17.8778C0.794972 18.0426 0.602713 18.2769 0.489181 18.551C0.37565 18.8251 0.345945 19.1267 0.403823 19.4176C0.461701 19.7086 0.604562 19.9759 0.814341 20.1857C1.02412 20.3954 1.29139 20.5383 1.58237 20.5962C1.87334 20.6541 2.17494 20.6244 2.44903 20.5108C2.72311 20.3973 2.95738 20.205 3.12221 19.9584C3.28703 19.7117 3.375 19.4217 3.375 19.125C3.375 18.7272 3.21697 18.3456 2.93566 18.0643C2.65436 17.783 2.27283 17.625 1.875 17.625ZM4.875 17.625C5.17167 17.625 5.46168 17.537 5.70836 17.3722C5.95503 17.2074 6.14729 16.9731 6.26082 16.699C6.37435 16.4249 6.40406 16.1233 6.34618 15.8324C6.2883 15.5414 6.14544 15.2741 5.93566 15.0643C5.72588 14.8546 5.45861 14.7117 5.16764 14.6538C4.87666 14.5959 4.57506 14.6256 4.30098 14.7392C4.02689 14.8527 3.79262 15.045 3.6278 15.2916C3.46297 15.5383 3.375 15.8283 3.375 16.125C3.375 16.5228 3.53304 16.9044 3.81434 17.1857C4.09564 17.467 4.47718 17.625 4.875 17.625ZM24 3.75C24 4.04837 23.8815 4.33452 23.6705 4.5455C23.4595 4.75647 23.1734 4.875 22.875 4.875H20.7188L18.2991 7.29281L16.2881 19.0622C16.2306 19.4014 16.0809 19.7183 15.8553 19.9781C15.6298 20.2378 15.3371 20.4306 15.0093 20.5351C14.6815 20.6397 14.3313 20.652 13.9969 20.5708C13.6626 20.4896 13.357 20.318 13.1138 20.0747L3.92625 10.8872C3.6824 10.6437 3.51037 10.3377 3.42904 10.0029C3.34772 9.668 3.36025 9.3172 3.46526 8.98899C3.57027 8.66078 3.7637 8.36786 4.0243 8.1424C4.28491 7.91694 4.6026 7.76765 4.9425 7.71094L16.7081 5.70094L19.4541 2.95406C19.5586 2.84962 19.6827 2.76681 19.8193 2.71035C19.9559 2.65389 20.1022 2.62488 20.25 2.625H22.875C23.1734 2.625 23.4595 2.74353 23.6705 2.95451C23.8815 3.16548 24 3.45163 24 3.75ZM15.8738 8.12625L6.03 9.80813L14.1928 17.9709L15.8738 8.12625Z" fill="#130032"/>
</svg>
