<svg width="24" height="24" viewBox="0 0 24 24" fill="none" xmlns="http://www.w3.org/2000/svg">
<path d="M22.8752 5.625C22.8752 4.82935 22.5592 4.06629 21.9965 3.50368C21.4339 2.94107 20.6709 2.625 19.8752 2.625H12.0002C11.9008 2.625 11.8054 2.58549 11.7351 2.51516C11.6647 2.44484 11.6252 2.34946 11.6252 2.25C11.6252 1.95163 11.5067 1.66548 11.2957 1.4545C11.0847 1.24353 10.7986 1.125 10.5002 1.125C10.2019 1.125 9.9157 1.24353 9.70473 1.4545C9.49375 1.66548 9.37522 1.95163 9.37522 2.25C9.37522 2.94619 9.65178 3.61387 10.1441 4.10616C10.6363 4.59844 11.304 4.875 12.0002 4.875H19.8752C20.0741 4.875 20.2649 4.95402 20.4056 5.09467C20.5462 5.23532 20.6252 5.42609 20.6252 5.625C20.6252 5.82391 20.5462 6.01468 20.4056 6.15533C20.2649 6.29598 20.0741 6.375 19.8752 6.375H9.0846C4.72803 6.375 1.1571 9.88125 1.12522 14.1909C1.11743 15.2301 1.31537 16.2604 1.70763 17.2227C2.0999 18.185 2.67873 19.0601 3.41077 19.7976C4.14281 20.5352 5.01358 21.1205 5.97288 21.52C6.93219 21.9194 7.96107 22.125 9.00022 22.125H14.2502C14.5486 22.125 14.8347 22.0065 15.0457 21.7955C15.2567 21.5845 15.3752 21.2984 15.3752 21C15.3752 20.7016 15.2567 20.4155 15.0457 20.2045C14.8347 19.9935 14.5486 19.875 14.2502 19.875H11.6252V18.375H15.7502C16.0486 18.375 16.3347 18.2565 16.5457 18.0455C16.7567 17.8345 16.8752 17.5484 16.8752 17.25C16.8752 16.9516 16.7567 16.6655 16.5457 16.4545C16.3347 16.2435 16.0486 16.125 15.7502 16.125H10.5002C10.3013 16.125 10.1105 16.046 9.96989 15.9053C9.82924 15.7647 9.75022 15.5739 9.75022 15.375C9.75022 15.1761 9.82924 14.9853 9.96989 14.8447C10.1105 14.704 10.3013 14.625 10.5002 14.625H14.2502C16.0105 14.6228 17.7078 13.9699 19.0158 12.7919C20.3238 11.6139 21.1501 9.99389 21.3358 8.24344C21.8022 7.98347 22.1908 7.60373 22.4614 7.14344C22.732 6.68314 22.8749 6.15895 22.8752 5.625ZM9.0846 8.625H9.37522V12.5944C8.91433 12.7819 8.50693 13.0804 8.18928 13.4634L4.06428 11.5884C4.55991 10.6909 5.28702 9.94264 6.16994 9.42146C7.05286 8.90028 8.05933 8.62526 9.0846 8.625ZM3.37522 14.2069C3.37522 14.0559 3.38553 13.9059 3.39866 13.7578L7.51147 15.6272C7.52242 15.7626 7.5431 15.897 7.57335 16.0294L4.81053 18C3.87345 16.9603 3.36117 15.6065 3.37522 14.2069ZM9.00022 19.875C8.21804 19.8761 7.44427 19.7136 6.72866 19.3978L8.85303 17.8809C9.01779 17.9892 9.19268 18.0812 9.37522 18.1556V19.875H9.00022ZM14.2502 12.375H11.6252V8.625H18.994C18.7395 9.69211 18.1331 10.6424 17.2725 11.3228C16.4119 12.0031 15.3473 12.3737 14.2502 12.375Z" fill="#130032"/>
</svg>
