<svg width="24" height="24" viewBox="0 0 24 24" fill="none" xmlns="http://www.w3.org/2000/svg">
<path d="M22.5459 16.4551C22.6508 16.5596 22.734 16.6838 22.7908 16.8205C22.8476 16.9573 22.8768 17.1039 22.8768 17.252C22.8768 17.4 22.8476 17.5466 22.7908 17.6834C22.734 17.8201 22.6508 17.9443 22.5459 18.0488L20.2959 20.2988C20.0846 20.5102 19.7979 20.6289 19.4991 20.6289C19.2002 20.6289 18.9135 20.5102 18.7022 20.2988C18.4908 20.0875 18.3721 19.8008 18.3721 19.502C18.3721 19.2031 18.4908 18.9164 18.7022 18.7051L19.0312 18.376H18.8353C17.7013 18.3748 16.5839 18.1035 15.5756 17.5845C14.5672 17.0656 13.697 16.314 13.0369 15.392L9.12937 9.91789C8.6778 9.28686 8.08237 8.7725 7.39242 8.41742C6.70247 8.06233 5.93784 7.87674 5.16188 7.87601H3C2.70163 7.87601 2.41548 7.75749 2.2045 7.54651C1.99353 7.33553 1.875 7.04938 1.875 6.75101C1.875 6.45265 1.99353 6.1665 2.2045 5.95552C2.41548 5.74454 2.70163 5.62601 3 5.62601H5.16188C6.29589 5.62727 7.4133 5.89858 8.42162 6.41749C9.42994 6.93641 10.3002 7.68801 10.9603 8.61008L14.8706 14.0841C15.3222 14.7152 15.9176 15.2295 16.6076 15.5846C17.2975 15.9397 18.0622 16.1253 18.8381 16.126H19.0312L18.7013 15.797C18.4899 15.5856 18.3712 15.299 18.3712 15.0001C18.3712 14.7012 18.4899 14.4145 18.7013 14.2032C18.9126 13.9919 19.1992 13.8731 19.4981 13.8731C19.797 13.8731 20.0837 13.9919 20.295 14.2032L22.5459 16.4551ZM13.5816 9.64695C13.8061 9.84333 14.0995 9.94249 14.3971 9.92262C14.6947 9.90276 14.9723 9.76549 15.1688 9.54101C15.6264 9.01797 16.1905 8.59882 16.8234 8.31166C17.4562 8.02449 18.1432 7.87596 18.8381 7.87601H19.0312L18.7013 8.20508C18.4899 8.41642 18.3712 8.70307 18.3712 9.00195C18.3712 9.30084 18.4899 9.58748 18.7013 9.79883C18.9126 10.0102 19.1992 10.1289 19.4981 10.1289C19.797 10.1289 20.0837 10.0102 20.295 9.79883L22.545 7.54883C22.6499 7.44431 22.7331 7.32012 22.7899 7.18337C22.8467 7.04663 22.8759 6.90002 22.8759 6.75195C22.8759 6.60389 22.8467 6.45728 22.7899 6.32053C22.7331 6.18378 22.6499 6.05959 22.545 5.95508L20.295 3.70508C20.0837 3.49373 19.797 3.375 19.4981 3.375C19.1992 3.375 18.9126 3.49373 18.7013 3.70508C18.4899 3.91642 18.3712 4.20307 18.3712 4.50195C18.3712 4.80084 18.4899 5.08748 18.7013 5.29883L19.0312 5.62601H18.8353C17.8194 5.6265 16.8153 5.84425 15.8904 6.26465C14.9655 6.68506 14.1412 7.29839 13.4728 8.06351C13.2779 8.28822 13.18 8.58094 13.2004 8.87768C13.2207 9.17441 13.3578 9.451 13.5816 9.64695ZM10.4184 14.3551C10.1939 14.1587 9.90055 14.0595 9.60291 14.0794C9.30527 14.0993 9.0277 14.2365 8.83125 14.461C8.37364 14.9841 7.8095 15.4032 7.17664 15.6904C6.54378 15.9775 5.85684 16.1261 5.16188 16.126H3C2.70163 16.126 2.41548 16.2445 2.2045 16.4555C1.99353 16.6665 1.875 16.9526 1.875 17.251C1.875 17.5494 1.99353 17.8355 2.2045 18.0465C2.41548 18.2575 2.70163 18.376 3 18.376H5.16188C6.17783 18.3755 7.18192 18.1578 8.10681 17.7374C9.0317 17.317 9.85599 16.7036 10.5244 15.9385C10.7196 15.7142 10.818 15.4217 10.7982 15.1249C10.7783 14.8282 10.6418 14.5514 10.4184 14.3551Z" fill="#130032"/>
</svg>
