<svg width="24" height="24" viewBox="0 0 24 24" fill="none" xmlns="http://www.w3.org/2000/svg">
<path d="M20.625 4.50101V8.25101C20.625 8.54938 20.5064 8.83553 20.2955 9.04651C20.0845 9.25749 19.7983 9.37601 19.5 9.37601C19.2016 9.37601 18.9154 9.25749 18.7045 9.04651C18.4935 8.83553 18.375 8.54938 18.375 8.25101V7.21976L15.4471 10.1448C15.2358 10.3561 14.9492 10.4748 14.6503 10.4748C14.3514 10.4748 14.0647 10.3561 13.8534 10.1448C13.6421 9.93342 13.5233 9.64677 13.5233 9.34789C13.5233 9.049 13.6421 8.76236 13.8534 8.55101L16.7812 5.62601H15.75C15.4516 5.62601 15.1654 5.50749 14.9545 5.29651C14.7435 5.08553 14.625 4.79938 14.625 4.50101C14.625 4.20265 14.7435 3.9165 14.9545 3.70552C15.1654 3.49454 15.4516 3.37601 15.75 3.37601H19.5C19.7983 3.37601 20.0845 3.49454 20.2955 3.70552C20.5064 3.9165 20.625 4.20265 20.625 4.50101ZM19.5 14.626C19.2016 14.626 18.9154 14.7445 18.7045 14.9555C18.4935 15.1665 18.375 15.4526 18.375 15.751V16.7823L5.2959 3.70508C5.08455 3.49373 4.79791 3.375 4.49902 3.375C4.20014 3.375 3.91349 3.49373 3.70215 3.70508C3.4908 3.91642 3.37207 4.20307 3.37207 4.50195C3.37207 4.80084 3.4908 5.08748 3.70215 5.29883L16.7812 18.376H15.75C15.4516 18.376 15.1654 18.4945 14.9545 18.7055C14.7435 18.9165 14.625 19.2026 14.625 19.501C14.625 19.7994 14.7435 20.0855 14.9545 20.2965C15.1654 20.5075 15.4516 20.626 15.75 20.626H19.5C19.7983 20.626 20.0845 20.5075 20.2955 20.2965C20.5064 20.0855 20.625 19.7994 20.625 19.501V15.751C20.625 15.4526 20.5064 15.1665 20.2955 14.9555C20.0845 14.7445 19.7983 14.626 19.5 14.626ZM8.55277 13.8573L3.70402 18.7051C3.49268 18.9164 3.37395 19.2031 3.37395 19.502C3.37395 19.8008 3.49268 20.0875 3.70402 20.2988C3.91537 20.5102 4.20201 20.6289 4.5009 20.6289C4.79978 20.6289 5.08643 20.5102 5.29777 20.2988L10.1456 15.4501C10.3569 15.2387 10.4757 14.9521 10.4757 14.6532C10.4757 14.3543 10.3569 14.0677 10.1456 13.8563C9.93424 13.645 9.6476 13.5262 9.34871 13.5262C9.04982 13.5262 8.76318 13.645 8.55183 13.8563L8.55277 13.8573Z" fill="#130032"/>
</svg>
