<svg width="24" height="24" viewBox="0 0 24 24" fill="none" xmlns="http://www.w3.org/2000/svg">
<path d="M22.5459 16.4551C22.6508 16.5596 22.734 16.6838 22.7908 16.8205C22.8476 16.9573 22.8768 17.1039 22.8768 17.252C22.8768 17.4 22.8476 17.5466 22.7908 17.6834C22.734 17.8201 22.6508 17.9443 22.5459 18.0488L20.2959 20.2988C20.0846 20.5102 19.7979 20.6289 19.4991 20.6289C19.2002 20.6289 18.9135 20.5102 18.7022 20.2988C18.4908 20.0875 18.3721 19.8008 18.3721 19.502C18.3721 19.2031 18.4908 18.9164 18.7022 18.7051L19.0312 18.376H15.75C15.5712 18.3762 15.3949 18.3338 15.2358 18.2523C15.0767 18.1708 14.9393 18.0525 14.835 17.9073L7.67062 7.87601H3C2.70163 7.87601 2.41548 7.75749 2.2045 7.54651C1.99353 7.33553 1.875 7.04938 1.875 6.75101C1.875 6.45265 1.99353 6.1665 2.2045 5.95552C2.41548 5.74454 2.70163 5.62601 3 5.62601H8.25C8.42879 5.62582 8.60505 5.66824 8.76418 5.74975C8.9233 5.83127 9.06071 5.94954 9.165 6.09476L16.3294 16.126H19.0312L18.7013 15.797C18.4899 15.5856 18.3712 15.299 18.3712 15.0001C18.3712 14.7012 18.4899 14.4145 18.7013 14.2032C18.9126 13.9919 19.1992 13.8731 19.4981 13.8731C19.797 13.8731 20.0837 13.9919 20.295 14.2032L22.5459 16.4551ZM10.35 14.311C10.2298 14.2251 10.0938 14.1638 9.94989 14.1305C9.80596 14.0971 9.65687 14.0925 9.51114 14.1168C9.36541 14.141 9.22589 14.1938 9.10055 14.272C8.9752 14.3502 8.8665 14.4524 8.78063 14.5726L7.67062 16.126H3C2.70163 16.126 2.41548 16.2445 2.2045 16.4555C1.99353 16.6665 1.875 16.9526 1.875 17.251C1.875 17.5494 1.99353 17.8355 2.2045 18.0465C2.41548 18.2575 2.70163 18.376 3 18.376H8.25C8.42879 18.3762 8.60505 18.3338 8.76418 18.2523C8.9233 18.1708 9.06071 18.0525 9.165 17.9073L10.6116 15.8832C10.6979 15.7629 10.7596 15.6267 10.7932 15.4825C10.8267 15.3383 10.8315 15.1889 10.8072 15.0428C10.7829 14.8967 10.73 14.7569 10.6516 14.6313C10.5731 14.5058 10.4706 14.3969 10.35 14.311ZM13.65 9.69101C13.7702 9.77689 13.9062 9.83824 14.0501 9.87157C14.194 9.9049 14.3431 9.90956 14.4889 9.88527C14.6346 9.86098 14.7741 9.80823 14.8995 9.73002C15.0248 9.65181 15.1335 9.54967 15.2194 9.42945L16.3294 7.87601H19.0312L18.7013 8.20508C18.4899 8.41642 18.3712 8.70307 18.3712 9.00195C18.3712 9.30084 18.4899 9.58748 18.7013 9.79883C18.9126 10.0102 19.1992 10.1289 19.4981 10.1289C19.797 10.1289 20.0837 10.0102 20.295 9.79883L22.545 7.54883C22.6499 7.44431 22.7331 7.32012 22.7899 7.18337C22.8467 7.04663 22.8759 6.90002 22.8759 6.75195C22.8759 6.60389 22.8467 6.45728 22.7899 6.32053C22.7331 6.18378 22.6499 6.05959 22.545 5.95508L20.295 3.70508C20.0837 3.49373 19.797 3.375 19.4981 3.375C19.1992 3.375 18.9126 3.49373 18.7013 3.70508C18.4899 3.91642 18.3712 4.20307 18.3712 4.50195C18.3712 4.80084 18.4899 5.08748 18.7013 5.29883L19.0312 5.62601H15.75C15.5712 5.62582 15.3949 5.66824 15.2358 5.74975C15.0767 5.83127 14.9393 5.94954 14.835 6.09476L13.3884 8.11976C13.3023 8.24005 13.2407 8.37614 13.2072 8.52027C13.1737 8.66439 13.169 8.8137 13.1933 8.95965C13.2176 9.1056 13.2704 9.24533 13.3488 9.37083C13.4272 9.49633 13.5295 9.60513 13.65 9.69101Z" fill="#130032"/>
</svg>
