<svg width="24" height="24" viewBox="0 0 24 24" fill="none" xmlns="http://www.w3.org/2000/svg">
<path d="M16.8752 6.75V5.625H8.34399L12.8815 11.2969C13.0412 11.4964 13.1283 11.7444 13.1283 12C13.1283 12.2556 13.0412 12.5036 12.8815 12.7031L8.34399 18.375H16.8752V17.25C16.8752 16.9516 16.9938 16.6655 17.2047 16.4545C17.4157 16.2435 17.7019 16.125 18.0002 16.125C18.2986 16.125 18.5848 16.2435 18.7957 16.4545C19.0067 16.6655 19.1252 16.9516 19.1252 17.25V19.5C19.1252 19.7984 19.0067 20.0845 18.7957 20.2955C18.5848 20.5065 18.2986 20.625 18.0002 20.625H6.00024C5.78827 20.625 5.5806 20.5652 5.40115 20.4524C5.22171 20.3395 5.0778 20.1783 4.98599 19.9872C4.89418 19.7962 4.85822 19.5831 4.88225 19.3725C4.90628 19.1619 4.98932 18.9623 5.1218 18.7969L10.5593 12L5.1218 5.20312C4.98932 5.03766 4.90628 4.83813 4.88225 4.62752C4.85822 4.41692 4.89418 4.20381 4.98599 4.01275C5.0778 3.8217 5.22171 3.66046 5.40115 3.54763C5.5806 3.4348 5.78827 3.37496 6.00024 3.375H18.0002C18.2986 3.375 18.5848 3.49353 18.7957 3.7045C19.0067 3.91548 19.1252 4.20163 19.1252 4.5V6.75C19.1252 7.04837 19.0067 7.33452 18.7957 7.5455C18.5848 7.75647 18.2986 7.875 18.0002 7.875C17.7019 7.875 17.4157 7.75647 17.2047 7.5455C16.9938 7.33452 16.8752 7.04837 16.8752 6.75Z" fill="#130032"/>
</svg>
