<svg width="24" height="24" viewBox="0 0 24 24" fill="none" xmlns="http://www.w3.org/2000/svg">
<path d="M23.3363 9.75L20.1844 6.24563C20.0086 6.05035 19.7938 5.89419 19.5538 5.78727C19.3138 5.68035 19.054 5.62507 18.7913 5.625H13.125V3C13.125 2.70163 13.0065 2.41548 12.7955 2.2045C12.5845 1.99353 12.2984 1.875 12 1.875C11.7016 1.875 11.4155 1.99353 11.2045 2.2045C10.9935 2.41548 10.875 2.70163 10.875 3V5.625H3.75C3.25272 5.625 2.77581 5.82254 2.42417 6.17417C2.07254 6.52581 1.875 7.00272 1.875 7.5V13.5C1.875 13.7462 1.9235 13.99 2.01773 14.2175C2.11195 14.445 2.25006 14.6517 2.42417 14.8258C2.59828 14.9999 2.80498 15.138 3.03247 15.2323C3.25995 15.3265 3.50377 15.375 3.75 15.375H10.875V21C10.875 21.2984 10.9935 21.5845 11.2045 21.7955C11.4155 22.0065 11.7016 22.125 12 22.125C12.2984 22.125 12.5845 22.0065 12.7955 21.7955C13.0065 21.5845 13.125 21.2984 13.125 21V15.375H18.7913C19.054 15.3749 19.3138 15.3196 19.5538 15.2127C19.7938 15.1058 20.0086 14.9497 20.1844 14.7544L23.3363 11.25C23.5207 11.0437 23.6227 10.7767 23.6227 10.5C23.6227 10.2233 23.5207 9.95626 23.3363 9.75ZM18.6244 13.125H4.125V7.875H18.6244L20.9869 10.5L18.6244 13.125Z" fill="#130032"/>
</svg>
