<svg width="24" height="24" viewBox="0 0 24 24" fill="none" xmlns="http://www.w3.org/2000/svg">
<path d="M20.2959 7.45406L15.0459 2.20406C14.9414 2.09962 14.8173 2.01681 14.6807 1.96035C14.5441 1.90389 14.3978 1.87488 14.25 1.875H5.25C4.75272 1.875 4.27581 2.07254 3.92417 2.42418C3.57254 2.77581 3.375 3.25272 3.375 3.75V20.25C3.375 20.7473 3.57254 21.2242 3.92417 21.5758C4.27581 21.9275 4.75272 22.125 5.25 22.125H18.75C19.2473 22.125 19.7242 21.9275 20.0758 21.5758C20.4275 21.2242 20.625 20.7473 20.625 20.25V8.25C20.6251 8.10222 20.5961 7.95586 20.5397 7.81929C20.4832 7.68272 20.4004 7.55862 20.2959 7.45406ZM18.375 19.875H5.625V4.125H13.7812L18.375 8.71875V19.875ZM8.25 10.5C7.95163 10.5 7.66548 10.6185 7.4545 10.8295C7.24353 11.0405 7.125 11.3266 7.125 11.625V17.25C7.125 17.5484 7.24353 17.8345 7.4545 18.0455C7.66548 18.2565 7.95163 18.375 8.25 18.375H15.75C16.0484 18.375 16.3345 18.2565 16.5455 18.0455C16.7565 17.8345 16.875 17.5484 16.875 17.25V11.625C16.875 11.3266 16.7565 11.0405 16.5455 10.8295C16.3345 10.6185 16.0484 10.5 15.75 10.5H8.25ZM9.375 12.75H10.875V16.125H9.375V12.75ZM14.625 16.125H13.125V12.75H14.625V16.125Z" fill="#130032"/>
</svg>
