<svg width="24" height="24" viewBox="0 0 24 24" fill="none" xmlns="http://www.w3.org/2000/svg">
<path d="M23.3437 9.00937L18.0937 3.00937C17.9885 2.88903 17.8588 2.7925 17.7133 2.72622C17.5678 2.65994 17.4098 2.62544 17.25 2.625H6.74996C6.59008 2.62544 6.43214 2.65994 6.28664 2.72622C6.14115 2.7925 6.01146 2.88903 5.90621 3.00937L0.656207 9.00937C0.472686 9.21916 0.373573 9.48959 0.378077 9.76828C0.38258 10.047 0.490379 10.3141 0.680582 10.5178L11.1806 21.7678C11.2858 21.8805 11.4131 21.9704 11.5546 22.0318C11.696 22.0932 11.8486 22.1249 12.0028 22.1249C12.157 22.1249 12.3095 22.0932 12.451 22.0318C12.5924 21.9704 12.7197 21.8805 12.825 21.7678L23.325 10.5178C23.5144 10.3134 23.6212 10.0459 23.6246 9.7672C23.6281 9.48852 23.528 9.21847 23.3437 9.00937ZM20.0203 8.625H17.0625L14.25 4.875H16.739L20.0203 8.625ZM6.73871 10.875L8.72527 15.8438L4.0884 10.875H6.73871ZM14.8387 10.875L12 17.9709L9.16121 10.875H14.8387ZM9.74996 8.625L12 5.625L14.25 8.625H9.74996ZM17.2612 10.875H19.9115L15.2746 15.8438L17.2612 10.875ZM7.26089 4.875H9.74996L6.93746 8.625H3.97965L7.26089 4.875Z" fill="#130032"/>
</svg>
