<svg width="24" height="24" viewBox="0 0 24 24" fill="none" xmlns="http://www.w3.org/2000/svg">
<path d="M18.75 2.62585C18.4516 2.62585 18.1655 2.74438 17.9545 2.95536C17.7435 3.16634 17.625 3.45248 17.625 3.75085V9.56335L6.98906 2.9071C6.70587 2.73126 6.38091 2.63409 6.04767 2.62561C5.71443 2.61713 5.38495 2.69764 5.09318 2.85886C4.80141 3.02007 4.55789 3.25616 4.38771 3.5428C4.21753 3.82943 4.12685 4.15626 4.125 4.4896V19.5121C4.12685 19.8454 4.21753 20.1723 4.38771 20.4589C4.55789 20.7455 4.80141 20.9816 5.09318 21.1428C5.38495 21.3041 5.71443 21.3846 6.04767 21.3761C6.38091 21.3676 6.70587 21.2704 6.98906 21.0946L17.625 14.4384V20.2509C17.625 20.5492 17.7435 20.8354 17.9545 21.0463C18.1655 21.2573 18.4516 21.3759 18.75 21.3759C19.0484 21.3759 19.3345 21.2573 19.5455 21.0463C19.7565 20.8354 19.875 20.5492 19.875 20.2509V3.75085C19.875 3.45248 19.7565 3.16634 19.5455 2.95536C19.3345 2.74438 19.0484 2.62585 18.75 2.62585ZM6.375 18.8193V5.18241L17.2781 12.0009L6.375 18.8193Z" fill="#130032"/>
</svg>
