<svg width="24" height="24" viewBox="0 0 24 24" fill="none" xmlns="http://www.w3.org/2000/svg">
<path d="M16.125 14.25C16.125 16.1428 14.3128 17.625 12 17.625C10.0069 17.625 8.30064 16.4672 7.94345 14.8707C7.88128 14.5806 7.93617 14.2778 8.09617 14.028C8.25618 13.7782 8.50836 13.6018 8.79783 13.537C9.0873 13.4722 9.39063 13.5244 9.64182 13.6822C9.89301 13.8399 10.0717 14.0905 10.1391 14.3794C10.2469 14.8585 10.9885 15.375 12 15.375C12.885 15.375 13.875 14.8941 13.875 14.25C13.875 13.6528 13.2853 13.3763 11.625 12.8982C10.1119 12.4622 8.04095 11.8669 8.04095 9.75003C8.04095 7.82628 9.74252 6.37503 11.9991 6.37503C13.6153 6.37503 15.0047 7.13816 15.6263 8.36628C15.6954 8.49831 15.7376 8.64275 15.7504 8.79122C15.7632 8.93969 15.7464 9.08923 15.701 9.23115C15.6555 9.37308 15.5823 9.50455 15.4856 9.61795C15.389 9.73135 15.2707 9.82441 15.1377 9.89173C15.0048 9.95904 14.8598 9.99927 14.7112 10.0101C14.5625 10.0209 14.4132 10.0021 14.2719 9.95468C14.1306 9.90731 14.0002 9.83233 13.8881 9.73411C13.776 9.63589 13.6846 9.51639 13.6191 9.38253C13.3875 8.92222 12.75 8.62503 12 8.62503C11.0419 8.62503 10.2919 9.11909 10.2919 9.75003C10.2919 9.85222 10.2919 9.95722 10.5994 10.141C10.9913 10.3735 11.6306 10.5582 12.2494 10.7363C13.0697 10.9725 13.9181 11.2172 14.6288 11.6607C15.8653 12.4322 16.125 13.4944 16.125 14.25ZM22.125 16.5C22.1233 17.9913 21.5301 19.4211 20.4756 20.4756C19.4211 21.5301 17.9913 22.1233 16.5 22.125C15.4376 22.1277 14.3966 21.8261 13.5 21.256C13.004 21.3353 12.5024 21.3751 12 21.375C9.51445 21.3723 7.13147 20.3837 5.37391 18.6261C3.61634 16.8686 2.62775 14.4856 2.62502 12C2.62493 11.4977 2.66475 10.9961 2.74408 10.5C2.17395 9.60349 1.87239 8.56249 1.87502 7.50003C1.87675 6.00872 2.46994 4.57899 3.52446 3.52447C4.57898 2.46996 6.00871 1.87677 7.50002 1.87503C8.56407 1.87151 9.60682 2.17311 10.5047 2.74409C10.9992 2.66501 11.4992 2.62519 12 2.62503C14.4856 2.62776 16.8686 3.61636 18.6261 5.37392C20.3837 7.13148 21.3723 9.51446 21.375 12C21.3751 12.5024 21.3353 13.004 21.256 13.5C21.8261 14.3966 22.1276 15.4376 22.125 16.5ZM19.875 16.5C19.878 15.7534 19.6308 15.0272 19.1728 14.4375C19.0727 14.3078 19.0021 14.1578 18.966 13.998C18.9299 13.8382 18.9291 13.6724 18.9638 13.5122C19.2159 12.3463 19.1715 11.1358 18.8348 9.99146C18.498 8.84712 17.8796 7.80554 17.0361 6.96207C16.1926 6.11859 15.151 5.50016 14.0067 5.16339C12.8624 4.82662 11.6519 4.78228 10.486 5.03441C10.3262 5.06902 10.1609 5.06842 10.0014 5.03264C9.84191 4.99686 9.69215 4.92676 9.56252 4.82722C8.97282 4.36922 8.24667 4.122 7.50002 4.12503C6.60491 4.12503 5.74647 4.48061 5.11353 5.11354C4.4806 5.74648 4.12502 6.60492 4.12502 7.50003C4.12198 8.24669 4.3692 8.97283 4.8272 9.56253C4.92734 9.69223 4.99792 9.84224 5.03404 10.0021C5.07015 10.1619 5.07091 10.3277 5.03627 10.4878C4.78414 11.6537 4.82849 12.8643 5.16525 14.0086C5.50202 15.1529 6.12045 16.1945 6.96393 17.038C7.80741 17.8815 8.84898 18.4999 9.99332 18.8367C11.1376 19.1734 12.3482 19.2178 13.5141 18.9657C13.6742 18.931 13.84 18.9318 13.9998 18.9679C14.1597 19.004 14.3097 19.0746 14.4394 19.1747C15.0288 19.6316 15.7542 19.8782 16.5 19.875C17.3951 19.875 18.2536 19.5195 18.8865 18.8865C19.5194 18.2536 19.875 17.3951 19.875 16.5Z" fill="#130032"/>
</svg>
