<svg width="24" height="24" viewBox="0 0 24 24" fill="none" xmlns="http://www.w3.org/2000/svg">
<path d="M22.1249 9.75083C22.1248 9.21091 21.9953 8.67887 21.7471 8.19938C21.4989 7.71989 21.1392 7.30695 20.6984 6.99523C20.2575 6.68351 19.7483 6.48211 19.2135 6.40794C18.6787 6.33376 18.1339 6.38898 17.6249 6.56896V5.25083C17.6243 4.59958 17.4353 3.9624 17.0806 3.41616C16.726 2.86992 16.2209 2.43794 15.6263 2.17234C15.0317 1.90674 14.3729 1.81885 13.7294 1.91928C13.0859 2.01971 12.4853 2.30416 11.9999 2.73833C11.4414 2.23952 10.7329 1.94059 9.98591 1.88861C9.23892 1.83662 8.49585 2.03453 7.87368 2.45117C7.2515 2.86782 6.78555 3.47954 6.54917 4.19005C6.31279 4.90056 6.31941 5.6695 6.56798 6.37583H5.24986C4.5986 6.37643 3.96142 6.56543 3.41518 6.92005C2.86894 7.27467 2.43697 7.77976 2.17136 8.3744C1.90576 8.96903 1.81787 9.62781 1.9183 10.2713C2.01873 10.9147 2.30318 11.5154 2.73736 12.0008C2.23854 12.5593 1.93962 13.2678 1.88763 14.0148C1.83564 14.7618 2.03355 15.5048 2.4502 16.127C2.86684 16.7492 3.47856 17.2151 4.18907 17.4515C4.89958 17.6879 5.66852 17.6813 6.37486 17.4327V18.7508C6.37545 19.4021 6.56446 20.0393 6.91908 20.5855C7.2737 21.1317 7.77879 21.5637 8.37342 21.8293C8.96806 22.0949 9.62684 22.1828 10.2703 22.0824C10.9138 21.982 11.5144 21.6975 11.9999 21.2633C12.5583 21.7621 13.2668 22.0611 14.0138 22.1131C14.7608 22.165 15.5039 21.9671 16.126 21.5505C16.7482 21.1339 17.2142 20.5221 17.4505 19.8116C17.6869 19.1011 17.6803 18.3322 17.4317 17.6258H18.7499C19.4011 17.6252 20.0383 17.4362 20.5845 17.0816C21.1308 16.727 21.5627 16.2219 21.8284 15.6273C22.094 15.0326 22.1818 14.3739 22.0814 13.7304C21.981 13.0869 21.6965 12.4863 21.2624 12.0008C21.8183 11.3834 22.1256 10.5817 22.1249 9.75083ZM18.7499 8.62583C19.0482 8.62583 19.3344 8.74436 19.5454 8.95534C19.7563 9.16632 19.8749 9.45246 19.8749 9.75083C19.8749 10.0492 19.7563 10.3354 19.5454 10.5463C19.3344 10.7573 19.0482 10.8758 18.7499 10.8758H17.6249V9.75083C17.6249 9.45246 17.7434 9.16632 17.9544 8.95534C18.1653 8.74436 18.4515 8.62583 18.7499 8.62583ZM14.2499 4.12583C14.5482 4.12583 14.8344 4.24436 15.0454 4.45534C15.2563 4.66632 15.3749 4.95246 15.3749 5.25083V9.75083C15.3749 10.0492 15.2563 10.3354 15.0454 10.5463C14.8344 10.7573 14.5482 10.8758 14.2499 10.8758H13.1249V5.25083C13.1249 4.95246 13.2434 4.66632 13.4544 4.45534C13.6653 4.24436 13.9515 4.12583 14.2499 4.12583ZM8.62486 5.25083C8.62486 4.95246 8.74338 4.66632 8.95436 4.45534C9.16534 4.24436 9.45149 4.12583 9.74986 4.12583C10.0482 4.12583 10.3344 4.24436 10.5454 4.45534C10.7563 4.66632 10.8749 4.95246 10.8749 5.25083V6.37583H9.74986C9.45149 6.37583 9.16534 6.25731 8.95436 6.04633C8.74338 5.83535 8.62486 5.5492 8.62486 5.25083ZM5.24986 8.62583H9.74986C10.0482 8.62583 10.3344 8.74436 10.5454 8.95534C10.7563 9.16632 10.8749 9.45246 10.8749 9.75083V10.8758H5.24986C4.95149 10.8758 4.66534 10.7573 4.45436 10.5463C4.24338 10.3354 4.12486 10.0492 4.12486 9.75083C4.12486 9.45246 4.24338 9.16632 4.45436 8.95534C4.66534 8.74436 4.95149 8.62583 5.24986 8.62583ZM5.24986 15.3758C4.95149 15.3758 4.66534 15.2573 4.45436 15.0463C4.24338 14.8354 4.12486 14.5492 4.12486 14.2508C4.12486 13.9525 4.24338 13.6663 4.45436 13.4553C4.66534 13.2444 4.95149 13.1258 5.24986 13.1258H6.37486V14.2508C6.37486 14.5492 6.25633 14.8354 6.04535 15.0463C5.83437 15.2573 5.54822 15.3758 5.24986 15.3758ZM9.74986 19.8758C9.45149 19.8758 9.16534 19.7573 8.95436 19.5463C8.74338 19.3354 8.62486 19.0492 8.62486 18.7508V14.2508C8.62486 13.9525 8.74338 13.6663 8.95436 13.4553C9.16534 13.2444 9.45149 13.1258 9.74986 13.1258H10.8749V18.7508C10.8749 19.0492 10.7563 19.3354 10.5454 19.5463C10.3344 19.7573 10.0482 19.8758 9.74986 19.8758ZM15.3749 18.7508C15.3749 19.0492 15.2563 19.3354 15.0454 19.5463C14.8344 19.7573 14.5482 19.8758 14.2499 19.8758C13.9515 19.8758 13.6653 19.7573 13.4544 19.5463C13.2434 19.3354 13.1249 19.0492 13.1249 18.7508V17.6258H14.2499C14.5482 17.6258 14.8344 17.7444 15.0454 17.9553C15.2563 18.1663 15.3749 18.4525 15.3749 18.7508ZM18.7499 15.3758H14.2499C13.9515 15.3758 13.6653 15.2573 13.4544 15.0463C13.2434 14.8354 13.1249 14.5492 13.1249 14.2508V13.1258H18.7499C19.0482 13.1258 19.3344 13.2444 19.5454 13.4553C19.7563 13.6663 19.8749 13.9525 19.8749 14.2508C19.8749 14.5492 19.7563 14.8354 19.5454 15.0463C19.3344 15.2573 19.0482 15.3758 18.7499 15.3758Z" fill="#130032"/>
</svg>
