<svg width="24" height="24" viewBox="0 0 24 24" fill="none" xmlns="http://www.w3.org/2000/svg">
<path d="M6.3747 9.56812V3.75C6.3747 3.45163 6.25618 3.16548 6.0452 2.9545C5.83422 2.74353 5.54807 2.625 5.2497 2.625C4.95133 2.625 4.66518 2.74353 4.45421 2.9545C4.24323 3.16548 4.1247 3.45163 4.1247 3.75V9.56812C3.46676 9.80081 2.89713 10.2317 2.49423 10.8016C2.09134 11.3714 1.875 12.0521 1.875 12.75C1.875 13.4479 2.09134 14.1286 2.49423 14.6984C2.89713 15.2683 3.46676 15.6992 4.1247 15.9319V20.25C4.1247 20.5484 4.24323 20.8345 4.45421 21.0455C4.66518 21.2565 4.95133 21.375 5.2497 21.375C5.54807 21.375 5.83422 21.2565 6.0452 21.0455C6.25618 20.8345 6.3747 20.5484 6.3747 20.25V15.9319C7.03265 15.6992 7.60228 15.2683 8.00517 14.6984C8.40806 14.1286 8.6244 13.4479 8.6244 12.75C8.6244 12.0521 8.40806 11.3714 8.00517 10.8016C7.60228 10.2317 7.03265 9.80081 6.3747 9.56812ZM5.2497 13.875C5.0272 13.875 4.80969 13.809 4.62469 13.6854C4.43968 13.5618 4.29549 13.3861 4.21034 13.1805C4.12519 12.975 4.10291 12.7488 4.14632 12.5305C4.18973 12.3123 4.29687 12.1118 4.45421 11.9545C4.61154 11.7972 4.812 11.69 5.03022 11.6466C5.24845 11.6032 5.47465 11.6255 5.68022 11.7106C5.88579 11.7958 6.06149 11.94 6.18511 12.125C6.30872 12.31 6.3747 12.5275 6.3747 12.75C6.3747 13.0484 6.25618 13.3345 6.0452 13.5455C5.83422 13.7565 5.54807 13.875 5.2497 13.875ZM15.3747 8.25C15.3737 7.55231 15.157 6.87201 14.7541 6.30235C14.3513 5.7327 13.7822 5.30159 13.1247 5.06813V3.75C13.1247 3.45163 13.0062 3.16548 12.7952 2.9545C12.5842 2.74353 12.2981 2.625 11.9997 2.625C11.7013 2.625 11.4152 2.74353 11.2042 2.9545C10.9932 3.16548 10.8747 3.45163 10.8747 3.75V5.06813C10.2168 5.30081 9.64713 5.73174 9.24423 6.30157C8.84134 6.87141 8.625 7.55212 8.625 8.25C8.625 8.94788 8.84134 9.62859 9.24423 10.1984C9.64713 10.7683 10.2168 11.1992 10.8747 11.4319V20.25C10.8747 20.5484 10.9932 20.8345 11.2042 21.0455C11.4152 21.2565 11.7013 21.375 11.9997 21.375C12.2981 21.375 12.5842 21.2565 12.7952 21.0455C13.0062 20.8345 13.1247 20.5484 13.1247 20.25V11.4319C13.7822 11.1984 14.3513 10.7673 14.7541 10.1976C15.157 9.62799 15.3737 8.94769 15.3747 8.25ZM11.9997 9.375C11.7772 9.375 11.5597 9.30902 11.3747 9.1854C11.1897 9.06179 11.0455 8.88609 10.9603 8.68052C10.8752 8.47495 10.8529 8.24875 10.8963 8.03052C10.9397 7.81229 11.0469 7.61184 11.2042 7.4545C11.3615 7.29717 11.562 7.19002 11.7802 7.14662C11.9985 7.10321 12.2247 7.12549 12.4302 7.21064C12.6358 7.29578 12.8115 7.43998 12.9351 7.62498C13.0587 7.80999 13.1247 8.0275 13.1247 8.25C13.1247 8.54837 13.0062 8.83452 12.7952 9.0455C12.5842 9.25647 12.2981 9.375 11.9997 9.375ZM22.1247 15.75C22.1237 15.0523 21.907 14.372 21.5041 13.8024C21.1013 13.2327 20.5322 12.8016 19.8747 12.5681V3.75C19.8747 3.45163 19.7562 3.16548 19.5452 2.9545C19.3342 2.74353 19.0481 2.625 18.7497 2.625C18.4513 2.625 18.1652 2.74353 17.9542 2.9545C17.7432 3.16548 17.6247 3.45163 17.6247 3.75V12.5681C16.9668 12.8008 16.3971 13.2317 15.9942 13.8016C15.5913 14.3714 15.375 15.0521 15.375 15.75C15.375 16.4479 15.5913 17.1286 15.9942 17.6984C16.3971 18.2683 16.9668 18.6992 17.6247 18.9319V20.25C17.6247 20.5484 17.7432 20.8345 17.9542 21.0455C18.1652 21.2565 18.4513 21.375 18.7497 21.375C19.0481 21.375 19.3342 21.2565 19.5452 21.0455C19.7562 20.8345 19.8747 20.5484 19.8747 20.25V18.9319C20.5322 18.6984 21.1013 18.2673 21.5041 17.6976C21.907 17.128 22.1237 16.4477 22.1247 15.75ZM18.7497 16.875C18.5272 16.875 18.3097 16.809 18.1247 16.6854C17.9397 16.5618 17.7955 16.3861 17.7103 16.1805C17.6252 15.975 17.6029 15.7488 17.6463 15.5305C17.6897 15.3123 17.7969 15.1118 17.9542 14.9545C18.1115 14.7972 18.312 14.69 18.5302 14.6466C18.7485 14.6032 18.9747 14.6255 19.1802 14.7106C19.3858 14.7958 19.5615 14.94 19.6851 15.125C19.8087 15.31 19.8747 15.5275 19.8747 15.75C19.8747 16.0484 19.7562 16.3345 19.5452 16.5455C19.3342 16.7565 19.0481 16.875 18.7497 16.875Z" fill="#130032"/>
</svg>
