<svg width="24" height="24" viewBox="0 0 24 24" fill="none" xmlns="http://www.w3.org/2000/svg">
<path d="M16.8753 12.7502C16.8753 13.0469 16.7873 13.3369 16.6225 13.5835C16.4577 13.8302 16.2234 14.0225 15.9493 14.136C15.6752 14.2495 15.3736 14.2792 15.0827 14.2214C14.7917 14.1635 14.5244 14.0206 14.3147 13.8108C14.1049 13.6011 13.962 13.3338 13.9041 13.0428C13.8463 12.7518 13.876 12.4502 13.9895 12.1762C14.103 11.9021 14.2953 11.6678 14.542 11.503C14.7886 11.3382 15.0786 11.2502 15.3753 11.2502C15.7731 11.2502 16.1547 11.4082 16.436 11.6895C16.7173 11.9708 16.8753 12.3524 16.8753 12.7502ZM12.7503 8.62518C12.7503 8.32851 12.6623 8.0385 12.4975 7.79182C12.3327 7.54515 12.0984 7.35289 11.8243 7.23936C11.5502 7.12583 11.2486 7.09612 10.9577 7.154C10.6667 7.21188 10.3994 7.35474 10.1897 7.56452C9.97987 7.7743 9.83701 8.04157 9.77913 8.33254C9.72126 8.62351 9.75096 8.92511 9.86449 9.1992C9.97802 9.47329 10.1703 9.70756 10.417 9.87238C10.6636 10.0372 10.9536 10.1252 11.2503 10.1252C11.6481 10.1252 12.0297 9.96714 12.311 9.68584C12.5923 9.40453 12.7503 9.023 12.7503 8.62518ZM19.1094 4.7908C17.2365 2.94382 14.7183 1.89822 12.0879 1.87538C9.45758 1.85254 6.92161 2.85425 5.0169 4.66844C3.11219 6.48262 1.98827 8.96686 1.8831 11.5952C1.77793 14.2235 2.69977 16.7896 4.45344 18.7502C4.65235 18.9726 4.93147 19.1069 5.22939 19.1235C5.52731 19.1401 5.81962 19.0377 6.04203 18.8388C6.26444 18.6399 6.39872 18.3607 6.41534 18.0628C6.43195 17.7649 6.32954 17.4726 6.13062 17.2502C5.11715 16.1171 4.45331 14.7149 4.21923 13.2128C3.98515 11.7107 4.19083 10.173 4.81146 8.78523C5.43208 7.39747 6.44111 6.21902 7.71675 5.39211C8.99239 4.5652 10.4801 4.12519 12.0003 4.12519C13.5205 4.12519 15.0082 4.5652 16.2839 5.39211C17.5595 6.21902 18.5685 7.39747 19.1892 8.78523C19.8098 10.173 20.0155 11.7107 19.7814 13.2128C19.5473 14.7149 18.8835 16.1171 17.87 17.2502C17.6711 17.4726 17.5687 17.7649 17.5853 18.0628C17.6019 18.3607 17.7362 18.6399 17.9586 18.8388C18.181 19.0377 18.4733 19.1401 18.7712 19.1235C19.0692 19.1069 19.3483 18.9726 19.5472 18.7502C21.2805 16.8122 22.2019 14.2817 22.1204 11.6829C22.0388 9.08417 20.9607 6.61636 19.1094 4.7908ZM13.1253 15.3752H12.7503C10.8931 15.3752 8.62531 13.818 8.62531 12.0002C8.62541 11.8117 8.64109 11.6236 8.67219 11.4377C8.72192 11.1434 8.65271 10.8414 8.4798 10.5982C8.30688 10.355 8.04442 10.1904 7.75016 10.1406C7.45589 10.0909 7.15392 10.1601 6.91068 10.333C6.66744 10.506 6.50285 10.7684 6.45312 11.0627C6.40135 11.3725 6.37532 11.6861 6.37531 12.0002C6.37531 13.5096 7.12531 14.9496 8.48375 16.0549C9.71094 17.0533 11.2662 17.6252 12.7503 17.6252H13.1253C13.3242 17.6252 13.515 17.7042 13.6556 17.8448C13.7963 17.9855 13.8753 18.1763 13.8753 18.3752C13.8753 18.5741 13.7963 18.7649 13.6556 18.9055C13.515 19.0462 13.3242 19.1252 13.1253 19.1252H9.37531C8.57966 19.1252 7.8166 19.4412 7.25399 20.0039C6.69138 20.5665 6.37531 21.3295 6.37531 22.1252C6.37531 22.4235 6.49384 22.7097 6.70482 22.9207C6.9158 23.1317 7.20194 23.2502 7.50031 23.2502C7.79868 23.2502 8.08483 23.1317 8.29581 22.9207C8.50679 22.7097 8.62531 22.4235 8.62531 22.1252C8.62531 21.9263 8.70433 21.7355 8.84498 21.5948C8.98563 21.4542 9.1764 21.3752 9.37531 21.3752H13.1253C13.921 21.3752 14.684 21.0591 15.2466 20.4965C15.8092 19.9339 16.1253 19.1708 16.1253 18.3752C16.1253 17.5795 15.8092 16.8165 15.2466 16.2539C14.684 15.6912 13.921 15.3752 13.1253 15.3752Z" fill="#130032"/>
</svg>
