<svg width="24" height="24" viewBox="0 0 24 24" fill="none" xmlns="http://www.w3.org/2000/svg">
<path d="M23.9813 15.274V15.245C23.9015 14.4555 23.5954 13.7059 23.0998 13.0862C22.6042 12.4665 21.9401 12.0032 21.1875 11.7518L15.8794 9.85809L15.8569 9.84966C15.6108 9.76764 15.3845 9.63548 15.1921 9.46153C14.9998 9.28758 14.8456 9.07561 14.7394 8.83903L12.5681 3.74934L12.5625 3.73434C12.3681 3.30198 12.0175 2.959 11.581 2.77404C11.1446 2.58908 10.6543 2.5758 10.2084 2.73684L3.10969 5.31778C2.74836 5.45007 2.43628 5.68995 2.21551 6.0051C1.99474 6.32024 1.87589 6.6955 1.875 7.08028V17.9993C1.875 18.4966 2.07254 18.9735 2.42417 19.3252C2.77581 19.6768 3.25272 19.8743 3.75 19.8743H22.125C22.6223 19.8743 23.0992 19.6768 23.4508 19.3252C23.8025 18.9735 24 18.4966 24 17.9993V15.6612C24 15.5309 23.9934 15.4025 23.9813 15.274ZM10.6434 4.97278L11.2059 6.28528L9.74063 6.81684C9.59885 6.86503 9.46812 6.94103 9.3561 7.0404C9.24408 7.13976 9.15303 7.26049 9.08828 7.39551C9.02352 7.53052 8.98637 7.6771 8.97901 7.82666C8.97164 7.97622 8.99421 8.12574 9.04538 8.26646C9.09655 8.40719 9.1753 8.53628 9.27701 8.64617C9.37872 8.75606 9.50135 8.84455 9.6377 8.90643C9.77406 8.96832 9.92139 9.00236 10.0711 9.00656C10.2208 9.01076 10.3698 8.98504 10.5094 8.9309L12.0938 8.35622L12.5194 9.35278L11.2444 9.82153C10.9991 9.91384 10.7937 10.0889 10.6637 10.3165C10.5337 10.5441 10.4873 10.8099 10.5324 11.0681C10.5775 11.3263 10.7114 11.5607 10.9109 11.7307C11.1103 11.9007 11.3629 11.9957 11.625 11.9993C11.7562 11.9995 11.8863 11.9763 12.0094 11.9309L13.8441 11.2643C14.2285 11.5793 14.6668 11.822 15.1378 11.9806L20.4459 13.8743L20.4675 13.8818C20.7036 13.96 20.9216 14.0847 21.1087 14.2484H4.125V7.34278L10.6434 4.97278ZM4.125 17.6243V16.4993H21.75V17.6243H4.125Z" fill="#130032"/>
</svg>
