<svg width="24" height="24" viewBox="0 0 24 24" fill="none" xmlns="http://www.w3.org/2000/svg">
<path d="M21.8381 15.2867L19.155 13.9451C18.4683 13.6043 17.8907 13.0781 17.4877 12.4259C17.0848 11.7737 16.8725 11.0217 16.875 10.2551V7.49979C16.875 7.20142 16.7565 6.91527 16.5455 6.70429C16.3345 6.49331 16.0484 6.37479 15.75 6.37479C14.6564 6.37355 13.6079 5.93855 12.8346 5.16523C12.0612 4.39191 11.6262 3.34342 11.625 2.24979C11.625 2.04038 11.5665 1.83514 11.4561 1.65717C11.3458 1.4792 11.1879 1.33556 11.0004 1.24241C10.8128 1.14927 10.603 1.11032 10.3945 1.12996C10.186 1.14959 9.98718 1.22702 9.82031 1.35354L2.60156 6.82947L2.57344 6.85104C2.36913 7.01637 2.20187 7.2228 2.0825 7.45695C1.96312 7.6911 1.89431 7.94773 1.88052 8.21019C1.86673 8.47265 1.90827 8.73508 2.00245 8.98044C2.09662 9.22581 2.24133 9.44864 2.42719 9.63447L13.0847 20.2957C13.1892 20.4002 13.3133 20.483 13.4499 20.5394C13.5865 20.5959 13.7328 20.6249 13.8806 20.6248H21C21.4973 20.6248 21.9742 20.4272 22.3258 20.0756C22.6775 19.724 22.875 19.2471 22.875 18.7498V16.9629C22.8761 16.6145 22.7796 16.2728 22.5963 15.9765C22.413 15.6802 22.1504 15.4412 21.8381 15.2867ZM20.625 18.3748H14.3438L4.32 8.34822L5.52562 7.43322L9.38812 11.2957C9.59947 11.5071 9.88611 11.6258 10.185 11.6258C10.4839 11.6258 10.7705 11.5071 10.9819 11.2957C11.1932 11.0844 11.312 10.7977 11.312 10.4988C11.312 10.2 11.1932 9.91332 10.9819 9.70197L7.33594 6.06072L9.70219 4.26635C10.0665 5.35183 10.7155 6.31965 11.5814 7.0688C12.4473 7.81796 13.4984 8.32099 14.625 8.52541V10.2551C14.6209 11.4399 14.9489 12.6021 15.5718 13.6099C16.1947 14.6177 17.0875 15.4308 18.1491 15.957L20.625 17.1954V18.3748ZM5.20219 17.2498H3C2.70163 17.2498 2.41548 17.1313 2.2045 16.9203C1.99353 16.7093 1.875 16.4232 1.875 16.1248C1.875 15.8264 1.99353 15.5403 2.2045 15.3293C2.41548 15.1183 2.70163 14.9998 3 14.9998H5.20219C5.50056 14.9998 5.7867 15.1183 5.99768 15.3293C6.20866 15.5403 6.32719 15.8264 6.32719 16.1248C6.32719 16.4232 6.20866 16.7093 5.99768 16.9203C5.7867 17.1313 5.50056 17.2498 5.20219 17.2498ZM9.70219 19.4998C9.70219 19.7982 9.58366 20.0843 9.37268 20.2953C9.1617 20.5063 8.87556 20.6248 8.57719 20.6248H4.5C4.20163 20.6248 3.91548 20.5063 3.7045 20.2953C3.49353 20.0843 3.375 19.7982 3.375 19.4998C3.375 19.2014 3.49353 18.9153 3.7045 18.7043C3.91548 18.4933 4.20163 18.3748 4.5 18.3748H8.57719C8.87556 18.3748 9.1617 18.4933 9.37268 18.7043C9.58366 18.9153 9.70219 19.2014 9.70219 19.4998Z" fill="#130032"/>
</svg>
