<svg width="24" height="24" viewBox="0 0 24 24" fill="none" xmlns="http://www.w3.org/2000/svg">
<path d="M21.3424 13.9818C21.4134 14.2715 21.3664 14.5775 21.2119 14.8325C21.0574 15.0876 20.8079 15.2709 20.5183 15.3421L18.5805 15.8184L19.0867 17.7084C19.1641 17.9965 19.1237 18.3036 18.9746 18.5621C18.8256 18.8205 18.5799 19.0092 18.2917 19.0865C18.0036 19.1638 17.6965 19.1235 17.438 18.9744C17.1796 18.8253 16.9909 18.5797 16.9136 18.2915L16.2302 15.7415L13.1252 13.948V17.5312L15.0452 19.4512C15.1498 19.5558 15.2328 19.68 15.2895 19.8168C15.3461 19.9535 15.3752 20.1 15.3752 20.248C15.3752 20.396 15.3461 20.5426 15.2895 20.6793C15.2328 20.816 15.1498 20.9403 15.0452 21.0449C14.9405 21.1496 14.8163 21.2326 14.6796 21.2892C14.5428 21.3458 14.3963 21.375 14.2483 21.375C14.1003 21.375 13.9538 21.3458 13.817 21.2892C13.6803 21.2326 13.5561 21.1496 13.4514 21.0449L12.0002 19.5937L10.5461 21.0487C10.4415 21.1533 10.3172 21.2363 10.1805 21.293C10.0438 21.3496 9.89722 21.3787 9.74923 21.3787C9.60124 21.3787 9.45469 21.3496 9.31796 21.293C9.18124 21.2363 9.057 21.1533 8.95235 21.0487C8.84771 20.944 8.7647 20.8198 8.70806 20.6831C8.65143 20.5463 8.62228 20.3998 8.62228 20.2518C8.62228 20.1038 8.65143 19.9573 8.70806 19.8205C8.7647 19.6838 8.84771 19.5596 8.95235 19.4549L10.8752 17.5312V13.948L7.77017 15.7415L7.08673 18.2915C7.0094 18.5797 6.82077 18.8253 6.56232 18.9744C6.30387 19.1235 5.99678 19.1638 5.7086 19.0865C5.42043 19.0092 5.17478 18.8205 5.02569 18.5621C4.87659 18.3036 4.83628 17.9965 4.9136 17.7084L5.41985 15.8184L3.48204 15.3421C3.33528 15.3101 3.19642 15.2491 3.07364 15.1625C2.95085 15.076 2.84664 14.9658 2.76715 14.8383C2.68765 14.7109 2.63448 14.5688 2.61078 14.4205C2.58707 14.2722 2.59331 14.1206 2.62912 13.9747C2.66493 13.8288 2.72959 13.6916 2.81929 13.5711C2.90899 13.4506 3.0219 13.3493 3.15138 13.2732C3.28085 13.1971 3.42426 13.1476 3.57316 13.1278C3.72205 13.1079 3.8734 13.1181 4.01829 13.1577L6.63298 13.7999L9.75017 11.9999L6.63298 10.1999L4.01829 10.8421C3.93059 10.864 3.84055 10.875 3.75017 10.8749C3.47554 10.8743 3.21063 10.7733 3.00536 10.5908C2.80008 10.4084 2.66863 10.1572 2.63577 9.88452C2.60292 9.61187 2.67093 9.33661 2.82698 9.11064C2.98304 8.88466 3.21636 8.72357 3.48298 8.65773L5.42079 8.18148L4.91454 6.29148C4.83721 6.00331 4.87753 5.69622 5.02662 5.43777C5.17571 5.17932 5.42137 4.99068 5.70954 4.91336C5.99772 4.83603 6.30481 4.87635 6.56325 5.02544C6.8217 5.17453 7.01034 5.42018 7.08767 5.70836L7.7711 8.25836L10.8752 10.0509V6.46867L8.95517 4.54492C8.85052 4.44027 8.76751 4.31604 8.71087 4.17931C8.65424 4.04258 8.62509 3.89604 8.62509 3.74805C8.62509 3.44916 8.74382 3.16251 8.95517 2.95117C9.16651 2.73983 9.45316 2.62109 9.75204 2.62109C9.90003 2.62109 10.0466 2.65024 10.1833 2.70688C10.32 2.76351 10.4443 2.84652 10.5489 2.95117L12.0002 4.40617L13.4542 2.95117C13.5589 2.84652 13.6831 2.76351 13.8198 2.70688C13.9566 2.65024 14.1031 2.62109 14.2511 2.62109C14.3991 2.62109 14.5456 2.65024 14.6824 2.70688C14.8191 2.76351 14.9433 2.84652 15.048 2.95117C15.1526 3.05582 15.2356 3.18005 15.2923 3.31678C15.3489 3.45351 15.3781 3.60005 15.3781 3.74805C15.3781 3.89604 15.3489 4.04258 15.2923 4.17931C15.2356 4.31604 15.1526 4.44027 15.048 4.54492L13.1252 6.46867V10.0537L16.2302 8.26117L16.9136 5.71117C16.9909 5.423 17.1796 5.17734 17.438 5.02825C17.6965 4.87916 18.0036 4.83884 18.2917 4.91617C18.5799 4.9935 18.8256 5.18213 18.9746 5.44058C19.1237 5.69903 19.1641 6.00612 19.0867 6.2943L18.5805 8.1843L20.5183 8.66054C20.7825 8.72859 21.0129 8.89031 21.1668 9.1156C21.3206 9.34089 21.3873 9.6144 21.3545 9.88522C21.3217 10.156 21.1917 10.4057 20.9885 10.5878C20.7853 10.7699 20.523 10.8719 20.2502 10.8749C20.1595 10.8751 20.0691 10.864 19.9811 10.8421L17.3664 10.1999L14.2502 11.9999L17.3674 13.7999L19.982 13.1577C20.2717 13.0867 20.5777 13.1336 20.8328 13.2882C21.0879 13.4427 21.2712 13.6922 21.3424 13.9818Z" fill="#130032"/>
</svg>
