<svg width="24" height="24" viewBox="0 0 24 24" fill="none" xmlns="http://www.w3.org/2000/svg">
<path d="M12 1.875C9.99747 1.875 8.0399 2.46882 6.37486 3.58137C4.70981 4.69392 3.41206 6.27523 2.64572 8.12533C1.87939 9.97543 1.67888 12.0112 2.06955 13.9753C2.46023 15.9393 3.42454 17.7435 4.84055 19.1595C6.25656 20.5755 8.06066 21.5398 10.0247 21.9305C11.9888 22.3211 14.0246 22.1206 15.8747 21.3543C17.7248 20.5879 19.3061 19.2902 20.4186 17.6251C21.5312 15.9601 22.125 14.0025 22.125 12C22.122 9.3156 21.0543 6.74199 19.1562 4.84383C17.258 2.94567 14.6844 1.87798 12 1.875ZM18.7388 16.0706H16.4888L15.5719 14.8125L16.6313 11.7244L18.1078 11.25L19.8516 12.5869C19.7612 13.8198 19.3798 15.0136 18.7388 16.0706ZM4.14844 12.5822L5.89219 11.25L7.36875 11.7291L8.42813 14.8125L7.51407 16.0706H5.26407C4.62132 15.0125 4.23896 13.8169 4.14844 12.5822ZM10.4859 13.875L9.59157 11.2716L12 9.615L14.4084 11.2716L13.5141 13.875H10.4859ZM18.0478 6.96281L17.4122 9.105L15.93 9.58687L13.125 7.65844V6.13688L15.1144 4.76906C16.2506 5.2604 17.2554 6.01185 18.0478 6.96281ZM8.88563 4.76906L10.875 6.13688V7.65844L8.07 9.58687L6.58782 9.105L5.95219 6.96281C6.74464 6.01185 7.74946 5.2604 8.88563 4.76906ZM10.1588 19.6556L9.35063 17.3709L10.2553 16.125H13.7447L14.6494 17.3709L13.8413 19.6556C12.6312 19.9481 11.3688 19.9481 10.1588 19.6556Z" fill="#130032"/>
</svg>
