<svg width="24" height="24" viewBox="0 0 24 24" fill="none" xmlns="http://www.w3.org/2000/svg">
<path d="M18.0002 1.125H9.75024C9.25295 1.125 8.77604 1.32255 8.42441 1.67418C8.07278 2.02581 7.87524 2.50272 7.87524 3V10.0313L4.35305 13.5563C3.2466 14.6627 2.625 16.1634 2.625 17.7281C2.625 19.2929 3.2466 20.7936 4.35305 21.9C5.4595 23.0065 6.96017 23.628 8.52492 23.628C10.0897 23.628 11.5903 23.0065 12.6968 21.9L19.1093 15.4875C19.3538 15.2443 19.5477 14.955 19.6797 14.6364C19.8116 14.3178 19.879 13.9761 19.878 13.6313V3C19.878 2.75354 19.8295 2.50949 19.7351 2.28182C19.6407 2.05415 19.5023 1.84733 19.3279 1.67318C19.1535 1.49903 18.9464 1.36098 18.7186 1.26692C18.4908 1.17286 18.2467 1.12463 18.0002 1.125ZM17.6252 3.375V4.875H10.1252V3.375H17.6252ZM11.103 20.3063C10.7685 20.6625 10.3658 20.9478 9.91888 21.1454C9.47193 21.3429 8.98985 21.4487 8.50124 21.4564C8.01264 21.464 7.52748 21.3734 7.07456 21.19C6.62164 21.0065 6.2102 20.7339 5.86466 20.3884C5.51912 20.0428 5.24654 19.6314 5.06308 19.1785C4.87962 18.7256 4.78903 18.2404 4.79669 17.7518C4.80435 17.2632 4.91011 16.7811 5.10767 16.3342C5.30524 15.8872 5.5906 15.4845 5.9468 15.15L9.79899 11.2988C9.90325 11.1936 9.98574 11.069 10.0417 10.9319C10.0977 10.7948 10.1261 10.6481 10.1252 10.5V7.125H17.6252V9.48844C16.3556 9.74922 15.2147 10.4398 14.395 11.4439C13.5752 12.4479 13.1268 13.7038 13.1252 15C13.1237 15.9179 13.3491 16.8219 13.7815 17.6316L11.103 20.3063ZM17.5155 13.8938L15.499 15.9103C15.2696 15.0858 15.3614 14.2049 15.756 13.4454C16.1506 12.6859 16.8186 12.1044 17.6252 11.8181V13.6284C17.6253 13.6777 17.6156 13.7265 17.5968 13.772C17.578 13.8175 17.5504 13.8589 17.5155 13.8938Z" fill="#130032"/>
</svg>
