<svg width="24" height="24" viewBox="0 0 24 24" fill="none" xmlns="http://www.w3.org/2000/svg">
<path d="M23.5059 11.4966L19.7559 3.99656C19.6625 3.8098 19.5189 3.65273 19.3412 3.54296C19.1636 3.43318 18.9588 3.37502 18.75 3.375H5.25C5.04116 3.37502 4.83644 3.43318 4.65878 3.54296C4.48112 3.65273 4.33752 3.8098 4.24406 3.99656L0.494062 11.4966C0.415806 11.6528 0.375041 11.8252 0.375 12V17.25C0.375 17.7473 0.572544 18.2242 0.924175 18.5758C1.09828 18.7499 1.30498 18.888 1.53247 18.9823C1.75995 19.0765 2.00377 19.125 2.25 19.125H21.75C22.2473 19.125 22.7242 18.9275 23.0758 18.5758C23.4275 18.2242 23.625 17.7473 23.625 17.25V12C23.625 11.8252 23.5842 11.6528 23.5059 11.4966ZM9.05437 5.625L9.80437 7.125H7.82062L7.07062 5.625H9.05437ZM13.5544 5.625L14.3044 7.125H12.3206L11.5706 5.625H13.5544ZM9.69563 10.875L8.94563 9.375H10.9294L11.6794 10.875H9.69563ZM14.1956 10.875L13.4456 9.375H15.4294L16.1794 10.875H14.1956ZM18.6956 10.875L17.9456 9.375H19.9294L20.6794 10.875H18.6956ZM18.8044 7.125H16.8206L16.0706 5.625H18.0544L18.8044 7.125ZM2.625 12.2653L5.25 7.01531L7.875 12.2653V16.875H2.625V12.2653ZM10.125 16.875V13.125H21.375V16.875H10.125Z" fill="#130032"/>
</svg>
