<svg width="24" height="24" viewBox="0 0 24 24" fill="none" xmlns="http://www.w3.org/2000/svg">
<path d="M3.00006 9.375C3.00006 9.07663 3.11858 8.79048 3.32956 8.5795C3.54054 8.36853 3.82669 8.25 4.12506 8.25H4.87506C5.17343 8.25 5.45957 8.36853 5.67055 8.5795C5.88153 8.79048 6.00006 9.07663 6.00006 9.375C6.00006 9.67337 5.88153 9.95952 5.67055 10.1705C5.45957 10.3815 5.17343 10.5 4.87506 10.5H4.12506C3.82669 10.5 3.54054 10.3815 3.32956 10.1705C3.11858 9.95952 3.00006 9.67337 3.00006 9.375ZM12.0001 3.375C12.2984 3.375 12.5846 3.25647 12.7956 3.0455C13.0065 2.83452 13.1251 2.54837 13.1251 2.25V1.5C13.1251 1.20163 13.0065 0.915483 12.7956 0.704505C12.5846 0.493526 12.2984 0.375 12.0001 0.375C11.7017 0.375 11.4155 0.493526 11.2046 0.704505C10.9936 0.915483 10.8751 1.20163 10.8751 1.5V2.25C10.8751 2.54837 10.9936 2.83452 11.2046 3.0455C11.4155 3.25647 11.7017 3.375 12.0001 3.375ZM6.16599 5.13188C6.27064 5.23652 6.39488 5.31953 6.5316 5.37617C6.66833 5.4328 6.81488 5.46195 6.96287 5.46195C7.11086 5.46195 7.25741 5.4328 7.39413 5.37617C7.53086 5.31953 7.6551 5.23652 7.75974 5.13188C7.86439 5.02723 7.9474 4.90299 8.00404 4.76627C8.06067 4.62954 8.08982 4.48299 8.08982 4.335C8.08982 4.18701 8.06067 4.04046 8.00404 3.90373C7.9474 3.76701 7.86439 3.64277 7.75974 3.53813L7.22912 3.00844C7.12447 2.90379 7.00024 2.82078 6.86351 2.76415C6.72678 2.70751 6.58024 2.67836 6.43224 2.67836C6.28425 2.67836 6.13771 2.70751 6.00098 2.76415C5.86425 2.82078 5.74002 2.90379 5.63537 3.00844C5.42402 3.21978 5.30529 3.50643 5.30529 3.80531C5.30529 4.1042 5.42402 4.39084 5.63537 4.60219L6.16599 5.13188ZM17.041 5.46187C17.1888 5.46187 17.3352 5.43272 17.4718 5.3761C17.6084 5.31947 17.7325 5.23648 17.8369 5.13188L18.3666 4.60219C18.4713 4.49754 18.5543 4.37331 18.6109 4.23658C18.6675 4.09985 18.6967 3.95331 18.6967 3.80531C18.6967 3.65732 18.6675 3.51077 18.6109 3.37405C18.5543 3.23732 18.4713 3.11308 18.3666 3.00844C18.262 2.90379 18.1377 2.82078 18.001 2.76415C17.8643 2.70751 17.7177 2.67836 17.5697 2.67836C17.2709 2.67836 16.9842 2.79709 16.7729 3.00844L16.2422 3.53813C16.0847 3.69546 15.9774 3.896 15.934 4.11434C15.8905 4.33269 15.9128 4.55903 15.998 4.7647C16.0832 4.97038 16.2275 5.14614 16.4127 5.26975C16.5979 5.39335 16.8155 5.45924 17.0382 5.45906L17.041 5.46187ZM18.0001 9.375C18.0001 9.67337 18.1186 9.95952 18.3296 10.1705C18.5405 10.3815 18.8267 10.5 19.1251 10.5H19.8751C20.1734 10.5 20.4596 10.3815 20.6706 10.1705C20.8815 9.95952 21.0001 9.67337 21.0001 9.375C21.0001 9.07663 20.8815 8.79048 20.6706 8.5795C20.4596 8.36853 20.1734 8.25 19.8751 8.25H19.1251C18.8267 8.25 18.5405 8.36853 18.3296 8.5795C18.1186 8.79048 18.0001 9.07663 18.0001 9.375ZM8.25006 10.5C8.54842 10.5 8.83457 10.3815 9.04555 10.1705C9.25653 9.95952 9.37506 9.67337 9.37506 9.375C9.37506 8.67881 9.65162 8.01113 10.1439 7.51884C10.6362 7.02656 11.3039 6.75 12.0001 6.75C12.6962 6.75 13.3639 7.02656 13.8562 7.51884C14.3485 8.01113 14.6251 8.67881 14.6251 9.375C14.6251 9.67337 14.7436 9.95952 14.9546 10.1705C15.1655 10.3815 15.4517 10.5 15.7501 10.5C16.0484 10.5 16.3346 10.3815 16.5456 10.1705C16.7565 9.95952 16.8751 9.67337 16.8751 9.375C16.8751 8.08207 16.3614 6.84209 15.4472 5.92785C14.533 5.01361 13.293 4.5 12.0001 4.5C10.7071 4.5 9.46715 5.01361 8.55291 5.92785C7.63867 6.84209 7.12506 8.08207 7.12506 9.375C7.12506 9.67337 7.24358 9.95952 7.45456 10.1705C7.66554 10.3815 7.95169 10.5 8.25006 10.5ZM22.7213 20.8172C22.6222 20.9869 22.4804 21.1277 22.31 21.2256C22.1396 21.3234 21.9466 21.3749 21.7501 21.375H2.25006C2.05349 21.375 1.86035 21.3235 1.68988 21.2256C1.5194 21.1278 1.37755 20.9869 1.27845 20.8172C1.17934 20.6474 1.12645 20.4547 1.12503 20.2581C1.12361 20.0615 1.17372 19.868 1.27037 19.6969L5.30162 12.5719C5.39962 12.3983 5.54197 12.2539 5.71411 12.1534C5.88624 12.0529 6.08199 12 6.28131 12H17.7188C17.9181 12 18.1139 12.0529 18.286 12.1534C18.4581 12.2539 18.6005 12.3983 18.6985 12.5719L22.7297 19.6969C22.8263 19.8681 22.8764 20.0616 22.8749 20.2582C22.8734 20.4547 22.8205 20.6475 22.7213 20.8172ZM17.0626 14.25H13.1251V15.375H17.7019L17.0626 14.25ZM6.93756 14.25L6.30193 15.375H10.8751V14.25H6.93756ZM4.17849 19.125H10.8751V17.625H5.02599L4.17849 19.125ZM19.8216 19.125L18.9779 17.625H13.1251V19.125H19.8216Z" fill="#130032"/>
</svg>
