<svg width="24" height="24" viewBox="0 0 24 24" fill="none" xmlns="http://www.w3.org/2000/svg">
<path d="M3.375 12.0018C3.375 11.7035 3.49353 11.4173 3.7045 11.2063C3.91548 10.9954 4.20163 10.8768 4.5 10.8768H10.875C11.1734 10.8768 11.4595 10.9954 11.6705 11.2063C11.8815 11.4173 12 11.7035 12 12.0018C12 12.3002 11.8815 12.5863 11.6705 12.7973C11.4595 13.0083 11.1734 13.1268 10.875 13.1268H4.5C4.20163 13.1268 3.91548 13.0083 3.7045 12.7973C3.49353 12.5863 3.375 12.3002 3.375 12.0018ZM4.5 7.12682H9.375C9.67337 7.12682 9.95952 7.0083 10.1705 6.79732C10.3815 6.58634 10.5 6.30019 10.5 6.00182C10.5 5.70346 10.3815 5.41731 10.1705 5.20633C9.95952 4.99535 9.67337 4.87682 9.375 4.87682H4.5C4.20163 4.87682 3.91548 4.99535 3.7045 5.20633C3.49353 5.41731 3.375 5.70346 3.375 6.00182C3.375 6.30019 3.49353 6.58634 3.7045 6.79732C3.91548 7.0083 4.20163 7.12682 4.5 7.12682ZM16.875 16.8768H4.5C4.20163 16.8768 3.91548 16.9954 3.7045 17.2063C3.49353 17.4173 3.375 17.7035 3.375 18.0018C3.375 18.3002 3.49353 18.5863 3.7045 18.7973C3.91548 19.0083 4.20163 19.1268 4.5 19.1268H16.875C17.1734 19.1268 17.4595 19.0083 17.6705 18.7973C17.8815 18.5863 18 18.3002 18 18.0018C18 17.7035 17.8815 17.4173 17.6705 17.2063C17.4595 16.9954 17.1734 16.8768 16.875 16.8768ZM21.7959 7.45589L18.0459 3.70589C17.9414 3.60101 17.8172 3.51779 17.6805 3.46101C17.5437 3.40423 17.3971 3.375 17.2491 3.375C17.101 3.375 16.9544 3.40423 16.8176 3.46101C16.6809 3.51779 16.5567 3.60101 16.4522 3.70589L12.7022 7.45589C12.4908 7.66723 12.3721 7.95388 12.3721 8.25276C12.3721 8.55165 12.4908 8.83829 12.7022 9.04964C12.9135 9.26098 13.2002 9.37971 13.4991 9.37971C13.7979 9.37971 14.0846 9.26098 14.2959 9.04964L16.125 7.22057V13.5018C16.125 13.8002 16.2435 14.0863 16.4545 14.2973C16.6655 14.5083 16.9516 14.6268 17.25 14.6268C17.5484 14.6268 17.8345 14.5083 18.0455 14.2973C18.2565 14.0863 18.375 13.8002 18.375 13.5018V7.22057L20.2041 9.05057C20.3087 9.15522 20.4329 9.23823 20.5697 9.29487C20.7064 9.3515 20.8529 9.38065 21.0009 9.38065C21.1489 9.38065 21.2955 9.3515 21.4322 9.29487C21.5689 9.23823 21.6932 9.15522 21.7978 9.05057C21.9025 8.94593 21.9855 8.82169 22.0421 8.68497C22.0987 8.54824 22.1279 8.40169 22.1279 8.2537C22.1279 8.10571 22.0987 7.95916 22.0421 7.82243C21.9855 7.68571 21.9025 7.56147 21.7978 7.45682L21.7959 7.45589Z" fill="#130032"/>
</svg>
