<svg width="24" height="24" viewBox="0 0 24 24" fill="none" xmlns="http://www.w3.org/2000/svg">
<g clip-path="url(#clip0_7_17982)">
<path d="M3 11.25V15.75C3 16.0484 2.88147 16.3345 2.6705 16.5455C2.45952 16.7565 2.17337 16.875 1.875 16.875C1.57663 16.875 1.29048 16.7565 1.0795 16.5455C0.868526 16.3345 0.75 16.0484 0.75 15.75V11.25C0.75 10.9516 0.868526 10.6655 1.0795 10.4545C1.29048 10.2435 1.57663 10.125 1.875 10.125C2.17337 10.125 2.45952 10.2435 2.6705 10.4545C2.88147 10.6655 3 10.9516 3 11.25ZM5.625 7.875C5.32663 7.875 5.04048 7.99353 4.8295 8.2045C4.61853 8.41548 4.5 8.70163 4.5 9V18C4.5 18.2984 4.61853 18.5845 4.8295 18.7955C5.04048 19.0065 5.32663 19.125 5.625 19.125C5.92337 19.125 6.20952 19.0065 6.4205 18.7955C6.63147 18.5845 6.75 18.2984 6.75 18V9C6.75 8.70163 6.63147 8.41548 6.4205 8.2045C6.20952 7.99353 5.92337 7.875 5.625 7.875ZM9.375 4.125C9.07663 4.125 8.79048 4.24353 8.5795 4.4545C8.36853 4.66548 8.25 4.95163 8.25 5.25V18C8.25 18.2984 8.36853 18.5845 8.5795 18.7955C8.79048 19.0065 9.07663 19.125 9.375 19.125C9.67337 19.125 9.95952 19.0065 10.1705 18.7955C10.3815 18.5845 10.5 18.2984 10.5 18V5.25C10.5 4.95163 10.3815 4.66548 10.1705 4.4545C9.95952 4.24353 9.67337 4.125 9.375 4.125ZM20.8444 9.68719C20.4837 7.90588 19.518 6.30415 18.111 5.15367C16.7041 4.00318 14.9425 3.37477 13.125 3.375C12.8266 3.375 12.5405 3.49353 12.3295 3.7045C12.1185 3.91548 12 4.20163 12 4.5C12 4.79837 12.1185 5.08452 12.3295 5.2955C12.5405 5.50647 12.8266 5.625 13.125 5.625C14.5198 5.62017 15.8662 6.13561 16.9012 7.07058C17.9362 8.00555 18.5854 9.29286 18.7219 10.6809C18.7461 10.9217 18.8473 11.1482 19.0104 11.3269C19.1736 11.5055 19.39 11.6268 19.6275 11.6728C20.2688 11.7969 20.8407 12.1556 21.2317 12.6788C21.6226 13.2021 21.8044 13.8523 21.7416 14.5024C21.6788 15.1525 21.3759 15.7559 20.8921 16.1946C20.4082 16.6334 19.7782 16.8759 19.125 16.875H13.125C12.8266 16.875 12.5405 16.9935 12.3295 17.2045C12.1185 17.4155 12 17.7016 12 18C12 18.2984 12.1185 18.5845 12.3295 18.7955C12.5405 19.0065 12.8266 19.125 13.125 19.125H19.125C20.2669 19.1257 21.3727 18.7255 22.2498 17.9943C23.1268 17.263 23.7193 16.2471 23.9239 15.1237C24.1286 14.0004 23.9324 12.8408 23.3696 11.8472C22.8068 10.8537 21.9131 10.0892 20.8444 9.68719Z" fill="#130032"/>
</g>
<defs>
<clipPath id="clip0_7_17982">
<rect width="24" height="24" fill="white"/>
</clipPath>
</defs>
</svg>
