<svg width="24" height="24" viewBox="0 0 24 24" fill="none" xmlns="http://www.w3.org/2000/svg">
<path d="M12.5034 1.24393C12.3471 1.16572 12.1748 1.125 12 1.125C11.8252 1.125 11.6529 1.16572 11.4966 1.24393C11.1037 1.43987 1.875 6.13112 1.875 12.7499C1.87489 13.564 2.05151 14.3685 2.39268 15.1078C2.73384 15.847 3.23142 16.5034 3.85103 17.0315C4.47064 17.5597 5.19752 17.947 5.98145 18.1668C6.76539 18.3866 7.58769 18.4336 8.39156 18.3046L7.89656 20.7796C7.86397 20.9428 7.868 21.1112 7.90835 21.2727C7.94871 21.4341 8.02439 21.5846 8.12994 21.7133C8.23549 21.842 8.36828 21.9457 8.51874 22.0168C8.66919 22.088 8.83356 22.1249 9 22.1249H15C15.1664 22.1249 15.3308 22.088 15.4813 22.0168C15.6317 21.9457 15.7645 21.842 15.8701 21.7133C15.9756 21.5846 16.0513 21.4341 16.0916 21.2727C16.132 21.1112 16.136 20.9428 16.1034 20.7796L15.6084 18.3046C16.4123 18.4336 17.2346 18.3866 18.0185 18.1668C18.8025 17.947 19.5294 17.5597 20.149 17.0315C20.7686 16.5034 21.2662 15.847 21.6073 15.1078C21.9485 14.3685 22.1251 13.564 22.125 12.7499C22.125 6.13112 12.8962 1.43987 12.5034 1.24393ZM16.5 16.1249C15.8671 16.1257 15.2467 15.948 14.7103 15.6121C14.5241 15.4953 14.3077 15.4357 14.088 15.4406C13.8682 15.4454 13.6547 15.5146 13.4738 15.6394C13.2929 15.7643 13.1526 15.9394 13.0701 16.1431C12.9876 16.3468 12.9666 16.5703 13.0097 16.7858L13.6275 19.8749H10.3725L10.9903 16.7858C11.0334 16.5703 11.0124 16.3468 10.9299 16.1431C10.8474 15.9394 10.7071 15.7643 10.5262 15.6394C10.3453 15.5146 10.1318 15.4454 9.91202 15.4406C9.69228 15.4357 9.47593 15.4953 9.28969 15.6121C8.77878 15.9316 8.19163 16.1085 7.58922 16.1245C6.98682 16.1404 6.39114 15.9948 5.86405 15.7026C5.33696 15.4105 4.8977 14.9826 4.59189 14.4634C4.28607 13.9441 4.12486 13.3525 4.125 12.7499C4.125 10.0977 6.33469 7.69206 8.18812 6.14143C9.37784 5.15768 10.6536 4.28291 12 3.52768C13.3465 4.28269 14.6223 5.15747 15.8119 6.14143C17.6653 7.69206 19.875 10.0977 19.875 12.7499C19.875 13.645 19.5194 14.5034 18.8865 15.1364C18.2535 15.7693 17.3951 16.1249 16.5 16.1249Z" fill="#130032"/>
</svg>
