<svg width="24" height="24" viewBox="0 0 24 24" fill="none" xmlns="http://www.w3.org/2000/svg">
<path d="M14.7441 1.98932C14.5548 1.89682 14.3435 1.85928 14.134 1.88099C13.9245 1.90271 13.7253 1.98279 13.5591 2.11213L7.11375 7.12495H3C2.50272 7.12495 2.02581 7.32249 1.67417 7.67412C1.32254 8.02575 1.125 8.50267 1.125 8.99995V14.9999C1.125 15.4972 1.32254 15.9741 1.67417 16.3258C2.02581 16.6774 2.50272 16.8749 3 16.8749H7.11375L13.5591 21.8878C13.7253 22.0171 13.9245 22.0972 14.134 22.1189C14.3435 22.1407 14.5549 22.1031 14.7441 22.0106C14.9333 21.9181 15.0928 21.7743 15.2043 21.5956C15.3159 21.417 15.375 21.2106 15.375 20.9999V2.99995C15.375 2.78932 15.3158 2.58292 15.2043 2.40426C15.0928 2.22559 14.9333 2.08182 14.7441 1.98932ZM3.375 9.37495H6.375V14.6249H3.375V9.37495ZM13.125 18.7003L8.625 15.1987V8.8012L13.125 5.30057V18.7003ZM23.2959 13.4549C23.4006 13.5596 23.4836 13.6838 23.5402 13.8206C23.5969 13.9573 23.626 14.1038 23.626 14.2518C23.626 14.3998 23.5969 14.5464 23.5402 14.6831C23.4836 14.8198 23.4006 14.9441 23.2959 15.0487C23.1913 15.1533 23.0671 15.2364 22.9303 15.293C22.7936 15.3496 22.6471 15.3788 22.4991 15.3788C22.3511 15.3788 22.2045 15.3496 22.0678 15.293C21.9311 15.2364 21.8068 15.1533 21.7022 15.0487L20.25 13.5937L18.7959 15.0487C18.5846 15.26 18.2979 15.3788 17.9991 15.3788C17.7002 15.3788 17.4135 15.26 17.2022 15.0487C16.9908 14.8374 16.8721 14.5507 16.8721 14.2518C16.8721 13.9529 16.9908 13.6663 17.2022 13.4549L18.6562 11.9999L17.2013 10.5459C16.9899 10.3345 16.8712 10.0479 16.8712 9.74901C16.8712 9.45012 16.9899 9.16348 17.2013 8.95213C17.4126 8.74079 17.6992 8.62206 17.9981 8.62206C18.297 8.62206 18.5837 8.74079 18.795 8.95213L20.25 10.4062L21.7041 8.95213C21.9154 8.74079 22.2021 8.62206 22.5009 8.62206C22.7998 8.62206 23.0865 8.74079 23.2978 8.95213C23.5092 9.16348 23.6279 9.45012 23.6279 9.74901C23.6279 10.0479 23.5092 10.3345 23.2978 10.5459L21.8438 11.9999L23.2959 13.4549Z" fill="#130032"/>
</svg>
