<svg width="24" height="24" viewBox="0 0 24 24" fill="none" xmlns="http://www.w3.org/2000/svg">
<path d="M14.7441 1.98932C14.5548 1.89682 14.3435 1.85928 14.134 1.88099C13.9245 1.90271 13.7253 1.98279 13.5591 2.11213L7.11375 7.12495H3C2.50272 7.12495 2.02581 7.32249 1.67417 7.67412C1.32254 8.02575 1.125 8.50267 1.125 8.99995V14.9999C1.125 15.4972 1.32254 15.9741 1.67417 16.3258C2.02581 16.6774 2.50272 16.8749 3 16.8749H7.11375L13.5591 21.8878C13.7253 22.0171 13.9245 22.0972 14.134 22.1189C14.3435 22.1407 14.5549 22.1031 14.7441 22.0106C14.9333 21.9181 15.0928 21.7743 15.2043 21.5956C15.3159 21.417 15.375 21.2106 15.375 20.9999V2.99995C15.375 2.78932 15.3158 2.58292 15.2043 2.40426C15.0928 2.22559 14.9333 2.08182 14.7441 1.98932ZM3.375 9.37495H6.375V14.6249H3.375V9.37495ZM13.125 18.6993L8.625 15.1996V8.80026L13.125 5.30057V18.6993ZM19.875 11.9999C19.8752 13.0049 19.5085 13.9753 18.8438 14.729C18.6463 14.9528 18.3681 15.089 18.0703 15.1076C17.7724 15.1262 17.4794 15.0258 17.2556 14.8284C17.0318 14.631 16.8957 14.3527 16.877 14.0549C16.8584 13.7571 16.9588 13.464 17.1562 13.2403C17.4579 12.8978 17.6243 12.4572 17.6243 12.0009C17.6243 11.5446 17.4579 11.1039 17.1562 10.7615C16.972 10.536 16.8823 10.2479 16.9061 9.95763C16.9299 9.66739 17.0653 9.39769 17.2838 9.20524C17.5024 9.01279 17.7871 8.91259 18.078 8.9257C18.3689 8.93882 18.6434 9.06423 18.8438 9.27557C19.5078 10.0278 19.8745 10.9965 19.875 11.9999Z" fill="#130032"/>
</svg>
