<svg width="24" height="24" viewBox="0 0 24 24" fill="none" xmlns="http://www.w3.org/2000/svg">
<path d="M14.7441 1.98932C14.5548 1.89682 14.3435 1.85928 14.134 1.88099C13.9245 1.90271 13.7253 1.98279 13.5591 2.11213L7.11375 7.12495H3C2.50272 7.12495 2.02581 7.32249 1.67417 7.67412C1.32254 8.02575 1.125 8.50267 1.125 8.99995V14.9999C1.125 15.4972 1.32254 15.9741 1.67417 16.3258C2.02581 16.6774 2.50272 16.8749 3 16.8749H7.11375L13.5591 21.8878C13.7253 22.0171 13.9245 22.0972 14.134 22.1189C14.3435 22.1407 14.5549 22.1031 14.7441 22.0106C14.9333 21.9181 15.0928 21.7743 15.2043 21.5956C15.3159 21.417 15.375 21.2106 15.375 20.9999V2.99995C15.375 2.78932 15.3158 2.58292 15.2043 2.40426C15.0928 2.22559 14.9333 2.08182 14.7441 1.98932ZM3.375 9.37495H6.375V14.6249H3.375V9.37495ZM13.125 18.6993L8.625 15.1996V8.80026L13.125 5.30057V18.6993ZM19.875 11.9999C19.8752 13.0049 19.5085 13.9753 18.8438 14.729C18.746 14.8398 18.6274 14.9303 18.4947 14.9952C18.3619 15.0602 18.2177 15.0984 18.0703 15.1076C17.9228 15.1168 17.775 15.0969 17.6352 15.049C17.4954 15.0011 17.3664 14.9261 17.2556 14.8284C17.1448 14.7306 17.0544 14.612 16.9894 14.4793C16.9244 14.3466 16.8863 14.2024 16.877 14.0549C16.8678 13.9074 16.8877 13.7596 16.9356 13.6198C16.9835 13.48 17.0585 13.3511 17.1562 13.2403C17.4576 12.8979 17.6239 12.4574 17.6239 12.0014C17.6239 11.5453 17.4576 11.1048 17.1562 10.7624C16.9689 10.5373 16.8768 10.248 16.8994 9.95605C16.922 9.66406 17.0576 9.3924 17.2773 9.19879C17.497 9.00518 17.7836 8.90488 18.0761 8.91922C18.3686 8.93356 18.644 9.0614 18.8438 9.27557C19.5078 10.0278 19.8745 10.9965 19.875 11.9999ZM23.625 11.9999C23.6262 13.9372 22.9121 15.8067 21.6197 17.2499C21.4208 17.4724 21.1417 17.6066 20.8437 17.6233C20.5458 17.6399 20.2535 17.5375 20.0311 17.3385C19.8087 17.1396 19.6744 16.8605 19.6578 16.5626C19.6412 16.2647 19.7436 15.9724 19.9425 15.7499C20.8649 14.7187 21.3749 13.3836 21.3749 11.9999C21.3749 10.6163 20.8649 9.28124 19.9425 8.24995C19.84 8.14056 19.7604 8.01179 19.7083 7.87119C19.6563 7.7306 19.6328 7.58102 19.6394 7.43125C19.646 7.28147 19.6825 7.13453 19.7466 6.99904C19.8108 6.86355 19.9014 6.74226 20.0131 6.64229C20.1249 6.54232 20.2554 6.46568 20.3972 6.41689C20.5389 6.3681 20.689 6.34813 20.8386 6.35816C20.9882 6.36819 21.1343 6.40801 21.2682 6.47529C21.4022 6.54257 21.5214 6.63595 21.6188 6.74995C22.9115 8.19301 23.6259 10.0625 23.625 11.9999Z" fill="#130032"/>
</svg>
