<svg width="24" height="24" viewBox="0 0 24 24" fill="none" xmlns="http://www.w3.org/2000/svg">
<path d="M14.7441 1.98932C14.5548 1.89682 14.3435 1.85928 14.134 1.88099C13.9245 1.90271 13.7253 1.98279 13.5591 2.11213L7.11375 7.12495H3C2.50272 7.12495 2.02581 7.32249 1.67417 7.67412C1.32254 8.02575 1.125 8.50267 1.125 8.99995V14.9999C1.125 15.4972 1.32254 15.9741 1.67417 16.3258C2.02581 16.6774 2.50272 16.8749 3 16.8749H7.11375L13.5591 21.8878C13.7253 22.0171 13.9245 22.0972 14.134 22.1189C14.3435 22.1407 14.5549 22.1031 14.7441 22.0106C14.9333 21.9181 15.0928 21.7743 15.2043 21.5956C15.3159 21.417 15.375 21.2106 15.375 20.9999V2.99995C15.375 2.78932 15.3158 2.58292 15.2043 2.40426C15.0928 2.22559 14.9333 2.08182 14.7441 1.98932ZM3.375 9.37495H6.375V14.6249H3.375V9.37495ZM13.125 18.6993L8.625 15.1987V8.8012L13.125 5.30057V18.6993Z" fill="#130032"/>
</svg>
