<svg width="24" height="24" viewBox="0 0 24 24" fill="none" xmlns="http://www.w3.org/2000/svg">
<path d="M5.3325 2.99228C5.2337 2.88092 5.11379 2.79027 4.9797 2.72559C4.84561 2.66091 4.70002 2.62349 4.55136 2.61549C4.40271 2.60749 4.25394 2.62908 4.11369 2.679C3.97344 2.72892 3.84448 2.80618 3.73431 2.9063C3.62414 3.00643 3.53493 3.12742 3.47187 3.26228C3.4088 3.39713 3.37312 3.54316 3.36691 3.6919C3.36069 3.84064 3.38406 3.98914 3.43566 4.12878C3.48726 4.26843 3.56606 4.39644 3.6675 4.50541L6.04781 7.12385H3C2.50272 7.12385 2.02581 7.32139 1.67417 7.67302C1.32254 8.02465 1.125 8.50156 1.125 8.99885V14.9988C1.125 15.4961 1.32254 15.973 1.67417 16.3247C2.02581 16.6763 2.50272 16.8738 3 16.8738H7.11375L13.5591 21.8867C13.7253 22.016 13.9245 22.0961 14.134 22.1178C14.3435 22.1396 14.5549 22.102 14.7441 22.0095C14.9333 21.917 15.0928 21.7732 15.2043 21.5946C15.3159 21.4159 15.375 21.2095 15.375 20.9988V17.3838L18.6675 21.0054C18.8692 21.2221 19.1482 21.3505 19.444 21.3629C19.7397 21.3752 20.0285 21.2705 20.2475 21.0714C20.4666 20.8723 20.5984 20.5949 20.6143 20.2993C20.6302 20.0037 20.529 19.7137 20.3325 19.4923L5.3325 2.99228ZM3.375 9.37385H6.375V14.6238H3.375V9.37385ZM13.125 18.6982L8.625 15.1985V9.95885L13.125 14.9051V18.6982ZM10.2188 6.13572C10.1281 6.01907 10.0612 5.88571 10.0221 5.74323C9.98298 5.60076 9.97229 5.45198 9.99066 5.30537C10.009 5.15877 10.0561 5.01722 10.1292 4.88881C10.2022 4.7604 10.2999 4.64764 10.4166 4.55697L13.5581 2.11291C13.7242 1.98337 13.9233 1.90306 14.1328 1.88112C14.3423 1.85918 14.5537 1.89649 14.7431 1.98881C14.9324 2.08113 15.092 2.22474 15.2037 2.40331C15.3154 2.58187 15.3748 2.78821 15.375 2.99885V8.89947C15.375 9.19784 15.2565 9.48399 15.0455 9.69497C14.8345 9.90594 14.5484 10.0245 14.25 10.0245C13.9516 10.0245 13.6655 9.90594 13.4545 9.69497C13.2435 9.48399 13.125 9.19784 13.125 8.89947V5.29947L11.7984 6.33072C11.6818 6.4216 11.5484 6.4886 11.4059 6.52789C11.2634 6.56719 11.1145 6.578 10.9678 6.55971C10.8211 6.54143 10.6794 6.49441 10.5509 6.42133C10.4224 6.34826 10.3095 6.25057 10.2188 6.13385V6.13572ZM17.1562 10.7623C16.972 10.5368 16.8823 10.2486 16.9061 9.95841C16.9299 9.66817 17.0653 9.39847 17.2838 9.20602C17.5024 9.01356 17.7871 8.91336 18.078 8.92648C18.3689 8.93959 18.6434 9.06501 18.8438 9.27635C19.4034 9.91252 19.7536 10.7056 19.8467 11.5478C19.9398 12.39 19.7713 13.2405 19.3641 13.9835C19.2121 14.2283 18.972 14.4055 18.6933 14.4785C18.4146 14.5515 18.1185 14.5148 17.8661 14.376C17.6136 14.2371 17.4241 14.0067 17.3365 13.7322C17.2489 13.4578 17.27 13.1601 17.3953 12.9007C17.5477 12.6247 17.6268 12.3142 17.625 11.9988C17.6246 11.5428 17.4579 11.1025 17.1562 10.7604V10.7623ZM23.625 11.9988C23.6238 13.823 22.9907 15.5904 21.8334 17.0004C21.7402 17.1164 21.6249 17.2128 21.4941 17.2839C21.3634 17.355 21.2198 17.3994 21.0718 17.4147C20.9237 17.4299 20.7741 17.4156 20.6316 17.3726C20.4892 17.3296 20.3566 17.2588 20.2417 17.1642C20.1268 17.0697 20.0318 16.9532 19.9622 16.8217C19.8926 16.6901 19.8498 16.5461 19.8363 16.3979C19.8227 16.2496 19.8387 16.1002 19.8834 15.9582C19.928 15.8163 20.0004 15.6845 20.0963 15.5707C20.9492 14.5331 21.4026 13.2244 21.3746 11.8815C21.3466 10.5386 20.8389 9.25002 19.9434 8.24885C19.8409 8.13946 19.7613 8.01069 19.7093 7.87009C19.6572 7.7295 19.6338 7.57992 19.6404 7.43015C19.6469 7.28037 19.6834 7.13343 19.7476 6.99794C19.8118 6.86245 19.9024 6.74116 20.0141 6.64119C20.1258 6.54122 20.2564 6.46458 20.3981 6.41579C20.5399 6.36699 20.69 6.34703 20.8395 6.35706C20.9891 6.36709 21.1352 6.40691 21.2692 6.47419C21.4031 6.54147 21.5223 6.63485 21.6197 6.74885C22.9121 8.19205 23.6262 10.0616 23.625 11.9988Z" fill="#130032"/>
</svg>
