<svg width="24" height="24" viewBox="0 0 24 24" fill="none" xmlns="http://www.w3.org/2000/svg">
<path d="M18 1.875H6C5.50272 1.875 5.02581 2.07254 4.67417 2.42417C4.32254 2.77581 4.125 3.25272 4.125 3.75V20.25C4.125 20.7473 4.32254 21.2242 4.67417 21.5758C5.02581 21.9275 5.50272 22.125 6 22.125H18C18.4973 22.125 18.9742 21.9275 19.3258 21.5758C19.6775 21.2242 19.875 20.7473 19.875 20.25V3.75C19.875 3.25272 19.6775 2.77581 19.3258 2.42417C18.9742 2.07254 18.4973 1.875 18 1.875ZM17.625 19.875H6.375V4.125H17.625V19.875ZM10.5 7.125C10.5 6.82833 10.588 6.53832 10.7528 6.29165C10.9176 6.04497 11.1519 5.85271 11.426 5.73918C11.7001 5.62565 12.0017 5.59594 12.2926 5.65382C12.5836 5.7117 12.8509 5.85456 13.0607 6.06434C13.2704 6.27412 13.4133 6.54139 13.4712 6.83236C13.5291 7.12334 13.4994 7.42494 13.3858 7.69903C13.2723 7.97311 13.08 8.20738 12.8334 8.3722C12.5867 8.53703 12.2967 8.625 12 8.625C11.6022 8.625 11.2206 8.46696 10.9393 8.18566C10.658 7.90436 10.5 7.52282 10.5 7.125ZM12 18.375C12.8158 18.375 13.6134 18.1331 14.2917 17.6798C14.9701 17.2266 15.4988 16.5823 15.811 15.8286C16.1232 15.0748 16.2049 14.2454 16.0457 13.4453C15.8866 12.6451 15.4937 11.9101 14.9168 11.3332C14.3399 10.7563 13.6049 10.3634 12.8047 10.2043C12.0046 10.0451 11.1752 10.1268 10.4214 10.439C9.66769 10.7512 9.02345 11.2799 8.57019 11.9583C8.11693 12.6366 7.875 13.4342 7.875 14.25C7.87624 15.3436 8.31124 16.3921 9.08455 17.1654C9.85787 17.9388 10.9064 18.3738 12 18.375ZM12 12.375C12.3708 12.375 12.7334 12.485 13.0417 12.691C13.35 12.897 13.5904 13.1899 13.7323 13.5325C13.8742 13.8751 13.9113 14.2521 13.839 14.6158C13.7666 14.9795 13.588 15.3136 13.3258 15.5758C13.0636 15.838 12.7295 16.0166 12.3658 16.089C12.0021 16.1613 11.6251 16.1242 11.2825 15.9823C10.9399 15.8404 10.647 15.6 10.441 15.2917C10.235 14.9834 10.125 14.6208 10.125 14.25C10.125 13.7527 10.3225 13.2758 10.6742 12.9242C11.0258 12.5725 11.5027 12.375 12 12.375Z" fill="#130032"/>
</svg>
