<svg width="24" height="24" viewBox="0 0 24 24" fill="none" xmlns="http://www.w3.org/2000/svg">
<path d="M11.2041 13.453L19.4541 5.20299C19.5588 5.09834 19.683 5.01533 19.8197 4.95869C19.9565 4.90206 20.103 4.87291 20.251 4.87291C20.399 4.87291 20.5455 4.90206 20.6823 4.95869C20.819 5.01533 20.9432 5.09834 21.0479 5.20299C21.1525 5.30763 21.2355 5.43187 21.2922 5.5686C21.3488 5.70532 21.3779 5.85187 21.3779 5.99986C21.3779 6.14786 21.3488 6.2944 21.2922 6.43113C21.2355 6.56786 21.1525 6.69209 21.0479 6.79674L12.7979 15.0467C12.6932 15.1514 12.569 15.2344 12.4323 15.291C12.2955 15.3477 12.149 15.3768 12.001 15.3768C11.853 15.3768 11.7065 15.3477 11.5697 15.291C11.433 15.2344 11.3088 15.1514 11.2041 15.0467C11.0995 14.9421 11.0165 14.8179 10.9598 14.6811C10.9032 14.5444 10.874 14.3979 10.874 14.2499C10.874 14.1019 10.9032 13.9553 10.9598 13.8186C11.0165 13.6819 11.0995 13.5576 11.2041 13.453ZM12.5382 9.40299C12.6868 9.42283 12.8379 9.41276 12.9826 9.37338C13.1273 9.33399 13.2626 9.26608 13.3807 9.17363C13.4987 9.08119 13.5971 8.96607 13.67 8.83506C13.743 8.70405 13.789 8.55978 13.8053 8.41073C13.8217 8.26168 13.8081 8.11086 13.7654 7.96714C13.7226 7.82342 13.6516 7.68969 13.5564 7.57383C13.4612 7.45796 13.3439 7.36228 13.2112 7.29243C13.0785 7.22257 12.9332 7.17994 12.7838 7.16705C12.5236 7.13812 12.2619 7.12372 12.0001 7.12392C10.111 7.12591 8.29988 7.87721 6.96412 9.21298C5.62835 10.5487 4.87705 12.3599 4.87506 14.2489C4.87506 14.5473 4.99359 14.8334 5.20457 15.0444C5.41554 15.2554 5.70169 15.3739 6.00006 15.3739C6.29843 15.3739 6.58458 15.2554 6.79556 15.0444C7.00653 14.8334 7.12506 14.5473 7.12506 14.2489C7.12655 12.9565 7.64064 11.7173 8.55456 10.8034C9.46848 9.88951 10.7076 9.37541 12.0001 9.37392C12.1798 9.37418 12.3594 9.38388 12.5382 9.40299ZM22.0576 10.1061C21.9433 9.83025 21.7242 9.61106 21.4483 9.49678C21.1724 9.3825 20.8625 9.38249 20.5866 9.49674C20.3108 9.61099 20.0916 9.83015 19.9773 10.106C19.863 10.3819 19.863 10.6918 19.9772 10.9677C20.7473 12.8473 20.8329 14.9376 20.2191 16.8739H3.78194C3.3736 15.5807 3.27518 14.2096 3.49462 12.8713C3.71407 11.533 4.24522 10.2651 5.04518 9.17005C5.84514 8.07497 6.89146 7.18341 8.09963 6.56739C9.30779 5.95138 10.6439 5.62819 12.0001 5.62392H12.0788C13.1792 5.63204 14.2678 5.85199 15.2851 6.27174C15.5602 6.38169 15.8676 6.37864 16.1406 6.26326C16.4135 6.14789 16.6299 5.92949 16.7427 5.65551C16.8556 5.38154 16.8558 5.0741 16.7433 4.79997C16.6308 4.52584 16.4147 4.30716 16.1419 4.19142C14.2005 3.39376 12.0698 3.1746 10.0066 3.56038C7.94342 3.94615 6.03584 4.92038 4.51377 6.36566C2.9917 7.81093 1.92011 9.66557 1.42814 11.706C0.936165 13.7465 1.04482 15.8857 1.741 17.8658C1.87014 18.2327 2.10971 18.5506 2.4268 18.7759C2.7439 19.0012 3.12297 19.1228 3.51194 19.1239H20.4872C20.8757 19.1232 21.2544 19.0023 21.5714 18.7777C21.8883 18.5531 22.1279 18.2358 22.2572 17.8695C23.145 15.3448 23.0739 12.5819 22.0576 10.1061Z" fill="#130032"/>
</svg>
