<svg width="24" height="24" viewBox="0 0 24 24" fill="none" xmlns="http://www.w3.org/2000/svg">
<path d="M12 1.875C9.99747 1.875 8.0399 2.46882 6.37486 3.58137C4.70981 4.69392 3.41206 6.27523 2.64572 8.12533C1.87939 9.97543 1.67888 12.0112 2.06955 13.9753C2.46023 15.9393 3.42454 17.7435 4.84055 19.1595C6.25656 20.5755 8.06066 21.5398 10.0247 21.9305C11.9888 22.3211 14.0246 22.1206 15.8747 21.3543C17.7248 20.5879 19.3061 19.2902 20.4186 17.6251C21.5312 15.9601 22.125 14.0025 22.125 12C22.122 9.3156 21.0543 6.74199 19.1562 4.84383C17.258 2.94567 14.6844 1.87798 12 1.875ZM19.8422 11.2941C17.6728 12.75 16.0041 12.5381 14.2425 11.8125C14.9803 11.25 15.6759 10.6191 16.2441 9.82875C16.9693 8.81948 17.4135 7.63569 17.5313 6.39844C18.8577 7.70465 19.6768 9.43978 19.8422 11.2941ZM15.3094 4.85625C15.4875 7.46344 14.4656 8.80219 12.9572 9.96375C12.8409 9.04313 12.6403 8.12531 12.2409 7.2375C11.7277 6.10399 10.9228 5.12698 9.90844 4.40625C11.7051 3.91029 13.6196 4.0698 15.3094 4.85625ZM7.47094 5.56406C9.81469 6.7125 10.4644 8.26406 10.7147 10.1522C9.85969 9.79406 8.96532 9.50812 7.99594 9.41062C6.75766 9.28884 5.50924 9.49783 4.37813 10.0162C4.85118 8.21362 5.94676 6.6365 7.47094 5.56406ZM4.15782 12.7059C6.32719 11.25 7.99594 11.4619 9.7575 12.1875C9.01969 12.75 8.32407 13.3809 7.75594 14.1713C7.03067 15.1805 6.58647 16.3643 6.46875 17.6016C5.14229 16.2953 4.32323 14.5602 4.15782 12.7059ZM8.69063 19.1437C8.5125 16.5366 9.53438 15.1978 11.0428 14.0363C11.1591 14.9569 11.3597 15.8747 11.7591 16.7625C12.2723 17.896 13.0772 18.873 14.0916 19.5938C12.2949 20.0897 10.3804 19.9302 8.69063 19.1437ZM16.5291 18.4359C14.1853 17.2875 13.5356 15.7359 13.2853 13.8478C14.1403 14.2059 15.0347 14.4919 16.0041 14.5894C16.2384 14.6131 16.4719 14.625 16.7044 14.625C17.7113 14.6195 18.7057 14.4006 19.6219 13.9828C19.1491 15.7858 18.0535 17.3633 16.5291 18.4359Z" fill="#130032"/>
</svg>
