<svg width="24" height="24" viewBox="0 0 24 24" fill="none" xmlns="http://www.w3.org/2000/svg">
<path d="M10.8749 4.5V19.5C10.8749 19.7984 10.7564 20.0845 10.5454 20.2955C10.3344 20.5065 10.0483 20.625 9.74991 20.625C9.45154 20.625 9.16539 20.5065 8.95442 20.2955C8.74344 20.0845 8.62491 19.7984 8.62491 19.5V13.125H4.96866L6.04866 14.2041C6.26 14.4154 6.37874 14.7021 6.37874 15.0009C6.37874 15.2998 6.26 15.5865 6.04866 15.7978C5.83732 16.0092 5.55067 16.1279 5.25179 16.1279C4.9529 16.1279 4.66626 16.0092 4.45491 15.7978L1.45491 12.7978C1.35003 12.6933 1.26681 12.5691 1.21003 12.4324C1.15325 12.2956 1.12402 12.149 1.12402 12.0009C1.12402 11.8529 1.15325 11.7063 1.21003 11.5695C1.26681 11.4328 1.35003 11.3086 1.45491 11.2041L4.45491 8.20406C4.66626 7.99272 4.9529 7.87399 5.25179 7.87399C5.39978 7.87399 5.54632 7.90314 5.68305 7.95977C5.81978 8.0164 5.94401 8.09942 6.04866 8.20406C6.15331 8.30871 6.23632 8.43294 6.29295 8.56967C6.34959 8.7064 6.37874 8.85294 6.37874 9.00094C6.37874 9.14893 6.34959 9.29548 6.29295 9.4322C6.23632 9.56893 6.15331 9.69317 6.04866 9.79781L4.96866 10.875H8.62491V4.5C8.62491 4.20163 8.74344 3.91548 8.95442 3.7045C9.16539 3.49353 9.45154 3.375 9.74991 3.375C10.0483 3.375 10.3344 3.49353 10.5454 3.7045C10.7564 3.91548 10.8749 4.20163 10.8749 4.5ZM22.5458 11.2041L19.5458 8.20406C19.3345 7.99272 19.0479 7.87399 18.749 7.87399C18.4501 7.87399 18.1634 7.99272 17.9521 8.20406C17.7408 8.41541 17.622 8.70205 17.622 9.00094C17.622 9.29982 17.7408 9.58647 17.9521 9.79781L19.0312 10.875H15.3749V4.5C15.3749 4.20163 15.2564 3.91548 15.0454 3.7045C14.8344 3.49353 14.5483 3.375 14.2499 3.375C13.9515 3.375 13.6654 3.49353 13.4544 3.7045C13.2434 3.91548 13.1249 4.20163 13.1249 4.5V19.5C13.1249 19.7984 13.2434 20.0845 13.4544 20.2955C13.6654 20.5065 13.9515 20.625 14.2499 20.625C14.5483 20.625 14.8344 20.5065 15.0454 20.2955C15.2564 20.0845 15.3749 19.7984 15.3749 19.5V13.125H19.0312L17.9512 14.2041C17.7398 14.4154 17.6211 14.7021 17.6211 15.0009C17.6211 15.2998 17.7398 15.5865 17.9512 15.7978C18.1625 16.0092 18.4491 16.1279 18.748 16.1279C19.0469 16.1279 19.3336 16.0092 19.5449 15.7978L22.5449 12.7978C22.6499 12.6934 22.7331 12.5692 22.79 12.4325C22.8469 12.2958 22.8762 12.1492 22.8763 12.0011C22.8764 11.8531 22.8472 11.7064 22.7905 11.5697C22.7338 11.4329 22.6507 11.3086 22.5458 11.2041Z" fill="#130032"/>
</svg>
