<svg width="24" height="24" viewBox="0 0 24 24" fill="none" xmlns="http://www.w3.org/2000/svg">
<path d="M20.625 14.2509C20.625 14.5493 20.5065 14.8354 20.2955 15.0464C20.0845 15.2574 19.7984 15.3759 19.5 15.3759H13.125V19.0321L14.2041 17.9521C14.4154 17.7408 14.7021 17.6221 15.0009 17.6221C15.2998 17.6221 15.5865 17.7408 15.7978 17.9521C16.0092 18.1635 16.1279 18.4501 16.1279 18.749C16.1279 19.0479 16.0092 19.3345 15.7978 19.5459L12.7978 22.5459C12.6933 22.6508 12.5691 22.734 12.4324 22.7908C12.2956 22.8475 12.149 22.8768 12.0009 22.8768C11.8529 22.8768 11.7063 22.8475 11.5695 22.7908C11.4328 22.734 11.3086 22.6508 11.2041 22.5459L8.20406 19.5459C8.09942 19.4412 8.0164 19.317 7.95977 19.1803C7.90314 19.0436 7.87399 18.897 7.87399 18.749C7.87399 18.601 7.90314 18.4545 7.95977 18.3177C8.0164 18.181 8.09942 18.0568 8.20406 17.9521C8.30871 17.8475 8.43294 17.7645 8.56967 17.7078C8.7064 17.6512 8.85294 17.6221 9.00094 17.6221C9.14893 17.6221 9.29548 17.6512 9.4322 17.7078C9.56893 17.7645 9.69317 17.8475 9.79781 17.9521L10.875 19.0321V15.3759H4.5C4.20163 15.3759 3.91548 15.2574 3.7045 15.0464C3.49353 14.8354 3.375 14.5493 3.375 14.2509C3.375 13.9525 3.49353 13.6664 3.7045 13.4554C3.91548 13.2444 4.20163 13.1259 4.5 13.1259H19.5C19.7984 13.1259 20.0845 13.2444 20.2955 13.4554C20.5065 13.6664 20.625 13.9525 20.625 14.2509ZM4.5 10.8759H19.5C19.7984 10.8759 20.0845 10.7574 20.2955 10.5464C20.5065 10.3354 20.625 10.0493 20.625 9.75089C20.625 9.45252 20.5065 9.16637 20.2955 8.95539C20.0845 8.74441 19.7984 8.62589 19.5 8.62589H13.125V4.96964L14.2041 6.04964C14.3087 6.15428 14.4329 6.23729 14.5697 6.29393C14.7064 6.35056 14.8529 6.37971 15.0009 6.37971C15.1489 6.37971 15.2955 6.35056 15.4322 6.29393C15.5689 6.23729 15.6932 6.15428 15.7978 6.04964C15.9025 5.94499 15.9855 5.82076 16.0421 5.68403C16.0987 5.5473 16.1279 5.40076 16.1279 5.25276C16.1279 5.10477 16.0987 4.95822 16.0421 4.8215C15.9855 4.68477 15.9025 4.56053 15.7978 4.45589L12.7978 1.45589C12.6933 1.35101 12.5691 1.26779 12.4324 1.21101C12.2956 1.15423 12.149 1.125 12.0009 1.125C11.8529 1.125 11.7063 1.15423 11.5695 1.21101C11.4328 1.26779 11.3086 1.35101 11.2041 1.45589L8.20406 4.45589C7.99272 4.66723 7.87399 4.95388 7.87399 5.25276C7.87399 5.55165 7.99272 5.83829 8.20406 6.04964C8.41541 6.26098 8.70205 6.37971 9.00094 6.37971C9.29982 6.37971 9.58647 6.26098 9.79781 6.04964L10.875 4.96964V8.62589H4.5C4.20163 8.62589 3.91548 8.74441 3.7045 8.95539C3.49353 9.16637 3.375 9.45252 3.375 9.75089C3.375 10.0493 3.49353 10.3354 3.7045 10.5464C3.91548 10.7574 4.20163 10.8759 4.5 10.8759Z" fill="#130032"/>
</svg>
