<svg width="24" height="24" viewBox="0 0 24 24" fill="none" xmlns="http://www.w3.org/2000/svg">
<path d="M12 1.875C9.99747 1.875 8.0399 2.46882 6.37486 3.58137C4.70981 4.69392 3.41206 6.27523 2.64572 8.12533C1.87939 9.97543 1.67888 12.0112 2.06955 13.9753C2.46023 15.9393 3.42454 17.7435 4.84055 19.1595C6.25656 20.5755 8.06066 21.5398 10.0247 21.9305C11.9888 22.3211 14.0246 22.1206 15.8747 21.3543C17.7248 20.5879 19.3061 19.2902 20.4186 17.6251C21.5312 15.9601 22.125 14.0025 22.125 12C22.122 9.3156 21.0543 6.74199 19.1562 4.84383C17.258 2.94567 14.6844 1.87798 12 1.875ZM12 19.875C10.4425 19.875 8.91993 19.4131 7.62489 18.5478C6.32985 17.6825 5.32049 16.4526 4.72445 15.0136C4.12841 13.5747 3.97246 11.9913 4.27632 10.4637C4.58018 8.93606 5.3302 7.53287 6.43154 6.43153C7.53288 5.3302 8.93607 4.58017 10.4637 4.27632C11.9913 3.97246 13.5747 4.12841 15.0136 4.72445C16.4526 5.32049 17.6825 6.32985 18.5478 7.62488C19.4131 8.91992 19.875 10.4425 19.875 12C19.8728 14.0879 19.0424 16.0896 17.566 17.566C16.0896 19.0424 14.0879 19.8728 12 19.875ZM18.2428 11.9662C18.1732 12.0966 18.0786 12.2119 17.9644 12.3057C17.8502 12.3994 17.7187 12.4698 17.5773 12.5127C17.4359 12.5556 17.2875 12.5703 17.1404 12.5558C16.9934 12.5414 16.8506 12.4981 16.7203 12.4284C15.2683 11.6513 13.6469 11.2447 12 11.2447C10.3531 11.2447 8.73169 11.6513 7.27969 12.4284C7.11707 12.5166 6.93498 12.5627 6.75 12.5625C6.49927 12.5624 6.25574 12.4786 6.05808 12.3244C5.86042 12.1701 5.71996 11.9542 5.659 11.711C5.59803 11.4678 5.62006 11.2112 5.72159 10.982C5.82312 10.7527 5.99832 10.5639 6.21938 10.4456C7.99716 9.49378 9.98251 8.99573 11.9991 8.99573C14.0156 8.99573 16.001 9.49378 17.7788 10.4456C18.0418 10.5859 18.2384 10.8248 18.3254 11.1099C18.4124 11.395 18.3827 11.703 18.2428 11.9662ZM16.7428 15.3412C16.6738 15.472 16.5796 15.5879 16.4658 15.6822C16.3519 15.7766 16.2205 15.8475 16.0792 15.8911C15.9379 15.9346 15.7894 15.9499 15.6422 15.9359C15.4949 15.922 15.3519 15.8792 15.2213 15.81C14.2299 15.2811 13.1236 15.0045 12 15.0045C10.8764 15.0045 9.7701 15.2811 8.77875 15.81C8.51601 15.9442 8.21107 15.9698 7.92962 15.8813C7.64818 15.7929 7.41275 15.5974 7.27406 15.337C7.13538 15.0765 7.10454 14.7721 7.18818 14.4892C7.27183 14.2062 7.46327 13.9675 7.72125 13.8244C9.03814 13.1222 10.5076 12.7549 12 12.7549C13.4924 12.7549 14.9619 13.1222 16.2788 13.8244C16.5408 13.9646 16.7367 14.2029 16.8236 14.4871C16.9106 14.7713 16.8815 15.0784 16.7428 15.3412Z" fill="#130032"/>
</svg>
