<svg width="24" height="24" viewBox="0 0 24 24" fill="none" xmlns="http://www.w3.org/2000/svg">
<path d="M19.5 2.625H4.5C4.00272 2.625 3.52581 2.82254 3.17417 3.17417C2.82254 3.52581 2.625 4.00272 2.625 4.5V19.5C2.625 19.9973 2.82254 20.4742 3.17417 20.8258C3.52581 21.1775 4.00272 21.375 4.5 21.375H19.5C19.9973 21.375 20.4742 21.1775 20.8258 20.8258C21.1775 20.4742 21.375 19.9973 21.375 19.5V4.5C21.375 4.00272 21.1775 3.52581 20.8258 3.17417C20.4742 2.82254 19.9973 2.625 19.5 2.625ZM19.125 19.125H4.875V4.875H19.125V19.125ZM9 16.125H15C15.2984 16.125 15.5845 16.0065 15.7955 15.7955C16.0065 15.5845 16.125 15.2984 16.125 15V9C16.125 8.70163 16.0065 8.41548 15.7955 8.2045C15.5845 7.99353 15.2984 7.875 15 7.875H9C8.70163 7.875 8.41548 7.99353 8.2045 8.2045C7.99353 8.41548 7.875 8.70163 7.875 9V15C7.875 15.2984 7.99353 15.5845 8.2045 15.7955C8.41548 16.0065 8.70163 16.125 9 16.125ZM10.125 10.125H13.875V13.875H10.125V10.125Z" fill="#130032"/>
</svg>
