<svg width="24" height="24" viewBox="0 0 24 24" fill="none" xmlns="http://www.w3.org/2000/svg">
<path d="M0.94249 10.3518L11.4425 16.3518C11.6124 16.4488 11.8047 16.4998 12.0003 16.4998C12.1959 16.4998 12.3882 16.4488 12.5581 16.3518L23.0581 10.3518C23.2304 10.2534 23.3735 10.1112 23.4731 9.93966C23.5727 9.7681 23.6251 9.57327 23.6251 9.3749C23.6251 9.17654 23.5727 8.98171 23.4731 8.81015C23.3735 8.63859 23.2304 8.49641 23.0581 8.39803L12.5581 2.39803C12.3882 2.30102 12.1959 2.25 12.0003 2.25C11.8047 2.25 11.6124 2.30102 11.4425 2.39803L0.94249 8.39803C0.770245 8.49641 0.627075 8.63859 0.527496 8.81015C0.427917 8.98171 0.375469 9.17654 0.375469 9.3749C0.375469 9.57327 0.427917 9.7681 0.527496 9.93966C0.627075 10.1112 0.770245 10.2534 0.94249 10.3518ZM12.005 4.67053L20.2325 9.3749L12.0003 14.0793L3.76811 9.3749L12.005 4.67053ZM23.4819 13.3171C23.6298 13.5762 23.6687 13.8834 23.5901 14.1712C23.5116 14.459 23.3219 14.7038 23.0628 14.8518L12.5628 20.8518C12.3929 20.9488 12.2006 20.9998 12.005 20.9998C11.8093 20.9998 11.6171 20.9488 11.4472 20.8518L0.947177 14.8518C0.817004 14.7795 0.702467 14.6821 0.610206 14.5653C0.517946 14.4484 0.449797 14.3144 0.40971 14.1711C0.369623 14.0277 0.358396 13.8778 0.376679 13.73C0.394962 13.5822 0.442391 13.4396 0.516218 13.3103C0.590044 13.181 0.688799 13.0677 0.806759 12.9768C0.924718 12.886 1.05953 12.8195 1.20339 12.7811C1.34725 12.7428 1.49729 12.7334 1.64482 12.7534C1.79234 12.7735 1.93442 12.8226 2.0628 12.898L12.0003 18.5793L21.9378 12.898C22.0663 12.8241 22.2081 12.7762 22.3552 12.7572C22.5022 12.7383 22.6516 12.7486 22.7946 12.7875C22.9377 12.8264 23.0716 12.8933 23.1888 12.9842C23.3059 13.0751 23.4039 13.1882 23.4772 13.3171H23.4819Z" fill="#130032"/>
</svg>
