<svg width="24" height="24" viewBox="0 0 24 24" fill="none" xmlns="http://www.w3.org/2000/svg">
<path d="M20.625 14.2177V20.2486C20.625 20.547 20.5065 20.8331 20.2955 21.0441C20.0845 21.2551 19.7984 21.3736 19.5 21.3736H4.5C4.20163 21.3736 3.91548 21.2551 3.7045 21.0441C3.49353 20.8331 3.375 20.547 3.375 20.2486V14.2177C3.375 13.9193 3.49353 13.6331 3.7045 13.4222C3.91548 13.2112 4.20163 13.0927 4.5 13.0927C4.79837 13.0927 5.08452 13.2112 5.2955 13.4222C5.50647 13.6331 5.625 13.9193 5.625 14.2177V19.1142H18.375V14.2177C18.375 13.9193 18.4935 13.6331 18.7045 13.4222C18.9155 13.2112 19.2016 13.0927 19.5 13.0927C19.7984 13.0927 20.0845 13.2112 20.2955 13.4222C20.5065 13.6331 20.625 13.9193 20.625 14.2177ZM8.25 17.2308H15.75C16.0441 17.2223 16.3233 17.0995 16.5283 16.8885C16.7334 16.6775 16.8481 16.3948 16.8481 16.1006C16.8481 15.8064 16.7334 15.5238 16.5283 15.3127C16.3233 15.1017 16.0441 14.9789 15.75 14.9705H8.25C7.9559 14.9789 7.67668 15.1017 7.47165 15.3127C7.26662 15.5238 7.15193 15.8064 7.15193 16.1006C7.15193 16.3948 7.26662 16.6775 7.47165 16.8885C7.67668 17.0995 7.9559 17.2223 8.25 17.2308ZM9.01875 10.5923L16.0659 13.1695C16.3476 13.2716 16.6584 13.2576 16.9297 13.1305C17.2011 13.0035 17.4109 12.7739 17.513 12.4922C17.615 12.2105 17.601 11.8998 17.474 11.6284C17.347 11.357 17.1173 11.1472 16.8356 11.0452L9.78844 8.4689C9.50685 8.36683 9.19625 8.38081 8.92497 8.50774C8.65369 8.63468 8.44394 8.86419 8.34188 9.14578C8.23981 9.42736 8.25378 9.73796 8.38072 10.0092C8.50766 10.2805 8.73716 10.4903 9.01875 10.5923ZM12 4.61953L17.7459 9.46078C17.9745 9.65238 18.2698 9.74539 18.5668 9.71937C18.8639 9.69336 19.1386 9.55044 19.3303 9.32203C19.5227 9.09204 19.6161 8.7952 19.5901 8.49649C19.5641 8.19779 19.4208 7.92155 19.1916 7.72827L13.4475 2.88796C13.3343 2.793 13.2034 2.72128 13.0624 2.67691C12.9215 2.63253 12.7731 2.61637 12.6259 2.62934C12.4787 2.64231 12.3355 2.68417 12.2044 2.75251C12.0734 2.82085 11.9571 2.91435 11.8622 3.02765C11.6705 3.25751 11.5775 3.5538 11.6033 3.85197C11.6291 4.15014 11.7717 4.42603 12 4.61953Z" fill="#130032"/>
</svg>
