<svg width="24" height="24" viewBox="0 0 24 24" fill="none" xmlns="http://www.w3.org/2000/svg">
<path d="M21.9709 15.9372C22.1196 16.1951 22.1602 16.5014 22.0835 16.789C22.0069 17.0767 21.8194 17.3223 21.5621 17.4719L12.5621 22.7219C12.39 22.8224 12.1942 22.8754 11.9949 22.8754C11.7956 22.8754 11.5999 22.8224 11.4277 22.7219L2.42773 17.4719C2.16989 17.3216 1.98232 17.0751 1.90628 16.7865C1.83024 16.4979 1.87196 16.1909 2.02226 15.933C2.17257 15.6752 2.41914 15.4876 2.70774 15.4116C2.99634 15.3355 3.30333 15.3773 3.56117 15.5276L11.9987 20.4476L20.4371 15.5276C20.695 15.3792 21.0011 15.3389 21.2886 15.4157C21.576 15.4925 21.8213 15.68 21.9709 15.9372ZM20.4371 11.0276L11.9996 15.9476L3.5668 11.0276C3.30969 10.8895 3.00899 10.8568 2.7282 10.9363C2.44741 11.0158 2.20849 11.2012 2.06189 11.4536C1.91529 11.7059 1.87247 12.0053 1.94248 12.2886C2.01249 12.5719 2.18985 12.8169 2.43711 12.9719L11.4371 18.2219C11.6092 18.3224 11.805 18.3754 12.0043 18.3754C12.2036 18.3754 12.3994 18.3224 12.5715 18.2219L21.5715 12.9719C21.8293 12.8215 22.0168 12.5748 22.0928 12.2861C22.1688 11.9974 22.1269 11.6904 21.9765 11.4326C21.8261 11.1747 21.5794 10.9872 21.2907 10.9112C21.002 10.8353 20.6949 10.8771 20.4371 11.0276ZM1.87461 7.49975C1.87497 7.30262 1.92713 7.10906 2.02585 6.93843C2.12457 6.76781 2.26639 6.62612 2.43711 6.52756L11.4371 1.27756C11.6094 1.17763 11.8051 1.125 12.0043 1.125C12.2035 1.125 12.3992 1.17763 12.5715 1.27756L21.5715 6.52756C21.7415 6.62658 21.8826 6.76846 21.9807 6.93905C22.0788 7.10964 22.1304 7.30298 22.1304 7.49975C22.1304 7.69652 22.0788 7.88985 21.9807 8.06044C21.8826 8.23103 21.7415 8.37292 21.5715 8.47194L12.5715 13.7219C12.3994 13.8224 12.2036 13.8754 12.0043 13.8754C11.805 13.8754 11.6092 13.8224 11.4371 13.7219L2.43711 8.47194C2.26639 8.37337 2.12457 8.23169 2.02585 8.06106C1.92713 7.89044 1.87497 7.69687 1.87461 7.49975ZM5.23273 7.49975L11.9996 11.4476L18.7665 7.49975L11.9996 3.55193L5.23273 7.49975Z" fill="#130032"/>
</svg>
