<svg width="24" height="24" viewBox="0 0 24 24" fill="none" xmlns="http://www.w3.org/2000/svg">
<path d="M22.5 18.7497C22.5 19.0481 22.3815 19.3343 22.1705 19.5452C21.9595 19.7562 21.6734 19.8747 21.375 19.8747H20.625V20.6247C20.625 20.9231 20.5065 21.2093 20.2955 21.4202C20.0845 21.6312 19.7984 21.7497 19.5 21.7497C19.2016 21.7497 18.9155 21.6312 18.7045 21.4202C18.4935 21.2093 18.375 20.9231 18.375 20.6247V19.8747H17.625C17.3266 19.8747 17.0405 19.7562 16.8295 19.5452C16.6185 19.3343 16.5 19.0481 16.5 18.7497C16.5 18.4514 16.6185 18.1652 16.8295 17.9543C17.0405 17.7433 17.3266 17.6247 17.625 17.6247H18.375V16.8747C18.375 16.5764 18.4935 16.2902 18.7045 16.0793C18.9155 15.8683 19.2016 15.7497 19.5 15.7497C19.7984 15.7497 20.0845 15.8683 20.2955 16.0793C20.5065 16.2902 20.625 16.5764 20.625 16.8747V17.6247H21.375C21.6734 17.6247 21.9595 17.7433 22.1705 17.9543C22.3815 18.1652 22.5 18.4514 22.5 18.7497ZM20.4375 11.0276L12 15.9476L3.56719 11.0276C3.31008 10.8895 3.00939 10.8568 2.72859 10.9363C2.4478 11.0158 2.20889 11.2012 2.06228 11.4536C1.91568 11.7059 1.87286 12.0053 1.94287 12.2886C2.01288 12.5719 2.19024 12.8169 2.4375 12.9719L11.4375 18.2219C11.6096 18.3224 11.8054 18.3754 12.0047 18.3754C12.204 18.3754 12.3997 18.3224 12.5719 18.2219L21.5719 12.9719C21.6995 12.8975 21.8113 12.7985 21.9007 12.6809C21.9902 12.5632 22.0556 12.4291 22.0932 12.2861C22.1308 12.1432 22.1399 11.9942 22.1199 11.8478C22.1 11.7013 22.0514 11.5602 21.9769 11.4326C21.9024 11.3049 21.8035 11.1931 21.6858 11.1037C21.5681 11.0142 21.434 10.9489 21.2911 10.9112C21.1481 10.8736 20.9992 10.8646 20.8527 10.8845C20.7063 10.9045 20.5652 10.9531 20.4375 11.0276ZM1.875 7.49975C1.87537 7.30262 1.92752 7.10906 2.02624 6.93843C2.12496 6.76781 2.26679 6.62612 2.4375 6.52756L11.4375 1.27756C11.6098 1.17763 11.8055 1.125 12.0047 1.125C12.2039 1.125 12.3996 1.17763 12.5719 1.27756L21.5719 6.52756C21.7419 6.62658 21.883 6.76846 21.9811 6.93905C22.0792 7.10964 22.1308 7.30298 22.1308 7.49975C22.1308 7.69652 22.0792 7.88985 21.9811 8.06044C21.883 8.23103 21.7419 8.37292 21.5719 8.47194L12.5719 13.7219C12.3997 13.8224 12.204 13.8754 12.0047 13.8754C11.8054 13.8754 11.6096 13.8224 11.4375 13.7219L2.4375 8.47194C2.26679 8.37337 2.12496 8.23169 2.02624 8.06106C1.92752 7.89044 1.87537 7.69687 1.875 7.49975ZM5.23312 7.49975L12 11.4476L18.7669 7.49975L12 3.55193L5.23312 7.49975ZM12.9375 19.9029L12 20.4476L3.56719 15.5276C3.31008 15.3895 3.00939 15.3568 2.72859 15.4363C2.4478 15.5158 2.20889 15.7012 2.06228 15.9536C1.91568 16.2059 1.87286 16.5053 1.94287 16.7886C2.01288 17.0719 2.19024 17.3169 2.4375 17.4719L11.4375 22.7219C11.6096 22.8224 11.8054 22.8754 12.0047 22.8754C12.204 22.8754 12.3997 22.8224 12.5719 22.7219L14.0719 21.8463C14.1995 21.7718 14.3112 21.6729 14.4006 21.5553C14.49 21.4376 14.5553 21.3035 14.5929 21.1606C14.6304 21.0177 14.6395 20.8688 14.6195 20.7224C14.5995 20.576 14.5509 20.435 14.4764 20.3074C14.4019 20.1798 14.303 20.0681 14.1854 19.9787C14.0677 19.8893 13.9336 19.824 13.7907 19.7864C13.6478 19.7489 13.4989 19.7398 13.3525 19.7598C13.2061 19.7798 13.0651 19.8284 12.9375 19.9029Z" fill="#130032"/>
</svg>
