<svg width="24" height="24" viewBox="0 0 24 24" fill="none" xmlns="http://www.w3.org/2000/svg">
<path d="M18.75 1.875H5.25C4.75272 1.875 4.27581 2.07254 3.92417 2.42417C3.57254 2.77581 3.375 3.25272 3.375 3.75V20.25C3.375 20.7473 3.57254 21.2242 3.92417 21.5758C4.27581 21.9275 4.75272 22.125 5.25 22.125H18.75C19.2473 22.125 19.7242 21.9275 20.0758 21.5758C20.4275 21.2242 20.625 20.7473 20.625 20.25V3.75C20.625 3.25272 20.4275 2.77581 20.0758 2.42417C19.7242 2.07254 19.2473 1.875 18.75 1.875ZM14.25 13.875H18.375V15.375H10.875V13.875H14.25ZM15.375 11.625V10.125H18.375V11.625H15.375ZM18.375 4.125V7.875H14.25C13.9516 7.875 13.6655 7.99353 13.4545 8.2045C13.2435 8.41548 13.125 8.70163 13.125 9V11.625H9.75C9.45163 11.625 9.16548 11.7435 8.9545 11.9545C8.74353 12.1655 8.625 12.4516 8.625 12.75V15.375H5.625V4.125H18.375ZM5.625 19.875V17.625H18.375V19.875H5.625Z" fill="#130032"/>
</svg>
