<svg width="24" height="24" viewBox="0 0 24 24" fill="none" xmlns="http://www.w3.org/2000/svg">
<path d="M22.2093 11.0519L21.735 11.4606C21.5195 11.6484 21.2407 11.7472 20.9551 11.7368C20.6695 11.7265 20.3985 11.6079 20.1972 11.405C19.9959 11.2021 19.8794 10.9303 19.8712 10.6446C19.8631 10.3589 19.964 10.0809 20.1534 9.86687C20.0062 9.85455 19.8628 9.81336 19.7315 9.74564C19.6001 9.67792 19.4834 9.58499 19.388 9.47217C19.2926 9.35935 19.2204 9.22883 19.1754 9.08809C19.1304 8.94734 19.1136 8.79911 19.1259 8.65187C19.1382 8.50462 19.1794 8.36124 19.2471 8.22992C19.3149 8.09859 19.4078 7.98189 19.5206 7.88648C19.6334 7.79107 19.7639 7.71881 19.9047 7.67384C20.0454 7.62887 20.1937 7.61205 20.3409 7.62437L21.1162 7.68718C21.4927 7.71842 21.8515 7.86018 22.1477 8.09465C22.4438 8.32913 22.6641 8.64587 22.7809 9.00512C22.8977 9.36436 22.9057 9.7501 22.8041 10.1139C22.7024 10.4777 22.4955 10.8034 22.2093 11.05V11.0519ZM16.1747 13.285C16.0186 13.4196 15.9024 13.5944 15.8389 13.7905C15.7755 13.9866 15.7671 14.1963 15.8147 14.3969L16.1972 16.0112C16.2298 16.1565 16.2909 16.2939 16.377 16.4154C16.463 16.5369 16.5724 16.64 16.6987 16.7189C16.8249 16.7979 16.9656 16.8509 17.1125 16.875C17.2594 16.8992 17.4097 16.8939 17.5546 16.8595C17.6994 16.8252 17.836 16.7624 17.9565 16.6748C18.0769 16.5872 18.1787 16.4766 18.2561 16.3494C18.3335 16.2222 18.3848 16.0809 18.4071 15.9337C18.4295 15.7865 18.4224 15.6363 18.3862 15.4919L18.1612 14.5431L18.735 14.0481C18.9531 13.8511 19.0854 13.5766 19.1037 13.2833C19.122 12.9899 19.0248 12.7011 18.8329 12.4785C18.6409 12.2559 18.3695 12.1173 18.0767 12.0923C17.7838 12.0673 17.4928 12.1579 17.2659 12.3447L16.1747 13.285ZM19.275 19.2428C19.2115 18.9728 19.0504 18.7357 18.8228 18.5772C18.5952 18.4186 18.317 18.3498 18.0417 18.3838C17.7664 18.4179 17.5134 18.5525 17.3312 18.7617C17.1491 18.971 17.0507 19.2401 17.055 19.5175C16.7986 19.3742 16.4963 19.3368 16.2127 19.4134C15.9291 19.49 15.6867 19.6745 15.5374 19.9275C15.388 20.1804 15.3435 20.4817 15.4134 20.767C15.4832 21.0524 15.6619 21.299 15.9112 21.4544L16.5403 21.8416C16.8627 22.0394 17.2366 22.1372 17.6146 22.1225C17.9926 22.1078 18.3577 21.9813 18.6638 21.7589C18.9698 21.5366 19.203 21.2285 19.3339 20.8735C19.4647 20.5186 19.4873 20.1328 19.3987 19.765L19.275 19.2428ZM16.4062 9.56312L14.94 9.44499C14.7333 9.42839 14.5352 9.35498 14.3676 9.23289C14.2 9.11079 14.0694 8.94476 13.9903 8.75312L13.125 6.65124V17.0997L13.6434 17.4184C13.8858 17.5797 14.0563 17.8286 14.119 18.1129C14.1817 18.3972 14.1317 18.6947 13.9796 18.9429C13.8275 19.1912 13.5851 19.3708 13.3034 19.444C13.0216 19.5172 12.7224 19.4784 12.4687 19.3356L12 19.0497L7.45965 21.8444C7.13725 22.0423 6.76338 22.14 6.38537 22.1253C6.00737 22.1106 5.64222 21.9841 5.33617 21.7618C5.03011 21.5394 4.79691 21.2313 4.66608 20.8763C4.53525 20.5214 4.51267 20.1356 4.60122 19.7678L5.83872 14.5459L1.79059 11.0519C1.50418 10.8054 1.297 10.4797 1.19508 10.1158C1.09315 9.75197 1.10104 9.36609 1.21774 9.00668C1.33443 8.64726 1.55474 8.33036 1.85098 8.09576C2.14723 7.86116 2.50619 7.71934 2.88278 7.68812L8.18903 7.25968L10.2347 2.3078C10.3785 1.95789 10.6232 1.65863 10.9375 1.44804C11.2518 1.23744 11.6216 1.125 12 1.125C12.3783 1.125 12.7481 1.23744 13.0624 1.44804C13.3767 1.65863 13.6214 1.95789 13.7653 2.3078L15.8109 7.25968L16.5909 7.32249C16.8794 7.35785 17.143 7.50348 17.3265 7.72887C17.5099 7.95425 17.5991 8.2419 17.5752 8.53155C17.5513 8.8212 17.4163 9.09037 17.1984 9.28266C16.9805 9.47496 16.6966 9.57546 16.4062 9.56312ZM10.875 17.0969V6.65124L10.0059 8.75593C9.92674 8.94757 9.79615 9.11361 9.62856 9.2357C9.46097 9.3578 9.2629 9.4312 9.05622 9.4478L3.86247 9.86687L7.82528 13.285C7.98137 13.4196 8.0975 13.5944 8.16099 13.7905C8.22447 13.9866 8.23288 14.1963 8.18528 14.3969L6.97684 19.5006L10.875 17.0969Z" fill="#130032"/>
</svg>
