<svg width="24" height="24" viewBox="0 0 24 24" fill="none" xmlns="http://www.w3.org/2000/svg">
<path d="M19.2958 12L21.977 7.31251C22.0759 7.1413 22.1279 6.94706 22.1278 6.74936C22.1276 6.55166 22.0754 6.35749 21.9764 6.18639C21.8773 6.01529 21.7349 5.87331 21.5636 5.77476C21.3922 5.67621 21.1979 5.62456 21.0002 5.62501H15.6564L12.9798 0.937513C12.8806 0.765695 12.7378 0.623165 12.5657 0.524378C12.3937 0.425591 12.1986 0.37406 12.0002 0.375013C11.8018 0.37503 11.6069 0.427503 11.4354 0.527112C11.2638 0.626722 11.1216 0.769925 11.0233 0.942201L8.34391 5.62501H3.00016C2.80246 5.62456 2.60813 5.67621 2.43675 5.77476C2.26536 5.87331 2.12298 6.01529 2.02393 6.18639C1.92488 6.35749 1.87267 6.55166 1.87256 6.74936C1.87245 6.94706 1.92443 7.1413 2.02328 7.31251L4.70266 12L2.02328 16.6875C1.92443 16.8587 1.87245 17.053 1.87256 17.2507C1.87267 17.4484 1.92488 17.6425 2.02393 17.8136C2.12298 17.9847 2.26536 18.1267 2.43675 18.2253C2.60813 18.3238 2.80246 18.3755 3.00016 18.375H8.34391L11.0223 23.0625C11.1207 23.2348 11.2629 23.3779 11.4345 23.4775C11.606 23.5771 11.8009 23.6295 11.9992 23.6295C12.1976 23.6295 12.3924 23.5771 12.564 23.4775C12.7355 23.3779 12.8777 23.2348 12.9761 23.0625L15.6564 18.375H21.0002C21.1972 18.375 21.3907 18.3232 21.5615 18.2249C21.7322 18.1266 21.8741 17.9852 21.973 17.8148C22.0719 17.6444 22.1243 17.4511 22.1251 17.254C22.1258 17.057 22.0747 16.8633 21.977 16.6922L19.2958 12ZM19.0614 7.87501L18.0002 9.7322L16.9389 7.87501H19.0614ZM16.7045 12L14.3439 16.125H9.64703L7.29484 12L9.65078 7.87501H14.3439L16.7045 12ZM12.0002 3.76689L13.0623 5.62501H10.937L12.0002 3.76689ZM4.93891 7.87501H7.05859L6.00016 9.73314L4.93891 7.87501ZM4.93891 16.1175L6.00016 14.2669L7.05859 16.125L4.93891 16.1175ZM12.0002 20.2331L10.937 18.375H13.0623L12.0002 20.2331ZM16.9389 16.125L18.0002 14.2678L19.0614 16.125H16.9389Z" fill="#130032"/>
</svg>
