<svg width="24" height="24" viewBox="0 0 24 24" fill="none" xmlns="http://www.w3.org/2000/svg">
<path d="M14.762 18.3488C13.5911 17.7523 12.6079 16.8436 11.9212 15.7231C11.2345 14.6027 10.8711 13.3141 10.8711 12C10.8711 10.6859 11.2345 9.39734 11.9212 8.27689C12.6079 7.15644 13.5911 6.24774 14.762 5.65125C14.9465 5.55693 15.1014 5.41348 15.2096 5.23672C15.3177 5.05996 15.375 4.85676 15.375 4.64953C15.375 4.44231 15.3177 4.2391 15.2096 4.06234C15.1014 3.88558 14.9465 3.74213 14.762 3.64781C13.3328 2.91917 11.7405 2.56946 10.1375 2.63216C8.53447 2.69486 6.97436 3.16787 5.60642 4.00593C4.23848 4.84398 3.10848 6.01905 2.32452 7.4187C1.54057 8.81835 1.12891 10.3958 1.12891 12C1.12891 13.6042 1.54057 15.1817 2.32452 16.5813C3.10848 17.981 4.23848 19.156 5.60642 19.9941C6.97436 20.8321 8.53447 21.3051 10.1375 21.3678C11.7405 21.4305 13.3328 21.0808 14.762 20.3522C14.9465 20.2579 15.1014 20.1144 15.2096 19.9377C15.3177 19.7609 15.375 19.5577 15.375 19.3505C15.375 19.1432 15.3177 18.94 15.2096 18.7633C15.1014 18.5865 14.9465 18.4431 14.762 18.3488ZM10.5002 19.125C8.61048 19.125 6.79821 18.3743 5.46202 17.0381C4.12582 15.7019 3.37515 13.8897 3.37515 12C3.37515 10.1103 4.12582 8.29806 5.46202 6.96187C6.79821 5.62567 8.61048 4.875 10.5002 4.875C10.9267 4.87463 11.3524 4.91196 11.7723 4.98656C10.7826 5.86732 9.99041 6.9476 9.44797 8.15639C8.90553 9.36517 8.62509 10.6751 8.62509 12C8.62509 13.3249 8.90553 14.6348 9.44797 15.8436C9.99041 17.0524 10.7826 18.1327 11.7723 19.0134C11.3524 19.088 10.9267 19.1254 10.5002 19.125ZM23.3205 10.9688L21.0442 9.98438L20.8455 7.41375C20.8283 7.1901 20.7447 6.97668 20.6053 6.80091C20.466 6.62514 20.2772 6.49505 20.0634 6.42733C19.8496 6.35961 19.6204 6.35736 19.4052 6.42087C19.1901 6.48438 18.9989 6.61075 18.8561 6.78375L17.2623 8.71313L14.8942 8.12719C14.6793 8.07419 14.4536 8.08574 14.2452 8.16041C14.0369 8.23508 13.8552 8.36955 13.7229 8.54698C13.5906 8.72441 13.5136 8.93692 13.5015 9.15791C13.4894 9.3789 13.5427 9.59856 13.6548 9.78938L14.957 12L13.6558 14.2106C13.5437 14.4014 13.4903 14.6211 13.5024 14.8421C13.5145 15.0631 13.5915 15.2756 13.7238 15.453C13.8561 15.6305 14.0378 15.7649 14.2462 15.8396C14.4545 15.9143 14.6803 15.9258 14.8952 15.8728L17.2633 15.2869L18.857 17.2163C18.9626 17.3442 19.0952 17.4472 19.2453 17.5178C19.3954 17.5885 19.5593 17.6251 19.7252 17.625C19.8403 17.6252 19.9548 17.6074 20.0645 17.5725C20.2783 17.5048 20.467 17.3747 20.6063 17.1989C20.7456 17.0232 20.8292 16.8099 20.8464 16.5863L21.0452 14.0156L23.3205 13.0313C23.5212 12.9437 23.692 12.7996 23.812 12.6164C23.932 12.4332 23.9959 12.219 23.9959 12C23.9959 11.781 23.932 11.5668 23.812 11.3836C23.692 11.2005 23.5212 11.0563 23.3205 10.9688ZM19.5292 12.2203C19.3411 12.3015 19.1787 12.4325 19.0596 12.5992C18.9405 12.7659 18.8691 12.962 18.8533 13.1663L18.8167 13.635L18.5477 13.3125C18.4421 13.1847 18.3097 13.0818 18.1598 13.0111C18.0099 12.9405 17.8462 12.9038 17.6805 12.9038C17.5895 12.9035 17.4988 12.9145 17.4105 12.9366L16.952 13.05L17.2333 12.5747C17.3352 12.4017 17.3889 12.2045 17.3889 12.0038C17.3889 11.803 17.3352 11.6058 17.2333 11.4328L16.952 10.9575L17.4105 11.0709C17.6161 11.1218 17.8319 11.1136 18.0331 11.0473C18.2343 10.981 18.4126 10.8592 18.5477 10.6959L18.8167 10.3697L18.8533 10.8384C18.8691 11.0427 18.9405 11.2388 19.0596 11.4055C19.1787 11.5722 19.3411 11.7032 19.5292 11.7844L20.0355 12.0028L19.5292 12.2203Z" fill="#130032"/>
</svg>
