<svg width="24" height="24" viewBox="0 0 24 24" fill="none" xmlns="http://www.w3.org/2000/svg">
<path d="M12 1.875C9.99747 1.875 8.0399 2.46882 6.37486 3.58137C4.70981 4.69392 3.41206 6.27523 2.64572 8.12533C1.87939 9.97543 1.67888 12.0112 2.06955 13.9753C2.46023 15.9393 3.42454 17.7435 4.84055 19.1595C6.25656 20.5755 8.06066 21.5398 10.0247 21.9305C11.9888 22.3211 14.0246 22.1206 15.8747 21.3543C17.7248 20.5879 19.3061 19.2902 20.4186 17.6251C21.5312 15.9601 22.125 14.0025 22.125 12C22.122 9.3156 21.0543 6.74199 19.1562 4.84383C17.258 2.94567 14.6844 1.87798 12 1.875ZM16.7025 13.3331C17.1007 12.994 17.4236 12.5753 17.6503 12.104C17.8771 11.6326 18.0028 11.119 18.0192 10.5963C18.0357 10.0735 17.9426 9.553 17.746 9.06832C17.5493 8.58364 17.2535 8.14545 16.8774 7.78192C16.5013 7.41839 16.0534 7.13756 15.5623 6.95747C15.0712 6.77737 14.5479 6.702 14.026 6.73619C13.504 6.77038 12.995 6.91339 12.5316 7.15601C12.0682 7.39864 11.6608 7.73551 11.3353 8.145L8.67844 11.5875L5.17313 8.08219C6.15778 6.37543 7.74952 5.10248 9.63098 4.51715C11.5125 3.93181 13.5454 4.07708 15.3245 4.92401C17.1036 5.77093 18.4982 7.25728 19.2302 9.0867C19.9621 10.9161 19.9777 12.9542 19.2738 14.7946C18.5698 16.635 17.1981 18.1425 15.4322 19.0165C13.6662 19.8905 11.6357 20.0668 9.74551 19.5103C7.85532 18.9537 6.24432 17.7052 5.23372 16.0137C4.22311 14.3222 3.88715 12.312 4.29282 10.3837L7.36407 13.455C7.10405 14.0702 7.05677 14.7546 7.22972 15.3997C7.40266 16.0448 7.78594 16.6138 8.31882 17.0164C8.85171 17.4191 9.50372 17.6324 10.1715 17.6226C10.8394 17.6128 11.4848 17.3803 12.0056 16.9622L16.7025 13.3331ZM10.9688 12.3066C11.3121 12.9269 11.8231 13.4379 12.4434 13.7812L10.6219 15.1875L10.5984 15.2062C10.4661 15.3144 10.3006 15.3737 10.1297 15.3741C9.93078 15.3741 9.74001 15.295 9.59936 15.1544C9.45871 15.0137 9.37969 14.823 9.37969 14.6241C9.37901 14.4516 9.43833 14.2842 9.5475 14.1506L9.56625 14.1272L10.9688 12.3066ZM14.25 12C13.9533 12 13.6633 11.912 13.4166 11.7472C13.17 11.5824 12.9777 11.3481 12.8642 11.074C12.7507 10.7999 12.7209 10.4983 12.7788 10.2074C12.8367 9.91639 12.9796 9.64912 13.1893 9.43934C13.3991 9.22956 13.6664 9.0867 13.9574 9.02882C14.2483 8.97094 14.5499 9.00065 14.824 9.11418C15.0981 9.22771 15.3324 9.41997 15.4972 9.66665C15.662 9.91332 15.75 10.2033 15.75 10.5C15.75 10.8978 15.592 11.2794 15.3107 11.5607C15.0294 11.842 14.6478 12 14.25 12Z" fill="#130032"/>
</svg>
