<svg width="24" height="24" viewBox="0 0 24 24" fill="none" xmlns="http://www.w3.org/2000/svg">
<path d="M13.5 13.5C13.5 13.7967 13.412 14.0867 13.2472 14.3334C13.0824 14.58 12.8481 14.7723 12.574 14.8858C12.2999 14.9994 11.9983 15.0291 11.7074 14.9712C11.4164 14.9133 11.1491 14.7704 10.9393 14.5607C10.7296 14.3509 10.5867 14.0836 10.5288 13.7926C10.4709 13.5017 10.5007 13.2001 10.6142 12.926C10.7277 12.6519 10.92 12.4176 11.1666 12.2528C11.4133 12.088 11.7033 12 12 12C12.3978 12 12.7794 12.158 13.0607 12.4393C13.342 12.7206 13.5 13.1022 13.5 13.5ZM22.125 12C22.125 14.0025 21.5312 15.9601 20.4186 17.6251C19.3061 19.2902 17.7248 20.5879 15.8747 21.3543C14.0246 22.1206 11.9888 22.3211 10.0247 21.9305C8.06066 21.5398 6.25656 20.5755 4.84055 19.1595C3.42454 17.7435 2.46023 15.9393 2.06955 13.9753C1.67888 12.0112 1.87939 9.97543 2.64572 8.12533C3.41206 6.27523 4.70981 4.69392 6.37486 3.58137C8.0399 2.46882 9.99747 1.875 12 1.875C14.6844 1.87798 17.258 2.94567 19.1562 4.84383C21.0543 6.74199 22.122 9.3156 22.125 12ZM15.5203 14.625H19.4231C19.4972 14.4178 19.5628 14.2059 19.6191 13.9913C17.5856 11.9947 14.8497 10.8761 12 10.8761C9.15026 10.8761 6.41438 11.9947 4.38094 13.9913C4.43719 14.2063 4.5025 14.4175 4.57688 14.625H8.47969C8.86146 14.626 9.23389 14.7431 9.54752 14.9608C9.86115 15.1785 10.1011 15.4864 10.2356 15.8438L11.7413 19.8684C11.8275 19.8684 11.9128 19.875 12 19.875C12.0872 19.875 12.1706 19.875 12.255 19.8684L13.7644 15.8372C13.9001 15.4813 14.1406 15.1749 14.4541 14.9585C14.7676 14.742 15.1394 14.6258 15.5203 14.625ZM4.16344 11.2247C6.42748 9.53675 9.176 8.62493 12 8.62493C14.824 8.62493 17.5725 9.53675 19.8366 11.2247C19.6437 9.28019 18.7349 7.47682 17.2866 6.16505C15.8383 4.85328 13.954 4.12681 12 4.12681C10.046 4.12681 8.16171 4.85328 6.71343 6.16505C5.26514 7.47682 4.35627 9.28019 4.16344 11.2247ZM9.13969 19.335L8.22 16.875H5.82188C6.69071 17.9741 7.8356 18.823 9.13969 19.335ZM18.1781 16.875H15.78L14.8575 19.3359C16.163 18.8245 17.309 17.9752 18.1781 16.875Z" fill="#130032"/>
</svg>
