<svg width="24" height="24" viewBox="0 0 24 24" fill="none" xmlns="http://www.w3.org/2000/svg">
<path d="M23.625 5.25C23.625 5.54837 23.5065 5.83452 23.2955 6.0455C23.0845 6.25647 22.7984 6.375 22.5 6.375H18.375V9.75C18.375 10.0484 18.2565 10.3345 18.0455 10.5455C17.8345 10.7565 17.5484 10.875 17.25 10.875H13.125V14.25C13.125 14.5484 13.0065 14.8345 12.7955 15.0455C12.5845 15.2565 12.2984 15.375 12 15.375H7.875V18.75C7.875 19.0484 7.75647 19.3345 7.5455 19.5455C7.33452 19.7565 7.04837 19.875 6.75 19.875H1.5C1.20163 19.875 0.915483 19.7565 0.704505 19.5455C0.493526 19.3345 0.375 19.0484 0.375 18.75C0.375 18.4516 0.493526 18.1655 0.704505 17.9545C0.915483 17.7435 1.20163 17.625 1.5 17.625H5.625V14.25C5.625 13.9516 5.74353 13.6655 5.9545 13.4545C6.16548 13.2435 6.45163 13.125 6.75 13.125H10.875V9.75C10.875 9.45163 10.9935 9.16548 11.2045 8.9545C11.4155 8.74353 11.7016 8.625 12 8.625H16.125V5.25C16.125 4.95163 16.2435 4.66548 16.4545 4.4545C16.6655 4.24353 16.9516 4.125 17.25 4.125H22.5C22.7984 4.125 23.0845 4.24353 23.2955 4.4545C23.5065 4.66548 23.625 4.95163 23.625 5.25Z" fill="#130032"/>
</svg>
