<svg width="24" height="24" viewBox="0 0 24 24" fill="none" xmlns="http://www.w3.org/2000/svg">
<path d="M23.25 15C23.2502 14.3095 23.0597 13.6324 22.6996 13.0433C22.3396 12.4542 21.8238 11.9759 21.2093 11.6612C20.5947 11.3465 19.9052 11.2076 19.2167 11.2597C18.5282 11.3119 17.8675 11.5531 17.3074 11.9568C16.7472 12.3606 16.3094 12.9111 16.0422 13.5477C15.775 14.1844 15.6887 14.8824 15.793 15.565C15.8972 16.2475 16.1878 16.8881 16.6328 17.416C17.0778 17.9439 17.6599 18.3387 18.315 18.5569C18.1878 19.1426 17.864 19.6673 17.3974 20.0435C16.9308 20.4197 16.3494 20.6249 15.75 20.625H13.5C12.8038 20.625 12.1361 20.3484 11.6438 19.8562C11.1516 19.3639 10.875 18.6962 10.875 18V14.5219C13.8497 13.98 16.125 11.3259 16.125 8.17219V3.75C16.125 3.45163 16.0065 3.16548 15.7955 2.9545C15.5845 2.74353 15.2984 2.625 15 2.625H12.75C12.4516 2.625 12.1655 2.74353 11.9545 2.9545C11.7435 3.16548 11.625 3.45163 11.625 3.75C11.625 4.04837 11.7435 4.33452 11.9545 4.5455C12.1655 4.75647 12.4516 4.875 12.75 4.875H13.875V8.17219C13.875 10.4597 12.0497 12.3459 9.80531 12.375C9.25897 12.3823 8.71662 12.281 8.20975 12.077C7.70288 11.873 7.24159 11.5703 6.85267 11.1865C6.46375 10.8028 6.15495 10.3456 5.9442 9.84145C5.73345 9.33734 5.62495 8.79639 5.625 8.25V4.875H6.75C7.04837 4.875 7.33452 4.75647 7.5455 4.5455C7.75647 4.33452 7.875 4.04837 7.875 3.75C7.875 3.45163 7.75647 3.16548 7.5455 2.9545C7.33452 2.74353 7.04837 2.625 6.75 2.625H4.5C4.20163 2.625 3.91548 2.74353 3.7045 2.9545C3.49353 3.16548 3.375 3.45163 3.375 3.75V8.25C3.37506 9.74559 3.90095 11.1936 4.86068 12.3406C5.82041 13.4877 7.15288 14.2608 8.625 14.5247V18C8.62649 19.2925 9.14058 20.5316 10.0545 21.4455C10.9684 22.3594 12.2075 22.8735 13.5 22.875H15.75C16.9405 22.8736 18.0894 22.4371 18.9805 21.6477C19.8716 20.8583 20.4435 19.7704 20.5884 18.5887C21.3577 18.3542 22.0315 17.8789 22.5106 17.2329C22.9897 16.5869 23.2488 15.8043 23.25 15ZM19.5 16.5C19.2033 16.5 18.9133 16.412 18.6666 16.2472C18.42 16.0824 18.2277 15.8481 18.1142 15.574C18.0006 15.2999 17.9709 14.9983 18.0288 14.7074C18.0867 14.4164 18.2296 14.1491 18.4393 13.9393C18.6491 13.7296 18.9164 13.5867 19.2074 13.5288C19.4983 13.4709 19.7999 13.5006 20.074 13.6142C20.3481 13.7277 20.5824 13.92 20.7472 14.1666C20.912 14.4133 21 14.7033 21 15C21 15.3978 20.842 15.7794 20.5607 16.0607C20.2794 16.342 19.8978 16.5 19.5 16.5Z" fill="#130032"/>
</svg>
