<svg width="24" height="24" viewBox="0 0 24 24" fill="none" xmlns="http://www.w3.org/2000/svg">
<path d="M19.1252 6V3.75C19.1252 3.25272 18.9277 2.77581 18.5761 2.42417C18.2244 2.07254 17.7475 1.875 17.2502 1.875H6.75024C6.25296 1.875 5.77605 2.07254 5.42442 2.42417C5.07279 2.77581 4.87524 3.25272 4.87524 3.75V6C4.87524 6.49728 5.07279 6.9742 5.42442 7.32583C5.77605 7.67746 6.25296 7.875 6.75024 7.875H6.93774L4.88931 20.8247C4.86243 20.9722 4.86533 21.1237 4.89783 21.2701C4.93033 21.4165 4.99178 21.5549 5.07856 21.6773C5.16534 21.7996 5.2757 21.9033 5.40316 21.9824C5.53061 22.0614 5.67259 22.1142 5.82073 22.1375C5.96888 22.1609 6.1202 22.1544 6.2658 22.1185C6.41141 22.0825 6.54835 22.0178 6.66858 21.9282C6.78881 21.8385 6.88991 21.7257 6.96591 21.5964C7.04192 21.4672 7.09131 21.324 7.11118 21.1753L7.79087 16.875H16.2096L16.8893 21.1753C16.9092 21.324 16.9586 21.4672 17.0346 21.5964C17.1106 21.7257 17.2117 21.8385 17.3319 21.9282C17.4521 22.0178 17.5891 22.0825 17.7347 22.1185C17.8803 22.1544 18.0316 22.1609 18.1798 22.1375C18.3279 22.1142 18.4699 22.0614 18.5973 21.9824C18.7248 21.9033 18.8351 21.7996 18.9219 21.6773C19.0087 21.5549 19.0702 21.4165 19.1027 21.2701C19.1352 21.1237 19.1381 20.9722 19.1112 20.8247L17.0627 7.875H17.2502C17.7475 7.875 18.2244 7.67746 18.5761 7.32583C18.9277 6.9742 19.1252 6.49728 19.1252 6ZM7.12524 4.125H16.8752V5.625H7.12524V4.125ZM15.8543 14.625H8.14618L9.21118 7.875H14.7893L15.8543 14.625Z" fill="#130032"/>
</svg>
