<svg width="24" height="24" viewBox="0 0 24 24" fill="none" xmlns="http://www.w3.org/2000/svg">
<path d="M7.50004 13.5C6.75836 13.5 6.03333 13.7199 5.41665 14.132C4.79996 14.544 4.31932 15.1297 4.03549 15.8149C3.75166 16.5002 3.6774 17.2542 3.82209 17.9816C3.96679 18.709 4.32394 19.3772 4.84839 19.9016C5.37283 20.4261 6.04102 20.7833 6.76845 20.9279C7.49588 21.0726 8.24988 20.9984 8.9351 20.7145C9.62032 20.4307 10.206 19.9501 10.618 19.3334C11.0301 18.7167 11.25 17.9917 11.25 17.25C11.25 16.2554 10.8549 15.3016 10.1517 14.5983C9.44843 13.8951 8.4946 13.5 7.50004 13.5ZM7.50004 18.75C7.20337 18.75 6.91336 18.662 6.66668 18.4972C6.42001 18.3324 6.22775 18.0981 6.11422 17.824C6.00069 17.5499 5.97098 17.2483 6.02886 16.9574C6.08674 16.6664 6.2296 16.3991 6.43938 16.1893C6.64916 15.9796 6.91643 15.8367 7.2074 15.7788C7.49837 15.7209 7.79997 15.7506 8.07406 15.8642C8.34815 15.9777 8.58242 16.17 8.74724 16.4166C8.91206 16.6633 9.00004 16.9533 9.00004 17.25C9.00004 17.6478 8.842 18.0294 8.5607 18.3107C8.27939 18.592 7.89786 18.75 7.50004 18.75ZM4.50004 12C4.2774 12.0002 4.05973 11.9343 3.87456 11.8107C3.68939 11.6871 3.54506 11.5113 3.45984 11.3056C3.37462 11.1 3.35234 10.8736 3.39582 10.6553C3.4393 10.4369 3.54659 10.2364 3.7041 10.0791L4.78129 9L3.7041 7.92094C3.49276 7.70959 3.37402 7.42295 3.37402 7.12406C3.37402 6.82518 3.49276 6.53853 3.7041 6.32719C3.91544 6.11584 4.20209 5.99711 4.50097 5.99711C4.79986 5.99711 5.08651 6.11584 5.29785 6.32719L6.37504 7.40625L7.4541 6.32906C7.66544 6.11772 7.95209 5.99899 8.25098 5.99899C8.54986 5.99899 8.83651 6.11772 9.04785 6.32906C9.25919 6.54041 9.37793 6.82705 9.37793 7.12594C9.37793 7.42482 9.25919 7.71147 9.04785 7.92281L7.96879 9L9.04879 10.0791C9.26013 10.2904 9.37886 10.5771 9.37886 10.8759C9.37886 11.1748 9.26013 11.4615 9.04879 11.6728C8.83744 11.8842 8.5508 12.0029 8.25191 12.0029C7.95303 12.0029 7.66638 11.8842 7.45504 11.6728L6.37504 10.5938L5.29597 11.6709C5.19142 11.7754 5.06731 11.8582 4.93074 11.9147C4.79417 11.9711 4.64782 12.0001 4.50004 12ZM21.796 19.0791C22.0073 19.2904 22.1261 19.5771 22.1261 19.8759C22.1261 20.1748 22.0073 20.4615 21.796 20.6728C21.5846 20.8842 21.298 21.0029 20.9991 21.0029C20.7002 21.0029 20.4136 20.8842 20.2022 20.6728L19.125 19.5938L18.046 20.6737C17.8346 20.8851 17.548 21.0038 17.2491 21.0038C16.9502 21.0038 16.6636 20.8851 16.4522 20.6737C16.2409 20.4624 16.1221 20.1758 16.1221 19.8769C16.1221 19.578 16.2409 19.2913 16.4522 19.08L17.5313 18L16.4513 16.9209C16.2399 16.7096 16.1212 16.4229 16.1212 16.1241C16.1212 15.8252 16.2399 15.5385 16.4513 15.3272C16.6626 15.1158 16.9493 14.9971 17.2482 14.9971C17.547 14.9971 17.8337 15.1158 18.045 15.3272L19.125 16.4062L20.2041 15.3263C20.4154 15.1149 20.7021 14.9962 21.001 14.9962C21.2999 14.9962 21.5865 15.1149 21.7978 15.3263C22.0092 15.5376 22.1279 15.8242 22.1279 16.1231C22.1279 16.422 22.0092 16.7087 21.7978 16.92L20.7188 18L21.796 19.0791ZM17.7272 10.3959C17.2388 12.5522 15.54 14.4769 13.5 15.1978C13.3607 15.2471 13.2131 15.2684 13.0655 15.2606C12.918 15.2528 12.7734 15.216 12.6401 15.1523C12.3709 15.0237 12.1637 14.7934 12.0643 14.512C11.9648 14.2307 11.9812 13.9214 12.1098 13.6521C12.2384 13.3828 12.4687 13.1757 12.75 13.0763C14.0691 12.6075 15.2128 11.3034 15.5316 9.89813C15.7538 8.9175 15.5691 7.94438 14.9991 7.035V7.87875C14.9991 8.17712 14.8806 8.46327 14.6696 8.67425C14.4586 8.88522 14.1725 9.00375 13.8741 9.00375C13.5757 9.00375 13.2896 8.88522 13.0786 8.67425C12.8676 8.46327 12.7491 8.17712 12.7491 7.87875V4.125C12.7491 3.82663 12.8676 3.54048 13.0786 3.3295C13.2896 3.11853 13.5757 3 13.8741 3H17.6241C17.9225 3 18.2086 3.11853 18.4196 3.3295C18.6306 3.54048 18.7491 3.82663 18.7491 4.125C18.7491 4.42337 18.6306 4.70952 18.4196 4.9205C18.2086 5.13147 17.9225 5.25 17.6241 5.25H16.5C17.6972 6.80719 18.1332 8.6025 17.7272 10.3959Z" fill="#130032"/>
</svg>
