<svg width="24" height="24" viewBox="0 0 24 24" fill="none" xmlns="http://www.w3.org/2000/svg">
<path d="M19.5 2.625H4.5C4.00272 2.625 3.52581 2.82254 3.17417 3.17417C2.82254 3.52581 2.625 4.00272 2.625 4.5V19.5C2.625 19.9973 2.82254 20.4742 3.17417 20.8258C3.52581 21.1775 4.00272 21.375 4.5 21.375H19.5C19.9973 21.375 20.4742 21.1775 20.8258 20.8258C21.1775 20.4742 21.375 19.9973 21.375 19.5V4.5C21.375 4.00272 21.1775 3.52581 20.8258 3.17417C20.4742 2.82254 19.9973 2.625 19.5 2.625ZM19.125 19.125H4.875V4.875H19.125V19.125ZM13.875 14.25C13.875 13.6528 13.2853 13.3763 11.625 12.8981C10.1119 12.4622 8.04094 11.8669 8.04094 9.75C8.04094 7.82625 9.7425 6.375 11.9991 6.375C13.6153 6.375 15.0047 7.13812 15.6262 8.36625C15.6954 8.49828 15.7376 8.64272 15.7504 8.79119C15.7632 8.93966 15.7464 9.0892 15.701 9.23112C15.6555 9.37304 15.5823 9.50452 15.4856 9.61792C15.3889 9.73132 15.2707 9.82438 15.1377 9.8917C15.0048 9.95901 14.8598 9.99924 14.7111 10.01C14.5625 10.0209 14.4132 10.002 14.2719 9.95465C14.1306 9.90728 14.0002 9.8323 13.8881 9.73408C13.776 9.63586 13.6846 9.51636 13.6191 9.3825C13.3875 8.92219 12.75 8.625 12 8.625C11.0419 8.625 10.2919 9.11906 10.2919 9.75C10.2919 9.85219 10.2919 9.95719 10.5994 10.1409C10.9913 10.3734 11.6306 10.5581 12.2494 10.7362C13.0697 10.9725 13.9181 11.2172 14.6287 11.6606C15.8653 12.4322 16.1287 13.4944 16.1287 14.25C16.1287 16.1428 14.3166 17.625 12.0037 17.625C10.0106 17.625 8.30437 16.4672 7.94719 14.8706C7.88501 14.5806 7.9399 14.2777 8.09991 14.028C8.25991 13.7782 8.51209 13.6017 8.80156 13.537C9.09103 13.4722 9.39437 13.5244 9.64556 13.6821C9.89675 13.8399 10.0755 14.0905 10.1428 14.3794C10.2469 14.8584 10.9884 15.375 12 15.375C12.885 15.375 13.875 14.8941 13.875 14.25Z" fill="#130032"/>
</svg>
