<svg width="24" height="24" viewBox="0 0 24 24" fill="none" xmlns="http://www.w3.org/2000/svg">
<path d="M21.3551 4.93335L12.3551 1.93335C12.1246 1.85555 11.875 1.85555 11.6445 1.93335L2.64448 4.93335C2.42973 5.00448 2.24141 5.13869 2.10411 5.31848C1.9668 5.49826 1.88689 5.71527 1.87479 5.94116C1.87377 5.96084 1.87377 5.98055 1.87479 6.00023V13.5002C1.87479 13.7986 1.99332 14.0847 2.2043 14.2957C2.41528 14.5067 2.70142 14.6252 2.99979 14.6252C3.29816 14.6252 3.58431 14.5067 3.79529 14.2957C4.00627 14.0847 4.12479 13.7986 4.12479 13.5002V7.56116L6.34761 8.30179C5.65775 9.62226 5.45275 11.1428 5.76828 12.5988C6.0838 14.0548 6.89988 15.3541 8.07448 16.2705C6.53738 17.0285 5.23651 18.1919 4.31229 19.6352C4.22906 19.7589 4.17125 19.8979 4.14222 20.0442C4.11319 20.1904 4.11352 20.341 4.14318 20.4871C4.17284 20.6332 4.23125 20.7719 4.31501 20.8953C4.39877 21.0186 4.50622 21.1241 4.63109 21.2055C4.75597 21.287 4.89579 21.3428 5.04243 21.3697C5.18907 21.3967 5.3396 21.3942 5.48527 21.3624C5.63094 21.3307 5.76885 21.2703 5.89097 21.1848C6.0131 21.0993 6.11701 20.9903 6.19667 20.8643C7.53448 18.8055 9.65604 17.6252 11.9998 17.6252C14.3435 17.6252 16.4651 18.8055 17.8076 20.8643C17.8873 20.9903 17.9912 21.0993 18.1133 21.1848C18.2354 21.2703 18.3733 21.3307 18.519 21.3624C18.6647 21.3942 18.8152 21.3967 18.9618 21.3697C19.1085 21.3428 19.2483 21.287 19.3732 21.2055C19.4981 21.1241 19.6055 21.0186 19.6893 20.8953C19.773 20.7719 19.8314 20.6332 19.8611 20.4871C19.8908 20.341 19.8911 20.1904 19.862 20.0442C19.833 19.8979 19.7752 19.7589 19.692 19.6352C18.7669 18.1903 17.4643 17.0258 15.9251 16.2677C17.0997 15.3513 17.9158 14.052 18.2313 12.596C18.5468 11.14 18.3418 9.61944 17.652 8.29898L21.3551 7.06429C21.5788 6.98944 21.7733 6.84616 21.9112 6.65471C22.049 6.46326 22.1232 6.23332 22.1232 5.99742C22.1232 5.76151 22.049 5.53157 21.9112 5.34012C21.7733 5.14867 21.5788 5.00539 21.3551 4.93054V4.93335ZM11.9998 4.18335L17.442 6.00023L11.9998 7.81429L6.56229 6.00023L11.9998 4.18335ZM16.1248 11.2502C16.1249 11.8909 15.9758 12.5229 15.6892 13.0959C15.4026 13.669 14.9865 14.1674 14.4738 14.5517C13.9612 14.936 13.366 15.1956 12.7356 15.3099C12.1051 15.4241 11.4567 15.39 10.8418 15.2101C10.2268 15.0302 9.66221 14.7096 9.19272 14.2736C8.72324 13.8376 8.36177 13.2982 8.13699 12.6982C7.9122 12.0982 7.83027 11.4541 7.89769 10.8169C7.96512 10.1798 8.18004 9.56708 8.52542 9.02742L11.6445 10.0671C11.875 10.1446 12.1246 10.1446 12.3551 10.0671L15.4742 9.02742C15.8996 9.69068 16.1254 10.4622 16.1248 11.2502Z" fill="#130032"/>
</svg>
