<svg width="24" height="24" viewBox="0 0 24 24" fill="none" xmlns="http://www.w3.org/2000/svg">
<path d="M19.875 19.5C19.875 19.7984 19.7565 20.0845 19.5455 20.2955C19.3345 20.5065 19.0484 20.625 18.75 20.625H4.5C4.20163 20.625 3.91548 20.5065 3.7045 20.2955C3.49353 20.0845 3.375 19.7984 3.375 19.5C3.375 19.2016 3.49353 18.9155 3.7045 18.7045C3.91548 18.4935 4.20163 18.375 4.5 18.375H18.75C19.0484 18.375 19.3345 18.4935 19.5455 18.7045C19.7565 18.9155 19.875 19.2016 19.875 19.5ZM18.75 14.625H9.75C8.65598 14.625 7.60677 14.1904 6.83318 13.4168C6.0596 12.6432 5.625 11.594 5.625 10.5C5.625 9.40598 6.0596 8.35677 6.83318 7.58318C7.60677 6.8096 8.65598 6.375 9.75 6.375H18.75C19.0484 6.375 19.3345 6.25647 19.5455 6.0455C19.7565 5.83452 19.875 5.54837 19.875 5.25C19.875 4.95163 19.7565 4.66548 19.5455 4.4545C19.3345 4.24353 19.0484 4.125 18.75 4.125H9.75C8.05925 4.125 6.43774 4.79665 5.24219 5.99219C4.04665 7.18774 3.375 8.80925 3.375 10.5C3.375 12.1908 4.04665 13.8123 5.24219 15.0078C6.43774 16.2034 8.05925 16.875 9.75 16.875H18.75C19.0484 16.875 19.3345 16.7565 19.5455 16.5455C19.7565 16.3345 19.875 16.0484 19.875 15.75C19.875 15.4516 19.7565 15.1655 19.5455 14.9545C19.3345 14.7435 19.0484 14.625 18.75 14.625Z" fill="#130032"/>
</svg>
