<svg width="24" height="24" viewBox="0 0 24 24" fill="none" xmlns="http://www.w3.org/2000/svg">
<path d="M19.875 19.5C19.875 19.7984 19.7565 20.0845 19.5455 20.2955C19.3345 20.5065 19.0484 20.625 18.75 20.625H12C9.71251 20.625 7.51871 19.7163 5.9012 18.0988C4.2837 16.4813 3.375 14.2875 3.375 12C3.375 9.71251 4.2837 7.51871 5.9012 5.9012C7.51871 4.2837 9.71251 3.375 12 3.375H18.75C19.0484 3.375 19.3345 3.49353 19.5455 3.7045C19.7565 3.91548 19.875 4.20163 19.875 4.5C19.875 4.79837 19.7565 5.08452 19.5455 5.2955C19.3345 5.50647 19.0484 5.625 18.75 5.625H12C10.3092 5.625 8.68774 6.29665 7.49219 7.49219C6.29665 8.68774 5.625 10.3092 5.625 12C5.625 13.6908 6.29665 15.3123 7.49219 16.5078C8.68774 17.7034 10.3092 18.375 12 18.375H18.75C19.0484 18.375 19.3345 18.4935 19.5455 18.7045C19.7565 18.9155 19.875 19.2016 19.875 19.5Z" fill="#130032"/>
</svg>
