<svg width="24" height="24" viewBox="0 0 24 24" fill="none" xmlns="http://www.w3.org/2000/svg">
<path d="M4.5 12.0009C4.5 11.7025 4.61853 11.4164 4.8295 11.2054C5.04048 10.9944 5.32663 10.8759 5.625 10.8759H7.125C7.42337 10.8759 7.70952 10.9944 7.9205 11.2054C8.13147 11.4164 8.25 11.7025 8.25 12.0009C8.25 12.2992 8.13147 12.5854 7.9205 12.7964C7.70952 13.0073 7.42337 13.1259 7.125 13.1259H5.625C5.32663 13.1259 5.04048 13.0073 4.8295 12.7964C4.61853 12.5854 4.5 12.2992 4.5 12.0009ZM20.3325 19.4943C20.4339 19.6033 20.5127 19.7313 20.5643 19.8709C20.6159 20.0106 20.6393 20.1591 20.6331 20.3078C20.6269 20.4566 20.5912 20.6026 20.5281 20.7374C20.4651 20.8723 20.3759 20.9933 20.2657 21.0934C20.1555 21.1935 20.0266 21.2708 19.8863 21.3207C19.7461 21.3706 19.5973 21.3922 19.4486 21.3842C19.3 21.3762 19.1544 21.3388 19.0203 21.2741C18.8862 21.2094 18.7663 21.1188 18.6675 21.0074L17.6362 19.8759H3C2.50272 19.8759 2.02581 19.6783 1.67417 19.3267C1.32254 18.9751 1.125 18.4982 1.125 18.0009V6.00087C1.125 5.50359 1.32254 5.02668 1.67417 4.67504C2.02581 4.32341 2.50272 4.12587 3 4.12587H3.43875C3.35189 3.88084 3.35258 3.61329 3.44069 3.36871C3.5288 3.12413 3.69889 2.91762 3.92205 2.78427C4.14522 2.65092 4.40767 2.59898 4.66481 2.63727C4.92194 2.67556 5.15787 2.80172 5.3325 2.99431L20.3325 19.4943ZM15.5934 17.6259L14.5706 16.5009H5.625C5.32663 16.5009 5.04048 16.3823 4.8295 16.1714C4.61853 15.9604 4.5 15.6742 4.5 15.3759C4.5 15.0775 4.61853 14.7914 4.8295 14.5804C5.04048 14.3694 5.32663 14.2509 5.625 14.2509H12.525L11.5022 13.1259H10.875C10.6732 13.1258 10.4751 13.0714 10.3016 12.9684C10.128 12.8654 9.98536 12.7177 9.88854 12.5406C9.79172 12.3636 9.7443 12.1637 9.75127 11.962C9.75823 11.7604 9.81932 11.5643 9.92813 11.3943L5.36625 6.37587H3.375V17.6259H15.5934ZM21 4.12587H10.9312C10.6329 4.12587 10.3467 4.2444 10.1358 4.45537C9.92478 4.66635 9.80625 4.9525 9.80625 5.25087C9.80625 5.54924 9.92478 5.83539 10.1358 6.04637C10.3467 6.25734 10.6329 6.37587 10.9312 6.37587H20.625V17.1515C20.625 17.4499 20.7435 17.736 20.9545 17.947C21.1655 18.158 21.4516 18.2765 21.75 18.2765C22.0484 18.2765 22.3345 18.158 22.5455 17.947C22.7565 17.736 22.875 17.4499 22.875 17.1515V6.00087C22.875 5.50359 22.6775 5.02668 22.3258 4.67504C21.9742 4.32341 21.4973 4.12587 21 4.12587ZM18.375 13.1259C18.6734 13.1259 18.9595 13.0073 19.1705 12.7964C19.3815 12.5854 19.5 12.2992 19.5 12.0009C19.5 11.7025 19.3815 11.4164 19.1705 11.2054C18.9595 10.9944 18.6734 10.8759 18.375 10.8759H17.0681C16.7698 10.8759 16.4836 10.9944 16.2726 11.2054C16.0617 11.4164 15.9431 11.7025 15.9431 12.0009C15.9431 12.2992 16.0617 12.5854 16.2726 12.7964C16.4836 13.0073 16.7698 13.1259 17.0681 13.1259H18.375Z" fill="#130032"/>
</svg>
