<svg width="24" height="24" viewBox="0 0 24 24" fill="none" xmlns="http://www.w3.org/2000/svg">
<path d="M16.6875 7.31445C16.3857 5.93358 15.7177 4.6594 14.7538 3.62561C13.7898 2.59181 12.5654 1.83652 11.209 1.43898C9.85259 1.04143 8.41417 1.0163 7.04469 1.3662C5.67521 1.7161 4.42515 2.42815 3.42567 3.42763C2.4262 4.42711 1.71415 5.67717 1.36425 7.04665C1.01434 8.41613 1.03948 9.85454 1.43703 11.211C1.83457 12.5674 2.58986 13.7918 3.62365 14.7557C4.65744 15.7197 5.93162 16.3876 7.31249 16.6894C7.61433 18.0703 8.28226 19.3445 9.24621 20.3783C10.2101 21.4121 11.4346 22.1674 12.791 22.5649C14.1474 22.9625 15.5858 22.9876 16.9553 22.6377C18.3248 22.2878 19.5748 21.5757 20.5743 20.5763C21.5738 19.5768 22.2858 18.3267 22.6357 16.9572C22.9856 15.5878 22.9605 14.1494 22.563 12.7929C22.1654 11.4365 21.4101 10.2121 20.3763 9.24816C19.3425 8.28422 18.0684 7.61628 16.6875 7.31445ZM20.625 15.0019C20.6245 15.2103 20.6126 15.4184 20.5894 15.6254L16.4644 11.5004C16.6609 10.9114 16.7868 10.3012 16.8394 9.68257C17.9466 10.0632 18.907 10.7808 19.5859 11.7347C20.2648 12.6886 20.6281 13.8311 20.625 15.0019ZM3.37499 9.00195C3.37499 7.88943 3.70489 6.80189 4.32298 5.87686C4.94106 4.95184 5.81957 4.23087 6.8474 3.80512C7.87523 3.37938 9.00623 3.26799 10.0974 3.48503C11.1885 3.70207 12.1908 4.2378 12.9775 5.02447C13.7641 5.81114 14.2999 6.81342 14.5169 7.90456C14.734 8.99571 14.6226 10.1267 14.1968 11.1545C13.7711 12.1824 13.0501 13.0609 12.1251 13.679C11.2001 14.297 10.1125 14.6269 8.99999 14.6269C7.50868 14.6252 6.07895 14.032 5.02444 12.9775C3.96992 11.923 3.37673 10.4933 3.37499 9.00195ZM9.68249 16.8451C10.3011 16.7925 10.9114 16.6666 11.5003 16.4701L15.6253 20.5951C15.4176 20.6172 15.2089 20.6278 15 20.6269C13.8299 20.6299 12.6882 20.267 11.7347 19.5888C10.7812 18.9107 10.0636 17.9513 9.68249 16.8451ZM17.9822 19.7682L13.6012 15.3873C14.2857 14.8917 14.8869 14.2904 15.3825 13.606L19.7634 17.9869C19.3108 18.7068 18.702 19.3156 17.9822 19.7682Z" fill="#130032"/>
</svg>
