<svg width="24" height="24" viewBox="0 0 24 24" fill="none" xmlns="http://www.w3.org/2000/svg">
<path d="M21.375 9V19.5C21.375 19.7984 21.2565 20.0845 21.0455 20.2955C20.8345 20.5065 20.5484 20.625 20.25 20.625C19.9516 20.625 19.6655 20.5065 19.4545 20.2955C19.2435 20.0845 19.125 19.7984 19.125 19.5V9C19.1235 7.70753 18.6094 6.46842 17.6955 5.5545C16.7816 4.64058 15.5425 4.12649 14.25 4.125H9.75C8.45753 4.12649 7.21842 4.64058 6.3045 5.5545C5.39058 6.46842 4.87649 7.70753 4.875 9V19.5C4.875 19.7984 4.75647 20.0845 4.5455 20.2955C4.33452 20.5065 4.04837 20.625 3.75 20.625C3.45163 20.625 3.16548 20.5065 2.9545 20.2955C2.74353 20.0845 2.625 19.7984 2.625 19.5V9C2.62699 7.11094 3.37829 5.29982 4.71406 3.96406C6.04982 2.62829 7.86094 1.87699 9.75 1.875H14.25C16.1391 1.87699 17.9502 2.62829 19.2859 3.96406C20.6217 5.29982 21.373 7.11094 21.375 9ZM17.625 9V15.75C17.6249 16.2965 17.4542 16.8294 17.1367 17.2742C16.8192 17.7191 16.3708 18.0537 15.8541 18.2316L16.0416 18.7069C16.1524 18.9839 16.1488 19.2936 16.0313 19.5678C15.9139 19.8421 15.6923 20.0585 15.4153 20.1694C15.2833 20.2226 15.1423 20.25 15 20.25C14.7752 20.25 14.5556 20.1827 14.3695 20.0567C14.1833 19.9307 14.0392 19.7518 13.9556 19.5431L13.4869 18.375H10.5113L10.0425 19.5431C9.95908 19.7515 9.81523 19.9302 9.62945 20.0561C9.44367 20.1821 9.22446 20.2496 9 20.25C8.85673 20.2503 8.71475 20.2229 8.58187 20.1694C8.3049 20.0585 8.08331 19.8421 7.96587 19.5678C7.84843 19.2936 7.84474 18.9839 7.95563 18.7069L8.14313 18.2316C7.62687 18.0533 7.17908 17.7184 6.86215 17.2736C6.54522 16.8288 6.37493 16.2962 6.375 15.75V9C6.375 8.30381 6.65156 7.63613 7.14384 7.14384C7.63613 6.65156 8.30381 6.375 9 6.375H15C15.6962 6.375 16.3639 6.65156 16.8562 7.14384C17.3484 7.63613 17.625 8.30381 17.625 9ZM8.625 9V12.375H15.375V9C15.375 8.90054 15.3355 8.80516 15.2652 8.73483C15.1948 8.66451 15.0995 8.625 15 8.625H9C8.90054 8.625 8.80516 8.66451 8.73483 8.73483C8.66451 8.80516 8.625 8.90054 8.625 9ZM15.375 15.75V14.625H13.125V16.125H15C15.0995 16.125 15.1948 16.0855 15.2652 16.0152C15.3355 15.9448 15.375 15.8495 15.375 15.75ZM10.875 16.125V14.625H8.625V15.75C8.625 15.8495 8.66451 15.9448 8.73483 16.0152C8.80516 16.0855 8.90054 16.125 9 16.125H10.875Z" fill="#130032"/>
</svg>
