<svg width="24" height="24" viewBox="0 0 24 24" fill="none" xmlns="http://www.w3.org/2000/svg">
<path d="M10.875 9V16.5C10.875 16.7984 10.7565 17.0845 10.5455 17.2955C10.3345 17.5065 10.0484 17.625 9.75 17.625C9.45163 17.625 9.16548 17.5065 8.9545 17.2955C8.74353 17.0845 8.625 16.7984 8.625 16.5V9C8.625 8.70163 8.74353 8.41548 8.9545 8.2045C9.16548 7.99353 9.45163 7.875 9.75 7.875C10.0484 7.875 10.3345 7.99353 10.5455 8.2045C10.7565 8.41548 10.875 8.70163 10.875 9ZM13.125 9V16.5C13.125 16.7984 13.2435 17.0845 13.4545 17.2955C13.6655 17.5065 13.9516 17.625 14.25 17.625C14.5484 17.625 14.8345 17.5065 15.0455 17.2955C15.2565 17.0845 15.375 16.7984 15.375 16.5V9C15.375 8.70163 15.2565 8.41548 15.0455 8.2045C14.8345 7.99353 14.5484 7.875 14.25 7.875C13.9516 7.875 13.6655 7.99353 13.4545 8.2045C13.2435 8.41548 13.125 8.70163 13.125 9ZM19.875 6V19.5C19.875 19.9973 19.6775 20.4742 19.3258 20.8258C18.9742 21.1775 18.4973 21.375 18 21.375H16.875V22.5C16.875 22.7984 16.7565 23.0845 16.5455 23.2955C16.3345 23.5065 16.0484 23.625 15.75 23.625C15.4516 23.625 15.1655 23.5065 14.9545 23.2955C14.7435 23.0845 14.625 22.7984 14.625 22.5V21.375H9.375V22.5C9.375 22.7984 9.25647 23.0845 9.0455 23.2955C8.83452 23.5065 8.54837 23.625 8.25 23.625C7.95163 23.625 7.66548 23.5065 7.4545 23.2955C7.24353 23.0845 7.125 22.7984 7.125 22.5V21.375H6C5.50272 21.375 5.02581 21.1775 4.67417 20.8258C4.32254 20.4742 4.125 19.9973 4.125 19.5V6C4.125 5.50272 4.32254 5.02581 4.67417 4.67417C5.02581 4.32254 5.50272 4.125 6 4.125H7.875V2.625C7.875 1.92881 8.15156 1.26113 8.64384 0.768845C9.13613 0.276562 9.80381 0 10.5 0L13.5 0C14.1962 0 14.8639 0.276562 15.3562 0.768845C15.8484 1.26113 16.125 1.92881 16.125 2.625V4.125H18C18.4973 4.125 18.9742 4.32254 19.3258 4.67417C19.6775 5.02581 19.875 5.50272 19.875 6ZM10.125 4.125H13.875V2.625C13.875 2.52554 13.8355 2.43016 13.7652 2.35984C13.6948 2.28951 13.5995 2.25 13.5 2.25H10.5C10.4005 2.25 10.3052 2.28951 10.2348 2.35984C10.1645 2.43016 10.125 2.52554 10.125 2.625V4.125ZM17.625 6.375H6.375V19.125H17.625V6.375Z" fill="#130032"/>
</svg>
