<svg width="24" height="24" viewBox="0 0 24 24" fill="none" xmlns="http://www.w3.org/2000/svg">
<path d="M10.875 3.375V3C10.875 2.70163 10.9935 2.41548 11.2045 2.2045C11.4155 1.99353 11.7016 1.875 12 1.875C12.2984 1.875 12.5845 1.99353 12.7955 2.2045C13.0065 2.41548 13.125 2.70163 13.125 3V3.375C13.125 3.67337 13.0065 3.95952 12.7955 4.1705C12.5845 4.38147 12.2984 4.5 12 4.5C11.7016 4.5 11.4155 4.38147 11.2045 4.1705C10.9935 3.95952 10.875 3.67337 10.875 3.375ZM18.375 12C18.375 13.2609 18.0011 14.4934 17.3006 15.5418C16.6001 16.5901 15.6045 17.4072 14.4396 17.8897C13.2747 18.3722 11.9929 18.4985 10.7563 18.2525C9.51967 18.0065 8.38375 17.3994 7.49219 16.5078C6.60063 15.6162 5.99347 14.4803 5.74749 13.2437C5.50151 12.0071 5.62776 10.7253 6.11027 9.56039C6.59278 8.39551 7.40988 7.39988 8.45824 6.69938C9.5066 5.99889 10.7391 5.625 12 5.625C13.6902 5.62674 15.3107 6.29894 16.5059 7.49411C17.7011 8.68928 18.3733 10.3098 18.375 12ZM16.125 12C16.125 11.1842 15.8831 10.3866 15.4298 9.70827C14.9766 9.02992 14.3323 8.50121 13.5786 8.189C12.8248 7.87679 11.9954 7.7951 11.1953 7.95426C10.3951 8.11343 9.66008 8.50629 9.08318 9.08318C8.50629 9.66008 8.11343 10.3951 7.95426 11.1953C7.7951 11.9954 7.87679 12.8248 8.189 13.5786C8.50121 14.3323 9.02992 14.9766 9.70827 15.4298C10.3866 15.8831 11.1842 16.125 12 16.125C13.0936 16.1238 14.1421 15.6888 14.9154 14.9154C15.6888 14.1421 16.1238 13.0936 16.125 12ZM4.82906 6.42094C4.93371 6.52558 5.05794 6.6086 5.19467 6.66523C5.3314 6.72186 5.47794 6.75101 5.62594 6.75101C5.77393 6.75101 5.92048 6.72186 6.0572 6.66523C6.19393 6.6086 6.31817 6.52558 6.42281 6.42094C6.52746 6.31629 6.61047 6.19206 6.6671 6.05533C6.72374 5.9186 6.75289 5.77206 6.75289 5.62406C6.75289 5.47607 6.72374 5.32952 6.6671 5.1928C6.61047 5.05607 6.52746 4.93183 6.42281 4.82719L6.04781 4.45219C5.83647 4.24084 5.54982 4.12211 5.25094 4.12211C4.95205 4.12211 4.66541 4.24084 4.45406 4.45219C4.24272 4.66353 4.12399 4.95018 4.12399 5.24906C4.12399 5.54795 4.24272 5.83459 4.45406 6.04594L4.82906 6.42094ZM4.82906 17.5772L4.45406 17.9522C4.34942 18.0568 4.2664 18.1811 4.20977 18.3178C4.15314 18.4545 4.12399 18.6011 4.12399 18.7491C4.12399 18.8971 4.15314 19.0436 4.20977 19.1803C4.2664 19.3171 4.34942 19.4413 4.45406 19.5459C4.66541 19.7573 4.95205 19.876 5.25094 19.876C5.39893 19.876 5.54548 19.8469 5.6822 19.7902C5.81893 19.7336 5.94317 19.6506 6.04781 19.5459L6.42281 19.1709C6.63416 18.9596 6.75289 18.6729 6.75289 18.3741C6.75289 18.0752 6.63416 17.7885 6.42281 17.5772C6.21147 17.3658 5.92482 17.2471 5.62594 17.2471C5.32705 17.2471 5.04041 17.3658 4.82906 17.5772ZM18.375 6.75C18.5228 6.75012 18.6691 6.72112 18.8057 6.66465C18.9423 6.60819 19.0664 6.52538 19.1709 6.42094L19.5459 6.04594C19.7573 5.83459 19.876 5.54795 19.876 5.24906C19.876 4.95018 19.7573 4.66353 19.5459 4.45219C19.3346 4.24084 19.0479 4.12211 18.7491 4.12211C18.4502 4.12211 18.1635 4.24084 17.9522 4.45219L17.5772 4.82719C17.4189 4.98454 17.311 5.18541 17.2672 5.40425C17.2234 5.62309 17.2457 5.85001 17.3312 6.05615C17.4168 6.2623 17.5617 6.43834 17.7475 6.56189C17.9334 6.68544 18.1518 6.75092 18.375 6.75ZM19.1709 17.5791C18.9596 17.3677 18.6729 17.249 18.3741 17.249C18.0752 17.249 17.7885 17.3677 17.5772 17.5791C17.3658 17.7904 17.2471 18.0771 17.2471 18.3759C17.2471 18.6748 17.3658 18.9615 17.5772 19.1728L17.9522 19.5478C18.1635 19.7592 18.4502 19.8779 18.7491 19.8779C19.0479 19.8779 19.3346 19.7592 19.5459 19.5478C19.7573 19.3365 19.876 19.0498 19.876 18.7509C19.876 18.4521 19.7573 18.1654 19.5459 17.9541L19.1709 17.5791ZM4.5 12C4.5 11.7016 4.38147 11.4155 4.1705 11.2045C3.95952 10.9935 3.67337 10.875 3.375 10.875H3C2.70163 10.875 2.41548 10.9935 2.2045 11.2045C1.99353 11.4155 1.875 11.7016 1.875 12C1.875 12.2984 1.99353 12.5845 2.2045 12.7955C2.41548 13.0065 2.70163 13.125 3 13.125H3.375C3.67337 13.125 3.95952 13.0065 4.1705 12.7955C4.38147 12.5845 4.5 12.2984 4.5 12ZM12 19.5C11.7016 19.5 11.4155 19.6185 11.2045 19.8295C10.9935 20.0405 10.875 20.3266 10.875 20.625V21C10.875 21.2984 10.9935 21.5845 11.2045 21.7955C11.4155 22.0065 11.7016 22.125 12 22.125C12.2984 22.125 12.5845 22.0065 12.7955 21.7955C13.0065 21.5845 13.125 21.2984 13.125 21V20.625C13.125 20.3266 13.0065 20.0405 12.7955 19.8295C12.5845 19.6185 12.2984 19.5 12 19.5ZM21 10.875H20.625C20.3266 10.875 20.0405 10.9935 19.8295 11.2045C19.6185 11.4155 19.5 11.7016 19.5 12C19.5 12.2984 19.6185 12.5845 19.8295 12.7955C20.0405 13.0065 20.3266 13.125 20.625 13.125H21C21.2984 13.125 21.5845 13.0065 21.7955 12.7955C22.0065 12.5845 22.125 12.2984 22.125 12C22.125 11.7016 22.0065 11.4155 21.7955 11.2045C21.5845 10.9935 21.2984 10.875 21 10.875Z" fill="#130032"/>
</svg>
