<svg width="24" height="24" viewBox="0 0 24 24" fill="none" xmlns="http://www.w3.org/2000/svg">
<path d="M22.5 13.8744H19.1147C19.1213 13.7497 19.125 13.625 19.125 13.4994C19.125 11.6097 18.3743 9.79745 17.0381 8.46126C15.7019 7.12506 13.8897 6.37439 12 6.37439C10.1103 6.37439 8.29806 7.12506 6.96186 8.46126C5.62567 9.79745 4.875 11.6097 4.875 13.4994C4.875 13.625 4.875 13.7497 4.88531 13.8744H1.5C1.20163 13.8744 0.915483 13.9929 0.704505 14.2039C0.493526 14.4149 0.375 14.701 0.375 14.9994C0.375 15.2978 0.493526 15.5839 0.704505 15.7949C0.915483 16.0059 1.20163 16.1244 1.5 16.1244H22.5C22.7984 16.1244 23.0845 16.0059 23.2955 15.7949C23.5065 15.5839 23.625 15.2978 23.625 14.9994C23.625 14.701 23.5065 14.4149 23.2955 14.2039C23.0845 13.9929 22.7984 13.8744 22.5 13.8744ZM7.125 13.4994C7.125 12.2065 7.63861 10.9665 8.55285 10.0522C9.46709 9.13801 10.7071 8.62439 12 8.62439C13.2929 8.62439 14.5329 9.13801 15.4471 10.0522C16.3614 10.9665 16.875 12.2065 16.875 13.4994C16.875 13.625 16.8684 13.7497 16.8591 13.8744H7.14094C7.13156 13.7497 7.125 13.625 7.125 13.4994ZM20.625 18.7494C20.625 19.0478 20.5065 19.3339 20.2955 19.5449C20.0845 19.7559 19.7984 19.8744 19.5 19.8744H4.5C4.20163 19.8744 3.91548 19.7559 3.7045 19.5449C3.49353 19.3339 3.375 19.0478 3.375 18.7494C3.375 18.451 3.49353 18.1649 3.7045 17.9539C3.91548 17.7429 4.20163 17.6244 4.5 17.6244H19.5C19.7984 17.6244 20.0845 17.7429 20.2955 17.9539C20.5065 18.1649 20.625 18.451 20.625 18.7494ZM1.18313 8.64408C1.27748 8.36121 1.48027 8.12737 1.74694 7.99394C2.01362 7.86052 2.32236 7.83843 2.60531 7.93252L3.73031 8.30752C3.87199 8.35295 4.00326 8.42603 4.1165 8.52253C4.22975 8.61903 4.32273 8.73704 4.39005 8.86972C4.45738 9.0024 4.49772 9.14712 4.50874 9.2955C4.51975 9.44387 4.50123 9.59296 4.45424 9.73413C4.40724 9.8753 4.33271 10.0057 4.23496 10.1179C4.13721 10.2301 4.01818 10.3218 3.88476 10.3876C3.75134 10.4535 3.60618 10.4922 3.45769 10.5016C3.3092 10.5109 3.16033 10.4908 3.01969 10.4422L1.89469 10.0672C1.75452 10.0205 1.62492 9.94663 1.5133 9.84982C1.40167 9.75302 1.31021 9.63518 1.24414 9.50303C1.17806 9.37088 1.13866 9.227 1.1282 9.07962C1.11773 8.93224 1.13639 8.78425 1.18313 8.64408ZM6.43313 4.10564C6.38201 3.96446 6.35967 3.81447 6.36743 3.66452C6.37519 3.51457 6.41289 3.36769 6.4783 3.23254C6.54372 3.09739 6.63552 2.9767 6.74831 2.87758C6.8611 2.77847 6.99259 2.70294 7.13503 2.65543C7.27747 2.60793 7.42798 2.58943 7.57768 2.60101C7.72738 2.61258 7.87326 2.65401 8.0067 2.72285C8.14014 2.79169 8.25845 2.88655 8.35466 3.00182C8.45086 3.1171 8.52302 3.25048 8.56687 3.39408L8.94187 4.51908C8.99299 4.66026 9.01533 4.81025 9.00757 4.9602C8.99981 5.11015 8.96211 5.25703 8.8967 5.39218C8.83128 5.52733 8.73948 5.64802 8.62669 5.74714C8.5139 5.84625 8.38241 5.92179 8.23997 5.96929C8.09753 6.01679 7.94702 6.0353 7.79732 6.02372C7.64762 6.01214 7.50174 5.97071 7.3683 5.90187C7.23486 5.83303 7.11655 5.73818 7.02034 5.6229C6.92414 5.50762 6.85198 5.37425 6.80813 5.23064L6.43313 4.10564ZM19.5581 9.73064C19.5114 9.59048 19.4927 9.44248 19.5032 9.2951C19.5137 9.14772 19.5531 9.00385 19.6191 8.8717C19.6852 8.73954 19.7767 8.6217 19.8883 8.5249C19.9999 8.4281 20.1295 8.35423 20.2697 8.30752L21.3947 7.93252C21.6768 7.84208 21.9831 7.86653 22.2473 8.00057C22.5114 8.13461 22.712 8.36742 22.8056 8.64847C22.8991 8.92951 22.8781 9.23612 22.747 9.50173C22.6159 9.76735 22.3853 9.97054 22.1053 10.0672L20.9803 10.4422C20.6974 10.5363 20.3886 10.5142 20.1219 10.3808C19.8553 10.2474 19.6525 10.0135 19.5581 9.73064ZM15.0581 4.51908L15.4331 3.39408C15.477 3.25048 15.5491 3.1171 15.6453 3.00182C15.7416 2.88655 15.8599 2.79169 15.9933 2.72285C16.1267 2.65401 16.2726 2.61258 16.4223 2.60101C16.572 2.58943 16.7225 2.60793 16.865 2.65543C17.0074 2.70294 17.1389 2.77847 17.2517 2.87758C17.3645 2.9767 17.4563 3.09739 17.5217 3.23254C17.5871 3.36769 17.6248 3.51457 17.6326 3.66452C17.6403 3.81447 17.618 3.96446 17.5669 4.10564L17.1919 5.23064C17.148 5.37425 17.0759 5.50762 16.9797 5.6229C16.8834 5.73818 16.7651 5.83303 16.6317 5.90187C16.4983 5.97071 16.3524 6.01214 16.2027 6.02372C16.053 6.0353 15.9025 6.01679 15.76 5.96929C15.6176 5.92179 15.4861 5.84625 15.3733 5.74714C15.2605 5.64802 15.1687 5.52733 15.1033 5.39218C15.0379 5.25703 15.0002 5.11015 14.9924 4.9602C14.9847 4.81025 15.007 4.66026 15.0581 4.51908Z" fill="#130032"/>
</svg>
