<svg width="24" height="24" viewBox="0 0 24 24" fill="none" xmlns="http://www.w3.org/2000/svg">
<path d="M18.75 3.375C18.4516 3.375 18.1655 3.49353 17.9545 3.7045C17.7435 3.91548 17.625 4.20163 17.625 4.5C17.625 4.79837 17.7435 5.08452 17.9545 5.2955C18.1655 5.50647 18.4516 5.625 18.75 5.625C19.0484 5.625 19.3345 5.74353 19.5455 5.9545C19.7565 6.16548 19.875 6.45163 19.875 6.75V11.625H4.125V6.75C4.125 6.45163 4.24353 6.16548 4.4545 5.9545C4.66548 5.74353 4.95163 5.625 5.25 5.625C5.54837 5.625 5.83452 5.50647 6.0455 5.2955C6.25647 5.08452 6.375 4.79837 6.375 4.5C6.375 4.20163 6.25647 3.91548 6.0455 3.7045C5.83452 3.49353 5.54837 3.375 5.25 3.375C4.35489 3.375 3.49645 3.73058 2.86351 4.36351C2.23058 4.99645 1.875 5.85489 1.875 6.75V15.375C1.875 16.5685 2.34911 17.7131 3.19302 18.557C4.03693 19.4009 5.18153 19.875 6.375 19.875C7.56847 19.875 8.71307 19.4009 9.55698 18.557C10.4009 17.7131 10.875 16.5685 10.875 15.375V13.875H13.125V15.375C13.125 16.5685 13.5991 17.7131 14.443 18.557C15.2869 19.4009 16.4315 19.875 17.625 19.875C18.8185 19.875 19.9631 19.4009 20.807 18.557C21.6509 17.7131 22.125 16.5685 22.125 15.375V6.75C22.125 5.85489 21.7694 4.99645 21.1365 4.36351C20.5035 3.73058 19.6451 3.375 18.75 3.375ZM6.375 17.625C5.77826 17.625 5.20597 17.3879 4.78401 16.966C4.36205 16.544 4.125 15.9717 4.125 15.375V14.5312L7.10063 17.5069C6.86691 17.586 6.62173 17.6259 6.375 17.625ZM8.625 15.375C8.62464 15.5194 8.61083 15.6635 8.58375 15.8053L6.65625 13.875H8.625V15.375ZM17.625 17.625C17.0283 17.625 16.456 17.3879 16.034 16.966C15.6121 16.544 15.375 15.9717 15.375 15.375V14.5312L18.3506 17.5069C18.1169 17.586 17.8717 17.6259 17.625 17.625ZM19.875 15.375C19.8746 15.5194 19.8608 15.6635 19.8337 15.8053L17.9062 13.875H19.875V15.375Z" fill="#130032"/>
</svg>
