<svg width="24" height="24" viewBox="0 0 24 24" fill="none" xmlns="http://www.w3.org/2000/svg">
<path d="M20.625 18.75C20.625 19.0484 20.5065 19.3345 20.2955 19.5455C20.0845 19.7565 19.7984 19.875 19.5 19.875H5.25C4.95163 19.875 4.66548 19.7565 4.4545 19.5455C4.24353 19.3345 4.125 19.0484 4.125 18.75C4.125 18.4516 4.24353 18.1655 4.4545 17.9545C4.66548 17.7435 4.95163 17.625 5.25 17.625H19.5C19.7984 17.625 20.0845 17.7435 20.2955 17.9545C20.5065 18.1655 20.625 18.4516 20.625 18.75ZM14.25 13.875H5.25C4.95163 13.875 4.66548 13.9935 4.4545 14.2045C4.24353 14.4155 4.125 14.7016 4.125 15C4.125 15.2984 4.24353 15.5845 4.4545 15.7955C4.66548 16.0065 4.95163 16.125 5.25 16.125H14.25C15.9408 16.125 17.5623 15.4534 18.7578 14.2578C19.9534 13.0623 20.625 11.4408 20.625 9.75C20.625 8.05925 19.9534 6.43774 18.7578 5.24219C17.5623 4.04665 15.9408 3.375 14.25 3.375H5.25C4.95163 3.375 4.66548 3.49353 4.4545 3.7045C4.24353 3.91548 4.125 4.20163 4.125 4.5C4.125 4.79837 4.24353 5.08452 4.4545 5.2955C4.66548 5.50647 4.95163 5.625 5.25 5.625H14.25C15.344 5.625 16.3932 6.0596 17.1668 6.83318C17.9404 7.60677 18.375 8.65598 18.375 9.75C18.375 10.844 17.9404 11.8932 17.1668 12.6668C16.3932 13.4404 15.344 13.875 14.25 13.875Z" fill="#130032"/>
</svg>
