<svg width="24" height="24" viewBox="0 0 24 24" fill="none" xmlns="http://www.w3.org/2000/svg">
<path d="M21.375 12C21.3725 14.2867 20.463 16.4791 18.8461 18.0961C17.2291 19.713 15.0367 20.6225 12.75 20.625H6C5.70163 20.625 5.41548 20.5065 5.2045 20.2955C4.99353 20.0845 4.875 19.7984 4.875 19.5C4.875 19.2016 4.99353 18.9155 5.2045 18.7045C5.41548 18.4935 5.70163 18.375 6 18.375H12.75C14.4408 18.375 16.0623 17.7034 17.2578 16.5078C18.4534 15.3123 19.125 13.6908 19.125 12C19.125 10.3092 18.4534 8.68774 17.2578 7.49219C16.0623 6.29665 14.4408 5.625 12.75 5.625H6C5.70163 5.625 5.41548 5.50647 5.2045 5.2955C4.99353 5.08452 4.875 4.79837 4.875 4.5C4.875 4.20163 4.99353 3.91548 5.2045 3.7045C5.41548 3.49353 5.70163 3.375 6 3.375H12.75C15.0367 3.37748 17.2291 4.28698 18.8461 5.90394C20.463 7.52091 21.3725 9.71327 21.375 12Z" fill="#130032"/>
</svg>
