<svg width="24" height="24" viewBox="0 0 24 24" fill="none" xmlns="http://www.w3.org/2000/svg">
<path d="M22.7611 13.9981L20.9714 9.10338C20.8005 8.63805 20.4522 8.25935 20.0028 8.05011C19.5534 7.84086 19.0394 7.81811 18.5733 7.98682L12.8255 10.0699L13.8464 4.23495C13.9332 3.74607 13.8225 3.24272 13.5387 2.83533C13.2549 2.42793 12.821 2.14976 12.3323 2.06182L7.20609 1.15338C6.96382 1.11068 6.7155 1.11621 6.47537 1.16966C6.23525 1.22312 6.00803 1.32344 5.80675 1.46488C5.60548 1.60633 5.4341 1.78611 5.30244 1.99391C5.17078 2.20172 5.08144 2.43348 5.03952 2.67588L2.69577 16.0943C2.48863 17.2652 2.75337 18.4706 3.43214 19.4469C4.11091 20.4233 5.14853 21.0912 6.31827 21.3049C6.58768 21.3513 6.86054 21.3745 7.1339 21.3743H20.9995C21.4968 21.3743 21.9737 21.1768 22.3253 20.8251C22.677 20.4735 22.8745 19.9966 22.8745 19.4993V14.6421C22.8716 14.4227 22.8333 14.2053 22.7611 13.9981ZM9.28077 17.2662C9.23115 17.5585 9.12387 17.838 8.96517 18.0885C8.80647 18.3389 8.59953 18.5553 8.3564 18.7249C8.11989 18.8919 7.85254 19.0101 7.56991 19.0727C7.28729 19.1353 6.99502 19.1411 6.71015 19.0896C6.12625 18.9809 5.60904 18.6456 5.27132 18.1571C4.93359 17.6685 4.80276 17.0662 4.90734 16.4815L7.19109 3.4362L11.5655 4.21807L9.28077 17.2662ZM11.497 17.6534L12.3773 12.6246L18.9858 10.2303L20.5139 14.4106L11.4923 17.6796C11.4951 17.6712 11.498 17.6628 11.4989 17.6534H11.497ZM20.6245 19.1243H14.1108L20.6245 16.7637V19.1243ZM8.3639 16.3184L8.23265 17.0684C8.18699 17.3291 8.05084 17.5654 7.84815 17.7357C7.64547 17.906 7.38924 17.9993 7.12452 17.9993C7.05916 17.9992 6.99393 17.9936 6.92952 17.9824C6.63563 17.931 6.37422 17.7649 6.2028 17.5207C6.03138 17.2765 5.96399 16.9741 6.01546 16.6803L6.14671 15.9303C6.1993 15.6374 6.36576 15.3773 6.60964 15.2069C6.85353 15.0365 7.15499 14.9697 7.44806 15.021C7.74112 15.0723 8.00192 15.2376 8.17339 15.4808C8.34485 15.7239 8.41301 16.0251 8.36296 16.3184H8.3639Z" fill="#130032"/>
</svg>
