<svg width="24" height="24" viewBox="0 0 24 24" fill="none" xmlns="http://www.w3.org/2000/svg">
<path d="M20.2496 2.625H14.2496C14.0819 2.62496 13.9164 2.6624 13.765 2.73458C13.6137 2.80677 13.4804 2.91186 13.3749 3.04219L7.45272 10.3603L7.01585 9.92438C6.84173 9.75018 6.635 9.61201 6.40746 9.51773C6.17993 9.42345 5.93605 9.37493 5.68976 9.37493C5.44346 9.37493 5.19958 9.42345 4.97205 9.51773C4.74451 9.61201 4.53778 9.75018 4.36366 9.92438L2.79897 11.4891C2.62478 11.6632 2.4866 11.8699 2.39233 12.0974C2.29805 12.325 2.24953 12.5689 2.24953 12.8152C2.24953 13.0614 2.29805 13.3053 2.39233 13.5329C2.4866 13.7604 2.62478 13.9671 2.79897 14.1412L4.21835 15.5625L2.23647 17.5472C1.88497 17.8988 1.6875 18.3756 1.6875 18.8728C1.6875 19.37 1.88497 19.8468 2.23647 20.1984L3.80116 21.7631C4.15278 22.1146 4.6296 22.3121 5.12679 22.3121C5.62397 22.3121 6.1008 22.1146 6.45241 21.7631L8.4371 19.7812L9.85929 21.2025C10.0334 21.3767 10.2401 21.5149 10.4677 21.6091C10.6952 21.7034 10.9391 21.7519 11.1854 21.7519C11.4317 21.7519 11.6756 21.7034 11.9031 21.6091C12.1306 21.5149 12.3374 21.3767 12.5115 21.2025L14.0762 19.6378C14.2505 19.4637 14.3888 19.2569 14.4831 19.0293C14.5775 18.8016 14.6261 18.5577 14.6261 18.3113C14.6261 18.0648 14.5775 17.8209 14.4831 17.5932C14.3888 17.3656 14.2505 17.1588 14.0762 16.9847L13.6402 16.5487L20.9583 10.6266C21.0887 10.5208 21.1938 10.3871 21.2658 10.2355C21.3379 10.0838 21.375 9.91791 21.3746 9.75V3.75C21.3746 3.45163 21.2561 3.16548 21.0451 2.9545C20.8341 2.74353 20.548 2.625 20.2496 2.625ZM5.12679 19.9069L4.09554 18.8756L5.8121 17.1562L6.84335 18.1875L5.12679 19.9069ZM11.184 19.3444L4.65429 12.8156L5.69022 11.7844L12.2199 18.3141L11.184 19.3444ZM19.1246 9.21281L12.039 14.9475L11.3433 14.25L15.7974 9.79688C16.0088 9.58553 16.1275 9.29889 16.1275 9C16.1275 8.70111 16.0088 8.41447 15.7974 8.20312C15.5861 7.99178 15.2994 7.87305 15.0005 7.87305C14.7017 7.87305 14.415 7.99178 14.2037 8.20312L9.7496 12.6562L9.05116 11.9587L14.7868 4.875H19.1246V9.21281Z" fill="#130032"/>
</svg>
