<svg width="24" height="24" viewBox="0 0 24 24" fill="none" xmlns="http://www.w3.org/2000/svg">
<path d="M19.5 5.09438V3C19.5 2.70163 19.3815 2.41548 19.1705 2.2045C18.9595 1.99353 18.6734 1.875 18.375 1.875C18.0766 1.875 17.7905 1.99353 17.5795 2.2045C17.3685 2.41548 17.25 2.70163 17.25 3V5.09438C16.6965 5.31908 16.2226 5.7036 15.8886 6.19886C15.5547 6.69412 15.3758 7.27766 15.375 7.875V10.3828L13.125 9.09375V6.75C13.125 6.45163 13.0065 6.16548 12.7955 5.9545C12.5845 5.74353 12.2984 5.625 12 5.625C11.7016 5.625 11.4155 5.74353 11.2045 5.9545C10.9935 6.16548 10.875 6.45163 10.875 6.75V9.09375L8.625 10.3828V7.875C8.62416 7.27766 8.44534 6.69412 8.11138 6.19886C7.77742 5.7036 7.30347 5.31908 6.75 5.09438V3C6.75 2.70163 6.63147 2.41548 6.4205 2.2045C6.20952 1.99353 5.92337 1.875 5.625 1.875C5.32663 1.875 5.04048 1.99353 4.8295 2.2045C4.61853 2.41548 4.5 2.70163 4.5 3V5.09438C3.94653 5.31908 3.47258 5.7036 3.13862 6.19886C2.80466 6.69412 2.62584 7.27766 2.625 7.875V20.25C2.625 20.5484 2.74353 20.8345 2.9545 21.0455C3.16548 21.2565 3.45163 21.375 3.75 21.375H20.25C20.5484 21.375 20.8345 21.2565 21.0455 21.0455C21.2565 20.8345 21.375 20.5484 21.375 20.25V7.875C21.3742 7.27766 21.1953 6.69412 20.8614 6.19886C20.5274 5.7036 20.0535 5.31908 19.5 5.09438ZM12 15C11.7016 15 11.4155 15.1185 11.2045 15.3295C10.9935 15.5405 10.875 15.8266 10.875 16.125V19.125H8.625V12.9741L12 11.0456L15.375 12.9741V19.125H13.125V16.125C13.125 15.8266 13.0065 15.5405 12.7955 15.3295C12.5845 15.1185 12.2984 15 12 15ZM4.875 7.875C4.875 7.67609 4.95402 7.48532 5.09467 7.34467C5.23532 7.20402 5.42609 7.125 5.625 7.125C5.82391 7.125 6.01468 7.20402 6.15533 7.34467C6.29598 7.48532 6.375 7.67609 6.375 7.875V9.375H4.875V7.875ZM17.625 7.875C17.625 7.67609 17.704 7.48532 17.8447 7.34467C17.9853 7.20402 18.1761 7.125 18.375 7.125C18.5739 7.125 18.7647 7.20402 18.9053 7.34467C19.046 7.48532 19.125 7.67609 19.125 7.875V9.375H17.625V7.875ZM4.875 11.625H6.375V19.125H4.875V11.625ZM17.625 19.125V11.625H19.125V19.125H17.625Z" fill="#130032"/>
</svg>
