<svg width="24" height="24" viewBox="0 0 24 24" fill="none" xmlns="http://www.w3.org/2000/svg">
<path d="M22.546 5.95508L18.046 1.45508C17.8346 1.24373 17.548 1.125 17.2491 1.125C16.9502 1.125 16.6636 1.24373 16.4522 1.45508C16.2409 1.66642 16.1221 1.95307 16.1221 2.25195C16.1221 2.55084 16.2409 2.83748 16.4522 3.04883L17.9063 4.50101L15.75 6.65726L12.796 3.70508C12.6913 3.60043 12.5671 3.51742 12.4304 3.46078C12.2936 3.40415 12.1471 3.375 11.9991 3.375C11.8511 3.375 11.7046 3.40415 11.5678 3.46078C11.4311 3.51742 11.3069 3.60043 11.2022 3.70508C11.0976 3.80972 11.0146 3.93396 10.9579 4.07069C10.9013 4.20741 10.8721 4.35396 10.8721 4.50195C10.8721 4.64994 10.9013 4.79649 10.9579 4.93322C11.0146 5.06995 11.0976 5.19418 11.2022 5.29883L11.5313 5.62601L3.92441 13.2357C3.74971 13.4093 3.61119 13.6159 3.51689 13.8435C3.42258 14.071 3.37437 14.315 3.37504 14.5613V19.0323L1.4541 20.9551C1.24276 21.1664 1.12402 21.4531 1.12402 21.752C1.12402 22.0508 1.24276 22.3375 1.4541 22.5488C1.66544 22.7602 1.95209 22.8789 2.25097 22.8789C2.54986 22.8789 2.83651 22.7602 3.04785 22.5488L4.96879 20.626H9.44254C9.68885 20.6267 9.93285 20.5785 10.1604 20.4842C10.388 20.3899 10.5945 20.2513 10.7682 20.0766L18.375 12.4698L18.7041 12.7998C18.9154 13.0111 19.2021 13.1298 19.501 13.1298C19.7999 13.1298 20.0865 13.0111 20.2978 12.7998C20.5092 12.5884 20.6279 12.3018 20.6279 12.0029C20.6279 11.704 20.5092 11.4174 20.2978 11.206L17.3438 8.25101L19.5 6.09476L20.9541 7.54976C21.1654 7.76111 21.4521 7.87984 21.751 7.87984C22.0499 7.87984 22.3365 7.76111 22.5478 7.54976C22.7592 7.33842 22.8779 7.05177 22.8779 6.75289C22.8779 6.454 22.7592 6.16736 22.5478 5.95601L22.546 5.95508ZM9.28129 18.376H5.62504V14.7198L6.93754 13.4073L8.5791 15.0498C8.79044 15.2611 9.07709 15.3798 9.37598 15.3798C9.67486 15.3798 9.96151 15.2611 10.1729 15.0498C10.3842 14.8384 10.5029 14.5518 10.5029 14.2529C10.5029 13.954 10.3842 13.6674 10.1729 13.456L8.53129 11.8135L9.56254 10.7823L11.2041 12.4248C11.4154 12.6361 11.7021 12.7548 12.001 12.7548C12.2999 12.7548 12.5865 12.6361 12.7978 12.4248C13.0092 12.2134 13.1279 11.9268 13.1279 11.6279C13.1279 11.329 13.0092 11.0424 12.7978 10.831L11.1563 9.18851L13.125 7.21976L16.7813 10.876L9.28129 18.376Z" fill="#130032"/>
</svg>
