<svg width="24" height="24" viewBox="0 0 24 24" fill="none" xmlns="http://www.w3.org/2000/svg">
<g clip-path="url(#clip0_7_19319)">
<path d="M23.0786 5.42813L18.5711 2.7797C18.3981 2.6777 18.2009 2.62426 18.0001 2.62501H15.0001C14.7018 2.62501 14.4156 2.74353 14.2046 2.95451C13.9936 3.16549 13.8751 3.45164 13.8751 3.75001C13.8751 4.24729 13.6776 4.7242 13.3259 5.07583C12.9743 5.42746 12.4974 5.62501 12.0001 5.62501C11.5028 5.62501 11.0259 5.42746 10.6743 5.07583C10.3227 4.7242 10.1251 4.24729 10.1251 3.75001C10.1251 3.45164 10.0066 3.16549 9.79562 2.95451C9.58464 2.74353 9.29849 2.62501 9.00012 2.62501H6.00012C5.79991 2.62488 5.60335 2.67863 5.43106 2.78063L0.921684 5.42813C0.515692 5.67049 0.215166 6.05608 0.0793007 6.50896C-0.0565648 6.96185 -0.0179207 7.44919 0.187621 7.87501L1.86575 11.325C2.01537 11.6399 2.25141 11.9058 2.54637 12.0917C2.84132 12.2776 3.18303 12.3759 3.53168 12.375H4.87512V19.5C4.87512 19.9973 5.07267 20.4742 5.4243 20.8258C5.77593 21.1775 6.25284 21.375 6.75012 21.375H17.2501C17.7474 21.375 18.2243 21.1775 18.5759 20.8258C18.9276 20.4742 19.1251 19.9973 19.1251 19.5V12.375H20.4676C20.8156 12.3755 21.1566 12.2775 21.4511 12.0921C21.7456 11.9068 21.9816 11.6418 22.1317 11.3278L23.8126 7.87501C24.0182 7.44919 24.0568 6.96185 23.9209 6.50896C23.7851 6.05608 23.4846 5.67049 23.0786 5.42813ZM3.78481 10.125L2.35887 7.19345L4.87512 5.71876V10.125H3.78481ZM16.8751 19.125H7.12512V4.87501H8.03168C8.27611 5.73945 8.79605 6.50048 9.5125 7.04243C10.2289 7.58439 11.1027 7.87765 12.0011 7.87765C12.8994 7.87765 13.7732 7.58439 14.4896 7.04243C15.2061 6.50048 15.726 5.73945 15.9704 4.87501H16.8751V19.125ZM20.2145 10.125H19.1251V5.71876L21.6404 7.19626L20.2145 10.125Z" fill="#130032"/>
</g>
<defs>
<clipPath id="clip0_7_19319">
<rect width="24" height="24" fill="white"/>
</clipPath>
</defs>
</svg>
