<svg width="24" height="24" viewBox="0 0 24 24" fill="none" xmlns="http://www.w3.org/2000/svg">
<path d="M23.9522 15.4266V15.421C23.9527 15.4182 23.9527 15.4153 23.9522 15.4125L21.8626 8.46098C21.7484 8.07388 21.5116 7.73432 21.1879 7.49339C20.8641 7.25246 20.4708 7.12319 20.0672 7.12505H19.1251C18.8267 7.12505 18.5405 7.24357 18.3296 7.45455C18.1186 7.66553 18.0001 7.95168 18.0001 8.25005C18.0001 8.54842 18.1186 8.83456 18.3296 9.04554C18.5405 9.25652 18.8267 9.37505 19.1251 9.37505H19.7879L21.3629 14.625H18.4622L16.6126 8.46098C16.4984 8.07388 16.2616 7.73432 15.9379 7.49339C15.6141 7.25246 15.2208 7.12319 14.8172 7.12505H13.8751C13.5767 7.12505 13.2905 7.24357 13.0796 7.45455C12.8686 7.66553 12.7501 7.95168 12.7501 8.25005C12.7501 8.54842 12.8686 8.83456 13.0796 9.04554C13.2905 9.25652 13.5767 9.37505 13.8751 9.37505H14.5379L16.1129 14.625H13.2122L11.3626 8.46098C11.2484 8.07388 11.0116 7.73432 10.6879 7.49339C10.3641 7.25246 9.97082 7.12319 9.56724 7.12505H3.93756C3.53318 7.12217 3.13885 7.25097 2.81412 7.49197C2.4894 7.73298 2.25192 8.07311 2.13756 8.46098L0.0516176 15.4125C0.0511785 15.4153 0.0511785 15.4182 0.0516176 15.421V15.4266C0.0455287 15.4457 0.0405207 15.4651 0.0366176 15.4847C-0.00345236 15.6498 -0.00560498 15.8219 0.0303213 15.9879C0.0662476 16.154 0.13932 16.3098 0.244053 16.4436C0.348787 16.5773 0.482461 16.6857 0.635044 16.7604C0.787627 16.8351 0.955155 16.8743 1.12506 16.875H22.8751C23.0504 16.875 23.2233 16.834 23.38 16.7552C23.5367 16.6764 23.6728 16.5621 23.7775 16.4214C23.8821 16.2807 23.9524 16.1174 23.9828 15.9447C24.0131 15.772 24.0027 15.5946 23.9522 15.4266ZM4.21224 9.37505H9.28787L10.8629 14.625H2.63724L4.21224 9.37505Z" fill="#130032"/>
</svg>
