<svg width="24" height="24" viewBox="0 0 24 24" fill="none" xmlns="http://www.w3.org/2000/svg">
<path d="M23.4377 11.3756L19.159 4.96031C18.9878 4.70342 18.7558 4.49277 18.4837 4.34705C18.2116 4.20133 17.9076 4.12506 17.599 4.125H3.0002C2.7964 4.1247 2.59635 4.17976 2.42141 4.28431C2.24647 4.38886 2.10322 4.53897 2.00695 4.7186C1.91068 4.89824 1.86502 5.10064 1.87484 5.30421C1.88466 5.50777 1.94959 5.70484 2.0627 5.87438L6.14833 12L2.0627 18.1256C1.94959 18.2952 1.88466 18.4922 1.87484 18.6958C1.86502 18.8994 1.91068 19.1018 2.00695 19.2814C2.10322 19.461 2.24647 19.6111 2.42141 19.7157C2.59635 19.8202 2.7964 19.8753 3.0002 19.875H17.599C17.9076 19.8749 18.2116 19.7987 18.4837 19.653C18.7558 19.5072 18.9878 19.2966 19.159 19.0397L23.4377 12.6244C23.561 12.4395 23.6269 12.2222 23.6269 12C23.6269 11.7778 23.561 11.5605 23.4377 11.3756ZM17.3983 17.625H5.10208L8.4377 12.6244C8.56105 12.4395 8.62687 12.2222 8.62687 12C8.62687 11.7778 8.56105 11.5605 8.4377 11.3756L5.10208 6.375H17.3983L21.1483 12L17.3983 17.625Z" fill="#130032"/>
</svg>
