<svg width="24" height="24" viewBox="0 0 24 24" fill="none" xmlns="http://www.w3.org/2000/svg">
<path d="M23.4375 11.3756L19.1587 4.96031C18.9876 4.70342 18.7556 4.49277 18.4835 4.34705C18.2114 4.20133 17.9074 4.12506 17.5987 4.125H3.75C3.25272 4.125 2.77581 4.32254 2.42417 4.67417C2.07254 5.02581 1.875 5.50272 1.875 6V18C1.875 18.4973 2.07254 18.9742 2.42417 19.3258C2.77581 19.6775 3.25272 19.875 3.75 19.875H17.5987C17.9074 19.8749 18.2114 19.7987 18.4835 19.653C18.7556 19.5072 18.9876 19.2966 19.1587 19.0397L23.4375 12.6244C23.5608 12.4395 23.6267 12.2222 23.6267 12C23.6267 11.7778 23.5608 11.5605 23.4375 11.3756ZM17.3981 17.625H4.125V6.375H17.3981L21.1481 12L17.3981 17.625Z" fill="#130032"/>
</svg>
