<svg width="24" height="24" viewBox="0 0 24 24" fill="none" xmlns="http://www.w3.org/2000/svg">
<path d="M21.493 8.47597C22.2995 10.6422 22.3405 13.0192 21.6092 15.212C20.8779 17.4047 19.4183 19.2813 17.473 20.5297C15.5276 21.7782 13.2137 22.3235 10.9156 22.0749C8.61745 21.8264 6.47358 20.799 4.84016 19.1635C3.00533 17.3347 1.94128 14.8722 1.86696 12.2827C1.79265 9.69314 2.71374 7.17365 4.44067 5.24265C6.1676 3.31165 8.56901 2.11605 11.1507 1.90187C13.7324 1.6877 16.298 2.47125 18.3195 4.09128L20.2039 2.20597C20.3086 2.10132 20.4328 2.01831 20.5695 1.96167C20.7062 1.90504 20.8528 1.87589 21.0008 1.87589C21.1488 1.87589 21.2953 1.90504 21.4321 1.96167C21.5688 2.01831 21.693 2.10132 21.7977 2.20597C21.9023 2.31061 21.9853 2.43485 22.042 2.57157C22.0986 2.7083 22.1277 2.85485 22.1277 3.00284C22.1277 3.15083 22.0986 3.29738 22.042 3.43411C21.9853 3.57083 21.9023 3.69507 21.7977 3.79972L12.7977 12.7997C12.693 12.9044 12.5688 12.9874 12.4321 13.044C12.2953 13.1006 12.1488 13.1298 12.0008 13.1298C11.8528 13.1298 11.7062 13.1006 11.5695 13.044C11.4328 12.9874 11.3086 12.9044 11.2039 12.7997C11.0993 12.6951 11.0163 12.5708 10.9596 12.4341C10.903 12.2974 10.8738 12.1508 10.8738 12.0028C10.8738 11.8548 10.903 11.7083 10.9596 11.5716C11.0163 11.4348 11.0993 11.3106 11.2039 11.206L13.4539 8.95597C12.8198 8.65299 12.1069 8.55554 11.4147 8.67722C10.7225 8.79889 10.0855 9.13362 9.59272 9.63469C9.09991 10.1358 8.77582 10.7782 8.66568 11.4723C8.55553 12.1664 8.66482 12.8776 8.9783 13.5066C9.29178 14.1357 9.7938 14.6511 10.4143 14.9811C11.0348 15.3111 11.7429 15.4391 12.4397 15.3474C13.1365 15.2556 13.7872 14.9486 14.3011 14.4692C14.8151 13.9898 15.1665 13.3619 15.3064 12.6732C15.3653 12.3806 15.5381 12.1235 15.7866 11.9583C16.0351 11.7931 16.339 11.7334 16.6316 11.7924C16.9241 11.8513 17.1812 12.024 17.3464 12.2725C17.5116 12.521 17.5713 12.825 17.5123 13.1175C17.2727 14.298 16.6605 15.3704 15.7657 16.1768C14.8709 16.9832 13.7409 17.4812 12.542 17.5973C11.3431 17.7134 10.1385 17.4416 9.10565 16.8218C8.07277 16.202 7.26612 15.2671 6.80441 14.1545C6.3427 13.042 6.25033 11.8106 6.54088 10.6416C6.83143 9.47266 7.48957 8.42783 8.41842 7.6609C9.34727 6.89398 10.4978 6.44549 11.7006 6.38142C12.9035 6.31736 14.0951 6.64111 15.1002 7.30503L16.7155 5.69534C15.1981 4.56214 13.3232 4.01369 11.4344 4.1505C9.54554 4.2873 7.76924 5.10021 6.43103 6.44023C5.09282 7.78026 4.28233 9.55765 4.14809 11.4467C4.01384 13.3357 4.56483 15.2099 5.70009 16.7257C6.83535 18.2415 8.47883 19.2974 10.3294 19.7C12.1799 20.1025 14.1135 19.8247 15.7758 18.9175C17.4382 18.0102 18.7179 16.5343 19.3805 14.7602C20.0431 12.9861 20.0442 11.0327 19.3836 9.25784C19.331 9.11908 19.3064 8.97129 19.3112 8.82297C19.3159 8.67466 19.35 8.52875 19.4114 8.39366C19.4728 8.25857 19.5603 8.13696 19.6689 8.03583C19.7775 7.9347 19.905 7.85606 20.0442 7.80443C20.1833 7.75281 20.3312 7.72921 20.4795 7.735C20.6278 7.7408 20.7735 7.77587 20.9081 7.83821C21.0428 7.90054 21.1638 7.98889 21.2642 8.09819C21.3645 8.20748 21.4423 8.33555 21.493 8.47503V8.47597Z" fill="#130032"/>
</svg>
