<svg width="24" height="24" viewBox="0 0 24 24" fill="none" xmlns="http://www.w3.org/2000/svg">
<path d="M22.5 9.37501H21.6562L19.1925 5.07001C19.0286 4.78303 18.7917 4.54449 18.5059 4.37853C18.2201 4.21258 17.8955 4.12512 17.565 4.12501H15.7612L14.73 1.55345C14.592 1.20525 14.3525 0.906636 14.0425 0.696459C13.7325 0.486282 13.3664 0.374275 12.9919 0.375011H11.0081C10.6331 0.373709 10.2664 0.485452 9.95587 0.695665C9.64531 0.905879 9.40532 1.2048 9.26719 1.55345L8.23875 4.12501H6.435C6.1045 4.12512 5.77991 4.21258 5.4941 4.37853C5.20829 4.54449 4.97143 4.78303 4.8075 5.07001L2.34375 9.37501H1.5C1.20163 9.37501 0.915483 9.49354 0.704505 9.70452C0.493526 9.91549 0.375 10.2016 0.375 10.5C0.375 10.7984 0.493526 11.0845 0.704505 11.2955C0.915483 11.5065 1.20163 11.625 1.5 11.625H1.875V18.75C1.875 19.2473 2.07254 19.7242 2.42417 20.0758C2.77581 20.4275 3.25272 20.625 3.75 20.625H6.375C6.87228 20.625 7.34919 20.4275 7.70083 20.0758C8.05246 19.7242 8.25 19.2473 8.25 18.75V16.875H15.75V18.75C15.75 19.2473 15.9475 19.7242 16.2992 20.0758C16.6508 20.4275 17.1277 20.625 17.625 20.625H20.25C20.7473 20.625 21.2242 20.4275 21.5758 20.0758C21.9275 19.7242 22.125 19.2473 22.125 18.75V11.625H22.5C22.7984 11.625 23.0845 11.5065 23.2955 11.2955C23.5065 11.0845 23.625 10.7984 23.625 10.5C23.625 10.2016 23.5065 9.91549 23.2955 9.70452C23.0845 9.49354 22.7984 9.37501 22.5 9.37501ZM11.2613 2.62501H12.7388L13.3387 4.12501H10.6613L11.2613 2.62501ZM6.65625 6.37501H17.3438L19.0575 9.37501H4.93875L6.65625 6.37501ZM6 18.375H4.125V16.875H6V18.375ZM19.875 18.375H18V16.875H19.875V18.375ZM19.875 14.625H4.125V11.625H19.875V14.625Z" fill="#130032"/>
</svg>
