<svg width="24" height="24" viewBox="0 0 24 24" fill="none" xmlns="http://www.w3.org/2000/svg">
<path d="M21.7019 2.17078C21.534 2.02599 21.3298 1.92974 21.1112 1.8924C20.8927 1.85507 20.6681 1.87806 20.4616 1.95891L1.46225 9.39422C1.11741 9.52853 0.825508 9.77119 0.630478 10.0857C0.435447 10.4002 0.347836 10.7696 0.380826 11.1382C0.413816 11.5068 0.565623 11.8547 0.813404 12.1296C1.06119 12.4044 1.39154 12.5914 1.75475 12.6623L6.37475 13.5689V18.7495C6.37474 19.1233 6.48645 19.4886 6.69553 19.7984C6.90462 20.1082 7.20154 20.3485 7.54817 20.4884C7.8948 20.6282 8.27532 20.6613 8.64088 20.5833C9.00644 20.5054 9.34035 20.3199 9.59975 20.0508L11.7251 17.8467L15.2201 20.9058C15.4639 21.1202 15.7592 21.2676 16.077 21.3336C16.3949 21.3997 16.7245 21.382 17.0335 21.2824C17.3425 21.1828 17.6204 21.0047 17.8399 20.7654C18.0594 20.5262 18.213 20.2341 18.2857 19.9177L22.0938 3.3661C22.1434 3.15006 22.1331 2.92459 22.064 2.71398C21.995 2.50336 21.8698 2.31556 21.7019 2.17078ZM13.0694 7.26703L7.23913 11.4455L4.01131 10.8127L13.0694 7.26703ZM8.62475 17.8177V15.1261L10.031 16.3589L8.62475 17.8177ZM16.2335 18.8039L9.30725 12.7317L19.2738 5.58985L16.2335 18.8039Z" fill="#130032"/>
</svg>
