<svg width="24" height="24" viewBox="0 0 24 24" fill="none" xmlns="http://www.w3.org/2000/svg">
<path d="M20.25 5.62492H14.7188L17.2987 3.04492C17.5101 2.83358 17.6288 2.54693 17.6288 2.24805C17.6288 1.94916 17.5101 1.66251 17.2987 1.45117C17.0874 1.23983 16.8008 1.12109 16.5019 1.12109C16.203 1.12109 15.9163 1.23983 15.705 1.45117L12 5.15617L8.29594 1.45398C8.08459 1.24264 7.79795 1.12391 7.49906 1.12391C7.20018 1.12391 6.91353 1.24264 6.70219 1.45398C6.49084 1.66533 6.37211 1.95197 6.37211 2.25086C6.37211 2.54974 6.49084 2.83639 6.70219 3.04773L9.28125 5.62492H3.75C3.25272 5.62492 2.77581 5.82246 2.42417 6.1741C2.07254 6.52573 1.875 7.00264 1.875 7.49992V18.7499C1.875 19.2472 2.07254 19.7241 2.42417 20.0757C2.77581 20.4274 3.25272 20.6249 3.75 20.6249H20.25C20.7473 20.6249 21.2242 20.4274 21.5758 20.0757C21.9275 19.7241 22.125 19.2472 22.125 18.7499V7.49992C22.125 7.00264 21.9275 6.52573 21.5758 6.1741C21.2242 5.82246 20.7473 5.62492 20.25 5.62492ZM19.875 18.3749H4.125V7.87492H19.875V18.3749Z" fill="#130032"/>
</svg>
