<svg width="24" height="24" viewBox="0 0 24 24" fill="none" xmlns="http://www.w3.org/2000/svg">
<path d="M20.25 5.62492H14.7188L17.2987 3.04492C17.5101 2.83358 17.6288 2.54693 17.6288 2.24805C17.6288 1.94916 17.5101 1.66251 17.2987 1.45117C17.0874 1.23983 16.8008 1.12109 16.5019 1.12109C16.203 1.12109 15.9163 1.23983 15.705 1.45117L12 5.15617L8.29594 1.45398C8.08459 1.24264 7.79795 1.12391 7.49906 1.12391C7.20018 1.12391 6.91353 1.24264 6.70219 1.45398C6.49084 1.66533 6.37211 1.95197 6.37211 2.25086C6.37211 2.54974 6.49084 2.83639 6.70219 3.04773L9.28125 5.62492H3.75C3.25272 5.62492 2.77581 5.82246 2.42417 6.1741C2.07254 6.52573 1.875 7.00264 1.875 7.49992V18.7499C1.875 19.2472 2.07254 19.7241 2.42417 20.0757C2.77581 20.4274 3.25272 20.6249 3.75 20.6249H20.25C20.7473 20.6249 21.2242 20.4274 21.5758 20.0757C21.9275 19.7241 22.125 19.2472 22.125 18.7499V7.49992C22.125 7.00264 21.9275 6.52573 21.5758 6.1741C21.2242 5.82246 20.7473 5.62492 20.25 5.62492ZM4.125 7.87492H12V18.3749H4.125V7.87492ZM19.875 18.3749H14.25V7.87492H19.875V18.3749ZM15.75 10.8749C15.75 10.5782 15.838 10.2882 16.0028 10.0416C16.1676 9.79489 16.4019 9.60263 16.676 9.4891C16.9501 9.37557 17.2517 9.34586 17.5426 9.40374C17.8336 9.46162 18.1009 9.60448 18.3107 9.81426C18.5204 10.024 18.6633 10.2913 18.7212 10.5823C18.7791 10.8733 18.7494 11.1749 18.6358 11.4489C18.5223 11.723 18.33 11.9573 18.0834 12.1221C17.8367 12.2869 17.5467 12.3749 17.25 12.3749C16.8522 12.3749 16.4706 12.2169 16.1893 11.9356C15.908 11.6543 15.75 11.2727 15.75 10.8749ZM18.75 15.3749C18.75 15.6716 18.662 15.9616 18.4972 16.2083C18.3324 16.455 18.0981 16.6472 17.824 16.7607C17.5499 16.8743 17.2483 16.904 16.9574 16.8461C16.6664 16.7882 16.3991 16.6454 16.1893 16.4356C15.9796 16.2258 15.8367 15.9585 15.7788 15.6676C15.7209 15.3766 15.7506 15.075 15.8642 14.8009C15.9777 14.5268 16.17 14.2925 16.4166 14.1277C16.6633 13.9629 16.9533 13.8749 17.25 13.8749C17.6478 13.8749 18.0294 14.033 18.3107 14.3143C18.592 14.5956 18.75 14.9771 18.75 15.3749Z" fill="#130032"/>
</svg>
