<svg width="24" height="24" viewBox="0 0 24 24" fill="none" xmlns="http://www.w3.org/2000/svg">
<g clip-path="url(#clip0_7_19278)">
<path d="M23.9064 17.5434L17.9064 4.04344C17.8178 3.84402 17.6732 3.67465 17.4901 3.55597C17.307 3.43729 17.0933 3.37441 16.8751 3.375H7.12513C6.91168 3.37522 6.7027 3.43616 6.52258 3.5507C6.34247 3.66525 6.19866 3.82867 6.10794 4.02188C6.10381 4.02886 6.10006 4.03606 6.09669 4.04344L6.09388 4.05938L0.0938819 17.5434C0.0177206 17.715 -0.0143245 17.9028 0.000664944 18.0899C0.0156544 18.2769 0.077202 18.4573 0.179703 18.6145C0.282204 18.7717 0.422402 18.9007 0.58753 18.9899C0.752657 19.0791 0.937468 19.1255 1.12513 19.125H22.8751C23.0628 19.1255 23.2476 19.0791 23.4127 18.9899C23.5779 18.9007 23.7181 18.7717 23.8206 18.6145C23.9231 18.4573 23.9846 18.2769 23.9996 18.0899C24.0146 17.9028 23.9825 17.715 23.9064 17.5434ZM6.00013 9.80157V16.875H2.85576L6.00013 9.80157ZM8.25013 16.875V9.80157L11.3945 16.875H8.25013ZM13.8564 16.875L8.85669 5.625H16.1439L21.1445 16.875H13.8564Z" fill="#130032"/>
</g>
<defs>
<clipPath id="clip0_7_19278">
<rect width="24" height="24" fill="white"/>
</clipPath>
</defs>
</svg>
