<svg width="24" height="24" viewBox="0 0 24 24" fill="none" xmlns="http://www.w3.org/2000/svg">
<path d="M20.3494 13.1559L21.5906 11.0766C21.6707 10.9496 21.7246 10.808 21.7491 10.6599C21.7736 10.5119 21.7683 10.3604 21.7333 10.2145C21.6984 10.0685 21.6347 9.93102 21.5458 9.81008C21.457 9.68914 21.3448 9.58721 21.216 9.51027C21.0871 9.43334 20.9442 9.38296 20.7955 9.3621C20.6469 9.34125 20.4956 9.35034 20.3506 9.38884C20.2056 9.42734 20.0697 9.49447 19.951 9.58629C19.8323 9.6781 19.7331 9.79273 19.6594 9.92344L16.6359 14.9859C16.6275 15 16.62 15.015 16.6125 15.03C16.217 15.7298 16.0568 16.5381 16.1555 17.3358C16.2543 18.1334 16.6067 18.8783 17.1608 19.4605C17.715 20.0427 18.4416 20.4315 19.2334 20.5695C20.0253 20.7075 20.8405 20.5874 21.5589 20.2269C22.2773 19.8664 22.8609 19.2847 23.2236 18.5674C23.5863 17.8501 23.709 17.0352 23.5735 16.243C23.438 15.4507 23.0515 14.7229 22.471 14.1669C21.8905 13.611 21.1468 13.2562 20.3494 13.155V13.1559ZM19.875 18.375C19.5783 18.375 19.2883 18.287 19.0416 18.1222C18.795 17.9574 18.6027 17.7231 18.4892 17.449C18.3756 17.1749 18.3459 16.8733 18.4038 16.5824C18.4617 16.2914 18.6046 16.0241 18.8143 15.8143C19.0241 15.6046 19.2914 15.4617 19.5824 15.4038C19.8733 15.3459 20.1749 15.3756 20.449 15.4892C20.7231 15.6027 20.9574 15.795 21.1222 16.0416C21.287 16.2883 21.375 16.5783 21.375 16.875C21.375 17.2728 21.217 17.6544 20.9357 17.9357C20.6544 18.217 20.2728 18.375 19.875 18.375ZM14.625 5.25V16.5C14.625 16.7984 14.5065 17.0845 14.2955 17.2955C14.0845 17.5065 13.7984 17.625 13.5 17.625C13.2016 17.625 12.9155 17.5065 12.7045 17.2955C12.4935 17.0845 12.375 16.7984 12.375 16.5V12H4.875V16.5C4.875 16.7984 4.75647 17.0845 4.5455 17.2955C4.33452 17.5065 4.04837 17.625 3.75 17.625C3.45163 17.625 3.16548 17.5065 2.9545 17.2955C2.74353 17.0845 2.625 16.7984 2.625 16.5V5.25C2.625 4.95163 2.74353 4.66548 2.9545 4.4545C3.16548 4.24353 3.45163 4.125 3.75 4.125C4.04837 4.125 4.33452 4.24353 4.5455 4.4545C4.75647 4.66548 4.875 4.95163 4.875 5.25V9.75H12.375V5.25C12.375 4.95163 12.4935 4.66548 12.7045 4.4545C12.9155 4.24353 13.2016 4.125 13.5 4.125C13.7984 4.125 14.0845 4.24353 14.2955 4.4545C14.5065 4.66548 14.625 4.95163 14.625 5.25Z" fill="#130032"/>
</svg>
