<svg width="24" height="24" viewBox="0 0 24 24" fill="none" xmlns="http://www.w3.org/2000/svg">
<path d="M21.3748 11.9999C21.3748 12.2983 21.2563 12.5844 21.0453 12.7954C20.8343 13.0064 20.5482 13.1249 20.2498 13.1249H11.2498C10.9514 13.1249 10.6653 13.0064 10.4543 12.7954C10.2433 12.5844 10.1248 12.2983 10.1248 11.9999C10.1248 11.7016 10.2433 11.4154 10.4543 11.2044C10.6653 10.9934 10.9514 10.8749 11.2498 10.8749H20.2498C20.5482 10.8749 20.8343 10.9934 21.0453 11.2044C21.2563 11.4154 21.3748 11.7016 21.3748 11.9999ZM11.2498 7.12492H20.2498C20.5482 7.12492 20.8343 7.00639 21.0453 6.79542C21.2563 6.58444 21.3748 6.29829 21.3748 5.99992C21.3748 5.70155 21.2563 5.4154 21.0453 5.20442C20.8343 4.99345 20.5482 4.87492 20.2498 4.87492H11.2498C10.9514 4.87492 10.6653 4.99345 10.4543 5.20442C10.2433 5.4154 10.1248 5.70155 10.1248 5.99992C10.1248 6.29829 10.2433 6.58444 10.4543 6.79542C10.6653 7.00639 10.9514 7.12492 11.2498 7.12492ZM20.2498 16.8749H3.74979C3.45142 16.8749 3.16528 16.9934 2.9543 17.2044C2.74332 17.4154 2.62479 17.7016 2.62479 17.9999C2.62479 18.2983 2.74332 18.5844 2.9543 18.7954C3.16528 19.0064 3.45142 19.1249 3.74979 19.1249H20.2498C20.5482 19.1249 20.8343 19.0064 21.0453 18.7954C21.2563 18.5844 21.3748 18.2983 21.3748 17.9999C21.3748 17.7016 21.2563 17.4154 21.0453 17.2044C20.8343 16.9934 20.5482 16.8749 20.2498 16.8749ZM6.74979 13.8749C6.97243 13.8751 7.19011 13.8092 7.37527 13.6856C7.56044 13.562 7.70477 13.3862 7.78999 13.1806C7.87522 12.9749 7.8975 12.7485 7.85401 12.5302C7.81053 12.3119 7.70324 12.1113 7.54573 11.954L4.59354 8.99992L7.54573 6.04492C7.65038 5.94027 7.73339 5.81604 7.79002 5.67931C7.84666 5.54258 7.87581 5.39604 7.87581 5.24804C7.87581 5.10005 7.84666 4.95351 7.79002 4.81678C7.73339 4.68005 7.65038 4.55582 7.54573 4.45117C7.44108 4.34652 7.31685 4.26351 7.18012 4.20688C7.04339 4.15024 6.89685 4.12109 6.74886 4.12109C6.60086 4.12109 6.45432 4.15024 6.31759 4.20688C6.18086 4.26351 6.05663 4.34652 5.95198 4.45117L2.20198 8.20117C2.0971 8.30569 2.01388 8.42988 1.9571 8.56662C1.90032 8.70337 1.87109 8.84998 1.87109 8.99805C1.87109 9.14611 1.90032 9.29272 1.9571 9.42947C2.01388 9.56621 2.0971 9.6904 2.20198 9.79492L5.95198 13.5449C6.05668 13.6498 6.18106 13.7329 6.31797 13.7895C6.45488 13.8461 6.60163 13.8752 6.74979 13.8749Z" fill="#130032"/>
</svg>
