<svg width="24" height="24" viewBox="0 0 24 24" fill="none" xmlns="http://www.w3.org/2000/svg">
<path d="M23.625 16.875C23.625 17.8696 23.2299 18.8234 22.5266 19.5267C21.8234 20.2299 20.8696 20.625 19.875 20.625C19.3785 20.6324 18.8855 20.54 18.4254 20.3532C17.9653 20.1664 17.5474 19.889 17.1966 19.5375C17.0931 19.432 17.0115 19.3071 16.9564 19.1701C16.9012 19.033 16.8736 18.8865 16.875 18.7387C16.8765 18.591 16.9071 18.445 16.965 18.3091C17.0229 18.1732 17.107 18.05 17.2125 17.9466C17.318 17.8431 17.4429 17.7615 17.5799 17.7064C17.717 17.6512 17.8635 17.6236 18.0113 17.625C18.159 17.6265 18.305 17.6571 18.4409 17.715C18.5768 17.7729 18.7 17.857 18.8034 17.9625C18.9448 18.1003 19.1127 18.2079 19.2969 18.2788C19.4811 18.3497 19.6778 18.3824 19.875 18.375C20.2728 18.375 20.6544 18.217 20.9357 17.9357C21.217 17.6544 21.375 17.2728 21.375 16.875C21.375 16.4772 21.217 16.0956 20.9357 15.8143C20.6544 15.533 20.2728 15.375 19.875 15.375C19.6778 15.3676 19.4811 15.4003 19.2969 15.4712C19.1127 15.5421 18.9448 15.6497 18.8034 15.7875C18.6358 15.9589 18.4179 16.0723 18.1813 16.1111C17.9447 16.1499 17.7019 16.1122 17.4883 16.0033C17.2747 15.8945 17.1015 15.7202 16.9939 15.506C16.8862 15.2918 16.8498 15.0488 16.89 14.8125L17.64 10.3125C17.6843 10.0502 17.8202 9.81216 18.0234 9.64053C18.2266 9.4689 18.484 9.37483 18.75 9.375H22.5C22.7984 9.375 23.0845 9.49353 23.2955 9.7045C23.5065 9.91548 23.625 10.2016 23.625 10.5C23.625 10.7984 23.5065 11.0845 23.2955 11.2955C23.0845 11.5065 22.7984 11.625 22.5 11.625H19.7034L19.4494 13.1466C19.5908 13.1323 19.7329 13.1251 19.875 13.125C20.8696 13.125 21.8234 13.5201 22.5266 14.2234C23.2299 14.9266 23.625 15.8804 23.625 16.875ZM13.5 4.125C13.2016 4.125 12.9155 4.24353 12.7045 4.4545C12.4935 4.66548 12.375 4.95163 12.375 5.25V9.75H4.875V5.25C4.875 4.95163 4.75647 4.66548 4.5455 4.4545C4.33452 4.24353 4.04837 4.125 3.75 4.125C3.45163 4.125 3.16548 4.24353 2.9545 4.4545C2.74353 4.66548 2.625 4.95163 2.625 5.25V16.5C2.625 16.7984 2.74353 17.0845 2.9545 17.2955C3.16548 17.5065 3.45163 17.625 3.75 17.625C4.04837 17.625 4.33452 17.5065 4.5455 17.2955C4.75647 17.0845 4.875 16.7984 4.875 16.5V12H12.375V16.5C12.375 16.7984 12.4935 17.0845 12.7045 17.2955C12.9155 17.5065 13.2016 17.625 13.5 17.625C13.7984 17.625 14.0845 17.5065 14.2955 17.2955C14.5065 17.0845 14.625 16.7984 14.625 16.5V5.25C14.625 4.95163 14.5065 4.66548 14.2955 4.4545C14.0845 4.24353 13.7984 4.125 13.5 4.125Z" fill="#130032"/>
</svg>
