<svg width="24" height="24" viewBox="0 0 24 24" fill="none" xmlns="http://www.w3.org/2000/svg">
<path d="M19.125 5.25C19.125 5.54837 19.0065 5.83452 18.7955 6.0455C18.5845 6.25647 18.2984 6.375 18 6.375H15.0609L11.3109 17.625H13.5C13.7984 17.625 14.0845 17.7435 14.2955 17.9545C14.5065 18.1655 14.625 18.4516 14.625 18.75C14.625 19.0484 14.5065 19.3345 14.2955 19.5455C14.0845 19.7565 13.7984 19.875 13.5 19.875H6C5.70163 19.875 5.41548 19.7565 5.2045 19.5455C4.99353 19.3345 4.875 19.0484 4.875 18.75C4.875 18.4516 4.99353 18.1655 5.2045 17.9545C5.41548 17.7435 5.70163 17.625 6 17.625H8.93906L12.6891 6.375H10.5C10.2016 6.375 9.91548 6.25647 9.7045 6.0455C9.49353 5.83452 9.375 5.54837 9.375 5.25C9.375 4.95163 9.49353 4.66548 9.7045 4.4545C9.91548 4.24353 10.2016 4.125 10.5 4.125H18C18.2984 4.125 18.5845 4.24353 18.7955 4.4545C19.0065 4.66548 19.125 4.95163 19.125 5.25Z" fill="#130032"/>
</svg>
