<svg width="24" height="24" viewBox="0 0 24 24" fill="none" xmlns="http://www.w3.org/2000/svg">
<path d="M14.625 5.25V16.5C14.625 16.7984 14.5065 17.0845 14.2955 17.2955C14.0845 17.5065 13.7984 17.625 13.5 17.625C13.2016 17.625 12.9155 17.5065 12.7045 17.2955C12.4935 17.0845 12.375 16.7984 12.375 16.5V12H4.875V16.5C4.875 16.7984 4.75647 17.0845 4.5455 17.2955C4.33452 17.5065 4.04837 17.625 3.75 17.625C3.45163 17.625 3.16548 17.5065 2.9545 17.2955C2.74353 17.0845 2.625 16.7984 2.625 16.5V5.25C2.625 4.95163 2.74353 4.66548 2.9545 4.4545C3.16548 4.24353 3.45163 4.125 3.75 4.125C4.04837 4.125 4.33452 4.24353 4.5455 4.4545C4.75647 4.66548 4.875 4.95163 4.875 5.25V9.75H12.375V5.25C12.375 4.95163 12.4935 4.66548 12.7045 4.4545C12.9155 4.24353 13.2016 4.125 13.5 4.125C13.7984 4.125 14.0845 4.24353 14.2955 4.4545C14.5065 4.66548 14.625 4.95163 14.625 5.25ZM22.5 18.375H20.25L22.9444 14.7816C23.2373 14.3929 23.4427 13.9455 23.5464 13.47C23.6502 12.9945 23.6499 12.5022 23.5456 12.0268C23.4412 11.5514 23.2353 11.1043 22.942 10.7159C22.6486 10.3276 22.2747 10.0073 21.846 9.77706C21.4172 9.54678 20.9437 9.41195 20.458 9.38183C19.9722 9.3517 19.4857 9.42698 19.0318 9.60251C18.5779 9.77804 18.1673 10.0497 17.8282 10.3988C17.4891 10.7479 17.2295 11.1662 17.0672 11.625C16.9677 11.9063 16.9841 12.2157 17.1127 12.4849C17.2413 12.7542 17.4716 12.9613 17.753 13.0608C18.0343 13.1602 18.3436 13.1439 18.6129 13.0153C18.8822 12.8866 19.0893 12.6563 19.1887 12.375C19.2266 12.2665 19.2814 12.1646 19.3509 12.0731C19.4388 11.9523 19.5499 11.8501 19.6777 11.7727C19.8055 11.6952 19.9475 11.644 20.0953 11.622C20.2431 11.6001 20.3938 11.6078 20.5386 11.6447C20.6834 11.6816 20.8194 11.747 20.9387 11.837C21.058 11.9271 21.1581 12.04 21.2332 12.1691C21.3084 12.2983 21.357 12.4412 21.3763 12.5893C21.3957 12.7375 21.3853 12.8881 21.3458 13.0322C21.3062 13.1763 21.2384 13.3111 21.1462 13.4288L17.1 18.825C16.9746 18.9921 16.8983 19.1909 16.8795 19.399C16.8608 19.6071 16.9003 19.8162 16.9938 20.0031C17.0872 20.19 17.2308 20.3471 17.4086 20.457C17.5863 20.5668 17.7911 20.625 18 20.625H22.5C22.7984 20.625 23.0845 20.5065 23.2955 20.2955C23.5065 20.0845 23.625 19.7984 23.625 19.5C23.625 19.2016 23.5065 18.9155 23.2955 18.7045C23.0845 18.4935 22.7984 18.375 22.5 18.375Z" fill="#130032"/>
</svg>
