<svg width="24" height="24" viewBox="0 0 24 24" fill="none" xmlns="http://www.w3.org/2000/svg">
<path d="M23.6252 13.4999C23.6252 13.7983 23.5066 14.0845 23.2957 14.2954C23.0847 14.5064 22.7985 14.6249 22.5002 14.6249H18.0002C17.7913 14.6249 17.5865 14.5668 17.4087 14.4569C17.231 14.3471 17.0874 14.1899 16.9939 14.0031C16.9005 13.8162 16.861 13.607 16.8797 13.3989C16.8985 13.1908 16.9748 12.9921 17.1002 12.8249L21.1474 7.42963C21.2448 7.30015 21.3131 7.15114 21.3476 6.9928C21.3821 6.83447 21.382 6.67055 21.3473 6.51226C21.3126 6.35397 21.2441 6.20505 21.1465 6.07568C21.0489 5.94632 20.9245 5.83956 20.7818 5.76273C20.6392 5.68589 20.4816 5.64078 20.3198 5.6305C20.1581 5.62021 19.9961 5.64498 19.8448 5.70312C19.6936 5.76125 19.5566 5.85138 19.4434 5.96734C19.3302 6.08329 19.2434 6.22233 19.1889 6.37495C19.0895 6.65628 18.8823 6.88659 18.6131 7.0152C18.3438 7.14381 18.0345 7.16018 17.7531 7.06073C17.4718 6.96127 17.2415 6.75413 17.1129 6.48487C16.9843 6.21561 16.9679 5.90628 17.0674 5.62495C17.183 5.30008 17.3473 4.99471 17.5549 4.71932C18.0961 4.0116 18.8952 3.5466 19.7779 3.42574C20.6607 3.30488 21.5554 3.53797 22.2669 4.07416C22.9785 4.61036 23.4491 5.40616 23.5762 6.288C23.7034 7.16984 23.4766 8.06618 22.9455 8.78151L20.2502 12.3749H22.5002C22.7985 12.3749 23.0847 12.4935 23.2957 12.7045C23.5066 12.9154 23.6252 13.2016 23.6252 13.4999ZM14.2371 6.65057C14.1255 6.55373 13.9959 6.47981 13.8557 6.43305C13.7155 6.3863 13.5675 6.36761 13.4202 6.37805C13.2728 6.3885 13.1289 6.42788 12.9967 6.49394C12.8645 6.56 12.7467 6.65145 12.6499 6.76307L8.62518 11.4074L4.60049 6.76307C4.40506 6.53755 4.12804 6.39891 3.83039 6.37764C3.53273 6.35636 3.23882 6.4542 3.0133 6.64963C2.78778 6.84507 2.64914 7.12208 2.62787 7.41973C2.60659 7.71739 2.70443 8.0113 2.89986 8.23682L7.13643 13.1249L2.89986 18.0131C2.8031 18.1247 2.72927 18.2544 2.6826 18.3946C2.63593 18.5348 2.61733 18.6828 2.62787 18.8302C2.6384 18.9775 2.67786 19.1214 2.74399 19.2535C2.81013 19.3857 2.90164 19.5035 3.0133 19.6003C3.12497 19.697 3.2546 19.7709 3.39479 19.8175C3.53499 19.8642 3.683 19.8828 3.83039 19.8723C3.97777 19.8617 4.12164 19.8223 4.25377 19.7561C4.38591 19.69 4.50372 19.5985 4.60049 19.4868L8.62518 14.8424L12.6499 19.4868C12.7466 19.5985 12.8644 19.69 12.9966 19.7561C13.1287 19.8223 13.2726 19.8617 13.42 19.8723C13.5673 19.8828 13.7154 19.8642 13.8556 19.8175C13.9958 19.7709 14.1254 19.697 14.2371 19.6003C14.3487 19.5035 14.4402 19.3857 14.5064 19.2535C14.5725 19.1214 14.612 18.9775 14.6225 18.8302C14.633 18.6828 14.6144 18.5348 14.5678 18.3946C14.5211 18.2544 14.4473 18.1247 14.3505 18.0131L10.1139 13.1249L14.3505 8.23682C14.5457 8.01137 14.6434 7.71766 14.6221 7.42022C14.6008 7.12278 14.4623 6.84595 14.2371 6.65057Z" fill="#130032"/>
</svg>
