<svg width="24" height="24" viewBox="0 0 24 24" fill="none" xmlns="http://www.w3.org/2000/svg">
<path d="M22.125 10.5V19.5C22.125 19.7984 22.0065 20.0845 21.7955 20.2955C21.5845 20.5065 21.2984 20.625 21 20.625C20.7016 20.625 20.4155 20.5065 20.2045 20.2955C19.9935 20.0845 19.875 19.7984 19.875 19.5V12.6019L19.3744 12.9375C19.2513 13.0195 19.1132 13.0764 18.9681 13.1051C18.823 13.1337 18.6736 13.1335 18.5286 13.1044C18.3836 13.0753 18.2457 13.018 18.1228 12.9356C17.9999 12.8532 17.8945 12.7475 17.8125 12.6244C17.7305 12.5013 17.6736 12.3632 17.6449 12.2181C17.6163 12.073 17.6165 11.9236 17.6456 11.7786C17.6747 11.6336 17.732 11.4957 17.8144 11.3728C17.8968 11.2499 18.0025 11.1445 18.1256 11.0625L20.3756 9.5625C20.5452 9.44939 20.7422 9.38446 20.9458 9.37464C21.1494 9.36482 21.3518 9.41048 21.5314 9.50675C21.711 9.60301 21.8611 9.74626 21.9657 9.9212C22.0702 10.0961 22.1253 10.2962 22.125 10.5ZM13.5 4.125C13.2016 4.125 12.9155 4.24353 12.7045 4.4545C12.4935 4.66548 12.375 4.95163 12.375 5.25V9.75H4.875V5.25C4.875 4.95163 4.75647 4.66548 4.5455 4.4545C4.33452 4.24353 4.04837 4.125 3.75 4.125C3.45163 4.125 3.16548 4.24353 2.9545 4.4545C2.74353 4.66548 2.625 4.95163 2.625 5.25V16.5C2.625 16.7984 2.74353 17.0845 2.9545 17.2955C3.16548 17.5065 3.45163 17.625 3.75 17.625C4.04837 17.625 4.33452 17.5065 4.5455 17.2955C4.75647 17.0845 4.875 16.7984 4.875 16.5V12H12.375V16.5C12.375 16.7984 12.4935 17.0845 12.7045 17.2955C12.9155 17.5065 13.2016 17.625 13.5 17.625C13.7984 17.625 14.0845 17.5065 14.2955 17.2955C14.5065 17.0845 14.625 16.7984 14.625 16.5V5.25C14.625 4.95163 14.5065 4.66548 14.2955 4.4545C14.0845 4.24353 13.7984 4.125 13.5 4.125Z" fill="#130032"/>
</svg>
