<svg width="24" height="24" viewBox="0 0 24 24" fill="none" xmlns="http://www.w3.org/2000/svg">
<path d="M21.375 11.999C21.375 12.2974 21.2565 12.5835 21.0455 12.7945C20.8346 13.0055 20.5484 13.124 20.25 13.124H11.25C10.9517 13.124 10.6655 13.0055 10.4545 12.7945C10.2436 12.5835 10.125 12.2974 10.125 11.999C10.125 11.7006 10.2436 11.4145 10.4545 11.2035C10.6655 10.9925 10.9517 10.874 11.25 10.874H20.25C20.5484 10.874 20.8346 10.9925 21.0455 11.2035C21.2565 11.4145 21.375 11.7006 21.375 11.999ZM11.25 7.12398H20.25C20.5484 7.12398 20.8346 7.00546 21.0455 6.79448C21.2565 6.5835 21.375 6.29735 21.375 5.99898C21.375 5.70061 21.2565 5.41447 21.0455 5.20349C20.8346 4.99251 20.5484 4.87398 20.25 4.87398H11.25C10.9517 4.87398 10.6655 4.99251 10.4545 5.20349C10.2436 5.41447 10.125 5.70061 10.125 5.99898C10.125 6.29735 10.2436 6.5835 10.4545 6.79448C10.6655 7.00546 10.9517 7.12398 11.25 7.12398ZM20.25 16.874H3.75004C3.45167 16.874 3.16552 16.9925 2.95454 17.2035C2.74356 17.4145 2.62504 17.7006 2.62504 17.999C2.62504 18.2974 2.74356 18.5835 2.95454 18.7945C3.16552 19.0055 3.45167 19.124 3.75004 19.124H20.25C20.5484 19.124 20.8346 19.0055 21.0455 18.7945C21.2565 18.5835 21.375 18.2974 21.375 17.999C21.375 17.7006 21.2565 17.4145 21.0455 17.2035C20.8346 16.9925 20.5484 16.874 20.25 16.874ZM2.9541 13.5449C3.05862 13.6498 3.18281 13.733 3.31955 13.7898C3.4563 13.8466 3.60291 13.8758 3.75097 13.8758C3.89904 13.8758 4.04565 13.8466 4.1824 13.7898C4.31914 13.733 4.44333 13.6498 4.54785 13.5449L8.29785 9.79492C8.40273 9.6904 8.48595 9.56621 8.54273 9.42947C8.59951 9.29272 8.62874 9.14611 8.62874 8.99804C8.62874 8.84998 8.59951 8.70337 8.54273 8.56662C8.48595 8.42988 8.40273 8.30569 8.29785 8.20117L4.54785 4.45117C4.4432 4.34652 4.31897 4.26351 4.18224 4.20688C4.04551 4.15024 3.89897 4.12109 3.75097 4.12109C3.60298 4.12109 3.45644 4.15024 3.31971 4.20688C3.18298 4.26351 3.05875 4.34652 2.9541 4.45117C2.74276 4.66251 2.62402 4.94916 2.62402 5.24805C2.62402 5.54693 2.74276 5.83358 2.9541 6.04492L5.90629 8.99898L2.9541 11.953C2.8495 12.0575 2.76652 12.1816 2.70991 12.3182C2.65329 12.4547 2.62415 12.6011 2.62415 12.749C2.62415 12.8968 2.65329 13.0432 2.70991 13.1798C2.76652 13.3164 2.8495 13.4404 2.9541 13.5449Z" fill="#130032"/>
</svg>
