<svg width="24" height="24" viewBox="0 0 24 24" fill="none" xmlns="http://www.w3.org/2000/svg">
<path d="M17.3512 10.7306C17.8922 10.0719 18.2348 9.27301 18.3394 8.42707C18.444 7.58112 18.3061 6.72288 17.9419 5.95222C17.5777 5.18157 17.0021 4.53021 16.2821 4.07395C15.5622 3.61769 14.7274 3.3753 13.875 3.375H7.5C7.20163 3.375 6.91548 3.49353 6.7045 3.7045C6.49353 3.91548 6.375 4.20163 6.375 4.5V18.75C6.375 19.0484 6.49353 19.3345 6.7045 19.5455C6.91548 19.7565 7.20163 19.875 7.5 19.875H15C16.0813 19.8745 17.1317 19.5146 17.986 18.8519C18.8403 18.1892 19.4501 17.2612 19.7194 16.214C19.9886 15.1668 19.9021 14.0598 19.4734 13.0672C19.0447 12.0745 18.2982 11.2526 17.3512 10.7306ZM8.625 5.625H13.875C14.4717 5.625 15.044 5.86205 15.466 6.28401C15.8879 6.70597 16.125 7.27826 16.125 7.875C16.125 8.47174 15.8879 9.04403 15.466 9.46599C15.044 9.88795 14.4717 10.125 13.875 10.125H8.625V5.625ZM15 17.625H8.625V12.375H15C15.6962 12.375 16.3639 12.6516 16.8562 13.1438C17.3484 13.6361 17.625 14.3038 17.625 15C17.625 15.6962 17.3484 16.3639 16.8562 16.8562C16.3639 17.3484 15.6962 17.625 15 17.625Z" fill="#130032"/>
</svg>
