<svg width="24" height="24" viewBox="0 0 24 24" fill="none" xmlns="http://www.w3.org/2000/svg">
<path d="M8.51786 4.77141C8.42701 4.57814 8.28302 4.41472 8.10273 4.30025C7.92244 4.18579 7.71329 4.125 7.49974 4.125C7.28618 4.125 7.07703 4.18579 6.89674 4.30025C6.71645 4.41472 6.57246 4.57814 6.48161 4.77141L0.48161 17.5214C0.361499 17.7903 0.351614 18.0956 0.454078 18.3717C0.556541 18.6478 0.763183 18.8727 1.02963 18.9981C1.29608 19.1235 1.60109 19.1395 1.87917 19.0425C2.15725 18.9456 2.38622 18.7434 2.51692 18.4795L3.97849 15.3755H11.021L12.4816 18.4795C12.6087 18.7496 12.8378 18.9581 13.1186 19.0591C13.3993 19.1602 13.7088 19.1457 13.9788 19.0186C14.2488 18.8915 14.4573 18.6624 14.5584 18.3816C14.6595 18.1009 14.6449 17.7914 14.5179 17.5214L8.51786 4.77141ZM5.03786 13.1255L7.49974 7.89235L9.96255 13.1255H5.03786ZM18.7497 7.87547C17.4513 7.87547 16.4275 8.23735 15.7075 8.95173C15.5943 9.05372 15.503 9.17766 15.4391 9.31602C15.3753 9.45438 15.3402 9.60427 15.336 9.7566C15.3318 9.90894 15.3586 10.0605 15.4147 10.2022C15.4709 10.3439 15.5553 10.4726 15.6627 10.5807C15.7701 10.6888 15.8984 10.7739 16.0397 10.8309C16.1811 10.8879 16.3325 10.9156 16.4849 10.9123C16.6372 10.909 16.7873 10.8748 16.926 10.8117C17.0648 10.7487 17.1893 10.6581 17.2919 10.5455C17.5732 10.2642 18.0663 10.1217 18.7497 10.1217C19.781 10.1217 20.6247 10.7948 20.6247 11.6217V12.0333C20.037 11.7621 19.397 11.6229 18.7497 11.6255C16.4754 11.6255 14.6247 13.3074 14.6247 15.3755C14.6247 17.4436 16.4754 19.1255 18.7497 19.1255C19.468 19.1273 20.1759 18.9542 20.8122 18.6211C20.9458 18.8224 21.1406 18.9754 21.3678 19.0574C21.595 19.1394 21.8426 19.1461 22.0739 19.0765C22.3052 19.0069 22.508 18.8647 22.6522 18.6709C22.7965 18.4771 22.8745 18.242 22.8747 18.0005V11.6255C22.8747 9.55735 21.0241 7.87547 18.7497 7.87547ZM18.7497 16.8755C17.7185 16.8755 16.8747 16.2023 16.8747 15.3755C16.8747 14.5486 17.7185 13.8755 18.7497 13.8755C19.781 13.8755 20.6247 14.5486 20.6247 15.3755C20.6247 16.2023 19.781 16.8755 18.7497 16.8755Z" fill="#130032"/>
</svg>
