<svg width="24" height="24" viewBox="0 0 24 24" fill="none" xmlns="http://www.w3.org/2000/svg">
<path d="M19.875 5.25V18.75C19.875 19.0484 19.7565 19.3345 19.5455 19.5455C19.3345 19.7565 19.0484 19.875 18.75 19.875C18.4516 19.875 18.1655 19.7565 17.9545 19.5455C17.7435 19.3345 17.625 19.0484 17.625 18.75V13.125H6.375V18.75C6.375 19.0484 6.25647 19.3345 6.0455 19.5455C5.83452 19.7565 5.54837 19.875 5.25 19.875C4.95163 19.875 4.66548 19.7565 4.4545 19.5455C4.24353 19.3345 4.125 19.0484 4.125 18.75V5.25C4.125 4.95163 4.24353 4.66548 4.4545 4.4545C4.66548 4.24353 4.95163 4.125 5.25 4.125C5.54837 4.125 5.83452 4.24353 6.0455 4.4545C6.25647 4.66548 6.375 4.95163 6.375 5.25V10.875H17.625V5.25C17.625 4.95163 17.7435 4.66548 17.9545 4.4545C18.1655 4.24353 18.4516 4.125 18.75 4.125C19.0484 4.125 19.3345 4.24353 19.5455 4.4545C19.7565 4.66548 19.875 4.95163 19.875 5.25Z" fill="#130032"/>
</svg>
