<svg width="24" height="24" viewBox="0 0 24 24" fill="none" xmlns="http://www.w3.org/2000/svg">
<path d="M23.625 16.875C23.6251 17.62 23.4033 18.3481 22.9879 18.9665C22.5725 19.5848 21.9823 20.0655 21.2926 20.3471C20.603 20.6287 19.845 20.6986 19.1155 20.5477C18.386 20.3968 17.718 20.0321 17.1966 19.5C17.0891 19.3954 17.0037 19.2703 16.9453 19.1322C16.887 18.9941 16.8568 18.8457 16.8566 18.6957C16.8563 18.5458 16.8861 18.3973 16.9441 18.259C17.0021 18.1207 17.0872 17.9954 17.1943 17.8905C17.3014 17.7855 17.4284 17.7031 17.5679 17.6479C17.7074 17.5928 17.8564 17.5661 18.0063 17.5694C18.1563 17.5727 18.304 17.606 18.4409 17.6672C18.5778 17.7284 18.701 17.8164 18.8034 17.9259C18.9766 18.1023 19.1907 18.2332 19.4267 18.3068C19.6627 18.3805 19.9132 18.3947 20.156 18.3482C20.3988 18.3017 20.6263 18.1959 20.8183 18.0402C21.0104 17.8846 21.1609 17.6838 21.2567 17.4559C21.3524 17.228 21.3903 16.98 21.3671 16.7339C21.3438 16.4878 21.2601 16.2512 21.1234 16.0453C20.9866 15.8393 20.8011 15.6704 20.5833 15.5534C20.3655 15.4365 20.1222 15.3752 19.875 15.375C19.6692 15.375 19.4674 15.3185 19.2915 15.2118C19.1156 15.105 18.9723 14.952 18.8773 14.7695C18.7823 14.587 18.7392 14.382 18.7526 14.1766C18.766 13.9713 18.8355 13.7736 18.9534 13.605L20.3438 11.625H18C17.7016 11.625 17.4155 11.5065 17.2045 11.2955C16.9935 11.0845 16.875 10.7984 16.875 10.5C16.875 10.2016 16.9935 9.91548 17.2045 9.7045C17.4155 9.49353 17.7016 9.375 18 9.375H22.5C22.7058 9.37503 22.9076 9.4315 23.0835 9.53825C23.2594 9.645 23.4027 9.79795 23.4977 9.98046C23.5927 10.163 23.6358 10.368 23.6224 10.5734C23.609 10.7787 23.5395 10.9764 23.4216 11.145L21.7022 13.6012C22.285 13.9265 22.7705 14.4013 23.1085 14.9768C23.4465 15.5523 23.6248 16.2076 23.625 16.875ZM13.5 4.125C13.2016 4.125 12.9155 4.24353 12.7045 4.4545C12.4935 4.66548 12.375 4.95163 12.375 5.25V9.75H4.875V5.25C4.875 4.95163 4.75647 4.66548 4.5455 4.4545C4.33452 4.24353 4.04837 4.125 3.75 4.125C3.45163 4.125 3.16548 4.24353 2.9545 4.4545C2.74353 4.66548 2.625 4.95163 2.625 5.25V16.5C2.625 16.7984 2.74353 17.0845 2.9545 17.2955C3.16548 17.5065 3.45163 17.625 3.75 17.625C4.04837 17.625 4.33452 17.5065 4.5455 17.2955C4.75647 17.0845 4.875 16.7984 4.875 16.5V12H12.375V16.5C12.375 16.7984 12.4935 17.0845 12.7045 17.2955C12.9155 17.5065 13.2016 17.625 13.5 17.625C13.7984 17.625 14.0845 17.5065 14.2955 17.2955C14.5065 17.0845 14.625 16.7984 14.625 16.5V5.25C14.625 4.95163 14.5065 4.66548 14.2955 4.4545C14.0845 4.24353 13.7984 4.125 13.5 4.125Z" fill="#130032"/>
</svg>
