<svg width="24" height="24" viewBox="0 0 24 24" fill="none" xmlns="http://www.w3.org/2000/svg">
<path d="M20.2564 21.0808C20.0356 21.2814 19.7441 21.3861 19.4461 21.3719C19.1481 21.3576 18.868 21.2256 18.6673 21.0048L13.1248 14.9045V17.6233H14.9998C15.2982 17.6233 15.5843 17.7418 15.7953 17.9528C16.0063 18.1637 16.1248 18.4499 16.1248 18.7483C16.1248 19.0466 16.0063 19.3328 15.7953 19.5438C15.5843 19.7547 15.2982 19.8733 14.9998 19.8733H8.99979C8.70143 19.8733 8.41528 19.7547 8.2043 19.5438C7.99332 19.3328 7.87479 19.0466 7.87479 18.7483C7.87479 18.4499 7.99332 18.1637 8.2043 17.9528C8.41528 17.7418 8.70143 17.6233 8.99979 17.6233H10.8748V12.4333L6.37479 7.48326V8.24826C6.37479 8.54663 6.25627 8.83278 6.04529 9.04376C5.83431 9.25474 5.54816 9.37326 5.24979 9.37326C4.95143 9.37326 4.66528 9.25474 4.4543 9.04376C4.24332 8.83278 4.12479 8.54663 4.12479 8.24826V5.24826C4.12482 5.17554 4.13204 5.103 4.14636 5.0317L3.66729 4.50483C3.56586 4.39586 3.48706 4.26785 3.43546 4.1282C3.38386 3.98856 3.36049 3.84006 3.3667 3.69132C3.37292 3.54258 3.40859 3.39655 3.47166 3.26169C3.53473 3.12684 3.62393 3.00585 3.73411 2.90572C3.84428 2.8056 3.97323 2.72834 4.11348 2.67842C4.25373 2.6285 4.4025 2.60691 4.55116 2.61491C4.69982 2.6229 4.84541 2.66033 4.97949 2.72501C5.11358 2.78969 5.2335 2.88034 5.33229 2.9917L20.3323 19.4917C20.5329 19.7125 20.6376 20.004 20.6234 20.302C20.6092 20.6 20.4771 20.8801 20.2564 21.0808ZM10.8748 6.37326V6.4267C10.8748 6.72507 10.9933 7.01122 11.2043 7.2222C11.4153 7.43317 11.7014 7.5517 11.9998 7.5517C12.2982 7.5517 12.5843 7.43317 12.7953 7.2222C13.0063 7.01122 13.1248 6.72507 13.1248 6.4267V6.37326H17.6248V8.24826C17.6248 8.54663 17.7433 8.83278 17.9543 9.04376C18.1653 9.25474 18.4514 9.37326 18.7498 9.37326C19.0482 9.37326 19.3343 9.25474 19.5453 9.04376C19.7563 8.83278 19.8748 8.54663 19.8748 8.24826V5.24826C19.8748 4.94989 19.7563 4.66375 19.5453 4.45277C19.3343 4.24179 19.0482 4.12326 18.7498 4.12326H10.931C10.6327 4.1158 10.3436 4.22718 10.1273 4.43288C9.91106 4.63858 9.78538 4.92177 9.77792 5.22014C9.77046 5.51851 9.88183 5.80762 10.0875 6.02387C10.2932 6.24012 10.5764 6.3658 10.8748 6.37326Z" fill="#130032"/>
</svg>
