<svg width="24" height="24" viewBox="0 0 24 24" fill="none" xmlns="http://www.w3.org/2000/svg">
<path d="M14.625 5.25V16.5C14.625 16.7984 14.5065 17.0845 14.2955 17.2955C14.0845 17.5065 13.7984 17.625 13.5 17.625C13.2016 17.625 12.9155 17.5065 12.7045 17.2955C12.4935 17.0845 12.375 16.7984 12.375 16.5V12H4.875V16.5C4.875 16.7984 4.75647 17.0845 4.5455 17.2955C4.33452 17.5065 4.04837 17.625 3.75 17.625C3.45163 17.625 3.16548 17.5065 2.9545 17.2955C2.74353 17.0845 2.625 16.7984 2.625 16.5V5.25C2.625 4.95163 2.74353 4.66548 2.9545 4.4545C3.16548 4.24353 3.45163 4.125 3.75 4.125C4.04837 4.125 4.33452 4.24353 4.5455 4.4545C4.75647 4.66548 4.875 4.95163 4.875 5.25V9.75H12.375V5.25C12.375 4.95163 12.4935 4.66548 12.7045 4.4545C12.9155 4.24353 13.2016 4.125 13.5 4.125C13.7984 4.125 14.0845 4.24353 14.2955 4.4545C14.5065 4.66548 14.625 4.95163 14.625 5.25ZM24 17.25C24 17.5484 23.8815 17.8345 23.6705 18.0455C23.4595 18.2565 23.1734 18.375 22.875 18.375V19.5C22.875 19.7984 22.7565 20.0845 22.5455 20.2955C22.3345 20.5065 22.0484 20.625 21.75 20.625C21.4516 20.625 21.1655 20.5065 20.9545 20.2955C20.7435 20.0845 20.625 19.7984 20.625 19.5V18.375H16.875C16.6682 18.3747 16.4654 18.3174 16.2891 18.2094C16.1127 18.1014 15.9695 17.9469 15.8752 17.7628C15.781 17.5787 15.7393 17.3722 15.7547 17.166C15.7702 16.9597 15.8422 16.7617 15.9628 16.5938L20.8378 9.84375C20.9769 9.65102 21.1735 9.50731 21.3994 9.43323C21.6252 9.35914 21.8687 9.35849 22.0949 9.43137C22.3212 9.50425 22.5185 9.64692 22.6587 9.8389C22.7988 10.0309 22.8745 10.2623 22.875 10.5V16.125C23.1734 16.125 23.4595 16.2435 23.6705 16.4545C23.8815 16.6655 24 16.9516 24 17.25ZM20.625 13.9791L19.0753 16.125H20.625V13.9791Z" fill="#130032"/>
</svg>
