<svg width="24" height="24" viewBox="0 0 24 24" fill="none" xmlns="http://www.w3.org/2000/svg">
<path d="M23.6252 19.5002C23.6252 19.7986 23.5066 20.0848 23.2957 20.2957C23.0847 20.5067 22.7985 20.6252 22.5002 20.6252H18.0002C17.7913 20.6252 17.5865 20.5671 17.4087 20.4572C17.231 20.3474 17.0874 20.1902 16.9939 20.0034C16.9005 19.8165 16.861 19.6073 16.8797 19.3992C16.8985 19.1911 16.9748 18.9924 17.1002 18.8252L21.1474 13.429C21.2365 13.311 21.3016 13.1766 21.3388 13.0335C21.376 12.8904 21.3846 12.7413 21.3641 12.5949C21.3437 12.4484 21.2945 12.3074 21.2195 12.18C21.1445 12.0525 21.0451 11.9411 20.9271 11.8521C20.7859 11.7457 20.6217 11.674 20.4476 11.6428C20.2736 11.6117 20.0947 11.622 19.9254 11.673C19.7561 11.7239 19.6012 11.8141 19.4732 11.9361C19.3453 12.0581 19.2479 12.2086 19.1889 12.3752C19.0895 12.6566 18.8823 12.8869 18.6131 13.0155C18.3438 13.1441 18.0345 13.1605 17.7531 13.061C17.4718 12.9616 17.2415 12.7544 17.1129 12.4852C16.9843 12.2159 16.9679 11.9066 17.0674 11.6252C17.183 11.3001 17.3473 10.9944 17.5549 10.7187C18.0937 10.0038 18.8944 9.53232 19.7808 9.40784C20.6673 9.28336 21.5669 9.51613 22.2817 10.0549C22.9966 10.5937 23.4681 11.3944 23.5926 12.2809C23.7171 13.1674 23.4843 14.067 22.9455 14.7818L20.2502 18.3752H22.5002C22.7985 18.3752 23.0847 18.4938 23.2957 18.7048C23.5066 18.9157 23.6252 19.2019 23.6252 19.5002ZM14.2371 4.39993C14.1254 4.30314 13.9958 4.2293 13.8556 4.18262C13.7154 4.13593 13.5673 4.11733 13.42 4.12786C13.2726 4.1384 13.1287 4.17786 12.9966 4.24401C12.8644 4.31016 12.7466 4.40169 12.6499 4.51337L8.62518 9.15775L4.60049 4.51337C4.40506 4.28785 4.12804 4.14921 3.83039 4.12793C3.53273 4.10666 3.23882 4.2045 3.0133 4.39993C2.78778 4.59536 2.64914 4.87238 2.62787 5.17003C2.60659 5.46769 2.70443 5.7616 2.89986 5.98712L7.13643 10.8752L2.89986 15.7634C2.70443 15.9889 2.60659 16.2828 2.62787 16.5805C2.64914 16.8781 2.78778 17.1551 3.0133 17.3506C3.23882 17.546 3.53273 17.6438 3.83039 17.6226C4.12804 17.6013 4.40506 17.4626 4.60049 17.2371L8.62518 12.5927L12.6499 17.2371C12.7466 17.3488 12.8644 17.4403 12.9966 17.5064C13.1287 17.5726 13.2726 17.612 13.42 17.6226C13.5673 17.6331 13.7154 17.6145 13.8556 17.5678C13.9958 17.5212 14.1254 17.4473 14.2371 17.3506C14.3487 17.2538 14.4402 17.136 14.5064 17.0038C14.5725 16.8717 14.612 16.7278 14.6225 16.5805C14.633 16.4331 14.6144 16.2851 14.5678 16.1449C14.5211 16.0047 14.4473 15.875 14.3505 15.7634L10.1139 10.8752L14.3505 5.98712C14.4473 5.87547 14.5211 5.74584 14.5678 5.60564C14.6145 5.46544 14.6331 5.31742 14.6226 5.17003C14.612 5.02264 14.5726 4.87877 14.5064 4.74663C14.4403 4.6145 14.3487 4.49669 14.2371 4.39993Z" fill="#130032"/>
</svg>
