<svg width="24" height="24" viewBox="0 0 24 24" fill="none" xmlns="http://www.w3.org/2000/svg">
<path d="M5.52094 16.7686C5.65478 16.832 5.79981 16.8683 5.94772 16.8755C6.09564 16.8827 6.24351 16.8606 6.38287 16.8105C6.52223 16.7605 6.65033 16.6834 6.75983 16.5837C6.86932 16.4839 6.95806 16.3636 7.02094 16.2295L8.47875 13.1255H15.5212L16.9819 16.2295C17.1089 16.4996 17.338 16.7081 17.6188 16.8091C17.8996 16.9102 18.209 16.8957 18.4791 16.7686C18.7491 16.6415 18.9576 16.4124 19.0587 16.1316C19.1598 15.8509 19.1452 15.5414 19.0181 15.2714L13.0181 2.52141C12.9273 2.32814 12.7833 2.16472 12.603 2.05025C12.4227 1.93579 12.2136 1.875 12 1.875C11.7864 1.875 11.5773 1.93579 11.397 2.05025C11.2167 2.16472 11.0727 2.32814 10.9819 2.52141L4.98187 15.2714C4.91894 15.4051 4.88295 15.5499 4.87598 15.6975C4.86901 15.8451 4.89119 15.9926 4.94125 16.1317C4.99131 16.2707 5.06827 16.3985 5.16773 16.5078C5.2672 16.6171 5.38722 16.7057 5.52094 16.7686ZM12 5.64235L14.4628 10.8755H9.53719L12 5.64235ZM21.375 20.2505C21.375 20.5488 21.2565 20.835 21.0455 21.046C20.8345 21.2569 20.5484 21.3755 20.25 21.3755H3.75C3.45163 21.3755 3.16548 21.2569 2.9545 21.046C2.74353 20.835 2.625 20.5488 2.625 20.2505C2.625 19.9521 2.74353 19.666 2.9545 19.455C3.16548 19.244 3.45163 19.1255 3.75 19.1255H20.25C20.5484 19.1255 20.8345 19.244 21.0455 19.455C21.2565 19.666 21.375 19.9521 21.375 20.2505Z" fill="#130032"/>
</svg>
