<svg width="24" height="24" viewBox="0 0 24 24" fill="none" xmlns="http://www.w3.org/2000/svg">
<path d="M19.875 4.875C19.2817 4.875 18.7016 5.05095 18.2083 5.38059C17.7149 5.71024 17.3304 6.17877 17.1034 6.72695C16.8763 7.27513 16.8169 7.87833 16.9326 8.46027C17.0484 9.04221 17.3341 9.57676 17.7537 9.99632C18.1732 10.4159 18.7078 10.7016 19.2897 10.8174C19.8717 10.9331 20.4749 10.8737 21.0231 10.6466C21.5712 10.4196 22.0398 10.0351 22.3694 9.54171C22.6991 9.04836 22.875 8.46834 22.875 7.875C22.875 7.07935 22.5589 6.31629 21.9963 5.75368C21.4337 5.19107 20.6707 4.875 19.875 4.875ZM19.875 8.625C19.7267 8.625 19.5817 8.58101 19.4583 8.4986C19.335 8.41619 19.2389 8.29906 19.1821 8.16201C19.1253 8.02497 19.1105 7.87417 19.1394 7.72868C19.1684 7.5832 19.2398 7.44956 19.3447 7.34467C19.4496 7.23978 19.5832 7.16835 19.7287 7.13941C19.8742 7.11047 20.025 7.12532 20.162 7.18209C20.2991 7.23886 20.4162 7.33499 20.4986 7.45832C20.581 7.58166 20.625 7.72666 20.625 7.875C20.625 8.07391 20.546 8.26468 20.4053 8.40533C20.2647 8.54598 20.0739 8.625 19.875 8.625ZM15 5.25C15 3.95707 14.4864 2.71709 13.5721 1.80285C12.6579 0.888615 11.4179 0.375 10.125 0.375C8.83207 0.375 7.5921 0.888615 6.67786 1.80285C5.76362 2.71709 5.25 3.95707 5.25 5.25V14.1272C4.6067 15.0238 4.22313 16.0804 4.14146 17.1809C4.05979 18.2814 4.28319 19.3831 4.78709 20.3648C5.29099 21.3465 6.05588 22.1703 6.99762 22.7455C7.93937 23.3206 9.0215 23.625 10.125 23.625C11.2285 23.625 12.3106 23.3206 13.2524 22.7455C14.1941 22.1703 14.959 21.3465 15.4629 20.3648C15.9668 19.3831 16.1902 18.2814 16.1085 17.1809C16.0269 16.0804 15.6433 15.0238 15 14.1272V5.25ZM10.125 21.375C9.41449 21.375 8.71859 21.1732 8.11835 20.793C7.51811 20.4128 7.03822 19.87 6.73458 19.2276C6.43093 18.5852 6.31603 17.8698 6.40324 17.1647C6.49045 16.4596 6.77619 15.7937 7.22719 15.2447C7.4031 15.0406 7.49991 14.7801 7.5 14.5106V5.25C7.5 4.55381 7.77656 3.88613 8.26885 3.39384C8.76113 2.90156 9.42881 2.625 10.125 2.625C10.8212 2.625 11.4889 2.90156 11.9812 3.39384C12.4734 3.88613 12.75 4.55381 12.75 5.25V14.5097C12.7498 14.7727 12.8416 15.0274 13.0097 15.2297C13.4645 15.7776 13.754 16.4437 13.8442 17.15C13.9344 17.8564 13.8216 18.5739 13.519 19.2185C13.2164 19.8631 12.7365 20.4082 12.1355 20.7901C11.5345 21.172 10.8371 21.3749 10.125 21.375ZM12.375 17.625C12.3751 18.02 12.2712 18.408 12.0737 18.7501C11.8763 19.0922 11.5923 19.3763 11.2503 19.5738C10.9083 19.7714 10.5202 19.8754 10.1253 19.8754C9.7303 19.8755 9.34227 19.7716 9.00019 19.5741C8.65811 19.3766 8.37404 19.0926 8.17653 18.7506C7.97901 18.4085 7.87502 18.0205 7.875 17.6255C7.87498 17.2306 7.97894 16.8425 8.17642 16.5005C8.3739 16.1584 8.65794 15.8744 9 15.6769V8.625C9 8.32663 9.11853 8.04048 9.32951 7.8295C9.54049 7.61853 9.82663 7.5 10.125 7.5C10.4234 7.5 10.7095 7.61853 10.9205 7.8295C11.1315 8.04048 11.25 8.32663 11.25 8.625V15.6769C11.592 15.8743 11.876 16.1583 12.0735 16.5002C12.2709 16.8422 12.3749 17.2301 12.375 17.625Z" fill="#130032"/>
</svg>
