<svg width="24" height="24" viewBox="0 0 24 24" fill="none" xmlns="http://www.w3.org/2000/svg">
<path d="M15 5.25C15 3.95707 14.4864 2.71709 13.5721 1.80285C12.6579 0.888615 11.4179 0.375 10.125 0.375C8.83207 0.375 7.5921 0.888615 6.67786 1.80285C5.76362 2.71709 5.25 3.95707 5.25 5.25V14.1272C4.6067 15.0238 4.22313 16.0804 4.14146 17.1809C4.05979 18.2814 4.28319 19.3831 4.78709 20.3648C5.29099 21.3465 6.05588 22.1703 6.99762 22.7455C7.93937 23.3206 9.0215 23.625 10.125 23.625C11.2285 23.625 12.3106 23.3206 13.2524 22.7455C14.1941 22.1703 14.959 21.3465 15.4629 20.3648C15.9668 19.3831 16.1902 18.2814 16.1085 17.1809C16.0269 16.0804 15.6433 15.0238 15 14.1272V5.25ZM10.125 21.375C9.41449 21.375 8.71859 21.1732 8.11835 20.793C7.51811 20.4128 7.03822 19.87 6.73458 19.2276C6.43093 18.5852 6.31603 17.8698 6.40324 17.1647C6.49045 16.4596 6.77619 15.7937 7.22719 15.2447C7.4031 15.0406 7.49991 14.7801 7.5 14.5106V5.25C7.5 4.55381 7.77656 3.88613 8.26885 3.39384C8.76113 2.90156 9.42881 2.625 10.125 2.625C10.8212 2.625 11.4889 2.90156 11.9812 3.39384C12.4734 3.88613 12.75 4.55381 12.75 5.25V14.5097C12.7498 14.7727 12.8416 15.0274 13.0097 15.2297C13.4645 15.7776 13.754 16.4437 13.8442 17.15C13.9344 17.8564 13.8216 18.5739 13.519 19.2185C13.2164 19.8631 12.7365 20.4082 12.1355 20.7901C11.5345 21.172 10.8371 21.3749 10.125 21.375ZM12.375 17.625C12.3751 18.02 12.2712 18.408 12.0737 18.7501C11.8763 19.0922 11.5923 19.3763 11.2503 19.5738C10.9083 19.7714 10.5202 19.8754 10.1253 19.8754C9.7303 19.8755 9.34227 19.7716 9.00019 19.5741C8.65811 19.3766 8.37404 19.0926 8.17653 18.7506C7.97901 18.4085 7.87502 18.0205 7.875 17.6255C7.87498 17.2306 7.97894 16.8425 8.17642 16.5005C8.3739 16.1584 8.65794 15.8744 9 15.6769V5.25C9 4.95163 9.11853 4.66548 9.32951 4.4545C9.54049 4.24353 9.82663 4.125 10.125 4.125C10.4234 4.125 10.7095 4.24353 10.9205 4.4545C11.1315 4.66548 11.25 4.95163 11.25 5.25V15.6769C11.592 15.8743 11.876 16.1583 12.0735 16.5002C12.2709 16.8422 12.3749 17.2301 12.375 17.625ZM16.3069 7.78125C16.1442 7.53122 16.0875 7.22683 16.1492 6.93499C16.2109 6.64316 16.386 6.38778 16.6359 6.225C18.2128 5.19375 19.4784 5.7375 20.3166 6.09469C21.075 6.41906 21.3413 6.50437 21.8859 6.14906C22.1359 5.9862 22.4404 5.92933 22.7324 5.99095C23.0243 6.05258 23.2798 6.22765 23.4427 6.47766C23.6055 6.72766 23.6624 7.03213 23.6008 7.32407C23.5391 7.61601 23.3641 7.87152 23.1141 8.03437C22.4325 8.47312 21.81 8.625 21.2541 8.625C20.5238 8.625 19.9097 8.3625 19.4334 8.15625C18.675 7.83187 18.4088 7.74656 17.8641 8.10187C17.615 8.26564 17.3111 8.32386 17.0191 8.26374C16.7272 8.20363 16.471 8.03009 16.3069 7.78125ZM23.4422 10.2281C23.605 10.478 23.6618 10.7824 23.6003 11.0742C23.5388 11.366 23.3639 11.6214 23.1141 11.7844C22.4325 12.2278 21.81 12.3797 21.2541 12.3797C20.5238 12.3797 19.9097 12.1172 19.4334 11.9109C18.675 11.5866 18.4088 11.5013 17.8641 11.8566C17.6141 12.0194 17.3096 12.0763 17.0177 12.0147C16.7257 11.953 16.4702 11.778 16.3073 11.528C16.1445 11.278 16.0876 10.9735 16.1492 10.6816C16.2109 10.3896 16.3859 10.1341 16.6359 9.97125C18.2128 8.94 19.4784 9.48375 20.3166 9.84094C21.075 10.1653 21.3413 10.2506 21.8859 9.89531C22.1359 9.73255 22.4402 9.67569 22.732 9.73722C23.0238 9.79874 23.2793 9.97363 23.4422 10.2234V10.2281Z" fill="#130032"/>
</svg>
