<svg width="24" height="24" viewBox="0 0 24 24" fill="none" xmlns="http://www.w3.org/2000/svg">
<path d="M15 5.25C15 3.95707 14.4864 2.71709 13.5721 1.80285C12.6579 0.888615 11.4179 0.375 10.125 0.375C8.83207 0.375 7.5921 0.888615 6.67786 1.80285C5.76362 2.71709 5.25 3.95707 5.25 5.25V14.1272C4.6067 15.0238 4.22313 16.0804 4.14146 17.1809C4.05979 18.2814 4.28319 19.3831 4.78709 20.3648C5.29099 21.3465 6.05588 22.1703 6.99762 22.7455C7.93937 23.3206 9.0215 23.625 10.125 23.625C11.2285 23.625 12.3106 23.3206 13.2524 22.7455C14.1941 22.1703 14.959 21.3465 15.4629 20.3648C15.9668 19.3831 16.1902 18.2814 16.1085 17.1809C16.0269 16.0804 15.6433 15.0238 15 14.1272V5.25ZM10.125 21.375C9.41449 21.375 8.71859 21.1732 8.11835 20.793C7.51811 20.4128 7.03822 19.87 6.73458 19.2276C6.43093 18.5852 6.31603 17.8698 6.40324 17.1647C6.49045 16.4596 6.77619 15.7937 7.22719 15.2447C7.4031 15.0406 7.49991 14.7801 7.5 14.5106V5.25C7.5 4.55381 7.77656 3.88613 8.26885 3.39384C8.76113 2.90156 9.42881 2.625 10.125 2.625C10.8212 2.625 11.4889 2.90156 11.9812 3.39384C12.4734 3.88613 12.75 4.55381 12.75 5.25V14.5097C12.7498 14.7727 12.8416 15.0274 13.0097 15.2297C13.4645 15.7776 13.754 16.4437 13.8442 17.15C13.9344 17.8564 13.8216 18.5739 13.519 19.2185C13.2164 19.8631 12.7365 20.4082 12.1355 20.7901C11.5345 21.172 10.8371 21.3749 10.125 21.375ZM23.0756 7.6425L21.6956 8.09156L22.5488 9.26531C22.7242 9.50674 22.7965 9.80797 22.7498 10.1027C22.7031 10.3975 22.5413 10.6616 22.2998 10.837C22.0584 11.0124 21.7572 11.0848 21.4624 11.0381C21.1677 10.9914 20.9035 10.8296 20.7281 10.5881L19.875 9.41438L19.0219 10.5881C18.8465 10.8296 18.5823 10.9914 18.2876 11.0381C17.9928 11.0848 17.6916 11.0124 17.4502 10.837C17.2087 10.6616 17.0469 10.3975 17.0002 10.1027C16.9535 9.80797 17.0258 9.50674 17.2013 9.26531L18.0544 8.09156L16.6744 7.6425C16.5306 7.59964 16.3968 7.52845 16.281 7.43313C16.1651 7.3378 16.0695 7.22026 15.9997 7.08743C15.93 6.9546 15.8875 6.80915 15.8748 6.65966C15.8621 6.51016 15.8794 6.35963 15.9257 6.21693C15.9721 6.07423 16.0465 5.94224 16.1446 5.82873C16.2427 5.71521 16.3625 5.62247 16.497 5.55596C16.6315 5.48945 16.7779 5.45051 16.9277 5.44144C17.0775 5.43236 17.2275 5.45334 17.3691 5.50313L18.75 5.95125V4.5C18.75 4.20163 18.8685 3.91548 19.0795 3.7045C19.2905 3.49353 19.5766 3.375 19.875 3.375C20.1734 3.375 20.4595 3.49353 20.6705 3.7045C20.8815 3.91548 21 4.20163 21 4.5V5.95125L22.3809 5.50313C22.5225 5.45334 22.6725 5.43236 22.8223 5.44144C22.9721 5.45051 23.1185 5.48945 23.253 5.55596C23.3875 5.62247 23.5073 5.71521 23.6054 5.82873C23.7035 5.94224 23.7779 6.07423 23.8243 6.21693C23.8706 6.35963 23.8879 6.51016 23.8752 6.65966C23.8625 6.80915 23.82 6.9546 23.7503 7.08743C23.6805 7.22026 23.5849 7.3378 23.469 7.43313C23.3532 7.52845 23.2194 7.59964 23.0756 7.6425ZM12.375 17.625C12.3751 18.02 12.2712 18.408 12.0737 18.7501C11.8763 19.0922 11.5923 19.3763 11.2503 19.5738C10.9083 19.7714 10.5202 19.8754 10.1253 19.8754C9.7303 19.8755 9.34227 19.7716 9.00019 19.5741C8.65811 19.3766 8.37404 19.0926 8.17653 18.7506C7.97901 18.4085 7.87502 18.0205 7.875 17.6255C7.87498 17.2306 7.97894 16.8425 8.17642 16.5005C8.3739 16.1584 8.65794 15.8744 9 15.6769V12.375C9 12.0766 9.11853 11.7905 9.32951 11.5795C9.54049 11.3685 9.82663 11.25 10.125 11.25C10.4234 11.25 10.7095 11.3685 10.9205 11.5795C11.1315 11.7905 11.25 12.0766 11.25 12.375V15.6769C11.592 15.8743 11.876 16.1583 12.0735 16.5002C12.2709 16.8422 12.3749 17.2301 12.375 17.625Z" fill="#130032"/>
</svg>
