<svg width="24" height="24" viewBox="0 0 24 24" fill="none" xmlns="http://www.w3.org/2000/svg">
<path d="M8.25 13.875C8.25 13.4772 8.09196 13.0956 7.81066 12.8143C7.52936 12.533 7.14782 12.375 6.75 12.375C6.54424 12.375 6.34242 12.3185 6.16651 12.2118C5.99061 12.105 5.84735 11.952 5.75232 11.7695C5.6573 11.587 5.61415 11.382 5.62757 11.1766C5.64099 10.9713 5.71047 10.7736 5.82844 10.605L7.21875 8.625H4.875C4.57663 8.625 4.29048 8.50647 4.0795 8.2955C3.86853 8.08452 3.75 7.79837 3.75 7.5C3.75 7.20163 3.86853 6.91548 4.0795 6.7045C4.29048 6.49353 4.57663 6.375 4.875 6.375H9.375C9.58076 6.37503 9.78258 6.4315 9.95849 6.53825C10.1344 6.645 10.2777 6.79795 10.3727 6.98046C10.4677 7.16297 10.5108 7.36805 10.4974 7.57337C10.484 7.7787 10.4145 7.97641 10.2966 8.145L8.57719 10.6013C9.04697 10.8631 9.45492 11.223 9.77336 11.6565C10.0918 12.0899 10.3133 12.5868 10.4227 13.1134C10.5322 13.64 10.5271 14.184 10.4078 14.7084C10.2885 15.2329 10.0578 15.7255 9.73135 16.153C9.40487 16.5804 8.99026 16.9326 8.51566 17.1856C8.04107 17.4387 7.51759 17.5867 6.98075 17.6196C6.4439 17.6526 5.90626 17.5696 5.4043 17.3764C4.90235 17.1832 4.44782 16.8843 4.07156 16.5C3.96815 16.3945 3.88652 16.2696 3.83136 16.1326C3.77619 15.9955 3.74856 15.849 3.75004 15.7012C3.75152 15.5535 3.78208 15.4075 3.83998 15.2716C3.89788 15.1357 3.98199 15.0125 4.0875 14.9091C4.19301 14.8056 4.31785 14.724 4.45491 14.6689C4.59196 14.6137 4.73854 14.5861 4.88627 14.5875C5.034 14.589 5.18 14.6196 5.31592 14.6775C5.45184 14.7354 5.57502 14.8195 5.67844 14.925C5.88698 15.1379 6.15422 15.2839 6.44606 15.3442C6.7379 15.4046 7.04111 15.3767 7.31702 15.2641C7.59293 15.1514 7.82903 14.9591 7.9952 14.7117C8.16136 14.4643 8.25007 14.173 8.25 13.875ZM15.375 6.375C16.8668 6.375 18.2976 6.96763 19.3525 8.02252C20.4074 9.07742 21 10.5082 21 12C21 13.4918 20.4074 14.9226 19.3525 15.9775C18.2976 17.0324 16.8668 17.625 15.375 17.625H13.125C12.8266 17.625 12.5405 17.5065 12.3295 17.2955C12.1185 17.0845 12 16.7984 12 16.5V7.5C12 7.20163 12.1185 6.91548 12.3295 6.7045C12.5405 6.49353 12.8266 6.375 13.125 6.375H15.375ZM15.375 8.625H14.25V15.375H15.375C16.2701 15.375 17.1285 15.0194 17.7615 14.3865C18.3944 13.7535 18.75 12.8951 18.75 12C18.75 11.1049 18.3944 10.2464 17.7615 9.61351C17.1285 8.98058 16.2701 8.625 15.375 8.625ZM3 5.25H21C21.2984 5.25 21.5845 5.13147 21.7955 4.9205C22.0065 4.70952 22.125 4.42337 22.125 4.125C22.125 3.82663 22.0065 3.54048 21.7955 3.3295C21.5845 3.11853 21.2984 3 21 3H3C2.70163 3 2.41548 3.11853 2.2045 3.3295C1.99353 3.54048 1.875 3.82663 1.875 4.125C1.875 4.42337 1.99353 4.70952 2.2045 4.9205C2.41548 5.13147 2.70163 5.25 3 5.25ZM21 18.75H3C2.70163 18.75 2.41548 18.8685 2.2045 19.0795C1.99353 19.2905 1.875 19.5766 1.875 19.875C1.875 20.1734 1.99353 20.4595 2.2045 20.6705C2.41548 20.8815 2.70163 21 3 21H21C21.2984 21 21.5845 20.8815 21.7955 20.6705C22.0065 20.4595 22.125 20.1734 22.125 19.875C22.125 19.5766 22.0065 19.2905 21.7955 19.0795C21.5845 18.8685 21.2984 18.75 21 18.75Z" fill="#130032"/>
</svg>
