<svg width="24" height="24" viewBox="0 0 24 24" fill="none" xmlns="http://www.w3.org/2000/svg">
<g clip-path="url(#clip0_7_19133)">
<path d="M23.6707 8.20589L20.1082 4.64339C20.0037 4.53851 19.8795 4.45529 19.7428 4.39851C19.606 4.34173 19.4594 4.3125 19.3114 4.3125C19.1633 4.3125 19.0167 4.34173 18.8799 4.39851C18.7432 4.45529 18.619 4.53851 18.5145 4.64339L15.7498 7.40807L12.7957 4.45589C12.6912 4.35101 12.567 4.26779 12.4303 4.21101C12.2935 4.15423 12.1469 4.125 11.9989 4.125C11.8508 4.125 11.7042 4.15423 11.5674 4.21101C11.4307 4.26779 11.3065 4.35101 11.202 4.45589L8.24979 7.40807L5.48323 4.64339C5.37871 4.53851 5.25452 4.45529 5.11778 4.39851C4.98103 4.34173 4.83442 4.3125 4.68636 4.3125C4.53829 4.3125 4.39168 4.34173 4.25493 4.39851C4.11819 4.45529 3.994 4.53851 3.88948 4.64339L0.326981 8.20589C0.222101 8.3104 0.138884 8.4346 0.0821034 8.57134C0.0253223 8.70809 -0.00390625 8.8547 -0.00390625 9.00276C-0.00390625 9.15083 0.0253223 9.29744 0.0821034 9.43418C0.138884 9.57093 0.222101 9.69512 0.326981 9.79964L3.88948 13.3621C3.994 13.467 4.11819 13.5502 4.25493 13.607C4.39168 13.6638 4.53829 13.693 4.68636 13.693C4.83442 13.693 4.98103 13.6638 5.11778 13.607C5.25452 13.5502 5.37871 13.467 5.48323 13.3621L8.24979 10.5956L10.406 12.7518L7.45386 15.7059C7.34898 15.8104 7.26576 15.9346 7.20898 16.0713C7.1522 16.2081 7.12297 16.3547 7.12297 16.5028C7.12297 16.6508 7.1522 16.7974 7.20898 16.9342C7.26576 17.0709 7.34898 17.1951 7.45386 17.2996L11.2039 21.0496C11.3084 21.1545 11.4326 21.2377 11.5693 21.2945C11.7061 21.3513 11.8527 21.3805 12.0007 21.3805C12.1488 21.3805 12.2954 21.3513 12.4322 21.2945C12.5689 21.2377 12.6931 21.1545 12.7976 21.0496L16.5476 17.2996C16.6525 17.1951 16.7357 17.0709 16.7925 16.9342C16.8493 16.7974 16.8785 16.6508 16.8785 16.5028C16.8785 16.3547 16.8493 16.2081 16.7925 16.0713C16.7357 15.9346 16.6525 15.8104 16.5476 15.7059L13.5935 12.7518L15.7498 10.5956L18.5164 13.3631C18.6209 13.468 18.7451 13.5512 18.8818 13.608C19.0186 13.6647 19.1652 13.694 19.3132 13.694C19.4613 13.694 19.6079 13.6647 19.7447 13.608C19.8814 13.5512 20.0056 13.468 20.1101 13.3631L23.6726 9.80057C23.7775 9.69592 23.8607 9.57157 23.9174 9.43467C23.9741 9.29777 24.0032 9.15102 24.003 9.00284C24.0029 8.85466 23.9734 8.70798 23.9164 8.57121C23.8594 8.43445 23.7759 8.3103 23.6707 8.20589ZM4.68729 10.9706L2.71854 9.00182L4.68729 7.03307L6.65604 9.00182L4.68729 10.9706ZM11.9998 18.6581L9.84354 16.5018L11.9998 14.3456L14.156 16.5018L11.9998 18.6581ZM11.9998 11.1581L9.84354 9.00182L11.9998 6.84557L14.156 9.00182L11.9998 11.1581ZM19.3123 10.9706L17.3435 9.00182L19.3123 7.03307L21.281 9.00182L19.3123 10.9706Z" fill="#130032"/>
</g>
<defs>
<clipPath id="clip0_7_19133">
<rect width="24" height="24" fill="white"/>
</clipPath>
</defs>
</svg>
