<svg width="24" height="24" viewBox="0 0 24 24" fill="none" xmlns="http://www.w3.org/2000/svg">
<path d="M21 6.375C19.9064 6.37376 18.8579 5.93876 18.0846 5.16545C17.3112 4.39213 16.8762 3.34364 16.875 2.25C16.875 1.95163 16.7565 1.66548 16.5455 1.4545C16.3345 1.24353 16.0484 1.125 15.75 1.125H12C11.7016 1.125 11.4155 1.24353 11.2045 1.4545C10.9935 1.66548 10.875 1.95163 10.875 2.25V14.625C10.8748 14.8934 10.8026 15.1569 10.6659 15.3879C10.5292 15.6189 10.333 15.809 10.0978 15.9384C9.86263 16.0677 9.59703 16.1316 9.32873 16.1233C9.06043 16.115 8.79927 16.0349 8.57249 15.8913C8.34571 15.7477 8.16162 15.5458 8.03943 15.3068C7.91724 15.0678 7.86142 14.8004 7.87779 14.5325C7.89417 14.2646 7.98215 14.0059 8.13254 13.7836C8.28293 13.5613 8.49023 13.3834 8.73281 13.2684C8.92501 13.1771 9.08736 13.0332 9.20103 12.8533C9.3147 12.6734 9.37502 12.465 9.375 12.2522V8.25C9.37493 8.08563 9.33885 7.92327 9.26929 7.77435C9.19973 7.62543 9.09838 7.49355 8.97237 7.38801C8.84636 7.28247 8.69876 7.20582 8.53994 7.16346C8.38113 7.12109 8.21496 7.11405 8.05313 7.14281C6.32038 7.45978 4.75632 8.38134 3.63937 9.74344C2.50198 11.1162 1.87813 12.8422 1.875 14.625C1.875 16.6141 2.66518 18.5218 4.0717 19.9283C5.47822 21.3348 7.38588 22.125 9.375 22.125C11.3641 22.125 13.2718 21.3348 14.6783 19.9283C16.0848 18.5218 16.875 16.6141 16.875 14.625V11.5003C18.1729 12.0796 19.5787 12.3777 21 12.375C21.2984 12.375 21.5845 12.2565 21.7955 12.0455C22.0065 11.8345 22.125 11.5484 22.125 11.25V7.5C22.125 7.20163 22.0065 6.91548 21.7955 6.7045C21.5845 6.49353 21.2984 6.375 21 6.375ZM19.875 10.0453C18.6224 9.86811 17.4318 9.38833 16.4062 8.6475C16.2381 8.52672 16.0398 8.45469 15.8333 8.43935C15.6269 8.42401 15.4201 8.46596 15.236 8.56057C15.0518 8.65518 14.8973 8.79878 14.7895 8.97556C14.6817 9.15234 14.6248 9.35544 14.625 9.5625V14.625C14.625 16.0174 14.0719 17.3527 13.0873 18.3373C12.1027 19.3219 10.7674 19.875 9.375 19.875C7.98261 19.875 6.64726 19.3219 5.66269 18.3373C4.67812 17.3527 4.125 16.0174 4.125 14.625C4.12847 13.6205 4.41077 12.6367 4.94047 11.7833C5.47016 10.9298 6.22643 10.2402 7.125 9.79125V11.625C6.61363 12.0085 6.20879 12.5164 5.94891 13.1004C5.68903 13.6844 5.58275 14.3251 5.64015 14.9618C5.69756 15.5984 5.91674 16.2098 6.2769 16.7379C6.63705 17.266 7.12622 17.6932 7.69795 17.9791C8.26968 18.265 8.90499 18.3999 9.54356 18.3712C10.1821 18.3425 10.8027 18.151 11.3465 17.8149C11.8902 17.4789 12.3391 17.0094 12.6503 16.4511C12.9616 15.8928 13.125 15.2642 13.125 14.625V3.375H14.7244C14.9567 4.65569 15.5743 5.83499 16.4946 6.75535C17.415 7.67571 18.5943 8.29331 19.875 8.52563V10.0453Z" fill="#130032"/>
</svg>
