<svg width="24" height="24" viewBox="0 0 24 24" fill="none" xmlns="http://www.w3.org/2000/svg">
<path d="M21.1262 12.4785C19.6993 14.2532 18.2733 15.1972 16.7668 15.3519C16.6157 15.3676 16.464 15.3754 16.3121 15.3754C14.3612 15.3754 12.7346 14.0507 11.288 12.8722C9.95304 11.7847 8.69304 10.7591 7.46772 10.8866C6.5996 10.9804 5.64335 11.6666 4.62522 12.9322C4.43379 13.1489 4.16633 13.2835 3.8783 13.3082C3.59028 13.3328 3.3038 13.2457 3.0783 13.0648C2.85281 12.8839 2.70559 12.6232 2.6672 12.3367C2.6288 12.0502 2.70218 11.7599 2.8721 11.526C4.29991 9.75036 5.72585 8.81286 7.23241 8.6488C9.38866 8.42193 11.153 9.86005 12.7102 11.1285C14.0452 12.216 15.3052 13.2416 16.5305 13.1141C17.3987 13.0204 18.3549 12.3341 19.373 11.0685C19.4625 10.9453 19.5761 10.8416 19.7069 10.7636C19.8376 10.6856 19.9828 10.635 20.1338 10.6147C20.2847 10.5945 20.4381 10.6051 20.5848 10.6459C20.7315 10.6868 20.8683 10.7569 20.9871 10.8522C21.1059 10.9475 21.2041 11.0659 21.2757 11.2002C21.3474 11.3345 21.3911 11.482 21.4041 11.6337C21.4171 11.7854 21.3991 11.9381 21.3514 12.0827C21.3036 12.2273 21.227 12.3607 21.1262 12.4747V12.4785Z" fill="#130032"/>
</svg>
