<svg width="24" height="24" viewBox="0 0 24 24" fill="none" xmlns="http://www.w3.org/2000/svg">
<path d="M22.6979 19.6437L13.336 5.01873L15.1979 2.11248C15.3595 1.8611 15.4146 1.55582 15.3512 1.26379C15.2877 0.971761 15.1108 0.716906 14.8594 0.555289C14.6081 0.393673 14.3028 0.338535 14.0107 0.402004C13.7187 0.465473 13.4639 0.642351 13.3022 0.893727L12.0001 2.92904L10.6979 0.893727C10.537 0.642351 10.2829 0.465177 9.99136 0.40118C9.69986 0.337183 9.39487 0.391606 9.1435 0.552477C8.89212 0.713347 8.71495 0.967487 8.65095 1.25899C8.58696 1.55049 8.64138 1.85548 8.80225 2.10685L10.6641 5.0131L1.30225 19.6381C1.19191 19.8082 1.1296 20.005 1.1219 20.2076C1.11421 20.4102 1.16141 20.6111 1.25852 20.7891C1.35563 20.9671 1.49904 21.1155 1.67358 21.2187C1.84812 21.3219 2.0473 21.376 2.25006 21.3753H21.7501C21.9519 21.3753 22.1501 21.3211 22.3238 21.2182C22.4975 21.1153 22.6403 20.9675 22.7372 20.7905C22.8342 20.6134 22.8817 20.4135 22.8747 20.2117C22.8678 20.0099 22.8067 19.8138 22.6979 19.6437ZM9.016 19.1253L12.0001 14.4622L14.9841 19.1253H9.016ZM17.656 19.1253L12.9479 11.7687C12.8461 11.6096 12.706 11.4787 12.5404 11.388C12.3747 11.2973 12.1889 11.2498 12.0001 11.2498C11.8112 11.2498 11.6254 11.2973 11.4598 11.388C11.2941 11.4787 11.154 11.6096 11.0522 11.7687L6.34412 19.1253H4.306L12.0001 7.10279L19.6941 19.1253H17.656Z" fill="#130032"/>
</svg>
