<svg width="24" height="24" viewBox="0 0 24 24" fill="none" xmlns="http://www.w3.org/2000/svg">
<path d="M14.25 12C14.25 9.92906 14.9213 8.25 15.75 8.25C16.5787 8.25 17.25 9.92906 17.25 12C17.25 14.0709 16.5787 15.75 15.75 15.75C14.9213 15.75 14.25 14.0709 14.25 12ZM22.875 21C22.875 21.2984 22.7565 21.5845 22.5455 21.7955C22.3345 22.0065 22.0484 22.125 21.75 22.125H8.625C6.89062 22.125 5.31563 20.9794 4.18875 18.9C3.18 17.0381 2.625 14.5875 2.625 12C2.625 9.4125 3.18 6.96187 4.18875 5.1C5.31563 3.02063 6.89062 1.875 8.625 1.875H15.375C17.1094 1.875 18.6844 3.02063 19.8113 5.1C20.82 6.96187 21.375 9.4125 21.375 12C21.375 14.5875 20.82 17.0381 19.8113 18.9C19.629 19.2378 19.4252 19.5635 19.2009 19.875H21.75C22.0484 19.875 22.3345 19.9935 22.5455 20.2045C22.7565 20.4155 22.875 20.7016 22.875 21ZM15.375 4.125C13.6012 4.125 11.625 7.35938 11.625 12C11.625 16.6406 13.6012 19.875 15.375 19.875C17.1488 19.875 19.125 16.6406 19.125 12C19.125 7.35938 17.1488 4.125 15.375 4.125ZM5.09344 14.5866L6.84375 13.335C7.03446 13.1989 7.2629 13.1258 7.49719 13.1258C7.73147 13.1258 7.95991 13.1989 8.15063 13.335L9.525 14.3156C9.42385 13.5479 9.37374 12.7743 9.375 12C9.375 11.6616 9.38531 11.325 9.40406 10.9922L7.5 9.63281L4.88344 11.5013C4.875 11.6663 4.875 11.8322 4.875 12C4.87298 12.8669 4.94607 13.7323 5.09344 14.5866ZM5.30063 8.4375L6.84375 7.335C7.03446 7.19892 7.2629 7.12578 7.49719 7.12578C7.73147 7.12578 7.95991 7.19892 8.15063 7.335L9.73594 8.46656C9.97442 7.29319 10.3785 6.15967 10.9359 5.1C11.1191 4.76212 11.3239 4.43644 11.5491 4.125H8.625C7.35375 4.125 5.97844 5.78719 5.30063 8.4375ZM8.625 19.875H11.5491C11.3248 19.5635 11.121 19.2378 10.9388 18.9C10.7266 18.5085 10.5387 18.1043 10.3763 17.6897L7.5 15.6328L5.73187 16.8956C6.46875 18.7575 7.5825 19.875 8.625 19.875Z" fill="#130032"/>
</svg>
