<svg width="24" height="24" viewBox="0 0 24 24" fill="none" xmlns="http://www.w3.org/2000/svg">
<path d="M16.5 4.875H7.5C5.61033 4.875 3.79806 5.62567 2.46186 6.96186C1.12567 8.29806 0.375 10.1103 0.375 12C0.375 13.8897 1.12567 15.7019 2.46186 17.0381C3.79806 18.3743 5.61033 19.125 7.5 19.125H16.5C18.3897 19.125 20.2019 18.3743 21.5381 17.0381C22.8743 15.7019 23.625 13.8897 23.625 12C23.625 10.1103 22.8743 8.29806 21.5381 6.96186C20.2019 5.62567 18.3897 4.875 16.5 4.875ZM16.5 16.875H7.5C6.20707 16.875 4.96709 16.3614 4.05285 15.4471C3.13861 14.5329 2.625 13.2929 2.625 12C2.625 10.7071 3.13861 9.46709 4.05285 8.55285C4.96709 7.63861 6.20707 7.125 7.5 7.125H16.5C17.7929 7.125 19.0329 7.63861 19.9471 8.55285C20.8614 9.46709 21.375 10.7071 21.375 12C21.375 13.2929 20.8614 14.5329 19.9471 15.4471C19.0329 16.3614 17.7929 16.875 16.5 16.875ZM16.5 8.25C15.7583 8.25 15.0333 8.46993 14.4166 8.88199C13.7999 9.29404 13.3193 9.87971 13.0355 10.5649C12.7516 11.2502 12.6774 12.0042 12.8221 12.7316C12.9667 13.459 13.3239 14.1272 13.8483 14.6517C14.3728 15.1761 15.041 15.5333 15.7684 15.6779C16.4958 15.8226 17.2498 15.7484 17.9351 15.4645C18.6203 15.1807 19.206 14.7001 19.618 14.0834C20.0301 13.4667 20.25 12.7417 20.25 12C20.25 11.0054 19.8549 10.0516 19.1516 9.34835C18.4484 8.64509 17.4946 8.25 16.5 8.25ZM16.5 13.5C16.2033 13.5 15.9133 13.412 15.6666 13.2472C15.42 13.0824 15.2277 12.8481 15.1142 12.574C15.0006 12.2999 14.9709 11.9983 15.0288 11.7074C15.0867 11.4164 15.2296 11.1491 15.4393 10.9393C15.6491 10.7296 15.9164 10.5867 16.2074 10.5288C16.4983 10.4709 16.7999 10.5006 17.074 10.6142C17.3481 10.7277 17.5824 10.92 17.7472 11.1666C17.912 11.4133 18 11.7033 18 12C18 12.3978 17.842 12.7794 17.5607 13.0607C17.2794 13.342 16.8978 13.5 16.5 13.5Z" fill="#130032"/>
</svg>
