<svg width="24" height="24" viewBox="0 0 24 24" fill="none" xmlns="http://www.w3.org/2000/svg">
<path d="M16.5 4.875H7.5C5.61033 4.875 3.79806 5.62567 2.46186 6.96186C1.12567 8.29806 0.375 10.1103 0.375 12C0.375 13.8897 1.12567 15.7019 2.46186 17.0381C3.79806 18.3743 5.61033 19.125 7.5 19.125H16.5C18.3897 19.125 20.2019 18.3743 21.5381 17.0381C22.8743 15.7019 23.625 13.8897 23.625 12C23.625 10.1103 22.8743 8.29806 21.5381 6.96186C20.2019 5.62567 18.3897 4.875 16.5 4.875ZM16.5 16.875H7.5C6.20707 16.875 4.96709 16.3614 4.05285 15.4471C3.13861 14.5329 2.625 13.2929 2.625 12C2.625 10.7071 3.13861 9.46709 4.05285 8.55285C4.96709 7.63861 6.20707 7.125 7.5 7.125H16.5C17.7929 7.125 19.0329 7.63861 19.9471 8.55285C20.8614 9.46709 21.375 10.7071 21.375 12C21.375 13.2929 20.8614 14.5329 19.9471 15.4471C19.0329 16.3614 17.7929 16.875 16.5 16.875ZM7.5 8.25C6.75832 8.25 6.0333 8.46993 5.41661 8.88199C4.79993 9.29404 4.31928 9.87971 4.03545 10.5649C3.75162 11.2502 3.67736 12.0042 3.82206 12.7316C3.96675 13.459 4.3239 14.1272 4.84835 14.6517C5.3728 15.1761 6.04098 15.5333 6.76841 15.6779C7.49584 15.8226 8.24984 15.7484 8.93506 15.4645C9.62029 15.1807 10.206 14.7001 10.618 14.0834C11.0301 13.4667 11.25 12.7417 11.25 12C11.25 11.0054 10.8549 10.0516 10.1517 9.34835C9.44839 8.64509 8.49456 8.25 7.5 8.25ZM7.5 13.5C7.20333 13.5 6.91332 13.412 6.66665 13.2472C6.41997 13.0824 6.22771 12.8481 6.11418 12.574C6.00065 12.2999 5.97094 11.9983 6.02882 11.7074C6.0867 11.4164 6.22956 11.1491 6.43934 10.9393C6.64912 10.7296 6.91639 10.5867 7.20736 10.5288C7.49834 10.4709 7.79994 10.5006 8.07403 10.6142C8.34811 10.7277 8.58238 10.92 8.7472 11.1666C8.91203 11.4133 9 11.7033 9 12C9 12.3978 8.84196 12.7794 8.56066 13.0607C8.27936 13.342 7.89782 13.5 7.5 13.5Z" fill="#130032"/>
</svg>
