<svg width="24" height="24" viewBox="0 0 24 24" fill="none" xmlns="http://www.w3.org/2000/svg">
<path d="M12 6.375C12 6.67337 11.8815 6.95952 11.6705 7.1705C11.4595 7.38147 11.1734 7.5 10.875 7.5H9.375C9.07663 7.5 8.79048 7.38147 8.5795 7.1705C8.36853 6.95952 8.25 6.67337 8.25 6.375C8.25 6.07663 8.36853 5.79048 8.5795 5.5795C8.79048 5.36853 9.07663 5.25 9.375 5.25H10.875C11.1734 5.25 11.4595 5.36853 11.6705 5.5795C11.8815 5.79048 12 6.07663 12 6.375ZM16.5141 18.3394L16.8563 20.7347C16.8943 21.0006 16.8747 21.2717 16.7988 21.5294C16.723 21.7871 16.5926 22.0255 16.4166 22.2285C16.2406 22.4314 16.023 22.5942 15.7786 22.7058C15.5342 22.8173 15.2687 22.875 15 22.875H9C8.73134 22.875 8.46582 22.8173 8.22141 22.7058C7.977 22.5942 7.75942 22.4314 7.5834 22.2285C7.40737 22.0255 7.27702 21.7871 7.20117 21.5294C7.12532 21.2717 7.10573 21.0006 7.14375 20.7347L7.48594 18.3394C6.01488 17.5303 4.78786 16.3413 3.93286 14.8965C3.07786 13.4517 2.62621 11.8039 2.625 10.125C2.625 9.82663 2.74353 9.54048 2.9545 9.3295C3.16548 9.11853 3.45163 9 3.75 9H4.875V3.75C4.875 3.25272 5.07254 2.77581 5.42417 2.42417C5.77581 2.07254 6.25272 1.875 6.75 1.875H17.25C17.7473 1.875 18.2242 2.07254 18.5758 2.42417C18.9275 2.77581 19.125 3.25272 19.125 3.75V9H20.25C20.5484 9 20.8345 9.11853 21.0455 9.3295C21.2565 9.54048 21.375 9.82663 21.375 10.125C21.3738 11.8039 20.9221 13.4517 20.0671 14.8965C19.2121 16.3413 17.9851 17.5303 16.5141 18.3394ZM7.125 9H16.875V4.125H7.125V9ZM14.3634 19.1981C12.8135 19.6006 11.1865 19.6006 9.63656 19.1981L9.43219 20.625H14.5678L14.3634 19.1981ZM19.0359 11.25H4.96875C5.23592 12.9238 6.09106 14.4476 7.38062 15.5476C8.67018 16.6477 10.3097 17.252 12.0047 17.252C13.6997 17.252 15.3392 16.6477 16.6288 15.5476C17.9183 14.4476 18.7735 12.9238 19.0406 11.25H19.0359Z" fill="#130032"/>
</svg>
