<svg width="24" height="24" viewBox="0 0 24 24" fill="none" xmlns="http://www.w3.org/2000/svg">
<path d="M7.5 11.25C7.5 11.5467 7.41203 11.8367 7.2472 12.0834C7.08238 12.33 6.84811 12.5223 6.57403 12.6358C6.29994 12.7494 5.99834 12.7791 5.70736 12.7212C5.41639 12.6633 5.14912 12.5204 4.93934 12.3107C4.72956 12.1009 4.5867 11.8336 4.52882 11.5426C4.47094 11.2517 4.50065 10.9501 4.61418 10.676C4.72771 10.4019 4.91997 10.1676 5.16665 10.0028C5.41332 9.83797 5.70333 9.75 6 9.75C6.39782 9.75 6.77936 9.90804 7.06066 10.1893C7.34196 10.4706 7.5 10.8522 7.5 11.25ZM22.875 11.25V19.5C22.875 19.9973 22.6775 20.4742 22.3258 20.8258C21.9742 21.1775 21.4973 21.375 21 21.375H10.5C10.0027 21.375 9.52581 21.1775 9.17418 20.8258C8.82254 20.4742 8.625 19.9973 8.625 19.5V18.5991C7.875 19.4128 6.98063 19.875 6 19.875C3.22031 19.875 1.125 16.1672 1.125 11.25C1.125 6.33281 3.22031 2.625 6 2.625H18C20.7797 2.625 22.875 6.33281 22.875 11.25ZM8.625 11.25C8.625 9.44438 8.26781 7.695 7.64531 6.45C7.15219 5.46375 6.53719 4.875 6 4.875C5.46281 4.875 4.84781 5.46375 4.35469 6.45C3.73219 7.695 3.375 9.44438 3.375 11.25C3.375 13.0556 3.73219 14.805 4.35469 16.05C4.84781 17.0363 5.46281 17.625 6 17.625C6.53719 17.625 7.15219 17.0363 7.64531 16.05C8.26781 14.805 8.625 13.0556 8.625 11.25ZM20.625 19.125V12.375H19.875C19.5766 12.375 19.2905 12.2565 19.0795 12.0455C18.8685 11.8345 18.75 11.5484 18.75 11.25C18.75 10.9516 18.8685 10.6655 19.0795 10.4545C19.2905 10.2435 19.5766 10.125 19.875 10.125H20.5781C20.4628 8.73281 20.1375 7.43344 19.6453 6.45C19.1531 5.46656 18.5372 4.875 18 4.875H9.35063C10.1578 6.19781 10.6959 8.02125 10.8375 10.125H11.625C11.9234 10.125 12.2095 10.2435 12.4205 10.4545C12.6315 10.6655 12.75 10.9516 12.75 11.25C12.75 11.5484 12.6315 11.8345 12.4205 12.0455C12.2095 12.2565 11.9234 12.375 11.625 12.375H10.875V19.125H20.625ZM16.125 10.125H15.375C15.0766 10.125 14.7905 10.2435 14.5795 10.4545C14.3685 10.6655 14.25 10.9516 14.25 11.25C14.25 11.5484 14.3685 11.8345 14.5795 12.0455C14.7905 12.2565 15.0766 12.375 15.375 12.375H16.125C16.4234 12.375 16.7095 12.2565 16.9205 12.0455C17.1315 11.8345 17.25 11.5484 17.25 11.25C17.25 10.9516 17.1315 10.6655 16.9205 10.4545C16.7095 10.2435 16.4234 10.125 16.125 10.125Z" fill="#130032"/>
</svg>
