<svg width="24" height="24" viewBox="0 0 24 24" fill="none" xmlns="http://www.w3.org/2000/svg">
<path d="M21 6H16.875V5.25C16.875 4.55381 16.5984 3.88613 16.1062 3.39384C15.6139 2.90156 14.9462 2.625 14.25 2.625H9.75C9.05381 2.625 8.38613 2.90156 7.89384 3.39384C7.40156 3.88613 7.125 4.55381 7.125 5.25V6H3C2.50272 6 2.02581 6.19754 1.67417 6.54917C1.32254 6.90081 1.125 7.37772 1.125 7.875V18C1.125 18.4973 1.32254 18.9742 1.67417 19.3258C2.02581 19.6775 2.50272 19.875 3 19.875H21C21.4973 19.875 21.9742 19.6775 22.3258 19.3258C22.6775 18.9742 22.875 18.4973 22.875 18V7.875C22.875 7.37772 22.6775 6.90081 22.3258 6.54917C21.9742 6.19754 21.4973 6 21 6ZM9.375 5.25C9.375 5.15054 9.41451 5.05516 9.48483 4.98484C9.55516 4.91451 9.65054 4.875 9.75 4.875H14.25C14.3495 4.875 14.4448 4.91451 14.5152 4.98484C14.5855 5.05516 14.625 5.15054 14.625 5.25V6H9.375V5.25ZM20.625 8.25V11.25H18.375V10.875C18.375 10.5766 18.2565 10.2905 18.0455 10.0795C17.8345 9.86853 17.5484 9.75 17.25 9.75C16.9516 9.75 16.6655 9.86853 16.4545 10.0795C16.2435 10.2905 16.125 10.5766 16.125 10.875V11.25H7.875V10.875C7.875 10.5766 7.75647 10.2905 7.5455 10.0795C7.33452 9.86853 7.04837 9.75 6.75 9.75C6.45163 9.75 6.16548 9.86853 5.9545 10.0795C5.74353 10.2905 5.625 10.5766 5.625 10.875V11.25H3.375V8.25H20.625ZM3.375 17.625V13.5H5.625V13.875C5.625 14.1734 5.74353 14.4595 5.9545 14.6705C6.16548 14.8815 6.45163 15 6.75 15C7.04837 15 7.33452 14.8815 7.5455 14.6705C7.75647 14.4595 7.875 14.1734 7.875 13.875V13.5H16.125V13.875C16.125 14.1734 16.2435 14.4595 16.4545 14.6705C16.6655 14.8815 16.9516 15 17.25 15C17.5484 15 17.8345 14.8815 18.0455 14.6705C18.2565 14.4595 18.375 14.1734 18.375 13.875V13.5H20.625V17.625H3.375Z" fill="#130032"/>
</svg>
