<svg width="24" height="24" viewBox="0 0 24 24" fill="none" xmlns="http://www.w3.org/2000/svg">
<path d="M16.1681 7.79531L15.0291 8.25L16.1681 8.70469C16.3054 8.7596 16.4304 8.84099 16.5362 8.94423C16.6419 9.04747 16.7263 9.17053 16.7845 9.30637C16.8427 9.44222 16.8736 9.5882 16.8753 9.73598C16.8771 9.88376 16.8498 10.0304 16.7949 10.1677C16.74 10.3049 16.6586 10.4299 16.5553 10.5357C16.4521 10.6414 16.329 10.7258 16.1932 10.784C16.0573 10.8422 15.9113 10.8731 15.7636 10.8749C15.6158 10.8766 15.4691 10.8493 15.3319 10.7944L12 9.46219L8.66814 10.7953C8.39103 10.9062 8.08122 10.9025 7.80686 10.7849C7.5325 10.6674 7.31607 10.4457 7.20517 10.1686C7.09428 9.89148 7.09801 9.58167 7.21554 9.30731C7.33308 9.03295 7.55478 8.81652 7.83189 8.70563L8.97096 8.25L7.83189 7.79531C7.55478 7.68442 7.33308 7.46799 7.21554 7.19363C7.09801 6.91927 7.09428 6.60945 7.20517 6.33234C7.31607 6.05523 7.5325 5.83353 7.80686 5.71599C8.08122 5.59846 8.39103 5.59473 8.66814 5.70563L12 7.03875L15.3319 5.70563C15.609 5.59473 15.9188 5.59846 16.1932 5.71599C16.4675 5.83353 16.684 6.05523 16.7949 6.33234C16.9058 6.60945 16.902 6.91927 16.7845 7.19363C16.667 7.46799 16.4453 7.68442 16.1681 7.79531ZM21.375 7.47656C21.3825 14.6437 19.0125 20.1966 16.7813 21.7819C16.5098 21.9725 16.1927 22.0876 15.8622 22.1156C15.5316 22.1437 15.1996 22.0835 14.9 21.9413C14.6003 21.7991 14.3438 21.5799 14.1564 21.3062C13.9691 21.0325 13.8578 20.7139 13.8338 20.3831C13.771 19.5338 13.6153 18.3206 13.2281 17.3616C12.7275 16.125 12.18 16.125 12 16.125C11.2725 16.125 10.8966 17.055 10.7738 17.3606C10.3866 18.3187 10.231 19.5328 10.1681 20.3822C10.1347 20.8554 9.92312 21.2983 9.57605 21.6218C9.22898 21.9452 8.77223 22.125 8.29783 22.125C7.91124 22.1254 7.53411 22.0055 7.21877 21.7819C4.98752 20.1966 2.61752 14.6437 2.62502 7.47656C2.63122 5.98878 3.22658 4.56406 4.28081 3.51423C5.33503 2.4644 6.76223 1.87499 8.25002 1.875H15.75C17.2378 1.87499 18.665 2.4644 19.7192 3.51423C20.7734 4.56406 21.3688 5.98878 21.375 7.47656ZM19.125 7.47656C19.1188 6.58552 18.7605 5.73309 18.1283 5.10521C17.496 4.47734 16.6411 4.12498 15.75 4.125H8.25002C7.35847 4.12498 6.50314 4.47773 5.8708 5.10621C5.23845 5.73469 4.88047 6.58785 4.87502 7.47937C4.86939 13.2066 6.54658 17.7469 7.99689 19.4475C8.55377 14.625 10.7175 13.875 12 13.875C13.2825 13.875 15.4463 14.625 16.0031 19.4466C17.4535 17.7478 19.1306 13.2075 19.125 7.47937V7.47656Z" fill="#130032"/>
</svg>
