<svg width="24" height="24" viewBox="0 0 24 24" fill="none" xmlns="http://www.w3.org/2000/svg">
<path d="M21.75 4.125C21.75 4.42337 21.6315 4.70952 21.4205 4.9205C21.2095 5.13147 20.9234 5.25 20.625 5.25H5.625C5.32663 5.25 5.04048 5.13147 4.8295 4.9205C4.61853 4.70952 4.5 4.42337 4.5 4.125C4.5 3.82663 4.61853 3.54048 4.8295 3.3295C5.04048 3.11853 5.32663 3 5.625 3H20.625C20.9234 3 21.2095 3.11853 21.4205 3.3295C21.6315 3.54048 21.75 3.82663 21.75 4.125ZM16.5 8.25C16.5 7.95163 16.3815 7.66548 16.1705 7.4545C15.9595 7.24353 15.6734 7.125 15.375 7.125H4.125C3.82663 7.125 3.54048 7.24353 3.3295 7.4545C3.11853 7.66548 3 7.95163 3 8.25C3 8.54837 3.11853 8.83452 3.3295 9.0455C3.54048 9.25647 3.82663 9.375 4.125 9.375H15.375C15.6734 9.375 15.9595 9.25647 16.1705 9.0455C16.3815 8.83452 16.5 8.54837 16.5 8.25ZM16.5 12.375C16.5 12.0766 16.3815 11.7905 16.1705 11.5795C15.9595 11.3685 15.6734 11.25 15.375 11.25H7.125C6.82663 11.25 6.54048 11.3685 6.3295 11.5795C6.11853 11.7905 6 12.0766 6 12.375C6 12.6734 6.11853 12.9595 6.3295 13.1705C6.54048 13.3815 6.82663 13.5 7.125 13.5H15.375C15.6734 13.5 15.9595 13.3815 16.1705 13.1705C16.3815 12.9595 16.5 12.6734 16.5 12.375ZM16.125 15.375H12.375C12.0766 15.375 11.7905 15.4935 11.5795 15.7045C11.3685 15.9155 11.25 16.2016 11.25 16.5C11.25 16.7984 11.3685 17.0845 11.5795 17.2955C11.7905 17.5065 12.0766 17.625 12.375 17.625H16.125C16.4234 17.625 16.7095 17.5065 16.9205 17.2955C17.1315 17.0845 17.25 16.7984 17.25 16.5C17.25 16.2016 17.1315 15.9155 16.9205 15.7045C16.7095 15.4935 16.4234 15.375 16.125 15.375ZM13.125 19.5H11.625C11.3266 19.5 11.0405 19.6185 10.8295 19.8295C10.6185 20.0405 10.5 20.3266 10.5 20.625C10.5 20.9234 10.6185 21.2095 10.8295 21.4205C11.0405 21.6315 11.3266 21.75 11.625 21.75H13.125C13.4234 21.75 13.7095 21.6315 13.9205 21.4205C14.1315 21.2095 14.25 20.9234 14.25 20.625C14.25 20.3266 14.1315 20.0405 13.9205 19.8295C13.7095 19.6185 13.4234 19.5 13.125 19.5Z" fill="#130032"/>
</svg>
