<svg width="24" height="24" viewBox="0 0 24 24" fill="none" xmlns="http://www.w3.org/2000/svg">
<path d="M22.4061 6.25847C22.2295 6.05988 22.013 5.90085 21.7706 5.79179C21.5283 5.68274 21.2656 5.62612 20.9999 5.62566H16.8589C16.76 4.40491 16.2052 3.26614 15.3048 2.43583C14.4045 1.60553 13.2246 1.14453 11.9999 1.14453C10.7751 1.14453 9.59524 1.60553 8.69491 2.43583C7.79457 3.26614 7.23976 4.40491 7.1408 5.62566H3.00737C2.74192 5.62461 2.47928 5.67995 2.23682 5.78799C1.99436 5.89603 1.7776 6.05433 1.60089 6.2524C1.42417 6.45047 1.29153 6.68381 1.21173 6.93697C1.13193 7.19014 1.1068 7.45736 1.13799 7.72097L2.47393 18.971C2.5292 19.4277 2.74996 19.8483 3.09445 20.1532C3.43894 20.4582 3.88325 20.6262 4.3433 20.6257H19.6564C20.1165 20.6262 20.5608 20.4582 20.9053 20.1532C21.2498 19.8483 21.4705 19.4277 21.5258 18.971L22.8617 7.72097C22.893 7.45886 22.8686 7.19309 22.7901 6.94107C22.7116 6.68904 22.5807 6.45644 22.4061 6.25847ZM11.9999 3.37566C12.631 3.37572 13.2411 3.6032 13.7182 4.01643C14.1953 4.42966 14.5075 5.00095 14.5977 5.62566H9.40205C9.49222 5.00095 9.80446 4.42966 10.2816 4.01643C10.7587 3.6032 11.3687 3.37572 11.9999 3.37566ZM19.3302 18.3757H4.66955L3.42174 7.87566H20.578L19.3302 18.3757Z" fill="#130032"/>
</svg>
