<svg width="24" height="24" viewBox="0 0 24 24" fill="none" xmlns="http://www.w3.org/2000/svg">
<path d="M22.875 15.375V12.5625C22.8769 12.1589 22.7476 11.7657 22.5067 11.4419C22.2657 11.1181 21.9262 10.8813 21.5391 10.7672L21.51 10.7588L18.375 9.90469V7.125C18.375 6.82663 18.2565 6.54048 18.0455 6.3295C17.8345 6.11853 17.5484 6 17.25 6C16.9516 6 16.6655 6.11853 16.4545 6.3295C16.2435 6.54048 16.125 6.82663 16.125 7.125V9.29531L14.625 8.88938V5.625H15C15.2984 5.625 15.5845 5.50647 15.7955 5.2955C16.0065 5.08452 16.125 4.79837 16.125 4.5C16.125 4.20163 16.0065 3.91548 15.7955 3.7045C15.5845 3.49353 15.2984 3.375 15 3.375H3.75C3.45163 3.375 3.16549 3.49353 2.95451 3.7045C2.74353 3.91548 2.625 4.20163 2.625 4.5C2.625 4.79837 2.74353 5.08452 2.95451 5.2955C3.16549 5.50647 3.45163 5.625 3.75 5.625H4.125V7.875H3.75C3.45163 7.875 3.16549 7.99353 2.95451 8.2045C2.74353 8.41548 2.625 8.70163 2.625 9C2.625 9.29837 2.74353 9.58452 2.95451 9.7955C3.16549 10.0065 3.45163 10.125 3.75 10.125H6.375C7.96577 10.1267 9.49088 10.7594 10.6157 11.8843C11.7406 13.0091 12.3733 14.5342 12.375 16.125V17.25C12.375 17.5484 12.4935 17.8345 12.7045 18.0455C12.9155 18.2565 13.2016 18.375 13.5 18.375H16.2C16.3126 18.9258 16.5477 19.4442 16.8877 19.8919C17.2278 20.3395 17.6641 20.705 18.1645 20.9613C18.6649 21.2176 19.2164 21.3581 19.7784 21.3724C20.3404 21.3867 20.8985 21.2745 21.4112 21.044C21.924 20.8136 22.3784 20.4708 22.7408 20.041C23.1032 19.6112 23.3643 19.1055 23.5049 18.5611C23.6454 18.0168 23.6618 17.4478 23.5528 16.8963C23.4437 16.3448 23.2121 15.8249 22.875 15.375ZM12.375 10.4691C11.6052 9.64963 10.6757 8.99667 9.64371 8.55051C8.61175 8.10435 7.49929 7.87445 6.375 7.875V5.625H12.375V10.4691ZM16.4391 16.125H14.625V11.22L20.625 12.8438V13.95C20.3781 13.9002 20.1269 13.8751 19.875 13.875C19.1457 13.8759 18.4324 14.0892 17.8222 14.4887C17.2121 14.8883 16.7315 15.4568 16.4391 16.125ZM19.875 19.125C19.5783 19.125 19.2883 19.037 19.0416 18.8722C18.795 18.7074 18.6027 18.4731 18.4892 18.199C18.3757 17.9249 18.3459 17.6233 18.4038 17.3324C18.4617 17.0414 18.6046 16.7741 18.8143 16.5643C19.0241 16.3546 19.2914 16.2117 19.5824 16.1538C19.8733 16.0959 20.1749 16.1257 20.449 16.2392C20.7231 16.3527 20.9574 16.545 21.1222 16.7916C21.287 17.0383 21.375 17.3283 21.375 17.625C21.375 18.0228 21.217 18.4044 20.9357 18.6857C20.6544 18.967 20.2728 19.125 19.875 19.125ZM6 11.625C5.03582 11.625 4.09329 11.9109 3.2916 12.4466C2.48991 12.9823 1.86507 13.7436 1.49609 14.6344C1.12711 15.5252 1.03057 16.5054 1.21867 17.4511C1.40678 18.3967 1.87108 19.2654 2.55286 19.9471C3.23464 20.6289 4.10328 21.0932 5.04894 21.2813C5.99459 21.4694 6.97479 21.3729 7.86558 21.0039C8.75637 20.6349 9.51775 20.0101 10.0534 19.2084C10.5891 18.4067 10.875 17.4642 10.875 16.5C10.8735 15.2075 10.3594 13.9684 9.4455 13.0545C8.53159 12.1406 7.29248 11.6265 6 11.625ZM6 19.125C5.48083 19.125 4.97331 18.971 4.54163 18.6826C4.10995 18.3942 3.7735 17.9842 3.57482 17.5045C3.37614 17.0249 3.32415 16.4971 3.42544 15.9879C3.52673 15.4787 3.77673 15.011 4.14385 14.6438C4.51096 14.2767 4.97869 14.0267 5.48789 13.9254C5.99709 13.8242 6.52489 13.8761 7.00455 14.0748C7.4842 14.2735 7.89417 14.61 8.18261 15.0416C8.47105 15.4733 8.625 15.9808 8.625 16.5C8.625 17.1962 8.34844 17.8639 7.85616 18.3562C7.36387 18.8484 6.6962 19.125 6 19.125ZM7.5 16.5C7.5 16.7967 7.41203 17.0867 7.24721 17.3334C7.08238 17.58 6.84812 17.7723 6.57403 17.8858C6.29994 17.9994 5.99834 18.0291 5.70737 17.9712C5.4164 17.9133 5.14912 17.7704 4.93934 17.5607C4.72956 17.3509 4.5867 17.0836 4.52882 16.7926C4.47095 16.5017 4.50065 16.2001 4.61418 15.926C4.72771 15.6519 4.91997 15.4176 5.16665 15.2528C5.41332 15.088 5.70333 15 6 15C6.39783 15 6.77936 15.158 7.06066 15.4393C7.34197 15.7206 7.5 16.1022 7.5 16.5Z" fill="#130032"/>
</svg>
