<svg width="24" height="24" viewBox="0 0 24 24" fill="none" xmlns="http://www.w3.org/2000/svg">
<path d="M12 1.875C9.99747 1.875 8.0399 2.46882 6.37486 3.58137C4.70981 4.69392 3.41206 6.27523 2.64572 8.12533C1.87939 9.97543 1.67888 12.0112 2.06955 13.9753C2.46023 15.9393 3.42454 17.7435 4.84055 19.1595C6.25656 20.5755 8.06066 21.5398 10.0247 21.9305C11.9888 22.3211 14.0246 22.1206 15.8747 21.3543C17.7248 20.5879 19.3061 19.2902 20.4186 17.6251C21.5312 15.9601 22.125 14.0025 22.125 12C22.122 9.3156 21.0543 6.74199 19.1562 4.84383C17.258 2.94567 14.6844 1.87798 12 1.875ZM12 19.875C10.4425 19.875 8.91993 19.4131 7.62489 18.5478C6.32985 17.6825 5.32049 16.4526 4.72445 15.0136C4.12841 13.5747 3.97246 11.9913 4.27632 10.4637C4.58018 8.93606 5.3302 7.53287 6.43154 6.43153C7.53288 5.3302 8.93607 4.58017 10.4637 4.27632C11.9913 3.97246 13.5747 4.12841 15.0136 4.72445C16.4526 5.32049 17.6825 6.32985 18.5478 7.62488C19.4131 8.91992 19.875 10.4425 19.875 12C19.8728 14.0879 19.0424 16.0896 17.566 17.566C16.0896 19.0424 14.0879 19.8728 12 19.875ZM18 10.125V13.875C18 14.1734 17.8815 14.4595 17.6705 14.6705C17.4595 14.8815 17.1734 15 16.875 15C16.5766 15 16.2905 14.8815 16.0795 14.6705C15.8685 14.4595 15.75 14.1734 15.75 13.875V12.5709L14.9822 13.2272C14.7783 13.402 14.5186 13.4981 14.25 13.4981C13.9814 13.4981 13.7217 13.402 13.5178 13.2272L12.75 12.5709V13.875C12.75 14.1734 12.6315 14.4595 12.4205 14.6705C12.2095 14.8815 11.9234 15 11.625 15C11.3266 15 11.0405 14.8815 10.8295 14.6705C10.6185 14.4595 10.5 14.1734 10.5 13.875V11.25H9.375V13.875C9.375 14.1734 9.25648 14.4595 9.0455 14.6705C8.83452 14.8815 8.54837 15 8.25 15C7.95164 15 7.66549 14.8815 7.45451 14.6705C7.24353 14.4595 7.125 14.1734 7.125 13.875V11.25H6.75C6.45164 11.25 6.16549 11.1315 5.95451 10.9205C5.74353 10.7095 5.625 10.4234 5.625 10.125C5.625 9.82663 5.74353 9.54048 5.95451 9.3295C6.16549 9.11853 6.45164 9 6.75 9H11.625C11.8936 9.00002 12.1533 9.09612 12.3572 9.27094L14.25 10.8937L16.1428 9.27094C16.3062 9.13091 16.5062 9.04066 16.7193 9.01088C16.9324 8.98111 17.1496 9.01307 17.345 9.10296C17.5405 9.19285 17.7061 9.33691 17.8222 9.51806C17.9383 9.69921 18 9.90985 18 10.125Z" fill="#130032"/>
</svg>
