<svg width="24" height="24" viewBox="0 0 24 24" fill="none" xmlns="http://www.w3.org/2000/svg">
<path d="M12 1.875C9.99747 1.875 8.0399 2.46882 6.37486 3.58137C4.70981 4.69392 3.41206 6.27523 2.64572 8.12533C1.87939 9.97543 1.67888 12.0112 2.06955 13.9753C2.46023 15.9393 3.42454 17.7435 4.84055 19.1595C6.25656 20.5755 8.06066 21.5398 10.0247 21.9305C11.9888 22.3211 14.0246 22.1206 15.8747 21.3543C17.7248 20.5879 19.3061 19.2902 20.4186 17.6251C21.5312 15.9601 22.125 14.0025 22.125 12C22.122 9.3156 21.0543 6.74199 19.1562 4.84383C17.258 2.94567 14.6844 1.87798 12 1.875ZM12 19.875C10.4425 19.875 8.91993 19.4131 7.62489 18.5478C6.32985 17.6825 5.32049 16.4526 4.72445 15.0136C4.12841 13.5747 3.97246 11.9913 4.27632 10.4637C4.58018 8.93606 5.3302 7.53287 6.43154 6.43153C7.53288 5.3302 8.93607 4.58017 10.4637 4.27632C11.9913 3.97246 13.5747 4.12841 15.0136 4.72445C16.4526 5.32049 17.6825 6.32985 18.5478 7.62488C19.4131 8.91992 19.875 10.4425 19.875 12C19.8728 14.0879 19.0424 16.0896 17.566 17.566C16.0896 19.0424 14.0879 19.8728 12 19.875ZM14.6906 13.2581C15.2761 12.8452 15.715 12.2568 15.9438 11.5779C16.1726 10.899 16.1794 10.1649 15.9633 9.48184C15.7472 8.79881 15.3193 8.20226 14.7416 7.77855C14.1639 7.35484 13.4664 7.12595 12.75 7.125H9.75C9.45164 7.125 9.16549 7.24353 8.95451 7.4545C8.74353 7.66548 8.625 7.95163 8.625 8.25V15.75C8.625 16.0484 8.74353 16.3345 8.95451 16.5455C9.16549 16.7565 9.45164 16.875 9.75 16.875C10.0484 16.875 10.3345 16.7565 10.5455 16.5455C10.7565 16.3345 10.875 16.0484 10.875 15.75V13.875H12.3975L14.0625 16.3744C14.2281 16.623 14.4857 16.7957 14.7786 16.8544C15.0715 16.9131 15.3757 16.8531 15.6244 16.6875C15.873 16.5219 16.0457 16.2643 16.1044 15.9714C16.1631 15.6785 16.1031 15.3743 15.9375 15.1256L14.6906 13.2581ZM10.875 9.375H12.75C13.0484 9.375 13.3345 9.49353 13.5455 9.7045C13.7565 9.91548 13.875 10.2016 13.875 10.5C13.875 10.7984 13.7565 11.0845 13.5455 11.2955C13.3345 11.5065 13.0484 11.625 12.75 11.625H10.875V9.375Z" fill="#130032"/>
</svg>
