<svg width="24" height="24" viewBox="0 0 24 24" fill="none" xmlns="http://www.w3.org/2000/svg">
<g clip-path="url(#clip0_7_19035)">
<path d="M23.0624 10.6387L13.363 0.93934C13.0014 0.577985 12.5111 0.375 11.9999 0.375C11.4887 0.375 10.9984 0.577985 10.6368 0.93934L0.937387 10.6387C0.576032 11.0003 0.373047 11.4906 0.373047 12.0018C0.373047 12.5131 0.576032 13.0034 0.937387 13.365L10.6368 23.0643C10.9984 23.4257 11.4887 23.6287 11.9999 23.6287C12.5111 23.6287 13.0014 23.4257 13.363 23.0643L23.0624 13.365C23.4237 13.0034 23.6267 12.5131 23.6267 12.0018C23.6267 11.4906 23.4237 11.0003 23.0624 10.6387ZM11.9999 21.2428L2.75895 12.0018L11.9999 2.7609L21.2408 12.0018L11.9999 21.2428ZM12.7039 9.79778C12.4926 9.58643 12.3739 9.29979 12.3739 9.0009C12.3739 8.70202 12.4926 8.41537 12.7039 8.20403C12.9153 7.99268 13.2019 7.87395 13.5008 7.87395C13.7997 7.87395 14.0864 7.99268 14.2977 8.20403L16.5477 10.454C16.6526 10.5585 16.7358 10.6827 16.7926 10.8195C16.8494 10.9562 16.8786 11.1028 16.8786 11.2509C16.8786 11.399 16.8494 11.5456 16.7926 11.6823C16.7358 11.8191 16.6526 11.9433 16.5477 12.0478L14.2977 14.2978C14.0864 14.5091 13.7997 14.6279 13.5008 14.6279C13.2019 14.6279 12.9153 14.5091 12.7039 14.2978C12.4926 14.0864 12.3739 13.7998 12.3739 13.5009C12.3739 13.202 12.4926 12.9154 12.7039 12.704L13.0311 12.3768H10.4999C10.2015 12.3768 9.91537 12.4954 9.70439 12.7063C9.49341 12.9173 9.37489 13.2035 9.37489 13.5018V13.8768C9.37489 14.1752 9.25636 14.4614 9.04538 14.6723C8.8344 14.8833 8.54826 15.0018 8.24989 15.0018C7.95152 15.0018 7.66537 14.8833 7.45439 14.6723C7.24341 14.4614 7.12489 14.1752 7.12489 13.8768V13.5018C7.12489 12.6067 7.48047 11.7483 8.1134 11.1154C8.74634 10.4824 9.60478 10.1268 10.4999 10.1268H13.0311L12.7039 9.79778Z" fill="#130032"/>
</g>
<defs>
<clipPath id="clip0_7_19035">
<rect width="24" height="24" fill="white"/>
</clipPath>
</defs>
</svg>
