<svg width="24" height="24" viewBox="0 0 24 24" fill="none" xmlns="http://www.w3.org/2000/svg">
<path d="M20.25 13.125H19.125V7.875H20.25C20.5484 7.875 20.8345 7.75647 21.0455 7.5455C21.2565 7.33452 21.375 7.04837 21.375 6.75C21.375 6.45163 21.2565 6.16548 21.0455 5.9545C20.8345 5.74353 20.5484 5.625 20.25 5.625H19.125V3.75C19.125 3.25272 18.9275 2.77581 18.5758 2.42417C18.2242 2.07254 17.7473 1.875 17.25 1.875H6.75C6.25272 1.875 5.77581 2.07254 5.42417 2.42417C5.07254 2.77581 4.875 3.25272 4.875 3.75V5.625H3.75C3.45163 5.625 3.16548 5.74353 2.9545 5.9545C2.74353 6.16548 2.625 6.45163 2.625 6.75C2.625 7.04837 2.74353 7.33452 2.9545 7.5455C3.16548 7.75647 3.45163 7.875 3.75 7.875H4.875V13.125H3.75C3.45163 13.125 3.16548 13.2435 2.9545 13.4545C2.74353 13.6655 2.625 13.9516 2.625 14.25C2.625 14.5484 2.74353 14.8345 2.9545 15.0455C3.16548 15.2565 3.45163 15.375 3.75 15.375H4.875V20.25C4.875 20.7473 5.07254 21.2242 5.42417 21.5758C5.77581 21.9275 6.25272 22.125 6.75 22.125H17.25C17.7473 22.125 18.2242 21.9275 18.5758 21.5758C18.9275 21.2242 19.125 20.7473 19.125 20.25V15.375H20.25C20.5484 15.375 20.8345 15.2565 21.0455 15.0455C21.2565 14.8345 21.375 14.5484 21.375 14.25C21.375 13.9516 21.2565 13.6655 21.0455 13.4545C20.8345 13.2435 20.5484 13.125 20.25 13.125ZM16.875 19.875H7.125V4.125H16.875V19.875ZM12 11.25C12.5933 11.25 13.1734 11.0741 13.6667 10.7444C14.1601 10.4148 14.5446 9.94623 14.7716 9.39805C14.9987 8.84987 15.0581 8.24667 14.9424 7.66473C14.8266 7.08279 14.5409 6.54824 14.1213 6.12868C13.7018 5.70912 13.1672 5.4234 12.5853 5.30764C12.0033 5.19189 11.4001 5.2513 10.8519 5.47836C10.3038 5.70542 9.83524 6.08994 9.50559 6.58329C9.17595 7.07664 9 7.65666 9 8.25C9 9.04565 9.31607 9.80871 9.87868 10.3713C10.4413 10.9339 11.2044 11.25 12 11.25ZM12 7.5C12.1483 7.5 12.2933 7.54399 12.4167 7.6264C12.54 7.70881 12.6361 7.82594 12.6929 7.96299C12.7497 8.10003 12.7645 8.25083 12.7356 8.39632C12.7066 8.5418 12.6352 8.67544 12.5303 8.78033C12.4254 8.88522 12.2918 8.95665 12.1463 8.98559C12.0008 9.01453 11.85 8.99968 11.713 8.94291C11.5759 8.88614 11.4588 8.79001 11.3764 8.66668C11.294 8.54334 11.25 8.39834 11.25 8.25C11.25 8.05109 11.329 7.86032 11.4697 7.71967C11.6103 7.57902 11.8011 7.5 12 7.5ZM12 18.75C12.5933 18.75 13.1734 18.5741 13.6667 18.2444C14.1601 17.9148 14.5446 17.4462 14.7716 16.8981C14.9987 16.3499 15.0581 15.7467 14.9424 15.1647C14.8266 14.5828 14.5409 14.0482 14.1213 13.6287C13.7018 13.2091 13.1672 12.9234 12.5853 12.8076C12.0033 12.6919 11.4001 12.7513 10.8519 12.9784C10.3038 13.2054 9.83524 13.5899 9.50559 14.0833C9.17595 14.5766 9 15.1567 9 15.75C9 16.5456 9.31607 17.3087 9.87868 17.8713C10.4413 18.4339 11.2044 18.75 12 18.75ZM12 15C12.1483 15 12.2933 15.044 12.4167 15.1264C12.54 15.2088 12.6361 15.3259 12.6929 15.463C12.7497 15.6 12.7645 15.7508 12.7356 15.8963C12.7066 16.0418 12.6352 16.1754 12.5303 16.2803C12.4254 16.3852 12.2918 16.4566 12.1463 16.4856C12.0008 16.5145 11.85 16.4997 11.713 16.4429C11.5759 16.3861 11.4588 16.29 11.3764 16.1667C11.294 16.0433 11.25 15.8983 11.25 15.75C11.25 15.5511 11.329 15.3603 11.4697 15.2197C11.6103 15.079 11.8011 15 12 15Z" fill="#130032"/>
</svg>
