<svg width="24" height="24" viewBox="0 0 24 24" fill="none" xmlns="http://www.w3.org/2000/svg">
<path d="M21.3356 10.9537L19.2356 3.25688C19.1275 2.86009 18.8918 2.50987 18.565 2.26016C18.2383 2.01046 17.8384 1.87512 17.4272 1.875H6.5728C6.16154 1.87512 5.76172 2.01046 5.43493 2.26016C5.10815 2.50987 4.87253 2.86009 4.76437 3.25688L2.66437 10.9537C2.61188 11.1478 2.61188 11.3522 2.66437 11.5463L4.76437 19.2431C4.87253 19.6399 5.10815 19.9901 5.43493 20.2398C5.76172 20.4895 6.16154 20.6249 6.5728 20.625H6.74999L5.84999 21.825C5.67097 22.0637 5.5941 22.3637 5.6363 22.6591C5.67849 22.9545 5.8363 23.221 6.07499 23.4C6.31369 23.579 6.61372 23.6559 6.90909 23.6137C7.20446 23.5715 7.47097 23.4137 7.64999 23.175L9.56249 20.625H14.4375L16.35 23.175C16.529 23.4137 16.7955 23.5715 17.0909 23.6137C17.3863 23.6559 17.6863 23.579 17.925 23.4C18.1637 23.221 18.3215 22.9545 18.3637 22.6591C18.4059 22.3637 18.329 22.0637 18.15 21.825L17.25 20.625H17.4272C17.8384 20.6249 18.2383 20.4895 18.565 20.2398C18.8918 19.9901 19.1275 19.6399 19.2356 19.2431L21.3356 11.5463C21.3881 11.3522 21.3881 11.1478 21.3356 10.9537ZM6.85968 4.125H17.1403L18.8437 10.3622L12 11.6063L5.15624 10.3622L6.85968 4.125ZM5.3053 12.6759L10.875 13.6875V18.375H6.85968L5.3053 12.6759ZM17.1403 18.375H13.125V13.6875L18.6947 12.675L17.1403 18.375ZM7.87499 8.25C7.87499 7.95163 7.99352 7.66548 8.2045 7.4545C8.41548 7.24353 8.70162 7.125 8.99999 7.125H15C15.2984 7.125 15.5845 7.24353 15.7955 7.4545C16.0065 7.66548 16.125 7.95163 16.125 8.25C16.125 8.54837 16.0065 8.83452 15.7955 9.0455C15.5845 9.25647 15.2984 9.375 15 9.375H8.99999C8.70162 9.375 8.41548 9.25647 8.2045 9.0455C7.99352 8.83452 7.87499 8.54837 7.87499 8.25Z" fill="#130032"/>
</svg>
