<svg width="24" height="24" viewBox="0 0 24 24" fill="none" xmlns="http://www.w3.org/2000/svg">
<path d="M17.25 4.125H13.125V2.625H15.75C16.0484 2.625 16.3345 2.50647 16.5455 2.2955C16.7565 2.08452 16.875 1.79837 16.875 1.5C16.875 1.20163 16.7565 0.915483 16.5455 0.704505C16.3345 0.493526 16.0484 0.375 15.75 0.375H8.25C7.95163 0.375 7.66548 0.493526 7.4545 0.704505C7.24353 0.915483 7.125 1.20163 7.125 1.5C7.125 1.79837 7.24353 2.08452 7.4545 2.2955C7.66548 2.50647 7.95163 2.625 8.25 2.625H10.875V4.125H6.75C5.85489 4.125 4.99645 4.48058 4.36351 5.11351C3.73058 5.74645 3.375 6.60489 3.375 7.5V17.25C3.375 18.1451 3.73058 19.0035 4.36351 19.6365C4.99645 20.2694 5.85489 20.625 6.75 20.625L5.85 21.825C5.67098 22.0637 5.59411 22.3637 5.63631 22.6591C5.6785 22.9545 5.83631 23.221 6.075 23.4C6.3137 23.579 6.61373 23.6559 6.9091 23.6137C7.20447 23.5715 7.47098 23.4137 7.65 23.175L9.5625 20.625H14.4375L16.35 23.175C16.529 23.4137 16.7955 23.5715 17.0909 23.6137C17.3863 23.6559 17.6863 23.579 17.925 23.4C18.1637 23.221 18.3215 22.9545 18.3637 22.6591C18.4059 22.3637 18.329 22.0637 18.15 21.825L17.25 20.625C18.1451 20.625 19.0035 20.2694 19.6365 19.6365C20.2694 19.0035 20.625 18.1451 20.625 17.25V7.5C20.625 6.60489 20.2694 5.74645 19.6365 5.11351C19.0035 4.48058 18.1451 4.125 17.25 4.125ZM6.75 6.375H17.25C17.5484 6.375 17.8345 6.49353 18.0455 6.7045C18.2565 6.91548 18.375 7.20163 18.375 7.5V10.875H5.625V7.5C5.625 7.20163 5.74353 6.91548 5.9545 6.7045C6.16548 6.49353 6.45163 6.375 6.75 6.375ZM17.25 18.375H6.75C6.45163 18.375 6.16548 18.2565 5.9545 18.0455C5.74353 17.8345 5.625 17.5484 5.625 17.25V13.125H18.375V17.25C18.375 17.5484 18.2565 17.8345 18.0455 18.0455C17.8345 18.2565 17.5484 18.375 17.25 18.375ZM9.75 15.75C9.75 16.0467 9.66203 16.3367 9.4972 16.5834C9.33238 16.83 9.09811 17.0223 8.82403 17.1358C8.54994 17.2494 8.24834 17.2791 7.95736 17.2212C7.66639 17.1633 7.39912 17.0204 7.18934 16.8107C6.97956 16.6009 6.8367 16.3336 6.77882 16.0426C6.72094 15.7517 6.75065 15.4501 6.86418 15.176C6.97771 14.9019 7.16997 14.6676 7.41665 14.5028C7.66332 14.338 7.95333 14.25 8.25 14.25C8.64782 14.25 9.02936 14.408 9.31066 14.6893C9.59196 14.9706 9.75 15.3522 9.75 15.75ZM17.25 15.75C17.25 16.0467 17.162 16.3367 16.9972 16.5834C16.8324 16.83 16.5981 17.0223 16.324 17.1358C16.0499 17.2494 15.7483 17.2791 15.4574 17.2212C15.1664 17.1633 14.8991 17.0204 14.6893 16.8107C14.4796 16.6009 14.3367 16.3336 14.2788 16.0426C14.2209 15.7517 14.2506 15.4501 14.3642 15.176C14.4777 14.9019 14.67 14.6676 14.9166 14.5028C15.1633 14.338 15.4533 14.25 15.75 14.25C16.1478 14.25 16.5294 14.408 16.8107 14.6893C17.092 14.9706 17.25 15.3522 17.25 15.75Z" fill="#130032"/>
</svg>
