<svg width="24" height="24" viewBox="0 0 24 24" fill="none" xmlns="http://www.w3.org/2000/svg">
<path d="M19.5 2.625H4.5C4.00272 2.625 3.52581 2.82254 3.17417 3.17417C2.82254 3.52581 2.625 4.00272 2.625 4.5V19.5C2.625 19.9973 2.82254 20.4742 3.17417 20.8258C3.52581 21.1775 4.00272 21.375 4.5 21.375H19.5C19.9973 21.375 20.4742 21.1775 20.8258 20.8258C21.1775 20.4742 21.375 19.9973 21.375 19.5V4.5C21.375 4.00272 21.1775 3.52581 20.8258 3.17417C20.4742 2.82254 19.9973 2.625 19.5 2.625ZM19.125 4.875V13.5H16.8103C16.564 13.4993 16.32 13.5475 16.0924 13.6418C15.8649 13.7362 15.6583 13.8747 15.4847 14.0494L13.7812 15.75H10.2188L8.51531 14.0494C8.34168 13.8747 8.1351 13.7362 7.90755 13.6418C7.68 13.5475 7.436 13.4993 7.18969 13.5H4.875V4.875H19.125ZM4.875 19.125V15.75H7.03125L8.73187 17.4506C8.90584 17.6257 9.11288 17.7644 9.34093 17.8587C9.56899 17.953 9.81352 18.001 10.0603 18H13.9397C14.186 18.0007 14.43 17.9525 14.6576 17.8582C14.8851 17.7638 15.0917 17.6253 15.2653 17.4506L16.9688 15.75H19.125V19.125H4.875ZM8.20406 10.9209C8.09918 10.8164 8.01597 10.6922 7.95918 10.5555C7.9024 10.4187 7.87318 10.2721 7.87318 10.1241C7.87318 9.976 7.9024 9.82939 7.95918 9.69264C8.01597 9.5559 8.09918 9.4317 8.20406 9.32719L11.2041 6.32719C11.3086 6.22231 11.4328 6.13909 11.5695 6.08231C11.7063 6.02553 11.8529 5.9963 12.0009 5.9963C12.149 5.9963 12.2956 6.02553 12.4324 6.08231C12.5691 6.13909 12.6933 6.22231 12.7978 6.32719L15.7978 9.32719C16.0092 9.53853 16.1279 9.82518 16.1279 10.1241C16.1279 10.4229 16.0092 10.7096 15.7978 10.9209C15.5865 11.1323 15.2998 11.251 15.0009 11.251C14.7021 11.251 14.4154 11.1323 14.2041 10.9209L13.125 9.84375V13.125C13.125 13.4234 13.0065 13.7095 12.7955 13.9205C12.5845 14.1315 12.2984 14.25 12 14.25C11.7016 14.25 11.4155 14.1315 11.2045 13.9205C10.9935 13.7095 10.875 13.4234 10.875 13.125V9.84375L9.79594 10.9237C9.69127 11.0282 9.56705 11.1109 9.43038 11.1673C9.2937 11.2237 9.14726 11.2526 8.99942 11.2523C8.85157 11.252 8.70523 11.2226 8.56876 11.1658C8.43229 11.1089 8.30836 11.0257 8.20406 10.9209Z" fill="#130032"/>
</svg>
