<svg width="24" height="24" viewBox="0 0 24 24" fill="none" xmlns="http://www.w3.org/2000/svg">
<path d="M19.5 2.625H4.5C4.00272 2.625 3.52581 2.82254 3.17417 3.17417C2.82254 3.52581 2.625 4.00272 2.625 4.5V19.5C2.625 19.9973 2.82254 20.4742 3.17417 20.8258C3.52581 21.1775 4.00272 21.375 4.5 21.375H19.5C19.9973 21.375 20.4742 21.1775 20.8258 20.8258C21.1775 20.4742 21.375 19.9973 21.375 19.5V4.5C21.375 4.00272 21.1775 3.52581 20.8258 3.17417C20.4742 2.82254 19.9973 2.625 19.5 2.625ZM19.125 4.875V13.5H16.8103C16.564 13.4993 16.32 13.5475 16.0924 13.6418C15.8649 13.7362 15.6583 13.8747 15.4847 14.0494L13.7812 15.75H10.2188L8.51531 14.0494C8.34168 13.8747 8.1351 13.7362 7.90755 13.6418C7.68 13.5475 7.436 13.4993 7.18969 13.5H4.875V4.875H19.125ZM4.875 19.125V15.75H7.03125L8.73187 17.4506C8.90584 17.6257 9.11288 17.7644 9.34093 17.8587C9.56899 17.953 9.81352 18.001 10.0603 18H13.9397C14.186 18.0007 14.43 17.9525 14.6576 17.8582C14.8851 17.7638 15.0917 17.6253 15.2653 17.4506L16.9688 15.75H19.125V19.125H4.875ZM8.20406 10.9209C7.99272 10.7096 7.87399 10.4229 7.87399 10.1241C7.87399 9.82518 7.99272 9.53853 8.20406 9.32719C8.41541 9.11584 8.70205 8.99711 9.00094 8.99711C9.29982 8.99711 9.58647 9.11584 9.79781 9.32719L10.875 10.4062V7.125C10.875 6.82663 10.9935 6.54048 11.2045 6.3295C11.4155 6.11853 11.7016 6 12 6C12.2984 6 12.5845 6.11853 12.7955 6.3295C13.0065 6.54048 13.125 6.82663 13.125 7.125V10.4062L14.2041 9.32625C14.4154 9.11491 14.7021 8.99617 15.0009 8.99617C15.2998 8.99617 15.5865 9.11491 15.7978 9.32625C16.0092 9.53759 16.1279 9.82424 16.1279 10.1231C16.1279 10.422 16.0092 10.7087 15.7978 10.92L12.7978 13.92C12.6933 14.0249 12.5691 14.1081 12.4324 14.1649C12.2956 14.2217 12.149 14.2509 12.0009 14.2509C11.8529 14.2509 11.7063 14.2217 11.5695 14.1649C11.4328 14.1081 11.3086 14.0249 11.2041 13.92L8.20406 10.9209Z" fill="#130032"/>
</svg>
