<svg width="24" height="24" viewBox="0 0 24 24" fill="none" xmlns="http://www.w3.org/2000/svg">
<path d="M17.25 3.375H6.75C5.25869 3.37674 3.82896 3.96993 2.77444 5.02444C1.71993 6.07896 1.12674 7.50869 1.125 9V18C1.125 18.4973 1.32254 18.9742 1.67417 19.3258C2.02581 19.6775 2.50272 19.875 3 19.875H21C21.4973 19.875 21.9742 19.6775 22.3258 19.3258C22.6775 18.9742 22.875 18.4973 22.875 18V9C22.8733 7.50869 22.2801 6.07896 21.2256 5.02444C20.171 3.96993 18.7413 3.37674 17.25 3.375ZM20.625 9V9.375H18V5.71031C18.7451 5.881 19.4103 6.29922 19.8871 6.89669C20.3638 7.49417 20.6239 8.23562 20.625 9ZM12 14.625C12.2984 14.625 12.5845 14.5065 12.7955 14.2955C13.0065 14.0845 13.125 13.7984 13.125 13.5V11.625H15.75V17.625H8.25V11.625H10.875V13.5C10.875 13.7984 10.9935 14.0845 11.2045 14.2955C11.4155 14.5065 11.7016 14.625 12 14.625ZM13.125 9.375V9C13.125 8.70163 13.0065 8.41548 12.7955 8.2045C12.5845 7.99353 12.2984 7.875 12 7.875C11.7016 7.875 11.4155 7.99353 11.2045 8.2045C10.9935 8.41548 10.875 8.70163 10.875 9V9.375H8.25V5.625H15.75V9.375H13.125ZM6 5.71031V9.375H3.375V9C3.37605 8.23562 3.63619 7.49417 4.11295 6.89669C4.58971 6.29922 5.25492 5.881 6 5.71031ZM3.375 11.625H6V17.625H3.375V11.625ZM18 17.625V11.625H20.625V17.625H18Z" fill="#130032"/>
</svg>
