<svg width="24" height="24" viewBox="0 0 24 24" fill="none" xmlns="http://www.w3.org/2000/svg">
<path d="M21.8878 17.308L18.0506 12.3739H19.5C19.7101 12.3739 19.9161 12.3151 20.0945 12.2041C20.2729 12.0931 20.4166 11.9343 20.5094 11.7458C20.6022 11.5572 20.6404 11.3465 20.6196 11.1374C20.5987 10.9283 20.5197 10.7292 20.3916 10.5627L12.8916 0.812678C12.7864 0.676483 12.6515 0.566207 12.4971 0.490331C12.3427 0.414455 12.173 0.375 12.0009 0.375C11.8289 0.375 11.6591 0.414455 11.5047 0.490331C11.3503 0.566207 11.2154 0.676483 11.1103 0.812678L3.6103 10.5627C3.48222 10.7291 3.40325 10.928 3.38234 11.1369C3.36144 11.3458 3.39942 11.5565 3.49199 11.7449C3.58457 11.9334 3.72804 12.0922 3.90618 12.2034C4.08432 12.3145 4.29001 12.3736 4.49999 12.3739H5.94936L2.11218 17.308C1.98282 17.4742 1.90272 17.6734 1.881 17.8829C1.85928 18.0924 1.89681 18.3038 1.98932 18.493C2.08184 18.6823 2.22561 18.8417 2.40429 18.9533C2.58296 19.0648 2.78936 19.1239 2.99999 19.1239H10.875V22.4989C10.875 22.7973 10.9935 23.0834 11.2045 23.2944C11.4155 23.5054 11.7016 23.6239 12 23.6239C12.2984 23.6239 12.5845 23.5054 12.7955 23.2944C13.0065 23.0834 13.125 22.7973 13.125 22.4989V19.1239H21C21.2106 19.1239 21.417 19.0648 21.5957 18.9533C21.7744 18.8417 21.9181 18.6823 22.0107 18.493C22.1032 18.3038 22.1407 18.0924 22.119 17.8829C22.0973 17.6734 22.0172 17.4742 21.8878 17.308ZM5.30061 16.8739L9.1378 11.9399C9.26716 11.7736 9.34726 11.5744 9.36898 11.3649C9.3907 11.1554 9.35317 10.944 9.26066 10.7548C9.16814 10.5656 9.02437 10.4061 8.84569 10.2946C8.66702 10.1831 8.46062 10.1239 8.24999 10.1239H6.78468L12 3.34393L17.2153 10.1239H15.75C15.5394 10.1239 15.333 10.1831 15.1543 10.2946C14.9756 10.4061 14.8318 10.5656 14.7393 10.7548C14.6468 10.944 14.6093 11.1554 14.631 11.3649C14.6527 11.5744 14.7328 11.7736 14.8622 11.9399L18.6994 16.8739H5.30061Z" fill="#130032"/>
</svg>
