<svg width="24" height="24" viewBox="0 0 24 24" fill="none" xmlns="http://www.w3.org/2000/svg">
<path d="M22.5648 4.73169C21.9433 4.06684 21.1917 3.53678 20.3568 3.17439C19.522 2.812 18.6215 2.625 17.7114 2.625C16.8012 2.625 15.9008 2.812 15.0659 3.17439C14.231 3.53678 13.4795 4.06684 12.8579 4.73169C12.537 5.06925 12.2497 5.43724 12.0001 5.83044C11.7505 5.43724 11.4632 5.06925 11.1423 4.73169C10.5208 4.06684 9.76923 3.53678 8.93434 3.17439C8.09946 2.812 7.19902 2.625 6.28887 2.625C5.37873 2.625 4.47829 2.812 3.6434 3.17439C2.80852 3.53678 2.05699 4.06684 1.43544 4.73169C1.31059 4.86275 1.21921 5.022 1.16905 5.19592C1.1189 5.36984 1.11145 5.55329 1.14733 5.7307C1.18322 5.90811 1.26139 6.07425 1.37519 6.215C1.489 6.35575 1.63509 6.46696 1.80106 6.53919L6.18762 8.44888C4.61681 9.11477 3.3396 10.326 2.59138 11.8593C1.84316 13.3926 1.67435 15.1447 2.11606 16.7926C2.16428 16.9706 2.2555 17.1339 2.38169 17.2684C2.50787 17.4028 2.66516 17.5041 2.8397 17.5635C3.01425 17.6228 3.20071 17.6384 3.38268 17.6087C3.56465 17.5791 3.73654 17.5052 3.88325 17.3936L10.8751 12.0704V21.0001C10.8751 21.2985 10.9937 21.5846 11.2046 21.7956C11.4156 22.0066 11.7018 22.1251 12.0001 22.1251C12.2985 22.1251 12.5846 22.0066 12.7956 21.7956C13.0066 21.5846 13.1251 21.2985 13.1251 21.0001V12.0704L20.1132 17.3945C20.26 17.5062 20.4319 17.5801 20.6138 17.6097C20.7958 17.6393 20.9822 17.6238 21.1568 17.5644C21.3313 17.5051 21.4886 17.4037 21.6148 17.2693C21.741 17.1349 21.8322 16.9715 21.8804 16.7936C22.3221 15.1456 22.1533 13.3935 21.4051 11.8602C20.6569 10.3269 19.3797 9.11571 17.8089 8.44982L22.1992 6.54013C22.3652 6.4679 22.5112 6.35669 22.6251 6.21594C22.7389 6.07519 22.817 5.90905 22.8529 5.73164C22.8888 5.55423 22.8813 5.37077 22.8312 5.19686C22.781 5.02294 22.6897 4.86369 22.5648 4.73263V4.73169ZM6.28887 4.87513C6.89374 4.87659 7.49187 5.00214 8.04626 5.24402C8.60066 5.48591 9.09952 5.83897 9.512 6.28138C9.95152 6.74407 10.2967 7.28795 10.5282 7.88263L4.50012 5.25951C5.06227 5.00569 5.67208 4.87466 6.28887 4.87513ZM4.16169 14.3579C4.28553 13.4013 4.69191 12.5033 5.32886 11.7788C5.96581 11.0544 6.80437 10.5364 7.73731 10.2911C8.15208 10.1809 8.57941 10.1251 9.00856 10.1251C9.22807 10.1246 9.44735 10.1393 9.66481 10.1692L4.16169 14.3579ZM19.2189 12.5448C19.544 13.1016 19.7535 13.7183 19.8348 14.3579L14.3439 10.1683C14.9866 10.0814 15.6402 10.1231 16.2667 10.2911C16.883 10.4538 17.461 10.7366 17.9676 11.1234C18.4743 11.5102 18.8995 11.9932 19.2189 12.5448ZM13.472 7.88263C13.7035 7.28795 14.0487 6.74407 14.4882 6.28138C14.9007 5.83897 15.3996 5.48591 15.954 5.24402C16.5084 5.00214 17.1065 4.87659 17.7114 4.87513C18.3282 4.87466 18.938 5.00569 19.5001 5.25951L13.472 7.88263Z" fill="#130032"/>
</svg>
