<svg width="24" height="24" viewBox="0 0 24 24" fill="none" xmlns="http://www.w3.org/2000/svg">
<path d="M16.5 14.625H19.5C19.9973 14.625 20.4742 14.4275 20.8258 14.0758C21.1775 13.7242 21.375 13.2473 21.375 12.75V9.75C21.375 9.25272 21.1775 8.77581 20.8258 8.42417C20.4742 8.07254 19.9973 7.875 19.5 7.875H16.5C16.0027 7.875 15.5258 8.07254 15.1742 8.42417C14.8225 8.77581 14.625 9.25272 14.625 9.75V10.125H8.625V7.875H9C9.49728 7.875 9.97419 7.67746 10.3258 7.32583C10.6775 6.97419 10.875 6.49728 10.875 6V3C10.875 2.50272 10.6775 2.02581 10.3258 1.67417C9.97419 1.32254 9.49728 1.125 9 1.125H6C5.50272 1.125 5.02581 1.32254 4.67417 1.67417C4.32254 2.02581 4.125 2.50272 4.125 3V6C4.125 6.49728 4.32254 6.97419 4.67417 7.32583C5.02581 7.67746 5.50272 7.875 6 7.875H6.375V18C6.375 18.6962 6.65156 19.3639 7.14384 19.8562C7.63613 20.3484 8.30381 20.625 9 20.625H14.625V21C14.625 21.4973 14.8225 21.9742 15.1742 22.3258C15.5258 22.6775 16.0027 22.875 16.5 22.875H19.5C19.9973 22.875 20.4742 22.6775 20.8258 22.3258C21.1775 21.9742 21.375 21.4973 21.375 21V18C21.375 17.5027 21.1775 17.0258 20.8258 16.6742C20.4742 16.3225 19.9973 16.125 19.5 16.125H16.5C16.0027 16.125 15.5258 16.3225 15.1742 16.6742C14.8225 17.0258 14.625 17.5027 14.625 18V18.375H9C8.90054 18.375 8.80516 18.3355 8.73483 18.2652C8.66451 18.1948 8.625 18.0995 8.625 18V12.375H14.625V12.75C14.625 13.2473 14.8225 13.7242 15.1742 14.0758C15.5258 14.4275 16.0027 14.625 16.5 14.625ZM6.375 3.375H8.625V5.625H6.375V3.375ZM16.875 18.375H19.125V20.625H16.875V18.375ZM16.875 10.125H19.125V12.375H16.875V10.125Z" fill="#130032"/>
</svg>
