<svg width="24" height="24" viewBox="0 0 24 24" fill="none" xmlns="http://www.w3.org/2000/svg">
<path d="M18.8597 5.58882C18.2722 4.25957 17.311 3.12967 16.0932 2.33651C14.8754 1.54335 13.4534 1.12109 12.0001 1.12109C10.5467 1.12109 9.1247 1.54335 7.90689 2.33651C6.68908 3.12967 5.72795 4.25957 5.14037 5.58882C3.49124 6.39936 2.21903 7.81571 1.58945 9.54205C0.959867 11.2684 1.0216 13.1712 1.76176 14.8531C2.50191 16.535 3.86325 17.8659 5.56145 18.5679C7.25965 19.2698 9.16339 19.2885 10.8751 18.6201V21.7494C10.8751 22.0478 10.9936 22.334 11.2046 22.5449C11.4155 22.7559 11.7017 22.8744 12.0001 22.8744C12.2984 22.8744 12.5846 22.7559 12.7955 22.5449C13.0065 22.334 13.1251 22.0478 13.1251 21.7494V18.6219C13.9607 18.953 14.8512 19.1234 15.7501 19.1244H15.9301C17.5273 19.0851 19.065 18.51 20.2962 17.4916C21.5273 16.4732 22.3804 15.0705 22.7184 13.5089C23.0564 11.9472 22.8597 10.3173 22.1599 8.88098C21.4601 7.44461 20.2978 6.28514 18.8597 5.58882ZM15.8766 16.8744C14.9031 16.8984 13.9448 16.6304 13.1251 16.1048V12.6951L17.0035 10.7554C17.1378 10.6906 17.2579 10.5997 17.3567 10.4881C17.4556 10.3765 17.5313 10.2464 17.5794 10.1052C17.6275 9.9641 17.6471 9.81481 17.637 9.66605C17.627 9.51728 17.5874 9.372 17.5207 9.23866C17.4539 9.10532 17.3614 8.98658 17.2483 8.88933C17.1353 8.79209 17.0041 8.71828 16.8622 8.67221C16.7204 8.62613 16.5709 8.60871 16.4223 8.62095C16.2737 8.63319 16.129 8.67485 15.9966 8.74351L13.1251 10.1788V8.24944C13.1251 7.95108 13.0065 7.66493 12.7955 7.45395C12.5846 7.24297 12.2984 7.12444 12.0001 7.12444C11.7017 7.12444 11.4155 7.24297 11.2046 7.45395C10.9936 7.66493 10.8751 7.95108 10.8751 8.24944V12.4288L8.00349 10.9935C7.73731 10.8651 7.43128 10.8466 7.15154 10.9419C6.87181 11.0373 6.64085 11.2389 6.50858 11.5032C6.37631 11.7675 6.35335 12.0733 6.44468 12.3544C6.536 12.6354 6.73426 12.8693 6.99662 13.0054L10.8751 14.9451V16.1048C10.0548 16.6291 9.09679 16.8971 8.12349 16.8744C5.54255 16.8098 3.36849 14.5719 3.37505 11.9873C3.37545 11.0161 3.66694 10.0674 4.2119 9.26359C4.75686 8.45977 5.53025 7.83777 6.43224 7.47788C6.5782 7.41904 6.71018 7.33023 6.81967 7.21719C6.92916 7.10414 7.01371 6.96939 7.06787 6.82163C7.43683 5.81001 8.10794 4.93631 8.99021 4.31898C9.87249 3.70164 10.9232 3.37053 12.0001 3.37053C13.0769 3.37053 14.1276 3.70164 15.0099 4.31898C15.8922 4.93631 16.5633 5.81001 16.9322 6.82163C16.9864 6.96939 17.071 7.10414 17.1804 7.21719C17.2899 7.33023 17.4219 7.41904 17.5679 7.47788C18.4696 7.83765 19.2428 8.45937 19.7877 9.26281C20.3326 10.0663 20.6243 11.0146 20.6251 11.9854C20.6326 14.5691 18.4576 16.8079 15.8766 16.8744Z" fill="#130032"/>
</svg>
