<svg width="24" height="24" viewBox="0 0 24 24" fill="none" xmlns="http://www.w3.org/2000/svg">
<path d="M15.375 20.2503C15.375 20.5487 15.2564 20.8348 15.0455 21.0458C14.8345 21.2568 14.5483 21.3753 14.25 21.3753H9.74996C9.45159 21.3753 9.16544 21.2568 8.95446 21.0458C8.74348 20.8348 8.62496 20.5487 8.62496 20.2503C8.62496 19.9519 8.74348 19.6658 8.95446 19.4548C9.16544 19.2438 9.45159 19.1253 9.74996 19.1253H14.25C14.5483 19.1253 14.8345 19.2438 15.0455 19.4548C15.2564 19.6658 15.375 19.9519 15.375 20.2503ZM22.5243 17.4472L22.0875 16.6878C21.9383 16.4293 21.6925 16.2407 21.4043 16.1634C21.116 16.0862 20.8089 16.1266 20.5504 16.2758C20.292 16.4249 20.1034 16.6707 20.0261 16.9589C19.9488 17.2472 19.9892 17.5543 20.1384 17.8128L20.5743 18.5703C20.6067 18.6229 20.6238 18.6834 20.6238 18.7451C20.6238 18.8069 20.6067 18.8674 20.5743 18.92C20.5362 18.9849 20.4812 19.0384 20.4152 19.0747C20.3492 19.111 20.2746 19.1288 20.1993 19.1262H18C17.7016 19.1262 17.4154 19.2448 17.2045 19.4557C16.9935 19.6667 16.875 19.9529 16.875 20.2512C16.875 20.5496 16.9935 20.8357 17.2045 21.0467C17.4154 21.2577 17.7016 21.3762 18 21.3762H20.1993C20.6699 21.3804 21.1331 21.2594 21.5414 21.0257C21.9498 20.7919 22.2887 20.4538 22.5234 20.0459C22.7539 19.6517 22.8755 19.2033 22.8757 18.7467C22.8759 18.29 22.7546 17.8415 22.5243 17.4472ZM5.99996 19.1253H3.80152C3.72623 19.1279 3.65164 19.1101 3.58563 19.0738C3.51962 19.0375 3.46465 18.984 3.42652 18.919C3.39418 18.8665 3.37706 18.8059 3.37706 18.7442C3.37706 18.6825 3.39418 18.6219 3.42652 18.5693L3.86152 17.8128C4.0107 17.5543 4.05111 17.2472 3.97383 16.9589C3.89656 16.6707 3.70795 16.4249 3.44949 16.2758C3.19103 16.1266 2.88389 16.0862 2.59564 16.1634C2.30739 16.2407 2.06164 16.4293 1.91246 16.6878L1.47558 17.4462C1.24535 17.8404 1.12402 18.2887 1.12402 18.7451C1.12402 19.2016 1.24535 19.6499 1.47558 20.044C1.7103 20.4523 2.04943 20.7908 2.45818 21.0248C2.86693 21.2587 3.33058 21.3797 3.80152 21.3753H5.99996C6.29833 21.3753 6.58448 21.2568 6.79545 21.0458C7.00643 20.8348 7.12496 20.5487 7.12496 20.2503C7.12496 19.9519 7.00643 19.6658 6.79545 19.4548C6.58448 19.2438 6.29833 19.1253 5.99996 19.1253ZM18.9534 14.6253C19.1509 14.6252 19.3448 14.5732 19.5158 14.4745C19.6868 14.3757 19.8288 14.2337 19.9275 14.0627C20.0262 13.8917 20.0782 13.6977 20.0782 13.5002C20.0782 13.3028 20.0262 13.1088 19.9275 12.9378L17.7712 9.18779C17.6973 9.05975 17.599 8.94751 17.4817 8.85749C17.3645 8.76746 17.2307 8.70141 17.0879 8.66311C16.7996 8.58575 16.4923 8.6261 16.2337 8.77529C15.9751 8.92447 15.7864 9.17027 15.709 9.4586C15.6707 9.60138 15.6609 9.75029 15.6802 9.89685C15.6994 10.0434 15.7473 10.1847 15.8212 10.3128L17.9775 14.0628C18.0764 14.2342 18.2188 14.3765 18.3904 14.4752C18.5619 14.574 18.7564 14.6257 18.9543 14.6253H18.9534ZM15.6093 5.43779L14.3259 3.20935C14.0884 2.80323 13.7488 2.46637 13.3407 2.23227C12.9326 1.99818 12.4704 1.875 12 1.875C11.5295 1.875 11.0673 1.99818 10.6592 2.23227C10.2511 2.46637 9.91149 2.80323 9.67402 3.20935L8.39058 5.43779C8.2414 5.69625 8.201 6.00339 8.27827 6.29164C8.35554 6.57989 8.54415 6.82563 8.80261 6.97482C9.06108 7.124 9.36822 7.1644 9.65646 7.08713C9.94471 7.00986 10.1905 6.82125 10.3396 6.56279L11.625 4.33154C11.6652 4.26863 11.7207 4.21688 11.7862 4.18103C11.8518 4.14518 11.9253 4.12639 12 4.12639C12.0747 4.12639 12.1482 4.14518 12.2137 4.18103C12.2792 4.21688 12.3347 4.26863 12.375 4.33154L13.6603 6.56279C13.7592 6.73405 13.9014 6.87623 14.0728 6.97498C14.2441 7.07373 14.4384 7.12558 14.6362 7.12529C14.8337 7.12609 15.0278 7.07431 15.1987 6.97529C15.3267 6.90132 15.4388 6.80287 15.5287 6.68557C15.6185 6.56826 15.6844 6.43439 15.7226 6.29161C15.7607 6.14883 15.7703 5.99994 15.7509 5.85343C15.7315 5.70693 15.6834 5.56569 15.6093 5.43779ZM7.76715 8.77529C7.50868 8.62623 7.2016 8.58595 6.91343 8.66331C6.62528 8.74067 6.37965 8.92933 6.23058 9.18779L4.07433 12.9378C3.92515 13.1964 3.8848 13.5036 3.96216 13.792C4.03952 14.0803 4.22825 14.3261 4.48683 14.4753C4.74542 14.6245 5.05268 14.6648 5.34101 14.5875C5.62935 14.5101 5.87515 14.3214 6.02433 14.0628L8.18058 10.3128C8.2545 10.1847 8.30243 10.0433 8.32166 9.89671C8.34088 9.75009 8.33101 9.60112 8.29261 9.45832C8.25421 9.31553 8.18804 9.1817 8.09787 9.0645C8.00771 8.94729 7.89532 8.84902 7.76715 8.77529Z" fill="#130032"/>
</svg>
