<svg width="24" height="24" viewBox="0 0 24 24" fill="none" xmlns="http://www.w3.org/2000/svg">
<path d="M22.5246 17.4472L14.3262 3.20935C14.0887 2.80323 13.7491 2.46637 13.341 2.23227C12.9329 1.99818 12.4707 1.875 12.0003 1.875C11.5298 1.875 11.0676 1.99818 10.6595 2.23227C10.2514 2.46637 9.91178 2.80323 9.67432 3.20935L1.47588 17.4472C1.24546 17.8413 1.12402 18.2896 1.12402 18.7461C1.12402 19.2026 1.24546 19.6509 1.47588 20.045C1.71071 20.4531 2.0499 20.7914 2.45864 21.0252C2.86739 21.259 3.33096 21.3798 3.80182 21.3753H20.1987C20.6692 21.3795 21.1324 21.2585 21.5408 21.0247C21.9492 20.791 22.2881 20.4528 22.5228 20.045C22.7535 19.651 22.8752 19.2028 22.8755 18.7463C22.8759 18.2898 22.7548 17.8414 22.5246 17.4472ZM20.5746 18.919C20.5365 18.984 20.4815 19.0375 20.4155 19.0738C20.3495 19.1101 20.2749 19.1279 20.1996 19.1253H3.80182C3.72653 19.1279 3.65194 19.1101 3.58593 19.0738C3.51992 19.0375 3.46495 18.984 3.42682 18.919C3.39448 18.8664 3.37735 18.8059 3.37735 18.7442C3.37735 18.6825 3.39448 18.6219 3.42682 18.5693L11.6253 4.33154C11.6655 4.26863 11.721 4.21688 11.7865 4.18103C11.8521 4.14518 11.9256 4.12639 12.0003 4.12639C12.075 4.12639 12.1484 4.14518 12.214 4.18103C12.2795 4.21688 12.335 4.26863 12.3753 4.33154L20.5737 18.5693C20.6062 18.6218 20.6235 18.6823 20.6236 18.7441C20.6238 18.8058 20.6068 18.8664 20.5746 18.919Z" fill="#130032"/>
</svg>
