<svg width="24" height="24" viewBox="0 0 24 24" fill="none" xmlns="http://www.w3.org/2000/svg">
<path d="M9.00004 14.625H20.25C20.7473 14.625 21.2242 14.4275 21.5759 14.0758C21.9275 13.7242 22.125 13.2473 22.125 12.75V7.125C22.125 6.62772 21.9275 6.15081 21.5759 5.79917C21.2242 5.44754 20.7473 5.25 20.25 5.25H18V3.75C18 3.50377 17.9515 3.25995 17.8573 3.03247C17.7631 2.80498 17.625 2.59828 17.4509 2.42417C17.2768 2.25006 17.0701 2.11195 16.8426 2.01773C16.6151 1.9235 16.3713 1.875 16.125 1.875H13.125C12.6278 1.875 12.1508 2.07254 11.7992 2.42417C11.4476 2.77581 11.25 3.25272 11.25 3.75V5.25H9.00004C8.50276 5.25 8.02584 5.44754 7.67421 5.79917C7.32258 6.15081 7.12504 6.62772 7.12504 7.125V12.75C7.12504 13.2473 7.32258 13.7242 7.67421 14.0758C8.02584 14.4275 8.50276 14.625 9.00004 14.625ZM13.5 4.125H15.75V5.25H13.5V4.125ZM9.37504 7.5H19.875V12.375H9.37504V7.5ZM8.62504 21C8.62504 21.3708 8.51507 21.7334 8.30904 22.0417C8.10302 22.35 7.81018 22.5904 7.46757 22.7323C7.12496 22.8742 6.74796 22.9113 6.38424 22.839C6.02053 22.7666 5.68644 22.588 5.42421 22.3258C5.16199 22.0636 4.98341 21.7295 4.91106 21.3658C4.83872 21.0021 4.87585 20.6251 5.01776 20.2825C5.15968 19.9399 5.4 19.647 5.70834 19.441C6.01669 19.235 6.3792 19.125 6.75004 19.125C6.99627 19.125 7.24008 19.1735 7.46757 19.2677C7.69506 19.362 7.90175 19.5001 8.07586 19.6742C8.24997 19.8483 8.38808 20.055 8.48231 20.2825C8.57654 20.51 8.62504 20.7538 8.62504 21ZM22.125 21C22.125 21.3708 22.0151 21.7334 21.809 22.0417C21.603 22.35 21.3102 22.5904 20.9676 22.7323C20.625 22.8742 20.248 22.9113 19.8842 22.839C19.5205 22.7666 19.1864 22.588 18.9242 22.3258C18.662 22.0636 18.4834 21.7295 18.4111 21.3658C18.3387 21.0021 18.3759 20.6251 18.5178 20.2825C18.6597 19.9399 18.9 19.647 19.2083 19.441C19.5167 19.235 19.8792 19.125 20.25 19.125C20.7473 19.125 21.2242 19.3225 21.5759 19.6742C21.9275 20.0258 22.125 20.5027 22.125 21ZM23.625 16.875C23.625 17.1734 23.5065 17.4595 23.2955 17.6705C23.0846 17.8815 22.7984 18 22.5 18H3.00004C2.70167 18 2.41552 17.8815 2.20454 17.6705C1.99356 17.4595 1.87504 17.1734 1.87504 16.875C1.87504 16.5766 1.99356 16.2905 2.20454 16.0795C2.41552 15.8685 2.70167 15.75 3.00004 15.75H3.37504V7.21875L1.4541 5.29594C1.24276 5.08459 1.12402 4.79795 1.12402 4.49906C1.12402 4.20018 1.24276 3.91353 1.4541 3.70219C1.66544 3.49084 1.95209 3.37211 2.25097 3.37211C2.54986 3.37211 2.83651 3.49084 3.04785 3.70219L5.07566 5.73469C5.25037 5.90832 5.38889 6.1149 5.48319 6.34245C5.57749 6.57 5.6257 6.814 5.62504 7.06031V15.75H22.5C22.7984 15.75 23.0846 15.8685 23.2955 16.0795C23.5065 16.2905 23.625 16.5766 23.625 16.875Z" fill="#130032"/>
</svg>
