<svg width="24" height="24" viewBox="0 0 24 24" fill="none" xmlns="http://www.w3.org/2000/svg">
<path d="M8.62496 21.001C8.62496 21.3719 8.51499 21.7344 8.30896 22.0427C8.10294 22.3511 7.8101 22.5914 7.46749 22.7333C7.12488 22.8752 6.74788 22.9123 6.38416 22.84C6.02045 22.7676 5.68636 22.5891 5.42413 22.3268C5.16191 22.0646 4.98333 21.7305 4.91099 21.3668C4.83864 21.0031 4.87577 20.6261 5.01768 20.2835C5.1596 19.9409 5.39992 19.648 5.70827 19.442C6.01661 19.236 6.37912 19.126 6.74996 19.126C6.99619 19.126 7.24001 19.1745 7.46749 19.2687C7.69498 19.363 7.90167 19.5011 8.07578 19.6752C8.24989 19.8493 8.38801 20.056 8.48223 20.2835C8.57646 20.511 8.62496 20.7548 8.62496 21.001ZM20.25 19.126C19.8791 19.126 19.5166 19.236 19.2083 19.442C18.8999 19.648 18.6596 19.9409 18.5177 20.2835C18.3758 20.6261 18.3386 21.0031 18.411 21.3668C18.4833 21.7305 18.6619 22.0646 18.9241 22.3268C19.1864 22.5891 19.5204 22.7676 19.8842 22.84C20.2479 22.9123 20.6249 22.8752 20.9675 22.7333C21.3101 22.5914 21.6029 22.3511 21.809 22.0427C22.015 21.7344 22.125 21.3719 22.125 21.001C22.125 20.5037 21.9274 20.0268 21.5758 19.6752C21.2242 19.3236 20.7472 19.126 20.25 19.126ZM22.5 15.751H5.62496V7.06133C5.62563 6.81501 5.57741 6.57101 5.48311 6.34346C5.38881 6.11591 5.25029 5.90934 5.07558 5.7357L3.0459 3.70508C2.83455 3.49373 2.54791 3.375 2.24902 3.375C1.95014 3.375 1.66349 3.49373 1.45215 3.70508C1.2408 3.91642 1.12207 4.20307 1.12207 4.50195C1.12207 4.80084 1.2408 5.08748 1.45215 5.29883L3.37496 7.21976V15.751H2.99996C2.70159 15.751 2.41544 15.8695 2.20446 16.0805C1.99349 16.2915 1.87496 16.5776 1.87496 16.876C1.87496 17.1744 1.99349 17.4605 2.20446 17.6715C2.41544 17.8825 2.70159 18.001 2.99996 18.001H22.5C22.7983 18.001 23.0845 17.8825 23.2955 17.6715C23.5064 17.4605 23.625 17.1744 23.625 16.876C23.625 16.5776 23.5064 16.2915 23.2955 16.0805C23.0845 15.8695 22.7983 15.751 22.5 15.751Z" fill="#130032"/>
</svg>
