<svg width="24" height="24" viewBox="0 0 24 24" fill="none" xmlns="http://www.w3.org/2000/svg">
<path d="M18 11.625C18.2984 11.625 18.5845 11.5065 18.7955 11.2955C19.0065 11.0845 19.125 10.7984 19.125 10.5V6.75C19.125 6.45163 19.0065 6.16548 18.7955 5.9545C18.5845 5.74353 18.2984 5.625 18 5.625H14.625V2.25C14.625 1.95163 14.5065 1.66548 14.2955 1.4545C14.0845 1.24353 13.7984 1.125 13.5 1.125H10.5C10.2016 1.125 9.91548 1.24353 9.7045 1.4545C9.49353 1.66548 9.375 1.95163 9.375 2.25C9.375 3.14511 9.01942 4.00355 8.38649 4.63649C7.75355 5.26942 6.89511 5.625 6 5.625C5.70163 5.625 5.41548 5.74353 5.2045 5.9545C4.99353 6.16548 4.875 6.45163 4.875 6.75V10.5C4.875 10.7984 4.99353 11.0845 5.2045 11.2955C5.41548 11.5065 5.70163 11.625 6 11.625H7.875V16.5C7.87674 18.1902 8.54894 19.8107 9.74411 21.0059C10.9393 22.2011 12.5598 22.8733 14.25 22.875H18C18.2984 22.875 18.5845 22.7565 18.7955 22.5455C19.0065 22.3345 19.125 22.0484 19.125 21.75V17.25C19.125 16.9516 19.0065 16.6655 18.7955 16.4545C18.5845 16.2435 18.2984 16.125 18 16.125H15C14.9005 16.125 14.8052 16.0855 14.7348 16.0152C14.6645 15.9448 14.625 15.8495 14.625 15.75V11.625H18ZM15 18.375H16.875V20.625H14.25C13.1564 20.6238 12.1079 20.1888 11.3346 19.4154C10.5612 18.6421 10.1262 17.5936 10.125 16.5V10.5C10.125 10.2016 10.0065 9.91548 9.7955 9.7045C9.58452 9.49353 9.29837 9.375 9 9.375H7.125V7.76156C8.20479 7.53896 9.1957 7.00487 9.97529 6.22529C10.7549 5.4457 11.289 4.45479 11.5116 3.375H12.375V6.75C12.375 7.04837 12.4935 7.33452 12.7045 7.5455C12.9155 7.75647 13.2016 7.875 13.5 7.875H16.875V9.375H13.5C13.2016 9.375 12.9155 9.49353 12.7045 9.7045C12.4935 9.91548 12.375 10.2016 12.375 10.5V15.75C12.375 16.4462 12.6516 17.1139 13.1438 17.6062C13.6361 18.0984 14.3038 18.375 15 18.375Z" fill="#130032"/>
</svg>
