<svg width="24" height="24" viewBox="0 0 24 24" fill="none" xmlns="http://www.w3.org/2000/svg">
<path d="M23.54 6.32012C23.4549 6.11446 23.3106 5.93868 23.1256 5.81502C22.9405 5.69136 22.7229 5.62538 22.5003 5.62543H19.8584C19.4144 4.94195 18.8082 4.37887 18.094 3.98631C17.3797 3.59375 16.5794 3.3839 15.7644 3.37543C15.1285 3.36689 14.4973 3.48567 13.9081 3.72476C13.3188 3.96385 12.7833 4.31843 12.3331 4.76762C11.8702 5.22163 11.5028 5.76364 11.2524 6.36176C11.002 6.95988 10.8738 7.60203 10.8753 8.25043V8.32355C7.4225 7.23887 4.65218 4.48918 4.62218 4.45824C4.47123 4.30612 4.27997 4.20028 4.07091 4.15317C3.86184 4.10606 3.64367 4.11965 3.44207 4.19234C3.24046 4.26502 3.06381 4.39378 2.9329 4.56345C2.802 4.73313 2.72227 4.93667 2.70312 5.15012C2.11156 11.7286 5.01406 15.2554 6.64625 16.6926C5.28781 18.0782 3.37531 18.8142 3.35656 18.8217C3.19755 18.8809 3.05398 18.9753 2.93661 19.0978C2.81924 19.2203 2.7311 19.3678 2.6788 19.5292C2.6265 19.6906 2.61139 19.8618 2.6346 20.0299C2.6578 20.198 2.71873 20.3586 2.81281 20.4998C3.00031 20.7707 4.07281 22.1254 7.50031 22.1254C14.2737 22.1254 19.9409 16.9448 20.5878 10.2539L23.2953 7.54637C23.4528 7.3891 23.5602 7.18865 23.6037 6.97037C23.6473 6.75209 23.6251 6.52579 23.54 6.32012ZM18.7053 8.95543C18.5114 9.14852 18.395 9.40602 18.3781 9.67918C18.0134 15.397 13.2359 19.8754 7.50031 19.8754C7.10876 19.8777 6.71752 19.853 6.32937 19.8014C7.31281 19.177 8.41156 18.2882 9.18781 17.1248C9.27272 16.9974 9.33075 16.8541 9.35835 16.7035C9.38594 16.553 9.38252 16.3984 9.34829 16.2492C9.31407 16.1 9.24975 15.9593 9.15929 15.8359C9.06883 15.7124 8.95412 15.6087 8.82218 15.5311C8.81093 15.5245 7.66625 14.8289 6.62562 13.2417C5.585 11.6545 5.0075 9.77293 4.895 7.6373C6.50375 8.85043 9.00031 10.387 11.8128 10.8604C11.9742 10.8877 12.1396 10.8794 12.2974 10.8362C12.4553 10.793 12.6018 10.7158 12.7268 10.6102C12.8517 10.5045 12.9521 10.3728 13.021 10.2243C13.0898 10.0758 13.1254 9.9141 13.1253 9.75043V8.25043C13.1245 7.90006 13.1939 7.55307 13.3293 7.22992C13.4647 6.90677 13.6634 6.614 13.9137 6.36887C14.1528 6.12971 14.4373 5.94075 14.7504 5.81308C15.0636 5.68541 15.399 5.62161 15.7372 5.62543C16.2484 5.63227 16.7472 5.78398 17.1757 6.06293C17.6041 6.34188 17.9447 6.73663 18.1578 7.20137C18.2455 7.40184 18.3898 7.57239 18.573 7.69211C18.7561 7.81184 18.9702 7.87554 19.1891 7.87543H19.7816L18.7053 8.95543Z" fill="#130032"/>
</svg>
