<svg width="24" height="24" viewBox="0 0 24 24" fill="none" xmlns="http://www.w3.org/2000/svg">
<path d="M19.5 2.625H4.5C4.00272 2.625 3.52581 2.82254 3.17417 3.17417C2.82254 3.52581 2.625 4.00272 2.625 4.5V18C2.625 18.4973 2.82254 18.9742 3.17417 19.3258C3.52581 19.6775 4.00272 19.875 4.5 19.875H5.625V22.5C5.62501 22.7138 5.68594 22.9232 5.80065 23.1036C5.91537 23.284 6.07912 23.428 6.27272 23.5187C6.46633 23.6094 6.68177 23.6431 6.89381 23.6157C7.10586 23.5884 7.30572 23.5012 7.47 23.3644L11.6569 19.875H15.4781C15.9169 19.8745 16.3418 19.7207 16.6791 19.44L20.7 16.0894C20.9116 15.9137 21.0819 15.6934 21.1986 15.4444C21.3152 15.1953 21.3755 14.9235 21.375 14.6484V4.5C21.375 4.00272 21.1775 3.52581 20.8258 3.17417C20.4742 2.82254 19.9973 2.625 19.5 2.625ZM19.125 14.4731L15.3431 17.625H11.25C10.9869 17.625 10.7321 17.7172 10.53 17.8856L7.875 20.0981V18.75C7.875 18.4516 7.75647 18.1655 7.5455 17.9545C7.33452 17.7435 7.04837 17.625 6.75 17.625H4.875V4.875H19.125V14.4731ZM14.625 12.75V8.25C14.625 7.95163 14.7435 7.66548 14.9545 7.4545C15.1655 7.24353 15.4516 7.125 15.75 7.125C16.0484 7.125 16.3345 7.24353 16.5455 7.4545C16.7565 7.66548 16.875 7.95163 16.875 8.25V12.75C16.875 13.0484 16.7565 13.3345 16.5455 13.5455C16.3345 13.7565 16.0484 13.875 15.75 13.875C15.4516 13.875 15.1655 13.7565 14.9545 13.5455C14.7435 13.3345 14.625 13.0484 14.625 12.75ZM10.125 12.75V8.25C10.125 7.95163 10.2435 7.66548 10.4545 7.4545C10.6655 7.24353 10.9516 7.125 11.25 7.125C11.5484 7.125 11.8345 7.24353 12.0455 7.4545C12.2565 7.66548 12.375 7.95163 12.375 8.25V12.75C12.375 13.0484 12.2565 13.3345 12.0455 13.5455C11.8345 13.7565 11.5484 13.875 11.25 13.875C10.9516 13.875 10.6655 13.7565 10.4545 13.5455C10.2435 13.3345 10.125 13.0484 10.125 12.75Z" fill="#130032"/>
</svg>
