<svg width="24" height="24" viewBox="0 0 24 24" fill="none" xmlns="http://www.w3.org/2000/svg">
<path d="M22.8684 11.8401C22.6915 9.807 21.9481 7.86425 20.7228 6.23233C19.4974 4.60042 17.8391 3.3447 15.936 2.60772C14.033 1.87074 11.9615 1.68201 9.95661 2.06296C7.95173 2.44391 6.0938 3.37927 4.5937 4.76288C2.58909 6.60216 1.35066 9.1289 1.12495 11.8401C1.10283 12.0994 1.13493 12.3604 1.2192 12.6066C1.30347 12.8528 1.43807 13.0788 1.61443 13.2702C1.7908 13.4615 2.00507 13.6141 2.2436 13.7181C2.48214 13.8221 2.73972 13.8754 2.99995 13.8744H10.875V18.7494C10.875 19.6445 11.2305 20.503 11.8635 21.1359C12.4964 21.7689 13.3548 22.1244 14.25 22.1244C15.1451 22.1244 16.0035 21.7689 16.6364 21.1359C17.2694 20.503 17.625 19.6445 17.625 18.7494C17.625 18.4511 17.5064 18.1649 17.2954 17.9539C17.0845 17.743 16.7983 17.6244 16.5 17.6244C16.2016 17.6244 15.9154 17.743 15.7045 17.9539C15.4935 18.1649 15.375 18.4511 15.375 18.7494C15.375 19.0478 15.2564 19.334 15.0454 19.5449C14.8345 19.7559 14.5483 19.8744 14.25 19.8744C13.9516 19.8744 13.6654 19.7559 13.4545 19.5449C13.2435 19.334 13.125 19.0478 13.125 18.7494V13.8744H21C21.2602 13.8754 21.5178 13.8221 21.7563 13.7181C21.9948 13.6141 22.2091 13.4615 22.3855 13.2702C22.5618 13.0788 22.6964 12.8528 22.7807 12.6066C22.865 12.3604 22.8971 12.0994 22.875 11.8401H22.8684ZM9.41339 11.6244C9.6637 7.93726 11.1084 5.67038 12 4.60538C12.8925 5.67319 14.3362 7.93913 14.5865 11.6244H9.41339ZM6.12276 6.41757C7.03042 5.57945 8.10753 4.94609 9.2812 4.56038C8.32495 6.11663 7.34901 8.44444 7.1587 11.6244H3.4162C3.67867 9.62475 4.63689 7.78133 6.12276 6.41757ZM16.8412 11.6244C16.6537 8.44444 15.675 6.11663 14.7178 4.56038C16.2604 5.06782 17.6289 5.99962 18.6664 7.249C19.7039 8.49839 20.3684 10.0148 20.5837 11.6244H16.8412Z" fill="#130032"/>
</svg>
