<svg width="24" height="24" viewBox="0 0 24 24" fill="none" xmlns="http://www.w3.org/2000/svg">
<path d="M19.875 6V13.5C19.875 15.5886 19.0453 17.5916 17.5685 19.0685C16.0916 20.5453 14.0886 21.375 12 21.375C9.91142 21.375 7.90838 20.5453 6.43153 19.0685C4.95468 17.5916 4.125 15.5886 4.125 13.5V6C4.125 5.70163 4.24353 5.41548 4.4545 5.2045C4.66548 4.99353 4.95163 4.875 5.25 4.875C5.54837 4.875 5.83452 4.99353 6.0455 5.2045C6.25647 5.41548 6.375 5.70163 6.375 6V13.5C6.375 14.9918 6.96763 16.4226 8.02252 17.4775C9.07742 18.5324 10.5082 19.125 12 19.125C13.4918 19.125 14.9226 18.5324 15.9775 17.4775C17.0324 16.4226 17.625 14.9918 17.625 13.5V6C17.625 5.70163 17.7435 5.41548 17.9545 5.2045C18.1655 4.99353 18.4516 4.875 18.75 4.875C19.0484 4.875 19.3345 4.99353 19.5455 5.2045C19.7565 5.41548 19.875 5.70163 19.875 6Z" fill="#130032"/>
</svg>
