<svg width="24" height="24" viewBox="0 0 24 24" fill="none" xmlns="http://www.w3.org/2000/svg">
<path d="M16.6875 7.31445C16.3857 5.93358 15.7177 4.6594 14.7538 3.62561C13.7898 2.59181 12.5654 1.83652 11.209 1.43898C9.85259 1.04143 8.41417 1.0163 7.04469 1.3662C5.67521 1.7161 4.42515 2.42815 3.42567 3.42763C2.4262 4.42711 1.71415 5.67717 1.36425 7.04665C1.01434 8.41613 1.03948 9.85454 1.43703 11.211C1.83457 12.5674 2.58986 13.7918 3.62365 14.7557C4.65744 15.7197 5.93162 16.3876 7.31249 16.6894C7.61433 18.0703 8.28226 19.3445 9.24621 20.3783C10.2101 21.4121 11.4346 22.1674 12.791 22.5649C14.1474 22.9625 15.5858 22.9876 16.9553 22.6377C18.3248 22.2878 19.5748 21.5757 20.5743 20.5763C21.5738 19.5768 22.2858 18.3267 22.6357 16.9572C22.9856 15.5878 22.9605 14.1494 22.563 12.7929C22.1654 11.4365 21.4101 10.2121 20.3763 9.24816C19.3425 8.28422 18.0684 7.61628 16.6875 7.31445ZM20.625 15.0019C20.6245 15.2103 20.6126 15.4184 20.5894 15.6254L16.4644 11.5004C16.6608 10.913 16.7867 10.3044 16.8394 9.68726C17.9439 10.0708 18.9017 10.7884 19.58 11.7407C20.2583 12.693 20.6235 13.8328 20.625 15.0019ZM13.6875 12.1013L11.9006 10.3144C12.7086 9.77781 13.6423 9.46085 14.61 9.39476C14.5426 10.3617 14.2247 11.2945 13.6875 12.1013ZM10.3125 11.9026L12.0994 13.6894C11.2914 14.2261 10.3577 14.543 9.38999 14.6091C9.4574 13.6422 9.77532 12.7094 10.3125 11.9026ZM14.3156 7.15882C13.6985 7.21149 13.0899 7.33737 12.5025 7.53382L8.37749 3.40882C8.58426 3.38684 8.79207 3.3762 8.99999 3.37695C10.1684 3.37853 11.3074 3.74338 12.2593 4.42096C13.2111 5.09854 13.9288 6.05533 14.3128 7.15882H14.3156ZM6.01781 4.2357L10.3987 8.61663C9.71431 9.11219 9.11305 9.71345 8.61749 10.3979L4.23374 6.01976C4.68682 5.29857 5.29661 4.68877 6.01781 4.2357ZM3.37499 9.00195C3.37546 8.79364 3.38735 8.58551 3.41062 8.37851L7.53562 12.5035C7.33917 13.0909 7.21329 13.6995 7.16062 14.3166C6.05612 13.9331 5.09831 13.2155 4.41999 12.2632C3.74168 11.3109 3.37646 10.1711 3.37499 9.00195ZM9.68718 16.8451C10.3043 16.7924 10.9129 16.6665 11.5003 16.4701L15.6253 20.5951C15.4176 20.6172 15.2089 20.6278 15 20.6269C13.8316 20.6254 12.6926 20.2605 11.7407 19.5829C10.7888 18.9054 10.0712 17.9486 9.68718 16.8451ZM17.9822 19.7682L13.6012 15.3873C14.2857 14.8917 14.8869 14.2904 15.3825 13.606L19.7634 17.9869C19.3108 18.7068 18.702 19.3156 17.9822 19.7682Z" fill="#130032"/>
</svg>
