<svg width="24" height="24" viewBox="0 0 24 24" fill="none" xmlns="http://www.w3.org/2000/svg">
<path d="M17.625 17.2509C17.3283 17.2509 17.0383 17.1629 16.7916 16.9981C16.545 16.8333 16.3527 16.599 16.2392 16.3249C16.1256 16.0508 16.0959 15.7492 16.1538 15.4583C16.2117 15.1673 16.3546 14.9 16.5643 14.6902C16.7741 14.4804 17.0414 14.3376 17.3324 14.2797C17.6233 14.2218 17.9249 14.2515 18.199 14.3651C18.4731 14.4786 18.7074 14.6709 18.8722 14.9175C19.037 15.1642 19.125 15.4542 19.125 15.7509C19.125 16.1487 18.967 16.5302 18.6857 16.8115C18.4044 17.0929 18.0228 17.2509 17.625 17.2509ZM21 10.8759H16.875C16.5766 10.8759 16.2905 10.9944 16.0795 11.2054C15.8685 11.4164 15.75 11.7025 15.75 12.0009C15.75 12.2993 15.8685 12.5854 16.0795 12.7964C16.2905 13.0074 16.5766 13.1259 16.875 13.1259H20.625V18.3759H3.375V13.1259H7.125C7.42337 13.1259 7.70952 13.0074 7.9205 12.7964C8.13147 12.5854 8.25 12.2993 8.25 12.0009C8.25 11.7025 8.13147 11.4164 7.9205 11.2054C7.70952 10.9944 7.42337 10.8759 7.125 10.8759H3C2.50272 10.8759 2.02581 11.0734 1.67417 11.4251C1.32254 11.7767 1.125 12.2536 1.125 12.7509V18.7509C1.125 19.2482 1.32254 19.7251 1.67417 20.0767C2.02581 20.4283 2.50272 20.6259 3 20.6259H21C21.4973 20.6259 21.9742 20.4283 22.3258 20.0767C22.6775 19.7251 22.875 19.2482 22.875 18.7509V12.7509C22.875 12.2536 22.6775 11.7767 22.3258 11.4251C21.9742 11.0734 21.4973 10.8759 21 10.8759ZM8.29594 7.54682L10.875 4.96964V12.0009C10.875 12.2993 10.9935 12.5854 11.2045 12.7964C11.4155 13.0074 11.7016 13.1259 12 13.1259C12.2984 13.1259 12.5845 13.0074 12.7955 12.7964C13.0065 12.5854 13.125 12.2993 13.125 12.0009V4.96964L15.7041 7.54964C15.8087 7.65428 15.9329 7.73729 16.0697 7.79393C16.2064 7.85056 16.3529 7.87971 16.5009 7.87971C16.6489 7.87971 16.7955 7.85056 16.9322 7.79393C17.0689 7.73729 17.1932 7.65428 17.2978 7.54964C17.4025 7.44499 17.4855 7.32076 17.5421 7.18403C17.5987 7.0473 17.6279 6.90075 17.6279 6.75276C17.6279 6.60477 17.5987 6.45822 17.5421 6.3215C17.4855 6.18477 17.4025 6.06053 17.2978 5.95589L12.7978 1.45589C12.6933 1.35101 12.5691 1.26779 12.4324 1.21101C12.2956 1.15423 12.149 1.125 12.0009 1.125C11.8529 1.125 11.7063 1.15423 11.5695 1.21101C11.4328 1.26779 11.3086 1.35101 11.2041 1.45589L6.70406 5.95589C6.59942 6.06053 6.5164 6.18477 6.45977 6.3215C6.40314 6.45822 6.37399 6.60477 6.37399 6.75276C6.37399 7.05165 6.49272 7.33829 6.70406 7.54964C6.91541 7.76098 7.20205 7.87971 7.50094 7.87971C7.79982 7.87971 8.08647 7.76098 8.29781 7.54964L8.29594 7.54682Z" fill="#130032"/>
</svg>
