<svg width="24" height="24" viewBox="0 0 24 24" fill="none" xmlns="http://www.w3.org/2000/svg">
<path d="M21.375 13.5009V19.5009C21.375 19.7993 21.2565 20.0854 21.0455 20.2964C20.8345 20.5074 20.5484 20.6259 20.25 20.6259H3.75C3.45163 20.6259 3.16548 20.5074 2.9545 20.2964C2.74353 20.0854 2.625 19.7993 2.625 19.5009V13.5009C2.625 13.2025 2.74353 12.9164 2.9545 12.7054C3.16548 12.4944 3.45163 12.3759 3.75 12.3759C4.04837 12.3759 4.33452 12.4944 4.5455 12.7054C4.75647 12.9164 4.875 13.2025 4.875 13.5009V18.3759H19.125V13.5009C19.125 13.2025 19.2435 12.9164 19.4545 12.7054C19.6655 12.4944 19.9516 12.3759 20.25 12.3759C20.5484 12.3759 20.8345 12.4944 21.0455 12.7054C21.2565 12.9164 21.375 13.2025 21.375 13.5009ZM9.04594 7.54682L10.875 5.71964V13.5009C10.875 13.7993 10.9935 14.0854 11.2045 14.2964C11.4155 14.5074 11.7016 14.6259 12 14.6259C12.2984 14.6259 12.5845 14.5074 12.7955 14.2964C13.0065 14.0854 13.125 13.7993 13.125 13.5009V5.71964L14.9541 7.54964C15.0587 7.65428 15.1829 7.73729 15.3197 7.79393C15.4564 7.85056 15.6029 7.87971 15.7509 7.87971C15.8989 7.87971 16.0455 7.85056 16.1822 7.79393C16.3189 7.73729 16.4432 7.65428 16.5478 7.54964C16.6525 7.44499 16.7355 7.32076 16.7921 7.18403C16.8487 7.0473 16.8779 6.90075 16.8779 6.75276C16.8779 6.60477 16.8487 6.45822 16.7921 6.3215C16.7355 6.18477 16.6525 6.06053 16.5478 5.95589L12.7978 2.20589C12.6933 2.10101 12.5691 2.01779 12.4324 1.96101C12.2956 1.90423 12.149 1.875 12.0009 1.875C11.8529 1.875 11.7063 1.90423 11.5695 1.96101C11.4328 2.01779 11.3086 2.10101 11.2041 2.20589L7.45406 5.95589C7.34942 6.06053 7.2664 6.18477 7.20977 6.3215C7.15314 6.45822 7.12399 6.60477 7.12399 6.75276C7.12399 7.05165 7.24272 7.33829 7.45406 7.54964C7.66541 7.76098 7.95205 7.87971 8.25094 7.87971C8.54982 7.87971 8.83647 7.76098 9.04781 7.54964L9.04594 7.54682Z" fill="#130032"/>
</svg>
