<svg width="24" height="24" viewBox="0 0 24 24" fill="none" xmlns="http://www.w3.org/2000/svg">
<path d="M23.55 11.1L19.05 7.72501C18.8829 7.59965 18.6841 7.52332 18.476 7.50455C18.268 7.48579 18.0588 7.52534 17.8719 7.61878C17.685 7.71221 17.5279 7.85584 17.418 8.03356C17.3082 8.21128 17.25 8.41608 17.25 8.62501V10.875H7.125V7.12501H9.19312C9.45851 7.87562 9.9807 8.50826 10.6674 8.91109C11.3541 9.31393 12.1611 9.46103 12.9458 9.3264C13.7305 9.19177 14.4423 8.78408 14.9555 8.17537C15.4687 7.56667 15.7501 6.79615 15.7501 6.00001C15.7501 5.20386 15.4687 4.43334 14.9555 3.82464C14.4423 3.21594 13.7305 2.80824 12.9458 2.67361C12.1611 2.53898 11.3541 2.68608 10.6674 3.08892C9.9807 3.49176 9.45851 4.12439 9.19312 4.87501H6.75C6.25272 4.87501 5.77581 5.07255 5.42417 5.42418C5.07254 5.77581 4.875 6.25273 4.875 6.75001V10.875H1.125C0.826631 10.875 0.540483 10.9935 0.329505 11.2045C0.118526 11.4155 0 11.7016 0 12C0 12.2984 0.118526 12.5845 0.329505 12.7955C0.540483 13.0065 0.826631 13.125 1.125 13.125H4.875V17.25C4.875 17.7473 5.07254 18.2242 5.42417 18.5758C5.77581 18.9275 6.25272 19.125 6.75 19.125H9V19.5C9 19.9973 9.19754 20.4742 9.54918 20.8258C9.90081 21.1775 10.3777 21.375 10.875 21.375H13.875C14.3723 21.375 14.8492 21.1775 15.2008 20.8258C15.5525 20.4742 15.75 19.9973 15.75 19.5V16.5C15.75 16.0027 15.5525 15.5258 15.2008 15.1742C14.8492 14.8226 14.3723 14.625 13.875 14.625H10.875C10.3777 14.625 9.90081 14.8226 9.54918 15.1742C9.19754 15.5258 9 16.0027 9 16.5V16.875H7.125V13.125H17.25V15.375C17.25 15.5839 17.3082 15.7887 17.418 15.9665C17.5279 16.1442 17.685 16.2878 17.8719 16.3812C18.0588 16.4747 18.268 16.5142 18.476 16.4955C18.6841 16.4767 18.8829 16.4004 19.05 16.275L23.55 12.9C23.6897 12.7952 23.8031 12.6593 23.8812 12.5031C23.9593 12.3469 24 12.1747 24 12C24 11.8254 23.9593 11.6531 23.8812 11.4969C23.8031 11.3407 23.6897 11.2048 23.55 11.1ZM12.375 4.87501C12.5975 4.87501 12.815 4.94099 13 5.0646C13.185 5.18822 13.3292 5.36392 13.4144 5.56949C13.4995 5.77505 13.5218 6.00126 13.4784 6.21948C13.435 6.43771 13.3278 6.63817 13.1705 6.7955C13.0132 6.95284 12.8127 7.05998 12.5945 7.10339C12.3762 7.1468 12.15 7.12452 11.9445 7.03937C11.7389 6.95422 11.5632 6.81003 11.4396 6.62502C11.316 6.44002 11.25 6.22251 11.25 6.00001C11.25 5.70164 11.3685 5.41549 11.5795 5.20451C11.7905 4.99353 12.0766 4.87501 12.375 4.87501ZM11.25 16.875H13.5V19.125H11.25V16.875ZM19.5 13.125V10.875L21 12L19.5 13.125Z" fill="#130032"/>
</svg>
