<svg width="24" height="24" viewBox="0 0 24 24" fill="none" xmlns="http://www.w3.org/2000/svg">
<path d="M19.9691 16.3355C19.8491 16.2491 19.7133 16.1872 19.5693 16.1534C19.4254 16.1195 19.2762 16.1144 19.1302 16.1382C18.9843 16.1621 18.8445 16.2145 18.7188 16.2924C18.5932 16.3703 18.4841 16.4723 18.3979 16.5924C18.306 16.7212 18.2107 16.8462 18.1119 16.9674C17.4378 15.8383 16.4644 14.9177 15.2994 14.3077C15.8956 13.6656 16.2913 12.8633 16.438 11.9995C16.5848 11.1356 16.4761 10.2477 16.1253 9.44473C15.7746 8.64176 15.1971 7.95865 14.4636 7.47925C13.7301 6.99985 12.8727 6.74501 11.9964 6.74601C11.1202 6.74701 10.2633 7.0038 9.53098 7.48487C8.79861 7.96594 8.22263 8.65035 7.87372 9.45412C7.52481 10.2579 7.41814 11.146 7.56682 12.0096C7.7155 12.8731 8.11305 13.6744 8.71068 14.3152C7.54736 14.9245 6.57283 15.8404 5.89256 16.9637C4.94017 15.7959 4.34452 14.3784 4.17693 12.8808C4.40039 13.0717 4.68966 13.1676 4.98289 13.1479C5.27611 13.1283 5.55 12.9946 5.74597 12.7756C5.94194 12.5566 6.04444 12.2696 6.03154 11.9761C6.01864 11.6825 5.89136 11.4056 5.67693 11.2046L3.80193 9.32959C3.69742 9.22471 3.57323 9.1415 3.43648 9.08472C3.29973 9.02794 3.15312 8.99871 3.00506 8.99871C2.85699 8.99871 2.71038 9.02794 2.57364 9.08472C2.43689 9.1415 2.3127 9.22471 2.20818 9.32959L0.333184 11.2046C0.128986 11.4156 0.015375 11.6981 0.0166116 11.9917C0.0178481 12.2853 0.133834 12.5668 0.339802 12.7761C0.545769 12.9854 0.825393 13.1058 1.11896 13.1117C1.41253 13.1176 1.69677 13.0085 1.911 12.8077C2.01749 14.1341 2.38467 15.4264 2.99149 16.6106C3.5983 17.7947 4.43283 18.8476 5.44725 19.7087C5.50097 19.7634 5.56001 19.8128 5.6235 19.8558C7.43166 21.328 9.69318 22.1299 12.0249 22.1254C14.3566 22.121 16.615 21.3105 18.4176 19.8315C18.4596 19.8009 18.4997 19.7677 18.5376 19.7321C19.1731 19.1958 19.7399 18.583 20.2251 17.9077C20.3117 17.7877 20.3737 17.6519 20.4077 17.5079C20.4418 17.3639 20.447 17.2146 20.4233 17.0685C20.3995 16.9225 20.3471 16.7826 20.2692 16.6568C20.1913 16.531 20.0893 16.4218 19.9691 16.3355ZM12.0004 8.99866C12.4454 8.99866 12.8804 9.13062 13.2504 9.37785C13.6204 9.62508 13.9088 9.97649 14.0791 10.3876C14.2494 10.7988 14.294 11.2512 14.2071 11.6876C14.1203 12.1241 13.906 12.525 13.5914 12.8396C13.2767 13.1543 12.8758 13.3686 12.4393 13.4554C12.0029 13.5422 11.5505 13.4977 11.1393 13.3274C10.7282 13.1571 10.3768 12.8687 10.1296 12.4987C9.88233 12.1287 9.75037 11.6937 9.75037 11.2487C9.75037 10.6519 9.98742 10.0796 10.4094 9.65767C10.8313 9.23571 11.4036 8.99866 12.0004 8.99866ZM12.0004 19.8737C10.4317 19.8756 8.89855 19.4062 7.59975 18.5265C7.99602 17.6951 8.61967 16.993 9.39849 16.5015C10.1773 16.01 11.0794 15.7491 12.0004 15.7491C12.9213 15.7491 13.8234 16.01 14.6023 16.5015C15.3811 16.993 16.0047 17.6951 16.401 18.5265C15.1008 19.4033 13.5686 19.8724 12.0004 19.8737ZM23.6713 12.7946L21.7963 14.6696C21.6918 14.7745 21.5676 14.8577 21.4309 14.9145C21.2941 14.9713 21.1475 15.0005 20.9994 15.0005C20.8514 15.0005 20.7048 14.9713 20.568 14.9145C20.4313 14.8577 20.3071 14.7745 20.2026 14.6696L18.3276 12.7946C18.1131 12.5936 17.9859 12.3167 17.973 12.0231C17.9601 11.7295 18.0625 11.4425 18.2585 11.2235C18.4545 11.0045 18.7284 10.8709 19.0216 10.8513C19.3148 10.8316 19.6041 10.9275 19.8276 11.1183C19.6507 9.5357 18.9981 8.04387 17.9559 6.83971C16.9138 5.63554 15.5311 4.77563 13.9902 4.37343C12.4493 3.97122 10.8227 4.04564 9.325 4.58684C7.82728 5.12805 6.52884 6.11062 5.601 7.40491C5.51685 7.52982 5.40848 7.63656 5.28231 7.7188C5.15614 7.80105 5.01474 7.85712 4.8665 7.8837C4.71825 7.91028 4.56618 7.90682 4.4193 7.87353C4.27242 7.84024 4.13371 7.7778 4.01141 7.6899C3.88911 7.60201 3.7857 7.49045 3.70732 7.36185C3.62894 7.23324 3.57718 7.09021 3.55511 6.94122C3.53304 6.79224 3.54111 6.64034 3.57883 6.49454C3.61656 6.34873 3.68318 6.21199 3.77475 6.09241C4.98436 4.40703 6.68249 3.13389 8.63939 2.44524C10.5963 1.75658 12.7175 1.68566 14.716 2.24205C16.7145 2.79845 18.4939 3.95531 19.8134 5.55612C21.1329 7.15693 21.9288 9.12442 22.0935 11.1924C22.3077 10.9916 22.592 10.8825 22.8855 10.8884C23.1791 10.8943 23.4587 11.0148 23.6647 11.224C23.8707 11.4333 23.9866 11.7148 23.9879 12.0084C23.9891 12.3021 23.8755 12.5845 23.6713 12.7955V12.7946Z" fill="#130032"/>
</svg>
