<svg width="24" height="24" viewBox="0 0 24 24" fill="none" xmlns="http://www.w3.org/2000/svg">
<path d="M15.4102 16.9788C16.1023 16.3011 16.5768 15.4327 16.7733 14.4843C16.9697 13.5359 16.8792 12.5504 16.5133 11.6537C16.1473 10.7569 15.5226 9.98944 14.7187 9.44922C13.9148 8.90899 12.9682 8.62048 11.9996 8.62048C11.031 8.62048 10.0844 8.90899 9.28052 9.44922C8.47661 9.98944 7.85184 10.7569 7.48591 11.6537C7.11998 12.5504 7.02947 13.5359 7.22593 14.4843C7.42239 15.4327 7.89691 16.3011 8.58897 16.9788C7.41723 17.6016 6.44304 18.5398 5.77647 19.6872C5.63372 19.9452 5.59793 20.2488 5.6768 20.5329C5.75567 20.817 5.94289 21.0587 6.1982 21.2062C6.4535 21.3536 6.75648 21.3949 7.04194 21.3212C7.3274 21.2476 7.57253 21.0648 7.72459 20.8122C8.1642 20.0695 8.78969 19.454 9.53947 19.0265C10.2892 18.599 11.1374 18.3742 12.0005 18.3742C12.8636 18.3742 13.7118 18.599 14.4616 19.0265C15.2114 19.454 15.8369 20.0695 16.2765 20.8122C16.3488 20.943 16.4465 21.058 16.5639 21.1506C16.6812 21.2432 16.8158 21.3115 16.9598 21.3515C17.1038 21.3914 17.2544 21.4023 17.4027 21.3835C17.5509 21.3646 17.694 21.3164 17.8234 21.2417C17.9528 21.1669 18.0661 21.0672 18.1565 20.9482C18.2469 20.8292 18.3127 20.6933 18.3501 20.5486C18.3874 20.4039 18.3956 20.2532 18.374 20.1053C18.3525 19.9574 18.3017 19.8152 18.2246 19.6872C17.5575 18.5395 16.5826 17.6013 15.4102 16.9788ZM9.37459 13.5006C9.37459 12.9815 9.52855 12.4739 9.81699 12.0423C10.1054 11.6106 10.5154 11.2741 10.995 11.0755C11.4747 10.8768 12.0025 10.8248 12.5117 10.9261C13.0209 11.0274 13.4886 11.2774 13.8557 11.6445C14.2229 12.0116 14.4729 12.4793 14.5742 12.9885C14.6754 13.4977 14.6235 14.0255 14.4248 14.5052C14.2261 14.9848 13.8896 15.3948 13.458 15.6832C13.0263 15.9717 12.5188 16.1256 11.9996 16.1256C11.3034 16.1256 10.6357 15.8491 10.1434 15.3568C9.65115 14.8645 9.37459 14.1968 9.37459 13.5006ZM23.1755 14.3997C23.0574 14.4885 22.9229 14.5532 22.7797 14.59C22.6365 14.6269 22.4875 14.6351 22.3411 14.6143C22.1948 14.5935 22.0539 14.544 21.9267 14.4688C21.7995 14.3935 21.6883 14.2939 21.5996 14.1756C20.8187 13.136 19.7387 12.3391 18.8499 12.1469C18.6136 12.0958 18.4 11.9699 18.2409 11.7879C18.0817 11.6059 17.9854 11.3774 17.9663 11.1364C17.9471 10.8954 18.0061 10.6546 18.1346 10.4497C18.263 10.2449 18.454 10.0869 18.6793 9.99908C18.9598 9.88959 19.2098 9.71415 19.4081 9.48762C19.6065 9.26109 19.7474 8.99012 19.8189 8.69763C19.8903 8.40514 19.8903 8.09973 19.8188 7.80724C19.7474 7.51475 19.6065 7.24378 19.4081 7.01724C19.2098 6.79071 18.9598 6.61528 18.6793 6.50579C18.3988 6.3963 18.0961 6.35597 17.7967 6.38821C17.4973 6.42046 17.2101 6.52432 16.9594 6.69103C16.7086 6.85774 16.5017 7.08238 16.3562 7.34595C16.2871 7.47952 16.192 7.5979 16.0765 7.69408C15.9609 7.79027 15.8272 7.86232 15.6833 7.90597C15.5395 7.94962 15.3883 7.96398 15.2388 7.94822C15.0892 7.93245 14.9444 7.88687 14.8128 7.81417C14.6812 7.74147 14.5655 7.64313 14.4725 7.52495C14.3796 7.40678 14.3112 7.27117 14.2716 7.12614C14.2319 6.98111 14.2217 6.8296 14.2416 6.68057C14.2615 6.53153 14.3111 6.388 14.3874 6.25845C14.6658 5.76621 15.0424 5.33647 15.4939 4.99592C15.9453 4.65537 16.462 4.41128 17.0118 4.27882C17.5615 4.14636 18.1327 4.12835 18.6897 4.22592C19.2467 4.32349 19.7777 4.53454 20.2497 4.84598C20.7217 5.15741 21.1247 5.56258 21.4335 6.0363C21.7423 6.51002 21.9505 7.04219 22.045 7.59974C22.1395 8.15728 22.1183 8.72831 21.9828 9.27734C21.8474 9.82637 21.6004 10.3417 21.2574 10.7913C22.0829 11.3411 22.8075 12.029 23.3996 12.8247C23.5787 13.0633 23.6557 13.3632 23.6137 13.6586C23.5717 13.954 23.4141 14.2205 23.1755 14.3997ZM5.14928 12.1497C4.26053 12.3419 3.18053 13.1388 2.39959 14.1794C2.21995 14.418 1.95289 14.5754 1.65717 14.6171C1.36145 14.6587 1.06129 14.5812 0.822718 14.4016C0.584147 14.2219 0.426711 13.9549 0.385042 13.6592C0.343374 13.3634 0.420887 13.0633 0.60053 12.8247C1.19288 12.0292 1.91748 11.3414 2.74272 10.7913C2.39969 10.3417 2.15276 9.82637 2.01728 9.27734C1.88179 8.72831 1.86065 8.15728 1.95515 7.59974C2.04965 7.04219 2.25778 6.51002 2.56661 6.0363C2.87545 5.56258 3.27839 5.15741 3.7504 4.84598C4.22242 4.53454 4.75343 4.32349 5.31045 4.22592C5.86747 4.12835 6.4386 4.14636 6.98837 4.27882C7.53814 4.41128 8.0548 4.65537 8.50626 4.99592C8.95772 5.33647 9.33434 5.76621 9.61272 6.25845C9.68903 6.388 9.73859 6.53153 9.75849 6.68057C9.77838 6.8296 9.7682 6.98111 9.72854 7.12614C9.68889 7.27117 9.62056 7.40678 9.5276 7.52495C9.43465 7.64313 9.31894 7.74147 9.18733 7.81417C9.05572 7.88687 8.91088 7.93245 8.76135 7.94822C8.61183 7.96398 8.46066 7.94962 8.31678 7.90597C8.1729 7.86232 8.03923 7.79027 7.92367 7.69408C7.80811 7.5979 7.713 7.47952 7.64397 7.34595C7.4984 7.08238 7.29149 6.85774 7.04075 6.69103C6.79001 6.52432 6.50281 6.42046 6.20344 6.38821C5.90407 6.35597 5.60133 6.3963 5.32084 6.50579C5.04036 6.61528 4.79036 6.79071 4.592 7.01724C4.39365 7.24378 4.25276 7.51475 4.18127 7.80724C4.10978 8.09973 4.10978 8.40514 4.18127 8.69763C4.25276 8.99012 4.39365 9.26109 4.592 9.48762C4.79036 9.71415 5.04035 9.88959 5.32084 9.99908C5.54613 10.0869 5.73714 10.2449 5.86557 10.4497C5.994 10.6546 6.05301 10.8954 6.03387 11.1364C6.01472 11.3774 5.91843 11.6059 5.75927 11.7879C5.6001 11.9699 5.38654 12.0958 5.15022 12.1469L5.14928 12.1497Z" fill="#130032"/>
</svg>
