<svg width="24" height="24" viewBox="0 0 24 24" fill="none" xmlns="http://www.w3.org/2000/svg">
<path d="M2.32381 11.3988C2.44191 11.4876 2.57637 11.5524 2.71951 11.5893C2.86265 11.6262 3.01166 11.6345 3.15801 11.6138C3.30437 11.5931 3.44521 11.5437 3.57248 11.4685C3.69975 11.3933 3.81096 11.2938 3.89974 11.1756C4.31889 10.6166 4.86246 10.1628 5.4874 9.85026C6.11234 9.53772 6.80148 9.375 7.50021 9.375C8.19895 9.375 8.88808 9.53772 9.51302 9.85026C10.138 10.1628 10.6815 10.6166 11.1007 11.1756C11.2798 11.4142 11.5464 11.5718 11.8418 11.6138C12.1371 11.6558 12.4371 11.5788 12.6757 11.3997C12.76 11.3357 12.8351 11.2603 12.8988 11.1756C13.3179 10.6166 13.8615 10.1628 14.4865 9.85026C15.1114 9.53772 15.8005 9.375 16.4993 9.375C17.198 9.375 17.8871 9.53772 18.5121 9.85026C19.137 10.1628 19.6806 10.6166 20.0997 11.1756C20.1876 11.2959 20.2986 11.3975 20.426 11.4745C20.5535 11.5516 20.695 11.6026 20.8424 11.6245C20.9897 11.6464 21.1399 11.6389 21.2843 11.6023C21.4287 11.5657 21.5644 11.5008 21.6835 11.4114C21.8026 11.3219 21.9028 11.2097 21.9782 11.0813C22.0536 10.9528 22.1027 10.8106 22.1228 10.663C22.1428 10.5154 22.1333 10.3653 22.0949 10.2214C22.0564 10.0775 21.9898 9.94264 21.8988 9.82469C21.273 8.98677 20.461 8.30574 19.5269 7.83532C19.9357 7.27627 20.1816 6.61494 20.2375 5.92466C20.2934 5.23438 20.157 4.54211 19.8436 3.92458C19.5301 3.30705 19.0517 2.78839 18.4615 2.4261C17.8713 2.06381 17.1923 1.87203 16.4997 1.87203C15.8072 1.87203 15.1282 2.06381 14.538 2.4261C13.9478 2.78839 13.4694 3.30705 13.1559 3.92458C12.8424 4.54211 12.7061 5.23438 12.762 5.92466C12.8179 6.61494 13.0638 7.27627 13.4726 7.83532C12.9387 8.10304 12.4433 8.44139 11.9997 8.84125C11.5562 8.44106 11.0608 8.10239 10.5269 7.83438C10.9357 7.27533 11.1816 6.61401 11.2375 5.92373C11.2934 5.23345 11.157 4.54117 10.8436 3.92364C10.5301 3.30612 10.0517 2.78746 9.46151 2.42516C8.87129 2.06287 8.19228 1.87109 7.49974 1.87109C6.8072 1.87109 6.12819 2.06287 5.53798 2.42516C4.94776 2.78746 4.4694 3.30612 4.15592 3.92364C3.84244 4.54117 3.70609 5.23345 3.76197 5.92373C3.81786 6.61401 4.06381 7.27533 4.47256 7.83438C3.53849 8.3048 2.72651 8.98584 2.10068 9.82375C1.92146 10.0622 1.84428 10.3621 1.88613 10.6575C1.92797 10.9528 2.0854 11.2195 2.32381 11.3988ZM16.4997 4.12469C16.7964 4.12469 17.0864 4.21267 17.3331 4.37749C17.5798 4.54231 17.772 4.77658 17.8856 5.05067C17.9991 5.32476 18.0288 5.62636 17.9709 5.91733C17.913 6.2083 17.7702 6.47557 17.5604 6.68535C17.3506 6.89513 17.0833 7.03799 16.7924 7.09587C16.5014 7.15375 16.1998 7.12404 15.9257 7.01051C15.6516 6.89698 15.4174 6.70472 15.2525 6.45805C15.0877 6.21137 14.9997 5.92136 14.9997 5.62469C14.9997 5.22687 15.1578 4.84534 15.4391 4.56403C15.7204 4.28273 16.1019 4.12469 16.4997 4.12469ZM7.49974 4.12469C7.79642 4.12469 8.08642 4.21267 8.3331 4.37749C8.57977 4.54231 8.77203 4.77658 8.88556 5.05067C8.99909 5.32476 9.0288 5.62636 8.97092 5.91733C8.91304 6.2083 8.77018 6.47557 8.5604 6.68535C8.35062 6.89513 8.08335 7.03799 7.79238 7.09587C7.50141 7.15375 7.19981 7.12404 6.92572 7.01051C6.65163 6.89698 6.41736 6.70472 6.25254 6.45805C6.08772 6.21137 5.99974 5.92136 5.99974 5.62469C5.99974 5.22687 6.15778 4.84534 6.43908 4.56403C6.72039 4.28273 7.10192 4.12469 7.49974 4.12469ZM19.5269 18.3344C19.9357 17.7753 20.1816 17.114 20.2375 16.4237C20.2934 15.7334 20.157 15.0412 19.8436 14.4236C19.5301 13.8061 19.0517 13.2875 18.4615 12.9252C17.8713 12.5629 17.1923 12.3711 16.4997 12.3711C15.8072 12.3711 15.1282 12.5629 14.538 12.9252C13.9478 13.2875 13.4694 13.8061 13.1559 14.4236C12.8424 15.0412 12.7061 15.7334 12.762 16.4237C12.8179 17.114 13.0638 17.7753 13.4726 18.3344C12.9389 18.6024 12.4435 18.9407 11.9997 19.3403C11.5559 18.9407 11.0606 18.6024 10.5269 18.3344C10.9357 17.7753 11.1816 17.114 11.2375 16.4237C11.2934 15.7334 11.157 15.0412 10.8436 14.4236C10.5301 13.8061 10.0517 13.2875 9.46151 12.9252C8.87129 12.5629 8.19228 12.3711 7.49974 12.3711C6.8072 12.3711 6.12819 12.5629 5.53798 12.9252C4.94776 13.2875 4.4694 13.8061 4.15592 14.4236C3.84244 15.0412 3.70609 15.7334 3.76197 16.4237C3.81786 17.114 4.06381 17.7753 4.47256 18.3344C3.53849 18.8048 2.72651 19.4858 2.10068 20.3238C1.92141 20.5623 1.84426 20.8623 1.88619 21.1578C1.92812 21.4533 2.0857 21.72 2.32427 21.8992C2.56284 22.0785 2.86286 22.1556 3.15832 22.1137C3.45377 22.0718 3.72047 21.9142 3.89974 21.6756C4.31889 21.1166 4.86246 20.6628 5.4874 20.3503C6.11234 20.0377 6.80148 19.875 7.50021 19.875C8.19895 19.875 8.88808 20.0377 9.51302 20.3503C10.138 20.6628 10.6815 21.1166 11.1007 21.6756C11.2798 21.9142 11.5464 22.0718 11.8418 22.1138C12.1371 22.1558 12.4371 22.0788 12.6757 21.8997C12.76 21.8357 12.8351 21.7603 12.8988 21.6756C13.3179 21.1166 13.8615 20.6628 14.4865 20.3503C15.1114 20.0377 15.8005 19.875 16.4993 19.875C17.198 19.875 17.8871 20.0377 18.5121 20.3503C19.137 20.6628 19.6806 21.1166 20.0997 21.6756C20.1876 21.7959 20.2986 21.8975 20.426 21.9745C20.5535 22.0516 20.695 22.1026 20.8424 22.1245C20.9897 22.1464 21.1399 22.1389 21.2843 22.1023C21.4287 22.0657 21.5644 22.0008 21.6835 21.9114C21.8026 21.8219 21.9028 21.7097 21.9782 21.5813C22.0536 21.4528 22.1027 21.3106 22.1228 21.163C22.1428 21.0154 22.1333 20.8653 22.0949 20.7214C22.0564 20.5775 21.9898 20.4426 21.8988 20.3247C21.2733 19.4862 20.4613 18.8048 19.5269 18.3344ZM7.49974 14.6247C7.79642 14.6247 8.08642 14.7127 8.3331 14.8775C8.57977 15.0423 8.77203 15.2766 8.88556 15.5507C8.99909 15.8248 9.0288 16.1264 8.97092 16.4173C8.91304 16.7083 8.77018 16.9756 8.5604 17.1854C8.35062 17.3951 8.08335 17.538 7.79238 17.5959C7.50141 17.6537 7.19981 17.624 6.92572 17.5105C6.65163 17.397 6.41736 17.2047 6.25254 16.958C6.08772 16.7114 5.99974 16.4214 5.99974 16.1247C5.99974 15.7269 6.15778 15.3453 6.43908 15.064C6.72039 14.7827 7.10192 14.6247 7.49974 14.6247ZM16.4997 14.6247C16.7964 14.6247 17.0864 14.7127 17.3331 14.8775C17.5798 15.0423 17.772 15.2766 17.8856 15.5507C17.9991 15.8248 18.0288 16.1264 17.9709 16.4173C17.913 16.7083 17.7702 16.9756 17.5604 17.1854C17.3506 17.3951 17.0833 17.538 16.7924 17.5959C16.5014 17.6537 16.1998 17.624 15.9257 17.5105C15.6516 17.397 15.4174 17.2047 15.2525 16.958C15.0877 16.7114 14.9997 16.4214 14.9997 16.1247C14.9997 15.7269 15.1578 15.3453 15.4391 15.064C15.7204 14.7827 16.1019 14.6247 16.4997 14.6247Z" fill="#130032"/>
</svg>
