<svg width="24" height="24" viewBox="0 0 24 24" fill="none" xmlns="http://www.w3.org/2000/svg">
<g clip-path="url(#clip0_7_18770)">
<path d="M14.2501 7.49958C14.2501 7.20121 14.3686 6.91506 14.5796 6.70408C14.7906 6.4931 15.0767 6.37458 15.3751 6.37458H22.8751C23.1735 6.37458 23.4596 6.4931 23.6706 6.70408C23.8816 6.91506 24.0001 7.20121 24.0001 7.49958C24.0001 7.79794 23.8816 8.08409 23.6706 8.29507C23.4596 8.50605 23.1735 8.62458 22.8751 8.62458H15.3751C15.0767 8.62458 14.7906 8.50605 14.5796 8.29507C14.3686 8.08409 14.2501 7.79794 14.2501 7.49958ZM22.8751 10.8746H15.3751C15.0767 10.8746 14.7906 10.9931 14.5796 11.2041C14.3686 11.4151 14.2501 11.7012 14.2501 11.9996C14.2501 12.2979 14.3686 12.5841 14.5796 12.7951C14.7906 13.006 15.0767 13.1246 15.3751 13.1246H22.8751C23.1735 13.1246 23.4596 13.006 23.6706 12.7951C23.8816 12.5841 24.0001 12.2979 24.0001 11.9996C24.0001 11.7012 23.8816 11.4151 23.6706 11.2041C23.4596 10.9931 23.1735 10.8746 22.8751 10.8746ZM22.8751 15.3746H17.6251C17.3267 15.3746 17.0406 15.4931 16.8296 15.7041C16.6186 15.9151 16.5001 16.2012 16.5001 16.4996C16.5001 16.7979 16.6186 17.0841 16.8296 17.2951C17.0406 17.506 17.3267 17.6246 17.6251 17.6246H22.8751C23.1735 17.6246 23.4596 17.506 23.6706 17.2951C23.8816 17.0841 24.0001 16.7979 24.0001 16.4996C24.0001 16.2012 23.8816 15.9151 23.6706 15.7041C23.4596 15.4931 23.1735 15.3746 22.8751 15.3746ZM14.5895 17.7183C14.6264 17.8614 14.6348 18.0103 14.6142 18.1566C14.5936 18.3029 14.5443 18.4437 14.4693 18.571C14.3942 18.6983 14.2949 18.8095 14.1768 18.8984C14.0588 18.9873 13.9244 19.052 13.7813 19.089C13.6383 19.1259 13.4894 19.1343 13.3431 19.1137C13.1967 19.093 13.0559 19.0438 12.9287 18.9688C12.8014 18.8937 12.6901 18.7943 12.6013 18.6763C12.5124 18.5583 12.4477 18.4239 12.4107 18.2808C11.8745 16.1968 9.76322 14.6246 7.5001 14.6246C5.23697 14.6246 3.12572 16.1958 2.58947 18.2808C2.55254 18.4239 2.48779 18.5583 2.39892 18.6763C2.31005 18.7943 2.1988 18.8937 2.07153 18.9688C1.94425 19.0438 1.80344 19.093 1.65714 19.1137C1.51084 19.1343 1.3619 19.1259 1.21885 19.089C1.07579 19.052 0.941403 18.9873 0.823368 18.8984C0.705334 18.8095 0.605958 18.6983 0.530917 18.571C0.455876 18.4437 0.406638 18.3029 0.386014 18.1566C0.365391 18.0103 0.373786 17.8614 0.41072 17.7183C0.915095 15.759 2.29416 14.1408 4.07728 13.2183C3.38838 12.5394 2.917 11.6709 2.72311 10.7233C2.52922 9.77575 2.62159 8.79191 2.98846 7.89697C3.35533 7.00204 3.98013 6.23646 4.78336 5.69763C5.58658 5.15881 6.53194 4.87109 7.49916 4.87109C8.46637 4.87109 9.41173 5.15881 10.215 5.69763C11.0182 6.23646 11.643 7.00204 12.0099 7.89697C12.3767 8.79191 12.4691 9.77575 12.2752 10.7233C12.0813 11.6709 11.6099 12.5394 10.921 13.2183C12.706 14.1418 14.0851 15.7599 14.5895 17.7183ZM7.5001 12.3746C8.01927 12.3746 8.52679 12.2206 8.95847 11.9322C9.39015 11.6437 9.7266 11.2338 9.92528 10.7541C10.124 10.2745 10.1759 9.74666 10.0747 9.23746C9.97337 8.72826 9.72336 8.26053 9.35625 7.89342C8.98914 7.52631 8.52141 7.2763 8.01221 7.17501C7.50301 7.07373 6.97521 7.12571 6.49555 7.32439C6.0159 7.52307 5.60593 7.85952 5.31749 8.2912C5.02905 8.72288 4.8751 9.2304 4.8751 9.74958C4.8751 10.0943 4.94299 10.4356 5.07491 10.7541C5.20683 11.0726 5.40019 11.362 5.64394 11.6057C6.13622 12.098 6.8039 12.3746 7.5001 12.3746Z" fill="#130032"/>
</g>
<defs>
<clipPath id="clip0_7_18770">
<rect width="24" height="24" fill="white"/>
</clipPath>
</defs>
</svg>
