<svg width="24" height="24" viewBox="0 0 24 24" fill="none" xmlns="http://www.w3.org/2000/svg">
<path d="M20.25 3.375H3.75C3.25272 3.375 2.77581 3.57254 2.42417 3.92417C2.07254 4.27581 1.875 4.75272 1.875 5.25V18.75C1.875 19.2473 2.07254 19.7242 2.42417 20.0758C2.77581 20.4275 3.25272 20.625 3.75 20.625H20.25C20.7473 20.625 21.2242 20.4275 21.5758 20.0758C21.9275 19.7242 22.125 19.2473 22.125 18.75V5.25C22.125 4.75272 21.9275 4.27581 21.5758 3.92417C21.2242 3.57254 20.7473 3.375 20.25 3.375ZM9.375 12C9.375 11.4808 9.52895 10.9733 9.81739 10.5416C10.1058 10.1099 10.5158 9.7735 10.9955 9.57482C11.4751 9.37614 12.0029 9.32415 12.5121 9.42544C13.0213 9.52672 13.489 9.77673 13.8562 10.1438C14.2233 10.511 14.4733 10.9787 14.5746 11.4879C14.6758 11.9971 14.6239 12.5249 14.4252 13.0045C14.2265 13.4842 13.8901 13.8942 13.4584 14.1826C13.0267 14.471 12.5192 14.625 12 14.625C11.3038 14.625 10.6361 14.3484 10.1438 13.8562C9.65156 13.3639 9.375 12.6962 9.375 12ZM12 16.875C13.4207 16.8704 14.79 17.4067 15.8297 18.375H8.17031C9.21003 17.4067 10.5793 16.8704 12 16.875ZM19.875 18.375H18.7087C17.9322 17.102 16.8081 16.0774 15.4688 15.4219C16.1444 14.7377 16.6026 13.8689 16.7858 12.925C16.9689 11.981 16.8688 11.004 16.498 10.1167C16.1273 9.22952 15.5024 8.47177 14.702 7.9388C13.9017 7.40584 12.9616 7.12147 12 7.12147C11.0384 7.12147 10.0983 7.40584 9.29797 7.9388C8.49761 8.47177 7.87274 9.22952 7.50197 10.1167C7.13121 11.004 7.0311 11.981 7.21424 12.925C7.39739 13.8689 7.8556 14.7377 8.53125 15.4219C7.19191 16.0774 6.06779 17.102 5.29125 18.375H4.125V5.625H19.875V18.375Z" fill="#130032"/>
</svg>
