<svg width="24" height="24" viewBox="0 0 24 24" fill="none" xmlns="http://www.w3.org/2000/svg">
<path d="M8.66033 3.56807C8.62324 3.42495 8.61473 3.27592 8.63528 3.12951C8.65583 2.98309 8.70504 2.84217 8.78009 2.71478C8.85515 2.5874 8.95457 2.47606 9.07269 2.38713C9.1908 2.2982 9.32529 2.23343 9.46845 2.19651C11.1287 1.76783 12.8707 1.76783 14.531 2.19651C14.6772 2.23037 14.8152 2.29317 14.9368 2.38119C15.0584 2.46922 15.1612 2.58069 15.2391 2.70905C15.3169 2.83741 15.3683 2.98005 15.3902 3.12858C15.4121 3.2771 15.404 3.4285 15.3665 3.57386C15.3289 3.71922 15.2627 3.85559 15.1716 3.97494C15.0805 4.09429 14.9665 4.19421 14.8362 4.26881C14.7059 4.34341 14.562 4.39117 14.413 4.40929C14.264 4.42742 14.1128 4.41552 13.9685 4.37432C12.6771 4.0409 11.3223 4.0409 10.031 4.37432C9.74229 4.449 9.43578 4.40604 9.17878 4.25486C8.92178 4.10368 8.7353 3.85666 8.66033 3.56807ZM3.02689 10.6762C3.12466 10.7029 3.22555 10.7164 3.32689 10.7165C3.57289 10.7164 3.81207 10.6357 4.0078 10.4867C4.20354 10.3377 4.34504 10.1286 4.41064 9.89151C4.76789 8.60725 5.44529 7.4347 6.37939 6.4837C6.48881 6.37968 6.57618 6.25471 6.63628 6.11622C6.69639 5.97772 6.728 5.82855 6.72925 5.67759C6.73049 5.52662 6.70133 5.37695 6.64352 5.23749C6.5857 5.09803 6.50041 4.97163 6.39271 4.86582C6.28502 4.76002 6.15713 4.67697 6.01667 4.62163C5.87621 4.56629 5.72605 4.53979 5.57512 4.5437C5.4242 4.54761 5.27562 4.58186 5.13821 4.64441C5.0008 4.70696 4.87739 4.79652 4.77533 4.90776C3.57434 6.13137 2.70343 7.63967 2.24408 9.29151C2.16433 9.57894 2.202 9.88627 2.34879 10.1459C2.49559 10.4056 2.7395 10.5963 3.02689 10.6762ZM13.9685 19.6274C12.6771 19.9609 11.3223 19.9609 10.031 19.6274C9.88659 19.5862 9.73544 19.5744 9.58641 19.5925C9.43738 19.6106 9.29349 19.6584 9.1632 19.733C9.03292 19.8076 8.91889 19.9075 8.82782 20.0268C8.73675 20.1462 8.6705 20.2826 8.63295 20.4279C8.59541 20.5733 8.58734 20.7247 8.60921 20.8732C8.63109 21.0217 8.68248 21.1644 8.76034 21.2927C8.8382 21.4211 8.94097 21.5326 9.06258 21.6206C9.18419 21.7086 9.32219 21.7714 9.46845 21.8053C11.1287 22.2339 12.8707 22.2339 14.531 21.8053C14.6772 21.7714 14.8152 21.7086 14.9368 21.6206C15.0584 21.5326 15.1612 21.4211 15.2391 21.2927C15.3169 21.1644 15.3683 21.0217 15.3902 20.8732C15.4121 20.7247 15.404 20.5733 15.3665 20.4279C15.3289 20.2826 15.2627 20.1462 15.1716 20.0268C15.0805 19.9075 14.9665 19.8076 14.8362 19.733C14.7059 19.6584 14.562 19.6106 14.413 19.5925C14.264 19.5744 14.1128 19.5862 13.9685 19.6274ZM19.5888 9.89339C19.6734 10.1753 19.8651 10.4128 20.1228 10.5549C20.3805 10.6971 20.6837 10.7326 20.9673 10.6539C21.2508 10.5751 21.4923 10.3884 21.6398 10.1337C21.7873 9.87902 21.8291 9.57667 21.7563 9.29151C21.2976 7.63884 20.4266 6.12977 19.225 4.90589C19.1235 4.79232 18.9999 4.70056 18.8618 4.63617C18.7237 4.57179 18.574 4.53612 18.4218 4.53133C18.2695 4.52654 18.1178 4.55273 17.976 4.60831C17.8341 4.66389 17.705 4.74771 17.5965 4.85467C17.4881 4.96163 17.4024 5.08952 17.3448 5.23057C17.2873 5.37161 17.2589 5.52289 17.2616 5.67522C17.2642 5.82754 17.2977 5.97775 17.3602 6.11672C17.4226 6.2557 17.5126 6.38055 17.6247 6.4837C18.557 7.43585 19.2325 8.60903 19.5878 9.89339H19.5888ZM21.7591 14.7112C21.243 16.5687 20.2067 18.24 18.7722 19.5281C18.6439 19.6435 18.4908 19.7278 18.3247 19.7746C18.1586 19.8213 17.9839 19.8292 17.8143 19.7977C17.6446 19.7662 17.4845 19.696 17.3463 19.5927C17.208 19.4894 17.0955 19.3556 17.0172 19.2018C16.547 18.2756 15.8294 17.4977 14.9441 16.9543C14.0588 16.4109 13.0403 16.1232 12.0016 16.1232C10.9628 16.1232 9.94433 16.4109 9.05903 16.9543C8.17373 17.4977 7.45619 18.2756 6.98595 19.2018C6.90776 19.3557 6.79522 19.4895 6.65704 19.5929C6.51886 19.6963 6.35874 19.7665 6.18908 19.7981C6.12133 19.8104 6.05262 19.8166 5.98377 19.8168C5.70674 19.8162 5.43969 19.7134 5.23377 19.5281C3.79706 18.2405 2.7587 16.5688 2.24127 14.7103C2.17979 14.4293 2.22824 14.1355 2.37667 13.8892C2.52509 13.6428 2.76222 13.4627 3.03933 13.3858C3.31644 13.3088 3.61249 13.341 3.86666 13.4755C4.12083 13.6101 4.31381 13.8369 4.40595 14.1093C4.68556 15.116 5.16369 16.0567 5.8122 16.8759C6.54082 15.9467 7.47029 15.1945 8.53095 14.6756C7.85531 13.9914 7.39709 13.1226 7.21394 12.1787C7.0308 11.2347 7.13091 10.2577 7.50168 9.37044C7.87245 8.48322 8.49731 7.72547 9.29767 7.1925C10.098 6.65954 11.0381 6.37517 11.9997 6.37517C12.9613 6.37517 13.9014 6.65954 14.7017 7.1925C15.5021 7.72547 16.127 8.48322 16.4977 9.37044C16.8685 10.2577 16.9686 11.2347 16.7855 12.1787C16.6023 13.1226 16.1441 13.9914 15.4685 14.6756C16.5289 15.1948 17.4583 15.947 18.1872 16.8759C18.8352 16.057 19.3133 15.1171 19.5935 14.1112C19.6733 13.8236 19.864 13.5796 20.1238 13.4327C20.3836 13.2858 20.6911 13.2481 20.9786 13.3279C21.2662 13.4077 21.5102 13.5985 21.6571 13.8583C21.804 14.118 21.8417 14.4255 21.7619 14.7131L21.7591 14.7112ZM11.9997 13.8759C12.5189 13.8759 13.0264 13.7219 13.4581 13.4335C13.8898 13.1451 14.2262 12.7351 14.4249 12.2554C14.6236 11.7758 14.6756 11.248 14.5743 10.7388C14.473 10.2296 14.223 9.76184 13.8559 9.39473C13.4887 9.02762 13.021 8.77761 12.5118 8.67632C12.0026 8.57504 11.4748 8.62702 10.9952 8.8257C10.5155 9.02438 10.1055 9.36084 9.8171 9.79251C9.52866 10.2242 9.3747 10.7317 9.3747 11.2509C9.3747 11.9471 9.65127 12.6148 10.1435 13.107C10.6358 13.5993 11.3035 13.8759 11.9997 13.8759Z" fill="#130032"/>
</svg>
