<svg width="24" height="24" viewBox="0 0 24 24" fill="none" xmlns="http://www.w3.org/2000/svg">
<path d="M21.9734 19.6864C20.688 17.4305 18.6809 15.6727 16.2752 14.6961C17.4716 13.7988 18.3553 12.5479 18.8011 11.1205C19.247 9.69315 19.2325 8.16164 18.7596 6.74297C18.2867 5.3243 17.3794 4.09038 16.1663 3.21599C14.9531 2.34161 13.4956 1.87109 12.0002 1.87109C10.5048 1.87109 9.04731 2.34161 7.83416 3.21599C6.62102 4.09038 5.71375 5.3243 5.24086 6.74297C4.76797 8.16164 4.75343 9.69315 5.19932 11.1205C5.6452 12.5479 6.52889 13.7988 7.72522 14.6961C5.31953 15.6727 3.31245 17.4305 2.0271 19.6864C1.94745 19.8145 1.89437 19.9572 1.87101 20.1062C1.84764 20.2552 1.85447 20.4074 1.89109 20.5537C1.92771 20.7 1.99337 20.8374 2.08416 20.9578C2.17496 21.0783 2.28904 21.1792 2.41963 21.2546C2.55021 21.3301 2.69463 21.3785 2.8443 21.397C2.99397 21.4155 3.14584 21.4038 3.29087 21.3624C3.4359 21.3211 3.57114 21.251 3.68854 21.1563C3.80595 21.0617 3.90312 20.9444 3.97429 20.8114C5.67304 17.8752 8.67304 16.1239 12.0002 16.1239C15.3274 16.1239 18.3274 17.8761 20.0262 20.8114C20.1804 21.0594 20.425 21.2377 20.7083 21.3086C20.9916 21.3795 21.2914 21.3375 21.5443 21.1914C21.7972 21.0453 21.9833 20.8066 22.0634 20.5257C22.1434 20.2449 22.1112 19.9439 21.9734 19.6864ZM7.12523 8.99891C7.12523 8.03472 7.41114 7.09219 7.94681 6.2905C8.48248 5.48881 9.24385 4.86397 10.1346 4.49499C11.0254 4.12602 12.0056 4.02947 12.9513 4.21758C13.8969 4.40568 14.7656 4.86998 15.4474 5.55176C16.1292 6.23354 16.5935 7.10218 16.7816 8.04784C16.9697 8.9935 16.8731 9.9737 16.5041 10.8645C16.1352 11.7553 15.5103 12.5166 14.7086 13.0523C13.9069 13.588 12.9644 13.8739 12.0002 13.8739C10.7078 13.8724 9.46864 13.3583 8.55472 12.4444C7.64081 11.5305 7.12671 10.2914 7.12523 8.99891Z" fill="#130032"/>
</svg>
