<svg width="24" height="24" viewBox="0 0 24 24" fill="none" xmlns="http://www.w3.org/2000/svg">
<path d="M15.3754 5.25C15.3754 4.95163 15.494 4.66548 15.7049 4.4545C15.9159 4.24353 16.2021 4.125 16.5004 4.125H21.0004C21.2988 4.125 21.5849 4.24353 21.7959 4.4545C22.0069 4.66548 22.1254 4.95163 22.1254 5.25C22.1254 5.54837 22.0069 5.83452 21.7959 6.0455C21.5849 6.25647 21.2988 6.375 21.0004 6.375H16.5004C16.2021 6.375 15.9159 6.25647 15.7049 6.0455C15.494 5.83452 15.3754 5.54837 15.3754 5.25ZM21.5489 8.625C22.2653 10.6513 22.3183 12.8529 21.7003 14.9114C21.0823 16.9698 19.8254 18.7782 18.1114 20.0748C16.3974 21.3714 14.3153 22.089 12.1664 22.1237C10.0174 22.1584 7.91324 21.5084 6.15828 20.2677C4.40332 19.0271 3.08865 17.2603 2.40455 15.2229C1.72045 13.1854 1.70241 10.9832 2.35303 8.93487C3.00365 6.88652 4.28919 5.09835 6.02358 3.82914C7.75797 2.55993 9.85124 1.87553 12.0004 1.875C12.5658 1.87488 13.1303 1.9216 13.6879 2.01469C13.9822 2.06442 14.2447 2.229 14.4176 2.47224C14.5905 2.71549 14.6597 3.01745 14.61 3.31172C14.5602 3.60599 14.3956 3.86844 14.1524 4.04136C13.9092 4.21427 13.6072 4.28348 13.3129 4.23375C12.8792 4.16135 12.4402 4.12497 12.0004 4.125C10.5221 4.124 9.07338 4.53944 7.82024 5.32373C6.5671 6.10801 5.56022 7.22943 4.91495 8.5595C4.26968 9.88957 4.01211 11.3745 4.17176 12.8442C4.33141 14.3139 4.90181 15.7089 5.81762 16.8694C6.5468 15.9419 7.47622 15.1914 8.53637 14.6737C7.86072 13.9896 7.40251 13.1208 7.21936 12.1769C7.03622 11.2329 7.13633 10.2558 7.5071 9.36861C7.87786 8.4814 8.50273 7.72364 9.30309 7.19068C10.1034 6.65771 11.0435 6.37335 12.0051 6.37335C12.9667 6.37335 13.9068 6.65771 14.7072 7.19068C15.5075 7.72364 16.1324 8.4814 16.5031 9.36861C16.8739 10.2558 16.974 11.2329 16.7909 12.1769C16.6077 13.1208 16.1495 13.9896 15.4739 14.6737C16.5342 15.191 17.4637 15.9417 18.1926 16.8694C19.0141 15.8259 19.5581 14.5914 19.774 13.281C19.9899 11.9706 19.8706 10.6269 19.4273 9.375C19.3279 9.09366 19.3442 8.78434 19.4728 8.51508C19.6014 8.24582 19.8318 8.03867 20.1131 7.93922C20.3944 7.83976 20.7037 7.85614 20.973 7.98475C21.2423 8.11336 21.4494 8.34366 21.5489 8.625ZM12.0004 13.875C12.5196 13.875 13.0271 13.721 13.4588 13.4326C13.8905 13.1442 14.2269 12.7342 14.4256 12.2545C14.6243 11.7749 14.6763 11.2471 14.575 10.7379C14.4737 10.2287 14.2237 9.76096 13.8566 9.39384C13.4895 9.02673 13.0217 8.77672 12.5125 8.67544C12.0033 8.57415 11.4755 8.62614 10.9959 8.82482C10.5162 9.0235 10.1063 9.35995 9.81783 9.79163C9.52939 10.2233 9.37543 10.7308 9.37543 11.25C9.37543 11.9462 9.652 12.6139 10.1443 13.1062C10.6366 13.5984 11.3042 13.875 12.0004 13.875ZM12.0004 19.875C13.6274 19.8762 15.2143 19.3706 16.5407 18.4284C16.0185 17.7143 15.3352 17.1335 14.5463 16.7331C13.7574 16.3327 12.8851 16.124 12.0004 16.124C11.1157 16.124 10.2435 16.3327 9.45461 16.7331C8.66571 17.1335 7.98238 17.7143 7.46012 18.4284C8.78654 19.3706 10.3735 19.8762 12.0004 19.875Z" fill="#130032"/>
</svg>
