<svg width="24" height="24" viewBox="0 0 24 24" fill="none" xmlns="http://www.w3.org/2000/svg">
<path d="M19.5 2.625H4.5C4.00272 2.625 3.52581 2.82254 3.17417 3.17417C2.82254 3.52581 2.625 4.00272 2.625 4.5V19.5C2.625 19.9973 2.82254 20.4742 3.17417 20.8258C3.52581 21.1775 4.00272 21.375 4.5 21.375H19.5C19.9973 21.375 20.4742 21.1775 20.8258 20.8258C21.1775 20.4742 21.375 19.9973 21.375 19.5V4.5C21.375 4.00272 21.1775 3.52581 20.8258 3.17417C20.4742 2.82254 19.9973 2.625 19.5 2.625ZM19.125 4.875V18.3975C18.3645 16.7757 17.0715 15.4632 15.4613 14.6784C16.139 13.9951 16.5994 13.1264 16.7842 12.1818C16.9691 11.2373 16.8702 10.2591 16.5001 9.37064C16.1299 8.48218 15.5051 7.72317 14.7042 7.18927C13.9034 6.65536 12.9625 6.37045 12 6.37045C11.0375 6.37045 10.0966 6.65536 9.29575 7.18927C8.49493 7.72317 7.87007 8.48218 7.49992 9.37064C7.12977 10.2591 7.0309 11.2373 7.21577 12.1818C7.40064 13.1264 7.86097 13.9951 8.53875 14.6784C6.92851 15.4632 5.63554 16.7757 4.875 18.3975V4.875H19.125ZM9.375 11.25C9.375 10.7308 9.52895 10.2233 9.81739 9.79163C10.1058 9.35995 10.5158 9.0235 10.9955 8.82482C11.4751 8.62614 12.0029 8.57415 12.5121 8.67544C13.0213 8.77672 13.489 9.02673 13.8562 9.39384C14.2233 9.76096 14.4733 10.2287 14.5746 10.7379C14.6758 11.2471 14.6239 11.7749 14.4252 12.2545C14.2265 12.7342 13.8901 13.1442 13.4584 13.4326C13.0267 13.721 12.5192 13.875 12 13.875C11.3038 13.875 10.6361 13.5984 10.1438 13.1062C9.65156 12.6139 9.375 11.9462 9.375 11.25ZM12 16.125C13.2867 16.1198 14.5354 16.5608 15.5334 17.3728C16.1269 17.8538 16.6171 18.4498 16.9744 19.125H7.02563C7.38293 18.4498 7.87306 17.8538 8.46656 17.3728C9.46463 16.5608 10.7133 16.1198 12 16.125Z" fill="#130032"/>
</svg>
