<svg width="24" height="24" viewBox="0 0 24 24" fill="none" xmlns="http://www.w3.org/2000/svg">
<path d="M13.9221 14.6736C15.0255 13.8061 15.831 12.6162 16.2266 11.2695C16.6222 9.92283 16.5881 8.48632 16.1291 7.1599C15.6701 5.83348 14.8091 4.68313 13.6658 3.86893C12.5225 3.05473 11.1538 2.61719 9.75022 2.61719C8.34663 2.61719 6.97795 3.05473 5.83465 3.86893C4.69135 4.68313 3.8303 5.83348 3.37132 7.1599C2.91233 8.48632 2.87826 9.92283 3.27383 11.2695C3.66939 12.6162 4.47493 13.8061 5.57834 14.6736C3.80377 15.3974 2.23568 16.5488 1.01365 18.0252C0.821703 18.2537 0.728386 18.5491 0.754231 18.8464C0.780076 19.1437 0.922965 19.4185 1.15147 19.6105C1.37997 19.8024 1.67536 19.8957 1.97266 19.8699C2.26997 19.844 2.54483 19.7012 2.73678 19.4727C4.55084 17.3136 7.04178 16.1239 9.75022 16.1239C13.219 16.1239 15.4802 17.9445 16.7637 19.4727C16.9556 19.7012 17.2305 19.844 17.5278 19.8699C17.8251 19.8957 18.1205 19.8024 18.349 19.6105C18.5775 19.4185 18.7204 19.1437 18.7462 18.8464C18.772 18.5491 18.6787 18.2537 18.4868 18.0252C17.2648 16.5488 15.6967 15.3974 13.9221 14.6736ZM5.25022 9.37391C5.25022 8.48389 5.51414 7.61386 6.0086 6.87384C6.50307 6.13382 7.20587 5.55704 8.02814 5.21645C8.85041 4.87585 9.75521 4.78674 10.6281 4.96037C11.501 5.13401 12.3029 5.56259 12.9322 6.19193C13.5615 6.82126 13.9901 7.62309 14.1638 8.496C14.3374 9.36892 14.2483 10.2737 13.9077 11.096C13.5671 11.9183 12.9903 12.6211 12.2503 13.1155C11.5103 13.61 10.6402 13.8739 9.75022 13.8739C8.55712 13.8727 7.41325 13.3982 6.56961 12.5545C5.72596 11.7109 5.25146 10.567 5.25022 9.37391ZM23.1124 13.1239L22.4458 13.3405L22.8574 13.9077C22.9472 14.027 23.0124 14.1629 23.0491 14.3077C23.0858 14.4524 23.0933 14.603 23.0712 14.7507C23.0491 14.8983 22.9978 15.0401 22.9204 15.1678C22.8429 15.2954 22.7409 15.4064 22.6201 15.4942C22.4993 15.582 22.3623 15.6449 22.2169 15.6792C22.0716 15.7134 21.9209 15.7185 21.7736 15.6939C21.6264 15.6694 21.4854 15.6157 21.3591 15.5362C21.2327 15.4566 21.1235 15.3527 21.0377 15.2305L20.6252 14.6623L20.2127 15.2305C20.1269 15.3527 20.0177 15.4566 19.8914 15.5362C19.765 15.6157 19.6241 15.6694 19.4768 15.6939C19.3295 15.7185 19.1788 15.7134 19.0335 15.6792C18.8882 15.6449 18.7511 15.582 18.6304 15.4942C18.5096 15.4064 18.4075 15.2954 18.33 15.1678C18.2526 15.0401 18.2013 14.8983 18.1792 14.7507C18.1571 14.603 18.1647 14.4524 18.2014 14.3077C18.2381 14.1629 18.3032 14.027 18.393 13.9077L18.8046 13.3405L18.138 13.1239C17.9975 13.0783 17.8673 13.0054 17.7549 12.9095C17.6426 12.8136 17.5502 12.6965 17.483 12.5649C17.4159 12.4332 17.3754 12.2897 17.3638 12.1424C17.3521 11.9951 17.3696 11.8469 17.4152 11.7064C17.4608 11.5659 17.5337 11.4357 17.6296 11.3233C17.7255 11.2109 17.8426 11.1185 17.9743 11.0514C18.1059 10.9843 18.2495 10.9438 18.3967 10.9321C18.544 10.9205 18.6922 10.938 18.8327 10.9836L19.5002 11.2002V10.4989C19.5002 10.2005 19.6187 9.91439 19.8297 9.70341C20.0407 9.49243 20.3268 9.37391 20.6252 9.37391C20.9236 9.37391 21.2097 9.49243 21.4207 9.70341C21.6317 9.91439 21.7502 10.2005 21.7502 10.4989V11.2002L22.4177 10.9836C22.5583 10.938 22.7064 10.9205 22.8537 10.9321C23.001 10.9438 23.1445 10.9843 23.2762 11.0514C23.4078 11.1185 23.5249 11.2109 23.6208 11.3233C23.7168 11.4357 23.7896 11.5659 23.8352 11.7064C23.8808 11.8469 23.8983 11.9951 23.8867 12.1424C23.875 12.2897 23.8345 12.4332 23.7674 12.5649C23.7003 12.6965 23.6079 12.8136 23.4955 12.9095C23.3831 13.0054 23.2529 13.0783 23.1124 13.1239Z" fill="#130032"/>
</svg>
