<svg width="24" height="24" viewBox="0 0 24 24" fill="none" xmlns="http://www.w3.org/2000/svg">
<path d="M15.8972 4.32281C15.9895 4.03914 16.1907 3.80374 16.4565 3.66837C16.7223 3.533 17.031 3.50874 17.3147 3.60094L17.625 3.70125V3.375C17.625 3.07663 17.7435 2.79048 17.9545 2.57951C18.1655 2.36853 18.4516 2.25 18.75 2.25C19.0484 2.25 19.3345 2.36853 19.5455 2.57951C19.7565 2.79048 19.875 3.07663 19.875 3.375V3.70125L20.1853 3.60094C20.3266 3.55214 20.4762 3.53198 20.6253 3.54164C20.7745 3.5513 20.9202 3.59058 21.054 3.65719C21.1878 3.7238 21.307 3.8164 21.4046 3.92959C21.5022 4.04278 21.5763 4.17428 21.6225 4.31642C21.6687 4.45855 21.6861 4.60848 21.6738 4.75742C21.6614 4.90637 21.6195 5.05136 21.5504 5.18393C21.4814 5.31649 21.3866 5.43397 21.2717 5.5295C21.1567 5.62503 21.0239 5.69669 20.8809 5.74031L20.5706 5.84156L20.7581 6.10594C20.8498 6.22509 20.9167 6.36142 20.9548 6.50687C20.993 6.65232 21.0015 6.80393 20.9801 6.95275C20.9586 7.10157 20.9075 7.24457 20.8298 7.37331C20.7521 7.50205 20.6494 7.61391 20.5278 7.70228C20.4061 7.79065 20.268 7.85374 20.1216 7.88781C19.9751 7.92189 19.8233 7.92626 19.6752 7.90068C19.527 7.87509 19.3855 7.82006 19.2589 7.73884C19.1324 7.65762 19.0234 7.55186 18.9384 7.42781L18.75 7.16438L18.5625 7.42781C18.4775 7.55186 18.3686 7.65762 18.242 7.73884C18.1155 7.82006 17.974 7.87509 17.8258 7.90068C17.6776 7.92626 17.5258 7.92189 17.3794 7.88781C17.2329 7.85374 17.0948 7.79065 16.9732 7.70228C16.8515 7.61391 16.7488 7.50205 16.6711 7.37331C16.5934 7.24457 16.5424 7.10157 16.5209 6.95275C16.4994 6.80393 16.508 6.65232 16.5461 6.50687C16.5842 6.36142 16.6511 6.22509 16.7428 6.10594L16.9303 5.84156L16.62 5.74031C16.4795 5.69471 16.3493 5.62187 16.2369 5.52595C16.1245 5.43003 16.0321 5.31291 15.965 5.18128C15.8979 5.04965 15.8573 4.90609 15.8457 4.75879C15.8341 4.61149 15.8516 4.46335 15.8972 4.32281ZM22.125 12C22.125 14.0025 21.5312 15.9601 20.4186 17.6251C19.3061 19.2902 17.7248 20.5879 15.8747 21.3543C14.0246 22.1206 11.9888 22.3211 10.0247 21.9305C8.06066 21.5398 6.25656 20.5755 4.84055 19.1595C3.42454 17.7435 2.46023 15.9393 2.06955 13.9753C1.67888 12.0112 1.87939 9.97543 2.64572 8.12533C3.41206 6.27523 4.70981 4.69392 6.37486 3.58137C8.0399 2.46882 9.99747 1.875 12 1.875C12.5654 1.87488 13.1298 1.9216 13.6875 2.01469C13.9818 2.06442 14.2442 2.229 14.4171 2.47224C14.5901 2.71549 14.6593 3.01745 14.6095 3.31172C14.5598 3.60599 14.3952 3.86844 14.152 4.04136C13.9087 4.21427 13.6068 4.28348 13.3125 4.23375C12.8788 4.16135 12.4398 4.12497 12 4.125C10.5217 4.124 9.07295 4.53944 7.81981 5.32373C6.56667 6.10801 5.55979 7.22943 4.91452 8.5595C4.26925 9.88957 4.01168 11.3745 4.17133 12.8442C4.33098 14.3139 4.90138 15.7089 5.81719 16.8694C6.54637 15.9419 7.47579 15.1914 8.53594 14.6737C7.8603 13.9896 7.40208 13.1208 7.21893 12.1769C7.03579 11.2329 7.1359 10.2558 7.50667 9.36861C7.87744 8.4814 8.5023 7.72364 9.30266 7.19068C10.103 6.65771 11.0431 6.37335 12.0047 6.37335C12.9663 6.37335 13.9064 6.65771 14.7067 7.19068C15.5071 7.72364 16.1319 8.4814 16.5027 9.36861C16.8735 10.2558 16.9736 11.2329 16.7905 12.1769C16.6073 13.1208 16.1491 13.9896 15.4734 14.6737C16.5336 15.1914 17.463 15.9419 18.1922 16.8694C19.286 15.4824 19.879 13.7664 19.875 12C19.8749 11.5603 19.8386 11.1213 19.7663 10.6875C19.7165 10.3932 19.7857 10.0913 19.9586 9.84803C20.1316 9.60479 20.394 9.4402 20.6883 9.39047C20.9826 9.34074 21.2845 9.40995 21.5278 9.58286C21.771 9.75577 21.9356 10.0182 21.9853 10.3125C22.0785 10.8702 22.1252 11.4346 22.125 12ZM12 13.875C12.5192 13.875 13.0267 13.721 13.4584 13.4326C13.8901 13.1442 14.2265 12.7342 14.4252 12.2545C14.6239 11.7749 14.6759 11.2471 14.5746 10.7379C14.4733 10.2287 14.2233 9.76096 13.8562 9.39384C13.489 9.02673 13.0213 8.77672 12.5121 8.67544C12.0029 8.57415 11.4751 8.62614 10.9955 8.82482C10.5158 9.0235 10.1058 9.35995 9.8174 9.79163C9.52896 10.2233 9.375 10.7308 9.375 11.25C9.375 11.9462 9.65157 12.6139 10.1438 13.1062C10.6361 13.5984 11.3038 13.875 12 13.875ZM12 19.875C13.627 19.8762 15.2139 19.3706 16.5403 18.4284C16.0181 17.7143 15.3347 17.1335 14.5458 16.7331C13.7569 16.3327 12.8847 16.124 12 16.124C11.1153 16.124 10.2431 16.3327 9.45418 16.7331C8.66528 17.1335 7.98195 17.7143 7.45969 18.4284C8.78611 19.3706 10.373 19.8762 12 19.875Z" fill="#130032"/>
</svg>
