<svg width="24" height="24" viewBox="0 0 24 24" fill="none" xmlns="http://www.w3.org/2000/svg">
<g clip-path="url(#clip0_7_18824)">
<path d="M14.2971 14.6775C15.4005 13.81 16.206 12.6201 16.6016 11.2734C16.9972 9.92673 16.9631 8.49023 16.5041 7.1638C16.0451 5.83738 15.1841 4.68703 14.0408 3.87283C12.8975 3.05864 11.5288 2.62109 10.1252 2.62109C8.72163 2.62109 7.35295 3.05864 6.20965 3.87283C5.06635 4.68703 4.2053 5.83738 3.74632 7.1638C3.28733 8.49023 3.25326 9.92673 3.64883 11.2734C4.04439 12.6201 4.84993 13.81 5.95334 14.6775C4.17887 15.4011 2.61079 16.5521 1.38865 18.0281C1.1967 18.2566 1.10339 18.552 1.12923 18.8493C1.15508 19.1466 1.29797 19.4215 1.52647 19.6134C1.75497 19.8054 2.05036 19.8987 2.34766 19.8729C2.64497 19.847 2.91983 19.7041 3.11178 19.4756C4.39522 17.9475 6.65647 16.1269 10.1252 16.1269C13.594 16.1269 15.8552 17.9475 17.1387 19.4756C17.3306 19.7041 17.6055 19.847 17.9028 19.8729C18.2001 19.8987 18.4955 19.8054 18.724 19.6134C18.9525 19.4215 19.0954 19.1466 19.1212 18.8493C19.147 18.552 19.0537 18.2566 18.8618 18.0281C17.6399 16.5518 16.0718 15.4007 14.2971 14.6775ZM5.62522 9.37688C5.62522 8.48686 5.88914 7.61683 6.3836 6.87681C6.87807 6.13679 7.58087 5.56001 8.40314 5.21942C9.22541 4.87882 10.1302 4.78971 11.0031 4.96334C11.876 5.13698 12.6779 5.56556 13.3072 6.1949C13.9365 6.82423 14.3651 7.62605 14.5387 8.49897C14.7124 9.37188 14.6233 10.2767 14.2827 11.099C13.9421 11.9212 13.3653 12.624 12.6253 13.1185C11.8853 13.613 11.0152 13.8769 10.1252 13.8769C8.93212 13.8756 7.78825 13.4011 6.94461 12.5575C6.10096 11.7138 5.62646 10.57 5.62522 9.37688ZM23.6712 12.7978L20.6712 15.7978C20.5666 15.9027 20.4424 15.9859 20.3057 16.0427C20.169 16.0995 20.0223 16.1287 19.8743 16.1287C19.7262 16.1287 19.5796 16.0995 19.4429 16.0427C19.3061 15.9859 19.1819 15.9027 19.0774 15.7978L17.5774 14.2978C17.3661 14.0865 17.2473 13.7998 17.2473 13.5009C17.2473 13.2021 17.3661 12.9154 17.5774 12.7041C17.7887 12.4927 18.0754 12.374 18.3743 12.374C18.6732 12.374 18.9598 12.4927 19.1712 12.7041L19.8752 13.4081L22.0793 11.2031C22.1839 11.0985 22.3082 11.0155 22.4449 10.9588C22.5816 10.9022 22.7282 10.873 22.8762 10.873C23.0241 10.873 23.1707 10.9022 23.3074 10.9588C23.4441 11.0155 23.5684 11.0985 23.673 11.2031C23.7777 11.3078 23.8607 11.432 23.9173 11.5687C23.974 11.7055 24.0031 11.852 24.0031 12C24.0031 12.148 23.974 12.2945 23.9173 12.4313C23.8607 12.568 23.7777 12.6922 23.673 12.7969L23.6712 12.7978Z" fill="#130032"/>
</g>
<defs>
<clipPath id="clip0_7_18824">
<rect width="24" height="24" fill="white"/>
</clipPath>
</defs>
</svg>
