<svg width="24" height="24" viewBox="0 0 24 24" fill="none" xmlns="http://www.w3.org/2000/svg">
<path d="M14.2971 15.4236C15.4005 14.5561 16.206 13.3662 16.6016 12.0195C16.9972 10.6728 16.9631 9.23632 16.5041 7.9099C16.0451 6.58348 15.1841 5.43313 14.0408 4.61893C12.8975 3.80473 11.5288 3.36719 10.1252 3.36719C8.72163 3.36719 7.35295 3.80473 6.20965 4.61893C5.06635 5.43313 4.2053 6.58348 3.74632 7.9099C3.28733 9.23632 3.25326 10.6728 3.64883 12.0195C4.04439 13.3662 4.84993 14.5561 5.95334 15.4236C4.17892 16.1477 2.6109 17.299 1.38865 18.7752C1.1967 19.0037 1.10339 19.2991 1.12923 19.5964C1.15508 19.8937 1.29797 20.1685 1.52647 20.3605C1.75497 20.5524 2.05036 20.6457 2.34766 20.6199C2.64497 20.594 2.91983 20.4512 3.11178 20.2227C4.39522 18.6945 6.65647 16.8739 10.1252 16.8739C13.594 16.8739 15.8552 18.6945 17.1387 20.2227C17.3306 20.4512 17.6055 20.594 17.9028 20.6199C18.2001 20.6457 18.4955 20.5524 18.724 20.3605C18.9525 20.1685 19.0954 19.8937 19.1212 19.5964C19.147 19.2991 19.0537 19.0037 18.8618 18.7752C17.6398 17.2988 16.0717 16.1474 14.2971 15.4236ZM5.62522 10.1239C5.62522 9.23389 5.88914 8.36386 6.3836 7.62384C6.87807 6.88382 7.58087 6.30704 8.40314 5.96645C9.22541 5.62585 10.1302 5.53674 11.0031 5.71037C11.876 5.88401 12.6779 6.31259 13.3072 6.94193C13.9365 7.57126 14.3651 8.37309 14.5387 9.246C14.7124 10.1189 14.6233 11.0237 14.2827 11.846C13.9421 12.6683 13.3653 13.3711 12.6253 13.8655C11.8853 14.36 11.0152 14.6239 10.1252 14.6239C8.93212 14.6227 7.78825 14.1482 6.94461 13.3045C6.10096 12.4609 5.62646 11.317 5.62522 10.1239ZM23.6252 10.1239C23.6287 11.9524 23.2583 13.7622 22.5368 15.4423C22.4854 15.5875 22.4048 15.7206 22.2999 15.8334C22.195 15.9461 22.0681 16.0361 21.927 16.0978C21.7859 16.1595 21.6337 16.1916 21.4797 16.1921C21.3257 16.1926 21.1733 16.1614 21.0318 16.1006C20.8903 16.0398 20.7629 15.9506 20.6573 15.8385C20.5517 15.7264 20.4702 15.5938 20.418 15.4489C20.3657 15.3041 20.3437 15.15 20.3534 14.9964C20.3631 14.8427 20.4042 14.6926 20.4743 14.5555C21.0719 13.1545 21.3799 11.647 21.3799 10.1239C21.3799 8.60077 21.0719 7.09336 20.4743 5.69234C20.4042 5.5552 20.3631 5.40514 20.3534 5.25145C20.3437 5.09777 20.3657 4.94373 20.418 4.79888C20.4702 4.65403 20.5517 4.52145 20.6573 4.40935C20.7629 4.29726 20.8903 4.20803 21.0318 4.1472C21.1733 4.08637 21.3257 4.05523 21.4797 4.05571C21.6337 4.05619 21.7859 4.08828 21.927 4.14999C22.0681 4.2117 22.195 4.30171 22.2999 4.41446C22.4048 4.52721 22.4854 4.6603 22.5368 4.80547C23.2583 6.48558 23.6287 8.29544 23.6252 10.1239ZM19.4065 6.07016C19.9636 7.349 20.2512 8.72897 20.2512 10.1239C20.2512 11.5188 19.9636 12.8988 19.4065 14.1777C19.2869 14.4512 19.0635 14.666 18.7856 14.7748C18.5076 14.8836 18.1978 14.8776 17.9243 14.758C17.6508 14.6384 17.436 14.415 17.3272 14.1371C17.2183 13.8591 17.2244 13.5493 17.344 13.2758C17.7762 12.2812 17.9992 11.2083 17.9992 10.1239C17.9992 9.03946 17.7762 7.96661 17.344 6.97203C17.2244 6.69853 17.2183 6.38872 17.3272 6.11075C17.436 5.83279 17.6508 5.60944 17.9243 5.48984C18.1978 5.37025 18.5076 5.3642 18.7856 5.47303C19.0635 5.58186 19.2869 5.79665 19.4065 6.07016Z" fill="#130032"/>
</svg>
