<svg width="24" height="24" viewBox="0 0 24 24" fill="none" xmlns="http://www.w3.org/2000/svg">
<path d="M20.6897 9.39115C20.5439 9.41558 20.4043 9.46851 20.279 9.54691C20.1537 9.6253 20.045 9.72764 19.9592 9.84805C19.8735 9.96846 19.8123 10.1046 19.7792 10.2487C19.7461 10.3928 19.7417 10.5419 19.7663 10.6877C19.8387 11.1215 19.875 11.5605 19.875 12.0002C19.8777 13.7672 19.283 15.4832 18.1875 16.8696C17.4583 15.9422 16.5289 15.1916 15.4688 14.674C16.1444 13.9898 16.6026 13.121 16.7858 12.1771C16.9689 11.2331 16.8688 10.256 16.498 9.36883C16.1273 8.48161 15.5024 7.72386 14.702 7.1909C13.9017 6.65793 12.9616 6.37356 12 6.37356C11.0384 6.37356 10.0983 6.65793 9.29797 7.1909C8.49761 7.72386 7.87274 8.48161 7.50197 9.36883C7.13121 10.256 7.0311 11.2331 7.21424 12.1771C7.39739 13.121 7.8556 13.9898 8.53125 14.674C7.47109 15.1916 6.54168 15.9422 5.8125 16.8696C4.89644 15.7088 4.32598 14.3134 4.16651 12.8432C4.00704 11.3731 4.26501 9.88784 4.91085 8.5576C5.55669 7.22737 6.56427 6.10601 7.8181 5.32208C9.07193 4.53814 10.5213 4.12334 12 4.12522C12.4398 4.12519 12.8787 4.16156 13.3125 4.23397C13.6068 4.2837 13.9087 4.21449 14.152 4.04158C14.3952 3.86866 14.5598 3.6062 14.6095 3.31194C14.6593 3.01767 14.5901 2.7157 14.4171 2.47246C14.2442 2.22922 13.9818 2.06463 13.6875 2.0149C12.2357 1.77114 10.7483 1.84659 9.32861 2.23599C7.90895 2.62539 6.59117 3.3194 5.46692 4.26974C4.34268 5.22008 3.43897 6.40394 2.81866 7.73896C2.19835 9.07399 1.87633 10.5281 1.875 12.0002C1.875 14.6855 2.94174 17.2609 4.84054 19.1597C6.73935 21.0585 9.31468 22.1252 12 22.1252C14.6853 22.1252 17.2607 21.0585 19.1595 19.1597C21.0583 17.2609 22.125 14.6855 22.125 12.0002C22.1251 11.4348 22.0784 10.8704 21.9853 10.3127C21.9355 10.0188 21.7711 9.75664 21.5282 9.58385C21.2853 9.41106 20.9837 9.34175 20.6897 9.39115ZM9.375 11.2502C9.375 10.731 9.52895 10.2235 9.81739 9.79185C10.1058 9.36017 10.5158 9.02371 10.9955 8.82503C11.4751 8.62635 12.0029 8.57437 12.5121 8.67566C13.0213 8.77694 13.489 9.02695 13.8562 9.39406C14.2233 9.76118 14.4733 10.2289 14.5746 10.7381C14.6758 11.2473 14.6239 11.7751 14.4252 12.2548C14.2265 12.7344 13.8901 13.1444 13.4584 13.4328C13.0267 13.7213 12.5192 13.8752 12 13.8752C11.3038 13.8752 10.6361 13.5987 10.1438 13.1064C9.65156 12.6141 9.375 11.9464 9.375 11.2502ZM7.45969 18.4287C7.98195 17.7146 8.66528 17.1337 9.45418 16.7333C10.2431 16.3329 11.1153 16.1242 12 16.1242C12.8847 16.1242 13.7569 16.3329 14.5458 16.7333C15.3347 17.1337 16.0181 17.7146 16.5403 18.4287C15.2134 19.3697 13.6268 19.8752 12 19.8752C10.3732 19.8752 8.78665 19.3697 7.45969 18.4287ZM22.5459 4.54615L19.5459 7.54615C19.4414 7.65103 19.3172 7.73425 19.1805 7.79103C19.0437 7.84781 18.8971 7.87704 18.7491 7.87704C18.601 7.87704 18.4544 7.84781 18.3176 7.79103C18.1809 7.73425 18.0567 7.65103 17.9522 7.54615L16.4522 6.04615C16.2408 5.83481 16.1221 5.54817 16.1221 5.24928C16.1221 4.95039 16.2408 4.66375 16.4522 4.4524C16.6635 4.24106 16.9502 4.12233 17.2491 4.12233C17.5479 4.12233 17.8346 4.24106 18.0459 4.4524L18.75 5.15647L20.9541 2.95147C21.1654 2.74012 21.4521 2.62139 21.7509 2.62139C22.0498 2.62139 22.3365 2.74012 22.5478 2.95147C22.7592 3.16281 22.8779 3.44946 22.8779 3.74834C22.8779 4.04723 22.7592 4.33387 22.5478 4.54522L22.5459 4.54615Z" fill="#130032"/>
</svg>
