<svg width="24" height="24" viewBox="0 0 24 24" fill="none" xmlns="http://www.w3.org/2000/svg">
<g clip-path="url(#clip0_7_18760)">
<path d="M24.0002 12.7489C24.0002 13.0473 23.8817 13.3334 23.6707 13.5444C23.4597 13.7554 23.1736 13.8739 22.8752 13.8739H22.1252V14.6239C22.1252 14.9223 22.0067 15.2084 21.7957 15.4194C21.5847 15.6304 21.2986 15.7489 21.0002 15.7489C20.7018 15.7489 20.4157 15.6304 20.2047 15.4194C19.9937 15.2084 19.8752 14.9223 19.8752 14.6239V13.8739H19.1252C18.8268 13.8739 18.5407 13.7554 18.3297 13.5444C18.1187 13.3334 18.0002 13.0473 18.0002 12.7489C18.0002 12.4505 18.1187 12.1644 18.3297 11.9534C18.5407 11.7424 18.8268 11.6239 19.1252 11.6239H19.8752V10.8739C19.8752 10.5755 19.9937 10.2894 20.2047 10.0784C20.4157 9.86743 20.7018 9.74891 21.0002 9.74891C21.2986 9.74891 21.5847 9.86743 21.7957 10.0784C22.0067 10.2894 22.1252 10.5755 22.1252 10.8739V11.6239H22.8752C23.1736 11.6239 23.4597 11.7424 23.6707 11.9534C23.8817 12.1644 24.0002 12.4505 24.0002 12.7489ZM18.8618 18.0252C19.0537 18.2537 19.147 18.5491 19.1212 18.8464C19.0954 19.1437 18.9525 19.4185 18.724 19.6105C18.4955 19.8024 18.2001 19.8957 17.9028 19.8699C17.6055 19.844 17.3306 19.7012 17.1387 19.4727C15.8552 17.9445 13.594 16.1239 10.1252 16.1239C7.41678 16.1239 4.92584 17.3127 3.11178 19.4727C2.91983 19.7012 2.64497 19.844 2.34766 19.8699C2.05036 19.8957 1.75497 19.8024 1.52647 19.6105C1.29797 19.4185 1.15508 19.1437 1.12923 18.8464C1.10339 18.5491 1.1967 18.2537 1.38865 18.0252C2.6109 16.549 4.17892 15.3977 5.95334 14.6736C4.84993 13.8061 4.04439 12.6162 3.64883 11.2695C3.25326 9.92283 3.28733 8.48632 3.74632 7.1599C4.2053 5.83348 5.06635 4.68313 6.20965 3.86893C7.35295 3.05473 8.72163 2.61719 10.1252 2.61719C11.5288 2.61719 12.8975 3.05473 14.0408 3.86893C15.1841 4.68313 16.0451 5.83348 16.5041 7.1599C16.9631 8.48632 16.9972 9.92283 16.6016 11.2695C16.206 12.6162 15.4005 13.8061 14.2971 14.6736C16.0717 15.3974 17.6398 16.5488 18.8618 18.0252ZM10.1252 13.8739C11.0152 13.8739 11.8853 13.61 12.6253 13.1155C13.3653 12.6211 13.9421 11.9183 14.2827 11.096C14.6233 10.2737 14.7124 9.36892 14.5387 8.496C14.3651 7.62309 13.9365 6.82126 13.3072 6.19193C12.6779 5.56259 11.876 5.13401 11.0031 4.96037C10.1302 4.78674 9.22541 4.87585 8.40314 5.21645C7.58087 5.55704 6.87807 6.13382 6.3836 6.87384C5.88914 7.61386 5.62522 8.48389 5.62522 9.37391C5.62646 10.567 6.10096 11.7109 6.94461 12.5545C7.78825 13.3982 8.93212 13.8727 10.1252 13.8739Z" fill="#130032"/>
</g>
<defs>
<clipPath id="clip0_7_18760">
<rect width="24" height="24" fill="white"/>
</clipPath>
</defs>
</svg>
