<svg width="24" height="24" viewBox="0 0 24 24" fill="none" xmlns="http://www.w3.org/2000/svg">
<path d="M23.7291 9.76688L19.4569 4.78969C19.2811 4.58108 19.0617 4.41348 18.8143 4.29865C18.5668 4.18383 18.2972 4.12456 18.0244 4.125H3C2.50272 4.125 2.02581 4.32255 1.67417 4.67418C1.32254 5.02581 1.125 5.50272 1.125 6V16.5C1.125 16.9973 1.32254 17.4742 1.67417 17.8258C2.02581 18.1775 2.50272 18.375 3 18.375H4.31813C4.55081 19.0329 4.98174 19.6026 5.55157 20.0055C6.12141 20.4084 6.80212 20.6247 7.5 20.6247C8.19788 20.6247 8.87859 20.4084 9.44843 20.0055C10.0183 19.6026 10.4492 19.0329 10.6819 18.375H14.4431C14.6758 19.0329 15.1067 19.6026 15.6766 20.0055C16.2464 20.4084 16.9271 20.6247 17.625 20.6247C18.3229 20.6247 19.0036 20.4084 19.5734 20.0055C20.1433 19.6026 20.5742 19.0329 20.8069 18.375H22.125C22.6223 18.375 23.0992 18.1775 23.4508 17.8258C23.8025 17.4742 24 16.9973 24 16.5V10.5C23.9998 10.2312 23.9037 9.97123 23.7291 9.76688ZM20.4272 9.375H16.5V6.375H17.8519L20.4272 9.375ZM9.75 9.375V6.375H14.25V9.375H9.75ZM7.5 6.375V9.375H3.375V6.375H7.5ZM7.5 18.375C7.2775 18.375 7.05999 18.309 6.87498 18.1854C6.68998 18.0618 6.54578 17.8861 6.46064 17.6805C6.37549 17.475 6.35321 17.2488 6.39662 17.0305C6.44002 16.8123 6.54717 16.6118 6.7045 16.4545C6.86184 16.2972 7.06229 16.19 7.28052 16.1466C7.49875 16.1032 7.72495 16.1255 7.93052 16.2106C8.13609 16.2958 8.31179 16.44 8.4354 16.625C8.55902 16.81 8.625 17.0275 8.625 17.25C8.625 17.5484 8.50647 17.8345 8.2955 18.0455C8.08452 18.2565 7.79837 18.375 7.5 18.375ZM17.625 18.375C17.4025 18.375 17.185 18.309 17 18.1854C16.815 18.0618 16.6708 17.8861 16.5856 17.6805C16.5005 17.475 16.4782 17.2488 16.5216 17.0305C16.565 16.8123 16.6722 16.6118 16.8295 16.4545C16.9868 16.2972 17.1873 16.19 17.4055 16.1466C17.6238 16.1032 17.85 16.1255 18.0555 16.2106C18.2611 16.2958 18.4368 16.44 18.5604 16.625C18.684 16.81 18.75 17.0275 18.75 17.25C18.75 17.5484 18.6315 17.8345 18.4205 18.0455C18.2095 18.2565 17.9234 18.375 17.625 18.375ZM20.8069 16.125C20.5742 15.4671 20.1433 14.8974 19.5734 14.4945C19.0036 14.0916 18.3229 13.8753 17.625 13.8753C16.9271 13.8753 16.2464 14.0916 15.6766 14.4945C15.1067 14.8974 14.6758 15.4671 14.4431 16.125H10.6819C10.4492 15.4671 10.0183 14.8974 9.44843 14.4945C8.87859 14.0916 8.19788 13.8753 7.5 13.8753C6.80212 13.8753 6.12141 14.0916 5.55157 14.4945C4.98174 14.8974 4.55081 15.4671 4.31813 16.125H3.375V11.625H21.75V16.125H20.8069Z" fill="#130032"/>
</svg>
