<svg width="24" height="24" viewBox="0 0 24 24" fill="none" xmlns="http://www.w3.org/2000/svg">
<path d="M20.25 3.375H3.75C3.25272 3.375 2.77581 3.57254 2.42417 3.92417C2.07254 4.27581 1.875 4.75272 1.875 5.25V18C1.875 18.4973 2.07254 18.9742 2.42417 19.3258C2.77581 19.6775 3.25272 19.875 3.75 19.875H4.875V21C4.875 21.2984 4.99353 21.5845 5.2045 21.7955C5.41548 22.0065 5.70163 22.125 6 22.125C6.29837 22.125 6.58452 22.0065 6.7955 21.7955C7.00647 21.5845 7.125 21.2984 7.125 21V19.875H16.875V21C16.875 21.2984 16.9935 21.5845 17.2045 21.7955C17.4155 22.0065 17.7016 22.125 18 22.125C18.2984 22.125 18.5845 22.0065 18.7955 21.7955C19.0065 21.5845 19.125 21.2984 19.125 21V19.875H20.25C20.7473 19.875 21.2242 19.6775 21.5758 19.3258C21.9275 18.9742 22.125 18.4973 22.125 18V5.25C22.125 4.75272 21.9275 4.27581 21.5758 3.92417C21.2242 3.57254 20.7473 3.375 20.25 3.375ZM4.125 17.625V5.625H19.875V10.5H17.8425C17.571 9.54211 16.9621 8.71475 16.1284 8.17059C15.2946 7.62644 14.2921 7.40221 13.306 7.53928C12.3198 7.67635 11.4165 8.16548 10.7627 8.9164C10.109 9.66732 9.74887 10.6294 9.74887 11.625C9.74887 12.6206 10.109 13.5827 10.7627 14.3336C11.4165 15.0845 12.3198 15.5736 13.306 15.7107C14.2921 15.8478 15.2946 15.6236 16.1284 15.0794C16.9621 14.5353 17.571 13.7079 17.8425 12.75H19.875V17.625H4.125ZM15.75 11.625C15.75 11.9958 15.64 12.3584 15.434 12.6667C15.228 12.975 14.9351 13.2154 14.5925 13.3573C14.2499 13.4992 13.8729 13.5363 13.5092 13.464C13.1455 13.3916 12.8114 13.213 12.5492 12.9508C12.287 12.6886 12.1084 12.3545 12.036 11.9908C11.9637 11.6271 12.0008 11.2501 12.1427 10.9075C12.2846 10.5649 12.525 10.272 12.8333 10.066C13.1416 9.85997 13.5042 9.75 13.875 9.75C14.3723 9.75 14.8492 9.94754 15.2008 10.2992C15.5525 10.6508 15.75 11.1277 15.75 11.625Z" fill="#130032"/>
</svg>
