<svg width="24" height="24" viewBox="0 0 24 24" fill="none" xmlns="http://www.w3.org/2000/svg">
<path d="M21.7959 18.7957L18.7959 21.7957C18.5846 22.0071 18.2979 22.1258 17.999 22.1258C17.7001 22.1258 17.4135 22.0071 17.2021 21.7957C16.9908 21.5844 16.8721 21.2977 16.8721 20.9989C16.8721 20.7 16.9908 20.4133 17.2021 20.202L18.2812 19.1248H7.49996C7.20159 19.1248 6.91544 19.0063 6.70446 18.7953C6.49349 18.5843 6.37496 18.2982 6.37496 17.9998V6.46854L5.2959 7.54573C5.19125 7.65038 5.06702 7.73339 4.93029 7.79002C4.79356 7.84666 4.64702 7.87581 4.49902 7.87581C4.35103 7.87581 4.20448 7.84666 4.06776 7.79002C3.93103 7.73339 3.80679 7.65038 3.70215 7.54573C3.5975 7.44108 3.51449 7.31685 3.45785 7.18012C3.40122 7.04339 3.37207 6.89685 3.37207 6.74886C3.37207 6.60086 3.40122 6.45432 3.45785 6.31759C3.51449 6.18086 3.5975 6.05663 3.70215 5.95198L6.70215 2.95198C6.80666 2.8471 6.93086 2.76388 7.0676 2.7071C7.20435 2.65032 7.35096 2.62109 7.49902 2.62109C7.64709 2.62109 7.7937 2.65032 7.93044 2.7071C8.06719 2.76388 8.19138 2.8471 8.2959 2.95198L11.2959 5.95198C11.5072 6.16333 11.626 6.44997 11.626 6.74886C11.626 7.04774 11.5072 7.33439 11.2959 7.54573C11.0846 7.75708 10.7979 7.87581 10.499 7.87581C10.2001 7.87581 9.91349 7.75708 9.70215 7.54573L8.62496 6.46854V16.8748H18.2812L17.2012 15.7957C16.9899 15.5844 16.8711 15.2977 16.8711 14.9989C16.8711 14.7 16.9899 14.4133 17.2012 14.202C17.4126 13.9906 17.6992 13.8719 17.9981 13.8719C18.297 13.8719 18.5836 13.9906 18.795 14.202L21.795 17.202C21.8999 17.3064 21.9832 17.4306 22.0401 17.5673C22.0969 17.704 22.1262 17.8506 22.1263 17.9987C22.1264 18.1467 22.0973 18.2934 22.0406 18.4301C21.9839 18.5669 21.9007 18.6912 21.7959 18.7957Z" fill="#130032"/>
</svg>
