<svg width="24" height="24" viewBox="0 0 24 24" fill="none" xmlns="http://www.w3.org/2000/svg">
<path d="M22.5459 13.5457L19.5459 16.5457C19.3346 16.7571 19.0479 16.8758 18.7491 16.8758C18.4502 16.8758 18.1635 16.7571 17.9522 16.5457C17.7408 16.3344 17.6221 16.0477 17.6221 15.7489C17.6221 15.45 17.7408 15.1633 17.9522 14.952L19.0312 13.8748H11.7188L7.21875 18.3748H9C9.29837 18.3748 9.58452 18.4933 9.7955 18.7043C10.0065 18.9153 10.125 19.2014 10.125 19.4998C10.125 19.7982 10.0065 20.0843 9.7955 20.2953C9.58452 20.5063 9.29837 20.6248 9 20.6248H4.5C4.20163 20.6248 3.91548 20.5063 3.7045 20.2953C3.49353 20.0843 3.375 19.7982 3.375 19.4998V14.9998C3.375 14.7014 3.49353 14.4153 3.7045 14.2043C3.91548 13.9933 4.20163 13.8748 4.5 13.8748C4.79837 13.8748 5.08452 13.9933 5.2955 14.2043C5.50647 14.4153 5.625 14.7014 5.625 14.9998V16.781L10.125 12.281V4.96854L9.04594 6.04573C8.94129 6.15038 8.81706 6.23339 8.68033 6.29002C8.5436 6.34666 8.39706 6.37581 8.24906 6.37581C7.95018 6.37581 7.66353 6.25708 7.45219 6.04573C7.34754 5.94108 7.26453 5.81685 7.2079 5.68012C7.15126 5.54339 7.12211 5.39685 7.12211 5.24886C7.12211 4.94997 7.24084 4.66333 7.45219 4.45198L10.4522 1.45198C10.5567 1.3471 10.6809 1.26388 10.8176 1.2071C10.9544 1.15032 11.101 1.12109 11.2491 1.12109C11.3971 1.12109 11.5437 1.15032 11.6805 1.2071C11.8172 1.26388 11.9414 1.3471 12.0459 1.45198L15.0459 4.45198C15.2573 4.66333 15.376 4.94997 15.376 5.24886C15.376 5.54774 15.2573 5.83439 15.0459 6.04573C14.8346 6.25708 14.5479 6.37581 14.2491 6.37581C13.9502 6.37581 13.6635 6.25708 13.4522 6.04573L12.375 4.96854V11.6248H19.0312L17.9513 10.5457C17.8466 10.4411 17.7636 10.3168 17.707 10.1801C17.6503 10.0434 17.6212 9.89685 17.6212 9.74886C17.6212 9.60086 17.6503 9.45432 17.707 9.31759C17.7636 9.18086 17.8466 9.05663 17.9513 8.95198C18.1626 8.74064 18.4492 8.62191 18.7481 8.62191C18.8961 8.62191 19.0427 8.65105 19.1794 8.70769C19.3161 8.76432 19.4404 8.84733 19.545 8.95198L22.545 11.952C22.6499 12.0564 22.7332 12.1806 22.7901 12.3173C22.847 12.454 22.8763 12.6006 22.8764 12.7487C22.8764 12.8967 22.8473 13.0434 22.7906 13.1801C22.7339 13.3169 22.6508 13.4412 22.5459 13.5457Z" fill="#130032"/>
</svg>
