<svg width="24" height="24" viewBox="0 0 24 24" fill="none" xmlns="http://www.w3.org/2000/svg">
<path d="M23.3859 6.49608C23.2008 6.40194 22.9933 6.36087 22.7863 6.37741C22.5793 6.39396 22.3809 6.46748 22.2131 6.58983L19.875 8.28858V6.74826C19.875 6.25098 19.6775 5.77407 19.3258 5.42244C18.9742 5.07081 18.4973 4.87326 18 4.87326H11.6137C11.3154 4.87326 11.0292 4.99179 10.8183 5.20277C10.6073 5.41375 10.4887 5.69989 10.4887 5.99826C10.4887 6.29663 10.6073 6.58278 10.8183 6.79376C11.0292 7.00474 11.3154 7.12326 11.6137 7.12326H17.625V13.4983C17.6251 13.666 17.6627 13.8316 17.735 13.983C17.8074 14.1343 17.9126 14.2676 18.0431 14.373C18.0572 14.3851 18.0722 14.3964 18.0881 14.4086L22.2131 17.4086C22.381 17.5307 22.5794 17.604 22.7863 17.6204C22.9933 17.6367 23.2007 17.5955 23.3857 17.5013C23.5706 17.4071 23.7259 17.2635 23.8344 17.0865C23.9428 16.9094 24.0001 16.7059 24 16.4983V7.49826C24 7.29084 23.9426 7.08746 23.8343 6.9106C23.7259 6.73374 23.5707 6.59028 23.3859 6.49608ZM21.75 14.2886L19.875 12.9255V11.0711L21.75 9.70795V14.2886ZM5.3325 2.9917C5.2337 2.88034 5.11379 2.78969 4.9797 2.72501C4.84561 2.66033 4.70002 2.6229 4.55136 2.61491C4.40271 2.60691 4.25394 2.6285 4.11369 2.67842C3.97344 2.72834 3.84448 2.8056 3.73431 2.90572C3.62414 3.00585 3.53493 3.12684 3.47187 3.26169C3.4088 3.39655 3.37312 3.54258 3.36691 3.69132C3.36069 3.84006 3.38406 3.98856 3.43566 4.1282C3.48726 4.26785 3.56606 4.39586 3.6675 4.50483L4.00219 4.87326H3C2.50272 4.87326 2.02581 5.07081 1.67417 5.42244C1.32254 5.77407 1.125 6.25098 1.125 6.74826V17.2483C1.125 17.7455 1.32254 18.2225 1.67417 18.5741C2.02581 18.9257 2.50272 19.1233 3 19.1233H16.9566L18.6675 21.0048C18.8692 21.2215 19.1482 21.3499 19.444 21.3623C19.7397 21.3747 20.0285 21.2699 20.2475 21.0708C20.4666 20.8717 20.5984 20.5943 20.6143 20.2987C20.6302 20.0031 20.529 19.7132 20.3325 19.4917L5.3325 2.9917ZM3.375 16.8733V7.12326H6.04781L14.9119 16.8733H3.375Z" fill="#130032"/>
</svg>
