<svg width="24" height="24" viewBox="0 0 24 24" fill="none" xmlns="http://www.w3.org/2000/svg">
<path d="M20.25 3.375H3.75C3.25272 3.375 2.77581 3.57254 2.42417 3.92417C2.07254 4.27581 1.875 4.75272 1.875 5.25V18.75C1.875 19.2473 2.07254 19.7242 2.42417 20.0758C2.77581 20.4275 3.25272 20.625 3.75 20.625H20.25C20.7473 20.625 21.2242 20.4275 21.5758 20.0758C21.9275 19.7242 22.125 19.2473 22.125 18.75V5.25C22.125 4.75272 21.9275 4.27581 21.5758 3.92417C21.2242 3.57254 20.7473 3.375 20.25 3.375ZM19.875 10.875H14.625V5.625H19.875V10.875ZM4.875 11.25C4.875 11.0275 4.94098 10.81 5.0646 10.625C5.18821 10.44 5.36391 10.2958 5.56948 10.2106C5.77505 10.1255 6.00125 10.1032 6.21948 10.1466C6.43771 10.19 6.63816 10.2972 6.7955 10.4545C6.95283 10.6118 7.05998 10.8123 7.10338 11.0305C7.14679 11.2488 7.12451 11.475 7.03936 11.6805C6.95422 11.8861 6.81002 12.0618 6.62502 12.1854C6.44001 12.309 6.2225 12.375 6 12.375C5.70163 12.375 5.41548 12.2565 5.2045 12.0455C4.99353 11.8345 4.875 11.5484 4.875 11.25ZM4.125 15.9159C4.37719 15.1725 5.15625 14.625 6 14.625C6.88406 14.625 7.70531 15.2288 7.91062 16.0312C7.98522 16.3202 8.17153 16.5676 8.42857 16.7192C8.68561 16.8707 8.99233 16.914 9.28125 16.8394C9.57017 16.7648 9.81763 16.5785 9.96918 16.3214C10.1207 16.0644 10.164 15.7577 10.0894 15.4688C9.86349 14.6142 9.36438 13.857 8.66813 13.3125C9.1547 12.6788 9.40068 11.893 9.36229 11.0949C9.32389 10.2969 9.00363 9.53834 8.45846 8.95426C7.9133 8.37017 7.17861 7.99843 6.38509 7.90518C5.59158 7.81193 4.79072 8.00321 4.125 8.445V5.625H12.375V18.375H4.125V15.9159ZM14.625 18.375V13.125H19.875V18.375H14.625ZM15.75 8.25C15.75 7.95333 15.838 7.66332 16.0028 7.41665C16.1676 7.16997 16.4019 6.97771 16.676 6.86418C16.9501 6.75065 17.2517 6.72094 17.5426 6.77882C17.8336 6.8367 18.1009 6.97956 18.3107 7.18934C18.5204 7.39912 18.6633 7.66639 18.7212 7.95736C18.7791 8.24834 18.7494 8.54994 18.6358 8.82403C18.5223 9.09811 18.33 9.33238 18.0834 9.4972C17.8367 9.66203 17.5467 9.75 17.25 9.75C16.8522 9.75 16.4706 9.59196 16.1893 9.31066C15.908 9.02936 15.75 8.64782 15.75 8.25ZM18.75 15.75C18.75 16.0467 18.662 16.3367 18.4972 16.5834C18.3324 16.83 18.0981 17.0223 17.824 17.1358C17.5499 17.2494 17.2483 17.2791 16.9574 17.2212C16.6664 17.1633 16.3991 17.0204 16.1893 16.8107C15.9796 16.6009 15.8367 16.3336 15.7788 16.0426C15.7209 15.7517 15.7506 15.4501 15.8642 15.176C15.9777 14.9019 16.17 14.6676 16.4166 14.5028C16.6633 14.338 16.9533 14.25 17.25 14.25C17.6478 14.25 18.0294 14.408 18.3107 14.6893C18.592 14.9706 18.75 15.3522 18.75 15.75Z" fill="#130032"/>
</svg>
