<svg width="24" height="24" viewBox="0 0 24 24" fill="none" xmlns="http://www.w3.org/2000/svg">
<path d="M20.25 3.375H3.75C3.25272 3.375 2.77581 3.57254 2.42417 3.92417C2.07254 4.27581 1.875 4.75272 1.875 5.25V18.75C1.875 19.2473 2.07254 19.7242 2.42417 20.0758C2.77581 20.4275 3.25272 20.625 3.75 20.625H20.25C20.7473 20.625 21.2242 20.4275 21.5758 20.0758C21.9275 19.7242 22.125 19.2473 22.125 18.75V5.25C22.125 4.75272 21.9275 4.27581 21.5758 3.92417C21.2242 3.57254 20.7473 3.375 20.25 3.375ZM19.875 18.375H4.125V5.625H19.875V18.375ZM7.63406 15.5672C8.8125 16.4109 10.365 16.875 12 16.875C13.635 16.875 15.1875 16.4109 16.3659 15.5672C17.6428 14.655 18.375 13.3547 18.375 12C18.375 10.6453 17.6428 9.345 16.3659 8.4375C15.1875 7.59375 13.635 7.125 12 7.125C10.365 7.125 8.8125 7.59375 7.63406 8.4375C6.35719 9.345 5.625 10.6453 5.625 12C5.625 13.3547 6.35719 14.655 7.63406 15.5672ZM12 9.375C14.2359 9.375 16.125 10.5769 16.125 12C16.125 13.4231 14.2359 14.625 12 14.625C9.76406 14.625 7.875 13.4231 7.875 12C7.875 10.5769 9.76406 9.375 12 9.375Z" fill="#130032"/>
</svg>
