<svg width="24" height="24" viewBox="0 0 24 24" fill="none" xmlns="http://www.w3.org/2000/svg">
<path d="M12 1.875C9.99747 1.875 8.0399 2.46882 6.37486 3.58137C4.70981 4.69392 3.41206 6.27523 2.64572 8.12533C1.87939 9.97543 1.67888 12.0112 2.06955 13.9753C2.46023 15.9393 3.42454 17.7435 4.84055 19.1595C6.25656 20.5755 8.06066 21.5398 10.0247 21.9305C11.9888 22.3211 14.0246 22.1206 15.8747 21.3543C17.7248 20.5879 19.3061 19.2902 20.4186 17.6251C21.5312 15.9601 22.125 14.0025 22.125 12C22.122 9.3156 21.0543 6.74199 19.1562 4.84383C17.258 2.94567 14.6844 1.87798 12 1.875ZM12 19.875C10.4425 19.875 8.91993 19.4131 7.62489 18.5478C6.32985 17.6825 5.32049 16.4526 4.72445 15.0136C4.12841 13.5747 3.97246 11.9913 4.27632 10.4637C4.58018 8.93606 5.3302 7.53287 6.43154 6.43153C7.53288 5.3302 8.93607 4.58017 10.4637 4.27632C11.9913 3.97246 13.5747 4.12841 15.0136 4.72445C16.4526 5.32049 17.6825 6.32985 18.5478 7.62488C19.4131 8.91992 19.875 10.4425 19.875 12C19.8728 14.0879 19.0424 16.0896 17.566 17.566C16.0896 19.0424 14.0879 19.8728 12 19.875ZM12 7.875C10.9064 7.87624 9.85788 8.31124 9.08456 9.08455C8.31124 9.85787 7.87625 10.9064 7.875 12C7.875 12.2984 7.75648 12.5845 7.5455 12.7955C7.33452 13.0065 7.04837 13.125 6.75 13.125C6.45164 13.125 6.16549 13.0065 5.95451 12.7955C5.74353 12.5845 5.625 12.2984 5.625 12C5.62674 10.3098 6.29895 8.68928 7.49412 7.49411C8.68929 6.29894 10.3098 5.62674 12 5.625C12.2984 5.625 12.5845 5.74353 12.7955 5.9545C13.0065 6.16548 13.125 6.45163 13.125 6.75C13.125 7.04837 13.0065 7.33452 12.7955 7.5455C12.5845 7.75647 12.2984 7.875 12 7.875ZM18.375 12C18.3733 13.6902 17.7011 15.3107 16.5059 16.5059C15.3107 17.7011 13.6902 18.3733 12 18.375C11.7016 18.375 11.4155 18.2565 11.2045 18.0455C10.9935 17.8345 10.875 17.5484 10.875 17.25C10.875 16.9516 10.9935 16.6655 11.2045 16.4545C11.4155 16.2435 11.7016 16.125 12 16.125C13.0936 16.1238 14.1421 15.6888 14.9154 14.9154C15.6888 14.1421 16.1238 13.0936 16.125 12C16.125 11.7016 16.2435 11.4155 16.4545 11.2045C16.6655 10.9935 16.9516 10.875 17.25 10.875C17.5484 10.875 17.8345 10.9935 18.0455 11.2045C18.2565 11.4155 18.375 11.7016 18.375 12ZM12 14.625C11.4808 14.625 10.9733 14.471 10.5416 14.1826C10.11 13.8942 9.7735 13.4842 9.57482 13.0045C9.37614 12.5249 9.32416 11.9971 9.42544 11.4879C9.52673 10.9787 9.77674 10.511 10.1438 10.1438C10.511 9.77673 10.9787 9.52672 11.4879 9.42544C11.9971 9.32415 12.5249 9.37614 13.0045 9.57482C13.4842 9.7735 13.8942 10.1099 14.1826 10.5416C14.4711 10.9733 14.625 11.4808 14.625 12C14.625 12.6962 14.3484 13.3639 13.8562 13.8562C13.3639 14.3484 12.6962 14.625 12 14.625Z" fill="#130032"/>
</svg>
