<svg width="24" height="24" viewBox="0 0 24 24" fill="none" xmlns="http://www.w3.org/2000/svg">
<g clip-path="url(#clip0_7_18673)">
<path d="M10.125 12C9.75416 12 9.39165 11.89 9.08331 11.684C8.77496 11.478 8.53464 11.1851 8.39273 10.8425C8.25081 10.4999 8.21368 10.1229 8.28603 9.7592C8.35837 9.39549 8.53695 9.0614 8.79918 8.79918C9.0614 8.53695 9.39549 8.35837 9.7592 8.28603C10.1229 8.21368 10.4999 8.25081 10.8425 8.39273C11.1851 8.53464 11.478 8.77496 11.684 9.08331C11.89 9.39165 12 9.75416 12 10.125C12 10.6223 11.8025 11.0992 11.4508 11.4508C11.0992 11.8025 10.6223 12 10.125 12ZM15.75 10.125C15.3792 10.125 15.0166 10.235 14.7083 10.441C14.4 10.647 14.1596 10.9399 14.0177 11.2825C13.8758 11.6251 13.8387 12.0021 13.911 12.3658C13.9834 12.7295 14.162 13.0636 14.4242 13.3258C14.6864 13.588 15.0205 13.7666 15.3842 13.839C15.7479 13.9113 16.1249 13.8742 16.4675 13.7323C16.8101 13.5904 17.103 13.35 17.309 13.0417C17.515 12.7334 17.625 12.3708 17.625 12C17.625 11.5027 17.4275 11.0258 17.0758 10.6742C16.7242 10.3225 16.2473 10.125 15.75 10.125ZM12 13.875C11.6292 13.875 11.2666 13.985 10.9583 14.191C10.65 14.397 10.4096 14.6899 10.2677 15.0325C10.1258 15.3751 10.0887 15.7521 10.161 16.1158C10.2334 16.4795 10.412 16.8136 10.6742 17.0758C10.9364 17.338 11.2705 17.5166 11.6342 17.589C11.9979 17.6613 12.3749 17.6242 12.7175 17.4823C13.0601 17.3404 13.353 17.1 13.559 16.7917C13.765 16.4834 13.875 16.1208 13.875 15.75C13.875 15.2527 13.6775 14.7758 13.3258 14.4242C12.9742 14.0725 12.4973 13.875 12 13.875ZM23.625 12C23.625 12.2984 23.5065 12.5845 23.2955 12.7955C23.0845 13.0065 22.7984 13.125 22.5 13.125H21.3075C21.1025 14.8257 20.4338 16.4373 19.3744 17.7834L20.2959 18.7041C20.5073 18.9154 20.626 19.2021 20.626 19.5009C20.626 19.7998 20.5073 20.0865 20.2959 20.2978C20.0846 20.5092 19.7979 20.6279 19.4991 20.6279C19.2002 20.6279 18.9135 20.5092 18.7022 20.2978L17.7816 19.3762C16.4357 20.4347 14.8249 21.1028 13.125 21.3075V22.5C13.125 22.7984 13.0065 23.0845 12.7955 23.2955C12.5845 23.5065 12.2984 23.625 12 23.625C11.7016 23.625 11.4155 23.5065 11.2045 23.2955C10.9935 23.0845 10.875 22.7984 10.875 22.5V21.3075C9.17429 21.1025 7.5627 20.4338 6.21656 19.3744L5.29594 20.2959C5.19129 20.4006 5.06706 20.4836 4.93033 20.5402C4.7936 20.5969 4.64706 20.626 4.49906 20.626C4.35107 20.626 4.20452 20.5969 4.0678 20.5402C3.93107 20.4836 3.80683 20.4006 3.70219 20.2959C3.59754 20.1913 3.51453 20.0671 3.4579 19.9303C3.40126 19.7936 3.37211 19.6471 3.37211 19.4991C3.37211 19.3511 3.40126 19.2045 3.4579 19.0678C3.51453 18.9311 3.59754 18.8068 3.70219 18.7022L4.62375 17.7816C3.56533 16.4357 2.89724 14.8249 2.6925 13.125H1.5C1.20163 13.125 0.915483 13.0065 0.704505 12.7955C0.493526 12.5845 0.375 12.2984 0.375 12C0.375 11.7016 0.493526 11.4155 0.704505 11.2045C0.915483 10.9935 1.20163 10.875 1.5 10.875H2.6925C2.89746 9.17429 3.56622 7.5627 4.62563 6.21656L3.70406 5.29594C3.49272 5.08459 3.37399 4.79795 3.37399 4.49906C3.37399 4.35107 3.40314 4.20452 3.45977 4.0678C3.5164 3.93107 3.59942 3.80683 3.70406 3.70219C3.80871 3.59754 3.93294 3.51453 4.06967 3.4579C4.2064 3.40126 4.35294 3.37211 4.50094 3.37211C4.79982 3.37211 5.08647 3.49084 5.29781 3.70219L6.21844 4.62375C7.56426 3.56533 9.17513 2.89724 10.875 2.6925V1.5C10.875 1.20163 10.9935 0.915483 11.2045 0.704505C11.4155 0.493526 11.7016 0.375 12 0.375C12.2984 0.375 12.5845 0.493526 12.7955 0.704505C13.0065 0.915483 13.125 1.20163 13.125 1.5V2.6925C14.8257 2.89746 16.4373 3.56622 17.7834 4.62563L18.7041 3.70406C18.9154 3.49272 19.2021 3.37399 19.5009 3.37399C19.7998 3.37399 20.0865 3.49272 20.2978 3.70406C20.5092 3.91541 20.6279 4.20205 20.6279 4.50094C20.6279 4.79982 20.5092 5.08647 20.2978 5.29781L19.3762 6.21844C20.4347 7.56426 21.1028 9.17513 21.3075 10.875H22.5C22.7984 10.875 23.0845 10.9935 23.2955 11.2045C23.5065 11.4155 23.625 11.7016 23.625 12ZM19.125 12C19.125 10.5908 18.7071 9.21326 17.9242 8.04156C17.1413 6.86986 16.0285 5.95663 14.7266 5.41736C13.4247 4.87808 11.9921 4.73699 10.61 5.0119C9.22787 5.28682 7.95831 5.96542 6.96186 6.96186C5.96542 7.95831 5.28682 9.22787 5.0119 10.61C4.73699 11.9921 4.87808 13.4247 5.41736 14.7266C5.95663 16.0285 6.86986 17.1413 8.04156 17.9242C9.21326 18.7071 10.5908 19.125 12 19.125C13.8891 19.123 15.7002 18.3717 17.0359 17.0359C18.3717 15.7002 19.123 13.8891 19.125 12Z" fill="#130032"/>
</g>
<defs>
<clipPath id="clip0_7_18673">
<rect width="24" height="24" fill="white"/>
</clipPath>
</defs>
</svg>
