<svg width="24" height="24" viewBox="0 0 24 24" fill="none" xmlns="http://www.w3.org/2000/svg">
<path d="M17.6247 9.75C17.6247 10.0484 17.5062 10.3345 17.2952 10.5455C17.0842 10.7565 16.7981 10.875 16.4997 10.875H7.49969C7.20133 10.875 6.91518 10.7565 6.7042 10.5455C6.49322 10.3345 6.37469 10.0484 6.37469 9.75C6.37469 9.45163 6.49322 9.16548 6.7042 8.9545C6.91518 8.74353 7.20133 8.625 7.49969 8.625H16.4997C16.7981 8.625 17.0842 8.74353 17.2952 8.9545C17.5062 9.16548 17.6247 9.45163 17.6247 9.75ZM23.9913 12.3403C23.9004 14.1281 23.1424 15.8169 21.867 17.073C20.5916 18.3292 18.8915 19.0614 17.1025 19.125C17.05 19.125 16.9966 19.125 16.9441 19.125C15.5903 19.125 14.1906 18.5831 12.6709 17.4713C12.4764 17.3281 12.2412 17.2509 11.9997 17.2509C11.7582 17.2509 11.523 17.3281 11.3284 17.4713C9.74969 18.6263 8.30219 19.1663 6.89688 19.125C5.10788 19.0614 3.40779 18.3292 2.13238 17.073C0.856968 15.8169 0.0989831 14.1281 0.00813222 12.3403C-0.0379256 11.3771 0.112014 10.4146 0.448868 9.51105C0.785723 8.6075 1.30248 7.78173 1.96784 7.08377C2.63321 6.3858 3.43332 5.83015 4.31973 5.45049C5.20614 5.07082 6.1604 4.87504 7.12469 4.875H16.8747C17.839 4.87504 18.7932 5.07082 19.6797 5.45049C20.5661 5.83015 21.3662 6.3858 22.0315 7.08377C22.6969 7.78173 23.2137 8.6075 23.5505 9.51105C23.8874 10.4146 24.0373 11.3771 23.9913 12.3403ZM20.4016 8.63437C19.9478 8.15541 19.4008 7.77441 18.7943 7.51482C18.1877 7.25524 17.5345 7.12258 16.8747 7.125H7.12469C6.46468 7.12499 5.81154 7.25901 5.20486 7.51892C4.59818 7.77883 4.0506 8.15923 3.5953 8.63706C3.14 9.11488 2.78647 9.68019 2.55613 10.2987C2.3258 10.9172 2.22346 11.5761 2.25532 12.2353C2.31787 13.4579 2.83649 14.6127 3.70881 15.4716C4.58112 16.3306 5.74375 16.8313 6.96719 16.875C7.85032 16.9022 8.84219 16.5 10 15.6562C10.5796 15.23 11.2802 15.0001 11.9997 15C12.7192 15.0001 13.4198 15.23 13.9994 15.6562C15.1581 16.5 16.1472 16.9022 17.0322 16.875C18.2555 16.8313 19.418 16.3307 20.2903 15.472C21.1626 14.6132 21.6813 13.4587 21.7441 12.2363C21.7781 11.576 21.6766 10.9158 21.4457 10.2963C21.2148 9.67685 20.8595 9.11124 20.4016 8.63437Z" fill="#130032"/>
</svg>
