<svg width="24" height="24" viewBox="0 0 24 24" fill="none" xmlns="http://www.w3.org/2000/svg">
<g clip-path="url(#clip0_7_19025)">
<path d="M18.375 6.37501C17.3304 6.37501 16.3064 6.6659 15.4178 7.2151C14.5292 7.76429 13.811 8.55009 13.3439 9.48443C12.8767 10.4188 12.6789 11.4648 12.7727 12.5052C12.8665 13.5456 13.2482 14.5393 13.875 15.375H10.125C10.8853 14.3613 11.281 13.1206 11.2481 11.8539C11.2152 10.5871 10.7555 9.36865 9.94361 8.3958C9.13169 7.42295 8.01508 6.75274 6.77469 6.49375C5.5343 6.23476 4.24279 6.40217 3.10943 6.96885C1.97606 7.53554 1.06723 8.46829 0.53019 9.616C-0.00685398 10.7637 -0.14065 12.0591 0.150479 13.2924C0.441609 14.5256 1.14061 15.6244 2.13422 16.4108C3.12784 17.1972 4.35786 17.625 5.625 17.625H18.375C19.8668 17.625 21.2976 17.0324 22.3525 15.9775C23.4074 14.9226 24 13.4919 24 12C24 10.5082 23.4074 9.07742 22.3525 8.02253C21.2976 6.96764 19.8668 6.37501 18.375 6.37501ZM2.25 12C2.25 11.3325 2.44795 10.68 2.81879 10.125C3.18964 9.56994 3.71675 9.13736 4.33345 8.88191C4.95015 8.62647 5.62875 8.55963 6.28343 8.68986C6.93812 8.82008 7.53949 9.14152 8.01149 9.61352C8.48349 10.0855 8.80493 10.6869 8.93516 11.3416C9.06538 11.9963 8.99854 12.6749 8.7431 13.2916C8.48765 13.9083 8.05507 14.4354 7.50005 14.8062C6.94504 15.1771 6.29252 15.375 5.625 15.375C4.7299 15.375 3.87145 15.0194 3.23852 14.3865C2.60558 13.7536 2.25 12.8951 2.25 12ZM18.375 15.375C17.7075 15.375 17.055 15.1771 16.5 14.8062C15.9449 14.4354 15.5124 13.9083 15.2569 13.2916C15.0015 12.6749 14.9346 11.9963 15.0649 11.3416C15.1951 10.6869 15.5165 10.0855 15.9885 9.61352C16.4605 9.14152 17.0619 8.82008 17.7166 8.68986C18.3713 8.55963 19.0499 8.62647 19.6666 8.88191C20.2833 9.13736 20.8104 9.56994 21.1812 10.125C21.5521 10.68 21.75 11.3325 21.75 12C21.75 12.8951 21.3944 13.7536 20.7615 14.3865C20.1286 15.0194 19.2701 15.375 18.375 15.375Z" fill="#130032"/>
</g>
<defs>
<clipPath id="clip0_7_19025">
<rect width="24" height="24" fill="white"/>
</clipPath>
</defs>
</svg>
