<svg width="24" height="24" viewBox="0 0 24 24" fill="none" xmlns="http://www.w3.org/2000/svg">
<path d="M12 1.875C9.99747 1.875 8.0399 2.46882 6.37486 3.58137C4.70981 4.69392 3.41206 6.27523 2.64572 8.12533C1.87939 9.97543 1.67888 12.0112 2.06955 13.9753C2.46023 15.9393 3.42454 17.7435 4.84055 19.1595C6.25656 20.5755 8.06066 21.5398 10.0247 21.9305C11.9888 22.3211 14.0246 22.1206 15.8747 21.3543C17.7248 20.5879 19.3061 19.2902 20.4186 17.6251C21.5312 15.9601 22.125 14.0025 22.125 12C22.122 9.3156 21.0543 6.74199 19.1562 4.84383C17.258 2.94567 14.6844 1.87798 12 1.875ZM9.07782 4.6875C9.6186 4.46915 10.1821 4.31192 10.7578 4.21875C12.0102 4.84114 13.0742 5.7858 13.8405 6.95564C14.6068 8.12547 15.0478 9.47828 15.1181 10.875H12.6497L9.07782 4.6875ZM12.6497 13.125H19.7934C19.7103 13.7021 19.5628 14.2682 19.3538 14.8125C18.1891 15.5843 16.8401 16.0326 15.4452 16.1115C14.0502 16.1904 12.6593 15.8971 11.415 15.2616L12.6497 13.125ZM19.7934 10.875H17.3709C17.3074 9.23476 16.844 7.6349 16.0209 6.21469C15.7117 5.67895 15.3543 5.17249 14.9531 4.70156C16.228 5.2195 17.3453 6.06165 18.1943 7.14453C19.0434 8.22741 19.5946 9.5134 19.7934 10.875ZM7.13157 5.81719L8.34375 7.91156C6.95511 8.78656 5.80133 9.98765 4.98282 11.4103C4.67333 11.9481 4.4135 12.5129 4.20657 13.0978C4.0118 11.7343 4.17959 10.3435 4.69307 9.06539C5.20654 7.7873 6.04759 6.66699 7.13157 5.81719ZM5.88657 16.9566C5.80102 15.5627 6.08768 14.1711 6.71715 12.9245C7.34663 11.6779 8.29628 10.6211 9.46875 9.8625L10.7006 12L7.13157 18.1875C6.67245 17.8243 6.25492 17.4115 5.88657 16.9566ZM9.07407 19.3106L10.2853 17.2134C11.7386 17.9794 13.3572 18.3782 15 18.375C15.616 18.3748 16.2307 18.319 16.8366 18.2081C15.7535 19.0559 14.4666 19.6042 13.1049 19.798C11.7432 19.9918 10.3544 19.8244 9.07782 19.3125L9.07407 19.3106Z" fill="#130032"/>
</svg>
