<svg width="24" height="24" viewBox="0 0 24 24" fill="none" xmlns="http://www.w3.org/2000/svg">
<path d="M18.3753 12.75C18.3753 13.0467 18.2873 13.3367 18.1225 13.5834C17.9576 13.83 17.7234 14.0223 17.4493 14.1358C17.1752 14.2494 16.8736 14.2791 16.5826 14.2212C16.2917 14.1633 16.0244 14.0204 15.8146 13.8107C15.6048 13.6009 15.462 13.3336 15.4041 13.0426C15.3462 12.7517 15.3759 12.4501 15.4894 12.176C15.603 11.9019 15.7952 11.6676 16.0419 11.5028C16.2886 11.338 16.5786 11.25 16.8753 11.25C17.2731 11.25 17.6546 11.408 17.9359 11.6893C18.2172 11.9706 18.3753 12.3522 18.3753 12.75ZM22.1253 9.375V16.875C22.1253 17.6706 21.8092 18.4337 21.2466 18.9963C20.684 19.5589 19.9209 19.875 19.1253 19.875H5.62526C4.82961 19.875 4.06655 19.5589 3.50394 18.9963C2.94133 18.4337 2.62526 17.6706 2.62526 16.875V5.71125C2.61373 5.31009 2.6828 4.91069 2.82839 4.5367C2.97398 4.1627 3.19312 3.82173 3.47286 3.53395C3.75259 3.24618 4.08722 3.01745 4.45694 2.86132C4.82665 2.70519 5.22393 2.62483 5.62526 2.625H18.0003C18.2986 2.625 18.5848 2.74353 18.7958 2.95451C19.0067 3.16548 19.1253 3.45163 19.1253 3.75C19.1253 4.04837 19.0067 4.33452 18.7958 4.5455C18.5848 4.75647 18.2986 4.875 18.0003 4.875H5.62526C5.52469 4.87495 5.42513 4.89512 5.33251 4.93433C5.23989 4.97354 5.1561 5.03097 5.08613 5.10322C5.01615 5.17546 4.96143 5.26104 4.9252 5.35487C4.88898 5.4487 4.87199 5.54885 4.87526 5.64938V5.65688C4.89102 5.85546 4.98215 6.04048 5.12997 6.17401C5.2778 6.30754 5.47111 6.37946 5.67026 6.375H19.1253C19.9209 6.375 20.684 6.69107 21.2466 7.25368C21.8092 7.81629 22.1253 8.57935 22.1253 9.375ZM19.8753 9.375C19.8753 9.17609 19.7962 8.98532 19.6556 8.84467C19.5149 8.70402 19.3242 8.625 19.1253 8.625H5.67026C5.40204 8.62511 5.1349 8.59109 4.87526 8.52375V16.875C4.87526 17.0739 4.95428 17.2647 5.09493 17.4053C5.23559 17.546 5.42635 17.625 5.62526 17.625H19.1253C19.3242 17.625 19.5149 17.546 19.6556 17.4053C19.7962 17.2647 19.8753 17.0739 19.8753 16.875V9.375Z" fill="#130032"/>
</svg>
