<svg width="24" height="24" viewBox="0 0 24 24" fill="none" xmlns="http://www.w3.org/2000/svg">
<path d="M22.5 16.8745H22.125V5.73046L22.7353 5.60015C22.8818 5.57147 23.0212 5.51391 23.1453 5.43082C23.2693 5.34773 23.3756 5.24078 23.4579 5.1162C23.5402 4.99162 23.5969 4.8519 23.6246 4.70519C23.6524 4.55849 23.6506 4.40772 23.6195 4.26169C23.5884 4.11565 23.5286 3.97727 23.4434 3.85461C23.3583 3.73196 23.2496 3.62747 23.1236 3.54725C22.9977 3.46703 22.8571 3.41268 22.7099 3.38737C22.5628 3.36206 22.4121 3.3663 22.2666 3.39983L1.26656 7.89983C0.995421 7.95833 0.755451 8.11494 0.592735 8.33959C0.430019 8.56423 0.35603 8.84106 0.384977 9.11693C0.413924 9.3928 0.543766 9.64824 0.749567 9.83422C0.955369 10.0202 1.22262 10.1236 1.5 10.1245C1.5797 10.1247 1.65919 10.1165 1.73719 10.1001L1.87594 10.0701V16.8745H1.5C1.20163 16.8745 0.915483 16.993 0.704505 17.204C0.493526 17.415 0.375 17.7012 0.375 17.9995C0.375 18.2979 0.493526 18.584 0.704505 18.795C0.915483 19.006 1.20163 19.1245 1.5 19.1245H22.5C22.7984 19.1245 23.0845 19.006 23.2955 18.795C23.5065 18.584 23.625 18.2979 23.625 17.9995C23.625 17.7012 23.5065 17.415 23.2955 17.204C23.0845 16.993 22.7984 16.8745 22.5 16.8745ZM4.125 9.58733L19.875 6.21233V16.8745H18V11.2495C18 10.9512 17.8815 10.665 17.6705 10.454C17.4595 10.243 17.1734 10.1245 16.875 10.1245H7.125C6.82663 10.1245 6.54048 10.243 6.3295 10.454C6.11853 10.665 6 10.9512 6 11.2495V16.8745H4.125V9.58733ZM15.75 13.4995H8.25V12.3745H15.75V13.4995ZM8.25 15.7495H15.75V16.8745H8.25V15.7495Z" fill="#130032"/>
</svg>
