<svg width="24" height="24" viewBox="0 0 24 24" fill="none" xmlns="http://www.w3.org/2000/svg">
<path d="M22.5246 17.4472L14.3262 3.20935C14.0887 2.80323 13.7491 2.46637 13.341 2.23227C12.9329 1.99818 12.4707 1.875 12.0003 1.875C11.5298 1.875 11.0676 1.99818 10.6595 2.23227C10.2514 2.46637 9.91178 2.80323 9.67432 3.20935L1.47588 17.4472C1.24546 17.8413 1.12402 18.2896 1.12402 18.7461C1.12402 19.2026 1.24546 19.6509 1.47588 20.045C1.71071 20.4531 2.0499 20.7914 2.45864 21.0252C2.86739 21.259 3.33096 21.3798 3.80182 21.3753H20.1987C20.6692 21.3795 21.1324 21.2585 21.5408 21.0247C21.9492 20.791 22.2881 20.4528 22.5228 20.045C22.7535 19.651 22.8752 19.2028 22.8755 18.7463C22.8759 18.2898 22.7548 17.8414 22.5246 17.4472ZM20.5746 18.919C20.5365 18.984 20.4815 19.0375 20.4155 19.0738C20.3495 19.1101 20.2749 19.1279 20.1996 19.1253H3.80182C3.72653 19.1279 3.65194 19.1101 3.58593 19.0738C3.51992 19.0375 3.46495 18.984 3.42682 18.919C3.39448 18.8664 3.37735 18.8059 3.37735 18.7442C3.37735 18.6825 3.39448 18.6219 3.42682 18.5693L11.6253 4.33154C11.6659 4.26905 11.7214 4.21769 11.7869 4.18214C11.8524 4.14659 11.9257 4.12797 12.0003 4.12797C12.0748 4.12797 12.1481 4.14659 12.2136 4.18214C12.2791 4.21769 12.3347 4.26905 12.3753 4.33154L20.5728 18.5693C20.6054 18.6218 20.6228 18.6822 20.6232 18.7439C20.6235 18.8057 20.6067 18.8663 20.5746 18.919ZM10.8753 12.7503V9.75029C10.8753 9.45192 10.9938 9.16577 11.2048 8.95479C11.4157 8.74381 11.7019 8.62529 12.0003 8.62529C12.2986 8.62529 12.5848 8.74381 12.7958 8.95479C13.0067 9.16577 13.1253 9.45192 13.1253 9.75029V12.7503C13.1253 13.0487 13.0067 13.3348 12.7958 13.5458C12.5848 13.7568 12.2986 13.8753 12.0003 13.8753C11.7019 13.8753 11.4157 13.7568 11.2048 13.5458C10.9938 13.3348 10.8753 13.0487 10.8753 12.7503ZM13.5003 16.5003C13.5003 16.797 13.4123 17.087 13.2475 17.3336C13.0826 17.5803 12.8484 17.7726 12.5743 17.8861C12.3002 17.9996 11.9986 18.0293 11.7076 17.9715C11.4166 17.9136 11.1494 17.7707 10.9396 17.5609C10.7298 17.3512 10.587 17.0839 10.5291 16.7929C10.4712 16.5019 10.5009 16.2003 10.6144 15.9263C10.728 15.6522 10.9202 15.4179 11.1669 15.2531C11.4136 15.0883 11.7036 15.0003 12.0003 15.0003C12.3981 15.0003 12.7796 15.1583 13.0609 15.4396C13.3422 15.7209 13.5003 16.1025 13.5003 16.5003Z" fill="#130032"/>
</svg>
