<svg width="24" height="24" viewBox="0 0 24 24" fill="none" xmlns="http://www.w3.org/2000/svg">
<path d="M10.875 12.375V7.50001C10.875 7.20164 10.9935 6.91549 11.2045 6.70451C11.4155 6.49353 11.7016 6.37501 12 6.37501C12.2984 6.37501 12.5845 6.49353 12.7955 6.70451C13.0065 6.91549 13.125 7.20164 13.125 7.50001V12.375C13.125 12.6734 13.0065 12.9595 12.7955 13.1705C12.5845 13.3815 12.2984 13.5 12 13.5C11.7016 13.5 11.4155 13.3815 11.2045 13.1705C10.9935 12.9595 10.875 12.6734 10.875 12.375ZM22.125 8.58282V15.4172C22.1257 15.6635 22.0775 15.9075 21.9832 16.1351C21.8889 16.3626 21.7503 16.5692 21.5756 16.7428L16.7428 21.5756C16.5692 21.7504 16.3626 21.8889 16.1351 21.9832C15.9075 22.0775 15.6635 22.1257 15.4172 22.125H8.58282C8.3365 22.1257 8.09248 22.0775 7.86493 21.9832C7.63737 21.8889 7.4308 21.7504 7.25719 21.5756L2.42438 16.7428C2.24968 16.5692 2.11116 16.3626 2.01686 16.1351C1.92255 15.9075 1.87434 15.6635 1.87501 15.4172V8.58282C1.87434 8.33651 1.92255 8.09251 2.01686 7.86496C2.11116 7.63741 2.24968 7.43083 2.42438 7.2572L7.25719 2.42438C7.4308 2.24963 7.63737 2.11109 7.86493 2.01679C8.09248 1.92248 8.3365 1.87429 8.58282 1.87501H15.4172C15.6635 1.87429 15.9075 1.92248 16.1351 2.01679C16.3626 2.11109 16.5692 2.24963 16.7428 2.42438L21.5756 7.2572C21.7503 7.43083 21.8889 7.63741 21.9832 7.86496C22.0775 8.09251 22.1257 8.33651 22.125 8.58282ZM19.875 8.73845L15.2616 4.12501H8.73845L4.12501 8.73845V15.2616L8.73845 19.875H15.2616L19.875 15.2616V8.73845ZM12 14.625C11.7033 14.625 11.4133 14.713 11.1667 14.8778C10.92 15.0426 10.7277 15.2769 10.6142 15.551C10.5007 15.8251 10.471 16.1267 10.5288 16.4176C10.5867 16.7086 10.7296 16.9759 10.9393 17.1857C11.1491 17.3954 11.4164 17.5383 11.7074 17.5962C11.9983 17.6541 12.2999 17.6244 12.574 17.5108C12.8481 17.3973 13.0824 17.205 13.2472 16.9584C13.412 16.7117 13.5 16.4217 13.5 16.125C13.5 15.7272 13.342 15.3457 13.0607 15.0643C12.7794 14.783 12.3978 14.625 12 14.625Z" fill="#130032"/>
</svg>
