<svg width="24" height="24" viewBox="0 0 24 24" fill="none" xmlns="http://www.w3.org/2000/svg">
<path d="M12.0001 6.37414C12.2984 6.37414 12.5846 6.49267 12.7956 6.70364C13.0065 6.91462 13.1251 7.20077 13.1251 7.49914V12.3741C13.1251 12.6725 13.0065 12.9587 12.7956 13.1696C12.5846 13.3806 12.2984 13.4991 12.0001 13.4991C11.7017 13.4991 11.4156 13.3806 11.2046 13.1696C10.9936 12.9587 10.8751 12.6725 10.8751 12.3741V7.49914C10.8751 7.20077 10.9936 6.91462 11.2046 6.70364C11.4156 6.49267 11.7017 6.37414 12.0001 6.37414ZM12.0001 14.6241C11.7034 14.6241 11.4134 14.7121 11.1667 14.8769C10.92 15.0418 10.7278 15.276 10.6143 15.5501C10.5007 15.8242 10.471 16.1258 10.5289 16.4168C10.5868 16.7077 10.7296 16.975 10.9394 17.1848C11.1492 17.3946 11.4165 17.5374 11.7074 17.5953C11.9984 17.6532 12.3 17.6235 12.5741 17.51C12.8482 17.3964 13.0825 17.2042 13.2473 16.9575C13.4121 16.7108 13.5001 16.4208 13.5001 16.1241C13.5001 15.7263 13.342 15.3448 13.0607 15.0635C12.7794 14.7822 12.3979 14.6241 12.0001 14.6241ZM22.8751 11.9991C22.8756 12.2449 22.8275 12.4882 22.7335 12.7153C22.6396 12.9423 22.5016 13.1485 22.3276 13.322L13.3276 22.3276C12.9762 22.6771 12.5008 22.8733 12.0052 22.8733C11.5097 22.8733 11.0342 22.6771 10.6829 22.3276L1.68289 13.322C1.3331 12.9706 1.13672 12.4949 1.13672 11.9991C1.13672 11.5033 1.3331 11.0277 1.68289 10.6763L10.6876 1.6707C11.0389 1.3212 11.5143 1.125 12.0099 1.125C12.5055 1.125 12.9809 1.3212 13.3323 1.6707L22.3379 10.6763C22.5101 10.8506 22.6461 11.0572 22.7383 11.2842C22.8305 11.5112 22.877 11.7541 22.8751 11.9991ZM20.4676 11.9991L12.0001 3.5307L3.53258 11.9991L12.0001 20.4676L20.4676 11.9991Z" fill="#130032"/>
</svg>
