<svg width="24" height="24" viewBox="0 0 24 24" fill="none" xmlns="http://www.w3.org/2000/svg">
<path d="M15 7.5C15 7.20333 15.088 6.91332 15.2528 6.66665C15.4176 6.41997 15.6519 6.22771 15.926 6.11418C16.2001 6.00065 16.5017 5.97094 16.7926 6.02882C17.0836 6.0867 17.3509 6.22956 17.5607 6.43934C17.7704 6.64912 17.9133 6.91639 17.9712 7.20736C18.0291 7.49834 17.9994 7.79994 17.8858 8.07403C17.7723 8.34811 17.58 8.58238 17.3334 8.7472C17.0867 8.91203 16.7967 9 16.5 9C16.1022 9 15.7206 8.84196 15.4393 8.56066C15.158 8.27936 15 7.89782 15 7.5ZM21.75 4.125V19.875C21.75 20.3723 21.5525 20.8492 21.2008 21.2008C20.8492 21.5525 20.3723 21.75 19.875 21.75H4.125C3.62772 21.75 3.15081 21.5525 2.79917 21.2008C2.44754 20.8492 2.25 20.3723 2.25 19.875V4.125C2.25 3.62772 2.44754 3.15081 2.79917 2.79917C3.15081 2.44754 3.62772 2.25 4.125 2.25H19.875C20.3723 2.25 20.8492 2.44754 21.2008 2.79917C21.5525 3.15081 21.75 3.62772 21.75 4.125ZM19.5 4.5H4.5V19.5H19.5V4.5ZM13.0791 11.5791L11.5791 13.0791C11.3677 13.2904 11.249 13.5771 11.249 13.8759C11.249 14.1748 11.3677 14.4615 11.5791 14.6728C11.7904 14.8842 12.0771 15.0029 12.3759 15.0029C12.6748 15.0029 12.9615 14.8842 13.1728 14.6728L14.6728 13.1728C14.8842 12.9615 15.0029 12.6748 15.0029 12.3759C15.0029 12.0771 14.8842 11.7904 14.6728 11.5791C14.4615 11.3677 14.1748 11.249 13.8759 11.249C13.5771 11.249 13.2904 11.3677 13.0791 11.5791ZM11.6728 10.0791C11.5683 9.97418 11.4441 9.89097 11.3074 9.83418C11.1706 9.7774 11.024 9.74818 10.8759 9.74818C10.7279 9.74818 10.5813 9.7774 10.4445 9.83418C10.3078 9.89097 10.1836 9.97418 10.0791 10.0791L9.32906 10.8291C9.11772 11.0404 8.99899 11.3271 8.99899 11.6259C8.99899 11.9248 9.11772 12.2115 9.32906 12.4228C9.54041 12.6342 9.82705 12.7529 10.1259 12.7529C10.4248 12.7529 10.7115 12.6342 10.9228 12.4228L11.6728 11.6728C11.7776 11.5682 11.8606 11.4439 11.9173 11.3071C11.9739 11.1703 12.0029 11.0236 12.0028 10.8755C12.0026 10.7275 11.9732 10.5809 11.9162 10.4442C11.8593 10.3075 11.7759 10.1835 11.6709 10.0791H11.6728ZM12 18.375C12.9204 18.3743 13.8298 18.1745 14.6657 17.7893C15.5015 17.404 16.2442 16.8425 16.8426 16.1431C17.441 15.4438 17.881 14.6233 18.1324 13.7379C18.3838 12.8525 18.4407 11.9232 18.2991 11.0138C18.2532 10.7189 18.092 10.4543 17.8511 10.2782C17.6101 10.1021 17.3091 10.029 17.0142 10.0748C16.7193 10.1207 16.4547 10.2819 16.2787 10.5228C16.1026 10.7638 16.0294 11.0648 16.0753 11.3597C16.2104 12.2198 16.0699 13.1006 15.6739 13.876C15.2778 14.6514 14.6466 15.2816 13.8706 15.6763C13.0946 16.0711 12.2136 16.2102 11.3537 16.0737C10.4938 15.9373 9.6991 15.5322 9.08345 14.9165C8.4678 14.3009 8.06274 13.5062 7.92626 12.6463C7.78979 11.7864 7.92889 10.9054 8.32366 10.1294C8.71843 9.35337 9.34863 8.72216 10.124 8.32614C10.8994 7.93012 11.7802 7.78959 12.6403 7.92469C12.9352 7.97056 13.2362 7.89741 13.4772 7.72133C13.7181 7.54526 13.8793 7.28067 13.9252 6.98578C13.971 6.69089 13.8979 6.38986 13.7218 6.14891C13.5457 5.90795 13.2811 5.74681 12.9862 5.70094C12.1183 5.56576 11.2318 5.61142 10.3823 5.83504C9.53283 6.05866 8.73874 6.45543 8.04985 7.00044C7.36096 7.54545 6.79213 8.22695 6.37906 9.00219C5.96599 9.77742 5.71759 10.6297 5.64944 11.5054C5.58129 12.3812 5.69487 13.2616 5.98304 14.0914C6.27121 14.9212 6.72776 15.6825 7.32405 16.3275C7.92034 16.9725 8.64349 17.4874 9.44815 17.8397C10.2528 18.192 11.1216 18.3743 12 18.375Z" fill="#130032"/>
</svg>
