<svg width="24" height="24" viewBox="0 0 24 24" fill="none" xmlns="http://www.w3.org/2000/svg">
<path d="M19.5004 12C19.5003 10.9188 19.2661 9.85044 18.8138 8.86841C18.3614 7.88639 17.7017 7.01399 16.8801 6.31125L16.2191 2.66531C16.1407 2.23312 15.9131 1.84217 15.5759 1.56066C15.2387 1.27916 14.8134 1.12497 14.3741 1.125H9.62663C9.18739 1.12497 8.76207 1.27916 8.42488 1.56066C8.08769 1.84217 7.86004 2.23312 7.78163 2.66531L7.12538 6.31125C6.30363 7.01394 5.64387 7.88631 5.1915 8.86835C4.73913 9.85039 4.50488 10.9188 4.50488 12C4.50488 13.0812 4.73913 14.1496 5.1915 15.1316C5.64387 16.1137 6.30363 16.9861 7.12538 17.6887L7.78163 21.3347C7.86004 21.7669 8.08769 22.1578 8.42488 22.4393C8.76207 22.7208 9.18739 22.875 9.62663 22.875H14.3741C14.8134 22.875 15.2387 22.7208 15.5759 22.4393C15.9131 22.1578 16.1407 21.7669 16.2191 21.3347L16.8801 17.6887C17.7017 16.986 18.3614 16.1136 18.8138 15.1316C19.2661 14.1496 19.5003 13.0812 19.5004 12ZM9.93788 3.375H14.0629L14.3348 4.875C12.8195 4.37753 11.185 4.37753 9.66976 4.875L9.93788 3.375ZM14.0629 20.625H9.93788L9.66601 19.125C11.1812 19.6225 12.8158 19.6225 14.331 19.125L14.0629 20.625ZM12.0004 17.25C10.962 17.25 9.947 16.9421 9.08364 16.3652C8.22028 15.7883 7.54738 14.9684 7.15002 14.0091C6.75266 13.0498 6.64869 11.9942 6.85126 10.9758C7.05383 9.95738 7.55385 9.02192 8.28807 8.28769C9.0223 7.55346 9.95776 7.05345 10.9762 6.85088C11.9946 6.6483 13.0502 6.75227 14.0095 7.14963C14.9688 7.54699 15.7887 8.2199 16.3656 9.08326C16.9425 9.94661 17.2504 10.9616 17.2504 12C17.2489 13.3919 16.6953 14.7264 15.7111 15.7107C14.7268 16.6949 13.3923 17.2485 12.0004 17.25ZM15.7504 12C15.7504 12.2984 15.6319 12.5845 15.4209 12.7955C15.2099 13.0065 14.9238 13.125 14.6254 13.125H12.0004C11.702 13.125 11.4159 13.0065 11.2049 12.7955C10.9939 12.5845 10.8754 12.2984 10.8754 12V9.375C10.8754 9.07663 10.9939 8.79048 11.2049 8.5795C11.4159 8.36853 11.702 8.25 12.0004 8.25C12.2988 8.25 12.5849 8.36853 12.7959 8.5795C13.0069 8.79048 13.1254 9.07663 13.1254 9.375V10.875H14.6254C14.9238 10.875 15.2099 10.9935 15.4209 11.2045C15.6319 11.4155 15.7504 11.7016 15.7504 12Z" fill="#130032"/>
</svg>
