<svg width="24" height="24" viewBox="0 0 24 24" fill="none" xmlns="http://www.w3.org/2000/svg">
<path d="M5.62479 8.99826V14.9983C5.62479 15.2966 5.50627 15.5828 5.29529 15.7938C5.08431 16.0047 4.79816 16.1233 4.49979 16.1233C4.20143 16.1233 3.91528 16.0047 3.7043 15.7938C3.49332 15.5828 3.37479 15.2966 3.37479 14.9983V8.99826C3.37479 8.6999 3.49332 8.41375 3.7043 8.20277C3.91528 7.99179 4.20143 7.87326 4.49979 7.87326C4.79816 7.87326 5.08431 7.99179 5.29529 8.20277C5.50627 8.41375 5.62479 8.6999 5.62479 8.99826ZM5.33229 2.9917C5.2335 2.88034 5.11358 2.78969 4.97949 2.72501C4.84541 2.66033 4.69982 2.6229 4.55116 2.61491C4.4025 2.60691 4.25373 2.6285 4.11348 2.67842C3.97323 2.72834 3.84428 2.8056 3.73411 2.90572C3.62393 3.00585 3.53473 3.12684 3.47166 3.26169C3.40859 3.39655 3.37292 3.54258 3.3667 3.69132C3.36049 3.84006 3.38386 3.98856 3.43546 4.1282C3.48706 4.26785 3.56586 4.39586 3.66729 4.50483L7.12479 8.30826V20.9983C7.12479 21.2966 7.24332 21.5828 7.4543 21.7938C7.66528 22.0047 7.95143 22.1233 8.24979 22.1233C8.54816 22.1233 8.83431 22.0047 9.04529 21.7938C9.25627 21.5828 9.37479 21.2966 9.37479 20.9983V10.7795L10.8748 12.4295V17.9983C10.8748 18.2966 10.9933 18.5828 11.2043 18.7938C11.4153 19.0047 11.7014 19.1233 11.9998 19.1233C12.2982 19.1233 12.5843 19.0047 12.7953 18.7938C13.0063 18.5828 13.1248 18.2966 13.1248 17.9983V14.9045L18.6673 20.9983C18.869 21.2149 19.148 21.3434 19.4438 21.3557C19.7395 21.3681 20.0283 21.2634 20.2473 21.0643C20.4664 20.8652 20.5982 20.5878 20.6141 20.2922C20.63 19.9966 20.5287 19.7066 20.3323 19.4851L5.33229 2.9917ZM11.9998 7.54889C12.2982 7.54889 12.5843 7.43036 12.7953 7.21938C13.0063 7.00841 13.1248 6.72226 13.1248 6.42389V5.99826C13.1248 5.6999 13.0063 5.41375 12.7953 5.20277C12.5843 4.99179 12.2982 4.87326 11.9998 4.87326C11.7014 4.87326 11.4153 4.99179 11.2043 5.20277C10.9933 5.41375 10.8748 5.6999 10.8748 5.99826V6.42389C10.8748 6.72226 10.9933 7.00841 11.2043 7.21938C11.4153 7.43036 11.7014 7.54889 11.9998 7.54889ZM15.7498 11.6739C16.0482 11.6739 16.3343 11.5554 16.5453 11.3444C16.7563 11.1334 16.8748 10.8473 16.8748 10.5489V8.99826C16.8748 8.6999 16.7563 8.41375 16.5453 8.20277C16.3343 7.99179 16.0482 7.87326 15.7498 7.87326C15.4514 7.87326 15.1653 7.99179 14.9543 8.20277C14.7433 8.41375 14.6248 8.6999 14.6248 8.99826V10.5489C14.6248 10.6966 14.6539 10.8429 14.7104 10.9794C14.767 11.1159 14.8498 11.2399 14.9543 11.3444C15.0588 11.4489 15.1828 11.5317 15.3193 11.5883C15.4558 11.6448 15.6021 11.6739 15.7498 11.6739ZM19.4998 6.37326C19.2014 6.37326 18.9153 6.49179 18.7043 6.70277C18.4933 6.91375 18.3748 7.1999 18.3748 7.49826V14.6739C18.3748 14.9723 18.4933 15.2584 18.7043 15.4694C18.9153 15.6804 19.2014 15.7989 19.4998 15.7989C19.7982 15.7989 20.0843 15.6804 20.2953 15.4694C20.5063 15.2584 20.6248 14.9723 20.6248 14.6739V7.49826C20.6248 7.1999 20.5063 6.91375 20.2953 6.70277C20.0843 6.49179 19.7982 6.37326 19.4998 6.37326Z" fill="#130032"/>
</svg>
