<svg width="24" height="24" viewBox="0 0 24 24" fill="none" xmlns="http://www.w3.org/2000/svg">
<path d="M22.875 12V17.25C22.875 17.5484 22.7565 17.8345 22.5455 18.0455C22.3345 18.2565 22.0484 18.375 21.75 18.375H12C11.7016 18.375 11.4155 18.2565 11.2045 18.0455C10.9935 17.8345 10.875 17.5484 10.875 17.25V7.875H3.375V12C3.375 12.2984 3.25647 12.5845 3.0455 12.7955C2.83452 13.0065 2.54837 13.125 2.25 13.125C1.95163 13.125 1.66548 13.0065 1.4545 12.7955C1.24353 12.5845 1.125 12.2984 1.125 12V6.75C1.125 6.45163 1.24353 6.16548 1.4545 5.9545C1.66548 5.74353 1.95163 5.625 2.25 5.625H12C12.2984 5.625 12.5845 5.74353 12.7955 5.9545C13.0065 6.16548 13.125 6.45163 13.125 6.75V16.125H20.625V12C20.625 11.7016 20.7435 11.4155 20.9545 11.2045C21.1655 10.9935 21.4516 10.875 21.75 10.875C22.0484 10.875 22.3345 10.9935 22.5455 11.2045C22.7565 11.4155 22.875 11.7016 22.875 12Z" fill="#130032"/>
</svg>
