<svg width="24" height="24" viewBox="0 0 24 24" fill="none" xmlns="http://www.w3.org/2000/svg">
<path d="M22.3397 12.9582L12.5897 18.9582C12.4193 19.0631 12.2239 19.1206 12.0238 19.1249C11.8237 19.1291 11.626 19.0798 11.4513 18.9822C11.2766 18.8846 11.131 18.7421 11.0297 18.5694C10.9284 18.3968 10.875 18.2002 10.8751 18.0001V8.01287L2.83974 12.9582C2.58563 13.1146 2.2798 13.1636 1.98953 13.0945C1.69926 13.0254 1.44832 12.8439 1.29193 12.5897C1.13553 12.3356 1.08649 12.0298 1.15558 11.7395C1.22468 11.4493 1.40625 11.1983 1.66036 11.0419L11.4104 5.04193C11.5808 4.93701 11.7762 4.87947 11.9763 4.87525C12.1765 4.87103 12.3741 4.92028 12.5488 5.01792C12.7236 5.11556 12.8691 5.25805 12.9704 5.4307C13.0717 5.60334 13.1251 5.79989 13.1251 6.00006V15.9872L21.1604 11.0419C21.2862 10.9645 21.426 10.9126 21.5719 10.8892C21.7178 10.8658 21.8668 10.8714 22.0106 10.9056C22.1543 10.9398 22.2899 11.002 22.4096 11.0886C22.5293 11.1752 22.6307 11.2845 22.7082 11.4104C22.7856 11.5362 22.8375 11.676 22.8609 11.8219C22.8843 11.9678 22.8787 12.1169 22.8445 12.2606C22.8103 12.4043 22.7481 12.5399 22.6615 12.6596C22.5749 12.7793 22.4656 12.8807 22.3397 12.9582Z" fill="#130032"/>
</svg>
