<svg width="24" height="24" viewBox="0 0 24 24" fill="none" xmlns="http://www.w3.org/2000/svg">
<path d="M22.768 12.4781C20.6118 17.0719 18.7368 19.125 16.6912 19.125C14.0999 19.125 12.5849 15.8963 10.9818 12.4781C10.3124 11.0419 9.6121 9.5625 8.89866 8.50594C8.28648 7.60219 7.7371 7.125 7.31242 7.125C6.95429 7.125 5.60242 7.51125 3.27273 12.4781C3.14592 12.7483 2.91699 12.957 2.6363 13.0583C2.49732 13.1085 2.34981 13.1308 2.2022 13.124C2.05459 13.1172 1.90977 13.0814 1.77601 13.0186C1.50586 12.8918 1.29715 12.6629 1.19579 12.3822C1.09444 12.1015 1.10873 11.792 1.23554 11.5219C3.39179 6.92813 5.26679 4.875 7.31242 4.875C9.90367 4.875 11.4187 8.10375 13.0218 11.5219C13.6959 12.9581 14.3915 14.4422 15.1049 15.4941C15.7171 16.3978 16.2665 16.875 16.6987 16.875C17.0568 16.875 18.4087 16.4888 20.7384 11.5219C20.8652 11.2517 21.0941 11.043 21.3748 10.9417C21.6555 10.8403 21.9649 10.8546 22.2351 10.9814C22.5052 11.1082 22.7139 11.3371 22.8153 11.6178C22.9166 11.8985 22.9023 12.208 22.7755 12.4781H22.768Z" fill="#130032"/>
</svg>
