<svg width="24" height="24" viewBox="0 0 24 24" fill="none" xmlns="http://www.w3.org/2000/svg">
<path d="M21.1164 16.3816C21.3066 16.6112 21.3978 16.907 21.3701 17.2039C21.3423 17.5009 21.1978 17.7746 20.9682 17.965C19.2648 19.3788 17.7245 19.8747 16.3267 19.8747C14.4742 19.8747 12.8711 19.0038 11.4629 18.2397C9.11356 16.9628 7.25731 15.955 4.46825 18.2678C4.2385 18.4583 3.94251 18.5497 3.64538 18.5219C3.34825 18.4941 3.07433 18.3494 2.88387 18.1197C2.69341 17.8899 2.60202 17.594 2.6298 17.2968C2.65758 16.9997 2.80225 16.7258 3.032 16.5353C6.99293 13.2541 10.0632 14.92 12.5373 16.2616C14.8867 17.5375 16.7429 18.5463 19.532 16.2334C19.6457 16.1391 19.777 16.0681 19.9181 16.0245C20.0593 15.9809 20.2077 15.9655 20.3549 15.9793C20.502 15.993 20.645 16.0356 20.7756 16.1047C20.9063 16.1737 21.0221 16.2678 21.1164 16.3816ZM19.532 10.9825C16.7429 13.2953 14.8867 12.2866 12.5373 11.0106C10.067 9.67 6.99293 8.00032 3.032 11.2844C2.80225 11.4748 2.65758 11.7488 2.6298 12.0459C2.61605 12.193 2.6314 12.3414 2.675 12.4826C2.71859 12.6238 2.78957 12.755 2.88387 12.8688C2.97818 12.9825 3.09397 13.0766 3.22463 13.1456C3.35529 13.2146 3.49826 13.2572 3.64538 13.271C3.94251 13.2987 4.2385 13.2073 4.46825 13.0169C7.25731 10.7041 9.11356 11.7119 11.4629 12.9888C12.8692 13.7528 14.4742 14.6238 16.3267 14.6238C17.7245 14.6238 19.2648 14.1278 20.9682 12.715C21.198 12.5245 21.3427 12.2506 21.3704 11.9535C21.3982 11.6564 21.3068 11.3604 21.1164 11.1306C20.9259 10.9009 20.652 10.7562 20.3549 10.7284C20.0577 10.7007 19.7617 10.792 19.532 10.9825ZM4.46825 7.76594C7.25731 5.45313 9.11356 6.46094 11.4629 7.73782C12.8692 8.50188 14.4742 9.37282 16.3267 9.37282C17.7245 9.37282 19.2648 8.87688 20.9682 7.46407C21.198 7.27361 21.3427 6.99969 21.3704 6.70256C21.3982 6.40543 21.3068 6.10944 21.1164 5.87969C20.9259 5.64995 20.652 5.50527 20.3549 5.4775C20.0577 5.44972 19.7617 5.54111 19.532 5.73157C16.7429 8.04438 14.8867 7.03657 12.5373 5.75969C10.067 4.41907 6.99293 2.74938 3.032 6.03438C2.91553 6.12779 2.81881 6.24344 2.7475 6.37461C2.67618 6.50577 2.63168 6.64982 2.6166 6.79835C2.60151 6.94688 2.61615 7.09694 2.65964 7.23976C2.70314 7.38258 2.77463 7.51532 2.86994 7.63023C2.96526 7.74514 3.08249 7.83994 3.21481 7.90908C3.34713 7.97823 3.4919 8.02034 3.64066 8.03297C3.78942 8.04561 3.93921 8.0285 4.0813 7.98265C4.22338 7.93681 4.35492 7.86314 4.46825 7.76594Z" fill="#130032"/>
</svg>
