<svg width="24" height="24" viewBox="0 0 24 24" fill="none" xmlns="http://www.w3.org/2000/svg">
<path d="M22.6623 12.658L17.7873 19.408C17.683 19.5524 17.5459 19.67 17.3874 19.7511C17.2288 19.8322 17.0532 19.8745 16.8751 19.8745C16.6969 19.8745 16.5214 19.8322 16.3628 19.7511C16.2042 19.67 16.0671 19.5524 15.9629 19.408L7.12506 7.17359L3.16225 12.658C3.07933 12.7857 2.97135 12.8952 2.84485 12.9799C2.71836 13.0647 2.57598 13.1228 2.42635 13.1509C2.27671 13.179 2.12293 13.1764 1.97431 13.1434C1.8257 13.1103 1.68534 13.0474 1.56175 12.9585C1.43816 12.8696 1.33391 12.7565 1.2553 12.6261C1.17669 12.4957 1.12536 12.3507 1.10443 12.1999C1.0835 12.0491 1.0934 11.8956 1.13352 11.7487C1.17365 11.6019 1.24317 11.4647 1.33788 11.3455L6.21287 4.59547C6.31713 4.45104 6.45419 4.33343 6.61277 4.25232C6.77136 4.1712 6.94694 4.12891 7.12506 4.12891C7.30319 4.12891 7.47877 4.1712 7.63735 4.25232C7.79594 4.33343 7.933 4.45104 8.03725 4.59547L16.8751 16.8298L20.8379 11.3455C20.9208 11.2178 21.0288 11.1083 21.1553 11.0235C21.2818 10.9388 21.4241 10.8806 21.5738 10.8525C21.7234 10.8244 21.8772 10.827 22.0258 10.8601C22.1744 10.8932 22.3148 10.9561 22.4384 11.045C22.562 11.1339 22.6662 11.247 22.7448 11.3773C22.8234 11.5077 22.8748 11.6527 22.8957 11.8035C22.9166 11.9543 22.9067 12.1078 22.8666 12.2547C22.8265 12.4016 22.757 12.5388 22.6623 12.658Z" fill="#130032"/>
</svg>
