<svg width="24" height="24" viewBox="0 0 24 24" fill="none" xmlns="http://www.w3.org/2000/svg">
<path d="M20.3325 19.493L5.3325 2.993C5.2337 2.88164 5.11379 2.79099 4.9797 2.72631C4.84561 2.66163 4.70002 2.6242 4.55136 2.61621C4.40271 2.60821 4.25394 2.6298 4.11369 2.67972C3.97344 2.72964 3.84448 2.8069 3.73431 2.90702C3.62414 3.00715 3.53493 3.12814 3.47187 3.26299C3.4088 3.39785 3.37312 3.54388 3.36691 3.69262C3.36069 3.84136 3.38406 3.98986 3.43566 4.1295C3.48726 4.26915 3.56606 4.39716 3.6675 4.50613L5.05594 6.03331C4.45897 7.14896 4.13962 8.39202 4.12493 9.65725C4.11024 10.9225 4.40064 12.1726 4.97154 13.3018C5.54244 14.431 6.37703 15.406 7.40465 16.1443C8.43227 16.8826 9.62265 17.3623 10.875 17.543V18.3746H3C2.70163 18.3746 2.41548 18.4931 2.2045 18.7041C1.99353 18.915 1.875 19.2012 1.875 19.4996C1.875 19.7979 1.99353 20.0841 2.2045 20.2951C2.41548 20.506 2.70163 20.6246 3 20.6246H18.3206L18.6675 21.0061C18.8692 21.2228 19.1482 21.3512 19.444 21.3636C19.7397 21.376 20.0285 21.2712 20.2475 21.0721C20.4666 20.873 20.5984 20.5956 20.6143 20.3C20.6302 20.0044 20.529 19.7145 20.3325 19.493ZM6.375 9.74956C6.37425 9.1012 6.4859 8.4576 6.705 7.84738L7.91531 9.17863C7.83367 9.76284 7.87827 10.3578 8.04611 10.9233C8.21396 11.4888 8.50114 12.0117 8.88828 12.4568C9.27542 12.9019 9.75351 13.2587 10.2903 13.5033C10.8271 13.7479 11.4101 13.8745 12 13.8746C12.06 13.8746 12.12 13.8746 12.18 13.8699L13.3894 15.2002C12.5589 15.4119 11.6911 15.431 10.8521 15.2561C10.0132 15.0812 9.22526 14.717 8.54856 14.1911C7.87185 13.6653 7.32424 12.9918 6.94755 12.222C6.57085 11.4522 6.37501 10.6066 6.375 9.74956ZM13.125 18.3746V17.543C13.7828 17.4481 14.4259 17.2708 15.0394 17.0152L16.275 18.3746H13.125ZM8.33344 3.96988C8.27582 3.83384 8.24556 3.68778 8.24439 3.54004C8.24321 3.39231 8.27115 3.24579 8.32661 3.10885C8.38206 2.97191 8.46394 2.84724 8.56758 2.74194C8.67122 2.63665 8.79458 2.5528 8.93062 2.49519C10.4336 1.85833 12.0973 1.70426 13.6917 2.05427C15.286 2.40428 16.7322 3.24108 17.8302 4.44892C18.9282 5.65677 19.6237 7.17596 19.8206 8.79637C20.0175 10.4168 19.7059 12.0583 18.9291 13.4939C18.8325 13.6724 18.6896 13.8214 18.5153 13.9252C18.341 14.029 18.1419 14.0837 17.9391 14.0836C17.7523 14.084 17.5685 14.0372 17.4047 13.9477C17.1424 13.8056 16.9473 13.5653 16.8622 13.2794C16.7772 12.9936 16.8091 12.6856 16.9509 12.4233C17.506 11.3978 17.7287 10.2251 17.5881 9.06744C17.4475 7.90982 16.9506 6.82451 16.1661 5.96169C15.3816 5.09886 14.3484 4.50117 13.2093 4.25132C12.0703 4.00147 10.8817 4.11181 9.80813 4.56706C9.67208 4.62468 9.52603 4.65494 9.37829 4.65612C9.23055 4.65729 9.08403 4.62935 8.9471 4.5739C8.81016 4.51844 8.68548 4.43656 8.58019 4.33292C8.4749 4.22928 8.39105 4.10592 8.33344 3.96988ZM16.125 9.71581C16.1262 9.86355 16.0984 10.0101 16.043 10.1471C15.9876 10.284 15.9057 10.4087 15.8021 10.5141C15.6985 10.6194 15.5752 10.7033 15.4392 10.761C15.3032 10.8186 15.1571 10.849 15.0094 10.8502H15C14.7031 10.8502 14.4182 10.7328 14.2075 10.5237C13.9967 10.3145 13.8772 10.0305 13.875 9.73363C13.8712 9.27243 13.6976 8.82881 13.3873 8.48757C13.077 8.14633 12.6519 7.93143 12.1931 7.88394C12.0434 7.87257 11.8975 7.83135 11.764 7.76272C11.6305 7.69409 11.5121 7.59943 11.4157 7.48431C11.3193 7.3692 11.247 7.23596 11.2029 7.09245C11.1588 6.94894 11.1439 6.79806 11.1591 6.6487C11.1742 6.49934 11.2191 6.35452 11.2911 6.22277C11.363 6.09103 11.4607 5.97502 11.5782 5.88159C11.6957 5.78816 11.8307 5.71919 11.9753 5.67875C12.1199 5.63831 12.2711 5.62722 12.42 5.64613C13.4308 5.74788 14.3684 6.21977 15.0523 6.97103C15.7363 7.72229 16.1183 8.69988 16.125 9.71581Z" fill="#130032"/>
</svg>
