<svg width="24" height="24" viewBox="0 0 24 24" fill="none" xmlns="http://www.w3.org/2000/svg">
<path d="M15.75 9.75079C15.75 9.00911 15.5301 8.28409 15.118 7.6674C14.706 7.05072 14.1203 6.57007 13.4351 6.28624C12.7498 6.00241 11.9958 5.92815 11.2684 6.07285C10.541 6.21754 9.8728 6.57469 9.34835 7.09914C8.8239 7.62359 8.46675 8.29177 8.32205 9.0192C8.17736 9.74663 8.25162 10.5006 8.53545 11.1859C8.81928 11.8711 9.29993 12.4567 9.91661 12.8688C10.5333 13.2809 11.2583 13.5008 12 13.5008C12.9946 13.5008 13.9484 13.1057 14.6517 12.4024C15.3549 11.6992 15.75 10.7454 15.75 9.75079ZM10.5 9.75079C10.5 9.45412 10.588 9.16411 10.7528 8.91744C10.9176 8.67076 11.1519 8.4785 11.426 8.36497C11.7001 8.25144 12.0017 8.22174 12.2926 8.27961C12.5836 8.33749 12.8509 8.48035 13.0607 8.69013C13.2704 8.89991 13.4133 9.16718 13.4712 9.45816C13.5291 9.74913 13.4994 10.0507 13.3858 10.3248C13.2723 10.5989 13.08 10.8332 12.8334 10.998C12.5867 11.1628 12.2967 11.2508 12 11.2508C11.6022 11.2508 11.2206 11.0928 10.9393 10.8115C10.658 10.5301 10.5 10.1486 10.5 9.75079ZM21 18.3758H13.125V17.5442C15.0955 17.2598 16.8852 16.2396 18.1338 14.6888C19.3825 13.138 19.9974 11.1719 19.8548 9.18605C19.7122 7.20021 18.8227 5.34207 17.3654 3.9856C15.908 2.62912 13.991 1.875 12 1.875C10.009 1.875 8.09198 2.62912 6.63462 3.9856C5.17727 5.34207 4.2878 7.20021 4.14522 9.18605C4.00264 11.1719 4.61754 13.138 5.86617 14.6888C7.11479 16.2396 8.90446 17.2598 10.875 17.5442V18.3758H3C2.70163 18.3758 2.41548 18.4943 2.2045 18.7053C1.99353 18.9163 1.875 19.2024 1.875 19.5008C1.875 19.7992 1.99353 20.0853 2.2045 20.2963C2.41548 20.5073 2.70163 20.6258 3 20.6258H21C21.2984 20.6258 21.5845 20.5073 21.7955 20.2963C22.0065 20.0853 22.125 19.7992 22.125 19.5008C22.125 19.2024 22.0065 18.9163 21.7955 18.7053C21.5845 18.4943 21.2984 18.3758 21 18.3758ZM6.375 9.75079C6.375 8.63827 6.7049 7.55073 7.32298 6.62571C7.94107 5.70068 8.81957 4.97971 9.84741 4.55397C10.8752 4.12823 12.0062 4.01683 13.0974 4.23387C14.1885 4.45092 15.1908 4.98664 15.9775 5.77332C16.7641 6.55999 17.2999 7.56226 17.5169 8.65341C17.734 9.74455 17.6226 10.8756 17.1968 11.9034C16.7711 12.9312 16.0501 13.8097 15.1251 14.4278C14.2001 15.0459 13.1125 15.3758 12 15.3758C10.5087 15.3741 9.07896 14.7809 8.02444 13.7263C6.96993 12.6718 6.37674 11.2421 6.375 9.75079Z" fill="#130032"/>
</svg>
