<svg width="24" height="24" viewBox="0 0 24 24" fill="none" xmlns="http://www.w3.org/2000/svg">
<path d="M17.9998 16.8739H11.1288C10.9681 17.6017 10.6542 18.2869 10.208 18.884C9.76183 19.4811 9.19365 19.9763 8.54124 20.3368C7.88883 20.6972 7.16715 20.9146 6.4242 20.9745C5.68126 21.0343 4.93408 20.9353 4.23237 20.684C3.53065 20.4327 2.89049 20.0349 2.35447 19.517C1.81845 18.9991 1.39885 18.373 1.12358 17.6803C0.848314 16.9876 0.723694 16.2443 0.758008 15.4997C0.792322 14.7552 0.984785 14.0264 1.32259 13.362C1.38878 13.2287 1.48076 13.1099 1.5932 13.0124C1.70565 12.9149 1.83632 12.8407 1.97765 12.794C2.11899 12.7474 2.26817 12.7292 2.41656 12.7407C2.56495 12.7521 2.7096 12.7928 2.84213 12.8606C2.97466 12.9283 3.09243 13.0216 3.18863 13.1352C3.28483 13.2488 3.35754 13.3803 3.40254 13.5221C3.44755 13.664 3.46396 13.8134 3.45083 13.9616C3.4377 14.1099 3.39528 14.254 3.32603 14.3858C3.10995 14.8076 2.99808 15.275 2.99978 15.7489C2.99978 16.5446 3.31585 17.3076 3.87846 17.8702C4.44107 18.4328 5.20413 18.7489 5.99978 18.7489C6.79543 18.7489 7.55849 18.4328 8.1211 17.8702C8.68371 17.3076 8.99978 16.5446 8.99978 15.7489C8.99978 15.4505 9.11831 15.1644 9.32928 14.9534C9.54026 14.7424 9.82641 14.6239 10.1248 14.6239H17.9998C18.2981 14.6239 18.5843 14.7424 18.7953 14.9534C19.0063 15.1644 19.1248 15.4505 19.1248 15.7489C19.1248 16.0473 19.0063 16.3334 18.7953 16.5444C18.5843 16.7554 18.2981 16.8739 17.9998 16.8739ZM17.9998 10.4989C17.4109 10.4985 16.8261 10.5974 16.2701 10.7914L12.9579 5.40922C12.8805 5.2834 12.779 5.17406 12.6593 5.08745C12.5396 5.00084 12.404 4.93865 12.2603 4.90444C11.97 4.83534 11.6642 4.88439 11.4101 5.04078C11.2843 5.11822 11.1749 5.21968 11.0883 5.33938C11.0017 5.45907 10.9395 5.59465 10.9053 5.73838C10.8362 6.02865 10.8853 6.33448 11.0417 6.58859L14.8798 12.8248C14.9572 12.9508 15.0587 13.0603 15.1785 13.1469C15.2983 13.2336 15.4339 13.2959 15.5778 13.3301C15.7216 13.3643 15.8708 13.3698 16.0168 13.3464C16.1628 13.3229 16.3027 13.2709 16.4285 13.1933C16.8137 12.9566 17.2473 12.8101 17.697 12.7645C18.1468 12.719 18.601 12.7757 19.0257 12.9304C19.4505 13.0851 19.8348 13.3338 20.1499 13.6578C20.465 13.9819 20.7029 14.373 20.8456 14.8019C20.9884 15.2308 21.0323 15.6864 20.9743 16.1347C20.9162 16.583 20.7576 17.0124 20.5102 17.3907C20.2629 17.7691 19.9333 18.0867 19.546 18.3198C19.1586 18.5528 18.7237 18.6954 18.2735 18.7367C17.9854 18.7631 17.7185 18.8995 17.5283 19.1176C17.3381 19.3357 17.2392 19.6186 17.2523 19.9077C17.2653 20.1968 17.3892 20.4697 17.5983 20.6698C17.8073 20.8699 18.0854 20.9817 18.3748 20.982C18.4088 20.9839 18.4429 20.9839 18.477 20.982C19.8343 20.8741 21.0966 20.243 21.9975 19.2221C22.8983 18.2011 23.3673 16.87 23.3054 15.5098C23.2435 14.1496 22.6555 12.8667 21.6656 11.9318C20.6757 10.9968 19.3613 10.4831 17.9998 10.4989ZM5.41009 16.707C5.53591 16.7845 5.67576 16.8364 5.82164 16.8598C5.96752 16.8832 6.11658 16.8776 6.26031 16.8434C6.40404 16.8092 6.53962 16.747 6.65932 16.6604C6.77901 16.5738 6.88047 16.4644 6.9579 16.3386L10.796 10.1023C10.9525 9.84835 11.0017 9.5426 10.9328 9.25234C10.8639 8.96207 10.6825 8.71107 10.4285 8.55453C10.0342 8.31169 9.70149 7.98087 9.45638 7.58797C9.21128 7.19506 9.06046 6.75075 9.01573 6.28983C8.97101 5.82891 9.0336 5.36389 9.1986 4.9312C9.36359 4.4985 9.62652 4.10988 9.96679 3.79577C10.3071 3.48165 10.7154 3.25057 11.1599 3.12063C11.6044 2.99069 12.0729 2.96541 12.5288 3.04677C12.9847 3.12813 13.4155 3.31392 13.7876 3.5896C14.1597 3.86528 14.4629 4.22335 14.6735 4.63578C14.7397 4.76908 14.8317 4.88793 14.9441 4.98543C15.0566 5.08293 15.1873 5.15715 15.3286 5.20379C15.4699 5.25043 15.6191 5.26857 15.7675 5.25715C15.9159 5.24573 16.0605 5.20497 16.1931 5.13725C16.3256 5.06953 16.4434 4.97618 16.5396 4.86262C16.6358 4.74906 16.7085 4.61754 16.7535 4.47568C16.7985 4.33382 16.8149 4.18444 16.8018 4.03619C16.7886 3.88794 16.7462 3.74377 16.677 3.61203C16.3293 2.93413 15.8383 2.34003 15.238 1.87095C14.6376 1.40187 13.9424 1.06907 13.2006 0.895646C12.4587 0.722221 11.688 0.71233 10.942 0.866659C10.1959 1.02099 9.4924 1.33584 8.88025 1.78936C8.26809 2.24287 7.76197 2.82418 7.39703 3.49293C7.03208 4.16169 6.81706 4.90185 6.76689 5.66204C6.71671 6.42224 6.83258 7.18424 7.10646 7.89516C7.38034 8.60607 7.80567 9.24887 8.3529 9.77891L5.04165 15.1592C4.96421 15.285 4.91231 15.4249 4.88891 15.5708C4.86551 15.7166 4.87108 15.8657 4.90529 16.0094C4.9395 16.1532 5.00169 16.2887 5.08831 16.4084C5.17492 16.5281 5.28426 16.6296 5.41009 16.707Z" fill="#130032"/>
</svg>
