<svg width="24" height="24" viewBox="0 0 24 24" fill="none" xmlns="http://www.w3.org/2000/svg">
<path d="M17.5589 14.912C17.4044 15.6764 16.9907 16.3639 16.3877 16.8583C15.7846 17.3526 15.0293 17.6235 14.2496 17.6252C12.1617 17.6229 10.1599 16.7925 8.68356 15.3162C7.2072 13.8398 6.37679 11.8381 6.37456 9.75016C6.37617 8.97038 6.64709 8.21509 7.14147 7.61206C7.63585 7.00903 8.32336 6.59527 9.08769 6.44079C9.32931 6.39297 9.57995 6.42578 9.80113 6.53417C10.0223 6.64255 10.2018 6.82053 10.3121 7.04079L11.3883 9.19704C11.4766 9.37417 11.5166 9.57145 11.5042 9.76898C11.4919 9.9665 11.4276 10.1573 11.318 10.322L10.5192 11.5202C10.9305 12.3777 11.622 13.0692 12.4796 13.4805L13.6777 12.6817C13.8424 12.5721 14.0332 12.5079 14.2307 12.4955C14.4283 12.4832 14.6256 12.5231 14.8027 12.6114L16.9589 13.6877C17.1792 13.7979 17.3572 13.9774 17.4656 14.1986C17.5739 14.4198 17.6067 14.6704 17.5589 14.912ZM22.1246 12.0002C22.1249 13.7345 21.6798 15.4399 20.8318 16.9528C19.9838 18.4657 18.7614 19.7354 17.2818 20.6402C15.8022 21.545 14.115 22.0546 12.3819 22.1201C10.6488 22.1856 8.92792 21.8048 7.38425 21.0142L4.34394 22.0314C4.01296 22.143 3.65741 22.1598 3.31736 22.0802C2.9773 22.0005 2.66626 21.8274 2.41929 21.5804C2.17232 21.3335 1.99925 21.0224 1.91956 20.6824C1.83988 20.3423 1.85677 19.9868 1.96831 19.6558L2.98175 16.6155C2.28583 15.2523 1.90801 13.7491 1.87669 12.2189C1.84537 10.6887 2.16136 9.17134 2.80091 7.78084C3.44046 6.39035 4.38692 5.16294 5.56914 4.1909C6.75135 3.21886 8.13855 2.52749 9.62644 2.16876C11.1143 1.81003 12.6642 1.79328 14.1595 2.11978C15.6548 2.44628 17.0566 3.10752 18.2595 4.05379C19.4625 5.00006 20.4352 6.20673 21.1047 7.58308C21.7741 8.95943 22.1228 10.4696 22.1246 12.0002ZM19.8746 12.0002C19.8741 10.7922 19.5958 9.6006 19.0611 8.51745C18.5264 7.43429 17.7498 6.48865 16.7912 5.75368C15.8326 5.01871 14.7178 4.5141 13.5329 4.2789C12.3481 4.0437 11.1251 4.0842 9.95845 4.39728C8.7918 4.71037 7.71281 5.28763 6.80494 6.08442C5.89708 6.88121 5.18468 7.87617 4.72286 8.99233C4.26103 10.1085 4.06216 11.3159 4.14162 12.5212C4.22109 13.7265 4.57676 14.8974 5.18112 15.9433C5.261 16.0812 5.31067 16.2345 5.32683 16.3931C5.34299 16.5516 5.32528 16.7118 5.27487 16.863L4.34394 19.6558L7.13675 18.7248C7.25163 18.6866 7.37191 18.667 7.493 18.6667C7.69058 18.6671 7.88459 18.7195 8.0555 18.8186C9.25271 19.5113 10.6113 19.8765 11.9944 19.8774C13.3776 19.8783 14.7367 19.5149 15.9348 18.8237C17.1329 18.1325 18.1278 17.138 18.8194 15.9401C19.511 14.7422 19.875 13.3833 19.8746 12.0002Z" fill="#130032"/>
</svg>
