<svg width="24" height="24" viewBox="0 0 24 24" fill="none" xmlns="http://www.w3.org/2000/svg">
<path d="M23.9194 17.5821C23.8085 17.3051 23.5921 17.0835 23.3178 16.9661C23.0436 16.8486 22.7339 16.8449 22.4569 16.9558L21.5428 17.3214L19.006 12.2467C18.9125 12.06 18.7689 11.9029 18.5912 11.7931C18.4136 11.6834 18.2089 11.6252 18 11.6252H10.875V10.1252H15.75C16.0484 10.1252 16.3345 10.0067 16.5455 9.79568C16.7565 9.5847 16.875 9.29855 16.875 9.00018C16.875 8.70181 16.7565 8.41567 16.5455 8.20469C16.3345 7.99371 16.0484 7.87518 15.75 7.87518H10.875V7.29487C11.5732 7.03151 12.1569 6.53154 12.5243 5.88208C12.8917 5.23261 13.0197 4.47482 12.8858 3.74073C12.752 3.00663 12.3648 2.34276 11.7918 1.86478C11.2188 1.3868 10.4962 1.125 9.75002 1.125C9.00382 1.125 8.28127 1.3868 7.70826 1.86478C7.13524 2.34276 6.74808 3.00663 6.61423 3.74073C6.48037 4.47482 6.60831 5.23261 6.97575 5.88208C7.34319 6.53154 7.92685 7.03151 8.62502 7.29487V8.12737C7.47542 8.44112 6.42287 9.0382 5.56371 9.86395C4.70455 10.6897 4.06622 11.7178 3.70714 12.854C3.34807 13.9903 3.27971 15.1985 3.50834 16.368C3.73697 17.5375 4.25527 18.631 5.01582 19.5484C5.77636 20.4657 6.75485 21.1777 7.86173 21.6191C8.96861 22.0605 10.1685 22.2173 11.3516 22.075C12.5348 21.9327 13.6633 21.496 14.634 20.8048C15.6047 20.1135 16.3865 19.1898 16.9078 18.1183C16.9745 17.9853 17.014 17.8404 17.0243 17.6921C17.0345 17.5437 17.0153 17.3947 16.9676 17.2538C16.9199 17.1129 16.8448 16.9829 16.7465 16.8712C16.6482 16.7596 16.5288 16.6685 16.3951 16.6033C16.2614 16.5381 16.1161 16.5001 15.9677 16.4914C15.8192 16.4827 15.6704 16.5035 15.5301 16.5527C15.3897 16.6019 15.2604 16.6784 15.1498 16.7779C15.0392 16.8773 14.9494 16.9977 14.8856 17.1321C14.5406 17.8414 14.0285 18.4564 13.3935 18.9242C12.7584 19.3921 12.0193 19.6989 11.2396 19.8183C10.4599 19.9376 9.66288 19.866 8.91694 19.6096C8.17099 19.3531 7.49842 18.9195 6.95694 18.3459C6.41546 17.7723 6.02126 17.0759 5.80816 16.3164C5.59505 15.557 5.56942 14.7571 5.73346 13.9856C5.8975 13.214 6.24631 12.4938 6.74996 11.8867C7.2536 11.2797 7.89703 10.8039 8.62502 10.5002V12.7502C8.62502 13.0486 8.74355 13.3347 8.95453 13.5457C9.16551 13.7567 9.45166 13.8752 9.75002 13.8752H17.3044L19.9931 19.2536C20.1194 19.5059 20.3359 19.7016 20.5997 19.8018C20.8635 19.902 21.1553 19.8994 21.4172 19.7946L23.2922 19.0446C23.4294 18.9897 23.5545 18.9084 23.6603 18.8052C23.7661 18.7021 23.8505 18.5791 23.9088 18.4432C23.967 18.3074 23.9979 18.1615 23.9998 18.0137C24.0016 17.8659 23.9743 17.7193 23.9194 17.5821ZM9.75002 3.37518C9.93544 3.37518 10.1167 3.43017 10.2709 3.53318C10.425 3.63619 10.5452 3.78261 10.6162 3.95392C10.6871 4.12522 10.7057 4.31372 10.6695 4.49558C10.6333 4.67744 10.544 4.84448 10.4129 4.9756C10.2818 5.10671 10.1148 5.196 9.93292 5.23217C9.75106 5.26834 9.56256 5.24978 9.39126 5.17882C9.21995 5.10786 9.07354 4.9877 8.97052 4.83353C8.86751 4.67936 8.81252 4.4981 8.81252 4.31268C8.81252 4.06404 8.9113 3.82559 9.08711 3.64977C9.26293 3.47395 9.50138 3.37518 9.75002 3.37518Z" fill="#130032"/>
</svg>
