<svg width="24" height="24" viewBox="0 0 24 24" fill="none" xmlns="http://www.w3.org/2000/svg">
<path d="M16.5004 7.875C17.1679 7.875 17.8204 7.67706 18.3754 7.30621C18.9304 6.93536 19.363 6.40826 19.6185 5.79156C19.8739 5.17486 19.9407 4.49626 19.8105 3.84157C19.6803 3.18689 19.3588 2.58552 18.8868 2.11352C18.4148 1.64151 17.8135 1.32008 17.1588 1.18985C16.5041 1.05963 15.8255 1.12646 15.2088 1.38191C14.5921 1.63735 14.065 2.06994 13.6941 2.62495C13.3233 3.17997 13.1254 3.83249 13.1254 4.5C13.1254 5.39511 13.4809 6.25355 14.1139 6.88649C14.7468 7.51942 15.6053 7.875 16.5004 7.875ZM16.5004 3.375C16.7229 3.375 16.9404 3.44098 17.1254 3.5646C17.3104 3.68822 17.4546 3.86392 17.5397 4.06948C17.6249 4.27505 17.6472 4.50125 17.6037 4.71948C17.5603 4.93771 17.4532 5.13816 17.2959 5.2955C17.1385 5.45283 16.9381 5.55998 16.7198 5.60338C16.5016 5.64679 16.2754 5.62451 16.0698 5.53937C15.8643 5.45422 15.6886 5.31002 15.565 5.12502C15.4413 4.94001 15.3754 4.72251 15.3754 4.5C15.3754 4.20163 15.4939 3.91548 15.7049 3.70451C15.9158 3.49353 16.202 3.375 16.5004 3.375ZM19.2454 12.4116C19.3515 12.5407 19.4275 12.6918 19.4678 12.854C19.5082 13.0161 19.512 13.1853 19.4788 13.3491L17.9788 20.8491C17.9271 21.1035 17.789 21.3322 17.5878 21.4964C17.3867 21.6606 17.135 21.7502 16.8754 21.75C16.8011 21.7502 16.727 21.743 16.6541 21.7284C16.5092 21.6995 16.3714 21.6424 16.2486 21.5602C16.1257 21.478 16.0203 21.3724 15.9383 21.2495C15.8563 21.1266 15.7993 20.9887 15.7706 20.8437C15.7419 20.6988 15.742 20.5496 15.771 20.4047L17.0029 14.25H11.6254C11.4278 14.2501 11.2337 14.1982 11.0626 14.0996C10.8915 14.0009 10.7494 13.8589 10.6505 13.6878C10.5517 13.5168 10.4997 13.3227 10.4996 13.1252C10.4996 12.9276 10.5516 12.7336 10.6504 12.5625L12.3304 9.6375C11.1146 9.08498 9.76824 8.88476 8.44435 9.05961C7.12045 9.23446 5.8722 9.77736 4.84161 10.6266C4.61054 10.8049 4.31922 10.8864 4.02917 10.8539C3.73911 10.8215 3.47302 10.6776 3.2871 10.4526C3.10117 10.2276 3.00996 9.93916 3.03273 9.64818C3.05549 9.3572 3.19045 9.08646 3.40911 8.89313C4.94877 7.62274 6.85372 6.87694 8.84664 6.7643C10.8396 6.65167 12.8164 7.17807 14.4894 8.26688C14.7294 8.42381 14.9004 8.66646 14.9675 8.94526C15.0346 9.22405 14.9927 9.51794 14.8504 9.76688L13.5697 12H18.3754C18.5418 12 18.7061 12.0369 18.8566 12.1081C19.007 12.1792 19.1398 12.2829 19.2454 12.4116ZM15.3575 16.5853C15.2709 17.7097 14.8691 18.7868 14.1983 19.6933C13.5274 20.5998 12.6147 21.2989 11.5648 21.7104C10.5149 22.1219 9.37021 22.2292 8.2621 22.02C7.15398 21.8107 6.12726 21.2935 5.29966 20.5274C4.47206 19.7614 3.87709 18.7777 3.58297 17.689C3.28884 16.6004 3.30748 15.4508 3.63674 14.3723C3.96599 13.2937 4.59254 12.3298 5.44454 11.591C6.29653 10.8522 7.33948 10.3685 8.4538 10.1953C8.74868 10.1498 9.04957 10.2233 9.29026 10.3997C9.53095 10.576 9.69173 10.8407 9.73723 11.1356C9.78273 11.4305 9.70923 11.7314 9.53289 11.9721C9.35654 12.2128 9.09181 12.3736 8.79692 12.4191C8.10075 12.5278 7.44928 12.8304 6.91718 13.2923C6.38508 13.7541 5.99387 14.3566 5.78839 15.0306C5.5829 15.7045 5.57146 16.4228 5.75537 17.103C5.93927 17.7831 6.31109 18.3977 6.82821 18.8763C7.34532 19.3549 7.98682 19.6782 8.67917 19.809C9.37153 19.9398 10.0867 19.8729 10.7428 19.616C11.3989 19.359 11.9693 18.9225 12.3887 18.3563C12.8081 17.7901 13.0595 17.1172 13.1141 16.4147C13.1241 16.2665 13.1633 16.1217 13.2296 15.9887C13.2958 15.8558 13.3877 15.7372 13.5 15.64C13.6123 15.5427 13.7427 15.4687 13.8838 15.4221C14.0249 15.3755 14.1738 15.3573 14.3219 15.3686C14.47 15.3798 14.6144 15.4203 14.7468 15.4877C14.8792 15.5551 14.997 15.648 15.0932 15.7611C15.1895 15.8743 15.2625 16.0053 15.3078 16.1468C15.3532 16.2883 15.3701 16.4373 15.3575 16.5853Z" fill="#130032"/>
</svg>
