<svg width="24" height="24" viewBox="0 0 24 24" fill="none" xmlns="http://www.w3.org/2000/svg">
<path d="M20.3322 19.4917C20.4336 19.6007 20.5124 19.7287 20.564 19.8683C20.6156 20.008 20.639 20.1565 20.6328 20.3052C20.6266 20.454 20.5909 20.6 20.5278 20.7348C20.4648 20.8697 20.3756 20.9907 20.2654 21.0908C20.1552 21.1909 20.0263 21.2682 19.886 21.3181C19.7458 21.368 19.597 21.3896 19.4483 21.3816C19.2997 21.3736 19.1541 21.3362 19.02 21.2715C18.8859 21.2068 18.766 21.1162 18.6672 21.0048L13.8541 15.7108C13.0397 15.4039 12.1618 15.3041 11.2993 15.4202C10.4368 15.5364 9.61668 15.865 8.91251 16.3764C8.67133 16.5522 8.3702 16.625 8.07535 16.5787C7.78051 16.5325 7.51611 16.371 7.34032 16.1298C7.16454 15.8886 7.09176 15.5875 7.138 15.2927C7.18423 14.9978 7.34571 14.7334 7.58689 14.5576C8.73459 13.7194 10.0984 13.2275 11.5169 13.1401L9.70376 11.1451C8.33432 11.478 7.05312 12.1032 5.94814 12.978C5.71376 13.1571 5.41841 13.237 5.1257 13.2004C4.83299 13.1639 4.56633 13.0139 4.38317 12.7826C4.20001 12.5514 4.11499 12.2575 4.14643 11.9642C4.17787 11.6709 4.32325 11.4017 4.55126 11.2145C5.59554 10.3884 6.76959 9.74118 8.02564 9.2992L6.40282 7.51795C5.16306 8.04709 4.00514 8.75043 2.96407 9.6067C2.73309 9.79604 2.43635 9.88587 2.13913 9.85642C1.84191 9.82697 1.56857 9.68066 1.37923 9.44967C1.18989 9.21868 1.10007 8.92194 1.12951 8.62473C1.15896 8.32751 1.30527 8.05417 1.53626 7.86483C2.5431 7.03802 3.64456 6.33371 4.81751 5.7667L3.6672 4.50483C3.56576 4.39586 3.48696 4.26785 3.43536 4.1282C3.38376 3.98856 3.36039 3.84006 3.36661 3.69132C3.37282 3.54258 3.4085 3.39655 3.47157 3.26169C3.53463 3.12684 3.62384 3.00585 3.73401 2.90572C3.84418 2.8056 3.97313 2.72834 4.11339 2.67842C4.25364 2.6285 4.40241 2.60691 4.55106 2.61491C4.69972 2.6229 4.84531 2.66033 4.9794 2.72501C5.11349 2.78969 5.2334 2.88034 5.3322 2.9917L20.3322 19.4917ZM11.9997 17.6233C11.703 17.6233 11.413 17.7112 11.1663 17.8761C10.9197 18.0409 10.7274 18.2751 10.6139 18.5492C10.5003 18.8233 10.4706 19.1249 10.5285 19.4159C10.5864 19.7069 10.7293 19.9741 10.939 20.1839C11.1488 20.3937 11.4161 20.5366 11.7071 20.5944C11.998 20.6523 12.2996 20.6226 12.5737 20.5091C12.8478 20.3956 13.0821 20.2033 13.2469 19.9566C13.4117 19.7099 13.4997 19.4199 13.4997 19.1233C13.4997 18.7254 13.3417 18.3439 13.0604 18.0626C12.7791 17.7813 12.3975 17.6233 11.9997 17.6233ZM18.0513 12.978C18.2856 13.1571 18.581 13.237 18.8737 13.2004C19.1664 13.1639 19.4331 13.0139 19.6162 12.7826C19.7994 12.5514 19.8844 12.2575 19.853 11.9642C19.8215 11.6709 19.6761 11.4017 19.4481 11.2145C18.395 10.3778 17.208 9.72514 15.9372 9.2842C15.6567 9.1916 15.351 9.21303 15.0862 9.34388C14.8214 9.47472 14.6186 9.70448 14.5217 9.98354C14.4249 10.2626 14.4416 10.5686 14.5684 10.8354C14.6952 11.1022 14.9218 11.3084 15.1994 11.4095C16.2315 11.7682 17.1956 12.2985 18.0513 12.978ZM22.4631 7.86483C19.5116 5.44761 15.8148 4.12569 11.9997 4.12326C11.6303 4.12326 11.2563 4.13545 10.8878 4.15983C10.7401 4.16961 10.5957 4.2084 10.463 4.27398C10.3302 4.33956 10.2117 4.43065 10.1142 4.54203C10.0166 4.65342 9.94196 4.78293 9.89447 4.92316C9.84698 5.0634 9.82757 5.21162 9.83736 5.35936C9.84714 5.50709 9.88593 5.65146 9.95151 5.7842C10.0171 5.91695 10.1082 6.03548 10.2196 6.13302C10.3309 6.23057 10.4605 6.30522 10.6007 6.35271C10.7409 6.40021 10.8891 6.41961 11.0369 6.40983C11.3556 6.38826 11.68 6.37795 11.9997 6.37795C15.2942 6.37972 18.4866 7.52115 21.0353 9.60858C21.1495 9.70233 21.281 9.77267 21.4224 9.81559C21.5638 9.8585 21.7122 9.87316 21.8593 9.8587C22.0063 9.84425 22.1491 9.80098 22.2794 9.73136C22.4097 9.66174 22.525 9.56714 22.6188 9.45295C22.7125 9.33876 22.7829 9.20723 22.8258 9.06585C22.8687 8.92448 22.8833 8.77604 22.8689 8.629C22.8544 8.48197 22.8112 8.33922 22.7416 8.2089C22.6719 8.07859 22.5773 7.96326 22.4631 7.86951V7.86483Z" fill="#130032"/>
</svg>
