<svg width="24" height="24" viewBox="0 0 24 24" fill="none" xmlns="http://www.w3.org/2000/svg">
<path d="M13.5 19.125C13.5 19.4217 13.412 19.7117 13.2472 19.9584C13.0824 20.205 12.8481 20.3973 12.574 20.5108C12.2999 20.6244 11.9983 20.6541 11.7074 20.5962C11.4164 20.5383 11.1491 20.3954 10.9393 20.1857C10.7296 19.9759 10.5867 19.7086 10.5288 19.4176C10.4709 19.1267 10.5006 18.8251 10.6142 18.551C10.7277 18.2769 10.92 18.0426 11.1666 17.8778C11.4133 17.713 11.7033 17.625 12 17.625C12.3978 17.625 12.7794 17.783 13.0607 18.0643C13.342 18.3456 13.5 18.7272 13.5 19.125Z" fill="#130032"/>
</svg>
