<svg width="24" height="24" viewBox="0 0 24 24" fill="none" xmlns="http://www.w3.org/2000/svg">
<path d="M13.4996 19.124C13.4996 19.4207 13.4116 19.7107 13.2468 19.9573C13.082 20.204 12.8477 20.3963 12.5736 20.5098C12.2995 20.6233 11.9979 20.653 11.7069 20.5952C11.416 20.5373 11.1487 20.3944 10.9389 20.1846C10.7291 19.9749 10.5863 19.7076 10.5284 19.4166C10.4705 19.1256 10.5002 18.824 10.6138 18.55C10.7273 18.2759 10.9196 18.0416 11.1662 17.8768C11.4129 17.712 11.7029 17.624 11.9996 17.624C12.3974 17.624 12.7789 17.782 13.0602 18.0633C13.3415 18.3446 13.4996 18.7262 13.4996 19.124ZM20.3433 7.49898L21.7983 6.04492C22.0097 5.83358 22.1284 5.54693 22.1284 5.24805C22.1284 4.94916 22.0097 4.66251 21.7983 4.45117C21.587 4.23983 21.3003 4.12109 21.0015 4.12109C20.7026 4.12109 20.4159 4.23983 20.2046 4.45117L18.7496 5.90523L17.2955 4.45305C17.0842 4.2417 16.7975 4.12297 16.4986 4.12297C16.1998 4.12297 15.9131 4.2417 15.7018 4.45305C15.4904 4.66439 15.3717 4.95103 15.3717 5.24992C15.3717 5.54881 15.4904 5.83545 15.7018 6.0468L17.1558 7.49898L15.7036 8.95305C15.4923 9.16439 15.3736 9.45103 15.3736 9.74992C15.3736 10.0488 15.4923 10.3355 15.7036 10.5468C15.915 10.7581 16.2016 10.8769 16.5005 10.8769C16.7994 10.8769 17.0861 10.7581 17.2974 10.5468L18.7496 9.09273L20.2036 10.5477C20.3083 10.6524 20.4325 10.7354 20.5693 10.792C20.706 10.8487 20.8525 10.8778 21.0005 10.8778C21.1485 10.8778 21.2951 10.8487 21.4318 10.792C21.5685 10.7354 21.6928 10.6524 21.7974 10.5477C21.902 10.4431 21.9851 10.3189 22.0417 10.1821C22.0983 10.0454 22.1275 9.89885 22.1275 9.75086C22.1275 9.60286 22.0983 9.45632 22.0417 9.31959C21.9851 9.18286 21.902 9.05863 21.7974 8.95398L20.3433 7.49898ZM16.4152 14.5584C15.1331 13.6256 13.5884 13.1231 12.0029 13.1231C10.4174 13.1231 8.87262 13.6256 7.59052 14.5584C7.34934 14.734 7.18782 14.9983 7.14149 15.2931C7.09517 15.5878 7.16783 15.8889 7.34349 16.1301C7.51916 16.3713 7.78343 16.5328 8.07819 16.5791C8.37294 16.6254 8.67403 16.5528 8.91521 16.3771C9.8125 15.7246 10.8934 15.3731 12.0029 15.3731C13.1123 15.3731 14.1932 15.7246 15.0905 16.3771C15.3317 16.5528 15.6328 16.6254 15.9275 16.5791C16.2223 16.5328 16.4866 16.3713 16.6622 16.1301C16.8379 15.8889 16.9106 15.5878 16.8642 15.2931C16.8179 14.9983 16.6564 14.734 16.4152 14.5584ZM13.1246 5.24898C13.1246 4.95061 13.0061 4.66447 12.7951 4.45349C12.5841 4.24251 12.298 4.12398 11.9996 4.12398C8.18444 4.12595 4.48749 5.44792 1.53615 7.86555C1.42196 7.9593 1.32735 8.07462 1.25774 8.20493C1.18812 8.33525 1.14485 8.478 1.13039 8.62503C1.11594 8.77207 1.13059 8.92051 1.17351 9.06188C1.21643 9.20326 1.28677 9.33479 1.38052 9.44898C1.47427 9.56317 1.5896 9.65778 1.71991 9.7274C1.85023 9.79701 1.99297 9.84028 2.14001 9.85474C2.28705 9.86919 2.43549 9.85454 2.57686 9.81162C2.71824 9.7687 2.84977 9.69836 2.96396 9.60461C5.51271 7.51718 8.70512 6.37575 11.9996 6.37398C12.298 6.37398 12.5841 6.25546 12.7951 6.04448C13.0061 5.8335 13.1246 5.54735 13.1246 5.24898ZM13.1246 9.74898C13.1246 9.45061 13.0061 9.16447 12.7951 8.95349C12.5841 8.74251 12.298 8.62398 11.9996 8.62398C9.29407 8.61396 6.66625 9.52816 4.55115 11.2152C4.32314 11.4024 4.17776 11.6716 4.14632 11.9649C4.11488 12.2582 4.19989 12.5521 4.38306 12.7834C4.56622 13.0146 4.83287 13.1646 5.12559 13.2012C5.4183 13.2377 5.71365 13.1578 5.94802 12.9787C7.66648 11.6081 9.80151 10.8655 11.9996 10.874C12.298 10.874 12.5841 10.7555 12.7951 10.5445C13.0061 10.3335 13.1246 10.0474 13.1246 9.74898Z" fill="#130032"/>
</svg>
