<svg width="24" height="24" viewBox="0 0 24 24" fill="none" xmlns="http://www.w3.org/2000/svg">
<path d="M13.4996 19.1254C13.4996 19.4221 13.4116 19.7121 13.2468 19.9588C13.082 20.2055 12.8477 20.3977 12.5736 20.5113C12.2995 20.6248 11.9979 20.6545 11.7069 20.5966C11.416 20.5387 11.1487 20.3959 10.9389 20.1861C10.7291 19.9763 10.5863 19.709 10.5284 19.4181C10.4705 19.1271 10.5002 18.8255 10.6138 18.5514C10.7273 18.2773 10.9196 18.0431 11.1662 17.8782C11.4129 17.7134 11.7029 17.6254 11.9996 17.6254C12.3974 17.6254 12.7789 17.7835 13.0602 18.0648C13.3415 18.3461 13.4996 18.7276 13.4996 19.1254ZM22.463 7.867C19.5128 5.44737 15.8151 4.125 11.9996 4.125C8.18402 4.125 4.48639 5.44737 1.53615 7.867C1.42196 7.96076 1.32735 8.07608 1.25774 8.20639C1.18812 8.33671 1.14485 8.47945 1.13039 8.62649C1.11594 8.77353 1.13059 8.92197 1.17351 9.06334C1.21643 9.20472 1.28677 9.33625 1.38052 9.45044C1.47427 9.56463 1.5896 9.65923 1.71991 9.72885C1.85023 9.79847 1.99297 9.84174 2.14001 9.85619C2.28705 9.87065 2.43549 9.85599 2.57686 9.81308C2.71824 9.77016 2.84977 9.69982 2.96396 9.60607C5.51174 7.51689 8.70476 6.37514 11.9996 6.37514C15.2944 6.37514 18.4874 7.51689 21.0352 9.60607C21.1494 9.69982 21.2809 9.77016 21.4223 9.81308C21.5637 9.85599 21.7121 9.87065 21.8592 9.85619C22.0062 9.84174 22.1489 9.79847 22.2793 9.72885C22.4096 9.65923 22.5249 9.56463 22.6186 9.45044C22.7124 9.33625 22.7827 9.20472 22.8257 9.06334C22.8686 8.92197 22.8832 8.77353 22.8688 8.62649C22.8543 8.47945 22.8111 8.33671 22.7414 8.20639C22.6718 8.07608 22.5772 7.96076 22.463 7.867ZM19.448 11.2167C17.3281 9.53839 14.7034 8.62524 11.9996 8.62524C9.29572 8.62524 6.6711 9.53839 4.55115 11.2167C4.32314 11.4038 4.17776 11.6731 4.14632 11.9664C4.11488 12.2597 4.19989 12.5536 4.38306 12.7848C4.56622 13.016 4.83287 13.1661 5.12559 13.2026C5.4183 13.2391 5.71365 13.1592 5.94802 12.9801C7.67044 11.6167 9.80282 10.8748 11.9996 10.8748C14.1963 10.8748 16.3287 11.6167 18.0511 12.9801C18.2855 13.1592 18.5809 13.2391 18.8736 13.2026C19.1663 13.1661 19.433 13.016 19.6161 12.7848C19.7993 12.5536 19.8843 12.2597 19.8529 11.9664C19.8214 11.6731 19.676 11.4038 19.448 11.2167ZM16.4124 14.5598C15.1299 13.6275 13.5851 13.1253 11.9996 13.1253C10.414 13.1253 8.86924 13.6275 7.58677 14.5598C7.34559 14.7356 7.18412 15 7.13788 15.2948C7.09164 15.5897 7.16442 15.8908 7.34021 16.132C7.516 16.3732 7.7804 16.5347 8.07524 16.5809C8.37008 16.6271 8.67122 16.5544 8.9124 16.3786C9.8096 15.7263 10.8903 15.3749 11.9996 15.3749C13.1088 15.3749 14.1896 15.7263 15.0868 16.3786C15.2062 16.4656 15.3416 16.5283 15.4852 16.563C15.6289 16.5977 15.7779 16.6038 15.9239 16.5809C16.0699 16.558 16.21 16.5066 16.3361 16.4296C16.4622 16.3525 16.5719 16.2514 16.659 16.132C16.746 16.0126 16.8087 15.8772 16.8434 15.7335C16.8781 15.5899 16.8842 15.4408 16.8613 15.2948C16.8384 15.1489 16.787 15.0088 16.7099 14.8827C16.6329 14.7566 16.5318 14.6469 16.4124 14.5598Z" fill="#130032"/>
</svg>
