<svg width="24" height="24" viewBox="0 0 24 24" fill="none" xmlns="http://www.w3.org/2000/svg">
<path d="M13.5003 19.1252C13.5003 19.4219 13.4123 19.7119 13.2475 19.9586C13.0827 20.2052 12.8484 20.3975 12.5743 20.511C12.3002 20.6246 11.9986 20.6543 11.7077 20.5964C11.4167 20.5385 11.1494 20.3956 10.9396 20.1859C10.7299 19.9761 10.587 19.7088 10.5291 19.4178C10.4712 19.1269 10.501 18.8253 10.6145 18.5512C10.728 18.2771 10.9203 18.0428 11.167 17.878C11.4136 17.7132 11.7036 17.6252 12.0003 17.6252C12.3981 17.6252 12.7797 17.7832 13.061 18.0645C13.3423 18.3458 13.5003 18.7274 13.5003 19.1252ZM19.4487 11.2165C17.3288 9.53816 14.7042 8.625 12.0003 8.625C9.29644 8.625 6.67182 9.53816 4.55187 11.2165C4.32386 11.4036 4.17848 11.6728 4.14704 11.9661C4.1156 12.2594 4.20061 12.5533 4.38378 12.7846C4.56694 13.0158 4.83359 13.1658 5.12631 13.2024C5.41902 13.2389 5.71437 13.159 5.94874 12.9799C7.67116 11.6164 9.80354 10.8746 12.0003 10.8746C14.1971 10.8746 16.3295 11.6164 18.0519 12.9799C18.2862 13.159 18.5816 13.2389 18.8743 13.2024C19.167 13.1658 19.4337 13.0158 19.6168 12.7846C19.8 12.5533 19.885 12.2594 19.8536 11.9661C19.8221 11.6728 19.6768 11.4036 19.4487 11.2165ZM16.4131 14.5596C15.1306 13.6273 13.5858 13.1251 12.0003 13.1251C10.4148 13.1251 8.86997 13.6273 7.58749 14.5596C7.34631 14.7354 7.18484 14.9998 7.1386 15.2946C7.09236 15.5894 7.16514 15.8906 7.34093 16.1318C7.51672 16.3729 7.78112 16.5344 8.07596 16.5807C8.3708 16.6269 8.67194 16.5541 8.91312 16.3783C9.81032 15.726 10.8911 15.3747 12.0003 15.3747C13.1096 15.3747 14.1903 15.726 15.0875 16.3783C15.2069 16.4654 15.3423 16.528 15.486 16.5628C15.6296 16.5975 15.7787 16.6036 15.9247 16.5807C16.0706 16.5578 16.2107 16.5063 16.3368 16.4293C16.4629 16.3523 16.5726 16.2512 16.6597 16.1318C16.7467 16.0123 16.8094 15.8769 16.8441 15.7333C16.8788 15.5897 16.8849 15.4406 16.862 15.2946C16.8391 15.1486 16.7877 15.0086 16.7107 14.8824C16.6336 14.7563 16.5325 14.6466 16.4131 14.5596Z" fill="#130032"/>
</svg>
