<svg width="24" height="24" viewBox="0 0 24 24" fill="none" xmlns="http://www.w3.org/2000/svg">
<path d="M13.4996 19.1255C13.4996 19.4222 13.4116 19.7122 13.2468 19.9589C13.0819 20.2056 12.8477 20.3978 12.5736 20.5114C12.2995 20.6249 11.9979 20.6546 11.7069 20.5967C11.4159 20.5388 11.1487 20.396 10.9389 20.1862C10.7291 19.9764 10.5863 19.7091 10.5284 19.4182C10.4705 19.1272 10.5002 18.8256 10.6137 18.5515C10.7273 18.2774 10.9195 18.0431 11.1662 17.8783C11.4129 17.7135 11.7029 17.6255 11.9996 17.6255C12.3974 17.6255 12.7789 17.7836 13.0602 18.0649C13.3415 18.3462 13.4996 18.7277 13.4996 19.1255ZM16.4114 14.5599C15.1294 13.6273 13.5849 13.125 11.9996 13.125C10.4142 13.125 8.86969 13.6273 7.58768 14.5599C7.3465 14.7356 7.18498 14.9999 7.13865 15.2946C7.09232 15.5894 7.16498 15.8904 7.34065 16.1316C7.51631 16.3728 7.78059 16.5343 8.07534 16.5807C8.3701 16.627 8.67118 16.5543 8.91237 16.3787C9.80956 15.7264 10.8903 15.375 11.9996 15.375C13.1088 15.375 14.1895 15.7264 15.0867 16.3787C15.3279 16.5543 15.629 16.627 15.9238 16.5807C16.2185 16.5343 16.4828 16.3728 16.6585 16.1316C16.8341 15.8904 16.9068 15.5894 16.8605 15.2946C16.8141 14.9999 16.6526 14.7356 16.4114 14.5599Z" fill="#130032"/>
</svg>
