<svg width="24" height="24" viewBox="0 0 24 24" fill="none" xmlns="http://www.w3.org/2000/svg">
<path d="M9.34594 4.86404C9.21943 4.75829 9.07122 4.68164 8.91181 4.63952C8.75239 4.59739 8.58567 4.59083 8.42344 4.62029L2.79844 5.6431C2.53923 5.6903 2.30481 5.82699 2.13605 6.02933C1.96729 6.23166 1.87491 6.48681 1.875 6.75029V10.1253C1.875 10.4237 1.99353 10.7098 2.2045 10.9208C2.41548 11.1318 2.70163 11.2503 3 11.2503H8.625C8.92337 11.2503 9.20952 11.1318 9.4205 10.9208C9.63147 10.7098 9.75 10.4237 9.75 10.1253V5.72747C9.74997 5.56275 9.71377 5.40004 9.64395 5.25084C9.57413 5.10164 9.47239 4.9696 9.34594 4.86404ZM7.5 9.00029H4.125V7.68779L7.5 7.07466V9.00029ZM20.2209 2.88685C20.0944 2.7811 19.9462 2.70445 19.7868 2.66233C19.6274 2.62021 19.4607 2.61364 19.2984 2.6431L12.1734 3.93779C11.9141 3.98502 11.6795 4.12184 11.5107 4.32437C11.342 4.5269 11.2497 4.78228 11.25 5.04591V10.1253C11.25 10.4237 11.3685 10.7098 11.5795 10.9208C11.7905 11.1318 12.0766 11.2503 12.375 11.2503H19.5C19.7984 11.2503 20.0845 11.1318 20.2955 10.9208C20.5065 10.7098 20.625 10.4237 20.625 10.1253V3.75029C20.625 3.58556 20.5888 3.42285 20.5189 3.27365C20.4491 3.12445 20.3474 2.99241 20.2209 2.88685ZM18.375 9.00029H13.5V5.98435L18.375 5.09841V9.00029ZM8.625 12.7503H3C2.70163 12.7503 2.41548 12.8688 2.2045 13.0798C1.99353 13.2908 1.875 13.5769 1.875 13.8753V17.2503C1.87491 17.5138 1.96729 17.7689 2.13605 17.9712C2.30481 18.1736 2.53923 18.3103 2.79844 18.3575L8.42344 19.3803C8.58561 19.4098 8.7523 19.4034 8.91169 19.3613C9.07109 19.3193 9.21931 19.2428 9.34587 19.1372C9.47242 19.0316 9.57422 18.8994 9.64405 18.7501C9.71389 18.6008 9.75006 18.4379 9.75 18.2731V13.8753C9.75 13.5769 9.63147 13.2908 9.4205 13.0798C9.20952 12.8688 8.92337 12.7503 8.625 12.7503ZM7.5 16.925L4.125 16.3128V15.0003H7.5V16.925ZM19.5 12.7503H12.375C12.0766 12.7503 11.7905 12.8688 11.5795 13.0798C11.3685 13.2908 11.25 13.5769 11.25 13.8753V18.9547C11.2497 19.2183 11.342 19.4737 11.5107 19.6762C11.6795 19.8787 11.9141 20.0156 12.1734 20.0628L19.2984 21.3584C19.4607 21.388 19.6275 21.3815 19.7869 21.3394C19.9464 21.2973 20.0947 21.2207 20.2212 21.115C20.3478 21.0093 20.4496 20.877 20.5194 20.7276C20.5891 20.5782 20.6252 20.4152 20.625 20.2503V13.8753C20.625 13.5769 20.5065 13.2908 20.2955 13.0798C20.0845 12.8688 19.7984 12.7503 19.5 12.7503ZM18.375 18.9022L13.5 18.0162V15.0003H18.375V18.9022Z" fill="#130032"/>
</svg>
