<svg width="24" height="24" viewBox="0 0 24 24" fill="none" xmlns="http://www.w3.org/2000/svg">
<path d="M21 20.6248H17.4759L17.0334 17.5311C17.4406 17.6666 17.8819 17.6583 18.2838 17.5077C18.6856 17.357 19.0235 17.0731 19.2413 16.7033L20.3663 14.7973C20.4914 14.5851 20.5735 14.3502 20.6079 14.1062C20.6422 13.8621 20.6281 13.6137 20.5664 13.3752C20.5047 13.1366 20.3965 12.9125 20.2481 12.7158C20.0997 12.5191 19.914 12.3535 19.7016 12.2286L16.7419 10.4867L20.3663 4.32921C20.4913 4.11703 20.5734 3.8823 20.6077 3.63841C20.642 3.39452 20.628 3.14625 20.5663 2.90779C20.5047 2.66934 20.3967 2.44536 20.2485 2.24866C20.1003 2.05195 19.9147 1.88638 19.7025 1.7614L17.7956 0.636395C17.5834 0.51136 17.3486 0.429368 17.1047 0.395104C16.8608 0.36084 16.6125 0.374975 16.374 0.436702C16.1355 0.498429 15.9116 0.606538 15.7149 0.754852C15.5182 0.903167 15.3527 1.08878 15.2278 1.30108L13.485 4.2589L7.32656 0.63452C7.11433 0.509485 6.87955 0.427493 6.63562 0.393229C6.39169 0.358965 6.1434 0.3731 5.90494 0.434827C5.66647 0.496554 5.44251 0.604663 5.24584 0.752978C5.04917 0.901292 4.88366 1.0869 4.75875 1.29921L3.63375 3.20515C3.50857 3.41741 3.42646 3.65228 3.39212 3.8963C3.35777 4.14033 3.37187 4.38873 3.4336 4.62731C3.49534 4.86588 3.60349 5.08995 3.75189 5.28669C3.90029 5.48343 4.08601 5.64899 4.29844 5.7739L7.25906 7.51577L3.63469 13.6733C3.50961 13.8854 3.42757 14.1202 3.39323 14.3641C3.3589 14.608 3.37295 14.8562 3.43459 15.0947C3.49623 15.3331 3.60425 15.5571 3.75247 15.7538C3.90069 15.9505 4.08621 16.1161 4.29844 16.2411L6.20531 17.3661C6.43462 17.5017 6.6904 17.5864 6.95531 17.6145L6.52406 20.6248H3C2.70163 20.6248 2.41548 20.7434 2.2045 20.9543C1.99353 21.1653 1.875 21.4515 1.875 21.7498C1.875 22.0482 1.99353 22.3343 2.2045 22.5453C2.41548 22.7563 2.70163 22.8748 3 22.8748H21C21.2984 22.8748 21.5845 22.7563 21.7955 22.5453C22.0065 22.3343 22.125 22.0482 22.125 21.7498C22.125 21.4515 22.0065 21.1653 21.7955 20.9543C21.5845 20.7434 21.2984 20.6248 21 20.6248ZM17.4928 15.237L11.6559 11.802L12.3994 10.5401L18.2362 13.9761L17.4928 15.237ZM16.9753 2.76827L18.2372 3.51171L14.8022 9.34389L13.5403 8.60139L16.9753 2.76827ZM6.50719 2.76827L12.3441 6.20327L11.6006 7.46515L5.76375 4.02452L6.50719 2.76827ZM5.76281 14.4926L9.19781 8.65671L10.4597 9.39921L7.02469 15.2361L5.76281 14.4926ZM9.54469 15.3889L10.515 13.7417L14.5594 16.1248L15.2025 20.6248H8.7975L9.54469 15.3889Z" fill="#130032"/>
</svg>
