<svg width="24" height="24" viewBox="0 0 24 24" fill="none" xmlns="http://www.w3.org/2000/svg">
<path d="M19.6098 9.61312L17.568 2.68219C17.4994 2.44934 17.3574 2.24492 17.163 2.09944C16.9687 1.95396 16.7326 1.87523 16.4898 1.875H7.51047C7.26774 1.87523 7.03159 1.95396 6.83728 2.09944C6.64297 2.24492 6.50092 2.44934 6.43235 2.68219L4.39047 9.61312C4.0506 10.7422 4.03316 11.9437 4.34013 13.0822C4.6471 14.2206 5.26625 15.2505 6.12766 16.0556C7.43598 17.2826 9.09663 18.0677 10.8752 18.3V21.375H8.25016C7.95179 21.375 7.66564 21.4935 7.45467 21.7045C7.24369 21.9155 7.12516 22.2016 7.12516 22.5C7.12516 22.7984 7.24369 23.0845 7.45467 23.2955C7.66564 23.5065 7.95179 23.625 8.25016 23.625H15.7502C16.0485 23.625 16.3347 23.5065 16.5457 23.2955C16.7566 23.0845 16.8752 22.7984 16.8752 22.5C16.8752 22.2016 16.7566 21.9155 16.5457 21.7045C16.3347 21.4935 16.0485 21.375 15.7502 21.375H13.1252V18.3C14.904 18.0679 16.565 17.2828 17.8736 16.0556C18.7348 15.2504 19.3538 14.2204 19.6606 13.082C19.9674 11.9436 19.9498 10.7421 19.6098 9.61312ZM8.35141 4.125H15.6489L17.372 9.97594C16.352 10.2384 14.7423 10.2572 12.5083 9.12094C10.3764 8.04187 8.61766 7.78125 7.24141 7.89563L8.35141 4.125ZM12.0002 16.125C10.3892 16.1269 8.8382 15.5143 7.66329 14.4122C7.11466 13.8967 6.71922 13.2396 6.52069 12.5134C6.32215 11.7873 6.32824 11.0204 6.53829 10.2975C8.26704 9.79781 10.1608 10.4531 11.4948 11.1291C12.5777 11.6775 14.3242 12.3741 16.2067 12.3741C16.6563 12.3753 17.105 12.3329 17.5464 12.2475C17.3803 13.0774 16.9583 13.8344 16.3398 14.4122C15.1642 15.515 13.6121 16.1276 12.0002 16.125Z" fill="#130032"/>
</svg>
