<svg width="24" height="24" viewBox="0 0 24 24" fill="none" xmlns="http://www.w3.org/2000/svg">
<path d="M21.6061 6.3295C21.5379 6.16083 21.4297 6.01123 21.291 5.89353C21.1522 5.77583 20.987 5.69354 20.8095 5.65372C20.6319 5.6139 20.4474 5.61773 20.2716 5.66489C20.0959 5.71205 19.9342 5.80114 19.8005 5.9245L16.1649 9.28262L14.9761 9.02762L14.7183 7.83606L18.0736 4.20044C18.197 4.06669 18.2861 3.90502 18.3332 3.72929C18.3804 3.55356 18.3842 3.36901 18.3444 3.19147C18.3046 3.01393 18.2223 2.8487 18.1046 2.70994C17.9869 2.57119 17.8373 2.46305 17.6686 2.39481C16.3941 1.88176 14.9985 1.74777 13.6497 2.00898C12.3008 2.27018 11.0561 2.91545 10.0653 3.8672C9.07439 4.81894 8.37954 6.03665 8.06425 7.37389C7.74896 8.71113 7.82665 10.111 8.28799 11.4051L2.8983 16.3307C2.88543 16.3419 2.87322 16.3538 2.86174 16.3664C2.23732 17.001 1.88898 17.8568 1.89261 18.7471C1.89623 19.6374 2.25152 20.4903 2.88109 21.1198C3.51066 21.7494 4.3635 22.1047 5.25384 22.1083C6.14417 22.1119 6.99988 21.7636 7.63455 21.1392L7.67017 21.1026L12.5958 15.7129C13.8903 16.1755 15.2909 16.2541 16.629 15.939C17.9671 15.624 19.1856 14.9288 20.1377 13.9372C21.0899 12.9457 21.735 11.7 21.9956 10.3502C22.2561 9.00048 22.1208 7.60418 21.6061 6.3295ZM14.9995 13.8764C14.2393 13.8786 13.4893 13.7013 12.8105 13.3589C12.5914 13.2484 12.3421 13.2126 12.1008 13.257C11.8594 13.3013 11.6392 13.4234 11.4736 13.6045L6.02861 19.5632C5.81727 19.7746 5.53062 19.8933 5.23174 19.8933C4.93285 19.8933 4.64621 19.7746 4.43486 19.5632C4.22352 19.3519 4.10479 19.0653 4.10479 18.7664C4.10479 18.4675 4.22352 18.1808 4.43486 17.9695L10.3927 12.5254C10.5738 12.3599 10.6959 12.1396 10.7402 11.8983C10.7846 11.6569 10.7488 11.4077 10.6383 11.1886C10.2974 10.51 10.1214 9.76069 10.1245 9.00137C10.126 7.7089 10.6401 6.46979 11.554 5.55587C12.468 4.64196 13.7071 4.12786 14.9995 4.12637H15.083L12.6717 6.73919C12.5497 6.87162 12.4612 7.03142 12.4137 7.20517C12.3662 7.37891 12.3612 7.56152 12.3989 7.73762L12.9295 10.2079C12.9751 10.4197 13.0808 10.6138 13.2339 10.767C13.3871 10.9202 13.5812 11.0259 13.793 11.0714L16.2633 11.602C16.4394 11.6398 16.622 11.6347 16.7958 11.5872C16.9695 11.5398 17.1293 11.4513 17.2617 11.3292L19.8745 8.91887C19.8745 8.947 19.8745 8.97419 19.8745 9.00231C19.8728 10.2946 19.3586 11.5335 18.4447 12.4472C17.5308 13.3609 16.2919 13.8749 14.9995 13.8764Z" fill="#130032"/>
</svg>
