<svg width="24" height="24" viewBox="0 0 24 24" fill="none" xmlns="http://www.w3.org/2000/svg">
<path d="M19.5 2.625H4.5C4.00272 2.625 3.52581 2.82254 3.17417 3.17417C2.82254 3.52581 2.625 4.00272 2.625 4.5V19.5C2.625 19.9973 2.82254 20.4742 3.17417 20.8258C3.52581 21.1775 4.00272 21.375 4.5 21.375H19.5C19.9973 21.375 20.4742 21.1775 20.8258 20.8258C21.1775 20.4742 21.375 19.9973 21.375 19.5V4.5C21.375 4.00272 21.1775 3.52581 20.8258 3.17417C20.4742 2.82254 19.9973 2.625 19.5 2.625ZM19.125 19.125H4.875V4.875H19.125V19.125ZM8.20406 14.2041L10.4062 12L8.20406 9.79594C8.09942 9.69129 8.0164 9.56706 7.95977 9.43033C7.90314 9.2936 7.87399 9.14706 7.87399 8.99906C7.87399 8.70018 7.99272 8.41353 8.20406 8.20219C8.41541 7.99084 8.70205 7.87211 9.00094 7.87211C9.29982 7.87211 9.58647 7.99084 9.79781 8.20219L12 10.4062L14.2041 8.20125C14.4154 7.98991 14.7021 7.87117 15.0009 7.87117C15.2998 7.87117 15.5865 7.98991 15.7978 8.20125C16.0092 8.41259 16.1279 8.69924 16.1279 8.99813C16.1279 9.29701 16.0092 9.58366 15.7978 9.795L13.5938 12L15.7987 14.2041C16.0101 14.4154 16.1288 14.7021 16.1288 15.0009C16.1288 15.2998 16.0101 15.5865 15.7987 15.7978C15.5874 16.0092 15.3008 16.1279 15.0019 16.1279C14.703 16.1279 14.4163 16.0092 14.205 15.7978L12 13.5938L9.79594 15.7987C9.58459 16.0101 9.29795 16.1288 8.99906 16.1288C8.70018 16.1288 8.41353 16.0101 8.20219 15.7987C7.99084 15.5874 7.87211 15.3008 7.87211 15.0019C7.87211 14.703 7.99084 14.4163 8.20219 14.205L8.20406 14.2041Z" fill="#130032"/>
</svg>
