<svg width="24" height="24" viewBox="0 0 24 24" fill="none" xmlns="http://www.w3.org/2000/svg">
<path d="M21.7502 19.8755H18.3593C20.2157 18.3747 21.4817 16.2659 21.9337 13.922C22.3856 11.578 21.9944 9.14968 20.8291 7.06627C19.6638 4.98286 17.7995 3.37849 15.5656 2.53673C13.3318 1.69496 10.8723 1.67001 8.62189 2.46627C6.37145 3.26254 4.47496 4.82875 3.26762 6.88808C2.06029 8.94741 1.61984 11.3673 2.02414 13.7199C2.42843 16.0726 3.65144 18.2066 5.47699 19.7448C7.30253 21.2829 9.61308 22.1262 12.0002 22.1255H21.7502C22.0486 22.1255 22.3348 22.0069 22.5457 21.796C22.7567 21.585 22.8752 21.2988 22.8752 21.0005C22.8752 20.7021 22.7567 20.416 22.5457 20.205C22.3348 19.994 22.0486 19.8755 21.7502 19.8755ZM12.0002 4.12547C13.1298 4.12448 14.246 4.36853 15.2721 4.84078C14.6665 5.14203 14.0759 5.47047 13.5002 5.82609C12.539 5.2289 11.5317 4.70914 10.488 4.27172C10.9863 4.17463 11.4927 4.12565 12.0002 4.12547ZM7.43742 5.58797C8.8462 5.98289 10.2044 6.54006 11.4846 7.24828C11.064 7.58266 10.6577 7.93266 10.2659 8.29828C8.94502 7.62168 7.543 7.11695 6.09399 6.79641C6.49453 6.34396 6.94524 5.93854 7.43742 5.58797ZM4.7918 8.83453C6.11111 9.05256 7.39572 9.44441 8.61211 9.99984C8.27211 10.3905 7.94586 10.7936 7.63336 11.2092C6.57166 10.7607 5.45751 10.4482 4.31742 10.2792C4.428 9.78332 4.58689 9.29945 4.7918 8.83453ZM5.05055 15.6998C4.52683 14.719 4.2181 13.6378 4.14492 12.5283C4.8999 12.653 5.64048 12.853 6.35555 13.1255C5.86323 13.9533 5.42725 14.8134 5.05055 15.6998ZM6.65649 17.782C7.54624 15.2193 8.96748 12.8736 10.8271 10.8985C12.6867 8.92336 14.9426 7.36349 17.4471 6.32109C17.8299 6.68782 18.1754 7.09168 18.4784 7.52672C15.9856 8.47457 13.7407 9.97613 11.9128 11.9181C10.085 13.8601 8.72207 16.1918 7.9268 18.7373C7.47226 18.4625 7.04665 18.1425 6.65649 17.782ZM11.5005 19.8586C10.994 19.8274 10.4917 19.7473 10.0005 19.6195C10.6832 17.3175 11.896 15.2076 13.5415 13.459C15.187 11.7104 17.2195 10.3719 19.4759 9.55078C19.6335 10.0321 19.744 10.5275 19.8059 11.0302C17.8471 11.7824 16.0834 12.967 14.646 14.4956C13.2087 16.0241 12.1348 17.8573 11.5043 19.8586H11.5005ZM13.9755 19.6233C15.0707 16.9469 17.1184 14.771 19.7234 13.5155C19.4357 14.9701 18.7445 16.3143 17.7287 17.3945C16.7129 18.4746 15.4135 19.247 13.9793 19.6233H13.9755Z" fill="#130032"/>
</svg>
