<svg width="24" height="24" viewBox="0 0 24 24" fill="none" xmlns="http://www.w3.org/2000/svg">
<path d="M12 1.875C9.99747 1.875 8.0399 2.46882 6.37486 3.58137C4.70981 4.69392 3.41206 6.27523 2.64572 8.12533C1.87939 9.97543 1.67888 12.0112 2.06955 13.9753C2.46023 15.9393 3.42454 17.7435 4.84055 19.1595C6.25656 20.5755 8.06066 21.5398 10.0247 21.9305C11.9888 22.3211 14.0246 22.1206 15.8747 21.3543C17.7248 20.5879 19.3061 19.2902 20.4186 17.6251C21.5312 15.9601 22.125 14.0025 22.125 12C22.122 9.3156 21.0543 6.74199 19.1562 4.84383C17.258 2.94567 14.6844 1.87798 12 1.875ZM4.125 12C4.12724 9.91211 4.95764 7.91037 6.43401 6.434C7.91037 4.95764 9.91211 4.12723 12 4.125C12.8951 4.125 13.7536 4.48058 14.3865 5.11351C15.0194 5.74645 15.375 6.60489 15.375 7.5C15.375 8.39511 15.0194 9.25355 14.3865 9.88649C13.7536 10.5194 12.8951 10.875 12 10.875C11.1667 10.875 10.3438 11.0601 9.59074 11.417C8.83772 11.7739 8.1734 12.2936 7.6458 12.9387C7.11821 13.5837 6.74052 14.3379 6.54004 15.1467C6.33955 15.9556 6.32129 16.7989 6.48657 17.6156C5.73858 16.8842 5.14435 16.0106 4.7388 15.0462C4.33325 14.0819 4.12456 13.0462 4.125 12ZM12 19.875C11.1049 19.875 10.2465 19.5194 9.61352 18.8865C8.98058 18.2535 8.625 17.3951 8.625 16.5C8.625 15.6049 8.98058 14.7465 9.61352 14.1135C10.2465 13.4806 11.1049 13.125 12 13.125C12.8333 13.125 13.6562 12.9399 14.4093 12.583C15.1623 12.2261 15.8266 11.7064 16.3542 11.0613C16.8818 10.4163 17.2595 9.66211 17.46 8.85327C17.6605 8.04442 17.6787 7.20114 17.5134 6.38437C18.6305 7.47877 19.3962 8.88117 19.7128 10.4126C20.0293 11.9441 19.8824 13.5351 19.2908 14.9827C18.6992 16.4303 17.6897 17.6688 16.3911 18.5402C15.0926 19.4115 13.5638 19.8763 12 19.875ZM13.5 16.5C13.5 16.7967 13.412 17.0867 13.2472 17.3334C13.0824 17.58 12.8481 17.7723 12.574 17.8858C12.2999 17.9994 11.9983 18.0291 11.7074 17.9712C11.4164 17.9133 11.1491 17.7704 10.9393 17.5607C10.7296 17.3509 10.5867 17.0836 10.5288 16.7926C10.4709 16.5017 10.5007 16.2001 10.6142 15.926C10.7277 15.6519 10.92 15.4176 11.1666 15.2528C11.4133 15.088 11.7033 15 12 15C12.3978 15 12.7794 15.158 13.0607 15.4393C13.342 15.7206 13.5 16.1022 13.5 16.5ZM10.5 7.5C10.5 7.20333 10.588 6.91332 10.7528 6.66665C10.9176 6.41997 11.1519 6.22771 11.426 6.11418C11.7001 6.00065 12.0017 5.97094 12.2926 6.02882C12.5836 6.0867 12.8509 6.22956 13.0607 6.43934C13.2704 6.64912 13.4133 6.91639 13.4712 7.20736C13.5291 7.49834 13.4994 7.79994 13.3858 8.07403C13.2723 8.34811 13.08 8.58238 12.8334 8.7472C12.5867 8.91203 12.2967 9 12 9C11.6022 9 11.2206 8.84196 10.9393 8.56066C10.658 8.27936 10.5 7.89782 10.5 7.5Z" fill="#130032"/>
</svg>
